G75*
%MOIN*%
%OFA0B0*%
%FSLAX25Y25*%
%IPPOS*%
%LPD*%
%AMOC8*
5,1,8,0,0,1.08239X$1,22.5*
%
%ADD10C,0.00400*%
%ADD11C,0.00600*%
%ADD12C,0.00800*%
%ADD13C,0.00200*%
%ADD14C,0.00500*%
%ADD15C,0.00197*%
%ADD16C,0.00000*%
D10*
X0080047Y0052000D02*
X0080047Y0052767D01*
X0083117Y0055837D01*
X0083117Y0056604D01*
X0080047Y0056604D01*
X0084651Y0055069D02*
X0086186Y0056604D01*
X0087720Y0055069D01*
X0087720Y0052000D01*
X0087720Y0054302D02*
X0084651Y0054302D01*
X0084651Y0055069D02*
X0084651Y0052000D01*
X0111047Y0052000D02*
X0111047Y0052767D01*
X0114117Y0055837D01*
X0114117Y0056604D01*
X0111047Y0056604D01*
X0115651Y0056604D02*
X0117953Y0056604D01*
X0118720Y0055837D01*
X0118720Y0055069D01*
X0117953Y0054302D01*
X0115651Y0054302D01*
X0115651Y0052000D02*
X0115651Y0056604D01*
X0117953Y0054302D02*
X0118720Y0053535D01*
X0118720Y0052767D01*
X0117953Y0052000D01*
X0115651Y0052000D01*
X0142047Y0052000D02*
X0142047Y0052767D01*
X0145117Y0055837D01*
X0145117Y0056604D01*
X0142047Y0056604D01*
X0146651Y0055837D02*
X0146651Y0052767D01*
X0147418Y0052000D01*
X0148953Y0052000D01*
X0149720Y0052767D01*
X0149720Y0055837D02*
X0148953Y0056604D01*
X0147418Y0056604D01*
X0146651Y0055837D01*
X0173047Y0056604D02*
X0176117Y0056604D01*
X0176117Y0055837D01*
X0173047Y0052767D01*
X0173047Y0052000D01*
X0177651Y0052000D02*
X0177651Y0056604D01*
X0179953Y0056604D01*
X0180720Y0055837D01*
X0180720Y0052767D01*
X0179953Y0052000D01*
X0177651Y0052000D01*
X0205024Y0052767D02*
X0205024Y0053535D01*
X0205791Y0054302D01*
X0207326Y0054302D01*
X0208093Y0053535D01*
X0208093Y0052767D01*
X0207326Y0052000D01*
X0205791Y0052000D01*
X0205024Y0052767D01*
X0205791Y0054302D02*
X0205024Y0055069D01*
X0205024Y0055837D01*
X0205791Y0056604D01*
X0207326Y0056604D01*
X0208093Y0055837D01*
X0208093Y0055069D01*
X0207326Y0054302D01*
X0209628Y0056604D02*
X0209628Y0052000D01*
X0211930Y0052000D01*
X0212697Y0052767D01*
X0212697Y0055837D01*
X0211930Y0056604D01*
X0209628Y0056604D01*
X0236024Y0055837D02*
X0236024Y0055069D01*
X0236791Y0054302D01*
X0238326Y0054302D01*
X0239093Y0053535D01*
X0239093Y0052767D01*
X0238326Y0052000D01*
X0236791Y0052000D01*
X0236024Y0052767D01*
X0236024Y0053535D01*
X0236791Y0054302D01*
X0238326Y0054302D02*
X0239093Y0055069D01*
X0239093Y0055837D01*
X0238326Y0056604D01*
X0236791Y0056604D01*
X0236024Y0055837D01*
X0240628Y0055837D02*
X0241395Y0056604D01*
X0242930Y0056604D01*
X0243697Y0055837D01*
X0240628Y0055837D02*
X0240628Y0052767D01*
X0241395Y0052000D01*
X0242930Y0052000D01*
X0243697Y0052767D01*
X0267024Y0052767D02*
X0267024Y0053535D01*
X0267791Y0054302D01*
X0269326Y0054302D01*
X0270093Y0053535D01*
X0270093Y0052767D01*
X0269326Y0052000D01*
X0267791Y0052000D01*
X0267024Y0052767D01*
X0267791Y0054302D02*
X0267024Y0055069D01*
X0267024Y0055837D01*
X0267791Y0056604D01*
X0269326Y0056604D01*
X0270093Y0055837D01*
X0270093Y0055069D01*
X0269326Y0054302D01*
X0271628Y0054302D02*
X0273930Y0054302D01*
X0274697Y0053535D01*
X0274697Y0052767D01*
X0273930Y0052000D01*
X0271628Y0052000D01*
X0271628Y0056604D01*
X0273930Y0056604D01*
X0274697Y0055837D01*
X0274697Y0055069D01*
X0273930Y0054302D01*
X0298024Y0055069D02*
X0298024Y0055837D01*
X0298791Y0056604D01*
X0300326Y0056604D01*
X0301093Y0055837D01*
X0301093Y0055069D01*
X0300326Y0054302D01*
X0298791Y0054302D01*
X0298024Y0055069D01*
X0298791Y0054302D02*
X0298024Y0053535D01*
X0298024Y0052767D01*
X0298791Y0052000D01*
X0300326Y0052000D01*
X0301093Y0052767D01*
X0301093Y0053535D01*
X0300326Y0054302D01*
X0302628Y0054302D02*
X0305697Y0054302D01*
X0305697Y0055069D02*
X0305697Y0052000D01*
X0305697Y0055069D02*
X0304162Y0056604D01*
X0302628Y0055069D01*
X0302628Y0052000D01*
X0302628Y0112000D02*
X0302628Y0115069D01*
X0304162Y0116604D01*
X0305697Y0115069D01*
X0305697Y0112000D01*
X0305697Y0114302D02*
X0302628Y0114302D01*
X0301093Y0115069D02*
X0300326Y0114302D01*
X0298791Y0114302D01*
X0298024Y0115069D01*
X0298024Y0115837D01*
X0298791Y0116604D01*
X0300326Y0116604D01*
X0301093Y0115837D01*
X0301093Y0115069D01*
X0300326Y0114302D02*
X0301093Y0113535D01*
X0301093Y0112767D01*
X0300326Y0112000D01*
X0298791Y0112000D01*
X0298024Y0112767D01*
X0298024Y0113535D01*
X0298791Y0114302D01*
X0274697Y0113535D02*
X0274697Y0112767D01*
X0273930Y0112000D01*
X0271628Y0112000D01*
X0271628Y0116604D01*
X0273930Y0116604D01*
X0274697Y0115837D01*
X0274697Y0115069D01*
X0273930Y0114302D01*
X0271628Y0114302D01*
X0270093Y0115069D02*
X0269326Y0114302D01*
X0267791Y0114302D01*
X0267024Y0115069D01*
X0267024Y0115837D01*
X0267791Y0116604D01*
X0269326Y0116604D01*
X0270093Y0115837D01*
X0270093Y0115069D01*
X0269326Y0114302D02*
X0270093Y0113535D01*
X0270093Y0112767D01*
X0269326Y0112000D01*
X0267791Y0112000D01*
X0267024Y0112767D01*
X0267024Y0113535D01*
X0267791Y0114302D01*
X0273930Y0114302D02*
X0274697Y0113535D01*
X0243697Y0112767D02*
X0242930Y0112000D01*
X0241395Y0112000D01*
X0240628Y0112767D01*
X0240628Y0115837D01*
X0241395Y0116604D01*
X0242930Y0116604D01*
X0243697Y0115837D01*
X0239093Y0115837D02*
X0239093Y0115069D01*
X0238326Y0114302D01*
X0236791Y0114302D01*
X0236024Y0115069D01*
X0236024Y0115837D01*
X0236791Y0116604D01*
X0238326Y0116604D01*
X0239093Y0115837D01*
X0238326Y0114302D02*
X0239093Y0113535D01*
X0239093Y0112767D01*
X0238326Y0112000D01*
X0236791Y0112000D01*
X0236024Y0112767D01*
X0236024Y0113535D01*
X0236791Y0114302D01*
X0212697Y0112767D02*
X0211930Y0112000D01*
X0209628Y0112000D01*
X0209628Y0116604D01*
X0211930Y0116604D01*
X0212697Y0115837D01*
X0212697Y0112767D01*
X0208093Y0112767D02*
X0207326Y0112000D01*
X0205791Y0112000D01*
X0205024Y0112767D01*
X0205024Y0113535D01*
X0205791Y0114302D01*
X0207326Y0114302D01*
X0208093Y0113535D01*
X0208093Y0112767D01*
X0207326Y0114302D02*
X0208093Y0115069D01*
X0208093Y0115837D01*
X0207326Y0116604D01*
X0205791Y0116604D01*
X0205024Y0115837D01*
X0205024Y0115069D01*
X0205791Y0114302D01*
X0180720Y0115837D02*
X0179953Y0116604D01*
X0177651Y0116604D01*
X0177651Y0112000D01*
X0179953Y0112000D01*
X0180720Y0112767D01*
X0180720Y0115837D01*
X0176117Y0115837D02*
X0173047Y0112767D01*
X0173047Y0112000D01*
X0173047Y0116604D02*
X0176117Y0116604D01*
X0176117Y0115837D01*
X0149720Y0115837D02*
X0148953Y0116604D01*
X0147418Y0116604D01*
X0146651Y0115837D01*
X0146651Y0112767D01*
X0147418Y0112000D01*
X0148953Y0112000D01*
X0149720Y0112767D01*
X0145117Y0115837D02*
X0142047Y0112767D01*
X0142047Y0112000D01*
X0142047Y0116604D02*
X0145117Y0116604D01*
X0145117Y0115837D01*
X0118720Y0115837D02*
X0118720Y0115069D01*
X0117953Y0114302D01*
X0115651Y0114302D01*
X0114117Y0115837D02*
X0111047Y0112767D01*
X0111047Y0112000D01*
X0111047Y0116604D02*
X0114117Y0116604D01*
X0114117Y0115837D01*
X0115651Y0116604D02*
X0117953Y0116604D01*
X0118720Y0115837D01*
X0117953Y0114302D02*
X0118720Y0113535D01*
X0118720Y0112767D01*
X0117953Y0112000D01*
X0115651Y0112000D01*
X0115651Y0116604D01*
X0087720Y0115069D02*
X0087720Y0112000D01*
X0087720Y0114302D02*
X0084651Y0114302D01*
X0084651Y0115069D02*
X0086186Y0116604D01*
X0087720Y0115069D01*
X0084651Y0115069D02*
X0084651Y0112000D01*
X0083117Y0115837D02*
X0080047Y0112767D01*
X0080047Y0112000D01*
X0080047Y0116604D02*
X0083117Y0116604D01*
X0083117Y0115837D01*
X0055513Y0138767D02*
X0055513Y0141837D01*
X0054745Y0142604D01*
X0052443Y0142604D01*
X0052443Y0138000D01*
X0054745Y0138000D01*
X0055513Y0138767D01*
X0050909Y0138000D02*
X0047839Y0138000D01*
X0049374Y0138000D02*
X0049374Y0142604D01*
X0047839Y0141069D01*
X0078839Y0189000D02*
X0081909Y0189000D01*
X0080374Y0189000D02*
X0080374Y0193604D01*
X0078839Y0192069D01*
X0083443Y0192837D02*
X0083443Y0189767D01*
X0084211Y0189000D01*
X0085745Y0189000D01*
X0086513Y0189767D01*
X0086513Y0192837D02*
X0085745Y0193604D01*
X0084211Y0193604D01*
X0083443Y0192837D01*
X0109839Y0192837D02*
X0110607Y0193604D01*
X0112141Y0193604D01*
X0112909Y0192837D01*
X0112909Y0192069D01*
X0109839Y0189000D01*
X0112909Y0189000D01*
X0114443Y0189000D02*
X0116745Y0189000D01*
X0117513Y0189767D01*
X0117513Y0192837D01*
X0116745Y0193604D01*
X0114443Y0193604D01*
X0114443Y0189000D01*
X0140839Y0189000D02*
X0143909Y0192069D01*
X0143909Y0192837D01*
X0143141Y0193604D01*
X0141607Y0193604D01*
X0140839Y0192837D01*
X0140839Y0189000D02*
X0143909Y0189000D01*
X0145443Y0189767D02*
X0145443Y0192837D01*
X0146211Y0193604D01*
X0147745Y0193604D01*
X0148513Y0192837D01*
X0148513Y0189767D02*
X0147745Y0189000D01*
X0146211Y0189000D01*
X0145443Y0189767D01*
X0171839Y0189767D02*
X0172607Y0189000D01*
X0174141Y0189000D01*
X0174909Y0189767D01*
X0174909Y0190535D01*
X0174141Y0191302D01*
X0173374Y0191302D01*
X0174141Y0191302D02*
X0174909Y0192069D01*
X0174909Y0192837D01*
X0174141Y0193604D01*
X0172607Y0193604D01*
X0171839Y0192837D01*
X0176443Y0193604D02*
X0178745Y0193604D01*
X0179513Y0192837D01*
X0179513Y0189767D01*
X0178745Y0189000D01*
X0176443Y0189000D01*
X0176443Y0193604D01*
X0202839Y0192837D02*
X0203607Y0193604D01*
X0205141Y0193604D01*
X0205909Y0192837D01*
X0205909Y0192069D01*
X0205141Y0191302D01*
X0205909Y0190535D01*
X0205909Y0189767D01*
X0205141Y0189000D01*
X0203607Y0189000D01*
X0202839Y0189767D01*
X0204374Y0191302D02*
X0205141Y0191302D01*
X0207443Y0192837D02*
X0207443Y0189767D01*
X0208211Y0189000D01*
X0209745Y0189000D01*
X0210513Y0189767D01*
X0210513Y0192837D02*
X0209745Y0193604D01*
X0208211Y0193604D01*
X0207443Y0192837D01*
X0233839Y0191302D02*
X0236141Y0191302D01*
X0236909Y0190535D01*
X0236909Y0189767D01*
X0236141Y0189000D01*
X0234607Y0189000D01*
X0233839Y0189767D01*
X0233839Y0191302D01*
X0235374Y0192837D01*
X0236909Y0193604D01*
X0238443Y0193604D02*
X0238443Y0189000D01*
X0240745Y0189000D01*
X0241513Y0189767D01*
X0241513Y0192837D01*
X0240745Y0193604D01*
X0238443Y0193604D01*
X0264839Y0191302D02*
X0267141Y0191302D01*
X0267909Y0190535D01*
X0267909Y0189767D01*
X0267141Y0189000D01*
X0265607Y0189000D01*
X0264839Y0189767D01*
X0264839Y0191302D01*
X0266374Y0192837D01*
X0267909Y0193604D01*
X0269443Y0192069D02*
X0270978Y0193604D01*
X0272513Y0192069D01*
X0272513Y0189000D01*
X0272513Y0191302D02*
X0269443Y0191302D01*
X0269443Y0192069D02*
X0269443Y0189000D01*
X0287516Y0185769D02*
X0287516Y0183467D01*
X0292120Y0183467D01*
X0292120Y0185769D01*
X0291352Y0186536D01*
X0288283Y0186536D01*
X0287516Y0185769D01*
X0289818Y0181932D02*
X0289818Y0178863D01*
X0287516Y0181165D01*
X0292120Y0181165D01*
X0328520Y0157515D02*
X0331589Y0157515D01*
X0333124Y0159049D02*
X0333891Y0159817D01*
X0335426Y0159817D01*
X0336193Y0159049D01*
X0336193Y0155980D02*
X0335426Y0155213D01*
X0333891Y0155213D01*
X0333124Y0155980D01*
X0333124Y0159049D01*
X0330822Y0159817D02*
X0328520Y0157515D01*
X0330822Y0155213D02*
X0330822Y0159817D01*
X0349818Y0178863D02*
X0347516Y0181165D01*
X0352120Y0181165D01*
X0352120Y0183467D02*
X0347516Y0183467D01*
X0347516Y0185769D01*
X0348283Y0186536D01*
X0351352Y0186536D01*
X0352120Y0185769D01*
X0352120Y0183467D01*
X0349818Y0181932D02*
X0349818Y0178863D01*
X0361822Y0158013D02*
X0359520Y0155711D01*
X0362589Y0155711D01*
X0364124Y0155711D02*
X0366426Y0155711D01*
X0367193Y0154944D01*
X0367193Y0154177D01*
X0366426Y0153409D01*
X0364124Y0153409D01*
X0364124Y0158013D01*
X0366426Y0158013D01*
X0367193Y0157246D01*
X0367193Y0156479D01*
X0366426Y0155711D01*
X0361822Y0153409D02*
X0361822Y0158013D01*
X0379742Y0158187D02*
X0379742Y0159922D01*
X0380609Y0160789D01*
X0384079Y0157320D01*
X0384946Y0158187D01*
X0384946Y0159922D01*
X0384079Y0160789D01*
X0380609Y0160789D01*
X0381477Y0162476D02*
X0379742Y0164211D01*
X0384946Y0164211D01*
X0384946Y0162476D02*
X0384946Y0165946D01*
X0384946Y0167633D02*
X0384079Y0167633D01*
X0380609Y0171102D01*
X0379742Y0171102D01*
X0379742Y0167633D01*
X0379742Y0158187D02*
X0380609Y0157320D01*
X0384079Y0157320D01*
X0384946Y0155633D02*
X0384946Y0152163D01*
X0381477Y0155633D01*
X0380609Y0155633D01*
X0379742Y0154766D01*
X0379742Y0153031D01*
X0380609Y0152163D01*
X0381477Y0145304D02*
X0381477Y0143569D01*
X0380609Y0144437D02*
X0384079Y0144437D01*
X0384946Y0145304D01*
X0384079Y0141883D02*
X0383212Y0141015D01*
X0383212Y0139280D01*
X0382344Y0138413D01*
X0381477Y0139280D01*
X0381477Y0141883D01*
X0384079Y0141883D02*
X0384946Y0141015D01*
X0384946Y0138413D01*
X0384946Y0136726D02*
X0381477Y0136726D01*
X0381477Y0133257D02*
X0384079Y0133257D01*
X0384946Y0134124D01*
X0384946Y0136726D01*
X0384946Y0131570D02*
X0384946Y0128968D01*
X0384079Y0128100D01*
X0382344Y0128100D01*
X0381477Y0128968D01*
X0381477Y0131570D01*
X0385814Y0131570D01*
X0386681Y0130702D01*
X0386681Y0129835D01*
X0384946Y0126413D02*
X0381477Y0126413D01*
X0381477Y0122944D02*
X0384079Y0122944D01*
X0384946Y0123811D01*
X0384946Y0126413D01*
X0384946Y0121257D02*
X0381477Y0121257D01*
X0379742Y0119522D01*
X0381477Y0117787D01*
X0384946Y0117787D01*
X0382344Y0117787D02*
X0382344Y0121257D01*
X0367193Y0115246D02*
X0367193Y0114479D01*
X0366426Y0113711D01*
X0364124Y0113711D01*
X0362589Y0113711D02*
X0359520Y0113711D01*
X0361822Y0116013D01*
X0361822Y0111409D01*
X0364124Y0111409D02*
X0366426Y0111409D01*
X0367193Y0112177D01*
X0367193Y0112944D01*
X0366426Y0113711D01*
X0367193Y0115246D02*
X0366426Y0116013D01*
X0364124Y0116013D01*
X0364124Y0111409D01*
X0336193Y0112980D02*
X0335426Y0112213D01*
X0333891Y0112213D01*
X0333124Y0112980D01*
X0333124Y0116049D01*
X0333891Y0116817D01*
X0335426Y0116817D01*
X0336193Y0116049D01*
X0331589Y0114515D02*
X0328520Y0114515D01*
X0330822Y0116817D01*
X0330822Y0112213D01*
X0399220Y0137200D02*
X0402290Y0137200D01*
X0403824Y0137200D02*
X0406894Y0137200D01*
X0406894Y0137967D02*
X0406894Y0134898D01*
X0406894Y0137967D02*
X0405359Y0139502D01*
X0403824Y0137967D01*
X0403824Y0134898D01*
X0401522Y0134898D02*
X0401522Y0139502D01*
X0399220Y0137200D01*
X0412199Y0164028D02*
X0417403Y0164028D01*
X0417403Y0167497D01*
X0416536Y0169184D02*
X0413066Y0169184D01*
X0412199Y0170051D01*
X0412199Y0171786D01*
X0413066Y0172654D01*
X0416536Y0172654D01*
X0417403Y0171786D01*
X0417403Y0170051D01*
X0416536Y0169184D01*
X0415668Y0170919D02*
X0417403Y0172654D01*
X0416536Y0174340D02*
X0412199Y0174340D01*
X0412199Y0177810D02*
X0416536Y0177810D01*
X0417403Y0176943D01*
X0417403Y0175208D01*
X0416536Y0174340D01*
X0417403Y0179497D02*
X0417403Y0181232D01*
X0417403Y0180364D02*
X0413934Y0180364D01*
X0413934Y0179497D01*
X0412199Y0180364D02*
X0411331Y0180364D01*
X0413066Y0182934D02*
X0413934Y0182934D01*
X0414801Y0183802D01*
X0414801Y0185537D01*
X0415668Y0186404D01*
X0416536Y0186404D01*
X0417403Y0185537D01*
X0417403Y0183802D01*
X0416536Y0182934D01*
X0413066Y0182934D02*
X0412199Y0183802D01*
X0412199Y0185537D01*
X0413066Y0186404D01*
X0413934Y0188958D02*
X0413934Y0190693D01*
X0414801Y0191560D01*
X0417403Y0191560D01*
X0417403Y0188958D01*
X0416536Y0188091D01*
X0415668Y0188958D01*
X0415668Y0191560D01*
X0413934Y0193247D02*
X0413934Y0194982D01*
X0413066Y0194115D02*
X0416536Y0194115D01*
X0417403Y0194982D01*
X0417403Y0196685D02*
X0416536Y0196685D01*
X0416536Y0197552D01*
X0417403Y0197552D01*
X0417403Y0196685D01*
X0414801Y0196685D02*
X0414801Y0197552D01*
X0413934Y0197552D01*
X0413934Y0196685D01*
X0414801Y0196685D01*
X0405616Y0197538D02*
X0405616Y0194069D01*
X0400411Y0194069D01*
X0400411Y0197538D01*
X0403014Y0195804D02*
X0403014Y0194069D01*
X0403881Y0192382D02*
X0404748Y0192382D01*
X0405616Y0191515D01*
X0405616Y0189780D01*
X0404748Y0188912D01*
X0404748Y0187226D02*
X0403881Y0187226D01*
X0403014Y0186358D01*
X0403014Y0183756D01*
X0405616Y0183756D02*
X0400411Y0183756D01*
X0400411Y0186358D01*
X0401279Y0187226D01*
X0402146Y0187226D01*
X0403014Y0186358D01*
X0404748Y0187226D02*
X0405616Y0186358D01*
X0405616Y0183756D01*
X0402146Y0188912D02*
X0403014Y0189780D01*
X0403014Y0191515D01*
X0403881Y0192382D01*
X0401279Y0192382D02*
X0400411Y0191515D01*
X0400411Y0189780D01*
X0401279Y0188912D01*
X0402146Y0188912D01*
X0412199Y0204419D02*
X0412199Y0207022D01*
X0413066Y0207889D01*
X0414801Y0207889D01*
X0415668Y0207022D01*
X0415668Y0204419D01*
X0415668Y0206154D02*
X0417403Y0207889D01*
X0417403Y0209576D02*
X0417403Y0212178D01*
X0416536Y0213045D01*
X0415668Y0213045D01*
X0414801Y0212178D01*
X0414801Y0209576D01*
X0414801Y0212178D02*
X0413934Y0213045D01*
X0413066Y0213045D01*
X0412199Y0212178D01*
X0412199Y0209576D01*
X0417403Y0209576D01*
X0417403Y0214732D02*
X0412199Y0214732D01*
X0412199Y0218202D01*
X0414801Y0216467D02*
X0414801Y0214732D01*
X0417403Y0204419D02*
X0412199Y0204419D01*
X0412199Y0225045D02*
X0412199Y0227647D01*
X0413066Y0228515D01*
X0414801Y0228515D01*
X0415668Y0227647D01*
X0415668Y0225045D01*
X0417403Y0225045D02*
X0412199Y0225045D01*
X0413934Y0231069D02*
X0413934Y0232804D01*
X0414801Y0233671D01*
X0417403Y0233671D01*
X0417403Y0231069D01*
X0416536Y0230201D01*
X0415668Y0231069D01*
X0415668Y0233671D01*
X0413934Y0235358D02*
X0413934Y0237960D01*
X0414801Y0238827D01*
X0417403Y0238827D01*
X0416536Y0240514D02*
X0414801Y0240514D01*
X0413934Y0241382D01*
X0413934Y0243116D01*
X0414801Y0243984D01*
X0415668Y0243984D01*
X0415668Y0240514D01*
X0416536Y0240514D02*
X0417403Y0241382D01*
X0417403Y0243116D01*
X0417403Y0245671D02*
X0417403Y0247405D01*
X0417403Y0246538D02*
X0412199Y0246538D01*
X0412199Y0245671D01*
X0412199Y0254265D02*
X0415668Y0254265D01*
X0417403Y0255999D01*
X0415668Y0257734D01*
X0412199Y0257734D01*
X0413934Y0259421D02*
X0412199Y0261156D01*
X0417403Y0261156D01*
X0417403Y0259421D02*
X0417403Y0262891D01*
X0417403Y0235358D02*
X0413934Y0235358D01*
X0412199Y0167497D02*
X0412199Y0164028D01*
X0414801Y0164028D02*
X0414801Y0165762D01*
X0405359Y0079502D02*
X0403824Y0077967D01*
X0403824Y0074898D01*
X0401522Y0074898D02*
X0401522Y0079502D01*
X0399220Y0077200D01*
X0402290Y0077200D01*
X0403824Y0077200D02*
X0406894Y0077200D01*
X0406894Y0077967D02*
X0406894Y0074898D01*
X0406894Y0077967D02*
X0405359Y0079502D01*
X0272513Y0249000D02*
X0272513Y0252069D01*
X0270978Y0253604D01*
X0269443Y0252069D01*
X0269443Y0249000D01*
X0267909Y0249767D02*
X0267909Y0250535D01*
X0267141Y0251302D01*
X0264839Y0251302D01*
X0264839Y0249767D01*
X0265607Y0249000D01*
X0267141Y0249000D01*
X0267909Y0249767D01*
X0269443Y0251302D02*
X0272513Y0251302D01*
X0267909Y0253604D02*
X0266374Y0252837D01*
X0264839Y0251302D01*
X0241513Y0252837D02*
X0240745Y0253604D01*
X0238443Y0253604D01*
X0238443Y0249000D01*
X0240745Y0249000D01*
X0241513Y0249767D01*
X0241513Y0252837D01*
X0236909Y0253604D02*
X0235374Y0252837D01*
X0233839Y0251302D01*
X0236141Y0251302D01*
X0236909Y0250535D01*
X0236909Y0249767D01*
X0236141Y0249000D01*
X0234607Y0249000D01*
X0233839Y0249767D01*
X0233839Y0251302D01*
X0210513Y0252837D02*
X0209745Y0253604D01*
X0208211Y0253604D01*
X0207443Y0252837D01*
X0207443Y0249767D01*
X0208211Y0249000D01*
X0209745Y0249000D01*
X0210513Y0249767D01*
X0205909Y0249767D02*
X0205141Y0249000D01*
X0203607Y0249000D01*
X0202839Y0249767D01*
X0204374Y0251302D02*
X0205141Y0251302D01*
X0205909Y0250535D01*
X0205909Y0249767D01*
X0205141Y0251302D02*
X0205909Y0252069D01*
X0205909Y0252837D01*
X0205141Y0253604D01*
X0203607Y0253604D01*
X0202839Y0252837D01*
X0179513Y0252837D02*
X0178745Y0253604D01*
X0176443Y0253604D01*
X0176443Y0249000D01*
X0178745Y0249000D01*
X0179513Y0249767D01*
X0179513Y0252837D01*
X0174909Y0252837D02*
X0174141Y0253604D01*
X0172607Y0253604D01*
X0171839Y0252837D01*
X0173374Y0251302D02*
X0174141Y0251302D01*
X0174909Y0250535D01*
X0174909Y0249767D01*
X0174141Y0249000D01*
X0172607Y0249000D01*
X0171839Y0249767D01*
X0174141Y0251302D02*
X0174909Y0252069D01*
X0174909Y0252837D01*
X0148513Y0252837D02*
X0147745Y0253604D01*
X0146211Y0253604D01*
X0145443Y0252837D01*
X0145443Y0249767D01*
X0146211Y0249000D01*
X0147745Y0249000D01*
X0148513Y0249767D01*
X0143909Y0249000D02*
X0140839Y0249000D01*
X0143909Y0252069D01*
X0143909Y0252837D01*
X0143141Y0253604D01*
X0141607Y0253604D01*
X0140839Y0252837D01*
X0117513Y0252837D02*
X0116745Y0253604D01*
X0114443Y0253604D01*
X0114443Y0249000D01*
X0116745Y0249000D01*
X0117513Y0249767D01*
X0117513Y0252837D01*
X0112909Y0252837D02*
X0112141Y0253604D01*
X0110607Y0253604D01*
X0109839Y0252837D01*
X0112909Y0252837D02*
X0112909Y0252069D01*
X0109839Y0249000D01*
X0112909Y0249000D01*
X0086513Y0249767D02*
X0085745Y0249000D01*
X0084211Y0249000D01*
X0083443Y0249767D01*
X0083443Y0252837D01*
X0084211Y0253604D01*
X0085745Y0253604D01*
X0086513Y0252837D01*
X0081909Y0249000D02*
X0078839Y0249000D01*
X0080374Y0249000D02*
X0080374Y0253604D01*
X0078839Y0252069D01*
X0055720Y0262000D02*
X0055720Y0265069D01*
X0054186Y0266604D01*
X0052651Y0265069D01*
X0052651Y0262000D01*
X0051117Y0262000D02*
X0048047Y0262000D01*
X0049582Y0262000D02*
X0049582Y0266604D01*
X0048047Y0265069D01*
X0052651Y0264302D02*
X0055720Y0264302D01*
X0055720Y0304000D02*
X0055720Y0307069D01*
X0054186Y0308604D01*
X0052651Y0307069D01*
X0052651Y0304000D01*
X0051117Y0304000D02*
X0048047Y0304000D01*
X0049582Y0304000D02*
X0049582Y0308604D01*
X0048047Y0307069D01*
X0052651Y0306302D02*
X0055720Y0306302D01*
X0079047Y0313000D02*
X0082117Y0313000D01*
X0083651Y0313000D02*
X0083651Y0317604D01*
X0085953Y0317604D01*
X0086720Y0316837D01*
X0086720Y0316069D01*
X0085953Y0315302D01*
X0083651Y0315302D01*
X0083651Y0313000D02*
X0085953Y0313000D01*
X0086720Y0313767D01*
X0086720Y0314535D01*
X0085953Y0315302D01*
X0080582Y0317604D02*
X0080582Y0313000D01*
X0079047Y0316069D02*
X0080582Y0317604D01*
X0110047Y0316837D02*
X0110815Y0317604D01*
X0112349Y0317604D01*
X0113117Y0316837D01*
X0113117Y0316069D01*
X0110047Y0313000D01*
X0113117Y0313000D01*
X0114651Y0313000D02*
X0114651Y0316069D01*
X0116186Y0317604D01*
X0117720Y0316069D01*
X0117720Y0313000D01*
X0117720Y0315302D02*
X0114651Y0315302D01*
X0141047Y0316837D02*
X0141815Y0317604D01*
X0143349Y0317604D01*
X0144117Y0316837D01*
X0144117Y0316069D01*
X0141047Y0313000D01*
X0144117Y0313000D01*
X0145651Y0313000D02*
X0147953Y0313000D01*
X0148720Y0313767D01*
X0148720Y0314535D01*
X0147953Y0315302D01*
X0145651Y0315302D01*
X0145651Y0317604D02*
X0147953Y0317604D01*
X0148720Y0316837D01*
X0148720Y0316069D01*
X0147953Y0315302D01*
X0145651Y0313000D02*
X0145651Y0317604D01*
X0172047Y0316837D02*
X0172815Y0317604D01*
X0174349Y0317604D01*
X0175117Y0316837D01*
X0175117Y0316069D01*
X0174349Y0315302D01*
X0175117Y0314535D01*
X0175117Y0313767D01*
X0174349Y0313000D01*
X0172815Y0313000D01*
X0172047Y0313767D01*
X0173582Y0315302D02*
X0174349Y0315302D01*
X0176651Y0315302D02*
X0179720Y0315302D01*
X0179720Y0316069D02*
X0179720Y0313000D01*
X0176651Y0313000D02*
X0176651Y0316069D01*
X0178186Y0317604D01*
X0179720Y0316069D01*
X0203047Y0316837D02*
X0203815Y0317604D01*
X0205349Y0317604D01*
X0206117Y0316837D01*
X0206117Y0316069D01*
X0205349Y0315302D01*
X0206117Y0314535D01*
X0206117Y0313767D01*
X0205349Y0313000D01*
X0203815Y0313000D01*
X0203047Y0313767D01*
X0204582Y0315302D02*
X0205349Y0315302D01*
X0207651Y0315302D02*
X0209953Y0315302D01*
X0210720Y0314535D01*
X0210720Y0313767D01*
X0209953Y0313000D01*
X0207651Y0313000D01*
X0207651Y0317604D01*
X0209953Y0317604D01*
X0210720Y0316837D01*
X0210720Y0316069D01*
X0209953Y0315302D01*
X0234047Y0315302D02*
X0234047Y0313767D01*
X0234815Y0313000D01*
X0236349Y0313000D01*
X0237117Y0313767D01*
X0237117Y0314535D01*
X0236349Y0315302D01*
X0234047Y0315302D01*
X0235582Y0316837D01*
X0237117Y0317604D01*
X0238651Y0316837D02*
X0238651Y0313767D01*
X0239418Y0313000D01*
X0240953Y0313000D01*
X0241720Y0313767D01*
X0241720Y0316837D02*
X0240953Y0317604D01*
X0239418Y0317604D01*
X0238651Y0316837D01*
X0265047Y0315302D02*
X0265047Y0313767D01*
X0265815Y0313000D01*
X0267349Y0313000D01*
X0268117Y0313767D01*
X0268117Y0314535D01*
X0267349Y0315302D01*
X0265047Y0315302D01*
X0266582Y0316837D01*
X0268117Y0317604D01*
X0269651Y0317604D02*
X0271953Y0317604D01*
X0272720Y0316837D01*
X0272720Y0316069D01*
X0271953Y0315302D01*
X0269651Y0315302D01*
X0269651Y0313000D02*
X0269651Y0317604D01*
X0271953Y0315302D02*
X0272720Y0314535D01*
X0272720Y0313767D01*
X0271953Y0313000D01*
X0269651Y0313000D01*
X0269651Y0356000D02*
X0271953Y0356000D01*
X0272720Y0356767D01*
X0272720Y0357535D01*
X0271953Y0358302D01*
X0269651Y0358302D01*
X0268117Y0357535D02*
X0267349Y0358302D01*
X0265047Y0358302D01*
X0265047Y0356767D01*
X0265815Y0356000D01*
X0267349Y0356000D01*
X0268117Y0356767D01*
X0268117Y0357535D01*
X0269651Y0356000D02*
X0269651Y0360604D01*
X0271953Y0360604D01*
X0272720Y0359837D01*
X0272720Y0359069D01*
X0271953Y0358302D01*
X0268117Y0360604D02*
X0266582Y0359837D01*
X0265047Y0358302D01*
X0241720Y0359837D02*
X0240953Y0360604D01*
X0239418Y0360604D01*
X0238651Y0359837D01*
X0238651Y0356767D01*
X0239418Y0356000D01*
X0240953Y0356000D01*
X0241720Y0356767D01*
X0237117Y0356767D02*
X0236349Y0356000D01*
X0234815Y0356000D01*
X0234047Y0356767D01*
X0234047Y0358302D01*
X0236349Y0358302D01*
X0237117Y0357535D01*
X0237117Y0356767D01*
X0235582Y0359837D02*
X0234047Y0358302D01*
X0235582Y0359837D02*
X0237117Y0360604D01*
X0210720Y0359837D02*
X0210720Y0359069D01*
X0209953Y0358302D01*
X0207651Y0358302D01*
X0206117Y0359069D02*
X0205349Y0358302D01*
X0206117Y0357535D01*
X0206117Y0356767D01*
X0205349Y0356000D01*
X0203815Y0356000D01*
X0203047Y0356767D01*
X0204582Y0358302D02*
X0205349Y0358302D01*
X0206117Y0359069D02*
X0206117Y0359837D01*
X0205349Y0360604D01*
X0203815Y0360604D01*
X0203047Y0359837D01*
X0207651Y0360604D02*
X0207651Y0356000D01*
X0209953Y0356000D01*
X0210720Y0356767D01*
X0210720Y0357535D01*
X0209953Y0358302D01*
X0210720Y0359837D02*
X0209953Y0360604D01*
X0207651Y0360604D01*
X0179720Y0359069D02*
X0179720Y0356000D01*
X0179720Y0358302D02*
X0176651Y0358302D01*
X0176651Y0359069D02*
X0178186Y0360604D01*
X0179720Y0359069D01*
X0176651Y0359069D02*
X0176651Y0356000D01*
X0175117Y0356767D02*
X0174349Y0356000D01*
X0172815Y0356000D01*
X0172047Y0356767D01*
X0173582Y0358302D02*
X0174349Y0358302D01*
X0175117Y0357535D01*
X0175117Y0356767D01*
X0174349Y0358302D02*
X0175117Y0359069D01*
X0175117Y0359837D01*
X0174349Y0360604D01*
X0172815Y0360604D01*
X0172047Y0359837D01*
X0148720Y0359837D02*
X0148720Y0359069D01*
X0147953Y0358302D01*
X0145651Y0358302D01*
X0144117Y0359069D02*
X0144117Y0359837D01*
X0143349Y0360604D01*
X0141815Y0360604D01*
X0141047Y0359837D01*
X0144117Y0359069D02*
X0141047Y0356000D01*
X0144117Y0356000D01*
X0145651Y0356000D02*
X0147953Y0356000D01*
X0148720Y0356767D01*
X0148720Y0357535D01*
X0147953Y0358302D01*
X0148720Y0359837D02*
X0147953Y0360604D01*
X0145651Y0360604D01*
X0145651Y0356000D01*
X0117720Y0356000D02*
X0117720Y0359069D01*
X0116186Y0360604D01*
X0114651Y0359069D01*
X0114651Y0356000D01*
X0113117Y0356000D02*
X0110047Y0356000D01*
X0113117Y0359069D01*
X0113117Y0359837D01*
X0112349Y0360604D01*
X0110815Y0360604D01*
X0110047Y0359837D01*
X0114651Y0358302D02*
X0117720Y0358302D01*
X0086720Y0357535D02*
X0086720Y0356767D01*
X0085953Y0356000D01*
X0083651Y0356000D01*
X0083651Y0360604D01*
X0085953Y0360604D01*
X0086720Y0359837D01*
X0086720Y0359069D01*
X0085953Y0358302D01*
X0083651Y0358302D01*
X0085953Y0358302D02*
X0086720Y0357535D01*
X0082117Y0356000D02*
X0079047Y0356000D01*
X0080582Y0356000D02*
X0080582Y0360604D01*
X0079047Y0359069D01*
X0054745Y0202604D02*
X0052443Y0202604D01*
X0052443Y0198000D01*
X0054745Y0198000D01*
X0055513Y0198767D01*
X0055513Y0201837D01*
X0054745Y0202604D01*
X0049374Y0202604D02*
X0049374Y0198000D01*
X0047839Y0198000D02*
X0050909Y0198000D01*
X0047839Y0201069D02*
X0049374Y0202604D01*
D11*
X0288006Y0221234D02*
X0288006Y0227639D01*
X0292276Y0227639D01*
X0294451Y0227639D02*
X0294451Y0221234D01*
X0298721Y0221234D01*
X0300897Y0221234D02*
X0303032Y0221234D01*
X0301964Y0221234D02*
X0301964Y0227639D01*
X0300897Y0227639D02*
X0303032Y0227639D01*
X0305194Y0226572D02*
X0305194Y0222301D01*
X0306261Y0221234D01*
X0308396Y0221234D01*
X0309464Y0222301D01*
X0309464Y0224437D01*
X0307329Y0224437D01*
X0309464Y0226572D02*
X0308396Y0227639D01*
X0306261Y0227639D01*
X0305194Y0226572D01*
X0308410Y0231734D02*
X0310545Y0231734D01*
X0311612Y0232801D01*
X0311612Y0237072D01*
X0310545Y0238139D01*
X0308410Y0238139D01*
X0307342Y0237072D01*
X0307342Y0232801D01*
X0308410Y0231734D01*
X0311639Y0227639D02*
X0311639Y0221234D01*
X0311639Y0224437D02*
X0315909Y0224437D01*
X0315909Y0227639D02*
X0315909Y0221234D01*
X0320220Y0221234D02*
X0320220Y0227639D01*
X0322355Y0227639D02*
X0318084Y0227639D01*
X0318058Y0231734D02*
X0315923Y0233869D01*
X0316990Y0233869D02*
X0313788Y0233869D01*
X0313788Y0231734D02*
X0313788Y0238139D01*
X0316990Y0238139D01*
X0318058Y0237072D01*
X0318058Y0234937D01*
X0316990Y0233869D01*
X0320233Y0234937D02*
X0322368Y0234937D01*
X0324503Y0238139D02*
X0320233Y0238139D01*
X0320233Y0231734D01*
X0324503Y0231734D01*
X0305167Y0238139D02*
X0300897Y0238139D01*
X0300897Y0231734D01*
X0298721Y0231734D02*
X0294451Y0231734D01*
X0294451Y0238139D01*
X0298721Y0238139D01*
X0296586Y0234937D02*
X0294451Y0234937D01*
X0292276Y0236004D02*
X0291208Y0234937D01*
X0288006Y0234937D01*
X0291208Y0234937D02*
X0292276Y0233869D01*
X0292276Y0232801D01*
X0291208Y0231734D01*
X0288006Y0231734D01*
X0288006Y0238139D01*
X0291208Y0238139D01*
X0292276Y0237072D01*
X0292276Y0236004D01*
X0294451Y0242234D02*
X0296586Y0242234D01*
X0295519Y0242234D02*
X0295519Y0248639D01*
X0296586Y0248639D02*
X0294451Y0248639D01*
X0292276Y0247572D02*
X0292276Y0245437D01*
X0291208Y0244369D01*
X0288006Y0244369D01*
X0288006Y0242234D02*
X0288006Y0248639D01*
X0291208Y0248639D01*
X0292276Y0247572D01*
X0292276Y0252734D02*
X0290141Y0254869D01*
X0291208Y0254869D02*
X0288006Y0254869D01*
X0288006Y0252734D02*
X0288006Y0259139D01*
X0291208Y0259139D01*
X0292276Y0258072D01*
X0292276Y0255937D01*
X0291208Y0254869D01*
X0294451Y0255937D02*
X0296586Y0255937D01*
X0294451Y0259139D02*
X0294451Y0252734D01*
X0298721Y0252734D01*
X0300897Y0252734D02*
X0300897Y0259139D01*
X0303032Y0257004D01*
X0305167Y0259139D01*
X0305167Y0252734D01*
X0307342Y0253801D02*
X0308410Y0252734D01*
X0310545Y0252734D01*
X0311612Y0253801D01*
X0311612Y0258072D01*
X0310545Y0259139D01*
X0308410Y0259139D01*
X0307342Y0258072D01*
X0307342Y0253801D01*
X0313788Y0254869D02*
X0313788Y0259139D01*
X0318058Y0259139D02*
X0318058Y0254869D01*
X0315923Y0252734D01*
X0313788Y0254869D01*
X0320233Y0255937D02*
X0322368Y0255937D01*
X0320233Y0259139D02*
X0320233Y0252734D01*
X0324503Y0252734D01*
X0324503Y0259139D02*
X0320233Y0259139D01*
X0303018Y0248639D02*
X0303018Y0242234D01*
X0298748Y0248639D01*
X0298748Y0242234D01*
X0300897Y0234937D02*
X0303032Y0234937D01*
X0290141Y0224437D02*
X0288006Y0224437D01*
X0294451Y0259139D02*
X0298721Y0259139D01*
X0397753Y0279776D02*
X0418674Y0279776D01*
X0418674Y0308926D01*
X0397753Y0308926D01*
X0397753Y0279776D01*
X0397753Y0280008D02*
X0418674Y0280008D01*
X0418674Y0280606D02*
X0397753Y0280606D01*
X0397753Y0281205D02*
X0418674Y0281205D01*
X0418674Y0281803D02*
X0397753Y0281803D01*
X0397753Y0282402D02*
X0418674Y0282402D01*
X0418674Y0283000D02*
X0397753Y0283000D01*
X0397753Y0283599D02*
X0418674Y0283599D01*
X0418674Y0284197D02*
X0397753Y0284197D01*
X0397753Y0284796D02*
X0418674Y0284796D01*
X0418674Y0285394D02*
X0397753Y0285394D01*
X0397753Y0285993D02*
X0418674Y0285993D01*
X0418674Y0286591D02*
X0397753Y0286591D01*
X0397753Y0287190D02*
X0418674Y0287190D01*
X0418674Y0287788D02*
X0397753Y0287788D01*
X0397753Y0288387D02*
X0418674Y0288387D01*
X0418674Y0288985D02*
X0397753Y0288985D01*
X0397753Y0289584D02*
X0418674Y0289584D01*
X0418674Y0290182D02*
X0397753Y0290182D01*
X0397753Y0290781D02*
X0418674Y0290781D01*
X0418674Y0291379D02*
X0397753Y0291379D01*
X0397753Y0291978D02*
X0418674Y0291978D01*
X0418674Y0292576D02*
X0397753Y0292576D01*
X0397753Y0293175D02*
X0418674Y0293175D01*
X0418674Y0293773D02*
X0397753Y0293773D01*
X0397753Y0294372D02*
X0418674Y0294372D01*
X0418674Y0294970D02*
X0397753Y0294970D01*
X0397753Y0295569D02*
X0418674Y0295569D01*
X0418674Y0296167D02*
X0397753Y0296167D01*
X0397753Y0296766D02*
X0418674Y0296766D01*
X0418674Y0297364D02*
X0397753Y0297364D01*
X0397753Y0297963D02*
X0418674Y0297963D01*
X0418674Y0298561D02*
X0397753Y0298561D01*
X0397753Y0299160D02*
X0418674Y0299160D01*
X0418674Y0299758D02*
X0397753Y0299758D01*
X0397753Y0300357D02*
X0418674Y0300357D01*
X0418674Y0300955D02*
X0397753Y0300955D01*
X0397753Y0301554D02*
X0418674Y0301554D01*
X0418674Y0302152D02*
X0397753Y0302152D01*
X0397753Y0302751D02*
X0418674Y0302751D01*
X0418674Y0303349D02*
X0397753Y0303349D01*
X0397753Y0303948D02*
X0418674Y0303948D01*
X0418674Y0304546D02*
X0397753Y0304546D01*
X0397753Y0305145D02*
X0418674Y0305145D01*
X0418674Y0305743D02*
X0397753Y0305743D01*
X0397753Y0306342D02*
X0418674Y0306342D01*
X0418674Y0306941D02*
X0397753Y0306941D01*
X0397753Y0307539D02*
X0418674Y0307539D01*
X0418674Y0308138D02*
X0397753Y0308138D01*
X0397753Y0308736D02*
X0418674Y0308736D01*
D12*
X0401178Y0268770D02*
X0395039Y0268770D01*
X0391970Y0264166D02*
X0385832Y0264166D01*
X0395039Y0261097D02*
X0395039Y0259562D01*
X0401178Y0259562D01*
X0395039Y0261097D02*
X0401178Y0267235D01*
X0401178Y0268770D01*
X0051483Y0326649D02*
X0045345Y0326649D01*
X0045345Y0328183D01*
X0051483Y0334322D01*
X0051483Y0335857D01*
X0045345Y0335857D01*
X0042276Y0331253D02*
X0036137Y0331253D01*
X0039206Y0334322D02*
X0039206Y0328183D01*
D13*
X0288034Y0358871D02*
X0288501Y0358404D01*
X0289435Y0358404D01*
X0289902Y0358871D01*
X0289902Y0359805D01*
X0288968Y0359805D01*
X0288034Y0360739D02*
X0288034Y0358871D01*
X0288034Y0360739D02*
X0288501Y0361206D01*
X0289435Y0361206D01*
X0289902Y0360739D01*
X0290796Y0361206D02*
X0292664Y0358404D01*
X0292664Y0361206D01*
X0293559Y0361206D02*
X0293559Y0358404D01*
X0294960Y0358404D01*
X0295427Y0358871D01*
X0295427Y0360739D01*
X0294960Y0361206D01*
X0293559Y0361206D01*
X0290796Y0361206D02*
X0290796Y0358404D01*
X0309294Y0358273D02*
X0309761Y0357806D01*
X0310695Y0357806D01*
X0311162Y0358273D01*
X0311162Y0358740D01*
X0310695Y0359207D01*
X0309761Y0359207D01*
X0309294Y0359674D01*
X0309294Y0360141D01*
X0309761Y0360608D01*
X0310695Y0360608D01*
X0311162Y0360141D01*
X0312056Y0360608D02*
X0313457Y0360608D01*
X0313924Y0360141D01*
X0313924Y0358273D01*
X0313457Y0357806D01*
X0312056Y0357806D01*
X0312056Y0360608D01*
X0314818Y0359674D02*
X0315753Y0360608D01*
X0316687Y0359674D01*
X0316687Y0357806D01*
X0316687Y0359207D02*
X0314818Y0359207D01*
X0314818Y0359674D02*
X0314818Y0357806D01*
X0315113Y0344482D02*
X0315113Y0342614D01*
X0314179Y0341680D01*
X0313245Y0342614D01*
X0313245Y0344482D01*
X0312351Y0344015D02*
X0312351Y0343548D01*
X0311884Y0343081D01*
X0312351Y0342614D01*
X0312351Y0342147D01*
X0311884Y0341680D01*
X0310950Y0341680D01*
X0310483Y0342147D01*
X0311417Y0343081D02*
X0311884Y0343081D01*
X0312351Y0344015D02*
X0311884Y0344482D01*
X0310950Y0344482D01*
X0310483Y0344015D01*
X0316007Y0344015D02*
X0316474Y0344482D01*
X0317409Y0344482D01*
X0317876Y0344015D01*
X0317876Y0343548D01*
X0317409Y0343081D01*
X0317876Y0342614D01*
X0317876Y0342147D01*
X0317409Y0341680D01*
X0316474Y0341680D01*
X0316007Y0342147D01*
X0316942Y0343081D02*
X0317409Y0343081D01*
X0322744Y0332011D02*
X0323478Y0332011D01*
X0323111Y0332011D02*
X0323111Y0329809D01*
X0322744Y0329809D02*
X0323478Y0329809D01*
X0324218Y0329809D02*
X0324218Y0332011D01*
X0325319Y0332011D01*
X0325686Y0331644D01*
X0325686Y0330910D01*
X0325319Y0330543D01*
X0324218Y0330543D01*
X0324952Y0330543D02*
X0325686Y0329809D01*
X0324149Y0323615D02*
X0321346Y0323615D01*
X0321346Y0322681D02*
X0321346Y0324549D01*
X0321346Y0321787D02*
X0323682Y0321787D01*
X0324149Y0321320D01*
X0324149Y0320386D01*
X0323682Y0319919D01*
X0321346Y0319919D01*
X0321813Y0319024D02*
X0321346Y0318557D01*
X0321346Y0317623D01*
X0321813Y0317156D01*
X0323682Y0317156D01*
X0324149Y0317623D01*
X0324149Y0318557D01*
X0323682Y0319024D01*
X0321813Y0319024D01*
X0322748Y0316262D02*
X0322748Y0314394D01*
X0324149Y0313500D02*
X0321346Y0313500D01*
X0321346Y0311631D02*
X0324149Y0313500D01*
X0324149Y0311631D02*
X0321346Y0311631D01*
X0321813Y0310737D02*
X0321346Y0310270D01*
X0321346Y0309336D01*
X0321813Y0308869D01*
X0323682Y0308869D01*
X0324149Y0309336D01*
X0324149Y0310270D01*
X0323682Y0310737D01*
X0321813Y0310737D01*
X0321346Y0307962D02*
X0321346Y0307028D01*
X0321346Y0307495D02*
X0324149Y0307495D01*
X0324149Y0307028D02*
X0324149Y0307962D01*
X0324149Y0306133D02*
X0324149Y0304265D01*
X0321346Y0304265D01*
X0321346Y0292069D02*
X0324149Y0292069D01*
X0321346Y0290201D01*
X0324149Y0290201D01*
X0324149Y0289293D02*
X0324149Y0288359D01*
X0324149Y0288826D02*
X0321346Y0288826D01*
X0321346Y0288359D02*
X0321346Y0289293D01*
X0322748Y0287465D02*
X0322748Y0285597D01*
X0324149Y0284703D02*
X0321346Y0284703D01*
X0321346Y0282834D02*
X0324149Y0284703D01*
X0324149Y0282834D02*
X0321346Y0282834D01*
X0321813Y0281940D02*
X0321346Y0281473D01*
X0321346Y0280539D01*
X0321813Y0280072D01*
X0323682Y0280072D01*
X0324149Y0280539D01*
X0324149Y0281473D01*
X0323682Y0281940D01*
X0321813Y0281940D01*
X0321346Y0279165D02*
X0321346Y0278230D01*
X0321346Y0278697D02*
X0324149Y0278697D01*
X0324149Y0278230D02*
X0324149Y0279165D01*
X0324149Y0277336D02*
X0324149Y0275468D01*
X0321346Y0275468D01*
X0306432Y0276352D02*
X0306432Y0274484D01*
X0303630Y0274484D01*
X0303630Y0277246D02*
X0303630Y0278180D01*
X0303630Y0277713D02*
X0306432Y0277713D01*
X0306432Y0277246D02*
X0306432Y0278180D01*
X0305965Y0279088D02*
X0306432Y0279555D01*
X0306432Y0280489D01*
X0305965Y0280956D01*
X0304097Y0280956D01*
X0303630Y0280489D01*
X0303630Y0279555D01*
X0304097Y0279088D01*
X0305965Y0279088D01*
X0306432Y0281850D02*
X0303630Y0281850D01*
X0306432Y0283718D01*
X0303630Y0283718D01*
X0305031Y0284612D02*
X0305031Y0286481D01*
X0303630Y0287375D02*
X0303630Y0288309D01*
X0303630Y0287842D02*
X0306432Y0287842D01*
X0306432Y0287375D02*
X0306432Y0288309D01*
X0306432Y0289216D02*
X0303630Y0289216D01*
X0306432Y0291085D01*
X0303630Y0291085D01*
X0301511Y0304265D02*
X0298709Y0304265D01*
X0298709Y0307028D02*
X0298709Y0307962D01*
X0298709Y0307495D02*
X0301511Y0307495D01*
X0301511Y0307028D02*
X0301511Y0307962D01*
X0301044Y0308869D02*
X0301511Y0309336D01*
X0301511Y0310270D01*
X0301044Y0310737D01*
X0299176Y0310737D01*
X0298709Y0310270D01*
X0298709Y0309336D01*
X0299176Y0308869D01*
X0301044Y0308869D01*
X0301511Y0306133D02*
X0301511Y0304265D01*
X0301511Y0311631D02*
X0298709Y0311631D01*
X0301511Y0313500D01*
X0298709Y0313500D01*
X0300110Y0314394D02*
X0300110Y0316262D01*
X0301044Y0317156D02*
X0301511Y0317623D01*
X0301511Y0318557D01*
X0301044Y0319024D01*
X0299176Y0319024D01*
X0298709Y0318557D01*
X0298709Y0317623D01*
X0299176Y0317156D01*
X0301044Y0317156D01*
X0301044Y0319919D02*
X0298709Y0319919D01*
X0298709Y0321787D02*
X0301044Y0321787D01*
X0301511Y0321320D01*
X0301511Y0320386D01*
X0301044Y0319919D01*
X0298709Y0322681D02*
X0298709Y0324549D01*
X0298709Y0323615D02*
X0301511Y0323615D01*
X0340886Y0311826D02*
X0340886Y0310974D01*
X0341312Y0310547D01*
X0343018Y0310547D01*
X0343444Y0310974D01*
X0343444Y0311826D01*
X0343018Y0312253D01*
X0341312Y0312253D02*
X0340886Y0311826D01*
X0340886Y0309715D02*
X0343444Y0309715D01*
X0340886Y0308010D01*
X0343444Y0308010D01*
X0349386Y0308010D02*
X0351944Y0309715D01*
X0349386Y0309715D01*
X0349812Y0310547D02*
X0351518Y0310547D01*
X0351944Y0310974D01*
X0351944Y0311826D01*
X0351518Y0312253D01*
X0349812Y0312253D01*
X0349386Y0311826D01*
X0349386Y0310974D01*
X0349812Y0310547D01*
X0349386Y0308010D02*
X0351944Y0308010D01*
X0369386Y0307899D02*
X0369812Y0307472D01*
X0371518Y0307472D01*
X0371944Y0307899D01*
X0371944Y0308751D01*
X0371518Y0309178D01*
X0369812Y0309178D01*
X0369386Y0308751D01*
X0369386Y0307899D01*
X0369812Y0306640D02*
X0369386Y0306214D01*
X0369386Y0305361D01*
X0369812Y0304935D01*
X0371518Y0304935D01*
X0371944Y0305361D01*
X0371944Y0306214D01*
X0371518Y0306640D01*
X0371944Y0310010D02*
X0369386Y0310010D01*
X0370239Y0310863D01*
X0369386Y0311715D01*
X0371944Y0311715D01*
X0371944Y0312547D02*
X0369386Y0312547D01*
X0370239Y0313400D01*
X0369386Y0314253D01*
X0371944Y0314253D01*
X0383118Y0302728D02*
X0383118Y0301875D01*
X0383545Y0301449D01*
X0383118Y0300617D02*
X0385676Y0300617D01*
X0384824Y0299764D01*
X0385676Y0298911D01*
X0383118Y0298911D01*
X0383545Y0298079D02*
X0383118Y0297653D01*
X0383118Y0296800D01*
X0383545Y0296374D01*
X0383971Y0296374D01*
X0384397Y0296800D01*
X0384397Y0297653D01*
X0384824Y0298079D01*
X0385250Y0298079D01*
X0385676Y0297653D01*
X0385676Y0296800D01*
X0385250Y0296374D01*
X0385676Y0301449D02*
X0383971Y0303154D01*
X0383545Y0303154D01*
X0383118Y0302728D01*
X0385676Y0303154D02*
X0385676Y0301449D01*
X0413853Y0277716D02*
X0414279Y0277716D01*
X0414279Y0277290D01*
X0413853Y0277290D01*
X0413853Y0277716D01*
X0415132Y0277716D02*
X0415558Y0277716D01*
X0415558Y0277290D01*
X0415132Y0277290D01*
X0415132Y0277716D01*
X0415558Y0276458D02*
X0413000Y0276458D01*
X0413000Y0274753D02*
X0415558Y0276458D01*
X0415558Y0274753D02*
X0413000Y0274753D01*
X0413427Y0273920D02*
X0413000Y0273494D01*
X0413000Y0272641D01*
X0413427Y0272215D01*
X0413853Y0272215D01*
X0414279Y0272641D01*
X0414279Y0273494D01*
X0414706Y0273920D01*
X0415132Y0273920D01*
X0415558Y0273494D01*
X0415558Y0272641D01*
X0415132Y0272215D01*
X0368939Y0211966D02*
X0369365Y0211539D01*
X0369365Y0210687D01*
X0368939Y0210260D01*
X0367234Y0210260D01*
X0366807Y0210687D01*
X0366807Y0211539D01*
X0367234Y0211966D01*
X0366807Y0209428D02*
X0369365Y0209428D01*
X0366807Y0207723D01*
X0369365Y0207723D01*
X0360865Y0207723D02*
X0358307Y0207723D01*
X0360865Y0209428D01*
X0358307Y0209428D01*
X0358734Y0210260D02*
X0360439Y0210260D01*
X0360865Y0210687D01*
X0360865Y0211539D01*
X0360439Y0211966D01*
X0358734Y0211966D01*
X0358307Y0211539D01*
X0358307Y0210687D01*
X0358734Y0210260D01*
X0340865Y0210798D02*
X0338307Y0210798D01*
X0339160Y0211651D01*
X0338307Y0212503D01*
X0340865Y0212503D01*
X0340865Y0213336D02*
X0338307Y0213336D01*
X0339160Y0214188D01*
X0338307Y0215041D01*
X0340865Y0215041D01*
X0340439Y0209966D02*
X0338734Y0209966D01*
X0338307Y0209539D01*
X0338307Y0208687D01*
X0338734Y0208260D01*
X0340439Y0208260D01*
X0340865Y0208687D01*
X0340865Y0209539D01*
X0340439Y0209966D01*
X0340439Y0207428D02*
X0340865Y0207002D01*
X0340865Y0206149D01*
X0340439Y0205723D01*
X0338734Y0205723D01*
X0338307Y0206149D01*
X0338307Y0207002D01*
X0338734Y0207428D01*
X0327133Y0217248D02*
X0326707Y0216821D01*
X0327133Y0217248D02*
X0327133Y0218100D01*
X0326707Y0218527D01*
X0326280Y0218527D01*
X0325854Y0218100D01*
X0325854Y0217248D01*
X0325428Y0216821D01*
X0325001Y0216821D01*
X0324575Y0217248D01*
X0324575Y0218100D01*
X0325001Y0218527D01*
X0324575Y0219359D02*
X0327133Y0219359D01*
X0326280Y0220212D01*
X0327133Y0221064D01*
X0324575Y0221064D01*
X0325428Y0221896D02*
X0324575Y0222749D01*
X0327133Y0222749D01*
X0327133Y0221896D02*
X0327133Y0223602D01*
X0322196Y0214490D02*
X0320328Y0214490D01*
X0319434Y0214490D02*
X0319434Y0212154D01*
X0318967Y0211687D01*
X0318033Y0211687D01*
X0317566Y0212154D01*
X0317566Y0214490D01*
X0316672Y0214023D02*
X0316205Y0214490D01*
X0315270Y0214490D01*
X0314803Y0214023D01*
X0314803Y0212154D01*
X0315270Y0211687D01*
X0316205Y0211687D01*
X0316672Y0212154D01*
X0316672Y0214023D01*
X0313909Y0213089D02*
X0312041Y0213089D01*
X0311147Y0213089D02*
X0310680Y0212622D01*
X0309279Y0212622D01*
X0310213Y0212622D02*
X0311147Y0211687D01*
X0311147Y0213089D02*
X0311147Y0214023D01*
X0310680Y0214490D01*
X0309279Y0214490D01*
X0309279Y0211687D01*
X0308385Y0211687D02*
X0308385Y0214490D01*
X0306516Y0214490D02*
X0306516Y0211687D01*
X0307450Y0212622D01*
X0308385Y0211687D01*
X0305622Y0213089D02*
X0305155Y0212622D01*
X0303754Y0212622D01*
X0303754Y0211687D02*
X0303754Y0214490D01*
X0305155Y0214490D01*
X0305622Y0214023D01*
X0305622Y0213089D01*
X0302860Y0213089D02*
X0300992Y0213089D01*
X0300098Y0213089D02*
X0299630Y0212622D01*
X0298229Y0212622D01*
X0297335Y0212622D02*
X0297335Y0212154D01*
X0296868Y0211687D01*
X0295934Y0211687D01*
X0295467Y0212154D01*
X0295934Y0213089D02*
X0296868Y0213089D01*
X0297335Y0212622D01*
X0298229Y0211687D02*
X0298229Y0214490D01*
X0299630Y0214490D01*
X0300098Y0214023D01*
X0300098Y0213089D01*
X0297335Y0214023D02*
X0296868Y0214490D01*
X0295934Y0214490D01*
X0295467Y0214023D01*
X0295467Y0213556D01*
X0295934Y0213089D01*
X0321262Y0211687D02*
X0321262Y0214490D01*
X0368758Y0340396D02*
X0368758Y0343198D01*
X0370159Y0343198D01*
X0370627Y0342731D01*
X0370627Y0341797D01*
X0370159Y0341330D01*
X0368758Y0341330D01*
X0371521Y0340396D02*
X0371521Y0343198D01*
X0372922Y0343198D01*
X0373389Y0342731D01*
X0373389Y0340863D01*
X0372922Y0340396D01*
X0371521Y0340396D01*
X0374283Y0341797D02*
X0376151Y0341797D01*
X0377045Y0342731D02*
X0377045Y0340863D01*
X0377512Y0340396D01*
X0378447Y0340396D01*
X0378914Y0340863D01*
X0378914Y0342731D01*
X0378447Y0343198D01*
X0377512Y0343198D01*
X0377045Y0342731D01*
X0379808Y0343198D02*
X0379808Y0340863D01*
X0380275Y0340396D01*
X0381209Y0340396D01*
X0381676Y0340863D01*
X0381676Y0343198D01*
X0382570Y0343198D02*
X0384438Y0343198D01*
X0383504Y0343198D02*
X0383504Y0340396D01*
X0377009Y0358183D02*
X0375141Y0358183D01*
X0375141Y0360986D01*
X0374247Y0360519D02*
X0373780Y0360986D01*
X0372846Y0360986D01*
X0372379Y0360519D01*
X0372379Y0358651D01*
X0372846Y0358183D01*
X0373780Y0358183D01*
X0374247Y0358651D01*
X0371485Y0358651D02*
X0371018Y0358183D01*
X0370084Y0358183D01*
X0369617Y0358651D01*
X0370084Y0359585D02*
X0371018Y0359585D01*
X0371485Y0359118D01*
X0371485Y0358651D01*
X0370084Y0359585D02*
X0369617Y0360052D01*
X0369617Y0360519D01*
X0370084Y0360986D01*
X0371018Y0360986D01*
X0371485Y0360519D01*
D14*
X0069847Y0057863D02*
X0069847Y0049202D01*
X0077721Y0049202D01*
X0077721Y0057863D01*
X0069847Y0057902D02*
X0098627Y0057902D01*
X0098627Y0122784D01*
X0091028Y0143296D01*
X0069847Y0161800D01*
X0069847Y0057942D01*
X0100847Y0057942D02*
X0100847Y0161800D01*
X0122028Y0143296D01*
X0129627Y0122784D01*
X0129627Y0057902D01*
X0100847Y0057902D01*
X0100847Y0057863D02*
X0100847Y0049202D01*
X0108721Y0049202D01*
X0108721Y0057863D01*
X0131847Y0057863D02*
X0131847Y0049202D01*
X0139721Y0049202D01*
X0139721Y0057863D01*
X0131847Y0057902D02*
X0160627Y0057902D01*
X0160627Y0122784D01*
X0153028Y0143296D01*
X0131847Y0161800D01*
X0131847Y0057942D01*
X0162847Y0057942D02*
X0162847Y0161800D01*
X0184028Y0143296D01*
X0191627Y0122784D01*
X0191627Y0057902D01*
X0162847Y0057902D01*
X0162847Y0057863D02*
X0162847Y0049202D01*
X0170721Y0049202D01*
X0170721Y0057863D01*
X0194824Y0057863D02*
X0194824Y0049202D01*
X0202698Y0049202D01*
X0202698Y0057863D01*
X0194824Y0057902D02*
X0223603Y0057902D01*
X0223603Y0122784D01*
X0216005Y0143296D01*
X0194824Y0161800D01*
X0194824Y0057942D01*
X0225824Y0057942D02*
X0225824Y0161800D01*
X0247005Y0143296D01*
X0254603Y0122784D01*
X0254603Y0057902D01*
X0225824Y0057902D01*
X0225824Y0057863D02*
X0225824Y0049202D01*
X0233698Y0049202D01*
X0233698Y0057863D01*
X0256824Y0057863D02*
X0256824Y0049202D01*
X0264698Y0049202D01*
X0264698Y0057863D01*
X0256824Y0057902D02*
X0285603Y0057902D01*
X0285603Y0122784D01*
X0278005Y0143296D01*
X0256824Y0161800D01*
X0256824Y0057942D01*
X0287824Y0057942D02*
X0287824Y0161800D01*
X0309005Y0143296D01*
X0316603Y0122784D01*
X0316603Y0057902D01*
X0287824Y0057902D01*
X0287824Y0057863D02*
X0287824Y0049202D01*
X0295698Y0049202D01*
X0295698Y0057863D01*
X0318320Y0058076D02*
X0318320Y0049414D01*
X0326194Y0049414D01*
X0326194Y0058076D01*
X0318320Y0058115D02*
X0347099Y0058115D01*
X0347099Y0122997D01*
X0339501Y0143509D01*
X0318320Y0162013D01*
X0318320Y0058154D01*
X0349320Y0057351D02*
X0349320Y0161209D01*
X0370501Y0142706D01*
X0378099Y0122194D01*
X0378099Y0057312D01*
X0349320Y0057312D01*
X0349320Y0057272D02*
X0349320Y0048611D01*
X0357194Y0048611D01*
X0357194Y0057272D01*
X0389020Y0072099D02*
X0389020Y0080761D01*
X0389020Y0080800D02*
X0417800Y0080800D01*
X0417800Y0145682D01*
X0410202Y0166194D01*
X0389020Y0184698D01*
X0389020Y0080839D01*
X0396894Y0080761D02*
X0396894Y0072099D01*
X0389020Y0072099D01*
X0283847Y0143800D02*
X0262666Y0162304D01*
X0255068Y0182816D01*
X0255068Y0247698D01*
X0283847Y0247698D01*
X0283847Y0247737D02*
X0283847Y0256398D01*
X0275973Y0256398D01*
X0275973Y0247737D01*
X0283847Y0247658D02*
X0283847Y0143800D01*
X0293422Y0169091D02*
X0358304Y0169091D01*
X0378816Y0176690D01*
X0397320Y0197871D01*
X0293461Y0197871D01*
X0293422Y0197871D02*
X0293422Y0169091D01*
X0293383Y0189997D02*
X0284721Y0189997D01*
X0284721Y0197871D01*
X0293383Y0197871D01*
X0328454Y0204398D02*
X0379241Y0204398D01*
X0379241Y0219753D01*
X0373965Y0219753D01*
X0373965Y0209123D01*
X0373965Y0219753D02*
X0353965Y0219753D01*
X0353965Y0208729D01*
X0353965Y0219753D02*
X0333965Y0219753D01*
X0333965Y0209123D01*
X0328454Y0204398D02*
X0328454Y0219753D01*
X0333965Y0219753D01*
X0328454Y0219753D02*
X0328454Y0246524D01*
X0379241Y0246524D01*
X0379241Y0219753D01*
X0380894Y0246918D02*
X0385107Y0246918D01*
X0385146Y0246918D01*
X0385107Y0246918D02*
X0383003Y0250781D01*
X0381120Y0254239D02*
X0379016Y0258102D01*
X0377132Y0261559D02*
X0375028Y0265422D01*
X0374910Y0265422D02*
X0370771Y0263637D01*
X0367155Y0262078D02*
X0363016Y0260293D01*
X0359401Y0258734D02*
X0355261Y0256950D01*
X0351646Y0255391D02*
X0347506Y0253606D01*
X0343891Y0252047D02*
X0339752Y0250262D01*
X0340146Y0246918D02*
X0344359Y0246918D01*
X0348296Y0246918D02*
X0352509Y0246918D01*
X0356446Y0246918D02*
X0360658Y0246918D01*
X0364595Y0246918D02*
X0368808Y0246918D01*
X0372745Y0246918D02*
X0376957Y0246918D01*
X0362747Y0267002D02*
X0358608Y0265217D01*
X0354992Y0263658D02*
X0350853Y0261873D01*
X0347238Y0260315D02*
X0343098Y0258530D01*
X0339483Y0256971D02*
X0335343Y0255186D01*
X0335225Y0255186D02*
X0333121Y0259049D01*
X0331238Y0262506D02*
X0329134Y0266369D01*
X0327251Y0269827D02*
X0325146Y0273690D01*
X0325107Y0273690D01*
X0325146Y0273690D02*
X0329359Y0273690D01*
X0331013Y0274083D02*
X0331013Y0300855D01*
X0336288Y0300855D01*
X0336288Y0311485D01*
X0331013Y0316209D02*
X0381800Y0316209D01*
X0381800Y0300855D01*
X0376288Y0300855D01*
X0376288Y0311485D01*
X0376288Y0300855D02*
X0356288Y0300855D01*
X0356288Y0311879D01*
X0356288Y0300855D02*
X0336288Y0300855D01*
X0331013Y0300855D02*
X0331013Y0316209D01*
X0326148Y0342934D02*
X0326153Y0343375D01*
X0326170Y0343816D01*
X0326197Y0344256D01*
X0326235Y0344696D01*
X0326283Y0345134D01*
X0326343Y0345572D01*
X0326413Y0346007D01*
X0326493Y0346441D01*
X0326585Y0346873D01*
X0326687Y0347302D01*
X0326799Y0347728D01*
X0326922Y0348152D01*
X0327055Y0348573D01*
X0327199Y0348990D01*
X0327353Y0349403D01*
X0327516Y0349813D01*
X0327690Y0350219D01*
X0327874Y0350620D01*
X0328067Y0351016D01*
X0328271Y0351408D01*
X0328483Y0351794D01*
X0328705Y0352176D01*
X0328937Y0352551D01*
X0329178Y0352921D01*
X0329427Y0353285D01*
X0329686Y0353642D01*
X0329953Y0353993D01*
X0330228Y0354338D01*
X0330512Y0354675D01*
X0330805Y0355006D01*
X0331105Y0355329D01*
X0331413Y0355645D01*
X0331729Y0355953D01*
X0332052Y0356253D01*
X0332383Y0356546D01*
X0332720Y0356830D01*
X0333065Y0357105D01*
X0333416Y0357372D01*
X0333773Y0357631D01*
X0334137Y0357880D01*
X0334507Y0358121D01*
X0334882Y0358353D01*
X0335264Y0358575D01*
X0335650Y0358787D01*
X0336042Y0358991D01*
X0336438Y0359184D01*
X0336839Y0359368D01*
X0337245Y0359542D01*
X0337655Y0359705D01*
X0338068Y0359859D01*
X0338485Y0360003D01*
X0338906Y0360136D01*
X0339330Y0360259D01*
X0339756Y0360371D01*
X0340185Y0360473D01*
X0340617Y0360565D01*
X0341051Y0360645D01*
X0341486Y0360715D01*
X0341924Y0360775D01*
X0342362Y0360823D01*
X0342802Y0360861D01*
X0343242Y0360888D01*
X0343683Y0360905D01*
X0344124Y0360910D01*
X0344565Y0360905D01*
X0345006Y0360888D01*
X0345446Y0360861D01*
X0345886Y0360823D01*
X0346324Y0360775D01*
X0346762Y0360715D01*
X0347197Y0360645D01*
X0347631Y0360565D01*
X0348063Y0360473D01*
X0348492Y0360371D01*
X0348918Y0360259D01*
X0349342Y0360136D01*
X0349763Y0360003D01*
X0350180Y0359859D01*
X0350593Y0359705D01*
X0351003Y0359542D01*
X0351409Y0359368D01*
X0351810Y0359184D01*
X0352206Y0358991D01*
X0352598Y0358787D01*
X0352984Y0358575D01*
X0353366Y0358353D01*
X0353741Y0358121D01*
X0354111Y0357880D01*
X0354475Y0357631D01*
X0354832Y0357372D01*
X0355183Y0357105D01*
X0355528Y0356830D01*
X0355865Y0356546D01*
X0356196Y0356253D01*
X0356519Y0355953D01*
X0356835Y0355645D01*
X0357143Y0355329D01*
X0357443Y0355006D01*
X0357736Y0354675D01*
X0358020Y0354338D01*
X0358295Y0353993D01*
X0358562Y0353642D01*
X0358821Y0353285D01*
X0359070Y0352921D01*
X0359311Y0352551D01*
X0359543Y0352176D01*
X0359765Y0351794D01*
X0359977Y0351408D01*
X0360181Y0351016D01*
X0360374Y0350620D01*
X0360558Y0350219D01*
X0360732Y0349813D01*
X0360895Y0349403D01*
X0361049Y0348990D01*
X0361193Y0348573D01*
X0361326Y0348152D01*
X0361449Y0347728D01*
X0361561Y0347302D01*
X0361663Y0346873D01*
X0361755Y0346441D01*
X0361835Y0346007D01*
X0361905Y0345572D01*
X0361965Y0345134D01*
X0362013Y0344696D01*
X0362051Y0344256D01*
X0362078Y0343816D01*
X0362095Y0343375D01*
X0362100Y0342934D01*
X0362095Y0342493D01*
X0362078Y0342052D01*
X0362051Y0341612D01*
X0362013Y0341172D01*
X0361965Y0340734D01*
X0361905Y0340296D01*
X0361835Y0339861D01*
X0361755Y0339427D01*
X0361663Y0338995D01*
X0361561Y0338566D01*
X0361449Y0338140D01*
X0361326Y0337716D01*
X0361193Y0337295D01*
X0361049Y0336878D01*
X0360895Y0336465D01*
X0360732Y0336055D01*
X0360558Y0335649D01*
X0360374Y0335248D01*
X0360181Y0334852D01*
X0359977Y0334460D01*
X0359765Y0334074D01*
X0359543Y0333692D01*
X0359311Y0333317D01*
X0359070Y0332947D01*
X0358821Y0332583D01*
X0358562Y0332226D01*
X0358295Y0331875D01*
X0358020Y0331530D01*
X0357736Y0331193D01*
X0357443Y0330862D01*
X0357143Y0330539D01*
X0356835Y0330223D01*
X0356519Y0329915D01*
X0356196Y0329615D01*
X0355865Y0329322D01*
X0355528Y0329038D01*
X0355183Y0328763D01*
X0354832Y0328496D01*
X0354475Y0328237D01*
X0354111Y0327988D01*
X0353741Y0327747D01*
X0353366Y0327515D01*
X0352984Y0327293D01*
X0352598Y0327081D01*
X0352206Y0326877D01*
X0351810Y0326684D01*
X0351409Y0326500D01*
X0351003Y0326326D01*
X0350593Y0326163D01*
X0350180Y0326009D01*
X0349763Y0325865D01*
X0349342Y0325732D01*
X0348918Y0325609D01*
X0348492Y0325497D01*
X0348063Y0325395D01*
X0347631Y0325303D01*
X0347197Y0325223D01*
X0346762Y0325153D01*
X0346324Y0325093D01*
X0345886Y0325045D01*
X0345446Y0325007D01*
X0345006Y0324980D01*
X0344565Y0324963D01*
X0344124Y0324958D01*
X0343683Y0324963D01*
X0343242Y0324980D01*
X0342802Y0325007D01*
X0342362Y0325045D01*
X0341924Y0325093D01*
X0341486Y0325153D01*
X0341051Y0325223D01*
X0340617Y0325303D01*
X0340185Y0325395D01*
X0339756Y0325497D01*
X0339330Y0325609D01*
X0338906Y0325732D01*
X0338485Y0325865D01*
X0338068Y0326009D01*
X0337655Y0326163D01*
X0337245Y0326326D01*
X0336839Y0326500D01*
X0336438Y0326684D01*
X0336042Y0326877D01*
X0335650Y0327081D01*
X0335264Y0327293D01*
X0334882Y0327515D01*
X0334507Y0327747D01*
X0334137Y0327988D01*
X0333773Y0328237D01*
X0333416Y0328496D01*
X0333065Y0328763D01*
X0332720Y0329038D01*
X0332383Y0329322D01*
X0332052Y0329615D01*
X0331729Y0329915D01*
X0331413Y0330223D01*
X0331105Y0330539D01*
X0330805Y0330862D01*
X0330512Y0331193D01*
X0330228Y0331530D01*
X0329953Y0331875D01*
X0329686Y0332226D01*
X0329427Y0332583D01*
X0329178Y0332947D01*
X0328937Y0333317D01*
X0328705Y0333692D01*
X0328483Y0334074D01*
X0328271Y0334460D01*
X0328067Y0334852D01*
X0327874Y0335248D01*
X0327690Y0335649D01*
X0327516Y0336055D01*
X0327353Y0336465D01*
X0327199Y0336878D01*
X0327055Y0337295D01*
X0326922Y0337716D01*
X0326799Y0338140D01*
X0326687Y0338566D01*
X0326585Y0338995D01*
X0326493Y0339427D01*
X0326413Y0339861D01*
X0326343Y0340296D01*
X0326283Y0340734D01*
X0326235Y0341172D01*
X0326197Y0341612D01*
X0326170Y0342052D01*
X0326153Y0342493D01*
X0326148Y0342934D01*
X0283627Y0323784D02*
X0283627Y0258902D01*
X0254847Y0258902D01*
X0254847Y0258863D02*
X0254847Y0250202D01*
X0262721Y0250202D01*
X0262721Y0258863D01*
X0254847Y0258942D02*
X0254847Y0362800D01*
X0276028Y0344296D01*
X0283627Y0323784D01*
X0252627Y0323784D02*
X0252627Y0258902D01*
X0223847Y0258902D01*
X0223847Y0258863D02*
X0223847Y0250202D01*
X0231721Y0250202D01*
X0231721Y0258863D01*
X0223847Y0258942D02*
X0223847Y0362800D01*
X0245028Y0344296D01*
X0252627Y0323784D01*
X0221627Y0323784D02*
X0221627Y0258902D01*
X0192847Y0258902D01*
X0192847Y0258863D02*
X0192847Y0250202D01*
X0200721Y0250202D01*
X0200721Y0258863D01*
X0192847Y0258942D02*
X0192847Y0362800D01*
X0214028Y0344296D01*
X0221627Y0323784D01*
X0190627Y0323784D02*
X0190627Y0258902D01*
X0161847Y0258902D01*
X0161847Y0258863D02*
X0161847Y0250202D01*
X0169721Y0250202D01*
X0169721Y0258863D01*
X0161847Y0258942D02*
X0161847Y0362800D01*
X0183028Y0344296D01*
X0190627Y0323784D01*
X0159627Y0323784D02*
X0159627Y0258902D01*
X0130847Y0258902D01*
X0130847Y0258863D02*
X0130847Y0250202D01*
X0138721Y0250202D01*
X0138721Y0258863D01*
X0130847Y0258942D02*
X0130847Y0362800D01*
X0152028Y0344296D01*
X0159627Y0323784D01*
X0128627Y0323784D02*
X0128627Y0258902D01*
X0099847Y0258902D01*
X0099847Y0258863D02*
X0099847Y0250202D01*
X0107721Y0250202D01*
X0107721Y0258863D01*
X0099847Y0258942D02*
X0099847Y0362800D01*
X0121028Y0344296D01*
X0128627Y0323784D01*
X0097627Y0323784D02*
X0097627Y0258902D01*
X0068847Y0258902D01*
X0068847Y0258863D02*
X0068847Y0250202D01*
X0076721Y0250202D01*
X0076721Y0258863D01*
X0068847Y0258942D02*
X0068847Y0362800D01*
X0090028Y0344296D01*
X0097627Y0323784D01*
X0059028Y0293296D02*
X0066627Y0272784D01*
X0066627Y0207902D01*
X0037847Y0207902D01*
X0037847Y0207863D02*
X0037847Y0199202D01*
X0045721Y0199202D01*
X0045721Y0207863D01*
X0037847Y0207942D02*
X0037847Y0311800D01*
X0059028Y0293296D01*
X0089973Y0256398D02*
X0097847Y0256398D01*
X0097847Y0247737D01*
X0097847Y0247698D02*
X0069068Y0247698D01*
X0069068Y0182816D01*
X0076666Y0162304D01*
X0097847Y0143800D01*
X0097847Y0247658D01*
X0100068Y0247698D02*
X0100068Y0182816D01*
X0107666Y0162304D01*
X0128847Y0143800D01*
X0128847Y0247658D01*
X0128847Y0247698D02*
X0100068Y0247698D01*
X0089973Y0247737D02*
X0089973Y0256398D01*
X0120973Y0256398D02*
X0120973Y0247737D01*
X0128847Y0247737D02*
X0128847Y0256398D01*
X0120973Y0256398D01*
X0131068Y0247698D02*
X0131068Y0182816D01*
X0138666Y0162304D01*
X0159847Y0143800D01*
X0159847Y0247658D01*
X0159847Y0247698D02*
X0131068Y0247698D01*
X0151973Y0247737D02*
X0151973Y0256398D01*
X0159847Y0256398D01*
X0159847Y0247737D01*
X0162068Y0247698D02*
X0162068Y0182816D01*
X0169666Y0162304D01*
X0190847Y0143800D01*
X0190847Y0247658D01*
X0190847Y0247698D02*
X0162068Y0247698D01*
X0182973Y0247737D02*
X0182973Y0256398D01*
X0190847Y0256398D01*
X0190847Y0247737D01*
X0193068Y0247698D02*
X0193068Y0182816D01*
X0200666Y0162304D01*
X0221847Y0143800D01*
X0221847Y0247658D01*
X0221847Y0247698D02*
X0193068Y0247698D01*
X0213973Y0247737D02*
X0213973Y0256398D01*
X0221847Y0256398D01*
X0221847Y0247737D01*
X0224068Y0247698D02*
X0224068Y0182816D01*
X0231666Y0162304D01*
X0252847Y0143800D01*
X0252847Y0247658D01*
X0252847Y0247698D02*
X0224068Y0247698D01*
X0244973Y0247737D02*
X0244973Y0256398D01*
X0252847Y0256398D01*
X0252847Y0247737D01*
X0331997Y0246918D02*
X0336136Y0248703D01*
X0336209Y0246918D02*
X0331997Y0246918D01*
X0333296Y0273690D02*
X0337509Y0273690D01*
X0341446Y0273690D02*
X0345658Y0273690D01*
X0349595Y0273690D02*
X0353808Y0273690D01*
X0357745Y0273690D02*
X0361957Y0273690D01*
X0365894Y0273690D02*
X0370107Y0273690D01*
X0370502Y0270346D02*
X0366362Y0268561D01*
X0374117Y0271905D02*
X0378257Y0273690D01*
X0374044Y0273690D01*
X0381800Y0274083D02*
X0331013Y0274083D01*
X0381800Y0274083D02*
X0381800Y0300855D01*
X0383950Y0330005D02*
X0384343Y0330005D01*
X0384343Y0340635D01*
X0383950Y0340635D01*
X0383950Y0340241D01*
X0383950Y0330005D01*
X0383950Y0330792D02*
X0384343Y0330792D01*
X0384343Y0340241D01*
X0383950Y0340241D01*
X0383950Y0339454D02*
X0383950Y0331580D01*
X0383950Y0330792D01*
X0383950Y0331580D02*
X0384343Y0331580D01*
X0384343Y0339454D01*
X0396548Y0339454D01*
X0396548Y0331580D01*
X0384343Y0331580D01*
X0384343Y0339454D02*
X0383950Y0339454D01*
X0066847Y0205398D02*
X0066847Y0196737D01*
X0066847Y0196698D02*
X0038068Y0196698D01*
X0038068Y0131816D01*
X0045666Y0111304D01*
X0066847Y0092800D01*
X0066847Y0196658D01*
X0058973Y0196737D02*
X0058973Y0205398D01*
X0066847Y0205398D01*
D15*
X0335108Y0342934D02*
X0335111Y0343155D01*
X0335119Y0343376D01*
X0335132Y0343597D01*
X0335151Y0343818D01*
X0335176Y0344038D01*
X0335206Y0344257D01*
X0335241Y0344475D01*
X0335281Y0344693D01*
X0335327Y0344909D01*
X0335378Y0345125D01*
X0335435Y0345339D01*
X0335496Y0345551D01*
X0335563Y0345762D01*
X0335635Y0345971D01*
X0335712Y0346179D01*
X0335794Y0346384D01*
X0335881Y0346588D01*
X0335974Y0346789D01*
X0336071Y0346988D01*
X0336173Y0347184D01*
X0336279Y0347378D01*
X0336391Y0347569D01*
X0336507Y0347758D01*
X0336627Y0347943D01*
X0336753Y0348125D01*
X0336882Y0348305D01*
X0337016Y0348481D01*
X0337155Y0348654D01*
X0337297Y0348823D01*
X0337444Y0348989D01*
X0337594Y0349151D01*
X0337749Y0349309D01*
X0337907Y0349464D01*
X0338069Y0349614D01*
X0338235Y0349761D01*
X0338404Y0349903D01*
X0338577Y0350042D01*
X0338753Y0350176D01*
X0338933Y0350305D01*
X0339115Y0350431D01*
X0339300Y0350551D01*
X0339489Y0350667D01*
X0339680Y0350779D01*
X0339874Y0350885D01*
X0340070Y0350987D01*
X0340269Y0351084D01*
X0340470Y0351177D01*
X0340674Y0351264D01*
X0340879Y0351346D01*
X0341087Y0351423D01*
X0341296Y0351495D01*
X0341507Y0351562D01*
X0341719Y0351623D01*
X0341933Y0351680D01*
X0342149Y0351731D01*
X0342365Y0351777D01*
X0342583Y0351817D01*
X0342801Y0351852D01*
X0343020Y0351882D01*
X0343240Y0351907D01*
X0343461Y0351926D01*
X0343682Y0351939D01*
X0343903Y0351947D01*
X0344124Y0351950D01*
X0344345Y0351947D01*
X0344566Y0351939D01*
X0344787Y0351926D01*
X0345008Y0351907D01*
X0345228Y0351882D01*
X0345447Y0351852D01*
X0345665Y0351817D01*
X0345883Y0351777D01*
X0346099Y0351731D01*
X0346315Y0351680D01*
X0346529Y0351623D01*
X0346741Y0351562D01*
X0346952Y0351495D01*
X0347161Y0351423D01*
X0347369Y0351346D01*
X0347574Y0351264D01*
X0347778Y0351177D01*
X0347979Y0351084D01*
X0348178Y0350987D01*
X0348374Y0350885D01*
X0348568Y0350779D01*
X0348759Y0350667D01*
X0348948Y0350551D01*
X0349133Y0350431D01*
X0349315Y0350305D01*
X0349495Y0350176D01*
X0349671Y0350042D01*
X0349844Y0349903D01*
X0350013Y0349761D01*
X0350179Y0349614D01*
X0350341Y0349464D01*
X0350499Y0349309D01*
X0350654Y0349151D01*
X0350804Y0348989D01*
X0350951Y0348823D01*
X0351093Y0348654D01*
X0351232Y0348481D01*
X0351366Y0348305D01*
X0351495Y0348125D01*
X0351621Y0347943D01*
X0351741Y0347758D01*
X0351857Y0347569D01*
X0351969Y0347378D01*
X0352075Y0347184D01*
X0352177Y0346988D01*
X0352274Y0346789D01*
X0352367Y0346588D01*
X0352454Y0346384D01*
X0352536Y0346179D01*
X0352613Y0345971D01*
X0352685Y0345762D01*
X0352752Y0345551D01*
X0352813Y0345339D01*
X0352870Y0345125D01*
X0352921Y0344909D01*
X0352967Y0344693D01*
X0353007Y0344475D01*
X0353042Y0344257D01*
X0353072Y0344038D01*
X0353097Y0343818D01*
X0353116Y0343597D01*
X0353129Y0343376D01*
X0353137Y0343155D01*
X0353140Y0342934D01*
X0353137Y0342713D01*
X0353129Y0342492D01*
X0353116Y0342271D01*
X0353097Y0342050D01*
X0353072Y0341830D01*
X0353042Y0341611D01*
X0353007Y0341393D01*
X0352967Y0341175D01*
X0352921Y0340959D01*
X0352870Y0340743D01*
X0352813Y0340529D01*
X0352752Y0340317D01*
X0352685Y0340106D01*
X0352613Y0339897D01*
X0352536Y0339689D01*
X0352454Y0339484D01*
X0352367Y0339280D01*
X0352274Y0339079D01*
X0352177Y0338880D01*
X0352075Y0338684D01*
X0351969Y0338490D01*
X0351857Y0338299D01*
X0351741Y0338110D01*
X0351621Y0337925D01*
X0351495Y0337743D01*
X0351366Y0337563D01*
X0351232Y0337387D01*
X0351093Y0337214D01*
X0350951Y0337045D01*
X0350804Y0336879D01*
X0350654Y0336717D01*
X0350499Y0336559D01*
X0350341Y0336404D01*
X0350179Y0336254D01*
X0350013Y0336107D01*
X0349844Y0335965D01*
X0349671Y0335826D01*
X0349495Y0335692D01*
X0349315Y0335563D01*
X0349133Y0335437D01*
X0348948Y0335317D01*
X0348759Y0335201D01*
X0348568Y0335089D01*
X0348374Y0334983D01*
X0348178Y0334881D01*
X0347979Y0334784D01*
X0347778Y0334691D01*
X0347574Y0334604D01*
X0347369Y0334522D01*
X0347161Y0334445D01*
X0346952Y0334373D01*
X0346741Y0334306D01*
X0346529Y0334245D01*
X0346315Y0334188D01*
X0346099Y0334137D01*
X0345883Y0334091D01*
X0345665Y0334051D01*
X0345447Y0334016D01*
X0345228Y0333986D01*
X0345008Y0333961D01*
X0344787Y0333942D01*
X0344566Y0333929D01*
X0344345Y0333921D01*
X0344124Y0333918D01*
X0343903Y0333921D01*
X0343682Y0333929D01*
X0343461Y0333942D01*
X0343240Y0333961D01*
X0343020Y0333986D01*
X0342801Y0334016D01*
X0342583Y0334051D01*
X0342365Y0334091D01*
X0342149Y0334137D01*
X0341933Y0334188D01*
X0341719Y0334245D01*
X0341507Y0334306D01*
X0341296Y0334373D01*
X0341087Y0334445D01*
X0340879Y0334522D01*
X0340674Y0334604D01*
X0340470Y0334691D01*
X0340269Y0334784D01*
X0340070Y0334881D01*
X0339874Y0334983D01*
X0339680Y0335089D01*
X0339489Y0335201D01*
X0339300Y0335317D01*
X0339115Y0335437D01*
X0338933Y0335563D01*
X0338753Y0335692D01*
X0338577Y0335826D01*
X0338404Y0335965D01*
X0338235Y0336107D01*
X0338069Y0336254D01*
X0337907Y0336404D01*
X0337749Y0336559D01*
X0337594Y0336717D01*
X0337444Y0336879D01*
X0337297Y0337045D01*
X0337155Y0337214D01*
X0337016Y0337387D01*
X0336882Y0337563D01*
X0336753Y0337743D01*
X0336627Y0337925D01*
X0336507Y0338110D01*
X0336391Y0338299D01*
X0336279Y0338490D01*
X0336173Y0338684D01*
X0336071Y0338880D01*
X0335974Y0339079D01*
X0335881Y0339280D01*
X0335794Y0339484D01*
X0335712Y0339689D01*
X0335635Y0339897D01*
X0335563Y0340106D01*
X0335496Y0340317D01*
X0335435Y0340529D01*
X0335378Y0340743D01*
X0335327Y0340959D01*
X0335281Y0341175D01*
X0335241Y0341393D01*
X0335206Y0341611D01*
X0335176Y0341830D01*
X0335151Y0342050D01*
X0335132Y0342271D01*
X0335119Y0342492D01*
X0335111Y0342713D01*
X0335108Y0342934D01*
X0355124Y0357469D02*
X0358105Y0360938D01*
X0360172Y0359123D01*
X0357191Y0355654D01*
X0355935Y0356713D01*
X0355124Y0357469D01*
X0355155Y0357505D02*
X0355239Y0357505D01*
X0358781Y0357505D01*
X0358949Y0357700D02*
X0355323Y0357700D01*
X0355124Y0357635D02*
X0355935Y0356713D01*
X0355124Y0357635D01*
X0355296Y0357309D02*
X0355411Y0357309D01*
X0358613Y0357309D01*
X0358445Y0357114D02*
X0355583Y0357114D01*
X0355506Y0357114D01*
X0355715Y0356918D02*
X0355755Y0356918D01*
X0358278Y0356918D01*
X0358110Y0356723D02*
X0355927Y0356723D01*
X0355925Y0356723D01*
X0356156Y0356528D02*
X0357942Y0356528D01*
X0357774Y0356332D02*
X0356387Y0356332D01*
X0356619Y0356137D02*
X0357606Y0356137D01*
X0357438Y0355942D02*
X0356851Y0355942D01*
X0357082Y0355746D02*
X0357270Y0355746D01*
X0355490Y0357895D02*
X0359117Y0357895D01*
X0359285Y0358091D02*
X0355658Y0358091D01*
X0355826Y0358286D02*
X0359453Y0358286D01*
X0359620Y0358481D02*
X0355994Y0358481D01*
X0356162Y0358677D02*
X0359788Y0358677D01*
X0359956Y0358872D02*
X0356330Y0358872D01*
X0356498Y0359067D02*
X0360124Y0359067D01*
X0360012Y0359263D02*
X0356665Y0359263D01*
X0356833Y0359458D02*
X0359790Y0359458D01*
X0359567Y0359654D02*
X0357001Y0359654D01*
X0357169Y0359849D02*
X0359345Y0359849D01*
X0359122Y0360044D02*
X0357337Y0360044D01*
X0357505Y0360240D02*
X0358900Y0360240D01*
X0358677Y0360435D02*
X0357673Y0360435D01*
X0357841Y0360630D02*
X0358455Y0360630D01*
X0358232Y0360826D02*
X0358008Y0360826D01*
D16*
X0385971Y0330912D02*
X0385643Y0330584D01*
X0385643Y0329270D01*
X0385971Y0328942D01*
X0386628Y0328942D01*
X0386956Y0329270D01*
X0386956Y0330584D02*
X0386628Y0330912D01*
X0385971Y0330912D01*
M02*
