G75*
%MOIN*%
%OFA0B0*%
%FSLAX25Y25*%
%IPPOS*%
%LPD*%
%AMOC8*
5,1,8,0,0,1.08239X$1,22.5*
%
%ADD10C,0.05950*%
%ADD11R,0.04737X0.06509*%
%ADD12C,0.09800*%
%ADD13R,0.30328X0.10052*%
%ADD14R,0.05950X0.05950*%
%ADD15R,0.10052X0.30328*%
%ADD16OC8,0.17635*%
%ADD17C,0.03778*%
%ADD18C,0.05392*%
D10*
X0295281Y0211980D03*
X0304313Y0221007D03*
X0313344Y0211980D03*
X0304313Y0202952D03*
D11*
X0270021Y0217443D03*
X0263564Y0217443D03*
D12*
X0277598Y0202525D03*
X0258756Y0202378D03*
X0240028Y0199432D03*
X0235142Y0214964D03*
X0293060Y0239123D03*
X0302902Y0374162D03*
X0302902Y0395816D03*
D13*
X0279359Y0434241D03*
X0229989Y0405028D03*
X0229595Y0374320D03*
X0229564Y0342548D03*
X0152225Y0341209D03*
X0152194Y0372036D03*
X0152194Y0403965D03*
X0155548Y0435855D03*
X0150650Y0311367D03*
X0151044Y0280343D03*
X0152690Y0248847D03*
X0123587Y0217351D03*
X0157910Y0178139D03*
X0188446Y0140894D03*
X0265391Y0146249D03*
X0283328Y0176800D03*
X0360595Y0177351D03*
X0389800Y0209162D03*
X0389406Y0239871D03*
X0389800Y0271288D03*
X0390194Y0304044D03*
X0419942Y0335461D03*
X0419225Y0365776D03*
X0388548Y0398926D03*
X0390776Y0429123D03*
X0384580Y0140107D03*
D14*
X0421233Y0130265D03*
X0353146Y0219005D03*
X0352753Y0249713D03*
X0353146Y0281131D03*
X0343099Y0301871D03*
X0353540Y0313887D03*
X0321209Y0304328D03*
X0311721Y0340422D03*
X0281013Y0326249D03*
X0249517Y0319950D03*
X0218808Y0318769D03*
X0188879Y0331367D03*
X0192910Y0352391D03*
X0188847Y0362194D03*
X0192942Y0384162D03*
X0188847Y0394123D03*
X0193335Y0414871D03*
X0118894Y0445698D03*
X0187304Y0301524D03*
X0187698Y0270501D03*
X0189343Y0239005D03*
X0121257Y0187981D03*
X0086934Y0227194D03*
X0225099Y0131052D03*
X0228737Y0156091D03*
X0319981Y0166957D03*
X0323942Y0187194D03*
X0456595Y0325619D03*
X0455879Y0355934D03*
X0427430Y0419280D03*
X0351894Y0408769D03*
X0316013Y0424398D03*
D15*
X0331052Y0340981D03*
X0301879Y0303769D03*
X0271170Y0289595D03*
X0239674Y0283296D03*
X0208965Y0282115D03*
X0333257Y0265217D03*
D16*
X0091288Y0173375D03*
X0091288Y0441091D03*
X0451524Y0441091D03*
X0451524Y0173375D03*
D17*
X0365518Y0210776D03*
X0271406Y0309202D03*
X0249753Y0283611D03*
D18*
X0230068Y0330855D03*
X0230068Y0354477D03*
X0230068Y0364320D03*
X0261564Y0342666D03*
M02*
