G75*
%MOIN*%
%OFA0B0*%
%FSLAX25Y25*%
%IPPOS*%
%LPD*%
%AMOC8*
5,1,8,0,0,1.08239X$1,22.5*
%
%ADD10R,0.15000X0.55000*%
%ADD11R,0.06000X0.06000*%
%ADD12R,0.05709X0.03937*%
%ADD13R,0.06600X0.06600*%
%ADD14C,0.01600*%
%ADD15R,0.05315X0.05315*%
%ADD16C,0.03200*%
%ADD17R,0.03962X0.03962*%
%ADD18R,0.05906X0.05906*%
D10*
X0152562Y0088433D03*
X0185662Y0140733D03*
X0228662Y0085733D03*
X0265662Y0141033D03*
X0308662Y0084933D03*
X0344362Y0138233D03*
X0385862Y0155233D03*
X0419962Y0209533D03*
X0341962Y0269733D03*
X0384962Y0289533D03*
X0418162Y0345533D03*
X0343562Y0399633D03*
X0310062Y0345733D03*
X0271062Y0400233D03*
X0232162Y0345833D03*
X0193362Y0401133D03*
X0156862Y0350233D03*
X0115862Y0348733D03*
X0080362Y0293933D03*
X0157262Y0219733D03*
X0114962Y0208933D03*
X0077462Y0159533D03*
X0193162Y0273033D03*
X0309062Y0214333D03*
D11*
X0132562Y0068433D03*
X0208662Y0065733D03*
X0288662Y0064933D03*
X0365862Y0135233D03*
X0364362Y0158233D03*
X0289062Y0194333D03*
X0285662Y0161033D03*
X0205662Y0160733D03*
X0137262Y0199733D03*
X0134962Y0228933D03*
X0060362Y0273933D03*
X0136862Y0330233D03*
X0135862Y0368733D03*
X0212162Y0325833D03*
X0213162Y0293033D03*
X0290062Y0325733D03*
X0361962Y0289733D03*
X0364962Y0269533D03*
X0439962Y0229533D03*
X0438162Y0365533D03*
X0363562Y0419633D03*
X0291062Y0420233D03*
X0213362Y0421133D03*
X0057462Y0139533D03*
D12*
X0257737Y0252941D03*
X0257737Y0259398D03*
D13*
X0233562Y0261233D03*
D14*
X0230762Y0247033D02*
X0257854Y0247025D01*
X0257737Y0252941D01*
X0257737Y0259398D02*
X0257862Y0266633D01*
X0193562Y0271933D02*
X0193162Y0273033D01*
X0192162Y0251633D01*
X0181462Y0253133D01*
X0164162Y0219733D02*
X0157262Y0219733D01*
X0136262Y0246333D02*
X0135962Y0246333D01*
X0122562Y0240533D02*
X0114962Y0208933D01*
X0114862Y0208833D01*
X0118762Y0208833D01*
X0083162Y0156433D02*
X0077462Y0159533D01*
X0149362Y0085533D02*
X0152562Y0088433D01*
X0190162Y0107033D02*
X0192362Y0107033D01*
X0228662Y0085733D02*
X0223762Y0071833D01*
X0268262Y0104233D02*
X0272362Y0104233D01*
X0268262Y0133033D02*
X0264062Y0133033D01*
X0265662Y0141033D01*
X0308662Y0084933D02*
X0313062Y0085833D01*
X0344362Y0138233D02*
X0346262Y0146333D01*
X0380362Y0152733D02*
X0386162Y0152733D01*
X0385862Y0155233D01*
X0421762Y0206833D02*
X0421762Y0208533D01*
X0420862Y0207733D02*
X0421762Y0206833D01*
X0420862Y0207733D02*
X0419962Y0209533D01*
X0403462Y0226833D02*
X0403462Y0227933D01*
X0384962Y0289533D02*
X0386262Y0298533D01*
X0386262Y0299133D01*
X0418562Y0331433D02*
X0418378Y0331702D01*
X0418378Y0345533D01*
X0418162Y0345533D01*
X0418378Y0345533D02*
X0418378Y0368126D01*
X0416277Y0368126D01*
X0414762Y0369533D01*
X0414462Y0337433D02*
X0418378Y0331702D01*
X0339462Y0274333D02*
X0341962Y0269733D01*
X0339462Y0274333D02*
X0339462Y0289133D01*
X0320862Y0216233D02*
X0320862Y0214533D01*
X0190162Y0140133D02*
X0185662Y0140133D01*
X0185662Y0140733D01*
X0075662Y0269233D02*
X0074762Y0268933D01*
X0074762Y0289633D01*
X0077762Y0289633D01*
X0080362Y0293933D01*
X0113262Y0339633D02*
X0115862Y0348733D01*
X0150862Y0347533D02*
X0155362Y0347533D01*
X0156862Y0350233D01*
X0190762Y0400933D02*
X0193362Y0401133D01*
X0239162Y0357033D02*
X0232162Y0345833D01*
D15*
X0257862Y0266633D03*
X0230762Y0247033D03*
D16*
X0241162Y0282933D02*
X0193562Y0271933D01*
X0168962Y0224533D02*
X0164162Y0219733D01*
X0135962Y0246333D02*
X0135962Y0258733D01*
X0118762Y0208833D02*
X0118762Y0151433D01*
X0140962Y0149633D01*
X0149362Y0085533D01*
X0190162Y0107033D02*
X0190162Y0140133D01*
X0205662Y0155333D02*
X0205662Y0160733D01*
X0205662Y0155333D02*
X0223762Y0139833D01*
X0223762Y0071833D01*
X0268262Y0104233D02*
X0268262Y0133033D01*
X0313162Y0121233D02*
X0313062Y0085833D01*
X0346262Y0146333D02*
X0346262Y0147733D01*
X0338362Y0150033D01*
X0324862Y0159633D01*
X0380362Y0152733D02*
X0380162Y0190033D01*
X0403462Y0226833D02*
X0421762Y0208533D01*
X0403462Y0227933D02*
X0403162Y0239533D01*
X0386262Y0298533D02*
X0377462Y0296833D01*
X0375262Y0296633D01*
X0386262Y0299133D02*
X0418562Y0331433D01*
X0416277Y0368126D02*
X0411370Y0373033D01*
X0407162Y0373033D01*
X0372462Y0392133D02*
X0343162Y0392133D01*
X0326462Y0351233D02*
X0321962Y0346733D01*
X0310062Y0345733D01*
X0278362Y0363433D02*
X0271062Y0400233D01*
X0248662Y0357033D02*
X0239162Y0357033D01*
X0190762Y0400933D02*
X0175462Y0400933D01*
X0150862Y0347533D02*
X0148762Y0318033D01*
X0147362Y0317733D01*
X0113262Y0339633D02*
X0098062Y0339633D01*
X0075662Y0269233D02*
X0067662Y0260433D01*
X0083162Y0201133D02*
X0083162Y0156433D01*
X0309062Y0214333D02*
X0320862Y0214533D01*
X0339462Y0289133D02*
X0351162Y0300833D01*
X0351162Y0311133D01*
D17*
X0351162Y0311133D03*
X0375262Y0296633D03*
X0326462Y0351233D03*
X0278362Y0363433D03*
X0248662Y0357033D03*
X0175462Y0400933D03*
X0147362Y0317733D03*
X0098062Y0339633D03*
X0067662Y0260433D03*
X0122562Y0240533D03*
X0136262Y0246333D03*
X0135962Y0258733D03*
X0168962Y0224533D03*
X0181462Y0253133D03*
X0083162Y0201133D03*
X0192362Y0107033D03*
X0272362Y0104233D03*
X0313162Y0121233D03*
X0324862Y0159633D03*
X0380162Y0190033D03*
X0403162Y0239533D03*
X0320862Y0216233D03*
X0407162Y0373033D03*
X0372462Y0392133D03*
D18*
X0241162Y0282933D03*
M02*
