G75*
%MOIN*%
%OFA0B0*%
%FSLAX25Y25*%
%IPPOS*%
%LPD*%
%AMOC8*
5,1,8,0,0,1.08239X$1,22.5*
%
%ADD10C,0.00500*%
D10*
X0104674Y0096367D02*
X0104674Y0116367D01*
X0104674Y0097367D01*
X0104674Y0116367D01*
X0104674Y0096367D01*
X0107935Y0111322D02*
X0107694Y0111422D01*
X0107487Y0111581D01*
X0107328Y0111788D01*
X0107228Y0112029D01*
X0107194Y0112288D01*
X0108194Y0111288D01*
X0107935Y0111322D01*
X0107855Y0111627D02*
X0107452Y0111627D01*
X0107357Y0112125D02*
X0107215Y0112125D01*
X0150485Y0111563D02*
X0151643Y0112374D01*
X0151382Y0112386D01*
X0151127Y0112329D01*
X0150896Y0112209D01*
X0150703Y0112032D01*
X0150563Y0111812D01*
X0150485Y0111563D01*
X0150505Y0111627D02*
X0150575Y0111627D01*
X0150805Y0112125D02*
X0151287Y0112125D01*
X0180265Y0112115D02*
X0180265Y0132115D01*
X0180265Y0113115D01*
X0180265Y0132115D01*
X0180265Y0112115D01*
X0186997Y0109950D02*
X0206997Y0109950D01*
X0187997Y0109950D01*
X0206997Y0109950D01*
X0186997Y0109950D01*
X0234367Y0097788D02*
X0253078Y0094489D01*
X0235352Y0097614D01*
X0234367Y0097788D01*
X0254063Y0094315D01*
X0234367Y0097788D01*
X0237872Y0097170D02*
X0237872Y0097170D01*
X0237872Y0097170D01*
X0240700Y0096671D02*
X0240700Y0096671D01*
X0240700Y0096671D01*
X0243527Y0096173D02*
X0243527Y0096173D01*
X0243527Y0096173D01*
X0246354Y0095674D02*
X0246354Y0095674D01*
X0246354Y0095674D01*
X0249181Y0095176D02*
X0249181Y0095176D01*
X0249181Y0095176D01*
X0252008Y0094677D02*
X0252008Y0094677D01*
X0252008Y0094677D01*
X0256879Y0106430D02*
X0257879Y0107430D01*
X0257620Y0107396D01*
X0257379Y0107296D01*
X0257172Y0107137D01*
X0257013Y0106930D01*
X0256913Y0106689D01*
X0256879Y0106430D01*
X0256907Y0106642D02*
X0257090Y0106642D01*
X0257176Y0107140D02*
X0257589Y0107140D01*
X0290997Y0109950D02*
X0291997Y0110950D01*
X0291963Y0110691D01*
X0291863Y0110450D01*
X0291704Y0110242D01*
X0291497Y0110084D01*
X0291256Y0109984D01*
X0290997Y0109950D01*
X0291178Y0110131D02*
X0291559Y0110131D01*
X0291677Y0110630D02*
X0291937Y0110630D01*
X0297233Y0110343D02*
X0317233Y0110343D01*
X0298233Y0110343D01*
X0317233Y0110343D01*
X0297233Y0110343D01*
X0341879Y0107430D02*
X0360879Y0107430D01*
X0341879Y0107430D01*
X0361879Y0107430D01*
X0341879Y0107430D01*
X0342305Y0157727D02*
X0341403Y0157727D01*
X0340502Y0158629D01*
X0340502Y0163137D01*
X0337769Y0163137D02*
X0335966Y0163137D01*
X0335064Y0162235D01*
X0335064Y0159530D01*
X0337769Y0159530D01*
X0338671Y0160432D01*
X0337769Y0161334D01*
X0335064Y0161334D01*
X0333233Y0163137D02*
X0333233Y0159530D01*
X0329626Y0159530D02*
X0329626Y0162235D01*
X0330528Y0163137D01*
X0333233Y0163137D01*
X0332433Y0169373D02*
X0333335Y0170275D01*
X0333335Y0173881D01*
X0334237Y0172980D02*
X0332433Y0172980D01*
X0330611Y0172078D02*
X0329710Y0172980D01*
X0327906Y0172980D01*
X0327005Y0172078D01*
X0327005Y0171176D01*
X0330611Y0171176D01*
X0330611Y0170275D02*
X0330611Y0172078D01*
X0330611Y0170275D02*
X0329710Y0169373D01*
X0327906Y0169373D01*
X0325174Y0169373D02*
X0325174Y0172980D01*
X0324272Y0172980D01*
X0323370Y0172078D01*
X0322469Y0172980D01*
X0321567Y0172078D01*
X0321567Y0169373D01*
X0323370Y0169373D02*
X0323370Y0172078D01*
X0319736Y0172980D02*
X0317031Y0172980D01*
X0316129Y0172078D01*
X0316129Y0170275D01*
X0317031Y0169373D01*
X0319736Y0169373D01*
X0319736Y0174783D01*
X0317124Y0179215D02*
X0317124Y0184625D01*
X0318927Y0184625D02*
X0315320Y0184625D01*
X0313489Y0181920D02*
X0313489Y0180117D01*
X0312588Y0179215D01*
X0310784Y0179215D01*
X0309883Y0180117D01*
X0309883Y0181920D01*
X0310784Y0182822D01*
X0312588Y0182822D01*
X0313489Y0181920D01*
X0308052Y0182822D02*
X0308052Y0177412D01*
X0308052Y0179215D02*
X0305347Y0179215D01*
X0304445Y0180117D01*
X0304445Y0181920D01*
X0305347Y0182822D01*
X0308052Y0182822D01*
X0304792Y0185776D02*
X0284792Y0185776D01*
X0303792Y0185776D01*
X0284792Y0185776D01*
X0304792Y0185776D01*
X0297176Y0184625D02*
X0297176Y0179215D01*
X0297176Y0181019D02*
X0294471Y0181019D01*
X0293570Y0181920D01*
X0293570Y0183724D01*
X0294471Y0184625D01*
X0297176Y0184625D01*
X0291739Y0180117D02*
X0290837Y0181019D01*
X0288132Y0181019D01*
X0288132Y0181920D02*
X0288132Y0179215D01*
X0290837Y0179215D01*
X0291739Y0180117D01*
X0290837Y0182822D02*
X0289034Y0182822D01*
X0288132Y0181920D01*
X0286301Y0182822D02*
X0283596Y0182822D01*
X0282694Y0181920D01*
X0282694Y0179215D01*
X0280863Y0180117D02*
X0280863Y0181920D01*
X0279961Y0182822D01*
X0278158Y0182822D01*
X0277256Y0181920D01*
X0277256Y0181019D01*
X0280863Y0181019D01*
X0280863Y0180117D02*
X0279961Y0179215D01*
X0278158Y0179215D01*
X0275425Y0179215D02*
X0273622Y0179215D01*
X0274524Y0179215D02*
X0274524Y0184625D01*
X0275425Y0184625D01*
X0266363Y0184625D02*
X0266363Y0181019D01*
X0264559Y0179215D01*
X0262756Y0181019D01*
X0262756Y0184625D01*
X0260925Y0181920D02*
X0258220Y0184625D01*
X0258220Y0179215D01*
X0257318Y0181920D02*
X0260925Y0181920D01*
X0260554Y0191026D02*
X0258751Y0192830D01*
X0256948Y0191026D01*
X0256948Y0196437D01*
X0255117Y0196437D02*
X0252412Y0196437D01*
X0251510Y0195535D01*
X0251510Y0193731D01*
X0252412Y0192830D01*
X0255117Y0192830D01*
X0255117Y0191026D02*
X0255117Y0196437D01*
X0253313Y0192830D02*
X0251510Y0191026D01*
X0249679Y0193731D02*
X0246072Y0193731D01*
X0244241Y0191928D02*
X0244241Y0195535D01*
X0243339Y0196437D01*
X0241536Y0196437D01*
X0240634Y0195535D01*
X0240634Y0191928D01*
X0241536Y0191026D01*
X0243339Y0191026D01*
X0244241Y0191928D01*
X0238803Y0191928D02*
X0238803Y0196437D01*
X0235197Y0196437D02*
X0235197Y0191928D01*
X0236098Y0191026D01*
X0237902Y0191026D01*
X0238803Y0191928D01*
X0233366Y0191026D02*
X0233366Y0196437D01*
X0230661Y0196437D01*
X0229759Y0195535D01*
X0229759Y0193731D01*
X0230661Y0192830D01*
X0233366Y0192830D01*
X0231562Y0192830D02*
X0229759Y0191026D01*
X0200792Y0185776D02*
X0199792Y0184776D01*
X0199826Y0185035D01*
X0199926Y0185276D01*
X0200085Y0185483D01*
X0200292Y0185642D01*
X0200533Y0185742D01*
X0200792Y0185776D01*
X0200422Y0185406D02*
X0200026Y0185406D01*
X0199924Y0184908D02*
X0199809Y0184908D01*
X0192499Y0184259D02*
X0192499Y0181554D01*
X0187089Y0181554D01*
X0187089Y0184259D01*
X0187991Y0185161D01*
X0191598Y0185161D01*
X0192499Y0184259D01*
X0189794Y0186992D02*
X0189794Y0190599D01*
X0187991Y0192430D02*
X0187089Y0193331D01*
X0187089Y0195135D01*
X0187991Y0196036D01*
X0191598Y0196036D01*
X0192499Y0195135D01*
X0192499Y0193331D01*
X0191598Y0192430D01*
X0187991Y0192430D01*
X0187991Y0197867D02*
X0187089Y0198769D01*
X0187089Y0200573D01*
X0187991Y0201474D01*
X0192499Y0201474D01*
X0192499Y0203305D02*
X0192499Y0206912D01*
X0192499Y0205109D02*
X0187089Y0205109D01*
X0187991Y0197867D02*
X0192499Y0197867D01*
X0191598Y0179723D02*
X0189794Y0179723D01*
X0188893Y0178822D01*
X0188893Y0176117D01*
X0187089Y0176117D02*
X0192499Y0176117D01*
X0192499Y0178822D01*
X0191598Y0179723D01*
X0180265Y0216115D02*
X0179265Y0217115D01*
X0179523Y0217081D01*
X0179765Y0216981D01*
X0179972Y0216822D01*
X0180131Y0216615D01*
X0180230Y0216374D01*
X0180265Y0216115D01*
X0180238Y0216314D02*
X0180066Y0216314D01*
X0179979Y0216813D02*
X0179567Y0216813D01*
X0187089Y0223424D02*
X0187089Y0225227D01*
X0187991Y0226129D01*
X0189794Y0226129D01*
X0189794Y0224326D01*
X0187991Y0222522D02*
X0187089Y0223424D01*
X0187991Y0222522D02*
X0191598Y0222522D01*
X0192499Y0223424D01*
X0192499Y0225227D01*
X0191598Y0226129D01*
X0192499Y0227960D02*
X0187089Y0231567D01*
X0192499Y0231567D01*
X0192499Y0233398D02*
X0192499Y0236103D01*
X0191598Y0237005D01*
X0187991Y0237005D01*
X0187089Y0236103D01*
X0187089Y0233398D01*
X0192499Y0233398D01*
X0192499Y0227960D02*
X0187089Y0227960D01*
X0214648Y0237204D02*
X0215550Y0236302D01*
X0214648Y0237204D02*
X0214648Y0239007D01*
X0215550Y0239909D01*
X0216452Y0239909D01*
X0217353Y0239007D01*
X0217353Y0237204D01*
X0218255Y0236302D01*
X0219157Y0236302D01*
X0220059Y0237204D01*
X0220059Y0239007D01*
X0219157Y0239909D01*
X0220059Y0241740D02*
X0220059Y0244445D01*
X0219157Y0245346D01*
X0215550Y0245346D01*
X0214648Y0244445D01*
X0214648Y0241740D01*
X0220059Y0241740D01*
X0218255Y0247177D02*
X0220059Y0248981D01*
X0218255Y0250784D01*
X0214648Y0250784D01*
X0216091Y0252194D02*
X0216091Y0233194D01*
X0216091Y0252194D01*
X0216091Y0232194D01*
X0216091Y0252194D01*
X0217353Y0250784D02*
X0217353Y0247177D01*
X0218255Y0247177D02*
X0214648Y0247177D01*
X0223424Y0273704D02*
X0222522Y0274605D01*
X0222522Y0276409D01*
X0223424Y0277310D01*
X0224326Y0277310D01*
X0225227Y0276409D01*
X0225227Y0275507D01*
X0225227Y0276409D02*
X0226129Y0277310D01*
X0227031Y0277310D01*
X0227933Y0276409D01*
X0227933Y0274605D01*
X0227031Y0273704D01*
X0227933Y0279141D02*
X0224326Y0279141D01*
X0222522Y0280945D01*
X0224326Y0282748D01*
X0227933Y0282748D01*
X0227031Y0284579D02*
X0227933Y0285481D01*
X0227933Y0287284D01*
X0227031Y0288186D01*
X0226129Y0288186D01*
X0225227Y0287284D01*
X0224326Y0288186D01*
X0223424Y0288186D01*
X0222522Y0287284D01*
X0222522Y0285481D01*
X0223424Y0284579D01*
X0225227Y0286382D02*
X0225227Y0287284D01*
X0252312Y0299359D02*
X0252312Y0319359D01*
X0252312Y0300359D01*
X0252312Y0319359D01*
X0252312Y0299359D01*
X0255331Y0306147D02*
X0255124Y0306305D01*
X0254965Y0306513D01*
X0254866Y0306754D01*
X0254831Y0307013D01*
X0255831Y0306013D01*
X0255573Y0306047D01*
X0255331Y0306147D01*
X0255577Y0306046D02*
X0255798Y0306046D01*
X0255300Y0306545D02*
X0254952Y0306545D01*
X0288202Y0293139D02*
X0289202Y0292139D01*
X0289167Y0292397D01*
X0289068Y0292639D01*
X0288909Y0292846D01*
X0288702Y0293005D01*
X0288460Y0293105D01*
X0288202Y0293139D01*
X0288255Y0293085D02*
X0288508Y0293085D01*
X0288754Y0292586D02*
X0289089Y0292586D01*
X0303965Y0315091D02*
X0304965Y0316091D01*
X0304707Y0316057D01*
X0304465Y0315957D01*
X0304258Y0315798D01*
X0304099Y0315591D01*
X0303999Y0315350D01*
X0303965Y0315091D01*
X0304069Y0315518D02*
X0304392Y0315518D01*
X0304608Y0316016D02*
X0304890Y0316016D01*
X0302997Y0269635D02*
X0301997Y0268635D01*
X0302031Y0268893D01*
X0302131Y0269135D01*
X0302290Y0269342D01*
X0302497Y0269501D01*
X0302738Y0269601D01*
X0302997Y0269635D01*
X0302518Y0269156D02*
X0302147Y0269156D01*
X0302020Y0268658D02*
X0302000Y0268658D01*
X0303981Y0228178D02*
X0302981Y0227178D01*
X0303015Y0227437D01*
X0303115Y0227678D01*
X0303274Y0227885D01*
X0303481Y0228044D01*
X0303722Y0228144D01*
X0303981Y0228178D01*
X0303583Y0227780D02*
X0303193Y0227780D01*
X0303084Y0227281D02*
X0302995Y0227281D01*
X0289202Y0208139D02*
X0289202Y0189139D01*
X0289202Y0208139D01*
X0289202Y0188139D01*
X0289202Y0208139D01*
X0265992Y0196437D02*
X0265992Y0191026D01*
X0265992Y0192830D02*
X0263287Y0192830D01*
X0262385Y0193731D01*
X0262385Y0195535D01*
X0263287Y0196437D01*
X0265992Y0196437D01*
X0260554Y0196437D02*
X0260554Y0191026D01*
X0278972Y0174783D02*
X0280775Y0173881D01*
X0282578Y0172078D01*
X0279873Y0172078D01*
X0278972Y0171176D01*
X0278972Y0170275D01*
X0279873Y0169373D01*
X0281677Y0169373D01*
X0282578Y0170275D01*
X0282578Y0172078D01*
X0284409Y0169373D02*
X0288016Y0169373D01*
X0286213Y0169373D02*
X0286213Y0174783D01*
X0288016Y0172980D01*
X0289847Y0173881D02*
X0289847Y0170275D01*
X0290749Y0169373D01*
X0292552Y0169373D01*
X0293454Y0170275D01*
X0289847Y0173881D01*
X0290749Y0174783D01*
X0292552Y0174783D01*
X0293454Y0173881D01*
X0293454Y0170275D01*
X0295285Y0169373D02*
X0298892Y0169373D01*
X0295285Y0172980D01*
X0295285Y0173881D01*
X0296186Y0174783D01*
X0297990Y0174783D01*
X0298892Y0173881D01*
X0306156Y0172980D02*
X0307057Y0172980D01*
X0308861Y0171176D01*
X0308861Y0169373D02*
X0308861Y0172980D01*
X0310692Y0172078D02*
X0310692Y0171176D01*
X0314298Y0171176D01*
X0314298Y0170275D02*
X0314298Y0172078D01*
X0313397Y0172980D01*
X0311593Y0172980D01*
X0310692Y0172078D01*
X0311593Y0169373D02*
X0313397Y0169373D01*
X0314298Y0170275D01*
X0315126Y0163137D02*
X0318732Y0159530D01*
X0315126Y0159530D01*
X0313295Y0160432D02*
X0312393Y0161334D01*
X0309688Y0161334D01*
X0309688Y0162235D02*
X0309688Y0159530D01*
X0312393Y0159530D01*
X0313295Y0160432D01*
X0312393Y0163137D02*
X0310590Y0163137D01*
X0309688Y0162235D01*
X0307857Y0163137D02*
X0305152Y0163137D01*
X0304250Y0162235D01*
X0304250Y0159530D01*
X0301518Y0160432D02*
X0301518Y0164039D01*
X0302419Y0163137D02*
X0300616Y0163137D01*
X0301518Y0160432D02*
X0300616Y0159530D01*
X0307857Y0159530D02*
X0307857Y0163137D01*
X0315126Y0163137D02*
X0318732Y0163137D01*
X0320554Y0164940D02*
X0322358Y0164940D01*
X0321456Y0164940D02*
X0321456Y0159530D01*
X0322358Y0159530D02*
X0320554Y0159530D01*
X0311328Y0152863D02*
X0292328Y0152863D01*
X0311328Y0152863D01*
X0291328Y0152863D01*
X0311328Y0152863D01*
X0336068Y0170275D02*
X0336969Y0169373D01*
X0339674Y0169373D01*
X0339674Y0167569D02*
X0339674Y0172980D01*
X0336969Y0172980D01*
X0336068Y0172078D01*
X0336068Y0170275D01*
X0341505Y0171176D02*
X0345112Y0171176D01*
X0345112Y0170275D02*
X0345112Y0172078D01*
X0344210Y0172980D01*
X0342407Y0172980D01*
X0341505Y0172078D01*
X0341505Y0171176D01*
X0342407Y0169373D02*
X0344210Y0169373D01*
X0345112Y0170275D01*
X0346943Y0170275D02*
X0347845Y0169373D01*
X0349648Y0169373D01*
X0350550Y0170275D01*
X0349648Y0172078D02*
X0347845Y0172078D01*
X0346943Y0171176D01*
X0346943Y0170275D01*
X0349648Y0172078D02*
X0350550Y0172980D01*
X0350550Y0173881D01*
X0349648Y0174783D01*
X0347845Y0174783D01*
X0346943Y0173881D01*
X0347040Y0179215D02*
X0347040Y0182822D01*
X0345209Y0182822D02*
X0344308Y0182822D01*
X0344308Y0179215D01*
X0345209Y0179215D02*
X0343406Y0179215D01*
X0341584Y0180117D02*
X0340683Y0179215D01*
X0338879Y0179215D01*
X0337977Y0180117D01*
X0337977Y0181019D01*
X0338879Y0181920D01*
X0340683Y0181920D01*
X0341584Y0182822D01*
X0341584Y0183724D01*
X0340683Y0184625D01*
X0338879Y0184625D01*
X0337977Y0183724D01*
X0335245Y0182822D02*
X0333441Y0182822D01*
X0332540Y0181920D01*
X0332540Y0179215D01*
X0335245Y0179215D01*
X0336147Y0180117D01*
X0335245Y0181019D01*
X0332540Y0181019D01*
X0330709Y0182822D02*
X0328905Y0182822D01*
X0329807Y0183724D02*
X0329807Y0180117D01*
X0328905Y0179215D01*
X0327084Y0179215D02*
X0327084Y0180117D01*
X0326182Y0180117D01*
X0326182Y0179215D01*
X0327084Y0179215D01*
X0327084Y0181920D02*
X0327084Y0182822D01*
X0326182Y0182822D01*
X0326182Y0181920D01*
X0327084Y0181920D01*
X0344308Y0184625D02*
X0344308Y0185527D01*
X0347040Y0179215D02*
X0349745Y0179215D01*
X0350647Y0180117D01*
X0350647Y0182822D01*
X0352478Y0182822D02*
X0355183Y0182822D01*
X0356085Y0181920D01*
X0356085Y0180117D01*
X0355183Y0179215D01*
X0352478Y0179215D01*
X0352478Y0177412D02*
X0352478Y0182822D01*
X0357916Y0184625D02*
X0361523Y0184625D01*
X0361523Y0179215D01*
X0357916Y0179215D01*
X0359719Y0181920D02*
X0361523Y0181920D01*
X0349546Y0164940D02*
X0346841Y0164940D01*
X0345939Y0164039D01*
X0345939Y0162235D01*
X0346841Y0161334D01*
X0349546Y0161334D01*
X0347743Y0161334D02*
X0345939Y0159530D01*
X0344108Y0160432D02*
X0343207Y0159530D01*
X0340502Y0159530D01*
X0344108Y0160432D02*
X0344108Y0163137D01*
X0349546Y0164940D02*
X0349546Y0159530D01*
X0395328Y0152863D02*
X0396328Y0153863D01*
X0396293Y0153604D01*
X0396194Y0153363D01*
X0396035Y0153156D01*
X0395828Y0152997D01*
X0395586Y0152897D01*
X0395328Y0152863D01*
X0395468Y0153003D02*
X0395836Y0153003D01*
X0395966Y0153502D02*
X0396251Y0153502D01*
X0402233Y0111343D02*
X0401233Y0110343D01*
X0401492Y0110377D01*
X0401733Y0110477D01*
X0401940Y0110636D01*
X0402099Y0110843D01*
X0402199Y0111084D01*
X0402233Y0111343D01*
X0402205Y0111128D02*
X0402018Y0111128D01*
X0401932Y0110630D02*
X0401519Y0110630D01*
X0449950Y0105320D02*
X0449950Y0124320D01*
X0449950Y0104320D01*
X0449950Y0124320D01*
X0449950Y0105320D01*
X0449950Y0208320D02*
X0448950Y0209320D01*
X0449208Y0209286D01*
X0449450Y0209186D01*
X0449657Y0209027D01*
X0449816Y0208820D01*
X0449916Y0208579D01*
X0449950Y0208320D01*
X0449947Y0208338D02*
X0449931Y0208338D01*
X0449803Y0208836D02*
X0449433Y0208836D01*
X0411737Y0223335D02*
X0410737Y0224335D01*
X0410771Y0224077D01*
X0410871Y0223835D01*
X0411030Y0223628D01*
X0411237Y0223469D01*
X0411478Y0223370D01*
X0411737Y0223335D01*
X0411281Y0223792D02*
X0410905Y0223792D01*
X0410782Y0224290D02*
X0410743Y0224290D01*
X0407981Y0228178D02*
X0387981Y0228178D01*
X0406981Y0228178D01*
X0387981Y0228178D01*
X0407981Y0228178D01*
X0406997Y0269635D02*
X0386997Y0269635D01*
X0405997Y0269635D01*
X0386997Y0269635D01*
X0406997Y0269635D01*
X0410737Y0308335D02*
X0410737Y0327335D01*
X0410737Y0308335D01*
X0410737Y0328335D01*
X0410737Y0308335D01*
X0408965Y0316091D02*
X0388965Y0316091D01*
X0407965Y0316091D01*
X0388965Y0316091D01*
X0408965Y0316091D01*
X0451918Y0308154D02*
X0451918Y0327154D01*
X0451918Y0307154D01*
X0451918Y0327154D01*
X0451918Y0308154D01*
X0411013Y0372391D02*
X0391013Y0372391D01*
X0410013Y0372391D01*
X0391013Y0372391D01*
X0411013Y0372391D01*
X0450918Y0412154D02*
X0451918Y0411154D01*
X0451884Y0411413D01*
X0451784Y0411654D01*
X0451625Y0411861D01*
X0451418Y0412020D01*
X0451177Y0412120D01*
X0450918Y0412154D01*
X0451342Y0411730D02*
X0451726Y0411730D01*
X0451840Y0411232D02*
X0451908Y0411232D01*
X0409044Y0416879D02*
X0389044Y0416879D01*
X0408044Y0416879D01*
X0389044Y0416879D01*
X0409044Y0416879D01*
X0349989Y0454674D02*
X0329989Y0454674D01*
X0348989Y0454674D01*
X0329989Y0454674D01*
X0349989Y0454674D01*
X0305044Y0416879D02*
X0304044Y0415879D01*
X0304078Y0416138D01*
X0304178Y0416379D01*
X0304337Y0416586D01*
X0304544Y0416745D01*
X0304785Y0416845D01*
X0305044Y0416879D01*
X0304881Y0416716D02*
X0304506Y0416716D01*
X0304382Y0416217D02*
X0304111Y0416217D01*
X0307013Y0372391D02*
X0306013Y0371391D01*
X0306047Y0371649D01*
X0306147Y0371891D01*
X0306305Y0372098D01*
X0306513Y0372257D01*
X0306754Y0372356D01*
X0307013Y0372391D01*
X0306970Y0372348D02*
X0306733Y0372348D01*
X0306472Y0371850D02*
X0306130Y0371850D01*
X0254831Y0391013D02*
X0254831Y0410013D01*
X0254831Y0391013D01*
X0254831Y0411013D01*
X0254831Y0391013D01*
X0252312Y0403359D02*
X0251312Y0404359D01*
X0251571Y0404325D01*
X0251812Y0404225D01*
X0252019Y0404066D01*
X0252178Y0403859D01*
X0252278Y0403618D01*
X0252312Y0403359D01*
X0252221Y0403754D02*
X0251917Y0403754D01*
X0251745Y0404253D02*
X0251418Y0404253D01*
X0232887Y0416355D02*
X0232728Y0416148D01*
X0232520Y0415989D01*
X0232279Y0415889D01*
X0232020Y0415855D01*
X0233020Y0416855D01*
X0232986Y0416596D01*
X0232887Y0416355D01*
X0232781Y0416217D02*
X0232382Y0416217D01*
X0232881Y0416716D02*
X0233002Y0416716D01*
X0244989Y0453674D02*
X0245989Y0454674D01*
X0245730Y0454640D01*
X0245489Y0454540D01*
X0245282Y0454381D01*
X0245123Y0454174D01*
X0245023Y0453933D01*
X0244989Y0453674D01*
X0245094Y0454104D02*
X0245419Y0454104D01*
X0245640Y0454602D02*
X0245917Y0454602D01*
X0185540Y0413217D02*
X0165540Y0413217D01*
X0184540Y0413217D01*
X0165540Y0413217D01*
X0185540Y0413217D01*
X0148020Y0415855D02*
X0129020Y0415855D01*
X0148020Y0415855D01*
X0128020Y0415855D01*
X0148020Y0415855D01*
X0081540Y0413217D02*
X0080540Y0412217D01*
X0080574Y0412476D01*
X0080674Y0412717D01*
X0080833Y0412924D01*
X0081040Y0413083D01*
X0081281Y0413183D01*
X0081540Y0413217D01*
X0081050Y0412727D02*
X0080682Y0412727D01*
X0080552Y0412229D02*
X0080542Y0412229D01*
X0086091Y0338414D02*
X0067091Y0338414D01*
X0086091Y0338414D01*
X0066091Y0338414D01*
X0086091Y0338414D01*
X0065461Y0322587D02*
X0065461Y0302587D01*
X0065461Y0321587D01*
X0065461Y0302587D01*
X0065461Y0322587D01*
X0138713Y0319477D02*
X0139713Y0318477D01*
X0139679Y0318736D01*
X0139579Y0318977D01*
X0139420Y0319184D01*
X0139213Y0319343D01*
X0138972Y0319443D01*
X0138713Y0319477D01*
X0139183Y0319007D02*
X0139556Y0319007D01*
X0139682Y0318509D02*
X0139709Y0318509D01*
X0143020Y0314320D02*
X0143020Y0333320D01*
X0143020Y0314320D01*
X0143020Y0334320D01*
X0143020Y0314320D01*
X0170091Y0338414D02*
X0171091Y0339414D01*
X0171057Y0339155D01*
X0170957Y0338914D01*
X0170798Y0338707D01*
X0170591Y0338548D01*
X0170350Y0338448D01*
X0170091Y0338414D01*
X0170126Y0338449D02*
X0170353Y0338449D01*
X0170625Y0338948D02*
X0170971Y0338948D01*
X0215091Y0337194D02*
X0216091Y0336194D01*
X0216057Y0336453D01*
X0215957Y0336694D01*
X0215798Y0336901D01*
X0215591Y0337060D01*
X0215350Y0337160D01*
X0215091Y0337194D01*
X0215331Y0336954D02*
X0215729Y0336954D01*
X0215830Y0336455D02*
X0216056Y0336455D01*
X0248113Y0252753D02*
X0248113Y0249146D01*
X0253523Y0249146D01*
X0252621Y0247315D02*
X0253523Y0246413D01*
X0253523Y0244610D01*
X0252621Y0243708D01*
X0249015Y0243708D01*
X0248113Y0244610D01*
X0248113Y0246413D01*
X0249015Y0247315D01*
X0249015Y0241877D02*
X0248113Y0240976D01*
X0248113Y0239172D01*
X0249015Y0238270D01*
X0250818Y0239172D02*
X0250818Y0240976D01*
X0249916Y0241877D01*
X0249015Y0241877D01*
X0250818Y0239172D02*
X0251720Y0238270D01*
X0252621Y0238270D01*
X0253523Y0239172D01*
X0253523Y0240976D01*
X0252621Y0241877D01*
X0286301Y0182822D02*
X0286301Y0179215D01*
X0144020Y0229320D02*
X0143020Y0230320D01*
X0143055Y0230061D01*
X0143154Y0229820D01*
X0143313Y0229613D01*
X0143520Y0229454D01*
X0143762Y0229354D01*
X0144020Y0229320D01*
X0143566Y0229774D02*
X0143190Y0229774D01*
X0143068Y0230272D02*
X0143027Y0230272D01*
X0139713Y0234477D02*
X0139713Y0215477D01*
X0139713Y0234477D01*
X0139713Y0214477D01*
X0139713Y0234477D01*
X0107194Y0216288D02*
X0107194Y0196288D01*
X0107194Y0215288D01*
X0107194Y0196288D01*
X0107194Y0216288D01*
X0103933Y0201333D02*
X0104174Y0201233D01*
X0104381Y0201074D01*
X0104540Y0200867D01*
X0104640Y0200626D01*
X0104674Y0200367D01*
X0103674Y0201367D01*
X0103933Y0201333D01*
X0103737Y0201359D02*
X0103682Y0201359D01*
X0104181Y0200860D02*
X0104543Y0200860D01*
X0066461Y0217587D02*
X0065461Y0218587D01*
X0065495Y0218329D01*
X0065595Y0218087D01*
X0065754Y0217880D01*
X0065961Y0217721D01*
X0066203Y0217621D01*
X0066461Y0217587D01*
X0066239Y0217810D02*
X0065846Y0217810D01*
X0065741Y0218308D02*
X0065504Y0218308D01*
M02*
