G75*
%MOIN*%
%OFA0B0*%
%FSLAX25Y25*%
%IPPOS*%
%LPD*%
%AMOC8*
5,1,8,0,0,1.08239X$1,22.5*
%
%ADD10C,0.03162*%
%ADD11C,0.13800*%
%ADD12C,0.37808*%
%ADD13R,0.06800X0.06800*%
%ADD14R,0.07400X0.07400*%
%ADD15R,0.06115X0.06115*%
%ADD16R,0.04762X0.04762*%
%ADD17R,0.06706X0.06706*%
D10*
X0114262Y0063133D03*
X0142562Y0068433D03*
X0152562Y0058433D03*
X0162562Y0068433D03*
X0162562Y0083433D03*
X0162562Y0103433D03*
X0152562Y0118433D03*
X0142562Y0103433D03*
X0142562Y0083433D03*
X0185662Y0110733D03*
X0195662Y0125733D03*
X0195662Y0145733D03*
X0195662Y0160733D03*
X0185662Y0170733D03*
X0175662Y0160733D03*
X0175662Y0145733D03*
X0175662Y0125733D03*
X0218662Y0100733D03*
X0228662Y0115733D03*
X0238662Y0100733D03*
X0238662Y0080733D03*
X0238662Y0065733D03*
X0228662Y0055733D03*
X0218662Y0065733D03*
X0218662Y0080733D03*
X0255662Y0126033D03*
X0265662Y0111033D03*
X0275662Y0126033D03*
X0275662Y0146033D03*
X0275662Y0161033D03*
X0265662Y0171033D03*
X0255662Y0161033D03*
X0255662Y0146033D03*
X0298662Y0099933D03*
X0308662Y0114933D03*
X0318662Y0099933D03*
X0318662Y0079933D03*
X0318662Y0064933D03*
X0308662Y0054933D03*
X0298662Y0064933D03*
X0298662Y0079933D03*
X0344362Y0108233D03*
X0354362Y0123233D03*
X0375862Y0135233D03*
X0385862Y0125233D03*
X0395862Y0135233D03*
X0395862Y0150233D03*
X0395862Y0170233D03*
X0385862Y0185233D03*
X0375862Y0170233D03*
X0354362Y0158233D03*
X0344362Y0168233D03*
X0334362Y0158233D03*
X0334362Y0143233D03*
X0354362Y0143233D03*
X0375862Y0150233D03*
X0334362Y0123233D03*
X0385262Y0063133D03*
X0419962Y0179533D03*
X0429962Y0194533D03*
X0429962Y0214533D03*
X0429962Y0229533D03*
X0419962Y0239533D03*
X0409962Y0229533D03*
X0409962Y0214533D03*
X0409962Y0194533D03*
X0351962Y0254733D03*
X0341962Y0239733D03*
X0331962Y0254733D03*
X0331962Y0274733D03*
X0331962Y0289733D03*
X0341962Y0299733D03*
X0351962Y0289733D03*
X0351962Y0274733D03*
X0374962Y0269533D03*
X0384962Y0259533D03*
X0394962Y0269533D03*
X0394962Y0284533D03*
X0394962Y0304533D03*
X0384962Y0319533D03*
X0374962Y0304533D03*
X0374962Y0284533D03*
X0418162Y0315533D03*
X0428162Y0330533D03*
X0428162Y0350533D03*
X0428162Y0365533D03*
X0418162Y0375533D03*
X0408162Y0365533D03*
X0408162Y0350533D03*
X0408162Y0330533D03*
X0353562Y0384633D03*
X0343562Y0369633D03*
X0333562Y0384633D03*
X0333562Y0404633D03*
X0333562Y0419633D03*
X0343562Y0429633D03*
X0353562Y0419633D03*
X0353562Y0404633D03*
X0385262Y0426133D03*
X0320062Y0360733D03*
X0310062Y0375733D03*
X0300062Y0360733D03*
X0300062Y0340733D03*
X0300062Y0325733D03*
X0310062Y0315733D03*
X0320062Y0325733D03*
X0320062Y0340733D03*
X0281062Y0385233D03*
X0271062Y0370233D03*
X0261062Y0385233D03*
X0261062Y0405233D03*
X0261062Y0420233D03*
X0271062Y0430233D03*
X0281062Y0420233D03*
X0281062Y0405233D03*
X0242162Y0360833D03*
X0232162Y0375833D03*
X0222162Y0360833D03*
X0222162Y0340833D03*
X0222162Y0325833D03*
X0232162Y0315833D03*
X0242162Y0325833D03*
X0242162Y0340833D03*
X0203362Y0386133D03*
X0193362Y0371133D03*
X0183362Y0386133D03*
X0183362Y0406133D03*
X0183362Y0421133D03*
X0193362Y0431133D03*
X0203362Y0421133D03*
X0203362Y0406133D03*
X0156862Y0380233D03*
X0166862Y0365233D03*
X0166862Y0345233D03*
X0166862Y0330233D03*
X0156862Y0320233D03*
X0146862Y0330233D03*
X0146862Y0345233D03*
X0146862Y0365233D03*
X0125862Y0368733D03*
X0115862Y0378733D03*
X0105862Y0368733D03*
X0105862Y0353733D03*
X0125862Y0353733D03*
X0125862Y0333733D03*
X0115862Y0318733D03*
X0105862Y0333733D03*
X0090362Y0308933D03*
X0080362Y0323933D03*
X0070362Y0308933D03*
X0070362Y0288933D03*
X0070362Y0273933D03*
X0080362Y0263933D03*
X0090362Y0273933D03*
X0090362Y0288933D03*
X0114962Y0238933D03*
X0124962Y0228933D03*
X0124962Y0213933D03*
X0124962Y0193933D03*
X0114962Y0178933D03*
X0104962Y0193933D03*
X0104962Y0213933D03*
X0104962Y0228933D03*
X0147262Y0234733D03*
X0157262Y0249733D03*
X0167262Y0234733D03*
X0167262Y0214733D03*
X0167262Y0199733D03*
X0157262Y0189733D03*
X0147262Y0199733D03*
X0147262Y0214733D03*
X0183162Y0258033D03*
X0193162Y0243033D03*
X0203162Y0258033D03*
X0203162Y0278033D03*
X0203162Y0293033D03*
X0193162Y0303033D03*
X0183162Y0293033D03*
X0183162Y0278033D03*
X0077462Y0189533D03*
X0087462Y0174533D03*
X0067462Y0174533D03*
X0067462Y0154533D03*
X0067462Y0139533D03*
X0077462Y0129533D03*
X0087462Y0139533D03*
X0087462Y0154533D03*
X0299062Y0194333D03*
X0309062Y0184333D03*
X0319062Y0194333D03*
X0319062Y0209333D03*
X0319062Y0229333D03*
X0309062Y0244333D03*
X0299062Y0229333D03*
X0299062Y0209333D03*
X0114262Y0426133D03*
D11*
X0114262Y0426133D03*
X0385262Y0426133D03*
X0385262Y0063133D03*
X0114162Y0066233D03*
D12*
X0252462Y0219833D03*
D13*
X0289062Y0194333D03*
X0285662Y0161033D03*
X0364362Y0158233D03*
X0365862Y0135233D03*
X0288662Y0064933D03*
X0208662Y0065733D03*
X0132562Y0068433D03*
X0057462Y0139533D03*
X0137262Y0199733D03*
X0134962Y0228933D03*
X0205662Y0160733D03*
X0213162Y0293033D03*
X0212162Y0325833D03*
X0136862Y0330233D03*
X0135862Y0368733D03*
X0213362Y0421133D03*
X0291062Y0420233D03*
X0363562Y0419633D03*
X0438162Y0365533D03*
X0361962Y0289733D03*
X0364962Y0269533D03*
X0439962Y0229533D03*
X0290062Y0325733D03*
X0060362Y0273933D03*
D14*
X0233562Y0261233D03*
D15*
X0230762Y0247033D03*
X0257862Y0266633D03*
D16*
X0320862Y0216233D03*
X0324862Y0159633D03*
X0313162Y0121233D03*
X0272362Y0104233D03*
X0192362Y0107033D03*
X0083162Y0201133D03*
X0122562Y0240533D03*
X0136262Y0246333D03*
X0135962Y0258733D03*
X0168962Y0224533D03*
X0181462Y0253133D03*
X0147362Y0317733D03*
X0098062Y0339633D03*
X0067662Y0260433D03*
X0175462Y0400933D03*
X0248662Y0357033D03*
X0278362Y0363433D03*
X0326462Y0351233D03*
X0351162Y0311133D03*
X0375262Y0296633D03*
X0403162Y0239533D03*
X0380162Y0190033D03*
X0407162Y0373033D03*
X0372462Y0392133D03*
D17*
X0241162Y0282933D03*
M02*
