G75*
%MOIN*%
%OFA0B0*%
%FSLAX25Y25*%
%IPPOS*%
%LPD*%
%AMOC8*
5,1,8,0,0,1.08239X$1,22.5*
%
%ADD10C,0.00600*%
%ADD11R,0.03950X0.05524*%
%ADD12C,0.05950*%
%ADD13C,0.09800*%
%ADD14R,0.05950X0.05950*%
%ADD15R,0.06312X0.09461*%
%ADD16R,0.06312X0.04343*%
%ADD17R,0.06784X0.10800*%
%ADD18R,0.06745X0.10800*%
%ADD19OC8,0.17635*%
%ADD20C,0.03778*%
%ADD21C,0.05392*%
D10*
X0109202Y0114713D02*
X0109202Y0149753D01*
X0113926Y0149753D01*
X0428887Y0149753D01*
X0428887Y0226524D01*
X0385580Y0226524D01*
X0385580Y0250146D01*
X0428887Y0250146D01*
X0428887Y0431249D01*
X0113926Y0431249D01*
X0113926Y0145028D01*
X0068257Y0145028D01*
X0068257Y0467469D01*
X0484792Y0467469D01*
X0484792Y0114713D01*
X0109202Y0114713D01*
X0109202Y0114839D02*
X0484792Y0114839D01*
X0484792Y0115437D02*
X0109202Y0115437D01*
X0109202Y0116036D02*
X0484792Y0116036D01*
X0484792Y0116634D02*
X0109202Y0116634D01*
X0109202Y0117233D02*
X0484792Y0117233D01*
X0484792Y0117831D02*
X0109202Y0117831D01*
X0109202Y0118430D02*
X0484792Y0118430D01*
X0484792Y0119028D02*
X0109202Y0119028D01*
X0109202Y0119627D02*
X0484792Y0119627D01*
X0484792Y0120225D02*
X0109202Y0120225D01*
X0109202Y0120824D02*
X0484792Y0120824D01*
X0484792Y0121422D02*
X0109202Y0121422D01*
X0109202Y0122021D02*
X0484792Y0122021D01*
X0484792Y0122619D02*
X0109202Y0122619D01*
X0109202Y0123218D02*
X0484792Y0123218D01*
X0484792Y0123816D02*
X0109202Y0123816D01*
X0109202Y0124415D02*
X0484792Y0124415D01*
X0484792Y0125013D02*
X0109202Y0125013D01*
X0109202Y0125612D02*
X0484792Y0125612D01*
X0484792Y0126210D02*
X0109202Y0126210D01*
X0109202Y0126809D02*
X0484792Y0126809D01*
X0484792Y0127407D02*
X0109202Y0127407D01*
X0109202Y0128006D02*
X0484792Y0128006D01*
X0484792Y0128604D02*
X0109202Y0128604D01*
X0109202Y0129203D02*
X0484792Y0129203D01*
X0484792Y0129801D02*
X0109202Y0129801D01*
X0109202Y0130400D02*
X0484792Y0130400D01*
X0484792Y0130998D02*
X0109202Y0130998D01*
X0109202Y0131597D02*
X0484792Y0131597D01*
X0484792Y0132195D02*
X0109202Y0132195D01*
X0109202Y0132794D02*
X0484792Y0132794D01*
X0484792Y0133392D02*
X0109202Y0133392D01*
X0109202Y0133991D02*
X0484792Y0133991D01*
X0484792Y0134589D02*
X0109202Y0134589D01*
X0109202Y0135188D02*
X0484792Y0135188D01*
X0484792Y0135786D02*
X0109202Y0135786D01*
X0109202Y0136385D02*
X0484792Y0136385D01*
X0484792Y0136984D02*
X0109202Y0136984D01*
X0109202Y0137582D02*
X0484792Y0137582D01*
X0484792Y0138181D02*
X0109202Y0138181D01*
X0109202Y0138779D02*
X0484792Y0138779D01*
X0484792Y0139378D02*
X0109202Y0139378D01*
X0109202Y0139976D02*
X0484792Y0139976D01*
X0484792Y0140575D02*
X0109202Y0140575D01*
X0109202Y0141173D02*
X0484792Y0141173D01*
X0484792Y0141772D02*
X0109202Y0141772D01*
X0109202Y0142370D02*
X0484792Y0142370D01*
X0484792Y0142969D02*
X0109202Y0142969D01*
X0109202Y0143567D02*
X0484792Y0143567D01*
X0484792Y0144166D02*
X0109202Y0144166D01*
X0109202Y0144764D02*
X0484792Y0144764D01*
X0484792Y0145363D02*
X0113926Y0145363D01*
X0108414Y0145363D01*
X0108414Y0145961D02*
X0113926Y0145961D01*
X0484792Y0145961D01*
X0484792Y0146560D02*
X0113926Y0146560D01*
X0108414Y0146560D01*
X0108414Y0147158D02*
X0113926Y0147158D01*
X0484792Y0147158D01*
X0484792Y0147757D02*
X0113926Y0147757D01*
X0108414Y0147757D01*
X0108414Y0148355D02*
X0113926Y0148355D01*
X0484792Y0148355D01*
X0484792Y0148954D02*
X0113926Y0148954D01*
X0108414Y0148954D01*
X0108414Y0149552D02*
X0113926Y0149552D01*
X0484792Y0149552D01*
X0484792Y0150151D02*
X0428887Y0150151D01*
X0428887Y0150749D02*
X0484792Y0150749D01*
X0484792Y0151348D02*
X0428887Y0151348D01*
X0428887Y0151946D02*
X0484792Y0151946D01*
X0484792Y0152545D02*
X0428887Y0152545D01*
X0428887Y0153143D02*
X0484792Y0153143D01*
X0484792Y0153742D02*
X0428887Y0153742D01*
X0428887Y0154340D02*
X0484792Y0154340D01*
X0484792Y0154939D02*
X0428887Y0154939D01*
X0428887Y0155537D02*
X0484792Y0155537D01*
X0484792Y0156136D02*
X0428887Y0156136D01*
X0428887Y0156734D02*
X0484792Y0156734D01*
X0484792Y0157333D02*
X0428887Y0157333D01*
X0428887Y0157931D02*
X0484792Y0157931D01*
X0484792Y0158530D02*
X0428887Y0158530D01*
X0428887Y0159128D02*
X0484792Y0159128D01*
X0484792Y0159727D02*
X0428887Y0159727D01*
X0428887Y0160325D02*
X0484792Y0160325D01*
X0484792Y0160924D02*
X0428887Y0160924D01*
X0428887Y0161522D02*
X0484792Y0161522D01*
X0484792Y0162121D02*
X0428887Y0162121D01*
X0428887Y0162720D02*
X0484792Y0162720D01*
X0484792Y0163318D02*
X0428887Y0163318D01*
X0428887Y0163917D02*
X0484792Y0163917D01*
X0484792Y0164515D02*
X0428887Y0164515D01*
X0428887Y0165114D02*
X0484792Y0165114D01*
X0484792Y0165712D02*
X0428887Y0165712D01*
X0428887Y0166311D02*
X0484792Y0166311D01*
X0484792Y0166909D02*
X0428887Y0166909D01*
X0428887Y0167508D02*
X0484792Y0167508D01*
X0484792Y0168106D02*
X0428887Y0168106D01*
X0428887Y0168705D02*
X0484792Y0168705D01*
X0484792Y0169303D02*
X0428887Y0169303D01*
X0428887Y0169902D02*
X0484792Y0169902D01*
X0484792Y0170500D02*
X0428887Y0170500D01*
X0428887Y0171099D02*
X0484792Y0171099D01*
X0484792Y0171697D02*
X0428887Y0171697D01*
X0428887Y0172296D02*
X0484792Y0172296D01*
X0484792Y0172894D02*
X0428887Y0172894D01*
X0428887Y0173493D02*
X0484792Y0173493D01*
X0484792Y0174091D02*
X0428887Y0174091D01*
X0428887Y0174690D02*
X0484792Y0174690D01*
X0484792Y0175288D02*
X0428887Y0175288D01*
X0428887Y0175887D02*
X0484792Y0175887D01*
X0484792Y0176485D02*
X0428887Y0176485D01*
X0428887Y0177084D02*
X0484792Y0177084D01*
X0484792Y0177682D02*
X0428887Y0177682D01*
X0428887Y0178281D02*
X0484792Y0178281D01*
X0484792Y0178879D02*
X0428887Y0178879D01*
X0428887Y0179478D02*
X0484792Y0179478D01*
X0484792Y0180076D02*
X0428887Y0180076D01*
X0428887Y0180675D02*
X0484792Y0180675D01*
X0484792Y0181273D02*
X0428887Y0181273D01*
X0428887Y0181872D02*
X0484792Y0181872D01*
X0484792Y0182470D02*
X0428887Y0182470D01*
X0428887Y0183069D02*
X0484792Y0183069D01*
X0484792Y0183667D02*
X0428887Y0183667D01*
X0428887Y0184266D02*
X0484792Y0184266D01*
X0484792Y0184864D02*
X0428887Y0184864D01*
X0428887Y0185463D02*
X0484792Y0185463D01*
X0484792Y0186061D02*
X0428887Y0186061D01*
X0428887Y0186660D02*
X0484792Y0186660D01*
X0484792Y0187258D02*
X0428887Y0187258D01*
X0428887Y0187857D02*
X0484792Y0187857D01*
X0484792Y0188455D02*
X0428887Y0188455D01*
X0428887Y0189054D02*
X0484792Y0189054D01*
X0484792Y0189653D02*
X0428887Y0189653D01*
X0428887Y0190251D02*
X0484792Y0190251D01*
X0484792Y0190850D02*
X0428887Y0190850D01*
X0428887Y0191448D02*
X0484792Y0191448D01*
X0484792Y0192047D02*
X0428887Y0192047D01*
X0428887Y0192645D02*
X0484792Y0192645D01*
X0484792Y0193244D02*
X0428887Y0193244D01*
X0428887Y0193842D02*
X0484792Y0193842D01*
X0484792Y0194441D02*
X0428887Y0194441D01*
X0428887Y0195039D02*
X0484792Y0195039D01*
X0484792Y0195638D02*
X0428887Y0195638D01*
X0428887Y0196236D02*
X0484792Y0196236D01*
X0484792Y0196835D02*
X0428887Y0196835D01*
X0428887Y0197433D02*
X0484792Y0197433D01*
X0484792Y0198032D02*
X0428887Y0198032D01*
X0428887Y0198630D02*
X0484792Y0198630D01*
X0484792Y0199229D02*
X0428887Y0199229D01*
X0428887Y0199827D02*
X0484792Y0199827D01*
X0484792Y0200426D02*
X0428887Y0200426D01*
X0428887Y0201024D02*
X0484792Y0201024D01*
X0484792Y0201623D02*
X0428887Y0201623D01*
X0428887Y0202221D02*
X0484792Y0202221D01*
X0484792Y0202820D02*
X0428887Y0202820D01*
X0428887Y0203418D02*
X0484792Y0203418D01*
X0484792Y0204017D02*
X0428887Y0204017D01*
X0428887Y0204615D02*
X0484792Y0204615D01*
X0484792Y0205214D02*
X0428887Y0205214D01*
X0428887Y0205812D02*
X0484792Y0205812D01*
X0484792Y0206411D02*
X0428887Y0206411D01*
X0428887Y0207009D02*
X0484792Y0207009D01*
X0484792Y0207608D02*
X0428887Y0207608D01*
X0428887Y0208206D02*
X0484792Y0208206D01*
X0484792Y0208805D02*
X0428887Y0208805D01*
X0428887Y0209403D02*
X0484792Y0209403D01*
X0484792Y0210002D02*
X0428887Y0210002D01*
X0428887Y0210600D02*
X0484792Y0210600D01*
X0484792Y0211199D02*
X0428887Y0211199D01*
X0428887Y0211797D02*
X0484792Y0211797D01*
X0484792Y0212396D02*
X0428887Y0212396D01*
X0428887Y0212994D02*
X0484792Y0212994D01*
X0484792Y0213593D02*
X0428887Y0213593D01*
X0428887Y0214191D02*
X0484792Y0214191D01*
X0484792Y0214790D02*
X0428887Y0214790D01*
X0428887Y0215388D02*
X0484792Y0215388D01*
X0484792Y0215987D02*
X0428887Y0215987D01*
X0428887Y0216586D02*
X0484792Y0216586D01*
X0484792Y0217184D02*
X0428887Y0217184D01*
X0428887Y0217783D02*
X0484792Y0217783D01*
X0484792Y0218381D02*
X0428887Y0218381D01*
X0428887Y0218980D02*
X0484792Y0218980D01*
X0484792Y0219578D02*
X0428887Y0219578D01*
X0428887Y0220177D02*
X0484792Y0220177D01*
X0484792Y0220775D02*
X0428887Y0220775D01*
X0428887Y0221374D02*
X0484792Y0221374D01*
X0484792Y0221972D02*
X0428887Y0221972D01*
X0428887Y0222571D02*
X0484792Y0222571D01*
X0484792Y0223169D02*
X0428887Y0223169D01*
X0428887Y0223768D02*
X0484792Y0223768D01*
X0484792Y0224366D02*
X0428887Y0224366D01*
X0428887Y0224965D02*
X0484792Y0224965D01*
X0484792Y0225563D02*
X0428887Y0225563D01*
X0428887Y0226162D02*
X0484792Y0226162D01*
X0484792Y0226760D02*
X0385580Y0226760D01*
X0385580Y0227359D02*
X0484792Y0227359D01*
X0484792Y0227957D02*
X0385580Y0227957D01*
X0385580Y0228556D02*
X0484792Y0228556D01*
X0484792Y0229154D02*
X0385580Y0229154D01*
X0385580Y0229753D02*
X0484792Y0229753D01*
X0484792Y0230351D02*
X0385580Y0230351D01*
X0385580Y0230950D02*
X0484792Y0230950D01*
X0484792Y0231548D02*
X0385580Y0231548D01*
X0385580Y0232147D02*
X0484792Y0232147D01*
X0484792Y0232745D02*
X0385580Y0232745D01*
X0385580Y0233344D02*
X0484792Y0233344D01*
X0484792Y0233942D02*
X0385580Y0233942D01*
X0385580Y0234541D02*
X0484792Y0234541D01*
X0484792Y0235139D02*
X0385580Y0235139D01*
X0385580Y0235738D02*
X0484792Y0235738D01*
X0484792Y0236336D02*
X0385580Y0236336D01*
X0385580Y0236935D02*
X0484792Y0236935D01*
X0484792Y0237533D02*
X0385580Y0237533D01*
X0385580Y0238132D02*
X0484792Y0238132D01*
X0484792Y0238730D02*
X0385580Y0238730D01*
X0385580Y0239329D02*
X0484792Y0239329D01*
X0484792Y0239927D02*
X0385580Y0239927D01*
X0385580Y0240526D02*
X0484792Y0240526D01*
X0484792Y0241124D02*
X0385580Y0241124D01*
X0385580Y0241723D02*
X0484792Y0241723D01*
X0484792Y0242322D02*
X0385580Y0242322D01*
X0385580Y0242920D02*
X0484792Y0242920D01*
X0484792Y0243519D02*
X0385580Y0243519D01*
X0385580Y0244117D02*
X0484792Y0244117D01*
X0484792Y0244716D02*
X0385580Y0244716D01*
X0385580Y0245314D02*
X0484792Y0245314D01*
X0484792Y0245913D02*
X0385580Y0245913D01*
X0385580Y0246511D02*
X0484792Y0246511D01*
X0484792Y0247110D02*
X0385580Y0247110D01*
X0385580Y0247708D02*
X0484792Y0247708D01*
X0484792Y0248307D02*
X0385580Y0248307D01*
X0385580Y0248905D02*
X0484792Y0248905D01*
X0484792Y0249504D02*
X0385580Y0249504D01*
X0385580Y0250102D02*
X0484792Y0250102D01*
X0484792Y0250701D02*
X0428887Y0250701D01*
X0428887Y0251299D02*
X0484792Y0251299D01*
X0484792Y0251898D02*
X0428887Y0251898D01*
X0428887Y0252496D02*
X0484792Y0252496D01*
X0484792Y0253095D02*
X0428887Y0253095D01*
X0428887Y0253693D02*
X0484792Y0253693D01*
X0484792Y0254292D02*
X0428887Y0254292D01*
X0428887Y0254890D02*
X0484792Y0254890D01*
X0484792Y0255489D02*
X0428887Y0255489D01*
X0428887Y0256087D02*
X0484792Y0256087D01*
X0484792Y0256686D02*
X0428887Y0256686D01*
X0428887Y0257284D02*
X0484792Y0257284D01*
X0484792Y0257883D02*
X0428887Y0257883D01*
X0428887Y0258481D02*
X0484792Y0258481D01*
X0484792Y0259080D02*
X0428887Y0259080D01*
X0428887Y0259678D02*
X0484792Y0259678D01*
X0484792Y0260277D02*
X0428887Y0260277D01*
X0428887Y0260875D02*
X0484792Y0260875D01*
X0484792Y0261474D02*
X0428887Y0261474D01*
X0428887Y0262072D02*
X0484792Y0262072D01*
X0484792Y0262671D02*
X0428887Y0262671D01*
X0428887Y0263269D02*
X0484792Y0263269D01*
X0484792Y0263868D02*
X0428887Y0263868D01*
X0428887Y0264466D02*
X0484792Y0264466D01*
X0484792Y0265065D02*
X0428887Y0265065D01*
X0428887Y0265663D02*
X0484792Y0265663D01*
X0484792Y0266262D02*
X0428887Y0266262D01*
X0428887Y0266860D02*
X0484792Y0266860D01*
X0484792Y0267459D02*
X0428887Y0267459D01*
X0428887Y0268057D02*
X0484792Y0268057D01*
X0484792Y0268656D02*
X0428887Y0268656D01*
X0428887Y0269255D02*
X0484792Y0269255D01*
X0484792Y0269853D02*
X0428887Y0269853D01*
X0428887Y0270452D02*
X0484792Y0270452D01*
X0484792Y0271050D02*
X0428887Y0271050D01*
X0428887Y0271649D02*
X0484792Y0271649D01*
X0484792Y0272247D02*
X0428887Y0272247D01*
X0428887Y0272846D02*
X0484792Y0272846D01*
X0484792Y0273444D02*
X0428887Y0273444D01*
X0428887Y0274043D02*
X0484792Y0274043D01*
X0484792Y0274641D02*
X0428887Y0274641D01*
X0428887Y0275240D02*
X0484792Y0275240D01*
X0484792Y0275838D02*
X0428887Y0275838D01*
X0428887Y0276437D02*
X0484792Y0276437D01*
X0484792Y0277035D02*
X0428887Y0277035D01*
X0428887Y0277634D02*
X0484792Y0277634D01*
X0484792Y0278232D02*
X0428887Y0278232D01*
X0428887Y0278831D02*
X0484792Y0278831D01*
X0484792Y0279429D02*
X0428887Y0279429D01*
X0428887Y0280028D02*
X0484792Y0280028D01*
X0484792Y0280626D02*
X0428887Y0280626D01*
X0428887Y0281225D02*
X0484792Y0281225D01*
X0484792Y0281823D02*
X0428887Y0281823D01*
X0428887Y0282422D02*
X0484792Y0282422D01*
X0484792Y0283020D02*
X0428887Y0283020D01*
X0428887Y0283619D02*
X0484792Y0283619D01*
X0484792Y0284217D02*
X0428887Y0284217D01*
X0428887Y0284816D02*
X0484792Y0284816D01*
X0484792Y0285414D02*
X0428887Y0285414D01*
X0428887Y0286013D02*
X0484792Y0286013D01*
X0484792Y0286611D02*
X0428887Y0286611D01*
X0428887Y0287210D02*
X0484792Y0287210D01*
X0484792Y0287808D02*
X0428887Y0287808D01*
X0428887Y0288407D02*
X0484792Y0288407D01*
X0484792Y0289005D02*
X0428887Y0289005D01*
X0428887Y0289604D02*
X0484792Y0289604D01*
X0484792Y0290202D02*
X0428887Y0290202D01*
X0428887Y0290801D02*
X0484792Y0290801D01*
X0484792Y0291399D02*
X0428887Y0291399D01*
X0428887Y0291998D02*
X0484792Y0291998D01*
X0484792Y0292596D02*
X0428887Y0292596D01*
X0428887Y0293195D02*
X0484792Y0293195D01*
X0484792Y0293793D02*
X0428887Y0293793D01*
X0428887Y0294392D02*
X0484792Y0294392D01*
X0484792Y0294991D02*
X0428887Y0294991D01*
X0428887Y0295589D02*
X0484792Y0295589D01*
X0484792Y0296188D02*
X0428887Y0296188D01*
X0428887Y0296786D02*
X0484792Y0296786D01*
X0484792Y0297385D02*
X0428887Y0297385D01*
X0428887Y0297983D02*
X0484792Y0297983D01*
X0484792Y0298582D02*
X0428887Y0298582D01*
X0428887Y0299180D02*
X0484792Y0299180D01*
X0484792Y0299779D02*
X0428887Y0299779D01*
X0428887Y0300377D02*
X0484792Y0300377D01*
X0484792Y0300976D02*
X0428887Y0300976D01*
X0428887Y0301574D02*
X0484792Y0301574D01*
X0484792Y0302173D02*
X0428887Y0302173D01*
X0428887Y0302771D02*
X0484792Y0302771D01*
X0484792Y0303370D02*
X0428887Y0303370D01*
X0428887Y0303968D02*
X0484792Y0303968D01*
X0484792Y0304567D02*
X0428887Y0304567D01*
X0428887Y0305165D02*
X0484792Y0305165D01*
X0484792Y0305764D02*
X0428887Y0305764D01*
X0428887Y0306362D02*
X0484792Y0306362D01*
X0484792Y0306961D02*
X0428887Y0306961D01*
X0428887Y0307559D02*
X0484792Y0307559D01*
X0484792Y0308158D02*
X0428887Y0308158D01*
X0428887Y0308756D02*
X0484792Y0308756D01*
X0484792Y0309355D02*
X0428887Y0309355D01*
X0428887Y0309953D02*
X0484792Y0309953D01*
X0484792Y0310552D02*
X0428887Y0310552D01*
X0428887Y0311150D02*
X0484792Y0311150D01*
X0484792Y0311749D02*
X0428887Y0311749D01*
X0428887Y0312347D02*
X0484792Y0312347D01*
X0484792Y0312946D02*
X0428887Y0312946D01*
X0428887Y0313544D02*
X0484792Y0313544D01*
X0484792Y0314143D02*
X0428887Y0314143D01*
X0428887Y0314741D02*
X0484792Y0314741D01*
X0484792Y0315340D02*
X0428887Y0315340D01*
X0428887Y0315938D02*
X0484792Y0315938D01*
X0484792Y0316537D02*
X0428887Y0316537D01*
X0428887Y0317135D02*
X0484792Y0317135D01*
X0484792Y0317734D02*
X0428887Y0317734D01*
X0428887Y0318332D02*
X0484792Y0318332D01*
X0484792Y0318931D02*
X0428887Y0318931D01*
X0428887Y0319529D02*
X0484792Y0319529D01*
X0484792Y0320128D02*
X0428887Y0320128D01*
X0428887Y0320726D02*
X0484792Y0320726D01*
X0484792Y0321325D02*
X0428887Y0321325D01*
X0428887Y0321924D02*
X0484792Y0321924D01*
X0484792Y0322522D02*
X0428887Y0322522D01*
X0428887Y0323121D02*
X0484792Y0323121D01*
X0484792Y0323719D02*
X0428887Y0323719D01*
X0428887Y0324318D02*
X0484792Y0324318D01*
X0484792Y0324916D02*
X0428887Y0324916D01*
X0428887Y0325515D02*
X0484792Y0325515D01*
X0484792Y0326113D02*
X0428887Y0326113D01*
X0428887Y0326712D02*
X0484792Y0326712D01*
X0484792Y0327310D02*
X0428887Y0327310D01*
X0428887Y0327909D02*
X0484792Y0327909D01*
X0484792Y0328507D02*
X0428887Y0328507D01*
X0428887Y0329106D02*
X0484792Y0329106D01*
X0484792Y0329704D02*
X0428887Y0329704D01*
X0428887Y0330303D02*
X0484792Y0330303D01*
X0484792Y0330901D02*
X0428887Y0330901D01*
X0428887Y0331500D02*
X0484792Y0331500D01*
X0484792Y0332098D02*
X0428887Y0332098D01*
X0428887Y0332697D02*
X0484792Y0332697D01*
X0484792Y0333295D02*
X0428887Y0333295D01*
X0428887Y0333894D02*
X0484792Y0333894D01*
X0484792Y0334492D02*
X0428887Y0334492D01*
X0428887Y0335091D02*
X0484792Y0335091D01*
X0484792Y0335689D02*
X0428887Y0335689D01*
X0428887Y0336288D02*
X0484792Y0336288D01*
X0484792Y0336886D02*
X0428887Y0336886D01*
X0428887Y0337485D02*
X0484792Y0337485D01*
X0484792Y0338083D02*
X0428887Y0338083D01*
X0428887Y0338682D02*
X0484792Y0338682D01*
X0484792Y0339280D02*
X0428887Y0339280D01*
X0428887Y0339879D02*
X0484792Y0339879D01*
X0484792Y0340477D02*
X0428887Y0340477D01*
X0428887Y0341076D02*
X0484792Y0341076D01*
X0484792Y0341674D02*
X0428887Y0341674D01*
X0428887Y0342273D02*
X0484792Y0342273D01*
X0484792Y0342871D02*
X0428887Y0342871D01*
X0428887Y0343470D02*
X0484792Y0343470D01*
X0484792Y0344068D02*
X0428887Y0344068D01*
X0428887Y0344667D02*
X0484792Y0344667D01*
X0484792Y0345265D02*
X0428887Y0345265D01*
X0428887Y0345864D02*
X0484792Y0345864D01*
X0484792Y0346462D02*
X0428887Y0346462D01*
X0428887Y0347061D02*
X0484792Y0347061D01*
X0484792Y0347659D02*
X0428887Y0347659D01*
X0428887Y0348258D02*
X0484792Y0348258D01*
X0484792Y0348857D02*
X0428887Y0348857D01*
X0428887Y0349455D02*
X0484792Y0349455D01*
X0484792Y0350054D02*
X0428887Y0350054D01*
X0428887Y0350652D02*
X0484792Y0350652D01*
X0484792Y0351251D02*
X0428887Y0351251D01*
X0428887Y0351849D02*
X0484792Y0351849D01*
X0484792Y0352448D02*
X0428887Y0352448D01*
X0428887Y0353046D02*
X0484792Y0353046D01*
X0484792Y0353645D02*
X0428887Y0353645D01*
X0428887Y0354243D02*
X0484792Y0354243D01*
X0484792Y0354842D02*
X0428887Y0354842D01*
X0428887Y0355440D02*
X0484792Y0355440D01*
X0484792Y0356039D02*
X0428887Y0356039D01*
X0428887Y0356637D02*
X0484792Y0356637D01*
X0484792Y0357236D02*
X0428887Y0357236D01*
X0428887Y0357834D02*
X0484792Y0357834D01*
X0484792Y0358433D02*
X0428887Y0358433D01*
X0428887Y0359031D02*
X0484792Y0359031D01*
X0484792Y0359630D02*
X0428887Y0359630D01*
X0428887Y0360228D02*
X0484792Y0360228D01*
X0484792Y0360827D02*
X0428887Y0360827D01*
X0428887Y0361425D02*
X0484792Y0361425D01*
X0484792Y0362024D02*
X0428887Y0362024D01*
X0428887Y0362622D02*
X0484792Y0362622D01*
X0484792Y0363221D02*
X0428887Y0363221D01*
X0428887Y0363819D02*
X0484792Y0363819D01*
X0484792Y0364418D02*
X0428887Y0364418D01*
X0428887Y0365016D02*
X0484792Y0365016D01*
X0484792Y0365615D02*
X0428887Y0365615D01*
X0428887Y0366213D02*
X0484792Y0366213D01*
X0484792Y0366812D02*
X0428887Y0366812D01*
X0428887Y0367410D02*
X0484792Y0367410D01*
X0484792Y0368009D02*
X0428887Y0368009D01*
X0428887Y0368607D02*
X0484792Y0368607D01*
X0484792Y0369206D02*
X0428887Y0369206D01*
X0428887Y0369804D02*
X0484792Y0369804D01*
X0484792Y0370403D02*
X0428887Y0370403D01*
X0428887Y0371001D02*
X0484792Y0371001D01*
X0484792Y0371600D02*
X0428887Y0371600D01*
X0428887Y0372198D02*
X0484792Y0372198D01*
X0484792Y0372797D02*
X0428887Y0372797D01*
X0428887Y0373395D02*
X0484792Y0373395D01*
X0484792Y0373994D02*
X0428887Y0373994D01*
X0428887Y0374593D02*
X0484792Y0374593D01*
X0484792Y0375191D02*
X0428887Y0375191D01*
X0428887Y0375790D02*
X0484792Y0375790D01*
X0484792Y0376388D02*
X0428887Y0376388D01*
X0428887Y0376987D02*
X0484792Y0376987D01*
X0484792Y0377585D02*
X0428887Y0377585D01*
X0428887Y0378184D02*
X0484792Y0378184D01*
X0484792Y0378782D02*
X0428887Y0378782D01*
X0428887Y0379381D02*
X0484792Y0379381D01*
X0484792Y0379979D02*
X0428887Y0379979D01*
X0428887Y0380578D02*
X0484792Y0380578D01*
X0484792Y0381176D02*
X0428887Y0381176D01*
X0428887Y0381775D02*
X0484792Y0381775D01*
X0484792Y0382373D02*
X0428887Y0382373D01*
X0428887Y0382972D02*
X0484792Y0382972D01*
X0484792Y0383570D02*
X0428887Y0383570D01*
X0428887Y0384169D02*
X0484792Y0384169D01*
X0484792Y0384767D02*
X0428887Y0384767D01*
X0428887Y0385366D02*
X0484792Y0385366D01*
X0484792Y0385964D02*
X0428887Y0385964D01*
X0428887Y0386563D02*
X0484792Y0386563D01*
X0484792Y0387161D02*
X0428887Y0387161D01*
X0428887Y0387760D02*
X0484792Y0387760D01*
X0484792Y0388358D02*
X0428887Y0388358D01*
X0428887Y0388957D02*
X0484792Y0388957D01*
X0484792Y0389555D02*
X0428887Y0389555D01*
X0428887Y0390154D02*
X0484792Y0390154D01*
X0484792Y0390752D02*
X0428887Y0390752D01*
X0428887Y0391351D02*
X0484792Y0391351D01*
X0484792Y0391949D02*
X0428887Y0391949D01*
X0428887Y0392548D02*
X0484792Y0392548D01*
X0484792Y0393146D02*
X0428887Y0393146D01*
X0428887Y0393745D02*
X0484792Y0393745D01*
X0484792Y0394343D02*
X0428887Y0394343D01*
X0428887Y0394942D02*
X0484792Y0394942D01*
X0484792Y0395540D02*
X0428887Y0395540D01*
X0428887Y0396139D02*
X0484792Y0396139D01*
X0484792Y0396737D02*
X0428887Y0396737D01*
X0428887Y0397336D02*
X0484792Y0397336D01*
X0484792Y0397934D02*
X0428887Y0397934D01*
X0428887Y0398533D02*
X0484792Y0398533D01*
X0484792Y0399131D02*
X0428887Y0399131D01*
X0428887Y0399730D02*
X0484792Y0399730D01*
X0484792Y0400328D02*
X0428887Y0400328D01*
X0428887Y0400927D02*
X0484792Y0400927D01*
X0484792Y0401526D02*
X0428887Y0401526D01*
X0428887Y0402124D02*
X0484792Y0402124D01*
X0484792Y0402723D02*
X0428887Y0402723D01*
X0428887Y0403321D02*
X0484792Y0403321D01*
X0484792Y0403920D02*
X0428887Y0403920D01*
X0428887Y0404518D02*
X0484792Y0404518D01*
X0484792Y0405117D02*
X0428887Y0405117D01*
X0428887Y0405715D02*
X0484792Y0405715D01*
X0484792Y0406314D02*
X0428887Y0406314D01*
X0428887Y0406912D02*
X0484792Y0406912D01*
X0484792Y0407511D02*
X0428887Y0407511D01*
X0428887Y0408109D02*
X0484792Y0408109D01*
X0484792Y0408708D02*
X0428887Y0408708D01*
X0428887Y0409306D02*
X0484792Y0409306D01*
X0484792Y0409905D02*
X0428887Y0409905D01*
X0428887Y0410503D02*
X0484792Y0410503D01*
X0484792Y0411102D02*
X0428887Y0411102D01*
X0428887Y0411700D02*
X0484792Y0411700D01*
X0484792Y0412299D02*
X0428887Y0412299D01*
X0428887Y0412897D02*
X0484792Y0412897D01*
X0484792Y0413496D02*
X0428887Y0413496D01*
X0428887Y0414094D02*
X0484792Y0414094D01*
X0484792Y0414693D02*
X0428887Y0414693D01*
X0428887Y0415291D02*
X0484792Y0415291D01*
X0484792Y0415890D02*
X0428887Y0415890D01*
X0428887Y0416488D02*
X0484792Y0416488D01*
X0484792Y0417087D02*
X0428887Y0417087D01*
X0428887Y0417685D02*
X0484792Y0417685D01*
X0484792Y0418284D02*
X0428887Y0418284D01*
X0428887Y0418882D02*
X0484792Y0418882D01*
X0484792Y0419481D02*
X0428887Y0419481D01*
X0428887Y0420079D02*
X0484792Y0420079D01*
X0484792Y0420678D02*
X0428887Y0420678D01*
X0428887Y0421276D02*
X0484792Y0421276D01*
X0484792Y0421875D02*
X0428887Y0421875D01*
X0428887Y0422473D02*
X0484792Y0422473D01*
X0484792Y0423072D02*
X0428887Y0423072D01*
X0428887Y0423670D02*
X0484792Y0423670D01*
X0484792Y0424269D02*
X0428887Y0424269D01*
X0428887Y0424867D02*
X0484792Y0424867D01*
X0484792Y0425466D02*
X0428887Y0425466D01*
X0428887Y0426064D02*
X0484792Y0426064D01*
X0484792Y0426663D02*
X0428887Y0426663D01*
X0428887Y0427262D02*
X0484792Y0427262D01*
X0484792Y0427860D02*
X0428887Y0427860D01*
X0428887Y0428459D02*
X0484792Y0428459D01*
X0484792Y0429057D02*
X0428887Y0429057D01*
X0428887Y0429656D02*
X0484792Y0429656D01*
X0484792Y0430254D02*
X0428887Y0430254D01*
X0428887Y0430853D02*
X0484792Y0430853D01*
X0484792Y0431451D02*
X0068257Y0431451D01*
X0068257Y0430853D02*
X0113926Y0430853D01*
X0113926Y0430254D02*
X0068257Y0430254D01*
X0068257Y0429656D02*
X0113926Y0429656D01*
X0113926Y0429057D02*
X0068257Y0429057D01*
X0068257Y0428459D02*
X0113926Y0428459D01*
X0113926Y0427860D02*
X0068257Y0427860D01*
X0068257Y0427262D02*
X0113926Y0427262D01*
X0113926Y0426663D02*
X0068257Y0426663D01*
X0068257Y0426064D02*
X0113926Y0426064D01*
X0113926Y0425466D02*
X0068257Y0425466D01*
X0068257Y0424867D02*
X0113926Y0424867D01*
X0113926Y0424269D02*
X0068257Y0424269D01*
X0068257Y0423670D02*
X0113926Y0423670D01*
X0113926Y0423072D02*
X0068257Y0423072D01*
X0068257Y0422473D02*
X0113926Y0422473D01*
X0113926Y0421875D02*
X0068257Y0421875D01*
X0068257Y0421276D02*
X0113926Y0421276D01*
X0113926Y0420678D02*
X0068257Y0420678D01*
X0068257Y0420079D02*
X0113926Y0420079D01*
X0113926Y0419481D02*
X0068257Y0419481D01*
X0068257Y0418882D02*
X0113926Y0418882D01*
X0113926Y0418284D02*
X0068257Y0418284D01*
X0068257Y0417685D02*
X0113926Y0417685D01*
X0113926Y0417087D02*
X0068257Y0417087D01*
X0068257Y0416488D02*
X0113926Y0416488D01*
X0113926Y0415890D02*
X0068257Y0415890D01*
X0068257Y0415291D02*
X0113926Y0415291D01*
X0113926Y0414693D02*
X0068257Y0414693D01*
X0068257Y0414094D02*
X0113926Y0414094D01*
X0113926Y0413496D02*
X0068257Y0413496D01*
X0068257Y0412897D02*
X0113926Y0412897D01*
X0113926Y0412299D02*
X0068257Y0412299D01*
X0068257Y0411700D02*
X0113926Y0411700D01*
X0113926Y0411102D02*
X0068257Y0411102D01*
X0068257Y0410503D02*
X0113926Y0410503D01*
X0113926Y0409905D02*
X0068257Y0409905D01*
X0068257Y0409306D02*
X0113926Y0409306D01*
X0113926Y0408708D02*
X0068257Y0408708D01*
X0068257Y0408109D02*
X0113926Y0408109D01*
X0113926Y0407511D02*
X0068257Y0407511D01*
X0068257Y0406912D02*
X0113926Y0406912D01*
X0113926Y0406314D02*
X0068257Y0406314D01*
X0068257Y0405715D02*
X0113926Y0405715D01*
X0113926Y0405117D02*
X0068257Y0405117D01*
X0068257Y0404518D02*
X0113926Y0404518D01*
X0113926Y0403920D02*
X0068257Y0403920D01*
X0068257Y0403321D02*
X0113926Y0403321D01*
X0113926Y0402723D02*
X0068257Y0402723D01*
X0068257Y0402124D02*
X0113926Y0402124D01*
X0113926Y0401526D02*
X0068257Y0401526D01*
X0068257Y0400927D02*
X0113926Y0400927D01*
X0113926Y0400328D02*
X0068257Y0400328D01*
X0068257Y0399730D02*
X0113926Y0399730D01*
X0113926Y0399131D02*
X0068257Y0399131D01*
X0068257Y0398533D02*
X0113926Y0398533D01*
X0113926Y0397934D02*
X0068257Y0397934D01*
X0068257Y0397336D02*
X0113926Y0397336D01*
X0113926Y0396737D02*
X0068257Y0396737D01*
X0068257Y0396139D02*
X0113926Y0396139D01*
X0113926Y0395540D02*
X0068257Y0395540D01*
X0068257Y0394942D02*
X0113926Y0394942D01*
X0113926Y0394343D02*
X0068257Y0394343D01*
X0068257Y0393745D02*
X0113926Y0393745D01*
X0113926Y0393146D02*
X0068257Y0393146D01*
X0068257Y0392548D02*
X0113926Y0392548D01*
X0113926Y0391949D02*
X0068257Y0391949D01*
X0068257Y0391351D02*
X0113926Y0391351D01*
X0113926Y0390752D02*
X0068257Y0390752D01*
X0068257Y0390154D02*
X0113926Y0390154D01*
X0113926Y0389555D02*
X0068257Y0389555D01*
X0068257Y0388957D02*
X0113926Y0388957D01*
X0113926Y0388358D02*
X0068257Y0388358D01*
X0068257Y0387760D02*
X0113926Y0387760D01*
X0113926Y0387161D02*
X0068257Y0387161D01*
X0068257Y0386563D02*
X0113926Y0386563D01*
X0113926Y0385964D02*
X0068257Y0385964D01*
X0068257Y0385366D02*
X0113926Y0385366D01*
X0113926Y0384767D02*
X0068257Y0384767D01*
X0068257Y0384169D02*
X0113926Y0384169D01*
X0113926Y0383570D02*
X0068257Y0383570D01*
X0068257Y0382972D02*
X0113926Y0382972D01*
X0113926Y0382373D02*
X0068257Y0382373D01*
X0068257Y0381775D02*
X0113926Y0381775D01*
X0113926Y0381176D02*
X0068257Y0381176D01*
X0068257Y0380578D02*
X0113926Y0380578D01*
X0113926Y0379979D02*
X0068257Y0379979D01*
X0068257Y0379381D02*
X0113926Y0379381D01*
X0113926Y0378782D02*
X0068257Y0378782D01*
X0068257Y0378184D02*
X0113926Y0378184D01*
X0113926Y0377585D02*
X0068257Y0377585D01*
X0068257Y0376987D02*
X0113926Y0376987D01*
X0113926Y0376388D02*
X0068257Y0376388D01*
X0068257Y0375790D02*
X0113926Y0375790D01*
X0113926Y0375191D02*
X0068257Y0375191D01*
X0068257Y0374593D02*
X0113926Y0374593D01*
X0113926Y0373994D02*
X0068257Y0373994D01*
X0068257Y0373395D02*
X0113926Y0373395D01*
X0113926Y0372797D02*
X0068257Y0372797D01*
X0068257Y0372198D02*
X0113926Y0372198D01*
X0113926Y0371600D02*
X0068257Y0371600D01*
X0068257Y0371001D02*
X0113926Y0371001D01*
X0113926Y0370403D02*
X0068257Y0370403D01*
X0068257Y0369804D02*
X0113926Y0369804D01*
X0113926Y0369206D02*
X0068257Y0369206D01*
X0068257Y0368607D02*
X0113926Y0368607D01*
X0113926Y0368009D02*
X0068257Y0368009D01*
X0068257Y0367410D02*
X0113926Y0367410D01*
X0113926Y0366812D02*
X0068257Y0366812D01*
X0068257Y0366213D02*
X0113926Y0366213D01*
X0113926Y0365615D02*
X0068257Y0365615D01*
X0068257Y0365016D02*
X0113926Y0365016D01*
X0113926Y0364418D02*
X0068257Y0364418D01*
X0068257Y0363819D02*
X0113926Y0363819D01*
X0113926Y0363221D02*
X0068257Y0363221D01*
X0068257Y0362622D02*
X0113926Y0362622D01*
X0113926Y0362024D02*
X0068257Y0362024D01*
X0068257Y0361425D02*
X0113926Y0361425D01*
X0113926Y0360827D02*
X0068257Y0360827D01*
X0068257Y0360228D02*
X0113926Y0360228D01*
X0113926Y0359630D02*
X0068257Y0359630D01*
X0068257Y0359031D02*
X0113926Y0359031D01*
X0113926Y0358433D02*
X0068257Y0358433D01*
X0068257Y0357834D02*
X0113926Y0357834D01*
X0113926Y0357236D02*
X0068257Y0357236D01*
X0068257Y0356637D02*
X0113926Y0356637D01*
X0113926Y0356039D02*
X0068257Y0356039D01*
X0068257Y0355440D02*
X0113926Y0355440D01*
X0113926Y0354842D02*
X0068257Y0354842D01*
X0068257Y0354243D02*
X0113926Y0354243D01*
X0113926Y0353645D02*
X0068257Y0353645D01*
X0068257Y0353046D02*
X0113926Y0353046D01*
X0113926Y0352448D02*
X0068257Y0352448D01*
X0068257Y0351849D02*
X0113926Y0351849D01*
X0113926Y0351251D02*
X0068257Y0351251D01*
X0068257Y0350652D02*
X0113926Y0350652D01*
X0113926Y0350054D02*
X0068257Y0350054D01*
X0068257Y0349455D02*
X0113926Y0349455D01*
X0113926Y0348857D02*
X0068257Y0348857D01*
X0068257Y0348258D02*
X0113926Y0348258D01*
X0113926Y0347659D02*
X0068257Y0347659D01*
X0068257Y0347061D02*
X0113926Y0347061D01*
X0113926Y0346462D02*
X0068257Y0346462D01*
X0068257Y0345864D02*
X0113926Y0345864D01*
X0113926Y0345265D02*
X0068257Y0345265D01*
X0068257Y0344667D02*
X0113926Y0344667D01*
X0113926Y0344068D02*
X0068257Y0344068D01*
X0068257Y0343470D02*
X0113926Y0343470D01*
X0113926Y0342871D02*
X0068257Y0342871D01*
X0068257Y0342273D02*
X0113926Y0342273D01*
X0113926Y0341674D02*
X0068257Y0341674D01*
X0068257Y0341076D02*
X0113926Y0341076D01*
X0113926Y0340477D02*
X0068257Y0340477D01*
X0068257Y0339879D02*
X0113926Y0339879D01*
X0113926Y0339280D02*
X0068257Y0339280D01*
X0068257Y0338682D02*
X0113926Y0338682D01*
X0113926Y0338083D02*
X0068257Y0338083D01*
X0068257Y0337485D02*
X0113926Y0337485D01*
X0113926Y0336886D02*
X0068257Y0336886D01*
X0068257Y0336288D02*
X0113926Y0336288D01*
X0113926Y0335689D02*
X0068257Y0335689D01*
X0068257Y0335091D02*
X0113926Y0335091D01*
X0113926Y0334492D02*
X0068257Y0334492D01*
X0068257Y0333894D02*
X0113926Y0333894D01*
X0113926Y0333295D02*
X0068257Y0333295D01*
X0068257Y0332697D02*
X0113926Y0332697D01*
X0113926Y0332098D02*
X0068257Y0332098D01*
X0068257Y0331500D02*
X0113926Y0331500D01*
X0113926Y0330901D02*
X0068257Y0330901D01*
X0068257Y0330303D02*
X0113926Y0330303D01*
X0113926Y0329704D02*
X0068257Y0329704D01*
X0068257Y0329106D02*
X0113926Y0329106D01*
X0113926Y0328507D02*
X0068257Y0328507D01*
X0068257Y0327909D02*
X0113926Y0327909D01*
X0113926Y0327310D02*
X0068257Y0327310D01*
X0068257Y0326712D02*
X0113926Y0326712D01*
X0113926Y0326113D02*
X0068257Y0326113D01*
X0068257Y0325515D02*
X0113926Y0325515D01*
X0113926Y0324916D02*
X0068257Y0324916D01*
X0068257Y0324318D02*
X0113926Y0324318D01*
X0113926Y0323719D02*
X0068257Y0323719D01*
X0068257Y0323121D02*
X0113926Y0323121D01*
X0113926Y0322522D02*
X0068257Y0322522D01*
X0068257Y0321924D02*
X0113926Y0321924D01*
X0113926Y0321325D02*
X0068257Y0321325D01*
X0068257Y0320726D02*
X0113926Y0320726D01*
X0113926Y0320128D02*
X0068257Y0320128D01*
X0068257Y0319529D02*
X0113926Y0319529D01*
X0113926Y0318931D02*
X0068257Y0318931D01*
X0068257Y0318332D02*
X0113926Y0318332D01*
X0113926Y0317734D02*
X0068257Y0317734D01*
X0068257Y0317135D02*
X0113926Y0317135D01*
X0113926Y0316537D02*
X0068257Y0316537D01*
X0068257Y0315938D02*
X0113926Y0315938D01*
X0113926Y0315340D02*
X0068257Y0315340D01*
X0068257Y0314741D02*
X0113926Y0314741D01*
X0113926Y0314143D02*
X0068257Y0314143D01*
X0068257Y0313544D02*
X0113926Y0313544D01*
X0113926Y0312946D02*
X0068257Y0312946D01*
X0068257Y0312347D02*
X0113926Y0312347D01*
X0113926Y0311749D02*
X0068257Y0311749D01*
X0068257Y0311150D02*
X0113926Y0311150D01*
X0113926Y0310552D02*
X0068257Y0310552D01*
X0068257Y0309953D02*
X0113926Y0309953D01*
X0113926Y0309355D02*
X0068257Y0309355D01*
X0068257Y0308756D02*
X0113926Y0308756D01*
X0113926Y0308158D02*
X0068257Y0308158D01*
X0068257Y0307559D02*
X0113926Y0307559D01*
X0113926Y0306961D02*
X0068257Y0306961D01*
X0068257Y0306362D02*
X0113926Y0306362D01*
X0113926Y0305764D02*
X0068257Y0305764D01*
X0068257Y0305165D02*
X0113926Y0305165D01*
X0113926Y0304567D02*
X0068257Y0304567D01*
X0068257Y0303968D02*
X0113926Y0303968D01*
X0113926Y0303370D02*
X0068257Y0303370D01*
X0068257Y0302771D02*
X0113926Y0302771D01*
X0113926Y0302173D02*
X0068257Y0302173D01*
X0068257Y0301574D02*
X0113926Y0301574D01*
X0113926Y0300976D02*
X0068257Y0300976D01*
X0068257Y0300377D02*
X0113926Y0300377D01*
X0113926Y0299779D02*
X0068257Y0299779D01*
X0068257Y0299180D02*
X0113926Y0299180D01*
X0113926Y0298582D02*
X0068257Y0298582D01*
X0068257Y0297983D02*
X0113926Y0297983D01*
X0113926Y0297385D02*
X0068257Y0297385D01*
X0068257Y0296786D02*
X0113926Y0296786D01*
X0113926Y0296188D02*
X0068257Y0296188D01*
X0068257Y0295589D02*
X0113926Y0295589D01*
X0113926Y0294991D02*
X0068257Y0294991D01*
X0068257Y0294392D02*
X0113926Y0294392D01*
X0113926Y0293793D02*
X0068257Y0293793D01*
X0068257Y0293195D02*
X0113926Y0293195D01*
X0113926Y0292596D02*
X0068257Y0292596D01*
X0068257Y0291998D02*
X0113926Y0291998D01*
X0113926Y0291399D02*
X0068257Y0291399D01*
X0068257Y0290801D02*
X0113926Y0290801D01*
X0113926Y0290202D02*
X0068257Y0290202D01*
X0068257Y0289604D02*
X0113926Y0289604D01*
X0113926Y0289005D02*
X0068257Y0289005D01*
X0068257Y0288407D02*
X0113926Y0288407D01*
X0113926Y0287808D02*
X0068257Y0287808D01*
X0068257Y0287210D02*
X0113926Y0287210D01*
X0113926Y0286611D02*
X0068257Y0286611D01*
X0068257Y0286013D02*
X0113926Y0286013D01*
X0113926Y0285414D02*
X0068257Y0285414D01*
X0068257Y0284816D02*
X0113926Y0284816D01*
X0113926Y0284217D02*
X0068257Y0284217D01*
X0068257Y0283619D02*
X0113926Y0283619D01*
X0113926Y0283020D02*
X0068257Y0283020D01*
X0068257Y0282422D02*
X0113926Y0282422D01*
X0113926Y0281823D02*
X0068257Y0281823D01*
X0068257Y0281225D02*
X0113926Y0281225D01*
X0113926Y0280626D02*
X0068257Y0280626D01*
X0068257Y0280028D02*
X0113926Y0280028D01*
X0113926Y0279429D02*
X0068257Y0279429D01*
X0068257Y0278831D02*
X0113926Y0278831D01*
X0113926Y0278232D02*
X0068257Y0278232D01*
X0068257Y0277634D02*
X0113926Y0277634D01*
X0113926Y0277035D02*
X0068257Y0277035D01*
X0068257Y0276437D02*
X0113926Y0276437D01*
X0113926Y0275838D02*
X0068257Y0275838D01*
X0068257Y0275240D02*
X0113926Y0275240D01*
X0113926Y0274641D02*
X0068257Y0274641D01*
X0068257Y0274043D02*
X0113926Y0274043D01*
X0113926Y0273444D02*
X0068257Y0273444D01*
X0068257Y0272846D02*
X0113926Y0272846D01*
X0113926Y0272247D02*
X0068257Y0272247D01*
X0068257Y0271649D02*
X0113926Y0271649D01*
X0113926Y0271050D02*
X0068257Y0271050D01*
X0068257Y0270452D02*
X0113926Y0270452D01*
X0113926Y0269853D02*
X0068257Y0269853D01*
X0068257Y0269255D02*
X0113926Y0269255D01*
X0113926Y0268656D02*
X0068257Y0268656D01*
X0068257Y0268057D02*
X0113926Y0268057D01*
X0113926Y0267459D02*
X0068257Y0267459D01*
X0068257Y0266860D02*
X0113926Y0266860D01*
X0113926Y0266262D02*
X0068257Y0266262D01*
X0068257Y0265663D02*
X0113926Y0265663D01*
X0113926Y0265065D02*
X0068257Y0265065D01*
X0068257Y0264466D02*
X0113926Y0264466D01*
X0113926Y0263868D02*
X0068257Y0263868D01*
X0068257Y0263269D02*
X0113926Y0263269D01*
X0113926Y0262671D02*
X0068257Y0262671D01*
X0068257Y0262072D02*
X0113926Y0262072D01*
X0113926Y0261474D02*
X0068257Y0261474D01*
X0068257Y0260875D02*
X0113926Y0260875D01*
X0113926Y0260277D02*
X0068257Y0260277D01*
X0068257Y0259678D02*
X0113926Y0259678D01*
X0113926Y0259080D02*
X0068257Y0259080D01*
X0068257Y0258481D02*
X0113926Y0258481D01*
X0113926Y0257883D02*
X0068257Y0257883D01*
X0068257Y0257284D02*
X0113926Y0257284D01*
X0113926Y0256686D02*
X0068257Y0256686D01*
X0068257Y0256087D02*
X0113926Y0256087D01*
X0113926Y0255489D02*
X0068257Y0255489D01*
X0068257Y0254890D02*
X0113926Y0254890D01*
X0113926Y0254292D02*
X0068257Y0254292D01*
X0068257Y0253693D02*
X0113926Y0253693D01*
X0113926Y0253095D02*
X0068257Y0253095D01*
X0068257Y0252496D02*
X0113926Y0252496D01*
X0113926Y0251898D02*
X0068257Y0251898D01*
X0068257Y0251299D02*
X0113926Y0251299D01*
X0113926Y0250701D02*
X0068257Y0250701D01*
X0068257Y0250102D02*
X0113926Y0250102D01*
X0113926Y0249504D02*
X0068257Y0249504D01*
X0068257Y0248905D02*
X0113926Y0248905D01*
X0113926Y0248307D02*
X0068257Y0248307D01*
X0068257Y0247708D02*
X0113926Y0247708D01*
X0113926Y0247110D02*
X0068257Y0247110D01*
X0068257Y0246511D02*
X0113926Y0246511D01*
X0113926Y0245913D02*
X0068257Y0245913D01*
X0068257Y0245314D02*
X0113926Y0245314D01*
X0113926Y0244716D02*
X0068257Y0244716D01*
X0068257Y0244117D02*
X0113926Y0244117D01*
X0113926Y0243519D02*
X0068257Y0243519D01*
X0068257Y0242920D02*
X0113926Y0242920D01*
X0113926Y0242322D02*
X0068257Y0242322D01*
X0068257Y0241723D02*
X0113926Y0241723D01*
X0113926Y0241124D02*
X0068257Y0241124D01*
X0068257Y0240526D02*
X0113926Y0240526D01*
X0113926Y0239927D02*
X0068257Y0239927D01*
X0068257Y0239329D02*
X0113926Y0239329D01*
X0113926Y0238730D02*
X0068257Y0238730D01*
X0068257Y0238132D02*
X0113926Y0238132D01*
X0113926Y0237533D02*
X0068257Y0237533D01*
X0068257Y0236935D02*
X0113926Y0236935D01*
X0113926Y0236336D02*
X0068257Y0236336D01*
X0068257Y0235738D02*
X0113926Y0235738D01*
X0113926Y0235139D02*
X0068257Y0235139D01*
X0068257Y0234541D02*
X0113926Y0234541D01*
X0113926Y0233942D02*
X0068257Y0233942D01*
X0068257Y0233344D02*
X0113926Y0233344D01*
X0113926Y0232745D02*
X0068257Y0232745D01*
X0068257Y0232147D02*
X0113926Y0232147D01*
X0113926Y0231548D02*
X0068257Y0231548D01*
X0068257Y0230950D02*
X0113926Y0230950D01*
X0113926Y0230351D02*
X0068257Y0230351D01*
X0068257Y0229753D02*
X0113926Y0229753D01*
X0113926Y0229154D02*
X0068257Y0229154D01*
X0068257Y0228556D02*
X0113926Y0228556D01*
X0113926Y0227957D02*
X0068257Y0227957D01*
X0068257Y0227359D02*
X0113926Y0227359D01*
X0113926Y0226760D02*
X0068257Y0226760D01*
X0068257Y0226162D02*
X0113926Y0226162D01*
X0113926Y0225563D02*
X0068257Y0225563D01*
X0068257Y0224965D02*
X0113926Y0224965D01*
X0113926Y0224366D02*
X0068257Y0224366D01*
X0068257Y0223768D02*
X0113926Y0223768D01*
X0113926Y0223169D02*
X0068257Y0223169D01*
X0068257Y0222571D02*
X0113926Y0222571D01*
X0113926Y0221972D02*
X0068257Y0221972D01*
X0068257Y0221374D02*
X0113926Y0221374D01*
X0113926Y0220775D02*
X0068257Y0220775D01*
X0068257Y0220177D02*
X0113926Y0220177D01*
X0113926Y0219578D02*
X0068257Y0219578D01*
X0068257Y0218980D02*
X0113926Y0218980D01*
X0113926Y0218381D02*
X0068257Y0218381D01*
X0068257Y0217783D02*
X0113926Y0217783D01*
X0113926Y0217184D02*
X0068257Y0217184D01*
X0068257Y0216586D02*
X0113926Y0216586D01*
X0113926Y0215987D02*
X0068257Y0215987D01*
X0068257Y0215388D02*
X0113926Y0215388D01*
X0113926Y0214790D02*
X0068257Y0214790D01*
X0068257Y0214191D02*
X0113926Y0214191D01*
X0113926Y0213593D02*
X0068257Y0213593D01*
X0068257Y0212994D02*
X0113926Y0212994D01*
X0113926Y0212396D02*
X0068257Y0212396D01*
X0068257Y0211797D02*
X0113926Y0211797D01*
X0113926Y0211199D02*
X0068257Y0211199D01*
X0068257Y0210600D02*
X0113926Y0210600D01*
X0113926Y0210002D02*
X0068257Y0210002D01*
X0068257Y0209403D02*
X0113926Y0209403D01*
X0113926Y0208805D02*
X0068257Y0208805D01*
X0068257Y0208206D02*
X0113926Y0208206D01*
X0113926Y0207608D02*
X0068257Y0207608D01*
X0068257Y0207009D02*
X0113926Y0207009D01*
X0113926Y0206411D02*
X0068257Y0206411D01*
X0068257Y0205812D02*
X0113926Y0205812D01*
X0113926Y0205214D02*
X0068257Y0205214D01*
X0068257Y0204615D02*
X0113926Y0204615D01*
X0113926Y0204017D02*
X0068257Y0204017D01*
X0068257Y0203418D02*
X0113926Y0203418D01*
X0113926Y0202820D02*
X0068257Y0202820D01*
X0068257Y0202221D02*
X0113926Y0202221D01*
X0113926Y0201623D02*
X0068257Y0201623D01*
X0068257Y0201024D02*
X0113926Y0201024D01*
X0113926Y0200426D02*
X0068257Y0200426D01*
X0068257Y0199827D02*
X0113926Y0199827D01*
X0113926Y0199229D02*
X0068257Y0199229D01*
X0068257Y0198630D02*
X0113926Y0198630D01*
X0113926Y0198032D02*
X0068257Y0198032D01*
X0068257Y0197433D02*
X0113926Y0197433D01*
X0113926Y0196835D02*
X0068257Y0196835D01*
X0068257Y0196236D02*
X0113926Y0196236D01*
X0113926Y0195638D02*
X0068257Y0195638D01*
X0068257Y0195039D02*
X0113926Y0195039D01*
X0113926Y0194441D02*
X0068257Y0194441D01*
X0068257Y0193842D02*
X0113926Y0193842D01*
X0113926Y0193244D02*
X0068257Y0193244D01*
X0068257Y0192645D02*
X0113926Y0192645D01*
X0113926Y0192047D02*
X0068257Y0192047D01*
X0068257Y0191448D02*
X0113926Y0191448D01*
X0113926Y0190850D02*
X0068257Y0190850D01*
X0068257Y0190251D02*
X0113926Y0190251D01*
X0113926Y0189653D02*
X0068257Y0189653D01*
X0068257Y0189054D02*
X0113926Y0189054D01*
X0113926Y0188455D02*
X0068257Y0188455D01*
X0068257Y0187857D02*
X0113926Y0187857D01*
X0113926Y0187258D02*
X0068257Y0187258D01*
X0068257Y0186660D02*
X0113926Y0186660D01*
X0113926Y0186061D02*
X0068257Y0186061D01*
X0068257Y0185463D02*
X0113926Y0185463D01*
X0113926Y0184864D02*
X0068257Y0184864D01*
X0068257Y0184266D02*
X0113926Y0184266D01*
X0113926Y0183667D02*
X0068257Y0183667D01*
X0068257Y0183069D02*
X0113926Y0183069D01*
X0113926Y0182470D02*
X0068257Y0182470D01*
X0068257Y0181872D02*
X0113926Y0181872D01*
X0113926Y0181273D02*
X0068257Y0181273D01*
X0068257Y0180675D02*
X0113926Y0180675D01*
X0113926Y0180076D02*
X0068257Y0180076D01*
X0068257Y0179478D02*
X0113926Y0179478D01*
X0113926Y0178879D02*
X0068257Y0178879D01*
X0068257Y0178281D02*
X0113926Y0178281D01*
X0113926Y0177682D02*
X0068257Y0177682D01*
X0068257Y0177084D02*
X0113926Y0177084D01*
X0113926Y0176485D02*
X0068257Y0176485D01*
X0068257Y0175887D02*
X0113926Y0175887D01*
X0113926Y0175288D02*
X0068257Y0175288D01*
X0068257Y0174690D02*
X0113926Y0174690D01*
X0113926Y0174091D02*
X0068257Y0174091D01*
X0068257Y0173493D02*
X0113926Y0173493D01*
X0113926Y0172894D02*
X0068257Y0172894D01*
X0068257Y0172296D02*
X0113926Y0172296D01*
X0113926Y0171697D02*
X0068257Y0171697D01*
X0068257Y0171099D02*
X0113926Y0171099D01*
X0113926Y0170500D02*
X0068257Y0170500D01*
X0068257Y0169902D02*
X0113926Y0169902D01*
X0113926Y0169303D02*
X0068257Y0169303D01*
X0068257Y0168705D02*
X0113926Y0168705D01*
X0113926Y0168106D02*
X0068257Y0168106D01*
X0068257Y0167508D02*
X0113926Y0167508D01*
X0113926Y0166909D02*
X0068257Y0166909D01*
X0068257Y0166311D02*
X0113926Y0166311D01*
X0113926Y0165712D02*
X0068257Y0165712D01*
X0068257Y0165114D02*
X0113926Y0165114D01*
X0113926Y0164515D02*
X0068257Y0164515D01*
X0068257Y0163917D02*
X0113926Y0163917D01*
X0113926Y0163318D02*
X0068257Y0163318D01*
X0068257Y0162720D02*
X0113926Y0162720D01*
X0113926Y0162121D02*
X0068257Y0162121D01*
X0068257Y0161522D02*
X0113926Y0161522D01*
X0113926Y0160924D02*
X0068257Y0160924D01*
X0068257Y0160325D02*
X0113926Y0160325D01*
X0113926Y0159727D02*
X0068257Y0159727D01*
X0068257Y0159128D02*
X0113926Y0159128D01*
X0113926Y0158530D02*
X0068257Y0158530D01*
X0068257Y0157931D02*
X0113926Y0157931D01*
X0113926Y0157333D02*
X0068257Y0157333D01*
X0068257Y0156734D02*
X0113926Y0156734D01*
X0113926Y0156136D02*
X0068257Y0156136D01*
X0068257Y0155537D02*
X0113926Y0155537D01*
X0113926Y0154939D02*
X0068257Y0154939D01*
X0068257Y0154340D02*
X0113926Y0154340D01*
X0113926Y0153742D02*
X0068257Y0153742D01*
X0068257Y0153143D02*
X0113926Y0153143D01*
X0113926Y0152545D02*
X0068257Y0152545D01*
X0068257Y0151946D02*
X0113926Y0151946D01*
X0113926Y0151348D02*
X0068257Y0151348D01*
X0068257Y0150749D02*
X0113926Y0150749D01*
X0113926Y0150540D02*
X0113926Y0144241D01*
X0108414Y0144241D01*
X0108414Y0150540D01*
X0113926Y0150540D01*
X0113926Y0150151D02*
X0108414Y0150151D01*
X0109202Y0149552D02*
X0068257Y0149552D01*
X0068257Y0148954D02*
X0109202Y0148954D01*
X0109202Y0148355D02*
X0068257Y0148355D01*
X0068257Y0147757D02*
X0109202Y0147757D01*
X0109202Y0147158D02*
X0068257Y0147158D01*
X0068257Y0146560D02*
X0109202Y0146560D01*
X0109202Y0145961D02*
X0068257Y0145961D01*
X0068257Y0145363D02*
X0109202Y0145363D01*
X0108414Y0144764D02*
X0113926Y0144764D01*
X0113926Y0150151D02*
X0068257Y0150151D01*
X0091485Y0226524D02*
X0157233Y0226524D01*
X0157233Y0250146D01*
X0091485Y0250146D01*
X0091485Y0240304D01*
X0091485Y0240698D01*
X0091485Y0226524D01*
X0091485Y0226760D02*
X0157233Y0226760D01*
X0157233Y0227359D02*
X0091485Y0227359D01*
X0091485Y0227957D02*
X0157233Y0227957D01*
X0157233Y0228556D02*
X0091485Y0228556D01*
X0091485Y0229154D02*
X0157233Y0229154D01*
X0157233Y0229753D02*
X0091485Y0229753D01*
X0091485Y0230351D02*
X0157233Y0230351D01*
X0157233Y0230950D02*
X0091485Y0230950D01*
X0091485Y0231548D02*
X0157233Y0231548D01*
X0157233Y0232147D02*
X0091485Y0232147D01*
X0091485Y0232745D02*
X0157233Y0232745D01*
X0157233Y0233344D02*
X0091485Y0233344D01*
X0091485Y0233942D02*
X0157233Y0233942D01*
X0157233Y0234541D02*
X0091485Y0234541D01*
X0091485Y0235139D02*
X0157233Y0235139D01*
X0157233Y0235738D02*
X0091485Y0235738D01*
X0091485Y0236336D02*
X0157233Y0236336D01*
X0157233Y0236935D02*
X0091485Y0236935D01*
X0091485Y0237533D02*
X0157233Y0237533D01*
X0157233Y0238132D02*
X0091485Y0238132D01*
X0091485Y0238730D02*
X0157233Y0238730D01*
X0157233Y0239329D02*
X0091485Y0239329D01*
X0091485Y0239927D02*
X0157233Y0239927D01*
X0157233Y0240526D02*
X0091485Y0240526D01*
X0091485Y0241124D02*
X0157233Y0241124D01*
X0157233Y0241723D02*
X0091485Y0241723D01*
X0091485Y0242322D02*
X0157233Y0242322D01*
X0157233Y0242920D02*
X0091485Y0242920D01*
X0091485Y0243519D02*
X0157233Y0243519D01*
X0157233Y0244117D02*
X0091485Y0244117D01*
X0091485Y0244716D02*
X0157233Y0244716D01*
X0157233Y0245314D02*
X0091485Y0245314D01*
X0091485Y0245913D02*
X0157233Y0245913D01*
X0157233Y0246511D02*
X0091485Y0246511D01*
X0091485Y0247110D02*
X0157233Y0247110D01*
X0157233Y0247708D02*
X0091485Y0247708D01*
X0091485Y0248307D02*
X0157233Y0248307D01*
X0157233Y0248905D02*
X0091485Y0248905D01*
X0091485Y0249504D02*
X0157233Y0249504D01*
X0157233Y0250102D02*
X0091485Y0250102D01*
X0068257Y0432050D02*
X0484792Y0432050D01*
X0484792Y0432648D02*
X0068257Y0432648D01*
X0068257Y0433247D02*
X0484792Y0433247D01*
X0484792Y0433845D02*
X0068257Y0433845D01*
X0068257Y0434444D02*
X0484792Y0434444D01*
X0484792Y0435042D02*
X0068257Y0435042D01*
X0068257Y0435641D02*
X0484792Y0435641D01*
X0484792Y0436239D02*
X0068257Y0436239D01*
X0068257Y0436838D02*
X0484792Y0436838D01*
X0484792Y0437436D02*
X0068257Y0437436D01*
X0068257Y0438035D02*
X0484792Y0438035D01*
X0484792Y0438633D02*
X0068257Y0438633D01*
X0068257Y0439232D02*
X0484792Y0439232D01*
X0484792Y0439830D02*
X0068257Y0439830D01*
X0068257Y0440429D02*
X0484792Y0440429D01*
X0484792Y0441027D02*
X0068257Y0441027D01*
X0068257Y0441626D02*
X0484792Y0441626D01*
X0484792Y0442224D02*
X0068257Y0442224D01*
X0068257Y0442823D02*
X0484792Y0442823D01*
X0484792Y0443421D02*
X0068257Y0443421D01*
X0068257Y0444020D02*
X0484792Y0444020D01*
X0484792Y0444618D02*
X0068257Y0444618D01*
X0068257Y0445217D02*
X0484792Y0445217D01*
X0484792Y0445815D02*
X0068257Y0445815D01*
X0068257Y0446414D02*
X0484792Y0446414D01*
X0484792Y0447012D02*
X0068257Y0447012D01*
X0068257Y0447611D02*
X0484792Y0447611D01*
X0484792Y0448209D02*
X0068257Y0448209D01*
X0068257Y0448808D02*
X0484792Y0448808D01*
X0484792Y0449406D02*
X0068257Y0449406D01*
X0068257Y0450005D02*
X0484792Y0450005D01*
X0484792Y0450603D02*
X0068257Y0450603D01*
X0068257Y0451202D02*
X0484792Y0451202D01*
X0484792Y0451800D02*
X0068257Y0451800D01*
X0068257Y0452399D02*
X0484792Y0452399D01*
X0484792Y0452997D02*
X0068257Y0452997D01*
X0068257Y0453596D02*
X0484792Y0453596D01*
X0484792Y0454195D02*
X0068257Y0454195D01*
X0068257Y0454793D02*
X0484792Y0454793D01*
X0484792Y0455392D02*
X0068257Y0455392D01*
X0068257Y0455990D02*
X0484792Y0455990D01*
X0484792Y0456589D02*
X0068257Y0456589D01*
X0068257Y0457187D02*
X0484792Y0457187D01*
X0484792Y0457786D02*
X0068257Y0457786D01*
X0068257Y0458384D02*
X0484792Y0458384D01*
X0484792Y0458983D02*
X0068257Y0458983D01*
X0068257Y0459581D02*
X0484792Y0459581D01*
X0484792Y0460180D02*
X0068257Y0460180D01*
X0068257Y0460778D02*
X0484792Y0460778D01*
X0484792Y0461377D02*
X0068257Y0461377D01*
X0068257Y0461975D02*
X0484792Y0461975D01*
X0484792Y0462574D02*
X0068257Y0462574D01*
X0068257Y0463172D02*
X0484792Y0463172D01*
X0484792Y0463771D02*
X0068257Y0463771D01*
X0068257Y0464369D02*
X0484792Y0464369D01*
X0484792Y0464968D02*
X0068257Y0464968D01*
X0068257Y0465566D02*
X0484792Y0465566D01*
X0484792Y0466165D02*
X0068257Y0466165D01*
X0068257Y0466763D02*
X0484792Y0466763D01*
X0484792Y0467362D02*
X0068257Y0467362D01*
D11*
X0315121Y0201229D03*
X0322208Y0201229D03*
D12*
X0313344Y0211980D03*
X0304313Y0202952D03*
X0295281Y0211980D03*
X0304313Y0221007D03*
D13*
X0293060Y0239123D03*
X0277598Y0202525D03*
X0258756Y0202378D03*
X0240028Y0199432D03*
X0235142Y0214964D03*
X0302902Y0374162D03*
X0302902Y0395816D03*
D14*
X0316013Y0424398D03*
X0351894Y0408769D03*
X0311721Y0340422D03*
X0281013Y0326249D03*
X0249517Y0319950D03*
X0218808Y0318769D03*
X0188879Y0331367D03*
X0192910Y0352391D03*
X0188847Y0362194D03*
X0192942Y0384162D03*
X0188847Y0394123D03*
X0193335Y0414871D03*
X0118894Y0445698D03*
X0187304Y0301524D03*
X0187698Y0270501D03*
X0189343Y0239005D03*
X0121257Y0187981D03*
X0086934Y0227194D03*
X0225099Y0131052D03*
X0228737Y0156091D03*
X0319981Y0166957D03*
X0323942Y0187194D03*
X0353146Y0219005D03*
X0352753Y0249713D03*
X0353146Y0281131D03*
X0343099Y0301871D03*
X0353540Y0313887D03*
X0321209Y0304328D03*
X0427430Y0419280D03*
X0455879Y0355934D03*
X0456595Y0325619D03*
X0421233Y0130265D03*
D15*
X0269044Y0365107D03*
D16*
X0269044Y0355068D03*
D17*
X0283572Y0350540D03*
D18*
X0297036Y0350540D03*
D19*
X0451524Y0441091D03*
X0451524Y0173375D03*
X0091288Y0173375D03*
X0091288Y0441091D03*
D20*
X0249753Y0283611D03*
X0271406Y0309202D03*
X0365518Y0210776D03*
D21*
X0230068Y0330855D03*
X0230068Y0354477D03*
X0230068Y0364320D03*
X0261564Y0342666D03*
M02*
