G75*
%MOIN*%
%OFA0B0*%
%FSLAX25Y25*%
%IPPOS*%
%LPD*%
%AMOC8*
5,1,8,0,0,1.08239X$1,22.5*
%
%ADD10C,0.01600*%
%ADD11C,0.00500*%
%ADD12C,0.00600*%
%ADD13C,0.00400*%
%ADD14C,0.00000*%
%ADD15C,0.00300*%
%ADD16C,0.00197*%
%ADD17C,0.00100*%
D10*
X0088414Y0066761D02*
X0412824Y0066761D01*
X0412824Y0100225D01*
X0454556Y0100225D01*
X0454556Y0424635D01*
X0412824Y0424635D01*
X0412824Y0458099D01*
X0088414Y0458099D01*
X0088414Y0424635D01*
X0062824Y0424635D01*
X0062824Y0100225D01*
X0088414Y0100225D01*
X0088414Y0066761D01*
D11*
X0104674Y0096367D02*
X0104674Y0201367D01*
X0079674Y0201367D01*
X0079674Y0211367D01*
X0069674Y0211367D01*
X0069674Y0201367D01*
X0079674Y0201367D01*
X0069674Y0201367D02*
X0065304Y0201367D01*
X0067174Y0166367D01*
X0067574Y0161267D01*
X0073574Y0129267D01*
X0076874Y0122767D01*
X0104174Y0096867D01*
X0107194Y0111288D02*
X0107194Y0216288D01*
X0107694Y0215788D02*
X0134994Y0189888D01*
X0138294Y0183388D01*
X0144294Y0151388D01*
X0144694Y0146288D01*
X0146564Y0111288D01*
X0142194Y0111288D01*
X0142194Y0101288D01*
X0132194Y0101288D01*
X0132194Y0111288D01*
X0107194Y0111288D01*
X0132194Y0111288D02*
X0142194Y0111288D01*
X0150658Y0112548D02*
X0254063Y0094315D01*
X0253484Y0093909D02*
X0223237Y0071522D01*
X0216262Y0069400D01*
X0183707Y0069048D01*
X0178615Y0069540D01*
X0143822Y0073776D01*
X0144581Y0078080D01*
X0134732Y0079816D01*
X0136469Y0089664D01*
X0146317Y0087928D01*
X0150658Y0112548D01*
X0146317Y0087928D02*
X0144581Y0078080D01*
X0179765Y0112615D02*
X0152465Y0138515D01*
X0149165Y0145015D01*
X0143165Y0177015D01*
X0142765Y0182115D01*
X0140894Y0217115D01*
X0145265Y0217115D01*
X0145265Y0227115D01*
X0155265Y0227115D01*
X0155265Y0217115D01*
X0180265Y0217115D01*
X0180265Y0112115D01*
X0186997Y0109950D02*
X0291997Y0109950D01*
X0291997Y0134950D01*
X0301997Y0134950D01*
X0301997Y0144950D01*
X0291997Y0144950D01*
X0291997Y0134950D01*
X0291997Y0144950D02*
X0291997Y0149320D01*
X0256997Y0147450D01*
X0251897Y0147050D01*
X0219897Y0141050D01*
X0213397Y0137750D01*
X0187497Y0110450D01*
X0199792Y0146406D02*
X0234792Y0148276D01*
X0239892Y0148676D01*
X0271892Y0154676D01*
X0278392Y0157976D01*
X0304292Y0185276D01*
X0304792Y0185776D02*
X0199792Y0185776D01*
X0199792Y0160776D01*
X0189792Y0160776D01*
X0189792Y0150776D01*
X0199792Y0150776D01*
X0199792Y0160776D01*
X0199792Y0150776D02*
X0199792Y0146406D01*
X0192495Y0174148D02*
X0187085Y0174148D01*
X0187085Y0176853D01*
X0187986Y0177755D01*
X0189790Y0177755D01*
X0190692Y0176853D01*
X0190692Y0174148D01*
X0192495Y0179586D02*
X0187085Y0179586D01*
X0187085Y0182291D01*
X0187986Y0183193D01*
X0191593Y0183193D01*
X0192495Y0182291D01*
X0192495Y0179586D01*
X0189790Y0185024D02*
X0189790Y0188630D01*
X0191593Y0190461D02*
X0187986Y0190461D01*
X0187085Y0191363D01*
X0187085Y0193166D01*
X0187986Y0194068D01*
X0191593Y0194068D01*
X0192495Y0193166D01*
X0192495Y0191363D01*
X0191593Y0190461D01*
X0191593Y0195899D02*
X0187085Y0195899D01*
X0187085Y0199506D02*
X0191593Y0199506D01*
X0192495Y0198604D01*
X0192495Y0196801D01*
X0191593Y0195899D01*
X0187085Y0201337D02*
X0187085Y0204943D01*
X0187085Y0203140D02*
X0192495Y0203140D01*
X0197076Y0206052D02*
X0197076Y0213926D01*
X0197863Y0213926D01*
X0197863Y0206052D01*
X0197076Y0206052D01*
X0197863Y0206052D02*
X0202194Y0206052D01*
X0202194Y0213926D01*
X0197863Y0213926D01*
X0178020Y0219320D02*
X0178020Y0229320D01*
X0168020Y0229320D01*
X0168020Y0219320D01*
X0178020Y0219320D01*
X0178020Y0229320D02*
X0182391Y0229320D01*
X0180520Y0264320D01*
X0180120Y0269420D01*
X0174120Y0301420D01*
X0170820Y0307920D01*
X0143520Y0333820D01*
X0143020Y0334320D02*
X0143020Y0229320D01*
X0168020Y0229320D01*
X0155265Y0217115D02*
X0145265Y0217115D01*
X0139713Y0214477D02*
X0139713Y0319477D01*
X0114713Y0319477D01*
X0114713Y0329477D01*
X0104713Y0329477D01*
X0104713Y0319477D01*
X0114713Y0319477D01*
X0104713Y0319477D02*
X0100343Y0319477D01*
X0102213Y0284477D01*
X0102613Y0279377D01*
X0108613Y0247377D01*
X0111913Y0240877D01*
X0139213Y0214977D01*
X0104831Y0217587D02*
X0102961Y0252587D01*
X0102561Y0257687D01*
X0096561Y0289687D01*
X0093261Y0296187D01*
X0065961Y0322087D01*
X0065461Y0322587D02*
X0065461Y0217587D01*
X0090461Y0217587D01*
X0090461Y0207587D01*
X0100461Y0207587D01*
X0100461Y0217587D01*
X0090461Y0217587D01*
X0100461Y0217587D02*
X0104831Y0217587D01*
X0188291Y0258594D02*
X0184991Y0265094D01*
X0178991Y0297094D01*
X0178591Y0302194D01*
X0176721Y0337194D01*
X0181091Y0337194D01*
X0181091Y0347194D01*
X0191091Y0347194D01*
X0191091Y0337194D01*
X0216091Y0337194D01*
X0216091Y0232194D01*
X0215591Y0232694D02*
X0188291Y0258594D01*
X0187986Y0250784D02*
X0187085Y0249882D01*
X0187085Y0247177D01*
X0192495Y0247177D01*
X0192495Y0249882D01*
X0191593Y0250784D01*
X0187986Y0250784D01*
X0187085Y0245346D02*
X0192495Y0245346D01*
X0187085Y0241740D01*
X0192495Y0241740D01*
X0191593Y0239909D02*
X0189790Y0239909D01*
X0189790Y0238105D01*
X0191593Y0236302D02*
X0187986Y0236302D01*
X0187085Y0237204D01*
X0187085Y0239007D01*
X0187986Y0239909D01*
X0191593Y0239909D02*
X0192495Y0239007D01*
X0192495Y0237204D01*
X0191593Y0236302D01*
X0219989Y0252952D02*
X0220891Y0252050D01*
X0222694Y0252050D01*
X0223596Y0252952D01*
X0223596Y0253853D01*
X0222694Y0254755D01*
X0220891Y0254755D01*
X0219989Y0255657D01*
X0219989Y0256558D01*
X0220891Y0257460D01*
X0222694Y0257460D01*
X0223596Y0256558D01*
X0225427Y0257460D02*
X0225427Y0252050D01*
X0228132Y0252050D01*
X0229033Y0252952D01*
X0229033Y0256558D01*
X0228132Y0257460D01*
X0225427Y0257460D01*
X0230864Y0255657D02*
X0230864Y0252050D01*
X0230864Y0254755D02*
X0234471Y0254755D01*
X0234471Y0255657D02*
X0234471Y0252050D01*
X0234471Y0255657D02*
X0232668Y0257460D01*
X0230864Y0255657D01*
X0240234Y0254190D02*
X0240234Y0252387D01*
X0241136Y0251485D01*
X0242038Y0251485D01*
X0242939Y0252387D01*
X0242939Y0254190D01*
X0243841Y0255092D01*
X0244743Y0255092D01*
X0245644Y0254190D01*
X0245644Y0252387D01*
X0244743Y0251485D01*
X0241136Y0255092D02*
X0240234Y0254190D01*
X0241136Y0256923D02*
X0240234Y0257824D01*
X0240234Y0259628D01*
X0241136Y0260529D01*
X0240234Y0262360D02*
X0245644Y0262360D01*
X0245644Y0265967D01*
X0244743Y0260529D02*
X0245644Y0259628D01*
X0245644Y0257824D01*
X0244743Y0256923D01*
X0241136Y0256923D01*
X0251702Y0258139D02*
X0252102Y0253039D01*
X0258102Y0221039D01*
X0261402Y0214539D01*
X0288702Y0188639D01*
X0289202Y0188139D02*
X0289202Y0293139D01*
X0264202Y0293139D01*
X0264202Y0303139D01*
X0254202Y0303139D01*
X0254202Y0293139D01*
X0264202Y0293139D01*
X0254202Y0293139D02*
X0249831Y0293139D01*
X0251702Y0258139D01*
X0227928Y0274605D02*
X0227928Y0276409D01*
X0227026Y0277310D01*
X0226125Y0277310D01*
X0225223Y0276409D01*
X0225223Y0275507D01*
X0225223Y0276409D02*
X0224321Y0277310D01*
X0223420Y0277310D01*
X0222518Y0276409D01*
X0222518Y0274605D01*
X0223420Y0273704D01*
X0227026Y0273704D02*
X0227928Y0274605D01*
X0226125Y0279141D02*
X0222518Y0279141D01*
X0226125Y0279141D02*
X0227928Y0280945D01*
X0226125Y0282748D01*
X0222518Y0282748D01*
X0223420Y0284579D02*
X0222518Y0285481D01*
X0222518Y0287284D01*
X0223420Y0288186D01*
X0224321Y0288186D01*
X0225223Y0287284D01*
X0226125Y0288186D01*
X0227026Y0288186D01*
X0227928Y0287284D01*
X0227928Y0285481D01*
X0227026Y0284579D01*
X0225223Y0286382D02*
X0225223Y0287284D01*
X0251812Y0299859D02*
X0224512Y0325759D01*
X0221212Y0332259D01*
X0215212Y0364259D01*
X0214812Y0369359D01*
X0212942Y0404359D01*
X0217312Y0404359D01*
X0217312Y0414359D01*
X0227312Y0414359D01*
X0227312Y0404359D01*
X0252312Y0404359D01*
X0252312Y0299359D01*
X0254831Y0306013D02*
X0254831Y0411013D01*
X0255331Y0410513D02*
X0282631Y0384613D01*
X0285931Y0378113D01*
X0291931Y0346113D01*
X0292331Y0341013D01*
X0294202Y0306013D01*
X0289831Y0306013D01*
X0289831Y0296013D01*
X0279831Y0296013D01*
X0279831Y0306013D01*
X0254831Y0306013D01*
X0279831Y0306013D02*
X0289831Y0306013D01*
X0293965Y0291091D02*
X0293965Y0281091D01*
X0303965Y0281091D01*
X0303965Y0291091D01*
X0293965Y0291091D01*
X0303965Y0291091D02*
X0303965Y0316091D01*
X0408965Y0316091D01*
X0408465Y0315591D02*
X0382565Y0288291D01*
X0376065Y0284991D01*
X0344065Y0278991D01*
X0338965Y0278591D01*
X0303965Y0276721D01*
X0303965Y0281091D01*
X0301997Y0269635D02*
X0406997Y0269635D01*
X0406497Y0269135D02*
X0380597Y0241835D01*
X0374097Y0238535D01*
X0342097Y0232535D01*
X0336997Y0232135D01*
X0301997Y0230265D01*
X0301997Y0234635D01*
X0291997Y0234635D01*
X0291997Y0244635D01*
X0301997Y0244635D01*
X0301997Y0269635D01*
X0301997Y0244635D02*
X0301997Y0234635D01*
X0302981Y0228178D02*
X0407981Y0228178D01*
X0407481Y0227678D02*
X0381581Y0200378D01*
X0375081Y0197078D01*
X0343081Y0191078D01*
X0337981Y0190678D01*
X0302981Y0188808D01*
X0302981Y0193178D01*
X0292981Y0193178D01*
X0292981Y0203178D01*
X0302981Y0203178D01*
X0302981Y0228178D01*
X0302981Y0203178D02*
X0302981Y0193178D01*
X0317728Y0180663D02*
X0291828Y0153363D01*
X0291328Y0152863D02*
X0396328Y0152863D01*
X0396328Y0177863D01*
X0406328Y0177863D01*
X0406328Y0187863D01*
X0396328Y0187863D01*
X0396328Y0177863D01*
X0396328Y0187863D02*
X0396328Y0192233D01*
X0361328Y0190363D01*
X0356228Y0189963D01*
X0324228Y0183963D01*
X0317728Y0180663D01*
X0330133Y0141443D02*
X0323633Y0138143D01*
X0297733Y0110843D01*
X0297233Y0110343D02*
X0402233Y0110343D01*
X0402233Y0135343D01*
X0412233Y0135343D01*
X0412233Y0145343D01*
X0402233Y0145343D01*
X0402233Y0135343D01*
X0402233Y0145343D02*
X0402233Y0149713D01*
X0367233Y0147843D01*
X0362133Y0147443D01*
X0330133Y0141443D01*
X0361879Y0107430D02*
X0256879Y0107430D01*
X0256879Y0082430D01*
X0246879Y0082430D01*
X0246879Y0072430D01*
X0256879Y0072430D01*
X0256879Y0082430D01*
X0256879Y0072430D02*
X0256879Y0068060D01*
X0291879Y0069930D01*
X0296979Y0070330D01*
X0328979Y0076330D01*
X0335479Y0079630D01*
X0361379Y0106930D01*
X0418850Y0137220D02*
X0422150Y0130720D01*
X0449450Y0104820D01*
X0449950Y0104320D02*
X0449950Y0209320D01*
X0424950Y0209320D01*
X0424950Y0219320D01*
X0414950Y0219320D01*
X0414950Y0209320D01*
X0424950Y0209320D01*
X0414950Y0209320D02*
X0410580Y0209320D01*
X0412450Y0174320D01*
X0412850Y0169220D01*
X0418850Y0137220D01*
X0435737Y0213335D02*
X0445737Y0213335D01*
X0445737Y0223335D01*
X0435737Y0223335D01*
X0435737Y0213335D01*
X0435737Y0223335D02*
X0410737Y0223335D01*
X0410737Y0328335D01*
X0411237Y0327835D02*
X0438537Y0301935D01*
X0441837Y0295435D01*
X0447837Y0263435D01*
X0448237Y0258335D01*
X0450107Y0223335D01*
X0445737Y0223335D01*
X0417122Y0230396D02*
X0416220Y0231298D01*
X0416220Y0234905D01*
X0415319Y0234003D02*
X0417122Y0234003D01*
X0413488Y0233102D02*
X0413488Y0230396D01*
X0413488Y0233102D02*
X0412586Y0234003D01*
X0409881Y0234003D01*
X0409881Y0230396D01*
X0408050Y0230396D02*
X0405345Y0230396D01*
X0404443Y0231298D01*
X0405345Y0232200D01*
X0408050Y0232200D01*
X0408050Y0233102D02*
X0408050Y0230396D01*
X0408050Y0233102D02*
X0407148Y0234003D01*
X0405345Y0234003D01*
X0402612Y0234003D02*
X0399005Y0230396D01*
X0402612Y0230396D01*
X0402612Y0234003D02*
X0399005Y0234003D01*
X0397184Y0235807D02*
X0395380Y0235807D01*
X0396282Y0235807D02*
X0396282Y0230396D01*
X0395380Y0230396D02*
X0397184Y0230396D01*
X0388112Y0230396D02*
X0388112Y0233102D01*
X0387210Y0234003D01*
X0384505Y0234003D01*
X0384505Y0230396D01*
X0382674Y0230396D02*
X0379969Y0230396D01*
X0379067Y0231298D01*
X0379969Y0232200D01*
X0382674Y0232200D01*
X0382674Y0233102D02*
X0382674Y0230396D01*
X0382674Y0233102D02*
X0381772Y0234003D01*
X0379969Y0234003D01*
X0377236Y0234003D02*
X0377236Y0229495D01*
X0376334Y0228593D01*
X0375433Y0228593D01*
X0374531Y0230396D02*
X0377236Y0230396D01*
X0374531Y0230396D02*
X0373629Y0231298D01*
X0373629Y0234003D01*
X0371798Y0233102D02*
X0370897Y0232200D01*
X0368192Y0232200D01*
X0369995Y0232200D02*
X0371798Y0230396D01*
X0371798Y0233102D02*
X0371798Y0234905D01*
X0370897Y0235807D01*
X0368192Y0235807D01*
X0368192Y0230396D01*
X0357414Y0271900D02*
X0357414Y0277310D01*
X0360119Y0277310D01*
X0361020Y0276409D01*
X0361020Y0274605D01*
X0360119Y0273704D01*
X0357414Y0273704D01*
X0355583Y0275507D02*
X0351976Y0275507D01*
X0351976Y0276409D02*
X0352878Y0277310D01*
X0354681Y0277310D01*
X0355583Y0276409D01*
X0355583Y0275507D01*
X0354681Y0273704D02*
X0352878Y0273704D01*
X0351976Y0274605D01*
X0351976Y0276409D01*
X0350145Y0275507D02*
X0350145Y0274605D01*
X0349243Y0273704D01*
X0347440Y0273704D01*
X0346538Y0274605D01*
X0347440Y0276409D02*
X0349243Y0276409D01*
X0350145Y0275507D01*
X0350145Y0278212D02*
X0349243Y0279114D01*
X0347440Y0279114D01*
X0346538Y0278212D01*
X0346538Y0277310D01*
X0347440Y0276409D01*
X0362851Y0277310D02*
X0364655Y0277310D01*
X0363753Y0278212D02*
X0363753Y0274605D01*
X0364655Y0273704D01*
X0366476Y0274605D02*
X0366476Y0276409D01*
X0367378Y0277310D01*
X0369182Y0277310D01*
X0370083Y0276409D01*
X0370083Y0275507D01*
X0366476Y0275507D01*
X0366476Y0274605D02*
X0367378Y0273704D01*
X0369182Y0273704D01*
X0371914Y0273704D02*
X0371914Y0277310D01*
X0372816Y0277310D01*
X0373718Y0276409D01*
X0374619Y0277310D01*
X0375521Y0276409D01*
X0375521Y0273704D01*
X0373718Y0273704D02*
X0373718Y0276409D01*
X0377352Y0277310D02*
X0380057Y0277310D01*
X0380959Y0276409D01*
X0380959Y0274605D01*
X0380057Y0273704D01*
X0377352Y0273704D01*
X0377352Y0279114D01*
X0382790Y0276409D02*
X0382790Y0274605D01*
X0383691Y0273704D01*
X0385495Y0273704D01*
X0386396Y0275507D02*
X0382790Y0275507D01*
X0382790Y0276409D02*
X0383691Y0277310D01*
X0385495Y0277310D01*
X0386396Y0276409D01*
X0386396Y0275507D01*
X0388227Y0275507D02*
X0390031Y0277310D01*
X0390932Y0277310D01*
X0388227Y0277310D02*
X0388227Y0273704D01*
X0398196Y0273704D02*
X0401803Y0277310D01*
X0401803Y0278212D01*
X0400901Y0279114D01*
X0399098Y0279114D01*
X0398196Y0278212D01*
X0398196Y0273704D02*
X0401803Y0273704D01*
X0403634Y0274605D02*
X0407241Y0278212D01*
X0407241Y0274605D01*
X0406339Y0273704D01*
X0404536Y0273704D01*
X0403634Y0274605D01*
X0403634Y0278212D01*
X0404536Y0279114D01*
X0406339Y0279114D01*
X0407241Y0278212D01*
X0409072Y0277310D02*
X0410875Y0279114D01*
X0410875Y0273704D01*
X0409072Y0273704D02*
X0412679Y0273704D01*
X0414510Y0274605D02*
X0415411Y0273704D01*
X0417215Y0273704D01*
X0418116Y0274605D01*
X0418116Y0275507D01*
X0417215Y0276409D01*
X0414510Y0276409D01*
X0414510Y0274605D01*
X0414510Y0276409D02*
X0416313Y0278212D01*
X0418116Y0279114D01*
X0451418Y0307654D02*
X0424118Y0333554D01*
X0420818Y0340054D01*
X0414818Y0372054D01*
X0414418Y0377154D01*
X0412548Y0412154D01*
X0416918Y0412154D01*
X0416918Y0422154D01*
X0426918Y0422154D01*
X0426918Y0412154D01*
X0451918Y0412154D01*
X0451918Y0307154D01*
X0432124Y0318979D02*
X0432124Y0324389D01*
X0429419Y0321684D01*
X0433026Y0321684D01*
X0427588Y0320783D02*
X0427588Y0324389D01*
X0423982Y0324389D02*
X0423982Y0320783D01*
X0425785Y0318979D01*
X0427588Y0320783D01*
X0416722Y0318979D02*
X0414919Y0318979D01*
X0415820Y0318979D02*
X0415820Y0324389D01*
X0414919Y0324389D01*
X0413088Y0321684D02*
X0413088Y0320783D01*
X0409481Y0320783D01*
X0409481Y0321684D02*
X0409481Y0319881D01*
X0410383Y0318979D01*
X0412186Y0318979D01*
X0413088Y0321684D02*
X0412186Y0322586D01*
X0410383Y0322586D01*
X0409481Y0321684D01*
X0407650Y0321684D02*
X0407650Y0318979D01*
X0407650Y0321684D02*
X0406748Y0322586D01*
X0404043Y0322586D01*
X0404043Y0318979D01*
X0402212Y0318979D02*
X0402212Y0321684D01*
X0401311Y0322586D01*
X0399507Y0322586D01*
X0399507Y0320783D02*
X0402212Y0320783D01*
X0402212Y0318979D02*
X0399507Y0318979D01*
X0398606Y0319881D01*
X0399507Y0320783D01*
X0396775Y0321684D02*
X0395873Y0320783D01*
X0393168Y0320783D01*
X0393168Y0318979D02*
X0393168Y0324389D01*
X0395873Y0324389D01*
X0396775Y0323488D01*
X0396775Y0321684D01*
X0385899Y0321684D02*
X0385899Y0319881D01*
X0384998Y0318979D01*
X0382292Y0318979D01*
X0382292Y0317176D02*
X0382292Y0322586D01*
X0384998Y0322586D01*
X0385899Y0321684D01*
X0380461Y0321684D02*
X0380461Y0319881D01*
X0379560Y0318979D01*
X0377756Y0318979D01*
X0376855Y0319881D01*
X0376855Y0321684D01*
X0377756Y0322586D01*
X0379560Y0322586D01*
X0380461Y0321684D01*
X0375024Y0324389D02*
X0371417Y0324389D01*
X0373220Y0324389D02*
X0373220Y0318979D01*
X0364162Y0318979D02*
X0363260Y0318979D01*
X0363260Y0319881D01*
X0364162Y0319881D01*
X0364162Y0318979D01*
X0364162Y0321684D02*
X0363260Y0321684D01*
X0363260Y0322586D01*
X0364162Y0322586D01*
X0364162Y0321684D01*
X0361439Y0322586D02*
X0359635Y0322586D01*
X0360537Y0323488D02*
X0360537Y0319881D01*
X0361439Y0318979D01*
X0357804Y0318979D02*
X0357804Y0321684D01*
X0356903Y0322586D01*
X0355099Y0322586D01*
X0355099Y0320783D02*
X0357804Y0320783D01*
X0357804Y0318979D02*
X0355099Y0318979D01*
X0354198Y0319881D01*
X0355099Y0320783D01*
X0352367Y0320783D02*
X0351465Y0321684D01*
X0349662Y0321684D01*
X0348760Y0322586D01*
X0348760Y0323488D01*
X0349662Y0324389D01*
X0351465Y0324389D01*
X0352367Y0323488D01*
X0352367Y0320783D02*
X0352367Y0319881D01*
X0351465Y0318979D01*
X0349662Y0318979D01*
X0348760Y0319881D01*
X0346938Y0318979D02*
X0345135Y0318979D01*
X0346036Y0318979D02*
X0346036Y0322586D01*
X0345135Y0322586D01*
X0343304Y0322586D02*
X0343304Y0318979D01*
X0340599Y0318979D01*
X0339697Y0319881D01*
X0339697Y0322586D01*
X0337866Y0322586D02*
X0335161Y0322586D01*
X0334259Y0321684D01*
X0334259Y0319881D01*
X0335161Y0318979D01*
X0337866Y0318979D01*
X0337866Y0317176D02*
X0337866Y0322586D01*
X0332428Y0324389D02*
X0328822Y0324389D01*
X0328822Y0318979D01*
X0332428Y0318979D01*
X0330625Y0321684D02*
X0328822Y0321684D01*
X0341013Y0334891D02*
X0346113Y0335291D01*
X0378113Y0341291D01*
X0384613Y0344591D01*
X0410513Y0371891D01*
X0411013Y0372391D02*
X0306013Y0372391D01*
X0306013Y0347391D01*
X0296013Y0347391D01*
X0296013Y0337391D01*
X0306013Y0337391D01*
X0306013Y0347391D01*
X0306013Y0337391D02*
X0306013Y0333020D01*
X0341013Y0334891D01*
X0346036Y0325291D02*
X0346036Y0324389D01*
X0344144Y0379779D02*
X0339044Y0379379D01*
X0304044Y0377509D01*
X0304044Y0381879D01*
X0294044Y0381879D01*
X0294044Y0391879D01*
X0304044Y0391879D01*
X0304044Y0416879D01*
X0409044Y0416879D01*
X0408544Y0416379D02*
X0382644Y0389079D01*
X0376144Y0385779D01*
X0344144Y0379779D01*
X0304044Y0381879D02*
X0304044Y0391879D01*
X0285089Y0417574D02*
X0279989Y0417174D01*
X0244989Y0415304D01*
X0244989Y0419674D01*
X0234989Y0419674D01*
X0234989Y0429674D01*
X0244989Y0429674D01*
X0244989Y0454674D01*
X0349989Y0454674D01*
X0349489Y0454174D02*
X0323589Y0426874D01*
X0317089Y0423574D01*
X0285089Y0417574D01*
X0244989Y0419674D02*
X0244989Y0429674D01*
X0243020Y0440855D02*
X0233020Y0440855D01*
X0233020Y0415855D01*
X0128020Y0415855D01*
X0128520Y0416355D02*
X0154420Y0443655D01*
X0160920Y0446955D01*
X0192920Y0452955D01*
X0198020Y0453355D01*
X0233020Y0455225D01*
X0233020Y0450855D01*
X0243020Y0450855D01*
X0243020Y0440855D01*
X0233020Y0440855D02*
X0233020Y0450855D01*
X0185540Y0413217D02*
X0080540Y0413217D01*
X0080540Y0388217D01*
X0070540Y0388217D01*
X0070540Y0378217D01*
X0080540Y0378217D01*
X0080540Y0388217D01*
X0080540Y0378217D02*
X0080540Y0373847D01*
X0115540Y0375717D01*
X0120640Y0376117D01*
X0152640Y0382117D01*
X0159140Y0385417D01*
X0185040Y0412717D01*
X0217312Y0404359D02*
X0227312Y0404359D01*
X0181091Y0373414D02*
X0181091Y0363414D01*
X0171091Y0363414D01*
X0171091Y0338414D01*
X0066091Y0338414D01*
X0066591Y0338914D02*
X0092491Y0366214D01*
X0098991Y0369514D01*
X0130991Y0375514D01*
X0136091Y0375914D01*
X0171091Y0377784D01*
X0171091Y0373414D01*
X0181091Y0373414D01*
X0171091Y0373414D02*
X0171091Y0363414D01*
X0181091Y0337194D02*
X0191091Y0337194D01*
X0217013Y0218414D02*
X0217018Y0218855D01*
X0217035Y0219296D01*
X0217062Y0219736D01*
X0217100Y0220176D01*
X0217148Y0220614D01*
X0217208Y0221052D01*
X0217278Y0221487D01*
X0217358Y0221921D01*
X0217450Y0222353D01*
X0217552Y0222782D01*
X0217664Y0223208D01*
X0217787Y0223632D01*
X0217920Y0224053D01*
X0218064Y0224470D01*
X0218218Y0224883D01*
X0218381Y0225293D01*
X0218555Y0225699D01*
X0218739Y0226100D01*
X0218932Y0226496D01*
X0219136Y0226888D01*
X0219348Y0227274D01*
X0219570Y0227656D01*
X0219802Y0228031D01*
X0220043Y0228401D01*
X0220292Y0228765D01*
X0220551Y0229122D01*
X0220818Y0229473D01*
X0221093Y0229818D01*
X0221377Y0230155D01*
X0221670Y0230486D01*
X0221970Y0230809D01*
X0222278Y0231125D01*
X0222594Y0231433D01*
X0222917Y0231733D01*
X0223248Y0232026D01*
X0223585Y0232310D01*
X0223930Y0232585D01*
X0224281Y0232852D01*
X0224638Y0233111D01*
X0225002Y0233360D01*
X0225372Y0233601D01*
X0225747Y0233833D01*
X0226129Y0234055D01*
X0226515Y0234267D01*
X0226907Y0234471D01*
X0227303Y0234664D01*
X0227704Y0234848D01*
X0228110Y0235022D01*
X0228520Y0235185D01*
X0228933Y0235339D01*
X0229350Y0235483D01*
X0229771Y0235616D01*
X0230195Y0235739D01*
X0230621Y0235851D01*
X0231050Y0235953D01*
X0231482Y0236045D01*
X0231916Y0236125D01*
X0232351Y0236195D01*
X0232789Y0236255D01*
X0233227Y0236303D01*
X0233667Y0236341D01*
X0234107Y0236368D01*
X0234548Y0236385D01*
X0234989Y0236390D01*
X0235430Y0236385D01*
X0235871Y0236368D01*
X0236311Y0236341D01*
X0236751Y0236303D01*
X0237189Y0236255D01*
X0237627Y0236195D01*
X0238062Y0236125D01*
X0238496Y0236045D01*
X0238928Y0235953D01*
X0239357Y0235851D01*
X0239783Y0235739D01*
X0240207Y0235616D01*
X0240628Y0235483D01*
X0241045Y0235339D01*
X0241458Y0235185D01*
X0241868Y0235022D01*
X0242274Y0234848D01*
X0242675Y0234664D01*
X0243071Y0234471D01*
X0243463Y0234267D01*
X0243849Y0234055D01*
X0244231Y0233833D01*
X0244606Y0233601D01*
X0244976Y0233360D01*
X0245340Y0233111D01*
X0245697Y0232852D01*
X0246048Y0232585D01*
X0246393Y0232310D01*
X0246730Y0232026D01*
X0247061Y0231733D01*
X0247384Y0231433D01*
X0247700Y0231125D01*
X0248008Y0230809D01*
X0248308Y0230486D01*
X0248601Y0230155D01*
X0248885Y0229818D01*
X0249160Y0229473D01*
X0249427Y0229122D01*
X0249686Y0228765D01*
X0249935Y0228401D01*
X0250176Y0228031D01*
X0250408Y0227656D01*
X0250630Y0227274D01*
X0250842Y0226888D01*
X0251046Y0226496D01*
X0251239Y0226100D01*
X0251423Y0225699D01*
X0251597Y0225293D01*
X0251760Y0224883D01*
X0251914Y0224470D01*
X0252058Y0224053D01*
X0252191Y0223632D01*
X0252314Y0223208D01*
X0252426Y0222782D01*
X0252528Y0222353D01*
X0252620Y0221921D01*
X0252700Y0221487D01*
X0252770Y0221052D01*
X0252830Y0220614D01*
X0252878Y0220176D01*
X0252916Y0219736D01*
X0252943Y0219296D01*
X0252960Y0218855D01*
X0252965Y0218414D01*
X0252960Y0217973D01*
X0252943Y0217532D01*
X0252916Y0217092D01*
X0252878Y0216652D01*
X0252830Y0216214D01*
X0252770Y0215776D01*
X0252700Y0215341D01*
X0252620Y0214907D01*
X0252528Y0214475D01*
X0252426Y0214046D01*
X0252314Y0213620D01*
X0252191Y0213196D01*
X0252058Y0212775D01*
X0251914Y0212358D01*
X0251760Y0211945D01*
X0251597Y0211535D01*
X0251423Y0211129D01*
X0251239Y0210728D01*
X0251046Y0210332D01*
X0250842Y0209940D01*
X0250630Y0209554D01*
X0250408Y0209172D01*
X0250176Y0208797D01*
X0249935Y0208427D01*
X0249686Y0208063D01*
X0249427Y0207706D01*
X0249160Y0207355D01*
X0248885Y0207010D01*
X0248601Y0206673D01*
X0248308Y0206342D01*
X0248008Y0206019D01*
X0247700Y0205703D01*
X0247384Y0205395D01*
X0247061Y0205095D01*
X0246730Y0204802D01*
X0246393Y0204518D01*
X0246048Y0204243D01*
X0245697Y0203976D01*
X0245340Y0203717D01*
X0244976Y0203468D01*
X0244606Y0203227D01*
X0244231Y0202995D01*
X0243849Y0202773D01*
X0243463Y0202561D01*
X0243071Y0202357D01*
X0242675Y0202164D01*
X0242274Y0201980D01*
X0241868Y0201806D01*
X0241458Y0201643D01*
X0241045Y0201489D01*
X0240628Y0201345D01*
X0240207Y0201212D01*
X0239783Y0201089D01*
X0239357Y0200977D01*
X0238928Y0200875D01*
X0238496Y0200783D01*
X0238062Y0200703D01*
X0237627Y0200633D01*
X0237189Y0200573D01*
X0236751Y0200525D01*
X0236311Y0200487D01*
X0235871Y0200460D01*
X0235430Y0200443D01*
X0234989Y0200438D01*
X0234548Y0200443D01*
X0234107Y0200460D01*
X0233667Y0200487D01*
X0233227Y0200525D01*
X0232789Y0200573D01*
X0232351Y0200633D01*
X0231916Y0200703D01*
X0231482Y0200783D01*
X0231050Y0200875D01*
X0230621Y0200977D01*
X0230195Y0201089D01*
X0229771Y0201212D01*
X0229350Y0201345D01*
X0228933Y0201489D01*
X0228520Y0201643D01*
X0228110Y0201806D01*
X0227704Y0201980D01*
X0227303Y0202164D01*
X0226907Y0202357D01*
X0226515Y0202561D01*
X0226129Y0202773D01*
X0225747Y0202995D01*
X0225372Y0203227D01*
X0225002Y0203468D01*
X0224638Y0203717D01*
X0224281Y0203976D01*
X0223930Y0204243D01*
X0223585Y0204518D01*
X0223248Y0204802D01*
X0222917Y0205095D01*
X0222594Y0205395D01*
X0222278Y0205703D01*
X0221970Y0206019D01*
X0221670Y0206342D01*
X0221377Y0206673D01*
X0221093Y0207010D01*
X0220818Y0207355D01*
X0220551Y0207706D01*
X0220292Y0208063D01*
X0220043Y0208427D01*
X0219802Y0208797D01*
X0219570Y0209172D01*
X0219348Y0209554D01*
X0219136Y0209940D01*
X0218932Y0210332D01*
X0218739Y0210728D01*
X0218555Y0211129D01*
X0218381Y0211535D01*
X0218218Y0211945D01*
X0218064Y0212358D01*
X0217920Y0212775D01*
X0217787Y0213196D01*
X0217664Y0213620D01*
X0217552Y0214046D01*
X0217450Y0214475D01*
X0217358Y0214907D01*
X0217278Y0215341D01*
X0217208Y0215776D01*
X0217148Y0216214D01*
X0217100Y0216652D01*
X0217062Y0217092D01*
X0217035Y0217532D01*
X0217018Y0217973D01*
X0217013Y0218414D01*
X0231703Y0196437D02*
X0234408Y0196437D01*
X0235309Y0195535D01*
X0235309Y0193731D01*
X0234408Y0192830D01*
X0231703Y0192830D01*
X0231703Y0191026D02*
X0231703Y0196437D01*
X0237140Y0196437D02*
X0237140Y0191026D01*
X0238944Y0192830D01*
X0240747Y0191026D01*
X0240747Y0196437D01*
X0242578Y0196437D02*
X0242578Y0191026D01*
X0242578Y0192830D02*
X0245283Y0192830D01*
X0246185Y0193731D01*
X0246185Y0195535D01*
X0245283Y0196437D01*
X0242578Y0196437D01*
X0244381Y0192830D02*
X0246185Y0191026D01*
X0248016Y0193731D02*
X0251622Y0193731D01*
X0253453Y0191928D02*
X0254355Y0191026D01*
X0256158Y0191026D01*
X0257060Y0191928D01*
X0257060Y0195535D01*
X0256158Y0196437D01*
X0254355Y0196437D01*
X0253453Y0195535D01*
X0253453Y0191928D01*
X0258891Y0191928D02*
X0258891Y0196437D01*
X0262498Y0196437D02*
X0262498Y0191928D01*
X0261596Y0191026D01*
X0259793Y0191026D01*
X0258891Y0191928D01*
X0264329Y0196437D02*
X0267936Y0196437D01*
X0266132Y0196437D02*
X0266132Y0191026D01*
X0416918Y0412154D02*
X0426918Y0412154D01*
D12*
X0371744Y0408516D02*
X0371744Y0406047D01*
X0370510Y0404812D01*
X0365572Y0404812D01*
X0364338Y0406047D01*
X0364338Y0408516D01*
X0365572Y0409750D01*
X0370510Y0409750D02*
X0371744Y0408516D01*
X0370510Y0402384D02*
X0368041Y0402384D01*
X0366807Y0401149D01*
X0366807Y0399915D01*
X0368041Y0397446D01*
X0364338Y0397446D01*
X0364338Y0402384D01*
X0370510Y0402384D02*
X0371744Y0401149D01*
X0371744Y0398681D01*
X0370510Y0397446D01*
X0372478Y0365262D02*
X0367541Y0365262D01*
X0366306Y0364027D01*
X0366306Y0360324D01*
X0373713Y0360324D01*
X0373713Y0364027D01*
X0372478Y0365262D01*
X0372478Y0357896D02*
X0370009Y0357896D01*
X0368775Y0356661D01*
X0368775Y0355427D01*
X0370009Y0352958D01*
X0366306Y0352958D01*
X0366306Y0357896D01*
X0372478Y0357896D02*
X0373713Y0356661D01*
X0373713Y0354192D01*
X0372478Y0352958D01*
X0370431Y0308963D02*
X0371665Y0307728D01*
X0371665Y0305259D01*
X0370431Y0304025D01*
X0365493Y0304025D01*
X0364259Y0305259D01*
X0364259Y0307728D01*
X0365493Y0308963D01*
X0364259Y0301596D02*
X0365493Y0299128D01*
X0367962Y0296659D01*
X0367962Y0300362D01*
X0369197Y0301596D01*
X0370431Y0301596D01*
X0371665Y0300362D01*
X0371665Y0297893D01*
X0370431Y0296659D01*
X0367962Y0296659D01*
X0368462Y0262506D02*
X0363525Y0262506D01*
X0362291Y0261272D01*
X0362291Y0257568D01*
X0369697Y0257568D01*
X0369697Y0261272D01*
X0368462Y0262506D01*
X0368462Y0255140D02*
X0367228Y0255140D01*
X0365994Y0253905D01*
X0365994Y0250202D01*
X0368462Y0250202D01*
X0369697Y0251436D01*
X0369697Y0253905D01*
X0368462Y0255140D01*
X0363525Y0252671D02*
X0365994Y0250202D01*
X0363525Y0252671D02*
X0362291Y0255140D01*
X0364509Y0221049D02*
X0363275Y0219815D01*
X0363275Y0216112D01*
X0370681Y0216112D01*
X0370681Y0219815D01*
X0369447Y0221049D01*
X0364509Y0221049D01*
X0364509Y0213683D02*
X0363275Y0213683D01*
X0363275Y0208745D01*
X0364509Y0213683D02*
X0369447Y0208745D01*
X0370681Y0208745D01*
X0336028Y0170467D02*
X0331090Y0170467D01*
X0328621Y0167998D01*
X0331090Y0165529D01*
X0336028Y0165529D01*
X0336028Y0161866D02*
X0328621Y0161866D01*
X0332324Y0158163D01*
X0332324Y0163101D01*
X0332324Y0165529D02*
X0332324Y0170467D01*
X0335761Y0127947D02*
X0334527Y0126713D01*
X0334527Y0123010D01*
X0341933Y0123010D01*
X0341933Y0126713D01*
X0340699Y0127947D01*
X0335761Y0127947D01*
X0335761Y0120581D02*
X0336996Y0120581D01*
X0338230Y0119346D01*
X0339464Y0120581D01*
X0340699Y0120581D01*
X0341933Y0119346D01*
X0341933Y0116878D01*
X0340699Y0115643D01*
X0338230Y0118112D02*
X0338230Y0119346D01*
X0335761Y0120581D02*
X0334527Y0119346D01*
X0334527Y0116878D01*
X0335761Y0115643D01*
X0324579Y0100301D02*
X0319641Y0100301D01*
X0317172Y0097832D01*
X0319641Y0095364D01*
X0324579Y0095364D01*
X0323344Y0092935D02*
X0324579Y0091700D01*
X0324579Y0089232D01*
X0323344Y0087997D01*
X0320876Y0090466D02*
X0320876Y0091700D01*
X0322110Y0092935D01*
X0323344Y0092935D01*
X0320876Y0091700D02*
X0319641Y0092935D01*
X0318407Y0092935D01*
X0317172Y0091700D01*
X0317172Y0089232D01*
X0318407Y0087997D01*
X0320876Y0095364D02*
X0320876Y0100301D01*
X0266258Y0166344D02*
X0267492Y0167578D01*
X0267492Y0170047D01*
X0266258Y0171281D01*
X0265023Y0171281D01*
X0263789Y0170047D01*
X0263789Y0168813D01*
X0263789Y0170047D02*
X0262555Y0171281D01*
X0261320Y0171281D01*
X0260086Y0170047D01*
X0260086Y0167578D01*
X0261320Y0166344D01*
X0261320Y0173710D02*
X0266258Y0173710D01*
X0267492Y0174944D01*
X0267492Y0177413D01*
X0266258Y0178648D01*
X0261320Y0178648D02*
X0260086Y0177413D01*
X0260086Y0174944D01*
X0261320Y0173710D01*
X0230462Y0127553D02*
X0229228Y0127553D01*
X0227994Y0126319D01*
X0227994Y0122616D01*
X0229228Y0120187D02*
X0230462Y0120187D01*
X0231697Y0118953D01*
X0231697Y0116484D01*
X0230462Y0115250D01*
X0227994Y0117718D02*
X0227994Y0118953D01*
X0229228Y0120187D01*
X0227994Y0118953D02*
X0226759Y0120187D01*
X0225525Y0120187D01*
X0224291Y0118953D01*
X0224291Y0116484D01*
X0225525Y0115250D01*
X0224291Y0122616D02*
X0224291Y0126319D01*
X0225525Y0127553D01*
X0226759Y0127553D01*
X0227994Y0126319D01*
X0230462Y0127553D02*
X0231697Y0126319D01*
X0231697Y0122616D01*
X0224291Y0122616D01*
X0216092Y0093772D02*
X0211229Y0094629D01*
X0208369Y0092626D01*
X0210372Y0089766D01*
X0215234Y0088909D01*
X0214813Y0086517D02*
X0213955Y0081655D01*
X0209950Y0087375D01*
X0208735Y0087589D01*
X0207305Y0086588D01*
X0206876Y0084156D01*
X0207877Y0082726D01*
X0211588Y0089552D02*
X0212445Y0094415D01*
X0171901Y0149415D02*
X0168198Y0149415D01*
X0168198Y0156821D01*
X0171901Y0156821D01*
X0173136Y0155587D01*
X0173136Y0154353D01*
X0171901Y0153118D01*
X0168198Y0153118D01*
X0165770Y0154353D02*
X0165770Y0155587D01*
X0164535Y0156821D01*
X0162066Y0156821D01*
X0160832Y0155587D01*
X0165770Y0154353D02*
X0160832Y0149415D01*
X0165770Y0149415D01*
X0171901Y0149415D02*
X0173136Y0150649D01*
X0173136Y0151884D01*
X0171901Y0153118D01*
X0130703Y0176760D02*
X0130703Y0181697D01*
X0129469Y0182932D01*
X0125766Y0182932D01*
X0125766Y0175525D01*
X0129469Y0175525D01*
X0130703Y0176760D01*
X0123337Y0175525D02*
X0118399Y0175525D01*
X0120868Y0175525D02*
X0120868Y0182932D01*
X0118399Y0180463D01*
X0095076Y0141073D02*
X0097545Y0138604D01*
X0097545Y0133667D01*
X0097545Y0137370D02*
X0092608Y0137370D01*
X0092608Y0138604D02*
X0092608Y0133667D01*
X0090179Y0133667D02*
X0085241Y0133667D01*
X0087710Y0133667D02*
X0087710Y0141073D01*
X0085241Y0138604D01*
X0092608Y0138604D02*
X0095076Y0141073D01*
X0208099Y0213217D02*
X0208099Y0215580D01*
X0212824Y0215580D02*
X0212824Y0213217D01*
X0207728Y0269494D02*
X0204025Y0269494D01*
X0204025Y0276900D01*
X0207728Y0276900D01*
X0208963Y0275666D01*
X0208963Y0270728D01*
X0207728Y0269494D01*
X0201596Y0269494D02*
X0196659Y0269494D01*
X0201596Y0274431D01*
X0201596Y0275666D01*
X0200362Y0276900D01*
X0197893Y0276900D01*
X0196659Y0275666D01*
X0160624Y0290854D02*
X0159390Y0289620D01*
X0156921Y0289620D01*
X0155687Y0290854D01*
X0155687Y0295792D01*
X0156921Y0297026D01*
X0159390Y0297026D01*
X0160624Y0295792D01*
X0153258Y0295792D02*
X0153258Y0294557D01*
X0148320Y0289620D01*
X0153258Y0289620D01*
X0153258Y0295792D02*
X0152024Y0297026D01*
X0149555Y0297026D01*
X0148320Y0295792D01*
X0131350Y0259183D02*
X0128881Y0259183D01*
X0127647Y0257949D01*
X0127647Y0253012D01*
X0128881Y0251777D01*
X0131350Y0251777D01*
X0132585Y0253012D01*
X0132585Y0257949D02*
X0131350Y0259183D01*
X0125218Y0251777D02*
X0120281Y0251777D01*
X0122750Y0251777D02*
X0122750Y0259183D01*
X0120281Y0256715D01*
X0083065Y0279122D02*
X0081831Y0277887D01*
X0078128Y0277887D01*
X0078128Y0285294D01*
X0081831Y0285294D01*
X0083065Y0284059D01*
X0083065Y0282825D01*
X0081831Y0281591D01*
X0078128Y0281591D01*
X0081831Y0281591D02*
X0083065Y0280356D01*
X0083065Y0279122D01*
X0075699Y0277887D02*
X0070761Y0277887D01*
X0073230Y0277887D02*
X0073230Y0285294D01*
X0070761Y0282825D01*
X0103385Y0343714D02*
X0103385Y0348652D01*
X0104619Y0348652D01*
X0109557Y0343714D01*
X0110791Y0343714D01*
X0110791Y0351080D02*
X0103385Y0351080D01*
X0103385Y0354784D01*
X0104619Y0356018D01*
X0105854Y0356018D01*
X0107088Y0354784D01*
X0107088Y0351080D01*
X0110791Y0351080D02*
X0110791Y0354784D01*
X0109557Y0356018D01*
X0108323Y0356018D01*
X0107088Y0354784D01*
X0140834Y0393785D02*
X0140834Y0398722D01*
X0142068Y0398722D01*
X0147006Y0393785D01*
X0148240Y0393785D01*
X0148240Y0401151D02*
X0143303Y0401151D01*
X0140834Y0403620D01*
X0143303Y0406089D01*
X0148240Y0406089D01*
X0144537Y0406089D02*
X0144537Y0401151D01*
X0166549Y0423624D02*
X0169017Y0421155D01*
X0169017Y0424858D01*
X0170252Y0426093D01*
X0171486Y0426093D01*
X0172720Y0424858D01*
X0172720Y0422390D01*
X0171486Y0421155D01*
X0169017Y0421155D01*
X0166549Y0423624D02*
X0165314Y0426093D01*
X0167783Y0428521D02*
X0165314Y0430990D01*
X0167783Y0433459D01*
X0172720Y0433459D01*
X0169017Y0433459D02*
X0169017Y0428521D01*
X0167783Y0428521D02*
X0172720Y0428521D01*
X0260131Y0373719D02*
X0260131Y0370016D01*
X0262600Y0371250D01*
X0263835Y0371250D01*
X0265069Y0370016D01*
X0265069Y0367547D01*
X0263835Y0366313D01*
X0261366Y0366313D01*
X0260131Y0367547D01*
X0260131Y0373719D02*
X0265069Y0373719D01*
X0267498Y0373719D02*
X0271201Y0373719D01*
X0272435Y0372485D01*
X0272435Y0371250D01*
X0271201Y0370016D01*
X0267498Y0370016D01*
X0267498Y0366313D02*
X0267498Y0373719D01*
X0271201Y0370016D02*
X0272435Y0368781D01*
X0272435Y0367547D01*
X0271201Y0366313D01*
X0267498Y0366313D01*
X0245183Y0342831D02*
X0245183Y0341597D01*
X0243949Y0340362D01*
X0240246Y0340362D01*
X0237817Y0339128D02*
X0236582Y0340362D01*
X0232879Y0340362D01*
X0232879Y0337893D01*
X0234114Y0336659D01*
X0236582Y0336659D01*
X0237817Y0337893D01*
X0237817Y0339128D01*
X0240246Y0336659D02*
X0243949Y0336659D01*
X0245183Y0337893D01*
X0245183Y0339128D01*
X0243949Y0340362D01*
X0245183Y0342831D02*
X0243949Y0344065D01*
X0240246Y0344065D01*
X0240246Y0336659D01*
X0237817Y0344065D02*
X0235348Y0342831D01*
X0232879Y0340362D01*
X0305283Y0435241D02*
X0308986Y0435241D01*
X0307751Y0437710D01*
X0307751Y0438945D01*
X0308986Y0440179D01*
X0311455Y0440179D01*
X0312689Y0438945D01*
X0312689Y0436476D01*
X0311455Y0435241D01*
X0305283Y0435241D02*
X0305283Y0440179D01*
X0307751Y0442608D02*
X0305283Y0445076D01*
X0307751Y0447545D01*
X0312689Y0447545D01*
X0308986Y0447545D02*
X0308986Y0442608D01*
X0307751Y0442608D02*
X0312689Y0442608D01*
X0432486Y0348157D02*
X0437423Y0348157D01*
X0436189Y0344454D02*
X0436189Y0351861D01*
X0432486Y0348157D01*
X0439852Y0344454D02*
X0443555Y0344454D01*
X0444789Y0345689D01*
X0444789Y0350626D01*
X0443555Y0351861D01*
X0439852Y0351861D01*
X0439852Y0344454D01*
X0427106Y0291042D02*
X0424638Y0291042D01*
X0423403Y0289807D01*
X0423403Y0284870D01*
X0424638Y0283635D01*
X0427106Y0283635D01*
X0428341Y0284870D01*
X0428341Y0289807D02*
X0427106Y0291042D01*
X0420975Y0287339D02*
X0416037Y0287339D01*
X0419740Y0291042D01*
X0419740Y0283635D01*
X0282073Y0231611D02*
X0280838Y0232845D01*
X0278370Y0232845D01*
X0277135Y0231611D01*
X0277135Y0226673D01*
X0278370Y0225439D01*
X0280838Y0225439D01*
X0282073Y0226673D01*
X0274707Y0231611D02*
X0269769Y0226673D01*
X0269769Y0225439D01*
X0269769Y0232845D02*
X0274707Y0232845D01*
X0274707Y0231611D01*
X0430517Y0145323D02*
X0435455Y0145323D01*
X0437883Y0145323D02*
X0441586Y0145323D01*
X0442821Y0144088D01*
X0442821Y0142854D01*
X0441586Y0141620D01*
X0437883Y0141620D01*
X0437883Y0149026D01*
X0441586Y0149026D01*
X0442821Y0147792D01*
X0442821Y0146557D01*
X0441586Y0145323D01*
X0434220Y0141620D02*
X0434220Y0149026D01*
X0430517Y0145323D01*
D13*
X0404750Y0165803D02*
X0400146Y0165803D01*
X0402448Y0163501D01*
X0402448Y0166570D01*
X0402448Y0168105D02*
X0402448Y0171174D01*
X0401680Y0171174D02*
X0404750Y0171174D01*
X0404750Y0168105D02*
X0401680Y0168105D01*
X0400146Y0169639D01*
X0401680Y0171174D01*
X0425724Y0214992D02*
X0425724Y0219596D01*
X0423422Y0217294D01*
X0426491Y0217294D01*
X0428026Y0215759D02*
X0428793Y0214992D01*
X0430328Y0214992D01*
X0431095Y0215759D01*
X0428026Y0215759D02*
X0428026Y0218829D01*
X0428793Y0219596D01*
X0430328Y0219596D01*
X0431095Y0218829D01*
X0430383Y0118139D02*
X0432685Y0118139D01*
X0433453Y0117372D01*
X0433453Y0116605D01*
X0432685Y0115837D01*
X0430383Y0115837D01*
X0428849Y0115837D02*
X0425780Y0115837D01*
X0428081Y0118139D01*
X0428081Y0113535D01*
X0430383Y0113535D02*
X0432685Y0113535D01*
X0433453Y0114303D01*
X0433453Y0115070D01*
X0432685Y0115837D01*
X0430383Y0113535D02*
X0430383Y0118139D01*
X0397552Y0107411D02*
X0397552Y0104342D01*
X0396785Y0103575D01*
X0394483Y0103575D01*
X0394483Y0108179D01*
X0396785Y0108179D01*
X0397552Y0107411D01*
X0392948Y0107411D02*
X0392948Y0106644D01*
X0392181Y0105877D01*
X0392948Y0105109D01*
X0392948Y0104342D01*
X0392181Y0103575D01*
X0390646Y0103575D01*
X0389879Y0104342D01*
X0391413Y0105877D02*
X0392181Y0105877D01*
X0392948Y0107411D02*
X0392181Y0108179D01*
X0390646Y0108179D01*
X0389879Y0107411D01*
X0354713Y0085109D02*
X0354713Y0082039D01*
X0354713Y0084341D02*
X0351643Y0084341D01*
X0351643Y0085109D02*
X0353178Y0086643D01*
X0354713Y0085109D01*
X0351643Y0085109D02*
X0351643Y0082039D01*
X0350109Y0082807D02*
X0349341Y0082039D01*
X0347807Y0082039D01*
X0347039Y0082807D01*
X0348574Y0084341D02*
X0349341Y0084341D01*
X0350109Y0083574D01*
X0350109Y0082807D01*
X0349341Y0084341D02*
X0350109Y0085109D01*
X0350109Y0085876D01*
X0349341Y0086643D01*
X0347807Y0086643D01*
X0347039Y0085876D01*
X0300025Y0120961D02*
X0300025Y0122496D01*
X0299258Y0123263D01*
X0298491Y0123263D01*
X0297723Y0122496D01*
X0297723Y0121728D01*
X0297723Y0122496D02*
X0296956Y0123263D01*
X0296189Y0123263D01*
X0295421Y0122496D01*
X0295421Y0120961D01*
X0296189Y0120194D01*
X0299258Y0120194D02*
X0300025Y0120961D01*
X0300025Y0124798D02*
X0295421Y0124798D01*
X0295421Y0127100D01*
X0296189Y0127867D01*
X0296956Y0127867D01*
X0297723Y0127100D01*
X0297723Y0124798D01*
X0297723Y0127100D02*
X0298491Y0127867D01*
X0299258Y0127867D01*
X0300025Y0127100D01*
X0300025Y0124798D01*
X0262158Y0201646D02*
X0260624Y0203180D01*
X0261391Y0203180D02*
X0259089Y0203180D01*
X0259089Y0201646D02*
X0259089Y0206250D01*
X0261391Y0206250D01*
X0262158Y0205482D01*
X0262158Y0203948D01*
X0261391Y0203180D01*
X0257554Y0201646D02*
X0256020Y0201646D01*
X0256787Y0201646D02*
X0256787Y0206250D01*
X0256020Y0206250D02*
X0257554Y0206250D01*
X0296209Y0210071D02*
X0296209Y0213140D01*
X0296976Y0213140D01*
X0300045Y0210071D01*
X0300813Y0210071D01*
X0300813Y0214675D02*
X0296209Y0214675D01*
X0296209Y0216977D01*
X0296976Y0217744D01*
X0300045Y0217744D01*
X0300813Y0216977D01*
X0300813Y0214675D01*
X0299258Y0250272D02*
X0300025Y0251040D01*
X0300025Y0252574D01*
X0299258Y0253342D01*
X0298491Y0253342D01*
X0297723Y0252574D01*
X0297723Y0250272D01*
X0299258Y0250272D01*
X0297723Y0250272D02*
X0296189Y0251807D01*
X0295421Y0253342D01*
X0295421Y0254876D02*
X0295421Y0257178D01*
X0296189Y0257946D01*
X0299258Y0257946D01*
X0300025Y0257178D01*
X0300025Y0254876D01*
X0295421Y0254876D01*
X0299180Y0299638D02*
X0299180Y0301940D01*
X0299947Y0302707D01*
X0300715Y0302707D01*
X0301482Y0301940D01*
X0301482Y0300405D01*
X0300715Y0299638D01*
X0299180Y0299638D01*
X0297645Y0301172D01*
X0296878Y0302707D01*
X0297645Y0304242D02*
X0296878Y0305009D01*
X0296878Y0306544D01*
X0297645Y0307311D01*
X0297645Y0304242D02*
X0300715Y0304242D01*
X0301482Y0305009D01*
X0301482Y0306544D01*
X0300715Y0307311D01*
X0254631Y0331980D02*
X0253864Y0331213D01*
X0254631Y0331980D02*
X0254631Y0333515D01*
X0253864Y0334282D01*
X0252330Y0334282D01*
X0251562Y0333515D01*
X0251562Y0332747D01*
X0252330Y0331213D01*
X0250028Y0331213D01*
X0250028Y0334282D01*
X0250028Y0335817D02*
X0250028Y0338118D01*
X0250795Y0338886D01*
X0251562Y0338886D01*
X0252330Y0338118D01*
X0252330Y0335817D01*
X0252330Y0338118D02*
X0253097Y0338886D01*
X0253864Y0338886D01*
X0254631Y0338118D01*
X0254631Y0335817D01*
X0250028Y0335817D01*
X0254810Y0370351D02*
X0254810Y0372653D01*
X0255577Y0373420D01*
X0256345Y0373420D01*
X0257112Y0372653D01*
X0257112Y0371119D01*
X0256345Y0370351D01*
X0254810Y0370351D01*
X0253275Y0371886D01*
X0252508Y0373420D01*
X0252508Y0374955D02*
X0252508Y0377257D01*
X0253275Y0378024D01*
X0254043Y0378024D01*
X0254810Y0377257D01*
X0254810Y0374955D01*
X0257112Y0374955D02*
X0257112Y0377257D01*
X0256345Y0378024D01*
X0255577Y0378024D01*
X0254810Y0377257D01*
X0257112Y0374955D02*
X0252508Y0374955D01*
X0296484Y0398142D02*
X0298786Y0398142D01*
X0298019Y0399676D01*
X0298019Y0400444D01*
X0298786Y0401211D01*
X0300321Y0401211D01*
X0301088Y0400444D01*
X0301088Y0398909D01*
X0300321Y0398142D01*
X0296484Y0398142D02*
X0296484Y0401211D01*
X0297252Y0402746D02*
X0296484Y0403513D01*
X0296484Y0405048D01*
X0297252Y0405815D01*
X0300321Y0405815D02*
X0301088Y0405048D01*
X0301088Y0403513D01*
X0300321Y0402746D01*
X0297252Y0402746D01*
X0337118Y0432019D02*
X0337885Y0431252D01*
X0339420Y0431252D01*
X0340187Y0432019D01*
X0340187Y0433554D01*
X0339420Y0434321D01*
X0338653Y0434321D01*
X0337118Y0433554D01*
X0337118Y0435856D01*
X0340187Y0435856D01*
X0341722Y0434321D02*
X0343257Y0435856D01*
X0344791Y0434321D01*
X0344791Y0431252D01*
X0344791Y0433554D02*
X0341722Y0433554D01*
X0341722Y0434321D02*
X0341722Y0431252D01*
X0303470Y0364476D02*
X0300401Y0364476D01*
X0299634Y0363709D01*
X0299634Y0361407D01*
X0304238Y0361407D01*
X0304238Y0363709D01*
X0303470Y0364476D01*
X0303470Y0359872D02*
X0301936Y0359872D01*
X0301169Y0359105D01*
X0301169Y0358338D01*
X0301936Y0356803D01*
X0299634Y0356803D01*
X0299634Y0359872D01*
X0303470Y0359872D02*
X0304238Y0359105D01*
X0304238Y0357570D01*
X0303470Y0356803D01*
X0248864Y0282705D02*
X0249631Y0281937D01*
X0249631Y0280403D01*
X0248864Y0279635D01*
X0245795Y0279635D01*
X0245028Y0280403D01*
X0245028Y0281937D01*
X0245795Y0282705D01*
X0245795Y0278101D02*
X0248864Y0275031D01*
X0249631Y0275031D01*
X0245028Y0275031D02*
X0245028Y0278101D01*
X0245795Y0278101D01*
X0202449Y0340307D02*
X0200147Y0340307D01*
X0200147Y0344911D01*
X0202449Y0344911D01*
X0203217Y0344144D01*
X0203217Y0341074D01*
X0202449Y0340307D01*
X0198613Y0340307D02*
X0195543Y0340307D01*
X0198613Y0343376D01*
X0198613Y0344144D01*
X0197845Y0344911D01*
X0196311Y0344911D01*
X0195543Y0344144D01*
X0177860Y0351650D02*
X0177093Y0351650D01*
X0174023Y0354720D01*
X0173256Y0354720D01*
X0173256Y0351650D01*
X0173256Y0356254D02*
X0173256Y0358556D01*
X0174023Y0359324D01*
X0174791Y0359324D01*
X0175558Y0358556D01*
X0175558Y0356254D01*
X0177860Y0356254D02*
X0177860Y0358556D01*
X0177093Y0359324D01*
X0176325Y0359324D01*
X0175558Y0358556D01*
X0177860Y0356254D02*
X0173256Y0356254D01*
X0124476Y0326821D02*
X0123709Y0327588D01*
X0122174Y0327588D01*
X0121407Y0326821D01*
X0121407Y0323752D01*
X0122174Y0322984D01*
X0123709Y0322984D01*
X0124476Y0323752D01*
X0119872Y0322984D02*
X0116803Y0322984D01*
X0118338Y0322984D02*
X0118338Y0327588D01*
X0116803Y0326054D01*
X0076403Y0395110D02*
X0075636Y0395110D01*
X0072567Y0398180D01*
X0071799Y0398180D01*
X0071799Y0395110D01*
X0073334Y0399714D02*
X0071799Y0401249D01*
X0073334Y0402783D01*
X0076403Y0402783D01*
X0074101Y0402783D02*
X0074101Y0399714D01*
X0073334Y0399714D02*
X0076403Y0399714D01*
X0126178Y0429539D02*
X0126945Y0428772D01*
X0128480Y0428772D01*
X0129247Y0429539D01*
X0129247Y0430306D01*
X0128480Y0431074D01*
X0126178Y0431074D01*
X0126178Y0429539D01*
X0126178Y0431074D02*
X0127713Y0432608D01*
X0129247Y0433376D01*
X0130782Y0431841D02*
X0132317Y0433376D01*
X0133851Y0431841D01*
X0133851Y0428772D01*
X0133851Y0431074D02*
X0130782Y0431074D01*
X0130782Y0431841D02*
X0130782Y0428772D01*
X0156394Y0227470D02*
X0155627Y0226703D01*
X0156394Y0227470D02*
X0157929Y0227470D01*
X0158696Y0226703D01*
X0158696Y0225935D01*
X0155627Y0222866D01*
X0158696Y0222866D01*
X0160231Y0223633D02*
X0160998Y0222866D01*
X0162533Y0222866D01*
X0163300Y0223633D01*
X0160231Y0223633D02*
X0160231Y0226703D01*
X0160998Y0227470D01*
X0162533Y0227470D01*
X0163300Y0226703D01*
X0183196Y0177001D02*
X0183964Y0177001D01*
X0184731Y0176233D01*
X0184731Y0173931D01*
X0183964Y0172397D02*
X0183196Y0172397D01*
X0182429Y0171630D01*
X0182429Y0170095D01*
X0183196Y0169328D01*
X0183964Y0172397D02*
X0187033Y0169328D01*
X0187033Y0172397D01*
X0187033Y0173931D02*
X0182429Y0173931D01*
X0182429Y0176233D01*
X0183196Y0177001D01*
X0184731Y0176233D02*
X0185498Y0177001D01*
X0186266Y0177001D01*
X0187033Y0176233D01*
X0187033Y0173931D01*
X0192941Y0172843D02*
X0192941Y0171308D01*
X0193708Y0170541D01*
X0196778Y0170541D01*
X0197545Y0171308D01*
X0197545Y0172843D01*
X0196778Y0173610D01*
X0193708Y0173610D02*
X0192941Y0172843D01*
X0193708Y0169006D02*
X0194476Y0169006D01*
X0195243Y0168239D01*
X0196010Y0169006D01*
X0196778Y0169006D01*
X0197545Y0168239D01*
X0197545Y0166704D01*
X0196778Y0165937D01*
X0195243Y0167472D02*
X0195243Y0168239D01*
X0193708Y0169006D02*
X0192941Y0168239D01*
X0192941Y0166704D01*
X0193708Y0165937D01*
X0163410Y0117177D02*
X0161898Y0117443D01*
X0161009Y0116821D01*
X0163410Y0117177D02*
X0164032Y0116288D01*
X0163899Y0115532D01*
X0160343Y0113042D01*
X0163366Y0112509D01*
X0164877Y0112243D02*
X0165410Y0115265D01*
X0167188Y0116510D01*
X0168433Y0114732D01*
X0167900Y0111710D01*
X0168300Y0113977D02*
X0165277Y0114510D01*
X0123851Y0106230D02*
X0123084Y0106998D01*
X0120782Y0106998D01*
X0120782Y0102394D01*
X0123084Y0102394D01*
X0123851Y0103161D01*
X0123851Y0106230D01*
X0119247Y0102394D02*
X0116178Y0102394D01*
X0117713Y0102394D02*
X0117713Y0106998D01*
X0116178Y0105463D01*
X0089043Y0203299D02*
X0089043Y0206368D01*
X0087509Y0207903D01*
X0085974Y0206368D01*
X0085974Y0203299D01*
X0084439Y0203299D02*
X0081370Y0203299D01*
X0082905Y0203299D02*
X0082905Y0207903D01*
X0081370Y0206368D01*
X0085974Y0205601D02*
X0089043Y0205601D01*
X0085682Y0212236D02*
X0083380Y0212236D01*
X0083380Y0216840D01*
X0085682Y0216840D01*
X0086450Y0216073D01*
X0086450Y0215305D01*
X0085682Y0214538D01*
X0083380Y0214538D01*
X0085682Y0214538D02*
X0086450Y0213771D01*
X0086450Y0213004D01*
X0085682Y0212236D01*
X0081846Y0212236D02*
X0078776Y0212236D01*
X0080311Y0212236D02*
X0080311Y0216840D01*
X0078776Y0215305D01*
X0431606Y0417018D02*
X0434676Y0417018D01*
X0433908Y0414717D02*
X0433908Y0419320D01*
X0431606Y0417018D01*
X0436210Y0414717D02*
X0436210Y0419320D01*
X0438512Y0419320D01*
X0439280Y0418553D01*
X0439280Y0415484D01*
X0438512Y0414717D01*
X0436210Y0414717D01*
D14*
X0196145Y0205056D02*
X0195817Y0205384D01*
X0195160Y0205384D01*
X0194831Y0205056D01*
X0194831Y0203743D01*
X0195160Y0203414D01*
X0195817Y0203414D01*
X0196145Y0203743D01*
D15*
X0197602Y0216064D02*
X0199453Y0216064D01*
X0200070Y0216681D01*
X0200070Y0219150D01*
X0199453Y0219767D01*
X0197602Y0219767D01*
X0197602Y0216064D01*
X0195770Y0217299D02*
X0196387Y0217916D01*
X0196387Y0219150D01*
X0195770Y0219767D01*
X0193919Y0219767D01*
X0193919Y0216064D01*
X0193919Y0217299D02*
X0195770Y0217299D01*
D16*
X0225973Y0218414D02*
X0225976Y0218635D01*
X0225984Y0218856D01*
X0225997Y0219077D01*
X0226016Y0219298D01*
X0226041Y0219518D01*
X0226071Y0219737D01*
X0226106Y0219955D01*
X0226146Y0220173D01*
X0226192Y0220389D01*
X0226243Y0220605D01*
X0226300Y0220819D01*
X0226361Y0221031D01*
X0226428Y0221242D01*
X0226500Y0221451D01*
X0226577Y0221659D01*
X0226659Y0221864D01*
X0226746Y0222068D01*
X0226839Y0222269D01*
X0226936Y0222468D01*
X0227038Y0222664D01*
X0227144Y0222858D01*
X0227256Y0223049D01*
X0227372Y0223238D01*
X0227492Y0223423D01*
X0227618Y0223605D01*
X0227747Y0223785D01*
X0227881Y0223961D01*
X0228020Y0224134D01*
X0228162Y0224303D01*
X0228309Y0224469D01*
X0228459Y0224631D01*
X0228614Y0224789D01*
X0228772Y0224944D01*
X0228934Y0225094D01*
X0229100Y0225241D01*
X0229269Y0225383D01*
X0229442Y0225522D01*
X0229618Y0225656D01*
X0229798Y0225785D01*
X0229980Y0225911D01*
X0230165Y0226031D01*
X0230354Y0226147D01*
X0230545Y0226259D01*
X0230739Y0226365D01*
X0230935Y0226467D01*
X0231134Y0226564D01*
X0231335Y0226657D01*
X0231539Y0226744D01*
X0231744Y0226826D01*
X0231952Y0226903D01*
X0232161Y0226975D01*
X0232372Y0227042D01*
X0232584Y0227103D01*
X0232798Y0227160D01*
X0233014Y0227211D01*
X0233230Y0227257D01*
X0233448Y0227297D01*
X0233666Y0227332D01*
X0233885Y0227362D01*
X0234105Y0227387D01*
X0234326Y0227406D01*
X0234547Y0227419D01*
X0234768Y0227427D01*
X0234989Y0227430D01*
X0235210Y0227427D01*
X0235431Y0227419D01*
X0235652Y0227406D01*
X0235873Y0227387D01*
X0236093Y0227362D01*
X0236312Y0227332D01*
X0236530Y0227297D01*
X0236748Y0227257D01*
X0236964Y0227211D01*
X0237180Y0227160D01*
X0237394Y0227103D01*
X0237606Y0227042D01*
X0237817Y0226975D01*
X0238026Y0226903D01*
X0238234Y0226826D01*
X0238439Y0226744D01*
X0238643Y0226657D01*
X0238844Y0226564D01*
X0239043Y0226467D01*
X0239239Y0226365D01*
X0239433Y0226259D01*
X0239624Y0226147D01*
X0239813Y0226031D01*
X0239998Y0225911D01*
X0240180Y0225785D01*
X0240360Y0225656D01*
X0240536Y0225522D01*
X0240709Y0225383D01*
X0240878Y0225241D01*
X0241044Y0225094D01*
X0241206Y0224944D01*
X0241364Y0224789D01*
X0241519Y0224631D01*
X0241669Y0224469D01*
X0241816Y0224303D01*
X0241958Y0224134D01*
X0242097Y0223961D01*
X0242231Y0223785D01*
X0242360Y0223605D01*
X0242486Y0223423D01*
X0242606Y0223238D01*
X0242722Y0223049D01*
X0242834Y0222858D01*
X0242940Y0222664D01*
X0243042Y0222468D01*
X0243139Y0222269D01*
X0243232Y0222068D01*
X0243319Y0221864D01*
X0243401Y0221659D01*
X0243478Y0221451D01*
X0243550Y0221242D01*
X0243617Y0221031D01*
X0243678Y0220819D01*
X0243735Y0220605D01*
X0243786Y0220389D01*
X0243832Y0220173D01*
X0243872Y0219955D01*
X0243907Y0219737D01*
X0243937Y0219518D01*
X0243962Y0219298D01*
X0243981Y0219077D01*
X0243994Y0218856D01*
X0244002Y0218635D01*
X0244005Y0218414D01*
X0244002Y0218193D01*
X0243994Y0217972D01*
X0243981Y0217751D01*
X0243962Y0217530D01*
X0243937Y0217310D01*
X0243907Y0217091D01*
X0243872Y0216873D01*
X0243832Y0216655D01*
X0243786Y0216439D01*
X0243735Y0216223D01*
X0243678Y0216009D01*
X0243617Y0215797D01*
X0243550Y0215586D01*
X0243478Y0215377D01*
X0243401Y0215169D01*
X0243319Y0214964D01*
X0243232Y0214760D01*
X0243139Y0214559D01*
X0243042Y0214360D01*
X0242940Y0214164D01*
X0242834Y0213970D01*
X0242722Y0213779D01*
X0242606Y0213590D01*
X0242486Y0213405D01*
X0242360Y0213223D01*
X0242231Y0213043D01*
X0242097Y0212867D01*
X0241958Y0212694D01*
X0241816Y0212525D01*
X0241669Y0212359D01*
X0241519Y0212197D01*
X0241364Y0212039D01*
X0241206Y0211884D01*
X0241044Y0211734D01*
X0240878Y0211587D01*
X0240709Y0211445D01*
X0240536Y0211306D01*
X0240360Y0211172D01*
X0240180Y0211043D01*
X0239998Y0210917D01*
X0239813Y0210797D01*
X0239624Y0210681D01*
X0239433Y0210569D01*
X0239239Y0210463D01*
X0239043Y0210361D01*
X0238844Y0210264D01*
X0238643Y0210171D01*
X0238439Y0210084D01*
X0238234Y0210002D01*
X0238026Y0209925D01*
X0237817Y0209853D01*
X0237606Y0209786D01*
X0237394Y0209725D01*
X0237180Y0209668D01*
X0236964Y0209617D01*
X0236748Y0209571D01*
X0236530Y0209531D01*
X0236312Y0209496D01*
X0236093Y0209466D01*
X0235873Y0209441D01*
X0235652Y0209422D01*
X0235431Y0209409D01*
X0235210Y0209401D01*
X0234989Y0209398D01*
X0234768Y0209401D01*
X0234547Y0209409D01*
X0234326Y0209422D01*
X0234105Y0209441D01*
X0233885Y0209466D01*
X0233666Y0209496D01*
X0233448Y0209531D01*
X0233230Y0209571D01*
X0233014Y0209617D01*
X0232798Y0209668D01*
X0232584Y0209725D01*
X0232372Y0209786D01*
X0232161Y0209853D01*
X0231952Y0209925D01*
X0231744Y0210002D01*
X0231539Y0210084D01*
X0231335Y0210171D01*
X0231134Y0210264D01*
X0230935Y0210361D01*
X0230739Y0210463D01*
X0230545Y0210569D01*
X0230354Y0210681D01*
X0230165Y0210797D01*
X0229980Y0210917D01*
X0229798Y0211043D01*
X0229618Y0211172D01*
X0229442Y0211306D01*
X0229269Y0211445D01*
X0229100Y0211587D01*
X0228934Y0211734D01*
X0228772Y0211884D01*
X0228614Y0212039D01*
X0228459Y0212197D01*
X0228309Y0212359D01*
X0228162Y0212525D01*
X0228020Y0212694D01*
X0227881Y0212867D01*
X0227747Y0213043D01*
X0227618Y0213223D01*
X0227492Y0213405D01*
X0227372Y0213590D01*
X0227256Y0213779D01*
X0227144Y0213970D01*
X0227038Y0214164D01*
X0226936Y0214360D01*
X0226839Y0214559D01*
X0226746Y0214760D01*
X0226659Y0214964D01*
X0226577Y0215169D01*
X0226500Y0215377D01*
X0226428Y0215586D01*
X0226361Y0215797D01*
X0226300Y0216009D01*
X0226243Y0216223D01*
X0226192Y0216439D01*
X0226146Y0216655D01*
X0226106Y0216873D01*
X0226071Y0217091D01*
X0226041Y0217310D01*
X0226016Y0217530D01*
X0225997Y0217751D01*
X0225984Y0217972D01*
X0225976Y0218193D01*
X0225973Y0218414D01*
X0247709Y0205347D02*
X0251178Y0202367D01*
X0252993Y0204434D01*
X0249524Y0207414D01*
X0248769Y0206603D01*
X0249690Y0207414D01*
X0248769Y0206603D01*
X0247709Y0205347D01*
X0247797Y0205272D02*
X0252017Y0205272D01*
X0251790Y0205467D02*
X0247811Y0205467D01*
X0247976Y0205663D02*
X0251563Y0205663D01*
X0251335Y0205858D02*
X0248140Y0205858D01*
X0248305Y0206054D02*
X0251108Y0206054D01*
X0250881Y0206249D02*
X0248470Y0206249D01*
X0248635Y0206444D02*
X0250653Y0206444D01*
X0250426Y0206640D02*
X0248810Y0206640D01*
X0248802Y0206640D01*
X0248985Y0206835D02*
X0249032Y0206835D01*
X0250198Y0206835D01*
X0249971Y0207030D02*
X0249254Y0207030D01*
X0249167Y0207030D01*
X0249349Y0207226D02*
X0249476Y0207226D01*
X0249744Y0207226D01*
X0248024Y0205077D02*
X0252245Y0205077D01*
X0252472Y0204881D02*
X0248252Y0204881D01*
X0248479Y0204686D02*
X0252699Y0204686D01*
X0252927Y0204491D02*
X0248706Y0204491D01*
X0248934Y0204295D02*
X0252871Y0204295D01*
X0252700Y0204100D02*
X0249161Y0204100D01*
X0249388Y0203905D02*
X0252528Y0203905D01*
X0252357Y0203709D02*
X0249616Y0203709D01*
X0249843Y0203514D02*
X0252185Y0203514D01*
X0252013Y0203318D02*
X0250071Y0203318D01*
X0250298Y0203123D02*
X0251842Y0203123D01*
X0251670Y0202928D02*
X0250525Y0202928D01*
X0250753Y0202732D02*
X0251499Y0202732D01*
X0251327Y0202537D02*
X0250980Y0202537D01*
D17*
X0215261Y0214752D02*
X0215261Y0215253D01*
X0215011Y0215503D01*
X0215261Y0215975D02*
X0215261Y0216976D01*
X0215261Y0216476D02*
X0213760Y0216476D01*
X0214261Y0215975D01*
X0214010Y0215503D02*
X0213760Y0215253D01*
X0213760Y0214752D01*
X0214010Y0214502D01*
X0215011Y0214502D01*
X0215261Y0214752D01*
X0206511Y0214529D02*
X0205010Y0214529D01*
X0205511Y0214029D01*
X0206261Y0213542D02*
X0206511Y0213542D01*
X0206511Y0213292D01*
X0206261Y0213292D01*
X0206261Y0213542D01*
X0206511Y0214029D02*
X0206511Y0215029D01*
X0206261Y0215502D02*
X0206511Y0215752D01*
X0206511Y0216503D01*
X0205511Y0216503D01*
X0205761Y0216975D02*
X0205761Y0217476D01*
X0205010Y0216975D02*
X0205010Y0217976D01*
X0205010Y0216975D02*
X0206511Y0216975D01*
X0206261Y0215502D02*
X0205511Y0215502D01*
X0205260Y0212820D02*
X0206261Y0211819D01*
X0206511Y0212069D01*
X0206511Y0212569D01*
X0206261Y0212820D01*
X0205260Y0212820D01*
X0205010Y0212569D01*
X0205010Y0212069D01*
X0205260Y0211819D01*
X0206261Y0211819D01*
M02*
