G75*
%MOIN*%
%OFA0B0*%
%FSLAX25Y25*%
%IPPOS*%
%LPD*%
%AMOC8*
5,1,8,0,0,1.08239X$1,22.5*
%
%ADD10C,0.01600*%
%ADD11R,0.05792X0.05792*%
%ADD12C,0.03162*%
%ADD13R,0.05792X0.05792*%
%ADD14C,0.05950*%
%ADD15R,0.10249X0.10249*%
%ADD16C,0.17635*%
D10*
X0082509Y0049044D02*
X0082509Y0096288D01*
X0417154Y0098257D01*
X0417154Y0051013D01*
X0082509Y0049044D01*
X0082509Y0049177D02*
X0105104Y0049177D01*
X0082509Y0050776D02*
X0376850Y0050776D01*
X0373847Y0050776D02*
X0395501Y0050776D01*
X0395501Y0052374D02*
X0373847Y0052374D01*
X0373847Y0053973D02*
X0395501Y0053973D01*
X0395501Y0055571D02*
X0373847Y0055571D01*
X0373847Y0057170D02*
X0395501Y0057170D01*
X0395501Y0058768D02*
X0373847Y0058768D01*
X0373847Y0060367D02*
X0395501Y0060367D01*
X0395501Y0061965D02*
X0373847Y0061965D01*
X0373847Y0063564D02*
X0395501Y0063564D01*
X0395501Y0065162D02*
X0373847Y0065162D01*
X0373847Y0066761D02*
X0395501Y0066761D01*
X0395501Y0068359D02*
X0373847Y0068359D01*
X0373847Y0069958D02*
X0395501Y0069958D01*
X0395501Y0071556D02*
X0373847Y0071556D01*
X0373847Y0073155D02*
X0395501Y0073155D01*
X0395501Y0074753D02*
X0373847Y0074753D01*
X0373847Y0076352D02*
X0395501Y0076352D01*
X0395501Y0077950D02*
X0373847Y0077950D01*
X0373847Y0079549D02*
X0395501Y0079549D01*
X0395501Y0081147D02*
X0373847Y0081147D01*
X0373847Y0082746D02*
X0395501Y0082746D01*
X0395501Y0084344D02*
X0373847Y0084344D01*
X0373847Y0085943D02*
X0395501Y0085943D01*
X0395501Y0087541D02*
X0373847Y0087541D01*
X0373847Y0089140D02*
X0395501Y0089140D01*
X0395501Y0090738D02*
X0373847Y0090738D01*
X0373847Y0092337D02*
X0395501Y0092337D01*
X0395501Y0093935D02*
X0373847Y0093935D01*
X0373847Y0095534D02*
X0395501Y0095534D01*
X0395501Y0097132D02*
X0373847Y0097132D01*
X0373847Y0098731D02*
X0395501Y0098731D01*
X0395501Y0100329D02*
X0373847Y0100329D01*
X0373847Y0101928D02*
X0395501Y0101928D01*
X0395501Y0103526D02*
X0373847Y0103526D01*
X0373847Y0105125D02*
X0395501Y0105125D01*
X0395501Y0106723D02*
X0373847Y0106723D01*
X0373847Y0108322D02*
X0395501Y0108322D01*
X0395501Y0109920D02*
X0373847Y0109920D01*
X0373847Y0111519D02*
X0395501Y0111519D01*
X0395501Y0113117D02*
X0373847Y0113117D01*
X0373847Y0114716D02*
X0395501Y0114716D01*
X0395501Y0116314D02*
X0373847Y0116314D01*
X0373847Y0117913D02*
X0395501Y0117913D01*
X0395501Y0119512D02*
X0373847Y0119512D01*
X0373847Y0121110D02*
X0395501Y0121110D01*
X0395501Y0122709D02*
X0373847Y0122709D01*
X0373847Y0124307D02*
X0395501Y0124307D01*
X0395501Y0125906D02*
X0373847Y0125906D01*
X0373847Y0127504D02*
X0395501Y0127504D01*
X0395501Y0129103D02*
X0373847Y0129103D01*
X0373847Y0130701D02*
X0395501Y0130701D01*
X0395501Y0132300D02*
X0373847Y0132300D01*
X0373847Y0133898D02*
X0395501Y0133898D01*
X0395501Y0135497D02*
X0373847Y0135497D01*
X0373847Y0137095D02*
X0395501Y0137095D01*
X0395501Y0138694D02*
X0373847Y0138694D01*
X0373847Y0140292D02*
X0395501Y0140292D01*
X0395501Y0141891D02*
X0373847Y0141891D01*
X0373847Y0143489D02*
X0395501Y0143489D01*
X0395501Y0145088D02*
X0373847Y0145088D01*
X0373847Y0146686D02*
X0395501Y0146686D01*
X0395501Y0148285D02*
X0373847Y0148285D01*
X0373847Y0149883D02*
X0395501Y0149883D01*
X0395501Y0151482D02*
X0373847Y0151482D01*
X0373847Y0153080D02*
X0395501Y0153080D01*
X0395501Y0154679D02*
X0373847Y0154679D01*
X0373847Y0156277D02*
X0395501Y0156277D01*
X0395501Y0157876D02*
X0373847Y0157876D01*
X0373847Y0159474D02*
X0395501Y0159474D01*
X0395501Y0161073D02*
X0373847Y0161073D01*
X0373847Y0162671D02*
X0395501Y0162671D01*
X0395501Y0164270D02*
X0373847Y0164270D01*
X0373847Y0165868D02*
X0395501Y0165868D01*
X0395501Y0167467D02*
X0373847Y0167467D01*
X0373847Y0169065D02*
X0395501Y0169065D01*
X0395501Y0170664D02*
X0373847Y0170664D01*
X0373847Y0172262D02*
X0395501Y0172262D01*
X0395501Y0173861D02*
X0373847Y0173861D01*
X0373847Y0175459D02*
X0395501Y0175459D01*
X0395501Y0177058D02*
X0373847Y0177058D01*
X0373847Y0178656D02*
X0395501Y0178656D01*
X0395501Y0180255D02*
X0373847Y0180255D01*
X0373847Y0181853D02*
X0395501Y0181853D01*
X0395501Y0183452D02*
X0373847Y0183452D01*
X0373847Y0185050D02*
X0395501Y0185050D01*
X0395501Y0186649D02*
X0373847Y0186649D01*
X0373847Y0188247D02*
X0395501Y0188247D01*
X0395501Y0189846D02*
X0373847Y0189846D01*
X0373847Y0191445D02*
X0395501Y0191445D01*
X0395501Y0193043D02*
X0373847Y0193043D01*
X0373847Y0194642D02*
X0395501Y0194642D01*
X0395501Y0196240D02*
X0373847Y0196240D01*
X0373847Y0197839D02*
X0395501Y0197839D01*
X0395501Y0199437D02*
X0373847Y0199437D01*
X0373847Y0201036D02*
X0395501Y0201036D01*
X0395501Y0202634D02*
X0373847Y0202634D01*
X0373847Y0204233D02*
X0395501Y0204233D01*
X0395501Y0205831D02*
X0373847Y0205831D01*
X0373847Y0207430D02*
X0395501Y0207430D01*
X0395501Y0209028D02*
X0373847Y0209028D01*
X0373847Y0210627D02*
X0395501Y0210627D01*
X0395501Y0212225D02*
X0373847Y0212225D01*
X0373847Y0213824D02*
X0395501Y0213824D01*
X0395501Y0215422D02*
X0373847Y0215422D01*
X0373847Y0217021D02*
X0395501Y0217021D01*
X0395501Y0218619D02*
X0373847Y0218619D01*
X0373847Y0220218D02*
X0395501Y0220218D01*
X0395501Y0221816D02*
X0373847Y0221816D01*
X0373847Y0223415D02*
X0395501Y0223415D01*
X0395501Y0225013D02*
X0373847Y0225013D01*
X0373847Y0226612D02*
X0395501Y0226612D01*
X0395501Y0228210D02*
X0373847Y0228210D01*
X0373847Y0229809D02*
X0395501Y0229809D01*
X0395501Y0231407D02*
X0373847Y0231407D01*
X0373847Y0233006D02*
X0395501Y0233006D01*
X0395501Y0234604D02*
X0373847Y0234604D01*
X0373847Y0236203D02*
X0395501Y0236203D01*
X0395501Y0237801D02*
X0373847Y0237801D01*
X0373847Y0239400D02*
X0395501Y0239400D01*
X0395501Y0240998D02*
X0373847Y0240998D01*
X0373847Y0242597D02*
X0395501Y0242597D01*
X0395501Y0244195D02*
X0373847Y0244195D01*
X0373847Y0245794D02*
X0395501Y0245794D01*
X0395501Y0247392D02*
X0373847Y0247392D01*
X0373847Y0248991D02*
X0395501Y0248991D01*
X0395501Y0250589D02*
X0373847Y0250589D01*
X0373847Y0252188D02*
X0395501Y0252188D01*
X0395501Y0253786D02*
X0373847Y0253786D01*
X0373847Y0255385D02*
X0395501Y0255385D01*
X0395501Y0256983D02*
X0373847Y0256983D01*
X0373847Y0258582D02*
X0395501Y0258582D01*
X0395501Y0260180D02*
X0373847Y0260180D01*
X0373847Y0261779D02*
X0395501Y0261779D01*
X0395501Y0263378D02*
X0373847Y0263378D01*
X0373847Y0264976D02*
X0395501Y0264976D01*
X0395501Y0266575D02*
X0373847Y0266575D01*
X0373847Y0268173D02*
X0395501Y0268173D01*
X0395501Y0269772D02*
X0373847Y0269772D01*
X0373847Y0271370D02*
X0395501Y0271370D01*
X0395501Y0272969D02*
X0373847Y0272969D01*
X0373847Y0274567D02*
X0395501Y0274567D01*
X0395501Y0276166D02*
X0373847Y0276166D01*
X0373847Y0277764D02*
X0395501Y0277764D01*
X0395501Y0279363D02*
X0373847Y0279363D01*
X0373847Y0280961D02*
X0395501Y0280961D01*
X0395501Y0282560D02*
X0373847Y0282560D01*
X0373847Y0284158D02*
X0395501Y0284158D01*
X0395501Y0285757D02*
X0373847Y0285757D01*
X0373847Y0287355D02*
X0395501Y0287355D01*
X0395501Y0288954D02*
X0373847Y0288954D01*
X0373847Y0290552D02*
X0395501Y0290552D01*
X0395501Y0292151D02*
X0373847Y0292151D01*
X0373847Y0293749D02*
X0395501Y0293749D01*
X0395501Y0295348D02*
X0373847Y0295348D01*
X0373847Y0296946D02*
X0395501Y0296946D01*
X0395501Y0298545D02*
X0373847Y0298545D01*
X0373847Y0300143D02*
X0395501Y0300143D01*
X0395501Y0301742D02*
X0373847Y0301742D01*
X0373847Y0303340D02*
X0395501Y0303340D01*
X0395501Y0304939D02*
X0373847Y0304939D01*
X0373847Y0306537D02*
X0395501Y0306537D01*
X0395501Y0308136D02*
X0373847Y0308136D01*
X0373847Y0309734D02*
X0395501Y0309734D01*
X0395501Y0311333D02*
X0373847Y0311333D01*
X0373847Y0312931D02*
X0395501Y0312931D01*
X0395501Y0314530D02*
X0373847Y0314530D01*
X0373847Y0316128D02*
X0395501Y0316128D01*
X0395501Y0317727D02*
X0373847Y0317727D01*
X0373847Y0319325D02*
X0395501Y0319325D01*
X0395501Y0320924D02*
X0373847Y0320924D01*
X0373847Y0322522D02*
X0395501Y0322522D01*
X0395501Y0324121D02*
X0373847Y0324121D01*
X0373847Y0325719D02*
X0395501Y0325719D01*
X0395501Y0327318D02*
X0373847Y0327318D01*
X0373847Y0328916D02*
X0395501Y0328916D01*
X0395501Y0330515D02*
X0373847Y0330515D01*
X0373847Y0332114D02*
X0395501Y0332114D01*
X0395501Y0333712D02*
X0373847Y0333712D01*
X0373847Y0335311D02*
X0395501Y0335311D01*
X0395501Y0336909D02*
X0373847Y0336909D01*
X0373847Y0338508D02*
X0395501Y0338508D01*
X0395501Y0340106D02*
X0373847Y0340106D01*
X0373847Y0341705D02*
X0395501Y0341705D01*
X0395501Y0343303D02*
X0373847Y0343303D01*
X0373847Y0344902D02*
X0395501Y0344902D01*
X0395501Y0346500D02*
X0373847Y0346500D01*
X0373847Y0348099D02*
X0395501Y0348099D01*
X0395501Y0349697D02*
X0373847Y0349697D01*
X0373847Y0351296D02*
X0395501Y0351296D01*
X0395501Y0352894D02*
X0373847Y0352894D01*
X0373847Y0354493D02*
X0395501Y0354493D01*
X0395501Y0356091D02*
X0373847Y0356091D01*
X0373847Y0357690D02*
X0395501Y0357690D01*
X0395501Y0359288D02*
X0373847Y0359288D01*
X0373847Y0360887D02*
X0395501Y0360887D01*
X0395501Y0362485D02*
X0373847Y0362485D01*
X0373847Y0364084D02*
X0395501Y0364084D01*
X0395501Y0365682D02*
X0373847Y0365682D01*
X0373847Y0367281D02*
X0395501Y0367281D01*
X0395501Y0368879D02*
X0373847Y0368879D01*
X0373847Y0370478D02*
X0395501Y0370478D01*
X0395501Y0372076D02*
X0373847Y0372076D01*
X0373847Y0373675D02*
X0395501Y0373675D01*
X0395501Y0375273D02*
X0373847Y0375273D01*
X0373847Y0376872D02*
X0395501Y0376872D01*
X0395501Y0378470D02*
X0373847Y0378470D01*
X0373847Y0380069D02*
X0395501Y0380069D01*
X0395501Y0381667D02*
X0373847Y0381667D01*
X0373847Y0383266D02*
X0395501Y0383266D01*
X0395501Y0384864D02*
X0373847Y0384864D01*
X0373847Y0386463D02*
X0395501Y0386463D01*
X0395501Y0388061D02*
X0373847Y0388061D01*
X0373847Y0389660D02*
X0395501Y0389660D01*
X0395501Y0391258D02*
X0373847Y0391258D01*
X0373847Y0392857D02*
X0395501Y0392857D01*
X0395501Y0394455D02*
X0373847Y0394455D01*
X0373847Y0396054D02*
X0395501Y0396054D01*
X0395501Y0397652D02*
X0373847Y0397652D01*
X0373847Y0399251D02*
X0395501Y0399251D01*
X0395501Y0400849D02*
X0373847Y0400849D01*
X0373847Y0402448D02*
X0395501Y0402448D01*
X0395501Y0404047D02*
X0373847Y0404047D01*
X0373847Y0405645D02*
X0395501Y0405645D01*
X0395501Y0407244D02*
X0373847Y0407244D01*
X0373847Y0408842D02*
X0395501Y0408842D01*
X0395501Y0410441D02*
X0373847Y0410441D01*
X0373847Y0412039D02*
X0395501Y0412039D01*
X0395501Y0413638D02*
X0373847Y0413638D01*
X0373847Y0415236D02*
X0395501Y0415236D01*
X0395501Y0416835D02*
X0373847Y0416835D01*
X0373847Y0418433D02*
X0395501Y0418433D01*
X0395501Y0420032D02*
X0373847Y0420032D01*
X0373847Y0421630D02*
X0395501Y0421630D01*
X0395501Y0423229D02*
X0373847Y0423229D01*
X0373847Y0424827D02*
X0395501Y0424827D01*
X0395501Y0426426D02*
X0373847Y0426426D01*
X0373847Y0428024D02*
X0395501Y0428024D01*
X0395501Y0429623D02*
X0373847Y0429623D01*
X0373847Y0431221D02*
X0395501Y0431221D01*
X0395501Y0432820D02*
X0373847Y0432820D01*
X0373847Y0434418D02*
X0395501Y0434418D01*
X0395501Y0436017D02*
X0373847Y0436017D01*
X0373847Y0437615D02*
X0395501Y0437615D01*
X0395501Y0439214D02*
X0373847Y0439214D01*
X0373847Y0440812D02*
X0395501Y0440812D01*
X0395501Y0442411D02*
X0373847Y0442411D01*
X0373847Y0444009D02*
X0395501Y0444009D01*
X0395501Y0445608D02*
X0373847Y0445608D01*
X0373847Y0447206D02*
X0395501Y0447206D01*
X0395501Y0448805D02*
X0373847Y0448805D01*
X0373847Y0450403D02*
X0395501Y0450403D01*
X0395501Y0452002D02*
X0373847Y0452002D01*
X0373847Y0453600D02*
X0395501Y0453600D01*
X0395501Y0455199D02*
X0373847Y0455199D01*
X0373847Y0456797D02*
X0395501Y0456797D01*
X0395501Y0458396D02*
X0373847Y0458396D01*
X0373847Y0459994D02*
X0395501Y0459994D01*
X0395501Y0461593D02*
X0373847Y0461593D01*
X0373847Y0463191D02*
X0395501Y0463191D01*
X0395501Y0464790D02*
X0373847Y0464790D01*
X0373847Y0466388D02*
X0395501Y0466388D01*
X0395501Y0467987D02*
X0373847Y0467987D01*
X0373847Y0469585D02*
X0395501Y0469585D01*
X0395501Y0470304D02*
X0373847Y0470304D01*
X0373847Y0045107D01*
X0395501Y0045107D01*
X0395501Y0470304D01*
X0417154Y0468335D02*
X0417154Y0428965D01*
X0076603Y0428965D01*
X0076603Y0468335D01*
X0417154Y0468335D01*
X0417154Y0467987D02*
X0076603Y0467987D01*
X0076603Y0466388D02*
X0417154Y0466388D01*
X0417154Y0464790D02*
X0076603Y0464790D01*
X0076603Y0463191D02*
X0417154Y0463191D01*
X0417154Y0461593D02*
X0076603Y0461593D01*
X0076603Y0459994D02*
X0417154Y0459994D01*
X0417154Y0458396D02*
X0076603Y0458396D01*
X0076603Y0456797D02*
X0417154Y0456797D01*
X0417154Y0455199D02*
X0076603Y0455199D01*
X0076603Y0453600D02*
X0417154Y0453600D01*
X0417154Y0452002D02*
X0076603Y0452002D01*
X0076603Y0450403D02*
X0417154Y0450403D01*
X0417154Y0448805D02*
X0076603Y0448805D01*
X0076603Y0447206D02*
X0417154Y0447206D01*
X0417154Y0445608D02*
X0076603Y0445608D01*
X0076603Y0444009D02*
X0417154Y0444009D01*
X0417154Y0442411D02*
X0076603Y0442411D01*
X0076603Y0440812D02*
X0417154Y0440812D01*
X0417154Y0439214D02*
X0076603Y0439214D01*
X0076603Y0437615D02*
X0417154Y0437615D01*
X0417154Y0436017D02*
X0076603Y0436017D01*
X0076603Y0434418D02*
X0417154Y0434418D01*
X0417154Y0432820D02*
X0076603Y0432820D01*
X0076603Y0431221D02*
X0417154Y0431221D01*
X0417154Y0429623D02*
X0076603Y0429623D01*
X0086446Y0429623D02*
X0056918Y0429623D01*
X0056918Y0430934D02*
X0086446Y0430934D01*
X0086446Y0090383D01*
X0056918Y0090383D01*
X0056918Y0430934D01*
X0056918Y0428024D02*
X0086446Y0428024D01*
X0086446Y0426426D02*
X0056918Y0426426D01*
X0056918Y0424827D02*
X0086446Y0424827D01*
X0086446Y0423229D02*
X0056918Y0423229D01*
X0056918Y0421630D02*
X0086446Y0421630D01*
X0086446Y0420032D02*
X0056918Y0420032D01*
X0056918Y0418433D02*
X0086446Y0418433D01*
X0086446Y0416835D02*
X0056918Y0416835D01*
X0056918Y0415236D02*
X0086446Y0415236D01*
X0086446Y0413638D02*
X0056918Y0413638D01*
X0056918Y0412039D02*
X0086446Y0412039D01*
X0086446Y0410441D02*
X0056918Y0410441D01*
X0056918Y0408842D02*
X0086446Y0408842D01*
X0086446Y0407244D02*
X0056918Y0407244D01*
X0056918Y0405645D02*
X0086446Y0405645D01*
X0086446Y0404047D02*
X0056918Y0404047D01*
X0056918Y0402448D02*
X0086446Y0402448D01*
X0086446Y0400849D02*
X0056918Y0400849D01*
X0056918Y0399251D02*
X0086446Y0399251D01*
X0086446Y0397652D02*
X0056918Y0397652D01*
X0056918Y0396054D02*
X0086446Y0396054D01*
X0086446Y0394455D02*
X0056918Y0394455D01*
X0056918Y0392857D02*
X0086446Y0392857D01*
X0086446Y0391258D02*
X0056918Y0391258D01*
X0056918Y0389660D02*
X0086446Y0389660D01*
X0086446Y0388061D02*
X0056918Y0388061D01*
X0056918Y0386463D02*
X0086446Y0386463D01*
X0086446Y0384864D02*
X0056918Y0384864D01*
X0056918Y0383266D02*
X0086446Y0383266D01*
X0086446Y0381667D02*
X0056918Y0381667D01*
X0056918Y0380069D02*
X0086446Y0380069D01*
X0086446Y0378470D02*
X0056918Y0378470D01*
X0056918Y0376872D02*
X0086446Y0376872D01*
X0086446Y0375273D02*
X0056918Y0375273D01*
X0056918Y0373675D02*
X0086446Y0373675D01*
X0086446Y0372076D02*
X0056918Y0372076D01*
X0056918Y0370478D02*
X0086446Y0370478D01*
X0086446Y0368879D02*
X0056918Y0368879D01*
X0056918Y0367281D02*
X0086446Y0367281D01*
X0086446Y0365682D02*
X0056918Y0365682D01*
X0056918Y0364084D02*
X0086446Y0364084D01*
X0086446Y0362485D02*
X0056918Y0362485D01*
X0056918Y0360887D02*
X0086446Y0360887D01*
X0086446Y0359288D02*
X0056918Y0359288D01*
X0056918Y0357690D02*
X0086446Y0357690D01*
X0086446Y0356091D02*
X0056918Y0356091D01*
X0056918Y0354493D02*
X0086446Y0354493D01*
X0086446Y0352894D02*
X0056918Y0352894D01*
X0056918Y0351296D02*
X0086446Y0351296D01*
X0086446Y0349697D02*
X0056918Y0349697D01*
X0056918Y0348099D02*
X0086446Y0348099D01*
X0086446Y0346500D02*
X0056918Y0346500D01*
X0056918Y0344902D02*
X0086446Y0344902D01*
X0086446Y0343303D02*
X0056918Y0343303D01*
X0056918Y0341705D02*
X0086446Y0341705D01*
X0086446Y0340106D02*
X0056918Y0340106D01*
X0056918Y0338508D02*
X0086446Y0338508D01*
X0086446Y0336909D02*
X0056918Y0336909D01*
X0056918Y0335311D02*
X0086446Y0335311D01*
X0086446Y0333712D02*
X0056918Y0333712D01*
X0056918Y0332114D02*
X0086446Y0332114D01*
X0086446Y0330515D02*
X0056918Y0330515D01*
X0056918Y0328916D02*
X0086446Y0328916D01*
X0086446Y0327318D02*
X0056918Y0327318D01*
X0056918Y0325719D02*
X0086446Y0325719D01*
X0086446Y0324121D02*
X0056918Y0324121D01*
X0056918Y0322522D02*
X0086446Y0322522D01*
X0086446Y0320924D02*
X0056918Y0320924D01*
X0056918Y0319325D02*
X0086446Y0319325D01*
X0086446Y0317727D02*
X0056918Y0317727D01*
X0056918Y0316128D02*
X0086446Y0316128D01*
X0086446Y0314530D02*
X0056918Y0314530D01*
X0056918Y0312931D02*
X0086446Y0312931D01*
X0086446Y0311333D02*
X0056918Y0311333D01*
X0056918Y0309734D02*
X0086446Y0309734D01*
X0086446Y0308136D02*
X0056918Y0308136D01*
X0056918Y0306537D02*
X0086446Y0306537D01*
X0086446Y0304939D02*
X0056918Y0304939D01*
X0056918Y0303340D02*
X0086446Y0303340D01*
X0086446Y0301742D02*
X0056918Y0301742D01*
X0056918Y0300143D02*
X0086446Y0300143D01*
X0086446Y0298545D02*
X0056918Y0298545D01*
X0056918Y0296946D02*
X0086446Y0296946D01*
X0086446Y0295348D02*
X0056918Y0295348D01*
X0056918Y0293749D02*
X0086446Y0293749D01*
X0086446Y0292151D02*
X0056918Y0292151D01*
X0056918Y0290552D02*
X0086446Y0290552D01*
X0086446Y0288954D02*
X0056918Y0288954D01*
X0056918Y0287355D02*
X0086446Y0287355D01*
X0086446Y0285757D02*
X0056918Y0285757D01*
X0056918Y0284158D02*
X0086446Y0284158D01*
X0086446Y0282560D02*
X0056918Y0282560D01*
X0056918Y0280961D02*
X0086446Y0280961D01*
X0086446Y0279363D02*
X0056918Y0279363D01*
X0056918Y0277764D02*
X0086446Y0277764D01*
X0086446Y0276166D02*
X0056918Y0276166D01*
X0056918Y0274567D02*
X0086446Y0274567D01*
X0086446Y0272969D02*
X0056918Y0272969D01*
X0056918Y0271370D02*
X0086446Y0271370D01*
X0086446Y0269772D02*
X0056918Y0269772D01*
X0056918Y0268173D02*
X0086446Y0268173D01*
X0086446Y0266575D02*
X0056918Y0266575D01*
X0056918Y0264976D02*
X0086446Y0264976D01*
X0086446Y0263378D02*
X0056918Y0263378D01*
X0056918Y0261779D02*
X0086446Y0261779D01*
X0086446Y0260180D02*
X0056918Y0260180D01*
X0056918Y0258582D02*
X0086446Y0258582D01*
X0086446Y0256983D02*
X0056918Y0256983D01*
X0056918Y0255385D02*
X0086446Y0255385D01*
X0086446Y0253786D02*
X0056918Y0253786D01*
X0056918Y0252188D02*
X0086446Y0252188D01*
X0086446Y0250589D02*
X0056918Y0250589D01*
X0056918Y0248991D02*
X0086446Y0248991D01*
X0086446Y0247392D02*
X0056918Y0247392D01*
X0056918Y0245794D02*
X0086446Y0245794D01*
X0086446Y0244195D02*
X0056918Y0244195D01*
X0056918Y0242597D02*
X0086446Y0242597D01*
X0086446Y0240998D02*
X0056918Y0240998D01*
X0056918Y0239400D02*
X0086446Y0239400D01*
X0086446Y0237801D02*
X0056918Y0237801D01*
X0056918Y0236203D02*
X0086446Y0236203D01*
X0086446Y0234604D02*
X0056918Y0234604D01*
X0056918Y0233006D02*
X0086446Y0233006D01*
X0086446Y0231407D02*
X0056918Y0231407D01*
X0056918Y0229809D02*
X0086446Y0229809D01*
X0086446Y0228210D02*
X0056918Y0228210D01*
X0056918Y0226612D02*
X0086446Y0226612D01*
X0086446Y0225013D02*
X0056918Y0225013D01*
X0056918Y0223415D02*
X0086446Y0223415D01*
X0086446Y0221816D02*
X0056918Y0221816D01*
X0056918Y0220218D02*
X0086446Y0220218D01*
X0086446Y0218619D02*
X0056918Y0218619D01*
X0056918Y0217021D02*
X0086446Y0217021D01*
X0086446Y0215422D02*
X0056918Y0215422D01*
X0056918Y0213824D02*
X0086446Y0213824D01*
X0086446Y0212225D02*
X0056918Y0212225D01*
X0056918Y0210627D02*
X0086446Y0210627D01*
X0086446Y0209028D02*
X0056918Y0209028D01*
X0056918Y0207430D02*
X0086446Y0207430D01*
X0086446Y0205831D02*
X0056918Y0205831D01*
X0056918Y0204233D02*
X0086446Y0204233D01*
X0086446Y0202634D02*
X0056918Y0202634D01*
X0056918Y0201036D02*
X0086446Y0201036D01*
X0086446Y0199437D02*
X0056918Y0199437D01*
X0056918Y0197839D02*
X0086446Y0197839D01*
X0086446Y0196240D02*
X0056918Y0196240D01*
X0056918Y0194642D02*
X0086446Y0194642D01*
X0086446Y0193043D02*
X0056918Y0193043D01*
X0056918Y0191445D02*
X0086446Y0191445D01*
X0086446Y0189846D02*
X0056918Y0189846D01*
X0056918Y0188247D02*
X0086446Y0188247D01*
X0086446Y0186649D02*
X0056918Y0186649D01*
X0056918Y0185050D02*
X0086446Y0185050D01*
X0086446Y0183452D02*
X0056918Y0183452D01*
X0056918Y0181853D02*
X0086446Y0181853D01*
X0086446Y0180255D02*
X0056918Y0180255D01*
X0056918Y0178656D02*
X0086446Y0178656D01*
X0086446Y0177058D02*
X0056918Y0177058D01*
X0056918Y0175459D02*
X0086446Y0175459D01*
X0086446Y0173861D02*
X0056918Y0173861D01*
X0056918Y0172262D02*
X0086446Y0172262D01*
X0086446Y0170664D02*
X0056918Y0170664D01*
X0056918Y0169065D02*
X0086446Y0169065D01*
X0086446Y0167467D02*
X0056918Y0167467D01*
X0056918Y0165868D02*
X0086446Y0165868D01*
X0086446Y0164270D02*
X0056918Y0164270D01*
X0056918Y0162671D02*
X0086446Y0162671D01*
X0086446Y0161073D02*
X0056918Y0161073D01*
X0056918Y0159474D02*
X0086446Y0159474D01*
X0086446Y0157876D02*
X0056918Y0157876D01*
X0056918Y0156277D02*
X0086446Y0156277D01*
X0086446Y0154679D02*
X0056918Y0154679D01*
X0056918Y0153080D02*
X0086446Y0153080D01*
X0086446Y0151482D02*
X0056918Y0151482D01*
X0056918Y0149883D02*
X0086446Y0149883D01*
X0086446Y0148285D02*
X0056918Y0148285D01*
X0056918Y0146686D02*
X0086446Y0146686D01*
X0086446Y0145088D02*
X0056918Y0145088D01*
X0056918Y0143489D02*
X0086446Y0143489D01*
X0086446Y0141891D02*
X0056918Y0141891D01*
X0056918Y0140292D02*
X0086446Y0140292D01*
X0086446Y0138694D02*
X0056918Y0138694D01*
X0056918Y0137095D02*
X0086446Y0137095D01*
X0086446Y0135497D02*
X0056918Y0135497D01*
X0056918Y0133898D02*
X0086446Y0133898D01*
X0086446Y0132300D02*
X0056918Y0132300D01*
X0056918Y0130701D02*
X0086446Y0130701D01*
X0086446Y0129103D02*
X0056918Y0129103D01*
X0056918Y0127504D02*
X0086446Y0127504D01*
X0086446Y0125906D02*
X0056918Y0125906D01*
X0056918Y0124307D02*
X0086446Y0124307D01*
X0086446Y0122709D02*
X0056918Y0122709D01*
X0056918Y0121110D02*
X0086446Y0121110D01*
X0086446Y0119512D02*
X0056918Y0119512D01*
X0056918Y0117913D02*
X0086446Y0117913D01*
X0086446Y0116314D02*
X0056918Y0116314D01*
X0056918Y0114716D02*
X0086446Y0114716D01*
X0086446Y0113117D02*
X0056918Y0113117D01*
X0056918Y0111519D02*
X0086446Y0111519D01*
X0086446Y0109920D02*
X0056918Y0109920D01*
X0056918Y0108322D02*
X0086446Y0108322D01*
X0086446Y0106723D02*
X0056918Y0106723D01*
X0056918Y0105125D02*
X0086446Y0105125D01*
X0086446Y0103526D02*
X0056918Y0103526D01*
X0056918Y0101928D02*
X0086446Y0101928D01*
X0086446Y0100329D02*
X0056918Y0100329D01*
X0056918Y0098731D02*
X0086446Y0098731D01*
X0086446Y0097132D02*
X0056918Y0097132D01*
X0056918Y0095534D02*
X0086446Y0095534D01*
X0086446Y0093935D02*
X0056918Y0093935D01*
X0056918Y0092337D02*
X0086446Y0092337D01*
X0086446Y0090738D02*
X0056918Y0090738D01*
X0082509Y0090738D02*
X0417154Y0090738D01*
X0417154Y0089140D02*
X0082509Y0089140D01*
X0082509Y0087541D02*
X0417154Y0087541D01*
X0417154Y0085943D02*
X0082509Y0085943D01*
X0082509Y0084344D02*
X0417154Y0084344D01*
X0417154Y0082746D02*
X0082509Y0082746D01*
X0082509Y0081147D02*
X0417154Y0081147D01*
X0417154Y0079549D02*
X0082509Y0079549D01*
X0082509Y0077950D02*
X0417154Y0077950D01*
X0417154Y0076352D02*
X0082509Y0076352D01*
X0082509Y0074753D02*
X0417154Y0074753D01*
X0417154Y0073155D02*
X0082509Y0073155D01*
X0082509Y0071556D02*
X0417154Y0071556D01*
X0417154Y0069958D02*
X0082509Y0069958D01*
X0082509Y0068359D02*
X0417154Y0068359D01*
X0417154Y0066761D02*
X0082509Y0066761D01*
X0082509Y0065162D02*
X0417154Y0065162D01*
X0417154Y0063564D02*
X0082509Y0063564D01*
X0082509Y0061965D02*
X0417154Y0061965D01*
X0417154Y0060367D02*
X0082509Y0060367D01*
X0082509Y0058768D02*
X0417154Y0058768D01*
X0417154Y0057170D02*
X0082509Y0057170D01*
X0082509Y0055571D02*
X0417154Y0055571D01*
X0417154Y0053973D02*
X0082509Y0053973D01*
X0082509Y0052374D02*
X0417154Y0052374D01*
X0395501Y0049177D02*
X0373847Y0049177D01*
X0373847Y0047578D02*
X0395501Y0047578D01*
X0395501Y0045980D02*
X0373847Y0045980D01*
X0417154Y0092337D02*
X0082509Y0092337D01*
X0082509Y0093935D02*
X0417154Y0093935D01*
X0417154Y0095534D02*
X0082509Y0095534D01*
X0173060Y0095534D02*
X0186839Y0095534D01*
X0186839Y0097132D02*
X0173060Y0097132D01*
X0173060Y0098731D02*
X0186839Y0098731D01*
X0186839Y0100329D02*
X0173060Y0100329D01*
X0173060Y0101928D02*
X0186839Y0101928D01*
X0186839Y0103526D02*
X0173060Y0103526D01*
X0173060Y0105125D02*
X0186839Y0105125D01*
X0186839Y0106723D02*
X0173060Y0106723D01*
X0173060Y0108322D02*
X0186839Y0108322D01*
X0186839Y0109920D02*
X0173060Y0109920D01*
X0173060Y0111519D02*
X0186839Y0111519D01*
X0186839Y0113117D02*
X0173060Y0113117D01*
X0173060Y0114716D02*
X0186839Y0114716D01*
X0186839Y0116314D02*
X0173060Y0116314D01*
X0173060Y0117913D02*
X0186839Y0117913D01*
X0186839Y0119512D02*
X0173060Y0119512D01*
X0173060Y0121110D02*
X0186839Y0121110D01*
X0186839Y0122709D02*
X0173060Y0122709D01*
X0173060Y0124307D02*
X0186839Y0124307D01*
X0186839Y0125906D02*
X0173060Y0125906D01*
X0173060Y0127504D02*
X0186839Y0127504D01*
X0186839Y0129103D02*
X0173060Y0129103D01*
X0173060Y0130701D02*
X0186839Y0130701D01*
X0186839Y0132300D02*
X0173060Y0132300D01*
X0173060Y0133690D02*
X0186839Y0133690D01*
X0186839Y0043139D01*
X0173060Y0043139D01*
X0173060Y0133690D01*
X0173060Y0093935D02*
X0186839Y0093935D01*
X0186839Y0092337D02*
X0173060Y0092337D01*
X0173060Y0090738D02*
X0186839Y0090738D01*
X0186839Y0089140D02*
X0173060Y0089140D01*
X0173060Y0087541D02*
X0186839Y0087541D01*
X0186839Y0085943D02*
X0173060Y0085943D01*
X0173060Y0084344D02*
X0186839Y0084344D01*
X0186839Y0082746D02*
X0173060Y0082746D01*
X0173060Y0081147D02*
X0186839Y0081147D01*
X0186839Y0079549D02*
X0173060Y0079549D01*
X0173060Y0077950D02*
X0186839Y0077950D01*
X0186839Y0076352D02*
X0173060Y0076352D01*
X0173060Y0074753D02*
X0186839Y0074753D01*
X0186839Y0073155D02*
X0173060Y0073155D01*
X0173060Y0071556D02*
X0186839Y0071556D01*
X0186839Y0069958D02*
X0173060Y0069958D01*
X0173060Y0068359D02*
X0186839Y0068359D01*
X0186839Y0066761D02*
X0173060Y0066761D01*
X0173060Y0065162D02*
X0186839Y0065162D01*
X0186839Y0063564D02*
X0173060Y0063564D01*
X0173060Y0061965D02*
X0186839Y0061965D01*
X0186839Y0060367D02*
X0173060Y0060367D01*
X0173060Y0058768D02*
X0186839Y0058768D01*
X0186839Y0057170D02*
X0173060Y0057170D01*
X0173060Y0055571D02*
X0186839Y0055571D01*
X0186839Y0053973D02*
X0173060Y0053973D01*
X0173060Y0052374D02*
X0186839Y0052374D01*
X0186839Y0050776D02*
X0173060Y0050776D01*
X0173060Y0049177D02*
X0186839Y0049177D01*
X0186839Y0047578D02*
X0173060Y0047578D01*
X0173060Y0045980D02*
X0186839Y0045980D01*
X0186839Y0044381D02*
X0173060Y0044381D01*
X0226015Y0097132D02*
X0417154Y0097132D01*
X0184871Y0395501D02*
X0175028Y0395501D01*
X0175028Y0474241D01*
X0184871Y0474241D01*
X0184871Y0395501D01*
X0184871Y0396054D02*
X0175028Y0396054D01*
X0175028Y0397652D02*
X0184871Y0397652D01*
X0184871Y0399251D02*
X0175028Y0399251D01*
X0175028Y0400849D02*
X0184871Y0400849D01*
X0184871Y0402448D02*
X0175028Y0402448D01*
X0175028Y0404047D02*
X0184871Y0404047D01*
X0184871Y0405645D02*
X0175028Y0405645D01*
X0175028Y0407244D02*
X0184871Y0407244D01*
X0184871Y0408842D02*
X0175028Y0408842D01*
X0175028Y0410441D02*
X0184871Y0410441D01*
X0184871Y0412039D02*
X0175028Y0412039D01*
X0175028Y0413638D02*
X0184871Y0413638D01*
X0184871Y0415236D02*
X0175028Y0415236D01*
X0175028Y0416835D02*
X0184871Y0416835D01*
X0184871Y0418433D02*
X0175028Y0418433D01*
X0175028Y0420032D02*
X0184871Y0420032D01*
X0184871Y0421630D02*
X0175028Y0421630D01*
X0175028Y0423229D02*
X0184871Y0423229D01*
X0184871Y0424827D02*
X0175028Y0424827D01*
X0175028Y0426426D02*
X0184871Y0426426D01*
X0184871Y0428024D02*
X0175028Y0428024D01*
X0175028Y0429623D02*
X0184871Y0429623D01*
X0184871Y0431221D02*
X0175028Y0431221D01*
X0175028Y0432820D02*
X0184871Y0432820D01*
X0184871Y0434418D02*
X0175028Y0434418D01*
X0175028Y0436017D02*
X0184871Y0436017D01*
X0184871Y0437615D02*
X0175028Y0437615D01*
X0175028Y0439214D02*
X0184871Y0439214D01*
X0184871Y0440812D02*
X0175028Y0440812D01*
X0175028Y0442411D02*
X0184871Y0442411D01*
X0184871Y0444009D02*
X0175028Y0444009D01*
X0175028Y0445608D02*
X0184871Y0445608D01*
X0184871Y0447206D02*
X0175028Y0447206D01*
X0175028Y0448805D02*
X0184871Y0448805D01*
X0184871Y0450403D02*
X0175028Y0450403D01*
X0175028Y0452002D02*
X0184871Y0452002D01*
X0184871Y0453600D02*
X0175028Y0453600D01*
X0175028Y0455199D02*
X0184871Y0455199D01*
X0184871Y0456797D02*
X0175028Y0456797D01*
X0175028Y0458396D02*
X0184871Y0458396D01*
X0184871Y0459994D02*
X0175028Y0459994D01*
X0175028Y0461593D02*
X0184871Y0461593D01*
X0184871Y0463191D02*
X0175028Y0463191D01*
X0175028Y0464790D02*
X0184871Y0464790D01*
X0184871Y0466388D02*
X0175028Y0466388D01*
X0175028Y0467987D02*
X0184871Y0467987D01*
X0184871Y0469585D02*
X0175028Y0469585D01*
X0175028Y0471184D02*
X0184871Y0471184D01*
X0184871Y0472783D02*
X0175028Y0472783D01*
D11*
X0238020Y0445855D03*
X0239989Y0424674D03*
X0222312Y0409359D03*
X0176091Y0368414D03*
X0186091Y0342194D03*
X0259202Y0298139D03*
X0284831Y0301013D03*
X0298965Y0286091D03*
X0296997Y0239635D03*
X0297981Y0198178D03*
X0296997Y0139950D03*
X0251879Y0077430D03*
X0194792Y0155776D03*
X0137194Y0106288D03*
X0074674Y0206367D03*
X0095461Y0212587D03*
X0150265Y0222115D03*
X0173020Y0224320D03*
X0109713Y0324477D03*
X0075540Y0383217D03*
X0299044Y0386879D03*
X0301013Y0342391D03*
X0421918Y0417154D03*
X0440737Y0218335D03*
X0419950Y0214320D03*
X0401328Y0182863D03*
X0407233Y0140343D03*
D12*
X0387391Y0131367D03*
X0369123Y0119477D03*
X0352115Y0132469D03*
X0367076Y0141406D03*
X0363217Y0161997D03*
X0346209Y0174989D03*
X0361170Y0183926D03*
X0381485Y0173887D03*
X0418887Y0174162D03*
X0427824Y0159202D03*
X0440816Y0176209D03*
X0428926Y0194477D03*
X0431761Y0238178D03*
X0419871Y0256446D03*
X0432863Y0273454D03*
X0441800Y0258493D03*
X0354083Y0293965D03*
X0339123Y0285028D03*
X0318808Y0295068D03*
X0337076Y0306957D03*
X0341170Y0341328D03*
X0356131Y0350265D03*
X0339123Y0363257D03*
X0320855Y0351367D03*
X0285894Y0341170D03*
X0276957Y0356131D03*
X0263965Y0339123D03*
X0275855Y0320855D03*
X0268178Y0278296D03*
X0280068Y0260028D03*
X0258139Y0257981D03*
X0267076Y0243020D03*
X0316839Y0248611D03*
X0335107Y0260501D03*
X0352115Y0247509D03*
X0337154Y0238572D03*
X0336091Y0219044D03*
X0353099Y0206052D03*
X0338139Y0197115D03*
X0317824Y0207154D03*
X0249910Y0163650D03*
X0234950Y0154713D03*
X0214635Y0164753D03*
X0232902Y0176643D03*
X0256839Y0141013D03*
X0241879Y0132076D03*
X0258887Y0119083D03*
X0277154Y0130973D03*
X0289989Y0098296D03*
X0306997Y0085304D03*
X0292036Y0076367D03*
X0271721Y0086406D03*
X0196173Y0082055D03*
X0179888Y0075852D03*
X0161625Y0089266D03*
X0181679Y0097803D03*
X0138257Y0146446D03*
X0129320Y0161406D03*
X0116328Y0144398D03*
X0128217Y0126131D03*
X0158139Y0166997D03*
X0149202Y0181957D03*
X0171131Y0184005D03*
X0159241Y0202272D03*
X0164044Y0244162D03*
X0152154Y0262430D03*
X0165146Y0279438D03*
X0174083Y0264477D03*
X0193965Y0287076D03*
X0185028Y0302036D03*
X0206957Y0304083D03*
X0195068Y0322351D03*
X0230186Y0354241D03*
X0221249Y0369202D03*
X0243178Y0371249D03*
X0231288Y0389517D03*
X0199910Y0424989D03*
X0182902Y0437981D03*
X0197863Y0446918D03*
X0218178Y0436879D03*
X0259831Y0433650D03*
X0278099Y0445540D03*
X0295107Y0432548D03*
X0280146Y0423611D03*
X0318887Y0395855D03*
X0337154Y0407745D03*
X0354162Y0394753D03*
X0339202Y0385816D03*
X0420855Y0376997D03*
X0429792Y0362036D03*
X0442784Y0379044D03*
X0430894Y0397312D03*
X0156249Y0359438D03*
X0137981Y0347548D03*
X0120973Y0360540D03*
X0135934Y0369477D03*
X0130658Y0391091D03*
X0115698Y0382154D03*
X0095383Y0392194D03*
X0113650Y0404083D03*
X0118690Y0304635D03*
X0130580Y0286367D03*
X0117587Y0269359D03*
X0108650Y0284320D03*
X0087587Y0267706D03*
X0096524Y0252745D03*
X0074595Y0250698D03*
X0086485Y0232430D03*
X0083650Y0186524D03*
X0095540Y0168257D03*
X0082548Y0151249D03*
X0073611Y0166209D03*
D13*
G36*
X0143879Y0086221D02*
X0142874Y0080518D01*
X0137171Y0081523D01*
X0138176Y0087226D01*
X0143879Y0086221D01*
G37*
D14*
X0234989Y0209383D03*
X0225961Y0218414D03*
X0234989Y0227446D03*
X0244017Y0218414D03*
D15*
X0222272Y0194713D03*
X0200619Y0194713D03*
X0200619Y0230146D03*
X0226209Y0245894D03*
X0241957Y0245894D03*
X0226209Y0265580D03*
D16*
X0116761Y0442745D03*
X0384477Y0442745D03*
X0384477Y0082509D03*
X0116761Y0082509D03*
M02*
