G75*
%MOIN*%
%OFA0B0*%
%FSLAX25Y25*%
%IPPOS*%
%LPD*%
%AMOC8*
5,1,8,0,0,1.08239X$1,22.5*
%
%ADD10R,0.06000X0.06000*%
%ADD11C,0.04000*%
%ADD12C,0.03200*%
%ADD13R,0.06600X0.06600*%
%ADD14C,0.01600*%
%ADD15R,0.05315X0.05315*%
%ADD16R,0.03962X0.03962*%
%ADD17R,0.05906X0.05906*%
%ADD18C,0.02756*%
D10*
X0132562Y0068433D03*
X0208662Y0065733D03*
X0288662Y0064933D03*
X0365862Y0135233D03*
X0364362Y0158233D03*
X0289062Y0194333D03*
X0285662Y0161033D03*
X0205662Y0160733D03*
X0137262Y0199733D03*
X0134962Y0228933D03*
X0060362Y0273933D03*
X0136862Y0330233D03*
X0135862Y0368733D03*
X0212162Y0325833D03*
X0213162Y0293033D03*
X0290062Y0325733D03*
X0361962Y0289733D03*
X0364962Y0269533D03*
X0439962Y0229533D03*
X0438162Y0365533D03*
X0363562Y0419633D03*
X0291062Y0420233D03*
X0213362Y0421133D03*
X0057462Y0139533D03*
D11*
X0229162Y0249133D02*
X0231496Y0248707D01*
X0229562Y0249733D02*
X0229362Y0249933D01*
X0228962Y0269333D01*
D12*
X0192362Y0051833D02*
X0131562Y0051833D01*
X0131562Y0067133D01*
X0192362Y0051833D02*
X0192362Y0107033D01*
X0208662Y0065733D02*
X0208662Y0060633D01*
X0245862Y0060633D01*
X0257362Y0073933D01*
X0263062Y0079733D01*
X0272362Y0104233D01*
X0287762Y0066233D02*
X0289262Y0061733D01*
X0362362Y0062233D01*
X0365162Y0134733D01*
X0357762Y0134133D02*
X0364362Y0158233D01*
X0357762Y0134133D02*
X0313162Y0121233D01*
X0324862Y0159633D02*
X0274862Y0195133D01*
X0309762Y0277333D01*
X0362262Y0287933D01*
X0361962Y0289733D01*
X0375262Y0296633D02*
X0261562Y0296633D01*
X0241162Y0282933D01*
X0228962Y0269333D02*
X0212162Y0325833D01*
X0210979Y0354426D01*
X0133262Y0354426D01*
X0135862Y0368733D01*
X0118462Y0348833D02*
X0126262Y0400833D01*
X0175462Y0401433D01*
X0213362Y0421133D02*
X0210979Y0354426D01*
X0248662Y0357033D02*
X0248462Y0436133D01*
X0288062Y0436133D01*
X0288262Y0420533D01*
X0291062Y0420233D01*
X0325962Y0434633D02*
X0365462Y0434633D01*
X0366362Y0415133D01*
X0372462Y0392133D02*
X0388062Y0392133D01*
X0407162Y0373033D01*
X0438162Y0365533D02*
X0365362Y0325333D01*
X0351162Y0311133D01*
X0364962Y0269533D02*
X0395162Y0239633D01*
X0403162Y0239533D01*
X0437162Y0234433D02*
X0439962Y0229533D01*
X0437162Y0234433D02*
X0367762Y0233933D01*
X0361762Y0232233D01*
X0361062Y0231533D02*
X0353162Y0228933D01*
X0320862Y0216233D01*
X0331462Y0187433D02*
X0298462Y0189633D01*
X0289062Y0194333D01*
X0277762Y0185133D02*
X0227993Y0185133D01*
X0228093Y0223126D01*
X0228762Y0250133D01*
X0229362Y0249933D02*
X0233562Y0261233D01*
X0211862Y0254433D02*
X0186062Y0224933D01*
X0168962Y0224533D01*
X0143362Y0246833D02*
X0136262Y0246833D01*
X0143362Y0246833D02*
X0143362Y0199733D01*
X0137262Y0199733D01*
X0134762Y0222033D02*
X0134762Y0229333D01*
X0134962Y0228933D01*
X0134762Y0222033D02*
X0083162Y0222033D01*
X0083162Y0201133D01*
X0068662Y0241933D02*
X0057462Y0139533D01*
X0122562Y0240533D02*
X0124162Y0252533D01*
X0181262Y0252733D01*
X0211862Y0254433D02*
X0213162Y0293033D01*
X0147362Y0317733D02*
X0147362Y0258733D01*
X0135962Y0258733D01*
X0067662Y0260433D02*
X0068662Y0241933D01*
X0059362Y0270233D02*
X0059362Y0339633D01*
X0098062Y0339633D01*
X0118462Y0348833D02*
X0136862Y0330233D01*
X0228093Y0223126D02*
X0227962Y0220533D01*
X0227962Y0212733D01*
X0277762Y0185133D02*
X0284162Y0161233D01*
X0285662Y0161033D01*
X0287562Y0065733D01*
X0331462Y0187433D02*
X0344862Y0187733D01*
X0380162Y0190033D01*
X0290062Y0325733D02*
X0278362Y0363433D01*
X0326462Y0351233D02*
X0325962Y0434633D01*
D13*
X0233562Y0261233D03*
D14*
X0229362Y0249933D02*
X0230362Y0249133D01*
X0229162Y0249133D01*
X0228062Y0249133D01*
X0228762Y0250133D01*
X0229622Y0248333D02*
X0231496Y0248707D01*
X0230762Y0247033D02*
X0229622Y0248333D01*
X0227962Y0224733D02*
X0227962Y0220733D01*
X0227562Y0220733D01*
X0227562Y0222533D01*
X0227662Y0222533D01*
X0227662Y0224733D01*
X0227962Y0224733D01*
X0228462Y0221533D02*
X0228062Y0220733D01*
X0227962Y0220733D01*
X0228062Y0220733D02*
X0228062Y0220533D01*
X0227962Y0220533D01*
X0228462Y0220033D02*
X0228462Y0221533D01*
X0181262Y0252733D02*
X0181462Y0253133D01*
X0136262Y0246833D02*
X0136262Y0246333D01*
X0059362Y0270233D02*
X0060362Y0273933D01*
X0175462Y0400933D02*
X0175462Y0401433D01*
X0361062Y0231533D02*
X0361762Y0232233D01*
X0380162Y0190833D02*
X0380162Y0190033D01*
X0365862Y0135233D02*
X0365162Y0134733D01*
X0287762Y0066233D02*
X0287562Y0065733D01*
X0287762Y0066233D02*
X0288662Y0064933D01*
X0132562Y0068433D02*
X0131562Y0067133D01*
X0366362Y0415133D02*
X0367462Y0415933D01*
D15*
X0257862Y0266633D03*
X0230762Y0247033D03*
D16*
X0181462Y0253133D03*
X0168962Y0224533D03*
X0136262Y0246333D03*
X0135962Y0258733D03*
X0122562Y0240533D03*
X0083162Y0201133D03*
X0067662Y0260433D03*
X0147362Y0317733D03*
X0098062Y0339633D03*
X0175462Y0400933D03*
X0248662Y0357033D03*
X0278362Y0363433D03*
X0326462Y0351233D03*
X0351162Y0311133D03*
X0375262Y0296633D03*
X0403162Y0239533D03*
X0380162Y0190033D03*
X0324862Y0159633D03*
X0313162Y0121233D03*
X0272362Y0104233D03*
X0192362Y0107033D03*
X0320862Y0216233D03*
X0407162Y0373033D03*
X0372462Y0392133D03*
D17*
X0241162Y0282933D03*
D18*
X0366362Y0415133D02*
X0367462Y0419533D01*
X0363562Y0419633D01*
M02*
