%
M48
M72
T01C0.02362
T02C0.02992
T03C0.03150
T04C0.06299
T05C0.12835
%
T01
X128217Y126131
X116328Y144398
X129320Y161406
X138257Y146446
X158139Y166997
X149202Y181957
X171131Y184005
X159241Y202272
X164044Y244162
X152154Y262430
X165146Y279438
X174083Y264477
X193965Y287076
X185028Y302036
X206957Y304083
X195068Y322351
X230186Y354241
X221249Y369202
X243178Y371249
X231288Y389517
X199910Y424989
X182902Y437981
X197863Y446918
X218178Y436879
X259831Y433650
X278099Y445540
X295107Y432548
X280146Y423611
X318887Y395855
X337154Y407745
X354162Y394753
X339202Y385816
X339123Y363257
X356131Y350265
X341170Y341328
X320855Y351367
X285894Y341170
X276957Y356131
X263965Y339123
X275855Y320855
X318808Y295068
X337076Y306957
X354083Y293965
X339123Y285028
X335107Y260501
X352115Y247509
X337154Y238572
X336091Y219044
X353099Y206052
X338139Y197115
X317824Y207154
X346209Y174989
X361170Y183926
X381485Y173887
X363217Y161997
X367076Y141406
X352115Y132469
X369123Y119477
X387391Y131367
X427824Y159202
X418887Y174162
X440816Y176209
X428926Y194477
X431761Y238178
X419871Y256446
X432863Y273454
X441800Y258493
X429792Y362036
X420855Y376997
X442784Y379044
X430894Y397312
X280068Y260028
X268178Y278296
X258139Y257981
X267076Y243020
X316839Y248611
X232902Y176643
X249910Y163650
X234950Y154713
X214635Y164753
X241879Y132076
X256839Y141013
X258887Y119083
X277154Y130973
X289989Y98296
X306997Y85304
X292036Y76367
X271721Y86406
X196173Y82055
X179888Y75852
X161625Y89266
X181679Y97803
X95540Y168257
X83650Y186524
X73611Y166209
X82548Y151249
X86485Y232430
X74595Y250698
X87587Y267706
X96524Y252745
X117587Y269359
X108650Y284320
X130580Y286367
X118690Y304635
X137981Y347548
X120973Y360540
X135934Y369477
X156249Y359438
X130658Y391091
X115698Y382154
X95383Y392194
X113650Y404083
T02
X75540Y383217
X109713Y324477
X176091Y368414
X186091Y342194
X222312Y409359
X239989Y424674
X238020Y445855
X299044Y386879
X301013Y342391
X284831Y301013
X298965Y286091
X259202Y298139
X296997Y239635
X297981Y198178
X296997Y139950
X251879Y77430
X194792Y155776
X137194Y106288
X140525Y83872
X74674Y206367
X95461Y212587
X150265Y222115
X173020Y224320
X401328Y182863
X419950Y214320
X440737Y218335
X407233Y140343
X421918Y417154
T03
X234989Y227446
X244017Y218414
X234989Y209383
X225961Y218414
T04
X222272Y194713
X200619Y194713
X200619Y230146
X226209Y245894
X241957Y245894
X226209Y265580
T05
X116761Y82509
X384477Y82509
X384477Y442745
X116761Y442745
M30
