G75*
%MOIN*%
%OFA0B0*%
%FSLAX25Y25*%
%IPPOS*%
%LPD*%
%AMOC8*
5,1,8,0,0,1.08239X$1,22.5*
%
%ADD10R,0.06000X0.06000*%
%ADD11C,0.04000*%
%ADD12C,0.04000*%
%ADD13R,0.03962X0.03962*%
%ADD14C,0.03150*%
%ADD15R,0.04356X0.04356*%
D10*
X0083400Y0066700D03*
X0083900Y0115800D03*
X0158100Y0125000D03*
X0157500Y0156600D03*
X0231100Y0118000D03*
X0301100Y0152000D03*
X0312100Y0167000D03*
X0386100Y0203000D03*
X0314100Y0280000D03*
X0314100Y0304000D03*
X0238100Y0377000D03*
X0160100Y0377000D03*
X0083100Y0379000D03*
X0010100Y0308000D03*
X0083100Y0248000D03*
X0083100Y0207000D03*
X0010900Y0168100D03*
X0158100Y0283000D03*
X0225800Y0246200D03*
X0236100Y0282000D03*
X0385100Y0063000D03*
X0308100Y0025800D03*
X0230900Y0027300D03*
X0156500Y0020000D03*
D11*
X0156383Y0027412D01*
X0121231Y0028089D01*
X0109700Y0062300D01*
X0083400Y0066700D02*
X0084200Y0071900D01*
X0084200Y0117500D01*
X0084600Y0121700D01*
X0083900Y0115800D01*
X0084300Y0123000D01*
X0084900Y0136200D01*
X0105000Y0135400D01*
X0115100Y0135200D01*
X0143700Y0135000D01*
X0154899Y0134902D01*
X0157500Y0156600D01*
X0166900Y0169600D02*
X0170737Y0165763D01*
X0167100Y0169700D01*
X0187931Y0141793D01*
X0190294Y0135981D01*
X0191775Y0136862D01*
X0193692Y0137011D01*
X0243300Y0129200D01*
X0231100Y0118000D02*
X0231500Y0117200D01*
X0231500Y0071600D01*
X0277200Y0048300D01*
X0305900Y0023600D02*
X0308100Y0025800D01*
X0305900Y0023600D02*
X0305900Y0102800D01*
X0289938Y0140502D01*
X0301100Y0152000D02*
X0301100Y0196500D01*
X0298500Y0198500D01*
X0259300Y0222400D01*
X0226400Y0218467D02*
X0225540Y0217606D01*
X0218969Y0217606D01*
X0226400Y0218467D02*
X0226456Y0245400D01*
X0225800Y0246200D01*
X0225200Y0247200D01*
X0224300Y0251600D01*
X0235600Y0271600D01*
X0276513Y0271600D01*
X0285720Y0261502D01*
X0296950Y0263376D01*
X0313594Y0263827D01*
X0314100Y0280000D01*
X0314000Y0293200D01*
X0313300Y0303500D01*
X0314100Y0304000D01*
X0346400Y0280000D02*
X0385100Y0249200D01*
X0385100Y0203600D01*
X0386100Y0203000D01*
X0375800Y0192000D02*
X0385100Y0162800D01*
X0385100Y0063000D01*
X0354100Y0086100D02*
X0313100Y0119600D01*
X0313100Y0165200D01*
X0312100Y0167000D01*
X0324500Y0179300D02*
X0251700Y0264800D01*
X0236100Y0282000D02*
X0236300Y0282800D01*
X0250025Y0323513D01*
X0250813Y0325887D01*
X0286500Y0335400D02*
X0278905Y0369110D01*
X0241456Y0369707D01*
X0238100Y0377000D01*
X0198061Y0363787D02*
X0198818Y0346981D01*
X0198619Y0335094D01*
X0198919Y0304594D01*
X0155400Y0317000D02*
X0160863Y0345943D01*
X0162288Y0351843D01*
X0168300Y0351800D01*
X0163043Y0370501D02*
X0197692Y0370319D01*
X0198061Y0363787D01*
X0163043Y0370501D02*
X0159800Y0376600D01*
X0160100Y0377000D01*
X0109300Y0325000D02*
X0120843Y0291757D01*
X0157130Y0290737D01*
X0158100Y0283000D01*
X0150200Y0274000D02*
X0156100Y0255600D01*
X0158600Y0179800D01*
X0082800Y0182100D01*
X0082700Y0157900D01*
X0082800Y0182100D02*
X0073900Y0199100D01*
X0083100Y0207000D02*
X0082700Y0208400D01*
X0082700Y0222800D01*
X0070700Y0234800D01*
X0070269Y0235194D01*
X0063069Y0242394D01*
X0061100Y0244400D01*
X0057875Y0248806D01*
X0055475Y0252350D01*
X0053824Y0256362D01*
X0049493Y0273994D01*
X0043000Y0283200D01*
X0010500Y0299000D02*
X0014200Y0238900D01*
X0014400Y0238800D01*
X0023900Y0179600D01*
X0010900Y0168100D02*
X0010700Y0163700D01*
X0010800Y0118400D01*
X0051900Y0093300D01*
X0148200Y0044800D02*
X0169494Y0037099D01*
X0230599Y0035131D01*
X0230900Y0027800D01*
X0231100Y0027800D01*
X0230900Y0027300D01*
X0200300Y0048900D02*
X0159500Y0076400D01*
X0159500Y0124400D01*
X0158100Y0125000D01*
X0226256Y0148500D02*
X0226400Y0218467D01*
X0214100Y0262300D02*
X0150200Y0274000D01*
X0149300Y0308800D02*
X0155400Y0317000D01*
X0085100Y0285200D02*
X0093946Y0259762D01*
X0083100Y0248000D02*
X0082700Y0246800D01*
X0085100Y0285200D02*
X0085100Y0378800D01*
X0083100Y0379000D01*
X0010100Y0308700D02*
X0010600Y0307500D01*
X0010500Y0299000D01*
X0010100Y0308000D02*
X0010400Y0308100D01*
X0010100Y0308700D01*
D12*
X0043000Y0283200D03*
X0128176Y0208932D03*
X0286500Y0335400D03*
X0148200Y0044800D03*
D13*
X0109700Y0062300D03*
X0051900Y0093300D03*
X0082700Y0157900D03*
X0073900Y0199100D03*
X0023900Y0179600D03*
X0093946Y0259762D03*
X0150200Y0274000D03*
X0150200Y0274000D03*
X0149300Y0308800D03*
X0109300Y0325000D03*
X0168300Y0351800D03*
X0198919Y0304594D03*
X0214100Y0262300D03*
X0251700Y0264800D03*
X0259300Y0222400D03*
X0218969Y0217606D03*
X0226256Y0148500D03*
X0243300Y0129200D03*
X0289938Y0140502D03*
X0324500Y0179300D03*
X0375800Y0192000D03*
X0346400Y0280000D03*
X0250813Y0325887D03*
X0191775Y0136862D03*
X0200300Y0048900D03*
X0277200Y0048300D03*
X0354100Y0086100D03*
D14*
X0128176Y0208932D02*
X0111538Y0225468D01*
X0083100Y0248000D01*
D15*
X0165200Y0189700D03*
X0166900Y0169600D03*
M02*
