G75*
%MOIN*%
%OFA0B0*%
%FSLAX25Y25*%
%IPPOS*%
%LPD*%
%AMOC8*
5,1,8,0,0,1.08239X$1,22.5*
%
%ADD10C,0.03162*%
%ADD11C,0.13800*%
%ADD12C,0.37808*%
%ADD13R,0.06800X0.06800*%
%ADD14C,0.04800*%
%ADD15R,0.04762X0.04762*%
%ADD16R,0.05156X0.05156*%
D10*
X0062950Y0022071D03*
X0063400Y0056700D03*
X0053400Y0066700D03*
X0053400Y0081700D03*
X0053400Y0101700D03*
X0063400Y0116700D03*
X0073400Y0101700D03*
X0073400Y0081700D03*
X0073400Y0066700D03*
X0093900Y0080800D03*
X0103900Y0065800D03*
X0113900Y0080800D03*
X0113900Y0100800D03*
X0113900Y0115800D03*
X0103900Y0125800D03*
X0093900Y0115800D03*
X0093900Y0100800D03*
X0136500Y0070000D03*
X0126500Y0055000D03*
X0126500Y0035000D03*
X0126500Y0020000D03*
X0136500Y0010000D03*
X0146500Y0020000D03*
X0146500Y0035000D03*
X0146500Y0055000D03*
X0178100Y0075000D03*
X0168100Y0090000D03*
X0168100Y0110000D03*
X0168100Y0125000D03*
X0178100Y0135000D03*
X0188100Y0125000D03*
X0188100Y0110000D03*
X0188100Y0090000D03*
X0210900Y0077300D03*
X0200900Y0062300D03*
X0200900Y0042300D03*
X0200900Y0027300D03*
X0210900Y0017300D03*
X0220900Y0027300D03*
X0220900Y0042300D03*
X0220900Y0062300D03*
X0241100Y0083000D03*
X0251100Y0068000D03*
X0261100Y0083000D03*
X0261100Y0103000D03*
X0261100Y0118000D03*
X0251100Y0128000D03*
X0241100Y0118000D03*
X0241100Y0103000D03*
X0281100Y0142000D03*
X0271100Y0152000D03*
X0271100Y0167000D03*
X0271100Y0187000D03*
X0281100Y0202000D03*
X0291100Y0187000D03*
X0291100Y0167000D03*
X0291100Y0152000D03*
X0322100Y0152000D03*
X0322100Y0167000D03*
X0332100Y0177000D03*
X0342100Y0167000D03*
X0342100Y0152000D03*
X0342100Y0132000D03*
X0332100Y0117000D03*
X0322100Y0132000D03*
X0355100Y0098000D03*
X0365100Y0113000D03*
X0375100Y0098000D03*
X0375100Y0078000D03*
X0375100Y0063000D03*
X0365100Y0053000D03*
X0355100Y0063000D03*
X0355100Y0078000D03*
X0298100Y0060800D03*
X0288100Y0075800D03*
X0278100Y0060800D03*
X0278100Y0040800D03*
X0278100Y0025800D03*
X0288100Y0015800D03*
X0298100Y0025800D03*
X0298100Y0040800D03*
X0334100Y0019000D03*
X0366100Y0193000D03*
X0376100Y0203000D03*
X0376100Y0218000D03*
X0376100Y0238000D03*
X0366100Y0253000D03*
X0356100Y0238000D03*
X0356100Y0218000D03*
X0356100Y0203000D03*
X0334100Y0254000D03*
X0324100Y0269000D03*
X0324100Y0289000D03*
X0324100Y0304000D03*
X0334100Y0314000D03*
X0344100Y0304000D03*
X0344100Y0289000D03*
X0344100Y0269000D03*
X0304100Y0280000D03*
X0294100Y0270000D03*
X0284100Y0280000D03*
X0284100Y0295000D03*
X0284100Y0315000D03*
X0294100Y0330000D03*
X0304100Y0315000D03*
X0304100Y0295000D03*
X0258100Y0327000D03*
X0248100Y0342000D03*
X0248100Y0362000D03*
X0248100Y0377000D03*
X0258100Y0387000D03*
X0268100Y0377000D03*
X0268100Y0362000D03*
X0268100Y0342000D03*
X0226100Y0317000D03*
X0216100Y0332000D03*
X0206100Y0317000D03*
X0206100Y0297000D03*
X0206100Y0282000D03*
X0216100Y0272000D03*
X0226100Y0282000D03*
X0226100Y0297000D03*
X0245800Y0256200D03*
X0235800Y0246200D03*
X0235800Y0231200D03*
X0235800Y0211200D03*
X0245800Y0196200D03*
X0255800Y0211200D03*
X0255800Y0231200D03*
X0255800Y0246200D03*
X0180100Y0327000D03*
X0170100Y0342000D03*
X0170100Y0362000D03*
X0170100Y0377000D03*
X0180100Y0387000D03*
X0190100Y0377000D03*
X0190100Y0362000D03*
X0190100Y0342000D03*
X0148100Y0318000D03*
X0138100Y0333000D03*
X0128100Y0318000D03*
X0128100Y0298000D03*
X0128100Y0283000D03*
X0138100Y0273000D03*
X0148100Y0283000D03*
X0148100Y0298000D03*
X0103100Y0329000D03*
X0093100Y0344000D03*
X0093100Y0364000D03*
X0093100Y0379000D03*
X0103100Y0389000D03*
X0113100Y0379000D03*
X0113100Y0364000D03*
X0113100Y0344000D03*
X0063100Y0382000D03*
X0030100Y0318000D03*
X0020100Y0308000D03*
X0020100Y0293000D03*
X0020100Y0273000D03*
X0030100Y0258000D03*
X0040100Y0273000D03*
X0040100Y0293000D03*
X0040100Y0308000D03*
X0063100Y0257000D03*
X0053100Y0242000D03*
X0053100Y0222000D03*
X0053100Y0207000D03*
X0063100Y0197000D03*
X0073100Y0207000D03*
X0073100Y0222000D03*
X0073100Y0242000D03*
X0093100Y0248000D03*
X0103100Y0258000D03*
X0113100Y0248000D03*
X0113100Y0233000D03*
X0113100Y0213000D03*
X0103100Y0198000D03*
X0093100Y0213000D03*
X0093100Y0233000D03*
X0127500Y0191600D03*
X0137500Y0206600D03*
X0147500Y0191600D03*
X0147500Y0171600D03*
X0147500Y0156600D03*
X0137500Y0146600D03*
X0127500Y0156600D03*
X0127500Y0171600D03*
X0040900Y0168100D03*
X0030900Y0178100D03*
X0020900Y0168100D03*
X0020900Y0153100D03*
X0020900Y0133100D03*
X0030900Y0118100D03*
X0040900Y0133100D03*
X0040900Y0153100D03*
X0334100Y0382000D03*
D11*
X0334100Y0382000D03*
X0063100Y0382000D03*
X0063000Y0022100D03*
X0334100Y0019000D03*
D12*
X0201100Y0174772D03*
D13*
X0157500Y0156600D03*
X0158100Y0125000D03*
X0083900Y0115800D03*
X0083400Y0066700D03*
X0156500Y0020000D03*
X0230900Y0027300D03*
X0308100Y0025800D03*
X0385100Y0063000D03*
X0301100Y0152000D03*
X0312100Y0167000D03*
X0386100Y0203000D03*
X0314100Y0280000D03*
X0314100Y0304000D03*
X0238100Y0377000D03*
X0160100Y0377000D03*
X0083100Y0379000D03*
X0010100Y0308000D03*
X0083100Y0248000D03*
X0083100Y0207000D03*
X0010900Y0168100D03*
X0158100Y0283000D03*
X0225800Y0246200D03*
X0236100Y0282000D03*
X0231100Y0118000D03*
D14*
X0148200Y0044800D03*
X0128176Y0208932D03*
X0043000Y0283200D03*
X0286500Y0335400D03*
D15*
X0250813Y0325887D03*
X0198919Y0304594D03*
X0214100Y0262300D03*
X0251700Y0264800D03*
X0259300Y0222400D03*
X0218969Y0217606D03*
X0226256Y0148500D03*
X0243300Y0129200D03*
X0289938Y0140502D03*
X0324500Y0179300D03*
X0375800Y0192000D03*
X0346400Y0280000D03*
X0191775Y0136862D03*
X0109700Y0062300D03*
X0051900Y0093300D03*
X0082700Y0157900D03*
X0073900Y0199100D03*
X0023900Y0179600D03*
X0093946Y0259762D03*
X0150200Y0274000D03*
X0150200Y0274000D03*
X0149300Y0308800D03*
X0109300Y0325000D03*
X0168300Y0351800D03*
X0354100Y0086100D03*
X0277200Y0048300D03*
X0200300Y0048900D03*
D16*
X0166900Y0169600D03*
X0165200Y0189700D03*
M02*
