%
M48
M72
T01C0.02362
T02C0.03543
T03C0.03937
T04C0.04000
T05C0.13000
T06C0.37008
%
T01
X114262Y63133
X142562Y68433
X152562Y58433
X162562Y68433
X162562Y83433
X162562Y103433
X152562Y118433
X142562Y103433
X142562Y83433
X185662Y110733
X192362Y107033
X195662Y125733
X195662Y145733
X195662Y160733
X185662Y170733
X175662Y160733
X175662Y145733
X175662Y125733
X218662Y100733
X228662Y115733
X238662Y100733
X238662Y80733
X238662Y65733
X228662Y55733
X218662Y65733
X218662Y80733
X255662Y126033
X265662Y111033
X272362Y104233
X275662Y126033
X275662Y146033
X275662Y161033
X265662Y171033
X255662Y161033
X255662Y146033
X298662Y99933
X308662Y114933
X313162Y121233
X334362Y123233
X344362Y108233
X354362Y123233
X375862Y135233
X385862Y125233
X395862Y135233
X395862Y150233
X395862Y170233
X385862Y185233
X380162Y190033
X375862Y170233
X354362Y158233
X344362Y168233
X334362Y158233
X324862Y159633
X334362Y143233
X354362Y143233
X375862Y150233
X419962Y179533
X429962Y194533
X429962Y214533
X429962Y229533
X419962Y239533
X409962Y229533
X403162Y239533
X409962Y214533
X409962Y194533
X351962Y254733
X341962Y239733
X331962Y254733
X331962Y274733
X331962Y289733
X341962Y299733
X351162Y311133
X351962Y289733
X351962Y274733
X374962Y269533
X384962Y259533
X394962Y269533
X394962Y284533
X394962Y304533
X384962Y319533
X374962Y304533
X375262Y296633
X374962Y284533
X418162Y315533
X428162Y330533
X428162Y350533
X428162Y365533
X418162Y375533
X407162Y373033
X408162Y365533
X408162Y350533
X408162Y330533
X372462Y392133
X353562Y384633
X343562Y369633
X333562Y384633
X333562Y404633
X333562Y419633
X343562Y429633
X353562Y419633
X353562Y404633
X385262Y426133
X320062Y360733
X326462Y351233
X320062Y340733
X320062Y325733
X310062Y315733
X300062Y325733
X300062Y340733
X300062Y360733
X310062Y375733
X281062Y385233
X271062Y370233
X278362Y363433
X261062Y385233
X261062Y405233
X261062Y420233
X271062Y430233
X281062Y420233
X281062Y405233
X248662Y357033
X242162Y360833
X232162Y375833
X222162Y360833
X222162Y340833
X222162Y325833
X232162Y315833
X242162Y325833
X242162Y340833
X203362Y386133
X193362Y371133
X183362Y386133
X175462Y400933
X183362Y406133
X183362Y421133
X193362Y431133
X203362Y421133
X203362Y406133
X156862Y380233
X166862Y365233
X166862Y345233
X166862Y330233
X156862Y320233
X147362Y317733
X146862Y330233
X146862Y345233
X146862Y365233
X125862Y368733
X115862Y378733
X105862Y368733
X105862Y353733
X98062Y339633
X105862Y333733
X115862Y318733
X125862Y333733
X125862Y353733
X90362Y308933
X80362Y323933
X70362Y308933
X70362Y288933
X70362Y273933
X80362Y263933
X67662Y260433
X90362Y273933
X90362Y288933
X135962Y258733
X136262Y246333
X122562Y240533
X114962Y238933
X124962Y228933
X124962Y213933
X124962Y193933
X114962Y178933
X104962Y193933
X104962Y213933
X104962Y228933
X83162Y201133
X77462Y189533
X87462Y174533
X67462Y174533
X67462Y154533
X67462Y139533
X77462Y129533
X87462Y139533
X87462Y154533
X147262Y199733
X157262Y189733
X167262Y199733
X167262Y214733
X168962Y224533
X167262Y234733
X157262Y249733
X147262Y234733
X147262Y214733
X181462Y253133
X183162Y258033
X193162Y243033
X203162Y258033
X203162Y278033
X203162Y293033
X193162Y303033
X183162Y293033
X183162Y278033
X299062Y229333
X309062Y244333
X319062Y229333
X320862Y216233
X319062Y209333
X319062Y194333
X309062Y184333
X299062Y194333
X299062Y209333
X318662Y99933
X318662Y79933
X318662Y64933
X308662Y54933
X298662Y64933
X298662Y79933
X385262Y63133
X114262Y426133
T02
X257862Y266633
X230762Y247033
T03
X233562Y261233
X241162Y282933
T04
X213162Y293033
X212162Y325833
X136862Y330233
X135862Y368733
X213362Y421133
X291062Y420233
X363562Y419633
X438162Y365533
X361962Y289733
X364962Y269533
X439962Y229533
X364362Y158233
X365862Y135233
X289062Y194333
X285662Y161033
X205662Y160733
X137262Y199733
X134962Y228933
X60362Y273933
X57462Y139533
X132562Y68433
X208662Y65733
X288662Y64933
X290062Y325733
T05
X385262Y426133
X114262Y426133
X114162Y66233
X385262Y63133
T06
X252462Y219833
M30
