%
M48
M72
T01C0.02362
T02C0.02400
T03C0.02756
T04C0.04000
T05C0.13000
T06C0.37008
%
T01
X62950Y22071
X63400Y56700
X53400Y66700
X53400Y81700
X51900Y93300
X53400Y101700
X63400Y116700
X73400Y101700
X73400Y81700
X73400Y66700
X93900Y80800
X103900Y65800
X109700Y62300
X126500Y55000
X136500Y70000
X146500Y55000
X146500Y35000
X146500Y20000
X136500Y10000
X126500Y20000
X126500Y35000
X113900Y80800
X113900Y100800
X113900Y115800
X103900Y125800
X93900Y115800
X93900Y100800
X137500Y146600
X127500Y156600
X127500Y171600
X127500Y191600
X137500Y206600
X147500Y191600
X147500Y171600
X147500Y156600
X178100Y135000
X168100Y125000
X168100Y110000
X168100Y90000
X178100Y75000
X188100Y90000
X188100Y110000
X188100Y125000
X191775Y136862
X226256Y148500
X243300Y129200
X251100Y128000
X241100Y118000
X241100Y103000
X241100Y83000
X251100Y68000
X261100Y83000
X261100Y103000
X261100Y118000
X281100Y142000
X289938Y140502
X291100Y152000
X291100Y167000
X291100Y187000
X281100Y202000
X271100Y187000
X271100Y167000
X271100Y152000
X245800Y196200
X235800Y211200
X218969Y217606
X235800Y231200
X235800Y246200
X245800Y256200
X251700Y264800
X255800Y246200
X255800Y231200
X259300Y222400
X255800Y211200
X214100Y262300
X216100Y272000
X206100Y282000
X206100Y297000
X198919Y304594
X206100Y317000
X216100Y332000
X226100Y317000
X226100Y297000
X226100Y282000
X250813Y325887
X258100Y327000
X248100Y342000
X248100Y362000
X248100Y377000
X258100Y387000
X268100Y377000
X268100Y362000
X268100Y342000
X294100Y330000
X284100Y315000
X284100Y295000
X284100Y280000
X294100Y270000
X304100Y280000
X304100Y295000
X304100Y315000
X324100Y304000
X334100Y314000
X344100Y304000
X344100Y289000
X346400Y280000
X344100Y269000
X334100Y254000
X324100Y269000
X324100Y289000
X366100Y253000
X356100Y238000
X356100Y218000
X356100Y203000
X366100Y193000
X375800Y192000
X376100Y203000
X376100Y218000
X376100Y238000
X332100Y177000
X324500Y179300
X322100Y167000
X322100Y152000
X322100Y132000
X332100Y117000
X342100Y132000
X342100Y152000
X342100Y167000
X365100Y113000
X355100Y98000
X354100Y86100
X355100Y78000
X355100Y63000
X365100Y53000
X375100Y63000
X375100Y78000
X375100Y98000
X298100Y60800
X288100Y75800
X278100Y60800
X277200Y48300
X278100Y40800
X278100Y25800
X288100Y15800
X298100Y25800
X298100Y40800
X334100Y19000
X220900Y27300
X210900Y17300
X200900Y27300
X200900Y42300
X200300Y48900
X200900Y62300
X210900Y77300
X220900Y62300
X220900Y42300
X82700Y157900
X40900Y153100
X40900Y168100
X30900Y178100
X23900Y179600
X20900Y168100
X20900Y153100
X20900Y133100
X30900Y118100
X40900Y133100
X63100Y197000
X53100Y207000
X53100Y222000
X53100Y242000
X63100Y257000
X73100Y242000
X73100Y222000
X73100Y207000
X73900Y199100
X93100Y213000
X103100Y198000
X113100Y213000
X113100Y233000
X113100Y248000
X103100Y258000
X93946Y259762
X93100Y248000
X93100Y233000
X138100Y273000
X128100Y283000
X128100Y298000
X128100Y318000
X138100Y333000
X148100Y318000
X149300Y308800
X148100Y298000
X148100Y283000
X150200Y274000
X150200Y274000
X180100Y327000
X170100Y342000
X168300Y351800
X170100Y362000
X170100Y377000
X180100Y387000
X190100Y377000
X190100Y362000
X190100Y342000
X113100Y344000
X103100Y329000
X109300Y325000
X93100Y344000
X93100Y364000
X93100Y379000
X103100Y389000
X113100Y379000
X113100Y364000
X63100Y382000
X30100Y318000
X20100Y308000
X20100Y293000
X20100Y273000
X30100Y258000
X40100Y273000
X40100Y293000
X40100Y308000
X334100Y382000
T02
X286500Y335400
X128176Y208932
X43000Y283200
X148200Y44800
T03
X166900Y169600
X165200Y189700
T04
X157500Y156600
X158100Y125000
X83900Y115800
X83400Y66700
X156500Y20000
X230900Y27300
X308100Y25800
X385100Y63000
X301100Y152000
X312100Y167000
X386100Y203000
X314100Y280000
X314100Y304000
X238100Y377000
X160100Y377000
X83100Y379000
X10100Y308000
X83100Y248000
X83100Y207000
X10900Y168100
X158100Y283000
X225800Y246200
X236100Y282000
X231100Y118000
T05
X334100Y19000
X63000Y22100
X63100Y382000
X334100Y382000
T06
X201100Y174772
M30
