%
M48
M72
T01C0.01378
T02C0.02992
T03C0.03150
T04C0.06000
T05C0.12835
%
T01
X249753Y283611
X271406Y309202
X365518Y210776
T02
X230068Y330855
X230068Y354477
X230068Y364320
X261564Y342666
T03
X281013Y326249
X311721Y340422
X321209Y304328
X343099Y301871
X353540Y313887
X353146Y281131
X352753Y249713
X353146Y219005
X323942Y187194
X304313Y202952
X313344Y211980
X304313Y221007
X295281Y211980
X319981Y166957
X228737Y156091
X225099Y131052
X121257Y187981
X86934Y227194
X187698Y270501
X187304Y301524
X188879Y331367
X192910Y352391
X188847Y362194
X192942Y384162
X188847Y394123
X193335Y414871
X118894Y445698
X218808Y318769
X249517Y319950
X189343Y239005
X351894Y408769
X316013Y424398
X427430Y419280
X455879Y355934
X456595Y325619
X421233Y130265
T04
X293060Y239123
X277598Y202525
X258756Y202378
X240028Y199432
X235142Y214964
X302902Y374162
X302902Y395816
T05
X91288Y173375
X91288Y441091
X451524Y441091
X451524Y173375
M30
