G75*
%MOIN*%
%OFA0B0*%
%FSLAX25Y25*%
%IPPOS*%
%LPD*%
%AMOC8*
5,1,8,0,0,1.08239X$1,22.5*
%
%ADD10C,0.00300*%
%ADD11C,0.00600*%
%ADD12C,0.00500*%
%ADD13C,0.02500*%
%ADD14C,0.03100*%
%ADD15C,0.00900*%
%ADD16C,0.01575*%
%ADD17C,0.00400*%
%ADD18C,0.00200*%
%ADD19C,0.01181*%
%ADD20C,0.01500*%
%ADD21C,0.00787*%
%ADD22R,0.02953X0.06693*%
D10*
X0052032Y0120259D02*
X0051556Y0120735D01*
X0051556Y0121685D01*
X0052032Y0122161D01*
X0052507Y0122161D01*
X0052982Y0121685D01*
X0052982Y0120735D01*
X0053458Y0120259D01*
X0053933Y0120259D01*
X0054408Y0120735D01*
X0054408Y0121685D01*
X0053933Y0122161D01*
X0052982Y0123159D02*
X0053458Y0123635D01*
X0053458Y0124585D01*
X0052982Y0125061D01*
X0052507Y0125061D01*
X0052507Y0123159D01*
X0052032Y0123159D02*
X0052982Y0123159D01*
X0052032Y0123159D02*
X0051556Y0123635D01*
X0051556Y0124585D01*
X0051556Y0126059D02*
X0051556Y0127486D01*
X0052032Y0127961D01*
X0052982Y0127961D01*
X0053458Y0127486D01*
X0053458Y0126059D01*
X0050606Y0126059D01*
X0052032Y0129435D02*
X0051556Y0129910D01*
X0052032Y0129435D02*
X0053933Y0129435D01*
X0053458Y0128960D02*
X0053458Y0129910D01*
X0052982Y0130893D02*
X0053458Y0131368D01*
X0053458Y0132319D01*
X0052982Y0132794D01*
X0052507Y0132794D01*
X0052507Y0130893D01*
X0052032Y0130893D02*
X0052982Y0130893D01*
X0052032Y0130893D02*
X0051556Y0131368D01*
X0051556Y0132319D01*
X0051556Y0133793D02*
X0053458Y0133793D01*
X0053458Y0134268D01*
X0052982Y0134744D01*
X0053458Y0135219D01*
X0052982Y0135694D01*
X0051556Y0135694D01*
X0051556Y0134744D02*
X0052982Y0134744D01*
X0053458Y0136693D02*
X0053458Y0138119D01*
X0052982Y0138595D01*
X0052032Y0138595D01*
X0051556Y0138119D01*
X0051556Y0136693D01*
X0054408Y0136693D01*
X0055330Y0136669D02*
X0055330Y0136194D01*
X0055330Y0136669D02*
X0055805Y0137145D01*
X0058182Y0137145D01*
X0056281Y0137145D02*
X0056281Y0135719D01*
X0056756Y0135243D01*
X0058182Y0135243D01*
X0058182Y0134252D02*
X0058182Y0133777D01*
X0057231Y0132826D01*
X0056281Y0132826D02*
X0058182Y0132826D01*
X0057707Y0131828D02*
X0057231Y0131828D01*
X0057231Y0129926D01*
X0056756Y0129926D02*
X0057707Y0129926D01*
X0058182Y0130402D01*
X0058182Y0131352D01*
X0057707Y0131828D01*
X0056281Y0131352D02*
X0056281Y0130402D01*
X0056756Y0129926D01*
X0056281Y0128944D02*
X0056756Y0128468D01*
X0058657Y0128468D01*
X0058182Y0127993D02*
X0058182Y0128944D01*
X0058182Y0127010D02*
X0058182Y0126059D01*
X0058657Y0126535D02*
X0056756Y0126535D01*
X0056281Y0127010D01*
X0056281Y0125061D02*
X0056281Y0123635D01*
X0056756Y0123159D01*
X0057231Y0123635D01*
X0057231Y0125061D01*
X0057707Y0125061D02*
X0056281Y0125061D01*
X0057707Y0125061D02*
X0058182Y0124585D01*
X0058182Y0123635D01*
X0058182Y0122161D02*
X0057707Y0121685D01*
X0057707Y0120259D01*
X0059133Y0120259D02*
X0059133Y0121685D01*
X0058657Y0122161D01*
X0058182Y0122161D01*
X0057707Y0121685D02*
X0057231Y0122161D01*
X0056756Y0122161D01*
X0056281Y0121685D01*
X0056281Y0120259D01*
X0059133Y0120259D01*
X0061005Y0120259D02*
X0061005Y0121685D01*
X0061480Y0122161D01*
X0061956Y0122161D01*
X0062431Y0121685D01*
X0062431Y0120259D01*
X0061005Y0120259D02*
X0063857Y0120259D01*
X0063857Y0121685D01*
X0063382Y0122161D01*
X0062906Y0122161D01*
X0062431Y0121685D01*
X0062906Y0123159D02*
X0062431Y0123635D01*
X0062431Y0124585D01*
X0061956Y0125061D01*
X0061480Y0125061D01*
X0061005Y0124585D01*
X0061005Y0123635D01*
X0061480Y0123159D01*
X0062906Y0123159D02*
X0063382Y0123159D01*
X0063857Y0123635D01*
X0063857Y0124585D01*
X0063382Y0125061D01*
X0063857Y0126059D02*
X0061005Y0126059D01*
X0061005Y0127961D01*
X0061005Y0128960D02*
X0061480Y0128960D01*
X0061480Y0129435D01*
X0061005Y0129435D01*
X0061005Y0128960D01*
X0062431Y0128960D02*
X0062906Y0128960D01*
X0062906Y0129435D01*
X0062431Y0129435D01*
X0062431Y0128960D01*
X0063857Y0127961D02*
X0063857Y0126059D01*
X0062431Y0126059D02*
X0062431Y0127010D01*
X0062431Y0133310D02*
X0062431Y0134260D01*
X0061005Y0133310D02*
X0061005Y0135211D01*
X0061480Y0136210D02*
X0061005Y0136685D01*
X0061005Y0138111D01*
X0060054Y0138111D02*
X0062906Y0138111D01*
X0062906Y0136685D01*
X0062431Y0136210D01*
X0061480Y0136210D01*
X0063857Y0135211D02*
X0063857Y0133310D01*
X0061005Y0133310D01*
X0061480Y0139110D02*
X0061005Y0139585D01*
X0061005Y0141011D01*
X0062906Y0141011D01*
X0062906Y0142010D02*
X0062906Y0142485D01*
X0061005Y0142485D01*
X0061005Y0142010D02*
X0061005Y0142961D01*
X0061480Y0143944D02*
X0061005Y0144419D01*
X0061005Y0145370D01*
X0061480Y0145845D01*
X0061956Y0145845D01*
X0062431Y0145370D01*
X0062431Y0144419D01*
X0062906Y0143944D01*
X0063382Y0143944D01*
X0063857Y0144419D01*
X0063857Y0145370D01*
X0063382Y0145845D01*
X0062906Y0147319D02*
X0062906Y0148270D01*
X0062431Y0148745D01*
X0061005Y0148745D01*
X0061005Y0147319D01*
X0061480Y0146844D01*
X0061956Y0147319D01*
X0061956Y0148745D01*
X0062906Y0149744D02*
X0062906Y0150694D01*
X0063382Y0150219D02*
X0061480Y0150219D01*
X0061005Y0150694D01*
X0058182Y0150694D02*
X0058182Y0151170D01*
X0058182Y0150694D02*
X0057231Y0149744D01*
X0056281Y0149744D02*
X0058182Y0149744D01*
X0057707Y0148745D02*
X0056281Y0148745D01*
X0056281Y0147319D01*
X0056756Y0146844D01*
X0057231Y0147319D01*
X0057231Y0148745D01*
X0057707Y0148745D02*
X0058182Y0148270D01*
X0058182Y0147319D01*
X0057707Y0145845D02*
X0058182Y0145370D01*
X0058182Y0144419D01*
X0057707Y0143944D01*
X0056756Y0143944D01*
X0056281Y0144419D01*
X0056281Y0145370D01*
X0056756Y0145845D01*
X0057707Y0145845D01*
X0058182Y0142945D02*
X0057707Y0142469D01*
X0057707Y0141043D01*
X0059133Y0141043D02*
X0059133Y0142469D01*
X0058657Y0142945D01*
X0058182Y0142945D01*
X0057707Y0142469D02*
X0057231Y0142945D01*
X0056756Y0142945D01*
X0056281Y0142469D01*
X0056281Y0141043D01*
X0059133Y0141043D01*
X0061480Y0139110D02*
X0062906Y0139110D01*
X0063857Y0142485D02*
X0064332Y0142485D01*
X0057707Y0152160D02*
X0058182Y0152636D01*
X0058182Y0154062D01*
X0059133Y0154062D02*
X0056281Y0154062D01*
X0056281Y0152636D01*
X0056756Y0152160D01*
X0057707Y0152160D01*
X0054408Y0152136D02*
X0053933Y0152612D01*
X0052032Y0150710D01*
X0051556Y0151186D01*
X0051556Y0152136D01*
X0052032Y0152612D01*
X0053933Y0152612D01*
X0054408Y0152136D02*
X0054408Y0151186D01*
X0053933Y0150710D01*
X0052032Y0150710D01*
X0051556Y0149712D02*
X0051556Y0147810D01*
X0053458Y0149712D01*
X0053933Y0149712D01*
X0054408Y0149236D01*
X0054408Y0148286D01*
X0053933Y0147810D01*
X0053458Y0143919D02*
X0053458Y0143444D01*
X0052507Y0142493D01*
X0051556Y0142493D02*
X0053458Y0142493D01*
X0052982Y0141495D02*
X0052507Y0141495D01*
X0052507Y0139593D01*
X0052982Y0139593D02*
X0053458Y0140069D01*
X0053458Y0141019D01*
X0052982Y0141495D01*
X0051556Y0141019D02*
X0051556Y0140069D01*
X0052032Y0139593D01*
X0052982Y0139593D01*
X0053458Y0153611D02*
X0054408Y0154561D01*
X0051556Y0154561D01*
X0051556Y0153611D02*
X0051556Y0155512D01*
X0051556Y0156511D02*
X0052032Y0156511D01*
X0053933Y0158412D01*
X0054408Y0158412D01*
X0054408Y0156511D01*
X0056281Y0158911D02*
X0057231Y0159862D01*
X0059133Y0159862D01*
X0058657Y0160861D02*
X0059133Y0161336D01*
X0059133Y0162287D01*
X0058657Y0162762D01*
X0058182Y0162762D01*
X0056281Y0160861D01*
X0056281Y0162762D01*
X0056281Y0158911D02*
X0057231Y0157961D01*
X0059133Y0157961D01*
X0050865Y0207817D02*
X0048013Y0209718D01*
X0047538Y0210717D02*
X0047538Y0212618D01*
X0048013Y0213617D02*
X0050865Y0213617D01*
X0050865Y0215043D01*
X0050390Y0215518D01*
X0049439Y0215518D01*
X0048964Y0215043D01*
X0048964Y0213617D01*
X0050865Y0209718D02*
X0048013Y0207817D01*
X0049602Y0223171D02*
X0048652Y0224122D01*
X0047226Y0224122D01*
X0048652Y0224122D02*
X0049602Y0225072D01*
X0050078Y0225072D01*
X0050078Y0223171D02*
X0049602Y0223171D01*
X0046750Y0226071D02*
X0046750Y0227972D01*
X0047226Y0228971D02*
X0050078Y0228971D01*
X0047226Y0230872D01*
X0050078Y0230872D01*
X0050471Y0238919D02*
X0050471Y0240820D01*
X0049996Y0240820D01*
X0048095Y0238919D01*
X0047619Y0238919D01*
X0047619Y0240820D01*
X0047144Y0241819D02*
X0047144Y0243720D01*
X0047619Y0244719D02*
X0050471Y0244719D01*
X0047619Y0246621D01*
X0050471Y0246621D01*
X0050078Y0251911D02*
X0050078Y0253812D01*
X0049602Y0253812D01*
X0047701Y0251911D01*
X0047226Y0251911D01*
X0047226Y0253812D01*
X0046750Y0254811D02*
X0046750Y0256713D01*
X0047226Y0257711D02*
X0050078Y0257711D01*
X0050078Y0259137D01*
X0049602Y0259613D01*
X0048652Y0259613D01*
X0048176Y0259137D01*
X0048176Y0257711D01*
X0047226Y0264903D02*
X0050078Y0266805D01*
X0050078Y0264903D02*
X0047226Y0266805D01*
X0046750Y0267803D02*
X0046750Y0269705D01*
X0047226Y0270703D02*
X0050078Y0270703D01*
X0047226Y0272605D01*
X0050078Y0272605D01*
X0068440Y0276734D02*
X0068915Y0276259D01*
X0069866Y0276259D01*
X0070341Y0276734D01*
X0071340Y0276734D02*
X0071816Y0276259D01*
X0072766Y0276259D01*
X0073242Y0276734D01*
X0073242Y0278636D01*
X0072766Y0279111D01*
X0071816Y0279111D01*
X0071340Y0278636D01*
X0070341Y0278636D02*
X0069866Y0279111D01*
X0068915Y0279111D01*
X0068440Y0278636D01*
X0068440Y0278160D01*
X0068915Y0277685D01*
X0068440Y0277210D01*
X0068440Y0276734D01*
X0068915Y0277685D02*
X0069391Y0277685D01*
X0087259Y0277975D02*
X0087735Y0277499D01*
X0088685Y0277499D01*
X0089161Y0277975D01*
X0090160Y0277499D02*
X0092061Y0277499D01*
X0091110Y0277499D02*
X0091110Y0280351D01*
X0092061Y0279401D01*
X0093060Y0279876D02*
X0093060Y0278925D01*
X0093535Y0278450D01*
X0094961Y0278450D01*
X0094010Y0278450D02*
X0093060Y0277499D01*
X0094961Y0277499D02*
X0094961Y0280351D01*
X0093535Y0280351D01*
X0093060Y0279876D01*
X0089161Y0279876D02*
X0088685Y0280351D01*
X0087735Y0280351D01*
X0087259Y0279876D01*
X0087259Y0279401D01*
X0087735Y0278925D01*
X0087259Y0278450D01*
X0087259Y0277975D01*
X0087735Y0278925D02*
X0088210Y0278925D01*
X0096350Y0273162D02*
X0099202Y0273162D01*
X0097776Y0271736D01*
X0097776Y0273637D01*
X0098726Y0270737D02*
X0099202Y0270262D01*
X0099202Y0269311D01*
X0098726Y0268836D01*
X0096825Y0268836D01*
X0096350Y0269311D01*
X0096350Y0270262D01*
X0096825Y0270737D01*
X0081280Y0296844D02*
X0078428Y0296844D01*
X0079379Y0296844D02*
X0079379Y0298270D01*
X0079854Y0298745D01*
X0080805Y0298745D01*
X0081280Y0298270D01*
X0081280Y0296844D01*
X0079379Y0297794D02*
X0078428Y0298745D01*
X0078428Y0299744D02*
X0078428Y0301645D01*
X0078428Y0300694D02*
X0081280Y0300694D01*
X0080330Y0299744D01*
X0079854Y0302644D02*
X0079854Y0304545D01*
X0078428Y0304070D02*
X0081280Y0304070D01*
X0079854Y0302644D01*
X0081271Y0409218D02*
X0083172Y0409218D01*
X0082221Y0409218D02*
X0082221Y0412070D01*
X0083172Y0411119D01*
X0084171Y0411119D02*
X0084646Y0410644D01*
X0084171Y0410168D01*
X0084171Y0409693D01*
X0084646Y0409218D01*
X0085597Y0409218D01*
X0086072Y0409693D01*
X0087071Y0409218D02*
X0088022Y0410168D01*
X0087546Y0410168D02*
X0088972Y0410168D01*
X0088972Y0409218D02*
X0088972Y0412070D01*
X0087546Y0412070D01*
X0087071Y0411594D01*
X0087071Y0410644D01*
X0087546Y0410168D01*
X0086072Y0411594D02*
X0085597Y0412070D01*
X0084646Y0412070D01*
X0084171Y0411594D01*
X0084171Y0411119D01*
X0084646Y0410644D02*
X0085122Y0410644D01*
X0134944Y0441301D02*
X0135419Y0440826D01*
X0136370Y0440826D01*
X0136845Y0441301D01*
X0134944Y0443203D01*
X0134944Y0441301D01*
X0136845Y0441301D02*
X0136845Y0443203D01*
X0136370Y0443678D01*
X0135419Y0443678D01*
X0134944Y0443203D01*
X0137844Y0443203D02*
X0137844Y0442727D01*
X0138319Y0442252D01*
X0137844Y0441777D01*
X0137844Y0441301D01*
X0138319Y0440826D01*
X0139270Y0440826D01*
X0139746Y0441301D01*
X0140744Y0441301D02*
X0141220Y0440826D01*
X0142170Y0440826D01*
X0142646Y0441301D01*
X0142646Y0443203D01*
X0142170Y0443678D01*
X0141220Y0443678D01*
X0140744Y0443203D01*
X0139746Y0443203D02*
X0139270Y0443678D01*
X0138319Y0443678D01*
X0137844Y0443203D01*
X0138319Y0442252D02*
X0138795Y0442252D01*
X0179015Y0355976D02*
X0181867Y0355976D01*
X0180441Y0354550D01*
X0180441Y0356451D01*
X0180441Y0353551D02*
X0180441Y0351650D01*
X0181867Y0353076D01*
X0179015Y0353076D01*
X0179015Y0350651D02*
X0179966Y0349700D01*
X0179966Y0350176D02*
X0179966Y0348750D01*
X0179015Y0348750D02*
X0181867Y0348750D01*
X0181867Y0350176D01*
X0181392Y0350651D01*
X0180441Y0350651D01*
X0179966Y0350176D01*
X0186456Y0353231D02*
X0188358Y0353231D01*
X0186456Y0355133D01*
X0186456Y0355608D01*
X0186932Y0356084D01*
X0187882Y0356084D01*
X0188358Y0355608D01*
X0189356Y0354658D02*
X0191258Y0354658D01*
X0189832Y0356084D01*
X0189832Y0353231D01*
X0192257Y0353231D02*
X0193207Y0354182D01*
X0192732Y0354182D02*
X0194158Y0354182D01*
X0194158Y0353231D02*
X0194158Y0356084D01*
X0192732Y0356084D01*
X0192257Y0355608D01*
X0192257Y0354658D01*
X0192732Y0354182D01*
X0198842Y0354345D02*
X0199317Y0353870D01*
X0198842Y0353395D01*
X0198842Y0352919D01*
X0199317Y0352444D01*
X0200268Y0352444D01*
X0200743Y0352919D01*
X0199793Y0353870D02*
X0199317Y0353870D01*
X0198842Y0354345D02*
X0198842Y0354821D01*
X0199317Y0355296D01*
X0200268Y0355296D01*
X0200743Y0354821D01*
X0201742Y0353870D02*
X0203644Y0353870D01*
X0202218Y0355296D01*
X0202218Y0352444D01*
X0204642Y0352444D02*
X0205593Y0353395D01*
X0205118Y0353395D02*
X0206544Y0353395D01*
X0206544Y0352444D02*
X0206544Y0355296D01*
X0205118Y0355296D01*
X0204642Y0354821D01*
X0204642Y0353870D01*
X0205118Y0353395D01*
X0220459Y0335410D02*
X0219983Y0334935D01*
X0219983Y0334460D01*
X0220459Y0333984D01*
X0219983Y0333509D01*
X0219983Y0333034D01*
X0220459Y0332558D01*
X0221409Y0332558D01*
X0221885Y0333034D01*
X0222884Y0333034D02*
X0223359Y0332558D01*
X0224310Y0332558D01*
X0224785Y0333034D01*
X0224785Y0333984D02*
X0223834Y0334460D01*
X0223359Y0334460D01*
X0222884Y0333984D01*
X0222884Y0333034D01*
X0224785Y0333984D02*
X0224785Y0335410D01*
X0222884Y0335410D01*
X0221885Y0334935D02*
X0221409Y0335410D01*
X0220459Y0335410D01*
X0220459Y0333984D02*
X0220934Y0333984D01*
X0225784Y0333984D02*
X0225784Y0334935D01*
X0226259Y0335410D01*
X0227685Y0335410D01*
X0227685Y0332558D01*
X0227685Y0333509D02*
X0226259Y0333509D01*
X0225784Y0333984D01*
X0226734Y0333509D02*
X0225784Y0332558D01*
X0220762Y0305270D02*
X0221237Y0304795D01*
X0221237Y0303844D01*
X0220762Y0303369D01*
X0220286Y0303369D01*
X0219811Y0303844D01*
X0219811Y0305270D01*
X0218860Y0305270D02*
X0220762Y0305270D01*
X0218860Y0305270D02*
X0218385Y0304795D01*
X0218385Y0303844D01*
X0218860Y0303369D01*
X0219811Y0302370D02*
X0219811Y0300469D01*
X0221237Y0301895D01*
X0218385Y0301895D01*
X0218385Y0299470D02*
X0219336Y0298519D01*
X0219336Y0298995D02*
X0219336Y0297569D01*
X0218385Y0297569D02*
X0221237Y0297569D01*
X0221237Y0298995D01*
X0220762Y0299470D01*
X0219811Y0299470D01*
X0219336Y0298995D01*
X0176162Y0313773D02*
X0176162Y0315199D01*
X0175687Y0315674D01*
X0174736Y0315674D01*
X0174261Y0315199D01*
X0174261Y0313773D01*
X0174261Y0314724D02*
X0173310Y0315674D01*
X0174736Y0316673D02*
X0174736Y0318574D01*
X0174736Y0319573D02*
X0175212Y0320524D01*
X0175212Y0320999D01*
X0174736Y0321474D01*
X0173786Y0321474D01*
X0173310Y0320999D01*
X0173310Y0320048D01*
X0173786Y0319573D01*
X0174736Y0319573D02*
X0176162Y0319573D01*
X0176162Y0321474D01*
X0176162Y0318099D02*
X0174736Y0316673D01*
X0173310Y0318099D02*
X0176162Y0318099D01*
X0176162Y0313773D02*
X0173310Y0313773D01*
X0197913Y0224955D02*
X0197913Y0223054D01*
X0197913Y0224005D02*
X0200765Y0224005D01*
X0199814Y0223054D01*
X0200289Y0222055D02*
X0200765Y0221580D01*
X0200765Y0220629D01*
X0200289Y0220154D01*
X0198388Y0220154D01*
X0197913Y0220629D01*
X0197913Y0221580D01*
X0198388Y0222055D01*
X0197924Y0216950D02*
X0197448Y0216474D01*
X0197448Y0215999D01*
X0197924Y0215524D01*
X0198874Y0215524D01*
X0199350Y0215999D01*
X0199350Y0216474D01*
X0198874Y0216950D01*
X0197924Y0216950D01*
X0197924Y0215524D02*
X0197448Y0215048D01*
X0197448Y0214573D01*
X0197924Y0214098D01*
X0198874Y0214098D01*
X0199350Y0214573D01*
X0199350Y0215048D01*
X0198874Y0215524D01*
X0200349Y0214098D02*
X0202250Y0214098D01*
X0201299Y0214098D02*
X0201299Y0216950D01*
X0202250Y0215999D01*
X0203249Y0216474D02*
X0203249Y0215524D01*
X0203724Y0215048D01*
X0205150Y0215048D01*
X0205150Y0214098D02*
X0205150Y0216950D01*
X0203724Y0216950D01*
X0203249Y0216474D01*
X0204199Y0215048D02*
X0203249Y0214098D01*
X0206396Y0200464D02*
X0204494Y0198563D01*
X0204019Y0198563D01*
X0204494Y0197564D02*
X0204019Y0197089D01*
X0204019Y0196138D01*
X0204494Y0195663D01*
X0206396Y0195663D01*
X0206871Y0196138D01*
X0206871Y0197089D01*
X0206396Y0197564D01*
X0206871Y0198563D02*
X0206871Y0200464D01*
X0206396Y0200464D01*
X0196509Y0193671D02*
X0196509Y0191770D01*
X0195083Y0191770D01*
X0195558Y0192721D01*
X0195558Y0193196D01*
X0195083Y0193671D01*
X0194132Y0193671D01*
X0193657Y0193196D01*
X0193657Y0192245D01*
X0194132Y0191770D01*
X0193657Y0190771D02*
X0193657Y0188870D01*
X0195558Y0190771D01*
X0196033Y0190771D01*
X0196509Y0190296D01*
X0196509Y0189345D01*
X0196033Y0188870D01*
X0196033Y0187871D02*
X0195083Y0187871D01*
X0194607Y0187396D01*
X0194607Y0185970D01*
X0193657Y0185970D02*
X0196509Y0185970D01*
X0196509Y0187396D01*
X0196033Y0187871D01*
X0194607Y0186920D02*
X0193657Y0187871D01*
X0198501Y0175111D02*
X0201353Y0175111D01*
X0199927Y0173685D01*
X0199927Y0175586D01*
X0198977Y0172686D02*
X0201353Y0172686D01*
X0201353Y0170785D02*
X0198977Y0170785D01*
X0198501Y0171260D01*
X0198501Y0172211D01*
X0198977Y0172686D01*
X0207325Y0163546D02*
X0209226Y0163546D01*
X0209702Y0163070D01*
X0209702Y0162120D01*
X0209226Y0161644D01*
X0208751Y0161644D01*
X0208276Y0162120D01*
X0208276Y0163546D01*
X0207325Y0163546D02*
X0206850Y0163070D01*
X0206850Y0162120D01*
X0207325Y0161644D01*
X0207325Y0160646D02*
X0206850Y0160170D01*
X0206850Y0159220D01*
X0207325Y0158744D01*
X0209226Y0158744D01*
X0209702Y0159220D01*
X0209702Y0160170D01*
X0209226Y0160646D01*
X0209133Y0158825D02*
X0205887Y0158825D01*
X0205887Y0159907D02*
X0205887Y0157742D01*
X0205887Y0156644D02*
X0205887Y0154480D01*
X0209133Y0154480D01*
X0208051Y0157742D02*
X0209133Y0158825D01*
X0206430Y0142773D02*
X0206905Y0142297D01*
X0206905Y0140396D01*
X0206430Y0139920D01*
X0205479Y0139920D01*
X0205004Y0140396D01*
X0204005Y0139920D02*
X0202104Y0139920D01*
X0203055Y0139920D02*
X0203055Y0142773D01*
X0204005Y0141822D01*
X0205004Y0142297D02*
X0205479Y0142773D01*
X0206430Y0142773D01*
X0201105Y0141822D02*
X0200155Y0142773D01*
X0200155Y0139920D01*
X0201105Y0139920D02*
X0199204Y0139920D01*
X0201044Y0128158D02*
X0201044Y0125732D01*
X0203471Y0128158D01*
X0204078Y0128158D01*
X0204685Y0127552D01*
X0204685Y0126338D01*
X0204078Y0125732D01*
X0202865Y0124533D02*
X0202865Y0122107D01*
X0204685Y0123927D01*
X0201044Y0123927D01*
X0201651Y0120908D02*
X0204078Y0120908D01*
X0204685Y0120302D01*
X0204685Y0119088D01*
X0204078Y0118481D01*
X0201651Y0118481D01*
X0201044Y0119088D01*
X0201044Y0120302D01*
X0201651Y0120908D01*
X0202865Y0117283D02*
X0202258Y0116676D01*
X0202258Y0114856D01*
X0201044Y0114856D02*
X0204685Y0114856D01*
X0204685Y0116676D01*
X0204078Y0117283D01*
X0202865Y0117283D01*
X0204685Y0113658D02*
X0204685Y0111231D01*
X0201044Y0111231D01*
X0201044Y0113658D01*
X0202865Y0112445D02*
X0202865Y0111231D01*
X0204685Y0110033D02*
X0204685Y0107606D01*
X0201044Y0107606D01*
X0201044Y0106403D02*
X0201044Y0105189D01*
X0201044Y0105796D02*
X0204685Y0105796D01*
X0204685Y0105189D02*
X0204685Y0106403D01*
X0202865Y0107606D02*
X0202865Y0108819D01*
X0198658Y0108121D02*
X0196494Y0108121D01*
X0195395Y0107039D02*
X0194313Y0108121D01*
X0194313Y0104875D01*
X0195395Y0104875D02*
X0193231Y0104875D01*
X0197576Y0106498D02*
X0198658Y0106498D01*
X0198658Y0104875D02*
X0198658Y0108121D01*
X0201044Y0103991D02*
X0201044Y0101564D01*
X0204685Y0101564D01*
X0204212Y0095253D02*
X0205162Y0095253D01*
X0205638Y0094777D01*
X0205638Y0092876D01*
X0205162Y0092401D01*
X0204212Y0092401D01*
X0203736Y0092876D01*
X0202738Y0092401D02*
X0200836Y0092401D01*
X0201787Y0092401D02*
X0201787Y0095253D01*
X0202738Y0094302D01*
X0203736Y0094777D02*
X0204212Y0095253D01*
X0199838Y0095253D02*
X0199838Y0093827D01*
X0198887Y0094302D01*
X0198412Y0094302D01*
X0197936Y0093827D01*
X0197936Y0092876D01*
X0198412Y0092401D01*
X0199362Y0092401D01*
X0199838Y0092876D01*
X0199838Y0095253D02*
X0197936Y0095253D01*
X0176355Y0084010D02*
X0175880Y0084010D01*
X0173978Y0082109D01*
X0173503Y0082109D01*
X0173978Y0081110D02*
X0173503Y0080635D01*
X0173503Y0079684D01*
X0173978Y0079209D01*
X0173503Y0078210D02*
X0174454Y0077259D01*
X0174454Y0077735D02*
X0174454Y0076309D01*
X0173503Y0076309D02*
X0176355Y0076309D01*
X0176355Y0077735D01*
X0175880Y0078210D01*
X0174929Y0078210D01*
X0174454Y0077735D01*
X0175880Y0079209D02*
X0176355Y0079684D01*
X0176355Y0080635D01*
X0175880Y0081110D01*
X0175405Y0081110D01*
X0174929Y0080635D01*
X0174454Y0081110D01*
X0173978Y0081110D01*
X0174929Y0080635D02*
X0174929Y0080159D01*
X0176355Y0082109D02*
X0176355Y0084010D01*
X0162440Y0091726D02*
X0160188Y0091726D01*
X0159737Y0092176D01*
X0159737Y0093077D01*
X0160188Y0093527D01*
X0162440Y0093527D01*
X0161539Y0094488D02*
X0162440Y0095389D01*
X0159737Y0095389D01*
X0159737Y0094488D02*
X0159737Y0096290D01*
X0159737Y0097251D02*
X0161539Y0099052D01*
X0161989Y0099052D01*
X0162440Y0098602D01*
X0162440Y0097701D01*
X0161989Y0097251D01*
X0159737Y0097251D02*
X0159737Y0099052D01*
X0132945Y0099888D02*
X0132470Y0099413D01*
X0131519Y0099413D01*
X0131044Y0099888D01*
X0130045Y0099413D02*
X0128144Y0101314D01*
X0128144Y0101789D01*
X0128619Y0102265D01*
X0129570Y0102265D01*
X0130045Y0101789D01*
X0131044Y0101789D02*
X0131519Y0102265D01*
X0132470Y0102265D01*
X0132945Y0101789D01*
X0132945Y0099888D01*
X0130045Y0099413D02*
X0128144Y0099413D01*
X0127145Y0099413D02*
X0125244Y0099413D01*
X0126194Y0099413D02*
X0126194Y0102265D01*
X0127145Y0101314D01*
X0177334Y0199688D02*
X0177334Y0200164D01*
X0175433Y0202065D01*
X0175433Y0202540D01*
X0177334Y0202540D01*
X0179283Y0202540D02*
X0179283Y0199688D01*
X0178333Y0199688D02*
X0180234Y0199688D01*
X0181233Y0199688D02*
X0182184Y0200639D01*
X0181708Y0200639D02*
X0183134Y0200639D01*
X0183134Y0199688D02*
X0183134Y0202540D01*
X0181708Y0202540D01*
X0181233Y0202065D01*
X0181233Y0201114D01*
X0181708Y0200639D01*
X0180234Y0201590D02*
X0179283Y0202540D01*
X0219869Y0191416D02*
X0219869Y0190466D01*
X0220345Y0189990D01*
X0220820Y0189990D01*
X0221295Y0190466D01*
X0221295Y0191416D01*
X0220820Y0191892D01*
X0220345Y0191892D01*
X0219869Y0191416D01*
X0221295Y0191416D02*
X0221771Y0191892D01*
X0222246Y0191892D01*
X0222721Y0191416D01*
X0222721Y0190466D01*
X0222246Y0189990D01*
X0221771Y0189990D01*
X0221295Y0190466D01*
X0221295Y0188992D02*
X0221295Y0187090D01*
X0222721Y0188516D01*
X0219869Y0188516D01*
X0219869Y0186092D02*
X0220820Y0185141D01*
X0220820Y0185616D02*
X0220820Y0184190D01*
X0219869Y0184190D02*
X0222721Y0184190D01*
X0222721Y0185616D01*
X0222246Y0186092D01*
X0221295Y0186092D01*
X0220820Y0185616D01*
X0265641Y0219667D02*
X0267542Y0219667D01*
X0265641Y0221568D01*
X0265641Y0222043D01*
X0266116Y0222519D01*
X0267067Y0222519D01*
X0267542Y0222043D01*
X0268541Y0222043D02*
X0270442Y0220142D01*
X0270442Y0219667D01*
X0271441Y0219667D02*
X0272392Y0220617D01*
X0271916Y0220617D02*
X0273342Y0220617D01*
X0273342Y0219667D02*
X0273342Y0222519D01*
X0271916Y0222519D01*
X0271441Y0222043D01*
X0271441Y0221093D01*
X0271916Y0220617D01*
X0270442Y0222519D02*
X0268541Y0222519D01*
X0268541Y0222043D01*
X0290533Y0239745D02*
X0293385Y0239745D01*
X0293385Y0241171D01*
X0292909Y0241647D01*
X0291959Y0241647D01*
X0291483Y0241171D01*
X0291483Y0239745D01*
X0291483Y0240696D02*
X0290533Y0241647D01*
X0291008Y0242645D02*
X0290533Y0243121D01*
X0290533Y0244071D01*
X0291008Y0244547D01*
X0291959Y0244547D01*
X0292434Y0244071D01*
X0292434Y0243596D01*
X0291959Y0242645D01*
X0293385Y0242645D01*
X0293385Y0244547D01*
X0293385Y0245545D02*
X0291959Y0245545D01*
X0292434Y0246496D01*
X0292434Y0246972D01*
X0291959Y0247447D01*
X0291008Y0247447D01*
X0290533Y0246972D01*
X0290533Y0246021D01*
X0291008Y0245545D01*
X0293385Y0245545D02*
X0293385Y0247447D01*
X0275810Y0304950D02*
X0275810Y0306376D01*
X0275335Y0306851D01*
X0274384Y0306851D01*
X0273909Y0306376D01*
X0273909Y0304950D01*
X0273909Y0305901D02*
X0272958Y0306851D01*
X0273433Y0307850D02*
X0272958Y0308325D01*
X0272958Y0309276D01*
X0273433Y0309751D01*
X0274384Y0309751D01*
X0274859Y0309276D01*
X0274859Y0308801D01*
X0274384Y0307850D01*
X0275810Y0307850D01*
X0275810Y0309751D01*
X0274384Y0310750D02*
X0274384Y0312652D01*
X0275810Y0312176D02*
X0274384Y0310750D01*
X0272958Y0312176D02*
X0275810Y0312176D01*
X0275810Y0304950D02*
X0272958Y0304950D01*
X0349588Y0355454D02*
X0352440Y0355454D01*
X0352440Y0356880D01*
X0351964Y0357356D01*
X0351014Y0357356D01*
X0350538Y0356880D01*
X0350538Y0355454D01*
X0350538Y0356405D02*
X0349588Y0357356D01*
X0350063Y0358354D02*
X0349588Y0358830D01*
X0349588Y0359781D01*
X0350063Y0360256D01*
X0351014Y0360256D01*
X0351489Y0359781D01*
X0351489Y0359305D01*
X0351014Y0358354D01*
X0352440Y0358354D01*
X0352440Y0360256D01*
X0351964Y0361255D02*
X0351489Y0361255D01*
X0351014Y0361730D01*
X0351014Y0363156D01*
X0351964Y0363156D02*
X0350063Y0363156D01*
X0349588Y0362681D01*
X0349588Y0361730D01*
X0350063Y0361255D01*
X0351964Y0361255D02*
X0352440Y0361730D01*
X0352440Y0362681D01*
X0351964Y0363156D01*
X0369254Y0386151D02*
X0368779Y0386627D01*
X0368779Y0387577D01*
X0369254Y0388053D01*
X0369254Y0389051D02*
X0368779Y0389527D01*
X0368779Y0390477D01*
X0369254Y0390953D01*
X0369729Y0390953D01*
X0370205Y0390477D01*
X0370205Y0390002D01*
X0370205Y0390477D02*
X0370680Y0390953D01*
X0371155Y0390953D01*
X0371631Y0390477D01*
X0371631Y0389527D01*
X0371155Y0389051D01*
X0371155Y0388053D02*
X0371631Y0387577D01*
X0371631Y0386627D01*
X0371155Y0386151D01*
X0369254Y0386151D01*
X0369254Y0391951D02*
X0368779Y0391951D01*
X0369254Y0391951D02*
X0371155Y0393853D01*
X0371631Y0393853D01*
X0371631Y0391951D01*
X0369076Y0420859D02*
X0366224Y0420859D01*
X0367174Y0420859D02*
X0367174Y0422285D01*
X0367650Y0422761D01*
X0368600Y0422761D01*
X0369076Y0422285D01*
X0369076Y0420859D01*
X0367174Y0421810D02*
X0366224Y0422761D01*
X0366699Y0423760D02*
X0366224Y0424235D01*
X0366224Y0425186D01*
X0366699Y0425661D01*
X0367174Y0425661D01*
X0367650Y0425186D01*
X0367650Y0424235D01*
X0368125Y0423760D01*
X0368600Y0423760D01*
X0369076Y0424235D01*
X0369076Y0425186D01*
X0368600Y0425661D01*
X0368125Y0425661D01*
X0367650Y0425186D01*
X0367650Y0424235D02*
X0367174Y0423760D01*
X0366699Y0423760D01*
X0366224Y0426660D02*
X0366224Y0428561D01*
X0366224Y0427610D02*
X0369076Y0427610D01*
X0368125Y0426660D01*
X0369076Y0435820D02*
X0366224Y0435820D01*
X0367174Y0435820D02*
X0367174Y0437246D01*
X0367650Y0437721D01*
X0368600Y0437721D01*
X0369076Y0437246D01*
X0369076Y0435820D01*
X0367174Y0436771D02*
X0366224Y0437721D01*
X0366699Y0438720D02*
X0366224Y0439196D01*
X0366224Y0440146D01*
X0366699Y0440622D01*
X0367174Y0440622D01*
X0367650Y0440146D01*
X0367650Y0439196D01*
X0368125Y0438720D01*
X0368600Y0438720D01*
X0369076Y0439196D01*
X0369076Y0440146D01*
X0368600Y0440622D01*
X0368125Y0440622D01*
X0367650Y0440146D01*
X0367650Y0439196D02*
X0367174Y0438720D01*
X0366699Y0438720D01*
X0366699Y0441620D02*
X0368600Y0443522D01*
X0366699Y0443522D01*
X0366224Y0443046D01*
X0366224Y0442096D01*
X0366699Y0441620D01*
X0368600Y0441620D01*
X0369076Y0442096D01*
X0369076Y0443046D01*
X0368600Y0443522D01*
X0341517Y0439978D02*
X0341041Y0439028D01*
X0340091Y0438077D01*
X0340091Y0439503D01*
X0339615Y0439978D01*
X0339140Y0439978D01*
X0338665Y0439503D01*
X0338665Y0438552D01*
X0339140Y0438077D01*
X0340091Y0438077D01*
X0340566Y0437078D02*
X0340091Y0436603D01*
X0339615Y0437078D01*
X0339140Y0437078D01*
X0338665Y0436603D01*
X0338665Y0435652D01*
X0339140Y0435177D01*
X0339140Y0434178D02*
X0338665Y0433703D01*
X0338665Y0432752D01*
X0339140Y0432277D01*
X0341041Y0432277D01*
X0341517Y0432752D01*
X0341517Y0433703D01*
X0341041Y0434178D01*
X0341041Y0435177D02*
X0341517Y0435652D01*
X0341517Y0436603D01*
X0341041Y0437078D01*
X0340566Y0437078D01*
X0340091Y0436603D02*
X0340091Y0436128D01*
X0294957Y0178424D02*
X0293531Y0178424D01*
X0293056Y0177949D01*
X0293056Y0176998D01*
X0293531Y0176523D01*
X0294957Y0176523D01*
X0294006Y0176523D02*
X0293056Y0175572D01*
X0292057Y0175572D02*
X0292057Y0176047D01*
X0290156Y0177949D01*
X0290156Y0178424D01*
X0292057Y0178424D01*
X0294957Y0178424D02*
X0294957Y0175572D01*
X0289157Y0176047D02*
X0288682Y0175572D01*
X0287731Y0175572D01*
X0287256Y0176047D01*
X0287256Y0176523D01*
X0287731Y0176998D01*
X0288206Y0176998D01*
X0287731Y0176998D02*
X0287256Y0177473D01*
X0287256Y0177949D01*
X0287731Y0178424D01*
X0288682Y0178424D01*
X0289157Y0177949D01*
X0363422Y0155442D02*
X0367063Y0155442D01*
X0365242Y0153622D01*
X0365242Y0156048D01*
X0365242Y0152423D02*
X0365242Y0149996D01*
X0367063Y0151816D01*
X0363422Y0151816D01*
X0364029Y0148798D02*
X0366456Y0148798D01*
X0367063Y0148191D01*
X0367063Y0146978D01*
X0366456Y0146371D01*
X0364029Y0146371D01*
X0363422Y0146978D01*
X0363422Y0148191D01*
X0364029Y0148798D01*
X0365242Y0145173D02*
X0364636Y0144566D01*
X0364636Y0142746D01*
X0363422Y0142746D02*
X0367063Y0142746D01*
X0367063Y0144566D01*
X0366456Y0145173D01*
X0365242Y0145173D01*
X0363422Y0141548D02*
X0363422Y0139121D01*
X0367063Y0139121D01*
X0367063Y0141548D01*
X0365242Y0140334D02*
X0365242Y0139121D01*
X0367063Y0137923D02*
X0367063Y0135496D01*
X0363422Y0135496D01*
X0363422Y0134292D02*
X0363422Y0133079D01*
X0363422Y0133686D02*
X0367063Y0133686D01*
X0367063Y0134292D02*
X0367063Y0133079D01*
X0365242Y0135496D02*
X0365242Y0136709D01*
X0363422Y0131881D02*
X0363422Y0129454D01*
X0367063Y0129454D01*
D11*
X0284341Y0152787D02*
X0279487Y0152787D01*
X0281914Y0150361D02*
X0281914Y0155214D01*
X0220004Y0080937D02*
X0215150Y0080937D01*
X0217577Y0083364D02*
X0217577Y0078510D01*
X0212754Y0077297D02*
X0207900Y0084577D01*
X0212754Y0084577D02*
X0207900Y0077297D01*
X0171532Y0090603D02*
X0171532Y0102761D01*
X0165922Y0102761D01*
X0165922Y0090603D01*
X0171532Y0090603D01*
X0206324Y0150361D02*
X0206324Y0155214D01*
X0208750Y0152787D02*
X0203897Y0152787D01*
X0109538Y0127787D02*
X0104684Y0127787D01*
X0107111Y0125361D02*
X0107111Y0130214D01*
X0070698Y0164792D02*
X0070698Y0186839D01*
X0066367Y0186839D01*
X0051800Y0186839D01*
X0051800Y0164792D01*
X0070698Y0164792D01*
X0070698Y0164837D02*
X0051800Y0164837D01*
X0051800Y0165435D02*
X0070698Y0165435D01*
X0070698Y0166034D02*
X0051800Y0166034D01*
X0051800Y0166632D02*
X0070698Y0166632D01*
X0070698Y0167231D02*
X0051800Y0167231D01*
X0051800Y0167829D02*
X0070698Y0167829D01*
X0070698Y0168428D02*
X0051800Y0168428D01*
X0051800Y0169026D02*
X0070698Y0169026D01*
X0070698Y0169625D02*
X0051800Y0169625D01*
X0051800Y0170223D02*
X0070698Y0170223D01*
X0070698Y0170822D02*
X0051800Y0170822D01*
X0051800Y0171421D02*
X0070698Y0171421D01*
X0070698Y0172019D02*
X0051800Y0172019D01*
X0051800Y0172618D02*
X0070698Y0172618D01*
X0070698Y0173216D02*
X0051800Y0173216D01*
X0051800Y0173815D02*
X0070698Y0173815D01*
X0070698Y0174413D02*
X0051800Y0174413D01*
X0051800Y0175012D02*
X0070698Y0175012D01*
X0070698Y0175610D02*
X0051800Y0175610D01*
X0051800Y0176209D02*
X0070698Y0176209D01*
X0070698Y0176807D02*
X0051800Y0176807D01*
X0051800Y0177406D02*
X0070698Y0177406D01*
X0070698Y0178004D02*
X0051800Y0178004D01*
X0051800Y0178603D02*
X0070698Y0178603D01*
X0070698Y0179201D02*
X0051800Y0179201D01*
X0051800Y0179800D02*
X0070698Y0179800D01*
X0070698Y0180398D02*
X0051800Y0180398D01*
X0051800Y0180997D02*
X0070698Y0180997D01*
X0070698Y0181595D02*
X0051800Y0181595D01*
X0051800Y0182194D02*
X0070698Y0182194D01*
X0070698Y0182792D02*
X0051800Y0182792D01*
X0051800Y0183391D02*
X0070698Y0183391D01*
X0070698Y0183989D02*
X0051800Y0183989D01*
X0051800Y0184588D02*
X0070698Y0184588D01*
X0070698Y0185186D02*
X0051800Y0185186D01*
X0051800Y0185785D02*
X0070698Y0185785D01*
X0070698Y0186383D02*
X0051800Y0186383D01*
X0051601Y0312336D02*
X0056454Y0312336D01*
X0056454Y0313550D01*
X0051601Y0318403D01*
X0051601Y0319616D01*
X0056454Y0319616D01*
X0058851Y0315976D02*
X0063705Y0315976D01*
X0061278Y0313550D02*
X0061278Y0318403D01*
D12*
X0075952Y0293003D02*
X0082767Y0293006D01*
X0082767Y0280675D01*
X0075949Y0280675D01*
X0075952Y0293003D01*
X0087762Y0293004D02*
X0087762Y0280673D01*
X0094577Y0280676D01*
X0094580Y0293004D01*
X0087762Y0293004D01*
X0082248Y0275287D02*
X0094579Y0275287D01*
X0094578Y0268469D01*
X0082251Y0268472D01*
X0082248Y0275287D01*
X0078436Y0274892D02*
X0078439Y0268077D01*
X0066108Y0268077D01*
X0066108Y0274895D01*
X0078436Y0274892D01*
X0070304Y0265186D02*
X0089989Y0265186D01*
X0089989Y0245501D01*
X0070304Y0245501D01*
X0070304Y0265186D01*
X0065318Y0239460D02*
X0077650Y0239460D01*
X0077649Y0232642D01*
X0065322Y0232645D01*
X0065318Y0239460D01*
X0081328Y0234083D02*
X0081328Y0222272D01*
X0093139Y0222272D01*
X0093139Y0234083D01*
X0081328Y0234083D01*
X0097604Y0230801D02*
X0097604Y0223983D01*
X0109935Y0223982D01*
X0109932Y0230797D01*
X0097604Y0230801D01*
X0096682Y0219517D02*
X0096682Y0210461D01*
X0095107Y0210461D01*
X0095107Y0210068D01*
X0106131Y0210068D01*
X0106131Y0210461D01*
X0104556Y0210461D01*
X0096682Y0210461D01*
X0096682Y0210068D01*
X0104556Y0210068D01*
X0104556Y0210461D01*
X0104556Y0219517D01*
X0096682Y0219517D01*
X0091823Y0214263D02*
X0079492Y0214264D01*
X0079495Y0207448D01*
X0091822Y0207445D01*
X0091823Y0214263D01*
X0096682Y0210068D02*
X0096682Y0207706D01*
X0104556Y0207706D01*
X0104556Y0210068D01*
X0109469Y0133926D02*
X0097469Y0133926D01*
X0097469Y0105926D01*
X0109469Y0105926D01*
X0109674Y0106131D02*
X0109674Y0381721D01*
X0185265Y0381721D01*
X0185265Y0106131D01*
X0109674Y0106131D01*
X0119469Y0105926D02*
X0124095Y0105926D01*
X0128032Y0105926D02*
X0132657Y0105926D01*
X0135791Y0104027D02*
X0148122Y0104027D01*
X0148122Y0097209D01*
X0135794Y0097212D01*
X0135791Y0104027D01*
X0136594Y0105926D02*
X0141220Y0105926D01*
X0145157Y0105926D02*
X0149782Y0105926D01*
X0153719Y0105926D02*
X0158344Y0105926D01*
X0162281Y0105926D02*
X0166907Y0105926D01*
X0170844Y0105926D02*
X0175469Y0105926D01*
X0183822Y0094185D02*
X0196154Y0094184D01*
X0196153Y0087366D01*
X0183826Y0087370D01*
X0183822Y0094185D01*
X0171746Y0089067D02*
X0171742Y0076739D01*
X0164927Y0076736D01*
X0164928Y0089067D01*
X0171746Y0089067D01*
X0196682Y0128926D02*
X0196682Y0158926D01*
X0209182Y0158926D01*
X0204162Y0164005D02*
X0186052Y0164005D01*
X0186052Y0150619D01*
X0204162Y0150619D01*
X0204162Y0164005D01*
X0202329Y0166106D02*
X0202329Y0178437D01*
X0209147Y0178437D01*
X0209144Y0166109D01*
X0202329Y0166106D01*
X0197469Y0166761D02*
X0197469Y0178572D01*
X0185658Y0178572D01*
X0185658Y0166761D01*
X0197469Y0166761D01*
X0202327Y0181069D02*
X0202330Y0193396D01*
X0209145Y0193400D01*
X0209145Y0181068D01*
X0202327Y0181069D01*
X0210596Y0181066D02*
X0210597Y0193398D01*
X0217415Y0193397D01*
X0217412Y0181070D01*
X0210596Y0181066D01*
X0197334Y0197209D02*
X0185007Y0197212D01*
X0185004Y0204027D01*
X0197335Y0204027D01*
X0197334Y0197209D01*
X0191824Y0194578D02*
X0191821Y0182251D01*
X0185006Y0182248D01*
X0185006Y0194579D01*
X0191824Y0194578D01*
X0189731Y0206267D02*
X0189728Y0213082D01*
X0202059Y0213082D01*
X0202059Y0206264D01*
X0189731Y0206267D01*
X0195242Y0226736D02*
X0195243Y0239067D01*
X0202061Y0239067D01*
X0202057Y0226739D01*
X0195242Y0226736D01*
X0210201Y0284612D02*
X0210204Y0296940D01*
X0217019Y0296943D01*
X0217019Y0284612D01*
X0210201Y0284612D01*
X0210203Y0300752D02*
X0210203Y0313083D01*
X0217021Y0313082D01*
X0217018Y0300755D01*
X0210203Y0300752D01*
X0184342Y0306392D02*
X0184342Y0294060D01*
X0177524Y0294061D01*
X0177527Y0306388D01*
X0184342Y0306392D01*
X0184342Y0310202D02*
X0184342Y0322534D01*
X0177527Y0322530D01*
X0177524Y0310203D01*
X0184342Y0310202D01*
X0204690Y0331463D02*
X0217022Y0331462D01*
X0217018Y0338278D01*
X0204691Y0338281D01*
X0204690Y0331463D01*
X0202452Y0338942D02*
X0202453Y0351274D01*
X0195637Y0351270D01*
X0195634Y0338943D01*
X0202452Y0338942D01*
X0193790Y0339336D02*
X0193791Y0351667D01*
X0186976Y0351664D01*
X0186973Y0339337D01*
X0193790Y0339336D01*
X0186309Y0335401D02*
X0186312Y0347728D01*
X0179495Y0347729D01*
X0179494Y0335397D01*
X0186309Y0335401D01*
X0185469Y0358926D02*
X0197469Y0358926D01*
X0197469Y0381926D01*
X0185469Y0381926D01*
X0175469Y0381926D02*
X0170844Y0381926D01*
X0166907Y0381926D02*
X0162281Y0381926D01*
X0158344Y0381926D02*
X0153719Y0381926D01*
X0149782Y0381926D02*
X0145157Y0381926D01*
X0141220Y0381926D02*
X0136594Y0381926D01*
X0132657Y0381926D02*
X0128032Y0381926D01*
X0124095Y0381926D02*
X0119469Y0381926D01*
X0135265Y0396682D02*
X0159674Y0396682D01*
X0159674Y0401406D01*
X0145501Y0401406D01*
X0145501Y0406524D02*
X0159674Y0406524D01*
X0159674Y0411249D01*
X0145501Y0411249D01*
X0153375Y0416367D02*
X0159674Y0416367D01*
X0159674Y0421485D01*
X0145501Y0421485D01*
X0145501Y0426603D02*
X0159280Y0426603D01*
X0159280Y0431328D02*
X0145501Y0431328D01*
X0144454Y0438156D02*
X0156785Y0438155D01*
X0156782Y0444971D01*
X0144455Y0444974D01*
X0144454Y0438156D01*
X0135265Y0436052D02*
X0159674Y0436052D01*
X0159674Y0421485D01*
X0159674Y0416367D02*
X0159674Y0411249D01*
X0159674Y0406524D02*
X0159674Y0401406D01*
X0159674Y0396682D02*
X0196682Y0396682D01*
X0197863Y0397469D01*
X0197863Y0435265D01*
X0197076Y0436052D01*
X0159674Y0436052D01*
X0135265Y0436052D02*
X0135265Y0396682D01*
X0104556Y0412036D02*
X0104556Y0423847D01*
X0092745Y0423847D01*
X0092745Y0412036D01*
X0104556Y0412036D01*
X0087627Y0413217D02*
X0087627Y0425816D01*
X0077391Y0425816D01*
X0077391Y0413217D01*
X0087627Y0413217D01*
X0083375Y0387981D02*
X0071603Y0387981D01*
X0071603Y0369359D01*
X0083414Y0369359D01*
X0083375Y0387981D01*
X0065051Y0378436D02*
X0065051Y0371618D01*
X0052723Y0371622D01*
X0052720Y0378437D01*
X0065051Y0378436D01*
X0064266Y0382250D02*
X0064262Y0389065D01*
X0051935Y0389068D01*
X0051934Y0382251D01*
X0064266Y0382250D01*
X0064927Y0365446D02*
X0077254Y0365443D01*
X0077258Y0358628D01*
X0064927Y0358628D01*
X0064927Y0365446D01*
X0201406Y0391564D02*
X0228572Y0391564D01*
X0228572Y0411249D01*
X0228178Y0411249D01*
X0201406Y0411249D01*
X0201406Y0391564D01*
X0208887Y0381721D02*
X0208887Y0106131D01*
X0284477Y0106131D01*
X0284477Y0381721D01*
X0360068Y0381721D01*
X0360068Y0106131D01*
X0284477Y0106131D01*
X0284477Y0381721D01*
X0208887Y0381721D01*
X0218682Y0381926D02*
X0223307Y0381926D01*
X0227244Y0381926D02*
X0231870Y0381926D01*
X0235807Y0381926D02*
X0240432Y0381926D01*
X0244369Y0381926D02*
X0248995Y0381926D01*
X0252932Y0381926D02*
X0257557Y0381926D01*
X0261494Y0381926D02*
X0266119Y0381926D01*
X0270056Y0381926D02*
X0274682Y0381926D01*
X0262430Y0386839D02*
X0262036Y0386839D01*
X0262036Y0406524D01*
X0289202Y0406524D01*
X0289202Y0386839D01*
X0262430Y0386839D01*
X0262036Y0414398D02*
X0261643Y0414398D01*
X0261643Y0434083D01*
X0288808Y0434083D01*
X0288808Y0414398D01*
X0262036Y0414398D01*
X0228178Y0414398D02*
X0228178Y0434083D01*
X0227784Y0434083D01*
X0201013Y0434083D01*
X0201013Y0414398D01*
X0228178Y0414398D01*
X0284182Y0353926D02*
X0296682Y0353926D01*
X0296682Y0323926D01*
X0284182Y0323926D01*
X0287627Y0315580D02*
X0277391Y0315580D01*
X0277391Y0302981D01*
X0287627Y0302981D01*
X0287627Y0315580D01*
X0294320Y0285265D02*
X0274635Y0285265D01*
X0274635Y0265580D01*
X0294320Y0265580D01*
X0294320Y0285265D01*
X0289595Y0252587D02*
X0279359Y0252587D01*
X0279359Y0239989D01*
X0289595Y0239989D01*
X0289595Y0252587D01*
X0290776Y0226209D02*
X0278178Y0226209D01*
X0278178Y0215973D01*
X0290776Y0215973D01*
X0290776Y0226209D01*
X0294320Y0205343D02*
X0274635Y0205343D01*
X0274635Y0185658D01*
X0294320Y0185658D01*
X0294320Y0205343D01*
X0290776Y0174241D02*
X0278178Y0174241D01*
X0278178Y0164005D01*
X0290776Y0164005D01*
X0290776Y0174241D01*
X0284772Y0158926D02*
X0272272Y0158926D01*
X0272272Y0128926D01*
X0284772Y0128926D01*
X0294272Y0105926D02*
X0298898Y0105926D01*
X0302835Y0105926D02*
X0307460Y0105926D01*
X0311397Y0105926D02*
X0316023Y0105926D01*
X0319960Y0105926D02*
X0324585Y0105926D01*
X0328522Y0105926D02*
X0333148Y0105926D01*
X0337085Y0105926D02*
X0341710Y0105926D01*
X0345647Y0105926D02*
X0350272Y0105926D01*
X0274682Y0105926D02*
X0270056Y0105926D01*
X0266119Y0105926D02*
X0261494Y0105926D01*
X0257557Y0105926D02*
X0252932Y0105926D01*
X0248995Y0105926D02*
X0244369Y0105926D01*
X0240432Y0105926D02*
X0235807Y0105926D01*
X0231870Y0105926D02*
X0227244Y0105926D01*
X0223307Y0105926D02*
X0218682Y0105926D01*
X0209182Y0128926D02*
X0196682Y0128926D01*
X0196156Y0138549D02*
X0183824Y0138550D01*
X0183825Y0145368D01*
X0196152Y0145364D01*
X0196156Y0138549D01*
X0359772Y0323926D02*
X0372272Y0323926D01*
X0372272Y0353926D01*
X0359772Y0353926D01*
X0354950Y0358493D02*
X0365186Y0358493D01*
X0365186Y0371091D01*
X0354950Y0371091D01*
X0354950Y0358493D01*
X0375422Y0360068D02*
X0375422Y0348257D01*
X0387233Y0348257D01*
X0387233Y0360068D01*
X0375422Y0360068D01*
X0365837Y0384613D02*
X0359021Y0384610D01*
X0359022Y0396941D01*
X0365840Y0396941D01*
X0365837Y0384613D01*
X0356918Y0391564D02*
X0332509Y0391564D01*
X0332509Y0406131D01*
X0346682Y0406131D01*
X0346682Y0401013D02*
X0332902Y0401013D01*
X0332902Y0396288D02*
X0346682Y0396288D01*
X0356918Y0391564D02*
X0356918Y0430934D01*
X0332509Y0430934D01*
X0332509Y0426209D01*
X0346682Y0426209D01*
X0346682Y0421091D02*
X0332509Y0421091D01*
X0332509Y0416367D01*
X0346682Y0416367D01*
X0338808Y0411249D02*
X0332509Y0411249D01*
X0332509Y0406131D01*
X0332509Y0411249D02*
X0332509Y0416367D01*
X0332509Y0421091D02*
X0332509Y0426209D01*
X0332509Y0430934D02*
X0295501Y0430934D01*
X0294320Y0430146D01*
X0294320Y0392351D01*
X0295107Y0391564D01*
X0332509Y0391564D01*
X0333148Y0381926D02*
X0328522Y0381926D01*
X0324585Y0381926D02*
X0319960Y0381926D01*
X0316023Y0381926D02*
X0311397Y0381926D01*
X0307460Y0381926D02*
X0302835Y0381926D01*
X0298898Y0381926D02*
X0294272Y0381926D01*
X0337085Y0381926D02*
X0341710Y0381926D01*
X0345647Y0381926D02*
X0350272Y0381926D01*
X0358626Y0417683D02*
X0358629Y0430010D01*
X0365445Y0430014D01*
X0365444Y0417682D01*
X0358626Y0417683D01*
X0358234Y0433035D02*
X0358235Y0445366D01*
X0365053Y0445366D01*
X0365049Y0433038D01*
X0358234Y0433035D01*
X0355211Y0433037D02*
X0355207Y0439853D01*
X0342880Y0439856D01*
X0342879Y0433038D01*
X0355211Y0433037D01*
D13*
X0326964Y0143415D02*
X0326964Y0124068D01*
X0317291Y0133742D02*
X0336638Y0133742D01*
X0261047Y0133742D02*
X0241700Y0133742D01*
X0251374Y0143415D02*
X0251374Y0124068D01*
X0161835Y0132679D02*
X0142487Y0132679D01*
X0152161Y0142352D02*
X0152161Y0123005D01*
D14*
X0142222Y0310686D02*
X0166423Y0310686D01*
X0241435Y0312497D02*
X0265635Y0312497D01*
X0317025Y0312497D02*
X0341226Y0312497D01*
D15*
X0364788Y0328891D02*
X0372068Y0328891D01*
X0296477Y0328891D02*
X0289197Y0328891D01*
X0197765Y0361391D02*
X0190485Y0361391D01*
D16*
X0291170Y0269910D02*
X0291172Y0269966D01*
X0291178Y0270021D01*
X0291188Y0270075D01*
X0291201Y0270129D01*
X0291219Y0270182D01*
X0291240Y0270233D01*
X0291264Y0270283D01*
X0291292Y0270331D01*
X0291324Y0270377D01*
X0291358Y0270421D01*
X0291396Y0270462D01*
X0291436Y0270500D01*
X0291479Y0270535D01*
X0291524Y0270567D01*
X0291572Y0270596D01*
X0291621Y0270622D01*
X0291672Y0270644D01*
X0291724Y0270662D01*
X0291778Y0270676D01*
X0291833Y0270687D01*
X0291888Y0270694D01*
X0291943Y0270697D01*
X0291999Y0270696D01*
X0292054Y0270691D01*
X0292109Y0270682D01*
X0292163Y0270670D01*
X0292216Y0270653D01*
X0292268Y0270633D01*
X0292318Y0270609D01*
X0292366Y0270582D01*
X0292413Y0270552D01*
X0292457Y0270518D01*
X0292499Y0270481D01*
X0292537Y0270441D01*
X0292574Y0270399D01*
X0292607Y0270354D01*
X0292636Y0270308D01*
X0292663Y0270259D01*
X0292685Y0270208D01*
X0292705Y0270156D01*
X0292720Y0270102D01*
X0292732Y0270048D01*
X0292740Y0269993D01*
X0292744Y0269938D01*
X0292744Y0269882D01*
X0292740Y0269827D01*
X0292732Y0269772D01*
X0292720Y0269718D01*
X0292705Y0269664D01*
X0292685Y0269612D01*
X0292663Y0269561D01*
X0292636Y0269512D01*
X0292607Y0269466D01*
X0292574Y0269421D01*
X0292537Y0269379D01*
X0292499Y0269339D01*
X0292457Y0269302D01*
X0292413Y0269268D01*
X0292366Y0269238D01*
X0292318Y0269211D01*
X0292268Y0269187D01*
X0292216Y0269167D01*
X0292163Y0269150D01*
X0292109Y0269138D01*
X0292054Y0269129D01*
X0291999Y0269124D01*
X0291943Y0269123D01*
X0291888Y0269126D01*
X0291833Y0269133D01*
X0291778Y0269144D01*
X0291724Y0269158D01*
X0291672Y0269176D01*
X0291621Y0269198D01*
X0291572Y0269224D01*
X0291524Y0269253D01*
X0291479Y0269285D01*
X0291436Y0269320D01*
X0291396Y0269358D01*
X0291358Y0269399D01*
X0291324Y0269443D01*
X0291292Y0269489D01*
X0291264Y0269537D01*
X0291240Y0269587D01*
X0291219Y0269638D01*
X0291201Y0269691D01*
X0291188Y0269745D01*
X0291178Y0269799D01*
X0291172Y0269854D01*
X0291170Y0269910D01*
X0291170Y0189989D02*
X0291172Y0190045D01*
X0291178Y0190100D01*
X0291188Y0190154D01*
X0291201Y0190208D01*
X0291219Y0190261D01*
X0291240Y0190312D01*
X0291264Y0190362D01*
X0291292Y0190410D01*
X0291324Y0190456D01*
X0291358Y0190500D01*
X0291396Y0190541D01*
X0291436Y0190579D01*
X0291479Y0190614D01*
X0291524Y0190646D01*
X0291572Y0190675D01*
X0291621Y0190701D01*
X0291672Y0190723D01*
X0291724Y0190741D01*
X0291778Y0190755D01*
X0291833Y0190766D01*
X0291888Y0190773D01*
X0291943Y0190776D01*
X0291999Y0190775D01*
X0292054Y0190770D01*
X0292109Y0190761D01*
X0292163Y0190749D01*
X0292216Y0190732D01*
X0292268Y0190712D01*
X0292318Y0190688D01*
X0292366Y0190661D01*
X0292413Y0190631D01*
X0292457Y0190597D01*
X0292499Y0190560D01*
X0292537Y0190520D01*
X0292574Y0190478D01*
X0292607Y0190433D01*
X0292636Y0190387D01*
X0292663Y0190338D01*
X0292685Y0190287D01*
X0292705Y0190235D01*
X0292720Y0190181D01*
X0292732Y0190127D01*
X0292740Y0190072D01*
X0292744Y0190017D01*
X0292744Y0189961D01*
X0292740Y0189906D01*
X0292732Y0189851D01*
X0292720Y0189797D01*
X0292705Y0189743D01*
X0292685Y0189691D01*
X0292663Y0189640D01*
X0292636Y0189591D01*
X0292607Y0189545D01*
X0292574Y0189500D01*
X0292537Y0189458D01*
X0292499Y0189418D01*
X0292457Y0189381D01*
X0292413Y0189347D01*
X0292366Y0189317D01*
X0292318Y0189290D01*
X0292268Y0189266D01*
X0292216Y0189246D01*
X0292163Y0189229D01*
X0292109Y0189217D01*
X0292054Y0189208D01*
X0291999Y0189203D01*
X0291943Y0189202D01*
X0291888Y0189205D01*
X0291833Y0189212D01*
X0291778Y0189223D01*
X0291724Y0189237D01*
X0291672Y0189255D01*
X0291621Y0189277D01*
X0291572Y0189303D01*
X0291524Y0189332D01*
X0291479Y0189364D01*
X0291436Y0189399D01*
X0291396Y0189437D01*
X0291358Y0189478D01*
X0291324Y0189522D01*
X0291292Y0189568D01*
X0291264Y0189616D01*
X0291240Y0189666D01*
X0291219Y0189717D01*
X0291201Y0189770D01*
X0291188Y0189824D01*
X0291178Y0189878D01*
X0291172Y0189933D01*
X0291170Y0189989D01*
X0084871Y0262824D02*
X0084873Y0262880D01*
X0084879Y0262935D01*
X0084889Y0262989D01*
X0084902Y0263043D01*
X0084920Y0263096D01*
X0084941Y0263147D01*
X0084965Y0263197D01*
X0084993Y0263245D01*
X0085025Y0263291D01*
X0085059Y0263335D01*
X0085097Y0263376D01*
X0085137Y0263414D01*
X0085180Y0263449D01*
X0085225Y0263481D01*
X0085273Y0263510D01*
X0085322Y0263536D01*
X0085373Y0263558D01*
X0085425Y0263576D01*
X0085479Y0263590D01*
X0085534Y0263601D01*
X0085589Y0263608D01*
X0085644Y0263611D01*
X0085700Y0263610D01*
X0085755Y0263605D01*
X0085810Y0263596D01*
X0085864Y0263584D01*
X0085917Y0263567D01*
X0085969Y0263547D01*
X0086019Y0263523D01*
X0086067Y0263496D01*
X0086114Y0263466D01*
X0086158Y0263432D01*
X0086200Y0263395D01*
X0086238Y0263355D01*
X0086275Y0263313D01*
X0086308Y0263268D01*
X0086337Y0263222D01*
X0086364Y0263173D01*
X0086386Y0263122D01*
X0086406Y0263070D01*
X0086421Y0263016D01*
X0086433Y0262962D01*
X0086441Y0262907D01*
X0086445Y0262852D01*
X0086445Y0262796D01*
X0086441Y0262741D01*
X0086433Y0262686D01*
X0086421Y0262632D01*
X0086406Y0262578D01*
X0086386Y0262526D01*
X0086364Y0262475D01*
X0086337Y0262426D01*
X0086308Y0262380D01*
X0086275Y0262335D01*
X0086238Y0262293D01*
X0086200Y0262253D01*
X0086158Y0262216D01*
X0086114Y0262182D01*
X0086067Y0262152D01*
X0086019Y0262125D01*
X0085969Y0262101D01*
X0085917Y0262081D01*
X0085864Y0262064D01*
X0085810Y0262052D01*
X0085755Y0262043D01*
X0085700Y0262038D01*
X0085644Y0262037D01*
X0085589Y0262040D01*
X0085534Y0262047D01*
X0085479Y0262058D01*
X0085425Y0262072D01*
X0085373Y0262090D01*
X0085322Y0262112D01*
X0085273Y0262138D01*
X0085225Y0262167D01*
X0085180Y0262199D01*
X0085137Y0262234D01*
X0085097Y0262272D01*
X0085059Y0262313D01*
X0085025Y0262357D01*
X0084993Y0262403D01*
X0084965Y0262451D01*
X0084941Y0262501D01*
X0084920Y0262552D01*
X0084902Y0262605D01*
X0084889Y0262659D01*
X0084879Y0262713D01*
X0084873Y0262768D01*
X0084871Y0262824D01*
D17*
X0085024Y0243218D02*
X0085024Y0238614D01*
X0086558Y0238614D02*
X0083489Y0238614D01*
X0086558Y0241683D02*
X0085024Y0243218D01*
X0088093Y0243218D02*
X0088093Y0238614D01*
X0091162Y0238614D02*
X0091162Y0243218D01*
X0089628Y0241683D01*
X0088093Y0243218D01*
X0103808Y0299878D02*
X0103808Y0302948D01*
X0105343Y0301413D02*
X0102273Y0301413D01*
X0166528Y0389669D02*
X0169597Y0389669D01*
X0171132Y0389669D02*
X0171132Y0394273D01*
X0169597Y0392739D02*
X0168062Y0394273D01*
X0168062Y0389669D01*
X0171132Y0389669D02*
X0172666Y0391204D01*
X0174201Y0389669D01*
X0174201Y0394273D01*
X0175735Y0393506D02*
X0176503Y0394273D01*
X0178037Y0394273D01*
X0178805Y0393506D01*
X0178805Y0392739D01*
X0178037Y0391971D01*
X0176503Y0391971D01*
X0175735Y0391204D01*
X0175735Y0390437D01*
X0176503Y0389669D01*
X0178037Y0389669D01*
X0178805Y0390437D01*
X0298764Y0433425D02*
X0298764Y0434192D01*
X0299531Y0434959D01*
X0301066Y0434959D01*
X0301833Y0435727D01*
X0301833Y0436494D01*
X0301066Y0437261D01*
X0299531Y0437261D01*
X0298764Y0436494D01*
X0298764Y0433425D02*
X0299531Y0432657D01*
X0301066Y0432657D01*
X0301833Y0433425D01*
X0303368Y0432657D02*
X0303368Y0437261D01*
X0304902Y0435727D01*
X0306437Y0437261D01*
X0306437Y0432657D01*
X0307972Y0433425D02*
X0308739Y0432657D01*
X0310274Y0432657D01*
X0311041Y0433425D01*
X0311041Y0434192D01*
X0307972Y0437261D01*
X0311041Y0437261D01*
X0301880Y0280813D02*
X0301880Y0277743D01*
X0299578Y0277743D01*
X0300345Y0279278D01*
X0300345Y0280045D01*
X0299578Y0280813D01*
X0298043Y0280813D01*
X0297276Y0280045D01*
X0297276Y0278511D01*
X0298043Y0277743D01*
X0297276Y0276209D02*
X0297276Y0273139D01*
X0297276Y0274674D02*
X0301880Y0274674D01*
X0300345Y0273139D01*
X0301880Y0271605D02*
X0298043Y0271605D01*
X0297276Y0270837D01*
X0297276Y0269303D01*
X0298043Y0268535D01*
X0301880Y0268535D01*
X0357276Y0198256D02*
X0357276Y0195187D01*
X0358811Y0196722D02*
X0355742Y0196722D01*
X0192607Y0103324D02*
X0185009Y0103324D01*
X0185009Y0097127D02*
X0192607Y0097127D01*
X0105935Y0147574D02*
X0100819Y0147574D01*
X0100819Y0150984D01*
X0100819Y0152649D02*
X0100819Y0154354D01*
X0100819Y0153501D02*
X0105935Y0153501D01*
X0105935Y0152649D02*
X0105935Y0154354D01*
X0103377Y0156032D02*
X0103377Y0159443D01*
X0105935Y0161107D02*
X0105935Y0162813D01*
X0105935Y0161960D02*
X0100819Y0161960D01*
X0100819Y0161107D02*
X0100819Y0162813D01*
X0101672Y0164491D02*
X0100819Y0165344D01*
X0100819Y0167049D01*
X0101672Y0167902D01*
X0105082Y0167902D01*
X0105935Y0167049D01*
X0105935Y0165344D01*
X0105082Y0164491D01*
X0101672Y0164491D01*
X0100819Y0169566D02*
X0105935Y0169566D01*
X0100819Y0172977D01*
X0105935Y0172977D01*
X0105082Y0174641D02*
X0105935Y0175494D01*
X0105935Y0177199D01*
X0105082Y0178052D01*
X0104230Y0178052D01*
X0100819Y0174641D01*
X0100819Y0178052D01*
D18*
X0107018Y0207412D02*
X0107018Y0208691D01*
X0107444Y0209117D01*
X0109150Y0209117D01*
X0109576Y0208691D01*
X0109576Y0207412D01*
X0107018Y0207412D01*
X0107018Y0209949D02*
X0108723Y0211655D01*
X0109150Y0211655D01*
X0109576Y0211228D01*
X0109576Y0210376D01*
X0109150Y0209949D01*
X0107018Y0209949D02*
X0107018Y0211655D01*
X0104825Y0220676D02*
X0103972Y0220676D01*
X0103546Y0221102D01*
X0102714Y0220676D02*
X0101008Y0222381D01*
X0101008Y0222808D01*
X0101435Y0223234D01*
X0102287Y0223234D01*
X0102714Y0222808D01*
X0103546Y0222808D02*
X0103972Y0223234D01*
X0104825Y0223234D01*
X0105251Y0222808D01*
X0105251Y0221102D01*
X0104825Y0220676D01*
X0102714Y0220676D02*
X0101008Y0220676D01*
X0100176Y0221102D02*
X0099750Y0220676D01*
X0098897Y0220676D01*
X0098471Y0221102D01*
X0098471Y0221529D01*
X0098897Y0221955D01*
X0099323Y0221955D01*
X0098897Y0221955D02*
X0098471Y0222381D01*
X0098471Y0222808D01*
X0098897Y0223234D01*
X0099750Y0223234D01*
X0100176Y0222808D01*
X0097371Y0221979D02*
X0095240Y0221979D01*
X0094813Y0222405D01*
X0094813Y0223258D01*
X0095240Y0223684D01*
X0097371Y0223684D01*
X0096519Y0224516D02*
X0097371Y0225369D01*
X0094813Y0225369D01*
X0094813Y0224516D02*
X0094813Y0226222D01*
X0095240Y0227054D02*
X0096945Y0228759D01*
X0095240Y0228759D01*
X0094813Y0228333D01*
X0094813Y0227480D01*
X0095240Y0227054D01*
X0096945Y0227054D01*
X0097371Y0227480D01*
X0097371Y0228333D01*
X0096945Y0228759D01*
X0091162Y0217572D02*
X0091588Y0217145D01*
X0091588Y0215440D01*
X0091162Y0215014D01*
X0090309Y0215014D01*
X0089883Y0215440D01*
X0089051Y0215014D02*
X0087345Y0215014D01*
X0088198Y0215014D02*
X0088198Y0217572D01*
X0089051Y0216719D01*
X0089883Y0217145D02*
X0090309Y0217572D01*
X0091162Y0217572D01*
X0086513Y0217145D02*
X0086513Y0216719D01*
X0086087Y0216293D01*
X0084808Y0216293D01*
X0084808Y0217145D02*
X0085234Y0217572D01*
X0086087Y0217572D01*
X0086513Y0217145D01*
X0086513Y0215440D02*
X0086087Y0215014D01*
X0085234Y0215014D01*
X0084808Y0215440D01*
X0084808Y0217145D01*
X0076989Y0240211D02*
X0076136Y0240211D01*
X0075710Y0240637D01*
X0074878Y0240211D02*
X0073172Y0240211D01*
X0072340Y0240211D02*
X0072340Y0240637D01*
X0070635Y0242342D01*
X0070635Y0242769D01*
X0072340Y0242769D01*
X0074025Y0242769D02*
X0074025Y0240211D01*
X0074878Y0241916D02*
X0074025Y0242769D01*
X0075710Y0242342D02*
X0076136Y0242769D01*
X0076989Y0242769D01*
X0077415Y0242342D01*
X0077415Y0240637D01*
X0076989Y0240211D01*
X0104852Y0303518D02*
X0104852Y0305223D01*
X0104852Y0304370D02*
X0102294Y0304370D01*
X0102294Y0306055D02*
X0103999Y0307761D01*
X0104425Y0307761D01*
X0104852Y0307334D01*
X0104852Y0306482D01*
X0104425Y0306055D01*
X0102294Y0306055D02*
X0102294Y0307761D01*
X0070036Y0355322D02*
X0070036Y0357880D01*
X0068757Y0357880D01*
X0068331Y0357453D01*
X0068331Y0356601D01*
X0068757Y0356174D01*
X0070036Y0356174D01*
X0069184Y0356174D02*
X0068331Y0355322D01*
X0067499Y0355748D02*
X0067499Y0356174D01*
X0067072Y0356601D01*
X0066220Y0356601D01*
X0065793Y0356174D01*
X0065793Y0355748D01*
X0066220Y0355322D01*
X0067072Y0355322D01*
X0067499Y0355748D01*
X0067072Y0356601D02*
X0067499Y0357027D01*
X0067499Y0357453D01*
X0067072Y0357880D01*
X0066220Y0357880D01*
X0065793Y0357453D01*
X0065793Y0357027D01*
X0066220Y0356601D01*
X0059305Y0367770D02*
X0059305Y0370328D01*
X0058026Y0370328D01*
X0057600Y0369901D01*
X0057600Y0369049D01*
X0058026Y0368622D01*
X0059305Y0368622D01*
X0058452Y0368622D02*
X0057600Y0367770D01*
X0056767Y0367770D02*
X0056767Y0368196D01*
X0055062Y0369901D01*
X0055062Y0370328D01*
X0056767Y0370328D01*
X0057307Y0378944D02*
X0059013Y0378944D01*
X0058160Y0378944D02*
X0058160Y0381502D01*
X0059013Y0380649D01*
X0059845Y0381075D02*
X0060271Y0381502D01*
X0061124Y0381502D01*
X0061550Y0381075D01*
X0061550Y0379370D01*
X0061124Y0378944D01*
X0060271Y0378944D01*
X0059845Y0379370D01*
X0056475Y0379370D02*
X0056049Y0378944D01*
X0055196Y0378944D01*
X0054770Y0379370D01*
X0054770Y0379796D01*
X0055196Y0380223D01*
X0055622Y0380223D01*
X0055196Y0380223D02*
X0054770Y0380649D01*
X0054770Y0381075D01*
X0055196Y0381502D01*
X0056049Y0381502D01*
X0056475Y0381075D01*
X0051033Y0391776D02*
X0048231Y0391776D01*
X0048231Y0393644D01*
X0048231Y0394538D02*
X0050099Y0396407D01*
X0050566Y0396407D01*
X0051033Y0395940D01*
X0051033Y0395005D01*
X0050566Y0394538D01*
X0048231Y0394538D02*
X0048231Y0396407D01*
X0047764Y0397301D02*
X0047764Y0399169D01*
X0048698Y0400063D02*
X0048231Y0400530D01*
X0048231Y0401464D01*
X0048698Y0401931D01*
X0049632Y0401931D01*
X0049632Y0400997D01*
X0050566Y0400063D02*
X0048698Y0400063D01*
X0050566Y0400063D02*
X0051033Y0400530D01*
X0051033Y0401464D01*
X0050566Y0401931D01*
X0051033Y0402825D02*
X0048231Y0404694D01*
X0051033Y0404694D01*
X0051033Y0405588D02*
X0051033Y0406989D01*
X0050566Y0407456D01*
X0048698Y0407456D01*
X0048231Y0406989D01*
X0048231Y0405588D01*
X0051033Y0405588D01*
X0051033Y0402825D02*
X0048231Y0402825D01*
X0049632Y0408350D02*
X0049632Y0410218D01*
X0063336Y0407120D02*
X0065205Y0407120D01*
X0066099Y0406186D02*
X0066099Y0408054D01*
X0066566Y0408521D01*
X0067967Y0408521D01*
X0067967Y0405719D01*
X0066566Y0405719D01*
X0066099Y0406186D01*
X0068861Y0405719D02*
X0068861Y0408521D01*
X0070729Y0408521D02*
X0068861Y0405719D01*
X0070729Y0405719D02*
X0070729Y0408521D01*
X0071623Y0408054D02*
X0072090Y0408521D01*
X0073025Y0408521D01*
X0073492Y0408054D01*
X0073492Y0406186D01*
X0073025Y0405719D01*
X0072090Y0405719D01*
X0071623Y0406186D01*
X0071623Y0407120D01*
X0072558Y0407120D01*
X0074386Y0405252D02*
X0076254Y0405252D01*
X0077148Y0405719D02*
X0079016Y0405719D01*
X0079910Y0405719D02*
X0081779Y0405719D01*
X0081779Y0408521D01*
X0079016Y0407587D02*
X0078082Y0408521D01*
X0078082Y0405719D01*
X0078434Y0432089D02*
X0078434Y0434891D01*
X0077540Y0434891D02*
X0076139Y0434891D01*
X0075671Y0434424D01*
X0075671Y0432556D01*
X0076139Y0432089D01*
X0077540Y0432089D01*
X0077540Y0434891D01*
X0080302Y0434891D02*
X0078434Y0432089D01*
X0080302Y0432089D02*
X0080302Y0434891D01*
X0081196Y0434424D02*
X0081663Y0434891D01*
X0082597Y0434891D01*
X0083064Y0434424D01*
X0083064Y0432556D01*
X0082597Y0432089D01*
X0081663Y0432089D01*
X0081196Y0432556D01*
X0081196Y0433490D01*
X0082130Y0433490D01*
X0083959Y0431622D02*
X0085827Y0431622D01*
X0086721Y0432089D02*
X0088589Y0432089D01*
X0089483Y0432089D02*
X0091351Y0432089D01*
X0091351Y0434891D01*
X0093382Y0433490D02*
X0095250Y0433490D01*
X0096144Y0432556D02*
X0096144Y0434424D01*
X0096611Y0434891D01*
X0098012Y0434891D01*
X0098012Y0432089D01*
X0096611Y0432089D01*
X0096144Y0432556D01*
X0094316Y0432556D02*
X0094316Y0434424D01*
X0098906Y0434891D02*
X0098906Y0432089D01*
X0100775Y0434891D01*
X0100775Y0432089D01*
X0101669Y0432556D02*
X0102136Y0432089D01*
X0103070Y0432089D01*
X0103537Y0432556D01*
X0103537Y0434424D01*
X0103070Y0434891D01*
X0102136Y0434891D01*
X0101669Y0434424D01*
X0101669Y0433490D02*
X0102603Y0433490D01*
X0101669Y0433490D02*
X0101669Y0432556D01*
X0104431Y0431622D02*
X0106299Y0431622D01*
X0107193Y0432089D02*
X0109062Y0432089D01*
X0107193Y0433957D01*
X0107193Y0434424D01*
X0107660Y0434891D01*
X0108595Y0434891D01*
X0109062Y0434424D01*
X0109956Y0432089D02*
X0111824Y0432089D01*
X0111824Y0434891D01*
X0108756Y0424296D02*
X0108330Y0424296D01*
X0107903Y0423870D01*
X0107903Y0423017D01*
X0108330Y0422591D01*
X0108756Y0422591D01*
X0109182Y0423017D01*
X0109182Y0423870D01*
X0108756Y0424296D01*
X0107903Y0423870D02*
X0107477Y0424296D01*
X0107051Y0424296D01*
X0106624Y0423870D01*
X0106624Y0423017D01*
X0107051Y0422591D01*
X0107477Y0422591D01*
X0107903Y0423017D01*
X0107051Y0421759D02*
X0109182Y0421759D01*
X0109182Y0420053D02*
X0107051Y0420053D01*
X0106624Y0420479D01*
X0106624Y0421332D01*
X0107051Y0421759D01*
X0087655Y0432089D02*
X0087655Y0434891D01*
X0088589Y0433957D01*
X0074777Y0433490D02*
X0072909Y0433490D01*
X0073843Y0434424D02*
X0073843Y0432556D01*
X0084767Y0377639D02*
X0085194Y0377639D01*
X0085620Y0377213D01*
X0085620Y0375934D01*
X0084767Y0375934D01*
X0084341Y0376360D01*
X0084341Y0377213D01*
X0084767Y0377639D01*
X0085620Y0375934D02*
X0086473Y0376786D01*
X0086899Y0377639D01*
X0086899Y0375101D02*
X0084767Y0375101D01*
X0084341Y0374675D01*
X0084341Y0373822D01*
X0084767Y0373396D01*
X0086899Y0373396D01*
X0187455Y0301437D02*
X0187881Y0301863D01*
X0188307Y0301863D01*
X0188734Y0301437D01*
X0188734Y0300158D01*
X0187881Y0300158D01*
X0187455Y0300584D01*
X0187455Y0301437D01*
X0188734Y0300158D02*
X0189586Y0301010D01*
X0190013Y0301863D01*
X0188734Y0299325D02*
X0188734Y0297620D01*
X0190013Y0298899D01*
X0187455Y0298899D01*
X0187455Y0296788D02*
X0188307Y0295935D01*
X0188307Y0296361D02*
X0188307Y0295082D01*
X0187455Y0295082D02*
X0190013Y0295082D01*
X0190013Y0296361D01*
X0189586Y0296788D01*
X0188734Y0296788D01*
X0188307Y0296361D01*
X0200663Y0279387D02*
X0200663Y0276585D01*
X0198795Y0276585D01*
X0201558Y0277052D02*
X0202025Y0276585D01*
X0202959Y0276585D01*
X0203426Y0277052D01*
X0203426Y0278920D01*
X0202959Y0279387D01*
X0202025Y0279387D01*
X0201558Y0278920D01*
X0204320Y0278920D02*
X0204787Y0279387D01*
X0205721Y0279387D01*
X0206188Y0278920D01*
X0206188Y0278453D01*
X0205721Y0277986D01*
X0204787Y0277986D01*
X0204320Y0277519D01*
X0204320Y0277052D01*
X0204787Y0276585D01*
X0205721Y0276585D01*
X0206188Y0277052D01*
X0217770Y0284846D02*
X0220328Y0284846D01*
X0220328Y0286125D01*
X0219901Y0286552D01*
X0219049Y0286552D01*
X0218622Y0286125D01*
X0218622Y0284846D01*
X0218622Y0285699D02*
X0217770Y0286552D01*
X0218196Y0287384D02*
X0217770Y0287810D01*
X0217770Y0288663D01*
X0218196Y0289089D01*
X0219049Y0289089D01*
X0219475Y0288663D01*
X0219475Y0288237D01*
X0219049Y0287384D01*
X0220328Y0287384D01*
X0220328Y0289089D01*
X0219901Y0289921D02*
X0220328Y0290348D01*
X0220328Y0291200D01*
X0219901Y0291627D01*
X0218196Y0289921D01*
X0217770Y0290348D01*
X0217770Y0291200D01*
X0218196Y0291627D01*
X0219901Y0291627D01*
X0219901Y0289921D02*
X0218196Y0289921D01*
X0201095Y0254576D02*
X0201562Y0254109D01*
X0201562Y0253642D01*
X0201095Y0253175D01*
X0200161Y0253175D01*
X0199694Y0252708D01*
X0199694Y0252241D01*
X0200161Y0251774D01*
X0201095Y0251774D01*
X0201562Y0252241D01*
X0201095Y0254576D02*
X0200161Y0254576D01*
X0199694Y0254109D01*
X0198800Y0254576D02*
X0197398Y0254576D01*
X0196931Y0254109D01*
X0196931Y0252241D01*
X0197398Y0251774D01*
X0198800Y0251774D01*
X0198800Y0254576D01*
X0196037Y0253642D02*
X0195103Y0254576D01*
X0194169Y0253642D01*
X0194169Y0251774D01*
X0194169Y0253175D02*
X0196037Y0253175D01*
X0196037Y0253642D02*
X0196037Y0251774D01*
X0295994Y0192865D02*
X0296421Y0192865D01*
X0298126Y0194570D01*
X0298553Y0194570D01*
X0298553Y0192865D01*
X0298553Y0191180D02*
X0295994Y0191180D01*
X0295994Y0190327D02*
X0295994Y0192033D01*
X0297700Y0190327D02*
X0298553Y0191180D01*
X0298553Y0189495D02*
X0296421Y0189495D01*
X0295994Y0189069D01*
X0295994Y0188216D01*
X0296421Y0187790D01*
X0298553Y0187790D01*
X0354656Y0190154D02*
X0357214Y0190154D01*
X0357214Y0189302D02*
X0357214Y0191007D01*
X0355935Y0191839D02*
X0357214Y0193118D01*
X0354656Y0193118D01*
X0355935Y0193545D02*
X0355935Y0191839D01*
X0370153Y0195128D02*
X0372021Y0195128D01*
X0372021Y0192325D01*
X0372916Y0192325D02*
X0374784Y0192325D01*
X0374784Y0195128D01*
X0372916Y0195128D01*
X0372021Y0193726D02*
X0371087Y0193726D01*
X0373850Y0193726D02*
X0374784Y0193726D01*
X0375678Y0193726D02*
X0376145Y0193259D01*
X0377546Y0193259D01*
X0377546Y0192325D02*
X0377546Y0195128D01*
X0376145Y0195128D01*
X0375678Y0194661D01*
X0375678Y0193726D01*
X0376612Y0193259D02*
X0375678Y0192325D01*
X0378440Y0191858D02*
X0380309Y0191858D01*
X0381203Y0192325D02*
X0383071Y0192325D01*
X0382137Y0192325D02*
X0382137Y0195128D01*
X0383071Y0194193D01*
X0383965Y0195128D02*
X0385833Y0195128D01*
X0385833Y0192325D01*
X0386727Y0192325D02*
X0388596Y0192325D01*
X0388596Y0195128D01*
X0385833Y0193726D02*
X0384899Y0193726D01*
X0392325Y0202006D02*
X0392325Y0203874D01*
X0392325Y0204768D02*
X0395128Y0204768D01*
X0395128Y0206636D01*
X0395128Y0207531D02*
X0395128Y0208932D01*
X0394661Y0209399D01*
X0394193Y0209399D01*
X0393726Y0208932D01*
X0393726Y0207531D01*
X0393726Y0208932D02*
X0393259Y0209399D01*
X0392792Y0209399D01*
X0392325Y0208932D01*
X0392325Y0207531D01*
X0395128Y0207531D01*
X0393726Y0205702D02*
X0393726Y0204768D01*
X0395128Y0202006D02*
X0392325Y0202006D01*
X0392325Y0210293D02*
X0392325Y0212161D01*
X0392325Y0211227D02*
X0395128Y0211227D01*
X0394193Y0210293D01*
X0391858Y0213055D02*
X0391858Y0214924D01*
X0392792Y0215818D02*
X0392325Y0216285D01*
X0392325Y0217219D01*
X0392792Y0217686D01*
X0392325Y0218580D02*
X0395128Y0218580D01*
X0394661Y0217686D02*
X0395128Y0217219D01*
X0395128Y0216285D01*
X0394661Y0215818D01*
X0392792Y0215818D01*
X0393726Y0218580D02*
X0393726Y0220448D01*
X0392792Y0221342D02*
X0392325Y0221809D01*
X0392325Y0222744D01*
X0392792Y0223211D01*
X0393726Y0223211D01*
X0393726Y0222276D01*
X0392792Y0221342D02*
X0394661Y0221342D01*
X0395128Y0221809D01*
X0395128Y0222744D01*
X0394661Y0223211D01*
X0395128Y0220448D02*
X0392325Y0220448D01*
X0392719Y0227977D02*
X0392719Y0229845D01*
X0392719Y0230740D02*
X0395521Y0230740D01*
X0395521Y0232608D01*
X0395521Y0233502D02*
X0395521Y0234903D01*
X0395054Y0235370D01*
X0394587Y0235370D01*
X0394120Y0234903D01*
X0394120Y0233502D01*
X0394120Y0234903D02*
X0393653Y0235370D01*
X0393186Y0235370D01*
X0392719Y0234903D01*
X0392719Y0233502D01*
X0395521Y0233502D01*
X0394120Y0231674D02*
X0394120Y0230740D01*
X0395521Y0227977D02*
X0392719Y0227977D01*
X0392719Y0236264D02*
X0392719Y0238132D01*
X0392719Y0237198D02*
X0395521Y0237198D01*
X0394587Y0236264D01*
X0392252Y0239027D02*
X0392252Y0240895D01*
X0393186Y0241789D02*
X0392719Y0242256D01*
X0392719Y0243190D01*
X0393186Y0243657D01*
X0395054Y0243657D01*
X0395521Y0243190D01*
X0395521Y0242256D01*
X0395054Y0241789D01*
X0393186Y0241789D01*
X0393186Y0244551D02*
X0392719Y0245018D01*
X0392719Y0245952D01*
X0393186Y0246420D01*
X0395521Y0246420D01*
X0395521Y0247314D02*
X0395521Y0249182D01*
X0395521Y0250076D02*
X0392719Y0250076D01*
X0392719Y0251944D01*
X0392719Y0252838D02*
X0395521Y0252838D01*
X0392719Y0254707D01*
X0395521Y0254707D01*
X0395521Y0251944D02*
X0395521Y0250076D01*
X0394120Y0250076D02*
X0394120Y0251010D01*
X0392719Y0248248D02*
X0395521Y0248248D01*
X0395521Y0244551D02*
X0393186Y0244551D01*
X0387034Y0253349D02*
X0385165Y0253349D01*
X0384271Y0253349D02*
X0384271Y0256151D01*
X0382403Y0256151D01*
X0381509Y0256151D02*
X0380108Y0256151D01*
X0379641Y0255684D01*
X0379641Y0255217D01*
X0380108Y0254750D01*
X0381509Y0254750D01*
X0381509Y0253349D02*
X0380108Y0253349D01*
X0379641Y0253816D01*
X0379641Y0254283D01*
X0380108Y0254750D01*
X0378747Y0255217D02*
X0377812Y0256151D01*
X0377812Y0253349D01*
X0376878Y0253349D02*
X0378747Y0253349D01*
X0381509Y0253349D02*
X0381509Y0256151D01*
X0383337Y0254750D02*
X0384271Y0254750D01*
X0387034Y0256151D02*
X0387034Y0253349D01*
X0386084Y0266275D02*
X0384215Y0266275D01*
X0383321Y0267210D02*
X0382854Y0266743D01*
X0381920Y0266743D01*
X0381453Y0267210D01*
X0380559Y0266743D02*
X0380559Y0269545D01*
X0381453Y0269078D02*
X0381920Y0269545D01*
X0382854Y0269545D01*
X0383321Y0269078D01*
X0383321Y0267210D01*
X0380559Y0268144D02*
X0378691Y0268144D01*
X0377797Y0269078D02*
X0377797Y0267210D01*
X0377330Y0266743D01*
X0376395Y0266743D01*
X0375928Y0267210D01*
X0375928Y0268144D01*
X0376862Y0268144D01*
X0375928Y0269078D02*
X0376395Y0269545D01*
X0377330Y0269545D01*
X0377797Y0269078D01*
X0378691Y0269545D02*
X0378691Y0266743D01*
X0372755Y0256151D02*
X0373222Y0255684D01*
X0373222Y0253816D01*
X0372755Y0253349D01*
X0371821Y0253349D01*
X0371354Y0253816D01*
X0371354Y0255684D01*
X0371821Y0256151D01*
X0372755Y0256151D01*
X0370460Y0255684D02*
X0370460Y0255217D01*
X0369993Y0254750D01*
X0369058Y0254750D01*
X0368591Y0254283D01*
X0368591Y0253816D01*
X0369058Y0253349D01*
X0369993Y0253349D01*
X0370460Y0253816D01*
X0370460Y0255684D02*
X0369993Y0256151D01*
X0369058Y0256151D01*
X0368591Y0255684D01*
X0367697Y0256151D02*
X0365829Y0253349D01*
X0365829Y0256151D01*
X0364935Y0255684D02*
X0364935Y0255217D01*
X0364468Y0254750D01*
X0363534Y0254750D01*
X0363067Y0254283D01*
X0363067Y0253816D01*
X0363534Y0253349D01*
X0364468Y0253349D01*
X0364935Y0253816D01*
X0364935Y0255684D02*
X0364468Y0256151D01*
X0363534Y0256151D01*
X0363067Y0255684D01*
X0367697Y0256151D02*
X0367697Y0253349D01*
X0374116Y0252882D02*
X0375984Y0252882D01*
X0364820Y0264735D02*
X0362018Y0264735D01*
X0362018Y0266603D01*
X0362018Y0267497D02*
X0364820Y0267497D01*
X0364820Y0269365D01*
X0364820Y0270259D02*
X0364820Y0271661D01*
X0364353Y0272128D01*
X0363886Y0272128D01*
X0363419Y0271661D01*
X0363419Y0270259D01*
X0362018Y0270259D02*
X0362018Y0271661D01*
X0362485Y0272128D01*
X0362952Y0272128D01*
X0363419Y0271661D01*
X0364353Y0273022D02*
X0364820Y0273489D01*
X0364820Y0274423D01*
X0364353Y0274890D01*
X0363886Y0274890D01*
X0362018Y0273022D01*
X0362018Y0274890D01*
X0361551Y0275784D02*
X0361551Y0277652D01*
X0362485Y0278546D02*
X0362018Y0279013D01*
X0362018Y0279948D01*
X0362485Y0280415D01*
X0364353Y0280415D01*
X0364820Y0279948D01*
X0364820Y0279013D01*
X0364353Y0278546D01*
X0362485Y0278546D01*
X0362485Y0281309D02*
X0362018Y0281776D01*
X0362018Y0282710D01*
X0362485Y0283177D01*
X0362952Y0283177D01*
X0363419Y0282710D01*
X0363419Y0281776D01*
X0363886Y0281309D01*
X0364353Y0281309D01*
X0364820Y0281776D01*
X0364820Y0282710D01*
X0364353Y0283177D01*
X0364820Y0284071D02*
X0362018Y0285939D01*
X0364820Y0285939D01*
X0364353Y0286833D02*
X0363886Y0286833D01*
X0363419Y0287301D01*
X0363419Y0288235D01*
X0362952Y0288702D01*
X0362485Y0288702D01*
X0362018Y0288235D01*
X0362018Y0287301D01*
X0362485Y0286833D01*
X0364353Y0286833D02*
X0364820Y0287301D01*
X0364820Y0288235D01*
X0364353Y0288702D01*
X0364820Y0284071D02*
X0362018Y0284071D01*
X0372122Y0282876D02*
X0372122Y0285679D01*
X0373990Y0285679D02*
X0372122Y0282876D01*
X0373990Y0282876D02*
X0373990Y0285679D01*
X0374884Y0285679D02*
X0376752Y0285679D01*
X0376752Y0282876D01*
X0374884Y0282876D01*
X0375818Y0284278D02*
X0376752Y0284278D01*
X0377646Y0285679D02*
X0379515Y0285679D01*
X0380409Y0285679D02*
X0380409Y0283343D01*
X0380876Y0282876D01*
X0381810Y0282876D01*
X0382277Y0283343D01*
X0382277Y0285679D01*
X0383171Y0285212D02*
X0383638Y0285679D01*
X0384572Y0285679D01*
X0385039Y0285212D01*
X0385039Y0283343D01*
X0384572Y0282876D01*
X0383638Y0282876D01*
X0383171Y0283343D01*
X0383171Y0285212D01*
X0385934Y0282409D02*
X0387802Y0282409D01*
X0388696Y0282876D02*
X0390564Y0282876D01*
X0388696Y0284745D01*
X0388696Y0285212D01*
X0389163Y0285679D01*
X0390097Y0285679D01*
X0390564Y0285212D01*
X0391458Y0285212D02*
X0391458Y0284745D01*
X0391925Y0284278D01*
X0393326Y0284278D01*
X0391925Y0284278D02*
X0391458Y0283811D01*
X0391458Y0283343D01*
X0391925Y0282876D01*
X0393326Y0282876D01*
X0393326Y0285679D01*
X0391925Y0285679D01*
X0391458Y0285212D01*
X0394221Y0285679D02*
X0396089Y0285679D01*
X0396089Y0282876D01*
X0396983Y0282876D02*
X0398851Y0282876D01*
X0398851Y0285679D01*
X0396089Y0284278D02*
X0395155Y0284278D01*
X0395529Y0290325D02*
X0392727Y0290325D01*
X0392727Y0292193D01*
X0392727Y0293088D02*
X0395529Y0293088D01*
X0395529Y0294956D01*
X0395529Y0295850D02*
X0395529Y0297251D01*
X0395062Y0297718D01*
X0394595Y0297718D01*
X0394128Y0297251D01*
X0394128Y0295850D01*
X0394128Y0297251D02*
X0393661Y0297718D01*
X0393194Y0297718D01*
X0392727Y0297251D01*
X0392727Y0295850D01*
X0395529Y0295850D01*
X0394128Y0294022D02*
X0394128Y0293088D01*
X0395062Y0298612D02*
X0395529Y0299079D01*
X0395529Y0300013D01*
X0395062Y0300481D01*
X0394595Y0300481D01*
X0392727Y0298612D01*
X0392727Y0300481D01*
X0393194Y0301375D02*
X0392727Y0301842D01*
X0392727Y0302776D01*
X0393194Y0303243D01*
X0393661Y0303243D01*
X0394128Y0302776D01*
X0394128Y0301842D01*
X0394595Y0301375D01*
X0395062Y0301375D01*
X0395529Y0301842D01*
X0395529Y0302776D01*
X0395062Y0303243D01*
X0395529Y0304137D02*
X0392727Y0306005D01*
X0395529Y0306005D01*
X0395062Y0306899D02*
X0394595Y0306899D01*
X0394128Y0307366D01*
X0394128Y0308301D01*
X0393661Y0308768D01*
X0393194Y0308768D01*
X0392727Y0308301D01*
X0392727Y0307366D01*
X0393194Y0306899D01*
X0395062Y0306899D02*
X0395529Y0307366D01*
X0395529Y0308301D01*
X0395062Y0308768D01*
X0395529Y0304137D02*
X0392727Y0304137D01*
X0380598Y0302616D02*
X0380598Y0299813D01*
X0378729Y0299813D01*
X0377835Y0299813D02*
X0377835Y0302616D01*
X0375967Y0302616D01*
X0375073Y0302149D02*
X0374606Y0302616D01*
X0373672Y0302616D01*
X0373205Y0302149D01*
X0373205Y0301682D01*
X0373672Y0301215D01*
X0373205Y0300748D01*
X0373205Y0300280D01*
X0373672Y0299813D01*
X0374606Y0299813D01*
X0375073Y0300280D01*
X0374139Y0301215D02*
X0373672Y0301215D01*
X0372311Y0299346D02*
X0370442Y0299346D01*
X0369548Y0299813D02*
X0369548Y0302616D01*
X0368147Y0302616D01*
X0367680Y0302149D01*
X0367680Y0301215D01*
X0368147Y0300748D01*
X0369548Y0300748D01*
X0368614Y0300748D02*
X0367680Y0299813D01*
X0366786Y0299813D02*
X0364918Y0299813D01*
X0364024Y0299813D02*
X0364024Y0302616D01*
X0362155Y0302616D01*
X0363089Y0301215D02*
X0364024Y0301215D01*
X0364918Y0302616D02*
X0366786Y0302616D01*
X0366786Y0299813D01*
X0366786Y0301215D02*
X0365852Y0301215D01*
X0376901Y0301215D02*
X0377835Y0301215D01*
X0378581Y0285679D02*
X0378581Y0282876D01*
X0387445Y0269545D02*
X0388379Y0269545D01*
X0388846Y0269078D01*
X0389740Y0269078D02*
X0389740Y0268611D01*
X0390207Y0268144D01*
X0391608Y0268144D01*
X0390207Y0268144D02*
X0389740Y0267677D01*
X0389740Y0267210D01*
X0390207Y0266743D01*
X0391608Y0266743D01*
X0391608Y0269545D01*
X0390207Y0269545D01*
X0389740Y0269078D01*
X0387445Y0269545D02*
X0386978Y0269078D01*
X0386978Y0268611D01*
X0388846Y0266743D01*
X0386978Y0266743D01*
X0392502Y0269545D02*
X0394371Y0269545D01*
X0394371Y0266743D01*
X0395265Y0266743D02*
X0397133Y0266743D01*
X0397133Y0269545D01*
X0394371Y0268144D02*
X0393437Y0268144D01*
X0364820Y0270259D02*
X0362018Y0270259D01*
X0363419Y0268431D02*
X0363419Y0267497D01*
X0363042Y0237261D02*
X0362575Y0236794D01*
X0362575Y0236327D01*
X0363042Y0235860D01*
X0362575Y0235393D01*
X0362575Y0234926D01*
X0363042Y0234459D01*
X0363976Y0234459D01*
X0364443Y0234926D01*
X0365337Y0235393D02*
X0365337Y0237261D01*
X0364443Y0236794D02*
X0363976Y0237261D01*
X0363042Y0237261D01*
X0363042Y0235860D02*
X0363509Y0235860D01*
X0365337Y0235393D02*
X0366271Y0234459D01*
X0367205Y0235393D01*
X0367205Y0237261D01*
X0368099Y0236794D02*
X0368099Y0236327D01*
X0368567Y0235860D01*
X0368099Y0235393D01*
X0368099Y0234926D01*
X0368567Y0234459D01*
X0369501Y0234459D01*
X0369968Y0234926D01*
X0369034Y0235860D02*
X0368567Y0235860D01*
X0368099Y0236794D02*
X0368567Y0237261D01*
X0369501Y0237261D01*
X0369968Y0236794D01*
X0375798Y0232710D02*
X0375798Y0231776D01*
X0376265Y0231309D01*
X0375798Y0230415D02*
X0378600Y0230415D01*
X0378133Y0231309D02*
X0377666Y0231309D01*
X0377199Y0231776D01*
X0377199Y0232710D01*
X0376732Y0233177D01*
X0376265Y0233177D01*
X0375798Y0232710D01*
X0375798Y0230415D02*
X0378600Y0228546D01*
X0375798Y0228546D01*
X0376265Y0227652D02*
X0375798Y0227185D01*
X0375798Y0226251D01*
X0376265Y0225784D01*
X0375798Y0224890D02*
X0375798Y0223022D01*
X0375798Y0223956D02*
X0378600Y0223956D01*
X0377666Y0223022D01*
X0377666Y0222128D02*
X0377199Y0221661D01*
X0377199Y0220259D01*
X0378600Y0220259D02*
X0378600Y0221661D01*
X0378133Y0222128D01*
X0377666Y0222128D01*
X0377199Y0221661D02*
X0376732Y0222128D01*
X0376265Y0222128D01*
X0375798Y0221661D01*
X0375798Y0220259D01*
X0378600Y0220259D01*
X0378600Y0219365D02*
X0378600Y0217497D01*
X0375798Y0217497D01*
X0375798Y0216603D02*
X0375798Y0214735D01*
X0378600Y0214735D01*
X0377199Y0217497D02*
X0377199Y0218431D01*
X0377666Y0225784D02*
X0377199Y0226251D01*
X0377199Y0227185D01*
X0376732Y0227652D01*
X0376265Y0227652D01*
X0378133Y0227652D02*
X0378600Y0227185D01*
X0378600Y0226251D01*
X0378133Y0225784D01*
X0377666Y0225784D01*
X0378133Y0231309D02*
X0378600Y0231776D01*
X0378600Y0232710D01*
X0378133Y0233177D01*
X0395695Y0162581D02*
X0395228Y0162114D01*
X0395228Y0160712D01*
X0394294Y0160712D02*
X0397096Y0160712D01*
X0397096Y0162114D01*
X0396629Y0162581D01*
X0395695Y0162581D01*
X0397096Y0159818D02*
X0394294Y0159818D01*
X0394294Y0157950D02*
X0397096Y0157950D01*
X0396162Y0158884D01*
X0397096Y0159818D01*
X0397096Y0157056D02*
X0397096Y0155188D01*
X0394294Y0155188D01*
X0394294Y0157056D01*
X0395695Y0156122D02*
X0395695Y0155188D01*
X0397096Y0154294D02*
X0397096Y0152425D01*
X0397096Y0153359D02*
X0394294Y0153359D01*
X0393827Y0151531D02*
X0393827Y0149663D01*
X0394761Y0148769D02*
X0394294Y0148302D01*
X0394294Y0147368D01*
X0394761Y0146901D01*
X0395695Y0147835D02*
X0395695Y0148302D01*
X0395228Y0148769D01*
X0394761Y0148769D01*
X0395695Y0148302D02*
X0396162Y0148769D01*
X0396629Y0148769D01*
X0397096Y0148302D01*
X0397096Y0147368D01*
X0396629Y0146901D01*
X0397096Y0146007D02*
X0397096Y0144138D01*
X0394294Y0144138D01*
X0394294Y0143244D02*
X0394294Y0141376D01*
X0397096Y0141376D01*
X0395695Y0144138D02*
X0395695Y0145072D01*
X0379380Y0132659D02*
X0379380Y0130791D01*
X0376577Y0130791D01*
X0376577Y0129897D02*
X0376577Y0128029D01*
X0379380Y0128029D01*
X0379380Y0129897D01*
X0377978Y0130791D02*
X0377978Y0131725D01*
X0377978Y0128963D02*
X0377978Y0128029D01*
X0377978Y0127135D02*
X0377511Y0126668D01*
X0377511Y0125266D01*
X0376577Y0125266D02*
X0379380Y0125266D01*
X0379380Y0126668D01*
X0378912Y0127135D01*
X0377978Y0127135D01*
X0377511Y0126201D02*
X0376577Y0127135D01*
X0376110Y0124372D02*
X0376110Y0122504D01*
X0376577Y0121143D02*
X0379380Y0121143D01*
X0377978Y0119742D01*
X0377978Y0121610D01*
X0379380Y0118848D02*
X0379380Y0116979D01*
X0376577Y0116979D01*
X0376577Y0116085D02*
X0376577Y0114217D01*
X0379380Y0114217D01*
X0377978Y0116979D02*
X0377978Y0117914D01*
X0367212Y0103403D02*
X0367212Y0100601D01*
X0365344Y0100601D01*
X0364449Y0100601D02*
X0364449Y0103403D01*
X0362581Y0103403D01*
X0361687Y0102469D02*
X0360753Y0103403D01*
X0360753Y0100601D01*
X0361687Y0100601D02*
X0359819Y0100601D01*
X0358925Y0100134D02*
X0357056Y0100134D01*
X0355228Y0100601D02*
X0355228Y0103403D01*
X0356162Y0103403D02*
X0354294Y0103403D01*
X0353400Y0103403D02*
X0353400Y0100601D01*
X0351532Y0100601D01*
X0350638Y0100601D02*
X0350638Y0103403D01*
X0349704Y0102469D01*
X0348769Y0103403D01*
X0348769Y0100601D01*
X0347875Y0100601D02*
X0347875Y0103403D01*
X0346474Y0103403D01*
X0346007Y0102936D01*
X0346007Y0102002D01*
X0346474Y0101535D01*
X0347875Y0101535D01*
X0351532Y0103403D02*
X0353400Y0103403D01*
X0353400Y0102002D02*
X0352466Y0102002D01*
X0363515Y0102002D02*
X0364449Y0102002D01*
X0347133Y0078600D02*
X0347133Y0075798D01*
X0345265Y0075798D01*
X0344371Y0075798D02*
X0344371Y0078600D01*
X0342502Y0078600D01*
X0341608Y0078133D02*
X0341141Y0078600D01*
X0340207Y0078600D01*
X0339740Y0078133D01*
X0339740Y0077666D01*
X0341608Y0075798D01*
X0339740Y0075798D01*
X0338846Y0075331D02*
X0336978Y0075331D01*
X0336084Y0075798D02*
X0336084Y0078600D01*
X0334682Y0078600D01*
X0334215Y0078133D01*
X0334215Y0077199D01*
X0334682Y0076732D01*
X0336084Y0076732D01*
X0335150Y0076732D02*
X0334215Y0075798D01*
X0333321Y0075798D02*
X0331453Y0075798D01*
X0330559Y0075798D02*
X0330559Y0078600D01*
X0328691Y0078600D01*
X0329625Y0077199D02*
X0330559Y0077199D01*
X0331453Y0078600D02*
X0333321Y0078600D01*
X0333321Y0075798D01*
X0333321Y0077199D02*
X0332387Y0077199D01*
X0343437Y0077199D02*
X0344371Y0077199D01*
X0332566Y0099026D02*
X0330698Y0099026D01*
X0329804Y0099026D02*
X0327936Y0100894D01*
X0327936Y0101361D01*
X0328403Y0101828D01*
X0329337Y0101828D01*
X0329804Y0101361D01*
X0329804Y0099026D02*
X0327936Y0099026D01*
X0327041Y0098559D02*
X0325173Y0098559D01*
X0323345Y0099026D02*
X0323345Y0101828D01*
X0324279Y0101828D02*
X0322411Y0101828D01*
X0321517Y0101828D02*
X0321517Y0099026D01*
X0319648Y0099026D01*
X0318754Y0099026D02*
X0318754Y0101828D01*
X0317820Y0100894D01*
X0316886Y0101828D01*
X0316886Y0099026D01*
X0315992Y0099026D02*
X0315992Y0101828D01*
X0314591Y0101828D01*
X0314124Y0101361D01*
X0314124Y0100427D01*
X0314591Y0099960D01*
X0315992Y0099960D01*
X0319648Y0101828D02*
X0321517Y0101828D01*
X0321517Y0100427D02*
X0320583Y0100427D01*
X0332566Y0101828D02*
X0332566Y0099026D01*
X0319968Y0079387D02*
X0319968Y0076585D01*
X0318099Y0076585D01*
X0317205Y0076585D02*
X0315337Y0076585D01*
X0316271Y0076585D02*
X0316271Y0079387D01*
X0317205Y0078453D01*
X0314443Y0076118D02*
X0312575Y0076118D01*
X0310747Y0076585D02*
X0310747Y0079387D01*
X0311681Y0079387D02*
X0309812Y0079387D01*
X0308918Y0079387D02*
X0308918Y0076585D01*
X0307050Y0076585D01*
X0306156Y0076585D02*
X0306156Y0079387D01*
X0305222Y0078453D01*
X0304288Y0079387D01*
X0304288Y0076585D01*
X0303394Y0076585D02*
X0303394Y0079387D01*
X0301992Y0079387D01*
X0301525Y0078920D01*
X0301525Y0077986D01*
X0301992Y0077519D01*
X0303394Y0077519D01*
X0307050Y0079387D02*
X0308918Y0079387D01*
X0308918Y0077986D02*
X0307984Y0077986D01*
X0291621Y0076979D02*
X0289753Y0076979D01*
X0288859Y0076979D02*
X0286991Y0078847D01*
X0286991Y0079314D01*
X0287458Y0079781D01*
X0288392Y0079781D01*
X0288859Y0079314D01*
X0288859Y0076979D02*
X0286991Y0076979D01*
X0286097Y0076512D02*
X0284228Y0076512D01*
X0283334Y0076979D02*
X0283334Y0079781D01*
X0281933Y0079781D01*
X0281466Y0079314D01*
X0281466Y0078380D01*
X0281933Y0077913D01*
X0283334Y0077913D01*
X0282400Y0077913D02*
X0281466Y0076979D01*
X0280572Y0076979D02*
X0278704Y0076979D01*
X0277809Y0076979D02*
X0277809Y0079781D01*
X0275941Y0079781D01*
X0276875Y0078380D02*
X0277809Y0078380D01*
X0278704Y0079781D02*
X0280572Y0079781D01*
X0280572Y0076979D01*
X0280572Y0078380D02*
X0279638Y0078380D01*
X0267990Y0079773D02*
X0267990Y0076971D01*
X0266121Y0076971D01*
X0265227Y0076971D02*
X0263359Y0076971D01*
X0264293Y0076971D02*
X0264293Y0079773D01*
X0265227Y0078839D01*
X0262465Y0076504D02*
X0260597Y0076504D01*
X0259703Y0076971D02*
X0258302Y0076971D01*
X0257834Y0077438D01*
X0257834Y0079306D01*
X0258302Y0079773D01*
X0259703Y0079773D01*
X0259703Y0076971D01*
X0256940Y0076971D02*
X0256006Y0076971D01*
X0256473Y0076971D02*
X0256473Y0079773D01*
X0256940Y0079773D02*
X0256006Y0079773D01*
X0255099Y0079306D02*
X0255099Y0078839D01*
X0254632Y0078372D01*
X0253698Y0078372D01*
X0253231Y0077905D01*
X0253231Y0077438D01*
X0253698Y0076971D01*
X0254632Y0076971D01*
X0255099Y0077438D01*
X0255099Y0079306D02*
X0254632Y0079773D01*
X0253698Y0079773D01*
X0253231Y0079306D01*
X0252336Y0079306D02*
X0252336Y0077438D01*
X0251869Y0076971D01*
X0250935Y0076971D01*
X0250468Y0077438D01*
X0250468Y0078372D01*
X0251402Y0078372D01*
X0250468Y0079306D02*
X0250935Y0079773D01*
X0251869Y0079773D01*
X0252336Y0079306D01*
X0240824Y0078592D02*
X0240824Y0075790D01*
X0238956Y0075790D01*
X0238062Y0075790D02*
X0236194Y0077658D01*
X0236194Y0078125D01*
X0236661Y0078592D01*
X0237595Y0078592D01*
X0238062Y0078125D01*
X0238062Y0075790D02*
X0236194Y0075790D01*
X0235300Y0075323D02*
X0233431Y0075323D01*
X0232537Y0075790D02*
X0231136Y0075790D01*
X0230669Y0076257D01*
X0230669Y0078125D01*
X0231136Y0078592D01*
X0232537Y0078592D01*
X0232537Y0075790D01*
X0229775Y0075790D02*
X0228841Y0075790D01*
X0229308Y0075790D02*
X0229308Y0078592D01*
X0229775Y0078592D02*
X0228841Y0078592D01*
X0227933Y0078125D02*
X0227933Y0077658D01*
X0227466Y0077191D01*
X0226532Y0077191D01*
X0226065Y0076724D01*
X0226065Y0076257D01*
X0226532Y0075790D01*
X0227466Y0075790D01*
X0227933Y0076257D01*
X0227933Y0078125D02*
X0227466Y0078592D01*
X0226532Y0078592D01*
X0226065Y0078125D01*
X0225171Y0078125D02*
X0225171Y0076257D01*
X0224704Y0075790D01*
X0223770Y0075790D01*
X0223303Y0076257D01*
X0223303Y0077191D01*
X0224237Y0077191D01*
X0225171Y0078125D02*
X0224704Y0078592D01*
X0223770Y0078592D01*
X0223303Y0078125D01*
X0233495Y0098239D02*
X0233028Y0098706D01*
X0233028Y0099640D01*
X0233962Y0099640D01*
X0234896Y0100574D02*
X0234896Y0098706D01*
X0234429Y0098239D01*
X0233495Y0098239D01*
X0235790Y0098239D02*
X0235790Y0101041D01*
X0234896Y0100574D02*
X0234429Y0101041D01*
X0233495Y0101041D01*
X0233028Y0100574D01*
X0235790Y0099640D02*
X0237658Y0099640D01*
X0238553Y0100574D02*
X0239020Y0101041D01*
X0239954Y0101041D01*
X0240421Y0100574D01*
X0240421Y0098706D01*
X0239954Y0098239D01*
X0239020Y0098239D01*
X0238553Y0098706D01*
X0237658Y0098239D02*
X0237658Y0101041D01*
X0241315Y0097772D02*
X0243183Y0097772D01*
X0244077Y0098239D02*
X0245946Y0098239D01*
X0244077Y0100107D01*
X0244077Y0100574D01*
X0244544Y0101041D01*
X0245478Y0101041D01*
X0245946Y0100574D01*
X0246840Y0098239D02*
X0248708Y0098239D01*
X0248708Y0101041D01*
X0262162Y0101215D02*
X0263096Y0101215D01*
X0262162Y0101215D02*
X0262162Y0100280D01*
X0262629Y0099813D01*
X0263563Y0099813D01*
X0264030Y0100280D01*
X0264030Y0102149D01*
X0263563Y0102616D01*
X0262629Y0102616D01*
X0262162Y0102149D01*
X0264924Y0102616D02*
X0264924Y0099813D01*
X0264924Y0101215D02*
X0266792Y0101215D01*
X0267686Y0102149D02*
X0268153Y0102616D01*
X0269088Y0102616D01*
X0269555Y0102149D01*
X0269555Y0100280D01*
X0269088Y0099813D01*
X0268153Y0099813D01*
X0267686Y0100280D01*
X0266792Y0099813D02*
X0266792Y0102616D01*
X0270449Y0099346D02*
X0272317Y0099346D01*
X0273211Y0099813D02*
X0275079Y0099813D01*
X0275973Y0099813D02*
X0277842Y0099813D01*
X0277842Y0102616D01*
X0275079Y0101682D02*
X0274145Y0102616D01*
X0274145Y0099813D01*
X0288263Y0102608D02*
X0290132Y0102608D01*
X0290132Y0099806D01*
X0291026Y0099806D02*
X0292894Y0099806D01*
X0292894Y0102608D01*
X0291026Y0102608D01*
X0290132Y0101207D02*
X0289198Y0101207D01*
X0291960Y0101207D02*
X0292894Y0101207D01*
X0293788Y0101207D02*
X0294255Y0100740D01*
X0295656Y0100740D01*
X0294722Y0100740D02*
X0293788Y0099806D01*
X0293788Y0101207D02*
X0293788Y0102141D01*
X0294255Y0102608D01*
X0295656Y0102608D01*
X0295656Y0099806D01*
X0296550Y0099338D02*
X0298419Y0099338D01*
X0299313Y0099806D02*
X0301181Y0099806D01*
X0302075Y0099806D02*
X0303943Y0099806D01*
X0303943Y0102608D01*
X0301181Y0101674D02*
X0300247Y0102608D01*
X0300247Y0099806D01*
X0291621Y0079781D02*
X0291621Y0076979D01*
X0378155Y0361743D02*
X0377729Y0362169D01*
X0377729Y0363874D01*
X0378155Y0364301D01*
X0379008Y0364301D01*
X0379434Y0363874D01*
X0379434Y0363448D01*
X0379008Y0363022D01*
X0377729Y0363022D01*
X0378155Y0361743D02*
X0379008Y0361743D01*
X0379434Y0362169D01*
X0380267Y0361743D02*
X0381972Y0361743D01*
X0381119Y0361743D02*
X0381119Y0364301D01*
X0381972Y0363448D01*
X0382804Y0364301D02*
X0382804Y0362169D01*
X0383231Y0361743D01*
X0384083Y0361743D01*
X0384510Y0362169D01*
X0384510Y0364301D01*
X0260757Y0398006D02*
X0260757Y0399711D01*
X0260757Y0400544D02*
X0259478Y0400544D01*
X0259905Y0401396D01*
X0259905Y0401823D01*
X0259478Y0402249D01*
X0258626Y0402249D01*
X0258199Y0401823D01*
X0258199Y0400970D01*
X0258626Y0400544D01*
X0259478Y0398859D02*
X0259478Y0398006D01*
X0258199Y0398006D02*
X0260757Y0398006D01*
X0260757Y0400544D02*
X0260757Y0402249D01*
X0260364Y0425565D02*
X0260364Y0427270D01*
X0259085Y0428103D02*
X0259085Y0429382D01*
X0258658Y0429808D01*
X0258232Y0429808D01*
X0257806Y0429382D01*
X0257806Y0428529D01*
X0258232Y0428103D01*
X0259085Y0428103D01*
X0259937Y0428955D01*
X0260364Y0429808D01*
X0259085Y0426418D02*
X0259085Y0425565D01*
X0257806Y0425565D02*
X0260364Y0425565D01*
X0232017Y0421858D02*
X0231591Y0422285D01*
X0231164Y0422285D01*
X0230738Y0421858D01*
X0230312Y0422285D01*
X0229885Y0422285D01*
X0229459Y0421858D01*
X0229459Y0421006D01*
X0229885Y0420579D01*
X0230738Y0421432D02*
X0230738Y0421858D01*
X0232017Y0421858D02*
X0232017Y0421006D01*
X0231591Y0420579D01*
X0232017Y0419747D02*
X0232017Y0418042D01*
X0229459Y0418042D01*
X0230738Y0418042D02*
X0230738Y0418894D01*
X0231132Y0399450D02*
X0231132Y0397745D01*
X0232411Y0399024D01*
X0229853Y0399024D01*
X0231132Y0396060D02*
X0231132Y0395207D01*
X0232411Y0395207D02*
X0232411Y0396912D01*
X0232411Y0395207D02*
X0229853Y0395207D01*
D19*
X0093729Y0421879D02*
X0093731Y0421927D01*
X0093737Y0421975D01*
X0093747Y0422022D01*
X0093760Y0422068D01*
X0093778Y0422113D01*
X0093798Y0422157D01*
X0093823Y0422199D01*
X0093851Y0422238D01*
X0093881Y0422275D01*
X0093915Y0422309D01*
X0093952Y0422341D01*
X0093990Y0422370D01*
X0094031Y0422395D01*
X0094074Y0422417D01*
X0094119Y0422435D01*
X0094165Y0422449D01*
X0094212Y0422460D01*
X0094260Y0422467D01*
X0094308Y0422470D01*
X0094356Y0422469D01*
X0094404Y0422464D01*
X0094452Y0422455D01*
X0094498Y0422443D01*
X0094543Y0422426D01*
X0094587Y0422406D01*
X0094629Y0422383D01*
X0094669Y0422356D01*
X0094707Y0422326D01*
X0094742Y0422293D01*
X0094774Y0422257D01*
X0094804Y0422219D01*
X0094830Y0422178D01*
X0094852Y0422135D01*
X0094872Y0422091D01*
X0094887Y0422046D01*
X0094899Y0421999D01*
X0094907Y0421951D01*
X0094911Y0421903D01*
X0094911Y0421855D01*
X0094907Y0421807D01*
X0094899Y0421759D01*
X0094887Y0421712D01*
X0094872Y0421667D01*
X0094852Y0421623D01*
X0094830Y0421580D01*
X0094804Y0421539D01*
X0094774Y0421501D01*
X0094742Y0421465D01*
X0094707Y0421432D01*
X0094669Y0421402D01*
X0094629Y0421375D01*
X0094587Y0421352D01*
X0094543Y0421332D01*
X0094498Y0421315D01*
X0094452Y0421303D01*
X0094404Y0421294D01*
X0094356Y0421289D01*
X0094308Y0421288D01*
X0094260Y0421291D01*
X0094212Y0421298D01*
X0094165Y0421309D01*
X0094119Y0421323D01*
X0094074Y0421341D01*
X0094031Y0421363D01*
X0093990Y0421388D01*
X0093952Y0421417D01*
X0093915Y0421449D01*
X0093881Y0421483D01*
X0093851Y0421520D01*
X0093823Y0421559D01*
X0093798Y0421601D01*
X0093778Y0421645D01*
X0093760Y0421690D01*
X0093747Y0421736D01*
X0093737Y0421783D01*
X0093731Y0421831D01*
X0093729Y0421879D01*
X0084183Y0370972D02*
X0084185Y0371021D01*
X0084191Y0371070D01*
X0084201Y0371118D01*
X0084214Y0371165D01*
X0084232Y0371210D01*
X0084253Y0371255D01*
X0084277Y0371297D01*
X0084305Y0371337D01*
X0084336Y0371375D01*
X0084370Y0371410D01*
X0084406Y0371443D01*
X0084446Y0371472D01*
X0084487Y0371499D01*
X0084530Y0371521D01*
X0084575Y0371540D01*
X0084622Y0371556D01*
X0084669Y0371568D01*
X0084718Y0371576D01*
X0084767Y0371580D01*
X0084815Y0371580D01*
X0084864Y0371576D01*
X0084913Y0371568D01*
X0084960Y0371556D01*
X0085007Y0371540D01*
X0085052Y0371521D01*
X0085095Y0371499D01*
X0085136Y0371472D01*
X0085176Y0371443D01*
X0085212Y0371410D01*
X0085246Y0371375D01*
X0085277Y0371337D01*
X0085305Y0371297D01*
X0085329Y0371255D01*
X0085350Y0371210D01*
X0085368Y0371165D01*
X0085381Y0371118D01*
X0085391Y0371070D01*
X0085397Y0371021D01*
X0085399Y0370972D01*
X0085397Y0370923D01*
X0085391Y0370874D01*
X0085381Y0370826D01*
X0085368Y0370779D01*
X0085350Y0370734D01*
X0085329Y0370689D01*
X0085305Y0370647D01*
X0085277Y0370607D01*
X0085246Y0370569D01*
X0085212Y0370534D01*
X0085176Y0370501D01*
X0085136Y0370472D01*
X0085095Y0370445D01*
X0085052Y0370423D01*
X0085007Y0370404D01*
X0084960Y0370388D01*
X0084913Y0370376D01*
X0084864Y0370368D01*
X0084815Y0370364D01*
X0084767Y0370364D01*
X0084718Y0370368D01*
X0084669Y0370376D01*
X0084622Y0370388D01*
X0084575Y0370404D01*
X0084530Y0370423D01*
X0084487Y0370445D01*
X0084446Y0370472D01*
X0084406Y0370501D01*
X0084370Y0370534D01*
X0084336Y0370569D01*
X0084305Y0370607D01*
X0084277Y0370647D01*
X0084253Y0370689D01*
X0084232Y0370734D01*
X0084214Y0370779D01*
X0084201Y0370826D01*
X0084191Y0370874D01*
X0084185Y0370923D01*
X0084183Y0370972D01*
X0090973Y0224241D02*
X0090975Y0224289D01*
X0090981Y0224337D01*
X0090991Y0224384D01*
X0091004Y0224430D01*
X0091022Y0224475D01*
X0091042Y0224519D01*
X0091067Y0224561D01*
X0091095Y0224600D01*
X0091125Y0224637D01*
X0091159Y0224671D01*
X0091196Y0224703D01*
X0091234Y0224732D01*
X0091275Y0224757D01*
X0091318Y0224779D01*
X0091363Y0224797D01*
X0091409Y0224811D01*
X0091456Y0224822D01*
X0091504Y0224829D01*
X0091552Y0224832D01*
X0091600Y0224831D01*
X0091648Y0224826D01*
X0091696Y0224817D01*
X0091742Y0224805D01*
X0091787Y0224788D01*
X0091831Y0224768D01*
X0091873Y0224745D01*
X0091913Y0224718D01*
X0091951Y0224688D01*
X0091986Y0224655D01*
X0092018Y0224619D01*
X0092048Y0224581D01*
X0092074Y0224540D01*
X0092096Y0224497D01*
X0092116Y0224453D01*
X0092131Y0224408D01*
X0092143Y0224361D01*
X0092151Y0224313D01*
X0092155Y0224265D01*
X0092155Y0224217D01*
X0092151Y0224169D01*
X0092143Y0224121D01*
X0092131Y0224074D01*
X0092116Y0224029D01*
X0092096Y0223985D01*
X0092074Y0223942D01*
X0092048Y0223901D01*
X0092018Y0223863D01*
X0091986Y0223827D01*
X0091951Y0223794D01*
X0091913Y0223764D01*
X0091873Y0223737D01*
X0091831Y0223714D01*
X0091787Y0223694D01*
X0091742Y0223677D01*
X0091696Y0223665D01*
X0091648Y0223656D01*
X0091600Y0223651D01*
X0091552Y0223650D01*
X0091504Y0223653D01*
X0091456Y0223660D01*
X0091409Y0223671D01*
X0091363Y0223685D01*
X0091318Y0223703D01*
X0091275Y0223725D01*
X0091234Y0223750D01*
X0091196Y0223779D01*
X0091159Y0223811D01*
X0091125Y0223845D01*
X0091095Y0223882D01*
X0091067Y0223921D01*
X0091042Y0223963D01*
X0091022Y0224007D01*
X0091004Y0224052D01*
X0090991Y0224098D01*
X0090981Y0224145D01*
X0090975Y0224193D01*
X0090973Y0224241D01*
X0169910Y0101800D02*
X0169912Y0101839D01*
X0169918Y0101878D01*
X0169928Y0101916D01*
X0169941Y0101953D01*
X0169958Y0101988D01*
X0169978Y0102022D01*
X0170002Y0102053D01*
X0170029Y0102082D01*
X0170058Y0102108D01*
X0170090Y0102131D01*
X0170124Y0102151D01*
X0170160Y0102167D01*
X0170197Y0102179D01*
X0170236Y0102188D01*
X0170275Y0102193D01*
X0170314Y0102194D01*
X0170353Y0102191D01*
X0170392Y0102184D01*
X0170429Y0102173D01*
X0170466Y0102159D01*
X0170501Y0102141D01*
X0170534Y0102120D01*
X0170565Y0102095D01*
X0170593Y0102068D01*
X0170618Y0102038D01*
X0170640Y0102005D01*
X0170659Y0101971D01*
X0170674Y0101935D01*
X0170686Y0101897D01*
X0170694Y0101859D01*
X0170698Y0101820D01*
X0170698Y0101780D01*
X0170694Y0101741D01*
X0170686Y0101703D01*
X0170674Y0101665D01*
X0170659Y0101629D01*
X0170640Y0101595D01*
X0170618Y0101562D01*
X0170593Y0101532D01*
X0170565Y0101505D01*
X0170534Y0101480D01*
X0170501Y0101459D01*
X0170466Y0101441D01*
X0170429Y0101427D01*
X0170392Y0101416D01*
X0170353Y0101409D01*
X0170314Y0101406D01*
X0170275Y0101407D01*
X0170236Y0101412D01*
X0170197Y0101421D01*
X0170160Y0101433D01*
X0170124Y0101449D01*
X0170090Y0101469D01*
X0170058Y0101492D01*
X0170029Y0101518D01*
X0170002Y0101547D01*
X0169978Y0101578D01*
X0169958Y0101612D01*
X0169941Y0101647D01*
X0169928Y0101684D01*
X0169918Y0101722D01*
X0169912Y0101761D01*
X0169910Y0101800D01*
X0376406Y0358099D02*
X0376408Y0358147D01*
X0376414Y0358195D01*
X0376424Y0358242D01*
X0376437Y0358288D01*
X0376455Y0358333D01*
X0376475Y0358377D01*
X0376500Y0358419D01*
X0376528Y0358458D01*
X0376558Y0358495D01*
X0376592Y0358529D01*
X0376629Y0358561D01*
X0376667Y0358590D01*
X0376708Y0358615D01*
X0376751Y0358637D01*
X0376796Y0358655D01*
X0376842Y0358669D01*
X0376889Y0358680D01*
X0376937Y0358687D01*
X0376985Y0358690D01*
X0377033Y0358689D01*
X0377081Y0358684D01*
X0377129Y0358675D01*
X0377175Y0358663D01*
X0377220Y0358646D01*
X0377264Y0358626D01*
X0377306Y0358603D01*
X0377346Y0358576D01*
X0377384Y0358546D01*
X0377419Y0358513D01*
X0377451Y0358477D01*
X0377481Y0358439D01*
X0377507Y0358398D01*
X0377529Y0358355D01*
X0377549Y0358311D01*
X0377564Y0358266D01*
X0377576Y0358219D01*
X0377584Y0358171D01*
X0377588Y0358123D01*
X0377588Y0358075D01*
X0377584Y0358027D01*
X0377576Y0357979D01*
X0377564Y0357932D01*
X0377549Y0357887D01*
X0377529Y0357843D01*
X0377507Y0357800D01*
X0377481Y0357759D01*
X0377451Y0357721D01*
X0377419Y0357685D01*
X0377384Y0357652D01*
X0377346Y0357622D01*
X0377306Y0357595D01*
X0377264Y0357572D01*
X0377220Y0357552D01*
X0377175Y0357535D01*
X0377129Y0357523D01*
X0377081Y0357514D01*
X0377033Y0357509D01*
X0376985Y0357508D01*
X0376937Y0357511D01*
X0376889Y0357518D01*
X0376842Y0357529D01*
X0376796Y0357543D01*
X0376751Y0357561D01*
X0376708Y0357583D01*
X0376667Y0357608D01*
X0376629Y0357637D01*
X0376592Y0357669D01*
X0376558Y0357703D01*
X0376528Y0357740D01*
X0376500Y0357779D01*
X0376475Y0357821D01*
X0376455Y0357865D01*
X0376437Y0357910D01*
X0376424Y0357956D01*
X0376414Y0358003D01*
X0376408Y0358051D01*
X0376406Y0358099D01*
D20*
X0196334Y0178135D02*
X0196336Y0178187D01*
X0196342Y0178239D01*
X0196352Y0178291D01*
X0196365Y0178341D01*
X0196382Y0178391D01*
X0196403Y0178439D01*
X0196428Y0178485D01*
X0196456Y0178529D01*
X0196487Y0178571D01*
X0196521Y0178611D01*
X0196558Y0178648D01*
X0196598Y0178682D01*
X0196640Y0178713D01*
X0196684Y0178741D01*
X0196730Y0178766D01*
X0196778Y0178787D01*
X0196828Y0178804D01*
X0196878Y0178817D01*
X0196930Y0178827D01*
X0196982Y0178833D01*
X0197034Y0178835D01*
X0197086Y0178833D01*
X0197138Y0178827D01*
X0197190Y0178817D01*
X0197240Y0178804D01*
X0197290Y0178787D01*
X0197338Y0178766D01*
X0197384Y0178741D01*
X0197428Y0178713D01*
X0197470Y0178682D01*
X0197510Y0178648D01*
X0197547Y0178611D01*
X0197581Y0178571D01*
X0197612Y0178529D01*
X0197640Y0178485D01*
X0197665Y0178439D01*
X0197686Y0178391D01*
X0197703Y0178341D01*
X0197716Y0178291D01*
X0197726Y0178239D01*
X0197732Y0178187D01*
X0197734Y0178135D01*
X0197732Y0178083D01*
X0197726Y0178031D01*
X0197716Y0177979D01*
X0197703Y0177929D01*
X0197686Y0177879D01*
X0197665Y0177831D01*
X0197640Y0177785D01*
X0197612Y0177741D01*
X0197581Y0177699D01*
X0197547Y0177659D01*
X0197510Y0177622D01*
X0197470Y0177588D01*
X0197428Y0177557D01*
X0197384Y0177529D01*
X0197338Y0177504D01*
X0197290Y0177483D01*
X0197240Y0177466D01*
X0197190Y0177453D01*
X0197138Y0177443D01*
X0197086Y0177437D01*
X0197034Y0177435D01*
X0196982Y0177437D01*
X0196930Y0177443D01*
X0196878Y0177453D01*
X0196828Y0177466D01*
X0196778Y0177483D01*
X0196730Y0177504D01*
X0196684Y0177529D01*
X0196640Y0177557D01*
X0196598Y0177588D01*
X0196558Y0177622D01*
X0196521Y0177659D01*
X0196487Y0177699D01*
X0196456Y0177741D01*
X0196428Y0177785D01*
X0196403Y0177831D01*
X0196382Y0177879D01*
X0196365Y0177929D01*
X0196352Y0177979D01*
X0196342Y0178031D01*
X0196336Y0178083D01*
X0196334Y0178135D01*
D21*
X0107706Y0290383D02*
X0107706Y0296682D01*
X0353375Y0208887D02*
X0353375Y0202587D01*
D22*
X0194031Y0100222D03*
X0183584Y0100229D03*
M02*
