G75*
%MOIN*%
%OFA0B0*%
%FSLAX25Y25*%
%IPPOS*%
%LPD*%
%AMOC8*
5,1,8,0,0,1.08239X$1,22.5*
%
%ADD10C,0.05950*%
%ADD11R,0.04737X0.06509*%
%ADD12C,0.09800*%
%ADD13R,0.30328X0.10052*%
%ADD14R,0.05950X0.05950*%
%ADD15R,0.10052X0.30328*%
%ADD16R,0.09461X0.03162*%
%ADD17R,0.11036X0.07887*%
%ADD18OC8,0.17635*%
%ADD19C,0.03778*%
%ADD20C,0.05392*%
D10*
X0251951Y0272244D03*
X0260982Y0281271D03*
X0251951Y0290299D03*
X0242919Y0281271D03*
D11*
X0186099Y0270096D03*
X0179642Y0270096D03*
D12*
X0169635Y0261564D03*
X0169635Y0281839D03*
X0169635Y0302115D03*
X0143454Y0302115D03*
X0143454Y0281839D03*
X0143454Y0261564D03*
X0195959Y0261615D03*
X0195816Y0281839D03*
X0195028Y0302115D03*
X0208020Y0318257D03*
X0220225Y0302115D03*
X0233291Y0318257D03*
X0263926Y0318257D03*
X0220225Y0281643D03*
X0220225Y0261957D03*
X0305265Y0396997D03*
D13*
X0279359Y0434241D03*
X0229989Y0405028D03*
X0229595Y0372351D03*
X0229564Y0340580D03*
X0152225Y0341209D03*
X0152194Y0372036D03*
X0152194Y0403965D03*
X0159485Y0435855D03*
X0257706Y0239753D03*
X0273060Y0209044D03*
X0283328Y0176800D03*
X0267359Y0146249D03*
X0188446Y0140894D03*
X0161847Y0178139D03*
X0142981Y0209359D03*
X0360595Y0177351D03*
X0389800Y0209162D03*
X0419942Y0239005D03*
X0388225Y0272548D03*
X0387831Y0302784D03*
X0387438Y0334359D03*
X0419225Y0365776D03*
X0388548Y0398926D03*
X0390776Y0429123D03*
X0384580Y0140107D03*
D14*
X0421233Y0130265D03*
X0353146Y0219005D03*
X0321761Y0196454D03*
X0323942Y0187194D03*
X0309713Y0199202D03*
X0319981Y0166957D03*
X0294359Y0229910D03*
X0351572Y0282391D03*
X0351178Y0312627D03*
X0350784Y0344202D03*
X0311721Y0340422D03*
X0341682Y0408564D03*
X0351894Y0408769D03*
X0316013Y0424398D03*
X0427430Y0419280D03*
X0455879Y0355934D03*
X0456595Y0229162D03*
X0230706Y0156091D03*
X0225099Y0131052D03*
X0125194Y0187981D03*
X0106328Y0219202D03*
X0188879Y0331367D03*
X0192910Y0350422D03*
X0188847Y0362194D03*
X0192942Y0382194D03*
X0188847Y0394123D03*
X0193335Y0414871D03*
X0122831Y0445698D03*
D15*
X0301879Y0303769D03*
X0331839Y0371910D03*
X0331603Y0233107D03*
D16*
X0100146Y0246209D03*
X0100146Y0250146D03*
X0100146Y0254083D03*
X0100146Y0258020D03*
X0100146Y0261957D03*
X0100146Y0265894D03*
X0100146Y0269831D03*
X0100146Y0273769D03*
X0100146Y0277706D03*
X0100146Y0281643D03*
X0100146Y0285580D03*
X0100146Y0289517D03*
X0100146Y0293454D03*
X0100146Y0297391D03*
X0100146Y0301328D03*
X0100146Y0305265D03*
D17*
X0090698Y0315501D03*
X0090698Y0235973D03*
D18*
X0091288Y0173375D03*
X0091288Y0441091D03*
X0451524Y0441091D03*
X0451524Y0173375D03*
D19*
X0281249Y0303296D03*
X0194635Y0196997D03*
X0121800Y0248178D03*
X0121800Y0254083D03*
X0115894Y0254083D03*
X0109989Y0254083D03*
X0109989Y0248178D03*
X0115894Y0248178D03*
X0115894Y0259989D03*
X0109989Y0259989D03*
X0121800Y0259989D03*
X0107627Y0319044D03*
D20*
X0285186Y0360383D03*
X0296997Y0364320D03*
X0308808Y0364320D03*
X0308808Y0354477D03*
M02*
