%
M48
M72
T01C0.01378
T02C0.02992
T03C0.03150
T04C0.06000
T05C0.12835
%
T01
X194635Y196997
X121800Y248178
X121800Y254083
X115894Y254083
X109989Y254083
X109989Y248178
X115894Y248178
X115894Y259989
X109989Y259989
X121800Y259989
X107627Y319044
X281249Y303296
T02
X308808Y354477
X308808Y364320
X296997Y364320
X285186Y360383
T03
X311721Y340422
X350784Y344202
X351178Y312627
X351572Y282391
X294359Y229910
X309713Y199202
X321761Y196454
X323942Y187194
X319981Y166957
X353146Y219005
X260982Y281271
X251951Y272244
X242919Y281271
X251951Y290299
X188879Y331367
X192910Y350422
X188847Y362194
X192942Y382194
X188847Y394123
X193335Y414871
X122831Y445698
X316013Y424398
X341682Y408564
X351894Y408769
X427430Y419280
X455879Y355934
X456595Y229162
X421233Y130265
X230706Y156091
X225099Y131052
X125194Y187981
X106328Y219202
T04
X143454Y261564
X143454Y281839
X143454Y302115
X169635Y302115
X169635Y281839
X169635Y261564
X195959Y261615
X195816Y281839
X195028Y302115
X208020Y318257
X220225Y302115
X233291Y318257
X263926Y318257
X220225Y281643
X220225Y261957
X305265Y396997
T05
X91288Y173375
X91288Y441091
X451524Y441091
X451524Y173375
M30
