G75*
%MOIN*%
%OFA0B0*%
%FSLAX25Y25*%
%IPPOS*%
%LPD*%
%AMOC8*
5,1,8,0,0,1.08239X$1,22.5*
%
%ADD10C,0.01000*%
%ADD11C,0.00600*%
%ADD12C,0.00300*%
%ADD13C,0.01181*%
%ADD14C,0.00200*%
%ADD15C,0.00500*%
%ADD16C,0.00197*%
%ADD17C,0.00400*%
%ADD18C,0.01969*%
%ADD19C,0.00000*%
%ADD20C,0.03937*%
D10*
X0159989Y0226918D02*
X0159989Y0244241D01*
X0183611Y0244241D01*
X0183611Y0226918D01*
X0159989Y0226918D01*
X0159989Y0227066D02*
X0183611Y0227066D01*
X0183611Y0228064D02*
X0159989Y0228064D01*
X0159989Y0229063D02*
X0183611Y0229063D01*
X0183611Y0230061D02*
X0159989Y0230061D01*
X0159989Y0231060D02*
X0183611Y0231060D01*
X0183611Y0232058D02*
X0159989Y0232058D01*
X0159989Y0233057D02*
X0183611Y0233057D01*
X0183611Y0234055D02*
X0159989Y0234055D01*
X0159989Y0235054D02*
X0183611Y0235054D01*
X0183611Y0236053D02*
X0159989Y0236053D01*
X0159989Y0237051D02*
X0183611Y0237051D01*
X0183611Y0238050D02*
X0159989Y0238050D01*
X0159989Y0239048D02*
X0183611Y0239048D01*
X0183611Y0240047D02*
X0159989Y0240047D01*
X0159989Y0241045D02*
X0183611Y0241045D01*
X0183611Y0242044D02*
X0159989Y0242044D01*
X0159989Y0243042D02*
X0183611Y0243042D01*
X0183611Y0244041D02*
X0159989Y0244041D01*
D11*
X0094233Y0217876D02*
X0089963Y0211470D01*
X0087788Y0214673D02*
X0083517Y0214673D01*
X0085652Y0216808D02*
X0085652Y0212538D01*
X0089963Y0217876D02*
X0094233Y0211470D01*
X0202021Y0162704D02*
X0206292Y0162704D01*
X0208467Y0164839D02*
X0210602Y0162704D01*
X0210602Y0159502D01*
X0210602Y0162704D02*
X0212737Y0164839D01*
X0212737Y0165907D01*
X0208467Y0165907D02*
X0208467Y0164839D01*
X0448478Y0266248D02*
X0452748Y0266248D01*
X0454923Y0269450D02*
X0459194Y0263045D01*
X0454923Y0263045D02*
X0459194Y0269450D01*
X0328712Y0440998D02*
X0328712Y0444200D01*
X0330847Y0446336D01*
X0330847Y0447403D01*
X0328712Y0444200D02*
X0326577Y0446336D01*
X0326577Y0447403D01*
X0324402Y0444200D02*
X0320131Y0444200D01*
X0322267Y0446336D02*
X0322267Y0442065D01*
D12*
X0185047Y0264024D02*
X0183195Y0264024D01*
X0183195Y0260320D01*
X0185047Y0260320D01*
X0185664Y0260938D01*
X0185664Y0263406D01*
X0185047Y0264024D01*
X0181981Y0263406D02*
X0181981Y0262172D01*
X0181364Y0261555D01*
X0179512Y0261555D01*
X0179512Y0260320D02*
X0179512Y0264024D01*
X0181364Y0264024D01*
X0181981Y0263406D01*
X0167599Y0248130D02*
X0167599Y0247589D01*
X0167058Y0247589D01*
X0167058Y0248130D01*
X0167599Y0248130D01*
X0167599Y0246507D02*
X0167599Y0245966D01*
X0167058Y0245966D01*
X0167058Y0246507D01*
X0167599Y0246507D01*
X0165959Y0245966D02*
X0165959Y0249212D01*
X0163795Y0249212D02*
X0163795Y0245966D01*
X0162697Y0246507D02*
X0162156Y0245966D01*
X0161074Y0245966D01*
X0160533Y0246507D01*
X0161074Y0247589D02*
X0162156Y0247589D01*
X0162697Y0247048D01*
X0162697Y0246507D01*
X0161074Y0247589D02*
X0160533Y0248130D01*
X0160533Y0248671D01*
X0161074Y0249212D01*
X0162156Y0249212D01*
X0162697Y0248671D01*
X0163795Y0249212D02*
X0165959Y0245966D01*
X0158320Y0236613D02*
X0156697Y0234990D01*
X0158861Y0234990D01*
X0158320Y0233367D02*
X0158320Y0236613D01*
X0155598Y0236613D02*
X0155598Y0234449D01*
X0154516Y0233367D01*
X0153434Y0234449D01*
X0153434Y0236613D01*
X0148537Y0236613D02*
X0148537Y0233367D01*
X0147996Y0233367D02*
X0149078Y0233367D01*
X0146898Y0234449D02*
X0144734Y0234449D01*
X0144734Y0233908D02*
X0144734Y0234990D01*
X0145275Y0235531D01*
X0146357Y0235531D01*
X0146898Y0234990D01*
X0146898Y0234449D01*
X0146357Y0233367D02*
X0145275Y0233367D01*
X0144734Y0233908D01*
X0143635Y0233367D02*
X0143635Y0234990D01*
X0143094Y0235531D01*
X0141471Y0235531D01*
X0141471Y0233367D01*
X0140373Y0233367D02*
X0138749Y0233367D01*
X0138208Y0233908D01*
X0138749Y0234449D01*
X0140373Y0234449D01*
X0140373Y0234990D02*
X0140373Y0233367D01*
X0140373Y0234990D02*
X0139831Y0235531D01*
X0138749Y0235531D01*
X0137110Y0234990D02*
X0136569Y0234449D01*
X0134946Y0234449D01*
X0134946Y0233367D02*
X0134946Y0236613D01*
X0136569Y0236613D01*
X0137110Y0236072D01*
X0137110Y0234990D01*
X0137118Y0240060D02*
X0137118Y0242224D01*
X0136577Y0242224D01*
X0137118Y0243306D02*
X0137118Y0243847D01*
X0135479Y0243306D02*
X0135479Y0240601D01*
X0134938Y0240060D01*
X0133856Y0240060D01*
X0133315Y0240601D01*
X0133315Y0243306D01*
X0132216Y0242765D02*
X0132216Y0240601D01*
X0131675Y0240060D01*
X0130593Y0240060D01*
X0130052Y0240601D01*
X0130052Y0242765D01*
X0130593Y0243306D01*
X0131675Y0243306D01*
X0132216Y0242765D01*
X0131134Y0241142D02*
X0132216Y0240060D01*
X0128953Y0240060D02*
X0126789Y0240060D01*
X0126789Y0243306D01*
X0128953Y0243306D01*
X0127871Y0241683D02*
X0126789Y0241683D01*
X0122436Y0241683D02*
X0121895Y0241683D01*
X0121895Y0242224D01*
X0122436Y0242224D01*
X0122436Y0241683D01*
X0122436Y0240601D02*
X0122436Y0240060D01*
X0121895Y0240060D01*
X0121895Y0240601D01*
X0122436Y0240601D01*
X0120797Y0240060D02*
X0118633Y0240060D01*
X0118633Y0243306D01*
X0120797Y0243306D01*
X0119715Y0241683D02*
X0118633Y0241683D01*
X0117534Y0241142D02*
X0117534Y0240601D01*
X0116993Y0240060D01*
X0115911Y0240060D01*
X0115370Y0240601D01*
X0114272Y0240601D02*
X0114272Y0241142D01*
X0113731Y0241683D01*
X0112107Y0241683D01*
X0112107Y0240060D02*
X0112107Y0243306D01*
X0113731Y0243306D01*
X0114272Y0242765D01*
X0114272Y0242224D01*
X0113731Y0241683D01*
X0114272Y0240601D02*
X0113731Y0240060D01*
X0112107Y0240060D01*
X0113190Y0236613D02*
X0114272Y0235531D01*
X0114272Y0233367D01*
X0115370Y0233908D02*
X0115911Y0233367D01*
X0117534Y0233367D01*
X0118633Y0233908D02*
X0119174Y0233367D01*
X0120797Y0233367D01*
X0121895Y0233908D02*
X0121895Y0234990D01*
X0122436Y0235531D01*
X0123518Y0235531D01*
X0124059Y0234990D01*
X0124059Y0234449D01*
X0121895Y0234449D01*
X0121895Y0233908D02*
X0122436Y0233367D01*
X0123518Y0233367D01*
X0125158Y0233367D02*
X0126781Y0233367D01*
X0127322Y0233908D01*
X0126781Y0234449D01*
X0125699Y0234449D01*
X0125158Y0234990D01*
X0125699Y0235531D01*
X0127322Y0235531D01*
X0128421Y0234990D02*
X0128962Y0235531D01*
X0130585Y0235531D01*
X0130044Y0234449D02*
X0128962Y0234449D01*
X0128421Y0234990D01*
X0128421Y0233367D02*
X0130044Y0233367D01*
X0130585Y0233908D01*
X0130044Y0234449D01*
X0128962Y0229379D02*
X0128962Y0227215D01*
X0129503Y0226674D01*
X0129503Y0228838D02*
X0128421Y0228838D01*
X0127322Y0228838D02*
X0125699Y0228838D01*
X0125158Y0228297D01*
X0125699Y0227756D01*
X0126781Y0227756D01*
X0127322Y0227215D01*
X0126781Y0226674D01*
X0125158Y0226674D01*
X0124059Y0226674D02*
X0124059Y0228838D01*
X0124059Y0226674D02*
X0122436Y0226674D01*
X0121895Y0227215D01*
X0121895Y0228838D01*
X0120797Y0228838D02*
X0119174Y0228838D01*
X0118633Y0228297D01*
X0118633Y0227215D01*
X0119174Y0226674D01*
X0120797Y0226674D01*
X0120797Y0226133D02*
X0120797Y0228838D01*
X0120797Y0226133D02*
X0120256Y0225592D01*
X0119715Y0225592D01*
X0117534Y0226674D02*
X0117534Y0228838D01*
X0117534Y0226674D02*
X0115911Y0226674D01*
X0115370Y0227215D01*
X0115370Y0228838D01*
X0114272Y0228838D02*
X0113190Y0229920D01*
X0112107Y0228838D01*
X0112107Y0226674D01*
X0112107Y0228297D02*
X0114272Y0228297D01*
X0114272Y0228838D02*
X0114272Y0226674D01*
X0112107Y0233367D02*
X0112107Y0235531D01*
X0113190Y0236613D01*
X0114272Y0234990D02*
X0112107Y0234990D01*
X0115370Y0234990D02*
X0115911Y0235531D01*
X0117534Y0235531D01*
X0118633Y0234990D02*
X0119174Y0235531D01*
X0120797Y0235531D01*
X0118633Y0234990D02*
X0118633Y0233908D01*
X0115370Y0233908D02*
X0115370Y0234990D01*
X0117534Y0241142D02*
X0116993Y0241683D01*
X0115911Y0241683D01*
X0115370Y0242224D01*
X0115370Y0242765D01*
X0115911Y0243306D01*
X0116993Y0243306D01*
X0117534Y0242765D01*
X0136577Y0240060D02*
X0137659Y0240060D01*
X0138752Y0240601D02*
X0139293Y0240060D01*
X0140375Y0240060D01*
X0140916Y0240601D01*
X0140916Y0241142D01*
X0140375Y0241683D01*
X0139293Y0241683D01*
X0138752Y0242224D01*
X0138752Y0242765D01*
X0139293Y0243306D01*
X0140375Y0243306D01*
X0140916Y0242765D01*
X0142556Y0242224D02*
X0143638Y0242224D01*
X0144179Y0241683D01*
X0144179Y0240060D01*
X0142556Y0240060D01*
X0142015Y0240601D01*
X0142556Y0241142D01*
X0144179Y0241142D01*
X0145277Y0242224D02*
X0146360Y0242224D01*
X0145818Y0242765D02*
X0145818Y0240601D01*
X0146360Y0240060D01*
X0147996Y0236613D02*
X0148537Y0236613D01*
X0145810Y0229920D02*
X0145810Y0229379D01*
X0143646Y0227215D01*
X0143646Y0226674D01*
X0142548Y0226674D02*
X0140384Y0226674D01*
X0141466Y0226674D02*
X0141466Y0229920D01*
X0140384Y0228838D01*
X0139285Y0229379D02*
X0137121Y0227215D01*
X0137662Y0226674D01*
X0138744Y0226674D01*
X0139285Y0227215D01*
X0139285Y0229379D01*
X0138744Y0229920D01*
X0137662Y0229920D01*
X0137121Y0229379D01*
X0137121Y0227215D01*
X0136022Y0226674D02*
X0133858Y0226674D01*
X0136022Y0228838D01*
X0136022Y0229379D01*
X0135481Y0229920D01*
X0134399Y0229920D01*
X0133858Y0229379D01*
X0143646Y0229920D02*
X0145810Y0229920D01*
D13*
X0126131Y0252115D02*
X0126131Y0308020D01*
X0231249Y0308020D01*
X0231249Y0256052D01*
X0208414Y0256052D01*
X0208414Y0252115D01*
X0126131Y0252115D01*
X0190304Y0309202D02*
X0190304Y0325343D01*
X0273375Y0325343D01*
X0273375Y0309202D01*
X0190304Y0309202D01*
D14*
X0193784Y0310824D02*
X0194251Y0310357D01*
X0195185Y0310357D01*
X0195652Y0310824D01*
X0195652Y0313159D01*
X0196546Y0313159D02*
X0197480Y0312225D01*
X0198415Y0313159D01*
X0198415Y0310357D01*
X0199309Y0310357D02*
X0200710Y0310357D01*
X0201177Y0310824D01*
X0201177Y0311291D01*
X0200710Y0311758D01*
X0199309Y0311758D01*
X0200710Y0311758D02*
X0201177Y0312225D01*
X0201177Y0312692D01*
X0200710Y0313159D01*
X0199309Y0313159D01*
X0199309Y0310357D01*
X0196546Y0310357D02*
X0196546Y0313159D01*
X0193784Y0313159D02*
X0193784Y0310824D01*
X0202071Y0311758D02*
X0203939Y0311758D01*
X0204833Y0312692D02*
X0204833Y0310824D01*
X0205300Y0310357D01*
X0206235Y0310357D01*
X0206702Y0310824D01*
X0207596Y0310357D02*
X0207596Y0313159D01*
X0206702Y0312692D02*
X0206235Y0313159D01*
X0205300Y0313159D01*
X0204833Y0312692D01*
X0207596Y0311758D02*
X0209464Y0311758D01*
X0210358Y0312692D02*
X0210358Y0310824D01*
X0210825Y0310357D01*
X0211759Y0310357D01*
X0212226Y0310824D01*
X0212226Y0311758D01*
X0211292Y0311758D01*
X0210358Y0312692D02*
X0210825Y0313159D01*
X0211759Y0313159D01*
X0212226Y0312692D01*
X0209464Y0313159D02*
X0209464Y0310357D01*
X0217505Y0297017D02*
X0217038Y0296550D01*
X0217038Y0296083D01*
X0217505Y0295616D01*
X0218439Y0295616D01*
X0218906Y0295149D01*
X0218906Y0294682D01*
X0218439Y0294215D01*
X0217505Y0294215D01*
X0217038Y0294682D01*
X0217505Y0297017D02*
X0218439Y0297017D01*
X0218906Y0296550D01*
X0219800Y0296550D02*
X0219800Y0294682D01*
X0220268Y0294215D01*
X0221202Y0294215D01*
X0221669Y0294682D01*
X0222563Y0294215D02*
X0224431Y0294215D01*
X0222563Y0294215D02*
X0222563Y0297017D01*
X0221669Y0296550D02*
X0221202Y0297017D01*
X0220268Y0297017D01*
X0219800Y0296550D01*
X0230571Y0310357D02*
X0231505Y0310357D01*
X0231972Y0310824D01*
X0231972Y0311758D01*
X0231038Y0311758D01*
X0231972Y0312692D02*
X0231505Y0313159D01*
X0230571Y0313159D01*
X0230104Y0312692D01*
X0230104Y0310824D01*
X0230571Y0310357D01*
X0232866Y0310357D02*
X0232866Y0313159D01*
X0234734Y0310357D01*
X0234734Y0313159D01*
X0235628Y0313159D02*
X0237030Y0313159D01*
X0237497Y0312692D01*
X0237497Y0310824D01*
X0237030Y0310357D01*
X0235628Y0310357D01*
X0235628Y0313159D01*
X0241402Y0312692D02*
X0241402Y0312225D01*
X0241869Y0311758D01*
X0242804Y0311758D01*
X0243271Y0311291D01*
X0243271Y0310824D01*
X0242804Y0310357D01*
X0241869Y0310357D01*
X0241402Y0310824D01*
X0241402Y0312692D02*
X0241869Y0313159D01*
X0242804Y0313159D01*
X0243271Y0312692D01*
X0244165Y0313159D02*
X0245566Y0313159D01*
X0246033Y0312692D01*
X0246033Y0311758D01*
X0245566Y0311291D01*
X0244165Y0311291D01*
X0244165Y0310357D02*
X0244165Y0313159D01*
X0246927Y0311758D02*
X0248795Y0311758D01*
X0249689Y0311291D02*
X0251091Y0311291D01*
X0251558Y0311758D01*
X0251558Y0312692D01*
X0251091Y0313159D01*
X0249689Y0313159D01*
X0249689Y0310357D01*
X0252452Y0310357D02*
X0252452Y0313159D01*
X0254320Y0313159D02*
X0254320Y0310357D01*
X0253386Y0311291D01*
X0252452Y0310357D01*
X0255214Y0310357D02*
X0255214Y0313159D01*
X0256615Y0313159D01*
X0257082Y0312692D01*
X0257082Y0311758D01*
X0256615Y0311291D01*
X0255214Y0311291D01*
X0256148Y0311291D02*
X0257082Y0310357D01*
X0257976Y0311758D02*
X0259845Y0311758D01*
X0260739Y0312692D02*
X0260739Y0310824D01*
X0261206Y0310357D01*
X0262140Y0310357D01*
X0262607Y0310824D01*
X0262607Y0312692D01*
X0262140Y0313159D01*
X0261206Y0313159D01*
X0260739Y0312692D01*
X0263501Y0313159D02*
X0263501Y0310824D01*
X0263968Y0310357D01*
X0264902Y0310357D01*
X0265369Y0310824D01*
X0265369Y0313159D01*
X0266264Y0313159D02*
X0268132Y0313159D01*
X0267198Y0313159D02*
X0267198Y0310357D01*
X0224431Y0275611D02*
X0224431Y0273743D01*
X0224431Y0275144D02*
X0222563Y0275144D01*
X0222563Y0275611D02*
X0223497Y0276545D01*
X0224431Y0275611D01*
X0222563Y0275611D02*
X0222563Y0273743D01*
X0221669Y0274210D02*
X0221669Y0276078D01*
X0221202Y0276545D01*
X0219800Y0276545D01*
X0219800Y0273743D01*
X0221202Y0273743D01*
X0221669Y0274210D01*
X0218906Y0274210D02*
X0218439Y0273743D01*
X0217505Y0273743D01*
X0217038Y0274210D01*
X0217505Y0275144D02*
X0217038Y0275611D01*
X0217038Y0276078D01*
X0217505Y0276545D01*
X0218439Y0276545D01*
X0218906Y0276078D01*
X0218439Y0275144D02*
X0218906Y0274677D01*
X0218906Y0274210D01*
X0218439Y0275144D02*
X0217505Y0275144D01*
X0218088Y0269860D02*
X0218088Y0267992D01*
X0219022Y0267057D01*
X0219956Y0267992D01*
X0219956Y0269860D01*
X0220850Y0269393D02*
X0221317Y0269860D01*
X0222251Y0269860D01*
X0222718Y0269393D01*
X0222718Y0268926D01*
X0222251Y0268459D01*
X0222718Y0267992D01*
X0222718Y0267525D01*
X0222251Y0267057D01*
X0221317Y0267057D01*
X0220850Y0267525D01*
X0221784Y0268459D02*
X0222251Y0268459D01*
X0223612Y0268459D02*
X0225481Y0268459D01*
X0226375Y0269860D02*
X0227309Y0269860D01*
X0226842Y0269860D02*
X0226842Y0267057D01*
X0226375Y0267057D02*
X0227309Y0267057D01*
X0228216Y0267057D02*
X0228216Y0269860D01*
X0229617Y0269860D01*
X0230084Y0269393D01*
X0230084Y0268459D01*
X0229617Y0267992D01*
X0228216Y0267992D01*
X0229150Y0267992D02*
X0230084Y0267057D01*
X0217193Y0267525D02*
X0216726Y0267057D01*
X0215792Y0267057D01*
X0215325Y0267525D01*
X0216259Y0268459D02*
X0216726Y0268459D01*
X0217193Y0267992D01*
X0217193Y0267525D01*
X0216726Y0268459D02*
X0217193Y0268926D01*
X0217193Y0269393D01*
X0216726Y0269860D01*
X0215792Y0269860D01*
X0215325Y0269393D01*
X0200022Y0274406D02*
X0199555Y0273939D01*
X0198620Y0273939D01*
X0198153Y0274406D01*
X0197259Y0274873D02*
X0197259Y0276742D01*
X0198153Y0276275D02*
X0198620Y0276742D01*
X0199555Y0276742D01*
X0200022Y0276275D01*
X0200022Y0275808D01*
X0199555Y0275341D01*
X0200022Y0274873D01*
X0200022Y0274406D01*
X0199555Y0275341D02*
X0199087Y0275341D01*
X0197259Y0274873D02*
X0196325Y0273939D01*
X0195391Y0274873D01*
X0195391Y0276742D01*
X0194497Y0276275D02*
X0194497Y0275808D01*
X0194030Y0275341D01*
X0194497Y0274873D01*
X0194497Y0274406D01*
X0194030Y0273939D01*
X0193096Y0273939D01*
X0192629Y0274406D01*
X0193563Y0275341D02*
X0194030Y0275341D01*
X0194497Y0276275D02*
X0194030Y0276742D01*
X0193096Y0276742D01*
X0192629Y0276275D01*
X0191841Y0294215D02*
X0193709Y0294215D01*
X0192775Y0295616D02*
X0191841Y0295616D01*
X0190947Y0295149D02*
X0190480Y0295616D01*
X0189546Y0295616D01*
X0189079Y0296083D01*
X0189079Y0296550D01*
X0189546Y0297017D01*
X0190480Y0297017D01*
X0190947Y0296550D01*
X0191841Y0297017D02*
X0191841Y0294215D01*
X0190947Y0294682D02*
X0190480Y0294215D01*
X0189546Y0294215D01*
X0189079Y0294682D01*
X0188185Y0294215D02*
X0186317Y0294215D01*
X0186317Y0297017D01*
X0188185Y0297017D01*
X0187251Y0295616D02*
X0186317Y0295616D01*
X0185422Y0295616D02*
X0184955Y0295149D01*
X0183554Y0295149D01*
X0183554Y0294215D02*
X0183554Y0297017D01*
X0184955Y0297017D01*
X0185422Y0296550D01*
X0185422Y0295616D01*
X0184488Y0295149D02*
X0185422Y0294215D01*
X0190947Y0294682D02*
X0190947Y0295149D01*
X0191841Y0297017D02*
X0193709Y0297017D01*
X0194604Y0297017D02*
X0196472Y0297017D01*
X0197366Y0297017D02*
X0199234Y0294215D01*
X0199234Y0297017D01*
X0197366Y0297017D02*
X0197366Y0294215D01*
X0195538Y0294215D02*
X0195538Y0297017D01*
X0173840Y0297017D02*
X0171972Y0294215D01*
X0171078Y0294215D02*
X0170144Y0295149D01*
X0170611Y0295149D02*
X0169210Y0295149D01*
X0169210Y0294215D02*
X0169210Y0297017D01*
X0170611Y0297017D01*
X0171078Y0296550D01*
X0171078Y0295616D01*
X0170611Y0295149D01*
X0171972Y0297017D02*
X0173840Y0294215D01*
X0168316Y0293748D02*
X0166448Y0293748D01*
X0164619Y0294215D02*
X0164619Y0297017D01*
X0163685Y0297017D02*
X0165553Y0297017D01*
X0162791Y0296550D02*
X0162791Y0295616D01*
X0162324Y0295149D01*
X0160923Y0295149D01*
X0161857Y0295149D02*
X0162791Y0294215D01*
X0160923Y0294215D02*
X0160923Y0297017D01*
X0162324Y0297017D01*
X0162791Y0296550D01*
X0160029Y0296083D02*
X0160029Y0294215D01*
X0160029Y0295616D02*
X0158160Y0295616D01*
X0158160Y0296083D02*
X0159095Y0297017D01*
X0160029Y0296083D01*
X0158160Y0296083D02*
X0158160Y0294215D01*
X0157266Y0294682D02*
X0156799Y0294215D01*
X0155865Y0294215D01*
X0155398Y0294682D01*
X0154504Y0294682D02*
X0154504Y0297017D01*
X0155398Y0296550D02*
X0155398Y0296083D01*
X0155865Y0295616D01*
X0156799Y0295616D01*
X0157266Y0295149D01*
X0157266Y0294682D01*
X0157266Y0296550D02*
X0156799Y0297017D01*
X0155865Y0297017D01*
X0155398Y0296550D01*
X0154504Y0294682D02*
X0154037Y0294215D01*
X0153103Y0294215D01*
X0152636Y0294682D01*
X0152636Y0297017D01*
X0147659Y0297017D02*
X0145791Y0294215D01*
X0143963Y0294215D02*
X0143963Y0297017D01*
X0143029Y0297017D02*
X0144897Y0297017D01*
X0145791Y0297017D02*
X0147659Y0294215D01*
X0142135Y0293748D02*
X0140266Y0293748D01*
X0138438Y0294215D02*
X0138438Y0297017D01*
X0137504Y0297017D02*
X0139372Y0297017D01*
X0136610Y0296550D02*
X0136610Y0295616D01*
X0136143Y0295149D01*
X0134742Y0295149D01*
X0135676Y0295149D02*
X0136610Y0294215D01*
X0134742Y0294215D02*
X0134742Y0297017D01*
X0136143Y0297017D01*
X0136610Y0296550D01*
X0133848Y0296083D02*
X0133848Y0294215D01*
X0133848Y0295616D02*
X0131979Y0295616D01*
X0131979Y0296083D02*
X0132913Y0297017D01*
X0133848Y0296083D01*
X0131979Y0296083D02*
X0131979Y0294215D01*
X0131085Y0294682D02*
X0130618Y0294215D01*
X0129684Y0294215D01*
X0129217Y0294682D01*
X0128323Y0294682D02*
X0128323Y0297017D01*
X0129217Y0296550D02*
X0129217Y0296083D01*
X0129684Y0295616D01*
X0130618Y0295616D01*
X0131085Y0295149D01*
X0131085Y0294682D01*
X0131085Y0296550D02*
X0130618Y0297017D01*
X0129684Y0297017D01*
X0129217Y0296550D01*
X0128323Y0294682D02*
X0127856Y0294215D01*
X0126922Y0294215D01*
X0126455Y0294682D01*
X0126455Y0297017D01*
X0123275Y0296726D02*
X0122848Y0296300D01*
X0121996Y0296300D01*
X0121569Y0296726D01*
X0121569Y0297579D01*
X0121996Y0298005D01*
X0122848Y0298005D01*
X0123275Y0297579D01*
X0123275Y0296726D01*
X0122848Y0295467D02*
X0123275Y0295041D01*
X0123275Y0293762D01*
X0120717Y0293762D01*
X0120717Y0295041D01*
X0121143Y0295467D01*
X0121569Y0295467D01*
X0121996Y0295041D01*
X0121996Y0293762D01*
X0121996Y0295041D02*
X0122422Y0295467D01*
X0122848Y0295467D01*
X0122848Y0298837D02*
X0122422Y0299263D01*
X0122422Y0300542D01*
X0121996Y0300542D02*
X0123275Y0300542D01*
X0123275Y0299263D01*
X0122848Y0298837D01*
X0121569Y0299263D02*
X0121569Y0300116D01*
X0121996Y0300542D01*
X0122422Y0301375D02*
X0121569Y0302227D01*
X0121569Y0302654D01*
X0121996Y0303489D02*
X0121569Y0303916D01*
X0121569Y0305195D01*
X0121569Y0306027D02*
X0121996Y0306027D01*
X0121996Y0306453D01*
X0121569Y0306453D01*
X0121569Y0306027D01*
X0120717Y0305195D02*
X0123275Y0305195D01*
X0123275Y0303916D01*
X0122848Y0303489D01*
X0121996Y0303489D01*
X0121569Y0301375D02*
X0123275Y0301375D01*
X0123275Y0306027D02*
X0122848Y0306027D01*
X0122848Y0306453D01*
X0123275Y0306453D01*
X0123275Y0306027D01*
X0123275Y0290385D02*
X0123275Y0289533D01*
X0123275Y0289959D02*
X0120717Y0289959D01*
X0120717Y0289533D01*
X0121569Y0288274D02*
X0121569Y0287421D01*
X0121996Y0286995D01*
X0122848Y0286995D01*
X0123275Y0287421D01*
X0123275Y0288274D01*
X0122848Y0288700D01*
X0121996Y0288700D01*
X0121569Y0288274D01*
X0121569Y0286159D02*
X0121569Y0285733D01*
X0122422Y0284880D01*
X0123275Y0284880D02*
X0121569Y0284880D01*
X0121569Y0284041D02*
X0121569Y0283189D01*
X0121143Y0283615D02*
X0122848Y0283615D01*
X0123275Y0284041D01*
X0123275Y0282356D02*
X0121996Y0282356D01*
X0121569Y0281930D01*
X0121569Y0280651D01*
X0123275Y0280651D01*
X0122848Y0279819D02*
X0121996Y0279819D01*
X0121569Y0279392D01*
X0121569Y0278540D01*
X0121996Y0278113D01*
X0122848Y0278113D01*
X0123275Y0278540D01*
X0123275Y0279392D01*
X0122848Y0279819D01*
X0122848Y0277281D02*
X0123275Y0276855D01*
X0123275Y0276002D01*
X0122848Y0275576D01*
X0121143Y0275576D01*
X0120717Y0276002D01*
X0120717Y0276855D01*
X0121143Y0277281D01*
X0121996Y0272206D02*
X0121569Y0271780D01*
X0121569Y0270927D01*
X0121996Y0270501D01*
X0122848Y0270501D01*
X0123275Y0270927D01*
X0123275Y0271780D01*
X0122848Y0272206D01*
X0121996Y0272206D01*
X0120717Y0269668D02*
X0120717Y0267963D01*
X0120717Y0268816D02*
X0123275Y0268816D01*
X0131979Y0274406D02*
X0132446Y0273939D01*
X0133381Y0273939D01*
X0133848Y0274406D01*
X0133848Y0274873D01*
X0133381Y0275341D01*
X0132446Y0275341D01*
X0131979Y0275808D01*
X0131979Y0276275D01*
X0132446Y0276742D01*
X0133381Y0276742D01*
X0133848Y0276275D01*
X0134742Y0276742D02*
X0134742Y0273939D01*
X0135676Y0274873D01*
X0136610Y0273939D01*
X0136610Y0276742D01*
X0137504Y0276742D02*
X0138905Y0276742D01*
X0139372Y0276275D01*
X0139372Y0274406D01*
X0138905Y0273939D01*
X0137504Y0273939D01*
X0137504Y0276742D01*
X0140266Y0276275D02*
X0140266Y0274406D01*
X0140734Y0273939D01*
X0141668Y0273939D01*
X0142135Y0274406D01*
X0143029Y0273939D02*
X0144897Y0273939D01*
X0145791Y0273939D02*
X0145791Y0276742D01*
X0146258Y0275341D02*
X0147659Y0273939D01*
X0145791Y0274873D02*
X0147659Y0276742D01*
X0143029Y0276742D02*
X0143029Y0273939D01*
X0142135Y0276275D02*
X0141668Y0276742D01*
X0140734Y0276742D01*
X0140266Y0276275D01*
X0140266Y0256466D02*
X0140266Y0253664D01*
X0142135Y0253664D01*
X0143029Y0253664D02*
X0144897Y0256466D01*
X0145791Y0256466D02*
X0147659Y0256466D01*
X0146725Y0256466D02*
X0146725Y0253664D01*
X0144897Y0253664D02*
X0143029Y0256466D01*
X0142135Y0256466D02*
X0140266Y0256466D01*
X0140266Y0255065D02*
X0141201Y0255065D01*
X0139372Y0255065D02*
X0137504Y0255065D01*
X0136610Y0253664D02*
X0136610Y0256466D01*
X0134742Y0256466D02*
X0136610Y0253664D01*
X0134742Y0253664D02*
X0134742Y0256466D01*
X0133834Y0256466D02*
X0132900Y0256466D01*
X0133367Y0256466D02*
X0133367Y0253664D01*
X0132900Y0253664D02*
X0133834Y0253664D01*
X0132006Y0254598D02*
X0132006Y0256466D01*
X0132006Y0254598D02*
X0131072Y0253664D01*
X0130138Y0254598D01*
X0130138Y0256466D01*
X0107133Y0242295D02*
X0106707Y0242721D01*
X0106280Y0242721D01*
X0105854Y0242295D01*
X0105854Y0241016D01*
X0106707Y0241016D01*
X0107133Y0241442D01*
X0107133Y0242295D01*
X0105854Y0241016D02*
X0105001Y0241869D01*
X0104575Y0242721D01*
X0104575Y0239331D02*
X0107133Y0239331D01*
X0107133Y0238478D02*
X0107133Y0240184D01*
X0105428Y0238478D02*
X0104575Y0239331D01*
X0108675Y0279423D02*
X0109102Y0279850D01*
X0109102Y0280276D01*
X0108675Y0280702D01*
X0106543Y0280702D01*
X0106543Y0280276D02*
X0106543Y0281129D01*
X0107396Y0281961D02*
X0106543Y0282814D01*
X0109102Y0282814D01*
X0109102Y0283666D02*
X0109102Y0281961D01*
X0106739Y0307945D02*
X0106739Y0309650D01*
X0106739Y0308798D02*
X0104181Y0308798D01*
X0105034Y0307945D01*
X0147491Y0321702D02*
X0149196Y0321702D01*
X0148343Y0321702D02*
X0148343Y0319144D01*
X0150028Y0319570D02*
X0150454Y0319144D01*
X0151307Y0319144D01*
X0151734Y0319570D01*
X0151734Y0320423D01*
X0151307Y0320849D01*
X0150454Y0320849D01*
X0150028Y0320423D01*
X0150028Y0319570D01*
X0155103Y0319144D02*
X0156382Y0319144D01*
X0156809Y0319570D01*
X0156809Y0319997D01*
X0156382Y0320423D01*
X0155103Y0320423D01*
X0155103Y0319144D02*
X0155103Y0321702D01*
X0156382Y0321702D01*
X0156809Y0321276D01*
X0156809Y0320849D01*
X0156382Y0320423D01*
X0157641Y0319570D02*
X0158067Y0319997D01*
X0159346Y0319997D01*
X0159346Y0320423D02*
X0159346Y0319144D01*
X0158067Y0319144D01*
X0157641Y0319570D01*
X0158067Y0320849D02*
X0158920Y0320849D01*
X0159346Y0320423D01*
X0160179Y0320849D02*
X0161031Y0320849D01*
X0160605Y0321276D02*
X0160605Y0319570D01*
X0161031Y0319144D01*
X0162297Y0319570D02*
X0162723Y0319144D01*
X0162297Y0319570D02*
X0162297Y0321276D01*
X0161870Y0320849D02*
X0162723Y0320849D01*
X0163562Y0320423D02*
X0163988Y0320849D01*
X0164841Y0320849D01*
X0165267Y0320423D01*
X0165267Y0319997D01*
X0163562Y0319997D01*
X0163562Y0320423D02*
X0163562Y0319570D01*
X0163988Y0319144D01*
X0164841Y0319144D01*
X0166100Y0319144D02*
X0166100Y0320849D01*
X0166100Y0319997D02*
X0166952Y0320849D01*
X0167379Y0320849D01*
X0168214Y0320849D02*
X0168214Y0319570D01*
X0168641Y0319144D01*
X0169920Y0319144D01*
X0169920Y0318718D02*
X0169493Y0318291D01*
X0169067Y0318291D01*
X0169920Y0318718D02*
X0169920Y0320849D01*
X0173289Y0320423D02*
X0174569Y0320423D01*
X0174995Y0319997D01*
X0174995Y0319570D01*
X0174569Y0319144D01*
X0173289Y0319144D01*
X0173289Y0321702D01*
X0174569Y0321702D01*
X0174995Y0321276D01*
X0174995Y0320849D01*
X0174569Y0320423D01*
X0175827Y0320423D02*
X0175827Y0319570D01*
X0176253Y0319144D01*
X0177106Y0319144D01*
X0177532Y0319570D01*
X0177532Y0320423D01*
X0177106Y0320849D01*
X0176253Y0320849D01*
X0175827Y0320423D01*
X0178365Y0319570D02*
X0178791Y0319997D01*
X0180070Y0319997D01*
X0180070Y0320423D02*
X0180070Y0319144D01*
X0178791Y0319144D01*
X0178365Y0319570D01*
X0178791Y0320849D02*
X0179644Y0320849D01*
X0180070Y0320423D01*
X0180902Y0319997D02*
X0181755Y0320849D01*
X0182181Y0320849D01*
X0183017Y0320423D02*
X0183443Y0320849D01*
X0184722Y0320849D01*
X0185555Y0320849D02*
X0185555Y0320423D01*
X0185981Y0320423D01*
X0185981Y0320849D01*
X0185555Y0320849D01*
X0184722Y0321702D02*
X0184722Y0319144D01*
X0183443Y0319144D01*
X0183017Y0319570D01*
X0183017Y0320423D01*
X0180902Y0320849D02*
X0180902Y0319144D01*
X0185555Y0319144D02*
X0185555Y0319570D01*
X0185981Y0319570D01*
X0185981Y0319144D01*
X0185555Y0319144D01*
X0173373Y0276742D02*
X0173841Y0276275D01*
X0173841Y0274406D01*
X0173373Y0273939D01*
X0172439Y0273939D01*
X0171972Y0274406D01*
X0171972Y0276275D01*
X0172439Y0276742D01*
X0173373Y0276742D01*
X0171065Y0276742D02*
X0170131Y0276742D01*
X0170598Y0276742D02*
X0170598Y0273939D01*
X0170131Y0273939D02*
X0171065Y0273939D01*
X0169237Y0274406D02*
X0169237Y0276275D01*
X0168770Y0276742D01*
X0167368Y0276742D01*
X0167368Y0273939D01*
X0168770Y0273939D01*
X0169237Y0274406D01*
X0166474Y0273939D02*
X0166474Y0276742D01*
X0164606Y0276742D02*
X0164606Y0273939D01*
X0165540Y0274873D01*
X0166474Y0273939D01*
X0163712Y0274406D02*
X0163245Y0273939D01*
X0162311Y0273939D01*
X0161844Y0274406D01*
X0162311Y0275341D02*
X0163245Y0275341D01*
X0163712Y0274873D01*
X0163712Y0274406D01*
X0162311Y0275341D02*
X0161844Y0275808D01*
X0161844Y0276275D01*
X0162311Y0276742D01*
X0163245Y0276742D01*
X0163712Y0276275D01*
X0166915Y0256466D02*
X0166448Y0255999D01*
X0166448Y0254131D01*
X0166915Y0253664D01*
X0167849Y0253664D01*
X0168316Y0254131D01*
X0168316Y0255065D01*
X0167382Y0255065D01*
X0168316Y0255999D02*
X0167849Y0256466D01*
X0166915Y0256466D01*
X0169210Y0256466D02*
X0171078Y0253664D01*
X0171078Y0256466D01*
X0171972Y0256466D02*
X0173373Y0256466D01*
X0173841Y0255999D01*
X0173841Y0254131D01*
X0173373Y0253664D01*
X0171972Y0253664D01*
X0171972Y0256466D01*
X0169210Y0256466D02*
X0169210Y0253664D01*
X0184485Y0253715D02*
X0184485Y0256517D01*
X0185886Y0256517D01*
X0186353Y0256050D01*
X0186353Y0255116D01*
X0185886Y0254649D01*
X0184485Y0254649D01*
X0187247Y0253715D02*
X0188648Y0253715D01*
X0189115Y0254182D01*
X0189115Y0256050D01*
X0188648Y0256517D01*
X0187247Y0256517D01*
X0187247Y0253715D01*
X0190010Y0255116D02*
X0191878Y0255116D01*
X0192772Y0256050D02*
X0192772Y0254182D01*
X0193239Y0253715D01*
X0194173Y0253715D01*
X0194640Y0254182D01*
X0194640Y0256050D01*
X0194173Y0256517D01*
X0193239Y0256517D01*
X0192772Y0256050D01*
X0195534Y0256517D02*
X0195534Y0254182D01*
X0196001Y0253715D01*
X0196935Y0253715D01*
X0197403Y0254182D01*
X0197403Y0256517D01*
X0198297Y0256517D02*
X0200165Y0256517D01*
X0199231Y0256517D02*
X0199231Y0253715D01*
X0302545Y0389097D02*
X0303479Y0389097D01*
X0303946Y0389564D01*
X0303946Y0390498D01*
X0303012Y0390498D01*
X0303946Y0391432D02*
X0303479Y0391899D01*
X0302545Y0391899D01*
X0302077Y0391432D01*
X0302077Y0389564D01*
X0302545Y0389097D01*
X0304840Y0389097D02*
X0304840Y0391899D01*
X0306708Y0389097D01*
X0306708Y0391899D01*
X0307602Y0391899D02*
X0309003Y0391899D01*
X0309470Y0391432D01*
X0309470Y0389564D01*
X0309003Y0389097D01*
X0307602Y0389097D01*
X0307602Y0391899D01*
D15*
X0135335Y0148296D02*
X0116831Y0127115D01*
X0220690Y0127115D01*
X0220729Y0127115D02*
X0220729Y0155894D01*
X0155847Y0155894D01*
X0135335Y0148296D01*
X0129564Y0163139D02*
X0194446Y0163139D01*
X0214957Y0170737D01*
X0233461Y0191918D01*
X0129603Y0191918D01*
X0129564Y0191918D02*
X0129564Y0163139D01*
X0129524Y0184044D02*
X0120863Y0184044D01*
X0120863Y0191918D01*
X0129524Y0191918D01*
X0110698Y0194359D02*
X0175580Y0194359D01*
X0196091Y0201957D01*
X0214595Y0223139D01*
X0110737Y0223139D01*
X0110698Y0223139D02*
X0110698Y0194359D01*
X0110658Y0215265D02*
X0101997Y0215265D01*
X0101997Y0223139D01*
X0110658Y0223139D01*
X0097784Y0230461D02*
X0097784Y0244241D01*
X0105265Y0244241D01*
X0105265Y0307233D01*
X0097784Y0307233D01*
X0097784Y0321013D01*
X0076524Y0321013D01*
X0076524Y0230461D01*
X0097784Y0230461D01*
X0175941Y0266159D02*
X0175941Y0274033D01*
X0189327Y0274033D01*
X0189721Y0274033D01*
X0189721Y0266159D01*
X0189327Y0266159D01*
X0175941Y0266159D01*
X0204595Y0247154D02*
X0225107Y0254753D01*
X0289989Y0254753D01*
X0289989Y0225973D01*
X0290028Y0225973D02*
X0298690Y0225973D01*
X0298690Y0233847D01*
X0290028Y0233847D01*
X0289950Y0225973D02*
X0186091Y0225973D01*
X0204595Y0247154D01*
X0219950Y0216446D02*
X0240461Y0224044D01*
X0305343Y0224044D01*
X0305343Y0195265D01*
X0305304Y0195265D02*
X0201446Y0195265D01*
X0219950Y0216446D01*
X0230217Y0184202D02*
X0250729Y0191800D01*
X0315611Y0191800D01*
X0315611Y0163020D01*
X0315572Y0163020D02*
X0211713Y0163020D01*
X0230217Y0184202D01*
X0226375Y0160028D02*
X0235036Y0160028D01*
X0235076Y0160028D02*
X0235076Y0131249D01*
X0299957Y0131249D01*
X0320469Y0138847D01*
X0338973Y0160028D01*
X0235115Y0160028D01*
X0235036Y0152154D02*
X0226375Y0152154D01*
X0226375Y0160028D01*
X0229430Y0134989D02*
X0220769Y0134989D01*
X0220769Y0127115D02*
X0229430Y0127115D01*
X0229430Y0134989D01*
X0305383Y0195265D02*
X0314044Y0195265D01*
X0314044Y0203139D01*
X0305383Y0203139D01*
X0317824Y0200863D02*
X0317824Y0304721D01*
X0339005Y0286217D01*
X0346603Y0265706D01*
X0346603Y0200824D01*
X0317824Y0200824D01*
X0317824Y0200784D02*
X0317824Y0192123D01*
X0325698Y0192123D01*
X0325698Y0200784D01*
X0328272Y0191131D02*
X0319611Y0191131D01*
X0319611Y0183257D01*
X0328272Y0183257D01*
X0328312Y0191131D02*
X0328312Y0162351D01*
X0393194Y0162351D01*
X0413706Y0169950D01*
X0432209Y0191131D01*
X0328351Y0191131D01*
X0324312Y0170894D02*
X0315650Y0170894D01*
X0324312Y0170894D02*
X0324312Y0163020D01*
X0315650Y0163020D01*
X0331469Y0147509D02*
X0351981Y0155107D01*
X0416863Y0155107D01*
X0416863Y0126328D01*
X0416902Y0126328D02*
X0425564Y0126328D01*
X0425564Y0134202D01*
X0416902Y0134202D01*
X0416824Y0126328D02*
X0312965Y0126328D01*
X0331469Y0147509D01*
X0357517Y0194162D02*
X0422398Y0194162D01*
X0442910Y0201761D01*
X0461414Y0222942D01*
X0357556Y0222942D01*
X0357517Y0222942D02*
X0357517Y0194162D01*
X0357477Y0215068D02*
X0348816Y0215068D01*
X0348816Y0222942D01*
X0357477Y0222942D01*
X0348328Y0225225D02*
X0366831Y0246406D01*
X0387343Y0254005D01*
X0452225Y0254005D01*
X0452225Y0225225D01*
X0452186Y0225225D02*
X0348328Y0225225D01*
X0315658Y0232154D02*
X0294477Y0250658D01*
X0286879Y0271170D01*
X0286879Y0336052D01*
X0315658Y0336052D01*
X0315658Y0336091D02*
X0315658Y0344753D01*
X0307784Y0344753D01*
X0307784Y0336091D01*
X0315658Y0336013D02*
X0315658Y0232154D01*
X0355942Y0257548D02*
X0420824Y0257548D01*
X0441335Y0265146D01*
X0459839Y0286328D01*
X0355981Y0286328D01*
X0355942Y0286328D02*
X0355942Y0257548D01*
X0355902Y0278454D02*
X0347241Y0278454D01*
X0347241Y0286328D01*
X0355902Y0286328D01*
X0355548Y0287784D02*
X0420430Y0287784D01*
X0440942Y0295383D01*
X0459446Y0316564D01*
X0355587Y0316564D01*
X0355548Y0316564D02*
X0355548Y0287784D01*
X0345619Y0300296D02*
X0324438Y0318800D01*
X0316839Y0339312D01*
X0316839Y0404194D01*
X0345619Y0404194D01*
X0345619Y0404233D02*
X0345619Y0412894D01*
X0337745Y0412894D01*
X0337745Y0404233D01*
X0345619Y0404154D02*
X0345619Y0300296D01*
X0346847Y0308690D02*
X0346847Y0316564D01*
X0355509Y0316564D01*
X0355154Y0319359D02*
X0420036Y0319359D01*
X0440548Y0326957D01*
X0459052Y0348139D01*
X0355194Y0348139D01*
X0355154Y0348139D02*
X0355154Y0319359D01*
X0355509Y0308690D02*
X0346847Y0308690D01*
X0346454Y0340265D02*
X0346454Y0348139D01*
X0355115Y0348139D01*
X0355115Y0340265D02*
X0346454Y0340265D01*
X0347611Y0351997D02*
X0366115Y0373178D01*
X0386627Y0380776D01*
X0451509Y0380776D01*
X0451509Y0351997D01*
X0451548Y0351997D02*
X0460209Y0351997D01*
X0460209Y0359871D01*
X0451548Y0359871D01*
X0451469Y0351997D02*
X0347611Y0351997D01*
X0356265Y0383926D02*
X0421146Y0383926D01*
X0441658Y0391524D01*
X0460162Y0412706D01*
X0356304Y0412706D01*
X0356265Y0412706D02*
X0356265Y0383926D01*
X0356225Y0404831D02*
X0347564Y0404831D01*
X0347564Y0412706D01*
X0356225Y0412706D01*
X0337666Y0436524D02*
X0358178Y0444123D01*
X0423060Y0444123D01*
X0423060Y0415343D01*
X0423099Y0415343D02*
X0431761Y0415343D01*
X0431761Y0423217D01*
X0423099Y0423217D01*
X0423020Y0415343D02*
X0319162Y0415343D01*
X0337666Y0436524D01*
X0320343Y0428335D02*
X0320343Y0420461D01*
X0311682Y0420461D01*
X0311643Y0420461D02*
X0311643Y0449241D01*
X0246761Y0449241D01*
X0226249Y0441643D01*
X0207745Y0420461D01*
X0311603Y0420461D01*
X0311682Y0428335D02*
X0320343Y0428335D01*
X0301603Y0418808D02*
X0283099Y0397627D01*
X0262587Y0390028D01*
X0197706Y0390028D01*
X0197706Y0418808D01*
X0197745Y0418808D02*
X0301603Y0418808D01*
X0301209Y0386131D02*
X0282706Y0364950D01*
X0262194Y0357351D01*
X0197312Y0357351D01*
X0197312Y0386131D01*
X0197351Y0386131D02*
X0301209Y0386131D01*
X0301178Y0354359D02*
X0282674Y0333178D01*
X0262162Y0325580D01*
X0197280Y0325580D01*
X0197280Y0354359D01*
X0197241Y0354359D02*
X0188580Y0354359D01*
X0188580Y0346485D01*
X0197241Y0346485D01*
X0197320Y0354359D02*
X0301178Y0354359D01*
X0233975Y0281271D02*
X0233980Y0281712D01*
X0233997Y0282153D01*
X0234024Y0282593D01*
X0234062Y0283033D01*
X0234110Y0283471D01*
X0234170Y0283909D01*
X0234240Y0284344D01*
X0234320Y0284778D01*
X0234412Y0285210D01*
X0234514Y0285639D01*
X0234626Y0286065D01*
X0234749Y0286489D01*
X0234882Y0286910D01*
X0235026Y0287327D01*
X0235180Y0287740D01*
X0235343Y0288150D01*
X0235517Y0288556D01*
X0235701Y0288957D01*
X0235894Y0289353D01*
X0236098Y0289745D01*
X0236310Y0290131D01*
X0236532Y0290513D01*
X0236764Y0290888D01*
X0237005Y0291258D01*
X0237254Y0291622D01*
X0237513Y0291979D01*
X0237780Y0292330D01*
X0238055Y0292675D01*
X0238339Y0293012D01*
X0238632Y0293343D01*
X0238932Y0293666D01*
X0239240Y0293982D01*
X0239556Y0294290D01*
X0239879Y0294590D01*
X0240210Y0294883D01*
X0240547Y0295167D01*
X0240892Y0295442D01*
X0241243Y0295709D01*
X0241600Y0295968D01*
X0241964Y0296217D01*
X0242334Y0296458D01*
X0242709Y0296690D01*
X0243091Y0296912D01*
X0243477Y0297124D01*
X0243869Y0297328D01*
X0244265Y0297521D01*
X0244666Y0297705D01*
X0245072Y0297879D01*
X0245482Y0298042D01*
X0245895Y0298196D01*
X0246312Y0298340D01*
X0246733Y0298473D01*
X0247157Y0298596D01*
X0247583Y0298708D01*
X0248012Y0298810D01*
X0248444Y0298902D01*
X0248878Y0298982D01*
X0249313Y0299052D01*
X0249751Y0299112D01*
X0250189Y0299160D01*
X0250629Y0299198D01*
X0251069Y0299225D01*
X0251510Y0299242D01*
X0251951Y0299247D01*
X0252392Y0299242D01*
X0252833Y0299225D01*
X0253273Y0299198D01*
X0253713Y0299160D01*
X0254151Y0299112D01*
X0254589Y0299052D01*
X0255024Y0298982D01*
X0255458Y0298902D01*
X0255890Y0298810D01*
X0256319Y0298708D01*
X0256745Y0298596D01*
X0257169Y0298473D01*
X0257590Y0298340D01*
X0258007Y0298196D01*
X0258420Y0298042D01*
X0258830Y0297879D01*
X0259236Y0297705D01*
X0259637Y0297521D01*
X0260033Y0297328D01*
X0260425Y0297124D01*
X0260811Y0296912D01*
X0261193Y0296690D01*
X0261568Y0296458D01*
X0261938Y0296217D01*
X0262302Y0295968D01*
X0262659Y0295709D01*
X0263010Y0295442D01*
X0263355Y0295167D01*
X0263692Y0294883D01*
X0264023Y0294590D01*
X0264346Y0294290D01*
X0264662Y0293982D01*
X0264970Y0293666D01*
X0265270Y0293343D01*
X0265563Y0293012D01*
X0265847Y0292675D01*
X0266122Y0292330D01*
X0266389Y0291979D01*
X0266648Y0291622D01*
X0266897Y0291258D01*
X0267138Y0290888D01*
X0267370Y0290513D01*
X0267592Y0290131D01*
X0267804Y0289745D01*
X0268008Y0289353D01*
X0268201Y0288957D01*
X0268385Y0288556D01*
X0268559Y0288150D01*
X0268722Y0287740D01*
X0268876Y0287327D01*
X0269020Y0286910D01*
X0269153Y0286489D01*
X0269276Y0286065D01*
X0269388Y0285639D01*
X0269490Y0285210D01*
X0269582Y0284778D01*
X0269662Y0284344D01*
X0269732Y0283909D01*
X0269792Y0283471D01*
X0269840Y0283033D01*
X0269878Y0282593D01*
X0269905Y0282153D01*
X0269922Y0281712D01*
X0269927Y0281271D01*
X0269922Y0280830D01*
X0269905Y0280389D01*
X0269878Y0279949D01*
X0269840Y0279509D01*
X0269792Y0279071D01*
X0269732Y0278633D01*
X0269662Y0278198D01*
X0269582Y0277764D01*
X0269490Y0277332D01*
X0269388Y0276903D01*
X0269276Y0276477D01*
X0269153Y0276053D01*
X0269020Y0275632D01*
X0268876Y0275215D01*
X0268722Y0274802D01*
X0268559Y0274392D01*
X0268385Y0273986D01*
X0268201Y0273585D01*
X0268008Y0273189D01*
X0267804Y0272797D01*
X0267592Y0272411D01*
X0267370Y0272029D01*
X0267138Y0271654D01*
X0266897Y0271284D01*
X0266648Y0270920D01*
X0266389Y0270563D01*
X0266122Y0270212D01*
X0265847Y0269867D01*
X0265563Y0269530D01*
X0265270Y0269199D01*
X0264970Y0268876D01*
X0264662Y0268560D01*
X0264346Y0268252D01*
X0264023Y0267952D01*
X0263692Y0267659D01*
X0263355Y0267375D01*
X0263010Y0267100D01*
X0262659Y0266833D01*
X0262302Y0266574D01*
X0261938Y0266325D01*
X0261568Y0266084D01*
X0261193Y0265852D01*
X0260811Y0265630D01*
X0260425Y0265418D01*
X0260033Y0265214D01*
X0259637Y0265021D01*
X0259236Y0264837D01*
X0258830Y0264663D01*
X0258420Y0264500D01*
X0258007Y0264346D01*
X0257590Y0264202D01*
X0257169Y0264069D01*
X0256745Y0263946D01*
X0256319Y0263834D01*
X0255890Y0263732D01*
X0255458Y0263640D01*
X0255024Y0263560D01*
X0254589Y0263490D01*
X0254151Y0263430D01*
X0253713Y0263382D01*
X0253273Y0263344D01*
X0252833Y0263317D01*
X0252392Y0263300D01*
X0251951Y0263295D01*
X0251510Y0263300D01*
X0251069Y0263317D01*
X0250629Y0263344D01*
X0250189Y0263382D01*
X0249751Y0263430D01*
X0249313Y0263490D01*
X0248878Y0263560D01*
X0248444Y0263640D01*
X0248012Y0263732D01*
X0247583Y0263834D01*
X0247157Y0263946D01*
X0246733Y0264069D01*
X0246312Y0264202D01*
X0245895Y0264346D01*
X0245482Y0264500D01*
X0245072Y0264663D01*
X0244666Y0264837D01*
X0244265Y0265021D01*
X0243869Y0265214D01*
X0243477Y0265418D01*
X0243091Y0265630D01*
X0242709Y0265852D01*
X0242334Y0266084D01*
X0241964Y0266325D01*
X0241600Y0266574D01*
X0241243Y0266833D01*
X0240892Y0267100D01*
X0240547Y0267375D01*
X0240210Y0267659D01*
X0239879Y0267952D01*
X0239556Y0268252D01*
X0239240Y0268560D01*
X0238932Y0268876D01*
X0238632Y0269199D01*
X0238339Y0269530D01*
X0238055Y0269867D01*
X0237780Y0270212D01*
X0237513Y0270563D01*
X0237254Y0270920D01*
X0237005Y0271284D01*
X0236764Y0271654D01*
X0236532Y0272029D01*
X0236310Y0272411D01*
X0236098Y0272797D01*
X0235894Y0273189D01*
X0235701Y0273585D01*
X0235517Y0273986D01*
X0235343Y0274392D01*
X0235180Y0274802D01*
X0235026Y0275215D01*
X0234882Y0275632D01*
X0234749Y0276053D01*
X0234626Y0276477D01*
X0234514Y0276903D01*
X0234412Y0277332D01*
X0234320Y0277764D01*
X0234240Y0278198D01*
X0234170Y0278633D01*
X0234110Y0279071D01*
X0234062Y0279509D01*
X0234024Y0279949D01*
X0233997Y0280389D01*
X0233980Y0280830D01*
X0233975Y0281271D01*
X0193209Y0327430D02*
X0184548Y0327430D01*
X0184509Y0327430D02*
X0184509Y0356209D01*
X0119627Y0356209D01*
X0099115Y0348611D01*
X0080611Y0327430D01*
X0184469Y0327430D01*
X0193209Y0327430D02*
X0193209Y0335304D01*
X0184548Y0335304D01*
X0184517Y0358257D02*
X0193178Y0358257D01*
X0193178Y0366131D01*
X0184517Y0366131D01*
X0184477Y0358257D02*
X0184477Y0387036D01*
X0119595Y0387036D01*
X0099083Y0379438D01*
X0080580Y0358257D01*
X0184438Y0358257D01*
X0188611Y0378257D02*
X0188611Y0386131D01*
X0197272Y0386131D01*
X0193178Y0390186D02*
X0184517Y0390186D01*
X0184477Y0390186D02*
X0184477Y0418965D01*
X0119595Y0418965D01*
X0099083Y0411367D01*
X0080580Y0390186D01*
X0184438Y0390186D01*
X0184517Y0398060D02*
X0193178Y0398060D01*
X0193178Y0390186D01*
X0197272Y0378257D02*
X0188611Y0378257D01*
X0189005Y0410934D02*
X0189005Y0418808D01*
X0197666Y0418808D01*
X0192083Y0420855D02*
X0127202Y0420855D01*
X0127202Y0449635D01*
X0127241Y0449635D02*
X0231099Y0449635D01*
X0212595Y0428454D01*
X0192083Y0420855D01*
X0189005Y0410934D02*
X0197666Y0410934D01*
X0127162Y0441761D02*
X0118501Y0441761D01*
X0118501Y0449635D01*
X0127162Y0449635D01*
X0452265Y0233099D02*
X0460926Y0233099D01*
X0460926Y0225225D01*
X0452265Y0225225D01*
D16*
X0267998Y0297460D02*
X0265018Y0293992D01*
X0263762Y0295051D01*
X0262951Y0295807D01*
X0265931Y0299275D01*
X0267998Y0297460D01*
X0267962Y0297418D02*
X0264336Y0297418D01*
X0264503Y0297614D02*
X0267823Y0297614D01*
X0267601Y0297809D02*
X0264671Y0297809D01*
X0264839Y0298004D02*
X0267378Y0298004D01*
X0267156Y0298200D02*
X0265007Y0298200D01*
X0265175Y0298395D02*
X0266933Y0298395D01*
X0266711Y0298590D02*
X0265343Y0298590D01*
X0265511Y0298786D02*
X0266488Y0298786D01*
X0266266Y0298981D02*
X0265678Y0298981D01*
X0265846Y0299177D02*
X0266043Y0299177D01*
X0267794Y0297223D02*
X0264168Y0297223D01*
X0264000Y0297028D02*
X0267626Y0297028D01*
X0267458Y0296832D02*
X0263832Y0296832D01*
X0263664Y0296637D02*
X0267291Y0296637D01*
X0267123Y0296441D02*
X0263496Y0296441D01*
X0263328Y0296246D02*
X0266955Y0296246D01*
X0266787Y0296051D02*
X0263160Y0296051D01*
X0263053Y0295855D02*
X0266619Y0295855D01*
X0266451Y0295660D02*
X0263225Y0295660D01*
X0263108Y0295660D01*
X0263053Y0295855D02*
X0262993Y0295855D01*
X0262951Y0295972D02*
X0263762Y0295051D01*
X0262951Y0295972D01*
X0263318Y0295465D02*
X0263397Y0295465D01*
X0266283Y0295465D01*
X0266115Y0295269D02*
X0263569Y0295269D01*
X0263527Y0295269D01*
X0263737Y0295074D02*
X0263741Y0295074D01*
X0265948Y0295074D01*
X0265780Y0294879D02*
X0263966Y0294879D01*
X0264198Y0294683D02*
X0265612Y0294683D01*
X0265444Y0294488D02*
X0264429Y0294488D01*
X0264661Y0294292D02*
X0265276Y0294292D01*
X0265108Y0294097D02*
X0264893Y0294097D01*
X0242935Y0281271D02*
X0242938Y0281492D01*
X0242946Y0281713D01*
X0242959Y0281934D01*
X0242978Y0282155D01*
X0243003Y0282375D01*
X0243033Y0282594D01*
X0243068Y0282812D01*
X0243108Y0283030D01*
X0243154Y0283246D01*
X0243205Y0283462D01*
X0243262Y0283676D01*
X0243323Y0283888D01*
X0243390Y0284099D01*
X0243462Y0284308D01*
X0243539Y0284516D01*
X0243621Y0284721D01*
X0243708Y0284925D01*
X0243801Y0285126D01*
X0243898Y0285325D01*
X0244000Y0285521D01*
X0244106Y0285715D01*
X0244218Y0285906D01*
X0244334Y0286095D01*
X0244454Y0286280D01*
X0244580Y0286462D01*
X0244709Y0286642D01*
X0244843Y0286818D01*
X0244982Y0286991D01*
X0245124Y0287160D01*
X0245271Y0287326D01*
X0245421Y0287488D01*
X0245576Y0287646D01*
X0245734Y0287801D01*
X0245896Y0287951D01*
X0246062Y0288098D01*
X0246231Y0288240D01*
X0246404Y0288379D01*
X0246580Y0288513D01*
X0246760Y0288642D01*
X0246942Y0288768D01*
X0247127Y0288888D01*
X0247316Y0289004D01*
X0247507Y0289116D01*
X0247701Y0289222D01*
X0247897Y0289324D01*
X0248096Y0289421D01*
X0248297Y0289514D01*
X0248501Y0289601D01*
X0248706Y0289683D01*
X0248914Y0289760D01*
X0249123Y0289832D01*
X0249334Y0289899D01*
X0249546Y0289960D01*
X0249760Y0290017D01*
X0249976Y0290068D01*
X0250192Y0290114D01*
X0250410Y0290154D01*
X0250628Y0290189D01*
X0250847Y0290219D01*
X0251067Y0290244D01*
X0251288Y0290263D01*
X0251509Y0290276D01*
X0251730Y0290284D01*
X0251951Y0290287D01*
X0252172Y0290284D01*
X0252393Y0290276D01*
X0252614Y0290263D01*
X0252835Y0290244D01*
X0253055Y0290219D01*
X0253274Y0290189D01*
X0253492Y0290154D01*
X0253710Y0290114D01*
X0253926Y0290068D01*
X0254142Y0290017D01*
X0254356Y0289960D01*
X0254568Y0289899D01*
X0254779Y0289832D01*
X0254988Y0289760D01*
X0255196Y0289683D01*
X0255401Y0289601D01*
X0255605Y0289514D01*
X0255806Y0289421D01*
X0256005Y0289324D01*
X0256201Y0289222D01*
X0256395Y0289116D01*
X0256586Y0289004D01*
X0256775Y0288888D01*
X0256960Y0288768D01*
X0257142Y0288642D01*
X0257322Y0288513D01*
X0257498Y0288379D01*
X0257671Y0288240D01*
X0257840Y0288098D01*
X0258006Y0287951D01*
X0258168Y0287801D01*
X0258326Y0287646D01*
X0258481Y0287488D01*
X0258631Y0287326D01*
X0258778Y0287160D01*
X0258920Y0286991D01*
X0259059Y0286818D01*
X0259193Y0286642D01*
X0259322Y0286462D01*
X0259448Y0286280D01*
X0259568Y0286095D01*
X0259684Y0285906D01*
X0259796Y0285715D01*
X0259902Y0285521D01*
X0260004Y0285325D01*
X0260101Y0285126D01*
X0260194Y0284925D01*
X0260281Y0284721D01*
X0260363Y0284516D01*
X0260440Y0284308D01*
X0260512Y0284099D01*
X0260579Y0283888D01*
X0260640Y0283676D01*
X0260697Y0283462D01*
X0260748Y0283246D01*
X0260794Y0283030D01*
X0260834Y0282812D01*
X0260869Y0282594D01*
X0260899Y0282375D01*
X0260924Y0282155D01*
X0260943Y0281934D01*
X0260956Y0281713D01*
X0260964Y0281492D01*
X0260967Y0281271D01*
X0260964Y0281050D01*
X0260956Y0280829D01*
X0260943Y0280608D01*
X0260924Y0280387D01*
X0260899Y0280167D01*
X0260869Y0279948D01*
X0260834Y0279730D01*
X0260794Y0279512D01*
X0260748Y0279296D01*
X0260697Y0279080D01*
X0260640Y0278866D01*
X0260579Y0278654D01*
X0260512Y0278443D01*
X0260440Y0278234D01*
X0260363Y0278026D01*
X0260281Y0277821D01*
X0260194Y0277617D01*
X0260101Y0277416D01*
X0260004Y0277217D01*
X0259902Y0277021D01*
X0259796Y0276827D01*
X0259684Y0276636D01*
X0259568Y0276447D01*
X0259448Y0276262D01*
X0259322Y0276080D01*
X0259193Y0275900D01*
X0259059Y0275724D01*
X0258920Y0275551D01*
X0258778Y0275382D01*
X0258631Y0275216D01*
X0258481Y0275054D01*
X0258326Y0274896D01*
X0258168Y0274741D01*
X0258006Y0274591D01*
X0257840Y0274444D01*
X0257671Y0274302D01*
X0257498Y0274163D01*
X0257322Y0274029D01*
X0257142Y0273900D01*
X0256960Y0273774D01*
X0256775Y0273654D01*
X0256586Y0273538D01*
X0256395Y0273426D01*
X0256201Y0273320D01*
X0256005Y0273218D01*
X0255806Y0273121D01*
X0255605Y0273028D01*
X0255401Y0272941D01*
X0255196Y0272859D01*
X0254988Y0272782D01*
X0254779Y0272710D01*
X0254568Y0272643D01*
X0254356Y0272582D01*
X0254142Y0272525D01*
X0253926Y0272474D01*
X0253710Y0272428D01*
X0253492Y0272388D01*
X0253274Y0272353D01*
X0253055Y0272323D01*
X0252835Y0272298D01*
X0252614Y0272279D01*
X0252393Y0272266D01*
X0252172Y0272258D01*
X0251951Y0272255D01*
X0251730Y0272258D01*
X0251509Y0272266D01*
X0251288Y0272279D01*
X0251067Y0272298D01*
X0250847Y0272323D01*
X0250628Y0272353D01*
X0250410Y0272388D01*
X0250192Y0272428D01*
X0249976Y0272474D01*
X0249760Y0272525D01*
X0249546Y0272582D01*
X0249334Y0272643D01*
X0249123Y0272710D01*
X0248914Y0272782D01*
X0248706Y0272859D01*
X0248501Y0272941D01*
X0248297Y0273028D01*
X0248096Y0273121D01*
X0247897Y0273218D01*
X0247701Y0273320D01*
X0247507Y0273426D01*
X0247316Y0273538D01*
X0247127Y0273654D01*
X0246942Y0273774D01*
X0246760Y0273900D01*
X0246580Y0274029D01*
X0246404Y0274163D01*
X0246231Y0274302D01*
X0246062Y0274444D01*
X0245896Y0274591D01*
X0245734Y0274741D01*
X0245576Y0274896D01*
X0245421Y0275054D01*
X0245271Y0275216D01*
X0245124Y0275382D01*
X0244982Y0275551D01*
X0244843Y0275724D01*
X0244709Y0275900D01*
X0244580Y0276080D01*
X0244454Y0276262D01*
X0244334Y0276447D01*
X0244218Y0276636D01*
X0244106Y0276827D01*
X0244000Y0277021D01*
X0243898Y0277217D01*
X0243801Y0277416D01*
X0243708Y0277617D01*
X0243621Y0277821D01*
X0243539Y0278026D01*
X0243462Y0278234D01*
X0243390Y0278443D01*
X0243323Y0278654D01*
X0243262Y0278866D01*
X0243205Y0279080D01*
X0243154Y0279296D01*
X0243108Y0279512D01*
X0243068Y0279730D01*
X0243033Y0279948D01*
X0243003Y0280167D01*
X0242978Y0280387D01*
X0242959Y0280608D01*
X0242946Y0280829D01*
X0242938Y0281050D01*
X0242935Y0281271D01*
D17*
X0271076Y0282190D02*
X0272611Y0282190D01*
X0271843Y0282190D02*
X0271843Y0286794D01*
X0271076Y0286794D02*
X0272611Y0286794D01*
X0274145Y0286794D02*
X0276447Y0286794D01*
X0277215Y0286027D01*
X0277215Y0284492D01*
X0276447Y0283725D01*
X0274145Y0283725D01*
X0274145Y0282190D02*
X0274145Y0286794D01*
X0275680Y0283725D02*
X0277215Y0282190D01*
X0296650Y0281958D02*
X0299720Y0281958D01*
X0299720Y0281191D01*
X0296650Y0278122D01*
X0296650Y0277354D01*
X0301254Y0277354D02*
X0301254Y0281958D01*
X0303556Y0281958D01*
X0304324Y0281191D01*
X0304324Y0278122D01*
X0303556Y0277354D01*
X0301254Y0277354D01*
X0328024Y0258758D02*
X0328791Y0259525D01*
X0330326Y0259525D01*
X0331093Y0258758D01*
X0331093Y0257991D01*
X0330326Y0257223D01*
X0331093Y0256456D01*
X0331093Y0255689D01*
X0330326Y0254921D01*
X0328791Y0254921D01*
X0328024Y0255689D01*
X0329558Y0257223D02*
X0330326Y0257223D01*
X0332628Y0254921D02*
X0334930Y0254921D01*
X0335697Y0255689D01*
X0335697Y0258758D01*
X0334930Y0259525D01*
X0332628Y0259525D01*
X0332628Y0254921D01*
X0350035Y0269622D02*
X0352337Y0267320D01*
X0352337Y0270389D01*
X0352337Y0271924D02*
X0352337Y0274226D01*
X0353105Y0274993D01*
X0353872Y0274993D01*
X0354639Y0274226D01*
X0354639Y0271924D01*
X0350035Y0271924D01*
X0350035Y0274226D01*
X0350803Y0274993D01*
X0351570Y0274993D01*
X0352337Y0274226D01*
X0354639Y0269622D02*
X0350035Y0269622D01*
X0351944Y0297556D02*
X0351944Y0300625D01*
X0353478Y0302160D02*
X0354246Y0302927D01*
X0354246Y0304462D01*
X0353478Y0305229D01*
X0350409Y0305229D02*
X0349642Y0304462D01*
X0349642Y0302927D01*
X0350409Y0302160D01*
X0353478Y0302160D01*
X0354246Y0299858D02*
X0349642Y0299858D01*
X0351944Y0297556D01*
X0351550Y0329131D02*
X0351550Y0332200D01*
X0349248Y0331433D02*
X0351550Y0329131D01*
X0353852Y0331433D02*
X0349248Y0331433D01*
X0349248Y0333735D02*
X0349248Y0336037D01*
X0350015Y0336804D01*
X0353085Y0336804D01*
X0353852Y0336037D01*
X0353852Y0333735D01*
X0349248Y0333735D01*
X0334284Y0346263D02*
X0333517Y0345496D01*
X0331982Y0345496D01*
X0331215Y0346263D01*
X0331215Y0349333D01*
X0331982Y0350100D01*
X0333517Y0350100D01*
X0334284Y0349333D01*
X0329680Y0350100D02*
X0326611Y0350100D01*
X0326611Y0347798D01*
X0328146Y0348565D01*
X0328913Y0348565D01*
X0329680Y0347798D01*
X0329680Y0346263D01*
X0328913Y0345496D01*
X0327378Y0345496D01*
X0326611Y0346263D01*
X0304324Y0341191D02*
X0304324Y0338122D01*
X0303556Y0337354D01*
X0301254Y0337354D01*
X0301254Y0341958D01*
X0303556Y0341958D01*
X0304324Y0341191D01*
X0299720Y0341191D02*
X0296650Y0338122D01*
X0296650Y0337354D01*
X0296650Y0341958D02*
X0299720Y0341958D01*
X0299720Y0341191D01*
X0255978Y0342257D02*
X0255211Y0343024D01*
X0252141Y0343024D01*
X0251374Y0342257D01*
X0251374Y0339955D01*
X0255978Y0339955D01*
X0255978Y0342257D01*
X0255211Y0338420D02*
X0255978Y0337653D01*
X0255978Y0336119D01*
X0255211Y0335351D01*
X0253676Y0335351D02*
X0252909Y0336886D01*
X0252909Y0337653D01*
X0253676Y0338420D01*
X0255211Y0338420D01*
X0253676Y0335351D02*
X0251374Y0335351D01*
X0251374Y0338420D01*
X0253707Y0367123D02*
X0253707Y0369425D01*
X0254475Y0370192D01*
X0255242Y0370192D01*
X0256009Y0369425D01*
X0256009Y0367890D01*
X0255242Y0367123D01*
X0253707Y0367123D01*
X0252173Y0368657D01*
X0251406Y0370192D01*
X0251406Y0371727D02*
X0251406Y0374029D01*
X0252173Y0374796D01*
X0255242Y0374796D01*
X0256009Y0374029D01*
X0256009Y0371727D01*
X0251406Y0371727D01*
X0254101Y0399800D02*
X0254101Y0402102D01*
X0254869Y0402869D01*
X0255636Y0402869D01*
X0256403Y0402102D01*
X0256403Y0400567D01*
X0255636Y0399800D01*
X0254101Y0399800D01*
X0252567Y0401335D01*
X0251799Y0402869D01*
X0252567Y0404404D02*
X0255636Y0404404D01*
X0256403Y0405171D01*
X0256403Y0406706D01*
X0255636Y0407473D01*
X0252567Y0407473D02*
X0251799Y0406706D01*
X0251799Y0405171D01*
X0252567Y0404404D01*
X0255243Y0430661D02*
X0255243Y0432963D01*
X0256010Y0433731D01*
X0256778Y0433731D01*
X0257545Y0432963D01*
X0257545Y0431429D01*
X0256778Y0430661D01*
X0255243Y0430661D01*
X0253708Y0432196D01*
X0252941Y0433731D01*
X0252941Y0435265D02*
X0252941Y0437567D01*
X0253708Y0438335D01*
X0254476Y0438335D01*
X0255243Y0437567D01*
X0255243Y0435265D01*
X0257545Y0435265D02*
X0252941Y0435265D01*
X0255243Y0437567D02*
X0256010Y0438335D01*
X0256778Y0438335D01*
X0257545Y0437567D01*
X0257545Y0435265D01*
X0312941Y0435265D02*
X0312941Y0437567D01*
X0313708Y0438335D01*
X0314476Y0438335D01*
X0315243Y0437567D01*
X0315243Y0435265D01*
X0316010Y0433731D02*
X0315243Y0432963D01*
X0315243Y0430661D01*
X0316778Y0430661D01*
X0317545Y0431429D01*
X0317545Y0432963D01*
X0316778Y0433731D01*
X0316010Y0433731D01*
X0317545Y0435265D02*
X0317545Y0437567D01*
X0316778Y0438335D01*
X0316010Y0438335D01*
X0315243Y0437567D01*
X0317545Y0435265D02*
X0312941Y0435265D01*
X0312941Y0433731D02*
X0313708Y0432196D01*
X0315243Y0430661D01*
X0326611Y0410100D02*
X0326611Y0407798D01*
X0328146Y0408565D01*
X0328913Y0408565D01*
X0329680Y0407798D01*
X0329680Y0406263D01*
X0328913Y0405496D01*
X0327378Y0405496D01*
X0326611Y0406263D01*
X0326611Y0410100D02*
X0329680Y0410100D01*
X0331215Y0409333D02*
X0331215Y0406263D01*
X0331982Y0405496D01*
X0333517Y0405496D01*
X0334284Y0406263D01*
X0334284Y0409333D02*
X0333517Y0410100D01*
X0331982Y0410100D01*
X0331215Y0409333D01*
X0350358Y0400604D02*
X0350358Y0398302D01*
X0354962Y0398302D01*
X0354962Y0400604D01*
X0354195Y0401371D01*
X0353428Y0401371D01*
X0352660Y0400604D01*
X0352660Y0398302D01*
X0352660Y0396767D02*
X0354195Y0396767D01*
X0354962Y0396000D01*
X0354962Y0394465D01*
X0354195Y0393698D01*
X0352660Y0393698D02*
X0351893Y0395232D01*
X0351893Y0396000D01*
X0352660Y0396767D01*
X0350358Y0396767D02*
X0350358Y0393698D01*
X0352660Y0393698D01*
X0352660Y0400604D02*
X0351893Y0401371D01*
X0351126Y0401371D01*
X0350358Y0400604D01*
X0366660Y0425543D02*
X0366660Y0427845D01*
X0367428Y0428613D01*
X0368195Y0428613D01*
X0368962Y0427845D01*
X0368962Y0426311D01*
X0368195Y0425543D01*
X0366660Y0425543D01*
X0365126Y0427078D01*
X0364358Y0428613D01*
X0365893Y0430147D02*
X0364358Y0431682D01*
X0365893Y0433217D01*
X0368962Y0433217D01*
X0366660Y0433217D02*
X0366660Y0430147D01*
X0365893Y0430147D02*
X0368962Y0430147D01*
X0410358Y0400604D02*
X0410358Y0398302D01*
X0414962Y0398302D01*
X0414962Y0400604D01*
X0414195Y0401371D01*
X0413428Y0401371D01*
X0412660Y0400604D01*
X0412660Y0398302D01*
X0412660Y0396767D02*
X0414195Y0396767D01*
X0414962Y0396000D01*
X0414962Y0394465D01*
X0414195Y0393698D01*
X0412660Y0393698D02*
X0411893Y0395232D01*
X0411893Y0396000D01*
X0412660Y0396767D01*
X0410358Y0396767D02*
X0410358Y0393698D01*
X0412660Y0393698D01*
X0412660Y0400604D02*
X0411893Y0401371D01*
X0411126Y0401371D01*
X0410358Y0400604D01*
X0426660Y0425543D02*
X0426660Y0427845D01*
X0427428Y0428613D01*
X0428195Y0428613D01*
X0428962Y0427845D01*
X0428962Y0426311D01*
X0428195Y0425543D01*
X0426660Y0425543D01*
X0425126Y0427078D01*
X0424358Y0428613D01*
X0425893Y0430147D02*
X0424358Y0431682D01*
X0425893Y0433217D01*
X0428962Y0433217D01*
X0426660Y0433217D02*
X0426660Y0430147D01*
X0425893Y0430147D02*
X0428962Y0430147D01*
X0454342Y0369870D02*
X0457411Y0369870D01*
X0455109Y0369870D02*
X0455109Y0366801D01*
X0454342Y0366801D02*
X0452807Y0368335D01*
X0454342Y0369870D01*
X0454342Y0366801D02*
X0457411Y0366801D01*
X0456644Y0365266D02*
X0457411Y0364499D01*
X0457411Y0362964D01*
X0456644Y0362197D01*
X0455109Y0362197D02*
X0454342Y0363731D01*
X0454342Y0364499D01*
X0455109Y0365266D01*
X0456644Y0365266D01*
X0455109Y0362197D02*
X0452807Y0362197D01*
X0452807Y0365266D01*
X0413852Y0336037D02*
X0413852Y0333735D01*
X0409248Y0333735D01*
X0409248Y0336037D01*
X0410015Y0336804D01*
X0413085Y0336804D01*
X0413852Y0336037D01*
X0411550Y0332200D02*
X0411550Y0329131D01*
X0409248Y0331433D01*
X0413852Y0331433D01*
X0413478Y0305229D02*
X0414246Y0304462D01*
X0414246Y0302927D01*
X0413478Y0302160D01*
X0410409Y0302160D01*
X0409642Y0302927D01*
X0409642Y0304462D01*
X0410409Y0305229D01*
X0411944Y0300625D02*
X0411944Y0297556D01*
X0409642Y0299858D01*
X0414246Y0299858D01*
X0413872Y0274993D02*
X0414639Y0274226D01*
X0414639Y0271924D01*
X0410035Y0271924D01*
X0410035Y0274226D01*
X0410803Y0274993D01*
X0411570Y0274993D01*
X0412337Y0274226D01*
X0412337Y0271924D01*
X0412337Y0270389D02*
X0412337Y0267320D01*
X0410035Y0269622D01*
X0414639Y0269622D01*
X0412337Y0274226D02*
X0413105Y0274993D01*
X0413872Y0274993D01*
X0398128Y0243098D02*
X0395058Y0243098D01*
X0393524Y0241564D01*
X0395058Y0240029D01*
X0398128Y0240029D01*
X0398128Y0237727D02*
X0393524Y0237727D01*
X0395826Y0235425D01*
X0395826Y0238494D01*
X0395826Y0240029D02*
X0395826Y0243098D01*
X0412378Y0211607D02*
X0411610Y0210840D01*
X0411610Y0209305D01*
X0412378Y0208538D01*
X0415447Y0208538D01*
X0416214Y0209305D01*
X0416214Y0210840D01*
X0415447Y0211607D01*
X0415447Y0207003D02*
X0416214Y0206236D01*
X0416214Y0204701D01*
X0415447Y0203934D01*
X0413912Y0205469D02*
X0413912Y0206236D01*
X0414680Y0207003D01*
X0415447Y0207003D01*
X0413912Y0206236D02*
X0413145Y0207003D01*
X0412378Y0207003D01*
X0411610Y0206236D01*
X0411610Y0204701D01*
X0412378Y0203934D01*
X0387009Y0179029D02*
X0387009Y0176727D01*
X0382406Y0176727D01*
X0382406Y0179029D01*
X0383173Y0179796D01*
X0383940Y0179796D01*
X0384707Y0179029D01*
X0384707Y0176727D01*
X0383940Y0175192D02*
X0384707Y0174425D01*
X0385475Y0175192D01*
X0386242Y0175192D01*
X0387009Y0174425D01*
X0387009Y0172890D01*
X0386242Y0172123D01*
X0384707Y0173657D02*
X0384707Y0174425D01*
X0383940Y0175192D02*
X0383173Y0175192D01*
X0382406Y0174425D01*
X0382406Y0172890D01*
X0383173Y0172123D01*
X0384707Y0179029D02*
X0385475Y0179796D01*
X0386242Y0179796D01*
X0387009Y0179029D01*
X0356214Y0204701D02*
X0355447Y0203934D01*
X0356214Y0204701D02*
X0356214Y0206236D01*
X0355447Y0207003D01*
X0354680Y0207003D01*
X0353912Y0206236D01*
X0353912Y0205469D01*
X0353912Y0206236D02*
X0353145Y0207003D01*
X0352378Y0207003D01*
X0351610Y0206236D01*
X0351610Y0204701D01*
X0352378Y0203934D01*
X0352378Y0208538D02*
X0355447Y0208538D01*
X0356214Y0209305D01*
X0356214Y0210840D01*
X0355447Y0211607D01*
X0352378Y0211607D02*
X0351610Y0210840D01*
X0351610Y0209305D01*
X0352378Y0208538D01*
X0335697Y0198758D02*
X0335697Y0195689D01*
X0334930Y0194921D01*
X0332628Y0194921D01*
X0332628Y0199525D01*
X0334930Y0199525D01*
X0335697Y0198758D01*
X0331093Y0198758D02*
X0331093Y0197991D01*
X0330326Y0197223D01*
X0331093Y0196456D01*
X0331093Y0195689D01*
X0330326Y0194921D01*
X0328791Y0194921D01*
X0328024Y0195689D01*
X0329558Y0197223D02*
X0330326Y0197223D01*
X0331093Y0198758D02*
X0330326Y0199525D01*
X0328791Y0199525D01*
X0328024Y0198758D01*
X0311246Y0205465D02*
X0310478Y0205465D01*
X0307409Y0208534D01*
X0306642Y0208534D01*
X0306642Y0205465D01*
X0306642Y0210068D02*
X0306642Y0212370D01*
X0307409Y0213138D01*
X0308176Y0213138D01*
X0308944Y0212370D01*
X0308944Y0210068D01*
X0311246Y0210068D02*
X0311246Y0212370D01*
X0310478Y0213138D01*
X0309711Y0213138D01*
X0308944Y0212370D01*
X0311246Y0210068D02*
X0306642Y0210068D01*
X0295891Y0236173D02*
X0295124Y0236173D01*
X0292055Y0239243D01*
X0291287Y0239243D01*
X0291287Y0236173D01*
X0292055Y0240777D02*
X0291287Y0241544D01*
X0291287Y0243079D01*
X0292055Y0243846D01*
X0292055Y0240777D02*
X0295124Y0240777D01*
X0295891Y0241544D01*
X0295891Y0243079D01*
X0295124Y0243846D01*
X0251246Y0212370D02*
X0251246Y0210068D01*
X0246642Y0210068D01*
X0246642Y0212370D01*
X0247409Y0213138D01*
X0248176Y0213138D01*
X0248944Y0212370D01*
X0248944Y0210068D01*
X0247409Y0208534D02*
X0250478Y0205465D01*
X0251246Y0205465D01*
X0246642Y0205465D02*
X0246642Y0208534D01*
X0247409Y0208534D01*
X0248944Y0212370D02*
X0249711Y0213138D01*
X0250478Y0213138D01*
X0251246Y0212370D01*
X0235891Y0236173D02*
X0235124Y0236173D01*
X0232055Y0239243D01*
X0231287Y0239243D01*
X0231287Y0236173D01*
X0232055Y0240777D02*
X0235124Y0240777D01*
X0235891Y0241544D01*
X0235891Y0243079D01*
X0235124Y0243846D01*
X0232055Y0243846D02*
X0231287Y0243079D01*
X0231287Y0241544D01*
X0232055Y0240777D01*
X0257677Y0180894D02*
X0256909Y0180126D01*
X0256909Y0177824D01*
X0261513Y0177824D01*
X0261513Y0180126D01*
X0260746Y0180894D01*
X0257677Y0180894D01*
X0257677Y0176290D02*
X0256909Y0175522D01*
X0256909Y0173988D01*
X0257677Y0173220D01*
X0257677Y0176290D02*
X0258444Y0176290D01*
X0261513Y0173220D01*
X0261513Y0176290D01*
X0289169Y0147926D02*
X0289169Y0146392D01*
X0289937Y0145624D01*
X0293006Y0145624D01*
X0293773Y0146392D01*
X0293773Y0147926D01*
X0293006Y0148694D01*
X0289937Y0148694D02*
X0289169Y0147926D01*
X0289937Y0144090D02*
X0289169Y0143322D01*
X0289169Y0141788D01*
X0289937Y0141020D01*
X0289937Y0144090D02*
X0290704Y0144090D01*
X0293773Y0141020D01*
X0293773Y0144090D01*
X0317677Y0173220D02*
X0316909Y0173988D01*
X0316909Y0175522D01*
X0317677Y0176290D01*
X0318444Y0176290D01*
X0321513Y0173220D01*
X0321513Y0176290D01*
X0322406Y0176727D02*
X0322406Y0179029D01*
X0323173Y0179796D01*
X0323940Y0179796D01*
X0324707Y0179029D01*
X0324707Y0176727D01*
X0323940Y0175192D02*
X0324707Y0174425D01*
X0325475Y0175192D01*
X0326242Y0175192D01*
X0327009Y0174425D01*
X0327009Y0172890D01*
X0326242Y0172123D01*
X0324707Y0173657D02*
X0324707Y0174425D01*
X0323940Y0175192D02*
X0323173Y0175192D01*
X0322406Y0174425D01*
X0322406Y0172890D01*
X0323173Y0172123D01*
X0322406Y0176727D02*
X0327009Y0176727D01*
X0327009Y0179029D01*
X0326242Y0179796D01*
X0325475Y0179796D01*
X0324707Y0179029D01*
X0321513Y0180126D02*
X0320746Y0180894D01*
X0317677Y0180894D01*
X0316909Y0180126D01*
X0316909Y0177824D01*
X0321513Y0177824D01*
X0321513Y0180126D01*
X0358161Y0142666D02*
X0359696Y0144201D01*
X0362765Y0144201D01*
X0360463Y0144201D02*
X0360463Y0141131D01*
X0359696Y0141131D02*
X0362765Y0141131D01*
X0361998Y0139597D02*
X0362765Y0138830D01*
X0362765Y0137295D01*
X0361998Y0136528D01*
X0360463Y0138062D02*
X0360463Y0138830D01*
X0361231Y0139597D01*
X0361998Y0139597D01*
X0360463Y0138830D02*
X0359696Y0139597D01*
X0358929Y0139597D01*
X0358161Y0138830D01*
X0358161Y0137295D01*
X0358929Y0136528D01*
X0359696Y0141131D02*
X0358161Y0142666D01*
X0418161Y0142666D02*
X0419696Y0141131D01*
X0422765Y0141131D01*
X0421998Y0139597D02*
X0422765Y0138830D01*
X0422765Y0137295D01*
X0421998Y0136528D01*
X0420463Y0138062D02*
X0420463Y0138830D01*
X0421231Y0139597D01*
X0421998Y0139597D01*
X0420463Y0138830D02*
X0419696Y0139597D01*
X0418929Y0139597D01*
X0418161Y0138830D01*
X0418161Y0137295D01*
X0418929Y0136528D01*
X0420463Y0141131D02*
X0420463Y0144201D01*
X0419696Y0144201D02*
X0422765Y0144201D01*
X0419696Y0144201D02*
X0418161Y0142666D01*
X0455826Y0235425D02*
X0455826Y0238494D01*
X0455826Y0240029D02*
X0455826Y0243098D01*
X0455058Y0243098D02*
X0458128Y0243098D01*
X0458128Y0240029D02*
X0455058Y0240029D01*
X0453524Y0241564D01*
X0455058Y0243098D01*
X0453524Y0237727D02*
X0455826Y0235425D01*
X0458128Y0237727D02*
X0453524Y0237727D01*
X0396644Y0362197D02*
X0397411Y0362964D01*
X0397411Y0364499D01*
X0396644Y0365266D01*
X0395109Y0365266D01*
X0394342Y0364499D01*
X0394342Y0363731D01*
X0395109Y0362197D01*
X0392807Y0362197D01*
X0392807Y0365266D01*
X0394342Y0366801D02*
X0392807Y0368335D01*
X0394342Y0369870D01*
X0397411Y0369870D01*
X0395109Y0369870D02*
X0395109Y0366801D01*
X0394342Y0366801D02*
X0397411Y0366801D01*
X0196009Y0367890D02*
X0196009Y0369425D01*
X0195242Y0370192D01*
X0194475Y0370192D01*
X0193707Y0369425D01*
X0193707Y0367123D01*
X0195242Y0367123D01*
X0196009Y0367890D01*
X0193707Y0367123D02*
X0192173Y0368657D01*
X0191406Y0370192D01*
X0190380Y0369991D02*
X0185776Y0369991D01*
X0187310Y0368457D01*
X0190380Y0368457D02*
X0190380Y0371526D01*
X0191406Y0371727D02*
X0191406Y0374029D01*
X0192173Y0374796D01*
X0195242Y0374796D01*
X0196009Y0374029D01*
X0196009Y0371727D01*
X0191406Y0371727D01*
X0189612Y0373061D02*
X0186543Y0373061D01*
X0185776Y0373828D01*
X0185776Y0375363D01*
X0186543Y0376130D01*
X0189612Y0376130D02*
X0190380Y0375363D01*
X0190380Y0373828D01*
X0189612Y0373061D01*
X0194101Y0399800D02*
X0194101Y0402102D01*
X0194869Y0402869D01*
X0195636Y0402869D01*
X0196403Y0402102D01*
X0196403Y0400567D01*
X0195636Y0399800D01*
X0194101Y0399800D01*
X0192567Y0401335D01*
X0191799Y0402869D01*
X0190380Y0403455D02*
X0190380Y0400386D01*
X0190380Y0401920D02*
X0185776Y0401920D01*
X0187310Y0400386D01*
X0188078Y0404990D02*
X0188078Y0407292D01*
X0188845Y0408059D01*
X0189612Y0408059D01*
X0190380Y0407292D01*
X0190380Y0404990D01*
X0185776Y0404990D01*
X0185776Y0407292D01*
X0186543Y0408059D01*
X0187310Y0408059D01*
X0188078Y0407292D01*
X0191799Y0406706D02*
X0191799Y0405171D01*
X0192567Y0404404D01*
X0195636Y0404404D01*
X0196403Y0405171D01*
X0196403Y0406706D01*
X0195636Y0407473D01*
X0192567Y0407473D02*
X0191799Y0406706D01*
X0185899Y0430627D02*
X0185899Y0433696D01*
X0185899Y0432161D02*
X0181295Y0432161D01*
X0182830Y0430627D01*
X0182830Y0435231D02*
X0181295Y0436765D01*
X0182830Y0438300D01*
X0185899Y0438300D01*
X0183597Y0438300D02*
X0183597Y0435231D01*
X0182830Y0435231D02*
X0185899Y0435231D01*
X0125899Y0435231D02*
X0122830Y0435231D01*
X0121295Y0436765D01*
X0122830Y0438300D01*
X0125899Y0438300D01*
X0123597Y0438300D02*
X0123597Y0435231D01*
X0125899Y0433696D02*
X0125899Y0430627D01*
X0125899Y0432161D02*
X0121295Y0432161D01*
X0122830Y0430627D01*
X0126543Y0408059D02*
X0127310Y0408059D01*
X0128078Y0407292D01*
X0128078Y0404990D01*
X0130380Y0404990D02*
X0130380Y0407292D01*
X0129612Y0408059D01*
X0128845Y0408059D01*
X0128078Y0407292D01*
X0126543Y0408059D02*
X0125776Y0407292D01*
X0125776Y0404990D01*
X0130380Y0404990D01*
X0130380Y0403455D02*
X0130380Y0400386D01*
X0130380Y0401920D02*
X0125776Y0401920D01*
X0127310Y0400386D01*
X0126543Y0376130D02*
X0125776Y0375363D01*
X0125776Y0373828D01*
X0126543Y0373061D01*
X0129612Y0373061D01*
X0130380Y0373828D01*
X0130380Y0375363D01*
X0129612Y0376130D01*
X0130380Y0371526D02*
X0130380Y0368457D01*
X0130380Y0369991D02*
X0125776Y0369991D01*
X0127310Y0368457D01*
X0126574Y0345303D02*
X0125807Y0344536D01*
X0125807Y0342234D01*
X0130411Y0342234D01*
X0130411Y0344536D01*
X0129644Y0345303D01*
X0126574Y0345303D01*
X0130411Y0340699D02*
X0130411Y0337630D01*
X0130411Y0339165D02*
X0125807Y0339165D01*
X0127342Y0337630D01*
X0185807Y0339165D02*
X0190411Y0339165D01*
X0191374Y0338420D02*
X0191374Y0335351D01*
X0193676Y0335351D01*
X0192909Y0336886D01*
X0192909Y0337653D01*
X0193676Y0338420D01*
X0195211Y0338420D01*
X0195978Y0337653D01*
X0195978Y0336119D01*
X0195211Y0335351D01*
X0195978Y0339955D02*
X0191374Y0339955D01*
X0191374Y0342257D01*
X0192141Y0343024D01*
X0195211Y0343024D01*
X0195978Y0342257D01*
X0195978Y0339955D01*
X0190411Y0340699D02*
X0190411Y0337630D01*
X0187342Y0337630D02*
X0185807Y0339165D01*
X0185807Y0342234D02*
X0185807Y0344536D01*
X0186574Y0345303D01*
X0189644Y0345303D01*
X0190411Y0344536D01*
X0190411Y0342234D01*
X0185807Y0342234D01*
X0169395Y0211804D02*
X0166326Y0211804D01*
X0164791Y0210269D01*
X0166326Y0208735D01*
X0169395Y0208735D01*
X0167093Y0208735D02*
X0167093Y0211804D01*
X0165559Y0207200D02*
X0168628Y0204131D01*
X0169395Y0204131D01*
X0164791Y0204131D02*
X0164791Y0207200D01*
X0165559Y0207200D01*
X0184425Y0180583D02*
X0185192Y0180583D01*
X0185959Y0179816D01*
X0185959Y0177514D01*
X0185192Y0175980D02*
X0184425Y0175980D01*
X0183657Y0175212D01*
X0183657Y0173678D01*
X0184425Y0172910D01*
X0185192Y0175980D02*
X0188261Y0172910D01*
X0188261Y0175980D01*
X0188261Y0177514D02*
X0188261Y0179816D01*
X0187494Y0180583D01*
X0186727Y0180583D01*
X0185959Y0179816D01*
X0184425Y0180583D02*
X0183657Y0179816D01*
X0183657Y0177514D01*
X0188261Y0177514D01*
X0166631Y0144988D02*
X0163562Y0144988D01*
X0162028Y0143454D01*
X0163562Y0141919D01*
X0166631Y0141919D01*
X0166631Y0140384D02*
X0166631Y0137315D01*
X0163562Y0140384D01*
X0162795Y0140384D01*
X0162028Y0139617D01*
X0162028Y0138082D01*
X0162795Y0137315D01*
X0164330Y0141919D02*
X0164330Y0144988D01*
X0128261Y0172910D02*
X0128261Y0175980D01*
X0128261Y0177514D02*
X0128261Y0179816D01*
X0127494Y0180583D01*
X0126727Y0180583D01*
X0125959Y0179816D01*
X0125959Y0177514D01*
X0125192Y0175980D02*
X0128261Y0172910D01*
X0124425Y0172910D02*
X0123657Y0173678D01*
X0123657Y0175212D01*
X0124425Y0175980D01*
X0125192Y0175980D01*
X0123657Y0177514D02*
X0123657Y0179816D01*
X0124425Y0180583D01*
X0125192Y0180583D01*
X0125959Y0179816D01*
X0128261Y0177514D02*
X0123657Y0177514D01*
X0109395Y0204131D02*
X0108628Y0204131D01*
X0105559Y0207200D01*
X0104791Y0207200D01*
X0104791Y0204131D01*
X0106326Y0208735D02*
X0104791Y0210269D01*
X0106326Y0211804D01*
X0109395Y0211804D01*
X0107093Y0211804D02*
X0107093Y0208735D01*
X0106326Y0208735D02*
X0109395Y0208735D01*
X0222028Y0143454D02*
X0223562Y0144988D01*
X0226631Y0144988D01*
X0224330Y0144988D02*
X0224330Y0141919D01*
X0223562Y0141919D02*
X0222028Y0143454D01*
X0223562Y0141919D02*
X0226631Y0141919D01*
X0226631Y0140384D02*
X0226631Y0137315D01*
X0223562Y0140384D01*
X0222795Y0140384D01*
X0222028Y0139617D01*
X0222028Y0138082D01*
X0222795Y0137315D01*
X0229169Y0141788D02*
X0229937Y0141020D01*
X0229169Y0141788D02*
X0229169Y0143322D01*
X0229937Y0144090D01*
X0230704Y0144090D01*
X0233773Y0141020D01*
X0233773Y0144090D01*
X0233006Y0145624D02*
X0233773Y0146392D01*
X0233773Y0147926D01*
X0233006Y0148694D01*
X0229937Y0148694D02*
X0229169Y0147926D01*
X0229169Y0146392D01*
X0229937Y0145624D01*
X0233006Y0145624D01*
D18*
X0189327Y0266159D02*
X0189327Y0274033D01*
D19*
X0187135Y0275030D02*
X0186807Y0274702D01*
X0186150Y0274702D01*
X0185822Y0275030D01*
X0185822Y0276344D01*
X0186150Y0276672D01*
X0186807Y0276672D01*
X0187135Y0276344D01*
D20*
X0100540Y0310776D02*
X0100542Y0310815D01*
X0100548Y0310854D01*
X0100558Y0310892D01*
X0100571Y0310929D01*
X0100588Y0310964D01*
X0100608Y0310998D01*
X0100632Y0311029D01*
X0100659Y0311058D01*
X0100688Y0311084D01*
X0100720Y0311107D01*
X0100754Y0311127D01*
X0100790Y0311143D01*
X0100827Y0311155D01*
X0100866Y0311164D01*
X0100905Y0311169D01*
X0100944Y0311170D01*
X0100983Y0311167D01*
X0101022Y0311160D01*
X0101059Y0311149D01*
X0101096Y0311135D01*
X0101131Y0311117D01*
X0101164Y0311096D01*
X0101195Y0311071D01*
X0101223Y0311044D01*
X0101248Y0311014D01*
X0101270Y0310981D01*
X0101289Y0310947D01*
X0101304Y0310911D01*
X0101316Y0310873D01*
X0101324Y0310835D01*
X0101328Y0310796D01*
X0101328Y0310756D01*
X0101324Y0310717D01*
X0101316Y0310679D01*
X0101304Y0310641D01*
X0101289Y0310605D01*
X0101270Y0310571D01*
X0101248Y0310538D01*
X0101223Y0310508D01*
X0101195Y0310481D01*
X0101164Y0310456D01*
X0101131Y0310435D01*
X0101096Y0310417D01*
X0101059Y0310403D01*
X0101022Y0310392D01*
X0100983Y0310385D01*
X0100944Y0310382D01*
X0100905Y0310383D01*
X0100866Y0310388D01*
X0100827Y0310397D01*
X0100790Y0310409D01*
X0100754Y0310425D01*
X0100720Y0310445D01*
X0100688Y0310468D01*
X0100659Y0310494D01*
X0100632Y0310523D01*
X0100608Y0310554D01*
X0100588Y0310588D01*
X0100571Y0310623D01*
X0100558Y0310660D01*
X0100548Y0310698D01*
X0100542Y0310737D01*
X0100540Y0310776D01*
M02*
