G75*
%MOIN*%
%OFA0B0*%
%FSLAX25Y25*%
%IPPOS*%
%LPD*%
%AMOC8*
5,1,8,0,0,1.08239X$1,22.5*
%
%ADD10C,0.05150*%
%ADD11R,0.03937X0.05709*%
%ADD12C,0.09000*%
%ADD13R,0.29528X0.09252*%
%ADD14R,0.05150X0.05150*%
%ADD15R,0.09252X0.29528*%
%ADD16R,0.08661X0.02362*%
%ADD17R,0.10236X0.07087*%
%ADD18OC8,0.16835*%
%ADD19C,0.02978*%
%ADD20C,0.00600*%
%ADD21C,0.01181*%
%ADD22C,0.01600*%
%ADD23C,0.04592*%
%ADD24C,0.00984*%
%ADD25C,0.01969*%
D10*
X0251951Y0272244D03*
X0260982Y0281271D03*
X0251951Y0290299D03*
X0242919Y0281271D03*
D11*
X0186099Y0270096D03*
X0179642Y0270096D03*
D12*
X0169635Y0261564D03*
X0169635Y0281839D03*
X0169635Y0302115D03*
X0143454Y0302115D03*
X0143454Y0281839D03*
X0143454Y0261564D03*
X0195959Y0261615D03*
X0195816Y0281839D03*
X0195028Y0302115D03*
X0208020Y0318257D03*
X0220225Y0302115D03*
X0233291Y0318257D03*
X0263926Y0318257D03*
X0220225Y0281643D03*
X0220225Y0261957D03*
X0305265Y0396997D03*
D13*
X0279359Y0434241D03*
X0229989Y0405028D03*
X0229595Y0372351D03*
X0229564Y0340580D03*
X0152225Y0341209D03*
X0152194Y0372036D03*
X0152194Y0403965D03*
X0159485Y0435855D03*
X0257706Y0239753D03*
X0273060Y0209044D03*
X0283328Y0176800D03*
X0267359Y0146249D03*
X0188446Y0140894D03*
X0161847Y0178139D03*
X0142981Y0209359D03*
X0360595Y0177351D03*
X0389800Y0209162D03*
X0419942Y0239005D03*
X0388225Y0272548D03*
X0387831Y0302784D03*
X0387438Y0334359D03*
X0419225Y0365776D03*
X0388548Y0398926D03*
X0390776Y0429123D03*
X0384580Y0140107D03*
D14*
X0421233Y0130265D03*
X0353146Y0219005D03*
X0321761Y0196454D03*
X0323942Y0187194D03*
X0309713Y0199202D03*
X0319981Y0166957D03*
X0294359Y0229910D03*
X0351572Y0282391D03*
X0351178Y0312627D03*
X0350784Y0344202D03*
X0311721Y0340422D03*
X0341682Y0408564D03*
X0351894Y0408769D03*
X0316013Y0424398D03*
X0427430Y0419280D03*
X0455879Y0355934D03*
X0456595Y0229162D03*
X0230706Y0156091D03*
X0225099Y0131052D03*
X0125194Y0187981D03*
X0106328Y0219202D03*
X0188879Y0331367D03*
X0192910Y0350422D03*
X0188847Y0362194D03*
X0192942Y0382194D03*
X0188847Y0394123D03*
X0193335Y0414871D03*
X0122831Y0445698D03*
D15*
X0301879Y0303769D03*
X0331839Y0371910D03*
X0331603Y0233107D03*
D16*
X0100146Y0246209D03*
X0100146Y0250146D03*
X0100146Y0254083D03*
X0100146Y0258020D03*
X0100146Y0261957D03*
X0100146Y0265894D03*
X0100146Y0269831D03*
X0100146Y0273769D03*
X0100146Y0277706D03*
X0100146Y0281643D03*
X0100146Y0285580D03*
X0100146Y0289517D03*
X0100146Y0293454D03*
X0100146Y0297391D03*
X0100146Y0301328D03*
X0100146Y0305265D03*
D17*
X0090698Y0315501D03*
X0090698Y0235973D03*
D18*
X0091288Y0173375D03*
X0091288Y0441091D03*
X0451524Y0441091D03*
X0451524Y0173375D03*
D19*
X0281249Y0303296D03*
X0194635Y0196997D03*
X0121800Y0248178D03*
X0121800Y0254083D03*
X0115894Y0254083D03*
X0109989Y0254083D03*
X0109989Y0248178D03*
X0115894Y0248178D03*
X0115894Y0259989D03*
X0109989Y0259989D03*
X0121800Y0259989D03*
X0107627Y0319044D03*
D20*
X0105777Y0261667D02*
X0100437Y0261667D01*
X0100437Y0261842D01*
X0123068Y0261842D01*
X0124162Y0260748D01*
X0124162Y0246209D01*
X0122587Y0244635D01*
X0105777Y0244886D01*
X0105777Y0245919D01*
X0100437Y0245919D01*
X0100437Y0246500D01*
X0099856Y0246500D01*
X0099856Y0248691D01*
X0099856Y0249856D01*
X0100437Y0249856D01*
X0100437Y0250437D01*
X0105777Y0250437D01*
X0105777Y0251499D01*
X0105689Y0251829D01*
X0105524Y0252115D01*
X0105689Y0252401D01*
X0105777Y0252731D01*
X0105777Y0253793D01*
X0100437Y0253793D01*
X0100437Y0254374D01*
X0105777Y0254374D01*
X0105777Y0255436D01*
X0105689Y0255766D01*
X0105524Y0256052D01*
X0105689Y0256338D01*
X0105777Y0256668D01*
X0105777Y0257730D01*
X0100437Y0257730D01*
X0100437Y0258311D01*
X0105777Y0258311D01*
X0105777Y0259373D01*
X0105689Y0259703D01*
X0105524Y0259989D01*
X0105689Y0260275D01*
X0105777Y0260605D01*
X0105777Y0261667D01*
X0105777Y0261474D02*
X0123436Y0261474D01*
X0124035Y0260875D02*
X0105777Y0260875D01*
X0105689Y0260277D02*
X0124162Y0260277D01*
X0124162Y0259678D02*
X0105695Y0259678D01*
X0105777Y0259080D02*
X0124162Y0259080D01*
X0124162Y0258481D02*
X0105777Y0258481D01*
X0105777Y0257284D02*
X0124162Y0257284D01*
X0124162Y0256686D02*
X0105777Y0256686D01*
X0105544Y0256087D02*
X0124162Y0256087D01*
X0124162Y0255489D02*
X0105763Y0255489D01*
X0105777Y0254890D02*
X0124162Y0254890D01*
X0124162Y0254292D02*
X0100437Y0254292D01*
X0100437Y0254374D02*
X0099856Y0254374D01*
X0099856Y0256565D01*
X0099856Y0257730D01*
X0100437Y0257730D01*
X0100437Y0254374D01*
X0100437Y0254890D02*
X0099856Y0254890D01*
X0099856Y0255489D02*
X0100437Y0255489D01*
X0100437Y0256087D02*
X0099856Y0256087D01*
X0099856Y0256686D02*
X0100437Y0256686D01*
X0100437Y0257284D02*
X0099856Y0257284D01*
X0100437Y0257883D02*
X0124162Y0257883D01*
X0124162Y0253693D02*
X0105777Y0253693D01*
X0105777Y0253095D02*
X0124162Y0253095D01*
X0124162Y0252496D02*
X0105714Y0252496D01*
X0105649Y0251898D02*
X0124162Y0251898D01*
X0124162Y0251299D02*
X0105777Y0251299D01*
X0105777Y0250701D02*
X0124162Y0250701D01*
X0124162Y0250102D02*
X0100437Y0250102D01*
X0100437Y0249856D02*
X0105777Y0249856D01*
X0105777Y0248794D01*
X0105689Y0248464D01*
X0105524Y0248178D01*
X0105689Y0247892D01*
X0105777Y0247562D01*
X0105777Y0246500D01*
X0100437Y0246500D01*
X0100437Y0249856D01*
X0100437Y0249504D02*
X0099856Y0249504D01*
X0099856Y0248905D02*
X0100437Y0248905D01*
X0100437Y0248307D02*
X0099856Y0248307D01*
X0099856Y0247708D02*
X0100437Y0247708D01*
X0100437Y0247110D02*
X0099856Y0247110D01*
X0099856Y0246511D02*
X0100437Y0246511D01*
X0100437Y0250437D02*
X0099856Y0250437D01*
X0099856Y0252628D01*
X0099856Y0253793D01*
X0100437Y0253793D01*
X0100437Y0250437D01*
X0100437Y0250701D02*
X0099856Y0250701D01*
X0099856Y0251299D02*
X0100437Y0251299D01*
X0100437Y0251898D02*
X0099856Y0251898D01*
X0099856Y0252496D02*
X0100437Y0252496D01*
X0100437Y0253095D02*
X0099856Y0253095D01*
X0099856Y0253693D02*
X0100437Y0253693D01*
X0100437Y0258311D02*
X0099856Y0258311D01*
X0099856Y0260502D01*
X0099856Y0261667D01*
X0100437Y0261667D01*
X0100437Y0258311D01*
X0100437Y0258481D02*
X0099856Y0258481D01*
X0099856Y0259080D02*
X0100437Y0259080D01*
X0100437Y0259678D02*
X0099856Y0259678D01*
X0099856Y0260277D02*
X0100437Y0260277D01*
X0100437Y0260875D02*
X0099856Y0260875D01*
X0099856Y0261474D02*
X0100437Y0261474D01*
X0105777Y0249504D02*
X0124162Y0249504D01*
X0124162Y0248905D02*
X0105777Y0248905D01*
X0105598Y0248307D02*
X0124162Y0248307D01*
X0124162Y0247708D02*
X0105738Y0247708D01*
X0105777Y0247110D02*
X0124162Y0247110D01*
X0124162Y0246511D02*
X0105777Y0246511D01*
X0105777Y0245913D02*
X0123865Y0245913D01*
X0123267Y0245314D02*
X0105777Y0245314D01*
X0117167Y0244716D02*
X0122668Y0244716D01*
D21*
X0132600Y0254701D02*
X0150540Y0254701D01*
X0150540Y0254083D02*
X0148572Y0252115D01*
X0135186Y0252115D01*
X0123769Y0263532D01*
X0105868Y0263532D01*
X0105868Y0263715D01*
X0105785Y0263797D01*
X0105959Y0264099D01*
X0106068Y0264504D01*
X0106068Y0265894D01*
X0100147Y0265894D01*
X0100147Y0265895D01*
X0106068Y0265895D01*
X0106068Y0267285D01*
X0105959Y0267690D01*
X0105859Y0267863D01*
X0105959Y0268036D01*
X0106068Y0268441D01*
X0106068Y0269831D01*
X0100147Y0269831D01*
X0100147Y0269832D01*
X0106068Y0269832D01*
X0106068Y0271222D01*
X0105959Y0271627D01*
X0105859Y0271800D01*
X0105959Y0271973D01*
X0106068Y0272378D01*
X0106068Y0273768D01*
X0100147Y0273768D01*
X0100147Y0273769D01*
X0106068Y0273769D01*
X0106068Y0274556D01*
X0136803Y0274556D01*
X0138212Y0273147D01*
X0139372Y0271987D01*
X0142480Y0271987D01*
X0150540Y0263926D01*
X0150540Y0254083D01*
X0149978Y0253522D02*
X0133779Y0253522D01*
X0134959Y0252342D02*
X0148799Y0252342D01*
X0150540Y0255881D02*
X0145672Y0255881D01*
X0145791Y0255919D02*
X0146646Y0256355D01*
X0147421Y0256918D01*
X0148099Y0257596D01*
X0148663Y0258372D01*
X0149098Y0259226D01*
X0149394Y0260138D01*
X0149526Y0260973D01*
X0144044Y0260973D01*
X0144044Y0255491D01*
X0144880Y0255623D01*
X0145791Y0255919D01*
X0144044Y0255881D02*
X0142863Y0255881D01*
X0142863Y0255491D02*
X0142863Y0260973D01*
X0144044Y0260973D01*
X0144044Y0262154D01*
X0149526Y0262154D01*
X0149394Y0262990D01*
X0149098Y0263902D01*
X0148663Y0264756D01*
X0148099Y0265531D01*
X0147421Y0266209D01*
X0146646Y0266773D01*
X0145791Y0267208D01*
X0144880Y0267504D01*
X0144044Y0267637D01*
X0144044Y0262154D01*
X0142863Y0262154D01*
X0142863Y0260973D01*
X0137381Y0260973D01*
X0137513Y0260138D01*
X0137809Y0259226D01*
X0138244Y0258372D01*
X0138808Y0257596D01*
X0139486Y0256918D01*
X0140261Y0256355D01*
X0141116Y0255919D01*
X0142027Y0255623D01*
X0142863Y0255491D01*
X0142863Y0257060D02*
X0144044Y0257060D01*
X0144044Y0258240D02*
X0142863Y0258240D01*
X0142863Y0259420D02*
X0144044Y0259420D01*
X0144044Y0260599D02*
X0142863Y0260599D01*
X0142863Y0261779D02*
X0125522Y0261779D01*
X0124342Y0262958D02*
X0137508Y0262958D01*
X0137513Y0262990D02*
X0137381Y0262154D01*
X0142863Y0262154D01*
X0142863Y0267637D01*
X0142027Y0267504D01*
X0141116Y0267208D01*
X0140261Y0266773D01*
X0139486Y0266209D01*
X0138808Y0265531D01*
X0138244Y0264756D01*
X0137809Y0263902D01*
X0137513Y0262990D01*
X0137930Y0264138D02*
X0105970Y0264138D01*
X0106068Y0265318D02*
X0138653Y0265318D01*
X0139882Y0266497D02*
X0106068Y0266497D01*
X0105963Y0267677D02*
X0146789Y0267677D01*
X0147025Y0266497D02*
X0147969Y0266497D01*
X0148255Y0265318D02*
X0149148Y0265318D01*
X0148977Y0264138D02*
X0150328Y0264138D01*
X0150540Y0262958D02*
X0149399Y0262958D01*
X0150540Y0261779D02*
X0144044Y0261779D01*
X0144044Y0262958D02*
X0142863Y0262958D01*
X0142863Y0264138D02*
X0144044Y0264138D01*
X0144044Y0265318D02*
X0142863Y0265318D01*
X0142863Y0266497D02*
X0144044Y0266497D01*
X0145610Y0268857D02*
X0106068Y0268857D01*
X0106068Y0270036D02*
X0144430Y0270036D01*
X0143250Y0271216D02*
X0106068Y0271216D01*
X0106068Y0272395D02*
X0138964Y0272395D01*
X0137784Y0273575D02*
X0106068Y0273575D01*
X0100147Y0273575D02*
X0100146Y0273575D01*
X0100147Y0273768D02*
X0100147Y0269832D01*
X0100146Y0269832D01*
X0100146Y0272603D01*
X0100146Y0273768D01*
X0100147Y0273768D01*
X0100146Y0272395D02*
X0100147Y0272395D01*
X0100146Y0271216D02*
X0100147Y0271216D01*
X0100146Y0270036D02*
X0100147Y0270036D01*
X0100147Y0269831D02*
X0100147Y0265895D01*
X0100146Y0265895D01*
X0100146Y0268666D01*
X0100146Y0269831D01*
X0100147Y0269831D01*
X0100146Y0268857D02*
X0100147Y0268857D01*
X0100146Y0267677D02*
X0100147Y0267677D01*
X0100146Y0266497D02*
X0100147Y0266497D01*
X0100146Y0277706D02*
X0136455Y0277706D01*
X0140193Y0273968D01*
X0170094Y0273968D01*
X0172075Y0275949D01*
X0189925Y0275949D01*
X0195816Y0281839D01*
X0191485Y0270225D02*
X0186228Y0270225D01*
X0186099Y0270096D01*
X0191485Y0270225D02*
X0195959Y0265751D01*
X0195959Y0261615D01*
X0179642Y0270096D02*
X0172851Y0270096D01*
X0169831Y0267076D01*
X0169831Y0261564D01*
X0169635Y0261564D01*
X0163744Y0275949D02*
X0169635Y0281839D01*
X0163744Y0275949D02*
X0141014Y0275949D01*
X0135320Y0281643D01*
X0100146Y0281643D01*
X0100146Y0285580D02*
X0139713Y0285580D01*
X0143454Y0281839D01*
X0160973Y0293454D02*
X0169635Y0302115D01*
X0160973Y0293454D02*
X0100146Y0293454D01*
X0100146Y0297391D02*
X0127312Y0297391D01*
X0132036Y0302115D01*
X0143454Y0302115D01*
X0182430Y0289517D02*
X0195028Y0302115D01*
X0182430Y0289517D02*
X0100146Y0289517D01*
X0100146Y0301328D02*
X0100146Y0305265D01*
X0106839Y0305265D01*
X0106839Y0301328D02*
X0100146Y0301328D01*
X0104083Y0315501D02*
X0090698Y0315501D01*
X0104083Y0315501D02*
X0107627Y0319044D01*
X0153296Y0362351D02*
X0163139Y0362351D01*
X0180855Y0344635D01*
X0180855Y0339391D01*
X0188879Y0331367D01*
X0192910Y0350422D02*
X0211472Y0368984D01*
X0211472Y0377553D01*
X0214256Y0380336D01*
X0222824Y0380336D01*
X0226493Y0384005D01*
X0265501Y0384005D01*
X0277595Y0371910D01*
X0331839Y0371910D01*
X0350784Y0344202D02*
X0417509Y0344202D01*
X0422981Y0338729D01*
X0422981Y0307233D01*
X0419044Y0303296D01*
X0387548Y0303296D01*
X0387548Y0303068D01*
X0387831Y0302784D01*
X0387548Y0279674D02*
X0354595Y0312627D01*
X0351178Y0312627D01*
X0351572Y0282391D02*
X0355304Y0282391D01*
X0399359Y0238335D01*
X0419272Y0238335D01*
X0419942Y0239005D01*
X0421013Y0218650D02*
X0353501Y0218650D01*
X0353146Y0219005D01*
X0334469Y0209162D02*
X0321761Y0196454D01*
X0323942Y0187194D02*
X0340304Y0170831D01*
X0340304Y0153690D01*
X0353887Y0140107D01*
X0384580Y0140107D01*
X0401367Y0177351D02*
X0360595Y0177351D01*
X0334469Y0209162D02*
X0389800Y0209162D01*
X0421013Y0218650D02*
X0426918Y0212745D01*
X0426918Y0202902D01*
X0401367Y0177351D01*
X0319981Y0166957D02*
X0299272Y0146249D01*
X0267359Y0146249D01*
X0230706Y0156091D02*
X0208658Y0178139D01*
X0161847Y0178139D01*
X0142981Y0209359D02*
X0182272Y0209359D01*
X0194635Y0196997D01*
X0150540Y0257060D02*
X0147563Y0257060D01*
X0148567Y0258240D02*
X0150540Y0258240D01*
X0150540Y0259420D02*
X0149161Y0259420D01*
X0149467Y0260599D02*
X0150540Y0260599D01*
X0141235Y0255881D02*
X0131420Y0255881D01*
X0130240Y0257060D02*
X0139344Y0257060D01*
X0138340Y0258240D02*
X0129061Y0258240D01*
X0127881Y0259420D02*
X0137746Y0259420D01*
X0137440Y0260599D02*
X0126702Y0260599D01*
X0100146Y0246209D02*
X0093847Y0246209D01*
X0090698Y0243060D01*
X0090698Y0235973D01*
X0125194Y0187981D02*
X0125737Y0187438D01*
X0125737Y0157627D01*
X0142469Y0140894D01*
X0188446Y0140894D01*
X0273060Y0209044D02*
X0273060Y0218335D01*
X0284635Y0229910D01*
X0294359Y0229910D01*
X0277312Y0240304D02*
X0285186Y0248178D01*
X0285186Y0267863D01*
X0283217Y0269831D01*
X0283217Y0301328D01*
X0281249Y0303296D01*
X0251951Y0290299D02*
X0232041Y0290299D01*
X0220225Y0302115D01*
X0220225Y0281643D02*
X0220597Y0281271D01*
X0242919Y0281271D01*
X0251951Y0272244D02*
X0230511Y0272244D01*
X0220225Y0261957D01*
X0257706Y0239753D02*
X0258257Y0240304D01*
X0277312Y0240304D01*
X0387548Y0273225D02*
X0387548Y0279674D01*
X0387548Y0273225D02*
X0388225Y0272548D01*
X0394887Y0365776D02*
X0351894Y0408769D01*
X0348619Y0415501D02*
X0383611Y0415501D01*
X0388548Y0410564D01*
X0388548Y0398926D01*
X0388548Y0400721D01*
X0390776Y0429123D02*
X0320737Y0429123D01*
X0316013Y0424398D01*
X0341682Y0408564D02*
X0348619Y0415501D01*
X0394887Y0365776D02*
X0419225Y0365776D01*
X0279359Y0434241D02*
X0212706Y0434241D01*
X0193335Y0414871D01*
X0188847Y0394123D02*
X0159485Y0423485D01*
X0159485Y0435855D01*
X0152194Y0403965D02*
X0153296Y0402863D01*
X0153296Y0397745D01*
X0188847Y0362194D01*
X0186918Y0362194D01*
X0192942Y0382194D02*
X0216446Y0382194D01*
X0230068Y0395816D01*
X0229989Y0395894D01*
X0229989Y0405028D01*
X0163139Y0368257D02*
X0159359Y0372036D01*
X0152194Y0372036D01*
X0153296Y0370934D01*
X0153296Y0362351D01*
D22*
X0151020Y0361600D02*
X0082124Y0361600D01*
X0082124Y0360002D02*
X0152721Y0360002D01*
X0152821Y0359961D02*
X0162148Y0359961D01*
X0178465Y0343644D01*
X0178465Y0338915D01*
X0178829Y0338036D01*
X0179501Y0337364D01*
X0184504Y0332361D01*
X0184504Y0328047D01*
X0185558Y0326992D01*
X0192199Y0326992D01*
X0193254Y0328047D01*
X0193254Y0334687D01*
X0192199Y0335742D01*
X0187885Y0335742D01*
X0183246Y0340381D01*
X0183246Y0345110D01*
X0182882Y0345989D01*
X0164493Y0364378D01*
X0163614Y0364742D01*
X0155687Y0364742D01*
X0155687Y0365610D01*
X0167703Y0365610D01*
X0168757Y0366665D01*
X0168757Y0377408D01*
X0167703Y0378462D01*
X0136684Y0378462D01*
X0135630Y0377408D01*
X0135630Y0366665D01*
X0136684Y0365610D01*
X0150906Y0365610D01*
X0150906Y0361876D01*
X0151269Y0360997D01*
X0151942Y0360325D01*
X0152821Y0359961D01*
X0150906Y0363199D02*
X0082124Y0363199D01*
X0082124Y0364797D02*
X0150906Y0364797D01*
X0155687Y0364797D02*
X0182863Y0364797D01*
X0184461Y0363199D02*
X0165672Y0363199D01*
X0167270Y0361600D02*
X0184472Y0361600D01*
X0184472Y0363188D02*
X0184472Y0358873D01*
X0185527Y0357819D01*
X0192168Y0357819D01*
X0193222Y0358873D01*
X0193222Y0365514D01*
X0192168Y0366568D01*
X0187853Y0366568D01*
X0156882Y0397539D01*
X0167703Y0397539D01*
X0168757Y0398594D01*
X0168757Y0409337D01*
X0167703Y0410391D01*
X0136684Y0410391D01*
X0135630Y0409337D01*
X0135630Y0398594D01*
X0136684Y0397539D01*
X0150906Y0397539D01*
X0150906Y0397269D01*
X0151269Y0396391D01*
X0151942Y0395718D01*
X0184472Y0363188D01*
X0184472Y0360002D02*
X0168869Y0360002D01*
X0170467Y0358403D02*
X0184942Y0358403D01*
X0189590Y0354797D02*
X0188535Y0353742D01*
X0188535Y0347102D01*
X0189590Y0346047D01*
X0196231Y0346047D01*
X0197285Y0347102D01*
X0197285Y0351416D01*
X0213100Y0367231D01*
X0213154Y0367030D01*
X0213391Y0366620D01*
X0213726Y0366285D01*
X0214137Y0366048D01*
X0214595Y0365925D01*
X0228795Y0365925D01*
X0228795Y0371551D01*
X0230395Y0371551D01*
X0230395Y0365925D01*
X0244596Y0365925D01*
X0245054Y0366048D01*
X0245464Y0366285D01*
X0245799Y0366620D01*
X0246036Y0367030D01*
X0246159Y0367488D01*
X0246159Y0371551D01*
X0230395Y0371551D01*
X0230395Y0373151D01*
X0228795Y0373151D01*
X0228795Y0378777D01*
X0224646Y0378777D01*
X0224851Y0378982D01*
X0227483Y0381614D01*
X0264511Y0381614D01*
X0276241Y0369884D01*
X0277120Y0369520D01*
X0325413Y0369520D01*
X0325413Y0356401D01*
X0326468Y0355346D01*
X0337211Y0355346D01*
X0338265Y0356401D01*
X0338265Y0387420D01*
X0337211Y0388474D01*
X0326468Y0388474D01*
X0325413Y0387420D01*
X0325413Y0374301D01*
X0278585Y0374301D01*
X0267527Y0385359D01*
X0266855Y0386031D01*
X0265976Y0386395D01*
X0226017Y0386395D01*
X0225139Y0386031D01*
X0221834Y0382727D01*
X0220359Y0382727D01*
X0232094Y0394462D01*
X0232458Y0395340D01*
X0232458Y0396291D01*
X0232380Y0396481D01*
X0232380Y0398602D01*
X0245498Y0398602D01*
X0246553Y0399657D01*
X0246553Y0410400D01*
X0245498Y0411454D01*
X0214480Y0411454D01*
X0213425Y0410400D01*
X0213425Y0399657D01*
X0214480Y0398602D01*
X0227598Y0398602D01*
X0227598Y0396727D01*
X0215455Y0384584D01*
X0197317Y0384584D01*
X0197317Y0385514D01*
X0196262Y0386568D01*
X0189621Y0386568D01*
X0188567Y0385514D01*
X0188567Y0378873D01*
X0189621Y0377819D01*
X0196262Y0377819D01*
X0197317Y0378873D01*
X0197317Y0379803D01*
X0210342Y0379803D01*
X0210118Y0379580D01*
X0209446Y0378907D01*
X0209082Y0378029D01*
X0209082Y0369974D01*
X0193904Y0354797D01*
X0189590Y0354797D01*
X0188535Y0353608D02*
X0175263Y0353608D01*
X0176861Y0352009D02*
X0188535Y0352009D01*
X0188535Y0350411D02*
X0178460Y0350411D01*
X0180058Y0348812D02*
X0188535Y0348812D01*
X0188535Y0347214D02*
X0181657Y0347214D01*
X0183036Y0345615D02*
X0213046Y0345615D01*
X0213000Y0345442D02*
X0213000Y0341379D01*
X0228764Y0341379D01*
X0228764Y0339780D01*
X0213000Y0339780D01*
X0213000Y0335717D01*
X0213123Y0335259D01*
X0213360Y0334848D01*
X0213695Y0334513D01*
X0214105Y0334276D01*
X0214563Y0334154D01*
X0228764Y0334154D01*
X0228764Y0339779D01*
X0230364Y0339779D01*
X0230364Y0334154D01*
X0244565Y0334154D01*
X0245022Y0334276D01*
X0245433Y0334513D01*
X0245768Y0334848D01*
X0246005Y0335259D01*
X0246128Y0335717D01*
X0246128Y0339780D01*
X0230364Y0339780D01*
X0230364Y0341379D01*
X0246128Y0341379D01*
X0246128Y0345442D01*
X0246005Y0345900D01*
X0245768Y0346311D01*
X0245433Y0346646D01*
X0245022Y0346883D01*
X0244565Y0347005D01*
X0230364Y0347005D01*
X0230364Y0341380D01*
X0228764Y0341380D01*
X0228764Y0347005D01*
X0214563Y0347005D01*
X0214105Y0346883D01*
X0213695Y0346646D01*
X0213360Y0346311D01*
X0213123Y0345900D01*
X0213000Y0345442D01*
X0213000Y0344017D02*
X0183246Y0344017D01*
X0183246Y0342418D02*
X0213000Y0342418D01*
X0213000Y0339221D02*
X0184405Y0339221D01*
X0183246Y0340820D02*
X0228764Y0340820D01*
X0228764Y0342418D02*
X0230364Y0342418D01*
X0230364Y0340820D02*
X0307346Y0340820D01*
X0307346Y0342418D02*
X0246128Y0342418D01*
X0246128Y0344017D02*
X0307621Y0344017D01*
X0307346Y0343742D02*
X0307346Y0337102D01*
X0308401Y0336047D01*
X0315042Y0336047D01*
X0316096Y0337102D01*
X0316096Y0343742D01*
X0315042Y0344797D01*
X0308401Y0344797D01*
X0307346Y0343742D01*
X0307346Y0339221D02*
X0246128Y0339221D01*
X0246128Y0337623D02*
X0307346Y0337623D01*
X0316096Y0337623D02*
X0370874Y0337623D01*
X0370874Y0339221D02*
X0316096Y0339221D01*
X0316096Y0340820D02*
X0346471Y0340820D01*
X0346409Y0340881D02*
X0347464Y0339827D01*
X0354105Y0339827D01*
X0355159Y0340881D01*
X0355159Y0341811D01*
X0416518Y0341811D01*
X0420591Y0337739D01*
X0420591Y0308223D01*
X0418054Y0305687D01*
X0404395Y0305687D01*
X0404395Y0308156D01*
X0403341Y0309210D01*
X0372322Y0309210D01*
X0371268Y0308156D01*
X0371268Y0299335D01*
X0356622Y0313981D01*
X0355949Y0314653D01*
X0355553Y0314818D01*
X0355553Y0315947D01*
X0354498Y0317002D01*
X0347858Y0317002D01*
X0346803Y0315947D01*
X0346803Y0309306D01*
X0347858Y0308252D01*
X0354498Y0308252D01*
X0355044Y0308797D01*
X0384867Y0278974D01*
X0372716Y0278974D01*
X0371661Y0277920D01*
X0371661Y0269414D01*
X0357331Y0283745D01*
X0356658Y0284417D01*
X0355946Y0284712D01*
X0355946Y0285711D01*
X0354892Y0286765D01*
X0348251Y0286765D01*
X0347197Y0285711D01*
X0347197Y0279070D01*
X0348251Y0278016D01*
X0354892Y0278016D01*
X0355595Y0278719D01*
X0398005Y0236309D01*
X0398884Y0235945D01*
X0403378Y0235945D01*
X0403378Y0233633D01*
X0404432Y0232579D01*
X0435451Y0232579D01*
X0436505Y0233633D01*
X0436505Y0244376D01*
X0435451Y0245431D01*
X0404432Y0245431D01*
X0403378Y0244376D01*
X0403378Y0240726D01*
X0400349Y0240726D01*
X0374953Y0266122D01*
X0403735Y0266122D01*
X0404789Y0267176D01*
X0404789Y0277920D01*
X0403735Y0278974D01*
X0389939Y0278974D01*
X0389939Y0280150D01*
X0389575Y0281028D01*
X0374245Y0296358D01*
X0403341Y0296358D01*
X0404395Y0297413D01*
X0404395Y0300906D01*
X0419520Y0300906D01*
X0420398Y0301269D01*
X0424335Y0305206D01*
X0425008Y0305879D01*
X0425372Y0306758D01*
X0425372Y0339205D01*
X0425008Y0340083D01*
X0424335Y0340756D01*
X0419535Y0345556D01*
X0418863Y0346228D01*
X0417984Y0346592D01*
X0355159Y0346592D01*
X0355159Y0347522D01*
X0354105Y0348576D01*
X0347464Y0348576D01*
X0346409Y0347522D01*
X0346409Y0340881D01*
X0346409Y0342418D02*
X0316096Y0342418D01*
X0315822Y0344017D02*
X0346409Y0344017D01*
X0346409Y0345615D02*
X0246081Y0345615D01*
X0246128Y0336024D02*
X0370874Y0336024D01*
X0370874Y0335159D02*
X0386638Y0335159D01*
X0386638Y0340785D01*
X0372437Y0340785D01*
X0371979Y0340662D01*
X0371569Y0340425D01*
X0371234Y0340090D01*
X0370997Y0339680D01*
X0370874Y0339222D01*
X0370874Y0335159D01*
X0370874Y0333559D02*
X0370874Y0329496D01*
X0370997Y0329038D01*
X0371234Y0328628D01*
X0371569Y0328293D01*
X0371979Y0328056D01*
X0372437Y0327933D01*
X0386638Y0327933D01*
X0386638Y0333559D01*
X0388238Y0333559D01*
X0388238Y0335159D01*
X0404002Y0335159D01*
X0404002Y0339222D01*
X0403879Y0339680D01*
X0403642Y0340090D01*
X0403307Y0340425D01*
X0402896Y0340662D01*
X0402439Y0340785D01*
X0388238Y0340785D01*
X0388238Y0335159D01*
X0386638Y0335159D01*
X0386638Y0333559D01*
X0370874Y0333559D01*
X0370874Y0332827D02*
X0193254Y0332827D01*
X0193254Y0331229D02*
X0370874Y0331229D01*
X0370874Y0329630D02*
X0193254Y0329630D01*
X0193239Y0328032D02*
X0372069Y0328032D01*
X0386638Y0328032D02*
X0388238Y0328032D01*
X0388238Y0327933D02*
X0402439Y0327933D01*
X0402896Y0328056D01*
X0403307Y0328293D01*
X0403642Y0328628D01*
X0403879Y0329038D01*
X0404002Y0329496D01*
X0404002Y0333559D01*
X0388238Y0333559D01*
X0388238Y0327933D01*
X0388238Y0329630D02*
X0386638Y0329630D01*
X0386638Y0331229D02*
X0388238Y0331229D01*
X0388238Y0332827D02*
X0386638Y0332827D01*
X0386638Y0334426D02*
X0245281Y0334426D01*
X0236859Y0323598D02*
X0234544Y0324557D01*
X0232038Y0324557D01*
X0229722Y0323598D01*
X0227950Y0321825D01*
X0226991Y0319510D01*
X0226991Y0317004D01*
X0227950Y0314688D01*
X0229722Y0312916D01*
X0232038Y0311957D01*
X0234544Y0311957D01*
X0236859Y0312916D01*
X0238632Y0314688D01*
X0239591Y0317004D01*
X0239591Y0319510D01*
X0238632Y0321825D01*
X0236859Y0323598D01*
X0237221Y0323236D02*
X0259996Y0323236D01*
X0260357Y0323598D02*
X0258585Y0321825D01*
X0257626Y0319510D01*
X0257626Y0317004D01*
X0258585Y0314688D01*
X0260357Y0312916D01*
X0262673Y0311957D01*
X0265179Y0311957D01*
X0267495Y0312916D01*
X0269267Y0314688D01*
X0270226Y0317004D01*
X0270226Y0319510D01*
X0269267Y0321825D01*
X0267495Y0323598D01*
X0265179Y0324557D01*
X0262673Y0324557D01*
X0260357Y0323598D01*
X0258507Y0321638D02*
X0238709Y0321638D01*
X0239372Y0320039D02*
X0257845Y0320039D01*
X0257626Y0318441D02*
X0239591Y0318441D01*
X0239524Y0316842D02*
X0257693Y0316842D01*
X0258355Y0315244D02*
X0238862Y0315244D01*
X0237589Y0313645D02*
X0259628Y0313645D01*
X0262456Y0312047D02*
X0234761Y0312047D01*
X0231821Y0312047D02*
X0209491Y0312047D01*
X0209274Y0311957D02*
X0211589Y0312916D01*
X0213361Y0314688D01*
X0214320Y0317004D01*
X0214320Y0319510D01*
X0213361Y0321825D01*
X0211589Y0323598D01*
X0209274Y0324557D01*
X0206767Y0324557D01*
X0205772Y0324144D01*
X0204441Y0325380D01*
X0204086Y0325735D01*
X0204037Y0325756D01*
X0203997Y0325792D01*
X0203526Y0325967D01*
X0203062Y0326159D01*
X0203009Y0326159D01*
X0202959Y0326178D01*
X0202457Y0326159D01*
X0128333Y0326159D01*
X0127309Y0325735D01*
X0126526Y0324952D01*
X0109623Y0308049D01*
X0106286Y0308049D01*
X0105673Y0307795D01*
X0105223Y0308246D01*
X0095070Y0308246D01*
X0094016Y0307191D01*
X0094016Y0303338D01*
X0094058Y0303296D01*
X0094016Y0303254D01*
X0094016Y0299401D01*
X0094058Y0299359D01*
X0094016Y0299317D01*
X0094016Y0295464D01*
X0094058Y0295422D01*
X0094016Y0295380D01*
X0094016Y0291527D01*
X0094058Y0291485D01*
X0094016Y0291443D01*
X0094016Y0287590D01*
X0094058Y0287548D01*
X0094016Y0287506D01*
X0094016Y0283653D01*
X0094058Y0283611D01*
X0094016Y0283569D01*
X0094016Y0279716D01*
X0094058Y0279674D01*
X0094016Y0279632D01*
X0094016Y0275779D01*
X0094058Y0275737D01*
X0094016Y0275695D01*
X0094016Y0275507D01*
X0093819Y0275031D01*
X0093819Y0263057D01*
X0094016Y0262582D01*
X0094016Y0260031D01*
X0094058Y0259989D01*
X0094016Y0259947D01*
X0094016Y0256094D01*
X0094058Y0256052D01*
X0094016Y0256010D01*
X0094016Y0252157D01*
X0094058Y0252115D01*
X0094016Y0252073D01*
X0094016Y0248600D01*
X0093372Y0248600D01*
X0092493Y0248236D01*
X0091821Y0247564D01*
X0088671Y0244414D01*
X0088307Y0243535D01*
X0088307Y0241317D01*
X0084834Y0241317D01*
X0083780Y0240262D01*
X0083780Y0231684D01*
X0084834Y0230630D01*
X0096561Y0230630D01*
X0097616Y0231684D01*
X0097616Y0240262D01*
X0096561Y0241317D01*
X0093088Y0241317D01*
X0093088Y0242070D01*
X0094643Y0243625D01*
X0094714Y0243554D01*
X0095308Y0242942D01*
X0095327Y0242941D01*
X0095340Y0242928D01*
X0096194Y0242928D01*
X0121705Y0242548D01*
X0121718Y0242535D01*
X0122572Y0242535D01*
X0123426Y0242522D01*
X0123439Y0242535D01*
X0123457Y0242535D01*
X0124061Y0243139D01*
X0124674Y0243734D01*
X0124674Y0243752D01*
X0126262Y0245340D01*
X0126262Y0257658D01*
X0133832Y0250088D01*
X0134710Y0249724D01*
X0149047Y0249724D01*
X0149926Y0250088D01*
X0150598Y0250761D01*
X0152567Y0252729D01*
X0152931Y0253608D01*
X0152931Y0264401D01*
X0152567Y0265280D01*
X0151894Y0265953D01*
X0146270Y0271577D01*
X0170569Y0271577D01*
X0171223Y0271848D01*
X0170825Y0271450D01*
X0167805Y0268430D01*
X0167441Y0267551D01*
X0167441Y0267474D01*
X0166066Y0266905D01*
X0164294Y0265132D01*
X0163335Y0262817D01*
X0163335Y0260311D01*
X0164294Y0257995D01*
X0166066Y0256223D01*
X0168381Y0255264D01*
X0170888Y0255264D01*
X0173203Y0256223D01*
X0174976Y0257995D01*
X0175935Y0260311D01*
X0175935Y0262817D01*
X0174976Y0265132D01*
X0173203Y0266905D01*
X0173089Y0266952D01*
X0173842Y0267705D01*
X0175873Y0267705D01*
X0175873Y0266496D01*
X0176928Y0265441D01*
X0182356Y0265441D01*
X0182870Y0265955D01*
X0183385Y0265441D01*
X0188813Y0265441D01*
X0189867Y0266496D01*
X0189867Y0267835D01*
X0190495Y0267835D01*
X0191882Y0266447D01*
X0190618Y0265183D01*
X0189659Y0262868D01*
X0189659Y0260362D01*
X0190618Y0258046D01*
X0192390Y0256274D01*
X0194706Y0255315D01*
X0197212Y0255315D01*
X0199528Y0256274D01*
X0201300Y0258046D01*
X0202259Y0260362D01*
X0202259Y0262868D01*
X0201300Y0265183D01*
X0199528Y0266956D01*
X0197212Y0267915D01*
X0197176Y0267915D01*
X0192839Y0272252D01*
X0191961Y0272616D01*
X0189867Y0272616D01*
X0189867Y0273558D01*
X0190401Y0273558D01*
X0191279Y0273922D01*
X0193384Y0276027D01*
X0194563Y0275539D01*
X0197069Y0275539D01*
X0199384Y0276498D01*
X0201157Y0278271D01*
X0202116Y0280586D01*
X0202116Y0283093D01*
X0201157Y0285408D01*
X0199384Y0287180D01*
X0197069Y0288139D01*
X0194563Y0288139D01*
X0192247Y0287180D01*
X0190475Y0285408D01*
X0189516Y0283093D01*
X0189516Y0280586D01*
X0190004Y0279408D01*
X0188935Y0278339D01*
X0175004Y0278339D01*
X0175935Y0280586D01*
X0175935Y0283093D01*
X0174976Y0285408D01*
X0173258Y0287126D01*
X0182905Y0287126D01*
X0183784Y0287490D01*
X0192597Y0296303D01*
X0193775Y0295815D01*
X0196281Y0295815D01*
X0198597Y0296774D01*
X0200369Y0298546D01*
X0201328Y0300862D01*
X0201328Y0303368D01*
X0200369Y0305684D01*
X0198597Y0307456D01*
X0196281Y0308415D01*
X0193775Y0308415D01*
X0191460Y0307456D01*
X0189687Y0305684D01*
X0188728Y0303368D01*
X0188728Y0300862D01*
X0189216Y0299684D01*
X0181440Y0291907D01*
X0162807Y0291907D01*
X0167203Y0296303D01*
X0168381Y0295815D01*
X0170888Y0295815D01*
X0173203Y0296774D01*
X0174976Y0298546D01*
X0175935Y0300862D01*
X0175935Y0303368D01*
X0174976Y0305684D01*
X0173203Y0307456D01*
X0170888Y0308415D01*
X0168381Y0308415D01*
X0166066Y0307456D01*
X0164294Y0305684D01*
X0163335Y0303368D01*
X0163335Y0300862D01*
X0163823Y0299684D01*
X0159983Y0295844D01*
X0144777Y0295844D01*
X0147022Y0296774D01*
X0148794Y0298546D01*
X0149754Y0300862D01*
X0149754Y0303368D01*
X0148794Y0305684D01*
X0147022Y0307456D01*
X0144707Y0308415D01*
X0142200Y0308415D01*
X0139885Y0307456D01*
X0138113Y0305684D01*
X0137625Y0304505D01*
X0131561Y0304505D01*
X0130682Y0304142D01*
X0130010Y0303469D01*
X0126322Y0299781D01*
X0109230Y0299781D01*
X0113137Y0303687D01*
X0130040Y0320591D01*
X0201415Y0320591D01*
X0201959Y0320086D01*
X0201720Y0319510D01*
X0201720Y0317004D01*
X0202680Y0314688D01*
X0204452Y0312916D01*
X0206767Y0311957D01*
X0209274Y0311957D01*
X0206550Y0312047D02*
X0121496Y0312047D01*
X0123094Y0313645D02*
X0203723Y0313645D01*
X0202449Y0315244D02*
X0124693Y0315244D01*
X0126291Y0316842D02*
X0201787Y0316842D01*
X0201720Y0318441D02*
X0127890Y0318441D01*
X0129488Y0320039D02*
X0201940Y0320039D01*
X0205028Y0324835D02*
X0420591Y0324835D01*
X0420591Y0326433D02*
X0082124Y0326433D01*
X0082124Y0324835D02*
X0126409Y0324835D01*
X0124810Y0323236D02*
X0082124Y0323236D01*
X0082124Y0321638D02*
X0105569Y0321638D01*
X0105764Y0321832D02*
X0104839Y0320907D01*
X0104338Y0319698D01*
X0104338Y0319136D01*
X0103093Y0317891D01*
X0097616Y0317891D01*
X0097616Y0319790D01*
X0096561Y0320844D01*
X0084834Y0320844D01*
X0083780Y0319790D01*
X0083780Y0311212D01*
X0084834Y0310157D01*
X0096561Y0310157D01*
X0097616Y0311212D01*
X0097616Y0313110D01*
X0104559Y0313110D01*
X0105438Y0313474D01*
X0107719Y0315755D01*
X0108281Y0315755D01*
X0109490Y0316256D01*
X0110415Y0317181D01*
X0110916Y0318390D01*
X0110916Y0319698D01*
X0110415Y0320907D01*
X0109490Y0321832D01*
X0108281Y0322333D01*
X0106973Y0322333D01*
X0105764Y0321832D01*
X0104479Y0320039D02*
X0097366Y0320039D01*
X0097616Y0318441D02*
X0103643Y0318441D01*
X0107207Y0315244D02*
X0116818Y0315244D01*
X0118416Y0316842D02*
X0110076Y0316842D01*
X0110916Y0318441D02*
X0120015Y0318441D01*
X0121613Y0320039D02*
X0110775Y0320039D01*
X0109685Y0321638D02*
X0123212Y0321638D01*
X0115219Y0313645D02*
X0105608Y0313645D01*
X0110424Y0308850D02*
X0082124Y0308850D01*
X0082124Y0310448D02*
X0084543Y0310448D01*
X0083780Y0312047D02*
X0082124Y0312047D01*
X0082124Y0313645D02*
X0083780Y0313645D01*
X0083780Y0315244D02*
X0082124Y0315244D01*
X0082124Y0316842D02*
X0083780Y0316842D01*
X0083780Y0318441D02*
X0082124Y0318441D01*
X0082124Y0320039D02*
X0084029Y0320039D01*
X0082124Y0328032D02*
X0184519Y0328032D01*
X0184504Y0329630D02*
X0082124Y0329630D01*
X0082124Y0331229D02*
X0184504Y0331229D01*
X0184038Y0332827D02*
X0082124Y0332827D01*
X0082124Y0334426D02*
X0182439Y0334426D01*
X0180841Y0336024D02*
X0168703Y0336024D01*
X0168666Y0335889D02*
X0168789Y0336346D01*
X0168789Y0340409D01*
X0153025Y0340409D01*
X0153025Y0334783D01*
X0167226Y0334783D01*
X0167684Y0334906D01*
X0168094Y0335143D01*
X0168429Y0335478D01*
X0168666Y0335889D01*
X0168789Y0337623D02*
X0179242Y0337623D01*
X0178465Y0339221D02*
X0168789Y0339221D01*
X0168789Y0342009D02*
X0168789Y0346072D01*
X0168666Y0346530D01*
X0168429Y0346941D01*
X0168094Y0347276D01*
X0167684Y0347513D01*
X0167226Y0347635D01*
X0153025Y0347635D01*
X0153025Y0342009D01*
X0168789Y0342009D01*
X0168789Y0342418D02*
X0178465Y0342418D01*
X0178465Y0340820D02*
X0153025Y0340820D01*
X0153025Y0340409D02*
X0153025Y0342009D01*
X0151425Y0342009D01*
X0151425Y0340409D01*
X0153025Y0340409D01*
X0153025Y0339221D02*
X0151425Y0339221D01*
X0151425Y0340409D02*
X0151425Y0334783D01*
X0137224Y0334783D01*
X0136767Y0334906D01*
X0136356Y0335143D01*
X0136021Y0335478D01*
X0135784Y0335889D01*
X0135661Y0336346D01*
X0135661Y0340409D01*
X0151425Y0340409D01*
X0151425Y0340820D02*
X0082124Y0340820D01*
X0082124Y0342418D02*
X0135661Y0342418D01*
X0135661Y0342009D02*
X0151425Y0342009D01*
X0151425Y0347635D01*
X0137224Y0347635D01*
X0136767Y0347513D01*
X0136356Y0347276D01*
X0136021Y0346941D01*
X0135784Y0346530D01*
X0135661Y0346072D01*
X0135661Y0342009D01*
X0135661Y0344017D02*
X0082124Y0344017D01*
X0082124Y0345615D02*
X0135661Y0345615D01*
X0136294Y0347214D02*
X0082124Y0347214D01*
X0082124Y0348812D02*
X0173297Y0348812D01*
X0174895Y0347214D02*
X0168156Y0347214D01*
X0168789Y0345615D02*
X0176494Y0345615D01*
X0178092Y0344017D02*
X0168789Y0344017D01*
X0171698Y0350411D02*
X0082124Y0350411D01*
X0082124Y0352009D02*
X0170100Y0352009D01*
X0168501Y0353608D02*
X0082124Y0353608D01*
X0082124Y0355206D02*
X0166903Y0355206D01*
X0165304Y0356805D02*
X0082124Y0356805D01*
X0082124Y0358403D02*
X0163706Y0358403D01*
X0168489Y0366396D02*
X0181264Y0366396D01*
X0179666Y0367994D02*
X0168757Y0367994D01*
X0168757Y0369593D02*
X0178067Y0369593D01*
X0176469Y0371191D02*
X0168757Y0371191D01*
X0168757Y0372790D02*
X0174870Y0372790D01*
X0173272Y0374388D02*
X0168757Y0374388D01*
X0168757Y0375987D02*
X0171673Y0375987D01*
X0170075Y0377586D02*
X0168580Y0377586D01*
X0168476Y0379184D02*
X0082124Y0379184D01*
X0082124Y0377586D02*
X0135808Y0377586D01*
X0135630Y0375987D02*
X0082124Y0375987D01*
X0082124Y0374388D02*
X0135630Y0374388D01*
X0135630Y0372790D02*
X0082124Y0372790D01*
X0082124Y0371191D02*
X0135630Y0371191D01*
X0135630Y0369593D02*
X0082124Y0369593D01*
X0082124Y0367994D02*
X0135630Y0367994D01*
X0135899Y0366396D02*
X0082124Y0366396D01*
X0082124Y0380783D02*
X0166878Y0380783D01*
X0165279Y0382381D02*
X0082124Y0382381D01*
X0082124Y0383980D02*
X0163681Y0383980D01*
X0162082Y0385578D02*
X0082124Y0385578D01*
X0082124Y0387177D02*
X0160484Y0387177D01*
X0158885Y0388775D02*
X0082124Y0388775D01*
X0082124Y0390374D02*
X0157287Y0390374D01*
X0155688Y0391972D02*
X0082124Y0391972D01*
X0082124Y0393571D02*
X0154090Y0393571D01*
X0152491Y0395169D02*
X0082124Y0395169D01*
X0082124Y0396768D02*
X0151113Y0396768D01*
X0157654Y0396768D02*
X0182822Y0396768D01*
X0181223Y0398366D02*
X0168530Y0398366D01*
X0168757Y0399965D02*
X0179625Y0399965D01*
X0178026Y0401563D02*
X0168757Y0401563D01*
X0168757Y0403162D02*
X0176428Y0403162D01*
X0174829Y0404760D02*
X0168757Y0404760D01*
X0168757Y0406359D02*
X0173231Y0406359D01*
X0171632Y0407957D02*
X0168757Y0407957D01*
X0168539Y0409556D02*
X0170034Y0409556D01*
X0168435Y0411154D02*
X0082124Y0411154D01*
X0082124Y0409556D02*
X0135849Y0409556D01*
X0135630Y0407957D02*
X0082124Y0407957D01*
X0082124Y0406359D02*
X0135630Y0406359D01*
X0135630Y0404760D02*
X0082124Y0404760D01*
X0082124Y0403162D02*
X0135630Y0403162D01*
X0135630Y0401563D02*
X0082124Y0401563D01*
X0082124Y0399965D02*
X0135630Y0399965D01*
X0135858Y0398366D02*
X0082124Y0398366D01*
X0082124Y0412753D02*
X0166837Y0412753D01*
X0165238Y0414351D02*
X0082124Y0414351D01*
X0082124Y0415950D02*
X0163640Y0415950D01*
X0162041Y0417548D02*
X0082124Y0417548D01*
X0082124Y0419147D02*
X0160443Y0419147D01*
X0158844Y0420745D02*
X0082124Y0420745D01*
X0082124Y0422344D02*
X0157370Y0422344D01*
X0157458Y0422131D02*
X0158131Y0421458D01*
X0184472Y0395117D01*
X0184472Y0390802D01*
X0185527Y0389748D01*
X0192168Y0389748D01*
X0193222Y0390802D01*
X0193222Y0397443D01*
X0192168Y0398498D01*
X0187853Y0398498D01*
X0161876Y0424475D01*
X0161876Y0429429D01*
X0174994Y0429429D01*
X0176049Y0430484D01*
X0176049Y0441227D01*
X0174994Y0442281D01*
X0143976Y0442281D01*
X0142921Y0441227D01*
X0142921Y0430484D01*
X0143976Y0429429D01*
X0157094Y0429429D01*
X0157094Y0423010D01*
X0157458Y0422131D01*
X0157094Y0423942D02*
X0082124Y0423942D01*
X0082124Y0425541D02*
X0157094Y0425541D01*
X0157094Y0427139D02*
X0082124Y0427139D01*
X0082124Y0428738D02*
X0157094Y0428738D01*
X0161876Y0428738D02*
X0203822Y0428738D01*
X0205420Y0430336D02*
X0175902Y0430336D01*
X0176049Y0431935D02*
X0207019Y0431935D01*
X0208617Y0433533D02*
X0176049Y0433533D01*
X0176049Y0435132D02*
X0210216Y0435132D01*
X0211351Y0436268D02*
X0194329Y0419246D01*
X0190015Y0419246D01*
X0188961Y0418191D01*
X0188961Y0411550D01*
X0190015Y0410496D01*
X0196656Y0410496D01*
X0197710Y0411550D01*
X0197710Y0415865D01*
X0213696Y0431850D01*
X0262795Y0431850D01*
X0262795Y0428869D01*
X0263850Y0427815D01*
X0294868Y0427815D01*
X0295923Y0428869D01*
X0295923Y0439613D01*
X0294868Y0440667D01*
X0263850Y0440667D01*
X0262795Y0439613D01*
X0262795Y0436631D01*
X0212230Y0436631D01*
X0211351Y0436268D01*
X0212182Y0430336D02*
X0262795Y0430336D01*
X0262927Y0428738D02*
X0210583Y0428738D01*
X0208985Y0427139D02*
X0311638Y0427139D01*
X0311638Y0427719D02*
X0311638Y0421078D01*
X0312692Y0420024D01*
X0319333Y0420024D01*
X0320387Y0421078D01*
X0320387Y0425392D01*
X0321727Y0426732D01*
X0374213Y0426732D01*
X0374213Y0423751D01*
X0375267Y0422697D01*
X0406286Y0422697D01*
X0407340Y0423751D01*
X0407340Y0434494D01*
X0406286Y0435549D01*
X0375267Y0435549D01*
X0374213Y0434494D01*
X0374213Y0431513D01*
X0320261Y0431513D01*
X0319383Y0431149D01*
X0317007Y0428773D01*
X0312692Y0428773D01*
X0311638Y0427719D01*
X0312657Y0428738D02*
X0295791Y0428738D01*
X0295923Y0430336D02*
X0318570Y0430336D01*
X0320536Y0425541D02*
X0374213Y0425541D01*
X0374213Y0423942D02*
X0320387Y0423942D01*
X0320387Y0422344D02*
X0423055Y0422344D01*
X0423055Y0422601D02*
X0423055Y0415960D01*
X0424110Y0414906D01*
X0430750Y0414906D01*
X0431805Y0415960D01*
X0431805Y0422601D01*
X0430750Y0423655D01*
X0424110Y0423655D01*
X0423055Y0422601D01*
X0423055Y0420745D02*
X0320055Y0420745D01*
X0311970Y0420745D02*
X0202591Y0420745D01*
X0204189Y0422344D02*
X0311638Y0422344D01*
X0311638Y0423942D02*
X0205788Y0423942D01*
X0207386Y0425541D02*
X0311638Y0425541D01*
X0295923Y0431935D02*
X0374213Y0431935D01*
X0374213Y0433533D02*
X0295923Y0433533D01*
X0295923Y0435132D02*
X0374850Y0435132D01*
X0384087Y0417891D02*
X0348143Y0417891D01*
X0347265Y0417527D01*
X0346592Y0416855D01*
X0342676Y0412939D01*
X0338361Y0412939D01*
X0337307Y0411884D01*
X0337307Y0405243D01*
X0338361Y0404189D01*
X0345002Y0404189D01*
X0346057Y0405243D01*
X0346057Y0409558D01*
X0347520Y0411021D01*
X0347520Y0405448D01*
X0348574Y0404394D01*
X0352889Y0404394D01*
X0393532Y0363750D01*
X0394411Y0363386D01*
X0402661Y0363386D01*
X0402661Y0360405D01*
X0403716Y0359350D01*
X0434735Y0359350D01*
X0435789Y0360405D01*
X0435789Y0371148D01*
X0434735Y0372202D01*
X0403716Y0372202D01*
X0402661Y0371148D01*
X0402661Y0368167D01*
X0395877Y0368167D01*
X0356269Y0407774D01*
X0356269Y0412089D01*
X0355248Y0413110D01*
X0382621Y0413110D01*
X0386157Y0409574D01*
X0386157Y0405352D01*
X0373039Y0405352D01*
X0371984Y0404298D01*
X0371984Y0393554D01*
X0373039Y0392500D01*
X0404057Y0392500D01*
X0405112Y0393554D01*
X0405112Y0404298D01*
X0404057Y0405352D01*
X0390939Y0405352D01*
X0390939Y0411039D01*
X0390575Y0411918D01*
X0389902Y0412590D01*
X0385638Y0416855D01*
X0384965Y0417527D01*
X0384087Y0417891D01*
X0384915Y0417548D02*
X0423055Y0417548D01*
X0423065Y0415950D02*
X0386543Y0415950D01*
X0388141Y0414351D02*
X0460688Y0414351D01*
X0460688Y0412753D02*
X0389740Y0412753D01*
X0390891Y0411154D02*
X0460688Y0411154D01*
X0460688Y0409556D02*
X0390939Y0409556D01*
X0390939Y0407957D02*
X0460688Y0407957D01*
X0460688Y0406359D02*
X0390939Y0406359D01*
X0386157Y0406359D02*
X0357685Y0406359D01*
X0356269Y0407957D02*
X0386157Y0407957D01*
X0386157Y0409556D02*
X0356269Y0409556D01*
X0356269Y0411154D02*
X0384577Y0411154D01*
X0382978Y0412753D02*
X0355605Y0412753D01*
X0347520Y0409556D02*
X0346057Y0409556D01*
X0346057Y0407957D02*
X0347520Y0407957D01*
X0347520Y0406359D02*
X0346057Y0406359D01*
X0345574Y0404760D02*
X0348208Y0404760D01*
X0354121Y0403162D02*
X0306844Y0403162D01*
X0306518Y0403297D02*
X0304011Y0403297D01*
X0301696Y0402338D01*
X0299924Y0400566D01*
X0298965Y0398250D01*
X0298965Y0395744D01*
X0299924Y0393428D01*
X0301696Y0391656D01*
X0304011Y0390697D01*
X0306518Y0390697D01*
X0308833Y0391656D01*
X0310605Y0393428D01*
X0311565Y0395744D01*
X0311565Y0398250D01*
X0310605Y0400566D01*
X0308833Y0402338D01*
X0306518Y0403297D01*
X0303685Y0403162D02*
X0246553Y0403162D01*
X0246553Y0404760D02*
X0337790Y0404760D01*
X0337307Y0406359D02*
X0246553Y0406359D01*
X0246553Y0407957D02*
X0337307Y0407957D01*
X0337307Y0409556D02*
X0246553Y0409556D01*
X0245798Y0411154D02*
X0337307Y0411154D01*
X0338176Y0412753D02*
X0197710Y0412753D01*
X0197710Y0414351D02*
X0344089Y0414351D01*
X0345687Y0415950D02*
X0197795Y0415950D01*
X0199394Y0417548D02*
X0347315Y0417548D01*
X0359284Y0404760D02*
X0372447Y0404760D01*
X0371984Y0403162D02*
X0360882Y0403162D01*
X0362481Y0401563D02*
X0371984Y0401563D01*
X0371984Y0399965D02*
X0364079Y0399965D01*
X0365678Y0398366D02*
X0371984Y0398366D01*
X0371984Y0396768D02*
X0367276Y0396768D01*
X0368875Y0395169D02*
X0371984Y0395169D01*
X0371984Y0393571D02*
X0370473Y0393571D01*
X0372072Y0391972D02*
X0460688Y0391972D01*
X0460688Y0390374D02*
X0373670Y0390374D01*
X0375269Y0388775D02*
X0460688Y0388775D01*
X0460688Y0387177D02*
X0376867Y0387177D01*
X0378466Y0385578D02*
X0460688Y0385578D01*
X0460688Y0383980D02*
X0380064Y0383980D01*
X0381663Y0382381D02*
X0460688Y0382381D01*
X0460688Y0380783D02*
X0383261Y0380783D01*
X0384860Y0379184D02*
X0460688Y0379184D01*
X0460688Y0377586D02*
X0386458Y0377586D01*
X0388057Y0375987D02*
X0460688Y0375987D01*
X0460688Y0374388D02*
X0389655Y0374388D01*
X0391254Y0372790D02*
X0460688Y0372790D01*
X0460688Y0371191D02*
X0435745Y0371191D01*
X0435789Y0369593D02*
X0460688Y0369593D01*
X0460688Y0367994D02*
X0435789Y0367994D01*
X0435789Y0366396D02*
X0460688Y0366396D01*
X0460688Y0364797D02*
X0435789Y0364797D01*
X0435789Y0363199D02*
X0460688Y0363199D01*
X0460688Y0361600D02*
X0435789Y0361600D01*
X0435386Y0360002D02*
X0452252Y0360002D01*
X0452558Y0360309D02*
X0451504Y0359254D01*
X0451504Y0352613D01*
X0452558Y0351559D01*
X0459199Y0351559D01*
X0460254Y0352613D01*
X0460254Y0359254D01*
X0459199Y0360309D01*
X0452558Y0360309D01*
X0451504Y0358403D02*
X0338265Y0358403D01*
X0338265Y0356805D02*
X0451504Y0356805D01*
X0451504Y0355206D02*
X0201075Y0355206D01*
X0199477Y0353608D02*
X0451504Y0353608D01*
X0452108Y0352009D02*
X0197878Y0352009D01*
X0197285Y0350411D02*
X0460688Y0350411D01*
X0460688Y0352009D02*
X0459649Y0352009D01*
X0460254Y0353608D02*
X0460688Y0353608D01*
X0460688Y0355206D02*
X0460254Y0355206D01*
X0460254Y0356805D02*
X0460688Y0356805D01*
X0460688Y0358403D02*
X0460254Y0358403D01*
X0460688Y0360002D02*
X0459506Y0360002D01*
X0460688Y0348812D02*
X0197285Y0348812D01*
X0197285Y0347214D02*
X0346409Y0347214D01*
X0355159Y0347214D02*
X0460688Y0347214D01*
X0460688Y0345615D02*
X0419476Y0345615D01*
X0421074Y0344017D02*
X0460688Y0344017D01*
X0460688Y0342418D02*
X0422673Y0342418D01*
X0424271Y0340820D02*
X0460688Y0340820D01*
X0460688Y0339221D02*
X0425365Y0339221D01*
X0425372Y0337623D02*
X0460688Y0337623D01*
X0460688Y0336024D02*
X0425372Y0336024D01*
X0425372Y0334426D02*
X0460688Y0334426D01*
X0460688Y0332827D02*
X0425372Y0332827D01*
X0425372Y0331229D02*
X0460688Y0331229D01*
X0460688Y0329630D02*
X0425372Y0329630D01*
X0425372Y0328032D02*
X0460688Y0328032D01*
X0460688Y0326433D02*
X0425372Y0326433D01*
X0425372Y0324835D02*
X0460688Y0324835D01*
X0460688Y0323236D02*
X0425372Y0323236D01*
X0425372Y0321638D02*
X0460688Y0321638D01*
X0460688Y0320039D02*
X0425372Y0320039D01*
X0425372Y0318441D02*
X0460688Y0318441D01*
X0460688Y0316842D02*
X0425372Y0316842D01*
X0425372Y0315244D02*
X0460688Y0315244D01*
X0460688Y0313645D02*
X0425372Y0313645D01*
X0425372Y0312047D02*
X0460688Y0312047D01*
X0460688Y0310448D02*
X0425372Y0310448D01*
X0425372Y0308850D02*
X0460688Y0308850D01*
X0460688Y0307251D02*
X0425372Y0307251D01*
X0424781Y0305653D02*
X0460688Y0305653D01*
X0460688Y0304054D02*
X0423183Y0304054D01*
X0424335Y0305206D02*
X0424335Y0305206D01*
X0421584Y0302455D02*
X0460688Y0302455D01*
X0460688Y0300857D02*
X0404395Y0300857D01*
X0404395Y0299258D02*
X0460688Y0299258D01*
X0460688Y0297660D02*
X0404395Y0297660D01*
X0404395Y0307251D02*
X0419618Y0307251D01*
X0420591Y0308850D02*
X0403702Y0308850D01*
X0420591Y0310448D02*
X0360155Y0310448D01*
X0361753Y0308850D02*
X0371961Y0308850D01*
X0371268Y0307251D02*
X0363352Y0307251D01*
X0364950Y0305653D02*
X0371268Y0305653D01*
X0371268Y0304054D02*
X0366549Y0304054D01*
X0368147Y0302455D02*
X0371268Y0302455D01*
X0371268Y0300857D02*
X0369746Y0300857D01*
X0366181Y0297660D02*
X0308305Y0297660D01*
X0308305Y0299258D02*
X0364583Y0299258D01*
X0362984Y0300857D02*
X0308305Y0300857D01*
X0308305Y0302455D02*
X0361386Y0302455D01*
X0359787Y0304054D02*
X0302679Y0304054D01*
X0302679Y0304568D02*
X0308305Y0304568D01*
X0308305Y0318769D01*
X0308182Y0319227D01*
X0307945Y0319638D01*
X0307610Y0319973D01*
X0307199Y0320210D01*
X0306742Y0320332D01*
X0302679Y0320332D01*
X0302679Y0304569D01*
X0301079Y0304569D01*
X0301079Y0320332D01*
X0297016Y0320332D01*
X0296558Y0320210D01*
X0296148Y0319973D01*
X0295812Y0319638D01*
X0295575Y0319227D01*
X0295453Y0318769D01*
X0295453Y0304568D01*
X0301079Y0304568D01*
X0301079Y0302969D01*
X0295453Y0302969D01*
X0295453Y0288768D01*
X0295575Y0288310D01*
X0295812Y0287899D01*
X0296148Y0287564D01*
X0296558Y0287327D01*
X0297016Y0287205D01*
X0301079Y0287205D01*
X0301079Y0302968D01*
X0302679Y0302968D01*
X0302679Y0287205D01*
X0306742Y0287205D01*
X0307199Y0287327D01*
X0307610Y0287564D01*
X0307945Y0287899D01*
X0308182Y0288310D01*
X0308305Y0288768D01*
X0308305Y0302969D01*
X0302679Y0302969D01*
X0302679Y0304568D01*
X0302679Y0305653D02*
X0301079Y0305653D01*
X0301079Y0307251D02*
X0302679Y0307251D01*
X0302679Y0308850D02*
X0301079Y0308850D01*
X0301079Y0310448D02*
X0302679Y0310448D01*
X0302679Y0312047D02*
X0301079Y0312047D01*
X0301079Y0313645D02*
X0302679Y0313645D01*
X0302679Y0315244D02*
X0301079Y0315244D01*
X0301079Y0316842D02*
X0302679Y0316842D01*
X0302679Y0318441D02*
X0301079Y0318441D01*
X0301079Y0320039D02*
X0302679Y0320039D01*
X0307495Y0320039D02*
X0420591Y0320039D01*
X0420591Y0318441D02*
X0308305Y0318441D01*
X0308305Y0316842D02*
X0347698Y0316842D01*
X0346803Y0315244D02*
X0308305Y0315244D01*
X0308305Y0313645D02*
X0346803Y0313645D01*
X0346803Y0312047D02*
X0308305Y0312047D01*
X0308305Y0310448D02*
X0346803Y0310448D01*
X0347260Y0308850D02*
X0308305Y0308850D01*
X0308305Y0307251D02*
X0356590Y0307251D01*
X0358189Y0305653D02*
X0308305Y0305653D01*
X0302679Y0302455D02*
X0301079Y0302455D01*
X0301079Y0300857D02*
X0302679Y0300857D01*
X0302679Y0299258D02*
X0301079Y0299258D01*
X0301079Y0297660D02*
X0302679Y0297660D01*
X0302679Y0296061D02*
X0301079Y0296061D01*
X0301079Y0294463D02*
X0302679Y0294463D01*
X0302679Y0292864D02*
X0301079Y0292864D01*
X0301079Y0291266D02*
X0302679Y0291266D01*
X0302679Y0289667D02*
X0301079Y0289667D01*
X0301079Y0288069D02*
X0302679Y0288069D01*
X0308043Y0288069D02*
X0375772Y0288069D01*
X0374174Y0289667D02*
X0308305Y0289667D01*
X0308305Y0291266D02*
X0372575Y0291266D01*
X0370977Y0292864D02*
X0308305Y0292864D01*
X0308305Y0294463D02*
X0369378Y0294463D01*
X0367780Y0296061D02*
X0308305Y0296061D01*
X0301079Y0304054D02*
X0284495Y0304054D01*
X0284538Y0303950D02*
X0284037Y0305159D01*
X0283112Y0306084D01*
X0281903Y0306585D01*
X0280595Y0306585D01*
X0279386Y0306084D01*
X0278461Y0305159D01*
X0277960Y0303950D01*
X0277960Y0302642D01*
X0278461Y0301433D01*
X0279386Y0300508D01*
X0280595Y0300007D01*
X0280827Y0300007D01*
X0280827Y0269356D01*
X0281191Y0268477D01*
X0281863Y0267805D01*
X0282795Y0266873D01*
X0282795Y0249168D01*
X0276322Y0242694D01*
X0274269Y0242694D01*
X0274269Y0245124D01*
X0273215Y0246179D01*
X0242196Y0246179D01*
X0241142Y0245124D01*
X0241142Y0234381D01*
X0242196Y0233327D01*
X0273215Y0233327D01*
X0274269Y0234381D01*
X0274269Y0237913D01*
X0277787Y0237913D01*
X0278666Y0238277D01*
X0286540Y0246151D01*
X0287212Y0246824D01*
X0287576Y0247702D01*
X0287576Y0268338D01*
X0287212Y0269217D01*
X0285608Y0270822D01*
X0285608Y0301803D01*
X0285244Y0302682D01*
X0284538Y0303388D01*
X0284538Y0303950D01*
X0285338Y0302455D02*
X0295453Y0302455D01*
X0295453Y0300857D02*
X0285608Y0300857D01*
X0285608Y0299258D02*
X0295453Y0299258D01*
X0295453Y0297660D02*
X0285608Y0297660D01*
X0285608Y0296061D02*
X0295453Y0296061D01*
X0295453Y0294463D02*
X0285608Y0294463D01*
X0285608Y0292864D02*
X0295453Y0292864D01*
X0295453Y0291266D02*
X0285608Y0291266D01*
X0285608Y0289667D02*
X0295453Y0289667D01*
X0295715Y0288069D02*
X0285608Y0288069D01*
X0285608Y0286470D02*
X0347956Y0286470D01*
X0347197Y0284872D02*
X0285608Y0284872D01*
X0285608Y0283273D02*
X0347197Y0283273D01*
X0347197Y0281675D02*
X0285608Y0281675D01*
X0285608Y0280076D02*
X0347197Y0280076D01*
X0347789Y0278478D02*
X0285608Y0278478D01*
X0285608Y0276879D02*
X0357434Y0276879D01*
X0355836Y0278478D02*
X0355354Y0278478D01*
X0359033Y0275281D02*
X0285608Y0275281D01*
X0285608Y0273682D02*
X0360631Y0273682D01*
X0362230Y0272084D02*
X0285608Y0272084D01*
X0285944Y0270485D02*
X0363828Y0270485D01*
X0365427Y0268887D02*
X0287349Y0268887D01*
X0287576Y0267288D02*
X0367025Y0267288D01*
X0368624Y0265690D02*
X0287576Y0265690D01*
X0287576Y0264091D02*
X0370223Y0264091D01*
X0371821Y0262493D02*
X0287576Y0262493D01*
X0287576Y0260894D02*
X0373420Y0260894D01*
X0375018Y0259296D02*
X0287576Y0259296D01*
X0287576Y0257697D02*
X0376617Y0257697D01*
X0378215Y0256099D02*
X0287576Y0256099D01*
X0287576Y0254500D02*
X0379814Y0254500D01*
X0381412Y0252902D02*
X0287576Y0252902D01*
X0287576Y0251303D02*
X0383011Y0251303D01*
X0384609Y0249705D02*
X0287576Y0249705D01*
X0287576Y0248106D02*
X0325177Y0248106D01*
X0325177Y0248108D02*
X0325177Y0233907D01*
X0330803Y0233907D01*
X0330803Y0232307D01*
X0325177Y0232307D01*
X0325177Y0218106D01*
X0325300Y0217649D01*
X0325537Y0217238D01*
X0325872Y0216903D01*
X0326282Y0216666D01*
X0326740Y0216543D01*
X0330803Y0216543D01*
X0330803Y0232307D01*
X0332403Y0232307D01*
X0332403Y0216543D01*
X0336466Y0216543D01*
X0336924Y0216666D01*
X0337334Y0216903D01*
X0337669Y0217238D01*
X0337906Y0217649D01*
X0338029Y0218106D01*
X0338029Y0232307D01*
X0332403Y0232307D01*
X0332403Y0233907D01*
X0330803Y0233907D01*
X0330803Y0249671D01*
X0326740Y0249671D01*
X0326282Y0249548D01*
X0325872Y0249311D01*
X0325537Y0248976D01*
X0325300Y0248566D01*
X0325177Y0248108D01*
X0325177Y0246508D02*
X0286896Y0246508D01*
X0285298Y0244909D02*
X0325177Y0244909D01*
X0325177Y0243311D02*
X0283699Y0243311D01*
X0282101Y0241712D02*
X0325177Y0241712D01*
X0325177Y0240114D02*
X0280502Y0240114D01*
X0278904Y0238515D02*
X0325177Y0238515D01*
X0325177Y0236917D02*
X0274269Y0236917D01*
X0274269Y0235318D02*
X0325177Y0235318D01*
X0325177Y0232121D02*
X0298734Y0232121D01*
X0298734Y0233231D02*
X0297679Y0234285D01*
X0291039Y0234285D01*
X0289984Y0233231D01*
X0289984Y0232301D01*
X0284159Y0232301D01*
X0283280Y0231937D01*
X0271706Y0220362D01*
X0271706Y0220362D01*
X0271033Y0219690D01*
X0270669Y0218811D01*
X0270669Y0215470D01*
X0257550Y0215470D01*
X0256496Y0214416D01*
X0256496Y0203673D01*
X0257550Y0202618D01*
X0288569Y0202618D01*
X0289624Y0203673D01*
X0289624Y0214416D01*
X0288569Y0215470D01*
X0275450Y0215470D01*
X0275450Y0217345D01*
X0285625Y0227520D01*
X0289984Y0227520D01*
X0289984Y0226590D01*
X0291039Y0225535D01*
X0297679Y0225535D01*
X0298734Y0226590D01*
X0298734Y0233231D01*
X0298245Y0233720D02*
X0330803Y0233720D01*
X0330803Y0235318D02*
X0332403Y0235318D01*
X0332403Y0233907D02*
X0332403Y0249671D01*
X0336466Y0249671D01*
X0336924Y0249548D01*
X0337334Y0249311D01*
X0337669Y0248976D01*
X0337906Y0248566D01*
X0338029Y0248108D01*
X0338029Y0233907D01*
X0332403Y0233907D01*
X0332403Y0233720D02*
X0403378Y0233720D01*
X0403378Y0235318D02*
X0338029Y0235318D01*
X0338029Y0236917D02*
X0397397Y0236917D01*
X0395799Y0238515D02*
X0338029Y0238515D01*
X0338029Y0240114D02*
X0394200Y0240114D01*
X0392602Y0241712D02*
X0338029Y0241712D01*
X0338029Y0243311D02*
X0391003Y0243311D01*
X0389405Y0244909D02*
X0338029Y0244909D01*
X0338029Y0246508D02*
X0387806Y0246508D01*
X0386208Y0248106D02*
X0338029Y0248106D01*
X0332403Y0248106D02*
X0330803Y0248106D01*
X0330803Y0246508D02*
X0332403Y0246508D01*
X0332403Y0244909D02*
X0330803Y0244909D01*
X0330803Y0243311D02*
X0332403Y0243311D01*
X0332403Y0241712D02*
X0330803Y0241712D01*
X0330803Y0240114D02*
X0332403Y0240114D01*
X0332403Y0238515D02*
X0330803Y0238515D01*
X0330803Y0236917D02*
X0332403Y0236917D01*
X0332403Y0232121D02*
X0330803Y0232121D01*
X0330803Y0230522D02*
X0332403Y0230522D01*
X0332403Y0228924D02*
X0330803Y0228924D01*
X0330803Y0227325D02*
X0332403Y0227325D01*
X0332403Y0225727D02*
X0330803Y0225727D01*
X0330803Y0224128D02*
X0332403Y0224128D01*
X0332403Y0222530D02*
X0330803Y0222530D01*
X0330803Y0220931D02*
X0332403Y0220931D01*
X0332403Y0219333D02*
X0330803Y0219333D01*
X0330803Y0217734D02*
X0332403Y0217734D01*
X0337929Y0217734D02*
X0348772Y0217734D01*
X0348772Y0216136D02*
X0275450Y0216136D01*
X0275840Y0217734D02*
X0325277Y0217734D01*
X0325177Y0219333D02*
X0277438Y0219333D01*
X0279037Y0220931D02*
X0325177Y0220931D01*
X0325177Y0222530D02*
X0280635Y0222530D01*
X0282234Y0224128D02*
X0325177Y0224128D01*
X0325177Y0225727D02*
X0297871Y0225727D01*
X0298734Y0227325D02*
X0325177Y0227325D01*
X0325177Y0228924D02*
X0298734Y0228924D01*
X0298734Y0230522D02*
X0325177Y0230522D01*
X0338029Y0230522D02*
X0452220Y0230522D01*
X0452220Y0228924D02*
X0338029Y0228924D01*
X0338029Y0227325D02*
X0452220Y0227325D01*
X0452220Y0225842D02*
X0453275Y0224787D01*
X0459916Y0224787D01*
X0460688Y0225560D01*
X0460688Y0178660D01*
X0455757Y0183592D01*
X0447292Y0183592D01*
X0441307Y0177607D01*
X0441307Y0169143D01*
X0447292Y0163157D01*
X0455757Y0163157D01*
X0460688Y0168089D01*
X0460688Y0153384D01*
X0429741Y0153384D01*
X0427683Y0152532D01*
X0426108Y0150956D01*
X0425255Y0148898D01*
X0425255Y0133938D01*
X0424553Y0134639D01*
X0417913Y0134639D01*
X0416858Y0133585D01*
X0416858Y0126944D01*
X0417913Y0125890D01*
X0424553Y0125890D01*
X0425255Y0126591D01*
X0425255Y0125825D01*
X0117557Y0125825D01*
X0117557Y0146670D01*
X0117557Y0148898D01*
X0116705Y0150956D01*
X0115130Y0152532D01*
X0113071Y0153384D01*
X0082124Y0153384D01*
X0082124Y0168089D01*
X0087056Y0163157D01*
X0095520Y0163157D01*
X0101505Y0169143D01*
X0101505Y0177607D01*
X0095520Y0183592D01*
X0087056Y0183592D01*
X0082124Y0178660D01*
X0082124Y0435806D01*
X0087056Y0430874D01*
X0095520Y0430874D01*
X0101505Y0436859D01*
X0101505Y0445323D01*
X0097290Y0449539D01*
X0118977Y0449539D01*
X0118457Y0449018D01*
X0118457Y0442377D01*
X0119511Y0441323D01*
X0126152Y0441323D01*
X0127206Y0442377D01*
X0127206Y0449018D01*
X0126686Y0449539D01*
X0445522Y0449539D01*
X0441307Y0445323D01*
X0441307Y0436859D01*
X0447292Y0430874D01*
X0455757Y0430874D01*
X0460688Y0435806D01*
X0460688Y0232764D01*
X0459916Y0233537D01*
X0453275Y0233537D01*
X0452220Y0232483D01*
X0452220Y0225842D01*
X0452335Y0225727D02*
X0338029Y0225727D01*
X0338029Y0224128D02*
X0460688Y0224128D01*
X0460688Y0222530D02*
X0357316Y0222530D01*
X0357521Y0222325D02*
X0356467Y0223380D01*
X0349826Y0223380D01*
X0348772Y0222325D01*
X0348772Y0215684D01*
X0349826Y0214630D01*
X0356467Y0214630D01*
X0357521Y0215684D01*
X0357521Y0216260D01*
X0420022Y0216260D01*
X0424528Y0211755D01*
X0424528Y0203893D01*
X0400377Y0179742D01*
X0377159Y0179742D01*
X0377159Y0182723D01*
X0376105Y0183777D01*
X0345086Y0183777D01*
X0344031Y0182723D01*
X0344031Y0171980D01*
X0345086Y0170925D01*
X0376105Y0170925D01*
X0377159Y0171980D01*
X0377159Y0174961D01*
X0401842Y0174961D01*
X0402721Y0175325D01*
X0428272Y0200876D01*
X0428272Y0200876D01*
X0428945Y0201548D01*
X0429309Y0202427D01*
X0429309Y0213220D01*
X0428945Y0214099D01*
X0423039Y0220005D01*
X0422367Y0220677D01*
X0421488Y0221041D01*
X0357521Y0221041D01*
X0357521Y0222325D01*
X0357521Y0216136D02*
X0420146Y0216136D01*
X0421745Y0214537D02*
X0406360Y0214537D01*
X0406364Y0214534D02*
X0405309Y0215588D01*
X0374291Y0215588D01*
X0373236Y0214534D01*
X0373236Y0211553D01*
X0333994Y0211553D01*
X0333115Y0211189D01*
X0322755Y0200828D01*
X0318440Y0200828D01*
X0317386Y0199774D01*
X0317386Y0193133D01*
X0318440Y0192079D01*
X0325081Y0192079D01*
X0326135Y0193133D01*
X0326135Y0197448D01*
X0335459Y0206772D01*
X0373236Y0206772D01*
X0373236Y0203791D01*
X0374291Y0202736D01*
X0405309Y0202736D01*
X0406364Y0203791D01*
X0406364Y0214534D01*
X0406364Y0212939D02*
X0423343Y0212939D01*
X0424528Y0211340D02*
X0406364Y0211340D01*
X0406364Y0209742D02*
X0424528Y0209742D01*
X0424528Y0208143D02*
X0406364Y0208143D01*
X0406364Y0206545D02*
X0424528Y0206545D01*
X0424528Y0204946D02*
X0406364Y0204946D01*
X0405921Y0203348D02*
X0423983Y0203348D01*
X0422384Y0201749D02*
X0330437Y0201749D01*
X0328839Y0200151D02*
X0420786Y0200151D01*
X0419187Y0198552D02*
X0327240Y0198552D01*
X0326135Y0196954D02*
X0417589Y0196954D01*
X0415990Y0195355D02*
X0326135Y0195355D01*
X0326135Y0193757D02*
X0414392Y0193757D01*
X0412793Y0192158D02*
X0325160Y0192158D01*
X0327262Y0191568D02*
X0320621Y0191568D01*
X0319567Y0190514D01*
X0319567Y0183873D01*
X0320621Y0182819D01*
X0324936Y0182819D01*
X0337913Y0169841D01*
X0337913Y0153214D01*
X0338277Y0152336D01*
X0338950Y0151663D01*
X0352532Y0138080D01*
X0353411Y0137717D01*
X0368016Y0137717D01*
X0368016Y0134736D01*
X0369070Y0133681D01*
X0400089Y0133681D01*
X0401143Y0134736D01*
X0401143Y0145479D01*
X0400089Y0146533D01*
X0369070Y0146533D01*
X0368016Y0145479D01*
X0368016Y0142498D01*
X0354877Y0142498D01*
X0342694Y0154680D01*
X0342694Y0171307D01*
X0342331Y0172186D01*
X0328317Y0186200D01*
X0328317Y0190514D01*
X0327262Y0191568D01*
X0328271Y0190560D02*
X0411195Y0190560D01*
X0409596Y0188961D02*
X0328317Y0188961D01*
X0328317Y0187363D02*
X0407998Y0187363D01*
X0406399Y0185764D02*
X0328752Y0185764D01*
X0330351Y0184166D02*
X0404801Y0184166D01*
X0403202Y0182567D02*
X0377159Y0182567D01*
X0377159Y0180969D02*
X0401604Y0180969D01*
X0405168Y0177772D02*
X0441472Y0177772D01*
X0441307Y0176173D02*
X0403570Y0176173D01*
X0406767Y0179370D02*
X0443070Y0179370D01*
X0444669Y0180969D02*
X0408365Y0180969D01*
X0409964Y0182567D02*
X0446267Y0182567D01*
X0456782Y0182567D02*
X0460688Y0182567D01*
X0460688Y0180969D02*
X0458380Y0180969D01*
X0459979Y0179370D02*
X0460688Y0179370D01*
X0460688Y0184166D02*
X0411562Y0184166D01*
X0413161Y0185764D02*
X0460688Y0185764D01*
X0460688Y0187363D02*
X0414759Y0187363D01*
X0416358Y0188961D02*
X0460688Y0188961D01*
X0460688Y0190560D02*
X0417956Y0190560D01*
X0419555Y0192158D02*
X0460688Y0192158D01*
X0460688Y0193757D02*
X0421153Y0193757D01*
X0422752Y0195355D02*
X0460688Y0195355D01*
X0460688Y0196954D02*
X0424350Y0196954D01*
X0425949Y0198552D02*
X0460688Y0198552D01*
X0460688Y0200151D02*
X0427547Y0200151D01*
X0429028Y0201749D02*
X0460688Y0201749D01*
X0460688Y0203348D02*
X0429309Y0203348D01*
X0429309Y0204946D02*
X0460688Y0204946D01*
X0460688Y0206545D02*
X0429309Y0206545D01*
X0429309Y0208143D02*
X0460688Y0208143D01*
X0460688Y0209742D02*
X0429309Y0209742D01*
X0429309Y0211340D02*
X0460688Y0211340D01*
X0460688Y0212939D02*
X0429309Y0212939D01*
X0428506Y0214537D02*
X0460688Y0214537D01*
X0460688Y0216136D02*
X0426908Y0216136D01*
X0425309Y0217734D02*
X0460688Y0217734D01*
X0460688Y0219333D02*
X0423711Y0219333D01*
X0421753Y0220931D02*
X0460688Y0220931D01*
X0460688Y0233720D02*
X0436505Y0233720D01*
X0436505Y0235318D02*
X0460688Y0235318D01*
X0460688Y0236917D02*
X0436505Y0236917D01*
X0436505Y0238515D02*
X0460688Y0238515D01*
X0460688Y0240114D02*
X0436505Y0240114D01*
X0436505Y0241712D02*
X0460688Y0241712D01*
X0460688Y0243311D02*
X0436505Y0243311D01*
X0435973Y0244909D02*
X0460688Y0244909D01*
X0460688Y0246508D02*
X0394568Y0246508D01*
X0392969Y0248106D02*
X0460688Y0248106D01*
X0460688Y0249705D02*
X0391371Y0249705D01*
X0389772Y0251303D02*
X0460688Y0251303D01*
X0460688Y0252902D02*
X0388174Y0252902D01*
X0386575Y0254500D02*
X0460688Y0254500D01*
X0460688Y0256099D02*
X0384977Y0256099D01*
X0383378Y0257697D02*
X0460688Y0257697D01*
X0460688Y0259296D02*
X0381780Y0259296D01*
X0380181Y0260894D02*
X0460688Y0260894D01*
X0460688Y0262493D02*
X0378583Y0262493D01*
X0376984Y0264091D02*
X0460688Y0264091D01*
X0460688Y0265690D02*
X0375385Y0265690D01*
X0371661Y0270485D02*
X0370590Y0270485D01*
X0371661Y0272084D02*
X0368991Y0272084D01*
X0367393Y0273682D02*
X0371661Y0273682D01*
X0371661Y0275281D02*
X0365794Y0275281D01*
X0364196Y0276879D02*
X0371661Y0276879D01*
X0372220Y0278478D02*
X0362597Y0278478D01*
X0360999Y0280076D02*
X0383765Y0280076D01*
X0382166Y0281675D02*
X0359400Y0281675D01*
X0357802Y0283273D02*
X0380568Y0283273D01*
X0378969Y0284872D02*
X0355946Y0284872D01*
X0355187Y0286470D02*
X0377371Y0286470D01*
X0380935Y0289667D02*
X0460688Y0289667D01*
X0460688Y0288069D02*
X0382534Y0288069D01*
X0384132Y0286470D02*
X0460688Y0286470D01*
X0460688Y0284872D02*
X0385731Y0284872D01*
X0387329Y0283273D02*
X0460688Y0283273D01*
X0460688Y0281675D02*
X0388928Y0281675D01*
X0389939Y0280076D02*
X0460688Y0280076D01*
X0460688Y0278478D02*
X0404231Y0278478D01*
X0404789Y0276879D02*
X0460688Y0276879D01*
X0460688Y0275281D02*
X0404789Y0275281D01*
X0404789Y0273682D02*
X0460688Y0273682D01*
X0460688Y0272084D02*
X0404789Y0272084D01*
X0404789Y0270485D02*
X0460688Y0270485D01*
X0460688Y0268887D02*
X0404789Y0268887D01*
X0404789Y0267288D02*
X0460688Y0267288D01*
X0460688Y0291266D02*
X0379337Y0291266D01*
X0377738Y0292864D02*
X0460688Y0292864D01*
X0460688Y0294463D02*
X0376140Y0294463D01*
X0374541Y0296061D02*
X0460688Y0296061D01*
X0420591Y0312047D02*
X0358556Y0312047D01*
X0356958Y0313645D02*
X0420591Y0313645D01*
X0420591Y0315244D02*
X0355553Y0315244D01*
X0354658Y0316842D02*
X0420591Y0316842D01*
X0420591Y0321638D02*
X0269345Y0321638D01*
X0270007Y0320039D02*
X0296263Y0320039D01*
X0295453Y0318441D02*
X0270226Y0318441D01*
X0270159Y0316842D02*
X0295453Y0316842D01*
X0295453Y0315244D02*
X0269497Y0315244D01*
X0268224Y0313645D02*
X0295453Y0313645D01*
X0295453Y0312047D02*
X0265396Y0312047D01*
X0267856Y0323236D02*
X0420591Y0323236D01*
X0420591Y0328032D02*
X0402807Y0328032D01*
X0404002Y0329630D02*
X0420591Y0329630D01*
X0420591Y0331229D02*
X0404002Y0331229D01*
X0404002Y0332827D02*
X0420591Y0332827D01*
X0420591Y0334426D02*
X0388238Y0334426D01*
X0388238Y0336024D02*
X0386638Y0336024D01*
X0386638Y0337623D02*
X0388238Y0337623D01*
X0388238Y0339221D02*
X0386638Y0339221D01*
X0404002Y0339221D02*
X0419108Y0339221D01*
X0420591Y0337623D02*
X0404002Y0337623D01*
X0404002Y0336024D02*
X0420591Y0336024D01*
X0417510Y0340820D02*
X0355098Y0340820D01*
X0338265Y0360002D02*
X0403064Y0360002D01*
X0402661Y0361600D02*
X0338265Y0361600D01*
X0338265Y0363199D02*
X0402661Y0363199D01*
X0402661Y0369593D02*
X0394451Y0369593D01*
X0392852Y0371191D02*
X0402705Y0371191D01*
X0392485Y0364797D02*
X0338265Y0364797D01*
X0338265Y0366396D02*
X0390886Y0366396D01*
X0389288Y0367994D02*
X0338265Y0367994D01*
X0338265Y0369593D02*
X0387689Y0369593D01*
X0386091Y0371191D02*
X0338265Y0371191D01*
X0338265Y0372790D02*
X0384492Y0372790D01*
X0382894Y0374388D02*
X0338265Y0374388D01*
X0338265Y0375987D02*
X0381295Y0375987D01*
X0379697Y0377586D02*
X0338265Y0377586D01*
X0338265Y0379184D02*
X0378098Y0379184D01*
X0376500Y0380783D02*
X0338265Y0380783D01*
X0338265Y0382381D02*
X0374901Y0382381D01*
X0373303Y0383980D02*
X0338265Y0383980D01*
X0338265Y0385578D02*
X0371704Y0385578D01*
X0370106Y0387177D02*
X0338265Y0387177D01*
X0325413Y0387177D02*
X0224809Y0387177D01*
X0224686Y0385578D02*
X0223211Y0385578D01*
X0223087Y0383980D02*
X0221612Y0383980D01*
X0218048Y0387177D02*
X0167245Y0387177D01*
X0165647Y0388775D02*
X0219646Y0388775D01*
X0221245Y0390374D02*
X0192793Y0390374D01*
X0193222Y0391972D02*
X0222843Y0391972D01*
X0224442Y0393571D02*
X0193222Y0393571D01*
X0193222Y0395169D02*
X0226040Y0395169D01*
X0227598Y0396768D02*
X0193222Y0396768D01*
X0192299Y0398366D02*
X0227598Y0398366D01*
X0232380Y0398366D02*
X0299013Y0398366D01*
X0298965Y0396768D02*
X0232380Y0396768D01*
X0232387Y0395169D02*
X0299203Y0395169D01*
X0299865Y0393571D02*
X0231203Y0393571D01*
X0229605Y0391972D02*
X0301380Y0391972D01*
X0309149Y0391972D02*
X0365310Y0391972D01*
X0366909Y0390374D02*
X0228006Y0390374D01*
X0226408Y0388775D02*
X0368507Y0388775D01*
X0363712Y0393571D02*
X0310664Y0393571D01*
X0311327Y0395169D02*
X0362113Y0395169D01*
X0360515Y0396768D02*
X0311565Y0396768D01*
X0311516Y0398366D02*
X0358916Y0398366D01*
X0357318Y0399965D02*
X0310854Y0399965D01*
X0309608Y0401563D02*
X0355719Y0401563D01*
X0325413Y0385578D02*
X0267308Y0385578D01*
X0268907Y0383980D02*
X0325413Y0383980D01*
X0325413Y0382381D02*
X0270505Y0382381D01*
X0272104Y0380783D02*
X0325413Y0380783D01*
X0325413Y0379184D02*
X0273702Y0379184D01*
X0275301Y0377586D02*
X0325413Y0377586D01*
X0325413Y0375987D02*
X0276899Y0375987D01*
X0278498Y0374388D02*
X0325413Y0374388D01*
X0325413Y0367994D02*
X0246159Y0367994D01*
X0246159Y0369593D02*
X0276943Y0369593D01*
X0274933Y0371191D02*
X0246159Y0371191D01*
X0246159Y0373151D02*
X0246159Y0377214D01*
X0246036Y0377672D01*
X0245799Y0378082D01*
X0245464Y0378418D01*
X0245054Y0378654D01*
X0244596Y0378777D01*
X0230395Y0378777D01*
X0230395Y0373151D01*
X0246159Y0373151D01*
X0246159Y0374388D02*
X0271736Y0374388D01*
X0273335Y0372790D02*
X0230395Y0372790D01*
X0230395Y0374388D02*
X0228795Y0374388D01*
X0228795Y0375987D02*
X0230395Y0375987D01*
X0230395Y0377586D02*
X0228795Y0377586D01*
X0226651Y0380783D02*
X0265342Y0380783D01*
X0266941Y0379184D02*
X0225053Y0379184D01*
X0228795Y0371191D02*
X0230395Y0371191D01*
X0230395Y0369593D02*
X0228795Y0369593D01*
X0228795Y0367994D02*
X0230395Y0367994D01*
X0230395Y0366396D02*
X0228795Y0366396D01*
X0245575Y0366396D02*
X0325413Y0366396D01*
X0325413Y0364797D02*
X0210666Y0364797D01*
X0209068Y0363199D02*
X0325413Y0363199D01*
X0325413Y0361600D02*
X0207469Y0361600D01*
X0205871Y0360002D02*
X0325413Y0360002D01*
X0325413Y0358403D02*
X0204272Y0358403D01*
X0202674Y0356805D02*
X0325413Y0356805D01*
X0299675Y0399965D02*
X0246553Y0399965D01*
X0246553Y0401563D02*
X0300921Y0401563D01*
X0270138Y0375987D02*
X0246159Y0375987D01*
X0246060Y0377586D02*
X0268539Y0377586D01*
X0230364Y0345615D02*
X0228764Y0345615D01*
X0228764Y0344017D02*
X0230364Y0344017D01*
X0230364Y0339221D02*
X0228764Y0339221D01*
X0228764Y0337623D02*
X0230364Y0337623D01*
X0230364Y0336024D02*
X0228764Y0336024D01*
X0228764Y0334426D02*
X0230364Y0334426D01*
X0229361Y0323236D02*
X0211951Y0323236D01*
X0213439Y0321638D02*
X0227872Y0321638D01*
X0227210Y0320039D02*
X0214101Y0320039D01*
X0214320Y0318441D02*
X0226991Y0318441D01*
X0227058Y0316842D02*
X0214254Y0316842D01*
X0213591Y0315244D02*
X0227720Y0315244D01*
X0228993Y0313645D02*
X0212318Y0313645D01*
X0216657Y0307456D02*
X0214884Y0305684D01*
X0213925Y0303368D01*
X0213925Y0300862D01*
X0214884Y0298546D01*
X0216657Y0296774D01*
X0218972Y0295815D01*
X0221478Y0295815D01*
X0222656Y0296303D01*
X0230687Y0288272D01*
X0231566Y0287908D01*
X0248206Y0287908D01*
X0248242Y0287821D01*
X0249473Y0286590D01*
X0251081Y0285924D01*
X0252821Y0285924D01*
X0254429Y0286590D01*
X0255660Y0287821D01*
X0256326Y0289429D01*
X0256326Y0291169D01*
X0255660Y0292777D01*
X0254429Y0294008D01*
X0252821Y0294674D01*
X0251081Y0294674D01*
X0249473Y0294008D01*
X0248242Y0292777D01*
X0248206Y0292689D01*
X0233032Y0292689D01*
X0226037Y0299684D01*
X0226525Y0300862D01*
X0226525Y0303368D01*
X0225566Y0305684D01*
X0223794Y0307456D01*
X0221478Y0308415D01*
X0218972Y0308415D01*
X0216657Y0307456D01*
X0216452Y0307251D02*
X0198802Y0307251D01*
X0200382Y0305653D02*
X0214871Y0305653D01*
X0214209Y0304054D02*
X0201044Y0304054D01*
X0201328Y0302455D02*
X0213925Y0302455D01*
X0213927Y0300857D02*
X0201326Y0300857D01*
X0200664Y0299258D02*
X0214589Y0299258D01*
X0215771Y0297660D02*
X0199483Y0297660D01*
X0196877Y0296061D02*
X0218377Y0296061D01*
X0222073Y0296061D02*
X0222898Y0296061D01*
X0224496Y0294463D02*
X0190757Y0294463D01*
X0192356Y0296061D02*
X0193180Y0296061D01*
X0189159Y0292864D02*
X0226095Y0292864D01*
X0227693Y0291266D02*
X0187560Y0291266D01*
X0185962Y0289667D02*
X0229292Y0289667D01*
X0231178Y0288069D02*
X0197239Y0288069D01*
X0194392Y0288069D02*
X0184363Y0288069D01*
X0182397Y0292864D02*
X0163765Y0292864D01*
X0165363Y0294463D02*
X0183996Y0294463D01*
X0185594Y0296061D02*
X0171483Y0296061D01*
X0174089Y0297660D02*
X0187193Y0297660D01*
X0188791Y0299258D02*
X0175270Y0299258D01*
X0175933Y0300857D02*
X0188730Y0300857D01*
X0188728Y0302455D02*
X0175935Y0302455D01*
X0175651Y0304054D02*
X0189012Y0304054D01*
X0189675Y0305653D02*
X0174988Y0305653D01*
X0173408Y0307251D02*
X0191255Y0307251D01*
X0191537Y0286470D02*
X0173913Y0286470D01*
X0175198Y0284872D02*
X0190253Y0284872D01*
X0189591Y0283273D02*
X0175860Y0283273D01*
X0175935Y0281675D02*
X0189516Y0281675D01*
X0189727Y0280076D02*
X0175723Y0280076D01*
X0175061Y0278478D02*
X0189073Y0278478D01*
X0192638Y0275281D02*
X0248801Y0275281D01*
X0248242Y0274722D02*
X0248206Y0274634D01*
X0230036Y0274634D01*
X0229157Y0274270D01*
X0222656Y0267769D01*
X0221478Y0268257D01*
X0218972Y0268257D01*
X0216657Y0267298D01*
X0214884Y0265526D01*
X0213925Y0263211D01*
X0213925Y0260704D01*
X0214884Y0258389D01*
X0216657Y0256617D01*
X0218972Y0255657D01*
X0221478Y0255657D01*
X0223794Y0256617D01*
X0225566Y0258389D01*
X0226525Y0260704D01*
X0226525Y0263211D01*
X0226037Y0264389D01*
X0231502Y0269853D01*
X0248206Y0269853D01*
X0248242Y0269765D01*
X0249473Y0268535D01*
X0251081Y0267869D01*
X0252821Y0267869D01*
X0254429Y0268535D01*
X0255660Y0269765D01*
X0256326Y0271373D01*
X0256326Y0273114D01*
X0255660Y0274722D01*
X0254429Y0275952D01*
X0252821Y0276618D01*
X0251081Y0276618D01*
X0249473Y0275952D01*
X0248242Y0274722D01*
X0245397Y0277562D02*
X0246628Y0278793D01*
X0247294Y0280401D01*
X0247294Y0282141D01*
X0246628Y0283749D01*
X0245397Y0284980D01*
X0243789Y0285646D01*
X0242049Y0285646D01*
X0240441Y0284980D01*
X0239210Y0283749D01*
X0239174Y0283662D01*
X0226208Y0283662D01*
X0225566Y0285211D01*
X0223794Y0286983D01*
X0221478Y0287943D01*
X0218972Y0287943D01*
X0216657Y0286983D01*
X0214884Y0285211D01*
X0213925Y0282896D01*
X0213925Y0280389D01*
X0214884Y0278074D01*
X0216657Y0276302D01*
X0218972Y0275343D01*
X0221478Y0275343D01*
X0223794Y0276302D01*
X0225566Y0278074D01*
X0225900Y0278881D01*
X0239174Y0278881D01*
X0239210Y0278793D01*
X0240441Y0277562D01*
X0242049Y0276896D01*
X0243789Y0276896D01*
X0245397Y0277562D01*
X0246313Y0278478D02*
X0257589Y0278478D01*
X0257273Y0278793D02*
X0258504Y0277562D01*
X0260112Y0276896D01*
X0261852Y0276896D01*
X0263460Y0277562D01*
X0264691Y0278793D01*
X0265357Y0280401D01*
X0265357Y0282141D01*
X0264691Y0283749D01*
X0263460Y0284980D01*
X0261852Y0285646D01*
X0260112Y0285646D01*
X0258504Y0284980D01*
X0257273Y0283749D01*
X0256607Y0282141D01*
X0256607Y0280401D01*
X0257273Y0278793D01*
X0256742Y0280076D02*
X0247160Y0280076D01*
X0247294Y0281675D02*
X0256607Y0281675D01*
X0257076Y0283273D02*
X0246825Y0283273D01*
X0245505Y0284872D02*
X0258396Y0284872D01*
X0255762Y0288069D02*
X0280827Y0288069D01*
X0280827Y0289667D02*
X0256326Y0289667D01*
X0256285Y0291266D02*
X0280827Y0291266D01*
X0280827Y0292864D02*
X0255572Y0292864D01*
X0253329Y0294463D02*
X0280827Y0294463D01*
X0280827Y0296061D02*
X0229659Y0296061D01*
X0231258Y0294463D02*
X0250572Y0294463D01*
X0248330Y0292864D02*
X0232856Y0292864D01*
X0228061Y0297660D02*
X0280827Y0297660D01*
X0280827Y0299258D02*
X0226462Y0299258D01*
X0226523Y0300857D02*
X0279037Y0300857D01*
X0278037Y0302455D02*
X0226525Y0302455D01*
X0226241Y0304054D02*
X0278003Y0304054D01*
X0278954Y0305653D02*
X0225579Y0305653D01*
X0223999Y0307251D02*
X0295453Y0307251D01*
X0295453Y0305653D02*
X0283544Y0305653D01*
X0295453Y0308850D02*
X0118299Y0308850D01*
X0119897Y0310448D02*
X0295453Y0310448D01*
X0280827Y0286470D02*
X0254140Y0286470D01*
X0249761Y0286470D02*
X0224307Y0286470D01*
X0225707Y0284872D02*
X0240333Y0284872D01*
X0239526Y0278478D02*
X0225733Y0278478D01*
X0224372Y0276879D02*
X0280827Y0276879D01*
X0280827Y0275281D02*
X0255100Y0275281D01*
X0256090Y0273682D02*
X0280827Y0273682D01*
X0280827Y0272084D02*
X0256326Y0272084D01*
X0255958Y0270485D02*
X0280827Y0270485D01*
X0281021Y0268887D02*
X0254781Y0268887D01*
X0249121Y0268887D02*
X0230535Y0268887D01*
X0228937Y0267288D02*
X0282380Y0267288D01*
X0282795Y0265690D02*
X0227338Y0265690D01*
X0226160Y0264091D02*
X0282795Y0264091D01*
X0282795Y0262493D02*
X0226525Y0262493D01*
X0226525Y0260894D02*
X0282795Y0260894D01*
X0282795Y0259296D02*
X0225942Y0259296D01*
X0224874Y0257697D02*
X0282795Y0257697D01*
X0282795Y0256099D02*
X0222543Y0256099D01*
X0217907Y0256099D02*
X0199105Y0256099D01*
X0200951Y0257697D02*
X0215576Y0257697D01*
X0214509Y0259296D02*
X0201818Y0259296D01*
X0202259Y0260894D02*
X0213925Y0260894D01*
X0213925Y0262493D02*
X0202259Y0262493D01*
X0201752Y0264091D02*
X0214290Y0264091D01*
X0215048Y0265690D02*
X0200794Y0265690D01*
X0198725Y0267288D02*
X0216646Y0267288D01*
X0223774Y0268887D02*
X0196204Y0268887D01*
X0194606Y0270485D02*
X0225372Y0270485D01*
X0226971Y0272084D02*
X0193007Y0272084D01*
X0190700Y0273682D02*
X0228569Y0273682D01*
X0216079Y0276879D02*
X0199765Y0276879D01*
X0201242Y0278478D02*
X0214717Y0278478D01*
X0214055Y0280076D02*
X0201905Y0280076D01*
X0202116Y0281675D02*
X0213925Y0281675D01*
X0214082Y0283273D02*
X0202041Y0283273D01*
X0201379Y0284872D02*
X0214744Y0284872D01*
X0216144Y0286470D02*
X0200094Y0286470D01*
X0191041Y0267288D02*
X0189867Y0267288D01*
X0189061Y0265690D02*
X0191125Y0265690D01*
X0190166Y0264091D02*
X0175407Y0264091D01*
X0175935Y0262493D02*
X0189659Y0262493D01*
X0189659Y0260894D02*
X0175935Y0260894D01*
X0175514Y0259296D02*
X0190101Y0259296D01*
X0190967Y0257697D02*
X0174678Y0257697D01*
X0172903Y0256099D02*
X0192813Y0256099D01*
X0183136Y0265690D02*
X0182605Y0265690D01*
X0176679Y0265690D02*
X0174418Y0265690D01*
X0173425Y0267288D02*
X0175873Y0267288D01*
X0169860Y0270485D02*
X0147362Y0270485D01*
X0148960Y0268887D02*
X0168262Y0268887D01*
X0166992Y0267288D02*
X0150559Y0267288D01*
X0152157Y0265690D02*
X0164851Y0265690D01*
X0163862Y0264091D02*
X0152931Y0264091D01*
X0152931Y0262493D02*
X0163335Y0262493D01*
X0163335Y0260894D02*
X0152931Y0260894D01*
X0152931Y0259296D02*
X0163755Y0259296D01*
X0164592Y0257697D02*
X0152931Y0257697D01*
X0152931Y0256099D02*
X0166366Y0256099D01*
X0152931Y0254500D02*
X0282795Y0254500D01*
X0282795Y0252902D02*
X0152638Y0252902D01*
X0151141Y0251303D02*
X0282795Y0251303D01*
X0282795Y0249705D02*
X0126262Y0249705D01*
X0126262Y0251303D02*
X0132617Y0251303D01*
X0131018Y0252902D02*
X0126262Y0252902D01*
X0126262Y0254500D02*
X0129420Y0254500D01*
X0127821Y0256099D02*
X0126262Y0256099D01*
X0126262Y0248106D02*
X0281733Y0248106D01*
X0280135Y0246508D02*
X0126262Y0246508D01*
X0125832Y0244909D02*
X0241142Y0244909D01*
X0241142Y0243311D02*
X0124238Y0243311D01*
X0109648Y0223576D02*
X0103007Y0223576D01*
X0101953Y0222522D01*
X0101953Y0215881D01*
X0103007Y0214827D01*
X0109648Y0214827D01*
X0110702Y0215881D01*
X0110702Y0222522D01*
X0109648Y0223576D01*
X0110694Y0222530D02*
X0273874Y0222530D01*
X0275472Y0224128D02*
X0082124Y0224128D01*
X0082124Y0222530D02*
X0101961Y0222530D01*
X0101953Y0220931D02*
X0082124Y0220931D01*
X0082124Y0219333D02*
X0101953Y0219333D01*
X0101953Y0217734D02*
X0082124Y0217734D01*
X0082124Y0216136D02*
X0101953Y0216136D01*
X0110702Y0216136D02*
X0270669Y0216136D01*
X0270669Y0217734D02*
X0110702Y0217734D01*
X0110702Y0219333D02*
X0270885Y0219333D01*
X0272275Y0220931D02*
X0110702Y0220931D01*
X0097616Y0232121D02*
X0283725Y0232121D01*
X0281866Y0230522D02*
X0082124Y0230522D01*
X0082124Y0228924D02*
X0280268Y0228924D01*
X0278669Y0227325D02*
X0082124Y0227325D01*
X0082124Y0225727D02*
X0277071Y0225727D01*
X0283832Y0225727D02*
X0290847Y0225727D01*
X0289984Y0227325D02*
X0285431Y0227325D01*
X0290473Y0233720D02*
X0273608Y0233720D01*
X0274269Y0243311D02*
X0276938Y0243311D01*
X0278536Y0244909D02*
X0274269Y0244909D01*
X0241142Y0241712D02*
X0093088Y0241712D01*
X0094329Y0243311D02*
X0094950Y0243311D01*
X0097616Y0240114D02*
X0241142Y0240114D01*
X0241142Y0238515D02*
X0097616Y0238515D01*
X0097616Y0236917D02*
X0241142Y0236917D01*
X0241142Y0235318D02*
X0097616Y0235318D01*
X0097616Y0233720D02*
X0241803Y0233720D01*
X0256618Y0214537D02*
X0159545Y0214537D01*
X0159545Y0214731D02*
X0158490Y0215785D01*
X0127472Y0215785D01*
X0126417Y0214731D01*
X0126417Y0203987D01*
X0127472Y0202933D01*
X0158490Y0202933D01*
X0159545Y0203987D01*
X0159545Y0206969D01*
X0181282Y0206969D01*
X0191346Y0196905D01*
X0191346Y0196343D01*
X0191846Y0195134D01*
X0192772Y0194209D01*
X0193980Y0193708D01*
X0195289Y0193708D01*
X0196498Y0194209D01*
X0197423Y0195134D01*
X0197924Y0196343D01*
X0197924Y0197651D01*
X0197423Y0198860D01*
X0196498Y0199785D01*
X0195289Y0200286D01*
X0194726Y0200286D01*
X0183627Y0211386D01*
X0182748Y0211750D01*
X0159545Y0211750D01*
X0159545Y0214731D01*
X0159545Y0212939D02*
X0256496Y0212939D01*
X0256496Y0211340D02*
X0183672Y0211340D01*
X0185270Y0209742D02*
X0256496Y0209742D01*
X0256496Y0208143D02*
X0186869Y0208143D01*
X0188467Y0206545D02*
X0256496Y0206545D01*
X0256496Y0204946D02*
X0190066Y0204946D01*
X0191664Y0203348D02*
X0256821Y0203348D01*
X0267869Y0183103D02*
X0267459Y0182866D01*
X0267123Y0182531D01*
X0266886Y0182121D01*
X0266764Y0181663D01*
X0266764Y0177600D01*
X0282528Y0177600D01*
X0282528Y0183226D01*
X0268327Y0183226D01*
X0267869Y0183103D01*
X0267159Y0182567D02*
X0178411Y0182567D01*
X0178411Y0183510D02*
X0177357Y0184565D01*
X0146338Y0184565D01*
X0145283Y0183510D01*
X0145283Y0172767D01*
X0146338Y0171713D01*
X0177357Y0171713D01*
X0178411Y0172767D01*
X0178411Y0175748D01*
X0207668Y0175748D01*
X0226331Y0157085D01*
X0226331Y0152771D01*
X0227385Y0151717D01*
X0234026Y0151717D01*
X0235080Y0152771D01*
X0235080Y0159412D01*
X0234026Y0160466D01*
X0229711Y0160466D01*
X0210685Y0179493D01*
X0210012Y0180165D01*
X0209134Y0180529D01*
X0178411Y0180529D01*
X0178411Y0183510D01*
X0177756Y0184166D02*
X0319567Y0184166D01*
X0319567Y0185764D02*
X0129568Y0185764D01*
X0129568Y0184661D02*
X0129568Y0191301D01*
X0128514Y0192356D01*
X0121873Y0192356D01*
X0120819Y0191301D01*
X0120819Y0184661D01*
X0121873Y0183606D01*
X0123346Y0183606D01*
X0123346Y0157151D01*
X0123710Y0156273D01*
X0124383Y0155600D01*
X0141115Y0138868D01*
X0141994Y0138504D01*
X0171882Y0138504D01*
X0171882Y0135523D01*
X0172936Y0134469D01*
X0203955Y0134469D01*
X0205009Y0135523D01*
X0205009Y0146266D01*
X0203955Y0147320D01*
X0172936Y0147320D01*
X0171882Y0146266D01*
X0171882Y0143285D01*
X0143459Y0143285D01*
X0128128Y0158617D01*
X0128128Y0183606D01*
X0128514Y0183606D01*
X0129568Y0184661D01*
X0129073Y0184166D02*
X0145939Y0184166D01*
X0145283Y0182567D02*
X0128128Y0182567D01*
X0128128Y0180969D02*
X0145283Y0180969D01*
X0145283Y0179370D02*
X0128128Y0179370D01*
X0128128Y0177772D02*
X0145283Y0177772D01*
X0145283Y0176173D02*
X0128128Y0176173D01*
X0128128Y0174575D02*
X0145283Y0174575D01*
X0145283Y0172976D02*
X0128128Y0172976D01*
X0128128Y0171378D02*
X0212039Y0171378D01*
X0213637Y0169779D02*
X0128128Y0169779D01*
X0128128Y0168181D02*
X0215236Y0168181D01*
X0216834Y0166582D02*
X0128128Y0166582D01*
X0128128Y0164984D02*
X0218433Y0164984D01*
X0220031Y0163385D02*
X0128128Y0163385D01*
X0128128Y0161786D02*
X0221630Y0161786D01*
X0223228Y0160188D02*
X0128128Y0160188D01*
X0128155Y0158589D02*
X0224827Y0158589D01*
X0226331Y0156991D02*
X0129754Y0156991D01*
X0131352Y0155392D02*
X0226331Y0155392D01*
X0226331Y0153794D02*
X0132951Y0153794D01*
X0134549Y0152195D02*
X0226906Y0152195D01*
X0234505Y0152195D02*
X0251370Y0152195D01*
X0251850Y0152675D02*
X0250795Y0151620D01*
X0250795Y0140877D01*
X0251850Y0139823D01*
X0282868Y0139823D01*
X0283923Y0140877D01*
X0283923Y0143858D01*
X0299748Y0143858D01*
X0300627Y0144222D01*
X0318987Y0162583D01*
X0323301Y0162583D01*
X0324356Y0163637D01*
X0324356Y0170278D01*
X0323301Y0171332D01*
X0316661Y0171332D01*
X0315606Y0170278D01*
X0315606Y0165963D01*
X0298282Y0148639D01*
X0283923Y0148639D01*
X0283923Y0151620D01*
X0282868Y0152675D01*
X0251850Y0152675D01*
X0250795Y0150597D02*
X0136148Y0150597D01*
X0137746Y0148998D02*
X0250795Y0148998D01*
X0250795Y0147400D02*
X0139345Y0147400D01*
X0140943Y0145801D02*
X0171882Y0145801D01*
X0171882Y0144203D02*
X0142542Y0144203D01*
X0138977Y0141006D02*
X0117557Y0141006D01*
X0117557Y0142604D02*
X0137379Y0142604D01*
X0135780Y0144203D02*
X0117557Y0144203D01*
X0117557Y0145801D02*
X0134182Y0145801D01*
X0132583Y0147400D02*
X0117557Y0147400D01*
X0117516Y0148998D02*
X0130985Y0148998D01*
X0129386Y0150597D02*
X0116854Y0150597D01*
X0115466Y0152195D02*
X0127788Y0152195D01*
X0126189Y0153794D02*
X0082124Y0153794D01*
X0082124Y0155392D02*
X0124591Y0155392D01*
X0123413Y0156991D02*
X0082124Y0156991D01*
X0082124Y0158589D02*
X0123346Y0158589D01*
X0123346Y0160188D02*
X0082124Y0160188D01*
X0082124Y0161786D02*
X0123346Y0161786D01*
X0123346Y0163385D02*
X0095748Y0163385D01*
X0097346Y0164984D02*
X0123346Y0164984D01*
X0123346Y0166582D02*
X0098945Y0166582D01*
X0100543Y0168181D02*
X0123346Y0168181D01*
X0123346Y0169779D02*
X0101505Y0169779D01*
X0101505Y0171378D02*
X0123346Y0171378D01*
X0123346Y0172976D02*
X0101505Y0172976D01*
X0101505Y0174575D02*
X0123346Y0174575D01*
X0123346Y0176173D02*
X0101505Y0176173D01*
X0101341Y0177772D02*
X0123346Y0177772D01*
X0123346Y0179370D02*
X0099742Y0179370D01*
X0098144Y0180969D02*
X0123346Y0180969D01*
X0123346Y0182567D02*
X0096545Y0182567D01*
X0086031Y0182567D02*
X0082124Y0182567D01*
X0082124Y0180969D02*
X0084433Y0180969D01*
X0082834Y0179370D02*
X0082124Y0179370D01*
X0082124Y0184166D02*
X0121314Y0184166D01*
X0120819Y0185764D02*
X0082124Y0185764D01*
X0082124Y0187363D02*
X0120819Y0187363D01*
X0120819Y0188961D02*
X0082124Y0188961D01*
X0082124Y0190560D02*
X0120819Y0190560D01*
X0121676Y0192158D02*
X0082124Y0192158D01*
X0082124Y0193757D02*
X0193862Y0193757D01*
X0195407Y0193757D02*
X0317386Y0193757D01*
X0317386Y0195355D02*
X0313562Y0195355D01*
X0314088Y0195881D02*
X0313034Y0194827D01*
X0306393Y0194827D01*
X0305339Y0195881D01*
X0305339Y0202522D01*
X0306393Y0203576D01*
X0313034Y0203576D01*
X0314088Y0202522D01*
X0314088Y0195881D01*
X0314088Y0196954D02*
X0317386Y0196954D01*
X0317386Y0198552D02*
X0314088Y0198552D01*
X0314088Y0200151D02*
X0317763Y0200151D01*
X0314088Y0201749D02*
X0323676Y0201749D01*
X0325274Y0203348D02*
X0313262Y0203348D01*
X0306164Y0203348D02*
X0289299Y0203348D01*
X0289624Y0204946D02*
X0326873Y0204946D01*
X0328471Y0206545D02*
X0289624Y0206545D01*
X0289624Y0208143D02*
X0330070Y0208143D01*
X0331668Y0209742D02*
X0289624Y0209742D01*
X0289624Y0211340D02*
X0333481Y0211340D01*
X0335233Y0206545D02*
X0373236Y0206545D01*
X0373236Y0204946D02*
X0333634Y0204946D01*
X0332036Y0203348D02*
X0373679Y0203348D01*
X0373236Y0212939D02*
X0289624Y0212939D01*
X0289502Y0214537D02*
X0373240Y0214537D01*
X0348772Y0219333D02*
X0338029Y0219333D01*
X0338029Y0220931D02*
X0348772Y0220931D01*
X0348976Y0222530D02*
X0338029Y0222530D01*
X0338029Y0232121D02*
X0452220Y0232121D01*
X0403378Y0241712D02*
X0399363Y0241712D01*
X0397765Y0243311D02*
X0403378Y0243311D01*
X0403911Y0244909D02*
X0396166Y0244909D01*
X0344031Y0182567D02*
X0331949Y0182567D01*
X0333548Y0180969D02*
X0344031Y0180969D01*
X0344031Y0179370D02*
X0335146Y0179370D01*
X0336745Y0177772D02*
X0344031Y0177772D01*
X0344031Y0176173D02*
X0338343Y0176173D01*
X0339942Y0174575D02*
X0344031Y0174575D01*
X0344031Y0172976D02*
X0341540Y0172976D01*
X0342665Y0171378D02*
X0344634Y0171378D01*
X0342694Y0169779D02*
X0441307Y0169779D01*
X0441307Y0171378D02*
X0376557Y0171378D01*
X0377159Y0172976D02*
X0441307Y0172976D01*
X0441307Y0174575D02*
X0377159Y0174575D01*
X0368338Y0145801D02*
X0351573Y0145801D01*
X0353172Y0144203D02*
X0368016Y0144203D01*
X0368016Y0142604D02*
X0354770Y0142604D01*
X0351206Y0139407D02*
X0205009Y0139407D01*
X0205009Y0137809D02*
X0353188Y0137809D01*
X0349607Y0141006D02*
X0283923Y0141006D01*
X0283923Y0142604D02*
X0348009Y0142604D01*
X0346410Y0144203D02*
X0300580Y0144203D01*
X0302206Y0145801D02*
X0344812Y0145801D01*
X0343213Y0147400D02*
X0303804Y0147400D01*
X0305403Y0148998D02*
X0341615Y0148998D01*
X0340016Y0150597D02*
X0307001Y0150597D01*
X0308600Y0152195D02*
X0338418Y0152195D01*
X0337913Y0153794D02*
X0310198Y0153794D01*
X0311797Y0155392D02*
X0337913Y0155392D01*
X0337913Y0156991D02*
X0313395Y0156991D01*
X0314994Y0158589D02*
X0337913Y0158589D01*
X0337913Y0160188D02*
X0316592Y0160188D01*
X0318191Y0161786D02*
X0337913Y0161786D01*
X0337913Y0163385D02*
X0324104Y0163385D01*
X0324356Y0164984D02*
X0337913Y0164984D01*
X0337913Y0166582D02*
X0324356Y0166582D01*
X0324356Y0168181D02*
X0337913Y0168181D01*
X0337913Y0169779D02*
X0324356Y0169779D01*
X0315606Y0169779D02*
X0220399Y0169779D01*
X0221997Y0168181D02*
X0315606Y0168181D01*
X0315606Y0166582D02*
X0223596Y0166582D01*
X0225194Y0164984D02*
X0314626Y0164984D01*
X0313028Y0163385D02*
X0226793Y0163385D01*
X0228391Y0161786D02*
X0311429Y0161786D01*
X0309831Y0160188D02*
X0234304Y0160188D01*
X0235080Y0158589D02*
X0308232Y0158589D01*
X0306634Y0156991D02*
X0235080Y0156991D01*
X0235080Y0155392D02*
X0305035Y0155392D01*
X0303437Y0153794D02*
X0235080Y0153794D01*
X0250795Y0145801D02*
X0205009Y0145801D01*
X0205009Y0144203D02*
X0250795Y0144203D01*
X0250795Y0142604D02*
X0205009Y0142604D01*
X0205009Y0141006D02*
X0250795Y0141006D01*
X0229474Y0134372D02*
X0229474Y0127732D01*
X0228420Y0126677D01*
X0221779Y0126677D01*
X0220724Y0127732D01*
X0220724Y0134372D01*
X0221779Y0135427D01*
X0228420Y0135427D01*
X0229474Y0134372D01*
X0229235Y0134612D02*
X0368139Y0134612D01*
X0368016Y0136210D02*
X0205009Y0136210D01*
X0204098Y0134612D02*
X0220964Y0134612D01*
X0220724Y0133013D02*
X0117557Y0133013D01*
X0117557Y0131415D02*
X0220724Y0131415D01*
X0220724Y0129816D02*
X0117557Y0129816D01*
X0117557Y0128218D02*
X0220724Y0128218D01*
X0229474Y0128218D02*
X0416858Y0128218D01*
X0416858Y0129816D02*
X0229474Y0129816D01*
X0229474Y0131415D02*
X0416858Y0131415D01*
X0416858Y0133013D02*
X0229474Y0133013D01*
X0218800Y0171378D02*
X0266945Y0171378D01*
X0266886Y0171479D02*
X0267123Y0171069D01*
X0267459Y0170734D01*
X0267869Y0170497D01*
X0268327Y0170374D01*
X0282528Y0170374D01*
X0282528Y0176000D01*
X0284128Y0176000D01*
X0284128Y0177600D01*
X0299891Y0177600D01*
X0299891Y0181663D01*
X0299769Y0182121D01*
X0299532Y0182531D01*
X0299197Y0182866D01*
X0298786Y0183103D01*
X0298328Y0183226D01*
X0284128Y0183226D01*
X0284128Y0177600D01*
X0282528Y0177600D01*
X0282528Y0176000D01*
X0266764Y0176000D01*
X0266764Y0171937D01*
X0266886Y0171479D01*
X0266764Y0172976D02*
X0217202Y0172976D01*
X0215603Y0174575D02*
X0266764Y0174575D01*
X0266764Y0177772D02*
X0212406Y0177772D01*
X0210807Y0179370D02*
X0266764Y0179370D01*
X0266764Y0180969D02*
X0178411Y0180969D01*
X0178411Y0174575D02*
X0208842Y0174575D01*
X0210440Y0172976D02*
X0178411Y0172976D01*
X0191755Y0195355D02*
X0082124Y0195355D01*
X0082124Y0196954D02*
X0191297Y0196954D01*
X0189698Y0198552D02*
X0082124Y0198552D01*
X0082124Y0200151D02*
X0188100Y0200151D01*
X0186501Y0201749D02*
X0082124Y0201749D01*
X0082124Y0203348D02*
X0127057Y0203348D01*
X0126417Y0204946D02*
X0082124Y0204946D01*
X0082124Y0206545D02*
X0126417Y0206545D01*
X0126417Y0208143D02*
X0082124Y0208143D01*
X0082124Y0209742D02*
X0126417Y0209742D01*
X0126417Y0211340D02*
X0082124Y0211340D01*
X0082124Y0212939D02*
X0126417Y0212939D01*
X0126417Y0214537D02*
X0082124Y0214537D01*
X0082124Y0232121D02*
X0083780Y0232121D01*
X0083780Y0233720D02*
X0082124Y0233720D01*
X0082124Y0235318D02*
X0083780Y0235318D01*
X0083780Y0236917D02*
X0082124Y0236917D01*
X0082124Y0238515D02*
X0083780Y0238515D01*
X0083780Y0240114D02*
X0082124Y0240114D01*
X0082124Y0241712D02*
X0088307Y0241712D01*
X0088307Y0243311D02*
X0082124Y0243311D01*
X0082124Y0244909D02*
X0089166Y0244909D01*
X0090765Y0246508D02*
X0082124Y0246508D01*
X0082124Y0248106D02*
X0092363Y0248106D01*
X0094016Y0249705D02*
X0082124Y0249705D01*
X0082124Y0251303D02*
X0094016Y0251303D01*
X0094016Y0252902D02*
X0082124Y0252902D01*
X0082124Y0254500D02*
X0094016Y0254500D01*
X0094016Y0256099D02*
X0082124Y0256099D01*
X0082124Y0257697D02*
X0094016Y0257697D01*
X0094016Y0259296D02*
X0082124Y0259296D01*
X0082124Y0260894D02*
X0094016Y0260894D01*
X0094016Y0262493D02*
X0082124Y0262493D01*
X0082124Y0264091D02*
X0093819Y0264091D01*
X0093819Y0265690D02*
X0082124Y0265690D01*
X0082124Y0267288D02*
X0093819Y0267288D01*
X0093819Y0268887D02*
X0082124Y0268887D01*
X0082124Y0270485D02*
X0093819Y0270485D01*
X0093819Y0272084D02*
X0082124Y0272084D01*
X0082124Y0273682D02*
X0093819Y0273682D01*
X0093922Y0275281D02*
X0082124Y0275281D01*
X0082124Y0276879D02*
X0094016Y0276879D01*
X0094016Y0278478D02*
X0082124Y0278478D01*
X0082124Y0280076D02*
X0094016Y0280076D01*
X0094016Y0281675D02*
X0082124Y0281675D01*
X0082124Y0283273D02*
X0094016Y0283273D01*
X0094016Y0284872D02*
X0082124Y0284872D01*
X0082124Y0286470D02*
X0094016Y0286470D01*
X0094016Y0288069D02*
X0082124Y0288069D01*
X0082124Y0289667D02*
X0094016Y0289667D01*
X0094016Y0291266D02*
X0082124Y0291266D01*
X0082124Y0292864D02*
X0094016Y0292864D01*
X0094016Y0294463D02*
X0082124Y0294463D01*
X0082124Y0296061D02*
X0094016Y0296061D01*
X0094016Y0297660D02*
X0082124Y0297660D01*
X0082124Y0299258D02*
X0094016Y0299258D01*
X0094016Y0300857D02*
X0082124Y0300857D01*
X0082124Y0302455D02*
X0094016Y0302455D01*
X0094016Y0304054D02*
X0082124Y0304054D01*
X0082124Y0305653D02*
X0094016Y0305653D01*
X0094076Y0307251D02*
X0082124Y0307251D01*
X0096852Y0310448D02*
X0112022Y0310448D01*
X0113621Y0312047D02*
X0097616Y0312047D01*
X0111905Y0302455D02*
X0128996Y0302455D01*
X0127397Y0300857D02*
X0110306Y0300857D01*
X0113503Y0304054D02*
X0130595Y0304054D01*
X0138100Y0305653D02*
X0115102Y0305653D01*
X0116700Y0307251D02*
X0139680Y0307251D01*
X0147227Y0307251D02*
X0165861Y0307251D01*
X0164281Y0305653D02*
X0148807Y0305653D01*
X0149469Y0304054D02*
X0163619Y0304054D01*
X0163335Y0302455D02*
X0149754Y0302455D01*
X0149752Y0300857D02*
X0163337Y0300857D01*
X0163397Y0299258D02*
X0149089Y0299258D01*
X0147908Y0297660D02*
X0161799Y0297660D01*
X0160200Y0296061D02*
X0145302Y0296061D01*
X0166962Y0296061D02*
X0167786Y0296061D01*
X0153025Y0336024D02*
X0151425Y0336024D01*
X0151425Y0337623D02*
X0153025Y0337623D01*
X0153025Y0342418D02*
X0151425Y0342418D01*
X0151425Y0344017D02*
X0153025Y0344017D01*
X0153025Y0345615D02*
X0151425Y0345615D01*
X0151425Y0347214D02*
X0153025Y0347214D01*
X0135661Y0339221D02*
X0082124Y0339221D01*
X0082124Y0337623D02*
X0135661Y0337623D01*
X0135748Y0336024D02*
X0082124Y0336024D01*
X0159253Y0395169D02*
X0184420Y0395169D01*
X0184472Y0393571D02*
X0160851Y0393571D01*
X0162450Y0391972D02*
X0184472Y0391972D01*
X0184901Y0390374D02*
X0164048Y0390374D01*
X0168844Y0385578D02*
X0188631Y0385578D01*
X0188567Y0383980D02*
X0170442Y0383980D01*
X0172041Y0382381D02*
X0188567Y0382381D01*
X0188567Y0380783D02*
X0173639Y0380783D01*
X0175238Y0379184D02*
X0188567Y0379184D01*
X0181632Y0372790D02*
X0209082Y0372790D01*
X0209082Y0374388D02*
X0180033Y0374388D01*
X0178435Y0375987D02*
X0209082Y0375987D01*
X0209082Y0377586D02*
X0176836Y0377586D01*
X0183230Y0371191D02*
X0209082Y0371191D01*
X0208700Y0369593D02*
X0184829Y0369593D01*
X0186427Y0367994D02*
X0207102Y0367994D01*
X0205503Y0366396D02*
X0192340Y0366396D01*
X0193222Y0364797D02*
X0203905Y0364797D01*
X0202306Y0363199D02*
X0193222Y0363199D01*
X0193222Y0361600D02*
X0200708Y0361600D01*
X0199109Y0360002D02*
X0193222Y0360002D01*
X0192752Y0358403D02*
X0197511Y0358403D01*
X0195912Y0356805D02*
X0172066Y0356805D01*
X0173664Y0355206D02*
X0194314Y0355206D01*
X0186004Y0337623D02*
X0213000Y0337623D01*
X0213000Y0336024D02*
X0187602Y0336024D01*
X0193254Y0334426D02*
X0213846Y0334426D01*
X0213615Y0366396D02*
X0212265Y0366396D01*
X0209723Y0379184D02*
X0197317Y0379184D01*
X0197253Y0385578D02*
X0216449Y0385578D01*
X0213425Y0399965D02*
X0186386Y0399965D01*
X0184788Y0401563D02*
X0213425Y0401563D01*
X0213425Y0403162D02*
X0183189Y0403162D01*
X0181591Y0404760D02*
X0213425Y0404760D01*
X0213425Y0406359D02*
X0179992Y0406359D01*
X0178394Y0407957D02*
X0213425Y0407957D01*
X0213425Y0409556D02*
X0176795Y0409556D01*
X0175197Y0411154D02*
X0189357Y0411154D01*
X0188961Y0412753D02*
X0173598Y0412753D01*
X0172000Y0414351D02*
X0188961Y0414351D01*
X0188961Y0415950D02*
X0170401Y0415950D01*
X0168803Y0417548D02*
X0188961Y0417548D01*
X0189916Y0419147D02*
X0167204Y0419147D01*
X0165605Y0420745D02*
X0195829Y0420745D01*
X0197428Y0422344D02*
X0164007Y0422344D01*
X0162408Y0423942D02*
X0199026Y0423942D01*
X0200625Y0425541D02*
X0161876Y0425541D01*
X0161876Y0427139D02*
X0202223Y0427139D01*
X0200992Y0419147D02*
X0423055Y0419147D01*
X0431805Y0419147D02*
X0460688Y0419147D01*
X0460688Y0420745D02*
X0431805Y0420745D01*
X0431805Y0422344D02*
X0460688Y0422344D01*
X0460688Y0423942D02*
X0407340Y0423942D01*
X0407340Y0425541D02*
X0460688Y0425541D01*
X0460688Y0427139D02*
X0407340Y0427139D01*
X0407340Y0428738D02*
X0460688Y0428738D01*
X0460688Y0430336D02*
X0407340Y0430336D01*
X0407340Y0431935D02*
X0446231Y0431935D01*
X0444633Y0433533D02*
X0407340Y0433533D01*
X0406703Y0435132D02*
X0443034Y0435132D01*
X0441436Y0436730D02*
X0295923Y0436730D01*
X0295923Y0438329D02*
X0441307Y0438329D01*
X0441307Y0439927D02*
X0295608Y0439927D01*
X0263110Y0439927D02*
X0176049Y0439927D01*
X0176049Y0438329D02*
X0262795Y0438329D01*
X0262795Y0436730D02*
X0176049Y0436730D01*
X0175750Y0441526D02*
X0441307Y0441526D01*
X0441307Y0443124D02*
X0127206Y0443124D01*
X0127206Y0444723D02*
X0441307Y0444723D01*
X0442305Y0446322D02*
X0127206Y0446322D01*
X0127206Y0447920D02*
X0443904Y0447920D01*
X0445502Y0449519D02*
X0126706Y0449519D01*
X0118957Y0449519D02*
X0097310Y0449519D01*
X0098909Y0447920D02*
X0118457Y0447920D01*
X0118457Y0446322D02*
X0100507Y0446322D01*
X0101505Y0444723D02*
X0118457Y0444723D01*
X0118457Y0443124D02*
X0101505Y0443124D01*
X0101505Y0441526D02*
X0119308Y0441526D01*
X0126355Y0441526D02*
X0143221Y0441526D01*
X0142921Y0439927D02*
X0101505Y0439927D01*
X0101505Y0438329D02*
X0142921Y0438329D01*
X0142921Y0436730D02*
X0101377Y0436730D01*
X0099778Y0435132D02*
X0142921Y0435132D01*
X0142921Y0433533D02*
X0098180Y0433533D01*
X0096581Y0431935D02*
X0142921Y0431935D01*
X0143068Y0430336D02*
X0082124Y0430336D01*
X0082124Y0431935D02*
X0085995Y0431935D01*
X0084397Y0433533D02*
X0082124Y0433533D01*
X0082124Y0435132D02*
X0082798Y0435132D01*
X0197314Y0411154D02*
X0214180Y0411154D01*
X0263568Y0284872D02*
X0280827Y0284872D01*
X0280827Y0283273D02*
X0264888Y0283273D01*
X0265357Y0281675D02*
X0280827Y0281675D01*
X0280827Y0280076D02*
X0265223Y0280076D01*
X0264376Y0278478D02*
X0280827Y0278478D01*
X0305339Y0201749D02*
X0193263Y0201749D01*
X0195615Y0200151D02*
X0305339Y0200151D01*
X0305339Y0198552D02*
X0197550Y0198552D01*
X0197924Y0196954D02*
X0305339Y0196954D01*
X0305865Y0195355D02*
X0197515Y0195355D01*
X0184903Y0203348D02*
X0158905Y0203348D01*
X0159545Y0204946D02*
X0183304Y0204946D01*
X0181706Y0206545D02*
X0159545Y0206545D01*
X0129568Y0190560D02*
X0319613Y0190560D01*
X0319567Y0188961D02*
X0129568Y0188961D01*
X0129568Y0187363D02*
X0319567Y0187363D01*
X0318361Y0192158D02*
X0128712Y0192158D01*
X0086829Y0163385D02*
X0082124Y0163385D01*
X0082124Y0164984D02*
X0085230Y0164984D01*
X0083631Y0166582D02*
X0082124Y0166582D01*
X0117557Y0139407D02*
X0140576Y0139407D01*
X0117557Y0137809D02*
X0171882Y0137809D01*
X0171882Y0136210D02*
X0117557Y0136210D01*
X0117557Y0134612D02*
X0172793Y0134612D01*
X0214004Y0176173D02*
X0282528Y0176173D01*
X0282528Y0174575D02*
X0284128Y0174575D01*
X0284128Y0176000D02*
X0284128Y0170374D01*
X0298328Y0170374D01*
X0298786Y0170497D01*
X0299197Y0170734D01*
X0299532Y0171069D01*
X0299769Y0171479D01*
X0299891Y0171937D01*
X0299891Y0176000D01*
X0284128Y0176000D01*
X0284128Y0176173D02*
X0331582Y0176173D01*
X0333180Y0174575D02*
X0299891Y0174575D01*
X0299891Y0172976D02*
X0334779Y0172976D01*
X0336377Y0171378D02*
X0299710Y0171378D01*
X0299891Y0177772D02*
X0329983Y0177772D01*
X0328385Y0179370D02*
X0299891Y0179370D01*
X0299891Y0180969D02*
X0326786Y0180969D01*
X0325188Y0182567D02*
X0299496Y0182567D01*
X0284128Y0182567D02*
X0282528Y0182567D01*
X0282528Y0180969D02*
X0284128Y0180969D01*
X0284128Y0179370D02*
X0282528Y0179370D01*
X0282528Y0177772D02*
X0284128Y0177772D01*
X0284128Y0172976D02*
X0282528Y0172976D01*
X0282528Y0171378D02*
X0284128Y0171378D01*
X0283348Y0152195D02*
X0301838Y0152195D01*
X0300240Y0150597D02*
X0283923Y0150597D01*
X0283923Y0148998D02*
X0298641Y0148998D01*
X0342694Y0155392D02*
X0460688Y0155392D01*
X0460688Y0153794D02*
X0343580Y0153794D01*
X0345179Y0152195D02*
X0427347Y0152195D01*
X0425959Y0150597D02*
X0346778Y0150597D01*
X0348376Y0148998D02*
X0425297Y0148998D01*
X0425255Y0147400D02*
X0349975Y0147400D01*
X0342694Y0156991D02*
X0460688Y0156991D01*
X0460688Y0158589D02*
X0342694Y0158589D01*
X0342694Y0160188D02*
X0460688Y0160188D01*
X0460688Y0161786D02*
X0342694Y0161786D01*
X0342694Y0163385D02*
X0447065Y0163385D01*
X0445466Y0164984D02*
X0342694Y0164984D01*
X0342694Y0166582D02*
X0443868Y0166582D01*
X0442269Y0168181D02*
X0342694Y0168181D01*
X0400821Y0145801D02*
X0425255Y0145801D01*
X0425255Y0144203D02*
X0401143Y0144203D01*
X0401143Y0142604D02*
X0425255Y0142604D01*
X0425255Y0141006D02*
X0401143Y0141006D01*
X0401143Y0139407D02*
X0425255Y0139407D01*
X0425255Y0137809D02*
X0401143Y0137809D01*
X0401143Y0136210D02*
X0425255Y0136210D01*
X0425255Y0134612D02*
X0424581Y0134612D01*
X0417885Y0134612D02*
X0401020Y0134612D01*
X0417183Y0126619D02*
X0117557Y0126619D01*
X0210685Y0179493D02*
X0210685Y0179493D01*
X0424335Y0340756D02*
X0424335Y0340756D01*
X0405112Y0393571D02*
X0460688Y0393571D01*
X0460688Y0395169D02*
X0405112Y0395169D01*
X0405112Y0396768D02*
X0460688Y0396768D01*
X0460688Y0398366D02*
X0405112Y0398366D01*
X0405112Y0399965D02*
X0460688Y0399965D01*
X0460688Y0401563D02*
X0405112Y0401563D01*
X0405112Y0403162D02*
X0460688Y0403162D01*
X0460688Y0404760D02*
X0404649Y0404760D01*
X0431795Y0415950D02*
X0460688Y0415950D01*
X0460688Y0417548D02*
X0431805Y0417548D01*
X0456817Y0431935D02*
X0460688Y0431935D01*
X0460688Y0433533D02*
X0458416Y0433533D01*
X0460014Y0435132D02*
X0460688Y0435132D01*
X0460688Y0166582D02*
X0459181Y0166582D01*
X0460688Y0164984D02*
X0457583Y0164984D01*
X0455984Y0163385D02*
X0460688Y0163385D01*
D23*
X0308808Y0354477D03*
X0308808Y0364320D03*
X0296997Y0364320D03*
X0285186Y0360383D03*
D24*
X0111957Y0147784D02*
X0111957Y0120225D01*
X0430855Y0120225D01*
X0430855Y0147784D01*
X0466288Y0147784D01*
X0466288Y0455139D01*
X0076524Y0455139D01*
X0076524Y0147784D01*
X0111957Y0147784D01*
D25*
X0106839Y0301328D02*
X0110776Y0305265D01*
X0128887Y0323375D01*
X0202509Y0323375D01*
X0208020Y0318257D01*
X0110776Y0305265D02*
X0106839Y0305265D01*
M02*
