G75*
%MOIN*%
%OFA0B0*%
%FSLAX25Y25*%
%IPPOS*%
%LPD*%
%AMOC8*
5,1,8,0,0,1.08239X$1,22.5*
%
%ADD10C,0.01000*%
%ADD11C,0.00600*%
%ADD12C,0.00300*%
%ADD13C,0.00200*%
%ADD14C,0.01181*%
%ADD15C,0.00500*%
D10*
X0232430Y0372587D02*
X0232430Y0392272D01*
X0269831Y0392272D01*
X0269831Y0372587D01*
X0232430Y0372587D01*
X0232430Y0372849D02*
X0269831Y0372849D01*
X0269831Y0373847D02*
X0232430Y0373847D01*
X0232430Y0374846D02*
X0269831Y0374846D01*
X0269831Y0375844D02*
X0232430Y0375844D01*
X0232430Y0376843D02*
X0269831Y0376843D01*
X0269831Y0377841D02*
X0232430Y0377841D01*
X0232430Y0378840D02*
X0269831Y0378840D01*
X0269831Y0379838D02*
X0232430Y0379838D01*
X0232430Y0380837D02*
X0269831Y0380837D01*
X0269831Y0381835D02*
X0232430Y0381835D01*
X0232430Y0382834D02*
X0269831Y0382834D01*
X0269831Y0383832D02*
X0232430Y0383832D01*
X0232430Y0384831D02*
X0269831Y0384831D01*
X0269831Y0385829D02*
X0232430Y0385829D01*
X0232430Y0386828D02*
X0269831Y0386828D01*
X0269831Y0387826D02*
X0232430Y0387826D01*
X0232430Y0388825D02*
X0269831Y0388825D01*
X0269831Y0389823D02*
X0232430Y0389823D01*
X0232430Y0390822D02*
X0269831Y0390822D01*
X0269831Y0391820D02*
X0232430Y0391820D01*
D11*
X0128440Y0219450D02*
X0124170Y0213045D01*
X0128440Y0213045D02*
X0124170Y0219450D01*
X0130616Y0216248D02*
X0134886Y0216248D01*
X0132751Y0218383D02*
X0132751Y0214112D01*
X0259603Y0161970D02*
X0259603Y0160902D01*
X0261738Y0158767D01*
X0261738Y0155565D01*
X0261738Y0158767D02*
X0263873Y0160902D01*
X0263873Y0161970D01*
X0266049Y0158767D02*
X0270319Y0158767D01*
X0398579Y0265013D02*
X0402850Y0271419D01*
X0405025Y0268216D02*
X0409295Y0268216D01*
X0402850Y0265013D02*
X0398579Y0271419D01*
X0300467Y0418837D02*
X0300467Y0423107D01*
X0302602Y0420972D02*
X0298332Y0420972D01*
X0296157Y0423107D02*
X0294022Y0420972D01*
X0294022Y0417769D01*
X0294022Y0420972D02*
X0291887Y0423107D01*
X0291887Y0424175D01*
X0296157Y0424175D02*
X0296157Y0423107D01*
D12*
X0288579Y0410629D02*
X0286956Y0410629D01*
X0286415Y0410088D01*
X0286415Y0409547D01*
X0286956Y0409006D01*
X0288579Y0409006D01*
X0286956Y0409006D02*
X0286415Y0408465D01*
X0286415Y0407924D01*
X0286956Y0407383D01*
X0288579Y0407383D01*
X0288579Y0410629D01*
X0285317Y0409547D02*
X0285317Y0407383D01*
X0285317Y0408465D02*
X0284234Y0409547D01*
X0283693Y0409547D01*
X0282598Y0409006D02*
X0282598Y0407924D01*
X0282057Y0407383D01*
X0280975Y0407383D01*
X0280434Y0407924D01*
X0280434Y0409006D01*
X0280975Y0409547D01*
X0282057Y0409547D01*
X0282598Y0409006D01*
X0279335Y0409547D02*
X0279335Y0407924D01*
X0278794Y0407383D01*
X0278253Y0407924D01*
X0277712Y0407383D01*
X0277171Y0407924D01*
X0277171Y0409547D01*
X0276072Y0409547D02*
X0274449Y0409547D01*
X0273908Y0409006D01*
X0273908Y0407383D01*
X0276072Y0407383D02*
X0276072Y0409547D01*
X0275381Y0403642D02*
X0273758Y0403642D01*
X0274299Y0402560D02*
X0275381Y0402560D01*
X0275922Y0403101D01*
X0275381Y0403642D01*
X0274299Y0402560D02*
X0273758Y0402019D01*
X0274299Y0401478D01*
X0275922Y0401478D01*
X0277021Y0402560D02*
X0279185Y0402560D01*
X0279185Y0403101D02*
X0278644Y0403642D01*
X0277562Y0403642D01*
X0277021Y0403101D01*
X0277021Y0402560D01*
X0277562Y0401478D02*
X0278644Y0401478D01*
X0279185Y0402019D01*
X0279185Y0403101D01*
X0280284Y0403642D02*
X0281907Y0403642D01*
X0282448Y0403101D01*
X0282448Y0402019D01*
X0281907Y0401478D01*
X0280284Y0401478D01*
X0283546Y0401478D02*
X0285169Y0401478D01*
X0285710Y0402019D01*
X0285710Y0403101D01*
X0285169Y0403642D01*
X0283546Y0403642D01*
X0286809Y0403642D02*
X0286809Y0401478D01*
X0286809Y0403101D02*
X0288973Y0403101D01*
X0288973Y0403642D02*
X0287891Y0404724D01*
X0286809Y0403642D01*
X0288973Y0403642D02*
X0288973Y0401478D01*
X0287891Y0398424D02*
X0286809Y0397342D01*
X0286809Y0395178D01*
X0285710Y0395719D02*
X0285169Y0395178D01*
X0283546Y0395178D01*
X0283546Y0397342D01*
X0282448Y0396801D02*
X0282448Y0395719D01*
X0281907Y0395178D01*
X0280284Y0395178D01*
X0280284Y0394637D02*
X0280284Y0397342D01*
X0281907Y0397342D01*
X0282448Y0396801D01*
X0281366Y0394096D02*
X0280825Y0394096D01*
X0280284Y0394637D01*
X0279185Y0395719D02*
X0278644Y0395178D01*
X0277021Y0395178D01*
X0277021Y0397342D01*
X0275922Y0396801D02*
X0275381Y0397342D01*
X0273758Y0397342D01*
X0272660Y0397342D02*
X0271578Y0397342D01*
X0272119Y0397883D02*
X0272119Y0395719D01*
X0271578Y0395178D01*
X0273758Y0395719D02*
X0274299Y0396260D01*
X0275381Y0396260D01*
X0275922Y0396801D01*
X0275922Y0395178D02*
X0274299Y0395178D01*
X0273758Y0395719D01*
X0279185Y0395719D02*
X0279185Y0397342D01*
X0285710Y0397342D02*
X0285710Y0395719D01*
X0286809Y0396801D02*
X0288973Y0396801D01*
X0288973Y0397342D02*
X0287891Y0398424D01*
X0288973Y0397342D02*
X0288973Y0395178D01*
X0281099Y0386860D02*
X0281099Y0386319D01*
X0280558Y0385778D01*
X0279476Y0385778D01*
X0278935Y0385237D01*
X0278935Y0384696D01*
X0279476Y0384155D01*
X0280558Y0384155D01*
X0281099Y0384696D01*
X0281099Y0386860D02*
X0280558Y0387401D01*
X0279476Y0387401D01*
X0278935Y0386860D01*
X0277836Y0387401D02*
X0275672Y0384155D01*
X0275672Y0387401D01*
X0274574Y0386319D02*
X0274574Y0385778D01*
X0274033Y0385778D01*
X0274033Y0386319D01*
X0274574Y0386319D01*
X0274574Y0384696D02*
X0274574Y0384155D01*
X0274033Y0384155D01*
X0274033Y0384696D01*
X0274574Y0384696D01*
X0277836Y0384155D02*
X0277836Y0387401D01*
X0267222Y0395178D02*
X0265058Y0397342D01*
X0265058Y0397883D01*
X0265599Y0398424D01*
X0266681Y0398424D01*
X0267222Y0397883D01*
X0267222Y0395178D02*
X0265058Y0395178D01*
X0263959Y0395719D02*
X0261795Y0397883D01*
X0261795Y0395719D01*
X0262336Y0395178D01*
X0263418Y0395178D01*
X0263959Y0395719D01*
X0263959Y0397883D01*
X0263418Y0398424D01*
X0262336Y0398424D01*
X0261795Y0397883D01*
X0260697Y0397342D02*
X0259615Y0398424D01*
X0259615Y0395178D01*
X0260697Y0395178D02*
X0258533Y0395178D01*
X0257434Y0395178D02*
X0257434Y0395719D01*
X0255270Y0397883D01*
X0255270Y0398424D01*
X0257434Y0398424D01*
X0257445Y0401478D02*
X0257445Y0403101D01*
X0257986Y0403642D01*
X0259609Y0403642D01*
X0259609Y0401478D01*
X0260708Y0401478D02*
X0262331Y0401478D01*
X0262872Y0402019D01*
X0262331Y0402560D01*
X0260708Y0402560D01*
X0260708Y0403101D02*
X0260708Y0401478D01*
X0260708Y0403101D02*
X0261249Y0403642D01*
X0262331Y0403642D01*
X0263970Y0404183D02*
X0263970Y0403101D01*
X0264511Y0402560D01*
X0266134Y0402560D01*
X0266134Y0401478D02*
X0266134Y0404724D01*
X0264511Y0404724D01*
X0263970Y0404183D01*
X0266285Y0406301D02*
X0266285Y0409547D01*
X0264662Y0409547D01*
X0264120Y0409006D01*
X0264120Y0407924D01*
X0264662Y0407383D01*
X0266285Y0407383D01*
X0267383Y0407924D02*
X0267924Y0407383D01*
X0269006Y0407383D01*
X0269547Y0407924D01*
X0269006Y0409006D02*
X0267924Y0409006D01*
X0267383Y0408465D01*
X0267383Y0407924D01*
X0269006Y0409006D02*
X0269547Y0409547D01*
X0269547Y0410088D01*
X0269006Y0410629D01*
X0267924Y0410629D01*
X0267383Y0410088D01*
X0263022Y0407924D02*
X0262481Y0408465D01*
X0260858Y0408465D01*
X0260858Y0409006D02*
X0260858Y0407383D01*
X0262481Y0407383D01*
X0263022Y0407924D01*
X0262481Y0409547D02*
X0261399Y0409547D01*
X0260858Y0409006D01*
X0259759Y0409006D02*
X0259759Y0407924D01*
X0259218Y0407383D01*
X0257595Y0407383D01*
X0256497Y0407924D02*
X0256497Y0409006D01*
X0255956Y0409547D01*
X0254874Y0409547D01*
X0254333Y0409006D01*
X0254333Y0408465D01*
X0256497Y0408465D01*
X0256497Y0407924D02*
X0255956Y0407383D01*
X0254874Y0407383D01*
X0253084Y0404724D02*
X0252543Y0404724D01*
X0252543Y0401478D01*
X0253084Y0401478D02*
X0252002Y0401478D01*
X0254183Y0402560D02*
X0256347Y0402560D01*
X0256347Y0403101D02*
X0255806Y0403642D01*
X0254724Y0403642D01*
X0254183Y0403101D01*
X0254183Y0402560D01*
X0254724Y0401478D02*
X0255806Y0401478D01*
X0256347Y0402019D01*
X0256347Y0403101D01*
X0257595Y0409547D02*
X0259218Y0409547D01*
X0259759Y0409006D01*
X0249971Y0409006D02*
X0248889Y0409006D01*
X0249971Y0407383D02*
X0247807Y0407383D01*
X0246709Y0407383D02*
X0246709Y0409547D01*
X0245086Y0409547D01*
X0244545Y0409006D01*
X0244545Y0407383D01*
X0243446Y0407924D02*
X0242905Y0407383D01*
X0241282Y0407383D01*
X0241282Y0406842D02*
X0241282Y0409547D01*
X0242905Y0409547D01*
X0243446Y0409006D01*
X0243446Y0407924D01*
X0242364Y0406301D02*
X0241823Y0406301D01*
X0241282Y0406842D01*
X0240184Y0407383D02*
X0239102Y0407383D01*
X0239643Y0407383D02*
X0239643Y0409547D01*
X0240184Y0409547D01*
X0239643Y0410629D02*
X0239643Y0411170D01*
X0238008Y0409547D02*
X0236385Y0409547D01*
X0235844Y0409006D01*
X0235844Y0407383D01*
X0234746Y0407924D02*
X0234746Y0409006D01*
X0234205Y0409547D01*
X0233123Y0409547D01*
X0232582Y0409006D01*
X0232582Y0408465D01*
X0234746Y0408465D01*
X0234746Y0407924D02*
X0234205Y0407383D01*
X0233123Y0407383D01*
X0231483Y0407924D02*
X0231483Y0409006D01*
X0230942Y0409547D01*
X0229860Y0409547D01*
X0229319Y0409006D01*
X0229319Y0408465D01*
X0231483Y0408465D01*
X0231483Y0407924D02*
X0230942Y0407383D01*
X0229860Y0407383D01*
X0228221Y0407383D02*
X0228221Y0409547D01*
X0228221Y0408465D02*
X0227139Y0409547D01*
X0226598Y0409547D01*
X0225502Y0409547D02*
X0224961Y0409547D01*
X0224961Y0407383D01*
X0225502Y0407383D02*
X0224420Y0407383D01*
X0223327Y0407383D02*
X0223327Y0409547D01*
X0221704Y0409547D01*
X0221163Y0409006D01*
X0221163Y0407383D01*
X0220064Y0407924D02*
X0219523Y0407383D01*
X0217900Y0407383D01*
X0217900Y0406842D02*
X0217900Y0409547D01*
X0219523Y0409547D01*
X0220064Y0409006D01*
X0220064Y0407924D01*
X0218982Y0406301D02*
X0218441Y0406301D01*
X0217900Y0406842D01*
X0216801Y0407383D02*
X0216801Y0407924D01*
X0216260Y0407924D01*
X0216260Y0407383D01*
X0216801Y0407383D01*
X0216801Y0409006D02*
X0216801Y0409547D01*
X0216260Y0409547D01*
X0216260Y0409006D01*
X0216801Y0409006D01*
X0211907Y0409006D02*
X0210825Y0409006D01*
X0211907Y0407383D02*
X0209743Y0407383D01*
X0208645Y0407924D02*
X0208104Y0407383D01*
X0207022Y0407383D01*
X0206481Y0407924D01*
X0206481Y0410088D01*
X0207022Y0410629D01*
X0208104Y0410629D01*
X0208645Y0410088D01*
X0208645Y0407924D01*
X0207563Y0408465D02*
X0206481Y0407383D01*
X0205382Y0407924D02*
X0205382Y0410629D01*
X0203218Y0410629D02*
X0203218Y0407924D01*
X0203759Y0407383D01*
X0204841Y0407383D01*
X0205382Y0407924D01*
X0202120Y0407383D02*
X0201038Y0407383D01*
X0201579Y0407383D02*
X0201579Y0409547D01*
X0202120Y0409547D01*
X0201579Y0410629D02*
X0201579Y0411170D01*
X0199945Y0410088D02*
X0199945Y0409547D01*
X0199404Y0409006D01*
X0198322Y0409006D01*
X0197780Y0408465D01*
X0197780Y0407924D01*
X0198322Y0407383D01*
X0199404Y0407383D01*
X0199945Y0407924D01*
X0199945Y0410088D02*
X0199404Y0410629D01*
X0198322Y0410629D01*
X0197780Y0410088D01*
X0196141Y0409547D02*
X0195059Y0409547D01*
X0194518Y0409006D01*
X0194518Y0407383D01*
X0196141Y0407383D01*
X0196682Y0407924D01*
X0196141Y0408465D01*
X0194518Y0408465D01*
X0193419Y0409547D02*
X0192337Y0409547D01*
X0192878Y0410088D02*
X0192878Y0407924D01*
X0192337Y0407383D01*
X0209743Y0410629D02*
X0211907Y0410629D01*
X0211907Y0407383D01*
X0224961Y0410629D02*
X0224961Y0411170D01*
X0238008Y0409547D02*
X0238008Y0407383D01*
X0242761Y0404724D02*
X0244384Y0403101D01*
X0242220Y0403101D01*
X0242761Y0401478D02*
X0242761Y0404724D01*
X0245482Y0404724D02*
X0245482Y0402560D01*
X0246564Y0401478D01*
X0247646Y0402560D01*
X0247646Y0404724D01*
X0249971Y0407383D02*
X0249971Y0410629D01*
X0247807Y0410629D01*
X0270496Y0403642D02*
X0272119Y0403642D01*
X0272660Y0403101D01*
X0272119Y0402560D01*
X0271037Y0402560D01*
X0270496Y0402019D01*
X0271037Y0401478D01*
X0272660Y0401478D01*
X0295966Y0337093D02*
X0295966Y0335192D01*
X0295966Y0336142D02*
X0298818Y0336142D01*
X0297867Y0335192D01*
X0297392Y0334193D02*
X0296916Y0333718D01*
X0296916Y0332292D01*
X0296916Y0333242D02*
X0295966Y0334193D01*
X0297392Y0334193D02*
X0298342Y0334193D01*
X0298818Y0333718D01*
X0298818Y0332292D01*
X0295966Y0332292D01*
D13*
X0281545Y0332530D02*
X0281545Y0333809D01*
X0281118Y0334235D01*
X0279413Y0334235D01*
X0278987Y0333809D01*
X0278987Y0332530D01*
X0281545Y0332530D01*
X0280692Y0335068D02*
X0281545Y0335920D01*
X0278987Y0335920D01*
X0278987Y0335068D02*
X0278987Y0336773D01*
X0278687Y0313159D02*
X0277286Y0313159D01*
X0276819Y0312692D01*
X0276819Y0311758D01*
X0277286Y0311291D01*
X0278687Y0311291D01*
X0279581Y0311291D02*
X0279581Y0310824D01*
X0280048Y0310357D01*
X0280983Y0310357D01*
X0281450Y0310824D01*
X0280983Y0311758D02*
X0280048Y0311758D01*
X0279581Y0311291D01*
X0278687Y0310357D02*
X0278687Y0313159D01*
X0279581Y0312692D02*
X0280048Y0313159D01*
X0280983Y0313159D01*
X0281450Y0312692D01*
X0281450Y0312225D01*
X0280983Y0311758D01*
X0275925Y0311758D02*
X0274057Y0311758D01*
X0273163Y0311291D02*
X0271761Y0311291D01*
X0271294Y0311758D01*
X0271294Y0312692D01*
X0271761Y0313159D01*
X0273163Y0313159D01*
X0273163Y0310357D01*
X0270400Y0310357D02*
X0269466Y0311291D01*
X0268532Y0310357D01*
X0268532Y0313159D01*
X0267638Y0313159D02*
X0266237Y0313159D01*
X0265770Y0312692D01*
X0265770Y0311758D01*
X0266237Y0311291D01*
X0267638Y0311291D01*
X0266704Y0311291D02*
X0265770Y0310357D01*
X0264875Y0311758D02*
X0263007Y0311758D01*
X0262113Y0312692D02*
X0262113Y0310824D01*
X0261646Y0310357D01*
X0260712Y0310357D01*
X0260245Y0310824D01*
X0260245Y0312692D01*
X0260712Y0313159D01*
X0261646Y0313159D01*
X0262113Y0312692D01*
X0259351Y0313159D02*
X0259351Y0310824D01*
X0258884Y0310357D01*
X0257950Y0310357D01*
X0257483Y0310824D01*
X0257483Y0313159D01*
X0256588Y0313159D02*
X0254720Y0313159D01*
X0255654Y0313159D02*
X0255654Y0310357D01*
X0267638Y0310357D02*
X0267638Y0313159D01*
X0270400Y0313159D02*
X0270400Y0310357D01*
X0246832Y0328987D02*
X0246832Y0331545D01*
X0247684Y0331545D02*
X0245979Y0331545D01*
X0244720Y0330692D02*
X0245147Y0330266D01*
X0245147Y0329413D01*
X0244720Y0328987D01*
X0243868Y0328987D01*
X0243441Y0329413D01*
X0243441Y0330266D01*
X0243868Y0330692D01*
X0244720Y0330692D01*
X0240071Y0330266D02*
X0238792Y0330266D01*
X0238366Y0329839D01*
X0238366Y0329413D01*
X0238792Y0328987D01*
X0240071Y0328987D01*
X0240071Y0331545D01*
X0238792Y0331545D01*
X0238366Y0331118D01*
X0238366Y0330692D01*
X0238792Y0330266D01*
X0237534Y0329413D02*
X0237108Y0329839D01*
X0235828Y0329839D01*
X0235828Y0330266D02*
X0235828Y0328987D01*
X0237108Y0328987D01*
X0237534Y0329413D01*
X0237108Y0330692D02*
X0236255Y0330692D01*
X0235828Y0330266D01*
X0234996Y0330692D02*
X0234144Y0330692D01*
X0234570Y0331118D02*
X0234570Y0329413D01*
X0234144Y0328987D01*
X0232878Y0329413D02*
X0232452Y0328987D01*
X0232878Y0329413D02*
X0232878Y0331118D01*
X0232452Y0330692D02*
X0233305Y0330692D01*
X0231613Y0330266D02*
X0231186Y0330692D01*
X0230334Y0330692D01*
X0229907Y0330266D01*
X0229907Y0329839D01*
X0231613Y0329839D01*
X0231613Y0329413D02*
X0231613Y0330266D01*
X0231613Y0329413D02*
X0231186Y0328987D01*
X0230334Y0328987D01*
X0229075Y0328987D02*
X0229075Y0330692D01*
X0228223Y0330692D02*
X0229075Y0329839D01*
X0228223Y0330692D02*
X0227796Y0330692D01*
X0226961Y0330692D02*
X0226961Y0329413D01*
X0226534Y0328987D01*
X0225255Y0328987D01*
X0225255Y0328560D02*
X0225681Y0328134D01*
X0226108Y0328134D01*
X0225255Y0328560D02*
X0225255Y0330692D01*
X0221885Y0330266D02*
X0220606Y0330266D01*
X0220180Y0329839D01*
X0220180Y0329413D01*
X0220606Y0328987D01*
X0221885Y0328987D01*
X0221885Y0331545D01*
X0220606Y0331545D01*
X0220180Y0331118D01*
X0220180Y0330692D01*
X0220606Y0330266D01*
X0219348Y0330266D02*
X0219348Y0329413D01*
X0218921Y0328987D01*
X0218069Y0328987D01*
X0217642Y0329413D01*
X0217642Y0330266D01*
X0218069Y0330692D01*
X0218921Y0330692D01*
X0219348Y0330266D01*
X0216810Y0329413D02*
X0216384Y0329839D01*
X0215105Y0329839D01*
X0215105Y0330266D02*
X0215105Y0328987D01*
X0216384Y0328987D01*
X0216810Y0329413D01*
X0216384Y0330692D02*
X0215531Y0330692D01*
X0215105Y0330266D01*
X0214273Y0330692D02*
X0214273Y0328987D01*
X0214273Y0329839D02*
X0213420Y0330692D01*
X0212994Y0330692D01*
X0212158Y0330266D02*
X0211732Y0330692D01*
X0210452Y0330692D01*
X0209620Y0330692D02*
X0209620Y0330266D01*
X0209194Y0330266D01*
X0209194Y0330692D01*
X0209620Y0330692D01*
X0210452Y0331545D02*
X0210452Y0328987D01*
X0211732Y0328987D01*
X0212158Y0329413D01*
X0212158Y0330266D01*
X0209620Y0329413D02*
X0209620Y0328987D01*
X0209194Y0328987D01*
X0209194Y0329413D01*
X0209620Y0329413D01*
X0210331Y0313159D02*
X0209864Y0312692D01*
X0209864Y0312225D01*
X0210331Y0311758D01*
X0211732Y0311758D01*
X0210331Y0311758D02*
X0209864Y0311291D01*
X0209864Y0310824D01*
X0210331Y0310357D01*
X0211732Y0310357D01*
X0211732Y0313159D01*
X0210331Y0313159D01*
X0208970Y0311758D02*
X0207102Y0311758D01*
X0206208Y0312692D02*
X0206208Y0310824D01*
X0205741Y0310357D01*
X0204806Y0310357D01*
X0204339Y0310824D01*
X0203445Y0310357D02*
X0203445Y0313159D01*
X0204339Y0312692D02*
X0204806Y0313159D01*
X0205741Y0313159D01*
X0206208Y0312692D01*
X0203445Y0311758D02*
X0201577Y0311758D01*
X0200683Y0312692D02*
X0200683Y0310824D01*
X0200216Y0310357D01*
X0199282Y0310357D01*
X0198815Y0310824D01*
X0198815Y0311758D01*
X0199749Y0311758D01*
X0200683Y0312692D02*
X0200216Y0313159D01*
X0199282Y0313159D01*
X0198815Y0312692D01*
X0201577Y0313159D02*
X0201577Y0310357D01*
X0212626Y0310357D02*
X0212626Y0313159D01*
X0213561Y0312225D01*
X0214495Y0313159D01*
X0214495Y0310357D01*
X0215389Y0310824D02*
X0215389Y0313159D01*
X0217257Y0313159D02*
X0217257Y0310824D01*
X0216790Y0310357D01*
X0215856Y0310357D01*
X0215389Y0310824D01*
X0224085Y0310824D02*
X0224085Y0312692D01*
X0224552Y0313159D01*
X0225953Y0313159D01*
X0225953Y0310357D01*
X0224552Y0310357D01*
X0224085Y0310824D01*
X0226847Y0310357D02*
X0226847Y0313159D01*
X0228715Y0313159D02*
X0226847Y0310357D01*
X0228715Y0310357D02*
X0228715Y0313159D01*
X0229610Y0312692D02*
X0230077Y0313159D01*
X0231011Y0313159D01*
X0231478Y0312692D01*
X0231478Y0310824D01*
X0231011Y0310357D01*
X0230077Y0310357D01*
X0229610Y0310824D01*
X0229610Y0311758D01*
X0230544Y0311758D01*
X0217945Y0297017D02*
X0218412Y0296550D01*
X0218412Y0296083D01*
X0217945Y0295616D01*
X0217011Y0295616D01*
X0216544Y0295149D01*
X0216544Y0294682D01*
X0217011Y0294215D01*
X0217945Y0294215D01*
X0218412Y0294682D01*
X0217945Y0297017D02*
X0217011Y0297017D01*
X0216544Y0296550D01*
X0215650Y0296550D02*
X0215650Y0294682D01*
X0215183Y0294215D01*
X0214249Y0294215D01*
X0213782Y0294682D01*
X0212888Y0294215D02*
X0211019Y0294215D01*
X0212888Y0294215D02*
X0212888Y0297017D01*
X0213782Y0296550D02*
X0214249Y0297017D01*
X0215183Y0297017D01*
X0215650Y0296550D01*
X0201503Y0297017D02*
X0201503Y0294215D01*
X0201503Y0295149D02*
X0200101Y0295149D01*
X0199634Y0295616D01*
X0199634Y0296550D01*
X0200101Y0297017D01*
X0201503Y0297017D01*
X0200568Y0295149D02*
X0199634Y0294215D01*
X0198740Y0294215D02*
X0196872Y0294215D01*
X0195978Y0294682D02*
X0195511Y0294215D01*
X0194577Y0294215D01*
X0194110Y0294682D01*
X0194110Y0295149D01*
X0194577Y0295616D01*
X0195511Y0295616D01*
X0195978Y0296083D01*
X0195978Y0296550D01*
X0195511Y0297017D01*
X0194577Y0297017D01*
X0194110Y0296550D01*
X0193215Y0297017D02*
X0193215Y0294215D01*
X0191347Y0294215D01*
X0192281Y0295616D02*
X0193215Y0295616D01*
X0193215Y0297017D02*
X0191347Y0297017D01*
X0190453Y0297017D02*
X0188585Y0297017D01*
X0187691Y0297017D02*
X0185822Y0294215D01*
X0185822Y0297017D01*
X0187691Y0297017D02*
X0187691Y0294215D01*
X0189519Y0294215D02*
X0189519Y0297017D01*
X0196872Y0297017D02*
X0198740Y0297017D01*
X0198740Y0294215D01*
X0198740Y0295616D02*
X0197806Y0295616D01*
X0181634Y0294682D02*
X0181166Y0294215D01*
X0180232Y0294215D01*
X0179765Y0294682D01*
X0179765Y0297017D01*
X0178871Y0296550D02*
X0178871Y0296083D01*
X0178404Y0295616D01*
X0177470Y0295616D01*
X0177003Y0295149D01*
X0177003Y0294682D01*
X0177470Y0294215D01*
X0178404Y0294215D01*
X0178871Y0294682D01*
X0178871Y0296550D02*
X0178404Y0297017D01*
X0177470Y0297017D01*
X0177003Y0296550D01*
X0176109Y0296083D02*
X0175175Y0297017D01*
X0174241Y0296083D01*
X0174241Y0294215D01*
X0173346Y0294215D02*
X0173346Y0297017D01*
X0171945Y0297017D01*
X0171478Y0296550D01*
X0171478Y0295616D01*
X0171945Y0295149D01*
X0173346Y0295149D01*
X0172412Y0295149D02*
X0171478Y0294215D01*
X0169650Y0294215D02*
X0169650Y0297017D01*
X0170584Y0297017D02*
X0168716Y0297017D01*
X0167822Y0293748D02*
X0165954Y0293748D01*
X0165059Y0294215D02*
X0165059Y0297017D01*
X0163658Y0297017D01*
X0163191Y0296550D01*
X0163191Y0295616D01*
X0163658Y0295149D01*
X0165059Y0295149D01*
X0164125Y0295149D02*
X0163191Y0294215D01*
X0162297Y0294215D02*
X0160429Y0297017D01*
X0162297Y0297017D02*
X0160429Y0294215D01*
X0155452Y0294682D02*
X0155452Y0297017D01*
X0153584Y0297017D02*
X0153584Y0294682D01*
X0154051Y0294215D01*
X0154985Y0294215D01*
X0155452Y0294682D01*
X0152690Y0294682D02*
X0152223Y0294215D01*
X0151289Y0294215D01*
X0150822Y0294682D01*
X0150822Y0295149D01*
X0151289Y0295616D01*
X0152223Y0295616D01*
X0152690Y0296083D01*
X0152690Y0296550D01*
X0152223Y0297017D01*
X0151289Y0297017D01*
X0150822Y0296550D01*
X0149928Y0296083D02*
X0148994Y0297017D01*
X0148059Y0296083D01*
X0148059Y0294215D01*
X0147165Y0294215D02*
X0147165Y0297017D01*
X0145764Y0297017D01*
X0145297Y0296550D01*
X0145297Y0295616D01*
X0145764Y0295149D01*
X0147165Y0295149D01*
X0146231Y0295149D02*
X0145297Y0294215D01*
X0143469Y0294215D02*
X0143469Y0297017D01*
X0144403Y0297017D02*
X0142535Y0297017D01*
X0141641Y0293748D02*
X0139772Y0293748D01*
X0137944Y0294215D02*
X0137944Y0297017D01*
X0138878Y0297017D02*
X0137010Y0297017D01*
X0136116Y0297017D02*
X0134248Y0294215D01*
X0136116Y0294215D02*
X0134248Y0297017D01*
X0123671Y0295783D02*
X0121113Y0295783D01*
X0121113Y0294504D01*
X0121539Y0294078D01*
X0122392Y0294078D01*
X0122818Y0294504D01*
X0122818Y0295783D01*
X0122818Y0296615D02*
X0122392Y0296615D01*
X0122392Y0297042D01*
X0122818Y0297042D01*
X0122818Y0296615D01*
X0121539Y0296615D02*
X0121113Y0296615D01*
X0121113Y0297042D01*
X0121539Y0297042D01*
X0121539Y0296615D01*
X0122818Y0293242D02*
X0122818Y0292816D01*
X0121965Y0291963D01*
X0121965Y0291131D02*
X0121965Y0289852D01*
X0121539Y0289426D01*
X0121113Y0289852D01*
X0121113Y0291131D01*
X0122392Y0291131D01*
X0122818Y0290705D01*
X0122818Y0289852D01*
X0122392Y0288593D02*
X0122818Y0288167D01*
X0122818Y0287314D01*
X0122392Y0286888D01*
X0121539Y0286888D01*
X0121113Y0287314D01*
X0121113Y0288167D01*
X0121539Y0288593D01*
X0122392Y0288593D01*
X0122818Y0286056D02*
X0122392Y0285629D01*
X0122392Y0284350D01*
X0123671Y0284350D02*
X0123671Y0285629D01*
X0123244Y0286056D01*
X0122818Y0286056D01*
X0122392Y0285629D02*
X0121965Y0286056D01*
X0121539Y0286056D01*
X0121113Y0285629D01*
X0121113Y0284350D01*
X0123671Y0284350D01*
X0123671Y0280547D02*
X0121113Y0280547D01*
X0121113Y0280121D02*
X0121113Y0280974D01*
X0121539Y0279289D02*
X0122392Y0279289D01*
X0122818Y0278862D01*
X0122818Y0278010D01*
X0122392Y0277583D01*
X0121539Y0277583D01*
X0121113Y0278010D01*
X0121113Y0278862D01*
X0121539Y0279289D01*
X0123671Y0280121D02*
X0123671Y0280547D01*
X0122818Y0276748D02*
X0122818Y0276321D01*
X0121965Y0275469D01*
X0121113Y0275469D02*
X0122818Y0275469D01*
X0122818Y0274630D02*
X0122818Y0273777D01*
X0123244Y0274203D02*
X0121539Y0274203D01*
X0121113Y0274630D01*
X0121113Y0272945D02*
X0122392Y0272945D01*
X0122818Y0272518D01*
X0122818Y0271239D01*
X0121113Y0271239D01*
X0121539Y0270407D02*
X0122392Y0270407D01*
X0122818Y0269981D01*
X0122818Y0269128D01*
X0122392Y0268702D01*
X0121539Y0268702D01*
X0121113Y0269128D01*
X0121113Y0269981D01*
X0121539Y0270407D01*
X0121539Y0267870D02*
X0121113Y0267443D01*
X0121113Y0266591D01*
X0121539Y0266164D01*
X0123244Y0266164D01*
X0123671Y0266591D01*
X0123671Y0267443D01*
X0123244Y0267870D01*
X0122392Y0262794D02*
X0122818Y0262368D01*
X0122818Y0261515D01*
X0122392Y0261089D01*
X0121539Y0261089D01*
X0121113Y0261515D01*
X0121113Y0262368D01*
X0121539Y0262794D01*
X0122392Y0262794D01*
X0123671Y0260257D02*
X0123671Y0258551D01*
X0123671Y0259404D02*
X0121113Y0259404D01*
X0134248Y0256466D02*
X0136116Y0256466D01*
X0137010Y0256466D02*
X0138878Y0253664D01*
X0139772Y0253664D02*
X0141641Y0253664D01*
X0141641Y0256466D01*
X0139772Y0256466D01*
X0138878Y0256466D02*
X0137010Y0253664D01*
X0135182Y0253664D02*
X0135182Y0256466D01*
X0140707Y0255065D02*
X0141641Y0255065D01*
X0142535Y0255065D02*
X0144403Y0255065D01*
X0145297Y0253664D02*
X0145297Y0256466D01*
X0147165Y0256466D02*
X0145297Y0253664D01*
X0147165Y0253664D02*
X0147165Y0256466D01*
X0148073Y0256466D02*
X0149007Y0256466D01*
X0148540Y0256466D02*
X0148540Y0253664D01*
X0149007Y0253664D02*
X0148073Y0253664D01*
X0149901Y0254598D02*
X0149901Y0256466D01*
X0149901Y0254598D02*
X0150835Y0253664D01*
X0151769Y0254598D01*
X0151769Y0256466D01*
X0160429Y0255999D02*
X0160896Y0256466D01*
X0162297Y0256466D01*
X0162297Y0253664D01*
X0160896Y0253664D01*
X0160429Y0254131D01*
X0160429Y0255999D01*
X0163191Y0256466D02*
X0163191Y0253664D01*
X0165059Y0256466D01*
X0165059Y0253664D01*
X0165953Y0254131D02*
X0165953Y0255065D01*
X0166888Y0255065D01*
X0167822Y0255999D02*
X0167822Y0254131D01*
X0167355Y0253664D01*
X0166421Y0253664D01*
X0165953Y0254131D01*
X0165953Y0255999D02*
X0166421Y0256466D01*
X0167355Y0256466D01*
X0167822Y0255999D01*
X0186753Y0256517D02*
X0188621Y0256517D01*
X0189516Y0256517D02*
X0189516Y0254182D01*
X0189983Y0253715D01*
X0190917Y0253715D01*
X0191384Y0254182D01*
X0191384Y0256517D01*
X0192278Y0256050D02*
X0192745Y0256517D01*
X0193679Y0256517D01*
X0194146Y0256050D01*
X0194146Y0254182D01*
X0193679Y0253715D01*
X0192745Y0253715D01*
X0192278Y0254182D01*
X0192278Y0256050D01*
X0195040Y0255116D02*
X0196909Y0255116D01*
X0197803Y0256050D02*
X0198270Y0256517D01*
X0199671Y0256517D01*
X0199671Y0253715D01*
X0198270Y0253715D01*
X0197803Y0254182D01*
X0197803Y0256050D01*
X0200565Y0256050D02*
X0200565Y0255116D01*
X0201032Y0254649D01*
X0202433Y0254649D01*
X0202433Y0253715D02*
X0202433Y0256517D01*
X0201032Y0256517D01*
X0200565Y0256050D01*
X0215366Y0267057D02*
X0216300Y0267992D01*
X0215833Y0267992D02*
X0217234Y0267992D01*
X0217234Y0267057D02*
X0217234Y0269860D01*
X0215833Y0269860D01*
X0215366Y0269393D01*
X0215366Y0268459D01*
X0215833Y0267992D01*
X0218142Y0267057D02*
X0219076Y0267057D01*
X0218609Y0267057D02*
X0218609Y0269860D01*
X0219076Y0269860D02*
X0218142Y0269860D01*
X0219970Y0268459D02*
X0221838Y0268459D01*
X0222732Y0268926D02*
X0223199Y0268459D01*
X0222732Y0267992D01*
X0222732Y0267525D01*
X0223199Y0267057D01*
X0224133Y0267057D01*
X0224600Y0267525D01*
X0225495Y0267992D02*
X0225495Y0269860D01*
X0224600Y0269393D02*
X0224133Y0269860D01*
X0223199Y0269860D01*
X0222732Y0269393D01*
X0222732Y0268926D01*
X0223199Y0268459D02*
X0223666Y0268459D01*
X0225495Y0267992D02*
X0226429Y0267057D01*
X0227363Y0267992D01*
X0227363Y0269860D01*
X0228257Y0269393D02*
X0228257Y0268926D01*
X0228724Y0268459D01*
X0228257Y0267992D01*
X0228257Y0267525D01*
X0228724Y0267057D01*
X0229658Y0267057D01*
X0230125Y0267525D01*
X0229191Y0268459D02*
X0228724Y0268459D01*
X0228257Y0269393D02*
X0228724Y0269860D01*
X0229658Y0269860D01*
X0230125Y0269393D01*
X0218412Y0274210D02*
X0217945Y0273743D01*
X0217011Y0273743D01*
X0216544Y0274210D01*
X0216544Y0274677D01*
X0217011Y0275144D01*
X0217945Y0275144D01*
X0218412Y0275611D01*
X0218412Y0276078D01*
X0217945Y0276545D01*
X0217011Y0276545D01*
X0216544Y0276078D01*
X0215650Y0276545D02*
X0214249Y0276545D01*
X0213782Y0276078D01*
X0213782Y0274210D01*
X0214249Y0273743D01*
X0215650Y0273743D01*
X0215650Y0276545D01*
X0212888Y0275611D02*
X0211953Y0276545D01*
X0211019Y0275611D01*
X0211019Y0273743D01*
X0211019Y0275144D02*
X0212888Y0275144D01*
X0212888Y0275611D02*
X0212888Y0273743D01*
X0194003Y0274406D02*
X0193536Y0273939D01*
X0192602Y0273939D01*
X0192135Y0274406D01*
X0192135Y0274873D01*
X0192602Y0275341D01*
X0193069Y0275341D01*
X0192602Y0275341D02*
X0192135Y0275808D01*
X0192135Y0276275D01*
X0192602Y0276742D01*
X0193536Y0276742D01*
X0194003Y0276275D01*
X0191240Y0276742D02*
X0191240Y0274873D01*
X0190306Y0273939D01*
X0189372Y0274873D01*
X0189372Y0276742D01*
X0188478Y0276275D02*
X0188011Y0276742D01*
X0187077Y0276742D01*
X0186610Y0276275D01*
X0186610Y0275808D01*
X0187077Y0275341D01*
X0186610Y0274873D01*
X0186610Y0274406D01*
X0187077Y0273939D01*
X0188011Y0273939D01*
X0188478Y0274406D01*
X0187544Y0275341D02*
X0187077Y0275341D01*
X0172426Y0275808D02*
X0171959Y0275341D01*
X0171024Y0275341D01*
X0170557Y0274873D01*
X0170557Y0274406D01*
X0171024Y0273939D01*
X0171959Y0273939D01*
X0172426Y0274406D01*
X0172426Y0275808D02*
X0172426Y0276275D01*
X0171959Y0276742D01*
X0171024Y0276742D01*
X0170557Y0276275D01*
X0169663Y0276742D02*
X0169663Y0273939D01*
X0168729Y0274873D01*
X0167795Y0273939D01*
X0167795Y0276742D01*
X0166901Y0276742D02*
X0165500Y0276742D01*
X0165033Y0276275D01*
X0165033Y0274406D01*
X0165500Y0273939D01*
X0166901Y0273939D01*
X0166901Y0276742D01*
X0164139Y0276742D02*
X0163204Y0276742D01*
X0163672Y0276742D02*
X0163672Y0273939D01*
X0164139Y0273939D02*
X0163204Y0273939D01*
X0162297Y0274406D02*
X0161830Y0273939D01*
X0160896Y0273939D01*
X0160429Y0274406D01*
X0160429Y0276275D01*
X0160896Y0276742D01*
X0161830Y0276742D01*
X0162297Y0276275D01*
X0162297Y0274406D01*
X0149928Y0274406D02*
X0149461Y0273939D01*
X0148527Y0273939D01*
X0148059Y0274406D01*
X0148059Y0274873D01*
X0148527Y0275341D01*
X0149461Y0275341D01*
X0149928Y0275808D01*
X0149928Y0276275D01*
X0149461Y0276742D01*
X0148527Y0276742D01*
X0148059Y0276275D01*
X0147165Y0276742D02*
X0147165Y0273939D01*
X0146231Y0274873D01*
X0145297Y0273939D01*
X0145297Y0276742D01*
X0144403Y0276742D02*
X0143002Y0276742D01*
X0142535Y0276275D01*
X0142535Y0274406D01*
X0143002Y0273939D01*
X0144403Y0273939D01*
X0144403Y0276742D01*
X0141641Y0276275D02*
X0141641Y0274406D01*
X0141174Y0273939D01*
X0140239Y0273939D01*
X0139772Y0274406D01*
X0138878Y0273939D02*
X0137010Y0273939D01*
X0136116Y0273939D02*
X0136116Y0276742D01*
X0135649Y0275341D02*
X0134248Y0273939D01*
X0136116Y0274873D02*
X0134248Y0276742D01*
X0138878Y0276742D02*
X0138878Y0273939D01*
X0139772Y0276275D02*
X0140239Y0276742D01*
X0141174Y0276742D01*
X0141641Y0276275D01*
X0149928Y0294215D02*
X0149928Y0296083D01*
X0149928Y0295616D02*
X0148059Y0295616D01*
X0122818Y0291963D02*
X0121113Y0291963D01*
X0174241Y0295616D02*
X0176109Y0295616D01*
X0176109Y0296083D02*
X0176109Y0294215D01*
X0181634Y0294682D02*
X0181634Y0297017D01*
X0187687Y0256517D02*
X0187687Y0253715D01*
X0263535Y0262060D02*
X0265070Y0262060D01*
X0264303Y0262060D02*
X0264303Y0264362D01*
X0265070Y0263594D01*
X0265837Y0263978D02*
X0266221Y0264362D01*
X0266988Y0264362D01*
X0267372Y0263978D01*
X0267372Y0262443D01*
X0266988Y0262060D01*
X0266221Y0262060D01*
X0265837Y0262443D01*
X0296526Y0389097D02*
X0296059Y0389564D01*
X0296059Y0391432D01*
X0296526Y0391899D01*
X0297927Y0391899D01*
X0297927Y0389097D01*
X0296526Y0389097D01*
X0298821Y0389097D02*
X0298821Y0391899D01*
X0300689Y0391899D02*
X0298821Y0389097D01*
X0300689Y0389097D02*
X0300689Y0391899D01*
X0301583Y0391432D02*
X0302050Y0391899D01*
X0302985Y0391899D01*
X0303452Y0391432D01*
X0303452Y0389564D01*
X0302985Y0389097D01*
X0302050Y0389097D01*
X0301583Y0389564D01*
X0301583Y0390498D01*
X0302518Y0390498D01*
D14*
X0282036Y0326918D02*
X0282036Y0308808D01*
X0193060Y0308808D01*
X0193060Y0326918D01*
X0282036Y0326918D01*
X0231249Y0308020D02*
X0231249Y0251721D01*
X0126131Y0251721D01*
X0126131Y0308020D01*
X0231249Y0308020D01*
D15*
X0268650Y0332824D02*
X0276524Y0332824D01*
X0276524Y0335186D01*
X0268650Y0335186D01*
X0268650Y0335580D01*
X0267076Y0335580D01*
X0267076Y0335186D01*
X0278099Y0335186D01*
X0278099Y0335580D01*
X0276524Y0335580D01*
X0268650Y0335580D01*
X0268650Y0344635D01*
X0276524Y0344635D01*
X0276524Y0335580D01*
X0276524Y0335186D01*
X0284005Y0332824D02*
X0294241Y0332824D01*
X0294241Y0345422D01*
X0284005Y0345422D01*
X0284005Y0332824D01*
X0268650Y0332824D02*
X0268650Y0335186D01*
X0271921Y0272202D02*
X0259897Y0272202D01*
X0259897Y0265690D01*
X0271921Y0265690D01*
X0271921Y0272202D01*
M02*
