G75*
%MOIN*%
%OFA0B0*%
%FSLAX25Y25*%
%IPPOS*%
%LPD*%
%AMOC8*
5,1,8,0,0,1.08239X$1,22.5*
%
%ADD10R,0.03150X0.04724*%
%ADD11C,0.05150*%
%ADD12C,0.09000*%
%ADD13R,0.05150X0.05150*%
%ADD14R,0.05512X0.08661*%
%ADD15R,0.05512X0.03543*%
%ADD16R,0.10000X0.05984*%
%ADD17R,0.10000X0.05945*%
%ADD18C,0.01600*%
%ADD19OC8,0.16835*%
%ADD20C,0.02978*%
%ADD21C,0.04592*%
%ADD22C,0.00600*%
%ADD23C,0.01181*%
D10*
X0262366Y0268946D03*
X0269452Y0268946D03*
D11*
X0260982Y0281271D03*
X0251951Y0272244D03*
X0242919Y0281271D03*
X0251951Y0290299D03*
D12*
X0263926Y0318257D03*
X0233291Y0318257D03*
X0220225Y0302115D03*
X0208020Y0318257D03*
X0195028Y0302115D03*
X0195816Y0281839D03*
X0195959Y0261615D03*
X0220225Y0261957D03*
X0220225Y0281643D03*
X0169635Y0281839D03*
X0169635Y0261564D03*
X0143454Y0261564D03*
X0143454Y0281839D03*
X0143454Y0302115D03*
X0169635Y0302115D03*
X0305265Y0396997D03*
D13*
X0316013Y0424398D03*
X0341682Y0408564D03*
X0351894Y0408769D03*
X0350784Y0344202D03*
X0351178Y0312627D03*
X0351572Y0282391D03*
X0294359Y0229910D03*
X0309713Y0199202D03*
X0321761Y0196454D03*
X0323942Y0187194D03*
X0319981Y0166957D03*
X0353146Y0219005D03*
X0421233Y0130265D03*
X0456595Y0229162D03*
X0455879Y0355934D03*
X0427430Y0419280D03*
X0311721Y0340422D03*
X0192910Y0350422D03*
X0188847Y0362194D03*
X0192942Y0382194D03*
X0188847Y0394123D03*
X0193335Y0414871D03*
X0122831Y0445698D03*
X0188879Y0331367D03*
X0106328Y0219202D03*
X0125194Y0187981D03*
X0225099Y0131052D03*
X0230706Y0156091D03*
D14*
X0272587Y0334792D03*
D15*
X0272587Y0344831D03*
D16*
X0289123Y0345855D03*
D17*
X0289123Y0332391D03*
D18*
X0117557Y0148898D02*
X0117557Y0125825D01*
X0425255Y0125825D01*
X0425255Y0126596D01*
X0425248Y0126585D01*
X0424913Y0126249D01*
X0424503Y0126012D01*
X0424045Y0125890D01*
X0421233Y0125890D01*
X0421233Y0130264D01*
X0421233Y0130264D01*
X0421233Y0125890D01*
X0418421Y0125890D01*
X0417963Y0126012D01*
X0417553Y0126249D01*
X0417218Y0126585D01*
X0416981Y0126995D01*
X0416858Y0127453D01*
X0416858Y0130264D01*
X0421233Y0130264D01*
X0421233Y0130265D01*
X0421233Y0134639D01*
X0418421Y0134639D01*
X0417963Y0134517D01*
X0417553Y0134280D01*
X0417218Y0133945D01*
X0416981Y0133534D01*
X0416858Y0133076D01*
X0416858Y0130265D01*
X0421233Y0130265D01*
X0421233Y0130265D01*
X0421233Y0134639D01*
X0424045Y0134639D01*
X0424503Y0134517D01*
X0424913Y0134280D01*
X0425248Y0133945D01*
X0425255Y0133933D01*
X0425255Y0148898D01*
X0426108Y0150956D01*
X0427683Y0152532D01*
X0429741Y0153384D01*
X0460688Y0153384D01*
X0460688Y0225617D01*
X0460610Y0225482D01*
X0460275Y0225147D01*
X0459865Y0224910D01*
X0459407Y0224787D01*
X0456595Y0224787D01*
X0456595Y0229162D01*
X0452220Y0229162D01*
X0452220Y0226350D01*
X0452343Y0225893D01*
X0452580Y0225482D01*
X0452915Y0225147D01*
X0453326Y0224910D01*
X0453783Y0224787D01*
X0456595Y0224787D01*
X0456595Y0229162D01*
X0456595Y0229162D01*
X0456595Y0229162D01*
X0452220Y0229162D01*
X0452220Y0231974D01*
X0452343Y0232432D01*
X0452580Y0232842D01*
X0452915Y0233177D01*
X0453326Y0233414D01*
X0453783Y0233537D01*
X0456595Y0233537D01*
X0456595Y0229162D01*
X0456595Y0229162D01*
X0456595Y0233537D01*
X0459407Y0233537D01*
X0459865Y0233414D01*
X0460275Y0233177D01*
X0460610Y0232842D01*
X0460688Y0232708D01*
X0460688Y0449539D01*
X0126686Y0449539D01*
X0126847Y0449378D01*
X0127084Y0448967D01*
X0127206Y0448509D01*
X0127206Y0445698D01*
X0122832Y0445698D01*
X0122832Y0445698D01*
X0127206Y0445698D01*
X0127206Y0442886D01*
X0127084Y0442428D01*
X0126847Y0442018D01*
X0126512Y0441682D01*
X0126101Y0441445D01*
X0125643Y0441323D01*
X0122832Y0441323D01*
X0122832Y0445698D01*
X0122831Y0445698D01*
X0122831Y0445698D01*
X0118457Y0445698D01*
X0118457Y0448509D01*
X0118579Y0448967D01*
X0118816Y0449378D01*
X0118977Y0449539D01*
X0082124Y0449539D01*
X0082124Y0153384D01*
X0113071Y0153384D01*
X0115130Y0152532D01*
X0116705Y0150956D01*
X0117557Y0148898D01*
X0117516Y0148998D02*
X0425297Y0148998D01*
X0425255Y0147400D02*
X0117557Y0147400D01*
X0117557Y0145801D02*
X0425255Y0145801D01*
X0425255Y0144203D02*
X0117557Y0144203D01*
X0117557Y0142604D02*
X0425255Y0142604D01*
X0425255Y0141006D02*
X0117557Y0141006D01*
X0117557Y0139407D02*
X0425255Y0139407D01*
X0425255Y0137809D02*
X0117557Y0137809D01*
X0117557Y0136210D02*
X0425255Y0136210D01*
X0425255Y0134612D02*
X0424148Y0134612D01*
X0421233Y0134612D02*
X0421233Y0134612D01*
X0421233Y0133013D02*
X0421233Y0133013D01*
X0421233Y0131415D02*
X0421233Y0131415D01*
X0421233Y0129816D02*
X0421233Y0129816D01*
X0421233Y0128218D02*
X0421233Y0128218D01*
X0421233Y0126619D02*
X0421233Y0126619D01*
X0417198Y0126619D02*
X0117557Y0126619D01*
X0117557Y0128218D02*
X0220730Y0128218D01*
X0220724Y0128240D02*
X0220847Y0127782D01*
X0221084Y0127372D01*
X0221419Y0127037D01*
X0221830Y0126800D01*
X0222287Y0126677D01*
X0225099Y0126677D01*
X0225099Y0131052D01*
X0225099Y0131052D01*
X0220724Y0131052D01*
X0220724Y0133864D01*
X0220847Y0134322D01*
X0221084Y0134732D01*
X0221419Y0135067D01*
X0221830Y0135304D01*
X0222287Y0135427D01*
X0225099Y0135427D01*
X0225099Y0131052D01*
X0220724Y0131052D01*
X0220724Y0128240D01*
X0220724Y0129816D02*
X0117557Y0129816D01*
X0117557Y0131415D02*
X0220724Y0131415D01*
X0220724Y0133013D02*
X0117557Y0133013D01*
X0117557Y0134612D02*
X0221015Y0134612D01*
X0225099Y0134612D02*
X0225099Y0134612D01*
X0225099Y0135427D02*
X0227911Y0135427D01*
X0228369Y0135304D01*
X0228779Y0135067D01*
X0229114Y0134732D01*
X0229351Y0134322D01*
X0229474Y0133864D01*
X0229474Y0131052D01*
X0225099Y0131052D01*
X0225099Y0131052D01*
X0225099Y0131052D01*
X0225099Y0135427D01*
X0225099Y0133013D02*
X0225099Y0133013D01*
X0225099Y0131415D02*
X0225099Y0131415D01*
X0225099Y0131052D02*
X0225099Y0131052D01*
X0225099Y0126677D01*
X0227911Y0126677D01*
X0228369Y0126800D01*
X0228779Y0127037D01*
X0229114Y0127372D01*
X0229351Y0127782D01*
X0229474Y0128240D01*
X0229474Y0131052D01*
X0225099Y0131052D01*
X0225099Y0129816D02*
X0225099Y0129816D01*
X0225099Y0128218D02*
X0225099Y0128218D01*
X0229468Y0128218D02*
X0416858Y0128218D01*
X0416858Y0129816D02*
X0229474Y0129816D01*
X0229474Y0131415D02*
X0416858Y0131415D01*
X0416858Y0133013D02*
X0229474Y0133013D01*
X0229184Y0134612D02*
X0418318Y0134612D01*
X0425959Y0150597D02*
X0116854Y0150597D01*
X0115466Y0152195D02*
X0227189Y0152195D01*
X0227468Y0151917D02*
X0233943Y0151917D01*
X0234880Y0152854D01*
X0234880Y0159329D01*
X0233943Y0160266D01*
X0227468Y0160266D01*
X0226531Y0159329D01*
X0226531Y0152854D01*
X0227468Y0151917D01*
X0226531Y0153794D02*
X0082124Y0153794D01*
X0082124Y0155392D02*
X0226531Y0155392D01*
X0226531Y0156991D02*
X0082124Y0156991D01*
X0082124Y0158589D02*
X0226531Y0158589D01*
X0227390Y0160188D02*
X0082124Y0160188D01*
X0082124Y0161786D02*
X0460688Y0161786D01*
X0460688Y0160188D02*
X0234021Y0160188D01*
X0234880Y0158589D02*
X0460688Y0158589D01*
X0460688Y0156991D02*
X0234880Y0156991D01*
X0234880Y0155392D02*
X0460688Y0155392D01*
X0460688Y0153794D02*
X0234880Y0153794D01*
X0234222Y0152195D02*
X0427347Y0152195D01*
X0460688Y0163385D02*
X0323821Y0163385D01*
X0324156Y0163720D02*
X0323219Y0162783D01*
X0316744Y0162783D01*
X0315806Y0163720D01*
X0315806Y0170195D01*
X0316744Y0171132D01*
X0323219Y0171132D01*
X0324156Y0170195D01*
X0324156Y0163720D01*
X0324156Y0164984D02*
X0460688Y0164984D01*
X0460688Y0166582D02*
X0324156Y0166582D01*
X0324156Y0168181D02*
X0460688Y0168181D01*
X0460688Y0169779D02*
X0324156Y0169779D01*
X0315806Y0169779D02*
X0082124Y0169779D01*
X0082124Y0168181D02*
X0315806Y0168181D01*
X0315806Y0166582D02*
X0082124Y0166582D01*
X0082124Y0164984D02*
X0315806Y0164984D01*
X0316141Y0163385D02*
X0082124Y0163385D01*
X0082124Y0171378D02*
X0460688Y0171378D01*
X0460688Y0172976D02*
X0082124Y0172976D01*
X0082124Y0174575D02*
X0460688Y0174575D01*
X0460688Y0176173D02*
X0082124Y0176173D01*
X0082124Y0177772D02*
X0460688Y0177772D01*
X0460688Y0179370D02*
X0082124Y0179370D01*
X0082124Y0180969D02*
X0460688Y0180969D01*
X0460688Y0182567D02*
X0082124Y0182567D01*
X0082124Y0184166D02*
X0121597Y0184166D01*
X0121956Y0183806D02*
X0128431Y0183806D01*
X0129368Y0184744D01*
X0129368Y0191219D01*
X0128431Y0192156D01*
X0121956Y0192156D01*
X0121019Y0191219D01*
X0121019Y0184744D01*
X0121956Y0183806D01*
X0121019Y0185764D02*
X0082124Y0185764D01*
X0082124Y0187363D02*
X0121019Y0187363D01*
X0121019Y0188961D02*
X0082124Y0188961D01*
X0082124Y0190560D02*
X0121019Y0190560D01*
X0129368Y0190560D02*
X0319895Y0190560D01*
X0319767Y0190431D02*
X0320704Y0191368D01*
X0327179Y0191368D01*
X0328117Y0190431D01*
X0328117Y0183956D01*
X0327179Y0183019D01*
X0320704Y0183019D01*
X0319767Y0183956D01*
X0319767Y0190431D01*
X0319767Y0188961D02*
X0129368Y0188961D01*
X0129368Y0187363D02*
X0319767Y0187363D01*
X0319767Y0185764D02*
X0129368Y0185764D01*
X0128791Y0184166D02*
X0319767Y0184166D01*
X0318523Y0192279D02*
X0317586Y0193216D01*
X0317586Y0199691D01*
X0318523Y0200628D01*
X0324998Y0200628D01*
X0325935Y0199691D01*
X0325935Y0193216D01*
X0324998Y0192279D01*
X0318523Y0192279D01*
X0317586Y0193757D02*
X0082124Y0193757D01*
X0082124Y0195355D02*
X0191971Y0195355D01*
X0192016Y0195247D02*
X0192885Y0194378D01*
X0194020Y0193908D01*
X0195249Y0193908D01*
X0196384Y0194378D01*
X0196813Y0194806D01*
X0308416Y0194806D01*
X0308636Y0195027D01*
X0312951Y0195027D01*
X0313888Y0195964D01*
X0313888Y0202439D01*
X0312951Y0203376D01*
X0306476Y0203376D01*
X0305539Y0202439D01*
X0305539Y0199187D01*
X0196813Y0199187D01*
X0196384Y0199616D01*
X0195249Y0200086D01*
X0194020Y0200086D01*
X0192885Y0199616D01*
X0192016Y0198747D01*
X0191546Y0197611D01*
X0191546Y0196382D01*
X0192016Y0195247D01*
X0191546Y0196954D02*
X0082124Y0196954D01*
X0082124Y0198552D02*
X0191935Y0198552D01*
X0194746Y0255515D02*
X0192504Y0256443D01*
X0190788Y0258159D01*
X0189859Y0260401D01*
X0189859Y0262828D01*
X0190788Y0265070D01*
X0192504Y0266786D01*
X0194746Y0267715D01*
X0197172Y0267715D01*
X0199414Y0266786D01*
X0201130Y0265070D01*
X0202059Y0262828D01*
X0202059Y0260401D01*
X0201130Y0258159D01*
X0199414Y0256443D01*
X0197172Y0255515D01*
X0194746Y0255515D01*
X0193336Y0256099D02*
X0172786Y0256099D01*
X0172937Y0256176D02*
X0173739Y0256758D01*
X0174440Y0257460D01*
X0175023Y0258262D01*
X0175473Y0259145D01*
X0175780Y0260089D01*
X0175902Y0260864D01*
X0170335Y0260864D01*
X0170335Y0262264D01*
X0175902Y0262264D01*
X0175780Y0263039D01*
X0175473Y0263982D01*
X0175023Y0264866D01*
X0174440Y0265668D01*
X0173739Y0266369D01*
X0172937Y0266952D01*
X0172053Y0267402D01*
X0171110Y0267709D01*
X0170335Y0267831D01*
X0170335Y0262264D01*
X0168935Y0262264D01*
X0168935Y0267831D01*
X0168159Y0267709D01*
X0167216Y0267402D01*
X0166333Y0266952D01*
X0165530Y0266369D01*
X0164829Y0265668D01*
X0164246Y0264866D01*
X0163796Y0263982D01*
X0163490Y0263039D01*
X0163367Y0262264D01*
X0168935Y0262264D01*
X0168935Y0260864D01*
X0170335Y0260864D01*
X0170335Y0255296D01*
X0171110Y0255419D01*
X0172053Y0255725D01*
X0172937Y0256176D01*
X0174613Y0257697D02*
X0191250Y0257697D01*
X0190317Y0259296D02*
X0175522Y0259296D01*
X0175866Y0262493D02*
X0189859Y0262493D01*
X0189859Y0260894D02*
X0170335Y0260894D01*
X0168935Y0260894D02*
X0149554Y0260894D01*
X0149554Y0260350D02*
X0148625Y0258108D01*
X0146909Y0256392D01*
X0144667Y0255464D01*
X0142240Y0255464D01*
X0139998Y0256392D01*
X0138282Y0258108D01*
X0137354Y0260350D01*
X0137354Y0262777D01*
X0138282Y0265019D01*
X0139998Y0266735D01*
X0142240Y0267664D01*
X0144667Y0267664D01*
X0146909Y0266735D01*
X0148625Y0265019D01*
X0149554Y0262777D01*
X0149554Y0260350D01*
X0149117Y0259296D02*
X0163747Y0259296D01*
X0163796Y0259145D02*
X0164246Y0258262D01*
X0164829Y0257460D01*
X0165530Y0256758D01*
X0166333Y0256176D01*
X0167216Y0255725D01*
X0168159Y0255419D01*
X0168935Y0255296D01*
X0168935Y0260864D01*
X0163367Y0260864D01*
X0163490Y0260089D01*
X0163796Y0259145D01*
X0164657Y0257697D02*
X0148214Y0257697D01*
X0146200Y0256099D02*
X0166484Y0256099D01*
X0168935Y0256099D02*
X0170335Y0256099D01*
X0170335Y0257697D02*
X0168935Y0257697D01*
X0168935Y0259296D02*
X0170335Y0259296D01*
X0170335Y0262493D02*
X0168935Y0262493D01*
X0168935Y0264091D02*
X0170335Y0264091D01*
X0170335Y0265690D02*
X0168935Y0265690D01*
X0168935Y0267288D02*
X0170335Y0267288D01*
X0172277Y0267288D02*
X0193716Y0267288D01*
X0191407Y0265690D02*
X0174418Y0265690D01*
X0175417Y0264091D02*
X0190382Y0264091D01*
X0198202Y0267288D02*
X0217155Y0267288D01*
X0216770Y0267129D02*
X0215054Y0265413D01*
X0214125Y0263171D01*
X0214125Y0260744D01*
X0215054Y0258502D01*
X0216770Y0256786D01*
X0219012Y0255857D01*
X0221439Y0255857D01*
X0223681Y0256786D01*
X0225397Y0258502D01*
X0226325Y0260744D01*
X0226325Y0263171D01*
X0225397Y0265413D01*
X0223681Y0267129D01*
X0221439Y0268057D01*
X0219012Y0268057D01*
X0216770Y0267129D01*
X0215331Y0265690D02*
X0200511Y0265690D01*
X0201536Y0264091D02*
X0214506Y0264091D01*
X0214125Y0262493D02*
X0202059Y0262493D01*
X0202059Y0260894D02*
X0214125Y0260894D01*
X0214725Y0259296D02*
X0201601Y0259296D01*
X0200668Y0257697D02*
X0215859Y0257697D01*
X0218430Y0256099D02*
X0198582Y0256099D01*
X0197029Y0275739D02*
X0199271Y0276668D01*
X0200987Y0278384D01*
X0201916Y0280626D01*
X0201916Y0283053D01*
X0200987Y0285295D01*
X0199271Y0287011D01*
X0197029Y0287939D01*
X0194602Y0287939D01*
X0192360Y0287011D01*
X0190644Y0285295D01*
X0189716Y0283053D01*
X0189716Y0280626D01*
X0190644Y0278384D01*
X0192360Y0276668D01*
X0194602Y0275739D01*
X0197029Y0275739D01*
X0199482Y0276879D02*
X0216362Y0276879D01*
X0216770Y0276471D02*
X0219012Y0275543D01*
X0221439Y0275543D01*
X0223681Y0276471D01*
X0225397Y0278187D01*
X0226325Y0280429D01*
X0226325Y0282856D01*
X0225397Y0285098D01*
X0223681Y0286814D01*
X0221439Y0287743D01*
X0219012Y0287743D01*
X0216770Y0286814D01*
X0215054Y0285098D01*
X0214125Y0282856D01*
X0214125Y0280429D01*
X0215054Y0278187D01*
X0216770Y0276471D01*
X0214933Y0278478D02*
X0201026Y0278478D01*
X0201688Y0280076D02*
X0214271Y0280076D01*
X0214125Y0281675D02*
X0201916Y0281675D01*
X0201824Y0283273D02*
X0214298Y0283273D01*
X0214960Y0284872D02*
X0201162Y0284872D01*
X0199811Y0286470D02*
X0216426Y0286470D01*
X0224024Y0286470D02*
X0250284Y0286470D01*
X0249586Y0286760D02*
X0251120Y0286124D01*
X0252781Y0286124D01*
X0254316Y0286760D01*
X0255490Y0287934D01*
X0256126Y0289468D01*
X0256126Y0291129D01*
X0255490Y0292664D01*
X0254316Y0293838D01*
X0252781Y0294474D01*
X0251120Y0294474D01*
X0249586Y0293838D01*
X0248412Y0292664D01*
X0247776Y0291129D01*
X0247776Y0289468D01*
X0248412Y0287934D01*
X0249586Y0286760D01*
X0248356Y0288069D02*
X0082124Y0288069D01*
X0082124Y0289667D02*
X0247776Y0289667D01*
X0247833Y0291266D02*
X0082124Y0291266D01*
X0082124Y0292864D02*
X0248612Y0292864D01*
X0251095Y0294463D02*
X0082124Y0294463D01*
X0082124Y0296061D02*
X0142128Y0296061D01*
X0142240Y0296015D02*
X0144667Y0296015D01*
X0146909Y0296944D01*
X0148625Y0298660D01*
X0149554Y0300902D01*
X0149554Y0303328D01*
X0148625Y0305570D01*
X0146909Y0307286D01*
X0144667Y0308215D01*
X0142240Y0308215D01*
X0139998Y0307286D01*
X0138282Y0305570D01*
X0137354Y0303328D01*
X0137354Y0300902D01*
X0138282Y0298660D01*
X0139998Y0296944D01*
X0142240Y0296015D01*
X0144779Y0296061D02*
X0168309Y0296061D01*
X0168421Y0296015D02*
X0170848Y0296015D01*
X0173090Y0296944D01*
X0174806Y0298660D01*
X0175735Y0300902D01*
X0175735Y0303328D01*
X0174806Y0305570D01*
X0173090Y0307286D01*
X0170848Y0308215D01*
X0168421Y0308215D01*
X0166179Y0307286D01*
X0164463Y0305570D01*
X0163535Y0303328D01*
X0163535Y0300902D01*
X0164463Y0298660D01*
X0166179Y0296944D01*
X0168421Y0296015D01*
X0170960Y0296061D02*
X0193703Y0296061D01*
X0193815Y0296015D02*
X0196242Y0296015D01*
X0198484Y0296944D01*
X0200200Y0298660D01*
X0201128Y0300902D01*
X0201128Y0303328D01*
X0200200Y0305570D01*
X0198484Y0307286D01*
X0196242Y0308215D01*
X0193815Y0308215D01*
X0191573Y0307286D01*
X0189857Y0305570D01*
X0188928Y0303328D01*
X0188928Y0300902D01*
X0189857Y0298660D01*
X0191573Y0296944D01*
X0193815Y0296015D01*
X0196354Y0296061D02*
X0218900Y0296061D01*
X0219012Y0296015D02*
X0221439Y0296015D01*
X0223681Y0296944D01*
X0225397Y0298660D01*
X0226325Y0300902D01*
X0226325Y0303328D01*
X0225397Y0305570D01*
X0223681Y0307286D01*
X0221439Y0308215D01*
X0219012Y0308215D01*
X0216770Y0307286D01*
X0215054Y0305570D01*
X0214125Y0303328D01*
X0214125Y0300902D01*
X0215054Y0298660D01*
X0216770Y0296944D01*
X0219012Y0296015D01*
X0221551Y0296061D02*
X0460688Y0296061D01*
X0460688Y0294463D02*
X0252807Y0294463D01*
X0255289Y0292864D02*
X0460688Y0292864D01*
X0460688Y0291266D02*
X0256069Y0291266D01*
X0256126Y0289667D02*
X0460688Y0289667D01*
X0460688Y0288069D02*
X0255546Y0288069D01*
X0253618Y0286470D02*
X0348239Y0286470D01*
X0348334Y0286565D02*
X0347397Y0285628D01*
X0347397Y0279153D01*
X0348334Y0278216D01*
X0354809Y0278216D01*
X0355746Y0279153D01*
X0355746Y0285628D01*
X0354809Y0286565D01*
X0348334Y0286565D01*
X0347397Y0284872D02*
X0263469Y0284872D01*
X0263275Y0285013D02*
X0262662Y0285325D01*
X0262007Y0285538D01*
X0261327Y0285646D01*
X0260982Y0285646D01*
X0260638Y0285646D01*
X0259958Y0285538D01*
X0259303Y0285325D01*
X0258689Y0285013D01*
X0258132Y0284608D01*
X0257645Y0284121D01*
X0257241Y0283564D01*
X0256928Y0282951D01*
X0256715Y0282296D01*
X0256607Y0281615D01*
X0256607Y0281271D01*
X0256607Y0280927D01*
X0256715Y0280247D01*
X0256928Y0279592D01*
X0257241Y0278978D01*
X0257645Y0278421D01*
X0258132Y0277934D01*
X0258689Y0277530D01*
X0259303Y0277217D01*
X0259958Y0277004D01*
X0260638Y0276896D01*
X0260982Y0276896D01*
X0260982Y0281271D01*
X0256607Y0281271D01*
X0260982Y0281271D01*
X0260982Y0281271D01*
X0260982Y0281271D01*
X0260982Y0276896D01*
X0261327Y0276896D01*
X0262007Y0277004D01*
X0262662Y0277217D01*
X0263275Y0277530D01*
X0263832Y0277934D01*
X0264319Y0278421D01*
X0264724Y0278978D01*
X0265037Y0279592D01*
X0265249Y0280247D01*
X0265357Y0280927D01*
X0265357Y0281271D01*
X0260982Y0281271D01*
X0260982Y0285646D01*
X0260982Y0281271D01*
X0260982Y0281271D01*
X0260982Y0281271D01*
X0265357Y0281271D01*
X0265357Y0281615D01*
X0265249Y0282296D01*
X0265037Y0282951D01*
X0264724Y0283564D01*
X0264319Y0284121D01*
X0263832Y0284608D01*
X0263275Y0285013D01*
X0260982Y0284872D02*
X0260982Y0284872D01*
X0260982Y0283273D02*
X0260982Y0283273D01*
X0260982Y0281675D02*
X0260982Y0281675D01*
X0260982Y0280076D02*
X0260982Y0280076D01*
X0260982Y0278478D02*
X0260982Y0278478D01*
X0257604Y0278478D02*
X0246030Y0278478D01*
X0246458Y0278906D02*
X0247094Y0280441D01*
X0247094Y0282102D01*
X0246458Y0283636D01*
X0245284Y0284810D01*
X0243750Y0285446D01*
X0242089Y0285446D01*
X0240554Y0284810D01*
X0239380Y0283636D01*
X0238744Y0282102D01*
X0238744Y0280441D01*
X0239380Y0278906D01*
X0240554Y0277732D01*
X0242089Y0277096D01*
X0243750Y0277096D01*
X0245284Y0277732D01*
X0246458Y0278906D01*
X0246943Y0280076D02*
X0256771Y0280076D01*
X0256617Y0281675D02*
X0247094Y0281675D01*
X0246609Y0283273D02*
X0257092Y0283273D01*
X0258495Y0284872D02*
X0245136Y0284872D01*
X0240703Y0284872D02*
X0225490Y0284872D01*
X0226152Y0283273D02*
X0239230Y0283273D01*
X0238744Y0281675D02*
X0226325Y0281675D01*
X0226179Y0280076D02*
X0238895Y0280076D01*
X0239809Y0278478D02*
X0225517Y0278478D01*
X0224089Y0276879D02*
X0460688Y0276879D01*
X0460688Y0275281D02*
X0254818Y0275281D01*
X0254316Y0275783D02*
X0252781Y0276418D01*
X0251120Y0276418D01*
X0249586Y0275783D01*
X0248412Y0274608D01*
X0247776Y0273074D01*
X0247776Y0271413D01*
X0248412Y0269879D01*
X0249586Y0268704D01*
X0251120Y0268069D01*
X0252781Y0268069D01*
X0252955Y0268141D01*
X0254341Y0266755D01*
X0259191Y0266755D01*
X0259191Y0265921D01*
X0260128Y0264984D01*
X0264603Y0264984D01*
X0265540Y0265921D01*
X0265540Y0271971D01*
X0264603Y0272908D01*
X0260128Y0272908D01*
X0259191Y0271971D01*
X0259191Y0271136D01*
X0256156Y0271136D01*
X0256053Y0271239D01*
X0256126Y0271413D01*
X0256126Y0273074D01*
X0255490Y0274608D01*
X0254316Y0275783D01*
X0255874Y0273682D02*
X0460688Y0273682D01*
X0460688Y0272084D02*
X0272658Y0272084D01*
X0272704Y0272003D02*
X0272467Y0272413D01*
X0272132Y0272748D01*
X0271722Y0272985D01*
X0271264Y0273108D01*
X0269452Y0273108D01*
X0267640Y0273108D01*
X0267183Y0272985D01*
X0266772Y0272748D01*
X0266437Y0272413D01*
X0266200Y0272003D01*
X0266077Y0271545D01*
X0266077Y0268946D01*
X0269452Y0268946D01*
X0269452Y0273108D01*
X0269452Y0268946D01*
X0269452Y0268946D01*
X0269452Y0268946D01*
X0266077Y0268946D01*
X0266077Y0266347D01*
X0266200Y0265889D01*
X0266437Y0265478D01*
X0266772Y0265143D01*
X0267183Y0264906D01*
X0267640Y0264784D01*
X0269452Y0264784D01*
X0269452Y0268946D01*
X0272827Y0268946D01*
X0272827Y0271545D01*
X0272704Y0272003D01*
X0272827Y0270485D02*
X0460688Y0270485D01*
X0460688Y0268887D02*
X0272827Y0268887D01*
X0272827Y0268946D02*
X0269452Y0268946D01*
X0269452Y0268946D01*
X0269452Y0268946D01*
X0269452Y0264784D01*
X0271264Y0264784D01*
X0271722Y0264906D01*
X0272132Y0265143D01*
X0272467Y0265478D01*
X0272704Y0265889D01*
X0272827Y0266347D01*
X0272827Y0268946D01*
X0272827Y0267288D02*
X0460688Y0267288D01*
X0460688Y0265690D02*
X0272589Y0265690D01*
X0269452Y0265690D02*
X0269452Y0265690D01*
X0269452Y0267288D02*
X0269452Y0267288D01*
X0269452Y0268887D02*
X0269452Y0268887D01*
X0269452Y0270485D02*
X0269452Y0270485D01*
X0269452Y0272084D02*
X0269452Y0272084D01*
X0266247Y0272084D02*
X0265427Y0272084D01*
X0265540Y0270485D02*
X0266077Y0270485D01*
X0266077Y0268887D02*
X0265540Y0268887D01*
X0265540Y0267288D02*
X0266077Y0267288D01*
X0266315Y0265690D02*
X0265309Y0265690D01*
X0259422Y0265690D02*
X0225120Y0265690D01*
X0225944Y0264091D02*
X0460688Y0264091D01*
X0460688Y0262493D02*
X0226325Y0262493D01*
X0226325Y0260894D02*
X0460688Y0260894D01*
X0460688Y0259296D02*
X0225725Y0259296D01*
X0224592Y0257697D02*
X0460688Y0257697D01*
X0460688Y0256099D02*
X0222021Y0256099D01*
X0223296Y0267288D02*
X0253808Y0267288D01*
X0249404Y0268887D02*
X0082124Y0268887D01*
X0082124Y0270485D02*
X0248160Y0270485D01*
X0247776Y0272084D02*
X0082124Y0272084D01*
X0082124Y0273682D02*
X0248028Y0273682D01*
X0249084Y0275281D02*
X0082124Y0275281D01*
X0082124Y0276879D02*
X0139787Y0276879D01*
X0139998Y0276668D02*
X0142240Y0275739D01*
X0144667Y0275739D01*
X0146909Y0276668D01*
X0148625Y0278384D01*
X0149554Y0280626D01*
X0149554Y0283053D01*
X0148625Y0285295D01*
X0146909Y0287011D01*
X0144667Y0287939D01*
X0142240Y0287939D01*
X0139998Y0287011D01*
X0138282Y0285295D01*
X0137354Y0283053D01*
X0137354Y0280626D01*
X0138282Y0278384D01*
X0139998Y0276668D01*
X0138243Y0278478D02*
X0082124Y0278478D01*
X0082124Y0280076D02*
X0137581Y0280076D01*
X0137354Y0281675D02*
X0082124Y0281675D01*
X0082124Y0283273D02*
X0137445Y0283273D01*
X0138107Y0284872D02*
X0082124Y0284872D01*
X0082124Y0286470D02*
X0139458Y0286470D01*
X0147449Y0286470D02*
X0165639Y0286470D01*
X0166179Y0287011D02*
X0164463Y0285295D01*
X0163535Y0283053D01*
X0163535Y0280626D01*
X0164463Y0278384D01*
X0166179Y0276668D01*
X0168421Y0275739D01*
X0170848Y0275739D01*
X0173090Y0276668D01*
X0174806Y0278384D01*
X0175735Y0280626D01*
X0175735Y0283053D01*
X0174806Y0285295D01*
X0173090Y0287011D01*
X0170848Y0287939D01*
X0168421Y0287939D01*
X0166179Y0287011D01*
X0164288Y0284872D02*
X0148800Y0284872D01*
X0149462Y0283273D02*
X0163626Y0283273D01*
X0163535Y0281675D02*
X0149554Y0281675D01*
X0149326Y0280076D02*
X0163762Y0280076D01*
X0164424Y0278478D02*
X0148664Y0278478D01*
X0147120Y0276879D02*
X0165968Y0276879D01*
X0173301Y0276879D02*
X0192149Y0276879D01*
X0190606Y0278478D02*
X0174845Y0278478D01*
X0175507Y0280076D02*
X0189943Y0280076D01*
X0189716Y0281675D02*
X0175735Y0281675D01*
X0175643Y0283273D02*
X0189807Y0283273D01*
X0190469Y0284872D02*
X0174981Y0284872D01*
X0173630Y0286470D02*
X0191820Y0286470D01*
X0190857Y0297660D02*
X0173806Y0297660D01*
X0175054Y0299258D02*
X0189609Y0299258D01*
X0188947Y0300857D02*
X0175716Y0300857D01*
X0175735Y0302455D02*
X0188928Y0302455D01*
X0189229Y0304054D02*
X0175434Y0304054D01*
X0174724Y0305653D02*
X0189939Y0305653D01*
X0191538Y0307251D02*
X0173125Y0307251D01*
X0166144Y0307251D02*
X0146944Y0307251D01*
X0148543Y0305653D02*
X0164545Y0305653D01*
X0163835Y0304054D02*
X0149253Y0304054D01*
X0149554Y0302455D02*
X0163535Y0302455D01*
X0163553Y0300857D02*
X0149535Y0300857D01*
X0148873Y0299258D02*
X0164215Y0299258D01*
X0165463Y0297660D02*
X0147625Y0297660D01*
X0139282Y0297660D02*
X0082124Y0297660D01*
X0082124Y0299258D02*
X0138034Y0299258D01*
X0137372Y0300857D02*
X0082124Y0300857D01*
X0082124Y0302455D02*
X0137354Y0302455D01*
X0137654Y0304054D02*
X0082124Y0304054D01*
X0082124Y0305653D02*
X0138364Y0305653D01*
X0139963Y0307251D02*
X0082124Y0307251D01*
X0082124Y0308850D02*
X0251790Y0308850D01*
X0251790Y0308021D02*
X0252903Y0306908D01*
X0256035Y0306908D01*
X0277338Y0306527D01*
X0277382Y0306487D01*
X0278117Y0306514D01*
X0278852Y0306500D01*
X0278895Y0306542D01*
X0278955Y0306544D01*
X0279456Y0307083D01*
X0279985Y0307593D01*
X0279986Y0307653D01*
X0300333Y0329536D01*
X0300865Y0330068D01*
X0300865Y0330108D01*
X0300893Y0330138D01*
X0300865Y0330890D01*
X0300865Y0338798D01*
X0301721Y0338798D01*
X0307626Y0344703D01*
X0317469Y0354546D01*
X0318582Y0355659D01*
X0318582Y0369044D01*
X0312676Y0374949D01*
X0311563Y0376062D01*
X0278493Y0376062D01*
X0262745Y0360314D01*
X0261632Y0359201D01*
X0261632Y0341879D01*
X0262745Y0340766D01*
X0263601Y0339911D01*
X0263798Y0339713D01*
X0263601Y0339516D01*
X0252903Y0328818D01*
X0251790Y0327705D01*
X0251790Y0308021D01*
X0252560Y0307251D02*
X0223716Y0307251D01*
X0225314Y0305653D02*
X0279237Y0305653D01*
X0279499Y0305915D02*
X0278630Y0305046D01*
X0278160Y0303910D01*
X0278160Y0302682D01*
X0278630Y0301546D01*
X0279499Y0300677D01*
X0280634Y0300207D01*
X0281863Y0300207D01*
X0282999Y0300677D01*
X0283868Y0301546D01*
X0284338Y0302682D01*
X0284338Y0303287D01*
X0312629Y0331578D01*
X0313912Y0332861D01*
X0313912Y0336247D01*
X0314959Y0336247D01*
X0315896Y0337184D01*
X0315896Y0343660D01*
X0314959Y0344597D01*
X0308484Y0344597D01*
X0307546Y0343660D01*
X0307546Y0337184D01*
X0308484Y0336247D01*
X0309531Y0336247D01*
X0309531Y0334676D01*
X0281240Y0306385D01*
X0280634Y0306385D01*
X0279499Y0305915D01*
X0279630Y0307251D02*
X0282106Y0307251D01*
X0281098Y0308850D02*
X0283704Y0308850D01*
X0282585Y0310448D02*
X0285303Y0310448D01*
X0284071Y0312047D02*
X0286901Y0312047D01*
X0285557Y0313645D02*
X0288500Y0313645D01*
X0287044Y0315244D02*
X0290098Y0315244D01*
X0288530Y0316842D02*
X0291697Y0316842D01*
X0293295Y0318441D02*
X0290016Y0318441D01*
X0291503Y0320039D02*
X0294894Y0320039D01*
X0296492Y0321638D02*
X0292989Y0321638D01*
X0294475Y0323236D02*
X0298091Y0323236D01*
X0299690Y0324835D02*
X0295962Y0324835D01*
X0297448Y0326433D02*
X0301288Y0326433D01*
X0302887Y0328032D02*
X0298934Y0328032D01*
X0300427Y0329630D02*
X0304485Y0329630D01*
X0306084Y0331229D02*
X0300865Y0331229D01*
X0300865Y0332827D02*
X0307682Y0332827D01*
X0309281Y0334426D02*
X0300865Y0334426D01*
X0300865Y0336024D02*
X0309531Y0336024D01*
X0307546Y0337623D02*
X0300865Y0337623D01*
X0302144Y0339221D02*
X0307546Y0339221D01*
X0307546Y0340820D02*
X0303743Y0340820D01*
X0305341Y0342418D02*
X0307546Y0342418D01*
X0307904Y0344017D02*
X0306940Y0344017D01*
X0308539Y0345615D02*
X0346609Y0345615D01*
X0346609Y0344017D02*
X0315539Y0344017D01*
X0315896Y0342418D02*
X0346609Y0342418D01*
X0346609Y0340964D02*
X0347547Y0340027D01*
X0354022Y0340027D01*
X0354959Y0340964D01*
X0354959Y0347439D01*
X0354022Y0348376D01*
X0347547Y0348376D01*
X0346609Y0347439D01*
X0346609Y0340964D01*
X0346754Y0340820D02*
X0315896Y0340820D01*
X0315896Y0339221D02*
X0460688Y0339221D01*
X0460688Y0337623D02*
X0315896Y0337623D01*
X0313912Y0336024D02*
X0460688Y0336024D01*
X0460688Y0334426D02*
X0313912Y0334426D01*
X0313878Y0332827D02*
X0460688Y0332827D01*
X0460688Y0331229D02*
X0312279Y0331229D01*
X0310681Y0329630D02*
X0460688Y0329630D01*
X0460688Y0328032D02*
X0309082Y0328032D01*
X0307484Y0326433D02*
X0460688Y0326433D01*
X0460688Y0324835D02*
X0305885Y0324835D01*
X0304287Y0323236D02*
X0460688Y0323236D01*
X0460688Y0321638D02*
X0302688Y0321638D01*
X0301090Y0320039D02*
X0460688Y0320039D01*
X0460688Y0318441D02*
X0299491Y0318441D01*
X0297893Y0316842D02*
X0460688Y0316842D01*
X0460688Y0315244D02*
X0355353Y0315244D01*
X0355353Y0315864D02*
X0354415Y0316802D01*
X0347940Y0316802D01*
X0347003Y0315864D01*
X0347003Y0309389D01*
X0347940Y0308452D01*
X0354415Y0308452D01*
X0355353Y0309389D01*
X0355353Y0315864D01*
X0355353Y0313645D02*
X0460688Y0313645D01*
X0460688Y0312047D02*
X0355353Y0312047D01*
X0355353Y0310448D02*
X0460688Y0310448D01*
X0460688Y0308850D02*
X0354813Y0308850D01*
X0347543Y0308850D02*
X0289900Y0308850D01*
X0291499Y0310448D02*
X0347003Y0310448D01*
X0347003Y0312047D02*
X0293097Y0312047D01*
X0294696Y0313645D02*
X0347003Y0313645D01*
X0347003Y0315244D02*
X0296294Y0315244D01*
X0288302Y0307251D02*
X0460688Y0307251D01*
X0460688Y0305653D02*
X0286703Y0305653D01*
X0285105Y0304054D02*
X0460688Y0304054D01*
X0460688Y0302455D02*
X0284244Y0302455D01*
X0283178Y0300857D02*
X0460688Y0300857D01*
X0460688Y0299258D02*
X0225645Y0299258D01*
X0226307Y0300857D02*
X0279319Y0300857D01*
X0278254Y0302455D02*
X0226325Y0302455D01*
X0226025Y0304054D02*
X0278219Y0304054D01*
X0264872Y0283273D02*
X0347397Y0283273D01*
X0347397Y0281675D02*
X0265348Y0281675D01*
X0265194Y0280076D02*
X0347397Y0280076D01*
X0348072Y0278478D02*
X0264360Y0278478D01*
X0259304Y0272084D02*
X0256126Y0272084D01*
X0224397Y0297660D02*
X0460688Y0297660D01*
X0460688Y0286470D02*
X0354904Y0286470D01*
X0355746Y0284872D02*
X0460688Y0284872D01*
X0460688Y0283273D02*
X0355746Y0283273D01*
X0355746Y0281675D02*
X0460688Y0281675D01*
X0460688Y0280076D02*
X0355746Y0280076D01*
X0355071Y0278478D02*
X0460688Y0278478D01*
X0460688Y0254500D02*
X0082124Y0254500D01*
X0082124Y0252902D02*
X0460688Y0252902D01*
X0460688Y0251303D02*
X0082124Y0251303D01*
X0082124Y0249705D02*
X0460688Y0249705D01*
X0460688Y0248106D02*
X0082124Y0248106D01*
X0082124Y0246508D02*
X0460688Y0246508D01*
X0460688Y0244909D02*
X0082124Y0244909D01*
X0082124Y0243311D02*
X0460688Y0243311D01*
X0460688Y0241712D02*
X0082124Y0241712D01*
X0082124Y0240114D02*
X0460688Y0240114D01*
X0460688Y0238515D02*
X0082124Y0238515D01*
X0082124Y0236917D02*
X0460688Y0236917D01*
X0460688Y0235318D02*
X0082124Y0235318D01*
X0082124Y0233720D02*
X0290756Y0233720D01*
X0291122Y0234085D02*
X0290184Y0233148D01*
X0290184Y0226673D01*
X0291122Y0225735D01*
X0297597Y0225735D01*
X0298534Y0226673D01*
X0298534Y0233148D01*
X0297597Y0234085D01*
X0291122Y0234085D01*
X0290184Y0232121D02*
X0082124Y0232121D01*
X0082124Y0230522D02*
X0290184Y0230522D01*
X0290184Y0228924D02*
X0082124Y0228924D01*
X0082124Y0227325D02*
X0290184Y0227325D01*
X0298534Y0227325D02*
X0452220Y0227325D01*
X0452220Y0228924D02*
X0298534Y0228924D01*
X0298534Y0230522D02*
X0452220Y0230522D01*
X0452260Y0232121D02*
X0298534Y0232121D01*
X0297962Y0233720D02*
X0460688Y0233720D01*
X0456595Y0232121D02*
X0456595Y0232121D01*
X0456595Y0230522D02*
X0456595Y0230522D01*
X0456595Y0228924D02*
X0456595Y0228924D01*
X0456595Y0227325D02*
X0456595Y0227325D01*
X0456595Y0225727D02*
X0456595Y0225727D01*
X0452439Y0225727D02*
X0082124Y0225727D01*
X0082124Y0224128D02*
X0460688Y0224128D01*
X0460688Y0222530D02*
X0357034Y0222530D01*
X0357321Y0222242D02*
X0356384Y0223180D01*
X0349909Y0223180D01*
X0348972Y0222242D01*
X0348972Y0215767D01*
X0349909Y0214830D01*
X0356384Y0214830D01*
X0357321Y0215767D01*
X0357321Y0222242D01*
X0357321Y0220931D02*
X0460688Y0220931D01*
X0460688Y0219333D02*
X0357321Y0219333D01*
X0357321Y0217734D02*
X0460688Y0217734D01*
X0460688Y0216136D02*
X0357321Y0216136D01*
X0348972Y0216136D02*
X0110634Y0216136D01*
X0110580Y0215932D02*
X0110702Y0216390D01*
X0110702Y0219202D01*
X0110702Y0222013D01*
X0110580Y0222471D01*
X0110343Y0222882D01*
X0110008Y0223217D01*
X0109597Y0223454D01*
X0109139Y0223576D01*
X0106328Y0223576D01*
X0106328Y0219202D01*
X0106327Y0219202D01*
X0106327Y0219202D01*
X0101953Y0219202D01*
X0101953Y0222013D01*
X0102075Y0222471D01*
X0102312Y0222882D01*
X0102648Y0223217D01*
X0103058Y0223454D01*
X0103516Y0223576D01*
X0106327Y0223576D01*
X0106327Y0219202D01*
X0101953Y0219202D01*
X0101953Y0216390D01*
X0102075Y0215932D01*
X0102312Y0215522D01*
X0102648Y0215186D01*
X0103058Y0214949D01*
X0103516Y0214827D01*
X0106327Y0214827D01*
X0106327Y0219201D01*
X0106328Y0219201D01*
X0106328Y0219202D02*
X0106328Y0219202D01*
X0110702Y0219202D01*
X0106328Y0219202D01*
X0106328Y0219201D02*
X0106328Y0214827D01*
X0109139Y0214827D01*
X0109597Y0214949D01*
X0110008Y0215186D01*
X0110343Y0215522D01*
X0110580Y0215932D01*
X0110702Y0217734D02*
X0348972Y0217734D01*
X0348972Y0219333D02*
X0110702Y0219333D01*
X0110702Y0220931D02*
X0348972Y0220931D01*
X0349259Y0222530D02*
X0110546Y0222530D01*
X0106328Y0222530D02*
X0106327Y0222530D01*
X0106327Y0220931D02*
X0106328Y0220931D01*
X0106327Y0219333D02*
X0106328Y0219333D01*
X0106327Y0217734D02*
X0106328Y0217734D01*
X0106327Y0216136D02*
X0106328Y0216136D01*
X0102021Y0216136D02*
X0082124Y0216136D01*
X0082124Y0217734D02*
X0101953Y0217734D01*
X0101953Y0219333D02*
X0082124Y0219333D01*
X0082124Y0220931D02*
X0101953Y0220931D01*
X0102109Y0222530D02*
X0082124Y0222530D01*
X0082124Y0214537D02*
X0460688Y0214537D01*
X0460688Y0212939D02*
X0082124Y0212939D01*
X0082124Y0211340D02*
X0460688Y0211340D01*
X0460688Y0209742D02*
X0082124Y0209742D01*
X0082124Y0208143D02*
X0460688Y0208143D01*
X0460688Y0206545D02*
X0082124Y0206545D01*
X0082124Y0204946D02*
X0460688Y0204946D01*
X0460688Y0203348D02*
X0312980Y0203348D01*
X0313888Y0201749D02*
X0460688Y0201749D01*
X0460688Y0200151D02*
X0325476Y0200151D01*
X0325935Y0198552D02*
X0460688Y0198552D01*
X0460688Y0196954D02*
X0325935Y0196954D01*
X0325935Y0195355D02*
X0460688Y0195355D01*
X0460688Y0193757D02*
X0325935Y0193757D01*
X0327988Y0190560D02*
X0460688Y0190560D01*
X0460688Y0192158D02*
X0082124Y0192158D01*
X0082124Y0200151D02*
X0305539Y0200151D01*
X0305539Y0201749D02*
X0082124Y0201749D01*
X0082124Y0203348D02*
X0306447Y0203348D01*
X0313888Y0200151D02*
X0318046Y0200151D01*
X0317586Y0198552D02*
X0313888Y0198552D01*
X0313888Y0196954D02*
X0317586Y0196954D01*
X0317586Y0195355D02*
X0313279Y0195355D01*
X0328117Y0188961D02*
X0460688Y0188961D01*
X0460688Y0187363D02*
X0328117Y0187363D01*
X0328117Y0185764D02*
X0460688Y0185764D01*
X0460688Y0184166D02*
X0328117Y0184166D01*
X0216053Y0297660D02*
X0199200Y0297660D01*
X0200448Y0299258D02*
X0214806Y0299258D01*
X0214144Y0300857D02*
X0201110Y0300857D01*
X0201128Y0302455D02*
X0214125Y0302455D01*
X0214426Y0304054D02*
X0200828Y0304054D01*
X0200117Y0305653D02*
X0215136Y0305653D01*
X0216735Y0307251D02*
X0198519Y0307251D01*
X0204565Y0313085D02*
X0206807Y0312157D01*
X0209234Y0312157D01*
X0211476Y0313085D01*
X0213192Y0314801D01*
X0214120Y0317043D01*
X0214120Y0319470D01*
X0213192Y0321712D01*
X0211476Y0323428D01*
X0209234Y0324357D01*
X0206807Y0324357D01*
X0204565Y0323428D01*
X0202849Y0321712D01*
X0201920Y0319470D01*
X0201920Y0317043D01*
X0202849Y0314801D01*
X0204565Y0313085D01*
X0204005Y0313645D02*
X0082124Y0313645D01*
X0082124Y0312047D02*
X0232228Y0312047D01*
X0232591Y0312047D02*
X0233991Y0312047D01*
X0233991Y0311989D02*
X0234766Y0312112D01*
X0235709Y0312418D01*
X0236593Y0312868D01*
X0237395Y0313451D01*
X0238096Y0314153D01*
X0238679Y0314955D01*
X0239129Y0315838D01*
X0239436Y0316781D01*
X0239558Y0317557D01*
X0233991Y0317557D01*
X0233991Y0318957D01*
X0232591Y0318957D01*
X0232591Y0324524D01*
X0231816Y0324402D01*
X0230872Y0324095D01*
X0229989Y0323645D01*
X0229187Y0323062D01*
X0228485Y0322361D01*
X0227903Y0321559D01*
X0227452Y0320675D01*
X0227146Y0319732D01*
X0227023Y0318957D01*
X0232591Y0318957D01*
X0232591Y0317557D01*
X0227023Y0317557D01*
X0227146Y0316781D01*
X0227452Y0315838D01*
X0227903Y0314955D01*
X0228485Y0314153D01*
X0229187Y0313451D01*
X0229989Y0312868D01*
X0230872Y0312418D01*
X0231816Y0312112D01*
X0232591Y0311989D01*
X0232591Y0317557D01*
X0233991Y0317557D01*
X0233991Y0311989D01*
X0234354Y0312047D02*
X0251790Y0312047D01*
X0251790Y0313645D02*
X0237589Y0313645D01*
X0238826Y0315244D02*
X0251790Y0315244D01*
X0251790Y0316842D02*
X0239445Y0316842D01*
X0239558Y0318957D02*
X0233991Y0318957D01*
X0233991Y0324524D01*
X0234766Y0324402D01*
X0235709Y0324095D01*
X0236593Y0323645D01*
X0237395Y0323062D01*
X0238096Y0322361D01*
X0238679Y0321559D01*
X0239129Y0320675D01*
X0239436Y0319732D01*
X0239558Y0318957D01*
X0239336Y0320039D02*
X0251790Y0320039D01*
X0251790Y0318441D02*
X0233991Y0318441D01*
X0232591Y0318441D02*
X0214120Y0318441D01*
X0214037Y0316842D02*
X0227136Y0316842D01*
X0227755Y0315244D02*
X0213375Y0315244D01*
X0212036Y0313645D02*
X0228993Y0313645D01*
X0232591Y0313645D02*
X0233991Y0313645D01*
X0233991Y0315244D02*
X0232591Y0315244D01*
X0232591Y0316842D02*
X0233991Y0316842D01*
X0233991Y0320039D02*
X0232591Y0320039D01*
X0232591Y0321638D02*
X0233991Y0321638D01*
X0233991Y0323236D02*
X0232591Y0323236D01*
X0229426Y0323236D02*
X0211668Y0323236D01*
X0213223Y0321638D02*
X0227960Y0321638D01*
X0227246Y0320039D02*
X0213885Y0320039D01*
X0204373Y0323236D02*
X0082124Y0323236D01*
X0082124Y0321638D02*
X0202818Y0321638D01*
X0202156Y0320039D02*
X0082124Y0320039D01*
X0082124Y0318441D02*
X0201920Y0318441D01*
X0202004Y0316842D02*
X0082124Y0316842D01*
X0082124Y0315244D02*
X0202666Y0315244D01*
X0192116Y0327192D02*
X0193054Y0328129D01*
X0193054Y0334604D01*
X0192116Y0335542D01*
X0185641Y0335542D01*
X0184704Y0334604D01*
X0184704Y0328129D01*
X0185641Y0327192D01*
X0192116Y0327192D01*
X0192956Y0328032D02*
X0252116Y0328032D01*
X0251790Y0326433D02*
X0082124Y0326433D01*
X0082124Y0324835D02*
X0251790Y0324835D01*
X0251790Y0323236D02*
X0237155Y0323236D01*
X0238622Y0321638D02*
X0251790Y0321638D01*
X0253715Y0329630D02*
X0193054Y0329630D01*
X0193054Y0331229D02*
X0255313Y0331229D01*
X0256912Y0332827D02*
X0193054Y0332827D01*
X0193054Y0334426D02*
X0258510Y0334426D01*
X0260109Y0336024D02*
X0082124Y0336024D01*
X0082124Y0334426D02*
X0184704Y0334426D01*
X0184704Y0332827D02*
X0082124Y0332827D01*
X0082124Y0331229D02*
X0184704Y0331229D01*
X0184704Y0329630D02*
X0082124Y0329630D01*
X0082124Y0328032D02*
X0184802Y0328032D01*
X0189673Y0346247D02*
X0196148Y0346247D01*
X0197085Y0347184D01*
X0197085Y0353660D01*
X0196148Y0354597D01*
X0189673Y0354597D01*
X0188735Y0353660D01*
X0188735Y0347184D01*
X0189673Y0346247D01*
X0188735Y0347214D02*
X0082124Y0347214D01*
X0082124Y0348812D02*
X0188735Y0348812D01*
X0188735Y0350411D02*
X0082124Y0350411D01*
X0082124Y0352009D02*
X0188735Y0352009D01*
X0188735Y0353608D02*
X0082124Y0353608D01*
X0082124Y0355206D02*
X0261632Y0355206D01*
X0261632Y0353608D02*
X0197085Y0353608D01*
X0197085Y0352009D02*
X0261632Y0352009D01*
X0261632Y0350411D02*
X0197085Y0350411D01*
X0197085Y0348812D02*
X0261632Y0348812D01*
X0261632Y0347214D02*
X0197085Y0347214D01*
X0192085Y0358019D02*
X0185610Y0358019D01*
X0184672Y0358956D01*
X0184672Y0365431D01*
X0185610Y0366368D01*
X0192085Y0366368D01*
X0193022Y0365431D01*
X0193022Y0358956D01*
X0192085Y0358019D01*
X0192469Y0358403D02*
X0261632Y0358403D01*
X0261632Y0356805D02*
X0082124Y0356805D01*
X0082124Y0358403D02*
X0185225Y0358403D01*
X0184672Y0360002D02*
X0082124Y0360002D01*
X0082124Y0361600D02*
X0184672Y0361600D01*
X0184672Y0363199D02*
X0082124Y0363199D01*
X0082124Y0364797D02*
X0184672Y0364797D01*
X0193022Y0364797D02*
X0267229Y0364797D01*
X0268827Y0366396D02*
X0082124Y0366396D01*
X0082124Y0367994D02*
X0270426Y0367994D01*
X0272024Y0369593D02*
X0082124Y0369593D01*
X0082124Y0371191D02*
X0273623Y0371191D01*
X0275221Y0372790D02*
X0082124Y0372790D01*
X0082124Y0374388D02*
X0276820Y0374388D01*
X0278418Y0375987D02*
X0082124Y0375987D01*
X0082124Y0377586D02*
X0460688Y0377586D01*
X0460688Y0379184D02*
X0197117Y0379184D01*
X0197117Y0378956D02*
X0197117Y0385431D01*
X0196179Y0386368D01*
X0189704Y0386368D01*
X0188767Y0385431D01*
X0188767Y0378956D01*
X0189704Y0378019D01*
X0196179Y0378019D01*
X0197117Y0378956D01*
X0197117Y0380783D02*
X0460688Y0380783D01*
X0460688Y0382381D02*
X0197117Y0382381D01*
X0197117Y0383980D02*
X0460688Y0383980D01*
X0460688Y0385578D02*
X0196970Y0385578D01*
X0192510Y0390374D02*
X0460688Y0390374D01*
X0460688Y0391972D02*
X0309067Y0391972D01*
X0309369Y0392191D02*
X0310070Y0392893D01*
X0310653Y0393695D01*
X0311103Y0394578D01*
X0311409Y0395522D01*
X0311532Y0396297D01*
X0305965Y0396297D01*
X0305965Y0397697D01*
X0311532Y0397697D01*
X0311409Y0398472D01*
X0311103Y0399415D01*
X0310653Y0400299D01*
X0310070Y0401101D01*
X0309369Y0401802D01*
X0308566Y0402385D01*
X0307683Y0402835D01*
X0306740Y0403142D01*
X0305965Y0403264D01*
X0305965Y0397697D01*
X0304565Y0397697D01*
X0304565Y0403264D01*
X0303789Y0403142D01*
X0302846Y0402835D01*
X0301963Y0402385D01*
X0301160Y0401802D01*
X0300459Y0401101D01*
X0299876Y0400299D01*
X0299426Y0399415D01*
X0299120Y0398472D01*
X0298997Y0397697D01*
X0304564Y0397697D01*
X0304564Y0396297D01*
X0298997Y0396297D01*
X0299120Y0395522D01*
X0299426Y0394578D01*
X0299876Y0393695D01*
X0300459Y0392893D01*
X0301160Y0392191D01*
X0301963Y0391609D01*
X0302846Y0391158D01*
X0303789Y0390852D01*
X0304565Y0390729D01*
X0304565Y0396297D01*
X0305965Y0396297D01*
X0305965Y0390729D01*
X0306740Y0390852D01*
X0307683Y0391158D01*
X0308566Y0391609D01*
X0309369Y0392191D01*
X0310563Y0393571D02*
X0460688Y0393571D01*
X0460688Y0395169D02*
X0311295Y0395169D01*
X0311426Y0398366D02*
X0460688Y0398366D01*
X0460688Y0396768D02*
X0305965Y0396768D01*
X0304564Y0396768D02*
X0193022Y0396768D01*
X0193022Y0397360D02*
X0192085Y0398298D01*
X0185610Y0398298D01*
X0184672Y0397360D01*
X0184672Y0390885D01*
X0185610Y0389948D01*
X0192085Y0389948D01*
X0193022Y0390885D01*
X0193022Y0397360D01*
X0193022Y0395169D02*
X0299234Y0395169D01*
X0299967Y0393571D02*
X0193022Y0393571D01*
X0193022Y0391972D02*
X0301462Y0391972D01*
X0304565Y0391972D02*
X0305965Y0391972D01*
X0305965Y0393571D02*
X0304565Y0393571D01*
X0304565Y0395169D02*
X0305965Y0395169D01*
X0305965Y0398366D02*
X0304565Y0398366D01*
X0304565Y0399965D02*
X0305965Y0399965D01*
X0305965Y0401563D02*
X0304565Y0401563D01*
X0304565Y0403162D02*
X0305965Y0403162D01*
X0306614Y0403162D02*
X0460688Y0403162D01*
X0460688Y0404760D02*
X0355299Y0404760D01*
X0355132Y0404594D02*
X0356069Y0405531D01*
X0356069Y0412006D01*
X0355132Y0412943D01*
X0348657Y0412943D01*
X0347720Y0412006D01*
X0347720Y0405531D01*
X0348657Y0404594D01*
X0355132Y0404594D01*
X0356069Y0406359D02*
X0460688Y0406359D01*
X0460688Y0407957D02*
X0356069Y0407957D01*
X0356069Y0409556D02*
X0460688Y0409556D01*
X0460688Y0411154D02*
X0356069Y0411154D01*
X0355323Y0412753D02*
X0460688Y0412753D01*
X0460688Y0414351D02*
X0197510Y0414351D01*
X0197510Y0412753D02*
X0348466Y0412753D01*
X0347720Y0411154D02*
X0345857Y0411154D01*
X0345857Y0411801D02*
X0344919Y0412739D01*
X0338444Y0412739D01*
X0337507Y0411801D01*
X0337507Y0405326D01*
X0338444Y0404389D01*
X0344919Y0404389D01*
X0345857Y0405326D01*
X0345857Y0411801D01*
X0345857Y0409556D02*
X0347720Y0409556D01*
X0347720Y0407957D02*
X0345857Y0407957D01*
X0345857Y0406359D02*
X0347720Y0406359D01*
X0348490Y0404760D02*
X0345291Y0404760D01*
X0338073Y0404760D02*
X0082124Y0404760D01*
X0082124Y0403162D02*
X0303916Y0403162D01*
X0300921Y0401563D02*
X0082124Y0401563D01*
X0082124Y0399965D02*
X0299706Y0399965D01*
X0299103Y0398366D02*
X0082124Y0398366D01*
X0082124Y0396768D02*
X0184672Y0396768D01*
X0184672Y0395169D02*
X0082124Y0395169D01*
X0082124Y0393571D02*
X0184672Y0393571D01*
X0184672Y0391972D02*
X0082124Y0391972D01*
X0082124Y0390374D02*
X0185184Y0390374D01*
X0188914Y0385578D02*
X0082124Y0385578D01*
X0082124Y0383980D02*
X0188767Y0383980D01*
X0188767Y0382381D02*
X0082124Y0382381D01*
X0082124Y0380783D02*
X0188767Y0380783D01*
X0188767Y0379184D02*
X0082124Y0379184D01*
X0082124Y0387177D02*
X0460688Y0387177D01*
X0460688Y0388775D02*
X0082124Y0388775D01*
X0082124Y0406359D02*
X0337507Y0406359D01*
X0337507Y0407957D02*
X0082124Y0407957D01*
X0082124Y0409556D02*
X0337507Y0409556D01*
X0337507Y0411154D02*
X0197031Y0411154D01*
X0196573Y0410696D02*
X0197510Y0411633D01*
X0197510Y0418108D01*
X0196573Y0419046D01*
X0190098Y0419046D01*
X0189161Y0418108D01*
X0189161Y0411633D01*
X0190098Y0410696D01*
X0196573Y0410696D01*
X0197510Y0415950D02*
X0423213Y0415950D01*
X0423178Y0416011D02*
X0423415Y0415600D01*
X0423750Y0415265D01*
X0424160Y0415028D01*
X0424618Y0414906D01*
X0427430Y0414906D01*
X0430242Y0414906D01*
X0430699Y0415028D01*
X0431110Y0415265D01*
X0431445Y0415600D01*
X0431682Y0416011D01*
X0431805Y0416469D01*
X0431805Y0419280D01*
X0427430Y0419280D01*
X0427430Y0414906D01*
X0427430Y0419280D01*
X0427430Y0419280D01*
X0427430Y0419280D01*
X0423055Y0419280D01*
X0423055Y0416469D01*
X0423178Y0416011D01*
X0423055Y0417548D02*
X0197510Y0417548D01*
X0189161Y0417548D02*
X0082124Y0417548D01*
X0082124Y0415950D02*
X0189161Y0415950D01*
X0189161Y0414351D02*
X0082124Y0414351D01*
X0082124Y0412753D02*
X0189161Y0412753D01*
X0189640Y0411154D02*
X0082124Y0411154D01*
X0082124Y0419147D02*
X0423055Y0419147D01*
X0423055Y0419280D02*
X0427430Y0419280D01*
X0427430Y0419280D01*
X0431805Y0419280D01*
X0431805Y0422092D01*
X0431682Y0422550D01*
X0431445Y0422960D01*
X0431110Y0423295D01*
X0430699Y0423532D01*
X0430242Y0423655D01*
X0427430Y0423655D01*
X0427430Y0419280D01*
X0427430Y0419280D01*
X0427430Y0423655D01*
X0424618Y0423655D01*
X0424160Y0423532D01*
X0423750Y0423295D01*
X0423415Y0422960D01*
X0423178Y0422550D01*
X0423055Y0422092D01*
X0423055Y0419280D01*
X0423055Y0420745D02*
X0319772Y0420745D01*
X0320187Y0421161D02*
X0319250Y0420224D01*
X0312775Y0420224D01*
X0311838Y0421161D01*
X0311838Y0427636D01*
X0312775Y0428573D01*
X0319250Y0428573D01*
X0320187Y0427636D01*
X0320187Y0421161D01*
X0320187Y0422344D02*
X0423123Y0422344D01*
X0427430Y0422344D02*
X0427430Y0422344D01*
X0427430Y0420745D02*
X0427430Y0420745D01*
X0427430Y0419147D02*
X0427430Y0419147D01*
X0427430Y0417548D02*
X0427430Y0417548D01*
X0427430Y0415950D02*
X0427430Y0415950D01*
X0431647Y0415950D02*
X0460688Y0415950D01*
X0460688Y0417548D02*
X0431805Y0417548D01*
X0431805Y0419147D02*
X0460688Y0419147D01*
X0460688Y0420745D02*
X0431805Y0420745D01*
X0431737Y0422344D02*
X0460688Y0422344D01*
X0460688Y0423942D02*
X0320187Y0423942D01*
X0320187Y0425541D02*
X0460688Y0425541D01*
X0460688Y0427139D02*
X0320187Y0427139D01*
X0311838Y0427139D02*
X0082124Y0427139D01*
X0082124Y0425541D02*
X0311838Y0425541D01*
X0311838Y0423942D02*
X0082124Y0423942D01*
X0082124Y0422344D02*
X0311838Y0422344D01*
X0312253Y0420745D02*
X0082124Y0420745D01*
X0082124Y0428738D02*
X0460688Y0428738D01*
X0460688Y0430336D02*
X0082124Y0430336D01*
X0082124Y0431935D02*
X0460688Y0431935D01*
X0460688Y0433533D02*
X0082124Y0433533D01*
X0082124Y0435132D02*
X0460688Y0435132D01*
X0460688Y0436730D02*
X0082124Y0436730D01*
X0082124Y0438329D02*
X0460688Y0438329D01*
X0460688Y0439927D02*
X0082124Y0439927D01*
X0082124Y0441526D02*
X0119423Y0441526D01*
X0119562Y0441445D02*
X0120020Y0441323D01*
X0122831Y0441323D01*
X0122831Y0445698D01*
X0118457Y0445698D01*
X0118457Y0442886D01*
X0118579Y0442428D01*
X0118816Y0442018D01*
X0119151Y0441682D01*
X0119562Y0441445D01*
X0118457Y0443124D02*
X0082124Y0443124D01*
X0082124Y0444723D02*
X0118457Y0444723D01*
X0118457Y0446322D02*
X0082124Y0446322D01*
X0082124Y0447920D02*
X0118457Y0447920D01*
X0118957Y0449519D02*
X0082124Y0449519D01*
X0122831Y0444723D02*
X0122832Y0444723D01*
X0122831Y0443124D02*
X0122832Y0443124D01*
X0122831Y0441526D02*
X0122832Y0441526D01*
X0126240Y0441526D02*
X0460688Y0441526D01*
X0460688Y0443124D02*
X0127206Y0443124D01*
X0127206Y0444723D02*
X0460688Y0444723D01*
X0460688Y0446322D02*
X0127206Y0446322D01*
X0127206Y0447920D02*
X0460688Y0447920D01*
X0460688Y0449519D02*
X0126706Y0449519D01*
X0193022Y0363199D02*
X0265630Y0363199D01*
X0264032Y0361600D02*
X0193022Y0361600D01*
X0193022Y0360002D02*
X0262433Y0360002D01*
X0261632Y0345615D02*
X0082124Y0345615D01*
X0082124Y0344017D02*
X0261632Y0344017D01*
X0261632Y0342418D02*
X0082124Y0342418D01*
X0082124Y0340820D02*
X0262692Y0340820D01*
X0262745Y0340766D02*
X0262745Y0340766D01*
X0263306Y0339221D02*
X0082124Y0339221D01*
X0082124Y0337623D02*
X0261707Y0337623D01*
X0251790Y0310448D02*
X0082124Y0310448D01*
X0082124Y0267288D02*
X0141334Y0267288D01*
X0138953Y0265690D02*
X0082124Y0265690D01*
X0082124Y0264091D02*
X0137898Y0264091D01*
X0137354Y0262493D02*
X0082124Y0262493D01*
X0082124Y0260894D02*
X0137354Y0260894D01*
X0137790Y0259296D02*
X0082124Y0259296D01*
X0082124Y0257697D02*
X0138693Y0257697D01*
X0140707Y0256099D02*
X0082124Y0256099D01*
X0145574Y0267288D02*
X0166993Y0267288D01*
X0164851Y0265690D02*
X0147954Y0265690D01*
X0149009Y0264091D02*
X0163852Y0264091D01*
X0163403Y0262493D02*
X0149554Y0262493D01*
X0310137Y0347214D02*
X0346609Y0347214D01*
X0354959Y0347214D02*
X0460688Y0347214D01*
X0460688Y0348812D02*
X0311736Y0348812D01*
X0313334Y0350411D02*
X0460688Y0350411D01*
X0460688Y0352009D02*
X0459649Y0352009D01*
X0459559Y0351919D02*
X0459894Y0352254D01*
X0460131Y0352664D01*
X0460254Y0353122D01*
X0460254Y0355934D01*
X0460254Y0358746D01*
X0460131Y0359203D01*
X0459894Y0359614D01*
X0459559Y0359949D01*
X0459148Y0360186D01*
X0458691Y0360309D01*
X0455879Y0360309D01*
X0455879Y0355934D01*
X0460254Y0355934D01*
X0455879Y0355934D01*
X0455879Y0355934D01*
X0455879Y0355934D01*
X0455879Y0360309D01*
X0453067Y0360309D01*
X0452609Y0360186D01*
X0452199Y0359949D01*
X0451864Y0359614D01*
X0451627Y0359203D01*
X0451504Y0358746D01*
X0451504Y0355934D01*
X0455879Y0355934D01*
X0455879Y0351559D01*
X0458691Y0351559D01*
X0459148Y0351682D01*
X0459559Y0351919D01*
X0460254Y0353608D02*
X0460688Y0353608D01*
X0460688Y0355206D02*
X0460254Y0355206D01*
X0460254Y0356805D02*
X0460688Y0356805D01*
X0460688Y0358403D02*
X0460254Y0358403D01*
X0460688Y0360002D02*
X0459467Y0360002D01*
X0460688Y0361600D02*
X0318582Y0361600D01*
X0318582Y0360002D02*
X0452290Y0360002D01*
X0451504Y0358403D02*
X0318582Y0358403D01*
X0318582Y0356805D02*
X0451504Y0356805D01*
X0451504Y0355934D02*
X0451504Y0353122D01*
X0451627Y0352664D01*
X0451864Y0352254D01*
X0452199Y0351919D01*
X0452609Y0351682D01*
X0453067Y0351559D01*
X0455879Y0351559D01*
X0455879Y0355934D01*
X0455879Y0355934D01*
X0455879Y0355934D01*
X0451504Y0355934D01*
X0451504Y0355206D02*
X0318130Y0355206D01*
X0316531Y0353608D02*
X0451504Y0353608D01*
X0452108Y0352009D02*
X0314933Y0352009D01*
X0318582Y0363199D02*
X0460688Y0363199D01*
X0460688Y0364797D02*
X0318582Y0364797D01*
X0318582Y0366396D02*
X0460688Y0366396D01*
X0460688Y0367994D02*
X0318582Y0367994D01*
X0318033Y0369593D02*
X0460688Y0369593D01*
X0460688Y0371191D02*
X0316434Y0371191D01*
X0314836Y0372790D02*
X0460688Y0372790D01*
X0460688Y0374388D02*
X0313237Y0374388D01*
X0311639Y0375987D02*
X0460688Y0375987D01*
X0455879Y0360002D02*
X0455879Y0360002D01*
X0455879Y0358403D02*
X0455879Y0358403D01*
X0455879Y0356805D02*
X0455879Y0356805D01*
X0455879Y0355206D02*
X0455879Y0355206D01*
X0455879Y0353608D02*
X0455879Y0353608D01*
X0455879Y0352009D02*
X0455879Y0352009D01*
X0460688Y0345615D02*
X0354959Y0345615D01*
X0354959Y0344017D02*
X0460688Y0344017D01*
X0460688Y0342418D02*
X0354959Y0342418D01*
X0354815Y0340820D02*
X0460688Y0340820D01*
X0460688Y0399965D02*
X0310823Y0399965D01*
X0309608Y0401563D02*
X0460688Y0401563D01*
D19*
X0451524Y0441091D03*
X0451524Y0173375D03*
X0091288Y0173375D03*
X0091288Y0441091D03*
D20*
X0107627Y0319044D03*
X0109989Y0259989D03*
X0115894Y0259989D03*
X0115894Y0254083D03*
X0109989Y0254083D03*
X0109989Y0248178D03*
X0115894Y0248178D03*
X0121800Y0248178D03*
X0121800Y0254083D03*
X0121800Y0259989D03*
X0194635Y0196997D03*
X0281249Y0303296D03*
D21*
X0308808Y0354477D03*
X0308808Y0364320D03*
X0296997Y0364320D03*
X0285186Y0360383D03*
D22*
X0283952Y0350147D02*
X0283621Y0350059D01*
X0283325Y0349887D01*
X0283083Y0349645D01*
X0282911Y0349349D01*
X0282823Y0349018D01*
X0282823Y0346155D01*
X0288823Y0346155D01*
X0288823Y0350147D01*
X0283952Y0350147D01*
X0283612Y0350054D02*
X0263532Y0350054D01*
X0263532Y0350652D02*
X0310888Y0350652D01*
X0310290Y0350054D02*
X0294633Y0350054D01*
X0294625Y0350059D02*
X0294294Y0350147D01*
X0289423Y0350147D01*
X0289423Y0346155D01*
X0295423Y0346155D01*
X0295423Y0349018D01*
X0295334Y0349349D01*
X0295163Y0349645D01*
X0294921Y0349887D01*
X0294625Y0350059D01*
X0295273Y0349455D02*
X0309691Y0349455D01*
X0309093Y0348857D02*
X0295423Y0348857D01*
X0295423Y0348258D02*
X0308494Y0348258D01*
X0307896Y0347659D02*
X0295423Y0347659D01*
X0295423Y0347061D02*
X0307297Y0347061D01*
X0306699Y0346462D02*
X0295423Y0346462D01*
X0295423Y0345555D02*
X0295423Y0342692D01*
X0295334Y0342361D01*
X0295163Y0342065D01*
X0294921Y0341823D01*
X0294625Y0341652D01*
X0294294Y0341563D01*
X0289423Y0341563D01*
X0289423Y0345555D01*
X0289423Y0346155D01*
X0288823Y0346155D01*
X0288823Y0345555D01*
X0289423Y0345555D01*
X0295423Y0345555D01*
X0295423Y0345265D02*
X0305502Y0345265D01*
X0304903Y0344667D02*
X0295423Y0344667D01*
X0295423Y0344068D02*
X0304305Y0344068D01*
X0303706Y0343470D02*
X0295423Y0343470D01*
X0295423Y0342871D02*
X0303108Y0342871D01*
X0302509Y0342273D02*
X0295283Y0342273D01*
X0294664Y0341674D02*
X0301911Y0341674D01*
X0301312Y0341076D02*
X0265123Y0341076D01*
X0265501Y0340698D02*
X0300934Y0340698D01*
X0316682Y0356446D01*
X0316682Y0368257D01*
X0310776Y0374162D01*
X0279280Y0374162D01*
X0263532Y0358414D01*
X0263532Y0342666D01*
X0265501Y0340698D01*
X0264524Y0341674D02*
X0283582Y0341674D01*
X0283621Y0341652D02*
X0283952Y0341563D01*
X0288823Y0341563D01*
X0288823Y0345555D01*
X0282823Y0345555D01*
X0282823Y0342692D01*
X0282911Y0342361D01*
X0283083Y0342065D01*
X0283325Y0341823D01*
X0283621Y0341652D01*
X0282962Y0342273D02*
X0276390Y0342273D01*
X0276384Y0342262D02*
X0276555Y0342558D01*
X0276643Y0342889D01*
X0276643Y0344532D01*
X0272887Y0344532D01*
X0272887Y0345131D01*
X0276643Y0345131D01*
X0276643Y0346774D01*
X0276555Y0347105D01*
X0276384Y0347401D01*
X0276142Y0347643D01*
X0275845Y0347815D01*
X0275514Y0347903D01*
X0272887Y0347903D01*
X0272887Y0345132D01*
X0272287Y0345132D01*
X0272287Y0347903D01*
X0269660Y0347903D01*
X0269330Y0347815D01*
X0269033Y0347643D01*
X0268791Y0347401D01*
X0268620Y0347105D01*
X0268531Y0346774D01*
X0268531Y0345131D01*
X0272287Y0345131D01*
X0272287Y0344532D01*
X0268531Y0344532D01*
X0268531Y0342889D01*
X0268620Y0342558D01*
X0268791Y0342262D01*
X0269033Y0342020D01*
X0269330Y0341848D01*
X0269660Y0341760D01*
X0272287Y0341760D01*
X0272287Y0344531D01*
X0272887Y0344531D01*
X0272887Y0341760D01*
X0275514Y0341760D01*
X0275845Y0341848D01*
X0276142Y0342020D01*
X0276384Y0342262D01*
X0276639Y0342871D02*
X0282823Y0342871D01*
X0282823Y0343470D02*
X0276643Y0343470D01*
X0276643Y0344068D02*
X0282823Y0344068D01*
X0282823Y0344667D02*
X0272887Y0344667D01*
X0272887Y0345265D02*
X0272287Y0345265D01*
X0272287Y0344667D02*
X0263532Y0344667D01*
X0263532Y0345265D02*
X0268531Y0345265D01*
X0268531Y0345864D02*
X0263532Y0345864D01*
X0263532Y0346462D02*
X0268531Y0346462D01*
X0268608Y0347061D02*
X0263532Y0347061D01*
X0263532Y0347659D02*
X0269061Y0347659D01*
X0272287Y0347659D02*
X0272887Y0347659D01*
X0272887Y0347061D02*
X0272287Y0347061D01*
X0272287Y0346462D02*
X0272887Y0346462D01*
X0272887Y0345864D02*
X0272287Y0345864D01*
X0272287Y0344068D02*
X0272887Y0344068D01*
X0272887Y0343470D02*
X0272287Y0343470D01*
X0272287Y0342871D02*
X0272887Y0342871D01*
X0272887Y0342273D02*
X0272287Y0342273D01*
X0268785Y0342273D02*
X0263926Y0342273D01*
X0263532Y0342871D02*
X0268536Y0342871D01*
X0268531Y0343470D02*
X0263532Y0343470D01*
X0263532Y0344068D02*
X0268531Y0344068D01*
X0268531Y0338729D02*
X0268531Y0335092D01*
X0272287Y0335092D01*
X0272287Y0334492D01*
X0268531Y0334492D01*
X0268531Y0330290D01*
X0268620Y0329960D01*
X0268791Y0329663D01*
X0269033Y0329421D01*
X0269330Y0329250D01*
X0269660Y0329161D01*
X0272287Y0329161D01*
X0272287Y0334492D01*
X0272887Y0334492D01*
X0272887Y0329161D01*
X0275514Y0329161D01*
X0275845Y0329250D01*
X0276142Y0329421D01*
X0276384Y0329663D01*
X0276555Y0329960D01*
X0276643Y0330290D01*
X0276643Y0334492D01*
X0272887Y0334492D01*
X0272887Y0335092D01*
X0276643Y0335092D01*
X0276643Y0338729D01*
X0298965Y0338729D01*
X0298965Y0330855D01*
X0278099Y0308414D01*
X0256052Y0308808D01*
X0253690Y0308808D01*
X0253690Y0326918D01*
X0265501Y0338729D01*
X0268531Y0338729D01*
X0268531Y0338682D02*
X0265453Y0338682D01*
X0264855Y0338083D02*
X0268531Y0338083D01*
X0268531Y0337485D02*
X0264256Y0337485D01*
X0263658Y0336886D02*
X0268531Y0336886D01*
X0268531Y0336288D02*
X0263059Y0336288D01*
X0262461Y0335689D02*
X0268531Y0335689D01*
X0268531Y0333894D02*
X0260665Y0333894D01*
X0260067Y0333295D02*
X0268531Y0333295D01*
X0268531Y0332697D02*
X0259468Y0332697D01*
X0258870Y0332098D02*
X0268531Y0332098D01*
X0268531Y0331500D02*
X0258271Y0331500D01*
X0257673Y0330901D02*
X0268531Y0330901D01*
X0268531Y0330303D02*
X0257074Y0330303D01*
X0256476Y0329704D02*
X0268768Y0329704D01*
X0272287Y0329704D02*
X0272887Y0329704D01*
X0272887Y0330303D02*
X0272287Y0330303D01*
X0272287Y0330901D02*
X0272887Y0330901D01*
X0272887Y0331500D02*
X0272287Y0331500D01*
X0272287Y0332098D02*
X0272887Y0332098D01*
X0272887Y0332697D02*
X0272287Y0332697D01*
X0272287Y0333295D02*
X0272887Y0333295D01*
X0272887Y0333894D02*
X0272287Y0333894D01*
X0272287Y0334492D02*
X0261264Y0334492D01*
X0261862Y0335091D02*
X0272287Y0335091D01*
X0272887Y0335091D02*
X0282823Y0335091D01*
X0282823Y0335534D02*
X0282823Y0332691D01*
X0288823Y0332691D01*
X0288823Y0336663D01*
X0283952Y0336663D01*
X0283621Y0336574D01*
X0283325Y0336403D01*
X0283083Y0336161D01*
X0282911Y0335865D01*
X0282823Y0335534D01*
X0282864Y0335689D02*
X0276643Y0335689D01*
X0276643Y0336288D02*
X0283209Y0336288D01*
X0282823Y0334492D02*
X0272887Y0334492D01*
X0276643Y0333894D02*
X0282823Y0333894D01*
X0282823Y0333295D02*
X0276643Y0333295D01*
X0276643Y0332697D02*
X0282823Y0332697D01*
X0282823Y0332091D02*
X0282823Y0329247D01*
X0282911Y0328916D01*
X0283083Y0328620D01*
X0283325Y0328378D01*
X0283621Y0328207D01*
X0283952Y0328118D01*
X0288823Y0328118D01*
X0288823Y0332091D01*
X0282823Y0332091D01*
X0282823Y0331500D02*
X0276643Y0331500D01*
X0276643Y0332098D02*
X0288823Y0332098D01*
X0288823Y0332091D02*
X0288823Y0332691D01*
X0289423Y0332691D01*
X0289423Y0336663D01*
X0294294Y0336663D01*
X0294625Y0336574D01*
X0294921Y0336403D01*
X0295163Y0336161D01*
X0295334Y0335865D01*
X0295423Y0335534D01*
X0295423Y0332691D01*
X0289423Y0332691D01*
X0289423Y0332091D01*
X0295423Y0332091D01*
X0295423Y0329247D01*
X0295334Y0328916D01*
X0295163Y0328620D01*
X0294921Y0328378D01*
X0294625Y0328207D01*
X0294294Y0328118D01*
X0289423Y0328118D01*
X0289423Y0332091D01*
X0288823Y0332091D01*
X0288823Y0331500D02*
X0289423Y0331500D01*
X0289423Y0332098D02*
X0298965Y0332098D01*
X0298965Y0331500D02*
X0295423Y0331500D01*
X0295423Y0330901D02*
X0298965Y0330901D01*
X0298452Y0330303D02*
X0295423Y0330303D01*
X0295423Y0329704D02*
X0297895Y0329704D01*
X0297339Y0329106D02*
X0295385Y0329106D01*
X0295050Y0328507D02*
X0296782Y0328507D01*
X0296226Y0327909D02*
X0254680Y0327909D01*
X0255279Y0328507D02*
X0283195Y0328507D01*
X0282861Y0329106D02*
X0255877Y0329106D01*
X0254082Y0327310D02*
X0295669Y0327310D01*
X0295113Y0326712D02*
X0253690Y0326712D01*
X0253690Y0326113D02*
X0294556Y0326113D01*
X0294000Y0325515D02*
X0253690Y0325515D01*
X0253690Y0324916D02*
X0293443Y0324916D01*
X0292887Y0324318D02*
X0253690Y0324318D01*
X0253690Y0323719D02*
X0261968Y0323719D01*
X0261700Y0323632D02*
X0260886Y0323217D01*
X0260148Y0322681D01*
X0259502Y0322035D01*
X0258965Y0321297D01*
X0258551Y0320483D01*
X0258269Y0319615D01*
X0258126Y0318713D01*
X0258126Y0318557D01*
X0263626Y0318557D01*
X0263626Y0324057D01*
X0263470Y0324057D01*
X0262568Y0323914D01*
X0261700Y0323632D01*
X0260753Y0323121D02*
X0253690Y0323121D01*
X0253690Y0322522D02*
X0259989Y0322522D01*
X0259421Y0321924D02*
X0253690Y0321924D01*
X0253690Y0321325D02*
X0258986Y0321325D01*
X0258675Y0320726D02*
X0253690Y0320726D01*
X0253690Y0320128D02*
X0258436Y0320128D01*
X0258255Y0319529D02*
X0253690Y0319529D01*
X0253690Y0318931D02*
X0258160Y0318931D01*
X0258126Y0317957D02*
X0258126Y0317800D01*
X0258269Y0316899D01*
X0258551Y0316030D01*
X0258965Y0315217D01*
X0259502Y0314478D01*
X0260148Y0313833D01*
X0260886Y0313296D01*
X0261700Y0312882D01*
X0262568Y0312600D01*
X0263470Y0312457D01*
X0263626Y0312457D01*
X0263626Y0317957D01*
X0258126Y0317957D01*
X0258136Y0317734D02*
X0253690Y0317734D01*
X0253690Y0318332D02*
X0263626Y0318332D01*
X0263626Y0318557D02*
X0263626Y0317957D01*
X0264226Y0317957D01*
X0264226Y0318557D01*
X0263626Y0318557D01*
X0263626Y0318931D02*
X0264226Y0318931D01*
X0264226Y0318557D02*
X0264226Y0324057D01*
X0264382Y0324057D01*
X0265284Y0323914D01*
X0266152Y0323632D01*
X0266966Y0323217D01*
X0267704Y0322681D01*
X0268350Y0322035D01*
X0268887Y0321297D01*
X0269301Y0320483D01*
X0269583Y0319615D01*
X0269726Y0318713D01*
X0269726Y0318557D01*
X0264226Y0318557D01*
X0264226Y0318332D02*
X0287321Y0318332D01*
X0286765Y0317734D02*
X0269715Y0317734D01*
X0269726Y0317800D02*
X0269726Y0317957D01*
X0264226Y0317957D01*
X0264226Y0312457D01*
X0264382Y0312457D01*
X0265284Y0312600D01*
X0266152Y0312882D01*
X0266966Y0313296D01*
X0267704Y0313833D01*
X0268350Y0314478D01*
X0268887Y0315217D01*
X0269301Y0316030D01*
X0269583Y0316899D01*
X0269726Y0317800D01*
X0269621Y0317135D02*
X0286208Y0317135D01*
X0285652Y0316537D02*
X0269466Y0316537D01*
X0269254Y0315938D02*
X0285095Y0315938D01*
X0284539Y0315340D02*
X0268949Y0315340D01*
X0268541Y0314741D02*
X0283982Y0314741D01*
X0283426Y0314143D02*
X0268015Y0314143D01*
X0267308Y0313544D02*
X0282869Y0313544D01*
X0282313Y0312946D02*
X0266278Y0312946D01*
X0264226Y0312946D02*
X0263626Y0312946D01*
X0263626Y0313544D02*
X0264226Y0313544D01*
X0264226Y0314143D02*
X0263626Y0314143D01*
X0263626Y0314741D02*
X0264226Y0314741D01*
X0264226Y0315340D02*
X0263626Y0315340D01*
X0263626Y0315938D02*
X0264226Y0315938D01*
X0264226Y0316537D02*
X0263626Y0316537D01*
X0263626Y0317135D02*
X0264226Y0317135D01*
X0264226Y0317734D02*
X0263626Y0317734D01*
X0263626Y0319529D02*
X0264226Y0319529D01*
X0264226Y0320128D02*
X0263626Y0320128D01*
X0263626Y0320726D02*
X0264226Y0320726D01*
X0264226Y0321325D02*
X0263626Y0321325D01*
X0263626Y0321924D02*
X0264226Y0321924D01*
X0264226Y0322522D02*
X0263626Y0322522D01*
X0263626Y0323121D02*
X0264226Y0323121D01*
X0264226Y0323719D02*
X0263626Y0323719D01*
X0265884Y0323719D02*
X0292330Y0323719D01*
X0291774Y0323121D02*
X0267099Y0323121D01*
X0267863Y0322522D02*
X0291217Y0322522D01*
X0290661Y0321924D02*
X0268431Y0321924D01*
X0268866Y0321325D02*
X0290104Y0321325D01*
X0289548Y0320726D02*
X0269177Y0320726D01*
X0269416Y0320128D02*
X0288991Y0320128D01*
X0288434Y0319529D02*
X0269597Y0319529D01*
X0269691Y0318931D02*
X0287878Y0318931D01*
X0281756Y0312347D02*
X0253690Y0312347D01*
X0253690Y0311749D02*
X0281200Y0311749D01*
X0280643Y0311150D02*
X0253690Y0311150D01*
X0253690Y0310552D02*
X0280087Y0310552D01*
X0279530Y0309953D02*
X0253690Y0309953D01*
X0253690Y0309355D02*
X0278974Y0309355D01*
X0278417Y0308756D02*
X0258942Y0308756D01*
X0261573Y0312946D02*
X0253690Y0312946D01*
X0253690Y0313544D02*
X0260544Y0313544D01*
X0259837Y0314143D02*
X0253690Y0314143D01*
X0253690Y0314741D02*
X0259311Y0314741D01*
X0258903Y0315340D02*
X0253690Y0315340D01*
X0253690Y0315938D02*
X0258598Y0315938D01*
X0258386Y0316537D02*
X0253690Y0316537D01*
X0253690Y0317135D02*
X0258231Y0317135D01*
X0276407Y0329704D02*
X0282823Y0329704D01*
X0282823Y0330303D02*
X0276643Y0330303D01*
X0276643Y0330901D02*
X0282823Y0330901D01*
X0288823Y0330901D02*
X0289423Y0330901D01*
X0289423Y0330303D02*
X0288823Y0330303D01*
X0288823Y0329704D02*
X0289423Y0329704D01*
X0289423Y0329106D02*
X0288823Y0329106D01*
X0288823Y0328507D02*
X0289423Y0328507D01*
X0289423Y0332697D02*
X0288823Y0332697D01*
X0288823Y0333295D02*
X0289423Y0333295D01*
X0289423Y0333894D02*
X0288823Y0333894D01*
X0288823Y0334492D02*
X0289423Y0334492D01*
X0289423Y0335091D02*
X0288823Y0335091D01*
X0288823Y0335689D02*
X0289423Y0335689D01*
X0289423Y0336288D02*
X0288823Y0336288D01*
X0288823Y0341674D02*
X0289423Y0341674D01*
X0289423Y0342273D02*
X0288823Y0342273D01*
X0288823Y0342871D02*
X0289423Y0342871D01*
X0289423Y0343470D02*
X0288823Y0343470D01*
X0288823Y0344068D02*
X0289423Y0344068D01*
X0289423Y0344667D02*
X0288823Y0344667D01*
X0288823Y0345265D02*
X0289423Y0345265D01*
X0289423Y0345864D02*
X0306100Y0345864D01*
X0311487Y0351251D02*
X0263532Y0351251D01*
X0263532Y0351849D02*
X0312085Y0351849D01*
X0312684Y0352448D02*
X0263532Y0352448D01*
X0263532Y0353046D02*
X0313282Y0353046D01*
X0313881Y0353645D02*
X0263532Y0353645D01*
X0263532Y0354243D02*
X0314479Y0354243D01*
X0315078Y0354842D02*
X0263532Y0354842D01*
X0263532Y0355440D02*
X0315676Y0355440D01*
X0316275Y0356039D02*
X0263532Y0356039D01*
X0263532Y0356637D02*
X0316682Y0356637D01*
X0316682Y0357236D02*
X0263532Y0357236D01*
X0263532Y0357834D02*
X0316682Y0357834D01*
X0316682Y0358433D02*
X0263551Y0358433D01*
X0264149Y0359031D02*
X0316682Y0359031D01*
X0316682Y0359630D02*
X0264748Y0359630D01*
X0265346Y0360228D02*
X0316682Y0360228D01*
X0316682Y0360827D02*
X0265945Y0360827D01*
X0266543Y0361425D02*
X0316682Y0361425D01*
X0316682Y0362024D02*
X0267142Y0362024D01*
X0267740Y0362622D02*
X0316682Y0362622D01*
X0316682Y0363221D02*
X0268339Y0363221D01*
X0268937Y0363819D02*
X0316682Y0363819D01*
X0316682Y0364418D02*
X0269536Y0364418D01*
X0270134Y0365016D02*
X0316682Y0365016D01*
X0316682Y0365615D02*
X0270733Y0365615D01*
X0271331Y0366213D02*
X0316682Y0366213D01*
X0316682Y0366812D02*
X0271930Y0366812D01*
X0272528Y0367410D02*
X0316682Y0367410D01*
X0316682Y0368009D02*
X0273127Y0368009D01*
X0273726Y0368607D02*
X0316331Y0368607D01*
X0315733Y0369206D02*
X0274324Y0369206D01*
X0274923Y0369804D02*
X0315134Y0369804D01*
X0314536Y0370403D02*
X0275521Y0370403D01*
X0276120Y0371001D02*
X0313937Y0371001D01*
X0313339Y0371600D02*
X0276718Y0371600D01*
X0277317Y0372198D02*
X0312740Y0372198D01*
X0312142Y0372797D02*
X0277915Y0372797D01*
X0278514Y0373395D02*
X0311543Y0373395D01*
X0310945Y0373994D02*
X0279112Y0373994D01*
X0282973Y0349455D02*
X0263532Y0349455D01*
X0263532Y0348857D02*
X0282823Y0348857D01*
X0282823Y0348258D02*
X0263532Y0348258D01*
X0276114Y0347659D02*
X0282823Y0347659D01*
X0282823Y0347061D02*
X0276566Y0347061D01*
X0276643Y0346462D02*
X0282823Y0346462D01*
X0282823Y0345265D02*
X0276643Y0345265D01*
X0276643Y0345864D02*
X0288823Y0345864D01*
X0288823Y0346462D02*
X0289423Y0346462D01*
X0289423Y0347061D02*
X0288823Y0347061D01*
X0288823Y0347659D02*
X0289423Y0347659D01*
X0289423Y0348258D02*
X0288823Y0348258D01*
X0288823Y0348857D02*
X0289423Y0348857D01*
X0289423Y0349455D02*
X0288823Y0349455D01*
X0288823Y0350054D02*
X0289423Y0350054D01*
X0298965Y0338682D02*
X0276643Y0338682D01*
X0276643Y0338083D02*
X0298965Y0338083D01*
X0298965Y0337485D02*
X0276643Y0337485D01*
X0276643Y0336886D02*
X0298965Y0336886D01*
X0298965Y0336288D02*
X0295037Y0336288D01*
X0295381Y0335689D02*
X0298965Y0335689D01*
X0298965Y0335091D02*
X0295423Y0335091D01*
X0295423Y0334492D02*
X0298965Y0334492D01*
X0298965Y0333894D02*
X0295423Y0333894D01*
X0295423Y0333295D02*
X0298965Y0333295D01*
X0298965Y0332697D02*
X0295423Y0332697D01*
D23*
X0311721Y0333769D02*
X0311721Y0340422D01*
X0311721Y0333769D02*
X0281249Y0303296D01*
X0262366Y0268946D02*
X0255249Y0268946D01*
X0251951Y0272244D01*
X0309713Y0199202D02*
X0307509Y0196997D01*
X0194635Y0196997D01*
M02*
