G75*
%MOIN*%
%OFA0B0*%
%FSLAX25Y25*%
%IPPOS*%
%LPD*%
%AMOC8*
5,1,8,0,0,1.08239X$1,22.5*
%
%ADD10C,0.00600*%
%ADD11C,0.00800*%
%ADD12C,0.00200*%
%ADD13C,0.00500*%
%ADD14C,0.00300*%
D10*
X0251658Y0286879D02*
X0251658Y0302879D01*
X0275658Y0302879D01*
X0275658Y0286879D01*
X0251658Y0286879D01*
X0251658Y0287190D02*
X0275658Y0287190D01*
X0275658Y0287788D02*
X0251658Y0287788D01*
X0251658Y0288387D02*
X0275658Y0288387D01*
X0275658Y0288985D02*
X0251658Y0288985D01*
X0251658Y0289584D02*
X0275658Y0289584D01*
X0275658Y0290182D02*
X0251658Y0290182D01*
X0251658Y0290781D02*
X0275658Y0290781D01*
X0275658Y0291379D02*
X0251658Y0291379D01*
X0251658Y0291978D02*
X0275658Y0291978D01*
X0275658Y0292576D02*
X0251658Y0292576D01*
X0251658Y0293175D02*
X0275658Y0293175D01*
X0275658Y0293773D02*
X0251658Y0293773D01*
X0251658Y0294372D02*
X0275658Y0294372D01*
X0275658Y0294970D02*
X0251658Y0294970D01*
X0251658Y0295569D02*
X0275658Y0295569D01*
X0275658Y0296167D02*
X0251658Y0296167D01*
X0251658Y0296766D02*
X0275658Y0296766D01*
X0275658Y0297364D02*
X0251658Y0297364D01*
X0251658Y0297963D02*
X0275658Y0297963D01*
X0275658Y0298561D02*
X0251658Y0298561D01*
X0251658Y0299160D02*
X0275658Y0299160D01*
X0275658Y0299758D02*
X0251658Y0299758D01*
X0251658Y0300357D02*
X0275658Y0300357D01*
X0275658Y0300955D02*
X0251658Y0300955D01*
X0251658Y0301554D02*
X0275658Y0301554D01*
X0275658Y0302152D02*
X0251658Y0302152D01*
X0251658Y0302751D02*
X0275658Y0302751D01*
X0274306Y0307163D02*
X0272171Y0307163D01*
X0271104Y0308231D01*
X0268929Y0308231D02*
X0267861Y0309298D01*
X0264658Y0309298D01*
X0264658Y0310366D02*
X0264658Y0307163D01*
X0267861Y0307163D01*
X0268929Y0308231D01*
X0267861Y0311433D02*
X0265726Y0311433D01*
X0264658Y0310366D01*
X0262483Y0310366D02*
X0261415Y0311433D01*
X0259280Y0311433D01*
X0258213Y0310366D01*
X0258213Y0309298D01*
X0262483Y0309298D01*
X0262483Y0308231D02*
X0262483Y0310366D01*
X0262483Y0308231D02*
X0261415Y0307163D01*
X0259280Y0307163D01*
X0256038Y0307163D02*
X0253902Y0307163D01*
X0254970Y0307163D02*
X0254970Y0313568D01*
X0256038Y0313568D01*
X0258213Y0316595D02*
X0258213Y0321933D01*
X0261415Y0321933D01*
X0262483Y0320866D01*
X0262483Y0318731D01*
X0261415Y0317663D01*
X0258213Y0317663D01*
X0258213Y0316595D02*
X0259280Y0315528D01*
X0260348Y0315528D01*
X0264658Y0317663D02*
X0264658Y0321933D01*
X0264658Y0317663D02*
X0267861Y0317663D01*
X0268929Y0318731D01*
X0268929Y0321933D01*
X0271104Y0321933D02*
X0271104Y0317663D01*
X0271104Y0320866D02*
X0275374Y0320866D01*
X0275374Y0321933D02*
X0273239Y0324068D01*
X0271104Y0321933D01*
X0275374Y0321933D02*
X0275374Y0317663D01*
X0274306Y0313568D02*
X0275374Y0312501D01*
X0275374Y0308231D01*
X0274306Y0307163D01*
X0271104Y0312501D02*
X0272171Y0313568D01*
X0274306Y0313568D01*
X0256038Y0318731D02*
X0254970Y0317663D01*
X0251767Y0317663D01*
X0251767Y0321933D01*
X0249592Y0320866D02*
X0248524Y0321933D01*
X0245322Y0321933D01*
X0243147Y0321933D02*
X0241011Y0321933D01*
X0242079Y0323001D02*
X0242079Y0318731D01*
X0241011Y0317663D01*
X0245322Y0318731D02*
X0246389Y0319798D01*
X0248524Y0319798D01*
X0249592Y0320866D01*
X0249592Y0317663D02*
X0246389Y0317663D01*
X0245322Y0318731D01*
X0245295Y0311433D02*
X0242092Y0311433D01*
X0241025Y0310366D01*
X0241025Y0307163D01*
X0245295Y0307163D02*
X0245295Y0311433D01*
X0247470Y0310366D02*
X0247470Y0307163D01*
X0250673Y0307163D01*
X0251741Y0308231D01*
X0250673Y0309298D01*
X0247470Y0309298D01*
X0247470Y0310366D02*
X0248538Y0311433D01*
X0250673Y0311433D01*
X0256038Y0318731D02*
X0256038Y0321933D01*
X0256038Y0328163D02*
X0253902Y0328163D01*
X0254970Y0328163D02*
X0254970Y0332433D01*
X0256038Y0332433D01*
X0254970Y0334568D02*
X0254970Y0335636D01*
X0253909Y0338663D02*
X0252841Y0339731D01*
X0252841Y0342933D01*
X0250666Y0342933D02*
X0247464Y0342933D01*
X0246396Y0341866D01*
X0246396Y0338663D01*
X0250666Y0338663D02*
X0250666Y0342933D01*
X0253909Y0338663D02*
X0254977Y0339731D01*
X0256044Y0338663D01*
X0257112Y0339731D01*
X0257112Y0342933D01*
X0259287Y0341866D02*
X0260355Y0342933D01*
X0262490Y0342933D01*
X0263557Y0341866D01*
X0263557Y0339731D01*
X0262490Y0338663D01*
X0260355Y0338663D01*
X0259287Y0339731D01*
X0259287Y0341866D01*
X0265726Y0342933D02*
X0266793Y0342933D01*
X0268929Y0340798D01*
X0268929Y0338663D02*
X0268929Y0342933D01*
X0271104Y0342933D02*
X0272171Y0341866D01*
X0275374Y0341866D01*
X0275374Y0345068D02*
X0275374Y0338663D01*
X0272171Y0338663D01*
X0271104Y0339731D01*
X0271104Y0340798D01*
X0272171Y0341866D01*
X0271104Y0342933D02*
X0271104Y0344001D01*
X0272171Y0345068D01*
X0275374Y0345068D01*
X0275374Y0334568D02*
X0271104Y0334568D01*
X0268929Y0333501D02*
X0267861Y0334568D01*
X0265726Y0334568D01*
X0264658Y0333501D01*
X0264658Y0329231D01*
X0265726Y0328163D01*
X0267861Y0328163D01*
X0268929Y0329231D01*
X0268929Y0333501D01*
X0266793Y0330298D02*
X0264658Y0328163D01*
X0262483Y0329231D02*
X0261415Y0328163D01*
X0259280Y0328163D01*
X0258213Y0329231D01*
X0258213Y0334568D01*
X0262483Y0334568D02*
X0262483Y0329231D01*
X0271104Y0328163D02*
X0275374Y0328163D01*
X0275374Y0334568D01*
X0275374Y0331366D02*
X0273239Y0331366D01*
X0251741Y0332433D02*
X0250673Y0331366D01*
X0248538Y0331366D01*
X0247470Y0330298D01*
X0247470Y0329231D01*
X0248538Y0328163D01*
X0250673Y0328163D01*
X0251741Y0329231D01*
X0251741Y0332433D02*
X0251741Y0333501D01*
X0250673Y0334568D01*
X0248538Y0334568D01*
X0247470Y0333501D01*
X0244227Y0332433D02*
X0242092Y0332433D01*
X0241025Y0331366D01*
X0241025Y0328163D01*
X0244227Y0328163D01*
X0245295Y0329231D01*
X0244227Y0330298D01*
X0241025Y0330298D01*
X0238850Y0332433D02*
X0236714Y0332433D01*
X0237782Y0333501D02*
X0237782Y0329231D01*
X0236714Y0328163D01*
X0234553Y0328163D02*
X0234553Y0329231D01*
X0233485Y0329231D01*
X0233485Y0328163D01*
X0234553Y0328163D01*
X0234553Y0331366D02*
X0234553Y0332433D01*
X0233485Y0332433D01*
X0233485Y0331366D01*
X0234553Y0331366D01*
X0231330Y0336528D02*
X0231330Y0342933D01*
X0228127Y0342933D01*
X0227059Y0341866D01*
X0227059Y0339731D01*
X0228127Y0338663D01*
X0231330Y0338663D01*
X0233505Y0339731D02*
X0234573Y0338663D01*
X0236708Y0338663D01*
X0237775Y0339731D01*
X0236708Y0341866D02*
X0234573Y0341866D01*
X0233505Y0340798D01*
X0233505Y0339731D01*
X0236708Y0341866D02*
X0237775Y0342933D01*
X0237775Y0344001D01*
X0236708Y0345068D01*
X0234573Y0345068D01*
X0233505Y0344001D01*
X0224884Y0339731D02*
X0223817Y0340798D01*
X0220614Y0340798D01*
X0220614Y0341866D02*
X0220614Y0338663D01*
X0223817Y0338663D01*
X0224884Y0339731D01*
X0223817Y0342933D02*
X0221682Y0342933D01*
X0220614Y0341866D01*
X0218439Y0341866D02*
X0218439Y0339731D01*
X0217371Y0338663D01*
X0214168Y0338663D01*
X0211993Y0339731D02*
X0211993Y0341866D01*
X0210926Y0342933D01*
X0208791Y0342933D01*
X0207723Y0341866D01*
X0207723Y0340798D01*
X0211993Y0340798D01*
X0211993Y0339731D02*
X0210926Y0338663D01*
X0208791Y0338663D01*
X0209871Y0334568D02*
X0209871Y0328163D01*
X0213074Y0328163D01*
X0214142Y0329231D01*
X0214142Y0331366D01*
X0213074Y0332433D01*
X0209871Y0332433D01*
X0207696Y0331366D02*
X0206629Y0332433D01*
X0204494Y0332433D01*
X0203426Y0331366D01*
X0203426Y0330298D01*
X0207696Y0330298D01*
X0207696Y0329231D02*
X0207696Y0331366D01*
X0207696Y0329231D02*
X0206629Y0328163D01*
X0204494Y0328163D01*
X0208797Y0324068D02*
X0208797Y0323001D01*
X0213068Y0318731D01*
X0213068Y0317663D01*
X0215243Y0317663D02*
X0219513Y0317663D01*
X0217378Y0317663D02*
X0217378Y0324068D01*
X0219513Y0321933D01*
X0221688Y0323001D02*
X0222756Y0324068D01*
X0224891Y0324068D01*
X0225959Y0323001D01*
X0225959Y0318731D01*
X0221688Y0323001D01*
X0221688Y0318731D01*
X0222756Y0317663D01*
X0224891Y0317663D01*
X0225959Y0318731D01*
X0228134Y0317663D02*
X0232404Y0317663D01*
X0228134Y0321933D01*
X0228134Y0323001D01*
X0229201Y0324068D01*
X0231336Y0324068D01*
X0232404Y0323001D01*
X0224891Y0314636D02*
X0224891Y0313568D01*
X0224891Y0311433D02*
X0224891Y0307163D01*
X0225959Y0307163D02*
X0223823Y0307163D01*
X0220594Y0308231D02*
X0220594Y0312501D01*
X0221662Y0311433D02*
X0219526Y0311433D01*
X0217365Y0311433D02*
X0215229Y0311433D01*
X0216297Y0312501D02*
X0216297Y0308231D01*
X0215229Y0307163D01*
X0213068Y0308231D02*
X0213068Y0310366D01*
X0212000Y0311433D01*
X0209865Y0311433D01*
X0208797Y0310366D01*
X0208797Y0309298D01*
X0213068Y0309298D01*
X0213068Y0308231D02*
X0212000Y0307163D01*
X0209865Y0307163D01*
X0206622Y0307163D02*
X0206622Y0311433D01*
X0206622Y0309298D02*
X0204487Y0311433D01*
X0203419Y0311433D01*
X0208797Y0324068D02*
X0213068Y0324068D01*
X0216304Y0328163D02*
X0218439Y0328163D01*
X0217371Y0328163D02*
X0217371Y0332433D01*
X0218439Y0332433D01*
X0217371Y0334568D02*
X0217371Y0335636D01*
X0220614Y0333501D02*
X0221682Y0334568D01*
X0223817Y0334568D01*
X0224884Y0333501D01*
X0224884Y0332433D01*
X0223817Y0331366D01*
X0221682Y0331366D01*
X0220614Y0330298D01*
X0220614Y0329231D01*
X0221682Y0328163D01*
X0223817Y0328163D01*
X0224884Y0329231D01*
X0218439Y0341866D02*
X0217371Y0342933D01*
X0214168Y0342933D01*
X0199102Y0341866D02*
X0196967Y0341866D01*
X0194832Y0345068D02*
X0199102Y0345068D01*
X0199102Y0338663D01*
X0194832Y0338663D01*
X0192657Y0338663D02*
X0192657Y0342933D01*
X0189454Y0342933D01*
X0188386Y0341866D01*
X0188386Y0338663D01*
X0186211Y0339731D02*
X0185144Y0338663D01*
X0181941Y0338663D01*
X0181941Y0337595D02*
X0181941Y0342933D01*
X0185144Y0342933D01*
X0186211Y0341866D01*
X0186211Y0339731D01*
X0184076Y0336528D02*
X0183009Y0336528D01*
X0181941Y0337595D01*
X0179766Y0338663D02*
X0177631Y0338663D01*
X0178698Y0338663D02*
X0178698Y0342933D01*
X0179766Y0342933D01*
X0178698Y0345068D02*
X0178698Y0346136D01*
X0175469Y0342933D02*
X0175469Y0338663D01*
X0175469Y0342933D02*
X0172266Y0342933D01*
X0171198Y0341866D01*
X0171198Y0338663D01*
X0169023Y0339731D02*
X0169023Y0341866D01*
X0167956Y0342933D01*
X0165821Y0342933D01*
X0164753Y0341866D01*
X0164753Y0340798D01*
X0169023Y0340798D01*
X0169023Y0339731D02*
X0167956Y0338663D01*
X0165821Y0338663D01*
X0162578Y0339731D02*
X0162578Y0341866D01*
X0161510Y0342933D01*
X0159375Y0342933D01*
X0158308Y0341866D01*
X0158308Y0340798D01*
X0162578Y0340798D01*
X0162578Y0339731D02*
X0161510Y0338663D01*
X0159375Y0338663D01*
X0156132Y0338663D02*
X0156132Y0342933D01*
X0156132Y0340798D02*
X0153997Y0342933D01*
X0152930Y0342933D01*
X0150761Y0342933D02*
X0149694Y0342933D01*
X0149694Y0338663D01*
X0150761Y0338663D02*
X0148626Y0338663D01*
X0146464Y0338663D02*
X0146464Y0342933D01*
X0143261Y0342933D01*
X0142194Y0341866D01*
X0142194Y0338663D01*
X0140019Y0339731D02*
X0138951Y0338663D01*
X0135748Y0338663D01*
X0135748Y0337595D02*
X0135748Y0342933D01*
X0138951Y0342933D01*
X0140019Y0341866D01*
X0140019Y0339731D01*
X0137883Y0336528D02*
X0136816Y0336528D01*
X0135748Y0337595D01*
X0133573Y0334568D02*
X0132506Y0334568D01*
X0132506Y0328163D01*
X0133573Y0328163D02*
X0131438Y0328163D01*
X0135748Y0330298D02*
X0140019Y0330298D01*
X0140019Y0329231D02*
X0140019Y0331366D01*
X0138951Y0332433D01*
X0136816Y0332433D01*
X0135748Y0331366D01*
X0135748Y0330298D01*
X0136816Y0328163D02*
X0138951Y0328163D01*
X0140019Y0329231D01*
X0142194Y0328163D02*
X0142194Y0331366D01*
X0143261Y0332433D01*
X0146464Y0332433D01*
X0146464Y0328163D01*
X0148639Y0328163D02*
X0151842Y0328163D01*
X0152910Y0329231D01*
X0151842Y0330298D01*
X0148639Y0330298D01*
X0148639Y0331366D02*
X0148639Y0328163D01*
X0148639Y0331366D02*
X0149707Y0332433D01*
X0151842Y0332433D01*
X0155085Y0333501D02*
X0155085Y0331366D01*
X0156152Y0330298D01*
X0159355Y0330298D01*
X0159355Y0328163D02*
X0159355Y0334568D01*
X0156152Y0334568D01*
X0155085Y0333501D01*
X0149694Y0345068D02*
X0149694Y0346136D01*
X0167969Y0332433D02*
X0169037Y0332433D01*
X0171172Y0330298D01*
X0171172Y0328163D02*
X0171172Y0332433D01*
X0173347Y0331366D02*
X0173347Y0328163D01*
X0176550Y0328163D01*
X0177617Y0329231D01*
X0176550Y0330298D01*
X0173347Y0330298D01*
X0173347Y0331366D02*
X0174415Y0332433D01*
X0176550Y0332433D01*
X0180847Y0334568D02*
X0180847Y0328163D01*
X0181914Y0328163D02*
X0179779Y0328163D01*
X0184089Y0329231D02*
X0184089Y0331366D01*
X0185157Y0332433D01*
X0187292Y0332433D01*
X0188360Y0331366D01*
X0188360Y0329231D01*
X0187292Y0328163D01*
X0185157Y0328163D01*
X0184089Y0329231D01*
X0181914Y0334568D02*
X0180847Y0334568D01*
X0190535Y0333501D02*
X0191603Y0334568D01*
X0193738Y0334568D01*
X0194805Y0333501D01*
X0194805Y0332433D01*
X0193738Y0331366D01*
X0191603Y0331366D01*
X0190535Y0330298D01*
X0190535Y0329231D01*
X0191603Y0328163D01*
X0193738Y0328163D01*
X0194805Y0329231D01*
X0219526Y0307163D02*
X0220594Y0308231D01*
X0224891Y0311433D02*
X0225959Y0311433D01*
X0228134Y0310366D02*
X0229201Y0309298D01*
X0232404Y0309298D01*
X0232404Y0307163D02*
X0232404Y0313568D01*
X0229201Y0313568D01*
X0228134Y0312501D01*
X0228134Y0310366D01*
X0230269Y0309298D02*
X0228134Y0307163D01*
X0122831Y0330298D02*
X0120695Y0328163D01*
X0118560Y0330298D01*
X0118560Y0334568D01*
X0116385Y0334568D02*
X0116385Y0331366D01*
X0114250Y0332433D01*
X0113182Y0332433D01*
X0112115Y0331366D01*
X0112115Y0329231D01*
X0113182Y0328163D01*
X0115318Y0328163D01*
X0116385Y0329231D01*
X0116385Y0334568D02*
X0112115Y0334568D01*
X0122831Y0334568D02*
X0122831Y0330298D01*
D11*
X0082931Y0234321D02*
X0076792Y0234321D01*
X0076792Y0232787D01*
X0082931Y0226648D01*
X0082931Y0225113D01*
X0076792Y0225113D01*
X0086000Y0229717D02*
X0092139Y0229717D01*
X0369400Y0228573D02*
X0369400Y0227039D01*
X0375539Y0220900D01*
X0375539Y0219365D01*
X0369400Y0219365D01*
X0369400Y0228573D02*
X0375539Y0228573D01*
X0378608Y0223969D02*
X0384746Y0223969D01*
X0381677Y0227039D02*
X0381677Y0220900D01*
D12*
X0283669Y0295279D02*
X0283242Y0294853D01*
X0282389Y0294853D01*
X0281963Y0295279D01*
X0281963Y0295705D01*
X0282389Y0296132D01*
X0283242Y0296132D01*
X0283669Y0296558D01*
X0283669Y0296984D01*
X0283242Y0297411D01*
X0282389Y0297411D01*
X0281963Y0296984D01*
X0281131Y0297411D02*
X0279426Y0294853D01*
X0279426Y0297411D01*
X0278593Y0296558D02*
X0278593Y0296132D01*
X0278167Y0296132D01*
X0278167Y0296558D01*
X0278593Y0296558D01*
X0278593Y0295279D02*
X0278593Y0294853D01*
X0278167Y0294853D01*
X0278167Y0295279D01*
X0278593Y0295279D01*
X0281131Y0294853D02*
X0281131Y0297411D01*
X0197450Y0152908D02*
X0194892Y0152908D01*
X0194892Y0152055D02*
X0194892Y0153761D01*
X0196598Y0152055D02*
X0197450Y0152908D01*
X0197024Y0151223D02*
X0197450Y0150797D01*
X0197450Y0149518D01*
X0194892Y0149518D01*
X0194892Y0150797D01*
X0195318Y0151223D01*
X0197024Y0151223D01*
X0230270Y0130671D02*
X0230270Y0127869D01*
X0228402Y0127869D01*
X0231164Y0128336D02*
X0231631Y0127869D01*
X0232565Y0127869D01*
X0233032Y0128336D01*
X0233032Y0130204D01*
X0232565Y0130671D01*
X0231631Y0130671D01*
X0231164Y0130204D01*
X0233926Y0130204D02*
X0234393Y0130671D01*
X0235327Y0130671D01*
X0235794Y0130204D01*
X0235794Y0129737D01*
X0235327Y0129270D01*
X0234393Y0129270D01*
X0233926Y0128803D01*
X0233926Y0128336D01*
X0234393Y0127869D01*
X0235327Y0127869D01*
X0235794Y0128336D01*
X0220280Y0104702D02*
X0220747Y0104235D01*
X0220747Y0103768D01*
X0220280Y0103301D01*
X0219346Y0103301D01*
X0218879Y0102834D01*
X0218879Y0102367D01*
X0219346Y0101900D01*
X0220280Y0101900D01*
X0220747Y0102367D01*
X0220280Y0104702D02*
X0219346Y0104702D01*
X0218879Y0104235D01*
X0217985Y0104702D02*
X0216584Y0104702D01*
X0216117Y0104235D01*
X0216117Y0102367D01*
X0216584Y0101900D01*
X0217985Y0101900D01*
X0217985Y0104702D01*
X0215223Y0103768D02*
X0215223Y0101900D01*
X0215223Y0103301D02*
X0213354Y0103301D01*
X0213354Y0103768D02*
X0213354Y0101900D01*
X0213354Y0103768D02*
X0214288Y0104702D01*
X0215223Y0103768D01*
X0226821Y0080702D02*
X0226354Y0080235D01*
X0226354Y0079768D01*
X0226821Y0079301D01*
X0226354Y0078834D01*
X0226354Y0078367D01*
X0226821Y0077900D01*
X0227755Y0077900D01*
X0228223Y0078367D01*
X0229117Y0078834D02*
X0229117Y0080702D01*
X0228223Y0080235D02*
X0227755Y0080702D01*
X0226821Y0080702D01*
X0226821Y0079301D02*
X0227288Y0079301D01*
X0229117Y0078834D02*
X0230051Y0077900D01*
X0230985Y0078834D01*
X0230985Y0080702D01*
X0231879Y0080235D02*
X0231879Y0079768D01*
X0232346Y0079301D01*
X0231879Y0078834D01*
X0231879Y0078367D01*
X0232346Y0077900D01*
X0233280Y0077900D01*
X0233747Y0078367D01*
X0232813Y0079301D02*
X0232346Y0079301D01*
X0231879Y0080235D02*
X0232346Y0080702D01*
X0233280Y0080702D01*
X0233747Y0080235D01*
X0243727Y0076105D02*
X0243727Y0073804D01*
X0244494Y0073804D02*
X0242959Y0073804D01*
X0244494Y0075338D02*
X0243727Y0076105D01*
X0245261Y0075722D02*
X0245645Y0076105D01*
X0246412Y0076105D01*
X0246796Y0075722D01*
X0246796Y0074187D01*
X0246412Y0073804D01*
X0245645Y0073804D01*
X0245261Y0074187D01*
X0245346Y0061702D02*
X0244879Y0061235D01*
X0244879Y0060301D01*
X0245346Y0059834D01*
X0246747Y0059834D01*
X0246747Y0058900D02*
X0246747Y0061702D01*
X0245346Y0061702D01*
X0243985Y0061702D02*
X0242584Y0061702D01*
X0242117Y0061235D01*
X0242117Y0059367D01*
X0242584Y0058900D01*
X0243985Y0058900D01*
X0243985Y0061702D01*
X0241223Y0060301D02*
X0239354Y0060301D01*
X0238460Y0059367D02*
X0237993Y0058900D01*
X0237059Y0058900D01*
X0236592Y0059367D01*
X0236592Y0061235D01*
X0237059Y0061702D01*
X0237993Y0061702D01*
X0238460Y0061235D01*
X0238460Y0059367D01*
X0235698Y0059367D02*
X0235698Y0061702D01*
X0233830Y0061702D02*
X0233830Y0059367D01*
X0234297Y0058900D01*
X0235231Y0058900D01*
X0235698Y0059367D01*
X0232935Y0061702D02*
X0231067Y0061702D01*
X0232001Y0061702D02*
X0232001Y0058900D01*
D13*
X0205784Y0143501D02*
X0197910Y0143501D01*
X0197910Y0145863D01*
X0197910Y0146257D01*
X0196335Y0146257D01*
X0196335Y0145863D01*
X0207359Y0145863D01*
X0207359Y0146257D01*
X0205784Y0146257D01*
X0197910Y0146257D01*
X0197910Y0155312D01*
X0205784Y0155312D01*
X0205784Y0146257D01*
X0205784Y0145863D01*
X0197910Y0145863D01*
X0205784Y0145863D02*
X0205784Y0143501D01*
X0211729Y0144501D02*
X0221965Y0144501D01*
X0221965Y0157099D01*
X0211729Y0157099D01*
X0211729Y0144501D01*
X0234938Y0076757D02*
X0241450Y0076757D01*
X0241450Y0064733D01*
X0234938Y0064733D01*
X0234938Y0076757D01*
D14*
X0225755Y0148257D02*
X0225755Y0149683D01*
X0225279Y0150158D01*
X0224329Y0150158D01*
X0223853Y0149683D01*
X0223853Y0148257D01*
X0222903Y0148257D02*
X0225755Y0148257D01*
X0223853Y0149208D02*
X0222903Y0150158D01*
X0222903Y0151157D02*
X0222903Y0153059D01*
X0222903Y0152108D02*
X0225755Y0152108D01*
X0224804Y0151157D01*
M02*
