G75*
%MOIN*%
%OFA0B0*%
%FSLAX25Y25*%
%IPPOS*%
%LPD*%
%AMOC8*
5,1,8,0,0,1.08239X$1,22.5*
%
%ADD10C,0.05150*%
%ADD11R,0.05709X0.03937*%
%ADD12R,0.09252X0.29528*%
%ADD13R,0.05150X0.05150*%
%ADD14C,0.09000*%
%ADD15C,0.16835*%
%ADD16C,0.02000*%
%ADD17C,0.01600*%
%ADD18C,0.05906*%
%ADD19C,0.01200*%
D10*
X0226825Y0096871D03*
X0235857Y0105898D03*
X0244888Y0096871D03*
X0235857Y0087843D03*
D11*
X0247926Y0075879D03*
X0247926Y0069422D03*
D12*
X0269627Y0090186D03*
X0300627Y0090186D03*
X0331627Y0090186D03*
X0362627Y0090186D03*
X0394068Y0164414D03*
X0363068Y0215414D03*
X0332068Y0215414D03*
X0301068Y0215414D03*
X0270068Y0215414D03*
X0239068Y0215414D03*
X0208068Y0215414D03*
X0177068Y0215414D03*
X0146068Y0215414D03*
X0115068Y0215414D03*
X0084068Y0215414D03*
X0051627Y0240186D03*
X0082627Y0291186D03*
X0113627Y0291186D03*
X0144627Y0291186D03*
X0175627Y0291186D03*
X0206627Y0291186D03*
X0237627Y0291186D03*
X0268627Y0291186D03*
X0299627Y0291186D03*
X0330627Y0291186D03*
X0361627Y0291186D03*
X0392627Y0240186D03*
X0176627Y0090186D03*
X0145627Y0090186D03*
X0114627Y0090186D03*
X0083627Y0090186D03*
X0053068Y0164414D03*
D13*
X0062910Y0201068D03*
X0041784Y0203532D03*
X0093910Y0252068D03*
X0103784Y0254532D03*
X0124910Y0252068D03*
X0134784Y0254532D03*
X0155910Y0252068D03*
X0165784Y0254532D03*
X0186910Y0252068D03*
X0196784Y0254532D03*
X0217910Y0252068D03*
X0227784Y0254532D03*
X0248910Y0252068D03*
X0258784Y0254532D03*
X0279910Y0252068D03*
X0289784Y0254532D03*
X0310910Y0252068D03*
X0320784Y0254532D03*
X0341910Y0252068D03*
X0351784Y0254532D03*
X0372910Y0252068D03*
X0382784Y0203532D03*
X0403910Y0201068D03*
X0352784Y0053532D03*
X0321784Y0053532D03*
X0290784Y0053532D03*
X0259784Y0053532D03*
X0166784Y0053532D03*
X0135784Y0053532D03*
X0104784Y0053532D03*
X0073784Y0053532D03*
X0072784Y0254532D03*
D14*
X0208548Y0129265D03*
X0225894Y0122769D03*
X0240769Y0135784D03*
X0210847Y0096800D03*
X0223847Y0072800D03*
X0236847Y0053800D03*
D15*
X0407784Y0054595D03*
X0407784Y0353808D03*
X0047548Y0353808D03*
X0047548Y0054595D03*
D16*
X0083627Y0074690D02*
X0104784Y0053532D01*
X0114627Y0074690D02*
X0135784Y0053532D01*
X0145627Y0074690D02*
X0166784Y0053532D01*
X0145627Y0074690D02*
X0145627Y0090186D01*
X0114627Y0090186D02*
X0114627Y0074690D01*
X0083627Y0074690D02*
X0083627Y0090186D01*
X0062910Y0201068D02*
X0062847Y0201131D01*
X0062847Y0209800D01*
X0068461Y0215414D01*
X0084068Y0215414D01*
X0058438Y0240186D02*
X0051627Y0240186D01*
X0058438Y0240186D02*
X0072784Y0254532D01*
X0082627Y0263351D02*
X0093910Y0252068D01*
X0082627Y0263351D02*
X0082627Y0291186D01*
X0113627Y0291186D02*
X0113627Y0275690D01*
X0134784Y0254532D01*
X0124910Y0252068D02*
X0146068Y0230910D01*
X0146068Y0215414D01*
X0155910Y0252068D02*
X0144627Y0263351D01*
X0144627Y0291186D01*
X0175627Y0291186D02*
X0175627Y0275690D01*
X0196784Y0254532D01*
X0186910Y0252068D02*
X0208068Y0230910D01*
X0208068Y0215414D01*
X0217910Y0252068D02*
X0206627Y0263351D01*
X0206627Y0291186D01*
X0227847Y0306800D02*
X0231847Y0310800D01*
X0264847Y0310800D01*
X0268627Y0307020D01*
X0268627Y0291186D01*
X0289847Y0306800D02*
X0289847Y0254595D01*
X0289784Y0254532D01*
X0299627Y0263351D02*
X0310910Y0252068D01*
X0320784Y0254532D02*
X0332068Y0243249D01*
X0332068Y0215414D01*
X0366131Y0240186D02*
X0351784Y0254532D01*
X0361627Y0263351D02*
X0372910Y0252068D01*
X0366131Y0240186D02*
X0392627Y0240186D01*
X0361627Y0263351D02*
X0361627Y0291186D01*
X0330627Y0291186D02*
X0330627Y0307020D01*
X0326847Y0310800D01*
X0293847Y0310800D01*
X0289847Y0306800D01*
X0299627Y0291186D02*
X0299627Y0263351D01*
X0270068Y0243249D02*
X0258784Y0254532D01*
X0248910Y0252068D02*
X0237627Y0263351D01*
X0237627Y0291186D01*
X0227847Y0306800D02*
X0227847Y0254595D01*
X0227784Y0254532D01*
X0270068Y0243249D02*
X0270068Y0215414D01*
X0225894Y0122769D02*
X0235857Y0113791D01*
X0235857Y0105898D01*
X0244888Y0096871D02*
X0247926Y0093833D01*
X0247926Y0075879D01*
X0247926Y0069422D02*
X0247926Y0064879D01*
X0236847Y0053800D01*
X0259784Y0053532D02*
X0275611Y0069359D01*
X0296564Y0069359D01*
X0300627Y0073422D01*
X0300627Y0090186D01*
X0306611Y0069359D02*
X0290784Y0053532D01*
X0306611Y0069359D02*
X0328060Y0069359D01*
X0331627Y0072926D01*
X0331627Y0090186D01*
X0337611Y0069359D02*
X0321784Y0053532D01*
X0337611Y0069359D02*
X0359556Y0069359D01*
X0362627Y0072430D01*
X0362627Y0090186D01*
X0394068Y0164414D02*
X0394068Y0192249D01*
X0382784Y0203532D01*
X0235857Y0087843D02*
X0223847Y0075834D01*
X0223847Y0072800D01*
X0226825Y0096871D02*
X0210918Y0096871D01*
X0210847Y0096800D01*
D17*
X0204866Y0099346D02*
X0152253Y0099346D01*
X0152253Y0097748D02*
X0204347Y0097748D01*
X0204347Y0098093D02*
X0204347Y0095507D01*
X0205337Y0093118D01*
X0207165Y0091290D01*
X0209554Y0090300D01*
X0212140Y0090300D01*
X0214529Y0091290D01*
X0216358Y0093118D01*
X0216670Y0093871D01*
X0223355Y0093871D01*
X0224234Y0092993D01*
X0225915Y0092296D01*
X0227735Y0092296D01*
X0229417Y0092993D01*
X0230704Y0094279D01*
X0231400Y0095961D01*
X0231400Y0097781D01*
X0230704Y0099462D01*
X0229417Y0100749D01*
X0227735Y0101446D01*
X0225915Y0101446D01*
X0224234Y0100749D01*
X0223355Y0099871D01*
X0216611Y0099871D01*
X0216358Y0100482D01*
X0214529Y0102310D01*
X0212140Y0103300D01*
X0209554Y0103300D01*
X0207165Y0102310D01*
X0205337Y0100482D01*
X0204347Y0098093D01*
X0204347Y0096149D02*
X0152253Y0096149D01*
X0152253Y0094551D02*
X0204743Y0094551D01*
X0205502Y0092952D02*
X0152253Y0092952D01*
X0152253Y0091354D02*
X0207101Y0091354D01*
X0214593Y0091354D02*
X0232897Y0091354D01*
X0233265Y0091722D02*
X0231978Y0090435D01*
X0231282Y0088753D01*
X0231282Y0087511D01*
X0223071Y0079300D01*
X0222554Y0079300D01*
X0220165Y0078310D01*
X0218337Y0076482D01*
X0217347Y0074093D01*
X0217347Y0071507D01*
X0218337Y0069118D01*
X0220165Y0067290D01*
X0222554Y0066300D01*
X0225140Y0066300D01*
X0227529Y0067290D01*
X0229358Y0069118D01*
X0230347Y0071507D01*
X0230347Y0074093D01*
X0229358Y0076482D01*
X0229048Y0076792D01*
X0235525Y0083269D01*
X0236767Y0083269D01*
X0238448Y0083965D01*
X0239735Y0085252D01*
X0240431Y0086933D01*
X0240431Y0088753D01*
X0239735Y0090435D01*
X0238448Y0091722D01*
X0236767Y0092418D01*
X0234947Y0092418D01*
X0233265Y0091722D01*
X0231697Y0089755D02*
X0152253Y0089755D01*
X0152253Y0088157D02*
X0231282Y0088157D01*
X0230329Y0086558D02*
X0152253Y0086558D01*
X0152253Y0084960D02*
X0228731Y0084960D01*
X0227132Y0083361D02*
X0152253Y0083361D01*
X0152253Y0081763D02*
X0225534Y0081763D01*
X0223935Y0080164D02*
X0152253Y0080164D01*
X0152253Y0078566D02*
X0220782Y0078566D01*
X0218822Y0076967D02*
X0152253Y0076967D01*
X0152253Y0075369D02*
X0217876Y0075369D01*
X0217347Y0073770D02*
X0151429Y0073770D01*
X0151109Y0073450D02*
X0152253Y0074594D01*
X0152253Y0105778D01*
X0151081Y0106950D01*
X0140172Y0106950D01*
X0139001Y0105778D01*
X0139001Y0074594D01*
X0140172Y0073422D01*
X0142905Y0073422D01*
X0143083Y0072990D01*
X0162209Y0053864D01*
X0162209Y0050129D01*
X0163381Y0048957D01*
X0170187Y0048957D01*
X0171359Y0050129D01*
X0171359Y0056936D01*
X0170187Y0058107D01*
X0166452Y0058107D01*
X0151109Y0073450D01*
X0152387Y0072172D02*
X0217347Y0072172D01*
X0217734Y0070573D02*
X0153986Y0070573D01*
X0155584Y0068975D02*
X0218480Y0068975D01*
X0220079Y0067376D02*
X0157183Y0067376D01*
X0158781Y0065778D02*
X0243919Y0065778D01*
X0244243Y0065454D02*
X0244258Y0065454D01*
X0238822Y0060018D01*
X0238140Y0060300D01*
X0235554Y0060300D01*
X0233165Y0059310D01*
X0231337Y0057482D01*
X0230347Y0055093D01*
X0230347Y0052507D01*
X0231337Y0050118D01*
X0233165Y0048290D01*
X0235554Y0047300D01*
X0238140Y0047300D01*
X0240529Y0048290D01*
X0242358Y0050118D01*
X0243347Y0052507D01*
X0243347Y0055093D01*
X0243065Y0055775D01*
X0250469Y0063179D01*
X0250926Y0064282D01*
X0250926Y0065454D01*
X0251609Y0065454D01*
X0252780Y0066625D01*
X0252780Y0072219D01*
X0252349Y0072650D01*
X0252780Y0073082D01*
X0252780Y0078676D01*
X0251609Y0079847D01*
X0250926Y0079847D01*
X0250926Y0094430D01*
X0250469Y0095532D01*
X0249463Y0096539D01*
X0249463Y0097781D01*
X0248767Y0099462D01*
X0247480Y0100749D01*
X0245798Y0101446D01*
X0243978Y0101446D01*
X0242297Y0100749D01*
X0241010Y0099462D01*
X0240313Y0097781D01*
X0240313Y0095961D01*
X0241010Y0094279D01*
X0242297Y0092993D01*
X0243978Y0092296D01*
X0244926Y0092296D01*
X0244926Y0079847D01*
X0244243Y0079847D01*
X0243072Y0078676D01*
X0243072Y0073082D01*
X0243503Y0072650D01*
X0243072Y0072219D01*
X0243072Y0066625D01*
X0244243Y0065454D01*
X0242984Y0064179D02*
X0160380Y0064179D01*
X0161979Y0062581D02*
X0241385Y0062581D01*
X0239787Y0060982D02*
X0163577Y0060982D01*
X0165176Y0059384D02*
X0233342Y0059384D01*
X0231640Y0057785D02*
X0170509Y0057785D01*
X0171359Y0056187D02*
X0230800Y0056187D01*
X0230347Y0054588D02*
X0171359Y0054588D01*
X0171359Y0052990D02*
X0230347Y0052990D01*
X0230809Y0051391D02*
X0171359Y0051391D01*
X0171023Y0049793D02*
X0231662Y0049793D01*
X0233396Y0048194D02*
X0055879Y0048194D01*
X0055884Y0048199D02*
X0057255Y0050574D01*
X0057965Y0053224D01*
X0057965Y0055967D01*
X0057255Y0058616D01*
X0055884Y0060992D01*
X0053944Y0062931D01*
X0051569Y0064303D01*
X0048920Y0065013D01*
X0046177Y0065013D01*
X0043527Y0064303D01*
X0041152Y0062931D01*
X0039212Y0060992D01*
X0037841Y0058616D01*
X0037131Y0055967D01*
X0037131Y0053224D01*
X0037841Y0050574D01*
X0039212Y0048199D01*
X0040811Y0046600D01*
X0036600Y0046600D01*
X0036600Y0361803D01*
X0040811Y0361803D01*
X0039212Y0360204D01*
X0037841Y0357829D01*
X0037131Y0355179D01*
X0037131Y0352436D01*
X0037841Y0349787D01*
X0039212Y0347411D01*
X0041152Y0345472D01*
X0043527Y0344100D01*
X0046177Y0343391D01*
X0048920Y0343391D01*
X0051569Y0344100D01*
X0053944Y0345472D01*
X0055884Y0347411D01*
X0057255Y0349787D01*
X0057965Y0352436D01*
X0057965Y0355179D01*
X0057255Y0357829D01*
X0055884Y0360204D01*
X0054285Y0361803D01*
X0401047Y0361803D01*
X0399448Y0360204D01*
X0398077Y0357829D01*
X0397367Y0355179D01*
X0397367Y0352436D01*
X0398077Y0349787D01*
X0399448Y0347411D01*
X0401388Y0345472D01*
X0403763Y0344100D01*
X0406413Y0343391D01*
X0409156Y0343391D01*
X0411805Y0344100D01*
X0414181Y0345472D01*
X0416120Y0347411D01*
X0417492Y0349787D01*
X0418202Y0352436D01*
X0418202Y0355179D01*
X0417492Y0357829D01*
X0416120Y0360204D01*
X0414521Y0361803D01*
X0418732Y0361803D01*
X0418732Y0046600D01*
X0414521Y0046600D01*
X0416120Y0048199D01*
X0417492Y0050574D01*
X0418202Y0053224D01*
X0418202Y0055967D01*
X0417492Y0058616D01*
X0416120Y0060992D01*
X0414181Y0062931D01*
X0411805Y0064303D01*
X0409156Y0065013D01*
X0406413Y0065013D01*
X0403763Y0064303D01*
X0401388Y0062931D01*
X0399448Y0060992D01*
X0398077Y0058616D01*
X0397367Y0055967D01*
X0397367Y0053224D01*
X0398077Y0050574D01*
X0399448Y0048199D01*
X0401047Y0046600D01*
X0054285Y0046600D01*
X0055884Y0048199D01*
X0056804Y0049793D02*
X0069546Y0049793D01*
X0069209Y0050129D02*
X0070381Y0048957D01*
X0077187Y0048957D01*
X0078359Y0050129D01*
X0078359Y0056936D01*
X0077187Y0058107D01*
X0070381Y0058107D01*
X0069209Y0056936D01*
X0069209Y0050129D01*
X0069209Y0051391D02*
X0057474Y0051391D01*
X0057903Y0052990D02*
X0069209Y0052990D01*
X0069209Y0054588D02*
X0057965Y0054588D01*
X0057906Y0056187D02*
X0069209Y0056187D01*
X0070059Y0057785D02*
X0057478Y0057785D01*
X0056812Y0059384D02*
X0094690Y0059384D01*
X0093092Y0060982D02*
X0055889Y0060982D01*
X0054295Y0062581D02*
X0091493Y0062581D01*
X0089895Y0064179D02*
X0051783Y0064179D01*
X0043313Y0064179D02*
X0036600Y0064179D01*
X0036600Y0062581D02*
X0040801Y0062581D01*
X0039207Y0060982D02*
X0036600Y0060982D01*
X0036600Y0059384D02*
X0038284Y0059384D01*
X0037618Y0057785D02*
X0036600Y0057785D01*
X0036600Y0056187D02*
X0037190Y0056187D01*
X0037131Y0054588D02*
X0036600Y0054588D01*
X0036600Y0052990D02*
X0037193Y0052990D01*
X0037622Y0051391D02*
X0036600Y0051391D01*
X0036600Y0049793D02*
X0038292Y0049793D01*
X0039217Y0048194D02*
X0036600Y0048194D01*
X0036600Y0065778D02*
X0088296Y0065778D01*
X0086698Y0067376D02*
X0036600Y0067376D01*
X0036600Y0068975D02*
X0085099Y0068975D01*
X0083501Y0070573D02*
X0036600Y0070573D01*
X0036600Y0072172D02*
X0081902Y0072172D01*
X0081083Y0072990D02*
X0100209Y0053864D01*
X0100209Y0050129D01*
X0101381Y0048957D01*
X0108187Y0048957D01*
X0109359Y0050129D01*
X0109359Y0056936D01*
X0108187Y0058107D01*
X0104452Y0058107D01*
X0089109Y0073450D01*
X0090253Y0074594D01*
X0090253Y0105778D01*
X0089081Y0106950D01*
X0078172Y0106950D01*
X0077001Y0105778D01*
X0077001Y0074594D01*
X0078172Y0073422D01*
X0080905Y0073422D01*
X0081083Y0072990D01*
X0077824Y0073770D02*
X0036600Y0073770D01*
X0036600Y0075369D02*
X0077001Y0075369D01*
X0077001Y0076967D02*
X0036600Y0076967D01*
X0036600Y0078566D02*
X0077001Y0078566D01*
X0077001Y0080164D02*
X0036600Y0080164D01*
X0036600Y0081763D02*
X0077001Y0081763D01*
X0077001Y0083361D02*
X0036600Y0083361D01*
X0036600Y0084960D02*
X0077001Y0084960D01*
X0077001Y0086558D02*
X0036600Y0086558D01*
X0036600Y0088157D02*
X0077001Y0088157D01*
X0077001Y0089755D02*
X0036600Y0089755D01*
X0036600Y0091354D02*
X0077001Y0091354D01*
X0077001Y0092952D02*
X0036600Y0092952D01*
X0036600Y0094551D02*
X0077001Y0094551D01*
X0077001Y0096149D02*
X0036600Y0096149D01*
X0036600Y0097748D02*
X0077001Y0097748D01*
X0077001Y0099346D02*
X0036600Y0099346D01*
X0036600Y0100945D02*
X0077001Y0100945D01*
X0077001Y0102543D02*
X0036600Y0102543D01*
X0036600Y0104142D02*
X0077001Y0104142D01*
X0077001Y0105740D02*
X0036600Y0105740D01*
X0036600Y0107339D02*
X0231502Y0107339D01*
X0231282Y0106808D02*
X0231282Y0104988D01*
X0231978Y0103307D01*
X0233265Y0102020D01*
X0234947Y0101324D01*
X0236767Y0101324D01*
X0238448Y0102020D01*
X0239735Y0103307D01*
X0240431Y0104988D01*
X0240431Y0106808D01*
X0239735Y0108490D01*
X0238857Y0109368D01*
X0238857Y0113274D01*
X0238884Y0113350D01*
X0238857Y0113868D01*
X0238857Y0114387D01*
X0238826Y0114462D01*
X0238822Y0114542D01*
X0238599Y0115010D01*
X0238400Y0115490D01*
X0238343Y0115547D01*
X0238308Y0115620D01*
X0237923Y0115967D01*
X0237556Y0116334D01*
X0237482Y0116365D01*
X0232236Y0121092D01*
X0232394Y0121476D01*
X0232394Y0124061D01*
X0231405Y0126450D01*
X0229576Y0128279D01*
X0227187Y0129268D01*
X0224602Y0129268D01*
X0222213Y0128279D01*
X0220384Y0126450D01*
X0219394Y0124061D01*
X0219394Y0121476D01*
X0220384Y0119087D01*
X0222213Y0117258D01*
X0224602Y0116269D01*
X0227187Y0116269D01*
X0228173Y0116677D01*
X0232857Y0112456D01*
X0232857Y0109368D01*
X0231978Y0108490D01*
X0231282Y0106808D01*
X0231282Y0105740D02*
X0152253Y0105740D01*
X0152253Y0104142D02*
X0231633Y0104142D01*
X0232742Y0102543D02*
X0213967Y0102543D01*
X0215895Y0100945D02*
X0224706Y0100945D01*
X0228944Y0100945D02*
X0242769Y0100945D01*
X0240962Y0099346D02*
X0230752Y0099346D01*
X0231400Y0097748D02*
X0240313Y0097748D01*
X0240313Y0096149D02*
X0231400Y0096149D01*
X0230816Y0094551D02*
X0240897Y0094551D01*
X0242394Y0092952D02*
X0229320Y0092952D01*
X0224331Y0092952D02*
X0216192Y0092952D01*
X0207728Y0102543D02*
X0152253Y0102543D01*
X0152253Y0100945D02*
X0205800Y0100945D01*
X0223004Y0116930D02*
X0036600Y0116930D01*
X0036600Y0115332D02*
X0229666Y0115332D01*
X0231439Y0113733D02*
X0036600Y0113733D01*
X0036600Y0112134D02*
X0232857Y0112134D01*
X0232857Y0110536D02*
X0036600Y0110536D01*
X0036600Y0108937D02*
X0232426Y0108937D01*
X0236854Y0116930D02*
X0418732Y0116930D01*
X0418732Y0115332D02*
X0238466Y0115332D01*
X0238864Y0113733D02*
X0418732Y0113733D01*
X0418732Y0112134D02*
X0238857Y0112134D01*
X0238857Y0110536D02*
X0418732Y0110536D01*
X0418732Y0108937D02*
X0239287Y0108937D01*
X0240212Y0107339D02*
X0418732Y0107339D01*
X0418732Y0105740D02*
X0369253Y0105740D01*
X0369253Y0105778D02*
X0368081Y0106950D01*
X0357172Y0106950D01*
X0356001Y0105778D01*
X0356001Y0074594D01*
X0357172Y0073422D01*
X0359376Y0073422D01*
X0358313Y0072359D01*
X0337014Y0072359D01*
X0335912Y0071902D01*
X0322116Y0058107D01*
X0318381Y0058107D01*
X0317209Y0056936D01*
X0317209Y0050129D01*
X0318381Y0048957D01*
X0325187Y0048957D01*
X0326359Y0050129D01*
X0326359Y0053864D01*
X0338854Y0066359D01*
X0360153Y0066359D01*
X0361255Y0066816D01*
X0362099Y0067660D01*
X0365170Y0070731D01*
X0365627Y0071833D01*
X0365627Y0073422D01*
X0368081Y0073422D01*
X0369253Y0074594D01*
X0369253Y0105778D01*
X0369253Y0104142D02*
X0418732Y0104142D01*
X0418732Y0102543D02*
X0369253Y0102543D01*
X0369253Y0100945D02*
X0418732Y0100945D01*
X0418732Y0099346D02*
X0369253Y0099346D01*
X0369253Y0097748D02*
X0418732Y0097748D01*
X0418732Y0096149D02*
X0369253Y0096149D01*
X0369253Y0094551D02*
X0418732Y0094551D01*
X0418732Y0092952D02*
X0369253Y0092952D01*
X0369253Y0091354D02*
X0418732Y0091354D01*
X0418732Y0089755D02*
X0369253Y0089755D01*
X0369253Y0088157D02*
X0418732Y0088157D01*
X0418732Y0086558D02*
X0369253Y0086558D01*
X0369253Y0084960D02*
X0418732Y0084960D01*
X0418732Y0083361D02*
X0369253Y0083361D01*
X0369253Y0081763D02*
X0418732Y0081763D01*
X0418732Y0080164D02*
X0369253Y0080164D01*
X0369253Y0078566D02*
X0418732Y0078566D01*
X0418732Y0076967D02*
X0369253Y0076967D01*
X0369253Y0075369D02*
X0418732Y0075369D01*
X0418732Y0073770D02*
X0368429Y0073770D01*
X0365627Y0072172D02*
X0418732Y0072172D01*
X0418732Y0070573D02*
X0365013Y0070573D01*
X0363414Y0068975D02*
X0418732Y0068975D01*
X0418732Y0067376D02*
X0361816Y0067376D01*
X0356824Y0073770D02*
X0337429Y0073770D01*
X0337081Y0073422D02*
X0338253Y0074594D01*
X0338253Y0105778D01*
X0337081Y0106950D01*
X0326172Y0106950D01*
X0325001Y0105778D01*
X0325001Y0074594D01*
X0326172Y0073422D01*
X0327880Y0073422D01*
X0326817Y0072359D01*
X0306014Y0072359D01*
X0304912Y0071902D01*
X0291116Y0058107D01*
X0287381Y0058107D01*
X0286209Y0056936D01*
X0286209Y0050129D01*
X0287381Y0048957D01*
X0294187Y0048957D01*
X0295359Y0050129D01*
X0295359Y0053864D01*
X0307854Y0066359D01*
X0328657Y0066359D01*
X0329759Y0066816D01*
X0330603Y0067660D01*
X0334170Y0071227D01*
X0334627Y0072329D01*
X0334627Y0073422D01*
X0337081Y0073422D01*
X0336562Y0072172D02*
X0334562Y0072172D01*
X0334583Y0070573D02*
X0333517Y0070573D01*
X0332984Y0068975D02*
X0331918Y0068975D01*
X0331386Y0067376D02*
X0330320Y0067376D01*
X0330603Y0067660D02*
X0330603Y0067660D01*
X0329787Y0065778D02*
X0307272Y0065778D01*
X0305674Y0064179D02*
X0328188Y0064179D01*
X0326590Y0062581D02*
X0304075Y0062581D01*
X0302477Y0060982D02*
X0324991Y0060982D01*
X0323393Y0059384D02*
X0300878Y0059384D01*
X0299280Y0057785D02*
X0318059Y0057785D01*
X0317209Y0056187D02*
X0297681Y0056187D01*
X0296083Y0054588D02*
X0317209Y0054588D01*
X0317209Y0052990D02*
X0295359Y0052990D01*
X0295359Y0051391D02*
X0317209Y0051391D01*
X0317546Y0049793D02*
X0295023Y0049793D01*
X0286546Y0049793D02*
X0264023Y0049793D01*
X0264359Y0050129D02*
X0264359Y0053864D01*
X0276854Y0066359D01*
X0297161Y0066359D01*
X0298263Y0066816D01*
X0299107Y0067660D01*
X0303170Y0071723D01*
X0303627Y0072825D01*
X0303627Y0073422D01*
X0306081Y0073422D01*
X0307253Y0074594D01*
X0307253Y0105778D01*
X0306081Y0106950D01*
X0295172Y0106950D01*
X0294001Y0105778D01*
X0294001Y0074594D01*
X0295172Y0073422D01*
X0296384Y0073422D01*
X0295321Y0072359D01*
X0275014Y0072359D01*
X0273912Y0071902D01*
X0273068Y0071058D01*
X0260116Y0058107D01*
X0256381Y0058107D01*
X0255209Y0056936D01*
X0255209Y0050129D01*
X0256381Y0048957D01*
X0263187Y0048957D01*
X0264359Y0050129D01*
X0264359Y0051391D02*
X0286209Y0051391D01*
X0286209Y0052990D02*
X0264359Y0052990D01*
X0265083Y0054588D02*
X0286209Y0054588D01*
X0286209Y0056187D02*
X0266681Y0056187D01*
X0268280Y0057785D02*
X0287059Y0057785D01*
X0292393Y0059384D02*
X0269878Y0059384D01*
X0271477Y0060982D02*
X0293991Y0060982D01*
X0295590Y0062581D02*
X0273075Y0062581D01*
X0274674Y0064179D02*
X0297188Y0064179D01*
X0298787Y0065778D02*
X0276272Y0065778D01*
X0272583Y0070573D02*
X0252780Y0070573D01*
X0252780Y0068975D02*
X0270984Y0068975D01*
X0269386Y0067376D02*
X0252780Y0067376D01*
X0251933Y0065778D02*
X0267787Y0065778D01*
X0266188Y0064179D02*
X0250883Y0064179D01*
X0249871Y0062581D02*
X0264590Y0062581D01*
X0262991Y0060982D02*
X0248272Y0060982D01*
X0246673Y0059384D02*
X0261393Y0059384D01*
X0256059Y0057785D02*
X0245075Y0057785D01*
X0243476Y0056187D02*
X0255209Y0056187D01*
X0255209Y0054588D02*
X0243347Y0054588D01*
X0243347Y0052990D02*
X0255209Y0052990D01*
X0255209Y0051391D02*
X0242885Y0051391D01*
X0242032Y0049793D02*
X0255546Y0049793D01*
X0240299Y0048194D02*
X0399453Y0048194D01*
X0398528Y0049793D02*
X0357023Y0049793D01*
X0357359Y0050129D02*
X0357359Y0056936D01*
X0356187Y0058107D01*
X0349381Y0058107D01*
X0348209Y0056936D01*
X0348209Y0050129D01*
X0349381Y0048957D01*
X0356187Y0048957D01*
X0357359Y0050129D01*
X0357359Y0051391D02*
X0397858Y0051391D01*
X0397430Y0052990D02*
X0357359Y0052990D01*
X0357359Y0054588D02*
X0397367Y0054588D01*
X0397426Y0056187D02*
X0357359Y0056187D01*
X0356509Y0057785D02*
X0397854Y0057785D01*
X0398520Y0059384D02*
X0331878Y0059384D01*
X0333477Y0060982D02*
X0399443Y0060982D01*
X0401037Y0062581D02*
X0335075Y0062581D01*
X0336674Y0064179D02*
X0403549Y0064179D01*
X0412019Y0064179D02*
X0418732Y0064179D01*
X0418732Y0062581D02*
X0414531Y0062581D01*
X0416126Y0060982D02*
X0418732Y0060982D01*
X0418732Y0059384D02*
X0417049Y0059384D01*
X0417714Y0057785D02*
X0418732Y0057785D01*
X0418732Y0056187D02*
X0418143Y0056187D01*
X0418202Y0054588D02*
X0418732Y0054588D01*
X0418732Y0052990D02*
X0418139Y0052990D01*
X0417710Y0051391D02*
X0418732Y0051391D01*
X0418732Y0049793D02*
X0417040Y0049793D01*
X0416115Y0048194D02*
X0418732Y0048194D01*
X0418732Y0065778D02*
X0338272Y0065778D01*
X0338253Y0075369D02*
X0356001Y0075369D01*
X0356001Y0076967D02*
X0338253Y0076967D01*
X0338253Y0078566D02*
X0356001Y0078566D01*
X0356001Y0080164D02*
X0338253Y0080164D01*
X0338253Y0081763D02*
X0356001Y0081763D01*
X0356001Y0083361D02*
X0338253Y0083361D01*
X0338253Y0084960D02*
X0356001Y0084960D01*
X0356001Y0086558D02*
X0338253Y0086558D01*
X0338253Y0088157D02*
X0356001Y0088157D01*
X0356001Y0089755D02*
X0338253Y0089755D01*
X0338253Y0091354D02*
X0356001Y0091354D01*
X0356001Y0092952D02*
X0338253Y0092952D01*
X0338253Y0094551D02*
X0356001Y0094551D01*
X0356001Y0096149D02*
X0338253Y0096149D01*
X0338253Y0097748D02*
X0356001Y0097748D01*
X0356001Y0099346D02*
X0338253Y0099346D01*
X0338253Y0100945D02*
X0356001Y0100945D01*
X0356001Y0102543D02*
X0338253Y0102543D01*
X0338253Y0104142D02*
X0356001Y0104142D01*
X0356001Y0105740D02*
X0338253Y0105740D01*
X0325001Y0105740D02*
X0307253Y0105740D01*
X0307253Y0104142D02*
X0325001Y0104142D01*
X0325001Y0102543D02*
X0307253Y0102543D01*
X0307253Y0100945D02*
X0325001Y0100945D01*
X0325001Y0099346D02*
X0307253Y0099346D01*
X0307253Y0097748D02*
X0325001Y0097748D01*
X0325001Y0096149D02*
X0307253Y0096149D01*
X0307253Y0094551D02*
X0325001Y0094551D01*
X0325001Y0092952D02*
X0307253Y0092952D01*
X0307253Y0091354D02*
X0325001Y0091354D01*
X0325001Y0089755D02*
X0307253Y0089755D01*
X0307253Y0088157D02*
X0325001Y0088157D01*
X0325001Y0086558D02*
X0307253Y0086558D01*
X0307253Y0084960D02*
X0325001Y0084960D01*
X0325001Y0083361D02*
X0307253Y0083361D01*
X0307253Y0081763D02*
X0325001Y0081763D01*
X0325001Y0080164D02*
X0307253Y0080164D01*
X0307253Y0078566D02*
X0325001Y0078566D01*
X0325001Y0076967D02*
X0307253Y0076967D01*
X0307253Y0075369D02*
X0325001Y0075369D01*
X0325824Y0073770D02*
X0306429Y0073770D01*
X0305562Y0072172D02*
X0303356Y0072172D01*
X0303583Y0070573D02*
X0302021Y0070573D01*
X0301984Y0068975D02*
X0300422Y0068975D01*
X0300386Y0067376D02*
X0298824Y0067376D01*
X0294824Y0073770D02*
X0252780Y0073770D01*
X0252780Y0072172D02*
X0274562Y0072172D01*
X0273068Y0071058D02*
X0273068Y0071058D01*
X0252780Y0075369D02*
X0294001Y0075369D01*
X0294001Y0076967D02*
X0252780Y0076967D01*
X0252780Y0078566D02*
X0294001Y0078566D01*
X0294001Y0080164D02*
X0250926Y0080164D01*
X0250926Y0081763D02*
X0294001Y0081763D01*
X0294001Y0083361D02*
X0250926Y0083361D01*
X0250926Y0084960D02*
X0294001Y0084960D01*
X0294001Y0086558D02*
X0250926Y0086558D01*
X0250926Y0088157D02*
X0294001Y0088157D01*
X0294001Y0089755D02*
X0250926Y0089755D01*
X0250926Y0091354D02*
X0294001Y0091354D01*
X0294001Y0092952D02*
X0250926Y0092952D01*
X0250876Y0094551D02*
X0294001Y0094551D01*
X0294001Y0096149D02*
X0249852Y0096149D01*
X0249463Y0097748D02*
X0294001Y0097748D01*
X0294001Y0099346D02*
X0248815Y0099346D01*
X0247007Y0100945D02*
X0294001Y0100945D01*
X0294001Y0102543D02*
X0238971Y0102543D01*
X0240081Y0104142D02*
X0294001Y0104142D01*
X0294001Y0105740D02*
X0240431Y0105740D01*
X0235080Y0118529D02*
X0418732Y0118529D01*
X0418732Y0120127D02*
X0233307Y0120127D01*
X0232394Y0121726D02*
X0418732Y0121726D01*
X0418732Y0123324D02*
X0232394Y0123324D01*
X0232038Y0124923D02*
X0418732Y0124923D01*
X0418732Y0126521D02*
X0231334Y0126521D01*
X0229736Y0128120D02*
X0418732Y0128120D01*
X0418732Y0129718D02*
X0243109Y0129718D01*
X0242061Y0129284D02*
X0244450Y0130274D01*
X0246279Y0132102D01*
X0247268Y0134491D01*
X0247268Y0137077D01*
X0246279Y0139466D01*
X0244450Y0141295D01*
X0242061Y0142284D01*
X0239476Y0142284D01*
X0237087Y0141295D01*
X0235258Y0139466D01*
X0234269Y0137077D01*
X0234269Y0134491D01*
X0235258Y0132102D01*
X0237087Y0130274D01*
X0239476Y0129284D01*
X0242061Y0129284D01*
X0238428Y0129718D02*
X0215048Y0129718D01*
X0215048Y0130557D02*
X0214058Y0132947D01*
X0212230Y0134775D01*
X0209841Y0135765D01*
X0207255Y0135765D01*
X0204866Y0134775D01*
X0203038Y0132947D01*
X0202048Y0130557D01*
X0202048Y0127972D01*
X0203038Y0125583D01*
X0204866Y0123754D01*
X0207255Y0122765D01*
X0209841Y0122765D01*
X0212230Y0123754D01*
X0214058Y0125583D01*
X0215048Y0127972D01*
X0215048Y0130557D01*
X0214734Y0131317D02*
X0236044Y0131317D01*
X0234921Y0132915D02*
X0214071Y0132915D01*
X0212491Y0134514D02*
X0234269Y0134514D01*
X0234269Y0136112D02*
X0036600Y0136112D01*
X0036600Y0134514D02*
X0204605Y0134514D01*
X0203025Y0132915D02*
X0036600Y0132915D01*
X0036600Y0131317D02*
X0202362Y0131317D01*
X0202048Y0129718D02*
X0036600Y0129718D01*
X0036600Y0128120D02*
X0202048Y0128120D01*
X0202649Y0126521D02*
X0036600Y0126521D01*
X0036600Y0124923D02*
X0203698Y0124923D01*
X0205904Y0123324D02*
X0036600Y0123324D01*
X0036600Y0121726D02*
X0219394Y0121726D01*
X0219394Y0123324D02*
X0211192Y0123324D01*
X0213398Y0124923D02*
X0219751Y0124923D01*
X0220455Y0126521D02*
X0214447Y0126521D01*
X0215048Y0128120D02*
X0222053Y0128120D01*
X0219953Y0120127D02*
X0036600Y0120127D01*
X0036600Y0118529D02*
X0220942Y0118529D01*
X0234531Y0137711D02*
X0036600Y0137711D01*
X0036600Y0139309D02*
X0235193Y0139309D01*
X0236700Y0140908D02*
X0036600Y0140908D01*
X0036600Y0142506D02*
X0418732Y0142506D01*
X0418732Y0140908D02*
X0244837Y0140908D01*
X0246344Y0139309D02*
X0418732Y0139309D01*
X0418732Y0137711D02*
X0247006Y0137711D01*
X0247268Y0136112D02*
X0418732Y0136112D01*
X0418732Y0134514D02*
X0247268Y0134514D01*
X0246616Y0132915D02*
X0418732Y0132915D01*
X0418732Y0131317D02*
X0245493Y0131317D01*
X0244926Y0091354D02*
X0238816Y0091354D01*
X0240016Y0089755D02*
X0244926Y0089755D01*
X0244926Y0088157D02*
X0240431Y0088157D01*
X0240276Y0086558D02*
X0244926Y0086558D01*
X0244926Y0084960D02*
X0239443Y0084960D01*
X0236991Y0083361D02*
X0244926Y0083361D01*
X0244926Y0081763D02*
X0234019Y0081763D01*
X0232420Y0080164D02*
X0244926Y0080164D01*
X0243072Y0078566D02*
X0230822Y0078566D01*
X0229223Y0076967D02*
X0243072Y0076967D01*
X0243072Y0075369D02*
X0229819Y0075369D01*
X0230347Y0073770D02*
X0243072Y0073770D01*
X0243072Y0072172D02*
X0230347Y0072172D01*
X0229960Y0070573D02*
X0243072Y0070573D01*
X0243072Y0068975D02*
X0229214Y0068975D01*
X0227616Y0067376D02*
X0243072Y0067376D01*
X0162209Y0052990D02*
X0140359Y0052990D01*
X0140359Y0054588D02*
X0161486Y0054588D01*
X0159887Y0056187D02*
X0140359Y0056187D01*
X0140359Y0056936D02*
X0140359Y0050129D01*
X0139187Y0048957D01*
X0132381Y0048957D01*
X0131209Y0050129D01*
X0131209Y0053864D01*
X0112083Y0072990D01*
X0111905Y0073422D01*
X0109172Y0073422D01*
X0108001Y0074594D01*
X0108001Y0105778D01*
X0109172Y0106950D01*
X0120081Y0106950D01*
X0121253Y0105778D01*
X0121253Y0074594D01*
X0120109Y0073450D01*
X0135452Y0058107D01*
X0139187Y0058107D01*
X0140359Y0056936D01*
X0139509Y0057785D02*
X0158289Y0057785D01*
X0156690Y0059384D02*
X0134176Y0059384D01*
X0132577Y0060982D02*
X0155092Y0060982D01*
X0153493Y0062581D02*
X0130979Y0062581D01*
X0129380Y0064179D02*
X0151895Y0064179D01*
X0150296Y0065778D02*
X0127781Y0065778D01*
X0126183Y0067376D02*
X0148698Y0067376D01*
X0147099Y0068975D02*
X0124584Y0068975D01*
X0122986Y0070573D02*
X0145501Y0070573D01*
X0143902Y0072172D02*
X0121387Y0072172D01*
X0120429Y0073770D02*
X0139824Y0073770D01*
X0139001Y0075369D02*
X0121253Y0075369D01*
X0121253Y0076967D02*
X0139001Y0076967D01*
X0139001Y0078566D02*
X0121253Y0078566D01*
X0121253Y0080164D02*
X0139001Y0080164D01*
X0139001Y0081763D02*
X0121253Y0081763D01*
X0121253Y0083361D02*
X0139001Y0083361D01*
X0139001Y0084960D02*
X0121253Y0084960D01*
X0121253Y0086558D02*
X0139001Y0086558D01*
X0139001Y0088157D02*
X0121253Y0088157D01*
X0121253Y0089755D02*
X0139001Y0089755D01*
X0139001Y0091354D02*
X0121253Y0091354D01*
X0121253Y0092952D02*
X0139001Y0092952D01*
X0139001Y0094551D02*
X0121253Y0094551D01*
X0121253Y0096149D02*
X0139001Y0096149D01*
X0139001Y0097748D02*
X0121253Y0097748D01*
X0121253Y0099346D02*
X0139001Y0099346D01*
X0139001Y0100945D02*
X0121253Y0100945D01*
X0121253Y0102543D02*
X0139001Y0102543D01*
X0139001Y0104142D02*
X0121253Y0104142D01*
X0121253Y0105740D02*
X0139001Y0105740D01*
X0108001Y0105740D02*
X0090253Y0105740D01*
X0090253Y0104142D02*
X0108001Y0104142D01*
X0108001Y0102543D02*
X0090253Y0102543D01*
X0090253Y0100945D02*
X0108001Y0100945D01*
X0108001Y0099346D02*
X0090253Y0099346D01*
X0090253Y0097748D02*
X0108001Y0097748D01*
X0108001Y0096149D02*
X0090253Y0096149D01*
X0090253Y0094551D02*
X0108001Y0094551D01*
X0108001Y0092952D02*
X0090253Y0092952D01*
X0090253Y0091354D02*
X0108001Y0091354D01*
X0108001Y0089755D02*
X0090253Y0089755D01*
X0090253Y0088157D02*
X0108001Y0088157D01*
X0108001Y0086558D02*
X0090253Y0086558D01*
X0090253Y0084960D02*
X0108001Y0084960D01*
X0108001Y0083361D02*
X0090253Y0083361D01*
X0090253Y0081763D02*
X0108001Y0081763D01*
X0108001Y0080164D02*
X0090253Y0080164D01*
X0090253Y0078566D02*
X0108001Y0078566D01*
X0108001Y0076967D02*
X0090253Y0076967D01*
X0090253Y0075369D02*
X0108001Y0075369D01*
X0108824Y0073770D02*
X0089429Y0073770D01*
X0090387Y0072172D02*
X0112902Y0072172D01*
X0114501Y0070573D02*
X0091986Y0070573D01*
X0093584Y0068975D02*
X0116099Y0068975D01*
X0117698Y0067376D02*
X0095183Y0067376D01*
X0096781Y0065778D02*
X0119296Y0065778D01*
X0120895Y0064179D02*
X0098380Y0064179D01*
X0099979Y0062581D02*
X0122493Y0062581D01*
X0124092Y0060982D02*
X0101577Y0060982D01*
X0103176Y0059384D02*
X0125690Y0059384D01*
X0127289Y0057785D02*
X0108509Y0057785D01*
X0109359Y0056187D02*
X0128887Y0056187D01*
X0130486Y0054588D02*
X0109359Y0054588D01*
X0109359Y0052990D02*
X0131209Y0052990D01*
X0131209Y0051391D02*
X0109359Y0051391D01*
X0109023Y0049793D02*
X0131546Y0049793D01*
X0140023Y0049793D02*
X0162546Y0049793D01*
X0162209Y0051391D02*
X0140359Y0051391D01*
X0100546Y0049793D02*
X0078023Y0049793D01*
X0078359Y0051391D02*
X0100209Y0051391D01*
X0100209Y0052990D02*
X0078359Y0052990D01*
X0078359Y0054588D02*
X0099486Y0054588D01*
X0097887Y0056187D02*
X0078359Y0056187D01*
X0077509Y0057785D02*
X0096289Y0057785D01*
X0036600Y0144105D02*
X0418732Y0144105D01*
X0418732Y0145703D02*
X0036600Y0145703D01*
X0036600Y0147302D02*
X0418732Y0147302D01*
X0418732Y0148900D02*
X0400694Y0148900D01*
X0400694Y0148822D02*
X0400694Y0180006D01*
X0399522Y0181178D01*
X0397068Y0181178D01*
X0397068Y0192846D01*
X0396611Y0193948D01*
X0387359Y0203200D01*
X0387359Y0206936D01*
X0386187Y0208107D01*
X0379381Y0208107D01*
X0378209Y0206936D01*
X0378209Y0200129D01*
X0379381Y0198957D01*
X0383116Y0198957D01*
X0391068Y0191006D01*
X0391068Y0181178D01*
X0388613Y0181178D01*
X0387442Y0180006D01*
X0387442Y0148822D01*
X0388613Y0147650D01*
X0399522Y0147650D01*
X0400694Y0148822D01*
X0400694Y0150499D02*
X0418732Y0150499D01*
X0418732Y0152097D02*
X0400694Y0152097D01*
X0400694Y0153696D02*
X0418732Y0153696D01*
X0418732Y0155294D02*
X0400694Y0155294D01*
X0400694Y0156893D02*
X0418732Y0156893D01*
X0418732Y0158491D02*
X0400694Y0158491D01*
X0400694Y0160090D02*
X0418732Y0160090D01*
X0418732Y0161688D02*
X0400694Y0161688D01*
X0400694Y0163287D02*
X0418732Y0163287D01*
X0418732Y0164885D02*
X0400694Y0164885D01*
X0400694Y0166484D02*
X0418732Y0166484D01*
X0418732Y0168082D02*
X0400694Y0168082D01*
X0400694Y0169681D02*
X0418732Y0169681D01*
X0418732Y0171279D02*
X0400694Y0171279D01*
X0400694Y0172878D02*
X0418732Y0172878D01*
X0418732Y0174476D02*
X0400694Y0174476D01*
X0400694Y0176075D02*
X0418732Y0176075D01*
X0418732Y0177673D02*
X0400694Y0177673D01*
X0400694Y0179272D02*
X0418732Y0179272D01*
X0418732Y0180870D02*
X0399830Y0180870D01*
X0397068Y0182469D02*
X0418732Y0182469D01*
X0418732Y0184068D02*
X0397068Y0184068D01*
X0397068Y0185666D02*
X0418732Y0185666D01*
X0418732Y0187265D02*
X0397068Y0187265D01*
X0397068Y0188863D02*
X0418732Y0188863D01*
X0418732Y0190462D02*
X0397068Y0190462D01*
X0397068Y0192060D02*
X0418732Y0192060D01*
X0418732Y0193659D02*
X0396731Y0193659D01*
X0395302Y0195257D02*
X0418732Y0195257D01*
X0418732Y0196856D02*
X0407676Y0196856D01*
X0407313Y0196493D02*
X0408485Y0197664D01*
X0408485Y0204471D01*
X0407313Y0205643D01*
X0400507Y0205643D01*
X0399335Y0204471D01*
X0399335Y0197664D01*
X0400507Y0196493D01*
X0407313Y0196493D01*
X0408485Y0198454D02*
X0418732Y0198454D01*
X0418732Y0200053D02*
X0408485Y0200053D01*
X0408485Y0201651D02*
X0418732Y0201651D01*
X0418732Y0203250D02*
X0408485Y0203250D01*
X0408108Y0204848D02*
X0418732Y0204848D01*
X0418732Y0206447D02*
X0387359Y0206447D01*
X0387359Y0204848D02*
X0399713Y0204848D01*
X0399335Y0203250D02*
X0387359Y0203250D01*
X0388908Y0201651D02*
X0399335Y0201651D01*
X0399335Y0200053D02*
X0390507Y0200053D01*
X0392105Y0198454D02*
X0399335Y0198454D01*
X0400144Y0196856D02*
X0393704Y0196856D01*
X0388415Y0193659D02*
X0036600Y0193659D01*
X0036600Y0195257D02*
X0386817Y0195257D01*
X0385218Y0196856D02*
X0066676Y0196856D01*
X0066313Y0196493D02*
X0067485Y0197664D01*
X0067485Y0204471D01*
X0066313Y0205643D01*
X0065847Y0205643D01*
X0065847Y0208557D01*
X0069704Y0212414D01*
X0077442Y0212414D01*
X0077442Y0199822D01*
X0078613Y0198650D01*
X0089522Y0198650D01*
X0090694Y0199822D01*
X0090694Y0231006D01*
X0089522Y0232178D01*
X0078613Y0232178D01*
X0077442Y0231006D01*
X0077442Y0218414D01*
X0067865Y0218414D01*
X0066762Y0217957D01*
X0061148Y0212343D01*
X0060304Y0211499D01*
X0059847Y0210397D01*
X0059847Y0205643D01*
X0059507Y0205643D01*
X0058335Y0204471D01*
X0058335Y0197664D01*
X0059507Y0196493D01*
X0066313Y0196493D01*
X0067485Y0198454D02*
X0383620Y0198454D01*
X0378286Y0200053D02*
X0338694Y0200053D01*
X0338694Y0199822D02*
X0338694Y0231006D01*
X0337522Y0232178D01*
X0335068Y0232178D01*
X0335068Y0243846D01*
X0334611Y0244948D01*
X0325359Y0254200D01*
X0325359Y0257936D01*
X0324187Y0259107D01*
X0317381Y0259107D01*
X0316209Y0257936D01*
X0316209Y0251129D01*
X0317381Y0249957D01*
X0321116Y0249957D01*
X0329068Y0242006D01*
X0329068Y0232178D01*
X0326613Y0232178D01*
X0325442Y0231006D01*
X0325442Y0199822D01*
X0326613Y0198650D01*
X0337522Y0198650D01*
X0338694Y0199822D01*
X0338694Y0201651D02*
X0378209Y0201651D01*
X0378209Y0203250D02*
X0338694Y0203250D01*
X0338694Y0204848D02*
X0378209Y0204848D01*
X0378209Y0206447D02*
X0338694Y0206447D01*
X0338694Y0208045D02*
X0379319Y0208045D01*
X0386249Y0208045D02*
X0418732Y0208045D01*
X0418732Y0209644D02*
X0338694Y0209644D01*
X0338694Y0211242D02*
X0418732Y0211242D01*
X0418732Y0212841D02*
X0338694Y0212841D01*
X0338694Y0214439D02*
X0418732Y0214439D01*
X0418732Y0216038D02*
X0338694Y0216038D01*
X0338694Y0217636D02*
X0418732Y0217636D01*
X0418732Y0219235D02*
X0338694Y0219235D01*
X0338694Y0220833D02*
X0418732Y0220833D01*
X0418732Y0222432D02*
X0338694Y0222432D01*
X0338694Y0224030D02*
X0386564Y0224030D01*
X0386001Y0224594D02*
X0387172Y0223422D01*
X0398081Y0223422D01*
X0399253Y0224594D01*
X0399253Y0255778D01*
X0398081Y0256950D01*
X0387172Y0256950D01*
X0386001Y0255778D01*
X0386001Y0243186D01*
X0367373Y0243186D01*
X0356359Y0254200D01*
X0356359Y0257936D01*
X0355187Y0259107D01*
X0348381Y0259107D01*
X0347209Y0257936D01*
X0347209Y0251129D01*
X0348381Y0249957D01*
X0352116Y0249957D01*
X0364431Y0237643D01*
X0365534Y0237186D01*
X0386001Y0237186D01*
X0386001Y0224594D01*
X0386001Y0225629D02*
X0338694Y0225629D01*
X0338694Y0227227D02*
X0386001Y0227227D01*
X0386001Y0228826D02*
X0338694Y0228826D01*
X0338694Y0230424D02*
X0386001Y0230424D01*
X0386001Y0232023D02*
X0337677Y0232023D01*
X0335068Y0233621D02*
X0386001Y0233621D01*
X0386001Y0235220D02*
X0335068Y0235220D01*
X0335068Y0236818D02*
X0386001Y0236818D01*
X0386001Y0243212D02*
X0367347Y0243212D01*
X0365748Y0244811D02*
X0386001Y0244811D01*
X0386001Y0246409D02*
X0364150Y0246409D01*
X0362551Y0248008D02*
X0368992Y0248008D01*
X0369507Y0247493D02*
X0376313Y0247493D01*
X0377485Y0248664D01*
X0377485Y0255471D01*
X0376313Y0256643D01*
X0372578Y0256643D01*
X0364627Y0264594D01*
X0364627Y0274422D01*
X0367081Y0274422D01*
X0368253Y0275594D01*
X0368253Y0306778D01*
X0367081Y0307950D01*
X0356172Y0307950D01*
X0355001Y0306778D01*
X0355001Y0275594D01*
X0356172Y0274422D01*
X0358627Y0274422D01*
X0358627Y0262754D01*
X0359083Y0261652D01*
X0368335Y0252400D01*
X0368335Y0248664D01*
X0369507Y0247493D01*
X0368335Y0249606D02*
X0360953Y0249606D01*
X0359354Y0251205D02*
X0368335Y0251205D01*
X0367932Y0252803D02*
X0357756Y0252803D01*
X0356359Y0254402D02*
X0366333Y0254402D01*
X0364735Y0256001D02*
X0356359Y0256001D01*
X0356359Y0257599D02*
X0363136Y0257599D01*
X0361538Y0259198D02*
X0308023Y0259198D01*
X0306425Y0260796D02*
X0359939Y0260796D01*
X0358776Y0262395D02*
X0304826Y0262395D01*
X0303228Y0263993D02*
X0358627Y0263993D01*
X0358627Y0265592D02*
X0302627Y0265592D01*
X0302627Y0264594D02*
X0302627Y0274422D01*
X0305081Y0274422D01*
X0306253Y0275594D01*
X0306253Y0306778D01*
X0305231Y0307800D01*
X0325023Y0307800D01*
X0324001Y0306778D01*
X0324001Y0275594D01*
X0325172Y0274422D01*
X0336081Y0274422D01*
X0337253Y0275594D01*
X0337253Y0306778D01*
X0336081Y0307950D01*
X0333489Y0307950D01*
X0333170Y0308720D01*
X0329391Y0312499D01*
X0328547Y0313343D01*
X0327444Y0313800D01*
X0293250Y0313800D01*
X0292148Y0313343D01*
X0288148Y0309343D01*
X0287304Y0308499D01*
X0286847Y0307397D01*
X0286847Y0259107D01*
X0286381Y0259107D01*
X0285209Y0257936D01*
X0285209Y0251129D01*
X0286381Y0249957D01*
X0293187Y0249957D01*
X0294359Y0251129D01*
X0294359Y0257936D01*
X0293187Y0259107D01*
X0292847Y0259107D01*
X0292847Y0305557D01*
X0293001Y0305711D01*
X0293001Y0275594D01*
X0294172Y0274422D01*
X0296627Y0274422D01*
X0296627Y0262754D01*
X0297083Y0261652D01*
X0306335Y0252400D01*
X0306335Y0248664D01*
X0307507Y0247493D01*
X0314313Y0247493D01*
X0315485Y0248664D01*
X0315485Y0255471D01*
X0314313Y0256643D01*
X0310578Y0256643D01*
X0302627Y0264594D01*
X0302627Y0267190D02*
X0358627Y0267190D01*
X0358627Y0268789D02*
X0302627Y0268789D01*
X0302627Y0270387D02*
X0358627Y0270387D01*
X0358627Y0271986D02*
X0302627Y0271986D01*
X0302627Y0273584D02*
X0358627Y0273584D01*
X0355412Y0275183D02*
X0336842Y0275183D01*
X0337253Y0276781D02*
X0355001Y0276781D01*
X0355001Y0278380D02*
X0337253Y0278380D01*
X0337253Y0279978D02*
X0355001Y0279978D01*
X0355001Y0281577D02*
X0337253Y0281577D01*
X0337253Y0283175D02*
X0355001Y0283175D01*
X0355001Y0284774D02*
X0337253Y0284774D01*
X0337253Y0286372D02*
X0355001Y0286372D01*
X0355001Y0287971D02*
X0337253Y0287971D01*
X0337253Y0289569D02*
X0355001Y0289569D01*
X0355001Y0291168D02*
X0337253Y0291168D01*
X0337253Y0292766D02*
X0355001Y0292766D01*
X0355001Y0294365D02*
X0337253Y0294365D01*
X0337253Y0295963D02*
X0355001Y0295963D01*
X0355001Y0297562D02*
X0337253Y0297562D01*
X0337253Y0299160D02*
X0355001Y0299160D01*
X0355001Y0300759D02*
X0337253Y0300759D01*
X0337253Y0302357D02*
X0355001Y0302357D01*
X0355001Y0303956D02*
X0337253Y0303956D01*
X0337253Y0305554D02*
X0355001Y0305554D01*
X0355376Y0307153D02*
X0336878Y0307153D01*
X0333138Y0308751D02*
X0418732Y0308751D01*
X0418732Y0307153D02*
X0367878Y0307153D01*
X0368253Y0305554D02*
X0418732Y0305554D01*
X0418732Y0303956D02*
X0368253Y0303956D01*
X0368253Y0302357D02*
X0418732Y0302357D01*
X0418732Y0300759D02*
X0368253Y0300759D01*
X0368253Y0299160D02*
X0418732Y0299160D01*
X0418732Y0297562D02*
X0368253Y0297562D01*
X0368253Y0295963D02*
X0418732Y0295963D01*
X0418732Y0294365D02*
X0368253Y0294365D01*
X0368253Y0292766D02*
X0418732Y0292766D01*
X0418732Y0291168D02*
X0368253Y0291168D01*
X0368253Y0289569D02*
X0418732Y0289569D01*
X0418732Y0287971D02*
X0368253Y0287971D01*
X0368253Y0286372D02*
X0418732Y0286372D01*
X0418732Y0284774D02*
X0368253Y0284774D01*
X0368253Y0283175D02*
X0418732Y0283175D01*
X0418732Y0281577D02*
X0368253Y0281577D01*
X0368253Y0279978D02*
X0418732Y0279978D01*
X0418732Y0278380D02*
X0368253Y0278380D01*
X0368253Y0276781D02*
X0418732Y0276781D01*
X0418732Y0275183D02*
X0367842Y0275183D01*
X0364627Y0273584D02*
X0418732Y0273584D01*
X0418732Y0271986D02*
X0364627Y0271986D01*
X0364627Y0270387D02*
X0418732Y0270387D01*
X0418732Y0268789D02*
X0364627Y0268789D01*
X0364627Y0267190D02*
X0418732Y0267190D01*
X0418732Y0265592D02*
X0364627Y0265592D01*
X0365228Y0263993D02*
X0418732Y0263993D01*
X0418732Y0262395D02*
X0366826Y0262395D01*
X0368425Y0260796D02*
X0418732Y0260796D01*
X0418732Y0259198D02*
X0370023Y0259198D01*
X0371622Y0257599D02*
X0418732Y0257599D01*
X0418732Y0256001D02*
X0399030Y0256001D01*
X0399253Y0254402D02*
X0418732Y0254402D01*
X0418732Y0252803D02*
X0399253Y0252803D01*
X0399253Y0251205D02*
X0418732Y0251205D01*
X0418732Y0249606D02*
X0399253Y0249606D01*
X0399253Y0248008D02*
X0418732Y0248008D01*
X0418732Y0246409D02*
X0399253Y0246409D01*
X0399253Y0244811D02*
X0418732Y0244811D01*
X0418732Y0243212D02*
X0399253Y0243212D01*
X0399253Y0241614D02*
X0418732Y0241614D01*
X0418732Y0240015D02*
X0399253Y0240015D01*
X0399253Y0238417D02*
X0418732Y0238417D01*
X0418732Y0236818D02*
X0399253Y0236818D01*
X0399253Y0235220D02*
X0418732Y0235220D01*
X0418732Y0233621D02*
X0399253Y0233621D01*
X0399253Y0232023D02*
X0418732Y0232023D01*
X0418732Y0230424D02*
X0399253Y0230424D01*
X0399253Y0228826D02*
X0418732Y0228826D01*
X0418732Y0227227D02*
X0399253Y0227227D01*
X0399253Y0225629D02*
X0418732Y0225629D01*
X0418732Y0224030D02*
X0398689Y0224030D01*
X0386001Y0248008D02*
X0376829Y0248008D01*
X0377485Y0249606D02*
X0386001Y0249606D01*
X0386001Y0251205D02*
X0377485Y0251205D01*
X0377485Y0252803D02*
X0386001Y0252803D01*
X0386001Y0254402D02*
X0377485Y0254402D01*
X0376955Y0256001D02*
X0386223Y0256001D01*
X0363657Y0238417D02*
X0335068Y0238417D01*
X0335068Y0240015D02*
X0362058Y0240015D01*
X0360460Y0241614D02*
X0335068Y0241614D01*
X0335068Y0243212D02*
X0358861Y0243212D01*
X0357263Y0244811D02*
X0334668Y0244811D01*
X0333150Y0246409D02*
X0355664Y0246409D01*
X0354066Y0248008D02*
X0345829Y0248008D01*
X0345313Y0247493D02*
X0346485Y0248664D01*
X0346485Y0255471D01*
X0345313Y0256643D01*
X0338507Y0256643D01*
X0337335Y0255471D01*
X0337335Y0248664D01*
X0338507Y0247493D01*
X0345313Y0247493D01*
X0346485Y0249606D02*
X0352467Y0249606D01*
X0347209Y0251205D02*
X0346485Y0251205D01*
X0346485Y0252803D02*
X0347209Y0252803D01*
X0347209Y0254402D02*
X0346485Y0254402D01*
X0345955Y0256001D02*
X0347209Y0256001D01*
X0347209Y0257599D02*
X0325359Y0257599D01*
X0325359Y0256001D02*
X0337865Y0256001D01*
X0337335Y0254402D02*
X0325359Y0254402D01*
X0326756Y0252803D02*
X0337335Y0252803D01*
X0337335Y0251205D02*
X0328354Y0251205D01*
X0329953Y0249606D02*
X0337335Y0249606D01*
X0337992Y0248008D02*
X0331551Y0248008D01*
X0327861Y0243212D02*
X0273068Y0243212D01*
X0273068Y0243846D02*
X0272611Y0244948D01*
X0263359Y0254200D01*
X0263359Y0257936D01*
X0262187Y0259107D01*
X0255381Y0259107D01*
X0254209Y0257936D01*
X0254209Y0251129D01*
X0255381Y0249957D01*
X0259116Y0249957D01*
X0267068Y0242006D01*
X0267068Y0232178D01*
X0264613Y0232178D01*
X0263442Y0231006D01*
X0263442Y0199822D01*
X0264613Y0198650D01*
X0275522Y0198650D01*
X0276694Y0199822D01*
X0276694Y0231006D01*
X0275522Y0232178D01*
X0273068Y0232178D01*
X0273068Y0243846D01*
X0272668Y0244811D02*
X0326263Y0244811D01*
X0324664Y0246409D02*
X0271150Y0246409D01*
X0269551Y0248008D02*
X0275992Y0248008D01*
X0276507Y0247493D02*
X0283313Y0247493D01*
X0284485Y0248664D01*
X0284485Y0255471D01*
X0283313Y0256643D01*
X0276507Y0256643D01*
X0275335Y0255471D01*
X0275335Y0248664D01*
X0276507Y0247493D01*
X0275335Y0249606D02*
X0267953Y0249606D01*
X0266354Y0251205D02*
X0275335Y0251205D01*
X0275335Y0252803D02*
X0264756Y0252803D01*
X0263359Y0254402D02*
X0275335Y0254402D01*
X0275865Y0256001D02*
X0263359Y0256001D01*
X0263359Y0257599D02*
X0285209Y0257599D01*
X0285209Y0256001D02*
X0283955Y0256001D01*
X0284485Y0254402D02*
X0285209Y0254402D01*
X0285209Y0252803D02*
X0284485Y0252803D01*
X0284485Y0251205D02*
X0285209Y0251205D01*
X0284485Y0249606D02*
X0306335Y0249606D01*
X0306335Y0251205D02*
X0294359Y0251205D01*
X0294359Y0252803D02*
X0305932Y0252803D01*
X0304333Y0254402D02*
X0294359Y0254402D01*
X0294359Y0256001D02*
X0302735Y0256001D01*
X0301136Y0257599D02*
X0294359Y0257599D01*
X0292847Y0259198D02*
X0299538Y0259198D01*
X0297939Y0260796D02*
X0292847Y0260796D01*
X0292847Y0262395D02*
X0296776Y0262395D01*
X0296627Y0263993D02*
X0292847Y0263993D01*
X0292847Y0265592D02*
X0296627Y0265592D01*
X0296627Y0267190D02*
X0292847Y0267190D01*
X0292847Y0268789D02*
X0296627Y0268789D01*
X0296627Y0270387D02*
X0292847Y0270387D01*
X0292847Y0271986D02*
X0296627Y0271986D01*
X0296627Y0273584D02*
X0292847Y0273584D01*
X0292847Y0275183D02*
X0293412Y0275183D01*
X0293001Y0276781D02*
X0292847Y0276781D01*
X0292847Y0278380D02*
X0293001Y0278380D01*
X0293001Y0279978D02*
X0292847Y0279978D01*
X0292847Y0281577D02*
X0293001Y0281577D01*
X0293001Y0283175D02*
X0292847Y0283175D01*
X0292847Y0284774D02*
X0293001Y0284774D01*
X0293001Y0286372D02*
X0292847Y0286372D01*
X0292847Y0287971D02*
X0293001Y0287971D01*
X0293001Y0289569D02*
X0292847Y0289569D01*
X0292847Y0291168D02*
X0293001Y0291168D01*
X0293001Y0292766D02*
X0292847Y0292766D01*
X0292847Y0294365D02*
X0293001Y0294365D01*
X0293001Y0295963D02*
X0292847Y0295963D01*
X0292847Y0297562D02*
X0293001Y0297562D01*
X0293001Y0299160D02*
X0292847Y0299160D01*
X0292847Y0300759D02*
X0293001Y0300759D01*
X0293001Y0302357D02*
X0292847Y0302357D01*
X0292847Y0303956D02*
X0293001Y0303956D01*
X0293001Y0305554D02*
X0292847Y0305554D01*
X0286847Y0305554D02*
X0275253Y0305554D01*
X0275253Y0306778D02*
X0274081Y0307950D01*
X0271489Y0307950D01*
X0271170Y0308720D01*
X0267391Y0312499D01*
X0266547Y0313343D01*
X0265444Y0313800D01*
X0231250Y0313800D01*
X0230148Y0313343D01*
X0229304Y0312499D01*
X0226148Y0309343D01*
X0225304Y0308499D01*
X0224847Y0307397D01*
X0224847Y0259107D01*
X0224381Y0259107D01*
X0223209Y0257936D01*
X0223209Y0251129D01*
X0224381Y0249957D01*
X0231187Y0249957D01*
X0232359Y0251129D01*
X0232359Y0257936D01*
X0231187Y0259107D01*
X0230847Y0259107D01*
X0230847Y0305557D01*
X0231001Y0305711D01*
X0231001Y0275594D01*
X0232172Y0274422D01*
X0234627Y0274422D01*
X0234627Y0262754D01*
X0235083Y0261652D01*
X0244335Y0252400D01*
X0244335Y0248664D01*
X0245507Y0247493D01*
X0252313Y0247493D01*
X0253485Y0248664D01*
X0253485Y0255471D01*
X0252313Y0256643D01*
X0248578Y0256643D01*
X0240627Y0264594D01*
X0240627Y0274422D01*
X0243081Y0274422D01*
X0244253Y0275594D01*
X0244253Y0306778D01*
X0243231Y0307800D01*
X0263023Y0307800D01*
X0262001Y0306778D01*
X0262001Y0275594D01*
X0263172Y0274422D01*
X0274081Y0274422D01*
X0275253Y0275594D01*
X0275253Y0306778D01*
X0274878Y0307153D02*
X0286847Y0307153D01*
X0287556Y0308751D02*
X0271138Y0308751D01*
X0269540Y0310350D02*
X0289155Y0310350D01*
X0290753Y0311948D02*
X0267941Y0311948D01*
X0266055Y0313547D02*
X0292640Y0313547D01*
X0286847Y0303956D02*
X0275253Y0303956D01*
X0275253Y0302357D02*
X0286847Y0302357D01*
X0286847Y0300759D02*
X0275253Y0300759D01*
X0275253Y0299160D02*
X0286847Y0299160D01*
X0286847Y0297562D02*
X0275253Y0297562D01*
X0275253Y0295963D02*
X0286847Y0295963D01*
X0286847Y0294365D02*
X0275253Y0294365D01*
X0275253Y0292766D02*
X0286847Y0292766D01*
X0286847Y0291168D02*
X0275253Y0291168D01*
X0275253Y0289569D02*
X0286847Y0289569D01*
X0286847Y0287971D02*
X0275253Y0287971D01*
X0275253Y0286372D02*
X0286847Y0286372D01*
X0286847Y0284774D02*
X0275253Y0284774D01*
X0275253Y0283175D02*
X0286847Y0283175D01*
X0286847Y0281577D02*
X0275253Y0281577D01*
X0275253Y0279978D02*
X0286847Y0279978D01*
X0286847Y0278380D02*
X0275253Y0278380D01*
X0275253Y0276781D02*
X0286847Y0276781D01*
X0286847Y0275183D02*
X0274842Y0275183D01*
X0286847Y0273584D02*
X0240627Y0273584D01*
X0240627Y0271986D02*
X0286847Y0271986D01*
X0286847Y0270387D02*
X0240627Y0270387D01*
X0240627Y0268789D02*
X0286847Y0268789D01*
X0286847Y0267190D02*
X0240627Y0267190D01*
X0240627Y0265592D02*
X0286847Y0265592D01*
X0286847Y0263993D02*
X0241228Y0263993D01*
X0242826Y0262395D02*
X0286847Y0262395D01*
X0286847Y0260796D02*
X0244425Y0260796D01*
X0246023Y0259198D02*
X0286847Y0259198D01*
X0283829Y0248008D02*
X0306992Y0248008D01*
X0314829Y0248008D02*
X0323066Y0248008D01*
X0321467Y0249606D02*
X0315485Y0249606D01*
X0315485Y0251205D02*
X0316209Y0251205D01*
X0316209Y0252803D02*
X0315485Y0252803D01*
X0315485Y0254402D02*
X0316209Y0254402D01*
X0316209Y0256001D02*
X0314955Y0256001D01*
X0316209Y0257599D02*
X0309622Y0257599D01*
X0305842Y0275183D02*
X0324412Y0275183D01*
X0324001Y0276781D02*
X0306253Y0276781D01*
X0306253Y0278380D02*
X0324001Y0278380D01*
X0324001Y0279978D02*
X0306253Y0279978D01*
X0306253Y0281577D02*
X0324001Y0281577D01*
X0324001Y0283175D02*
X0306253Y0283175D01*
X0306253Y0284774D02*
X0324001Y0284774D01*
X0324001Y0286372D02*
X0306253Y0286372D01*
X0306253Y0287971D02*
X0324001Y0287971D01*
X0324001Y0289569D02*
X0306253Y0289569D01*
X0306253Y0291168D02*
X0324001Y0291168D01*
X0324001Y0292766D02*
X0306253Y0292766D01*
X0306253Y0294365D02*
X0324001Y0294365D01*
X0324001Y0295963D02*
X0306253Y0295963D01*
X0306253Y0297562D02*
X0324001Y0297562D01*
X0324001Y0299160D02*
X0306253Y0299160D01*
X0306253Y0300759D02*
X0324001Y0300759D01*
X0324001Y0302357D02*
X0306253Y0302357D01*
X0306253Y0303956D02*
X0324001Y0303956D01*
X0324001Y0305554D02*
X0306253Y0305554D01*
X0305878Y0307153D02*
X0324376Y0307153D01*
X0329941Y0311948D02*
X0418732Y0311948D01*
X0418732Y0310350D02*
X0331540Y0310350D01*
X0328055Y0313547D02*
X0418732Y0313547D01*
X0418732Y0315145D02*
X0036600Y0315145D01*
X0036600Y0313547D02*
X0230640Y0313547D01*
X0228753Y0311948D02*
X0036600Y0311948D01*
X0036600Y0310350D02*
X0227155Y0310350D01*
X0225556Y0308751D02*
X0036600Y0308751D01*
X0036600Y0307153D02*
X0076376Y0307153D01*
X0076001Y0306778D02*
X0076001Y0275594D01*
X0077172Y0274422D01*
X0079627Y0274422D01*
X0079627Y0262754D01*
X0080083Y0261652D01*
X0089335Y0252400D01*
X0089335Y0248664D01*
X0090507Y0247493D01*
X0097313Y0247493D01*
X0098485Y0248664D01*
X0098485Y0255471D01*
X0097313Y0256643D01*
X0093578Y0256643D01*
X0085627Y0264594D01*
X0085627Y0274422D01*
X0088081Y0274422D01*
X0089253Y0275594D01*
X0089253Y0306778D01*
X0088081Y0307950D01*
X0077172Y0307950D01*
X0076001Y0306778D01*
X0076001Y0305554D02*
X0036600Y0305554D01*
X0036600Y0303956D02*
X0076001Y0303956D01*
X0076001Y0302357D02*
X0036600Y0302357D01*
X0036600Y0300759D02*
X0076001Y0300759D01*
X0076001Y0299160D02*
X0036600Y0299160D01*
X0036600Y0297562D02*
X0076001Y0297562D01*
X0076001Y0295963D02*
X0036600Y0295963D01*
X0036600Y0294365D02*
X0076001Y0294365D01*
X0076001Y0292766D02*
X0036600Y0292766D01*
X0036600Y0291168D02*
X0076001Y0291168D01*
X0076001Y0289569D02*
X0036600Y0289569D01*
X0036600Y0287971D02*
X0076001Y0287971D01*
X0076001Y0286372D02*
X0036600Y0286372D01*
X0036600Y0284774D02*
X0076001Y0284774D01*
X0076001Y0283175D02*
X0036600Y0283175D01*
X0036600Y0281577D02*
X0076001Y0281577D01*
X0076001Y0279978D02*
X0036600Y0279978D01*
X0036600Y0278380D02*
X0076001Y0278380D01*
X0076001Y0276781D02*
X0036600Y0276781D01*
X0036600Y0275183D02*
X0076412Y0275183D01*
X0079627Y0273584D02*
X0036600Y0273584D01*
X0036600Y0271986D02*
X0079627Y0271986D01*
X0079627Y0270387D02*
X0036600Y0270387D01*
X0036600Y0268789D02*
X0079627Y0268789D01*
X0079627Y0267190D02*
X0036600Y0267190D01*
X0036600Y0265592D02*
X0079627Y0265592D01*
X0079627Y0263993D02*
X0036600Y0263993D01*
X0036600Y0262395D02*
X0079776Y0262395D01*
X0080939Y0260796D02*
X0036600Y0260796D01*
X0036600Y0259198D02*
X0082538Y0259198D01*
X0084136Y0257599D02*
X0077359Y0257599D01*
X0077359Y0257936D02*
X0077359Y0251129D01*
X0076187Y0249957D01*
X0072452Y0249957D01*
X0060137Y0237643D01*
X0059035Y0237186D01*
X0058253Y0237186D01*
X0058253Y0224594D01*
X0057081Y0223422D01*
X0046172Y0223422D01*
X0045001Y0224594D01*
X0045001Y0255778D01*
X0046172Y0256950D01*
X0057081Y0256950D01*
X0058253Y0255778D01*
X0058253Y0244243D01*
X0068209Y0254200D01*
X0068209Y0257936D01*
X0069381Y0259107D01*
X0076187Y0259107D01*
X0077359Y0257936D01*
X0077359Y0256001D02*
X0085735Y0256001D01*
X0087333Y0254402D02*
X0077359Y0254402D01*
X0077359Y0252803D02*
X0088932Y0252803D01*
X0089335Y0251205D02*
X0077359Y0251205D01*
X0072101Y0249606D02*
X0089335Y0249606D01*
X0089992Y0248008D02*
X0070503Y0248008D01*
X0068904Y0246409D02*
X0126326Y0246409D01*
X0125242Y0247493D02*
X0140585Y0232150D01*
X0139442Y0231006D01*
X0139442Y0199822D01*
X0140613Y0198650D01*
X0151522Y0198650D01*
X0152694Y0199822D01*
X0152694Y0231006D01*
X0151522Y0232178D01*
X0148790Y0232178D01*
X0148611Y0232610D01*
X0129485Y0251736D01*
X0129485Y0255471D01*
X0128313Y0256643D01*
X0121507Y0256643D01*
X0120335Y0255471D01*
X0120335Y0248664D01*
X0121507Y0247493D01*
X0125242Y0247493D01*
X0127924Y0244811D02*
X0067306Y0244811D01*
X0065707Y0243212D02*
X0129523Y0243212D01*
X0131121Y0241614D02*
X0064109Y0241614D01*
X0062510Y0240015D02*
X0132720Y0240015D01*
X0134318Y0238417D02*
X0060912Y0238417D01*
X0058253Y0236818D02*
X0135917Y0236818D01*
X0137515Y0235220D02*
X0058253Y0235220D01*
X0058253Y0233621D02*
X0139114Y0233621D01*
X0140458Y0232023D02*
X0089677Y0232023D01*
X0090694Y0230424D02*
X0139442Y0230424D01*
X0139442Y0228826D02*
X0090694Y0228826D01*
X0090694Y0227227D02*
X0139442Y0227227D01*
X0139442Y0225629D02*
X0090694Y0225629D01*
X0090694Y0224030D02*
X0139442Y0224030D01*
X0139442Y0222432D02*
X0090694Y0222432D01*
X0090694Y0220833D02*
X0139442Y0220833D01*
X0139442Y0219235D02*
X0090694Y0219235D01*
X0090694Y0217636D02*
X0139442Y0217636D01*
X0139442Y0216038D02*
X0090694Y0216038D01*
X0090694Y0214439D02*
X0139442Y0214439D01*
X0139442Y0212841D02*
X0090694Y0212841D01*
X0090694Y0211242D02*
X0139442Y0211242D01*
X0139442Y0209644D02*
X0090694Y0209644D01*
X0090694Y0208045D02*
X0139442Y0208045D01*
X0139442Y0206447D02*
X0090694Y0206447D01*
X0090694Y0204848D02*
X0139442Y0204848D01*
X0139442Y0203250D02*
X0090694Y0203250D01*
X0090694Y0201651D02*
X0139442Y0201651D01*
X0139442Y0200053D02*
X0090694Y0200053D01*
X0077442Y0200053D02*
X0067485Y0200053D01*
X0067485Y0201651D02*
X0077442Y0201651D01*
X0077442Y0203250D02*
X0067485Y0203250D01*
X0067108Y0204848D02*
X0077442Y0204848D01*
X0077442Y0206447D02*
X0065847Y0206447D01*
X0065847Y0208045D02*
X0077442Y0208045D01*
X0077442Y0209644D02*
X0066934Y0209644D01*
X0068532Y0211242D02*
X0077442Y0211242D01*
X0077442Y0219235D02*
X0036600Y0219235D01*
X0036600Y0220833D02*
X0077442Y0220833D01*
X0077442Y0222432D02*
X0036600Y0222432D01*
X0036600Y0224030D02*
X0045564Y0224030D01*
X0045001Y0225629D02*
X0036600Y0225629D01*
X0036600Y0227227D02*
X0045001Y0227227D01*
X0045001Y0228826D02*
X0036600Y0228826D01*
X0036600Y0230424D02*
X0045001Y0230424D01*
X0045001Y0232023D02*
X0036600Y0232023D01*
X0036600Y0233621D02*
X0045001Y0233621D01*
X0045001Y0235220D02*
X0036600Y0235220D01*
X0036600Y0236818D02*
X0045001Y0236818D01*
X0045001Y0238417D02*
X0036600Y0238417D01*
X0036600Y0240015D02*
X0045001Y0240015D01*
X0045001Y0241614D02*
X0036600Y0241614D01*
X0036600Y0243212D02*
X0045001Y0243212D01*
X0045001Y0244811D02*
X0036600Y0244811D01*
X0036600Y0246409D02*
X0045001Y0246409D01*
X0045001Y0248008D02*
X0036600Y0248008D01*
X0036600Y0249606D02*
X0045001Y0249606D01*
X0045001Y0251205D02*
X0036600Y0251205D01*
X0036600Y0252803D02*
X0045001Y0252803D01*
X0045001Y0254402D02*
X0036600Y0254402D01*
X0036600Y0256001D02*
X0045223Y0256001D01*
X0036600Y0257599D02*
X0068209Y0257599D01*
X0068209Y0256001D02*
X0058030Y0256001D01*
X0058253Y0254402D02*
X0068209Y0254402D01*
X0066813Y0252803D02*
X0058253Y0252803D01*
X0058253Y0251205D02*
X0065214Y0251205D01*
X0063616Y0249606D02*
X0058253Y0249606D01*
X0058253Y0248008D02*
X0062017Y0248008D01*
X0060419Y0246409D02*
X0058253Y0246409D01*
X0058253Y0244811D02*
X0058820Y0244811D01*
X0058253Y0232023D02*
X0078458Y0232023D01*
X0077442Y0230424D02*
X0058253Y0230424D01*
X0058253Y0228826D02*
X0077442Y0228826D01*
X0077442Y0227227D02*
X0058253Y0227227D01*
X0058253Y0225629D02*
X0077442Y0225629D01*
X0077442Y0224030D02*
X0057689Y0224030D01*
X0064842Y0216038D02*
X0036600Y0216038D01*
X0036600Y0217636D02*
X0066441Y0217636D01*
X0063244Y0214439D02*
X0036600Y0214439D01*
X0036600Y0212841D02*
X0061645Y0212841D01*
X0060197Y0211242D02*
X0036600Y0211242D01*
X0036600Y0209644D02*
X0059847Y0209644D01*
X0059847Y0208045D02*
X0045249Y0208045D01*
X0045187Y0208107D02*
X0038381Y0208107D01*
X0037209Y0206936D01*
X0037209Y0200129D01*
X0038381Y0198957D01*
X0045187Y0198957D01*
X0046359Y0200129D01*
X0046359Y0206936D01*
X0045187Y0208107D01*
X0046359Y0206447D02*
X0059847Y0206447D01*
X0058713Y0204848D02*
X0046359Y0204848D01*
X0046359Y0203250D02*
X0058335Y0203250D01*
X0058335Y0201651D02*
X0046359Y0201651D01*
X0046283Y0200053D02*
X0058335Y0200053D01*
X0058335Y0198454D02*
X0036600Y0198454D01*
X0036600Y0196856D02*
X0059144Y0196856D01*
X0037286Y0200053D02*
X0036600Y0200053D01*
X0036600Y0201651D02*
X0037209Y0201651D01*
X0037209Y0203250D02*
X0036600Y0203250D01*
X0036600Y0204848D02*
X0037209Y0204848D01*
X0037209Y0206447D02*
X0036600Y0206447D01*
X0036600Y0208045D02*
X0038319Y0208045D01*
X0036600Y0192060D02*
X0390014Y0192060D01*
X0391068Y0190462D02*
X0036600Y0190462D01*
X0036600Y0188863D02*
X0391068Y0188863D01*
X0391068Y0187265D02*
X0036600Y0187265D01*
X0036600Y0185666D02*
X0391068Y0185666D01*
X0391068Y0184068D02*
X0036600Y0184068D01*
X0036600Y0182469D02*
X0391068Y0182469D01*
X0388306Y0180870D02*
X0036600Y0180870D01*
X0036600Y0179272D02*
X0387442Y0179272D01*
X0387442Y0177673D02*
X0036600Y0177673D01*
X0036600Y0176075D02*
X0387442Y0176075D01*
X0387442Y0174476D02*
X0036600Y0174476D01*
X0036600Y0172878D02*
X0387442Y0172878D01*
X0387442Y0171279D02*
X0036600Y0171279D01*
X0036600Y0169681D02*
X0387442Y0169681D01*
X0387442Y0168082D02*
X0036600Y0168082D01*
X0036600Y0166484D02*
X0387442Y0166484D01*
X0387442Y0164885D02*
X0036600Y0164885D01*
X0036600Y0163287D02*
X0387442Y0163287D01*
X0387442Y0161688D02*
X0036600Y0161688D01*
X0036600Y0160090D02*
X0387442Y0160090D01*
X0387442Y0158491D02*
X0036600Y0158491D01*
X0036600Y0156893D02*
X0387442Y0156893D01*
X0387442Y0155294D02*
X0036600Y0155294D01*
X0036600Y0153696D02*
X0387442Y0153696D01*
X0387442Y0152097D02*
X0036600Y0152097D01*
X0036600Y0150499D02*
X0387442Y0150499D01*
X0387442Y0148900D02*
X0036600Y0148900D01*
X0142804Y0238417D02*
X0196318Y0238417D01*
X0194720Y0240015D02*
X0141205Y0240015D01*
X0139607Y0241614D02*
X0193121Y0241614D01*
X0191523Y0243212D02*
X0138008Y0243212D01*
X0136410Y0244811D02*
X0189924Y0244811D01*
X0188326Y0246409D02*
X0134811Y0246409D01*
X0133213Y0248008D02*
X0151992Y0248008D01*
X0152507Y0247493D02*
X0159313Y0247493D01*
X0160485Y0248664D01*
X0160485Y0255471D01*
X0159313Y0256643D01*
X0155578Y0256643D01*
X0147627Y0264594D01*
X0147627Y0274422D01*
X0150081Y0274422D01*
X0151253Y0275594D01*
X0151253Y0306778D01*
X0150081Y0307950D01*
X0139172Y0307950D01*
X0138001Y0306778D01*
X0138001Y0275594D01*
X0139172Y0274422D01*
X0141627Y0274422D01*
X0141627Y0262754D01*
X0142083Y0261652D01*
X0151335Y0252400D01*
X0151335Y0248664D01*
X0152507Y0247493D01*
X0151335Y0249606D02*
X0131614Y0249606D01*
X0131381Y0249957D02*
X0130209Y0251129D01*
X0130209Y0254864D01*
X0111083Y0273990D01*
X0110905Y0274422D01*
X0108172Y0274422D01*
X0107001Y0275594D01*
X0107001Y0306778D01*
X0108172Y0307950D01*
X0119081Y0307950D01*
X0120253Y0306778D01*
X0120253Y0275594D01*
X0119109Y0274450D01*
X0134452Y0259107D01*
X0138187Y0259107D01*
X0139359Y0257936D01*
X0139359Y0251129D01*
X0138187Y0249957D01*
X0131381Y0249957D01*
X0130209Y0251205D02*
X0130016Y0251205D01*
X0130209Y0252803D02*
X0129485Y0252803D01*
X0129485Y0254402D02*
X0130209Y0254402D01*
X0129073Y0256001D02*
X0128955Y0256001D01*
X0127475Y0257599D02*
X0108359Y0257599D01*
X0108359Y0257936D02*
X0108359Y0251129D01*
X0107187Y0249957D01*
X0100381Y0249957D01*
X0099209Y0251129D01*
X0099209Y0257936D01*
X0100381Y0259107D01*
X0107187Y0259107D01*
X0108359Y0257936D01*
X0108359Y0256001D02*
X0120865Y0256001D01*
X0120335Y0254402D02*
X0108359Y0254402D01*
X0108359Y0252803D02*
X0120335Y0252803D01*
X0120335Y0251205D02*
X0108359Y0251205D01*
X0099209Y0251205D02*
X0098485Y0251205D01*
X0098485Y0252803D02*
X0099209Y0252803D01*
X0099209Y0254402D02*
X0098485Y0254402D01*
X0097955Y0256001D02*
X0099209Y0256001D01*
X0099209Y0257599D02*
X0092622Y0257599D01*
X0091023Y0259198D02*
X0125876Y0259198D01*
X0124278Y0260796D02*
X0089425Y0260796D01*
X0087826Y0262395D02*
X0122679Y0262395D01*
X0121081Y0263993D02*
X0086228Y0263993D01*
X0085627Y0265592D02*
X0119482Y0265592D01*
X0117884Y0267190D02*
X0085627Y0267190D01*
X0085627Y0268789D02*
X0116285Y0268789D01*
X0114687Y0270387D02*
X0085627Y0270387D01*
X0085627Y0271986D02*
X0113088Y0271986D01*
X0111490Y0273584D02*
X0085627Y0273584D01*
X0088842Y0275183D02*
X0107412Y0275183D01*
X0107001Y0276781D02*
X0089253Y0276781D01*
X0089253Y0278380D02*
X0107001Y0278380D01*
X0107001Y0279978D02*
X0089253Y0279978D01*
X0089253Y0281577D02*
X0107001Y0281577D01*
X0107001Y0283175D02*
X0089253Y0283175D01*
X0089253Y0284774D02*
X0107001Y0284774D01*
X0107001Y0286372D02*
X0089253Y0286372D01*
X0089253Y0287971D02*
X0107001Y0287971D01*
X0107001Y0289569D02*
X0089253Y0289569D01*
X0089253Y0291168D02*
X0107001Y0291168D01*
X0107001Y0292766D02*
X0089253Y0292766D01*
X0089253Y0294365D02*
X0107001Y0294365D01*
X0107001Y0295963D02*
X0089253Y0295963D01*
X0089253Y0297562D02*
X0107001Y0297562D01*
X0107001Y0299160D02*
X0089253Y0299160D01*
X0089253Y0300759D02*
X0107001Y0300759D01*
X0107001Y0302357D02*
X0089253Y0302357D01*
X0089253Y0303956D02*
X0107001Y0303956D01*
X0107001Y0305554D02*
X0089253Y0305554D01*
X0088878Y0307153D02*
X0107376Y0307153D01*
X0119878Y0307153D02*
X0138376Y0307153D01*
X0138001Y0305554D02*
X0120253Y0305554D01*
X0120253Y0303956D02*
X0138001Y0303956D01*
X0138001Y0302357D02*
X0120253Y0302357D01*
X0120253Y0300759D02*
X0138001Y0300759D01*
X0138001Y0299160D02*
X0120253Y0299160D01*
X0120253Y0297562D02*
X0138001Y0297562D01*
X0138001Y0295963D02*
X0120253Y0295963D01*
X0120253Y0294365D02*
X0138001Y0294365D01*
X0138001Y0292766D02*
X0120253Y0292766D01*
X0120253Y0291168D02*
X0138001Y0291168D01*
X0138001Y0289569D02*
X0120253Y0289569D01*
X0120253Y0287971D02*
X0138001Y0287971D01*
X0138001Y0286372D02*
X0120253Y0286372D01*
X0120253Y0284774D02*
X0138001Y0284774D01*
X0138001Y0283175D02*
X0120253Y0283175D01*
X0120253Y0281577D02*
X0138001Y0281577D01*
X0138001Y0279978D02*
X0120253Y0279978D01*
X0120253Y0278380D02*
X0138001Y0278380D01*
X0138001Y0276781D02*
X0120253Y0276781D01*
X0119842Y0275183D02*
X0138412Y0275183D01*
X0141627Y0273584D02*
X0119975Y0273584D01*
X0121574Y0271986D02*
X0141627Y0271986D01*
X0141627Y0270387D02*
X0123172Y0270387D01*
X0124771Y0268789D02*
X0141627Y0268789D01*
X0141627Y0267190D02*
X0126369Y0267190D01*
X0127968Y0265592D02*
X0141627Y0265592D01*
X0141627Y0263993D02*
X0129566Y0263993D01*
X0131165Y0262395D02*
X0141776Y0262395D01*
X0142939Y0260796D02*
X0132763Y0260796D01*
X0134362Y0259198D02*
X0144538Y0259198D01*
X0146136Y0257599D02*
X0139359Y0257599D01*
X0139359Y0256001D02*
X0147735Y0256001D01*
X0149333Y0254402D02*
X0139359Y0254402D01*
X0139359Y0252803D02*
X0150932Y0252803D01*
X0151335Y0251205D02*
X0139359Y0251205D01*
X0149826Y0262395D02*
X0184679Y0262395D01*
X0183081Y0263993D02*
X0148228Y0263993D01*
X0147627Y0265592D02*
X0181482Y0265592D01*
X0179884Y0267190D02*
X0147627Y0267190D01*
X0147627Y0268789D02*
X0178285Y0268789D01*
X0176687Y0270387D02*
X0147627Y0270387D01*
X0147627Y0271986D02*
X0175088Y0271986D01*
X0173927Y0273146D02*
X0192209Y0254864D01*
X0192209Y0251129D01*
X0193381Y0249957D01*
X0200187Y0249957D01*
X0201359Y0251129D01*
X0201359Y0257936D01*
X0200187Y0259107D01*
X0196452Y0259107D01*
X0181109Y0274450D01*
X0182253Y0275594D01*
X0182253Y0306778D01*
X0181081Y0307950D01*
X0170172Y0307950D01*
X0169001Y0306778D01*
X0169001Y0275594D01*
X0170172Y0274422D01*
X0172905Y0274422D01*
X0173083Y0273990D01*
X0173927Y0273146D01*
X0173927Y0273146D01*
X0173490Y0273584D02*
X0147627Y0273584D01*
X0150842Y0275183D02*
X0169412Y0275183D01*
X0169001Y0276781D02*
X0151253Y0276781D01*
X0151253Y0278380D02*
X0169001Y0278380D01*
X0169001Y0279978D02*
X0151253Y0279978D01*
X0151253Y0281577D02*
X0169001Y0281577D01*
X0169001Y0283175D02*
X0151253Y0283175D01*
X0151253Y0284774D02*
X0169001Y0284774D01*
X0169001Y0286372D02*
X0151253Y0286372D01*
X0151253Y0287971D02*
X0169001Y0287971D01*
X0169001Y0289569D02*
X0151253Y0289569D01*
X0151253Y0291168D02*
X0169001Y0291168D01*
X0169001Y0292766D02*
X0151253Y0292766D01*
X0151253Y0294365D02*
X0169001Y0294365D01*
X0169001Y0295963D02*
X0151253Y0295963D01*
X0151253Y0297562D02*
X0169001Y0297562D01*
X0169001Y0299160D02*
X0151253Y0299160D01*
X0151253Y0300759D02*
X0169001Y0300759D01*
X0169001Y0302357D02*
X0151253Y0302357D01*
X0151253Y0303956D02*
X0169001Y0303956D01*
X0169001Y0305554D02*
X0151253Y0305554D01*
X0150878Y0307153D02*
X0169376Y0307153D01*
X0181878Y0307153D02*
X0200376Y0307153D01*
X0200001Y0306778D02*
X0200001Y0275594D01*
X0201172Y0274422D01*
X0203627Y0274422D01*
X0203627Y0262754D01*
X0204083Y0261652D01*
X0213335Y0252400D01*
X0213335Y0248664D01*
X0214507Y0247493D01*
X0221313Y0247493D01*
X0222485Y0248664D01*
X0222485Y0255471D01*
X0221313Y0256643D01*
X0217578Y0256643D01*
X0209627Y0264594D01*
X0209627Y0274422D01*
X0212081Y0274422D01*
X0213253Y0275594D01*
X0213253Y0306778D01*
X0212081Y0307950D01*
X0201172Y0307950D01*
X0200001Y0306778D01*
X0200001Y0305554D02*
X0182253Y0305554D01*
X0182253Y0303956D02*
X0200001Y0303956D01*
X0200001Y0302357D02*
X0182253Y0302357D01*
X0182253Y0300759D02*
X0200001Y0300759D01*
X0200001Y0299160D02*
X0182253Y0299160D01*
X0182253Y0297562D02*
X0200001Y0297562D01*
X0200001Y0295963D02*
X0182253Y0295963D01*
X0182253Y0294365D02*
X0200001Y0294365D01*
X0200001Y0292766D02*
X0182253Y0292766D01*
X0182253Y0291168D02*
X0200001Y0291168D01*
X0200001Y0289569D02*
X0182253Y0289569D01*
X0182253Y0287971D02*
X0200001Y0287971D01*
X0200001Y0286372D02*
X0182253Y0286372D01*
X0182253Y0284774D02*
X0200001Y0284774D01*
X0200001Y0283175D02*
X0182253Y0283175D01*
X0182253Y0281577D02*
X0200001Y0281577D01*
X0200001Y0279978D02*
X0182253Y0279978D01*
X0182253Y0278380D02*
X0200001Y0278380D01*
X0200001Y0276781D02*
X0182253Y0276781D01*
X0181842Y0275183D02*
X0200412Y0275183D01*
X0203627Y0273584D02*
X0181975Y0273584D01*
X0183574Y0271986D02*
X0203627Y0271986D01*
X0203627Y0270387D02*
X0185172Y0270387D01*
X0186771Y0268789D02*
X0203627Y0268789D01*
X0203627Y0267190D02*
X0188369Y0267190D01*
X0189968Y0265592D02*
X0203627Y0265592D01*
X0203627Y0263993D02*
X0191566Y0263993D01*
X0193165Y0262395D02*
X0203776Y0262395D01*
X0204939Y0260796D02*
X0194763Y0260796D01*
X0196362Y0259198D02*
X0206538Y0259198D01*
X0208136Y0257599D02*
X0201359Y0257599D01*
X0201359Y0256001D02*
X0209735Y0256001D01*
X0211333Y0254402D02*
X0201359Y0254402D01*
X0201359Y0252803D02*
X0212932Y0252803D01*
X0213335Y0251205D02*
X0201359Y0251205D01*
X0196811Y0246409D02*
X0262664Y0246409D01*
X0264263Y0244811D02*
X0198410Y0244811D01*
X0200008Y0243212D02*
X0265861Y0243212D01*
X0267068Y0241614D02*
X0201607Y0241614D01*
X0203205Y0240015D02*
X0267068Y0240015D01*
X0267068Y0238417D02*
X0204804Y0238417D01*
X0206402Y0236818D02*
X0267068Y0236818D01*
X0267068Y0235220D02*
X0208001Y0235220D01*
X0209599Y0233621D02*
X0267068Y0233621D01*
X0264458Y0232023D02*
X0213677Y0232023D01*
X0213522Y0232178D02*
X0210790Y0232178D01*
X0210611Y0232610D01*
X0191485Y0251736D01*
X0191485Y0255471D01*
X0190313Y0256643D01*
X0183507Y0256643D01*
X0182335Y0255471D01*
X0182335Y0248664D01*
X0183507Y0247493D01*
X0187242Y0247493D01*
X0202585Y0232150D01*
X0201442Y0231006D01*
X0201442Y0199822D01*
X0202613Y0198650D01*
X0213522Y0198650D01*
X0214694Y0199822D01*
X0214694Y0231006D01*
X0213522Y0232178D01*
X0214694Y0230424D02*
X0263442Y0230424D01*
X0263442Y0228826D02*
X0214694Y0228826D01*
X0214694Y0227227D02*
X0263442Y0227227D01*
X0263442Y0225629D02*
X0214694Y0225629D01*
X0214694Y0224030D02*
X0263442Y0224030D01*
X0263442Y0222432D02*
X0214694Y0222432D01*
X0214694Y0220833D02*
X0263442Y0220833D01*
X0263442Y0219235D02*
X0214694Y0219235D01*
X0214694Y0217636D02*
X0263442Y0217636D01*
X0263442Y0216038D02*
X0214694Y0216038D01*
X0214694Y0214439D02*
X0263442Y0214439D01*
X0263442Y0212841D02*
X0214694Y0212841D01*
X0214694Y0211242D02*
X0263442Y0211242D01*
X0263442Y0209644D02*
X0214694Y0209644D01*
X0214694Y0208045D02*
X0263442Y0208045D01*
X0263442Y0206447D02*
X0214694Y0206447D01*
X0214694Y0204848D02*
X0263442Y0204848D01*
X0263442Y0203250D02*
X0214694Y0203250D01*
X0214694Y0201651D02*
X0263442Y0201651D01*
X0263442Y0200053D02*
X0214694Y0200053D01*
X0201442Y0200053D02*
X0152694Y0200053D01*
X0152694Y0201651D02*
X0201442Y0201651D01*
X0201442Y0203250D02*
X0152694Y0203250D01*
X0152694Y0204848D02*
X0201442Y0204848D01*
X0201442Y0206447D02*
X0152694Y0206447D01*
X0152694Y0208045D02*
X0201442Y0208045D01*
X0201442Y0209644D02*
X0152694Y0209644D01*
X0152694Y0211242D02*
X0201442Y0211242D01*
X0201442Y0212841D02*
X0152694Y0212841D01*
X0152694Y0214439D02*
X0201442Y0214439D01*
X0201442Y0216038D02*
X0152694Y0216038D01*
X0152694Y0217636D02*
X0201442Y0217636D01*
X0201442Y0219235D02*
X0152694Y0219235D01*
X0152694Y0220833D02*
X0201442Y0220833D01*
X0201442Y0222432D02*
X0152694Y0222432D01*
X0152694Y0224030D02*
X0201442Y0224030D01*
X0201442Y0225629D02*
X0152694Y0225629D01*
X0152694Y0227227D02*
X0201442Y0227227D01*
X0201442Y0228826D02*
X0152694Y0228826D01*
X0152694Y0230424D02*
X0201442Y0230424D01*
X0202458Y0232023D02*
X0151677Y0232023D01*
X0147599Y0233621D02*
X0201114Y0233621D01*
X0199515Y0235220D02*
X0146001Y0235220D01*
X0144402Y0236818D02*
X0197917Y0236818D01*
X0195213Y0248008D02*
X0213992Y0248008D01*
X0213335Y0249606D02*
X0193614Y0249606D01*
X0192209Y0251205D02*
X0192016Y0251205D01*
X0192209Y0252803D02*
X0191485Y0252803D01*
X0191485Y0254402D02*
X0192209Y0254402D01*
X0191073Y0256001D02*
X0190955Y0256001D01*
X0189475Y0257599D02*
X0170359Y0257599D01*
X0170359Y0257936D02*
X0170359Y0251129D01*
X0169187Y0249957D01*
X0162381Y0249957D01*
X0161209Y0251129D01*
X0161209Y0257936D01*
X0162381Y0259107D01*
X0169187Y0259107D01*
X0170359Y0257936D01*
X0170359Y0256001D02*
X0182865Y0256001D01*
X0182335Y0254402D02*
X0170359Y0254402D01*
X0170359Y0252803D02*
X0182335Y0252803D01*
X0182335Y0251205D02*
X0170359Y0251205D01*
X0161209Y0251205D02*
X0160485Y0251205D01*
X0160485Y0252803D02*
X0161209Y0252803D01*
X0161209Y0254402D02*
X0160485Y0254402D01*
X0159955Y0256001D02*
X0161209Y0256001D01*
X0161209Y0257599D02*
X0154622Y0257599D01*
X0153023Y0259198D02*
X0187876Y0259198D01*
X0186278Y0260796D02*
X0151425Y0260796D01*
X0160485Y0249606D02*
X0182335Y0249606D01*
X0182992Y0248008D02*
X0159829Y0248008D01*
X0120992Y0248008D02*
X0097829Y0248008D01*
X0098485Y0249606D02*
X0120335Y0249606D01*
X0036600Y0316744D02*
X0418732Y0316744D01*
X0418732Y0318342D02*
X0036600Y0318342D01*
X0036600Y0319941D02*
X0418732Y0319941D01*
X0418732Y0321539D02*
X0036600Y0321539D01*
X0036600Y0323138D02*
X0418732Y0323138D01*
X0418732Y0324737D02*
X0036600Y0324737D01*
X0036600Y0326335D02*
X0418732Y0326335D01*
X0418732Y0327934D02*
X0036600Y0327934D01*
X0036600Y0329532D02*
X0418732Y0329532D01*
X0418732Y0331131D02*
X0036600Y0331131D01*
X0036600Y0332729D02*
X0418732Y0332729D01*
X0418732Y0334328D02*
X0036600Y0334328D01*
X0036600Y0335926D02*
X0418732Y0335926D01*
X0418732Y0337525D02*
X0036600Y0337525D01*
X0036600Y0339123D02*
X0418732Y0339123D01*
X0418732Y0340722D02*
X0036600Y0340722D01*
X0036600Y0342320D02*
X0418732Y0342320D01*
X0418732Y0343919D02*
X0411127Y0343919D01*
X0414226Y0345517D02*
X0418732Y0345517D01*
X0418732Y0347116D02*
X0415824Y0347116D01*
X0416872Y0348714D02*
X0418732Y0348714D01*
X0418732Y0350313D02*
X0417633Y0350313D01*
X0418061Y0351911D02*
X0418732Y0351911D01*
X0418732Y0353510D02*
X0418202Y0353510D01*
X0418202Y0355108D02*
X0418732Y0355108D01*
X0418732Y0356707D02*
X0417792Y0356707D01*
X0417217Y0358305D02*
X0418732Y0358305D01*
X0418732Y0359904D02*
X0416294Y0359904D01*
X0414822Y0361502D02*
X0418732Y0361502D01*
X0400746Y0361502D02*
X0054586Y0361502D01*
X0056057Y0359904D02*
X0399275Y0359904D01*
X0398352Y0358305D02*
X0056980Y0358305D01*
X0057556Y0356707D02*
X0397776Y0356707D01*
X0397367Y0355108D02*
X0057965Y0355108D01*
X0057965Y0353510D02*
X0397367Y0353510D01*
X0397508Y0351911D02*
X0057825Y0351911D01*
X0057396Y0350313D02*
X0397936Y0350313D01*
X0398696Y0348714D02*
X0056636Y0348714D01*
X0055588Y0347116D02*
X0399744Y0347116D01*
X0401343Y0345517D02*
X0053990Y0345517D01*
X0050890Y0343919D02*
X0404442Y0343919D01*
X0329068Y0241614D02*
X0273068Y0241614D01*
X0273068Y0240015D02*
X0329068Y0240015D01*
X0329068Y0238417D02*
X0273068Y0238417D01*
X0273068Y0236818D02*
X0329068Y0236818D01*
X0329068Y0235220D02*
X0273068Y0235220D01*
X0273068Y0233621D02*
X0329068Y0233621D01*
X0326458Y0232023D02*
X0275677Y0232023D01*
X0276694Y0230424D02*
X0325442Y0230424D01*
X0325442Y0228826D02*
X0276694Y0228826D01*
X0276694Y0227227D02*
X0325442Y0227227D01*
X0325442Y0225629D02*
X0276694Y0225629D01*
X0276694Y0224030D02*
X0325442Y0224030D01*
X0325442Y0222432D02*
X0276694Y0222432D01*
X0276694Y0220833D02*
X0325442Y0220833D01*
X0325442Y0219235D02*
X0276694Y0219235D01*
X0276694Y0217636D02*
X0325442Y0217636D01*
X0325442Y0216038D02*
X0276694Y0216038D01*
X0276694Y0214439D02*
X0325442Y0214439D01*
X0325442Y0212841D02*
X0276694Y0212841D01*
X0276694Y0211242D02*
X0325442Y0211242D01*
X0325442Y0209644D02*
X0276694Y0209644D01*
X0276694Y0208045D02*
X0325442Y0208045D01*
X0325442Y0206447D02*
X0276694Y0206447D01*
X0276694Y0204848D02*
X0325442Y0204848D01*
X0325442Y0203250D02*
X0276694Y0203250D01*
X0276694Y0201651D02*
X0325442Y0201651D01*
X0325442Y0200053D02*
X0276694Y0200053D01*
X0261066Y0248008D02*
X0252829Y0248008D01*
X0253485Y0249606D02*
X0259467Y0249606D01*
X0254209Y0251205D02*
X0253485Y0251205D01*
X0253485Y0252803D02*
X0254209Y0252803D01*
X0254209Y0254402D02*
X0253485Y0254402D01*
X0252955Y0256001D02*
X0254209Y0256001D01*
X0254209Y0257599D02*
X0247622Y0257599D01*
X0243932Y0252803D02*
X0232359Y0252803D01*
X0232359Y0251205D02*
X0244335Y0251205D01*
X0244335Y0249606D02*
X0222485Y0249606D01*
X0222485Y0251205D02*
X0223209Y0251205D01*
X0223209Y0252803D02*
X0222485Y0252803D01*
X0222485Y0254402D02*
X0223209Y0254402D01*
X0223209Y0256001D02*
X0221955Y0256001D01*
X0223209Y0257599D02*
X0216622Y0257599D01*
X0215023Y0259198D02*
X0224847Y0259198D01*
X0224847Y0260796D02*
X0213425Y0260796D01*
X0211826Y0262395D02*
X0224847Y0262395D01*
X0224847Y0263993D02*
X0210228Y0263993D01*
X0209627Y0265592D02*
X0224847Y0265592D01*
X0224847Y0267190D02*
X0209627Y0267190D01*
X0209627Y0268789D02*
X0224847Y0268789D01*
X0224847Y0270387D02*
X0209627Y0270387D01*
X0209627Y0271986D02*
X0224847Y0271986D01*
X0224847Y0273584D02*
X0209627Y0273584D01*
X0212842Y0275183D02*
X0224847Y0275183D01*
X0224847Y0276781D02*
X0213253Y0276781D01*
X0213253Y0278380D02*
X0224847Y0278380D01*
X0224847Y0279978D02*
X0213253Y0279978D01*
X0213253Y0281577D02*
X0224847Y0281577D01*
X0224847Y0283175D02*
X0213253Y0283175D01*
X0213253Y0284774D02*
X0224847Y0284774D01*
X0224847Y0286372D02*
X0213253Y0286372D01*
X0213253Y0287971D02*
X0224847Y0287971D01*
X0224847Y0289569D02*
X0213253Y0289569D01*
X0213253Y0291168D02*
X0224847Y0291168D01*
X0224847Y0292766D02*
X0213253Y0292766D01*
X0213253Y0294365D02*
X0224847Y0294365D01*
X0224847Y0295963D02*
X0213253Y0295963D01*
X0213253Y0297562D02*
X0224847Y0297562D01*
X0224847Y0299160D02*
X0213253Y0299160D01*
X0213253Y0300759D02*
X0224847Y0300759D01*
X0224847Y0302357D02*
X0213253Y0302357D01*
X0213253Y0303956D02*
X0224847Y0303956D01*
X0224847Y0305554D02*
X0213253Y0305554D01*
X0212878Y0307153D02*
X0224847Y0307153D01*
X0230847Y0305554D02*
X0231001Y0305554D01*
X0231001Y0303956D02*
X0230847Y0303956D01*
X0230847Y0302357D02*
X0231001Y0302357D01*
X0231001Y0300759D02*
X0230847Y0300759D01*
X0230847Y0299160D02*
X0231001Y0299160D01*
X0231001Y0297562D02*
X0230847Y0297562D01*
X0230847Y0295963D02*
X0231001Y0295963D01*
X0231001Y0294365D02*
X0230847Y0294365D01*
X0230847Y0292766D02*
X0231001Y0292766D01*
X0231001Y0291168D02*
X0230847Y0291168D01*
X0230847Y0289569D02*
X0231001Y0289569D01*
X0231001Y0287971D02*
X0230847Y0287971D01*
X0230847Y0286372D02*
X0231001Y0286372D01*
X0231001Y0284774D02*
X0230847Y0284774D01*
X0230847Y0283175D02*
X0231001Y0283175D01*
X0231001Y0281577D02*
X0230847Y0281577D01*
X0230847Y0279978D02*
X0231001Y0279978D01*
X0231001Y0278380D02*
X0230847Y0278380D01*
X0230847Y0276781D02*
X0231001Y0276781D01*
X0230847Y0275183D02*
X0231412Y0275183D01*
X0230847Y0273584D02*
X0234627Y0273584D01*
X0234627Y0271986D02*
X0230847Y0271986D01*
X0230847Y0270387D02*
X0234627Y0270387D01*
X0234627Y0268789D02*
X0230847Y0268789D01*
X0230847Y0267190D02*
X0234627Y0267190D01*
X0234627Y0265592D02*
X0230847Y0265592D01*
X0230847Y0263993D02*
X0234627Y0263993D01*
X0234776Y0262395D02*
X0230847Y0262395D01*
X0230847Y0260796D02*
X0235939Y0260796D01*
X0237538Y0259198D02*
X0230847Y0259198D01*
X0232359Y0257599D02*
X0239136Y0257599D01*
X0240735Y0256001D02*
X0232359Y0256001D01*
X0232359Y0254402D02*
X0242333Y0254402D01*
X0244992Y0248008D02*
X0221829Y0248008D01*
X0243842Y0275183D02*
X0262412Y0275183D01*
X0262001Y0276781D02*
X0244253Y0276781D01*
X0244253Y0278380D02*
X0262001Y0278380D01*
X0262001Y0279978D02*
X0244253Y0279978D01*
X0244253Y0281577D02*
X0262001Y0281577D01*
X0262001Y0283175D02*
X0244253Y0283175D01*
X0244253Y0284774D02*
X0262001Y0284774D01*
X0262001Y0286372D02*
X0244253Y0286372D01*
X0244253Y0287971D02*
X0262001Y0287971D01*
X0262001Y0289569D02*
X0244253Y0289569D01*
X0244253Y0291168D02*
X0262001Y0291168D01*
X0262001Y0292766D02*
X0244253Y0292766D01*
X0244253Y0294365D02*
X0262001Y0294365D01*
X0262001Y0295963D02*
X0244253Y0295963D01*
X0244253Y0297562D02*
X0262001Y0297562D01*
X0262001Y0299160D02*
X0244253Y0299160D01*
X0244253Y0300759D02*
X0262001Y0300759D01*
X0262001Y0302357D02*
X0244253Y0302357D01*
X0244253Y0303956D02*
X0262001Y0303956D01*
X0262001Y0305554D02*
X0244253Y0305554D01*
X0243878Y0307153D02*
X0262376Y0307153D01*
X0044206Y0343919D02*
X0036600Y0343919D01*
X0036600Y0345517D02*
X0041106Y0345517D01*
X0039508Y0347116D02*
X0036600Y0347116D01*
X0036600Y0348714D02*
X0038460Y0348714D01*
X0037700Y0350313D02*
X0036600Y0350313D01*
X0036600Y0351911D02*
X0037271Y0351911D01*
X0037131Y0353510D02*
X0036600Y0353510D01*
X0036600Y0355108D02*
X0037131Y0355108D01*
X0037540Y0356707D02*
X0036600Y0356707D01*
X0036600Y0358305D02*
X0038116Y0358305D01*
X0039039Y0359904D02*
X0036600Y0359904D01*
X0036600Y0361502D02*
X0040510Y0361502D01*
X0330280Y0057785D02*
X0349059Y0057785D01*
X0348209Y0056187D02*
X0328681Y0056187D01*
X0327083Y0054588D02*
X0348209Y0054588D01*
X0348209Y0052990D02*
X0326359Y0052990D01*
X0326359Y0051391D02*
X0348209Y0051391D01*
X0348546Y0049793D02*
X0326023Y0049793D01*
D18*
X0227580Y0157532D03*
D19*
X0031800Y0041800D02*
X0423532Y0041800D01*
X0423532Y0366603D01*
X0031800Y0366603D01*
X0031800Y0041800D01*
M02*
