G75*
%MOIN*%
%OFA0B0*%
%FSLAX25Y25*%
%IPPOS*%
%LPD*%
%AMOC8*
5,1,8,0,0,1.08239X$1,22.5*
%
%ADD10C,0.00500*%
D10*
X0124520Y0107011D02*
X0124520Y0112515D01*
X0126354Y0112515D02*
X0122685Y0112515D01*
X0128209Y0112515D02*
X0128209Y0107928D01*
X0129127Y0107011D01*
X0130962Y0107011D01*
X0131879Y0107928D01*
X0131879Y0112515D01*
X0133734Y0111598D02*
X0134652Y0112515D01*
X0136486Y0112515D01*
X0137404Y0111598D01*
X0137404Y0107928D01*
X0136486Y0107011D01*
X0134652Y0107011D01*
X0133734Y0107928D01*
X0133734Y0111598D01*
X0139259Y0109763D02*
X0142929Y0109763D01*
X0144784Y0109763D02*
X0145701Y0108846D01*
X0148453Y0108846D01*
X0146618Y0108846D02*
X0144784Y0107011D01*
X0144784Y0109763D02*
X0144784Y0111598D01*
X0145701Y0112515D01*
X0148453Y0112515D01*
X0148453Y0107011D01*
X0150308Y0107011D02*
X0152143Y0108846D01*
X0153978Y0107011D01*
X0153978Y0112515D01*
X0155833Y0111598D02*
X0155833Y0109763D01*
X0156750Y0108846D01*
X0159503Y0108846D01*
X0159503Y0107011D02*
X0159503Y0112515D01*
X0156750Y0112515D01*
X0155833Y0111598D01*
X0150308Y0112515D02*
X0150308Y0107011D01*
X0173821Y0108262D02*
X0179326Y0108262D01*
X0179326Y0105510D01*
X0178409Y0104592D01*
X0176574Y0104592D01*
X0175656Y0105510D01*
X0175656Y0108262D01*
X0176574Y0110117D02*
X0175656Y0111035D01*
X0175656Y0113787D01*
X0179326Y0113787D01*
X0179326Y0115642D02*
X0179326Y0116559D01*
X0175656Y0116559D01*
X0175656Y0115642D02*
X0175656Y0117477D01*
X0176574Y0119325D02*
X0175656Y0120242D01*
X0175656Y0122077D01*
X0176574Y0122995D01*
X0177491Y0122995D01*
X0178409Y0122077D01*
X0178409Y0120242D01*
X0179326Y0119325D01*
X0180244Y0119325D01*
X0181161Y0120242D01*
X0181161Y0122077D01*
X0180244Y0122995D01*
X0179326Y0125767D02*
X0179326Y0127602D01*
X0178409Y0128520D01*
X0175656Y0128520D01*
X0175656Y0125767D01*
X0176574Y0124850D01*
X0177491Y0125767D01*
X0177491Y0128520D01*
X0179326Y0130374D02*
X0179326Y0132209D01*
X0180244Y0131292D02*
X0176574Y0131292D01*
X0175656Y0132209D01*
X0175656Y0134058D02*
X0176574Y0134058D01*
X0176574Y0134975D01*
X0175656Y0134975D01*
X0175656Y0134058D01*
X0178409Y0134058D02*
X0179326Y0134058D01*
X0179326Y0134975D01*
X0178409Y0134975D01*
X0178409Y0134058D01*
X0171318Y0133738D02*
X0170401Y0132821D01*
X0169484Y0132821D01*
X0168566Y0133738D01*
X0168566Y0135573D01*
X0167649Y0136490D01*
X0166731Y0136490D01*
X0165814Y0135573D01*
X0165814Y0133738D01*
X0166731Y0132821D01*
X0171318Y0133738D02*
X0171318Y0135573D01*
X0170401Y0136490D01*
X0168566Y0138345D02*
X0169484Y0139263D01*
X0169484Y0141098D01*
X0168566Y0142015D01*
X0167649Y0142015D01*
X0167649Y0138345D01*
X0168566Y0138345D02*
X0166731Y0138345D01*
X0165814Y0139263D01*
X0165814Y0141098D01*
X0165814Y0143870D02*
X0165814Y0146622D01*
X0166731Y0147540D01*
X0168566Y0147540D01*
X0169484Y0146622D01*
X0169484Y0143870D01*
X0163979Y0143870D01*
X0161476Y0147966D02*
X0155971Y0147966D01*
X0157806Y0147966D02*
X0157806Y0150719D01*
X0158724Y0151636D01*
X0160559Y0151636D01*
X0161476Y0150719D01*
X0161476Y0147966D01*
X0157806Y0149801D02*
X0155971Y0151636D01*
X0156889Y0153491D02*
X0155971Y0154408D01*
X0155971Y0157161D01*
X0155054Y0157161D02*
X0154136Y0156243D01*
X0154136Y0155326D01*
X0155054Y0157161D02*
X0159641Y0157161D01*
X0159641Y0159933D02*
X0159641Y0161768D01*
X0158724Y0162685D01*
X0155971Y0162685D01*
X0155971Y0159933D01*
X0156889Y0159016D01*
X0157806Y0159933D01*
X0157806Y0162685D01*
X0155971Y0164540D02*
X0159641Y0164540D01*
X0159641Y0167293D01*
X0158724Y0168210D01*
X0155971Y0168210D01*
X0165814Y0166880D02*
X0166731Y0167797D01*
X0168566Y0167797D01*
X0169484Y0166880D01*
X0169484Y0164127D01*
X0171318Y0164127D02*
X0165814Y0164127D01*
X0165814Y0166880D01*
X0166731Y0169652D02*
X0165814Y0170569D01*
X0165814Y0172404D01*
X0167649Y0173322D02*
X0167649Y0169652D01*
X0168566Y0169652D02*
X0169484Y0170569D01*
X0169484Y0172404D01*
X0168566Y0173322D01*
X0167649Y0173322D01*
X0167649Y0175177D02*
X0169484Y0177012D01*
X0169484Y0177929D01*
X0169484Y0175177D02*
X0165814Y0175177D01*
X0161476Y0175590D02*
X0161476Y0177425D01*
X0161476Y0176507D02*
X0155971Y0176507D01*
X0155971Y0175590D02*
X0155971Y0177425D01*
X0155971Y0179273D02*
X0155971Y0182943D01*
X0156889Y0184798D02*
X0157806Y0185715D01*
X0157806Y0188467D01*
X0158724Y0188467D02*
X0155971Y0188467D01*
X0155971Y0185715D01*
X0156889Y0184798D01*
X0159641Y0185715D02*
X0159641Y0187550D01*
X0158724Y0188467D01*
X0159641Y0190322D02*
X0159641Y0193075D01*
X0158724Y0193992D01*
X0155971Y0193992D01*
X0156889Y0196765D02*
X0155971Y0197682D01*
X0156889Y0196765D02*
X0160559Y0196765D01*
X0159641Y0197682D02*
X0159641Y0195847D01*
X0159641Y0190322D02*
X0155971Y0190322D01*
X0159641Y0182943D02*
X0155971Y0179273D01*
X0159641Y0179273D02*
X0159641Y0182943D01*
X0165814Y0185305D02*
X0165814Y0188975D01*
X0166731Y0190830D02*
X0165814Y0191748D01*
X0165814Y0193582D01*
X0166731Y0194500D01*
X0170401Y0194500D01*
X0166731Y0190830D01*
X0170401Y0190830D01*
X0171318Y0191748D01*
X0171318Y0193582D01*
X0170401Y0194500D01*
X0169484Y0196355D02*
X0171318Y0198190D01*
X0165814Y0198190D01*
X0165814Y0196355D02*
X0165814Y0200025D01*
X0166731Y0201880D02*
X0165814Y0202797D01*
X0165814Y0204632D01*
X0166731Y0205549D01*
X0167649Y0205549D01*
X0168566Y0204632D01*
X0168566Y0201880D01*
X0166731Y0201880D01*
X0168566Y0201880D02*
X0170401Y0203714D01*
X0171318Y0205549D01*
X0175656Y0204955D02*
X0175656Y0207707D01*
X0178409Y0207707D01*
X0179326Y0206790D01*
X0179326Y0204955D01*
X0177491Y0204955D02*
X0177491Y0207707D01*
X0175656Y0209562D02*
X0179326Y0209562D01*
X0179326Y0212314D01*
X0178409Y0213232D01*
X0175656Y0213232D01*
X0176574Y0215087D02*
X0178409Y0215087D01*
X0179326Y0216004D01*
X0179326Y0217839D01*
X0178409Y0218757D01*
X0177491Y0218757D01*
X0177491Y0215087D01*
X0176574Y0215087D02*
X0175656Y0216004D01*
X0175656Y0217839D01*
X0175656Y0220611D02*
X0175656Y0222446D01*
X0175656Y0221529D02*
X0181161Y0221529D01*
X0181161Y0220611D01*
X0181161Y0229819D02*
X0177491Y0229819D01*
X0175656Y0231654D01*
X0177491Y0233489D01*
X0181161Y0233489D01*
X0178409Y0235344D02*
X0178409Y0239014D01*
X0181161Y0238096D02*
X0175656Y0238096D01*
X0178409Y0235344D02*
X0181161Y0238096D01*
X0177491Y0204955D02*
X0176574Y0204037D01*
X0175656Y0204955D01*
X0178409Y0202182D02*
X0177491Y0201265D01*
X0177491Y0198513D01*
X0175656Y0198513D02*
X0181161Y0198513D01*
X0181161Y0201265D01*
X0180244Y0202182D01*
X0178409Y0202182D01*
X0179326Y0191136D02*
X0179326Y0190219D01*
X0177491Y0188384D01*
X0175656Y0188384D02*
X0179326Y0188384D01*
X0178409Y0186529D02*
X0175656Y0186529D01*
X0175656Y0183777D01*
X0176574Y0182859D01*
X0177491Y0183777D01*
X0177491Y0186529D01*
X0178409Y0186529D02*
X0179326Y0185612D01*
X0179326Y0183777D01*
X0181161Y0180094D02*
X0175656Y0180094D01*
X0175656Y0181011D02*
X0175656Y0179176D01*
X0176574Y0177321D02*
X0178409Y0177321D01*
X0179326Y0176404D01*
X0179326Y0174569D01*
X0178409Y0173651D01*
X0176574Y0173651D01*
X0175656Y0174569D01*
X0175656Y0176404D01*
X0176574Y0177321D01*
X0181161Y0179176D02*
X0181161Y0180094D01*
X0180244Y0171796D02*
X0181161Y0170879D01*
X0181161Y0169044D01*
X0180244Y0168127D01*
X0179326Y0168127D01*
X0178409Y0169044D01*
X0178409Y0170879D01*
X0177491Y0171796D01*
X0176574Y0171796D01*
X0175656Y0170879D01*
X0175656Y0169044D01*
X0176574Y0168127D01*
X0177491Y0160747D02*
X0177491Y0157077D01*
X0176574Y0157077D02*
X0178409Y0157077D01*
X0179326Y0157995D01*
X0179326Y0159830D01*
X0178409Y0160747D01*
X0177491Y0160747D01*
X0175656Y0159830D02*
X0175656Y0157995D01*
X0176574Y0157077D01*
X0175656Y0155222D02*
X0175656Y0152470D01*
X0176574Y0151553D01*
X0178409Y0151553D01*
X0179326Y0152470D01*
X0179326Y0155222D01*
X0181161Y0155222D02*
X0175656Y0155222D01*
X0169484Y0155830D02*
X0169484Y0153995D01*
X0168566Y0153078D01*
X0166731Y0153078D01*
X0165814Y0153995D01*
X0165814Y0155830D01*
X0167649Y0156748D02*
X0167649Y0153078D01*
X0169484Y0151230D02*
X0169484Y0149395D01*
X0170401Y0150312D02*
X0166731Y0150312D01*
X0165814Y0151230D01*
X0167649Y0156748D02*
X0168566Y0156748D01*
X0169484Y0155830D01*
X0169484Y0158603D02*
X0169484Y0159520D01*
X0168566Y0160438D01*
X0169484Y0161355D01*
X0168566Y0162272D01*
X0165814Y0162272D01*
X0165814Y0160438D02*
X0168566Y0160438D01*
X0169484Y0158603D02*
X0165814Y0158603D01*
X0159641Y0153491D02*
X0156889Y0153491D01*
X0175656Y0149704D02*
X0175656Y0147869D01*
X0175656Y0148787D02*
X0179326Y0148787D01*
X0179326Y0147869D01*
X0181161Y0148787D02*
X0182078Y0148787D01*
X0180244Y0146014D02*
X0181161Y0145097D01*
X0181161Y0143262D01*
X0180244Y0142345D01*
X0179326Y0142345D01*
X0178409Y0143262D01*
X0178409Y0145097D01*
X0177491Y0146014D01*
X0176574Y0146014D01*
X0175656Y0145097D01*
X0175656Y0143262D01*
X0176574Y0142345D01*
X0193373Y0144504D02*
X0194290Y0143586D01*
X0193373Y0144504D02*
X0193373Y0146338D01*
X0194290Y0147256D01*
X0195208Y0147256D01*
X0196125Y0146338D01*
X0196125Y0144504D01*
X0197043Y0143586D01*
X0197960Y0143586D01*
X0198878Y0144504D01*
X0198878Y0146338D01*
X0197960Y0147256D01*
X0198878Y0149111D02*
X0198878Y0151863D01*
X0197960Y0152781D01*
X0194290Y0152781D01*
X0193373Y0151863D01*
X0193373Y0149111D01*
X0198878Y0149111D01*
X0197043Y0154636D02*
X0193373Y0154636D01*
X0196125Y0154636D02*
X0196125Y0158305D01*
X0197043Y0158305D02*
X0193373Y0158305D01*
X0197043Y0158305D02*
X0198878Y0156470D01*
X0197043Y0154636D01*
X0215650Y0141125D02*
X0215650Y0137456D01*
X0216567Y0136538D01*
X0219319Y0136538D01*
X0219319Y0142043D01*
X0216567Y0142043D01*
X0215650Y0141125D01*
X0221174Y0142043D02*
X0221174Y0136538D01*
X0224844Y0142043D01*
X0224844Y0136538D01*
X0226699Y0137456D02*
X0226699Y0139291D01*
X0228534Y0139291D01*
X0230369Y0141125D02*
X0230369Y0137456D01*
X0229451Y0136538D01*
X0227617Y0136538D01*
X0226699Y0137456D01*
X0226699Y0141125D02*
X0227617Y0142043D01*
X0229451Y0142043D01*
X0230369Y0141125D01*
X0208720Y0131013D02*
X0203215Y0131013D01*
X0203215Y0134683D01*
X0204133Y0129159D02*
X0203215Y0128241D01*
X0203215Y0126406D01*
X0204133Y0125489D01*
X0207803Y0125489D01*
X0208720Y0126406D01*
X0208720Y0128241D01*
X0207803Y0129159D01*
X0207803Y0123634D02*
X0208720Y0122716D01*
X0208720Y0120881D01*
X0207803Y0119964D01*
X0206885Y0119964D01*
X0205968Y0120881D01*
X0205968Y0122716D01*
X0205050Y0123634D01*
X0204133Y0123634D01*
X0203215Y0122716D01*
X0203215Y0120881D01*
X0204133Y0119964D01*
X0214507Y0118326D02*
X0218177Y0118326D01*
X0216342Y0118326D02*
X0216342Y0112822D01*
X0220032Y0113739D02*
X0220032Y0118326D01*
X0223702Y0118326D02*
X0223702Y0113739D01*
X0222784Y0112822D01*
X0220949Y0112822D01*
X0220032Y0113739D01*
X0225557Y0113739D02*
X0225557Y0117409D01*
X0226474Y0118326D01*
X0228309Y0118326D01*
X0229227Y0117409D01*
X0229227Y0113739D01*
X0228309Y0112822D01*
X0226474Y0112822D01*
X0225557Y0113739D01*
X0231081Y0115574D02*
X0234751Y0115574D01*
X0236606Y0113739D02*
X0236606Y0117409D01*
X0237524Y0118326D01*
X0240276Y0118326D01*
X0240276Y0112822D01*
X0237524Y0112822D01*
X0236606Y0113739D01*
X0242131Y0115574D02*
X0242131Y0117409D01*
X0243048Y0118326D01*
X0245801Y0118326D01*
X0245801Y0112822D01*
X0245801Y0114657D02*
X0243048Y0114657D01*
X0242131Y0115574D01*
X0241396Y0094799D02*
X0240479Y0093881D01*
X0240479Y0092964D01*
X0241396Y0092046D01*
X0240479Y0091129D01*
X0240479Y0090212D01*
X0241396Y0089294D01*
X0243231Y0089294D01*
X0244148Y0090212D01*
X0242314Y0092046D02*
X0241396Y0092046D01*
X0241396Y0094799D02*
X0243231Y0094799D01*
X0244148Y0093881D01*
X0238624Y0094799D02*
X0238624Y0091129D01*
X0236789Y0089294D01*
X0234954Y0091129D01*
X0234954Y0094799D01*
X0233099Y0093881D02*
X0232182Y0094799D01*
X0230347Y0094799D01*
X0229429Y0093881D01*
X0229429Y0092964D01*
X0230347Y0092046D01*
X0229429Y0091129D01*
X0229429Y0090212D01*
X0230347Y0089294D01*
X0232182Y0089294D01*
X0233099Y0090212D01*
X0231264Y0092046D02*
X0230347Y0092046D01*
X0181161Y0099068D02*
X0175656Y0099068D01*
X0175656Y0102737D01*
X0178409Y0100903D02*
X0178409Y0099068D01*
X0181161Y0099068D02*
X0181161Y0102737D01*
X0179326Y0110117D02*
X0176574Y0110117D01*
X0181161Y0116559D02*
X0182078Y0116559D01*
X0168566Y0169652D02*
X0166731Y0169652D01*
X0165814Y0185305D02*
X0169484Y0188975D01*
X0170401Y0188975D01*
X0171318Y0188058D01*
X0171318Y0186223D01*
X0170401Y0185305D01*
M02*
