%
M48
M72
T01C0.02362
T02C0.02992
T03C0.03150
T04C0.05906
T05C0.06299
T06C0.12835
%
T01
X93729Y65383
X111997Y77272
X129005Y64280
X114044Y55343
X134162Y122509
X150501Y130894
X133493Y143887
X148454Y152824
X168769Y142784
X134831Y176209
X119871Y167272
X99556Y177312
X117824Y189202
X134635Y225461
X122745Y243729
X135737Y260737
X144674Y245776
X164202Y261839
X155265Y276800
X177194Y278847
X199280Y290973
X212272Y307981
X221209Y293020
X211170Y272706
X240737Y304989
X231800Y319950
X253729Y321997
X241839Y340265
X288847Y298217
X297784Y283257
X275855Y281209
X287745Y262942
X283178Y219871
X295068Y201603
X282076Y184595
X273139Y199556
X253965Y174438
X262902Y159477
X240973Y157430
X252863Y139162
X232587Y108729
X223099Y79713
X208139Y70776
X225146Y57784
X243414Y69674
X284753Y98296
X303020Y110186
X320028Y97194
X305068Y88257
X320343Y68532
X335304Y77469
X355619Y67430
X337351Y55540
X403611Y91997
X391721Y110265
X404713Y127272
X413650Y112312
X337430Y165540
X328493Y180501
X315501Y163493
X327391Y145225
X355461Y200343
X346524Y215304
X368454Y217351
X388139Y223178
X397076Y208217
X410068Y225225
X398178Y243493
X356564Y235619
X379005Y280501
X361997Y293493
X376957Y302430
X397272Y292391
X355586Y327378
X338822Y322617
X321798Y337572
X342520Y344329
X206682Y231839
X218572Y213572
X205580Y196564
X196643Y211524
X161721Y205186
X87745Y261603
X78808Y276564
X100737Y278611
X88847Y296879
X119241Y333650
X102233Y346643
X117194Y355580
X137509Y345540
X165304Y297115
X67194Y236170
X58257Y251131
X45265Y234123
X57154Y215855
X51721Y166879
X63611Y148611
X50619Y131603
X41682Y146564
T02
X79713Y168335
X66131Y196013
X42745Y186721
X143611Y205619
X197706Y251682
X220146Y252863
X274202Y239713
X296721Y243099
X347587Y255461
X389202Y263335
X417115Y301367
X300308Y334038
X232863Y360107
X157351Y354517
X156328Y316957
X79871Y316721
X188611Y151761
X261839Y119320
X264910Y89320
X263257Y78650
X336367Y125383
X375461Y76406
X412587Y72154
X73887Y56406
T03
X192611Y103650
X201643Y94623
X210674Y103650
X201643Y112678
T04
X169595Y108729
T05
X193217Y138257
X206997Y144162
X224713Y128414
X250304Y112666
X250304Y98887
T06
X47548Y54595
X47548Y353808
X407784Y353808
X407784Y54595
M30
