G75*
%MOIN*%
%OFA0B0*%
%FSLAX25Y25*%
%IPPOS*%
%LPD*%
%AMOC8*
5,1,8,0,0,1.08239X$1,22.5*
%
%ADD10R,0.03150X0.04724*%
%ADD11R,0.04724X0.03150*%
%ADD12R,0.05118X0.05906*%
%ADD13C,0.05150*%
%ADD14R,0.08661X0.02362*%
%ADD15R,0.03937X0.04331*%
%ADD16R,0.02362X0.04724*%
%ADD17R,0.09000X0.09000*%
%ADD18C,0.01200*%
%ADD19C,0.03600*%
%ADD20C,0.03569*%
%ADD21C,0.01000*%
%ADD22C,0.04000*%
%ADD23C,0.00800*%
%ADD24OC8,0.16500*%
%ADD25C,0.01600*%
%ADD26C,0.03175*%
%ADD27R,0.14000X0.14000*%
%ADD28R,0.03600X0.03600*%
%ADD29C,0.02000*%
D10*
X0072186Y0055737D03*
X0079272Y0055737D03*
X0108020Y0057603D03*
X0115107Y0057603D03*
X0171674Y0142312D03*
X0178761Y0142312D03*
X0178761Y0155312D03*
X0171674Y0155312D03*
X0171674Y0165312D03*
X0178761Y0165312D03*
X0178674Y0172312D03*
X0185761Y0172312D03*
X0159891Y0159590D03*
X0152805Y0159590D03*
X0127761Y0189312D03*
X0120674Y0189312D03*
X0105761Y0228312D03*
X0098674Y0228312D03*
X0065753Y0148548D03*
X0058666Y0148548D03*
X0222674Y0053312D03*
X0229761Y0053312D03*
D11*
X0216117Y0110069D03*
X0216117Y0117155D03*
X0225249Y0121312D03*
X0225249Y0128398D03*
X0224910Y0136887D03*
X0224910Y0143973D03*
X0214217Y0151769D03*
X0214217Y0158855D03*
X0224217Y0205769D03*
X0224217Y0212855D03*
X0189217Y0214769D03*
X0189217Y0221855D03*
X0099217Y0214855D03*
X0099217Y0207769D03*
X0131217Y0106847D03*
X0131217Y0099761D03*
X0139091Y0099312D03*
X0139091Y0106398D03*
D12*
X0066910Y0139635D03*
X0059430Y0139635D03*
D13*
X0222477Y0162698D03*
X0231509Y0171725D03*
X0240540Y0162698D03*
X0231509Y0153670D03*
X0234249Y0123733D03*
X0243280Y0114706D03*
X0234249Y0105678D03*
X0225217Y0114706D03*
D14*
X0215068Y0124174D03*
X0215068Y0129174D03*
X0215068Y0134174D03*
X0215068Y0139174D03*
X0194595Y0139174D03*
X0194595Y0134174D03*
X0194595Y0129174D03*
X0194595Y0124174D03*
D15*
X0131217Y0210965D03*
X0131217Y0217658D03*
D16*
X0192477Y0167454D03*
X0199957Y0167454D03*
X0199957Y0157170D03*
X0196217Y0157170D03*
X0192477Y0157170D03*
D17*
X0148217Y0140312D03*
X0148217Y0129312D03*
X0148217Y0118312D03*
X0134217Y0140312D03*
X0132217Y0171312D03*
X0161217Y0231312D03*
X0200217Y0232312D03*
X0052186Y0189595D03*
X0039186Y0189595D03*
X0039217Y0173312D03*
X0039217Y0163312D03*
X0039217Y0153312D03*
X0039296Y0143383D03*
X0039454Y0133540D03*
X0041776Y0115170D03*
X0039918Y0088170D03*
X0048469Y0077485D03*
X0048469Y0067485D03*
X0048469Y0057485D03*
X0138233Y0063312D03*
X0139217Y0051343D03*
X0139076Y0033721D03*
X0158918Y0032942D03*
X0158076Y0051343D03*
X0158076Y0063312D03*
D18*
X0216117Y0117155D02*
X0216117Y0123124D01*
X0215068Y0124174D01*
X0215068Y0129174D01*
X0224473Y0129174D01*
X0225249Y0128398D01*
X0229583Y0128398D01*
X0234249Y0123733D01*
X0239509Y0122418D02*
X0234249Y0105678D01*
X0239509Y0122418D02*
X0231509Y0153670D01*
X0228477Y0160249D02*
X0224477Y0155540D01*
X0224910Y0143973D01*
X0219867Y0143973D01*
X0215068Y0139174D01*
X0215068Y0134174D01*
X0215068Y0129174D01*
X0194595Y0124174D02*
X0189560Y0124174D01*
X0187107Y0121721D01*
X0208808Y0158312D02*
X0214674Y0158312D01*
X0214217Y0158855D01*
X0228477Y0160249D02*
X0230509Y0172280D01*
X0231509Y0171725D01*
X0222524Y0194808D02*
X0224217Y0196501D01*
X0224217Y0205769D01*
X0224217Y0212855D02*
X0224493Y0213131D01*
X0224493Y0226304D01*
X0134926Y0226304D02*
X0134926Y0202682D01*
X0130005Y0197761D01*
X0130005Y0191556D01*
X0127761Y0189312D01*
X0109650Y0203220D02*
X0104304Y0202682D01*
X0099217Y0207769D01*
X0096706Y0207769D01*
X0078619Y0203682D01*
X0130005Y0231225D02*
X0134926Y0226304D01*
X0076162Y0063209D02*
X0072186Y0055737D01*
X0079272Y0055737D02*
X0082737Y0060485D01*
D19*
X0187107Y0121721D03*
X0208808Y0158312D03*
X0222524Y0194808D03*
X0224493Y0226304D03*
X0162485Y0223351D03*
X0130005Y0231225D03*
X0124099Y0226304D03*
X0109650Y0203220D03*
X0120162Y0183981D03*
X0078619Y0203682D03*
X0079808Y0232209D03*
D20*
X0091217Y0195312D03*
X0087217Y0176312D03*
X0126217Y0162312D03*
X0149217Y0149312D03*
X0157217Y0144312D03*
X0163217Y0142312D03*
X0160217Y0122312D03*
X0146737Y0107209D03*
X0157217Y0098312D03*
X0148217Y0092312D03*
X0148217Y0078312D03*
X0162217Y0079312D03*
X0177217Y0092312D03*
X0186217Y0072312D03*
X0196217Y0063312D03*
X0200217Y0053312D03*
X0214217Y0053312D03*
X0221217Y0037312D03*
X0210217Y0098312D03*
X0205539Y0108633D03*
X0125217Y0114312D03*
X0124217Y0096312D03*
X0115217Y0078312D03*
X0121217Y0075312D03*
X0117217Y0071312D03*
X0108713Y0072446D03*
X0104217Y0068312D03*
X0096217Y0068312D03*
X0087447Y0068398D03*
X0082737Y0060485D03*
X0076162Y0063209D03*
X0065217Y0056312D03*
X0091217Y0032312D03*
X0081217Y0025312D03*
X0119217Y0024312D03*
X0101217Y0082312D03*
X0094217Y0090312D03*
X0101217Y0095312D03*
X0072217Y0120312D03*
X0060217Y0114312D03*
X0063217Y0107312D03*
X0062217Y0089312D03*
X0034217Y0125312D03*
X0094217Y0131312D03*
X0131217Y0222312D03*
X0184217Y0223312D03*
X0230217Y0222312D03*
D21*
X0194617Y0221462D02*
X0189217Y0221462D01*
X0189217Y0221855D01*
X0154567Y0179162D02*
X0154567Y0161162D01*
X0153217Y0159812D01*
X0152805Y0159590D01*
X0152767Y0159362D01*
X0142417Y0149012D01*
X0140296Y0135132D01*
X0112267Y0122162D01*
X0112267Y0091862D01*
X0108667Y0095462D02*
X0108667Y0125612D01*
X0142867Y0159812D01*
X0142867Y0176462D01*
X0132067Y0178712D02*
X0132067Y0171512D01*
X0132217Y0171312D01*
X0132067Y0178712D02*
X0129817Y0180962D01*
X0159891Y0159590D02*
X0159967Y0159362D01*
X0160867Y0159362D01*
X0173917Y0146312D01*
X0180667Y0146312D01*
X0188767Y0138212D01*
X0188767Y0137312D01*
X0191467Y0134612D01*
X0194167Y0134612D01*
X0194595Y0134174D01*
X0194617Y0133712D01*
X0194617Y0129662D01*
X0194595Y0129174D01*
X0194617Y0128762D01*
X0194617Y0124712D01*
X0194595Y0124174D01*
X0196417Y0118412D02*
X0200467Y0122462D01*
X0200467Y0135962D01*
X0197317Y0139112D01*
X0194617Y0139112D01*
X0194595Y0139174D01*
X0178867Y0142262D02*
X0178867Y0135962D01*
X0178867Y0142262D02*
X0178761Y0142312D01*
X0166717Y0158462D02*
X0166717Y0166562D01*
X0176167Y0176012D01*
X0182017Y0176012D01*
X0185617Y0172412D01*
X0185761Y0172312D01*
X0186067Y0171962D01*
X0193717Y0171962D01*
X0195067Y0170612D01*
X0195067Y0166112D01*
X0199567Y0161612D01*
X0199567Y0157562D01*
X0199957Y0157170D01*
X0192477Y0167454D02*
X0192367Y0167462D01*
X0179317Y0167462D01*
X0178761Y0165312D01*
X0178867Y0165662D01*
X0178867Y0171962D01*
X0178674Y0172312D01*
X0224910Y0136887D02*
X0225217Y0136862D01*
X0224910Y0136887D01*
X0239509Y0122418D02*
X0231067Y0108062D01*
X0230167Y0107162D01*
X0213967Y0107162D01*
X0213167Y0106362D01*
X0192367Y0085562D01*
X0191917Y0085562D01*
X0190117Y0087362D01*
X0106417Y0087362D01*
X0105067Y0083762D02*
X0173467Y0083762D01*
X0180217Y0077012D01*
X0193717Y0077012D01*
X0195967Y0079262D01*
X0195967Y0084212D01*
X0218467Y0084212D01*
X0224392Y0090137D01*
X0243217Y0108962D01*
X0243217Y0114362D01*
X0243280Y0114706D01*
X0196417Y0118412D02*
X0165817Y0118412D01*
X0159517Y0112112D01*
X0143317Y0112112D01*
X0136567Y0118862D01*
X0133517Y0123862D01*
X0129917Y0118262D02*
X0135217Y0108962D01*
X0135217Y0097262D01*
X0139267Y0093212D01*
X0144667Y0097712D02*
X0144667Y0105362D01*
X0144217Y0105362D01*
X0143317Y0106262D01*
X0139267Y0106262D01*
X0139091Y0106398D01*
X0144667Y0105362D02*
X0146467Y0107162D01*
X0146737Y0107209D01*
X0131217Y0099761D02*
X0131167Y0099512D01*
X0129592Y0097937D01*
X0128317Y0093662D01*
X0121267Y0080162D02*
X0141067Y0080162D01*
X0157717Y0063512D01*
X0158076Y0063312D01*
X0138233Y0063312D02*
X0137917Y0063512D01*
X0129367Y0072062D01*
X0117217Y0071312D02*
X0117217Y0071162D01*
X0115417Y0069362D01*
X0115417Y0057662D01*
X0115107Y0057603D01*
X0111967Y0050262D02*
X0122617Y0052262D01*
X0125317Y0049562D01*
X0138367Y0049562D01*
X0139217Y0051343D01*
X0138817Y0050912D01*
X0138817Y0044612D01*
X0144217Y0039662D02*
X0149167Y0034712D01*
X0149167Y0032912D01*
X0158617Y0032912D01*
X0158918Y0032942D01*
X0144217Y0039662D02*
X0122617Y0039662D01*
X0108017Y0046262D01*
X0090667Y0057212D02*
X0080317Y0046862D01*
X0090667Y0057212D02*
X0090667Y0081962D01*
X0096517Y0082412D02*
X0045667Y0133262D01*
X0039817Y0133262D01*
X0039454Y0133540D01*
X0053767Y0140012D02*
X0040717Y0153062D01*
X0039367Y0153062D01*
X0039217Y0153312D01*
X0053767Y0140012D02*
X0059167Y0140012D01*
X0059430Y0139635D01*
X0065917Y0140912D02*
X0065917Y0148112D01*
X0065753Y0148548D01*
X0065917Y0140912D02*
X0066817Y0140012D01*
X0066910Y0139635D01*
X0067267Y0139562D01*
X0081217Y0125612D01*
X0074017Y0114812D02*
X0069067Y0114812D01*
X0074017Y0114812D02*
X0105067Y0083762D01*
X0133417Y0033362D02*
X0138817Y0033362D01*
X0139076Y0033721D01*
X0192367Y0080612D02*
X0192367Y0085562D01*
X0077167Y0142712D02*
X0077167Y0191762D01*
X0075767Y0196362D01*
X0099217Y0214855D02*
X0099217Y0219662D01*
X0101872Y0220316D01*
X0099217Y0219662D02*
X0099217Y0227762D01*
X0098767Y0228212D01*
X0098674Y0228312D01*
X0105761Y0228312D02*
X0105967Y0228212D01*
X0111367Y0222812D01*
D22*
X0111367Y0222812D03*
X0101872Y0220316D03*
X0075767Y0196362D03*
X0077167Y0142712D03*
X0081217Y0125612D03*
X0069067Y0114812D03*
X0090667Y0081962D03*
X0096517Y0082412D03*
X0106417Y0087362D03*
X0112267Y0091862D03*
X0108667Y0095462D03*
X0128317Y0093662D03*
X0139267Y0093212D03*
X0144667Y0097712D03*
X0129917Y0118262D03*
X0133517Y0123862D03*
X0166717Y0158462D03*
X0182917Y0159812D03*
X0178867Y0135962D03*
X0154567Y0179162D03*
X0142867Y0176462D03*
X0129817Y0180962D03*
X0194617Y0221462D03*
X0198217Y0197162D03*
X0195967Y0084212D03*
X0192367Y0080612D03*
X0121267Y0080162D03*
X0111967Y0050262D03*
X0108017Y0046262D03*
X0080317Y0046862D03*
D23*
X0082217Y0051312D02*
X0087217Y0058312D01*
X0087447Y0068398D01*
X0096217Y0068312D02*
X0096217Y0037312D01*
X0091217Y0032312D01*
X0082217Y0051312D02*
X0068217Y0051312D01*
X0065217Y0056312D01*
X0062217Y0089312D02*
X0063217Y0090312D01*
X0063217Y0107312D01*
X0060217Y0110312D01*
X0060217Y0114312D01*
X0072217Y0120312D02*
X0097217Y0095312D01*
X0101217Y0095312D01*
X0094217Y0090312D02*
X0101217Y0082312D01*
X0108713Y0072446D02*
X0109217Y0066312D01*
X0108217Y0065312D01*
X0109217Y0065312D01*
X0113217Y0064312D02*
X0114217Y0064312D01*
X0115217Y0063312D01*
X0115217Y0057862D01*
X0115417Y0057662D01*
X0120722Y0053938D02*
X0107844Y0053938D01*
X0106217Y0052312D01*
X0102217Y0056312D01*
X0102217Y0066312D01*
X0104217Y0068312D01*
X0115217Y0073312D02*
X0115217Y0078312D01*
X0115217Y0073312D02*
X0117217Y0071312D01*
X0121217Y0075312D02*
X0124467Y0072062D01*
X0129367Y0072062D01*
X0124217Y0057312D02*
X0121217Y0054312D01*
X0121095Y0054312D01*
X0120722Y0053938D01*
X0124217Y0057312D02*
X0147217Y0057312D01*
X0153186Y0051343D01*
X0158076Y0051343D01*
X0133417Y0033362D02*
X0124367Y0024312D01*
X0119217Y0024312D01*
X0148217Y0078312D02*
X0149217Y0079312D01*
X0162217Y0079312D01*
X0148217Y0092312D02*
X0154217Y0098312D01*
X0157217Y0098312D01*
X0151217Y0101312D02*
X0148451Y0097160D01*
X0147217Y0095312D01*
X0145217Y0093312D01*
X0144217Y0093312D01*
X0143217Y0094312D01*
X0143217Y0095186D01*
X0139091Y0099312D01*
X0144217Y0093312D02*
X0144217Y0089312D01*
X0136217Y0089312D01*
X0132217Y0093312D01*
X0132217Y0095312D01*
X0129592Y0097937D01*
X0126217Y0099312D02*
X0126217Y0106312D01*
X0126753Y0106847D01*
X0131217Y0106847D01*
X0126217Y0099312D02*
X0124217Y0096312D01*
X0125217Y0114312D02*
X0125217Y0120312D01*
X0135217Y0130312D01*
X0138217Y0130312D01*
X0148217Y0140312D01*
X0149217Y0149312D02*
X0152217Y0149312D01*
X0157217Y0144312D01*
X0163217Y0142312D02*
X0163217Y0125312D01*
X0160217Y0122312D01*
X0177217Y0092312D02*
X0177265Y0092265D01*
X0186217Y0072312D02*
X0191603Y0066926D01*
X0191603Y0058446D01*
X0196217Y0063312D02*
X0200217Y0063312D01*
X0200217Y0053312D01*
X0214217Y0053312D02*
X0222674Y0053312D01*
X0229217Y0052769D02*
X0229217Y0043312D01*
X0223217Y0037312D01*
X0221217Y0037312D01*
X0229217Y0052769D02*
X0229761Y0053312D01*
X0224392Y0090137D02*
X0218392Y0090137D01*
X0210217Y0098312D01*
X0207810Y0106362D02*
X0213167Y0106362D01*
X0207810Y0106362D02*
X0205539Y0108633D01*
X0126217Y0162312D02*
X0115217Y0162312D01*
X0105217Y0172312D01*
X0091217Y0172312D01*
X0087217Y0176312D01*
X0080217Y0183312D02*
X0080217Y0147312D01*
X0094217Y0133312D01*
X0094217Y0131312D01*
X0080217Y0183312D02*
X0091217Y0194312D01*
X0091217Y0195312D01*
X0131217Y0217658D02*
X0131217Y0222312D01*
X0184217Y0223312D02*
X0184217Y0224312D01*
X0195950Y0225320D01*
X0224217Y0205769D02*
X0225674Y0205769D01*
X0230217Y0210312D01*
X0230217Y0222312D01*
X0039217Y0153312D02*
X0032217Y0149312D01*
X0032217Y0128312D01*
X0034217Y0126312D01*
X0034217Y0125312D01*
D24*
X0039217Y0225812D03*
X0039217Y0023312D03*
X0241717Y0023312D03*
X0241717Y0225812D03*
D25*
X0034017Y0082808D02*
X0034017Y0018112D01*
X0249417Y0018112D01*
X0249417Y0100312D01*
X0237537Y0100312D01*
X0226492Y0089267D01*
X0219337Y0082112D01*
X0209431Y0082112D01*
X0210217Y0070312D01*
X0195217Y0070312D01*
X0194711Y0075036D01*
X0194587Y0074912D01*
X0179347Y0074912D01*
X0178117Y0076142D01*
X0172597Y0081662D01*
X0164653Y0081662D01*
X0165086Y0081229D01*
X0165602Y0079985D01*
X0165602Y0078639D01*
X0165086Y0077395D01*
X0164134Y0076443D01*
X0162890Y0075928D01*
X0161544Y0075928D01*
X0160300Y0076443D01*
X0159431Y0077312D01*
X0151466Y0077312D01*
X0151086Y0076395D01*
X0150134Y0075443D01*
X0149160Y0075039D01*
X0154787Y0069412D01*
X0163238Y0069412D01*
X0164176Y0068475D01*
X0164176Y0058149D01*
X0163354Y0057328D01*
X0164176Y0056506D01*
X0164176Y0046181D01*
X0163238Y0045243D01*
X0152913Y0045243D01*
X0151976Y0046181D01*
X0151976Y0049725D01*
X0146389Y0055312D01*
X0145317Y0055312D01*
X0145317Y0046181D01*
X0144380Y0045243D01*
X0140917Y0045243D01*
X0140917Y0043742D01*
X0139687Y0042512D01*
X0137947Y0042512D01*
X0136717Y0043742D01*
X0136717Y0045243D01*
X0134055Y0045243D01*
X0133117Y0046181D01*
X0133117Y0047462D01*
X0124447Y0047462D01*
X0123217Y0048692D01*
X0121916Y0049993D01*
X0115233Y0048738D01*
X0115019Y0048223D01*
X0114007Y0047210D01*
X0112683Y0046662D01*
X0112230Y0046662D01*
X0123070Y0041762D01*
X0145087Y0041762D01*
X0150037Y0036812D01*
X0151267Y0035582D01*
X0151267Y0035012D01*
X0152818Y0035012D01*
X0152818Y0038104D01*
X0153755Y0039042D01*
X0164081Y0039042D01*
X0165018Y0038104D01*
X0165018Y0027779D01*
X0164081Y0026842D01*
X0153755Y0026842D01*
X0152818Y0027779D01*
X0152818Y0030812D01*
X0148297Y0030812D01*
X0147067Y0032042D01*
X0147067Y0033842D01*
X0145176Y0035734D01*
X0145176Y0028559D01*
X0144238Y0027621D01*
X0133913Y0027621D01*
X0132976Y0028559D01*
X0132976Y0030092D01*
X0126367Y0023483D01*
X0125196Y0022312D01*
X0122003Y0022312D01*
X0121134Y0021443D01*
X0119890Y0020928D01*
X0118544Y0020928D01*
X0117300Y0021443D01*
X0116348Y0022395D01*
X0115833Y0023639D01*
X0115833Y0024985D01*
X0116348Y0026229D01*
X0117300Y0027181D01*
X0118544Y0027696D01*
X0119890Y0027696D01*
X0121134Y0027181D01*
X0122003Y0026312D01*
X0123539Y0026312D01*
X0131317Y0034090D01*
X0131317Y0034232D01*
X0132547Y0035462D01*
X0132976Y0035462D01*
X0132976Y0037562D01*
X0123000Y0037562D01*
X0122545Y0037390D01*
X0122165Y0037562D01*
X0121747Y0037562D01*
X0121403Y0037906D01*
X0109855Y0043126D01*
X0108733Y0042662D01*
X0107301Y0042662D01*
X0105978Y0043210D01*
X0104965Y0044223D01*
X0104417Y0045546D01*
X0104417Y0046978D01*
X0104965Y0048301D01*
X0105978Y0049314D01*
X0107301Y0049862D01*
X0108367Y0049862D01*
X0108367Y0050978D01*
X0108765Y0051938D01*
X0108672Y0051938D01*
X0108217Y0051483D01*
X0107046Y0050312D01*
X0105389Y0050312D01*
X0100217Y0055483D01*
X0100217Y0067140D01*
X0100833Y0067756D01*
X0100833Y0068985D01*
X0101348Y0070229D01*
X0102300Y0071181D01*
X0103544Y0071696D01*
X0104890Y0071696D01*
X0106134Y0071181D01*
X0107086Y0070229D01*
X0107602Y0068985D01*
X0107602Y0067639D01*
X0107086Y0066395D01*
X0106134Y0065443D01*
X0104890Y0064928D01*
X0104217Y0064928D01*
X0104217Y0057140D01*
X0104646Y0056712D01*
X0104646Y0057603D01*
X0108020Y0057603D01*
X0108020Y0057603D01*
X0104646Y0057603D01*
X0104646Y0060202D01*
X0104768Y0060660D01*
X0105005Y0061071D01*
X0105340Y0061406D01*
X0105751Y0061643D01*
X0106209Y0061765D01*
X0108020Y0061765D01*
X0108020Y0057603D01*
X0108021Y0057603D01*
X0108021Y0057603D01*
X0111395Y0057603D01*
X0111395Y0055938D01*
X0111932Y0055938D01*
X0111932Y0060628D01*
X0112870Y0061565D01*
X0113217Y0061565D01*
X0113217Y0062312D01*
X0112389Y0062312D01*
X0111217Y0063483D01*
X0111217Y0065140D01*
X0112389Y0066312D01*
X0113317Y0066312D01*
X0113317Y0070232D01*
X0113833Y0070747D01*
X0113833Y0071868D01*
X0113217Y0072483D01*
X0113217Y0075526D01*
X0112348Y0076395D01*
X0111833Y0077639D01*
X0111833Y0078985D01*
X0112348Y0080229D01*
X0113300Y0081181D01*
X0114462Y0081662D01*
X0104602Y0081662D01*
X0104602Y0081639D01*
X0104086Y0080395D01*
X0103134Y0079443D01*
X0101890Y0078928D01*
X0100544Y0078928D01*
X0099300Y0079443D01*
X0098970Y0079773D01*
X0098557Y0079360D01*
X0097233Y0078812D01*
X0095801Y0078812D01*
X0094478Y0079360D01*
X0093777Y0080061D01*
X0093719Y0079923D01*
X0092767Y0078971D01*
X0092767Y0056342D01*
X0083917Y0047492D01*
X0083917Y0046146D01*
X0083369Y0044823D01*
X0082357Y0043810D01*
X0081033Y0043262D01*
X0079601Y0043262D01*
X0078278Y0043810D01*
X0077265Y0044823D01*
X0076717Y0046146D01*
X0076717Y0047578D01*
X0077265Y0048901D01*
X0077676Y0049312D01*
X0068771Y0049312D01*
X0068536Y0049171D01*
X0067971Y0049312D01*
X0067389Y0049312D01*
X0067195Y0049506D01*
X0066929Y0049572D01*
X0066629Y0050072D01*
X0066217Y0050483D01*
X0066217Y0050758D01*
X0064916Y0052928D01*
X0064544Y0052928D01*
X0063300Y0053443D01*
X0062348Y0054395D01*
X0061833Y0055639D01*
X0061833Y0056985D01*
X0062348Y0058229D01*
X0063300Y0059181D01*
X0064544Y0059696D01*
X0065890Y0059696D01*
X0067134Y0059181D01*
X0068086Y0058229D01*
X0068602Y0056985D01*
X0068602Y0055639D01*
X0068337Y0055000D01*
X0068811Y0054210D01*
X0068811Y0055737D01*
X0072186Y0055737D01*
X0075561Y0055737D01*
X0075561Y0058336D01*
X0075438Y0058794D01*
X0075201Y0059204D01*
X0074866Y0059540D01*
X0074455Y0059777D01*
X0073998Y0059899D01*
X0072186Y0059899D01*
X0072186Y0055737D01*
X0072186Y0055737D01*
X0075561Y0055737D01*
X0075561Y0053312D01*
X0076098Y0053312D01*
X0076098Y0058762D01*
X0077035Y0059699D01*
X0079399Y0059699D01*
X0079353Y0059812D01*
X0079353Y0061158D01*
X0079868Y0062402D01*
X0080820Y0063354D01*
X0082064Y0063869D01*
X0083410Y0063869D01*
X0084654Y0063354D01*
X0085317Y0062691D01*
X0085385Y0065675D01*
X0084578Y0066481D01*
X0084063Y0067725D01*
X0084063Y0069071D01*
X0084578Y0070315D01*
X0085530Y0071267D01*
X0086774Y0071782D01*
X0088121Y0071782D01*
X0088567Y0071597D01*
X0088567Y0078971D01*
X0087615Y0079923D01*
X0087067Y0081246D01*
X0087067Y0082678D01*
X0087615Y0084001D01*
X0088628Y0085014D01*
X0089951Y0085562D01*
X0090397Y0085562D01*
X0063226Y0112733D01*
X0063086Y0112395D01*
X0062217Y0111526D01*
X0062217Y0111140D01*
X0062661Y0110696D01*
X0063890Y0110696D01*
X0065134Y0110181D01*
X0066086Y0109229D01*
X0066602Y0107985D01*
X0066602Y0106639D01*
X0066086Y0105395D01*
X0065217Y0104526D01*
X0065217Y0090913D01*
X0065602Y0089985D01*
X0065602Y0088639D01*
X0065086Y0087395D01*
X0064134Y0086443D01*
X0062890Y0085928D01*
X0061544Y0085928D01*
X0060300Y0086443D01*
X0059348Y0087395D01*
X0058833Y0088639D01*
X0058833Y0089985D01*
X0059348Y0091229D01*
X0060300Y0092181D01*
X0061217Y0092561D01*
X0061217Y0104526D01*
X0060348Y0105395D01*
X0059833Y0106639D01*
X0059833Y0107868D01*
X0058217Y0109483D01*
X0058217Y0111526D01*
X0057348Y0112395D01*
X0056833Y0113639D01*
X0056833Y0114985D01*
X0057348Y0116229D01*
X0058300Y0117181D01*
X0058638Y0117321D01*
X0045554Y0130406D01*
X0045554Y0128377D01*
X0044616Y0127440D01*
X0036875Y0127440D01*
X0037086Y0127229D01*
X0037602Y0125985D01*
X0037602Y0124639D01*
X0037086Y0123395D01*
X0036134Y0122443D01*
X0034890Y0121928D01*
X0034017Y0121928D01*
X0034017Y0093532D01*
X0034755Y0094270D01*
X0045081Y0094270D01*
X0046018Y0093333D01*
X0046018Y0083007D01*
X0045081Y0082070D01*
X0034755Y0082070D01*
X0034017Y0082808D01*
X0034017Y0081472D02*
X0087067Y0081472D01*
X0087230Y0083070D02*
X0046018Y0083070D01*
X0046018Y0084669D02*
X0088283Y0084669D01*
X0089692Y0086267D02*
X0063710Y0086267D01*
X0065281Y0087866D02*
X0088094Y0087866D01*
X0086495Y0089464D02*
X0065602Y0089464D01*
X0065217Y0091063D02*
X0084897Y0091063D01*
X0083298Y0092661D02*
X0065217Y0092661D01*
X0065217Y0094260D02*
X0081700Y0094260D01*
X0080101Y0095858D02*
X0065217Y0095858D01*
X0065217Y0097457D02*
X0078503Y0097457D01*
X0076904Y0099055D02*
X0065217Y0099055D01*
X0065217Y0100654D02*
X0075306Y0100654D01*
X0073707Y0102252D02*
X0065217Y0102252D01*
X0065217Y0103851D02*
X0072109Y0103851D01*
X0070510Y0105449D02*
X0066109Y0105449D01*
X0066602Y0107048D02*
X0068911Y0107048D01*
X0067313Y0108646D02*
X0066328Y0108646D01*
X0065714Y0110245D02*
X0064980Y0110245D01*
X0064116Y0111843D02*
X0062535Y0111843D01*
X0058217Y0110245D02*
X0047876Y0110245D01*
X0047876Y0110007D02*
X0046939Y0109070D01*
X0036614Y0109070D01*
X0035676Y0110007D01*
X0035676Y0120333D01*
X0036614Y0121270D01*
X0046939Y0121270D01*
X0047876Y0120333D01*
X0047876Y0110007D01*
X0047876Y0111843D02*
X0057900Y0111843D01*
X0056915Y0113442D02*
X0047876Y0113442D01*
X0047876Y0115040D02*
X0056856Y0115040D01*
X0057758Y0116639D02*
X0047876Y0116639D01*
X0047876Y0118237D02*
X0057722Y0118237D01*
X0056123Y0119836D02*
X0047876Y0119836D01*
X0051328Y0124631D02*
X0037599Y0124631D01*
X0037500Y0126230D02*
X0049729Y0126230D01*
X0048131Y0127828D02*
X0045005Y0127828D01*
X0045554Y0129427D02*
X0046532Y0129427D01*
X0049275Y0132624D02*
X0071235Y0132624D01*
X0069637Y0134222D02*
X0047676Y0134222D01*
X0047767Y0134132D02*
X0046537Y0135362D01*
X0045554Y0135362D01*
X0045554Y0138703D01*
X0045396Y0138860D01*
X0045396Y0145413D01*
X0052897Y0137912D01*
X0055271Y0137912D01*
X0055271Y0136019D01*
X0056208Y0135082D01*
X0062652Y0135082D01*
X0063170Y0135600D01*
X0063688Y0135082D01*
X0068777Y0135082D01*
X0077617Y0126242D01*
X0077617Y0124896D01*
X0078165Y0123573D01*
X0079178Y0122560D01*
X0080501Y0122012D01*
X0081933Y0122012D01*
X0083257Y0122560D01*
X0084269Y0123573D01*
X0084817Y0124896D01*
X0084817Y0126328D01*
X0084269Y0127651D01*
X0083257Y0128664D01*
X0081933Y0129212D01*
X0080587Y0129212D01*
X0071069Y0138730D01*
X0071069Y0143250D01*
X0070132Y0144187D01*
X0068017Y0144187D01*
X0068017Y0144613D01*
X0068928Y0145523D01*
X0068928Y0151573D01*
X0067990Y0152510D01*
X0063515Y0152510D01*
X0062578Y0151573D01*
X0062578Y0145523D01*
X0063515Y0144586D01*
X0063817Y0144586D01*
X0063817Y0144187D01*
X0063688Y0144187D01*
X0063170Y0143669D01*
X0062652Y0144187D01*
X0056208Y0144187D01*
X0055271Y0143250D01*
X0055271Y0142112D01*
X0054637Y0142112D01*
X0045317Y0151432D01*
X0045317Y0158475D01*
X0044380Y0159412D01*
X0034055Y0159412D01*
X0034017Y0159375D01*
X0034017Y0183501D01*
X0034023Y0183495D01*
X0044349Y0183495D01*
X0045286Y0184433D01*
X0045286Y0194758D01*
X0044349Y0195695D01*
X0034023Y0195695D01*
X0034017Y0195689D01*
X0034017Y0233512D01*
X0076667Y0233512D01*
X0076408Y0232886D01*
X0076408Y0231533D01*
X0076925Y0230284D01*
X0077882Y0229327D01*
X0079132Y0228809D01*
X0080484Y0228809D01*
X0081734Y0229327D01*
X0082216Y0229809D01*
X0088159Y0229809D01*
X0089041Y0230175D01*
X0089660Y0230794D01*
X0095499Y0230794D01*
X0095499Y0225287D01*
X0096436Y0224350D01*
X0097117Y0224350D01*
X0097117Y0220247D01*
X0096970Y0220004D01*
X0097117Y0219407D01*
X0097117Y0218030D01*
X0096192Y0218030D01*
X0095255Y0217093D01*
X0095255Y0212618D01*
X0096192Y0211680D01*
X0102242Y0211680D01*
X0103180Y0212618D01*
X0103180Y0216961D01*
X0103912Y0217264D01*
X0104924Y0218277D01*
X0105472Y0219600D01*
X0105472Y0221032D01*
X0104924Y0222355D01*
X0103912Y0223368D01*
X0102589Y0223916D01*
X0101317Y0223916D01*
X0101317Y0224755D01*
X0101849Y0225287D01*
X0101849Y0230794D01*
X0102586Y0230794D01*
X0102586Y0225287D01*
X0103523Y0224350D01*
X0106860Y0224350D01*
X0107767Y0223442D01*
X0107767Y0222096D01*
X0108315Y0220773D01*
X0109328Y0219760D01*
X0110651Y0219212D01*
X0112083Y0219212D01*
X0113407Y0219760D01*
X0114419Y0220773D01*
X0114967Y0222096D01*
X0114967Y0223528D01*
X0114419Y0224851D01*
X0113407Y0225864D01*
X0112083Y0226412D01*
X0110737Y0226412D01*
X0108935Y0228214D01*
X0108935Y0230794D01*
X0116215Y0230794D01*
X0120699Y0226310D01*
X0120699Y0225628D01*
X0121217Y0224378D01*
X0122173Y0223422D01*
X0123423Y0222904D01*
X0124776Y0222904D01*
X0126025Y0223422D01*
X0126982Y0224378D01*
X0127499Y0225628D01*
X0127499Y0226980D01*
X0126982Y0228230D01*
X0126025Y0229186D01*
X0124776Y0229704D01*
X0124093Y0229704D01*
X0120285Y0233512D01*
X0127483Y0233512D01*
X0127122Y0233151D01*
X0126605Y0231902D01*
X0126605Y0230549D01*
X0127122Y0229299D01*
X0128079Y0228343D01*
X0129328Y0227825D01*
X0130293Y0227825D01*
X0132726Y0225393D01*
X0132726Y0225350D01*
X0131890Y0225696D01*
X0130544Y0225696D01*
X0129300Y0225181D01*
X0128348Y0224229D01*
X0127833Y0222985D01*
X0127833Y0221639D01*
X0128117Y0220954D01*
X0127649Y0220486D01*
X0127649Y0214830D01*
X0128026Y0214453D01*
X0127808Y0214236D01*
X0127571Y0213825D01*
X0127449Y0213368D01*
X0127449Y0211150D01*
X0131033Y0211150D01*
X0131033Y0210781D01*
X0131402Y0210781D01*
X0131402Y0207000D01*
X0132726Y0207000D01*
X0132726Y0203593D01*
X0127805Y0198672D01*
X0127805Y0193274D01*
X0125523Y0193274D01*
X0124586Y0192337D01*
X0124586Y0186287D01*
X0125523Y0185350D01*
X0129998Y0185350D01*
X0130935Y0186287D01*
X0130935Y0189375D01*
X0132205Y0190645D01*
X0132205Y0196849D01*
X0135837Y0200482D01*
X0137126Y0201771D01*
X0137126Y0227215D01*
X0133405Y0230936D01*
X0133405Y0231902D01*
X0132887Y0233151D01*
X0132526Y0233512D01*
X0154717Y0233512D01*
X0154717Y0225983D01*
X0155167Y0225533D01*
X0155167Y0221315D01*
X0155624Y0220212D01*
X0161024Y0214812D01*
X0161868Y0213969D01*
X0162971Y0213512D01*
X0184855Y0213512D01*
X0184855Y0212365D01*
X0186027Y0211194D01*
X0186693Y0211194D01*
X0187518Y0210369D01*
X0196567Y0201319D01*
X0196567Y0200808D01*
X0195952Y0200553D01*
X0194826Y0199428D01*
X0194217Y0197957D01*
X0194217Y0196366D01*
X0194826Y0194896D01*
X0195952Y0193771D01*
X0196567Y0193516D01*
X0196567Y0172082D01*
X0195817Y0172832D01*
X0194587Y0174062D01*
X0188935Y0174062D01*
X0188935Y0175337D01*
X0187998Y0176274D01*
X0184725Y0176274D01*
X0182887Y0178112D01*
X0175297Y0178112D01*
X0164617Y0167432D01*
X0164617Y0161453D01*
X0163665Y0160501D01*
X0163382Y0159817D01*
X0163066Y0160133D01*
X0163066Y0162615D01*
X0162129Y0163552D01*
X0157654Y0163552D01*
X0156717Y0162615D01*
X0156717Y0156565D01*
X0157654Y0155628D01*
X0161632Y0155628D01*
X0170785Y0146474D01*
X0169862Y0146474D01*
X0169404Y0146351D01*
X0168994Y0146114D01*
X0168659Y0145779D01*
X0168422Y0145369D01*
X0168299Y0144911D01*
X0168299Y0142312D01*
X0171674Y0142312D01*
X0171674Y0142312D01*
X0175049Y0142312D01*
X0175049Y0144212D01*
X0175586Y0144212D01*
X0175586Y0139287D01*
X0176344Y0138529D01*
X0175815Y0138001D01*
X0175267Y0136678D01*
X0175267Y0135246D01*
X0175815Y0133923D01*
X0176828Y0132910D01*
X0178151Y0132362D01*
X0179583Y0132362D01*
X0180907Y0132910D01*
X0181919Y0133923D01*
X0182467Y0135246D01*
X0182467Y0136678D01*
X0181919Y0138001D01*
X0181284Y0138636D01*
X0181935Y0139287D01*
X0181935Y0142074D01*
X0186667Y0137342D01*
X0186667Y0136442D01*
X0187897Y0135212D01*
X0187897Y0135212D01*
X0188665Y0134445D01*
X0188665Y0132330D01*
X0189321Y0131674D01*
X0188665Y0131018D01*
X0188665Y0127330D01*
X0189321Y0126674D01*
X0189021Y0126374D01*
X0188649Y0126374D01*
X0187396Y0125121D01*
X0186431Y0125121D01*
X0185181Y0124604D01*
X0184225Y0123647D01*
X0183707Y0122398D01*
X0183707Y0121045D01*
X0183928Y0120512D01*
X0164947Y0120512D01*
X0163717Y0119282D01*
X0158647Y0114212D01*
X0154317Y0114212D01*
X0154317Y0123475D01*
X0153980Y0123812D01*
X0154317Y0124149D01*
X0154317Y0134475D01*
X0153980Y0134812D01*
X0154317Y0135149D01*
X0154317Y0142470D01*
X0154348Y0142395D01*
X0155300Y0141443D01*
X0156544Y0140928D01*
X0157890Y0140928D01*
X0159134Y0141443D01*
X0159833Y0142142D01*
X0159833Y0141639D01*
X0160348Y0140395D01*
X0161217Y0139526D01*
X0161217Y0126140D01*
X0160773Y0125696D01*
X0159544Y0125696D01*
X0158300Y0125181D01*
X0157348Y0124229D01*
X0156833Y0122985D01*
X0156833Y0121639D01*
X0157348Y0120395D01*
X0158300Y0119443D01*
X0159544Y0118928D01*
X0160890Y0118928D01*
X0162134Y0119443D01*
X0163086Y0120395D01*
X0163602Y0121639D01*
X0163602Y0122868D01*
X0165217Y0124483D01*
X0165217Y0139526D01*
X0166086Y0140395D01*
X0166602Y0141639D01*
X0166602Y0142985D01*
X0166086Y0144229D01*
X0165134Y0145181D01*
X0163890Y0145696D01*
X0162544Y0145696D01*
X0161300Y0145181D01*
X0160602Y0144482D01*
X0160602Y0144985D01*
X0160086Y0146229D01*
X0159134Y0147181D01*
X0157890Y0147696D01*
X0156661Y0147696D01*
X0154217Y0150140D01*
X0153046Y0151312D01*
X0152003Y0151312D01*
X0151134Y0152181D01*
X0149890Y0152696D01*
X0149071Y0152696D01*
X0152003Y0155628D01*
X0155042Y0155628D01*
X0155980Y0156565D01*
X0155980Y0159604D01*
X0156667Y0160292D01*
X0156667Y0176171D01*
X0157619Y0177123D01*
X0158167Y0178446D01*
X0158167Y0179878D01*
X0157619Y0181201D01*
X0156607Y0182214D01*
X0155283Y0182762D01*
X0153851Y0182762D01*
X0152528Y0182214D01*
X0151515Y0181201D01*
X0150967Y0179878D01*
X0150967Y0178446D01*
X0151515Y0177123D01*
X0152467Y0176171D01*
X0152467Y0163552D01*
X0150567Y0163552D01*
X0149630Y0162615D01*
X0149630Y0159194D01*
X0141045Y0150610D01*
X0140473Y0150189D01*
X0140445Y0150010D01*
X0140317Y0149882D01*
X0140317Y0149171D01*
X0139827Y0145965D01*
X0139380Y0146412D01*
X0132437Y0146412D01*
X0144967Y0158942D01*
X0144967Y0173471D01*
X0145919Y0174423D01*
X0146467Y0175746D01*
X0146467Y0177178D01*
X0145919Y0178501D01*
X0144907Y0179514D01*
X0143583Y0180062D01*
X0142151Y0180062D01*
X0140828Y0179514D01*
X0139815Y0178501D01*
X0139267Y0177178D01*
X0139267Y0175746D01*
X0139815Y0174423D01*
X0140767Y0173471D01*
X0140767Y0160682D01*
X0107797Y0127712D01*
X0106567Y0126482D01*
X0106567Y0098453D01*
X0105615Y0097501D01*
X0105067Y0096178D01*
X0105067Y0094746D01*
X0105615Y0093423D01*
X0106628Y0092410D01*
X0107951Y0091862D01*
X0108667Y0091862D01*
X0108667Y0091146D01*
X0109215Y0089823D01*
X0109576Y0089462D01*
X0109408Y0089462D01*
X0108457Y0090414D01*
X0107133Y0090962D01*
X0105701Y0090962D01*
X0104378Y0090414D01*
X0103365Y0089401D01*
X0103082Y0088717D01*
X0099396Y0092403D01*
X0100544Y0091928D01*
X0101890Y0091928D01*
X0103134Y0092443D01*
X0104086Y0093395D01*
X0104602Y0094639D01*
X0104602Y0095985D01*
X0104086Y0097229D01*
X0103134Y0098181D01*
X0101890Y0098696D01*
X0100544Y0098696D01*
X0099300Y0098181D01*
X0098431Y0097312D01*
X0098046Y0097312D01*
X0075602Y0119756D01*
X0075602Y0120985D01*
X0075086Y0122229D01*
X0074134Y0123181D01*
X0072890Y0123696D01*
X0071544Y0123696D01*
X0070300Y0123181D01*
X0069348Y0122229D01*
X0068833Y0120985D01*
X0068833Y0119639D01*
X0069341Y0118412D01*
X0068351Y0118412D01*
X0067028Y0117864D01*
X0066015Y0116851D01*
X0065732Y0116167D01*
X0047767Y0134132D01*
X0047767Y0134132D01*
X0045554Y0135821D02*
X0055469Y0135821D01*
X0055271Y0137420D02*
X0045554Y0137420D01*
X0045396Y0139018D02*
X0051791Y0139018D01*
X0050193Y0140617D02*
X0045396Y0140617D01*
X0045396Y0142215D02*
X0048594Y0142215D01*
X0046996Y0143814D02*
X0045396Y0143814D01*
X0045396Y0145412D02*
X0045397Y0145412D01*
X0048140Y0148609D02*
X0055291Y0148609D01*
X0055291Y0148548D02*
X0058666Y0148548D01*
X0055291Y0148548D01*
X0055291Y0151147D01*
X0055414Y0151605D01*
X0055651Y0152015D01*
X0055986Y0152351D01*
X0056397Y0152588D01*
X0056854Y0152710D01*
X0058666Y0152710D01*
X0058666Y0148548D01*
X0058666Y0148548D01*
X0058666Y0148548D01*
X0058666Y0144386D01*
X0056854Y0144386D01*
X0056397Y0144508D01*
X0055986Y0144745D01*
X0055651Y0145081D01*
X0055414Y0145491D01*
X0055291Y0145949D01*
X0055291Y0148548D01*
X0055291Y0147011D02*
X0049738Y0147011D01*
X0051337Y0145412D02*
X0055460Y0145412D01*
X0055834Y0143814D02*
X0052935Y0143814D01*
X0054534Y0142215D02*
X0055271Y0142215D01*
X0058666Y0144386D02*
X0060478Y0144386D01*
X0060936Y0144508D01*
X0061346Y0144745D01*
X0061681Y0145081D01*
X0061918Y0145491D01*
X0062041Y0145949D01*
X0062041Y0148548D01*
X0058666Y0148548D01*
X0058666Y0148548D01*
X0058666Y0144386D01*
X0058666Y0145412D02*
X0058666Y0145412D01*
X0058666Y0147011D02*
X0058666Y0147011D01*
X0058666Y0148548D02*
X0058666Y0148548D01*
X0058666Y0152710D01*
X0060478Y0152710D01*
X0060936Y0152588D01*
X0061346Y0152351D01*
X0061681Y0152015D01*
X0061918Y0151605D01*
X0062041Y0151147D01*
X0062041Y0148548D01*
X0058666Y0148548D01*
X0058666Y0148609D02*
X0058666Y0148609D01*
X0058666Y0150208D02*
X0058666Y0150208D01*
X0058666Y0151806D02*
X0058666Y0151806D01*
X0055530Y0151806D02*
X0045317Y0151806D01*
X0045317Y0153405D02*
X0075067Y0153405D01*
X0075067Y0155003D02*
X0045317Y0155003D01*
X0045317Y0156602D02*
X0075067Y0156602D01*
X0075067Y0158200D02*
X0045317Y0158200D01*
X0046541Y0150208D02*
X0055291Y0150208D01*
X0061802Y0151806D02*
X0062811Y0151806D01*
X0062578Y0150208D02*
X0062041Y0150208D01*
X0062041Y0148609D02*
X0062578Y0148609D01*
X0062578Y0147011D02*
X0062041Y0147011D01*
X0061873Y0145412D02*
X0062689Y0145412D01*
X0063026Y0143814D02*
X0063315Y0143814D01*
X0068817Y0145412D02*
X0074776Y0145412D01*
X0075067Y0145703D02*
X0074115Y0144751D01*
X0073567Y0143428D01*
X0073567Y0141996D01*
X0074115Y0140673D01*
X0075128Y0139660D01*
X0076451Y0139112D01*
X0077883Y0139112D01*
X0079207Y0139660D01*
X0080219Y0140673D01*
X0080767Y0141996D01*
X0080767Y0143428D01*
X0080410Y0144291D01*
X0091410Y0133291D01*
X0091348Y0133229D01*
X0090833Y0131985D01*
X0090833Y0130639D01*
X0091348Y0129395D01*
X0092300Y0128443D01*
X0093544Y0127928D01*
X0094890Y0127928D01*
X0096134Y0128443D01*
X0097086Y0129395D01*
X0097602Y0130639D01*
X0097602Y0131985D01*
X0097086Y0133229D01*
X0096217Y0134098D01*
X0096217Y0134140D01*
X0095046Y0135312D01*
X0082217Y0148140D01*
X0082217Y0182483D01*
X0091661Y0191928D01*
X0091890Y0191928D01*
X0093134Y0192443D01*
X0094086Y0193395D01*
X0094602Y0194639D01*
X0094602Y0195985D01*
X0094086Y0197229D01*
X0093134Y0198181D01*
X0091890Y0198696D01*
X0090544Y0198696D01*
X0089300Y0198181D01*
X0088348Y0197229D01*
X0087833Y0195985D01*
X0087833Y0194639D01*
X0088092Y0194015D01*
X0079389Y0185312D01*
X0079267Y0185190D01*
X0079267Y0191237D01*
X0079430Y0191541D01*
X0079267Y0192074D01*
X0079267Y0192632D01*
X0079023Y0192875D01*
X0078638Y0194141D01*
X0078819Y0194323D01*
X0079367Y0195646D01*
X0079367Y0197078D01*
X0078819Y0198401D01*
X0077807Y0199414D01*
X0076483Y0199962D01*
X0075051Y0199962D01*
X0073728Y0199414D01*
X0072715Y0198401D01*
X0072167Y0197078D01*
X0072167Y0195646D01*
X0072715Y0194323D01*
X0073728Y0193310D01*
X0074613Y0192944D01*
X0075067Y0191449D01*
X0075067Y0145703D01*
X0075067Y0147011D02*
X0068928Y0147011D01*
X0068928Y0148609D02*
X0075067Y0148609D01*
X0075067Y0150208D02*
X0068928Y0150208D01*
X0068694Y0151806D02*
X0075067Y0151806D01*
X0082217Y0151806D02*
X0131892Y0151806D01*
X0133490Y0153405D02*
X0082217Y0153405D01*
X0082217Y0155003D02*
X0135089Y0155003D01*
X0136687Y0156602D02*
X0082217Y0156602D01*
X0082217Y0158200D02*
X0138286Y0158200D01*
X0139884Y0159799D02*
X0128490Y0159799D01*
X0128134Y0159443D02*
X0129086Y0160395D01*
X0129602Y0161639D01*
X0129602Y0162985D01*
X0129086Y0164229D01*
X0128134Y0165181D01*
X0128060Y0165212D01*
X0137380Y0165212D01*
X0138317Y0166149D01*
X0138317Y0176475D01*
X0137380Y0177412D01*
X0134167Y0177412D01*
X0134167Y0179582D01*
X0133417Y0180332D01*
X0133417Y0181678D01*
X0132869Y0183001D01*
X0131857Y0184014D01*
X0130533Y0184562D01*
X0129101Y0184562D01*
X0127778Y0184014D01*
X0126765Y0183001D01*
X0126217Y0181678D01*
X0126217Y0180246D01*
X0126765Y0178923D01*
X0127778Y0177910D01*
X0128981Y0177412D01*
X0127055Y0177412D01*
X0126117Y0176475D01*
X0126117Y0166149D01*
X0126570Y0165696D01*
X0125544Y0165696D01*
X0124300Y0165181D01*
X0123431Y0164312D01*
X0116046Y0164312D01*
X0106046Y0174312D01*
X0092046Y0174312D01*
X0090602Y0175756D01*
X0090602Y0176985D01*
X0090086Y0178229D01*
X0089134Y0179181D01*
X0087890Y0179696D01*
X0086544Y0179696D01*
X0085300Y0179181D01*
X0084348Y0178229D01*
X0083833Y0176985D01*
X0083833Y0175639D01*
X0084348Y0174395D01*
X0085300Y0173443D01*
X0086544Y0172928D01*
X0087773Y0172928D01*
X0089217Y0171483D01*
X0090389Y0170312D01*
X0104389Y0170312D01*
X0113217Y0161483D01*
X0114389Y0160312D01*
X0123431Y0160312D01*
X0124300Y0159443D01*
X0125544Y0158928D01*
X0126890Y0158928D01*
X0128134Y0159443D01*
X0129502Y0161397D02*
X0140767Y0161397D01*
X0140767Y0162996D02*
X0129597Y0162996D01*
X0128721Y0164594D02*
X0140767Y0164594D01*
X0140767Y0166193D02*
X0138317Y0166193D01*
X0138317Y0167791D02*
X0140767Y0167791D01*
X0140767Y0169390D02*
X0138317Y0169390D01*
X0138317Y0170988D02*
X0140767Y0170988D01*
X0140767Y0172587D02*
X0138317Y0172587D01*
X0138317Y0174185D02*
X0140053Y0174185D01*
X0139267Y0175784D02*
X0138317Y0175784D01*
X0137410Y0177382D02*
X0139352Y0177382D01*
X0140295Y0178981D02*
X0134167Y0178981D01*
X0133417Y0180579D02*
X0151258Y0180579D01*
X0150967Y0178981D02*
X0145439Y0178981D01*
X0146383Y0177382D02*
X0151408Y0177382D01*
X0152467Y0175784D02*
X0146467Y0175784D01*
X0145682Y0174185D02*
X0152467Y0174185D01*
X0152467Y0172587D02*
X0144967Y0172587D01*
X0144967Y0170988D02*
X0152467Y0170988D01*
X0152467Y0169390D02*
X0144967Y0169390D01*
X0144967Y0167791D02*
X0152467Y0167791D01*
X0152467Y0166193D02*
X0144967Y0166193D01*
X0144967Y0164594D02*
X0152467Y0164594D01*
X0150011Y0162996D02*
X0144967Y0162996D01*
X0144967Y0161397D02*
X0149630Y0161397D01*
X0149630Y0159799D02*
X0144967Y0159799D01*
X0144226Y0158200D02*
X0148636Y0158200D01*
X0147037Y0156602D02*
X0142627Y0156602D01*
X0141028Y0155003D02*
X0145439Y0155003D01*
X0143840Y0153405D02*
X0139430Y0153405D01*
X0137831Y0151806D02*
X0142242Y0151806D01*
X0140498Y0150208D02*
X0136233Y0150208D01*
X0134634Y0148609D02*
X0140231Y0148609D01*
X0139987Y0147011D02*
X0133036Y0147011D01*
X0130293Y0150208D02*
X0082217Y0150208D01*
X0082217Y0148609D02*
X0128695Y0148609D01*
X0127096Y0147011D02*
X0083347Y0147011D01*
X0084945Y0145412D02*
X0125498Y0145412D01*
X0123899Y0143814D02*
X0086544Y0143814D01*
X0088142Y0142215D02*
X0122301Y0142215D01*
X0120702Y0140617D02*
X0089741Y0140617D01*
X0091340Y0139018D02*
X0119104Y0139018D01*
X0117505Y0137420D02*
X0092938Y0137420D01*
X0094537Y0135821D02*
X0115907Y0135821D01*
X0114308Y0134222D02*
X0096135Y0134222D01*
X0097337Y0132624D02*
X0112710Y0132624D01*
X0111111Y0131025D02*
X0097602Y0131025D01*
X0097100Y0129427D02*
X0109513Y0129427D01*
X0107914Y0127828D02*
X0084092Y0127828D01*
X0084817Y0126230D02*
X0106567Y0126230D01*
X0106567Y0124631D02*
X0084708Y0124631D01*
X0083730Y0123033D02*
X0106567Y0123033D01*
X0106567Y0121434D02*
X0075415Y0121434D01*
X0075602Y0119836D02*
X0106567Y0119836D01*
X0106567Y0118237D02*
X0077120Y0118237D01*
X0078719Y0116639D02*
X0106567Y0116639D01*
X0106567Y0115040D02*
X0080317Y0115040D01*
X0081916Y0113442D02*
X0106567Y0113442D01*
X0106567Y0111843D02*
X0083514Y0111843D01*
X0085113Y0110245D02*
X0106567Y0110245D01*
X0106567Y0108646D02*
X0086711Y0108646D01*
X0088310Y0107048D02*
X0106567Y0107048D01*
X0106567Y0105449D02*
X0089908Y0105449D01*
X0091507Y0103851D02*
X0106567Y0103851D01*
X0106567Y0102252D02*
X0093105Y0102252D01*
X0094704Y0100654D02*
X0106567Y0100654D01*
X0106567Y0099055D02*
X0096302Y0099055D01*
X0097901Y0097457D02*
X0098576Y0097457D01*
X0103858Y0097457D02*
X0105597Y0097457D01*
X0105067Y0095858D02*
X0104602Y0095858D01*
X0104445Y0094260D02*
X0105269Y0094260D01*
X0106377Y0092661D02*
X0103353Y0092661D01*
X0100736Y0091063D02*
X0108702Y0091063D01*
X0109406Y0089464D02*
X0109574Y0089464D01*
X0114958Y0089462D02*
X0115319Y0089823D01*
X0115867Y0091146D01*
X0115867Y0092578D01*
X0115319Y0093901D01*
X0114367Y0094853D01*
X0114367Y0120820D01*
X0130244Y0128167D01*
X0123217Y0121140D01*
X0123217Y0119483D01*
X0123217Y0117098D01*
X0122348Y0116229D01*
X0121833Y0114985D01*
X0121833Y0113639D01*
X0122348Y0112395D01*
X0123300Y0111443D01*
X0124544Y0110928D01*
X0125890Y0110928D01*
X0127134Y0111443D01*
X0128086Y0112395D01*
X0128602Y0113639D01*
X0128602Y0114910D01*
X0129201Y0114662D01*
X0129552Y0114662D01*
X0132196Y0110022D01*
X0128192Y0110022D01*
X0127255Y0109085D01*
X0127255Y0108847D01*
X0125924Y0108847D01*
X0124753Y0107676D01*
X0124217Y0107140D01*
X0124217Y0099917D01*
X0124070Y0099696D01*
X0123544Y0099696D01*
X0122300Y0099181D01*
X0121348Y0098229D01*
X0120833Y0096985D01*
X0120833Y0095639D01*
X0121348Y0094395D01*
X0122300Y0093443D01*
X0123544Y0092928D01*
X0124890Y0092928D01*
X0126134Y0093443D01*
X0127086Y0094395D01*
X0127602Y0095639D01*
X0127602Y0096894D01*
X0127750Y0096745D01*
X0128160Y0096508D01*
X0128618Y0096386D01*
X0131217Y0096386D01*
X0131217Y0099760D01*
X0131217Y0099760D01*
X0131217Y0096386D01*
X0133123Y0096386D01*
X0135667Y0093842D01*
X0135667Y0092496D01*
X0136215Y0091173D01*
X0137228Y0090160D01*
X0138551Y0089612D01*
X0139983Y0089612D01*
X0141307Y0090160D01*
X0142319Y0091173D01*
X0142867Y0092496D01*
X0142867Y0093928D01*
X0142519Y0094769D01*
X0142628Y0094660D01*
X0143951Y0094112D01*
X0145300Y0094112D01*
X0144833Y0092985D01*
X0144833Y0091639D01*
X0145348Y0090395D01*
X0146281Y0089462D01*
X0114958Y0089462D01*
X0114961Y0089464D02*
X0146279Y0089464D01*
X0145072Y0091063D02*
X0142209Y0091063D01*
X0142867Y0092661D02*
X0144833Y0092661D01*
X0143594Y0094260D02*
X0142730Y0094260D01*
X0147729Y0095696D02*
X0148267Y0096996D01*
X0148267Y0098428D01*
X0147719Y0099751D01*
X0146767Y0100703D01*
X0146767Y0103825D01*
X0147410Y0103825D01*
X0148654Y0104340D01*
X0149606Y0105292D01*
X0150121Y0106536D01*
X0150121Y0107883D01*
X0149606Y0109126D01*
X0148721Y0110012D01*
X0160387Y0110012D01*
X0166687Y0116312D01*
X0197287Y0116312D01*
X0201337Y0120362D01*
X0202567Y0121592D01*
X0202567Y0136832D01*
X0200526Y0138873D01*
X0200526Y0141018D01*
X0199589Y0141955D01*
X0189602Y0141955D01*
X0188798Y0141151D01*
X0181537Y0148412D01*
X0174787Y0148412D01*
X0172049Y0151150D01*
X0173486Y0151150D01*
X0173944Y0151272D01*
X0174354Y0151509D01*
X0174689Y0151844D01*
X0174926Y0152255D01*
X0175049Y0152713D01*
X0175049Y0155312D01*
X0175049Y0157911D01*
X0174926Y0158369D01*
X0174689Y0158779D01*
X0174354Y0159114D01*
X0173944Y0159351D01*
X0173486Y0159474D01*
X0171674Y0159474D01*
X0170195Y0159474D01*
X0169769Y0160501D01*
X0168817Y0161453D01*
X0168817Y0161686D01*
X0168994Y0161509D01*
X0169404Y0161272D01*
X0169862Y0161150D01*
X0171674Y0161150D01*
X0173486Y0161150D01*
X0173944Y0161272D01*
X0174354Y0161509D01*
X0174689Y0161844D01*
X0174926Y0162255D01*
X0175049Y0162713D01*
X0175049Y0165312D01*
X0175049Y0167911D01*
X0174926Y0168369D01*
X0174689Y0168779D01*
X0174354Y0169114D01*
X0173944Y0169351D01*
X0173486Y0169474D01*
X0172599Y0169474D01*
X0175499Y0172374D01*
X0175499Y0169287D01*
X0176018Y0168768D01*
X0175586Y0168337D01*
X0175586Y0162287D01*
X0176523Y0161350D01*
X0179225Y0161350D01*
X0178917Y0160607D01*
X0178917Y0159674D01*
X0176357Y0159674D01*
X0175186Y0158502D01*
X0175186Y0152121D01*
X0176357Y0150950D01*
X0181164Y0150950D01*
X0182335Y0152121D01*
X0182335Y0152312D01*
X0191164Y0152312D01*
X0192267Y0152769D01*
X0192306Y0152808D01*
X0194487Y0152808D01*
X0194710Y0153032D01*
X0194799Y0153008D01*
X0196217Y0153008D01*
X0196217Y0157170D01*
X0196217Y0157170D01*
X0196217Y0161332D01*
X0194799Y0161332D01*
X0194710Y0161308D01*
X0194487Y0161532D01*
X0190468Y0161532D01*
X0189296Y0160361D01*
X0189296Y0158312D01*
X0186626Y0158312D01*
X0186917Y0159016D01*
X0186917Y0160607D01*
X0186308Y0162078D01*
X0185183Y0163203D01*
X0183713Y0163812D01*
X0182122Y0163812D01*
X0181935Y0163735D01*
X0181935Y0165362D01*
X0189696Y0165362D01*
X0189696Y0164429D01*
X0190633Y0163491D01*
X0194321Y0163491D01*
X0194519Y0163690D01*
X0196877Y0161332D01*
X0196217Y0161332D01*
X0196217Y0157170D01*
X0196217Y0157170D01*
X0196217Y0153008D01*
X0197635Y0153008D01*
X0198093Y0153131D01*
X0198227Y0153208D01*
X0201801Y0153208D01*
X0202739Y0154145D01*
X0202739Y0160195D01*
X0201801Y0161132D01*
X0201667Y0161132D01*
X0201667Y0162482D01*
X0201058Y0163091D01*
X0201967Y0163091D01*
X0203139Y0164263D01*
X0203139Y0170644D01*
X0202567Y0171215D01*
X0202567Y0203159D01*
X0202111Y0204261D01*
X0193580Y0212792D01*
X0193580Y0217172D01*
X0192408Y0218343D01*
X0189378Y0218343D01*
X0189041Y0218680D01*
X0192242Y0218680D01*
X0192275Y0218713D01*
X0192578Y0218410D01*
X0193901Y0217862D01*
X0195333Y0217862D01*
X0196657Y0218410D01*
X0197669Y0219423D01*
X0197899Y0219977D01*
X0198527Y0219348D01*
X0199409Y0218983D01*
X0207313Y0218983D01*
X0207313Y0218920D01*
X0208251Y0217983D01*
X0213176Y0217983D01*
X0214113Y0218920D01*
X0214113Y0223845D01*
X0213176Y0224783D01*
X0208251Y0224783D01*
X0207313Y0223845D01*
X0207313Y0223783D01*
X0200881Y0223783D01*
X0198452Y0226212D01*
X0205380Y0226212D01*
X0206317Y0227149D01*
X0206317Y0233512D01*
X0249417Y0233512D01*
X0249417Y0101312D01*
X0238537Y0101312D01*
X0245317Y0108092D01*
X0245317Y0111030D01*
X0245645Y0111166D01*
X0246820Y0112341D01*
X0247455Y0113875D01*
X0247455Y0115536D01*
X0246820Y0117070D01*
X0245645Y0118245D01*
X0244111Y0118880D01*
X0242450Y0118880D01*
X0240915Y0118245D01*
X0240315Y0117644D01*
X0241531Y0121516D01*
X0241866Y0122081D01*
X0241795Y0122357D01*
X0241881Y0122628D01*
X0241577Y0123210D01*
X0234520Y0150777D01*
X0235048Y0151305D01*
X0235683Y0152840D01*
X0235683Y0154500D01*
X0235048Y0156035D01*
X0233873Y0157209D01*
X0232339Y0157845D01*
X0230678Y0157845D01*
X0229144Y0157209D01*
X0227969Y0156035D01*
X0227334Y0154500D01*
X0227334Y0152840D01*
X0227969Y0151305D01*
X0229144Y0150131D01*
X0230262Y0149668D01*
X0235922Y0127559D01*
X0235079Y0127908D01*
X0233418Y0127908D01*
X0233254Y0127840D01*
X0230495Y0130598D01*
X0229211Y0130598D01*
X0229211Y0130636D01*
X0228274Y0131573D01*
X0222224Y0131573D01*
X0222025Y0131374D01*
X0220642Y0131374D01*
X0220342Y0131674D01*
X0220998Y0132330D01*
X0220998Y0134396D01*
X0221108Y0134207D01*
X0221443Y0133871D01*
X0221853Y0133634D01*
X0222311Y0133512D01*
X0224910Y0133512D01*
X0224910Y0136886D01*
X0224910Y0136886D01*
X0224910Y0136887D02*
X0220748Y0136887D01*
X0224910Y0136887D01*
X0224910Y0140261D01*
X0222311Y0140261D01*
X0221853Y0140139D01*
X0221443Y0139902D01*
X0221108Y0139567D01*
X0220998Y0139377D01*
X0220998Y0141018D01*
X0220511Y0141506D01*
X0220778Y0141773D01*
X0220948Y0141773D01*
X0220948Y0141736D01*
X0221885Y0140798D01*
X0227935Y0140798D01*
X0228872Y0141736D01*
X0228872Y0146211D01*
X0227935Y0147148D01*
X0226993Y0147148D01*
X0226708Y0154768D01*
X0229976Y0158615D01*
X0230495Y0158984D01*
X0230546Y0159286D01*
X0230744Y0159519D01*
X0230692Y0160153D01*
X0231941Y0167550D01*
X0232339Y0167550D01*
X0233873Y0168186D01*
X0235048Y0169360D01*
X0235683Y0170895D01*
X0235683Y0172556D01*
X0235048Y0174090D01*
X0233873Y0175264D01*
X0232339Y0175900D01*
X0230678Y0175900D01*
X0229144Y0175264D01*
X0227969Y0174090D01*
X0227334Y0172556D01*
X0227334Y0170895D01*
X0227838Y0169678D01*
X0226787Y0163452D01*
X0226744Y0163722D01*
X0226531Y0164377D01*
X0226219Y0164991D01*
X0225814Y0165548D01*
X0225327Y0166035D01*
X0224770Y0166439D01*
X0224156Y0166752D01*
X0223502Y0166965D01*
X0222821Y0167072D01*
X0222477Y0167072D01*
X0222133Y0167072D01*
X0221453Y0166965D01*
X0220798Y0166752D01*
X0220184Y0166439D01*
X0219627Y0166035D01*
X0219140Y0165548D01*
X0218735Y0164991D01*
X0218423Y0164377D01*
X0218210Y0163722D01*
X0218102Y0163042D01*
X0218102Y0162698D01*
X0222477Y0162698D01*
X0222477Y0167072D01*
X0222477Y0162698D01*
X0222477Y0162698D01*
X0222477Y0162698D01*
X0218102Y0162698D01*
X0218102Y0162353D01*
X0218210Y0161673D01*
X0218423Y0161018D01*
X0218735Y0160405D01*
X0219140Y0159848D01*
X0219627Y0159361D01*
X0220184Y0158956D01*
X0220798Y0158643D01*
X0221453Y0158431D01*
X0222133Y0158323D01*
X0222477Y0158323D01*
X0222477Y0162698D01*
X0222477Y0162698D01*
X0222477Y0158323D01*
X0222821Y0158323D01*
X0223502Y0158431D01*
X0224156Y0158643D01*
X0224280Y0158706D01*
X0222832Y0157001D01*
X0222245Y0156368D01*
X0222247Y0156313D01*
X0222211Y0156270D01*
X0222281Y0155410D01*
X0222590Y0147148D01*
X0221885Y0147148D01*
X0220948Y0146211D01*
X0220948Y0146173D01*
X0218956Y0146173D01*
X0214738Y0141955D01*
X0210074Y0141955D01*
X0209137Y0141018D01*
X0209137Y0137330D01*
X0209793Y0136674D01*
X0209137Y0136018D01*
X0209137Y0132330D01*
X0209793Y0131674D01*
X0209137Y0131018D01*
X0209137Y0127330D01*
X0209793Y0126674D01*
X0209137Y0126018D01*
X0209137Y0122330D01*
X0210074Y0121393D01*
X0213917Y0121393D01*
X0213917Y0120330D01*
X0213092Y0120330D01*
X0212155Y0119393D01*
X0212155Y0114918D01*
X0213092Y0113980D01*
X0219142Y0113980D01*
X0220080Y0114918D01*
X0220080Y0119393D01*
X0219142Y0120330D01*
X0218317Y0120330D01*
X0218317Y0121393D01*
X0220061Y0121393D01*
X0220998Y0122330D01*
X0220998Y0126018D01*
X0220342Y0126674D01*
X0220642Y0126974D01*
X0221287Y0126974D01*
X0221287Y0126161D01*
X0222224Y0125224D01*
X0228274Y0125224D01*
X0228960Y0125910D01*
X0230142Y0124728D01*
X0230074Y0124563D01*
X0230074Y0122903D01*
X0230710Y0121368D01*
X0231884Y0120194D01*
X0233418Y0119558D01*
X0235079Y0119558D01*
X0235491Y0119729D01*
X0229393Y0109357D01*
X0229297Y0109262D01*
X0220280Y0109262D01*
X0220280Y0110068D01*
X0216117Y0110068D01*
X0211955Y0110068D01*
X0211955Y0108362D01*
X0208923Y0108362D01*
X0208923Y0109306D01*
X0208408Y0110550D01*
X0207456Y0111502D01*
X0206212Y0112017D01*
X0204866Y0112017D01*
X0203622Y0111502D01*
X0202670Y0110550D01*
X0202155Y0109306D01*
X0202155Y0107960D01*
X0202670Y0106716D01*
X0203622Y0105764D01*
X0204866Y0105248D01*
X0206095Y0105248D01*
X0206982Y0104362D01*
X0208197Y0104362D01*
X0205147Y0101312D01*
X0196217Y0101312D01*
X0196217Y0113312D01*
X0181217Y0113312D01*
X0181217Y0098312D01*
X0192217Y0098312D01*
X0193178Y0089343D01*
X0192142Y0088307D01*
X0190987Y0089462D01*
X0150153Y0089462D01*
X0151086Y0090395D01*
X0151602Y0091639D01*
X0151602Y0092868D01*
X0154739Y0096005D01*
X0155300Y0095443D01*
X0156544Y0094928D01*
X0157890Y0094928D01*
X0159134Y0095443D01*
X0160086Y0096395D01*
X0160602Y0097639D01*
X0160602Y0098985D01*
X0160086Y0100229D01*
X0159134Y0101181D01*
X0157890Y0101696D01*
X0156544Y0101696D01*
X0155300Y0101181D01*
X0154431Y0100312D01*
X0153389Y0100312D01*
X0148773Y0095696D01*
X0147729Y0095696D01*
X0147796Y0095858D02*
X0148935Y0095858D01*
X0148267Y0097457D02*
X0150534Y0097457D01*
X0152132Y0099055D02*
X0148007Y0099055D01*
X0146817Y0100654D02*
X0154773Y0100654D01*
X0154885Y0095858D02*
X0154592Y0095858D01*
X0152994Y0094260D02*
X0192651Y0094260D01*
X0192480Y0095858D02*
X0159550Y0095858D01*
X0160526Y0097457D02*
X0192309Y0097457D01*
X0192823Y0092661D02*
X0151602Y0092661D01*
X0151363Y0091063D02*
X0192994Y0091063D01*
X0193165Y0089464D02*
X0150156Y0089464D01*
X0151203Y0076676D02*
X0160067Y0076676D01*
X0164368Y0076676D02*
X0177583Y0076676D01*
X0175985Y0078275D02*
X0165451Y0078275D01*
X0165602Y0079873D02*
X0174386Y0079873D01*
X0172788Y0081472D02*
X0164844Y0081472D01*
X0174937Y0085262D02*
X0189247Y0085262D01*
X0189817Y0084692D01*
X0190267Y0084242D01*
X0190267Y0083603D01*
X0189315Y0082651D01*
X0188767Y0081328D01*
X0188767Y0079896D01*
X0189092Y0079112D01*
X0181087Y0079112D01*
X0174937Y0085262D01*
X0175530Y0084669D02*
X0189841Y0084669D01*
X0189734Y0083070D02*
X0177129Y0083070D01*
X0178727Y0081472D02*
X0188827Y0081472D01*
X0188777Y0079873D02*
X0180326Y0079873D01*
X0179182Y0075078D02*
X0149253Y0075078D01*
X0150720Y0073479D02*
X0194878Y0073479D01*
X0195049Y0071881D02*
X0152318Y0071881D01*
X0153917Y0070282D02*
X0249417Y0070282D01*
X0249417Y0068684D02*
X0163967Y0068684D01*
X0164176Y0067085D02*
X0249417Y0067085D01*
X0249417Y0065487D02*
X0198829Y0065487D01*
X0199003Y0065312D02*
X0198134Y0066181D01*
X0196890Y0066696D01*
X0195544Y0066696D01*
X0194300Y0066181D01*
X0193348Y0065229D01*
X0192833Y0063985D01*
X0192833Y0062639D01*
X0193348Y0061395D01*
X0194300Y0060443D01*
X0195544Y0059928D01*
X0196890Y0059928D01*
X0198134Y0060443D01*
X0198217Y0060526D01*
X0198217Y0056098D01*
X0197348Y0055229D01*
X0196833Y0053985D01*
X0196833Y0052639D01*
X0197348Y0051395D01*
X0198300Y0050443D01*
X0199544Y0049928D01*
X0200890Y0049928D01*
X0202134Y0050443D01*
X0203086Y0051395D01*
X0203602Y0052639D01*
X0203602Y0053985D01*
X0203086Y0055229D01*
X0202217Y0056098D01*
X0202217Y0064140D01*
X0201046Y0065312D01*
X0199003Y0065312D01*
X0202217Y0063888D02*
X0249417Y0063888D01*
X0249417Y0062289D02*
X0202217Y0062289D01*
X0202217Y0060691D02*
X0249417Y0060691D01*
X0249417Y0059092D02*
X0202217Y0059092D01*
X0202217Y0057494D02*
X0249417Y0057494D01*
X0249417Y0055895D02*
X0232935Y0055895D01*
X0232935Y0056337D02*
X0231998Y0057274D01*
X0227523Y0057274D01*
X0226586Y0056337D01*
X0226586Y0050287D01*
X0227217Y0049655D01*
X0227217Y0044140D01*
X0223196Y0040119D01*
X0223134Y0040181D01*
X0221890Y0040696D01*
X0220544Y0040696D01*
X0219300Y0040181D01*
X0218348Y0039229D01*
X0217833Y0037985D01*
X0217833Y0036639D01*
X0218348Y0035395D01*
X0219300Y0034443D01*
X0220544Y0033928D01*
X0221890Y0033928D01*
X0223134Y0034443D01*
X0224003Y0035312D01*
X0224046Y0035312D01*
X0225217Y0036483D01*
X0231217Y0042483D01*
X0231217Y0049350D01*
X0231998Y0049350D01*
X0232935Y0050287D01*
X0232935Y0056337D01*
X0232935Y0054297D02*
X0249417Y0054297D01*
X0249417Y0052698D02*
X0232935Y0052698D01*
X0232935Y0051100D02*
X0249417Y0051100D01*
X0249417Y0049501D02*
X0232150Y0049501D01*
X0231217Y0047903D02*
X0249417Y0047903D01*
X0249417Y0046304D02*
X0231217Y0046304D01*
X0231217Y0044706D02*
X0249417Y0044706D01*
X0249417Y0043107D02*
X0231217Y0043107D01*
X0230243Y0041509D02*
X0249417Y0041509D01*
X0249417Y0039910D02*
X0228644Y0039910D01*
X0227046Y0038312D02*
X0249417Y0038312D01*
X0249417Y0036713D02*
X0225447Y0036713D01*
X0223806Y0035115D02*
X0249417Y0035115D01*
X0249417Y0033516D02*
X0165018Y0033516D01*
X0165018Y0031918D02*
X0249417Y0031918D01*
X0249417Y0030319D02*
X0165018Y0030319D01*
X0165018Y0028721D02*
X0249417Y0028721D01*
X0249417Y0027122D02*
X0164361Y0027122D01*
X0165018Y0035115D02*
X0218628Y0035115D01*
X0217833Y0036713D02*
X0165018Y0036713D01*
X0164811Y0038312D02*
X0217968Y0038312D01*
X0219030Y0039910D02*
X0146939Y0039910D01*
X0148537Y0038312D02*
X0153025Y0038312D01*
X0152818Y0036713D02*
X0150136Y0036713D01*
X0151267Y0035115D02*
X0152818Y0035115D01*
X0152818Y0030319D02*
X0145176Y0030319D01*
X0145176Y0028721D02*
X0152818Y0028721D01*
X0153475Y0027122D02*
X0130006Y0027122D01*
X0128408Y0025524D02*
X0249417Y0025524D01*
X0249417Y0023925D02*
X0126809Y0023925D01*
X0125211Y0022327D02*
X0249417Y0022327D01*
X0249417Y0020728D02*
X0034017Y0020728D01*
X0034017Y0019130D02*
X0249417Y0019130D01*
X0226184Y0043107D02*
X0140283Y0043107D01*
X0140917Y0044706D02*
X0227217Y0044706D01*
X0227217Y0046304D02*
X0164176Y0046304D01*
X0164176Y0047903D02*
X0227217Y0047903D01*
X0227217Y0049501D02*
X0225063Y0049501D01*
X0224912Y0049350D02*
X0225849Y0050287D01*
X0225849Y0056337D01*
X0224912Y0057274D01*
X0220436Y0057274D01*
X0219499Y0056337D01*
X0219499Y0055312D01*
X0217003Y0055312D01*
X0216134Y0056181D01*
X0214890Y0056696D01*
X0213544Y0056696D01*
X0212300Y0056181D01*
X0211348Y0055229D01*
X0210833Y0053985D01*
X0210833Y0052639D01*
X0211348Y0051395D01*
X0212300Y0050443D01*
X0213544Y0049928D01*
X0214890Y0049928D01*
X0216134Y0050443D01*
X0217003Y0051312D01*
X0219499Y0051312D01*
X0219499Y0050287D01*
X0220436Y0049350D01*
X0224912Y0049350D01*
X0225849Y0051100D02*
X0226586Y0051100D01*
X0226586Y0052698D02*
X0225849Y0052698D01*
X0225849Y0054297D02*
X0226586Y0054297D01*
X0226586Y0055895D02*
X0225849Y0055895D01*
X0220285Y0049501D02*
X0164176Y0049501D01*
X0164176Y0051100D02*
X0197643Y0051100D01*
X0196833Y0052698D02*
X0164176Y0052698D01*
X0164176Y0054297D02*
X0196962Y0054297D01*
X0198015Y0055895D02*
X0164176Y0055895D01*
X0163520Y0057494D02*
X0198217Y0057494D01*
X0198217Y0059092D02*
X0164176Y0059092D01*
X0164176Y0060691D02*
X0194052Y0060691D01*
X0192978Y0062289D02*
X0164176Y0062289D01*
X0164176Y0063888D02*
X0192833Y0063888D01*
X0193606Y0065487D02*
X0164176Y0065487D01*
X0150601Y0051100D02*
X0145317Y0051100D01*
X0145317Y0052698D02*
X0149002Y0052698D01*
X0147404Y0054297D02*
X0145317Y0054297D01*
X0145317Y0049501D02*
X0151976Y0049501D01*
X0151976Y0047903D02*
X0145317Y0047903D01*
X0145317Y0046304D02*
X0151976Y0046304D01*
X0145340Y0041509D02*
X0224586Y0041509D01*
X0219499Y0051100D02*
X0216791Y0051100D01*
X0211643Y0051100D02*
X0202791Y0051100D01*
X0203602Y0052698D02*
X0210833Y0052698D01*
X0210962Y0054297D02*
X0203472Y0054297D01*
X0202420Y0055895D02*
X0212015Y0055895D01*
X0216420Y0055895D02*
X0219499Y0055895D01*
X0210113Y0071881D02*
X0249417Y0071881D01*
X0249417Y0073479D02*
X0210006Y0073479D01*
X0209900Y0075078D02*
X0249417Y0075078D01*
X0249417Y0076676D02*
X0209793Y0076676D01*
X0209686Y0078275D02*
X0249417Y0078275D01*
X0249417Y0079873D02*
X0209580Y0079873D01*
X0209473Y0081472D02*
X0249417Y0081472D01*
X0249417Y0083070D02*
X0220295Y0083070D01*
X0221894Y0084669D02*
X0249417Y0084669D01*
X0249417Y0086267D02*
X0223493Y0086267D01*
X0225091Y0087866D02*
X0249417Y0087866D01*
X0249417Y0089464D02*
X0226690Y0089464D01*
X0228288Y0091063D02*
X0249417Y0091063D01*
X0249417Y0092661D02*
X0229887Y0092661D01*
X0231485Y0094260D02*
X0249417Y0094260D01*
X0249417Y0095858D02*
X0233084Y0095858D01*
X0234682Y0097457D02*
X0249417Y0097457D01*
X0249417Y0099055D02*
X0236281Y0099055D01*
X0239478Y0102252D02*
X0249417Y0102252D01*
X0249417Y0103851D02*
X0241076Y0103851D01*
X0242675Y0105449D02*
X0249417Y0105449D01*
X0249417Y0107048D02*
X0244273Y0107048D01*
X0245317Y0108646D02*
X0249417Y0108646D01*
X0249417Y0110245D02*
X0245317Y0110245D01*
X0246322Y0111843D02*
X0249417Y0111843D01*
X0249417Y0113442D02*
X0247276Y0113442D01*
X0247455Y0115040D02*
X0249417Y0115040D01*
X0249417Y0116639D02*
X0246998Y0116639D01*
X0245652Y0118237D02*
X0249417Y0118237D01*
X0249417Y0119836D02*
X0241003Y0119836D01*
X0240908Y0118237D02*
X0240501Y0118237D01*
X0241506Y0121434D02*
X0249417Y0121434D01*
X0249417Y0123033D02*
X0241669Y0123033D01*
X0241213Y0124631D02*
X0249417Y0124631D01*
X0249417Y0126230D02*
X0240804Y0126230D01*
X0240395Y0127828D02*
X0249417Y0127828D01*
X0249417Y0129427D02*
X0239985Y0129427D01*
X0239576Y0131025D02*
X0249417Y0131025D01*
X0249417Y0132624D02*
X0239167Y0132624D01*
X0238758Y0134222D02*
X0249417Y0134222D01*
X0249417Y0135821D02*
X0238349Y0135821D01*
X0237939Y0137420D02*
X0249417Y0137420D01*
X0249417Y0139018D02*
X0237530Y0139018D01*
X0237121Y0140617D02*
X0249417Y0140617D01*
X0249417Y0142215D02*
X0236712Y0142215D01*
X0236303Y0143814D02*
X0249417Y0143814D01*
X0249417Y0145412D02*
X0235894Y0145412D01*
X0235484Y0147011D02*
X0249417Y0147011D01*
X0249417Y0148609D02*
X0235075Y0148609D01*
X0234666Y0150208D02*
X0249417Y0150208D01*
X0249417Y0151806D02*
X0235255Y0151806D01*
X0235683Y0153405D02*
X0249417Y0153405D01*
X0249417Y0155003D02*
X0235475Y0155003D01*
X0234481Y0156602D02*
X0249417Y0156602D01*
X0249417Y0158200D02*
X0229623Y0158200D01*
X0228536Y0156602D02*
X0228266Y0156602D01*
X0227542Y0155003D02*
X0226908Y0155003D01*
X0226759Y0153405D02*
X0227334Y0153405D01*
X0227762Y0151806D02*
X0226819Y0151806D01*
X0226878Y0150208D02*
X0229067Y0150208D01*
X0230533Y0148609D02*
X0226938Y0148609D01*
X0228073Y0147011D02*
X0230942Y0147011D01*
X0231352Y0145412D02*
X0228872Y0145412D01*
X0228872Y0143814D02*
X0231761Y0143814D01*
X0232170Y0142215D02*
X0228872Y0142215D01*
X0227967Y0140139D02*
X0227509Y0140261D01*
X0224910Y0140261D01*
X0224910Y0136887D01*
X0224910Y0136887D01*
X0224910Y0136887D01*
X0229072Y0136887D01*
X0229072Y0138698D01*
X0228950Y0139156D01*
X0228713Y0139567D01*
X0228378Y0139902D01*
X0227967Y0140139D01*
X0228987Y0139018D02*
X0232988Y0139018D01*
X0232579Y0140617D02*
X0220998Y0140617D01*
X0220748Y0137080D02*
X0220748Y0136887D01*
X0220748Y0136268D01*
X0220342Y0136674D01*
X0220748Y0137080D01*
X0220998Y0134222D02*
X0221098Y0134222D01*
X0220998Y0132624D02*
X0234625Y0132624D01*
X0234216Y0134222D02*
X0228722Y0134222D01*
X0228713Y0134207D02*
X0228950Y0134617D01*
X0229072Y0135075D01*
X0229072Y0136887D01*
X0224910Y0136887D01*
X0224910Y0136887D01*
X0224910Y0136886D02*
X0224910Y0133512D01*
X0227509Y0133512D01*
X0227967Y0133634D01*
X0228378Y0133871D01*
X0228713Y0134207D01*
X0229072Y0135821D02*
X0233807Y0135821D01*
X0233398Y0137420D02*
X0229072Y0137420D01*
X0224910Y0137420D02*
X0224910Y0137420D01*
X0224910Y0139018D02*
X0224910Y0139018D01*
X0224910Y0135821D02*
X0224910Y0135821D01*
X0224910Y0134222D02*
X0224910Y0134222D01*
X0228822Y0131025D02*
X0235034Y0131025D01*
X0235444Y0129427D02*
X0231666Y0129427D01*
X0235271Y0127828D02*
X0235853Y0127828D01*
X0230102Y0124631D02*
X0228054Y0124631D01*
X0227848Y0124687D02*
X0225249Y0124687D01*
X0225249Y0121312D01*
X0225249Y0121312D01*
X0229411Y0121312D01*
X0229411Y0123124D01*
X0229288Y0123581D01*
X0229051Y0123992D01*
X0228716Y0124327D01*
X0228306Y0124564D01*
X0227848Y0124687D01*
X0229411Y0123033D02*
X0230074Y0123033D01*
X0230682Y0121434D02*
X0229411Y0121434D01*
X0229411Y0121312D02*
X0225249Y0121312D01*
X0225249Y0121312D01*
X0225249Y0124687D01*
X0222650Y0124687D01*
X0222192Y0124564D01*
X0221781Y0124327D01*
X0221446Y0123992D01*
X0221209Y0123581D01*
X0221087Y0123124D01*
X0221087Y0121312D01*
X0225249Y0121312D01*
X0225249Y0121312D01*
X0221087Y0121312D01*
X0221087Y0119500D01*
X0221209Y0119042D01*
X0221446Y0118632D01*
X0221781Y0118297D01*
X0222192Y0118060D01*
X0222344Y0118019D01*
X0221880Y0117555D01*
X0221476Y0116998D01*
X0221163Y0116385D01*
X0220950Y0115730D01*
X0220843Y0115050D01*
X0220843Y0114706D01*
X0225217Y0114706D01*
X0225217Y0114705D01*
X0225217Y0114705D01*
X0225217Y0110331D01*
X0224873Y0110331D01*
X0224193Y0110438D01*
X0223538Y0110651D01*
X0222924Y0110964D01*
X0222367Y0111369D01*
X0221880Y0111856D01*
X0221476Y0112413D01*
X0221163Y0113026D01*
X0220950Y0113681D01*
X0220843Y0114361D01*
X0220843Y0114705D01*
X0225217Y0114705D01*
X0225217Y0110331D01*
X0225562Y0110331D01*
X0226242Y0110438D01*
X0226897Y0110651D01*
X0227510Y0110964D01*
X0228067Y0111369D01*
X0228554Y0111856D01*
X0228959Y0112413D01*
X0229272Y0113026D01*
X0229484Y0113681D01*
X0229592Y0114361D01*
X0229592Y0114705D01*
X0225217Y0114705D01*
X0225217Y0114706D01*
X0229592Y0114706D01*
X0229592Y0115050D01*
X0229484Y0115730D01*
X0229272Y0116385D01*
X0228959Y0116998D01*
X0228554Y0117555D01*
X0228104Y0118006D01*
X0228306Y0118060D01*
X0228716Y0118297D01*
X0229051Y0118632D01*
X0229288Y0119042D01*
X0229411Y0119500D01*
X0229411Y0121312D01*
X0229411Y0119836D02*
X0232748Y0119836D01*
X0234614Y0118237D02*
X0228614Y0118237D01*
X0229142Y0116639D02*
X0233674Y0116639D01*
X0232735Y0115040D02*
X0229592Y0115040D01*
X0229407Y0113442D02*
X0231795Y0113442D01*
X0230855Y0111843D02*
X0228542Y0111843D01*
X0229915Y0110245D02*
X0220280Y0110245D01*
X0220280Y0110069D02*
X0220280Y0111880D01*
X0220157Y0112338D01*
X0219920Y0112749D01*
X0219585Y0113084D01*
X0219174Y0113321D01*
X0218716Y0113443D01*
X0216117Y0113443D01*
X0213518Y0113443D01*
X0213060Y0113321D01*
X0212650Y0113084D01*
X0212315Y0112749D01*
X0212078Y0112338D01*
X0211955Y0111880D01*
X0211955Y0110069D01*
X0216117Y0110069D01*
X0216117Y0113443D01*
X0216117Y0110069D01*
X0216117Y0110069D01*
X0216117Y0110068D01*
X0216117Y0110069D01*
X0220280Y0110069D01*
X0220280Y0111843D02*
X0221893Y0111843D01*
X0221028Y0113442D02*
X0218722Y0113442D01*
X0220080Y0115040D02*
X0220843Y0115040D01*
X0221292Y0116639D02*
X0220080Y0116639D01*
X0220080Y0118237D02*
X0221884Y0118237D01*
X0221087Y0119836D02*
X0219636Y0119836D01*
X0220103Y0121434D02*
X0221087Y0121434D01*
X0221087Y0123033D02*
X0220998Y0123033D01*
X0220998Y0124631D02*
X0222444Y0124631D01*
X0221287Y0126230D02*
X0220786Y0126230D01*
X0225249Y0124631D02*
X0225249Y0124631D01*
X0225249Y0123033D02*
X0225249Y0123033D01*
X0225249Y0121434D02*
X0225249Y0121434D01*
X0225217Y0113442D02*
X0225217Y0113442D01*
X0225217Y0111843D02*
X0225217Y0111843D01*
X0216117Y0111843D02*
X0216117Y0111843D01*
X0216117Y0110245D02*
X0216117Y0110245D01*
X0216117Y0113442D02*
X0216117Y0113442D01*
X0213513Y0113442D02*
X0163817Y0113442D01*
X0162219Y0111843D02*
X0181217Y0111843D01*
X0181217Y0110245D02*
X0160620Y0110245D01*
X0159476Y0115040D02*
X0154317Y0115040D01*
X0154317Y0116639D02*
X0161075Y0116639D01*
X0162673Y0118237D02*
X0154317Y0118237D01*
X0154317Y0119836D02*
X0157907Y0119836D01*
X0156918Y0121434D02*
X0154317Y0121434D01*
X0154317Y0123033D02*
X0156853Y0123033D01*
X0157751Y0124631D02*
X0154317Y0124631D01*
X0154317Y0126230D02*
X0161217Y0126230D01*
X0161217Y0127828D02*
X0154317Y0127828D01*
X0154317Y0129427D02*
X0161217Y0129427D01*
X0161217Y0131025D02*
X0154317Y0131025D01*
X0154317Y0132624D02*
X0161217Y0132624D01*
X0161217Y0134222D02*
X0154317Y0134222D01*
X0154317Y0135821D02*
X0161217Y0135821D01*
X0161217Y0137420D02*
X0154317Y0137420D01*
X0154317Y0139018D02*
X0161217Y0139018D01*
X0160256Y0140617D02*
X0154317Y0140617D01*
X0154317Y0142215D02*
X0154528Y0142215D01*
X0159305Y0147011D02*
X0170249Y0147011D01*
X0168650Y0148609D02*
X0155748Y0148609D01*
X0154150Y0150208D02*
X0167052Y0150208D01*
X0165453Y0151806D02*
X0151509Y0151806D01*
X0149780Y0153405D02*
X0163855Y0153405D01*
X0162256Y0155003D02*
X0151378Y0155003D01*
X0155980Y0156602D02*
X0156717Y0156602D01*
X0156717Y0158200D02*
X0155980Y0158200D01*
X0156174Y0159799D02*
X0156717Y0159799D01*
X0156667Y0161397D02*
X0156717Y0161397D01*
X0156667Y0162996D02*
X0157098Y0162996D01*
X0156667Y0164594D02*
X0164617Y0164594D01*
X0164617Y0162996D02*
X0162685Y0162996D01*
X0163066Y0161397D02*
X0164562Y0161397D01*
X0168873Y0161397D02*
X0169188Y0161397D01*
X0170060Y0159799D02*
X0178917Y0159799D01*
X0176476Y0161397D02*
X0174160Y0161397D01*
X0175049Y0162996D02*
X0175586Y0162996D01*
X0175586Y0164594D02*
X0175049Y0164594D01*
X0175049Y0165312D02*
X0171674Y0165312D01*
X0175049Y0165312D01*
X0175049Y0166193D02*
X0175586Y0166193D01*
X0175586Y0167791D02*
X0175049Y0167791D01*
X0175499Y0169390D02*
X0173800Y0169390D01*
X0174114Y0170988D02*
X0175499Y0170988D01*
X0171371Y0174185D02*
X0156667Y0174185D01*
X0156667Y0172587D02*
X0169772Y0172587D01*
X0168174Y0170988D02*
X0156667Y0170988D01*
X0156667Y0169390D02*
X0166575Y0169390D01*
X0164977Y0167791D02*
X0156667Y0167791D01*
X0156667Y0166193D02*
X0164617Y0166193D01*
X0171674Y0165312D02*
X0171674Y0161150D01*
X0171674Y0165312D01*
X0171674Y0165312D01*
X0171674Y0165312D01*
X0171674Y0164594D02*
X0171674Y0164594D01*
X0171674Y0162996D02*
X0171674Y0162996D01*
X0171674Y0161397D02*
X0171674Y0161397D01*
X0171674Y0159474D02*
X0171674Y0155312D01*
X0171674Y0155312D01*
X0171674Y0159474D01*
X0171674Y0158200D02*
X0171674Y0158200D01*
X0171674Y0156602D02*
X0171674Y0156602D01*
X0171674Y0155312D02*
X0175049Y0155312D01*
X0171674Y0155312D01*
X0171674Y0155312D01*
X0175049Y0155003D02*
X0175186Y0155003D01*
X0175186Y0153405D02*
X0175049Y0153405D01*
X0174651Y0151806D02*
X0175501Y0151806D01*
X0172991Y0150208D02*
X0210255Y0150208D01*
X0210255Y0149531D02*
X0211192Y0148594D01*
X0217242Y0148594D01*
X0218180Y0149531D01*
X0218180Y0154006D01*
X0217242Y0154943D01*
X0211192Y0154943D01*
X0210255Y0154006D01*
X0210255Y0149531D01*
X0211177Y0148609D02*
X0174590Y0148609D01*
X0175049Y0143814D02*
X0175586Y0143814D01*
X0175049Y0142312D02*
X0171674Y0142312D01*
X0171674Y0142312D01*
X0168299Y0142312D01*
X0168299Y0139713D01*
X0168422Y0139255D01*
X0168659Y0138844D01*
X0168994Y0138509D01*
X0169404Y0138272D01*
X0169862Y0138150D01*
X0171674Y0138150D01*
X0173486Y0138150D01*
X0173944Y0138272D01*
X0174354Y0138509D01*
X0174689Y0138844D01*
X0174926Y0139255D01*
X0175049Y0139713D01*
X0175049Y0142312D01*
X0175049Y0142215D02*
X0175586Y0142215D01*
X0175586Y0140617D02*
X0175049Y0140617D01*
X0174789Y0139018D02*
X0175855Y0139018D01*
X0175575Y0137420D02*
X0165217Y0137420D01*
X0165217Y0139018D02*
X0168559Y0139018D01*
X0168299Y0140617D02*
X0166178Y0140617D01*
X0166602Y0142215D02*
X0168299Y0142215D01*
X0168299Y0143814D02*
X0166258Y0143814D01*
X0164576Y0145412D02*
X0168447Y0145412D01*
X0171674Y0142312D02*
X0171674Y0142312D01*
X0171674Y0138150D01*
X0171674Y0142312D01*
X0171674Y0142215D02*
X0171674Y0142215D01*
X0171674Y0140617D02*
X0171674Y0140617D01*
X0171674Y0139018D02*
X0171674Y0139018D01*
X0175267Y0135821D02*
X0165217Y0135821D01*
X0165217Y0134222D02*
X0175691Y0134222D01*
X0177518Y0132624D02*
X0165217Y0132624D01*
X0165217Y0131025D02*
X0188672Y0131025D01*
X0188665Y0129427D02*
X0165217Y0129427D01*
X0165217Y0127828D02*
X0188665Y0127828D01*
X0188504Y0126230D02*
X0165217Y0126230D01*
X0165217Y0124631D02*
X0185248Y0124631D01*
X0183970Y0123033D02*
X0163767Y0123033D01*
X0163517Y0121434D02*
X0183707Y0121434D01*
X0180216Y0132624D02*
X0188665Y0132624D01*
X0188665Y0134222D02*
X0182043Y0134222D01*
X0182467Y0135821D02*
X0187288Y0135821D01*
X0186590Y0137420D02*
X0182160Y0137420D01*
X0181667Y0139018D02*
X0184991Y0139018D01*
X0183393Y0140617D02*
X0181935Y0140617D01*
X0186135Y0143814D02*
X0216596Y0143814D01*
X0218195Y0145412D02*
X0184537Y0145412D01*
X0182938Y0147011D02*
X0221748Y0147011D01*
X0222535Y0148609D02*
X0217258Y0148609D01*
X0218180Y0150208D02*
X0222475Y0150208D01*
X0222415Y0151806D02*
X0218180Y0151806D01*
X0218180Y0153405D02*
X0222356Y0153405D01*
X0222296Y0155003D02*
X0209705Y0155003D01*
X0209484Y0154912D02*
X0210734Y0155429D01*
X0211089Y0155784D01*
X0211192Y0155680D01*
X0217242Y0155680D01*
X0218180Y0156618D01*
X0218180Y0161093D01*
X0217242Y0162030D01*
X0211192Y0162030D01*
X0210467Y0161305D01*
X0209484Y0161712D01*
X0208132Y0161712D01*
X0206882Y0161194D01*
X0205925Y0160238D01*
X0205408Y0158988D01*
X0205408Y0157635D01*
X0205925Y0156386D01*
X0206882Y0155429D01*
X0208132Y0154912D01*
X0209484Y0154912D01*
X0207911Y0155003D02*
X0202739Y0155003D01*
X0202739Y0156602D02*
X0205836Y0156602D01*
X0205408Y0158200D02*
X0202739Y0158200D01*
X0202739Y0159799D02*
X0205744Y0159799D01*
X0207372Y0161397D02*
X0201667Y0161397D01*
X0201153Y0162996D02*
X0218102Y0162996D01*
X0218300Y0161397D02*
X0217875Y0161397D01*
X0218180Y0159799D02*
X0219189Y0159799D01*
X0218180Y0158200D02*
X0223850Y0158200D01*
X0222477Y0159799D02*
X0222477Y0159799D01*
X0222477Y0161397D02*
X0222477Y0161397D01*
X0222477Y0162996D02*
X0222477Y0162996D01*
X0222477Y0164594D02*
X0222477Y0164594D01*
X0222477Y0166193D02*
X0222477Y0166193D01*
X0219845Y0166193D02*
X0203139Y0166193D01*
X0203139Y0167791D02*
X0227520Y0167791D01*
X0227250Y0166193D02*
X0225109Y0166193D01*
X0226421Y0164594D02*
X0226980Y0164594D01*
X0230902Y0161397D02*
X0236560Y0161397D01*
X0236365Y0161867D02*
X0237001Y0160333D01*
X0238175Y0159158D01*
X0239710Y0158523D01*
X0241371Y0158523D01*
X0242905Y0159158D01*
X0244079Y0160333D01*
X0244715Y0161867D01*
X0244715Y0163528D01*
X0244079Y0165062D01*
X0242905Y0166237D01*
X0241371Y0166872D01*
X0239710Y0166872D01*
X0238175Y0166237D01*
X0237001Y0165062D01*
X0236365Y0163528D01*
X0236365Y0161867D01*
X0236365Y0162996D02*
X0231172Y0162996D01*
X0231442Y0164594D02*
X0236807Y0164594D01*
X0238131Y0166193D02*
X0231712Y0166193D01*
X0232920Y0167791D02*
X0249417Y0167791D01*
X0249417Y0166193D02*
X0242949Y0166193D01*
X0244273Y0164594D02*
X0249417Y0164594D01*
X0249417Y0162996D02*
X0244715Y0162996D01*
X0244520Y0161397D02*
X0249417Y0161397D01*
X0249417Y0159799D02*
X0243545Y0159799D01*
X0237535Y0159799D02*
X0230721Y0159799D01*
X0222461Y0156602D02*
X0218164Y0156602D01*
X0218534Y0164594D02*
X0203139Y0164594D01*
X0203139Y0169390D02*
X0227789Y0169390D01*
X0227334Y0170988D02*
X0202794Y0170988D01*
X0202567Y0172587D02*
X0227347Y0172587D01*
X0228065Y0174185D02*
X0202567Y0174185D01*
X0202567Y0175784D02*
X0230398Y0175784D01*
X0232620Y0175784D02*
X0249417Y0175784D01*
X0249417Y0177382D02*
X0202567Y0177382D01*
X0202567Y0178981D02*
X0249417Y0178981D01*
X0249417Y0180579D02*
X0202567Y0180579D01*
X0202567Y0182178D02*
X0249417Y0182178D01*
X0249417Y0183776D02*
X0202567Y0183776D01*
X0202567Y0185375D02*
X0249417Y0185375D01*
X0249417Y0186973D02*
X0202567Y0186973D01*
X0202567Y0188572D02*
X0249417Y0188572D01*
X0249417Y0190170D02*
X0202567Y0190170D01*
X0202567Y0191769D02*
X0220977Y0191769D01*
X0220598Y0191925D02*
X0221848Y0191408D01*
X0223201Y0191408D01*
X0224450Y0191925D01*
X0225407Y0192882D01*
X0225924Y0194132D01*
X0225924Y0195097D01*
X0226417Y0195590D01*
X0226417Y0202594D01*
X0227242Y0202594D01*
X0228180Y0203531D01*
X0228180Y0205446D01*
X0231046Y0208312D01*
X0232217Y0209483D01*
X0232217Y0219526D01*
X0233086Y0220395D01*
X0233602Y0221639D01*
X0233602Y0222985D01*
X0233086Y0224229D01*
X0232134Y0225181D01*
X0230890Y0225696D01*
X0229544Y0225696D01*
X0228300Y0225181D01*
X0227348Y0224229D01*
X0226833Y0222985D01*
X0226833Y0221639D01*
X0227348Y0220395D01*
X0228217Y0219526D01*
X0228217Y0211140D01*
X0228180Y0211102D01*
X0228180Y0215093D01*
X0227242Y0216030D01*
X0226693Y0216030D01*
X0226693Y0223696D01*
X0227375Y0224378D01*
X0227893Y0225628D01*
X0227893Y0226980D01*
X0227375Y0228230D01*
X0226419Y0229186D01*
X0225169Y0229704D01*
X0223817Y0229704D01*
X0222567Y0229186D01*
X0221611Y0228230D01*
X0221093Y0226980D01*
X0221093Y0225628D01*
X0221611Y0224378D01*
X0222293Y0223696D01*
X0222293Y0216030D01*
X0221192Y0216030D01*
X0220255Y0215093D01*
X0220255Y0210618D01*
X0221192Y0209680D01*
X0226757Y0209680D01*
X0226020Y0208943D01*
X0221192Y0208943D01*
X0220255Y0208006D01*
X0220255Y0203531D01*
X0221192Y0202594D01*
X0222017Y0202594D01*
X0222017Y0198208D01*
X0221848Y0198208D01*
X0220598Y0197690D01*
X0219642Y0196734D01*
X0219124Y0195484D01*
X0219124Y0194132D01*
X0219642Y0192882D01*
X0220598Y0191925D01*
X0219441Y0193367D02*
X0202567Y0193367D01*
X0202567Y0194966D02*
X0219124Y0194966D01*
X0219572Y0196564D02*
X0202567Y0196564D01*
X0202567Y0198163D02*
X0221740Y0198163D01*
X0222017Y0199761D02*
X0202567Y0199761D01*
X0202567Y0201360D02*
X0222017Y0201360D01*
X0220828Y0202958D02*
X0202567Y0202958D01*
X0201815Y0204557D02*
X0220255Y0204557D01*
X0220255Y0206155D02*
X0200216Y0206155D01*
X0198618Y0207754D02*
X0220255Y0207754D01*
X0220255Y0210951D02*
X0195421Y0210951D01*
X0197019Y0209353D02*
X0226430Y0209353D01*
X0228180Y0212550D02*
X0228217Y0212550D01*
X0228180Y0214148D02*
X0228217Y0214148D01*
X0228217Y0215747D02*
X0227526Y0215747D01*
X0228217Y0217345D02*
X0226693Y0217345D01*
X0226693Y0218944D02*
X0228217Y0218944D01*
X0227287Y0220542D02*
X0226693Y0220542D01*
X0226693Y0222141D02*
X0226833Y0222141D01*
X0226736Y0223739D02*
X0227145Y0223739D01*
X0227773Y0225338D02*
X0228679Y0225338D01*
X0227893Y0226936D02*
X0249417Y0226936D01*
X0249417Y0225338D02*
X0231756Y0225338D01*
X0233289Y0223739D02*
X0249417Y0223739D01*
X0249417Y0222141D02*
X0233602Y0222141D01*
X0233147Y0220542D02*
X0249417Y0220542D01*
X0249417Y0218944D02*
X0232217Y0218944D01*
X0232217Y0217345D02*
X0249417Y0217345D01*
X0249417Y0215747D02*
X0232217Y0215747D01*
X0232217Y0214148D02*
X0249417Y0214148D01*
X0249417Y0212550D02*
X0232217Y0212550D01*
X0232217Y0210951D02*
X0249417Y0210951D01*
X0249417Y0209353D02*
X0232086Y0209353D01*
X0230488Y0207754D02*
X0249417Y0207754D01*
X0249417Y0206155D02*
X0228889Y0206155D01*
X0228180Y0204557D02*
X0249417Y0204557D01*
X0249417Y0202958D02*
X0227607Y0202958D01*
X0226417Y0201360D02*
X0249417Y0201360D01*
X0249417Y0199761D02*
X0226417Y0199761D01*
X0226417Y0198163D02*
X0249417Y0198163D01*
X0249417Y0196564D02*
X0226417Y0196564D01*
X0225924Y0194966D02*
X0249417Y0194966D01*
X0249417Y0193367D02*
X0225608Y0193367D01*
X0224072Y0191769D02*
X0249417Y0191769D01*
X0249417Y0174185D02*
X0234953Y0174185D01*
X0235671Y0172587D02*
X0249417Y0172587D01*
X0249417Y0170988D02*
X0235683Y0170988D01*
X0235060Y0169390D02*
X0249417Y0169390D01*
X0214997Y0142215D02*
X0187734Y0142215D01*
X0182020Y0151806D02*
X0210255Y0151806D01*
X0210255Y0153405D02*
X0201998Y0153405D01*
X0196217Y0153405D02*
X0196217Y0153405D01*
X0196217Y0155003D02*
X0196217Y0155003D01*
X0196217Y0156602D02*
X0196217Y0156602D01*
X0196217Y0158200D02*
X0196217Y0158200D01*
X0196217Y0159799D02*
X0196217Y0159799D01*
X0196812Y0161397D02*
X0194622Y0161397D01*
X0195214Y0162996D02*
X0185390Y0162996D01*
X0186590Y0161397D02*
X0190333Y0161397D01*
X0189296Y0159799D02*
X0186917Y0159799D01*
X0189696Y0164594D02*
X0181935Y0164594D01*
X0175186Y0158200D02*
X0174971Y0158200D01*
X0175049Y0156602D02*
X0175186Y0156602D01*
X0161859Y0145412D02*
X0160425Y0145412D01*
X0162527Y0119836D02*
X0164272Y0119836D01*
X0165416Y0115040D02*
X0212155Y0115040D01*
X0212155Y0116639D02*
X0197614Y0116639D01*
X0199213Y0118237D02*
X0212155Y0118237D01*
X0212598Y0119836D02*
X0200811Y0119836D01*
X0202410Y0121434D02*
X0210033Y0121434D01*
X0209137Y0123033D02*
X0202567Y0123033D01*
X0202567Y0124631D02*
X0209137Y0124631D01*
X0209349Y0126230D02*
X0202567Y0126230D01*
X0202567Y0127828D02*
X0209137Y0127828D01*
X0209137Y0129427D02*
X0202567Y0129427D01*
X0202567Y0131025D02*
X0209145Y0131025D01*
X0209137Y0132624D02*
X0202567Y0132624D01*
X0202567Y0134222D02*
X0209137Y0134222D01*
X0209137Y0135821D02*
X0202567Y0135821D01*
X0201979Y0137420D02*
X0209137Y0137420D01*
X0209137Y0139018D02*
X0200526Y0139018D01*
X0200526Y0140617D02*
X0209137Y0140617D01*
X0210244Y0161397D02*
X0210560Y0161397D01*
X0196567Y0172587D02*
X0196062Y0172587D01*
X0196567Y0174185D02*
X0188935Y0174185D01*
X0188488Y0175784D02*
X0196567Y0175784D01*
X0196567Y0177382D02*
X0183617Y0177382D01*
X0174568Y0177382D02*
X0157727Y0177382D01*
X0158167Y0178981D02*
X0196567Y0178981D01*
X0196567Y0180579D02*
X0157877Y0180579D01*
X0156642Y0182178D02*
X0196567Y0182178D01*
X0196567Y0183776D02*
X0132094Y0183776D01*
X0133210Y0182178D02*
X0152492Y0182178D01*
X0156667Y0175784D02*
X0172969Y0175784D01*
X0196567Y0185375D02*
X0130023Y0185375D01*
X0130935Y0186973D02*
X0196567Y0186973D01*
X0196567Y0188572D02*
X0130935Y0188572D01*
X0131730Y0190170D02*
X0196567Y0190170D01*
X0196567Y0191769D02*
X0132205Y0191769D01*
X0132205Y0193367D02*
X0196567Y0193367D01*
X0194797Y0194966D02*
X0132205Y0194966D01*
X0132205Y0196564D02*
X0194217Y0196564D01*
X0194302Y0198163D02*
X0133518Y0198163D01*
X0135117Y0199761D02*
X0195160Y0199761D01*
X0196527Y0201360D02*
X0136715Y0201360D01*
X0137126Y0202958D02*
X0194928Y0202958D01*
X0193329Y0204557D02*
X0137126Y0204557D01*
X0137126Y0206155D02*
X0191731Y0206155D01*
X0190132Y0207754D02*
X0137126Y0207754D01*
X0137126Y0209353D02*
X0188534Y0209353D01*
X0186935Y0210951D02*
X0137126Y0210951D01*
X0137126Y0212550D02*
X0184855Y0212550D01*
X0193580Y0214148D02*
X0220255Y0214148D01*
X0220255Y0212550D02*
X0193822Y0212550D01*
X0193580Y0215747D02*
X0220909Y0215747D01*
X0222293Y0217345D02*
X0193406Y0217345D01*
X0197190Y0218944D02*
X0207313Y0218944D01*
X0210713Y0221383D02*
X0199887Y0221383D01*
X0195950Y0225320D01*
X0183154Y0225320D01*
X0181186Y0223351D01*
X0162485Y0223351D01*
X0167485Y0225751D02*
X0167717Y0225983D01*
X0167717Y0233512D01*
X0194117Y0233512D01*
X0194117Y0227720D01*
X0182677Y0227720D01*
X0181795Y0227354D01*
X0180192Y0225751D01*
X0167485Y0225751D01*
X0167717Y0226936D02*
X0181377Y0226936D01*
X0194117Y0228535D02*
X0167717Y0228535D01*
X0167717Y0230133D02*
X0194117Y0230133D01*
X0194117Y0231732D02*
X0167717Y0231732D01*
X0167717Y0233330D02*
X0194117Y0233330D01*
X0199326Y0225338D02*
X0221213Y0225338D01*
X0221093Y0226936D02*
X0206104Y0226936D01*
X0206317Y0228535D02*
X0221915Y0228535D01*
X0222249Y0223739D02*
X0214113Y0223739D01*
X0214113Y0222141D02*
X0222293Y0222141D01*
X0222293Y0220542D02*
X0214113Y0220542D01*
X0214113Y0218944D02*
X0222293Y0218944D01*
X0227070Y0228535D02*
X0249417Y0228535D01*
X0249417Y0230133D02*
X0206317Y0230133D01*
X0206317Y0231732D02*
X0249417Y0231732D01*
X0249417Y0233330D02*
X0206317Y0233330D01*
X0161688Y0214148D02*
X0137126Y0214148D01*
X0137126Y0215747D02*
X0160090Y0215747D01*
X0158491Y0217345D02*
X0137126Y0217345D01*
X0137126Y0218944D02*
X0156893Y0218944D01*
X0155487Y0220542D02*
X0137126Y0220542D01*
X0137126Y0222141D02*
X0155167Y0222141D01*
X0155167Y0223739D02*
X0137126Y0223739D01*
X0137126Y0225338D02*
X0155167Y0225338D01*
X0154717Y0226936D02*
X0137126Y0226936D01*
X0135807Y0228535D02*
X0154717Y0228535D01*
X0154717Y0230133D02*
X0134208Y0230133D01*
X0133405Y0231732D02*
X0154717Y0231732D01*
X0154717Y0233330D02*
X0132708Y0233330D01*
X0127301Y0233330D02*
X0120467Y0233330D01*
X0122066Y0231732D02*
X0126605Y0231732D01*
X0126777Y0230133D02*
X0123664Y0230133D01*
X0126677Y0228535D02*
X0127887Y0228535D01*
X0127499Y0226936D02*
X0131182Y0226936D01*
X0129679Y0225338D02*
X0127379Y0225338D01*
X0128145Y0223739D02*
X0126343Y0223739D01*
X0127833Y0222141D02*
X0114967Y0222141D01*
X0114880Y0223739D02*
X0121856Y0223739D01*
X0120819Y0225338D02*
X0113933Y0225338D01*
X0110213Y0226936D02*
X0120073Y0226936D01*
X0118474Y0228535D02*
X0108935Y0228535D01*
X0108935Y0230133D02*
X0116876Y0230133D01*
X0117209Y0233194D02*
X0088666Y0233194D01*
X0087682Y0232209D01*
X0079808Y0232209D01*
X0076592Y0233330D02*
X0065753Y0233330D01*
X0065691Y0233392D02*
X0050366Y0233392D01*
X0049428Y0232455D01*
X0049428Y0217129D01*
X0050366Y0216192D01*
X0065691Y0216192D01*
X0066628Y0217129D01*
X0066628Y0232455D01*
X0065691Y0233392D01*
X0066628Y0231732D02*
X0076408Y0231732D01*
X0077076Y0230133D02*
X0066628Y0230133D01*
X0066628Y0228535D02*
X0095499Y0228535D01*
X0095499Y0230133D02*
X0088941Y0230133D01*
X0095499Y0226936D02*
X0066628Y0226936D01*
X0066628Y0225338D02*
X0095499Y0225338D01*
X0097117Y0223739D02*
X0066628Y0223739D01*
X0066628Y0222141D02*
X0097117Y0222141D01*
X0097117Y0220542D02*
X0066628Y0220542D01*
X0066628Y0218944D02*
X0097117Y0218944D01*
X0095508Y0217345D02*
X0066628Y0217345D01*
X0076466Y0206903D02*
X0075397Y0205834D01*
X0074819Y0204438D01*
X0074819Y0202926D01*
X0075397Y0201529D01*
X0076466Y0200460D01*
X0077863Y0199882D01*
X0079375Y0199882D01*
X0080771Y0200460D01*
X0081840Y0201529D01*
X0081939Y0201766D01*
X0095410Y0204810D01*
X0096027Y0204194D01*
X0099115Y0204194D01*
X0102195Y0201114D01*
X0102258Y0200996D01*
X0102558Y0200751D01*
X0102831Y0200478D01*
X0102955Y0200426D01*
X0103059Y0200341D01*
X0103430Y0200230D01*
X0103787Y0200082D01*
X0103921Y0200082D01*
X0104050Y0200043D01*
X0104435Y0200082D01*
X0104821Y0200082D01*
X0104945Y0200133D01*
X0107141Y0200355D01*
X0107497Y0199999D01*
X0108894Y0199420D01*
X0110405Y0199420D01*
X0111802Y0199999D01*
X0112871Y0201068D01*
X0113450Y0202464D01*
X0113450Y0203976D01*
X0112871Y0205373D01*
X0111802Y0206442D01*
X0110405Y0207020D01*
X0108894Y0207020D01*
X0107497Y0206442D01*
X0106579Y0205524D01*
X0105270Y0205392D01*
X0103580Y0207083D01*
X0103580Y0210172D01*
X0102408Y0211343D01*
X0096027Y0211343D01*
X0094855Y0210172D01*
X0094855Y0210016D01*
X0080828Y0206847D01*
X0080771Y0206903D01*
X0079375Y0207482D01*
X0077863Y0207482D01*
X0076466Y0206903D01*
X0075719Y0206155D02*
X0034017Y0206155D01*
X0034017Y0204557D02*
X0074868Y0204557D01*
X0074819Y0202958D02*
X0034017Y0202958D01*
X0034017Y0201360D02*
X0075567Y0201360D01*
X0074568Y0199761D02*
X0034017Y0199761D01*
X0034017Y0198163D02*
X0072617Y0198163D01*
X0072167Y0196564D02*
X0034017Y0196564D01*
X0045078Y0194966D02*
X0046294Y0194966D01*
X0046086Y0194758D02*
X0046086Y0184433D01*
X0047023Y0183495D01*
X0057349Y0183495D01*
X0058286Y0184433D01*
X0058286Y0194758D01*
X0057349Y0195695D01*
X0047023Y0195695D01*
X0046086Y0194758D01*
X0046086Y0193367D02*
X0045286Y0193367D01*
X0045286Y0191769D02*
X0046086Y0191769D01*
X0046086Y0190170D02*
X0045286Y0190170D01*
X0045286Y0188572D02*
X0046086Y0188572D01*
X0046086Y0186973D02*
X0045286Y0186973D01*
X0045286Y0185375D02*
X0046086Y0185375D01*
X0046742Y0183776D02*
X0044630Y0183776D01*
X0034017Y0182178D02*
X0075067Y0182178D01*
X0075067Y0183776D02*
X0057630Y0183776D01*
X0058286Y0185375D02*
X0075067Y0185375D01*
X0075067Y0186973D02*
X0058286Y0186973D01*
X0058286Y0188572D02*
X0075067Y0188572D01*
X0075067Y0190170D02*
X0058286Y0190170D01*
X0058286Y0191769D02*
X0074970Y0191769D01*
X0073671Y0193367D02*
X0058286Y0193367D01*
X0058078Y0194966D02*
X0072449Y0194966D01*
X0076967Y0199761D02*
X0108070Y0199761D01*
X0111229Y0199761D02*
X0128894Y0199761D01*
X0127805Y0198163D02*
X0093152Y0198163D01*
X0094362Y0196564D02*
X0127805Y0196564D01*
X0127805Y0194966D02*
X0094602Y0194966D01*
X0094059Y0193367D02*
X0127805Y0193367D01*
X0124586Y0191769D02*
X0123849Y0191769D01*
X0123849Y0192337D02*
X0122912Y0193274D01*
X0118436Y0193274D01*
X0117499Y0192337D01*
X0117499Y0186287D01*
X0117579Y0186207D01*
X0117280Y0185907D01*
X0116762Y0184657D01*
X0116762Y0183305D01*
X0117280Y0182055D01*
X0118236Y0181099D01*
X0119486Y0180581D01*
X0120839Y0180581D01*
X0122088Y0181099D01*
X0123045Y0182055D01*
X0123562Y0183305D01*
X0123562Y0184657D01*
X0123274Y0185353D01*
X0123274Y0185712D01*
X0123849Y0186287D01*
X0123849Y0192337D01*
X0123849Y0190170D02*
X0124586Y0190170D01*
X0124586Y0188572D02*
X0123849Y0188572D01*
X0123849Y0186973D02*
X0124586Y0186973D01*
X0125498Y0185375D02*
X0123274Y0185375D01*
X0123562Y0183776D02*
X0127541Y0183776D01*
X0126424Y0182178D02*
X0123095Y0182178D01*
X0126217Y0180579D02*
X0082217Y0180579D01*
X0082217Y0178981D02*
X0085100Y0178981D01*
X0083998Y0177382D02*
X0082217Y0177382D01*
X0082217Y0175784D02*
X0083833Y0175784D01*
X0084558Y0174185D02*
X0082217Y0174185D01*
X0082217Y0172587D02*
X0088114Y0172587D01*
X0089712Y0170988D02*
X0082217Y0170988D01*
X0082217Y0169390D02*
X0105311Y0169390D01*
X0106909Y0167791D02*
X0082217Y0167791D01*
X0082217Y0166193D02*
X0108508Y0166193D01*
X0110106Y0164594D02*
X0082217Y0164594D01*
X0082217Y0162996D02*
X0111705Y0162996D01*
X0113304Y0161397D02*
X0082217Y0161397D01*
X0082217Y0159799D02*
X0123944Y0159799D01*
X0123714Y0164594D02*
X0115763Y0164594D01*
X0114165Y0166193D02*
X0126117Y0166193D01*
X0126117Y0167791D02*
X0112566Y0167791D01*
X0110968Y0169390D02*
X0126117Y0169390D01*
X0126117Y0170988D02*
X0109369Y0170988D01*
X0107771Y0172587D02*
X0126117Y0172587D01*
X0126117Y0174185D02*
X0106172Y0174185D01*
X0116762Y0183776D02*
X0083510Y0183776D01*
X0082217Y0182178D02*
X0117229Y0182178D01*
X0117059Y0185375D02*
X0085109Y0185375D01*
X0086707Y0186973D02*
X0117499Y0186973D01*
X0117499Y0188572D02*
X0088306Y0188572D01*
X0089904Y0190170D02*
X0117499Y0190170D01*
X0117499Y0191769D02*
X0091503Y0191769D01*
X0087445Y0193367D02*
X0078874Y0193367D01*
X0079086Y0194966D02*
X0087833Y0194966D01*
X0088073Y0196564D02*
X0079367Y0196564D01*
X0078918Y0198163D02*
X0089282Y0198163D01*
X0087214Y0202958D02*
X0100350Y0202958D01*
X0101949Y0201360D02*
X0081671Y0201360D01*
X0084844Y0207754D02*
X0034017Y0207754D01*
X0034017Y0209353D02*
X0091919Y0209353D01*
X0095634Y0210951D02*
X0034017Y0210951D01*
X0034017Y0212550D02*
X0095323Y0212550D01*
X0095255Y0214148D02*
X0034017Y0214148D01*
X0034017Y0215747D02*
X0095255Y0215747D01*
X0103180Y0215747D02*
X0127649Y0215747D01*
X0127649Y0217345D02*
X0103993Y0217345D01*
X0105201Y0218944D02*
X0127649Y0218944D01*
X0127705Y0220542D02*
X0114189Y0220542D01*
X0108546Y0220542D02*
X0105472Y0220542D01*
X0105013Y0222141D02*
X0107767Y0222141D01*
X0107470Y0223739D02*
X0103016Y0223739D01*
X0102586Y0225338D02*
X0101849Y0225338D01*
X0101849Y0226936D02*
X0102586Y0226936D01*
X0102586Y0228535D02*
X0101849Y0228535D01*
X0101849Y0230133D02*
X0102586Y0230133D01*
X0103180Y0214148D02*
X0127758Y0214148D01*
X0127449Y0212550D02*
X0103111Y0212550D01*
X0102800Y0210951D02*
X0131033Y0210951D01*
X0131033Y0210781D02*
X0127449Y0210781D01*
X0127449Y0208563D01*
X0127571Y0208105D01*
X0127808Y0207695D01*
X0128144Y0207360D01*
X0128554Y0207123D01*
X0129012Y0207000D01*
X0131033Y0207000D01*
X0131033Y0210781D01*
X0131033Y0209353D02*
X0131402Y0209353D01*
X0131402Y0207754D02*
X0131033Y0207754D01*
X0132726Y0206155D02*
X0112088Y0206155D01*
X0113209Y0204557D02*
X0132726Y0204557D01*
X0132091Y0202958D02*
X0113450Y0202958D01*
X0112992Y0201360D02*
X0130493Y0201360D01*
X0127774Y0207754D02*
X0103580Y0207754D01*
X0103580Y0209353D02*
X0127449Y0209353D01*
X0124099Y0226304D02*
X0117209Y0233194D01*
X0107211Y0206155D02*
X0104507Y0206155D01*
X0095663Y0204557D02*
X0094289Y0204557D01*
X0085846Y0191769D02*
X0079360Y0191769D01*
X0079267Y0190170D02*
X0084247Y0190170D01*
X0082649Y0188572D02*
X0079267Y0188572D01*
X0079267Y0186973D02*
X0081050Y0186973D01*
X0079452Y0185375D02*
X0079267Y0185375D01*
X0075067Y0180579D02*
X0034017Y0180579D01*
X0034017Y0178981D02*
X0075067Y0178981D01*
X0075067Y0177382D02*
X0034017Y0177382D01*
X0034017Y0175784D02*
X0075067Y0175784D01*
X0075067Y0174185D02*
X0034017Y0174185D01*
X0034017Y0172587D02*
X0075067Y0172587D01*
X0075067Y0170988D02*
X0034017Y0170988D01*
X0034017Y0169390D02*
X0075067Y0169390D01*
X0075067Y0167791D02*
X0034017Y0167791D01*
X0034017Y0166193D02*
X0075067Y0166193D01*
X0075067Y0164594D02*
X0034017Y0164594D01*
X0034017Y0162996D02*
X0075067Y0162996D01*
X0075067Y0161397D02*
X0034017Y0161397D01*
X0034017Y0159799D02*
X0075067Y0159799D01*
X0090602Y0175784D02*
X0126117Y0175784D01*
X0127025Y0177382D02*
X0090437Y0177382D01*
X0089334Y0178981D02*
X0126741Y0178981D01*
X0085683Y0139018D02*
X0071069Y0139018D01*
X0071069Y0140617D02*
X0074171Y0140617D01*
X0073567Y0142215D02*
X0071069Y0142215D01*
X0070506Y0143814D02*
X0073727Y0143814D01*
X0072379Y0137420D02*
X0087281Y0137420D01*
X0088880Y0135821D02*
X0073978Y0135821D01*
X0075576Y0134222D02*
X0090478Y0134222D01*
X0091098Y0132624D02*
X0077175Y0132624D01*
X0078773Y0131025D02*
X0090833Y0131025D01*
X0091335Y0129427D02*
X0080372Y0129427D01*
X0077617Y0126230D02*
X0055669Y0126230D01*
X0054071Y0127828D02*
X0076031Y0127828D01*
X0074432Y0129427D02*
X0052472Y0129427D01*
X0050873Y0131025D02*
X0072834Y0131025D01*
X0077727Y0124631D02*
X0057268Y0124631D01*
X0058866Y0123033D02*
X0070152Y0123033D01*
X0069019Y0121434D02*
X0060465Y0121434D01*
X0062063Y0119836D02*
X0068833Y0119836D01*
X0067930Y0118237D02*
X0063662Y0118237D01*
X0065260Y0116639D02*
X0065928Y0116639D01*
X0074282Y0123033D02*
X0078705Y0123033D01*
X0080163Y0140617D02*
X0084084Y0140617D01*
X0082486Y0142215D02*
X0080767Y0142215D01*
X0080887Y0143814D02*
X0080608Y0143814D01*
X0054525Y0121434D02*
X0034017Y0121434D01*
X0034017Y0119836D02*
X0035676Y0119836D01*
X0035676Y0118237D02*
X0034017Y0118237D01*
X0034017Y0116639D02*
X0035676Y0116639D01*
X0035676Y0115040D02*
X0034017Y0115040D01*
X0034017Y0113442D02*
X0035676Y0113442D01*
X0035676Y0111843D02*
X0034017Y0111843D01*
X0034017Y0110245D02*
X0035676Y0110245D01*
X0034017Y0108646D02*
X0059054Y0108646D01*
X0059833Y0107048D02*
X0034017Y0107048D01*
X0034017Y0105449D02*
X0060326Y0105449D01*
X0061217Y0103851D02*
X0034017Y0103851D01*
X0034017Y0102252D02*
X0061217Y0102252D01*
X0061217Y0100654D02*
X0034017Y0100654D01*
X0034017Y0099055D02*
X0061217Y0099055D01*
X0061217Y0097457D02*
X0034017Y0097457D01*
X0034017Y0095858D02*
X0061217Y0095858D01*
X0061217Y0094260D02*
X0045091Y0094260D01*
X0046018Y0092661D02*
X0061217Y0092661D01*
X0059279Y0091063D02*
X0046018Y0091063D01*
X0046018Y0089464D02*
X0058833Y0089464D01*
X0059153Y0087866D02*
X0046018Y0087866D01*
X0046018Y0086267D02*
X0060724Y0086267D01*
X0084565Y0070282D02*
X0034017Y0070282D01*
X0034017Y0068684D02*
X0084063Y0068684D01*
X0084328Y0067085D02*
X0034017Y0067085D01*
X0034017Y0065487D02*
X0085380Y0065487D01*
X0085344Y0063888D02*
X0034017Y0063888D01*
X0034017Y0062289D02*
X0079821Y0062289D01*
X0079353Y0060691D02*
X0034017Y0060691D01*
X0034017Y0059092D02*
X0063212Y0059092D01*
X0062044Y0057494D02*
X0034017Y0057494D01*
X0034017Y0055895D02*
X0061833Y0055895D01*
X0062446Y0054297D02*
X0034017Y0054297D01*
X0034017Y0052698D02*
X0065053Y0052698D01*
X0066012Y0051100D02*
X0034017Y0051100D01*
X0034017Y0049501D02*
X0067199Y0049501D01*
X0068759Y0054297D02*
X0068811Y0054297D01*
X0068811Y0055737D02*
X0072186Y0055737D01*
X0072186Y0055737D01*
X0072186Y0059899D01*
X0070374Y0059899D01*
X0069916Y0059777D01*
X0069506Y0059540D01*
X0069171Y0059204D01*
X0068934Y0058794D01*
X0068811Y0058336D01*
X0068811Y0055737D01*
X0068811Y0055895D02*
X0068602Y0055895D01*
X0068391Y0057494D02*
X0068811Y0057494D01*
X0069106Y0059092D02*
X0067223Y0059092D01*
X0072186Y0059092D02*
X0072186Y0059092D01*
X0072186Y0057494D02*
X0072186Y0057494D01*
X0072186Y0055895D02*
X0072186Y0055895D01*
X0072186Y0055737D02*
X0072186Y0055737D01*
X0075561Y0055895D02*
X0076098Y0055895D01*
X0076098Y0054297D02*
X0075561Y0054297D01*
X0075561Y0057494D02*
X0076098Y0057494D01*
X0076428Y0059092D02*
X0075266Y0059092D01*
X0076852Y0047903D02*
X0034017Y0047903D01*
X0034017Y0046304D02*
X0076717Y0046304D01*
X0077382Y0044706D02*
X0034017Y0044706D01*
X0034017Y0043107D02*
X0094217Y0043107D01*
X0094217Y0041509D02*
X0034017Y0041509D01*
X0034017Y0039910D02*
X0094217Y0039910D01*
X0094217Y0038312D02*
X0034017Y0038312D01*
X0034017Y0036713D02*
X0092790Y0036713D01*
X0091773Y0035696D02*
X0090544Y0035696D01*
X0089300Y0035181D01*
X0088348Y0034229D01*
X0087833Y0032985D01*
X0087833Y0031639D01*
X0088348Y0030395D01*
X0089300Y0029443D01*
X0090544Y0028928D01*
X0091890Y0028928D01*
X0093134Y0029443D01*
X0094086Y0030395D01*
X0094602Y0031639D01*
X0094602Y0032868D01*
X0097046Y0035312D01*
X0098217Y0036483D01*
X0098217Y0065526D01*
X0099086Y0066395D01*
X0099602Y0067639D01*
X0099602Y0068985D01*
X0099086Y0070229D01*
X0098134Y0071181D01*
X0096890Y0071696D01*
X0095544Y0071696D01*
X0094300Y0071181D01*
X0093348Y0070229D01*
X0092833Y0068985D01*
X0092833Y0067639D01*
X0093348Y0066395D01*
X0094217Y0065526D01*
X0094217Y0038140D01*
X0091773Y0035696D01*
X0089234Y0035115D02*
X0034017Y0035115D01*
X0034017Y0033516D02*
X0088053Y0033516D01*
X0087833Y0031918D02*
X0034017Y0031918D01*
X0034017Y0030319D02*
X0088424Y0030319D01*
X0094011Y0030319D02*
X0127546Y0030319D01*
X0125948Y0028721D02*
X0034017Y0028721D01*
X0034017Y0027122D02*
X0117242Y0027122D01*
X0116056Y0025524D02*
X0034017Y0025524D01*
X0034017Y0023925D02*
X0115833Y0023925D01*
X0116416Y0022327D02*
X0034017Y0022327D01*
X0034017Y0071881D02*
X0088567Y0071881D01*
X0088567Y0073479D02*
X0034017Y0073479D01*
X0034017Y0075078D02*
X0088567Y0075078D01*
X0088567Y0076676D02*
X0034017Y0076676D01*
X0034017Y0078275D02*
X0088567Y0078275D01*
X0087665Y0079873D02*
X0034017Y0079873D01*
X0034017Y0094260D02*
X0034745Y0094260D01*
X0036724Y0123033D02*
X0052926Y0123033D01*
X0093670Y0079873D02*
X0093965Y0079873D01*
X0092767Y0078275D02*
X0111833Y0078275D01*
X0112201Y0079873D02*
X0103565Y0079873D01*
X0104532Y0081472D02*
X0114002Y0081472D01*
X0112232Y0076676D02*
X0092767Y0076676D01*
X0092767Y0075078D02*
X0113217Y0075078D01*
X0113217Y0073479D02*
X0092767Y0073479D01*
X0092767Y0071881D02*
X0113820Y0071881D01*
X0113368Y0070282D02*
X0107033Y0070282D01*
X0107602Y0068684D02*
X0113317Y0068684D01*
X0113317Y0067085D02*
X0107372Y0067085D01*
X0106178Y0065487D02*
X0111564Y0065487D01*
X0111217Y0063888D02*
X0104217Y0063888D01*
X0104217Y0062289D02*
X0113217Y0062289D01*
X0111995Y0060691D02*
X0111255Y0060691D01*
X0111273Y0060660D02*
X0111036Y0061071D01*
X0110700Y0061406D01*
X0110290Y0061643D01*
X0109832Y0061765D01*
X0108021Y0061765D01*
X0108021Y0057603D01*
X0111395Y0057603D01*
X0111395Y0060202D01*
X0111273Y0060660D01*
X0111395Y0059092D02*
X0111932Y0059092D01*
X0111932Y0057494D02*
X0111395Y0057494D01*
X0108021Y0059092D02*
X0108020Y0059092D01*
X0108020Y0060691D02*
X0108021Y0060691D01*
X0104786Y0060691D02*
X0104217Y0060691D01*
X0104217Y0059092D02*
X0104646Y0059092D01*
X0104646Y0057494D02*
X0104217Y0057494D01*
X0100217Y0057494D02*
X0098217Y0057494D01*
X0098217Y0059092D02*
X0100217Y0059092D01*
X0100217Y0060691D02*
X0098217Y0060691D01*
X0098217Y0062289D02*
X0100217Y0062289D01*
X0100217Y0063888D02*
X0098217Y0063888D01*
X0098217Y0065487D02*
X0100217Y0065487D01*
X0100217Y0067085D02*
X0099372Y0067085D01*
X0099602Y0068684D02*
X0100833Y0068684D01*
X0101402Y0070282D02*
X0099033Y0070282D01*
X0093402Y0070282D02*
X0092767Y0070282D01*
X0092767Y0068684D02*
X0092833Y0068684D01*
X0092767Y0067085D02*
X0093062Y0067085D01*
X0092767Y0065487D02*
X0094217Y0065487D01*
X0094217Y0063888D02*
X0092767Y0063888D01*
X0092767Y0062289D02*
X0094217Y0062289D01*
X0094217Y0060691D02*
X0092767Y0060691D01*
X0092767Y0059092D02*
X0094217Y0059092D01*
X0094217Y0057494D02*
X0092767Y0057494D01*
X0092321Y0055895D02*
X0094217Y0055895D01*
X0094217Y0054297D02*
X0090722Y0054297D01*
X0089124Y0052698D02*
X0094217Y0052698D01*
X0094217Y0051100D02*
X0087525Y0051100D01*
X0085927Y0049501D02*
X0094217Y0049501D01*
X0094217Y0047903D02*
X0084328Y0047903D01*
X0083917Y0046304D02*
X0094217Y0046304D01*
X0094217Y0044706D02*
X0083253Y0044706D01*
X0095250Y0033516D02*
X0130743Y0033516D01*
X0132200Y0035115D02*
X0096849Y0035115D01*
X0098217Y0036713D02*
X0132976Y0036713D01*
X0129145Y0031918D02*
X0094602Y0031918D01*
X0098217Y0038312D02*
X0120506Y0038312D01*
X0120093Y0043107D02*
X0137352Y0043107D01*
X0136717Y0044706D02*
X0116557Y0044706D01*
X0114700Y0047903D02*
X0124006Y0047903D01*
X0122408Y0049501D02*
X0119296Y0049501D01*
X0113021Y0046304D02*
X0133117Y0046304D01*
X0145176Y0035115D02*
X0145794Y0035115D01*
X0145176Y0033516D02*
X0147067Y0033516D01*
X0147192Y0031918D02*
X0145176Y0031918D01*
X0132976Y0028721D02*
X0131605Y0028721D01*
X0124349Y0027122D02*
X0121193Y0027122D01*
X0116970Y0039910D02*
X0098217Y0039910D01*
X0098217Y0041509D02*
X0113433Y0041509D01*
X0109897Y0043107D02*
X0109809Y0043107D01*
X0106226Y0043107D02*
X0098217Y0043107D01*
X0098217Y0044706D02*
X0104765Y0044706D01*
X0104417Y0046304D02*
X0098217Y0046304D01*
X0098217Y0047903D02*
X0104800Y0047903D01*
X0106431Y0049501D02*
X0098217Y0049501D01*
X0098217Y0051100D02*
X0104601Y0051100D01*
X0103002Y0052698D02*
X0098217Y0052698D01*
X0098217Y0054297D02*
X0101404Y0054297D01*
X0100217Y0055895D02*
X0098217Y0055895D01*
X0107834Y0051100D02*
X0108418Y0051100D01*
X0103429Y0089464D02*
X0102335Y0089464D01*
X0114961Y0094260D02*
X0121483Y0094260D01*
X0120833Y0095858D02*
X0114367Y0095858D01*
X0114367Y0097457D02*
X0121028Y0097457D01*
X0122175Y0099055D02*
X0114367Y0099055D01*
X0114367Y0100654D02*
X0124217Y0100654D01*
X0124217Y0102252D02*
X0114367Y0102252D01*
X0114367Y0103851D02*
X0124217Y0103851D01*
X0124217Y0105449D02*
X0114367Y0105449D01*
X0114367Y0107048D02*
X0124217Y0107048D01*
X0125723Y0108646D02*
X0114367Y0108646D01*
X0114367Y0110245D02*
X0132069Y0110245D01*
X0131158Y0111843D02*
X0127535Y0111843D01*
X0128520Y0113442D02*
X0130247Y0113442D01*
X0122900Y0111843D02*
X0114367Y0111843D01*
X0114367Y0113442D02*
X0121915Y0113442D01*
X0121856Y0115040D02*
X0114367Y0115040D01*
X0114367Y0116639D02*
X0122758Y0116639D01*
X0123217Y0118237D02*
X0114367Y0118237D01*
X0114367Y0119836D02*
X0123217Y0119836D01*
X0123512Y0121434D02*
X0115696Y0121434D01*
X0119150Y0123033D02*
X0125110Y0123033D01*
X0126709Y0124631D02*
X0122604Y0124631D01*
X0126058Y0126230D02*
X0128307Y0126230D01*
X0129513Y0127828D02*
X0129906Y0127828D01*
X0149805Y0108646D02*
X0181217Y0108646D01*
X0181217Y0107048D02*
X0150121Y0107048D01*
X0149671Y0105449D02*
X0181217Y0105449D01*
X0181217Y0103851D02*
X0147472Y0103851D01*
X0146767Y0102252D02*
X0181217Y0102252D01*
X0181217Y0100654D02*
X0159661Y0100654D01*
X0160572Y0099055D02*
X0181217Y0099055D01*
X0196217Y0102252D02*
X0206088Y0102252D01*
X0207686Y0103851D02*
X0196217Y0103851D01*
X0196217Y0105449D02*
X0204381Y0105449D01*
X0202533Y0107048D02*
X0196217Y0107048D01*
X0196217Y0108646D02*
X0202155Y0108646D01*
X0202544Y0110245D02*
X0196217Y0110245D01*
X0196217Y0111843D02*
X0204447Y0111843D01*
X0206632Y0111843D02*
X0211955Y0111843D01*
X0211955Y0110245D02*
X0208535Y0110245D01*
X0208923Y0108646D02*
X0211955Y0108646D01*
X0142567Y0103675D02*
X0142567Y0102318D01*
X0142559Y0102327D01*
X0142148Y0102564D01*
X0141691Y0102687D01*
X0139091Y0102687D01*
X0137317Y0102687D01*
X0137317Y0103224D01*
X0142116Y0103224D01*
X0142567Y0103675D01*
X0139091Y0102687D02*
X0139091Y0099312D01*
X0139091Y0102687D01*
X0139091Y0102252D02*
X0139091Y0102252D01*
X0139091Y0100654D02*
X0139091Y0100654D01*
X0139091Y0099312D02*
X0139091Y0099312D01*
X0135250Y0094260D02*
X0126951Y0094260D01*
X0127602Y0095858D02*
X0133651Y0095858D01*
X0131217Y0097457D02*
X0131217Y0097457D01*
X0131217Y0099055D02*
X0131217Y0099055D01*
X0131217Y0099761D02*
X0131217Y0103135D01*
X0128618Y0103135D01*
X0128217Y0103028D01*
X0128217Y0103672D01*
X0133117Y0103672D01*
X0133117Y0103135D01*
X0131217Y0103135D01*
X0131217Y0099761D01*
X0131217Y0099761D01*
X0131217Y0100654D02*
X0131217Y0100654D01*
X0131217Y0102252D02*
X0131217Y0102252D01*
X0135667Y0092661D02*
X0115833Y0092661D01*
X0115833Y0091063D02*
X0136325Y0091063D01*
X0049428Y0217345D02*
X0034017Y0217345D01*
X0034017Y0218944D02*
X0049428Y0218944D01*
X0049428Y0220542D02*
X0034017Y0220542D01*
X0034017Y0222141D02*
X0049428Y0222141D01*
X0049428Y0223739D02*
X0034017Y0223739D01*
X0034017Y0225338D02*
X0049428Y0225338D01*
X0049428Y0226936D02*
X0034017Y0226936D01*
X0034017Y0228535D02*
X0049428Y0228535D01*
X0049428Y0230133D02*
X0034017Y0230133D01*
X0034017Y0231732D02*
X0049428Y0231732D01*
X0050304Y0233330D02*
X0034017Y0233330D01*
D26*
X0044902Y0205635D03*
X0066713Y0191855D03*
X0067776Y0225288D03*
X0104336Y0209728D03*
X0126068Y0197761D03*
X0133942Y0195792D03*
X0162485Y0212524D03*
X0176170Y0196808D03*
X0194526Y0213898D03*
X0209729Y0212524D03*
X0207761Y0227288D03*
X0236304Y0207603D03*
X0203855Y0146375D03*
X0163485Y0111894D03*
X0177265Y0084335D03*
X0199902Y0103020D03*
X0223635Y0078178D03*
X0191603Y0058446D03*
X0113272Y0135753D03*
X0055202Y0103272D03*
X0146737Y0229257D03*
X0171343Y0231225D03*
D27*
X0058028Y0224792D03*
D28*
X0210713Y0221383D03*
D29*
X0199567Y0202562D02*
X0189217Y0212912D01*
X0189217Y0214769D01*
X0188317Y0215162D01*
X0186967Y0216512D01*
X0163567Y0216512D01*
X0158167Y0221912D01*
X0158167Y0225062D01*
X0160867Y0227762D01*
X0160867Y0230912D01*
X0161217Y0231312D01*
X0199567Y0202562D02*
X0199567Y0197162D01*
X0198217Y0197162D01*
X0199567Y0197162D02*
X0199567Y0167462D01*
X0199957Y0167454D01*
X0192477Y0157170D02*
X0192367Y0157112D01*
X0190567Y0155312D01*
X0182917Y0155312D01*
X0182917Y0159812D01*
X0182917Y0155312D02*
X0178761Y0155312D01*
X0120674Y0184493D02*
X0120674Y0189312D01*
X0120674Y0184493D02*
X0120162Y0183981D01*
M02*
