G75*
%MOIN*%
%OFA0B0*%
%FSLAX25Y25*%
%IPPOS*%
%LPD*%
%AMOC8*
5,1,8,0,0,1.08239X$1,22.5*
%
%ADD10C,0.00000*%
%ADD11R,0.04724X0.03150*%
%ADD12R,0.03150X0.04724*%
%ADD13R,0.03937X0.01181*%
%ADD14R,0.08661X0.06299*%
%ADD15R,0.03200X0.01600*%
%ADD16R,0.07874X0.07874*%
%ADD17R,0.02913X0.09449*%
%ADD18R,0.00866X0.03937*%
%ADD19R,0.03937X0.00866*%
%ADD20R,0.02795X0.01102*%
%ADD21C,0.00551*%
%ADD22R,0.06496X0.09449*%
%ADD23R,0.01102X0.08937*%
%ADD24R,0.01102X0.02756*%
%ADD25R,0.01600X0.00800*%
%ADD26R,0.03600X0.07000*%
%ADD27C,0.05150*%
%ADD28R,0.02756X0.00984*%
%ADD29C,0.00096*%
%ADD30R,0.03937X0.04331*%
%ADD31R,0.01181X0.01772*%
%ADD32R,0.01772X0.01181*%
%ADD33R,0.05709X0.03937*%
%ADD34R,0.02362X0.04724*%
%ADD35R,0.04724X0.04724*%
%ADD36R,0.05906X0.06299*%
%ADD37R,0.04134X0.02165*%
%ADD38R,0.06063X0.06693*%
%ADD39R,0.00984X0.01969*%
%ADD40R,0.01969X0.00984*%
%ADD41C,0.00252*%
%ADD42R,0.02362X0.08661*%
%ADD43C,0.01600*%
%ADD44R,0.09000X0.09000*%
%ADD45C,0.01200*%
%ADD46C,0.01000*%
%ADD47C,0.03600*%
%ADD48C,0.03569*%
%ADD49C,0.04000*%
%ADD50C,0.00800*%
%ADD51OC8,0.16500*%
%ADD52C,0.03175*%
%ADD53R,0.14000X0.14000*%
%ADD54R,0.03600X0.03600*%
%ADD55C,0.02000*%
D10*
X0029217Y0013312D02*
X0029217Y0238312D01*
X0254217Y0238312D01*
X0254217Y0013312D01*
X0029217Y0013312D01*
D11*
X0055076Y0108312D03*
X0055076Y0115398D03*
X0075217Y0155769D03*
X0075217Y0162855D03*
X0071217Y0169769D03*
X0071217Y0176855D03*
X0082217Y0176855D03*
X0082217Y0169769D03*
X0085217Y0191769D03*
X0085217Y0198855D03*
X0084217Y0207769D03*
X0084217Y0214855D03*
X0073217Y0213855D03*
X0073217Y0206769D03*
X0063217Y0206769D03*
X0063217Y0213855D03*
X0096217Y0198855D03*
X0096217Y0191769D03*
X0107217Y0191769D03*
X0107217Y0198855D03*
X0114217Y0192855D03*
X0114217Y0185769D03*
X0132217Y0104855D03*
X0132217Y0097769D03*
X0171076Y0092524D03*
X0171076Y0085438D03*
X0185217Y0085769D03*
X0185217Y0092855D03*
X0214957Y0200485D03*
X0214957Y0207572D03*
X0214997Y0212469D03*
X0214997Y0219556D03*
D12*
X0212611Y0226406D03*
X0219698Y0226406D03*
X0225674Y0195312D03*
X0232761Y0195312D03*
X0190761Y0200312D03*
X0183674Y0200312D03*
X0183792Y0232328D03*
X0176706Y0232328D03*
X0142824Y0232343D03*
X0135737Y0232343D03*
X0111761Y0228312D03*
X0104674Y0228312D03*
X0094761Y0228312D03*
X0096761Y0221312D03*
X0089674Y0221312D03*
X0087674Y0228312D03*
X0079761Y0221312D03*
X0072674Y0221312D03*
X0112674Y0198312D03*
X0119761Y0198312D03*
X0145674Y0168312D03*
X0152761Y0168312D03*
X0160721Y0166099D03*
X0167808Y0166099D03*
X0175674Y0166312D03*
X0182761Y0166312D03*
X0161761Y0153312D03*
X0154674Y0153312D03*
X0168674Y0124312D03*
X0175761Y0124312D03*
X0175761Y0115312D03*
X0175761Y0108312D03*
X0168674Y0108312D03*
X0168674Y0115312D03*
X0168674Y0099312D03*
X0175761Y0099312D03*
X0205674Y0066312D03*
X0212761Y0066312D03*
X0211674Y0078312D03*
X0218761Y0078312D03*
X0210761Y0135312D03*
X0203674Y0135312D03*
X0122761Y0062312D03*
X0115674Y0062312D03*
X0114784Y0045706D03*
X0115784Y0038706D03*
X0121871Y0045706D03*
X0122871Y0038706D03*
X0122871Y0031706D03*
X0115784Y0031706D03*
X0086761Y0020312D03*
X0079674Y0020312D03*
X0072863Y0025131D03*
X0065776Y0025131D03*
X0066871Y0034706D03*
X0066871Y0041706D03*
X0059784Y0041706D03*
X0059784Y0034706D03*
X0059784Y0049706D03*
X0066871Y0049706D03*
X0046091Y0097406D03*
X0046091Y0104359D03*
X0039005Y0104359D03*
X0039005Y0097406D03*
X0086674Y0158312D03*
X0093761Y0158312D03*
X0100674Y0135312D03*
X0107761Y0135312D03*
D13*
X0149761Y0176099D03*
X0149761Y0178658D03*
X0149761Y0181217D03*
X0149761Y0183776D03*
X0149761Y0186335D03*
X0149761Y0188894D03*
X0149761Y0191454D03*
X0149761Y0194013D03*
X0171808Y0194013D03*
X0171808Y0191454D03*
X0171808Y0188894D03*
X0171808Y0186335D03*
X0171808Y0183776D03*
X0171808Y0181217D03*
X0171808Y0178658D03*
X0171808Y0176099D03*
D14*
X0149217Y0205800D03*
X0149217Y0216824D03*
X0202217Y0220824D03*
X0202217Y0209800D03*
X0243997Y0210792D03*
X0243997Y0199769D03*
D15*
X0099178Y0047166D03*
X0099178Y0042206D03*
X0099178Y0037206D03*
X0099178Y0032245D03*
X0075556Y0032245D03*
X0075556Y0037206D03*
X0075556Y0042206D03*
X0075556Y0047166D03*
D16*
X0087367Y0039706D03*
D17*
X0179461Y0044312D03*
X0184461Y0044312D03*
X0189461Y0044312D03*
X0194461Y0044312D03*
X0199461Y0044312D03*
X0199461Y0028997D03*
X0194461Y0028997D03*
X0189461Y0028997D03*
X0184461Y0028997D03*
X0179461Y0028997D03*
D18*
X0110296Y0076989D03*
X0108328Y0076989D03*
X0106359Y0076989D03*
X0104391Y0076989D03*
X0102422Y0076989D03*
X0100454Y0076989D03*
X0098485Y0076989D03*
X0096517Y0076989D03*
X0094548Y0076989D03*
X0092580Y0076989D03*
X0090611Y0076989D03*
X0088643Y0076989D03*
X0086674Y0076989D03*
X0084706Y0076989D03*
X0082737Y0076989D03*
X0080769Y0076989D03*
X0080769Y0120296D03*
X0082737Y0120296D03*
X0084706Y0120296D03*
X0086674Y0120296D03*
X0088643Y0120296D03*
X0090611Y0120296D03*
X0092580Y0120296D03*
X0094548Y0120296D03*
X0096517Y0120296D03*
X0098485Y0120296D03*
X0100454Y0120296D03*
X0102422Y0120296D03*
X0104391Y0120296D03*
X0106359Y0120296D03*
X0108328Y0120296D03*
X0110296Y0120296D03*
D19*
X0117186Y0113406D03*
X0117186Y0111438D03*
X0117186Y0109469D03*
X0117186Y0107501D03*
X0117186Y0105532D03*
X0117186Y0103564D03*
X0117186Y0101595D03*
X0117186Y0099627D03*
X0117186Y0097658D03*
X0117186Y0095690D03*
X0117186Y0093721D03*
X0117186Y0091753D03*
X0117186Y0089784D03*
X0117186Y0087816D03*
X0117186Y0085847D03*
X0117186Y0083879D03*
X0073879Y0083879D03*
X0073879Y0085847D03*
X0073879Y0087816D03*
X0073879Y0089784D03*
X0073879Y0091753D03*
X0073879Y0093721D03*
X0073879Y0095690D03*
X0073879Y0097658D03*
X0073879Y0099627D03*
X0073879Y0101595D03*
X0073879Y0103564D03*
X0073879Y0105532D03*
X0073879Y0107501D03*
X0073879Y0109469D03*
X0073879Y0111438D03*
X0073879Y0113406D03*
D20*
X0177654Y0209863D03*
X0177654Y0211831D03*
X0177654Y0213800D03*
X0177654Y0215769D03*
X0177654Y0217737D03*
X0189820Y0217737D03*
X0189820Y0215769D03*
X0189820Y0213800D03*
X0189820Y0211831D03*
X0189820Y0209863D03*
X0220032Y0210328D03*
X0220032Y0212296D03*
X0220032Y0208359D03*
X0220032Y0206391D03*
X0220032Y0204422D03*
X0232198Y0204422D03*
X0232198Y0206391D03*
X0232198Y0208359D03*
X0232198Y0210328D03*
X0232198Y0212296D03*
D21*
X0230524Y0212296D02*
X0230526Y0212329D01*
X0230532Y0212361D01*
X0230541Y0212392D01*
X0230554Y0212422D01*
X0230571Y0212450D01*
X0230591Y0212476D01*
X0230614Y0212500D01*
X0230639Y0212520D01*
X0230667Y0212538D01*
X0230696Y0212552D01*
X0230727Y0212562D01*
X0230759Y0212569D01*
X0230792Y0212572D01*
X0230825Y0212571D01*
X0230857Y0212566D01*
X0230888Y0212557D01*
X0230919Y0212545D01*
X0230947Y0212529D01*
X0230974Y0212510D01*
X0230998Y0212488D01*
X0231019Y0212463D01*
X0231038Y0212436D01*
X0231053Y0212407D01*
X0231064Y0212377D01*
X0231072Y0212345D01*
X0231076Y0212312D01*
X0231076Y0212280D01*
X0231072Y0212247D01*
X0231064Y0212215D01*
X0231053Y0212185D01*
X0231038Y0212156D01*
X0231019Y0212129D01*
X0230998Y0212104D01*
X0230974Y0212082D01*
X0230947Y0212063D01*
X0230919Y0212047D01*
X0230888Y0212035D01*
X0230857Y0212026D01*
X0230825Y0212021D01*
X0230792Y0212020D01*
X0230759Y0212023D01*
X0230727Y0212030D01*
X0230696Y0212040D01*
X0230667Y0212054D01*
X0230639Y0212072D01*
X0230614Y0212092D01*
X0230591Y0212116D01*
X0230571Y0212142D01*
X0230554Y0212170D01*
X0230541Y0212200D01*
X0230532Y0212231D01*
X0230526Y0212263D01*
X0230524Y0212296D01*
X0230524Y0210328D02*
X0230526Y0210361D01*
X0230532Y0210393D01*
X0230541Y0210424D01*
X0230554Y0210454D01*
X0230571Y0210482D01*
X0230591Y0210508D01*
X0230614Y0210532D01*
X0230639Y0210552D01*
X0230667Y0210570D01*
X0230696Y0210584D01*
X0230727Y0210594D01*
X0230759Y0210601D01*
X0230792Y0210604D01*
X0230825Y0210603D01*
X0230857Y0210598D01*
X0230888Y0210589D01*
X0230919Y0210577D01*
X0230947Y0210561D01*
X0230974Y0210542D01*
X0230998Y0210520D01*
X0231019Y0210495D01*
X0231038Y0210468D01*
X0231053Y0210439D01*
X0231064Y0210409D01*
X0231072Y0210377D01*
X0231076Y0210344D01*
X0231076Y0210312D01*
X0231072Y0210279D01*
X0231064Y0210247D01*
X0231053Y0210217D01*
X0231038Y0210188D01*
X0231019Y0210161D01*
X0230998Y0210136D01*
X0230974Y0210114D01*
X0230947Y0210095D01*
X0230919Y0210079D01*
X0230888Y0210067D01*
X0230857Y0210058D01*
X0230825Y0210053D01*
X0230792Y0210052D01*
X0230759Y0210055D01*
X0230727Y0210062D01*
X0230696Y0210072D01*
X0230667Y0210086D01*
X0230639Y0210104D01*
X0230614Y0210124D01*
X0230591Y0210148D01*
X0230571Y0210174D01*
X0230554Y0210202D01*
X0230541Y0210232D01*
X0230532Y0210263D01*
X0230526Y0210295D01*
X0230524Y0210328D01*
X0230524Y0208359D02*
X0230526Y0208392D01*
X0230532Y0208424D01*
X0230541Y0208455D01*
X0230554Y0208485D01*
X0230571Y0208513D01*
X0230591Y0208539D01*
X0230614Y0208563D01*
X0230639Y0208583D01*
X0230667Y0208601D01*
X0230696Y0208615D01*
X0230727Y0208625D01*
X0230759Y0208632D01*
X0230792Y0208635D01*
X0230825Y0208634D01*
X0230857Y0208629D01*
X0230888Y0208620D01*
X0230919Y0208608D01*
X0230947Y0208592D01*
X0230974Y0208573D01*
X0230998Y0208551D01*
X0231019Y0208526D01*
X0231038Y0208499D01*
X0231053Y0208470D01*
X0231064Y0208440D01*
X0231072Y0208408D01*
X0231076Y0208375D01*
X0231076Y0208343D01*
X0231072Y0208310D01*
X0231064Y0208278D01*
X0231053Y0208248D01*
X0231038Y0208219D01*
X0231019Y0208192D01*
X0230998Y0208167D01*
X0230974Y0208145D01*
X0230947Y0208126D01*
X0230919Y0208110D01*
X0230888Y0208098D01*
X0230857Y0208089D01*
X0230825Y0208084D01*
X0230792Y0208083D01*
X0230759Y0208086D01*
X0230727Y0208093D01*
X0230696Y0208103D01*
X0230667Y0208117D01*
X0230639Y0208135D01*
X0230614Y0208155D01*
X0230591Y0208179D01*
X0230571Y0208205D01*
X0230554Y0208233D01*
X0230541Y0208263D01*
X0230532Y0208294D01*
X0230526Y0208326D01*
X0230524Y0208359D01*
X0230524Y0206391D02*
X0230526Y0206424D01*
X0230532Y0206456D01*
X0230541Y0206487D01*
X0230554Y0206517D01*
X0230571Y0206545D01*
X0230591Y0206571D01*
X0230614Y0206595D01*
X0230639Y0206615D01*
X0230667Y0206633D01*
X0230696Y0206647D01*
X0230727Y0206657D01*
X0230759Y0206664D01*
X0230792Y0206667D01*
X0230825Y0206666D01*
X0230857Y0206661D01*
X0230888Y0206652D01*
X0230919Y0206640D01*
X0230947Y0206624D01*
X0230974Y0206605D01*
X0230998Y0206583D01*
X0231019Y0206558D01*
X0231038Y0206531D01*
X0231053Y0206502D01*
X0231064Y0206472D01*
X0231072Y0206440D01*
X0231076Y0206407D01*
X0231076Y0206375D01*
X0231072Y0206342D01*
X0231064Y0206310D01*
X0231053Y0206280D01*
X0231038Y0206251D01*
X0231019Y0206224D01*
X0230998Y0206199D01*
X0230974Y0206177D01*
X0230947Y0206158D01*
X0230919Y0206142D01*
X0230888Y0206130D01*
X0230857Y0206121D01*
X0230825Y0206116D01*
X0230792Y0206115D01*
X0230759Y0206118D01*
X0230727Y0206125D01*
X0230696Y0206135D01*
X0230667Y0206149D01*
X0230639Y0206167D01*
X0230614Y0206187D01*
X0230591Y0206211D01*
X0230571Y0206237D01*
X0230554Y0206265D01*
X0230541Y0206295D01*
X0230532Y0206326D01*
X0230526Y0206358D01*
X0230524Y0206391D01*
X0230524Y0204422D02*
X0230526Y0204455D01*
X0230532Y0204487D01*
X0230541Y0204518D01*
X0230554Y0204548D01*
X0230571Y0204576D01*
X0230591Y0204602D01*
X0230614Y0204626D01*
X0230639Y0204646D01*
X0230667Y0204664D01*
X0230696Y0204678D01*
X0230727Y0204688D01*
X0230759Y0204695D01*
X0230792Y0204698D01*
X0230825Y0204697D01*
X0230857Y0204692D01*
X0230888Y0204683D01*
X0230919Y0204671D01*
X0230947Y0204655D01*
X0230974Y0204636D01*
X0230998Y0204614D01*
X0231019Y0204589D01*
X0231038Y0204562D01*
X0231053Y0204533D01*
X0231064Y0204503D01*
X0231072Y0204471D01*
X0231076Y0204438D01*
X0231076Y0204406D01*
X0231072Y0204373D01*
X0231064Y0204341D01*
X0231053Y0204311D01*
X0231038Y0204282D01*
X0231019Y0204255D01*
X0230998Y0204230D01*
X0230974Y0204208D01*
X0230947Y0204189D01*
X0230919Y0204173D01*
X0230888Y0204161D01*
X0230857Y0204152D01*
X0230825Y0204147D01*
X0230792Y0204146D01*
X0230759Y0204149D01*
X0230727Y0204156D01*
X0230696Y0204166D01*
X0230667Y0204180D01*
X0230639Y0204198D01*
X0230614Y0204218D01*
X0230591Y0204242D01*
X0230571Y0204268D01*
X0230554Y0204296D01*
X0230541Y0204326D01*
X0230532Y0204357D01*
X0230526Y0204389D01*
X0230524Y0204422D01*
X0221154Y0204422D02*
X0221156Y0204455D01*
X0221162Y0204487D01*
X0221171Y0204518D01*
X0221184Y0204548D01*
X0221201Y0204576D01*
X0221221Y0204602D01*
X0221244Y0204626D01*
X0221269Y0204646D01*
X0221297Y0204664D01*
X0221326Y0204678D01*
X0221357Y0204688D01*
X0221389Y0204695D01*
X0221422Y0204698D01*
X0221455Y0204697D01*
X0221487Y0204692D01*
X0221518Y0204683D01*
X0221549Y0204671D01*
X0221577Y0204655D01*
X0221604Y0204636D01*
X0221628Y0204614D01*
X0221649Y0204589D01*
X0221668Y0204562D01*
X0221683Y0204533D01*
X0221694Y0204503D01*
X0221702Y0204471D01*
X0221706Y0204438D01*
X0221706Y0204406D01*
X0221702Y0204373D01*
X0221694Y0204341D01*
X0221683Y0204311D01*
X0221668Y0204282D01*
X0221649Y0204255D01*
X0221628Y0204230D01*
X0221604Y0204208D01*
X0221577Y0204189D01*
X0221549Y0204173D01*
X0221518Y0204161D01*
X0221487Y0204152D01*
X0221455Y0204147D01*
X0221422Y0204146D01*
X0221389Y0204149D01*
X0221357Y0204156D01*
X0221326Y0204166D01*
X0221297Y0204180D01*
X0221269Y0204198D01*
X0221244Y0204218D01*
X0221221Y0204242D01*
X0221201Y0204268D01*
X0221184Y0204296D01*
X0221171Y0204326D01*
X0221162Y0204357D01*
X0221156Y0204389D01*
X0221154Y0204422D01*
X0221154Y0206391D02*
X0221156Y0206424D01*
X0221162Y0206456D01*
X0221171Y0206487D01*
X0221184Y0206517D01*
X0221201Y0206545D01*
X0221221Y0206571D01*
X0221244Y0206595D01*
X0221269Y0206615D01*
X0221297Y0206633D01*
X0221326Y0206647D01*
X0221357Y0206657D01*
X0221389Y0206664D01*
X0221422Y0206667D01*
X0221455Y0206666D01*
X0221487Y0206661D01*
X0221518Y0206652D01*
X0221549Y0206640D01*
X0221577Y0206624D01*
X0221604Y0206605D01*
X0221628Y0206583D01*
X0221649Y0206558D01*
X0221668Y0206531D01*
X0221683Y0206502D01*
X0221694Y0206472D01*
X0221702Y0206440D01*
X0221706Y0206407D01*
X0221706Y0206375D01*
X0221702Y0206342D01*
X0221694Y0206310D01*
X0221683Y0206280D01*
X0221668Y0206251D01*
X0221649Y0206224D01*
X0221628Y0206199D01*
X0221604Y0206177D01*
X0221577Y0206158D01*
X0221549Y0206142D01*
X0221518Y0206130D01*
X0221487Y0206121D01*
X0221455Y0206116D01*
X0221422Y0206115D01*
X0221389Y0206118D01*
X0221357Y0206125D01*
X0221326Y0206135D01*
X0221297Y0206149D01*
X0221269Y0206167D01*
X0221244Y0206187D01*
X0221221Y0206211D01*
X0221201Y0206237D01*
X0221184Y0206265D01*
X0221171Y0206295D01*
X0221162Y0206326D01*
X0221156Y0206358D01*
X0221154Y0206391D01*
X0221154Y0208359D02*
X0221156Y0208392D01*
X0221162Y0208424D01*
X0221171Y0208455D01*
X0221184Y0208485D01*
X0221201Y0208513D01*
X0221221Y0208539D01*
X0221244Y0208563D01*
X0221269Y0208583D01*
X0221297Y0208601D01*
X0221326Y0208615D01*
X0221357Y0208625D01*
X0221389Y0208632D01*
X0221422Y0208635D01*
X0221455Y0208634D01*
X0221487Y0208629D01*
X0221518Y0208620D01*
X0221549Y0208608D01*
X0221577Y0208592D01*
X0221604Y0208573D01*
X0221628Y0208551D01*
X0221649Y0208526D01*
X0221668Y0208499D01*
X0221683Y0208470D01*
X0221694Y0208440D01*
X0221702Y0208408D01*
X0221706Y0208375D01*
X0221706Y0208343D01*
X0221702Y0208310D01*
X0221694Y0208278D01*
X0221683Y0208248D01*
X0221668Y0208219D01*
X0221649Y0208192D01*
X0221628Y0208167D01*
X0221604Y0208145D01*
X0221577Y0208126D01*
X0221549Y0208110D01*
X0221518Y0208098D01*
X0221487Y0208089D01*
X0221455Y0208084D01*
X0221422Y0208083D01*
X0221389Y0208086D01*
X0221357Y0208093D01*
X0221326Y0208103D01*
X0221297Y0208117D01*
X0221269Y0208135D01*
X0221244Y0208155D01*
X0221221Y0208179D01*
X0221201Y0208205D01*
X0221184Y0208233D01*
X0221171Y0208263D01*
X0221162Y0208294D01*
X0221156Y0208326D01*
X0221154Y0208359D01*
X0221154Y0210328D02*
X0221156Y0210361D01*
X0221162Y0210393D01*
X0221171Y0210424D01*
X0221184Y0210454D01*
X0221201Y0210482D01*
X0221221Y0210508D01*
X0221244Y0210532D01*
X0221269Y0210552D01*
X0221297Y0210570D01*
X0221326Y0210584D01*
X0221357Y0210594D01*
X0221389Y0210601D01*
X0221422Y0210604D01*
X0221455Y0210603D01*
X0221487Y0210598D01*
X0221518Y0210589D01*
X0221549Y0210577D01*
X0221577Y0210561D01*
X0221604Y0210542D01*
X0221628Y0210520D01*
X0221649Y0210495D01*
X0221668Y0210468D01*
X0221683Y0210439D01*
X0221694Y0210409D01*
X0221702Y0210377D01*
X0221706Y0210344D01*
X0221706Y0210312D01*
X0221702Y0210279D01*
X0221694Y0210247D01*
X0221683Y0210217D01*
X0221668Y0210188D01*
X0221649Y0210161D01*
X0221628Y0210136D01*
X0221604Y0210114D01*
X0221577Y0210095D01*
X0221549Y0210079D01*
X0221518Y0210067D01*
X0221487Y0210058D01*
X0221455Y0210053D01*
X0221422Y0210052D01*
X0221389Y0210055D01*
X0221357Y0210062D01*
X0221326Y0210072D01*
X0221297Y0210086D01*
X0221269Y0210104D01*
X0221244Y0210124D01*
X0221221Y0210148D01*
X0221201Y0210174D01*
X0221184Y0210202D01*
X0221171Y0210232D01*
X0221162Y0210263D01*
X0221156Y0210295D01*
X0221154Y0210328D01*
X0221154Y0212296D02*
X0221156Y0212329D01*
X0221162Y0212361D01*
X0221171Y0212392D01*
X0221184Y0212422D01*
X0221201Y0212450D01*
X0221221Y0212476D01*
X0221244Y0212500D01*
X0221269Y0212520D01*
X0221297Y0212538D01*
X0221326Y0212552D01*
X0221357Y0212562D01*
X0221389Y0212569D01*
X0221422Y0212572D01*
X0221455Y0212571D01*
X0221487Y0212566D01*
X0221518Y0212557D01*
X0221549Y0212545D01*
X0221577Y0212529D01*
X0221604Y0212510D01*
X0221628Y0212488D01*
X0221649Y0212463D01*
X0221668Y0212436D01*
X0221683Y0212407D01*
X0221694Y0212377D01*
X0221702Y0212345D01*
X0221706Y0212312D01*
X0221706Y0212280D01*
X0221702Y0212247D01*
X0221694Y0212215D01*
X0221683Y0212185D01*
X0221668Y0212156D01*
X0221649Y0212129D01*
X0221628Y0212104D01*
X0221604Y0212082D01*
X0221577Y0212063D01*
X0221549Y0212047D01*
X0221518Y0212035D01*
X0221487Y0212026D01*
X0221455Y0212021D01*
X0221422Y0212020D01*
X0221389Y0212023D01*
X0221357Y0212030D01*
X0221326Y0212040D01*
X0221297Y0212054D01*
X0221269Y0212072D01*
X0221244Y0212092D01*
X0221221Y0212116D01*
X0221201Y0212142D01*
X0221184Y0212170D01*
X0221171Y0212200D01*
X0221162Y0212231D01*
X0221156Y0212263D01*
X0221154Y0212296D01*
X0188146Y0211831D02*
X0188148Y0211864D01*
X0188154Y0211896D01*
X0188163Y0211927D01*
X0188176Y0211957D01*
X0188193Y0211985D01*
X0188213Y0212011D01*
X0188236Y0212035D01*
X0188261Y0212055D01*
X0188289Y0212073D01*
X0188318Y0212087D01*
X0188349Y0212097D01*
X0188381Y0212104D01*
X0188414Y0212107D01*
X0188447Y0212106D01*
X0188479Y0212101D01*
X0188510Y0212092D01*
X0188541Y0212080D01*
X0188569Y0212064D01*
X0188596Y0212045D01*
X0188620Y0212023D01*
X0188641Y0211998D01*
X0188660Y0211971D01*
X0188675Y0211942D01*
X0188686Y0211912D01*
X0188694Y0211880D01*
X0188698Y0211847D01*
X0188698Y0211815D01*
X0188694Y0211782D01*
X0188686Y0211750D01*
X0188675Y0211720D01*
X0188660Y0211691D01*
X0188641Y0211664D01*
X0188620Y0211639D01*
X0188596Y0211617D01*
X0188569Y0211598D01*
X0188541Y0211582D01*
X0188510Y0211570D01*
X0188479Y0211561D01*
X0188447Y0211556D01*
X0188414Y0211555D01*
X0188381Y0211558D01*
X0188349Y0211565D01*
X0188318Y0211575D01*
X0188289Y0211589D01*
X0188261Y0211607D01*
X0188236Y0211627D01*
X0188213Y0211651D01*
X0188193Y0211677D01*
X0188176Y0211705D01*
X0188163Y0211735D01*
X0188154Y0211766D01*
X0188148Y0211798D01*
X0188146Y0211831D01*
X0188146Y0209863D02*
X0188148Y0209896D01*
X0188154Y0209928D01*
X0188163Y0209959D01*
X0188176Y0209989D01*
X0188193Y0210017D01*
X0188213Y0210043D01*
X0188236Y0210067D01*
X0188261Y0210087D01*
X0188289Y0210105D01*
X0188318Y0210119D01*
X0188349Y0210129D01*
X0188381Y0210136D01*
X0188414Y0210139D01*
X0188447Y0210138D01*
X0188479Y0210133D01*
X0188510Y0210124D01*
X0188541Y0210112D01*
X0188569Y0210096D01*
X0188596Y0210077D01*
X0188620Y0210055D01*
X0188641Y0210030D01*
X0188660Y0210003D01*
X0188675Y0209974D01*
X0188686Y0209944D01*
X0188694Y0209912D01*
X0188698Y0209879D01*
X0188698Y0209847D01*
X0188694Y0209814D01*
X0188686Y0209782D01*
X0188675Y0209752D01*
X0188660Y0209723D01*
X0188641Y0209696D01*
X0188620Y0209671D01*
X0188596Y0209649D01*
X0188569Y0209630D01*
X0188541Y0209614D01*
X0188510Y0209602D01*
X0188479Y0209593D01*
X0188447Y0209588D01*
X0188414Y0209587D01*
X0188381Y0209590D01*
X0188349Y0209597D01*
X0188318Y0209607D01*
X0188289Y0209621D01*
X0188261Y0209639D01*
X0188236Y0209659D01*
X0188213Y0209683D01*
X0188193Y0209709D01*
X0188176Y0209737D01*
X0188163Y0209767D01*
X0188154Y0209798D01*
X0188148Y0209830D01*
X0188146Y0209863D01*
X0188146Y0213800D02*
X0188148Y0213833D01*
X0188154Y0213865D01*
X0188163Y0213896D01*
X0188176Y0213926D01*
X0188193Y0213954D01*
X0188213Y0213980D01*
X0188236Y0214004D01*
X0188261Y0214024D01*
X0188289Y0214042D01*
X0188318Y0214056D01*
X0188349Y0214066D01*
X0188381Y0214073D01*
X0188414Y0214076D01*
X0188447Y0214075D01*
X0188479Y0214070D01*
X0188510Y0214061D01*
X0188541Y0214049D01*
X0188569Y0214033D01*
X0188596Y0214014D01*
X0188620Y0213992D01*
X0188641Y0213967D01*
X0188660Y0213940D01*
X0188675Y0213911D01*
X0188686Y0213881D01*
X0188694Y0213849D01*
X0188698Y0213816D01*
X0188698Y0213784D01*
X0188694Y0213751D01*
X0188686Y0213719D01*
X0188675Y0213689D01*
X0188660Y0213660D01*
X0188641Y0213633D01*
X0188620Y0213608D01*
X0188596Y0213586D01*
X0188569Y0213567D01*
X0188541Y0213551D01*
X0188510Y0213539D01*
X0188479Y0213530D01*
X0188447Y0213525D01*
X0188414Y0213524D01*
X0188381Y0213527D01*
X0188349Y0213534D01*
X0188318Y0213544D01*
X0188289Y0213558D01*
X0188261Y0213576D01*
X0188236Y0213596D01*
X0188213Y0213620D01*
X0188193Y0213646D01*
X0188176Y0213674D01*
X0188163Y0213704D01*
X0188154Y0213735D01*
X0188148Y0213767D01*
X0188146Y0213800D01*
X0188146Y0215769D02*
X0188148Y0215802D01*
X0188154Y0215834D01*
X0188163Y0215865D01*
X0188176Y0215895D01*
X0188193Y0215923D01*
X0188213Y0215949D01*
X0188236Y0215973D01*
X0188261Y0215993D01*
X0188289Y0216011D01*
X0188318Y0216025D01*
X0188349Y0216035D01*
X0188381Y0216042D01*
X0188414Y0216045D01*
X0188447Y0216044D01*
X0188479Y0216039D01*
X0188510Y0216030D01*
X0188541Y0216018D01*
X0188569Y0216002D01*
X0188596Y0215983D01*
X0188620Y0215961D01*
X0188641Y0215936D01*
X0188660Y0215909D01*
X0188675Y0215880D01*
X0188686Y0215850D01*
X0188694Y0215818D01*
X0188698Y0215785D01*
X0188698Y0215753D01*
X0188694Y0215720D01*
X0188686Y0215688D01*
X0188675Y0215658D01*
X0188660Y0215629D01*
X0188641Y0215602D01*
X0188620Y0215577D01*
X0188596Y0215555D01*
X0188569Y0215536D01*
X0188541Y0215520D01*
X0188510Y0215508D01*
X0188479Y0215499D01*
X0188447Y0215494D01*
X0188414Y0215493D01*
X0188381Y0215496D01*
X0188349Y0215503D01*
X0188318Y0215513D01*
X0188289Y0215527D01*
X0188261Y0215545D01*
X0188236Y0215565D01*
X0188213Y0215589D01*
X0188193Y0215615D01*
X0188176Y0215643D01*
X0188163Y0215673D01*
X0188154Y0215704D01*
X0188148Y0215736D01*
X0188146Y0215769D01*
X0188146Y0217737D02*
X0188148Y0217770D01*
X0188154Y0217802D01*
X0188163Y0217833D01*
X0188176Y0217863D01*
X0188193Y0217891D01*
X0188213Y0217917D01*
X0188236Y0217941D01*
X0188261Y0217961D01*
X0188289Y0217979D01*
X0188318Y0217993D01*
X0188349Y0218003D01*
X0188381Y0218010D01*
X0188414Y0218013D01*
X0188447Y0218012D01*
X0188479Y0218007D01*
X0188510Y0217998D01*
X0188541Y0217986D01*
X0188569Y0217970D01*
X0188596Y0217951D01*
X0188620Y0217929D01*
X0188641Y0217904D01*
X0188660Y0217877D01*
X0188675Y0217848D01*
X0188686Y0217818D01*
X0188694Y0217786D01*
X0188698Y0217753D01*
X0188698Y0217721D01*
X0188694Y0217688D01*
X0188686Y0217656D01*
X0188675Y0217626D01*
X0188660Y0217597D01*
X0188641Y0217570D01*
X0188620Y0217545D01*
X0188596Y0217523D01*
X0188569Y0217504D01*
X0188541Y0217488D01*
X0188510Y0217476D01*
X0188479Y0217467D01*
X0188447Y0217462D01*
X0188414Y0217461D01*
X0188381Y0217464D01*
X0188349Y0217471D01*
X0188318Y0217481D01*
X0188289Y0217495D01*
X0188261Y0217513D01*
X0188236Y0217533D01*
X0188213Y0217557D01*
X0188193Y0217583D01*
X0188176Y0217611D01*
X0188163Y0217641D01*
X0188154Y0217672D01*
X0188148Y0217704D01*
X0188146Y0217737D01*
X0178776Y0217737D02*
X0178778Y0217770D01*
X0178784Y0217802D01*
X0178793Y0217833D01*
X0178806Y0217863D01*
X0178823Y0217891D01*
X0178843Y0217917D01*
X0178866Y0217941D01*
X0178891Y0217961D01*
X0178919Y0217979D01*
X0178948Y0217993D01*
X0178979Y0218003D01*
X0179011Y0218010D01*
X0179044Y0218013D01*
X0179077Y0218012D01*
X0179109Y0218007D01*
X0179140Y0217998D01*
X0179171Y0217986D01*
X0179199Y0217970D01*
X0179226Y0217951D01*
X0179250Y0217929D01*
X0179271Y0217904D01*
X0179290Y0217877D01*
X0179305Y0217848D01*
X0179316Y0217818D01*
X0179324Y0217786D01*
X0179328Y0217753D01*
X0179328Y0217721D01*
X0179324Y0217688D01*
X0179316Y0217656D01*
X0179305Y0217626D01*
X0179290Y0217597D01*
X0179271Y0217570D01*
X0179250Y0217545D01*
X0179226Y0217523D01*
X0179199Y0217504D01*
X0179171Y0217488D01*
X0179140Y0217476D01*
X0179109Y0217467D01*
X0179077Y0217462D01*
X0179044Y0217461D01*
X0179011Y0217464D01*
X0178979Y0217471D01*
X0178948Y0217481D01*
X0178919Y0217495D01*
X0178891Y0217513D01*
X0178866Y0217533D01*
X0178843Y0217557D01*
X0178823Y0217583D01*
X0178806Y0217611D01*
X0178793Y0217641D01*
X0178784Y0217672D01*
X0178778Y0217704D01*
X0178776Y0217737D01*
X0178776Y0215769D02*
X0178778Y0215802D01*
X0178784Y0215834D01*
X0178793Y0215865D01*
X0178806Y0215895D01*
X0178823Y0215923D01*
X0178843Y0215949D01*
X0178866Y0215973D01*
X0178891Y0215993D01*
X0178919Y0216011D01*
X0178948Y0216025D01*
X0178979Y0216035D01*
X0179011Y0216042D01*
X0179044Y0216045D01*
X0179077Y0216044D01*
X0179109Y0216039D01*
X0179140Y0216030D01*
X0179171Y0216018D01*
X0179199Y0216002D01*
X0179226Y0215983D01*
X0179250Y0215961D01*
X0179271Y0215936D01*
X0179290Y0215909D01*
X0179305Y0215880D01*
X0179316Y0215850D01*
X0179324Y0215818D01*
X0179328Y0215785D01*
X0179328Y0215753D01*
X0179324Y0215720D01*
X0179316Y0215688D01*
X0179305Y0215658D01*
X0179290Y0215629D01*
X0179271Y0215602D01*
X0179250Y0215577D01*
X0179226Y0215555D01*
X0179199Y0215536D01*
X0179171Y0215520D01*
X0179140Y0215508D01*
X0179109Y0215499D01*
X0179077Y0215494D01*
X0179044Y0215493D01*
X0179011Y0215496D01*
X0178979Y0215503D01*
X0178948Y0215513D01*
X0178919Y0215527D01*
X0178891Y0215545D01*
X0178866Y0215565D01*
X0178843Y0215589D01*
X0178823Y0215615D01*
X0178806Y0215643D01*
X0178793Y0215673D01*
X0178784Y0215704D01*
X0178778Y0215736D01*
X0178776Y0215769D01*
X0178776Y0213800D02*
X0178778Y0213833D01*
X0178784Y0213865D01*
X0178793Y0213896D01*
X0178806Y0213926D01*
X0178823Y0213954D01*
X0178843Y0213980D01*
X0178866Y0214004D01*
X0178891Y0214024D01*
X0178919Y0214042D01*
X0178948Y0214056D01*
X0178979Y0214066D01*
X0179011Y0214073D01*
X0179044Y0214076D01*
X0179077Y0214075D01*
X0179109Y0214070D01*
X0179140Y0214061D01*
X0179171Y0214049D01*
X0179199Y0214033D01*
X0179226Y0214014D01*
X0179250Y0213992D01*
X0179271Y0213967D01*
X0179290Y0213940D01*
X0179305Y0213911D01*
X0179316Y0213881D01*
X0179324Y0213849D01*
X0179328Y0213816D01*
X0179328Y0213784D01*
X0179324Y0213751D01*
X0179316Y0213719D01*
X0179305Y0213689D01*
X0179290Y0213660D01*
X0179271Y0213633D01*
X0179250Y0213608D01*
X0179226Y0213586D01*
X0179199Y0213567D01*
X0179171Y0213551D01*
X0179140Y0213539D01*
X0179109Y0213530D01*
X0179077Y0213525D01*
X0179044Y0213524D01*
X0179011Y0213527D01*
X0178979Y0213534D01*
X0178948Y0213544D01*
X0178919Y0213558D01*
X0178891Y0213576D01*
X0178866Y0213596D01*
X0178843Y0213620D01*
X0178823Y0213646D01*
X0178806Y0213674D01*
X0178793Y0213704D01*
X0178784Y0213735D01*
X0178778Y0213767D01*
X0178776Y0213800D01*
X0178776Y0211831D02*
X0178778Y0211864D01*
X0178784Y0211896D01*
X0178793Y0211927D01*
X0178806Y0211957D01*
X0178823Y0211985D01*
X0178843Y0212011D01*
X0178866Y0212035D01*
X0178891Y0212055D01*
X0178919Y0212073D01*
X0178948Y0212087D01*
X0178979Y0212097D01*
X0179011Y0212104D01*
X0179044Y0212107D01*
X0179077Y0212106D01*
X0179109Y0212101D01*
X0179140Y0212092D01*
X0179171Y0212080D01*
X0179199Y0212064D01*
X0179226Y0212045D01*
X0179250Y0212023D01*
X0179271Y0211998D01*
X0179290Y0211971D01*
X0179305Y0211942D01*
X0179316Y0211912D01*
X0179324Y0211880D01*
X0179328Y0211847D01*
X0179328Y0211815D01*
X0179324Y0211782D01*
X0179316Y0211750D01*
X0179305Y0211720D01*
X0179290Y0211691D01*
X0179271Y0211664D01*
X0179250Y0211639D01*
X0179226Y0211617D01*
X0179199Y0211598D01*
X0179171Y0211582D01*
X0179140Y0211570D01*
X0179109Y0211561D01*
X0179077Y0211556D01*
X0179044Y0211555D01*
X0179011Y0211558D01*
X0178979Y0211565D01*
X0178948Y0211575D01*
X0178919Y0211589D01*
X0178891Y0211607D01*
X0178866Y0211627D01*
X0178843Y0211651D01*
X0178823Y0211677D01*
X0178806Y0211705D01*
X0178793Y0211735D01*
X0178784Y0211766D01*
X0178778Y0211798D01*
X0178776Y0211831D01*
X0178776Y0209863D02*
X0178778Y0209896D01*
X0178784Y0209928D01*
X0178793Y0209959D01*
X0178806Y0209989D01*
X0178823Y0210017D01*
X0178843Y0210043D01*
X0178866Y0210067D01*
X0178891Y0210087D01*
X0178919Y0210105D01*
X0178948Y0210119D01*
X0178979Y0210129D01*
X0179011Y0210136D01*
X0179044Y0210139D01*
X0179077Y0210138D01*
X0179109Y0210133D01*
X0179140Y0210124D01*
X0179171Y0210112D01*
X0179199Y0210096D01*
X0179226Y0210077D01*
X0179250Y0210055D01*
X0179271Y0210030D01*
X0179290Y0210003D01*
X0179305Y0209974D01*
X0179316Y0209944D01*
X0179324Y0209912D01*
X0179328Y0209879D01*
X0179328Y0209847D01*
X0179324Y0209814D01*
X0179316Y0209782D01*
X0179305Y0209752D01*
X0179290Y0209723D01*
X0179271Y0209696D01*
X0179250Y0209671D01*
X0179226Y0209649D01*
X0179199Y0209630D01*
X0179171Y0209614D01*
X0179140Y0209602D01*
X0179109Y0209593D01*
X0179077Y0209588D01*
X0179044Y0209587D01*
X0179011Y0209590D01*
X0178979Y0209597D01*
X0178948Y0209607D01*
X0178919Y0209621D01*
X0178891Y0209639D01*
X0178866Y0209659D01*
X0178843Y0209683D01*
X0178823Y0209709D01*
X0178806Y0209737D01*
X0178793Y0209767D01*
X0178784Y0209798D01*
X0178778Y0209830D01*
X0178776Y0209863D01*
D22*
X0183737Y0213800D03*
X0226115Y0208359D03*
D23*
X0227099Y0205347D03*
X0184721Y0210788D03*
D24*
X0182753Y0207698D03*
X0182753Y0219902D03*
X0184721Y0219902D03*
X0225131Y0214461D03*
X0227099Y0214461D03*
X0225131Y0202257D03*
D25*
X0219587Y0204419D03*
X0219598Y0206393D03*
X0219598Y0208356D03*
X0219582Y0210325D03*
X0219582Y0212297D03*
X0232643Y0212291D03*
X0232656Y0210322D03*
X0232643Y0208365D03*
X0232648Y0206393D03*
X0232648Y0204422D03*
X0190270Y0209863D03*
X0190270Y0211834D03*
X0190265Y0213806D03*
X0190278Y0215763D03*
X0190265Y0217732D03*
X0177204Y0217738D03*
X0177204Y0215766D03*
X0177220Y0213797D03*
X0177220Y0211834D03*
X0177209Y0209860D03*
D26*
X0183744Y0213858D03*
X0226122Y0208417D03*
D27*
X0231509Y0171725D03*
X0240540Y0162698D03*
X0231509Y0153670D03*
X0222477Y0162698D03*
X0234249Y0123733D03*
X0243280Y0114706D03*
X0234249Y0105678D03*
X0225217Y0114706D03*
D28*
X0128556Y0205040D03*
X0128556Y0207009D03*
X0128556Y0208977D03*
X0128556Y0210946D03*
X0128556Y0212914D03*
X0128556Y0214883D03*
X0128556Y0216851D03*
X0128556Y0218820D03*
X0113595Y0218820D03*
X0113595Y0216851D03*
X0113595Y0214883D03*
X0113595Y0212914D03*
X0113595Y0210946D03*
X0113595Y0208928D03*
X0113595Y0207009D03*
X0113595Y0204991D03*
D29*
X0116321Y0203435D02*
X0125831Y0203435D01*
X0116321Y0203435D02*
X0116321Y0220425D01*
X0125831Y0220425D01*
X0125831Y0203435D01*
X0125831Y0203530D02*
X0116321Y0203530D01*
X0116321Y0203625D02*
X0125831Y0203625D01*
X0125831Y0203720D02*
X0116321Y0203720D01*
X0116321Y0203815D02*
X0125831Y0203815D01*
X0125831Y0203910D02*
X0116321Y0203910D01*
X0116321Y0204005D02*
X0125831Y0204005D01*
X0125831Y0204100D02*
X0116321Y0204100D01*
X0116321Y0204195D02*
X0125831Y0204195D01*
X0125831Y0204290D02*
X0116321Y0204290D01*
X0116321Y0204385D02*
X0125831Y0204385D01*
X0125831Y0204480D02*
X0116321Y0204480D01*
X0116321Y0204575D02*
X0125831Y0204575D01*
X0125831Y0204670D02*
X0116321Y0204670D01*
X0116321Y0204765D02*
X0125831Y0204765D01*
X0125831Y0204860D02*
X0116321Y0204860D01*
X0116321Y0204955D02*
X0125831Y0204955D01*
X0125831Y0205050D02*
X0116321Y0205050D01*
X0116321Y0205145D02*
X0125831Y0205145D01*
X0125831Y0205240D02*
X0116321Y0205240D01*
X0116321Y0205335D02*
X0125831Y0205335D01*
X0125831Y0205430D02*
X0116321Y0205430D01*
X0116321Y0205525D02*
X0125831Y0205525D01*
X0125831Y0205620D02*
X0116321Y0205620D01*
X0116321Y0205715D02*
X0125831Y0205715D01*
X0125831Y0205810D02*
X0116321Y0205810D01*
X0116321Y0205905D02*
X0125831Y0205905D01*
X0125831Y0206000D02*
X0116321Y0206000D01*
X0116321Y0206095D02*
X0125831Y0206095D01*
X0125831Y0206190D02*
X0116321Y0206190D01*
X0116321Y0206285D02*
X0125831Y0206285D01*
X0125831Y0206380D02*
X0116321Y0206380D01*
X0116321Y0206475D02*
X0125831Y0206475D01*
X0125831Y0206570D02*
X0116321Y0206570D01*
X0116321Y0206665D02*
X0125831Y0206665D01*
X0125831Y0206760D02*
X0116321Y0206760D01*
X0116321Y0206855D02*
X0125831Y0206855D01*
X0125831Y0206950D02*
X0116321Y0206950D01*
X0116321Y0207045D02*
X0125831Y0207045D01*
X0125831Y0207140D02*
X0116321Y0207140D01*
X0116321Y0207235D02*
X0125831Y0207235D01*
X0125831Y0207330D02*
X0116321Y0207330D01*
X0116321Y0207425D02*
X0125831Y0207425D01*
X0125831Y0207520D02*
X0116321Y0207520D01*
X0116321Y0207615D02*
X0125831Y0207615D01*
X0125831Y0207710D02*
X0116321Y0207710D01*
X0116321Y0207805D02*
X0125831Y0207805D01*
X0125831Y0207900D02*
X0116321Y0207900D01*
X0116321Y0207995D02*
X0125831Y0207995D01*
X0125831Y0208090D02*
X0116321Y0208090D01*
X0116321Y0208185D02*
X0125831Y0208185D01*
X0125831Y0208280D02*
X0116321Y0208280D01*
X0116321Y0208375D02*
X0125831Y0208375D01*
X0125831Y0208470D02*
X0116321Y0208470D01*
X0116321Y0208565D02*
X0125831Y0208565D01*
X0125831Y0208660D02*
X0116321Y0208660D01*
X0116321Y0208755D02*
X0125831Y0208755D01*
X0125831Y0208850D02*
X0116321Y0208850D01*
X0116321Y0208945D02*
X0125831Y0208945D01*
X0125831Y0209040D02*
X0116321Y0209040D01*
X0116321Y0209135D02*
X0125831Y0209135D01*
X0125831Y0209230D02*
X0116321Y0209230D01*
X0116321Y0209325D02*
X0125831Y0209325D01*
X0125831Y0209420D02*
X0116321Y0209420D01*
X0116321Y0209515D02*
X0125831Y0209515D01*
X0125831Y0209610D02*
X0116321Y0209610D01*
X0116321Y0209705D02*
X0125831Y0209705D01*
X0125831Y0209800D02*
X0116321Y0209800D01*
X0116321Y0209895D02*
X0125831Y0209895D01*
X0125831Y0209990D02*
X0116321Y0209990D01*
X0116321Y0210085D02*
X0125831Y0210085D01*
X0125831Y0210180D02*
X0116321Y0210180D01*
X0116321Y0210275D02*
X0125831Y0210275D01*
X0125831Y0210370D02*
X0116321Y0210370D01*
X0116321Y0210465D02*
X0125831Y0210465D01*
X0125831Y0210560D02*
X0116321Y0210560D01*
X0116321Y0210655D02*
X0125831Y0210655D01*
X0125831Y0210750D02*
X0116321Y0210750D01*
X0116321Y0210845D02*
X0125831Y0210845D01*
X0125831Y0210940D02*
X0116321Y0210940D01*
X0116321Y0211035D02*
X0125831Y0211035D01*
X0125831Y0211130D02*
X0116321Y0211130D01*
X0116321Y0211225D02*
X0125831Y0211225D01*
X0125831Y0211320D02*
X0116321Y0211320D01*
X0116321Y0211415D02*
X0125831Y0211415D01*
X0125831Y0211510D02*
X0116321Y0211510D01*
X0116321Y0211605D02*
X0125831Y0211605D01*
X0125831Y0211700D02*
X0116321Y0211700D01*
X0116321Y0211795D02*
X0125831Y0211795D01*
X0125831Y0211890D02*
X0116321Y0211890D01*
X0116321Y0211985D02*
X0125831Y0211985D01*
X0125831Y0212080D02*
X0116321Y0212080D01*
X0116321Y0212175D02*
X0125831Y0212175D01*
X0125831Y0212270D02*
X0116321Y0212270D01*
X0116321Y0212365D02*
X0125831Y0212365D01*
X0125831Y0212460D02*
X0116321Y0212460D01*
X0116321Y0212555D02*
X0125831Y0212555D01*
X0125831Y0212650D02*
X0116321Y0212650D01*
X0116321Y0212745D02*
X0125831Y0212745D01*
X0125831Y0212840D02*
X0116321Y0212840D01*
X0116321Y0212935D02*
X0125831Y0212935D01*
X0125831Y0213030D02*
X0116321Y0213030D01*
X0116321Y0213125D02*
X0125831Y0213125D01*
X0125831Y0213220D02*
X0116321Y0213220D01*
X0116321Y0213315D02*
X0125831Y0213315D01*
X0125831Y0213410D02*
X0116321Y0213410D01*
X0116321Y0213505D02*
X0125831Y0213505D01*
X0125831Y0213600D02*
X0116321Y0213600D01*
X0116321Y0213695D02*
X0125831Y0213695D01*
X0125831Y0213790D02*
X0116321Y0213790D01*
X0116321Y0213885D02*
X0125831Y0213885D01*
X0125831Y0213980D02*
X0116321Y0213980D01*
X0116321Y0214075D02*
X0125831Y0214075D01*
X0125831Y0214170D02*
X0116321Y0214170D01*
X0116321Y0214265D02*
X0125831Y0214265D01*
X0125831Y0214360D02*
X0116321Y0214360D01*
X0116321Y0214455D02*
X0125831Y0214455D01*
X0125831Y0214550D02*
X0116321Y0214550D01*
X0116321Y0214645D02*
X0125831Y0214645D01*
X0125831Y0214740D02*
X0116321Y0214740D01*
X0116321Y0214835D02*
X0125831Y0214835D01*
X0125831Y0214930D02*
X0116321Y0214930D01*
X0116321Y0215025D02*
X0125831Y0215025D01*
X0125831Y0215120D02*
X0116321Y0215120D01*
X0116321Y0215215D02*
X0125831Y0215215D01*
X0125831Y0215310D02*
X0116321Y0215310D01*
X0116321Y0215405D02*
X0125831Y0215405D01*
X0125831Y0215500D02*
X0116321Y0215500D01*
X0116321Y0215595D02*
X0125831Y0215595D01*
X0125831Y0215690D02*
X0116321Y0215690D01*
X0116321Y0215785D02*
X0125831Y0215785D01*
X0125831Y0215880D02*
X0116321Y0215880D01*
X0116321Y0215975D02*
X0125831Y0215975D01*
X0125831Y0216070D02*
X0116321Y0216070D01*
X0116321Y0216165D02*
X0125831Y0216165D01*
X0125831Y0216260D02*
X0116321Y0216260D01*
X0116321Y0216355D02*
X0125831Y0216355D01*
X0125831Y0216450D02*
X0116321Y0216450D01*
X0116321Y0216545D02*
X0125831Y0216545D01*
X0125831Y0216640D02*
X0116321Y0216640D01*
X0116321Y0216735D02*
X0125831Y0216735D01*
X0125831Y0216830D02*
X0116321Y0216830D01*
X0116321Y0216925D02*
X0125831Y0216925D01*
X0125831Y0217020D02*
X0116321Y0217020D01*
X0116321Y0217115D02*
X0125831Y0217115D01*
X0125831Y0217210D02*
X0116321Y0217210D01*
X0116321Y0217305D02*
X0125831Y0217305D01*
X0125831Y0217400D02*
X0116321Y0217400D01*
X0116321Y0217495D02*
X0125831Y0217495D01*
X0125831Y0217590D02*
X0116321Y0217590D01*
X0116321Y0217685D02*
X0125831Y0217685D01*
X0125831Y0217780D02*
X0116321Y0217780D01*
X0116321Y0217875D02*
X0125831Y0217875D01*
X0125831Y0217970D02*
X0116321Y0217970D01*
X0116321Y0218065D02*
X0125831Y0218065D01*
X0125831Y0218160D02*
X0116321Y0218160D01*
X0116321Y0218255D02*
X0125831Y0218255D01*
X0125831Y0218350D02*
X0116321Y0218350D01*
X0116321Y0218445D02*
X0125831Y0218445D01*
X0125831Y0218540D02*
X0116321Y0218540D01*
X0116321Y0218635D02*
X0125831Y0218635D01*
X0125831Y0218730D02*
X0116321Y0218730D01*
X0116321Y0218825D02*
X0125831Y0218825D01*
X0125831Y0218920D02*
X0116321Y0218920D01*
X0116321Y0219015D02*
X0125831Y0219015D01*
X0125831Y0219110D02*
X0116321Y0219110D01*
X0116321Y0219205D02*
X0125831Y0219205D01*
X0125831Y0219300D02*
X0116321Y0219300D01*
X0116321Y0219395D02*
X0125831Y0219395D01*
X0125831Y0219490D02*
X0116321Y0219490D01*
X0116321Y0219585D02*
X0125831Y0219585D01*
X0125831Y0219680D02*
X0116321Y0219680D01*
X0116321Y0219775D02*
X0125831Y0219775D01*
X0125831Y0219870D02*
X0116321Y0219870D01*
X0116321Y0219965D02*
X0125831Y0219965D01*
X0125831Y0220060D02*
X0116321Y0220060D01*
X0116321Y0220155D02*
X0125831Y0220155D01*
X0125831Y0220250D02*
X0116321Y0220250D01*
X0116321Y0220345D02*
X0125831Y0220345D01*
D30*
X0137217Y0221658D03*
X0137217Y0214965D03*
X0137217Y0208658D03*
X0137217Y0201965D03*
X0167217Y0202965D03*
X0167217Y0209658D03*
X0167217Y0214965D03*
X0167217Y0221658D03*
X0092217Y0213658D03*
X0092217Y0206965D03*
D31*
X0199170Y0082237D03*
X0201139Y0082237D03*
X0203107Y0082237D03*
X0205076Y0082237D03*
X0205076Y0072198D03*
X0203107Y0072198D03*
X0201139Y0072198D03*
X0199170Y0072198D03*
D32*
X0197103Y0074265D03*
X0197103Y0076233D03*
X0197103Y0078202D03*
X0197103Y0080170D03*
X0207143Y0080170D03*
X0207143Y0078202D03*
X0207143Y0076233D03*
X0207143Y0074265D03*
D33*
X0135643Y0181847D03*
X0135643Y0188304D03*
D34*
X0119957Y0174454D03*
X0116217Y0174454D03*
X0112477Y0174454D03*
X0112477Y0164170D03*
X0119957Y0164170D03*
X0099957Y0166170D03*
X0096217Y0166170D03*
X0092477Y0166170D03*
X0092477Y0176454D03*
X0099957Y0176454D03*
D35*
X0184217Y0142383D03*
X0184217Y0134312D03*
D36*
X0170792Y0138406D03*
D37*
X0113241Y0157312D03*
X0102217Y0157312D03*
D38*
X0189217Y0106312D03*
D39*
X0188430Y0111824D03*
X0190005Y0111824D03*
X0191580Y0111824D03*
X0186855Y0111824D03*
X0186855Y0100800D03*
X0188430Y0100800D03*
X0190005Y0100800D03*
X0191580Y0100800D03*
D40*
X0194729Y0103950D03*
X0194729Y0105524D03*
X0194729Y0107099D03*
X0194729Y0108674D03*
X0183706Y0108674D03*
X0183706Y0107099D03*
X0183706Y0105524D03*
X0183706Y0103950D03*
D41*
X0182848Y0102642D02*
X0182848Y0102108D01*
X0182848Y0102642D02*
X0184564Y0102642D01*
X0184564Y0102108D01*
X0182848Y0102108D01*
X0182848Y0102359D02*
X0184564Y0102359D01*
X0184564Y0102610D02*
X0182848Y0102610D01*
X0185013Y0101658D02*
X0185547Y0101658D01*
X0185547Y0099942D01*
X0185013Y0099942D01*
X0185013Y0101658D01*
X0185013Y0100193D02*
X0185547Y0100193D01*
X0185547Y0100444D02*
X0185013Y0100444D01*
X0185013Y0100695D02*
X0185547Y0100695D01*
X0185547Y0100946D02*
X0185013Y0100946D01*
X0185013Y0101197D02*
X0185547Y0101197D01*
X0185547Y0101448D02*
X0185013Y0101448D01*
X0192887Y0101658D02*
X0193421Y0101658D01*
X0193421Y0099942D01*
X0192887Y0099942D01*
X0192887Y0101658D01*
X0192887Y0100193D02*
X0193421Y0100193D01*
X0193421Y0100444D02*
X0192887Y0100444D01*
X0192887Y0100695D02*
X0193421Y0100695D01*
X0193421Y0100946D02*
X0192887Y0100946D01*
X0192887Y0101197D02*
X0193421Y0101197D01*
X0193421Y0101448D02*
X0192887Y0101448D01*
X0195587Y0102108D02*
X0195587Y0102642D01*
X0195587Y0102108D02*
X0193871Y0102108D01*
X0193871Y0102642D01*
X0195587Y0102642D01*
X0195587Y0102359D02*
X0193871Y0102359D01*
X0193871Y0102610D02*
X0195587Y0102610D01*
X0193871Y0109982D02*
X0193871Y0110516D01*
X0195587Y0110516D01*
X0195587Y0109982D01*
X0193871Y0109982D01*
X0193871Y0110233D02*
X0195587Y0110233D01*
X0195587Y0110484D02*
X0193871Y0110484D01*
X0193421Y0112682D02*
X0192887Y0112682D01*
X0193421Y0112682D02*
X0193421Y0110966D01*
X0192887Y0110966D01*
X0192887Y0112682D01*
X0192887Y0111217D02*
X0193421Y0111217D01*
X0193421Y0111468D02*
X0192887Y0111468D01*
X0192887Y0111719D02*
X0193421Y0111719D01*
X0193421Y0111970D02*
X0192887Y0111970D01*
X0192887Y0112221D02*
X0193421Y0112221D01*
X0193421Y0112472D02*
X0192887Y0112472D01*
X0185547Y0110966D02*
X0185013Y0110966D01*
X0185013Y0112682D01*
X0185547Y0112682D01*
X0185547Y0110966D01*
X0185547Y0111217D02*
X0185013Y0111217D01*
X0185013Y0111468D02*
X0185547Y0111468D01*
X0185547Y0111719D02*
X0185013Y0111719D01*
X0185013Y0111970D02*
X0185547Y0111970D01*
X0185547Y0112221D02*
X0185013Y0112221D01*
X0185013Y0112472D02*
X0185547Y0112472D01*
X0182848Y0110516D02*
X0182848Y0109982D01*
X0182848Y0110516D02*
X0184564Y0110516D01*
X0184564Y0109982D01*
X0182848Y0109982D01*
X0182848Y0110233D02*
X0184564Y0110233D01*
X0184564Y0110484D02*
X0182848Y0110484D01*
D42*
X0187717Y0169076D03*
X0192717Y0169076D03*
X0197717Y0169076D03*
X0202717Y0169076D03*
X0202717Y0189548D03*
X0197717Y0189548D03*
X0192717Y0189548D03*
X0187717Y0189548D03*
D43*
X0029217Y0238312D02*
X0029217Y0013312D01*
X0254217Y0013312D01*
X0254020Y0238115D01*
X0029217Y0238312D01*
X0056950Y0226556D02*
X0059028Y0225556D01*
X0058028Y0224792D01*
X0056950Y0226556D02*
X0060855Y0229461D01*
X0076855Y0229257D01*
X0079808Y0232209D01*
X0124099Y0226304D02*
X0127917Y0226304D01*
X0142800Y0226304D01*
X0144769Y0224335D01*
X0161501Y0224335D01*
X0162485Y0223351D01*
X0186967Y0232082D02*
X0186967Y0233512D01*
X0235487Y0233512D01*
X0231867Y0229892D01*
X0231867Y0221732D01*
X0237637Y0215962D01*
X0245797Y0215962D01*
X0249417Y0219582D01*
X0249417Y0215115D01*
X0248990Y0215542D01*
X0239003Y0215542D01*
X0238066Y0214604D01*
X0238066Y0212522D01*
X0235195Y0212522D01*
X0235195Y0213510D01*
X0234258Y0214447D01*
X0233598Y0214447D01*
X0232598Y0215447D01*
X0232598Y0219341D01*
X0231310Y0220630D01*
X0220629Y0220630D01*
X0218959Y0218960D01*
X0218959Y0221793D01*
X0218308Y0222444D01*
X0221935Y0222444D01*
X0222811Y0223320D01*
X0223817Y0222904D01*
X0225169Y0222904D01*
X0226419Y0223422D01*
X0227375Y0224378D01*
X0227893Y0225628D01*
X0227893Y0226980D01*
X0227375Y0228230D01*
X0226419Y0229186D01*
X0225169Y0229704D01*
X0223817Y0229704D01*
X0222872Y0229313D01*
X0222872Y0229431D01*
X0221935Y0230368D01*
X0217460Y0230368D01*
X0216523Y0229431D01*
X0216523Y0223381D01*
X0217173Y0222731D01*
X0215135Y0222731D01*
X0215786Y0223381D01*
X0215786Y0229431D01*
X0214849Y0230368D01*
X0210373Y0230368D01*
X0209781Y0229776D01*
X0209566Y0229990D01*
X0208395Y0230476D01*
X0207127Y0230476D01*
X0205955Y0229990D01*
X0205058Y0229094D01*
X0204573Y0227922D01*
X0204573Y0226654D01*
X0205021Y0225573D01*
X0197224Y0225573D01*
X0196309Y0224658D01*
X0195333Y0225062D01*
X0193987Y0225062D01*
X0186967Y0232082D01*
X0187317Y0231732D02*
X0233707Y0231732D01*
X0235306Y0233330D02*
X0186967Y0233330D01*
X0188916Y0230133D02*
X0206300Y0230133D01*
X0204827Y0228535D02*
X0190514Y0228535D01*
X0192113Y0226936D02*
X0204573Y0226936D01*
X0209221Y0230133D02*
X0210138Y0230133D01*
X0215084Y0230133D02*
X0217225Y0230133D01*
X0216523Y0228535D02*
X0215786Y0228535D01*
X0215786Y0226936D02*
X0216523Y0226936D01*
X0216523Y0225338D02*
X0215786Y0225338D01*
X0215786Y0223739D02*
X0216523Y0223739D01*
X0218612Y0222141D02*
X0231867Y0222141D01*
X0231867Y0223739D02*
X0226736Y0223739D01*
X0227773Y0225338D02*
X0231867Y0225338D01*
X0231867Y0226936D02*
X0227893Y0226936D01*
X0227070Y0228535D02*
X0231867Y0228535D01*
X0232109Y0230133D02*
X0222170Y0230133D01*
X0220541Y0220542D02*
X0218959Y0220542D01*
X0210995Y0209599D02*
X0210995Y0205334D01*
X0211933Y0204397D01*
X0215021Y0204397D01*
X0215225Y0204193D01*
X0215554Y0204193D01*
X0215021Y0203660D01*
X0211933Y0203660D01*
X0210995Y0202723D01*
X0210995Y0198247D01*
X0211933Y0197310D01*
X0217982Y0197310D01*
X0218920Y0198247D01*
X0218920Y0198254D01*
X0219645Y0197529D01*
X0229586Y0197529D01*
X0229586Y0192287D01*
X0230523Y0191350D01*
X0234998Y0191350D01*
X0235935Y0192287D01*
X0235935Y0198337D01*
X0234998Y0199274D01*
X0234848Y0199274D01*
X0234848Y0202011D01*
X0238066Y0198793D01*
X0238066Y0195956D01*
X0239003Y0195019D01*
X0248990Y0195019D01*
X0249417Y0195446D01*
X0249417Y0029542D01*
X0245797Y0033162D01*
X0237637Y0033162D01*
X0231867Y0027392D01*
X0231867Y0019232D01*
X0232987Y0018112D01*
X0047947Y0018112D01*
X0049067Y0019232D01*
X0049067Y0027392D01*
X0043297Y0033162D01*
X0035137Y0033162D01*
X0034017Y0032042D01*
X0034017Y0082808D01*
X0034755Y0082070D01*
X0042369Y0082070D01*
X0042369Y0052322D01*
X0043307Y0051385D01*
X0053632Y0051385D01*
X0054569Y0052322D01*
X0054569Y0082648D01*
X0053632Y0083585D01*
X0046018Y0083585D01*
X0046018Y0091043D01*
X0048787Y0093812D01*
X0068317Y0093812D01*
X0068317Y0081992D01*
X0069217Y0081092D01*
X0070447Y0079862D01*
X0078278Y0079862D01*
X0078922Y0079807D01*
X0078735Y0079620D01*
X0078735Y0078067D01*
X0078569Y0077900D01*
X0078569Y0076078D01*
X0078592Y0076054D01*
X0078592Y0065798D01*
X0078390Y0065767D01*
X0078079Y0066078D01*
X0076835Y0066594D01*
X0075489Y0066594D01*
X0074245Y0066078D01*
X0073293Y0065126D01*
X0072778Y0063883D01*
X0072778Y0062536D01*
X0073293Y0061292D01*
X0074245Y0060340D01*
X0075489Y0059825D01*
X0076835Y0059825D01*
X0078079Y0060340D01*
X0079031Y0061292D01*
X0079085Y0061422D01*
X0080956Y0061702D01*
X0081703Y0061702D01*
X0081835Y0061834D01*
X0082019Y0061861D01*
X0082463Y0062462D01*
X0082992Y0062991D01*
X0082992Y0063177D01*
X0083103Y0063327D01*
X0082992Y0064066D01*
X0082992Y0065067D01*
X0098493Y0049566D01*
X0096915Y0049566D01*
X0096311Y0048962D01*
X0093397Y0048962D01*
X0089678Y0045243D01*
X0083543Y0045243D01*
X0083917Y0046146D01*
X0083917Y0047578D01*
X0083369Y0048901D01*
X0082357Y0049914D01*
X0081033Y0050462D01*
X0079601Y0050462D01*
X0078278Y0049914D01*
X0077875Y0049510D01*
X0077819Y0049566D01*
X0073293Y0049566D01*
X0073139Y0049412D01*
X0070387Y0049412D01*
X0070046Y0049753D01*
X0070046Y0052730D01*
X0069108Y0053668D01*
X0067359Y0053668D01*
X0068086Y0054395D01*
X0068602Y0055639D01*
X0068602Y0056985D01*
X0068086Y0058229D01*
X0067134Y0059181D01*
X0065890Y0059696D01*
X0064544Y0059696D01*
X0063300Y0059181D01*
X0062348Y0058229D01*
X0061833Y0056985D01*
X0061833Y0055639D01*
X0062348Y0054395D01*
X0063217Y0053526D01*
X0063217Y0050483D01*
X0063696Y0050005D01*
X0063696Y0046681D01*
X0064633Y0045743D01*
X0067957Y0045743D01*
X0068033Y0045668D01*
X0064633Y0045668D01*
X0063696Y0044730D01*
X0063696Y0038681D01*
X0064171Y0038205D01*
X0063696Y0037730D01*
X0063696Y0031681D01*
X0064633Y0030743D01*
X0069108Y0030743D01*
X0070046Y0031681D01*
X0070046Y0034520D01*
X0070387Y0034862D01*
X0073237Y0034862D01*
X0073293Y0034806D01*
X0074722Y0034806D01*
X0074770Y0034769D01*
X0075059Y0034806D01*
X0077819Y0034806D01*
X0078756Y0035743D01*
X0078756Y0038668D01*
X0077819Y0039605D01*
X0073293Y0039605D01*
X0072749Y0039062D01*
X0070046Y0039062D01*
X0070046Y0039812D01*
X0073287Y0039812D01*
X0073293Y0039806D01*
X0074761Y0039806D01*
X0074965Y0039675D01*
X0075565Y0039806D01*
X0077819Y0039806D01*
X0078756Y0040743D01*
X0078756Y0042331D01*
X0079687Y0043262D01*
X0081033Y0043262D01*
X0081830Y0043592D01*
X0081830Y0037394D01*
X0079567Y0035132D01*
X0079567Y0028291D01*
X0079300Y0028181D01*
X0078348Y0027229D01*
X0078300Y0027112D01*
X0077196Y0027112D01*
X0076038Y0027144D01*
X0076038Y0028156D01*
X0075101Y0029093D01*
X0070625Y0029093D01*
X0069688Y0028156D01*
X0069688Y0022106D01*
X0070625Y0021169D01*
X0075101Y0021169D01*
X0076038Y0022106D01*
X0076038Y0022942D01*
X0076274Y0022936D01*
X0076297Y0022912D01*
X0077138Y0022912D01*
X0077979Y0022889D01*
X0078003Y0022912D01*
X0078831Y0022912D01*
X0079300Y0022443D01*
X0080544Y0021928D01*
X0081890Y0021928D01*
X0083134Y0022443D01*
X0084086Y0023395D01*
X0084602Y0024639D01*
X0084602Y0025985D01*
X0084086Y0027229D01*
X0083767Y0027548D01*
X0083767Y0033392D01*
X0084544Y0034169D01*
X0088323Y0034169D01*
X0087833Y0032985D01*
X0087833Y0031639D01*
X0088348Y0030395D01*
X0089300Y0029443D01*
X0090544Y0028928D01*
X0090773Y0028928D01*
X0095389Y0024312D01*
X0115833Y0024312D01*
X0115833Y0023639D01*
X0116348Y0022395D01*
X0117300Y0021443D01*
X0118544Y0020928D01*
X0119890Y0020928D01*
X0121134Y0021443D01*
X0122086Y0022395D01*
X0122602Y0023639D01*
X0122602Y0024985D01*
X0122086Y0026229D01*
X0121134Y0027181D01*
X0119890Y0027696D01*
X0118661Y0027696D01*
X0118318Y0028040D01*
X0118959Y0028681D01*
X0118959Y0034730D01*
X0118484Y0035206D01*
X0118959Y0035681D01*
X0118959Y0041134D01*
X0119437Y0041612D01*
X0120667Y0042842D01*
X0120667Y0065342D01*
X0125737Y0070412D01*
X0126967Y0071642D01*
X0126967Y0082382D01*
X0125437Y0083912D01*
X0125797Y0083912D01*
X0140297Y0069412D01*
X0133070Y0069412D01*
X0132133Y0068475D01*
X0132133Y0058149D01*
X0133070Y0057212D01*
X0133823Y0057212D01*
X0133117Y0056506D01*
X0133117Y0046181D01*
X0134055Y0045243D01*
X0144380Y0045243D01*
X0145317Y0046181D01*
X0145317Y0056506D01*
X0144380Y0057443D01*
X0143627Y0057443D01*
X0144333Y0058149D01*
X0144333Y0065376D01*
X0149767Y0059942D01*
X0149767Y0045542D01*
X0156268Y0039042D01*
X0153755Y0039042D01*
X0152818Y0038104D01*
X0152818Y0027779D01*
X0153755Y0026842D01*
X0164081Y0026842D01*
X0165018Y0027779D01*
X0165018Y0034791D01*
X0174517Y0025292D01*
X0174517Y0022592D01*
X0175417Y0021692D01*
X0176647Y0020462D01*
X0202237Y0020462D01*
X0227437Y0045662D01*
X0228667Y0046892D01*
X0228667Y0108482D01*
X0226451Y0110698D01*
X0227582Y0111166D01*
X0228757Y0112341D01*
X0229392Y0113875D01*
X0229392Y0115536D01*
X0228757Y0117070D01*
X0227582Y0118245D01*
X0226048Y0118880D01*
X0224387Y0118880D01*
X0222852Y0118245D01*
X0221678Y0117070D01*
X0221210Y0115939D01*
X0216067Y0121082D01*
X0216067Y0166082D01*
X0203017Y0179132D01*
X0201787Y0180362D01*
X0175376Y0180362D01*
X0175376Y0182471D01*
X0175350Y0182497D01*
X0175376Y0182523D01*
X0175376Y0183812D01*
X0182947Y0183812D01*
X0183967Y0182792D01*
X0185197Y0181562D01*
X0190087Y0181562D01*
X0192143Y0183617D01*
X0194561Y0183617D01*
X0194934Y0183991D01*
X0195708Y0183217D01*
X0199727Y0183217D01*
X0200500Y0183991D01*
X0200873Y0183617D01*
X0204561Y0183617D01*
X0205498Y0184555D01*
X0205498Y0194541D01*
X0204561Y0195479D01*
X0201850Y0195479D01*
X0202217Y0196366D01*
X0202217Y0197957D01*
X0201608Y0199428D01*
X0200483Y0200553D01*
X0199013Y0201162D01*
X0197422Y0201162D01*
X0195952Y0200553D01*
X0195485Y0200087D01*
X0194335Y0201236D01*
X0194335Y0203502D01*
X0193164Y0204674D01*
X0191430Y0204674D01*
X0191630Y0204873D01*
X0192305Y0205549D01*
X0192670Y0206431D01*
X0192670Y0208234D01*
X0192792Y0208356D01*
X0196287Y0208356D01*
X0196287Y0205988D01*
X0197224Y0205050D01*
X0207211Y0205050D01*
X0208148Y0205988D01*
X0208148Y0209729D01*
X0209095Y0209337D01*
X0210363Y0209337D01*
X0210995Y0209599D01*
X0210995Y0209353D02*
X0210401Y0209353D01*
X0209058Y0209353D02*
X0208148Y0209353D01*
X0208148Y0207754D02*
X0210995Y0207754D01*
X0210995Y0206155D02*
X0208148Y0206155D01*
X0211772Y0204557D02*
X0193281Y0204557D01*
X0192556Y0206155D02*
X0196287Y0206155D01*
X0196287Y0207754D02*
X0192670Y0207754D01*
X0194335Y0202958D02*
X0211231Y0202958D01*
X0210995Y0201360D02*
X0194335Y0201360D01*
X0201275Y0199761D02*
X0210995Y0199761D01*
X0211080Y0198163D02*
X0202132Y0198163D01*
X0202217Y0196564D02*
X0229586Y0196564D01*
X0229586Y0194966D02*
X0205074Y0194966D01*
X0205498Y0193367D02*
X0229586Y0193367D01*
X0230104Y0191769D02*
X0205498Y0191769D01*
X0205498Y0190170D02*
X0249417Y0190170D01*
X0249417Y0188572D02*
X0205498Y0188572D01*
X0205498Y0186973D02*
X0249417Y0186973D01*
X0249417Y0185375D02*
X0205498Y0185375D01*
X0204720Y0183776D02*
X0249417Y0183776D01*
X0249417Y0182178D02*
X0190703Y0182178D01*
X0194720Y0183776D02*
X0195149Y0183776D01*
X0200286Y0183776D02*
X0200714Y0183776D01*
X0203168Y0178981D02*
X0249417Y0178981D01*
X0249417Y0180579D02*
X0175376Y0180579D01*
X0175376Y0182178D02*
X0184581Y0182178D01*
X0183967Y0182792D02*
X0183967Y0182792D01*
X0182983Y0183776D02*
X0175376Y0183776D01*
X0166417Y0183092D02*
X0166417Y0172442D01*
X0168798Y0170061D01*
X0165570Y0170061D01*
X0164633Y0169124D01*
X0164633Y0163074D01*
X0165570Y0162137D01*
X0168217Y0162137D01*
X0168217Y0161737D01*
X0167433Y0162062D01*
X0166001Y0162062D01*
X0164678Y0161514D01*
X0163665Y0160501D01*
X0163117Y0159178D01*
X0163117Y0157832D01*
X0162560Y0157274D01*
X0159523Y0157274D01*
X0158586Y0156337D01*
X0158586Y0150287D01*
X0159523Y0149350D01*
X0163998Y0149350D01*
X0164935Y0150287D01*
X0164935Y0153710D01*
X0166087Y0154862D01*
X0167433Y0154862D01*
X0168217Y0155187D01*
X0168217Y0149140D01*
X0166389Y0147312D01*
X0165389Y0147312D01*
X0163773Y0145696D01*
X0162544Y0145696D01*
X0161300Y0145181D01*
X0160348Y0144229D01*
X0159833Y0142985D01*
X0159833Y0141639D01*
X0160348Y0140395D01*
X0161300Y0139443D01*
X0162544Y0138928D01*
X0163890Y0138928D01*
X0165134Y0139443D01*
X0166086Y0140395D01*
X0166239Y0140764D01*
X0166239Y0134594D01*
X0167177Y0133657D01*
X0174408Y0133657D01*
X0175345Y0134594D01*
X0175345Y0135059D01*
X0175815Y0133923D01*
X0176828Y0132910D01*
X0178151Y0132362D01*
X0179583Y0132362D01*
X0179946Y0132512D01*
X0180255Y0132512D01*
X0180255Y0131287D01*
X0181192Y0130350D01*
X0187242Y0130350D01*
X0188180Y0131287D01*
X0188180Y0136562D01*
X0188287Y0136562D01*
X0189517Y0137792D01*
X0190417Y0138692D01*
X0190417Y0145832D01*
X0189187Y0147062D01*
X0180967Y0155282D01*
X0180967Y0156290D01*
X0182122Y0155812D01*
X0183713Y0155812D01*
X0185183Y0156421D01*
X0186308Y0157546D01*
X0186917Y0159016D01*
X0186917Y0160607D01*
X0186308Y0162078D01*
X0185917Y0162469D01*
X0185917Y0162703D01*
X0186335Y0163121D01*
X0186335Y0163145D01*
X0189561Y0163145D01*
X0190217Y0163801D01*
X0190873Y0163145D01*
X0194561Y0163145D01*
X0195217Y0163801D01*
X0195873Y0163145D01*
X0199561Y0163145D01*
X0200217Y0163801D01*
X0200873Y0163145D01*
X0204561Y0163145D01*
X0205498Y0164082D01*
X0205498Y0170711D01*
X0211867Y0164342D01*
X0211867Y0159810D01*
X0211690Y0160238D01*
X0210734Y0161194D01*
X0209484Y0161712D01*
X0208132Y0161712D01*
X0206882Y0161194D01*
X0205925Y0160238D01*
X0205408Y0158988D01*
X0205408Y0157635D01*
X0205925Y0156386D01*
X0206882Y0155429D01*
X0206948Y0155402D01*
X0208561Y0142225D01*
X0208561Y0139274D01*
X0208523Y0139274D01*
X0207586Y0138337D01*
X0207586Y0132287D01*
X0208523Y0131350D01*
X0211867Y0131350D01*
X0211867Y0119342D01*
X0213097Y0118112D01*
X0224467Y0106742D01*
X0224467Y0081283D01*
X0224269Y0081365D01*
X0223001Y0081365D01*
X0221935Y0080924D01*
X0221935Y0081337D01*
X0220998Y0082274D01*
X0216625Y0082274D01*
X0215737Y0083162D01*
X0214387Y0084512D01*
X0209047Y0084512D01*
X0207817Y0083282D01*
X0207269Y0082733D01*
X0206710Y0082828D01*
X0206547Y0082712D01*
X0206347Y0082712D01*
X0205996Y0082361D01*
X0205594Y0082361D01*
X0205298Y0082064D01*
X0205298Y0083786D01*
X0204360Y0084723D01*
X0199567Y0084723D01*
X0199567Y0084928D01*
X0199019Y0086251D01*
X0198007Y0087264D01*
X0196683Y0087812D01*
X0195251Y0087812D01*
X0193928Y0087264D01*
X0192915Y0086251D01*
X0192367Y0084928D01*
X0192367Y0084212D01*
X0191651Y0084212D01*
X0190328Y0083664D01*
X0189315Y0082651D01*
X0188767Y0081328D01*
X0188767Y0079896D01*
X0189315Y0078573D01*
X0190328Y0077560D01*
X0191651Y0077012D01*
X0193083Y0077012D01*
X0194407Y0077560D01*
X0195190Y0078344D01*
X0195333Y0078202D01*
X0194617Y0077486D01*
X0194617Y0074980D01*
X0195555Y0074043D01*
X0197276Y0074043D01*
X0196980Y0073746D01*
X0196980Y0070649D01*
X0197917Y0069712D01*
X0202874Y0069712D01*
X0202499Y0069337D01*
X0202499Y0063287D01*
X0203436Y0062350D01*
X0204885Y0062350D01*
X0203197Y0060662D01*
X0193895Y0060662D01*
X0193409Y0061148D01*
X0192237Y0061633D01*
X0190969Y0061633D01*
X0189798Y0061148D01*
X0188901Y0060251D01*
X0188416Y0059080D01*
X0188416Y0057812D01*
X0188901Y0056640D01*
X0189798Y0055744D01*
X0189817Y0055735D01*
X0189817Y0050636D01*
X0187342Y0050636D01*
X0186961Y0050256D01*
X0186581Y0050636D01*
X0182342Y0050636D01*
X0181961Y0050256D01*
X0181581Y0050636D01*
X0178717Y0050636D01*
X0178717Y0071582D01*
X0177487Y0072812D01*
X0146437Y0103862D01*
X0120754Y0103862D01*
X0120754Y0105512D01*
X0143287Y0105512D01*
X0147787Y0110012D01*
X0154087Y0110012D01*
X0155437Y0111362D01*
X0156667Y0112592D01*
X0156667Y0149350D01*
X0156912Y0149350D01*
X0157849Y0150287D01*
X0157849Y0156337D01*
X0156912Y0157274D01*
X0154867Y0157274D01*
X0154867Y0164350D01*
X0154998Y0164350D01*
X0155935Y0165287D01*
X0155935Y0171337D01*
X0154998Y0172274D01*
X0153799Y0172274D01*
X0154987Y0173462D01*
X0156787Y0173462D01*
X0166417Y0183092D01*
X0166417Y0182178D02*
X0165503Y0182178D01*
X0166417Y0180579D02*
X0163905Y0180579D01*
X0162306Y0178981D02*
X0166417Y0178981D01*
X0166417Y0177382D02*
X0160708Y0177382D01*
X0159109Y0175784D02*
X0166417Y0175784D01*
X0166417Y0174185D02*
X0157511Y0174185D01*
X0155935Y0170988D02*
X0167871Y0170988D01*
X0166417Y0172587D02*
X0154112Y0172587D01*
X0155935Y0169390D02*
X0164899Y0169390D01*
X0164633Y0167791D02*
X0155935Y0167791D01*
X0155935Y0166193D02*
X0164633Y0166193D01*
X0164633Y0164594D02*
X0155243Y0164594D01*
X0154867Y0162996D02*
X0164712Y0162996D01*
X0164562Y0161397D02*
X0154867Y0161397D01*
X0154867Y0159799D02*
X0163374Y0159799D01*
X0163117Y0158200D02*
X0154867Y0158200D01*
X0157584Y0156602D02*
X0158851Y0156602D01*
X0158586Y0155003D02*
X0157849Y0155003D01*
X0157849Y0153405D02*
X0158586Y0153405D01*
X0158586Y0151806D02*
X0157849Y0151806D01*
X0157770Y0150208D02*
X0158665Y0150208D01*
X0156667Y0148609D02*
X0167686Y0148609D01*
X0168217Y0150208D02*
X0164856Y0150208D01*
X0164935Y0151806D02*
X0168217Y0151806D01*
X0168217Y0153405D02*
X0164935Y0153405D01*
X0167775Y0155003D02*
X0168217Y0155003D01*
X0165088Y0147011D02*
X0156667Y0147011D01*
X0156667Y0145412D02*
X0161859Y0145412D01*
X0160176Y0143814D02*
X0156667Y0143814D01*
X0156667Y0142215D02*
X0159833Y0142215D01*
X0160256Y0140617D02*
X0156667Y0140617D01*
X0156667Y0139018D02*
X0162326Y0139018D01*
X0164109Y0139018D02*
X0166239Y0139018D01*
X0166239Y0137420D02*
X0156667Y0137420D01*
X0156667Y0135821D02*
X0166239Y0135821D01*
X0166611Y0134222D02*
X0156667Y0134222D01*
X0156667Y0132624D02*
X0177518Y0132624D01*
X0175691Y0134222D02*
X0174973Y0134222D01*
X0173523Y0128274D02*
X0172586Y0127337D01*
X0172586Y0121287D01*
X0173523Y0120350D01*
X0173561Y0120350D01*
X0173561Y0119274D01*
X0173523Y0119274D01*
X0172586Y0118337D01*
X0172586Y0112287D01*
X0173061Y0111812D01*
X0172586Y0111337D01*
X0172586Y0107863D01*
X0171849Y0108600D01*
X0171849Y0111337D01*
X0171374Y0111812D01*
X0171849Y0112287D01*
X0171849Y0118337D01*
X0170912Y0119274D01*
X0166436Y0119274D01*
X0165499Y0118337D01*
X0165499Y0116234D01*
X0164010Y0115082D01*
X0162851Y0115082D01*
X0162217Y0114819D01*
X0162217Y0119526D01*
X0163086Y0120395D01*
X0163602Y0121639D01*
X0163602Y0122985D01*
X0163086Y0124229D01*
X0162134Y0125181D01*
X0160890Y0125696D01*
X0159544Y0125696D01*
X0158300Y0125181D01*
X0157348Y0124229D01*
X0156833Y0122985D01*
X0156833Y0121639D01*
X0157348Y0120395D01*
X0158217Y0119526D01*
X0158217Y0102140D01*
X0157773Y0101696D01*
X0156544Y0101696D01*
X0155300Y0101181D01*
X0154348Y0100229D01*
X0153833Y0098985D01*
X0153833Y0097639D01*
X0154348Y0096395D01*
X0155300Y0095443D01*
X0156544Y0094928D01*
X0157890Y0094928D01*
X0159134Y0095443D01*
X0160086Y0096395D01*
X0160602Y0097639D01*
X0160602Y0098868D01*
X0162217Y0100483D01*
X0162217Y0108970D01*
X0162851Y0108707D01*
X0163071Y0108707D01*
X0163868Y0107602D01*
X0163868Y0107401D01*
X0164387Y0106881D01*
X0164816Y0106286D01*
X0165014Y0106254D01*
X0165156Y0106112D01*
X0165499Y0106112D01*
X0165499Y0105287D01*
X0166436Y0104350D01*
X0170160Y0104350D01*
X0172586Y0101923D01*
X0172586Y0096287D01*
X0173523Y0095350D01*
X0175217Y0095350D01*
X0175217Y0095098D01*
X0174348Y0094229D01*
X0173833Y0092985D01*
X0173833Y0091639D01*
X0174348Y0090395D01*
X0175217Y0089526D01*
X0175217Y0087512D01*
X0175038Y0087518D01*
X0175038Y0087675D01*
X0174101Y0088613D01*
X0168051Y0088613D01*
X0167113Y0087675D01*
X0167113Y0083200D01*
X0168051Y0082263D01*
X0174101Y0082263D01*
X0174505Y0082668D01*
X0174562Y0082530D01*
X0175459Y0081633D01*
X0176631Y0081148D01*
X0177899Y0081148D01*
X0179070Y0081633D01*
X0179967Y0082530D01*
X0180138Y0082944D01*
X0181660Y0083127D01*
X0182192Y0082594D01*
X0184217Y0082594D01*
X0184217Y0075098D01*
X0183348Y0074229D01*
X0182833Y0072985D01*
X0182833Y0071639D01*
X0183348Y0070395D01*
X0184300Y0069443D01*
X0185544Y0068928D01*
X0186890Y0068928D01*
X0188134Y0069443D01*
X0189086Y0070395D01*
X0189602Y0071639D01*
X0189602Y0072985D01*
X0189086Y0074229D01*
X0188217Y0075098D01*
X0188217Y0082594D01*
X0188242Y0082594D01*
X0189180Y0083531D01*
X0189180Y0088006D01*
X0188242Y0088943D01*
X0182192Y0088943D01*
X0181255Y0088006D01*
X0181255Y0087510D01*
X0179217Y0087265D01*
X0179217Y0089526D01*
X0180086Y0090395D01*
X0180602Y0091639D01*
X0180602Y0092985D01*
X0180086Y0094229D01*
X0179217Y0095098D01*
X0179217Y0097684D01*
X0178935Y0097965D01*
X0178935Y0100444D01*
X0179735Y0101850D01*
X0181121Y0101850D01*
X0181121Y0101392D01*
X0182132Y0100381D01*
X0184763Y0100381D01*
X0184763Y0099153D01*
X0185700Y0098216D01*
X0194137Y0098216D01*
X0194553Y0098632D01*
X0195453Y0098653D01*
X0195568Y0098511D01*
X0195736Y0098494D01*
X0196307Y0098155D01*
X0197093Y0098355D01*
X0197299Y0098334D01*
X0197430Y0098441D01*
X0198073Y0098604D01*
X0198239Y0098884D01*
X0199180Y0099870D01*
X0199268Y0099833D01*
X0200536Y0099833D01*
X0201708Y0100318D01*
X0202605Y0101215D01*
X0203090Y0102386D01*
X0203090Y0103654D01*
X0202605Y0104826D01*
X0201708Y0105723D01*
X0200536Y0106208D01*
X0199268Y0106208D01*
X0199128Y0106150D01*
X0197313Y0106150D01*
X0197313Y0106633D01*
X0202753Y0106633D01*
X0203622Y0105764D01*
X0204866Y0105248D01*
X0206212Y0105248D01*
X0207456Y0105764D01*
X0208217Y0106525D01*
X0208217Y0101098D01*
X0207348Y0100229D01*
X0206833Y0098985D01*
X0206833Y0097639D01*
X0207348Y0096395D01*
X0208300Y0095443D01*
X0209544Y0094928D01*
X0210890Y0094928D01*
X0212134Y0095443D01*
X0213086Y0096395D01*
X0213602Y0097639D01*
X0213602Y0098985D01*
X0213086Y0100229D01*
X0212217Y0101098D01*
X0212217Y0110140D01*
X0211046Y0111312D01*
X0208046Y0114312D01*
X0195964Y0114312D01*
X0194792Y0113140D01*
X0193894Y0112243D01*
X0193672Y0112243D01*
X0193672Y0113471D01*
X0192734Y0114408D01*
X0184298Y0114408D01*
X0183287Y0113397D01*
X0183287Y0112243D01*
X0182132Y0112243D01*
X0181417Y0111527D01*
X0181417Y0112082D01*
X0178935Y0114564D01*
X0178935Y0118337D01*
X0177998Y0119274D01*
X0177961Y0119274D01*
X0177961Y0120350D01*
X0177998Y0120350D01*
X0178935Y0121287D01*
X0178935Y0127337D01*
X0177998Y0128274D01*
X0173523Y0128274D01*
X0173078Y0127828D02*
X0156667Y0127828D01*
X0156667Y0126230D02*
X0172586Y0126230D01*
X0172586Y0124631D02*
X0162684Y0124631D01*
X0163582Y0123033D02*
X0172586Y0123033D01*
X0172586Y0121434D02*
X0163517Y0121434D01*
X0162527Y0119836D02*
X0173561Y0119836D01*
X0172586Y0118237D02*
X0171849Y0118237D01*
X0171849Y0116639D02*
X0172586Y0116639D01*
X0172586Y0115040D02*
X0171849Y0115040D01*
X0171849Y0113442D02*
X0172586Y0113442D01*
X0173029Y0111843D02*
X0171405Y0111843D01*
X0171849Y0110245D02*
X0172586Y0110245D01*
X0172586Y0108646D02*
X0171849Y0108646D01*
X0170659Y0103851D02*
X0162217Y0103851D01*
X0162217Y0105449D02*
X0165499Y0105449D01*
X0164220Y0107048D02*
X0162217Y0107048D01*
X0162217Y0108646D02*
X0163115Y0108646D01*
X0158217Y0108646D02*
X0146422Y0108646D01*
X0144823Y0107048D02*
X0158217Y0107048D01*
X0158217Y0105449D02*
X0120754Y0105449D01*
X0124973Y0099662D02*
X0144697Y0099662D01*
X0148663Y0095696D01*
X0147544Y0095696D01*
X0146300Y0095181D01*
X0145348Y0094229D01*
X0144930Y0093219D01*
X0142837Y0095312D01*
X0142258Y0095312D01*
X0141307Y0096264D01*
X0139983Y0096812D01*
X0138551Y0096812D01*
X0137228Y0096264D01*
X0136215Y0095251D01*
X0135667Y0093928D01*
X0135667Y0092496D01*
X0135992Y0091712D01*
X0131406Y0091712D01*
X0131917Y0092946D01*
X0131917Y0094378D01*
X0131369Y0095701D01*
X0130357Y0096714D01*
X0129033Y0097262D01*
X0127601Y0097262D01*
X0127504Y0097221D01*
X0127086Y0098229D01*
X0126134Y0099181D01*
X0124973Y0099662D01*
X0126260Y0099055D02*
X0145304Y0099055D01*
X0146903Y0097457D02*
X0127406Y0097457D01*
X0131212Y0095858D02*
X0136823Y0095858D01*
X0135805Y0094260D02*
X0131917Y0094260D01*
X0131799Y0092661D02*
X0135667Y0092661D01*
X0141712Y0095858D02*
X0148501Y0095858D01*
X0151244Y0099055D02*
X0153862Y0099055D01*
X0153908Y0097457D02*
X0152842Y0097457D01*
X0154441Y0095858D02*
X0154885Y0095858D01*
X0156039Y0094260D02*
X0174379Y0094260D01*
X0173833Y0092661D02*
X0157638Y0092661D01*
X0159236Y0091063D02*
X0174072Y0091063D01*
X0175217Y0089464D02*
X0160835Y0089464D01*
X0162433Y0087866D02*
X0167304Y0087866D01*
X0167113Y0086267D02*
X0164032Y0086267D01*
X0165630Y0084669D02*
X0167113Y0084669D01*
X0167229Y0083070D02*
X0167244Y0083070D01*
X0168827Y0081472D02*
X0175849Y0081472D01*
X0178680Y0081472D02*
X0184217Y0081472D01*
X0184217Y0079873D02*
X0170426Y0079873D01*
X0172024Y0078275D02*
X0184217Y0078275D01*
X0184217Y0076676D02*
X0173623Y0076676D01*
X0175221Y0075078D02*
X0184197Y0075078D01*
X0183038Y0073479D02*
X0176820Y0073479D01*
X0178418Y0071881D02*
X0182833Y0071881D01*
X0183461Y0070282D02*
X0178717Y0070282D01*
X0178717Y0068684D02*
X0202499Y0068684D01*
X0202499Y0067085D02*
X0178717Y0067085D01*
X0178717Y0065487D02*
X0202499Y0065487D01*
X0202499Y0063888D02*
X0178717Y0063888D01*
X0178717Y0062289D02*
X0204825Y0062289D01*
X0203227Y0060691D02*
X0193866Y0060691D01*
X0194127Y0056462D02*
X0204937Y0056462D01*
X0206167Y0057692D01*
X0210667Y0062192D01*
X0210667Y0062350D01*
X0214998Y0062350D01*
X0215935Y0063287D01*
X0215935Y0066560D01*
X0216967Y0067592D01*
X0216967Y0074350D01*
X0220998Y0074350D01*
X0221935Y0075287D01*
X0221935Y0075432D01*
X0223001Y0074991D01*
X0224269Y0074991D01*
X0224467Y0075073D01*
X0224467Y0048632D01*
X0202518Y0026682D01*
X0202518Y0034384D01*
X0201581Y0035321D01*
X0199228Y0035321D01*
X0196562Y0037987D01*
X0196581Y0037987D01*
X0197518Y0038925D01*
X0197518Y0049699D01*
X0196581Y0050636D01*
X0194017Y0050636D01*
X0194017Y0056352D01*
X0194127Y0056462D01*
X0194017Y0055895D02*
X0224467Y0055895D01*
X0224467Y0054297D02*
X0194017Y0054297D01*
X0194017Y0052698D02*
X0224467Y0052698D01*
X0224467Y0051100D02*
X0194017Y0051100D01*
X0197518Y0049501D02*
X0224467Y0049501D01*
X0223739Y0047903D02*
X0197518Y0047903D01*
X0197518Y0046304D02*
X0222140Y0046304D01*
X0220542Y0044706D02*
X0197518Y0044706D01*
X0197518Y0043107D02*
X0218943Y0043107D01*
X0217345Y0041509D02*
X0197518Y0041509D01*
X0197518Y0039910D02*
X0215746Y0039910D01*
X0214147Y0038312D02*
X0196905Y0038312D01*
X0197836Y0036713D02*
X0212549Y0036713D01*
X0210950Y0035115D02*
X0201787Y0035115D01*
X0202518Y0033516D02*
X0209352Y0033516D01*
X0207753Y0031918D02*
X0202518Y0031918D01*
X0202518Y0030319D02*
X0206155Y0030319D01*
X0204556Y0028721D02*
X0202518Y0028721D01*
X0202518Y0027122D02*
X0202958Y0027122D01*
X0205701Y0023925D02*
X0231867Y0023925D01*
X0231867Y0022327D02*
X0204102Y0022327D01*
X0202504Y0020728D02*
X0231867Y0020728D01*
X0231969Y0019130D02*
X0048965Y0019130D01*
X0049067Y0020728D02*
X0176381Y0020728D01*
X0174783Y0022327D02*
X0122018Y0022327D01*
X0122602Y0023925D02*
X0174517Y0023925D01*
X0174286Y0025524D02*
X0122378Y0025524D01*
X0121193Y0027122D02*
X0153475Y0027122D01*
X0152818Y0028721D02*
X0145176Y0028721D01*
X0145176Y0028559D02*
X0144238Y0027621D01*
X0133913Y0027621D01*
X0132976Y0028559D01*
X0132976Y0038884D01*
X0133913Y0039821D01*
X0144238Y0039821D01*
X0145176Y0038884D01*
X0145176Y0028559D01*
X0145176Y0030319D02*
X0152818Y0030319D01*
X0152818Y0031918D02*
X0145176Y0031918D01*
X0145176Y0033516D02*
X0152818Y0033516D01*
X0152818Y0035115D02*
X0145176Y0035115D01*
X0145176Y0036713D02*
X0152818Y0036713D01*
X0153025Y0038312D02*
X0145176Y0038312D01*
X0150603Y0044706D02*
X0120667Y0044706D01*
X0120667Y0046304D02*
X0133117Y0046304D01*
X0133117Y0047903D02*
X0120667Y0047903D01*
X0120667Y0049501D02*
X0133117Y0049501D01*
X0133117Y0051100D02*
X0120667Y0051100D01*
X0120667Y0052698D02*
X0133117Y0052698D01*
X0133117Y0054297D02*
X0120667Y0054297D01*
X0120667Y0055895D02*
X0133117Y0055895D01*
X0132788Y0057494D02*
X0120667Y0057494D01*
X0120667Y0059092D02*
X0132133Y0059092D01*
X0132133Y0060691D02*
X0120667Y0060691D01*
X0120667Y0062289D02*
X0132133Y0062289D01*
X0132133Y0063888D02*
X0120667Y0063888D01*
X0120812Y0065487D02*
X0132133Y0065487D01*
X0132133Y0067085D02*
X0122410Y0067085D01*
X0124009Y0068684D02*
X0132342Y0068684D01*
X0136230Y0073479D02*
X0126967Y0073479D01*
X0126967Y0071881D02*
X0137829Y0071881D01*
X0139427Y0070282D02*
X0125607Y0070282D01*
X0126967Y0075078D02*
X0134632Y0075078D01*
X0133033Y0076676D02*
X0126967Y0076676D01*
X0126967Y0078275D02*
X0131435Y0078275D01*
X0129836Y0079873D02*
X0126967Y0079873D01*
X0126967Y0081472D02*
X0128238Y0081472D01*
X0126639Y0083070D02*
X0126279Y0083070D01*
X0117667Y0079512D02*
X0117667Y0079446D01*
X0118215Y0078123D01*
X0118729Y0077609D01*
X0118431Y0077312D01*
X0115941Y0077312D01*
X0115861Y0077379D01*
X0115127Y0077312D01*
X0114389Y0077312D01*
X0114315Y0077238D01*
X0114211Y0077229D01*
X0113739Y0076662D01*
X0113217Y0076140D01*
X0113217Y0076036D01*
X0111662Y0074169D01*
X0111582Y0074363D01*
X0110630Y0075315D01*
X0110361Y0075427D01*
X0110361Y0076463D01*
X0110578Y0077306D01*
X0110361Y0077676D01*
X0110361Y0079512D01*
X0117667Y0079512D01*
X0118152Y0078275D02*
X0110361Y0078275D01*
X0110416Y0076676D02*
X0113751Y0076676D01*
X0112419Y0075078D02*
X0110867Y0075078D01*
X0113629Y0070282D02*
X0119668Y0070282D01*
X0120544Y0071928D02*
X0119300Y0072443D01*
X0118431Y0073312D01*
X0116154Y0073312D01*
X0112217Y0068588D01*
X0112217Y0068483D01*
X0111696Y0067962D01*
X0111223Y0067395D01*
X0111120Y0067386D01*
X0111046Y0067312D01*
X0110308Y0067312D01*
X0109573Y0067245D01*
X0109493Y0067312D01*
X0107884Y0067312D01*
X0107755Y0067215D01*
X0107444Y0067259D01*
X0107086Y0066395D01*
X0106134Y0065443D01*
X0104890Y0064928D01*
X0104330Y0064928D01*
X0112022Y0053862D01*
X0112683Y0053862D01*
X0114007Y0053314D01*
X0115019Y0052301D01*
X0115567Y0050978D01*
X0115567Y0049668D01*
X0116467Y0049668D01*
X0116467Y0067082D01*
X0121313Y0071928D01*
X0120544Y0071928D01*
X0121266Y0071881D02*
X0114961Y0071881D01*
X0112297Y0068684D02*
X0118069Y0068684D01*
X0116471Y0067085D02*
X0107372Y0067085D01*
X0106178Y0065487D02*
X0116467Y0065487D01*
X0116467Y0063888D02*
X0105053Y0063888D01*
X0106164Y0062289D02*
X0116467Y0062289D01*
X0116467Y0060691D02*
X0107275Y0060691D01*
X0108386Y0059092D02*
X0116467Y0059092D01*
X0116467Y0057494D02*
X0109498Y0057494D01*
X0110609Y0055895D02*
X0116467Y0055895D01*
X0116467Y0054297D02*
X0111720Y0054297D01*
X0114622Y0052698D02*
X0116467Y0052698D01*
X0116467Y0051100D02*
X0115517Y0051100D01*
X0120667Y0043107D02*
X0152202Y0043107D01*
X0153800Y0041509D02*
X0119334Y0041509D01*
X0118959Y0039910D02*
X0155399Y0039910D01*
X0149767Y0046304D02*
X0145317Y0046304D01*
X0145317Y0047903D02*
X0149767Y0047903D01*
X0149767Y0049501D02*
X0145317Y0049501D01*
X0145317Y0051100D02*
X0149767Y0051100D01*
X0149767Y0052698D02*
X0145317Y0052698D01*
X0145317Y0054297D02*
X0149767Y0054297D01*
X0149767Y0055895D02*
X0145317Y0055895D01*
X0143678Y0057494D02*
X0149767Y0057494D01*
X0149767Y0059092D02*
X0144333Y0059092D01*
X0144333Y0060691D02*
X0149018Y0060691D01*
X0147420Y0062289D02*
X0144333Y0062289D01*
X0144333Y0063888D02*
X0145821Y0063888D01*
X0132976Y0038312D02*
X0118959Y0038312D01*
X0118959Y0036713D02*
X0132976Y0036713D01*
X0132976Y0035115D02*
X0118575Y0035115D01*
X0118959Y0033516D02*
X0132976Y0033516D01*
X0132976Y0031918D02*
X0118959Y0031918D01*
X0118959Y0030319D02*
X0132976Y0030319D01*
X0132976Y0028721D02*
X0118959Y0028721D01*
X0115833Y0023925D02*
X0084306Y0023925D01*
X0084602Y0025524D02*
X0094177Y0025524D01*
X0092578Y0027122D02*
X0084130Y0027122D01*
X0083767Y0028721D02*
X0090980Y0028721D01*
X0088424Y0030319D02*
X0083767Y0030319D01*
X0083767Y0031918D02*
X0087833Y0031918D01*
X0088053Y0033516D02*
X0083892Y0033516D01*
X0081149Y0036713D02*
X0078756Y0036713D01*
X0078756Y0038312D02*
X0081830Y0038312D01*
X0081830Y0039910D02*
X0077923Y0039910D01*
X0078756Y0041509D02*
X0081830Y0041509D01*
X0081830Y0043107D02*
X0079533Y0043107D01*
X0083917Y0046304D02*
X0090740Y0046304D01*
X0092339Y0047903D02*
X0083783Y0047903D01*
X0082769Y0049501D02*
X0096850Y0049501D01*
X0096959Y0051100D02*
X0070046Y0051100D01*
X0070046Y0052698D02*
X0095361Y0052698D01*
X0093762Y0054297D02*
X0067988Y0054297D01*
X0068602Y0055895D02*
X0092164Y0055895D01*
X0090565Y0057494D02*
X0068391Y0057494D01*
X0067223Y0059092D02*
X0088967Y0059092D01*
X0087368Y0060691D02*
X0078430Y0060691D01*
X0082336Y0062289D02*
X0085770Y0062289D01*
X0084171Y0063888D02*
X0083019Y0063888D01*
X0078592Y0067085D02*
X0054569Y0067085D01*
X0054569Y0065487D02*
X0073653Y0065487D01*
X0072780Y0063888D02*
X0054569Y0063888D01*
X0054569Y0062289D02*
X0072880Y0062289D01*
X0073895Y0060691D02*
X0054569Y0060691D01*
X0054569Y0059092D02*
X0063212Y0059092D01*
X0062044Y0057494D02*
X0054569Y0057494D01*
X0054569Y0055895D02*
X0061833Y0055895D01*
X0062446Y0054297D02*
X0054569Y0054297D01*
X0054569Y0052698D02*
X0063217Y0052698D01*
X0063217Y0051100D02*
X0034017Y0051100D01*
X0034017Y0052698D02*
X0042369Y0052698D01*
X0042369Y0054297D02*
X0034017Y0054297D01*
X0034017Y0055895D02*
X0042369Y0055895D01*
X0042369Y0057494D02*
X0034017Y0057494D01*
X0034017Y0059092D02*
X0042369Y0059092D01*
X0042369Y0060691D02*
X0034017Y0060691D01*
X0034017Y0062289D02*
X0042369Y0062289D01*
X0042369Y0063888D02*
X0034017Y0063888D01*
X0034017Y0065487D02*
X0042369Y0065487D01*
X0042369Y0067085D02*
X0034017Y0067085D01*
X0034017Y0068684D02*
X0042369Y0068684D01*
X0042369Y0070282D02*
X0034017Y0070282D01*
X0034017Y0071881D02*
X0042369Y0071881D01*
X0042369Y0073479D02*
X0034017Y0073479D01*
X0034017Y0075078D02*
X0042369Y0075078D01*
X0042369Y0076676D02*
X0034017Y0076676D01*
X0034017Y0078275D02*
X0042369Y0078275D01*
X0042369Y0079873D02*
X0034017Y0079873D01*
X0034017Y0081472D02*
X0042369Y0081472D01*
X0046018Y0084669D02*
X0068317Y0084669D01*
X0068317Y0086267D02*
X0046018Y0086267D01*
X0046018Y0087866D02*
X0068317Y0087866D01*
X0068317Y0089464D02*
X0046018Y0089464D01*
X0046038Y0091063D02*
X0068317Y0091063D01*
X0068317Y0092661D02*
X0047637Y0092661D01*
X0043028Y0094270D02*
X0034755Y0094270D01*
X0034017Y0093532D01*
X0034017Y0127714D01*
X0034291Y0127440D01*
X0044616Y0127440D01*
X0045554Y0128377D01*
X0045554Y0134297D01*
X0060367Y0119483D01*
X0061538Y0118312D01*
X0068110Y0118312D01*
X0067028Y0117864D01*
X0066015Y0116851D01*
X0065467Y0115528D01*
X0065467Y0114182D01*
X0064597Y0113312D01*
X0047876Y0113312D01*
X0047876Y0120333D01*
X0046939Y0121270D01*
X0036614Y0121270D01*
X0035676Y0120333D01*
X0035676Y0110007D01*
X0036614Y0109070D01*
X0043567Y0109070D01*
X0043567Y0108035D01*
X0042917Y0107384D01*
X0042917Y0101334D01*
X0043368Y0100883D01*
X0042917Y0100431D01*
X0042917Y0094381D01*
X0043028Y0094270D01*
X0042917Y0095858D02*
X0034017Y0095858D01*
X0034017Y0094260D02*
X0034745Y0094260D01*
X0034017Y0097457D02*
X0042917Y0097457D01*
X0042917Y0099055D02*
X0034017Y0099055D01*
X0034017Y0100654D02*
X0043139Y0100654D01*
X0042917Y0102252D02*
X0034017Y0102252D01*
X0034017Y0103851D02*
X0042917Y0103851D01*
X0042917Y0105449D02*
X0034017Y0105449D01*
X0034017Y0107048D02*
X0042917Y0107048D01*
X0043567Y0108646D02*
X0034017Y0108646D01*
X0034017Y0110245D02*
X0035676Y0110245D01*
X0035676Y0111843D02*
X0034017Y0111843D01*
X0034017Y0113442D02*
X0035676Y0113442D01*
X0035676Y0115040D02*
X0034017Y0115040D01*
X0034017Y0116639D02*
X0035676Y0116639D01*
X0035676Y0118237D02*
X0034017Y0118237D01*
X0034017Y0119836D02*
X0035676Y0119836D01*
X0034017Y0121434D02*
X0058416Y0121434D01*
X0060014Y0119836D02*
X0047876Y0119836D01*
X0047876Y0118237D02*
X0067930Y0118237D01*
X0065928Y0116639D02*
X0047876Y0116639D01*
X0047876Y0115040D02*
X0065467Y0115040D01*
X0064728Y0113442D02*
X0047876Y0113442D01*
X0056817Y0123033D02*
X0034017Y0123033D01*
X0034017Y0124631D02*
X0055219Y0124631D01*
X0053620Y0126230D02*
X0034017Y0126230D01*
X0045005Y0127828D02*
X0052022Y0127828D01*
X0050423Y0129427D02*
X0045554Y0129427D01*
X0045554Y0131025D02*
X0048825Y0131025D01*
X0047226Y0132624D02*
X0045554Y0132624D01*
X0045554Y0134222D02*
X0045628Y0134222D01*
X0048088Y0137420D02*
X0075067Y0137420D01*
X0075067Y0139018D02*
X0046489Y0139018D01*
X0045396Y0140111D02*
X0045396Y0148545D01*
X0044459Y0149483D01*
X0034133Y0149483D01*
X0034017Y0149367D01*
X0034017Y0157249D01*
X0034055Y0157212D01*
X0044380Y0157212D01*
X0045317Y0158149D01*
X0045317Y0178475D01*
X0044380Y0179412D01*
X0034055Y0179412D01*
X0034017Y0179375D01*
X0034017Y0183501D01*
X0034023Y0183495D01*
X0044349Y0183495D01*
X0045286Y0184433D01*
X0045286Y0186995D01*
X0046086Y0186995D01*
X0046086Y0184433D01*
X0047023Y0183495D01*
X0057349Y0183495D01*
X0058286Y0184433D01*
X0058286Y0185375D01*
X0058288Y0185375D01*
X0058286Y0185375D02*
X0066539Y0183294D01*
X0066842Y0183169D01*
X0067036Y0183169D01*
X0067225Y0183121D01*
X0067549Y0183169D01*
X0110618Y0183169D01*
X0111192Y0182594D01*
X0113715Y0182594D01*
X0113801Y0182508D01*
X0114532Y0181777D01*
X0115488Y0181381D01*
X0117954Y0181381D01*
X0118110Y0181225D01*
X0115301Y0178416D01*
X0114373Y0178416D01*
X0114347Y0178389D01*
X0114321Y0178416D01*
X0110633Y0178416D01*
X0109696Y0177478D01*
X0109696Y0174610D01*
X0109597Y0174512D01*
X0102739Y0174512D01*
X0102739Y0179478D01*
X0101801Y0180416D01*
X0098114Y0180416D01*
X0097498Y0179801D01*
X0095917Y0181382D01*
X0094687Y0182612D01*
X0085297Y0182612D01*
X0082716Y0180030D01*
X0079192Y0180030D01*
X0078255Y0179093D01*
X0078255Y0179012D01*
X0075180Y0179012D01*
X0075180Y0179093D01*
X0074242Y0180030D01*
X0068192Y0180030D01*
X0067255Y0179093D01*
X0067255Y0174618D01*
X0068192Y0173680D01*
X0074242Y0173680D01*
X0075180Y0174618D01*
X0075180Y0174812D01*
X0078255Y0174812D01*
X0078255Y0174669D01*
X0077317Y0173732D01*
X0075180Y0171594D01*
X0075180Y0172006D01*
X0074242Y0172943D01*
X0068192Y0172943D01*
X0067255Y0172006D01*
X0067255Y0167531D01*
X0068192Y0166594D01*
X0071466Y0166594D01*
X0071692Y0166367D01*
X0072111Y0165948D01*
X0071255Y0165093D01*
X0071255Y0160919D01*
X0070447Y0160112D01*
X0069217Y0158882D01*
X0069217Y0152642D01*
X0075812Y0146047D01*
X0075128Y0145764D01*
X0074115Y0144751D01*
X0073567Y0143428D01*
X0073567Y0141996D01*
X0074115Y0140673D01*
X0075067Y0139721D01*
X0075067Y0122248D01*
X0074134Y0123181D01*
X0072890Y0123696D01*
X0071544Y0123696D01*
X0070300Y0123181D01*
X0069431Y0122312D01*
X0063195Y0122312D01*
X0045396Y0140111D01*
X0045396Y0140617D02*
X0074171Y0140617D01*
X0073567Y0142215D02*
X0045396Y0142215D01*
X0045396Y0143814D02*
X0073727Y0143814D01*
X0074776Y0145412D02*
X0045396Y0145412D01*
X0045396Y0147011D02*
X0074849Y0147011D01*
X0073250Y0148609D02*
X0045332Y0148609D01*
X0045317Y0158200D02*
X0069217Y0158200D01*
X0069217Y0156602D02*
X0034017Y0156602D01*
X0034017Y0155003D02*
X0069217Y0155003D01*
X0069217Y0153405D02*
X0034017Y0153405D01*
X0034017Y0151806D02*
X0070053Y0151806D01*
X0071652Y0150208D02*
X0034017Y0150208D01*
X0045317Y0159799D02*
X0070134Y0159799D01*
X0071255Y0161397D02*
X0045317Y0161397D01*
X0045317Y0162996D02*
X0071255Y0162996D01*
X0071255Y0164594D02*
X0045317Y0164594D01*
X0045317Y0166193D02*
X0071867Y0166193D01*
X0071692Y0166367D02*
X0071692Y0166367D01*
X0067255Y0167791D02*
X0045317Y0167791D01*
X0045317Y0169390D02*
X0067255Y0169390D01*
X0067255Y0170988D02*
X0045317Y0170988D01*
X0045317Y0172587D02*
X0067836Y0172587D01*
X0067687Y0174185D02*
X0045317Y0174185D01*
X0045317Y0175784D02*
X0067255Y0175784D01*
X0067255Y0177382D02*
X0045317Y0177382D01*
X0044811Y0178981D02*
X0067255Y0178981D01*
X0064626Y0183776D02*
X0057630Y0183776D01*
X0046742Y0183776D02*
X0044630Y0183776D01*
X0045286Y0185375D02*
X0046086Y0185375D01*
X0046086Y0186973D02*
X0045286Y0186973D01*
X0034017Y0182178D02*
X0084863Y0182178D01*
X0083265Y0180579D02*
X0034017Y0180579D01*
X0074747Y0174185D02*
X0077771Y0174185D01*
X0076172Y0172587D02*
X0074599Y0172587D01*
X0086180Y0174962D02*
X0086180Y0177554D01*
X0087037Y0178412D01*
X0092947Y0178412D01*
X0096997Y0174362D01*
X0097176Y0174362D01*
X0097176Y0173429D01*
X0097895Y0172710D01*
X0096292Y0171107D01*
X0095137Y0172262D01*
X0094237Y0172262D01*
X0091537Y0174962D01*
X0086180Y0174962D01*
X0086180Y0175784D02*
X0095575Y0175784D01*
X0093977Y0177382D02*
X0086180Y0177382D01*
X0092314Y0174185D02*
X0097176Y0174185D01*
X0097772Y0172587D02*
X0093912Y0172587D01*
X0096720Y0180579D02*
X0117465Y0180579D01*
X0115866Y0178981D02*
X0102739Y0178981D01*
X0102739Y0177382D02*
X0109696Y0177382D01*
X0109696Y0175784D02*
X0102739Y0175784D01*
X0095121Y0182178D02*
X0114131Y0182178D01*
X0124717Y0171992D02*
X0126117Y0173392D01*
X0126117Y0166149D01*
X0127055Y0165212D01*
X0137380Y0165212D01*
X0138317Y0166149D01*
X0138317Y0175262D01*
X0138787Y0175262D01*
X0139268Y0175743D01*
X0139815Y0174423D01*
X0140828Y0173410D01*
X0142151Y0172862D01*
X0143583Y0172862D01*
X0144907Y0173410D01*
X0145919Y0174423D01*
X0146467Y0175746D01*
X0146467Y0177092D01*
X0146486Y0177111D01*
X0147129Y0176468D01*
X0149225Y0176468D01*
X0149265Y0176440D01*
X0149424Y0176468D01*
X0152053Y0176468D01*
X0152017Y0176432D01*
X0147860Y0172274D01*
X0143436Y0172274D01*
X0142499Y0171337D01*
X0142499Y0165287D01*
X0143436Y0164350D01*
X0147912Y0164350D01*
X0148849Y0165287D01*
X0148849Y0167323D01*
X0149586Y0168060D01*
X0149586Y0165287D01*
X0150523Y0164350D01*
X0150667Y0164350D01*
X0150667Y0154442D01*
X0151499Y0153610D01*
X0151499Y0150287D01*
X0152436Y0149350D01*
X0152467Y0149350D01*
X0152467Y0148412D01*
X0142447Y0148412D01*
X0141217Y0147182D01*
X0139914Y0145878D01*
X0139380Y0146412D01*
X0129055Y0146412D01*
X0128117Y0145475D01*
X0128117Y0142562D01*
X0085237Y0142562D01*
X0075205Y0152594D01*
X0078242Y0152594D01*
X0079180Y0153531D01*
X0079180Y0154112D01*
X0085687Y0154112D01*
X0085925Y0154350D01*
X0088912Y0154350D01*
X0089849Y0155287D01*
X0089849Y0158273D01*
X0090586Y0159010D01*
X0090586Y0155287D01*
X0091523Y0154350D01*
X0095998Y0154350D01*
X0096935Y0155287D01*
X0096935Y0155462D01*
X0098655Y0155462D01*
X0099488Y0154629D01*
X0104947Y0154629D01*
X0105884Y0155566D01*
X0105884Y0159057D01*
X0105233Y0159708D01*
X0109696Y0164171D01*
X0109696Y0161145D01*
X0110633Y0160208D01*
X0111067Y0160208D01*
X0111067Y0159994D01*
X0110511Y0159994D01*
X0109574Y0159057D01*
X0109574Y0155566D01*
X0110511Y0154629D01*
X0115971Y0154629D01*
X0116908Y0155566D01*
X0116908Y0159057D01*
X0115971Y0159994D01*
X0115267Y0159994D01*
X0115267Y0162212D01*
X0115387Y0162212D01*
X0116617Y0163442D01*
X0118987Y0165812D01*
X0119887Y0165812D01*
X0121117Y0167042D01*
X0124717Y0170642D01*
X0124717Y0171992D01*
X0125312Y0172587D02*
X0126117Y0172587D01*
X0126117Y0170988D02*
X0124717Y0170988D01*
X0123465Y0169390D02*
X0126117Y0169390D01*
X0126117Y0167791D02*
X0121867Y0167791D01*
X0120268Y0166193D02*
X0126117Y0166193D01*
X0117770Y0164594D02*
X0143192Y0164594D01*
X0142499Y0166193D02*
X0138317Y0166193D01*
X0138317Y0167791D02*
X0142499Y0167791D01*
X0142499Y0169390D02*
X0138317Y0169390D01*
X0138317Y0170988D02*
X0142499Y0170988D01*
X0140053Y0174185D02*
X0138317Y0174185D01*
X0138317Y0172587D02*
X0148172Y0172587D01*
X0149771Y0174185D02*
X0145682Y0174185D01*
X0146467Y0175784D02*
X0151369Y0175784D01*
X0149586Y0167791D02*
X0149317Y0167791D01*
X0149586Y0166193D02*
X0148849Y0166193D01*
X0148156Y0164594D02*
X0150278Y0164594D01*
X0150667Y0162996D02*
X0116171Y0162996D01*
X0115267Y0161397D02*
X0150667Y0161397D01*
X0150667Y0159799D02*
X0116166Y0159799D01*
X0116908Y0158200D02*
X0150667Y0158200D01*
X0150667Y0156602D02*
X0116908Y0156602D01*
X0116345Y0155003D02*
X0150667Y0155003D01*
X0151499Y0153405D02*
X0079053Y0153405D01*
X0075993Y0151806D02*
X0151499Y0151806D01*
X0151578Y0150208D02*
X0077591Y0150208D01*
X0079190Y0148609D02*
X0152467Y0148609D01*
X0141046Y0147011D02*
X0080788Y0147011D01*
X0082387Y0145412D02*
X0128117Y0145412D01*
X0128117Y0143814D02*
X0083985Y0143814D01*
X0075067Y0135821D02*
X0049686Y0135821D01*
X0051285Y0134222D02*
X0075067Y0134222D01*
X0075067Y0132624D02*
X0052883Y0132624D01*
X0054482Y0131025D02*
X0075067Y0131025D01*
X0075067Y0129427D02*
X0056080Y0129427D01*
X0057679Y0127828D02*
X0075067Y0127828D01*
X0075067Y0126230D02*
X0059277Y0126230D01*
X0060876Y0124631D02*
X0075067Y0124631D01*
X0075067Y0123033D02*
X0074282Y0123033D01*
X0070152Y0123033D02*
X0062474Y0123033D01*
X0068437Y0111212D02*
X0069783Y0111212D01*
X0070310Y0111430D01*
X0070310Y0110342D01*
X0070310Y0106405D01*
X0071053Y0105662D01*
X0058625Y0105662D01*
X0059038Y0106074D01*
X0059038Y0109112D01*
X0066337Y0109112D01*
X0068437Y0111212D01*
X0067470Y0110245D02*
X0070310Y0110245D01*
X0070310Y0108646D02*
X0059038Y0108646D01*
X0059038Y0107048D02*
X0070310Y0107048D01*
X0068317Y0083070D02*
X0054147Y0083070D01*
X0054569Y0081472D02*
X0068838Y0081472D01*
X0070436Y0079873D02*
X0054569Y0079873D01*
X0054569Y0078275D02*
X0078735Y0078275D01*
X0078569Y0076676D02*
X0054569Y0076676D01*
X0054569Y0075078D02*
X0078592Y0075078D01*
X0078592Y0073479D02*
X0054569Y0073479D01*
X0054569Y0071881D02*
X0078592Y0071881D01*
X0078592Y0070282D02*
X0054569Y0070282D01*
X0054569Y0068684D02*
X0078592Y0068684D01*
X0073228Y0049501D02*
X0070298Y0049501D01*
X0063696Y0049501D02*
X0034017Y0049501D01*
X0034017Y0047903D02*
X0063696Y0047903D01*
X0064072Y0046304D02*
X0034017Y0046304D01*
X0034017Y0044706D02*
X0063696Y0044706D01*
X0063696Y0043107D02*
X0034017Y0043107D01*
X0034017Y0041509D02*
X0063696Y0041509D01*
X0063696Y0039910D02*
X0034017Y0039910D01*
X0034017Y0038312D02*
X0064065Y0038312D01*
X0063696Y0036713D02*
X0034017Y0036713D01*
X0034017Y0035115D02*
X0063696Y0035115D01*
X0063696Y0033516D02*
X0034017Y0033516D01*
X0044541Y0031918D02*
X0063696Y0031918D01*
X0070046Y0031918D02*
X0079567Y0031918D01*
X0079567Y0033516D02*
X0070046Y0033516D01*
X0070253Y0028721D02*
X0047738Y0028721D01*
X0049067Y0027122D02*
X0069688Y0027122D01*
X0069688Y0025524D02*
X0049067Y0025524D01*
X0049067Y0023925D02*
X0069688Y0023925D01*
X0069688Y0022327D02*
X0049067Y0022327D01*
X0046140Y0030319D02*
X0079567Y0030319D01*
X0079567Y0028721D02*
X0075473Y0028721D01*
X0076819Y0027122D02*
X0078304Y0027122D01*
X0079581Y0022327D02*
X0076038Y0022327D01*
X0082854Y0022327D02*
X0116416Y0022327D01*
X0079567Y0035115D02*
X0078128Y0035115D01*
X0143889Y0094260D02*
X0145379Y0094260D01*
X0149645Y0100654D02*
X0154773Y0100654D01*
X0158217Y0102252D02*
X0148047Y0102252D01*
X0146448Y0103851D02*
X0158217Y0103851D01*
X0162217Y0102252D02*
X0172257Y0102252D01*
X0172586Y0100654D02*
X0162217Y0100654D01*
X0160789Y0099055D02*
X0172586Y0099055D01*
X0172586Y0097457D02*
X0160526Y0097457D01*
X0159550Y0095858D02*
X0173014Y0095858D01*
X0179217Y0095858D02*
X0207885Y0095858D01*
X0206908Y0097457D02*
X0179217Y0097457D01*
X0178935Y0099055D02*
X0184861Y0099055D01*
X0181860Y0100654D02*
X0179055Y0100654D01*
X0180055Y0094260D02*
X0224467Y0094260D01*
X0224467Y0095858D02*
X0212550Y0095858D01*
X0213526Y0097457D02*
X0224467Y0097457D01*
X0224467Y0099055D02*
X0213572Y0099055D01*
X0212661Y0100654D02*
X0224467Y0100654D01*
X0224467Y0102252D02*
X0212217Y0102252D01*
X0212217Y0103851D02*
X0224467Y0103851D01*
X0224467Y0105449D02*
X0212217Y0105449D01*
X0212217Y0107048D02*
X0224161Y0107048D01*
X0222563Y0108646D02*
X0212217Y0108646D01*
X0212113Y0110245D02*
X0220964Y0110245D01*
X0219366Y0111843D02*
X0210514Y0111843D01*
X0208916Y0113442D02*
X0217767Y0113442D01*
X0216169Y0115040D02*
X0178935Y0115040D01*
X0178935Y0116639D02*
X0214570Y0116639D01*
X0212972Y0118237D02*
X0178935Y0118237D01*
X0177961Y0119836D02*
X0211867Y0119836D01*
X0211867Y0121434D02*
X0178935Y0121434D01*
X0178935Y0123033D02*
X0211867Y0123033D01*
X0211867Y0124631D02*
X0178935Y0124631D01*
X0178935Y0126230D02*
X0211867Y0126230D01*
X0211867Y0127828D02*
X0178444Y0127828D01*
X0180517Y0131025D02*
X0156667Y0131025D01*
X0156667Y0129427D02*
X0211867Y0129427D01*
X0211867Y0131025D02*
X0187918Y0131025D01*
X0188180Y0132624D02*
X0200499Y0132624D01*
X0200499Y0132287D02*
X0201436Y0131350D01*
X0205912Y0131350D01*
X0206849Y0132287D01*
X0206849Y0138337D01*
X0205912Y0139274D01*
X0205874Y0139274D01*
X0205874Y0142504D01*
X0205943Y0143955D01*
X0206557Y0144569D01*
X0207043Y0145741D01*
X0207043Y0147009D01*
X0206557Y0148180D01*
X0205661Y0149077D01*
X0204489Y0149562D01*
X0203221Y0149562D01*
X0202050Y0149077D01*
X0201153Y0148180D01*
X0200668Y0147009D01*
X0200668Y0145741D01*
X0201153Y0144569D01*
X0201548Y0144174D01*
X0201517Y0143510D01*
X0201474Y0143467D01*
X0201474Y0142608D01*
X0201433Y0141750D01*
X0201474Y0141705D01*
X0201474Y0139274D01*
X0201436Y0139274D01*
X0200499Y0138337D01*
X0200499Y0132287D01*
X0200499Y0134222D02*
X0188180Y0134222D01*
X0188180Y0135821D02*
X0200499Y0135821D01*
X0200499Y0137420D02*
X0189145Y0137420D01*
X0190417Y0139018D02*
X0201180Y0139018D01*
X0201474Y0140617D02*
X0190417Y0140617D01*
X0190417Y0142215D02*
X0201455Y0142215D01*
X0201531Y0143814D02*
X0190417Y0143814D01*
X0190417Y0145412D02*
X0200804Y0145412D01*
X0200668Y0147011D02*
X0189238Y0147011D01*
X0187640Y0148609D02*
X0201582Y0148609D01*
X0206128Y0148609D02*
X0207779Y0148609D01*
X0207975Y0147011D02*
X0207042Y0147011D01*
X0206906Y0145412D02*
X0208170Y0145412D01*
X0208366Y0143814D02*
X0205936Y0143814D01*
X0205874Y0142215D02*
X0208561Y0142215D01*
X0208561Y0140617D02*
X0205874Y0140617D01*
X0206168Y0139018D02*
X0208267Y0139018D01*
X0207586Y0137420D02*
X0206849Y0137420D01*
X0206849Y0135821D02*
X0207586Y0135821D01*
X0207586Y0134222D02*
X0206849Y0134222D01*
X0206849Y0132624D02*
X0207586Y0132624D01*
X0216067Y0132624D02*
X0241080Y0132624D01*
X0241080Y0134222D02*
X0216067Y0134222D01*
X0216067Y0135821D02*
X0241080Y0135821D01*
X0241080Y0137420D02*
X0216067Y0137420D01*
X0216067Y0139018D02*
X0241080Y0139018D01*
X0241080Y0140617D02*
X0216067Y0140617D01*
X0216067Y0142215D02*
X0241080Y0142215D01*
X0241080Y0143814D02*
X0216067Y0143814D01*
X0216067Y0145412D02*
X0241080Y0145412D01*
X0241080Y0147011D02*
X0216067Y0147011D01*
X0216067Y0148609D02*
X0241080Y0148609D01*
X0241080Y0150208D02*
X0233950Y0150208D01*
X0233873Y0150131D02*
X0235048Y0151305D01*
X0235683Y0152840D01*
X0235683Y0154500D01*
X0235048Y0156035D01*
X0233873Y0157209D01*
X0232339Y0157845D01*
X0230678Y0157845D01*
X0229144Y0157209D01*
X0227969Y0156035D01*
X0227334Y0154500D01*
X0227334Y0152840D01*
X0227969Y0151305D01*
X0229144Y0150131D01*
X0230678Y0149495D01*
X0232339Y0149495D01*
X0233873Y0150131D01*
X0235255Y0151806D02*
X0241080Y0151806D01*
X0241080Y0153405D02*
X0235683Y0153405D01*
X0235475Y0155003D02*
X0241080Y0155003D01*
X0241080Y0156602D02*
X0234481Y0156602D01*
X0237535Y0159799D02*
X0225482Y0159799D01*
X0226016Y0160333D02*
X0226652Y0161867D01*
X0226652Y0163528D01*
X0226016Y0165062D01*
X0224842Y0166237D01*
X0223308Y0166872D01*
X0221647Y0166872D01*
X0220112Y0166237D01*
X0218938Y0165062D01*
X0218302Y0163528D01*
X0218302Y0161867D01*
X0218938Y0160333D01*
X0220112Y0159158D01*
X0221647Y0158523D01*
X0223308Y0158523D01*
X0224842Y0159158D01*
X0226016Y0160333D01*
X0226457Y0161397D02*
X0236560Y0161397D01*
X0236365Y0161867D02*
X0237001Y0160333D01*
X0238175Y0159158D01*
X0239710Y0158523D01*
X0240872Y0158523D01*
X0241080Y0158238D01*
X0241080Y0118313D01*
X0240915Y0118245D01*
X0239741Y0117070D01*
X0239106Y0115536D01*
X0239106Y0113875D01*
X0239741Y0112341D01*
X0240915Y0111166D01*
X0242450Y0110531D01*
X0244111Y0110531D01*
X0245645Y0111166D01*
X0246820Y0112341D01*
X0247455Y0113875D01*
X0247455Y0115536D01*
X0246820Y0117070D01*
X0245645Y0118245D01*
X0245480Y0118313D01*
X0245480Y0158789D01*
X0245594Y0159523D01*
X0245480Y0159677D01*
X0245480Y0159869D01*
X0244955Y0160394D01*
X0244412Y0161135D01*
X0244715Y0161867D01*
X0244715Y0163528D01*
X0244079Y0165062D01*
X0242905Y0166237D01*
X0241371Y0166872D01*
X0239710Y0166872D01*
X0238175Y0166237D01*
X0237001Y0165062D01*
X0236365Y0163528D01*
X0236365Y0161867D01*
X0236365Y0162996D02*
X0226652Y0162996D01*
X0226210Y0164594D02*
X0236807Y0164594D01*
X0238131Y0166193D02*
X0224886Y0166193D01*
X0227969Y0169360D02*
X0229144Y0168186D01*
X0230678Y0167550D01*
X0232339Y0167550D01*
X0233873Y0168186D01*
X0235048Y0169360D01*
X0235683Y0170895D01*
X0235683Y0172556D01*
X0235048Y0174090D01*
X0233873Y0175264D01*
X0232339Y0175900D01*
X0230678Y0175900D01*
X0229144Y0175264D01*
X0227969Y0174090D01*
X0227334Y0172556D01*
X0227334Y0170895D01*
X0227969Y0169360D01*
X0227957Y0169390D02*
X0212759Y0169390D01*
X0211161Y0170988D02*
X0227334Y0170988D01*
X0227347Y0172587D02*
X0209562Y0172587D01*
X0207964Y0174185D02*
X0228065Y0174185D01*
X0230398Y0175784D02*
X0206365Y0175784D01*
X0204767Y0177382D02*
X0249417Y0177382D01*
X0249417Y0175784D02*
X0232620Y0175784D01*
X0234953Y0174185D02*
X0249417Y0174185D01*
X0249417Y0172587D02*
X0235671Y0172587D01*
X0235683Y0170988D02*
X0249417Y0170988D01*
X0249417Y0169390D02*
X0235060Y0169390D01*
X0232920Y0167791D02*
X0249417Y0167791D01*
X0249417Y0166193D02*
X0242949Y0166193D01*
X0244273Y0164594D02*
X0249417Y0164594D01*
X0249417Y0162996D02*
X0244715Y0162996D01*
X0244520Y0161397D02*
X0249417Y0161397D01*
X0249417Y0159799D02*
X0245480Y0159799D01*
X0245480Y0158200D02*
X0249417Y0158200D01*
X0249417Y0156602D02*
X0245480Y0156602D01*
X0245480Y0155003D02*
X0249417Y0155003D01*
X0249417Y0153405D02*
X0245480Y0153405D01*
X0245480Y0151806D02*
X0249417Y0151806D01*
X0249417Y0150208D02*
X0245480Y0150208D01*
X0245480Y0148609D02*
X0249417Y0148609D01*
X0249417Y0147011D02*
X0245480Y0147011D01*
X0245480Y0145412D02*
X0249417Y0145412D01*
X0249417Y0143814D02*
X0245480Y0143814D01*
X0245480Y0142215D02*
X0249417Y0142215D01*
X0249417Y0140617D02*
X0245480Y0140617D01*
X0245480Y0139018D02*
X0249417Y0139018D01*
X0249417Y0137420D02*
X0245480Y0137420D01*
X0245480Y0135821D02*
X0249417Y0135821D01*
X0249417Y0134222D02*
X0245480Y0134222D01*
X0245480Y0132624D02*
X0249417Y0132624D01*
X0249417Y0131025D02*
X0245480Y0131025D01*
X0245480Y0129427D02*
X0249417Y0129427D01*
X0249417Y0127828D02*
X0245480Y0127828D01*
X0245480Y0126230D02*
X0249417Y0126230D01*
X0249417Y0124631D02*
X0245480Y0124631D01*
X0245480Y0123033D02*
X0249417Y0123033D01*
X0249417Y0121434D02*
X0245480Y0121434D01*
X0245480Y0119836D02*
X0249417Y0119836D01*
X0249417Y0118237D02*
X0245652Y0118237D01*
X0246998Y0116639D02*
X0249417Y0116639D01*
X0249417Y0115040D02*
X0247455Y0115040D01*
X0247276Y0113442D02*
X0249417Y0113442D01*
X0249417Y0111843D02*
X0246322Y0111843D01*
X0249417Y0110245D02*
X0226904Y0110245D01*
X0228259Y0111843D02*
X0240238Y0111843D01*
X0239285Y0113442D02*
X0229213Y0113442D01*
X0229392Y0115040D02*
X0239106Y0115040D01*
X0239562Y0116639D02*
X0228935Y0116639D01*
X0227590Y0118237D02*
X0240908Y0118237D01*
X0241080Y0119836D02*
X0235749Y0119836D01*
X0235079Y0119558D02*
X0236614Y0120194D01*
X0237788Y0121368D01*
X0238424Y0122903D01*
X0238424Y0124563D01*
X0237788Y0126098D01*
X0236614Y0127272D01*
X0235079Y0127908D01*
X0233418Y0127908D01*
X0231884Y0127272D01*
X0230710Y0126098D01*
X0230074Y0124563D01*
X0230074Y0122903D01*
X0230710Y0121368D01*
X0231884Y0120194D01*
X0233418Y0119558D01*
X0235079Y0119558D01*
X0232748Y0119836D02*
X0217313Y0119836D01*
X0216067Y0121434D02*
X0230682Y0121434D01*
X0230074Y0123033D02*
X0216067Y0123033D01*
X0216067Y0124631D02*
X0230102Y0124631D01*
X0230842Y0126230D02*
X0216067Y0126230D01*
X0216067Y0127828D02*
X0233227Y0127828D01*
X0235271Y0127828D02*
X0241080Y0127828D01*
X0241080Y0126230D02*
X0237656Y0126230D01*
X0238395Y0124631D02*
X0241080Y0124631D01*
X0241080Y0123033D02*
X0238424Y0123033D01*
X0237815Y0121434D02*
X0241080Y0121434D01*
X0241080Y0129427D02*
X0216067Y0129427D01*
X0216067Y0131025D02*
X0241080Y0131025D01*
X0222845Y0118237D02*
X0218912Y0118237D01*
X0220510Y0116639D02*
X0221499Y0116639D01*
X0228503Y0108646D02*
X0231313Y0108646D01*
X0231884Y0109217D02*
X0230710Y0108043D01*
X0230074Y0106508D01*
X0230074Y0104848D01*
X0230710Y0103313D01*
X0231884Y0102139D01*
X0233418Y0101503D01*
X0235079Y0101503D01*
X0236614Y0102139D01*
X0237788Y0103313D01*
X0238424Y0104848D01*
X0238424Y0106508D01*
X0237788Y0108043D01*
X0236614Y0109217D01*
X0235079Y0109853D01*
X0233418Y0109853D01*
X0231884Y0109217D01*
X0230297Y0107048D02*
X0228667Y0107048D01*
X0228667Y0105449D02*
X0230074Y0105449D01*
X0230487Y0103851D02*
X0228667Y0103851D01*
X0228667Y0102252D02*
X0231770Y0102252D01*
X0228667Y0100654D02*
X0249417Y0100654D01*
X0249417Y0102252D02*
X0236727Y0102252D01*
X0238011Y0103851D02*
X0249417Y0103851D01*
X0249417Y0105449D02*
X0238424Y0105449D01*
X0238200Y0107048D02*
X0249417Y0107048D01*
X0249417Y0108646D02*
X0237185Y0108646D01*
X0228667Y0099055D02*
X0249417Y0099055D01*
X0249417Y0097457D02*
X0228667Y0097457D01*
X0228667Y0095858D02*
X0249417Y0095858D01*
X0249417Y0094260D02*
X0228667Y0094260D01*
X0228667Y0092661D02*
X0249417Y0092661D01*
X0249417Y0091063D02*
X0228667Y0091063D01*
X0228667Y0089464D02*
X0249417Y0089464D01*
X0249417Y0087866D02*
X0228667Y0087866D01*
X0228667Y0086267D02*
X0249417Y0086267D01*
X0249417Y0084669D02*
X0228667Y0084669D01*
X0228667Y0083070D02*
X0249417Y0083070D01*
X0249417Y0081472D02*
X0228667Y0081472D01*
X0228667Y0079873D02*
X0249417Y0079873D01*
X0249417Y0078275D02*
X0228667Y0078275D01*
X0228667Y0076676D02*
X0249417Y0076676D01*
X0249417Y0075078D02*
X0228667Y0075078D01*
X0228667Y0073479D02*
X0249417Y0073479D01*
X0249417Y0071881D02*
X0228667Y0071881D01*
X0228667Y0070282D02*
X0249417Y0070282D01*
X0249417Y0068684D02*
X0228667Y0068684D01*
X0228667Y0067085D02*
X0249417Y0067085D01*
X0249417Y0065487D02*
X0228667Y0065487D01*
X0228667Y0063888D02*
X0249417Y0063888D01*
X0249417Y0062289D02*
X0228667Y0062289D01*
X0228667Y0060691D02*
X0249417Y0060691D01*
X0249417Y0059092D02*
X0228667Y0059092D01*
X0228667Y0057494D02*
X0249417Y0057494D01*
X0249417Y0055895D02*
X0228667Y0055895D01*
X0228667Y0054297D02*
X0249417Y0054297D01*
X0249417Y0052698D02*
X0228667Y0052698D01*
X0228667Y0051100D02*
X0249417Y0051100D01*
X0249417Y0049501D02*
X0228667Y0049501D01*
X0228667Y0047903D02*
X0249417Y0047903D01*
X0249417Y0046304D02*
X0228080Y0046304D01*
X0226481Y0044706D02*
X0249417Y0044706D01*
X0249417Y0043107D02*
X0224883Y0043107D01*
X0223284Y0041509D02*
X0249417Y0041509D01*
X0249417Y0039910D02*
X0221686Y0039910D01*
X0220087Y0038312D02*
X0249417Y0038312D01*
X0249417Y0036713D02*
X0218489Y0036713D01*
X0216890Y0035115D02*
X0249417Y0035115D01*
X0249417Y0033516D02*
X0215292Y0033516D01*
X0213693Y0031918D02*
X0236393Y0031918D01*
X0234795Y0030319D02*
X0212095Y0030319D01*
X0210496Y0028721D02*
X0233196Y0028721D01*
X0231867Y0027122D02*
X0208898Y0027122D01*
X0207299Y0025524D02*
X0231867Y0025524D01*
X0247041Y0031918D02*
X0249417Y0031918D01*
X0249417Y0030319D02*
X0248640Y0030319D01*
X0224467Y0057494D02*
X0205969Y0057494D01*
X0207568Y0059092D02*
X0224467Y0059092D01*
X0224467Y0060691D02*
X0209166Y0060691D01*
X0210667Y0062289D02*
X0224467Y0062289D01*
X0224467Y0063888D02*
X0215935Y0063888D01*
X0215935Y0065487D02*
X0224467Y0065487D01*
X0224467Y0067085D02*
X0216460Y0067085D01*
X0216967Y0068684D02*
X0224467Y0068684D01*
X0224467Y0070282D02*
X0216967Y0070282D01*
X0216967Y0071881D02*
X0224467Y0071881D01*
X0224467Y0073479D02*
X0216967Y0073479D01*
X0221726Y0075078D02*
X0222791Y0075078D01*
X0221801Y0081472D02*
X0224467Y0081472D01*
X0224467Y0083070D02*
X0215829Y0083070D01*
X0207606Y0083070D02*
X0205298Y0083070D01*
X0204415Y0084669D02*
X0224467Y0084669D01*
X0224467Y0086267D02*
X0199003Y0086267D01*
X0192931Y0086267D02*
X0189180Y0086267D01*
X0189180Y0084669D02*
X0192367Y0084669D01*
X0189734Y0083070D02*
X0188719Y0083070D01*
X0188827Y0081472D02*
X0188217Y0081472D01*
X0188217Y0079873D02*
X0188777Y0079873D01*
X0188217Y0078275D02*
X0189613Y0078275D01*
X0188217Y0076676D02*
X0194617Y0076676D01*
X0194617Y0075078D02*
X0188238Y0075078D01*
X0189397Y0073479D02*
X0196980Y0073479D01*
X0196980Y0071881D02*
X0189602Y0071881D01*
X0188974Y0070282D02*
X0197347Y0070282D01*
X0195260Y0078275D02*
X0195121Y0078275D01*
X0189180Y0087866D02*
X0224467Y0087866D01*
X0224467Y0089464D02*
X0179217Y0089464D01*
X0179217Y0087866D02*
X0181255Y0087866D01*
X0180363Y0091063D02*
X0224467Y0091063D01*
X0224467Y0092661D02*
X0180602Y0092661D01*
X0175217Y0087866D02*
X0174847Y0087866D01*
X0181189Y0083070D02*
X0181716Y0083070D01*
X0198403Y0099055D02*
X0206862Y0099055D01*
X0207773Y0100654D02*
X0202043Y0100654D01*
X0203034Y0102252D02*
X0208217Y0102252D01*
X0208217Y0103851D02*
X0203008Y0103851D01*
X0201981Y0105449D02*
X0204381Y0105449D01*
X0206697Y0105449D02*
X0208217Y0105449D01*
X0195094Y0113442D02*
X0193672Y0113442D01*
X0183332Y0113442D02*
X0180057Y0113442D01*
X0181417Y0111843D02*
X0181733Y0111843D01*
X0165499Y0116639D02*
X0162217Y0116639D01*
X0162217Y0118237D02*
X0165499Y0118237D01*
X0162751Y0115040D02*
X0162217Y0115040D01*
X0158217Y0115040D02*
X0156667Y0115040D01*
X0156667Y0113442D02*
X0158217Y0113442D01*
X0158217Y0111843D02*
X0155919Y0111843D01*
X0154320Y0110245D02*
X0158217Y0110245D01*
X0158217Y0116639D02*
X0156667Y0116639D01*
X0156667Y0118237D02*
X0158217Y0118237D01*
X0157907Y0119836D02*
X0156667Y0119836D01*
X0156667Y0121434D02*
X0156918Y0121434D01*
X0156853Y0123033D02*
X0156667Y0123033D01*
X0156667Y0124631D02*
X0157751Y0124631D01*
X0166178Y0140617D02*
X0166239Y0140617D01*
X0181246Y0155003D02*
X0206996Y0155003D01*
X0207192Y0153405D02*
X0182844Y0153405D01*
X0184443Y0151806D02*
X0207388Y0151806D01*
X0207583Y0150208D02*
X0186041Y0150208D01*
X0185364Y0156602D02*
X0205836Y0156602D01*
X0205408Y0158200D02*
X0186579Y0158200D01*
X0186917Y0159799D02*
X0205744Y0159799D01*
X0207372Y0161397D02*
X0186590Y0161397D01*
X0186210Y0162996D02*
X0211867Y0162996D01*
X0211867Y0161397D02*
X0210244Y0161397D01*
X0211615Y0164594D02*
X0205498Y0164594D01*
X0205498Y0166193D02*
X0210017Y0166193D01*
X0208418Y0167791D02*
X0205498Y0167791D01*
X0205498Y0169390D02*
X0206820Y0169390D01*
X0214358Y0167791D02*
X0230097Y0167791D01*
X0220068Y0166193D02*
X0215956Y0166193D01*
X0216067Y0164594D02*
X0218744Y0164594D01*
X0218302Y0162996D02*
X0216067Y0162996D01*
X0216067Y0161397D02*
X0218497Y0161397D01*
X0219472Y0159799D02*
X0216067Y0159799D01*
X0216067Y0158200D02*
X0241080Y0158200D01*
X0228536Y0156602D02*
X0216067Y0156602D01*
X0216067Y0155003D02*
X0227542Y0155003D01*
X0227334Y0153405D02*
X0216067Y0153405D01*
X0216067Y0151806D02*
X0227762Y0151806D01*
X0229067Y0150208D02*
X0216067Y0150208D01*
X0235417Y0191769D02*
X0249417Y0191769D01*
X0249417Y0193367D02*
X0235935Y0193367D01*
X0235935Y0194966D02*
X0249417Y0194966D01*
X0238066Y0196564D02*
X0235935Y0196564D01*
X0235935Y0198163D02*
X0238066Y0198163D01*
X0237097Y0199761D02*
X0234848Y0199761D01*
X0234848Y0201360D02*
X0235499Y0201360D01*
X0235195Y0212550D02*
X0238066Y0212550D01*
X0238066Y0214148D02*
X0234557Y0214148D01*
X0232598Y0215747D02*
X0249417Y0215747D01*
X0249417Y0217345D02*
X0247181Y0217345D01*
X0248779Y0218944D02*
X0249417Y0218944D01*
X0236254Y0217345D02*
X0232598Y0217345D01*
X0232598Y0218944D02*
X0234656Y0218944D01*
X0233057Y0220542D02*
X0231398Y0220542D01*
X0219011Y0198163D02*
X0218835Y0198163D01*
X0196988Y0225338D02*
X0193711Y0225338D01*
X0109696Y0162996D02*
X0108521Y0162996D01*
X0109696Y0161397D02*
X0106923Y0161397D01*
X0105324Y0159799D02*
X0110315Y0159799D01*
X0109574Y0158200D02*
X0105884Y0158200D01*
X0105884Y0156602D02*
X0109574Y0156602D01*
X0110137Y0155003D02*
X0105321Y0155003D01*
X0099114Y0155003D02*
X0096652Y0155003D01*
X0090870Y0155003D02*
X0089565Y0155003D01*
X0089849Y0156602D02*
X0090586Y0156602D01*
X0090586Y0158200D02*
X0089849Y0158200D01*
X0178717Y0060691D02*
X0189341Y0060691D01*
X0188421Y0059092D02*
X0178717Y0059092D01*
X0178717Y0057494D02*
X0188547Y0057494D01*
X0189646Y0055895D02*
X0178717Y0055895D01*
X0178717Y0054297D02*
X0189817Y0054297D01*
X0189817Y0052698D02*
X0178717Y0052698D01*
X0178717Y0051100D02*
X0189817Y0051100D01*
X0169490Y0030319D02*
X0165018Y0030319D01*
X0165018Y0028721D02*
X0171089Y0028721D01*
X0172687Y0027122D02*
X0164361Y0027122D01*
X0165018Y0031918D02*
X0167892Y0031918D01*
X0166293Y0033516D02*
X0165018Y0033516D01*
D44*
X0158918Y0032942D03*
X0158076Y0051343D03*
X0158076Y0063312D03*
X0138233Y0063312D03*
X0139217Y0051343D03*
X0139076Y0033721D03*
X0148217Y0118312D03*
X0148217Y0129312D03*
X0148217Y0140312D03*
X0134217Y0140312D03*
X0132217Y0171312D03*
X0161217Y0231312D03*
X0200217Y0232312D03*
X0052186Y0189595D03*
X0039186Y0189595D03*
X0039217Y0173312D03*
X0039217Y0163312D03*
X0039217Y0153312D03*
X0039296Y0143383D03*
X0039454Y0133540D03*
X0041776Y0115170D03*
X0039918Y0088170D03*
X0048469Y0077485D03*
X0048469Y0067485D03*
X0048469Y0057485D03*
D45*
X0076162Y0063209D02*
X0080792Y0063902D01*
X0080792Y0076965D01*
X0080769Y0076989D01*
X0082737Y0076989D02*
X0082737Y0060485D01*
X0163485Y0111894D02*
X0166068Y0108312D01*
X0168674Y0108312D01*
X0169020Y0108312D01*
X0163485Y0111894D02*
X0167902Y0115312D01*
X0168674Y0115312D01*
X0175761Y0115312D02*
X0175761Y0124312D01*
X0184154Y0118769D02*
X0184154Y0114910D01*
X0181674Y0112430D01*
X0181674Y0108847D01*
X0181871Y0108650D01*
X0183682Y0108650D02*
X0183706Y0108674D01*
X0180359Y0107099D02*
X0179233Y0107942D01*
X0178548Y0105524D02*
X0175761Y0108312D01*
X0178398Y0103950D02*
X0177023Y0101531D01*
X0175761Y0099312D01*
X0176296Y0097776D01*
X0176296Y0100005D01*
X0185280Y0099918D02*
X0185217Y0092855D01*
X0185217Y0085769D02*
X0177265Y0084816D01*
X0177265Y0084335D01*
X0177265Y0085249D01*
X0171076Y0085438D01*
X0193154Y0100800D02*
X0197115Y0100892D01*
X0196997Y0101099D02*
X0196981Y0101099D01*
X0199902Y0103020D01*
X0198973Y0103950D01*
X0194729Y0103950D01*
X0196997Y0101099D02*
X0196648Y0100512D01*
X0184154Y0118769D02*
X0187107Y0121721D01*
X0203674Y0135312D02*
X0203674Y0142556D01*
X0203855Y0146375D01*
X0210761Y0142359D02*
X0208808Y0158312D01*
X0210761Y0142359D02*
X0210761Y0135312D01*
X0243280Y0158957D02*
X0240540Y0162698D01*
X0243280Y0158957D02*
X0243280Y0114706D01*
X0232761Y0195312D02*
X0232648Y0195424D01*
X0232648Y0199729D01*
X0220556Y0199729D01*
X0220556Y0203450D01*
X0219587Y0204419D01*
X0218891Y0204419D01*
X0214957Y0200485D01*
X0216136Y0206393D02*
X0219598Y0206393D01*
X0219598Y0208356D02*
X0219598Y0210309D01*
X0219582Y0210325D01*
X0219582Y0212297D01*
X0219582Y0216472D01*
X0218081Y0216472D01*
X0214997Y0219556D01*
X0213170Y0221383D01*
X0210713Y0221383D01*
X0212611Y0226406D02*
X0211729Y0227288D01*
X0207761Y0227288D01*
X0202217Y0220824D02*
X0203336Y0219995D01*
X0190278Y0215763D01*
X0190265Y0213806D02*
X0183744Y0213858D01*
X0183744Y0211834D01*
X0177220Y0211834D01*
X0167217Y0209658D02*
X0165351Y0209658D01*
X0162485Y0212524D01*
X0164926Y0214965D01*
X0167217Y0214965D01*
X0171343Y0231225D02*
X0175603Y0231225D01*
X0176706Y0232328D01*
X0190265Y0213806D02*
X0194526Y0213898D01*
X0191719Y0211834D02*
X0192997Y0210556D01*
X0201461Y0210556D01*
X0202217Y0209800D01*
X0209729Y0212524D02*
X0214942Y0212524D01*
X0214997Y0212469D01*
X0214997Y0207611D01*
X0214957Y0207572D01*
X0216136Y0206393D01*
X0219582Y0216472D02*
X0221540Y0218430D01*
X0230398Y0218430D01*
X0230398Y0214536D01*
X0232643Y0212291D01*
X0232656Y0210322D02*
X0243527Y0210322D01*
X0243997Y0210792D01*
X0236304Y0207603D02*
X0235542Y0208365D01*
X0232643Y0208365D01*
X0232591Y0208417D01*
X0226122Y0208417D01*
X0232648Y0206393D02*
X0233577Y0206393D01*
X0240202Y0199769D01*
X0243997Y0199769D01*
X0232648Y0199729D02*
X0232648Y0204422D01*
X0225674Y0195312D02*
X0225170Y0194808D01*
X0222524Y0194808D01*
X0191719Y0211834D02*
X0190270Y0211834D01*
X0176170Y0196808D02*
X0176375Y0195013D01*
X0171808Y0194013D01*
X0146737Y0229257D02*
X0145910Y0229257D01*
X0142824Y0232343D01*
X0135737Y0232343D02*
X0131123Y0232343D01*
X0130005Y0231225D01*
X0113595Y0204991D02*
X0111286Y0202682D01*
X0109650Y0203220D01*
X0112674Y0204070D02*
X0112674Y0198312D01*
X0112674Y0204070D02*
X0113595Y0204991D01*
X0119761Y0198312D02*
X0120312Y0197761D01*
X0126068Y0197761D01*
X0133942Y0195792D02*
X0136225Y0193509D01*
X0135643Y0188304D01*
X0107217Y0191769D02*
X0096217Y0191769D01*
X0085217Y0191769D01*
X0080800Y0191769D01*
X0066713Y0191855D01*
X0078619Y0203682D02*
X0083619Y0203170D01*
X0084217Y0207769D01*
X0092217Y0206965D02*
X0100855Y0210603D01*
X0104336Y0209728D01*
X0075036Y0206769D02*
X0063217Y0206769D01*
X0073217Y0206769D01*
X0075036Y0206769D02*
X0044902Y0205635D01*
X0067776Y0225288D02*
X0072776Y0224414D01*
X0072674Y0221312D01*
X0219698Y0226406D02*
X0224391Y0226406D01*
X0224493Y0226304D01*
D46*
X0194617Y0221462D02*
X0183817Y0232262D01*
X0183792Y0232328D01*
X0167167Y0221912D02*
X0167217Y0221658D01*
X0167167Y0221912D02*
X0164467Y0221912D01*
X0163117Y0223262D01*
X0162485Y0223351D01*
X0149217Y0216824D02*
X0149167Y0216512D01*
X0147817Y0215162D01*
X0137467Y0215162D01*
X0137217Y0214965D01*
X0137017Y0214712D01*
X0135217Y0212912D01*
X0129367Y0212912D01*
X0128556Y0212914D01*
X0128917Y0212912D01*
X0128917Y0211112D01*
X0128556Y0210946D01*
X0128556Y0208977D02*
X0128917Y0208862D01*
X0137017Y0208862D01*
X0137217Y0208658D01*
X0133867Y0205262D02*
X0137017Y0202112D01*
X0137217Y0201965D01*
X0137467Y0202112D01*
X0145567Y0202112D01*
X0149167Y0205712D01*
X0149217Y0205800D01*
X0147367Y0196262D02*
X0140167Y0189062D01*
X0140167Y0185912D01*
X0135667Y0181412D01*
X0135643Y0181847D01*
X0135667Y0180962D01*
X0129817Y0180962D01*
X0127117Y0177362D02*
X0122617Y0172862D01*
X0122617Y0171512D01*
X0119017Y0167912D01*
X0118117Y0167912D01*
X0114517Y0164312D01*
X0112717Y0164312D01*
X0112477Y0164170D01*
X0113167Y0163862D01*
X0113167Y0157562D01*
X0113241Y0157312D01*
X0115417Y0167912D02*
X0110467Y0167912D01*
X0101917Y0159362D01*
X0101917Y0158012D01*
X0102217Y0157312D01*
X0101917Y0157562D01*
X0094267Y0157562D01*
X0093817Y0158012D01*
X0093761Y0158312D01*
X0090667Y0162062D02*
X0087067Y0158462D01*
X0086674Y0158312D01*
X0086617Y0158012D01*
X0084817Y0156212D01*
X0075367Y0156212D01*
X0075217Y0155769D01*
X0077617Y0158912D02*
X0072217Y0158912D01*
X0071317Y0158012D01*
X0071317Y0153512D01*
X0084367Y0140462D01*
X0133867Y0140462D01*
X0134217Y0140312D01*
X0134317Y0140462D01*
X0137467Y0140462D01*
X0143317Y0146312D01*
X0154567Y0146312D01*
X0154567Y0113462D01*
X0153217Y0112112D01*
X0146917Y0112112D01*
X0142417Y0107612D01*
X0117217Y0107612D01*
X0117186Y0107501D01*
X0117186Y0111438D02*
X0117217Y0111662D01*
X0130267Y0111662D01*
X0147817Y0129212D01*
X0148217Y0129312D01*
X0133517Y0123862D02*
X0115417Y0118862D01*
X0086167Y0089612D01*
X0074017Y0089612D01*
X0073879Y0089784D01*
X0074017Y0093662D02*
X0073879Y0093721D01*
X0074017Y0093662D02*
X0076267Y0093662D01*
X0077167Y0094562D01*
X0077167Y0142712D01*
X0091117Y0135062D02*
X0100567Y0135062D01*
X0100674Y0135312D01*
X0107317Y0135062D02*
X0107761Y0135312D01*
X0108217Y0135512D01*
X0113167Y0135512D01*
X0113272Y0135753D01*
X0107317Y0135062D02*
X0098317Y0126062D01*
X0098317Y0120662D01*
X0098485Y0120296D01*
X0096517Y0120296D02*
X0096517Y0120212D01*
X0096517Y0117962D01*
X0095167Y0116612D01*
X0079867Y0116612D01*
X0078967Y0117512D01*
X0078967Y0122912D01*
X0081442Y0125387D01*
X0081217Y0125612D01*
X0081442Y0125387D02*
X0091117Y0135062D01*
X0069067Y0114812D02*
X0065467Y0111212D01*
X0046117Y0111212D01*
X0041776Y0115170D01*
X0042067Y0114812D01*
X0045667Y0111212D01*
X0045667Y0104462D01*
X0046091Y0104359D01*
X0046091Y0097406D02*
X0047467Y0095462D01*
X0040267Y0088262D01*
X0039918Y0088170D01*
X0047467Y0095912D02*
X0046117Y0097262D01*
X0046091Y0097406D01*
X0047467Y0095912D02*
X0070417Y0095912D01*
X0070417Y0082862D01*
X0071317Y0081962D01*
X0078367Y0081962D01*
X0084767Y0087362D01*
X0106417Y0087362D01*
X0108667Y0090062D02*
X0112817Y0085912D01*
X0114967Y0083762D01*
X0116767Y0083762D01*
X0117186Y0083879D01*
X0117667Y0083762D01*
X0122617Y0083762D01*
X0124867Y0081512D01*
X0124867Y0072512D01*
X0118567Y0066212D01*
X0118567Y0043712D01*
X0115867Y0041012D01*
X0115867Y0038762D01*
X0115784Y0038706D01*
X0115417Y0038312D01*
X0114517Y0037412D01*
X0099217Y0037412D01*
X0099178Y0037206D01*
X0096067Y0035162D02*
X0098767Y0032462D01*
X0099178Y0032245D01*
X0099217Y0032012D01*
X0115417Y0032012D01*
X0115784Y0031706D01*
X0111367Y0042362D02*
X0114517Y0045512D01*
X0114784Y0045706D01*
X0111367Y0042362D02*
X0099217Y0042362D01*
X0099178Y0042206D01*
X0101017Y0044612D02*
X0096967Y0044612D01*
X0096067Y0043712D01*
X0096067Y0035162D01*
X0087367Y0039706D02*
X0087067Y0039662D01*
X0081667Y0034262D01*
X0081667Y0025012D01*
X0081017Y0025662D01*
X0081217Y0025312D01*
X0081667Y0025012D02*
X0077167Y0025012D01*
X0072863Y0025131D01*
X0067267Y0034712D02*
X0066871Y0034706D01*
X0067267Y0034712D02*
X0069517Y0036962D01*
X0075367Y0036962D01*
X0075556Y0037206D01*
X0075367Y0041912D02*
X0075556Y0042206D01*
X0075817Y0042362D01*
X0080317Y0046862D01*
X0075556Y0047166D02*
X0075367Y0047312D01*
X0070217Y0047312D01*
X0069517Y0047312D01*
X0067267Y0049562D01*
X0066871Y0049706D01*
X0067267Y0041912D02*
X0066871Y0041706D01*
X0067267Y0041912D02*
X0075367Y0041912D01*
X0087367Y0039706D02*
X0087517Y0040112D01*
X0094267Y0046862D01*
X0098767Y0046862D01*
X0099178Y0047166D01*
X0101017Y0044612D02*
X0102367Y0045962D01*
X0102367Y0048662D01*
X0084617Y0066412D01*
X0092467Y0066812D02*
X0108017Y0046262D01*
X0111967Y0050262D02*
X0100567Y0066662D01*
X0100567Y0076562D01*
X0100454Y0076989D01*
X0104167Y0076562D02*
X0104391Y0076989D01*
X0106359Y0076989D02*
X0106417Y0077012D01*
X0106417Y0079712D01*
X0107317Y0081612D01*
X0120817Y0081612D01*
X0121267Y0080162D01*
X0117186Y0085847D02*
X0117217Y0086012D01*
X0126667Y0086012D01*
X0151867Y0060812D01*
X0151867Y0046412D01*
X0159517Y0038762D01*
X0164017Y0038762D01*
X0176617Y0026162D01*
X0176617Y0023462D01*
X0177517Y0022562D01*
X0201367Y0022562D01*
X0226567Y0047762D01*
X0226567Y0107612D01*
X0213967Y0120212D01*
X0213967Y0165212D01*
X0200917Y0178262D01*
X0172117Y0178262D01*
X0171808Y0178658D01*
X0171808Y0176099D02*
X0172117Y0176012D01*
X0178867Y0169262D01*
X0178867Y0154412D01*
X0188317Y0144962D01*
X0188317Y0139562D01*
X0187417Y0138662D01*
X0181117Y0138662D01*
X0170317Y0149462D01*
X0170317Y0163412D01*
X0168067Y0165662D01*
X0167808Y0166099D01*
X0168517Y0173312D02*
X0175267Y0166562D01*
X0175674Y0166312D01*
X0175717Y0166112D01*
X0175717Y0154862D01*
X0183817Y0146762D01*
X0183817Y0142712D01*
X0184217Y0142383D01*
X0178867Y0135962D02*
X0180217Y0134612D01*
X0183817Y0134612D01*
X0184217Y0134312D01*
X0175761Y0115312D02*
X0175717Y0114812D01*
X0179317Y0111212D01*
X0179317Y0108512D01*
X0179233Y0107942D01*
X0180359Y0107099D02*
X0183706Y0107099D01*
X0183682Y0108650D02*
X0181871Y0108650D01*
X0183706Y0105524D02*
X0178548Y0105524D01*
X0178398Y0103950D02*
X0183706Y0103950D01*
X0185280Y0100800D02*
X0185280Y0099918D01*
X0185217Y0092855D02*
X0185167Y0092312D01*
X0189217Y0088262D01*
X0189217Y0087812D01*
X0200917Y0087812D01*
X0205417Y0083312D01*
X0205417Y0082412D01*
X0205076Y0082237D01*
X0207217Y0080612D02*
X0207143Y0080170D01*
X0207217Y0080612D02*
X0208117Y0080612D01*
X0209917Y0082412D01*
X0213517Y0082412D01*
X0214867Y0081062D01*
X0214867Y0068462D01*
X0213067Y0066662D01*
X0212761Y0066312D01*
X0208567Y0063062D02*
X0204067Y0058562D01*
X0191917Y0058562D01*
X0191603Y0058446D01*
X0191917Y0058112D01*
X0191917Y0044612D01*
X0189667Y0044612D01*
X0189461Y0044312D01*
X0191917Y0044612D02*
X0194167Y0044612D01*
X0194461Y0044312D01*
X0194617Y0036962D02*
X0199117Y0032462D01*
X0199117Y0029312D01*
X0199461Y0028997D01*
X0194461Y0028997D02*
X0194167Y0029312D01*
X0194167Y0032462D01*
X0191467Y0035162D01*
X0177517Y0035162D01*
X0174817Y0037862D01*
X0174817Y0060362D01*
X0141967Y0093212D01*
X0139267Y0093212D01*
X0142867Y0089612D02*
X0173017Y0059462D01*
X0173017Y0035612D01*
X0179317Y0029312D01*
X0179461Y0028997D01*
X0178417Y0036962D02*
X0194617Y0036962D01*
X0178417Y0036962D02*
X0176617Y0038762D01*
X0176617Y0070712D01*
X0145567Y0101762D01*
X0117217Y0101762D01*
X0117186Y0101595D01*
X0117186Y0099627D02*
X0116767Y0099512D01*
X0114967Y0099512D01*
X0113617Y0100862D01*
X0113617Y0114362D01*
X0114517Y0115262D01*
X0129917Y0118262D01*
X0124217Y0099712D02*
X0117186Y0097658D01*
X0117186Y0093721D02*
X0117217Y0093662D01*
X0128317Y0093662D01*
X0124217Y0099712D02*
X0144667Y0097712D01*
X0142867Y0089612D02*
X0117217Y0089612D01*
X0117186Y0089784D01*
X0117186Y0091753D02*
X0116767Y0091862D01*
X0112267Y0091862D01*
X0108667Y0090062D02*
X0108667Y0095462D01*
X0096517Y0082412D02*
X0096517Y0077012D01*
X0096517Y0076989D01*
X0092580Y0076989D02*
X0092467Y0076562D01*
X0092467Y0066812D01*
X0090611Y0076989D02*
X0090667Y0077012D01*
X0090667Y0081962D01*
X0086674Y0076989D02*
X0086617Y0075562D01*
X0108217Y0076562D02*
X0108328Y0076989D01*
X0110296Y0076989D02*
X0110467Y0077012D01*
X0110370Y0076498D01*
X0073879Y0095690D02*
X0073567Y0095912D01*
X0070417Y0095912D01*
X0073567Y0103562D02*
X0073879Y0103564D01*
X0073567Y0103562D02*
X0055567Y0103562D01*
X0055202Y0103272D01*
X0055117Y0103562D01*
X0055117Y0108062D01*
X0055076Y0108312D01*
X0077617Y0158912D02*
X0085267Y0166562D01*
X0085717Y0166562D01*
X0082567Y0169712D01*
X0082217Y0169769D01*
X0079417Y0172862D02*
X0090667Y0172862D01*
X0093367Y0170162D01*
X0094267Y0170162D01*
X0096067Y0168362D01*
X0096217Y0166170D01*
X0096517Y0166562D01*
X0096517Y0168362D01*
X0100567Y0172412D01*
X0110467Y0172412D01*
X0112267Y0174212D01*
X0112477Y0174454D01*
X0112717Y0174662D01*
X0115867Y0174662D01*
X0116217Y0174454D01*
X0115867Y0175112D01*
X0115867Y0176012D01*
X0120367Y0180512D01*
X0124417Y0180512D01*
X0132067Y0188162D01*
X0135217Y0188162D01*
X0135643Y0188304D01*
X0141967Y0188162D02*
X0141967Y0181412D01*
X0137917Y0177362D01*
X0127117Y0177362D01*
X0119957Y0174454D02*
X0119917Y0174212D01*
X0119917Y0172412D01*
X0115417Y0167912D01*
X0099957Y0166170D02*
X0099667Y0166112D01*
X0099667Y0163862D01*
X0097867Y0162062D01*
X0090667Y0162062D01*
X0092477Y0166170D02*
X0092467Y0166562D01*
X0085717Y0166562D01*
X0079417Y0172862D02*
X0073792Y0167237D01*
X0074917Y0166112D01*
X0074917Y0162962D01*
X0075217Y0162855D01*
X0073792Y0167237D02*
X0071317Y0169712D01*
X0071217Y0169769D01*
X0071217Y0176855D02*
X0071317Y0176912D01*
X0082117Y0176912D01*
X0082217Y0176855D01*
X0082567Y0176912D01*
X0086167Y0180512D01*
X0093817Y0180512D01*
X0097867Y0176462D01*
X0099667Y0176462D01*
X0099957Y0176454D01*
X0096217Y0198855D02*
X0096517Y0198962D01*
X0106867Y0198962D01*
X0107217Y0198855D01*
X0119761Y0198312D02*
X0121267Y0198062D01*
X0121267Y0211562D01*
X0121076Y0211930D01*
X0127917Y0219212D02*
X0128556Y0218820D01*
X0127917Y0219212D02*
X0127917Y0226304D01*
X0113167Y0226862D02*
X0113167Y0222812D01*
X0111367Y0222812D01*
X0113167Y0222812D02*
X0113167Y0219212D01*
X0113595Y0218820D01*
X0113167Y0216962D02*
X0113595Y0216851D01*
X0113167Y0216962D02*
X0101017Y0216962D01*
X0099892Y0218087D01*
X0101872Y0220316D01*
X0099892Y0218087D02*
X0096967Y0221012D01*
X0096761Y0221312D01*
X0096517Y0221462D01*
X0095617Y0221462D01*
X0088867Y0228212D01*
X0087967Y0228212D01*
X0087674Y0228312D01*
X0089317Y0221462D02*
X0089674Y0221312D01*
X0089317Y0221462D02*
X0079867Y0221462D01*
X0079761Y0221312D01*
X0083917Y0214712D02*
X0074017Y0214712D01*
X0073567Y0214262D01*
X0073217Y0213855D01*
X0073117Y0213812D01*
X0063217Y0213812D01*
X0063217Y0213855D01*
X0060517Y0210662D02*
X0056017Y0215162D01*
X0056017Y0223712D01*
X0058028Y0224792D01*
X0060517Y0210662D02*
X0075817Y0210662D01*
X0076267Y0211112D01*
X0086617Y0211112D01*
X0088867Y0213362D01*
X0092017Y0213362D01*
X0092217Y0213658D01*
X0092467Y0213362D01*
X0092917Y0212912D01*
X0113167Y0212912D01*
X0113595Y0212914D01*
X0113617Y0212912D01*
X0113617Y0211112D01*
X0113595Y0210946D01*
X0128556Y0207009D02*
X0128917Y0206612D01*
X0128917Y0205262D01*
X0128556Y0205040D01*
X0129367Y0205262D01*
X0133867Y0205262D01*
X0147367Y0196262D02*
X0152317Y0196262D01*
X0153217Y0195362D01*
X0153217Y0192662D01*
X0152317Y0191762D01*
X0150067Y0191762D01*
X0149761Y0191454D01*
X0149761Y0194013D02*
X0149617Y0194012D01*
X0147817Y0194012D01*
X0141967Y0188162D01*
X0147367Y0180962D02*
X0142867Y0176462D01*
X0147367Y0180962D02*
X0149617Y0180962D01*
X0149761Y0181217D01*
X0150067Y0178712D02*
X0149761Y0178658D01*
X0150067Y0178712D02*
X0154117Y0178712D01*
X0154567Y0179162D01*
X0154117Y0175562D02*
X0155917Y0175562D01*
X0166717Y0186362D01*
X0166717Y0191312D01*
X0169417Y0194012D01*
X0171217Y0194012D01*
X0171808Y0194013D01*
X0171808Y0191454D02*
X0171667Y0191312D01*
X0169417Y0191312D01*
X0168517Y0190412D01*
X0168517Y0173312D01*
X0172117Y0185912D02*
X0171808Y0186335D01*
X0172117Y0185912D02*
X0183817Y0185912D01*
X0186067Y0183662D01*
X0189217Y0183662D01*
X0192367Y0186812D01*
X0192367Y0189512D01*
X0192717Y0189548D01*
X0166717Y0158462D02*
X0161767Y0153512D01*
X0161761Y0153312D01*
X0154674Y0153312D02*
X0154567Y0153062D01*
X0154567Y0146312D01*
X0154674Y0153312D02*
X0154567Y0153512D01*
X0152767Y0155312D01*
X0152767Y0167912D01*
X0152761Y0168312D01*
X0146917Y0168362D02*
X0154117Y0175562D01*
X0146917Y0168362D02*
X0146017Y0168362D01*
X0145674Y0168312D01*
X0113167Y0226862D02*
X0111817Y0228212D01*
X0111761Y0228312D01*
X0104674Y0228312D02*
X0104617Y0228212D01*
X0095167Y0228212D01*
X0094761Y0228312D01*
X0084217Y0214855D02*
X0083917Y0214712D01*
X0085217Y0198855D02*
X0084817Y0198512D01*
X0081667Y0195362D01*
X0075767Y0196362D01*
X0168674Y0108312D02*
X0169417Y0108062D01*
X0175717Y0101762D01*
X0176617Y0101762D01*
X0177023Y0101531D01*
X0189217Y0087812D02*
X0189217Y0083762D01*
X0188767Y0083312D01*
X0188767Y0079262D01*
X0192967Y0075062D01*
X0193717Y0074312D01*
X0196867Y0074312D01*
X0197103Y0074265D01*
X0197103Y0080170D02*
X0196867Y0080612D01*
X0192367Y0080612D01*
X0195967Y0084212D02*
X0197767Y0082412D01*
X0199117Y0082412D01*
X0199170Y0082237D01*
X0207143Y0074265D02*
X0207217Y0073862D01*
X0207217Y0072512D01*
X0208567Y0071162D01*
X0208567Y0063062D01*
X0205674Y0066312D02*
X0205417Y0066662D01*
X0205417Y0072062D01*
X0205076Y0072198D01*
X0218761Y0078312D02*
X0218917Y0078362D01*
X0223417Y0078362D01*
X0223635Y0078178D01*
X0197115Y0100892D02*
X0196648Y0100512D01*
D47*
X0187107Y0121721D03*
X0208808Y0158312D03*
X0222524Y0194808D03*
X0224493Y0226304D03*
X0162485Y0223351D03*
X0130005Y0231225D03*
X0124099Y0226304D03*
X0109650Y0203220D03*
X0120162Y0183981D03*
X0078619Y0203682D03*
X0079808Y0232209D03*
D48*
X0091217Y0195312D03*
X0087217Y0176312D03*
X0126217Y0162312D03*
X0149217Y0149312D03*
X0157217Y0144312D03*
X0163217Y0142312D03*
X0160217Y0122312D03*
X0146737Y0107209D03*
X0157217Y0098312D03*
X0148217Y0092312D03*
X0148217Y0078312D03*
X0162217Y0079312D03*
X0177217Y0092312D03*
X0186217Y0072312D03*
X0196217Y0063312D03*
X0200217Y0053312D03*
X0214217Y0053312D03*
X0221217Y0037312D03*
X0210217Y0098312D03*
X0205539Y0108633D03*
X0125217Y0114312D03*
X0124217Y0096312D03*
X0115217Y0078312D03*
X0121217Y0075312D03*
X0117217Y0071312D03*
X0108713Y0072446D03*
X0104217Y0068312D03*
X0096217Y0068312D03*
X0087447Y0068398D03*
X0082737Y0060485D03*
X0076162Y0063209D03*
X0065217Y0056312D03*
X0091217Y0032312D03*
X0081217Y0025312D03*
X0119217Y0024312D03*
X0101217Y0082312D03*
X0094217Y0090312D03*
X0101217Y0095312D03*
X0072217Y0120312D03*
X0060217Y0114312D03*
X0063217Y0107312D03*
X0062217Y0089312D03*
X0034217Y0125312D03*
X0094217Y0131312D03*
X0131217Y0222312D03*
X0184217Y0223312D03*
X0230217Y0222312D03*
D49*
X0198217Y0197162D03*
X0194617Y0221462D03*
X0154567Y0179162D03*
X0142867Y0176462D03*
X0129817Y0180962D03*
X0166717Y0158462D03*
X0182917Y0159812D03*
X0178867Y0135962D03*
X0144667Y0097712D03*
X0139267Y0093212D03*
X0128317Y0093662D03*
X0121267Y0080162D03*
X0112267Y0091862D03*
X0108667Y0095462D03*
X0106417Y0087362D03*
X0096517Y0082412D03*
X0090667Y0081962D03*
X0111967Y0050262D03*
X0108017Y0046262D03*
X0080317Y0046862D03*
X0069067Y0114812D03*
X0081217Y0125612D03*
X0077167Y0142712D03*
X0075767Y0196362D03*
X0101872Y0220316D03*
X0111367Y0222812D03*
X0133517Y0123862D03*
X0129917Y0118262D03*
X0192367Y0080612D03*
X0195967Y0084212D03*
D50*
X0195217Y0078202D02*
X0195217Y0077312D01*
X0192967Y0077312D01*
X0192967Y0075062D01*
X0193217Y0074265D02*
X0193217Y0073312D01*
X0196217Y0073312D01*
X0196217Y0063312D01*
X0200217Y0053312D02*
X0214217Y0053312D01*
X0215217Y0054312D01*
X0218217Y0054312D01*
X0217217Y0055312D01*
X0217217Y0056312D01*
X0214217Y0053312D02*
X0214217Y0044312D01*
X0221217Y0037312D02*
X0222217Y0036312D01*
X0207143Y0074265D02*
X0205265Y0074265D01*
X0204217Y0075312D01*
X0204217Y0077312D01*
X0205107Y0078202D01*
X0207143Y0078202D01*
X0207143Y0076233D02*
X0211674Y0076233D01*
X0211674Y0078312D01*
X0197103Y0078202D02*
X0195217Y0078202D01*
X0197103Y0074265D02*
X0193217Y0074265D01*
X0186217Y0072312D02*
X0186217Y0084769D01*
X0185217Y0085769D01*
X0177265Y0085249D02*
X0177217Y0085296D01*
X0177217Y0092312D01*
X0177217Y0096855D01*
X0176296Y0097776D01*
X0160217Y0101312D02*
X0157217Y0098312D01*
X0160217Y0101312D02*
X0160217Y0122312D01*
X0148217Y0118312D02*
X0139375Y0109469D01*
X0117186Y0109469D01*
X0117186Y0113406D02*
X0124312Y0113406D01*
X0125217Y0114312D01*
X0124217Y0096312D02*
X0122595Y0095690D01*
X0117186Y0095690D01*
X0117186Y0087816D02*
X0117290Y0087712D01*
X0137807Y0087712D01*
X0147207Y0078312D01*
X0148217Y0078312D01*
X0148217Y0092312D02*
X0149217Y0092312D01*
X0162217Y0079312D01*
X0193154Y0111824D02*
X0194217Y0112887D01*
X0194217Y0114312D01*
X0193619Y0114910D01*
X0184154Y0114910D01*
X0194729Y0110249D02*
X0196792Y0112312D01*
X0207217Y0112312D01*
X0210217Y0109312D01*
X0210217Y0098312D01*
X0205539Y0108633D02*
X0194770Y0108633D01*
X0194729Y0108674D01*
X0163217Y0142312D02*
X0166217Y0145312D01*
X0167217Y0145312D01*
X0170317Y0148412D01*
X0170317Y0149462D01*
X0158217Y0145312D02*
X0157217Y0144312D01*
X0158217Y0145312D02*
X0158217Y0158312D01*
X0160217Y0160312D01*
X0160217Y0165312D01*
X0160721Y0165816D01*
X0160721Y0166099D01*
X0149761Y0176099D02*
X0146973Y0173312D01*
X0145217Y0173312D01*
X0142217Y0170312D01*
X0139217Y0170312D01*
X0138217Y0169312D01*
X0138217Y0167312D01*
X0133217Y0162312D01*
X0126217Y0162312D01*
X0124359Y0164170D01*
X0119957Y0164170D01*
X0092477Y0176454D02*
X0092335Y0176312D01*
X0087217Y0176312D01*
X0091217Y0195312D02*
X0094761Y0198855D01*
X0096217Y0198855D01*
X0101217Y0202312D02*
X0087217Y0202312D01*
X0085217Y0200312D01*
X0085217Y0198855D01*
X0084217Y0214855D02*
X0086674Y0217312D01*
X0096217Y0217312D01*
X0098646Y0214883D01*
X0113595Y0214883D01*
X0113595Y0208928D02*
X0107833Y0208928D01*
X0101217Y0202312D01*
X0106217Y0204312D02*
X0106217Y0199855D01*
X0107217Y0198855D01*
X0106217Y0204312D02*
X0108914Y0207009D01*
X0113595Y0207009D01*
X0128556Y0214883D02*
X0130442Y0214883D01*
X0137217Y0221658D01*
X0131217Y0222312D02*
X0131217Y0217658D01*
X0130410Y0216851D01*
X0128556Y0216851D01*
X0167217Y0214965D02*
X0170370Y0211813D01*
X0183230Y0211813D01*
X0182217Y0212825D01*
X0182217Y0217312D01*
X0176706Y0222824D01*
X0176706Y0232328D01*
X0184217Y0223312D02*
X0188217Y0223312D01*
X0190217Y0221312D01*
X0190217Y0217780D01*
X0190265Y0217732D01*
X0190270Y0209863D02*
X0190270Y0206908D01*
X0183674Y0200312D01*
X0181117Y0202562D02*
X0177209Y0206470D01*
X0177209Y0209860D01*
X0177220Y0211834D02*
X0170349Y0211834D01*
X0167217Y0214965D01*
X0167217Y0221658D02*
X0173284Y0221658D01*
X0177204Y0217738D01*
X0177204Y0215766D01*
X0177204Y0213813D01*
X0177220Y0213797D01*
X0230217Y0222312D02*
X0228217Y0231312D01*
X0149217Y0150312D02*
X0149217Y0149312D01*
X0094548Y0130981D02*
X0094548Y0120296D01*
X0094548Y0130981D02*
X0094217Y0131312D01*
X0072217Y0120312D02*
X0062367Y0120312D01*
X0039296Y0143383D01*
X0034217Y0125312D02*
X0047217Y0125312D01*
X0055076Y0117454D01*
X0055076Y0115398D01*
X0059131Y0115398D01*
X0060217Y0114312D01*
X0063217Y0107312D02*
X0065069Y0105460D01*
X0073807Y0105460D01*
X0073879Y0105532D01*
X0064997Y0105532D01*
X0063217Y0107312D01*
X0073225Y0098312D02*
X0052139Y0098312D01*
X0046091Y0104359D01*
X0062217Y0089312D02*
X0062217Y0088312D01*
X0073225Y0098312D02*
X0073879Y0097658D01*
X0087217Y0085312D02*
X0084217Y0082312D01*
X0084706Y0081824D01*
X0084706Y0076989D01*
X0086674Y0076989D02*
X0086674Y0072769D01*
X0085217Y0070312D01*
X0084476Y0069761D01*
X0084617Y0066412D01*
X0087447Y0068398D02*
X0088873Y0069823D01*
X0088643Y0076989D01*
X0094548Y0076989D02*
X0094548Y0069981D01*
X0096217Y0068312D01*
X0102422Y0070107D02*
X0102422Y0076989D01*
X0104217Y0076816D02*
X0104217Y0073312D01*
X0107217Y0069312D01*
X0110217Y0069312D01*
X0115217Y0075312D01*
X0121217Y0075312D01*
X0117217Y0071312D02*
X0119217Y0069312D01*
X0114217Y0077312D02*
X0111217Y0077312D01*
X0110894Y0076989D01*
X0110296Y0076989D01*
X0108217Y0076562D02*
X0108163Y0073789D01*
X0108713Y0072446D01*
X0104217Y0068312D02*
X0102422Y0070107D01*
X0104217Y0076816D02*
X0104391Y0076989D01*
X0098485Y0076989D02*
X0098485Y0079580D01*
X0101217Y0082312D01*
X0103217Y0085312D02*
X0104217Y0084312D01*
X0111217Y0084312D01*
X0112817Y0085912D01*
X0115217Y0078312D02*
X0114217Y0077312D01*
X0103217Y0085312D02*
X0087217Y0085312D01*
X0094217Y0090312D02*
X0096217Y0090312D01*
X0101217Y0095312D01*
X0065217Y0056312D02*
X0065217Y0051312D01*
X0069217Y0047312D01*
X0070217Y0047312D01*
X0091217Y0032312D02*
X0091217Y0031312D01*
X0096217Y0026312D01*
X0117217Y0026312D01*
X0119217Y0024312D01*
D51*
X0039217Y0023312D03*
X0039217Y0225812D03*
X0241717Y0225812D03*
X0241717Y0023312D03*
D52*
X0191603Y0058446D03*
X0177265Y0084335D03*
X0199902Y0103020D03*
X0223635Y0078178D03*
X0163485Y0111894D03*
X0203855Y0146375D03*
X0176170Y0196808D03*
X0162485Y0212524D03*
X0171343Y0231225D03*
X0194526Y0213898D03*
X0209729Y0212524D03*
X0207761Y0227288D03*
X0236304Y0207603D03*
X0146737Y0229257D03*
X0126068Y0197761D03*
X0133942Y0195792D03*
X0104336Y0209728D03*
X0067776Y0225288D03*
X0044902Y0205635D03*
X0066713Y0191855D03*
X0113272Y0135753D03*
X0055202Y0103272D03*
D53*
X0058028Y0224792D03*
D54*
X0210713Y0221383D03*
D55*
X0191017Y0200312D02*
X0190761Y0200312D01*
X0191017Y0200312D02*
X0196192Y0195137D01*
X0198217Y0197162D01*
X0196192Y0195137D02*
X0197317Y0194012D01*
X0197317Y0189962D01*
X0197717Y0189548D01*
X0183674Y0200312D02*
X0183367Y0200312D01*
X0181117Y0202562D01*
X0167617Y0202562D01*
X0167217Y0202965D01*
X0182761Y0166312D02*
X0182917Y0166112D01*
X0182917Y0159812D01*
X0120162Y0183981D02*
X0116005Y0183981D01*
X0114217Y0185769D01*
X0067359Y0185769D01*
X0052186Y0189595D01*
X0039186Y0189595D01*
X0112674Y0194398D02*
X0112674Y0198312D01*
X0112674Y0194398D02*
X0114217Y0192855D01*
M02*
