G75*
%MOIN*%
%OFA0B0*%
%FSLAX25Y25*%
%IPPOS*%
%LPD*%
%AMOC8*
5,1,8,0,0,1.08239X$1,22.5*
%
%ADD10R,0.02913X0.09449*%
%ADD11C,0.09000*%
%ADD12R,0.02362X0.08661*%
%ADD13R,0.07087X0.10236*%
%ADD14R,0.04724X0.03150*%
%ADD15R,0.05984X0.12598*%
%ADD16R,0.03150X0.03150*%
%ADD17R,0.04331X0.07874*%
%ADD18R,0.07874X0.04331*%
%ADD19C,0.01600*%
%ADD20C,0.02978*%
%ADD21C,0.00600*%
%ADD22C,0.01181*%
%ADD23C,0.00984*%
D10*
X0085698Y0143611D03*
X0090698Y0143611D03*
X0095698Y0143611D03*
X0100698Y0143611D03*
X0105698Y0143611D03*
X0105698Y0158965D03*
X0100698Y0158965D03*
X0095698Y0158965D03*
X0090698Y0158965D03*
X0085698Y0158965D03*
D11*
X0060540Y0167950D03*
X0045973Y0167942D03*
X0028572Y0151792D03*
X0028572Y0134099D03*
X0028965Y0115068D03*
X0028965Y0098784D03*
X0030099Y0079461D03*
X0029706Y0066611D03*
X0127099Y0168194D03*
X0142328Y0167997D03*
X0160461Y0144367D03*
X0160461Y0131217D03*
X0160422Y0103603D03*
X0160587Y0085280D03*
D12*
X0124060Y0044068D03*
X0120123Y0044068D03*
X0116186Y0044068D03*
X0112249Y0044068D03*
X0108312Y0044068D03*
X0104375Y0044068D03*
X0100438Y0044068D03*
X0096501Y0044068D03*
X0092564Y0044068D03*
X0088627Y0044068D03*
X0084690Y0044068D03*
X0080753Y0044068D03*
X0076816Y0044068D03*
X0072879Y0044068D03*
X0068942Y0044068D03*
X0065005Y0044068D03*
D13*
X0054769Y0034619D03*
X0134296Y0034619D03*
D14*
X0075965Y0077446D03*
X0075965Y0084532D03*
X0075887Y0092926D03*
X0075887Y0100013D03*
D15*
X0140422Y0058414D03*
X0161682Y0058414D03*
D16*
X0127824Y0057627D03*
X0119556Y0072194D03*
X0113257Y0057627D03*
X0103414Y0071800D03*
X0097509Y0057627D03*
X0089241Y0071800D03*
X0083335Y0056052D03*
D17*
X0097509Y0065107D03*
X0103414Y0079280D03*
X0113257Y0065107D03*
X0119556Y0079674D03*
X0127824Y0065107D03*
X0089241Y0079280D03*
D18*
X0075855Y0056052D03*
D19*
X0075572Y0056335D02*
X0075572Y0055769D01*
X0070118Y0055769D01*
X0070118Y0053650D01*
X0070241Y0053192D01*
X0070478Y0052781D01*
X0070813Y0052446D01*
X0071223Y0052209D01*
X0071681Y0052087D01*
X0075572Y0052087D01*
X0075572Y0055769D01*
X0076138Y0055769D01*
X0076138Y0052087D01*
X0080029Y0052087D01*
X0080487Y0052209D01*
X0080530Y0052234D01*
X0081829Y0050934D01*
X0081829Y0050198D01*
X0080753Y0050198D01*
X0080753Y0044068D01*
X0080753Y0044068D01*
X0080753Y0050198D01*
X0079335Y0050198D01*
X0078877Y0050076D01*
X0078784Y0050022D01*
X0078692Y0050076D01*
X0078234Y0050198D01*
X0076816Y0050198D01*
X0076816Y0044068D01*
X0076816Y0044068D01*
X0080753Y0044068D01*
X0080753Y0044068D01*
X0080753Y0037937D01*
X0082171Y0037937D01*
X0082629Y0038060D01*
X0082796Y0038156D01*
X0082942Y0038010D01*
X0094752Y0038010D01*
X0094879Y0038137D01*
X0098345Y0038137D01*
X0098469Y0038262D01*
X0098594Y0038137D01*
X0102282Y0038137D01*
X0102406Y0038262D01*
X0102531Y0038137D01*
X0106219Y0038137D01*
X0106343Y0038262D01*
X0106468Y0038137D01*
X0110156Y0038137D01*
X0110280Y0038262D01*
X0110405Y0038137D01*
X0114093Y0038137D01*
X0114217Y0038262D01*
X0114342Y0038137D01*
X0117461Y0038137D01*
X0117981Y0037617D01*
X0128953Y0037617D01*
X0128953Y0035419D01*
X0133496Y0035419D01*
X0133496Y0033819D01*
X0128953Y0033819D01*
X0128953Y0029264D01*
X0129075Y0028806D01*
X0129312Y0028396D01*
X0129648Y0028060D01*
X0130058Y0027823D01*
X0130516Y0027701D01*
X0133496Y0027701D01*
X0133496Y0033819D01*
X0135096Y0033819D01*
X0135096Y0035419D01*
X0139639Y0035419D01*
X0139639Y0039974D01*
X0139517Y0040432D01*
X0139280Y0040842D01*
X0138945Y0041177D01*
X0138534Y0041414D01*
X0138076Y0041537D01*
X0137243Y0041537D01*
X0148376Y0047459D01*
X0148689Y0047459D01*
X0149045Y0047815D01*
X0149489Y0048051D01*
X0149581Y0048351D01*
X0149802Y0048572D01*
X0149802Y0049075D01*
X0149949Y0049556D01*
X0149802Y0049833D01*
X0149802Y0061534D01*
X0169480Y0080176D01*
X0169480Y0039437D01*
X0166254Y0040773D01*
X0162622Y0040773D01*
X0159266Y0039383D01*
X0156697Y0036815D01*
X0155307Y0033459D01*
X0155307Y0029826D01*
X0156643Y0026600D01*
X0034437Y0026600D01*
X0035773Y0029826D01*
X0035773Y0033459D01*
X0034383Y0036815D01*
X0031815Y0039383D01*
X0028459Y0040773D01*
X0024826Y0040773D01*
X0021600Y0039437D01*
X0021600Y0057695D01*
X0070118Y0057695D01*
X0070118Y0056335D01*
X0075572Y0056335D01*
X0075572Y0055369D02*
X0076138Y0055369D01*
X0076138Y0053770D02*
X0075572Y0053770D01*
X0075572Y0052172D02*
X0076138Y0052172D01*
X0076816Y0050198D02*
X0075398Y0050198D01*
X0074940Y0050076D01*
X0074847Y0050022D01*
X0074755Y0050076D01*
X0074297Y0050198D01*
X0072879Y0050198D01*
X0072879Y0044068D01*
X0072879Y0044068D01*
X0076816Y0044068D01*
X0076816Y0044068D01*
X0076816Y0050198D01*
X0076816Y0048975D02*
X0076816Y0048975D01*
X0076816Y0047376D02*
X0076816Y0047376D01*
X0076816Y0045778D02*
X0076816Y0045778D01*
X0076816Y0044179D02*
X0076816Y0044179D01*
X0076816Y0044068D02*
X0076816Y0044068D01*
X0077772Y0044068D01*
X0080753Y0044068D01*
X0080753Y0044068D01*
X0080753Y0037937D01*
X0079335Y0037937D01*
X0078877Y0038060D01*
X0078784Y0038113D01*
X0078692Y0038060D01*
X0078234Y0037937D01*
X0076816Y0037937D01*
X0076816Y0044068D01*
X0076816Y0044068D01*
X0076816Y0037937D01*
X0075398Y0037937D01*
X0074940Y0038060D01*
X0074847Y0038113D01*
X0074755Y0038060D01*
X0074297Y0037937D01*
X0072879Y0037937D01*
X0072879Y0044068D01*
X0072879Y0044068D01*
X0072879Y0050198D01*
X0071461Y0050198D01*
X0071003Y0050076D01*
X0070910Y0050022D01*
X0070818Y0050076D01*
X0070360Y0050198D01*
X0068942Y0050198D01*
X0068942Y0044068D01*
X0072879Y0044068D01*
X0073835Y0044068D01*
X0076816Y0044068D01*
X0076816Y0042581D02*
X0076816Y0042581D01*
X0076816Y0040982D02*
X0076816Y0040982D01*
X0076816Y0039384D02*
X0076816Y0039384D01*
X0080753Y0039384D02*
X0080753Y0039384D01*
X0080753Y0040982D02*
X0080753Y0040982D01*
X0080753Y0042581D02*
X0080753Y0042581D01*
X0080753Y0044179D02*
X0080753Y0044179D01*
X0080753Y0045778D02*
X0080753Y0045778D01*
X0080753Y0047376D02*
X0080753Y0047376D01*
X0080753Y0048975D02*
X0080753Y0048975D01*
X0081829Y0050573D02*
X0021600Y0050573D01*
X0021600Y0048975D02*
X0062115Y0048975D01*
X0062146Y0049093D02*
X0062024Y0048635D01*
X0062024Y0044068D01*
X0065005Y0044068D01*
X0065005Y0044068D01*
X0065005Y0050198D01*
X0066423Y0050198D01*
X0066881Y0050076D01*
X0066973Y0050022D01*
X0067066Y0050076D01*
X0067524Y0050198D01*
X0068942Y0050198D01*
X0068942Y0044068D01*
X0068942Y0044068D01*
X0068942Y0044068D01*
X0069898Y0044068D01*
X0072879Y0044068D01*
X0072879Y0044068D01*
X0072879Y0044068D01*
X0072879Y0037937D01*
X0071461Y0037937D01*
X0071003Y0038060D01*
X0070910Y0038113D01*
X0070818Y0038060D01*
X0070360Y0037937D01*
X0068942Y0037937D01*
X0068942Y0044068D01*
X0068942Y0044068D01*
X0068942Y0044068D01*
X0065005Y0044068D01*
X0065005Y0044068D01*
X0065005Y0050198D01*
X0063587Y0050198D01*
X0063129Y0050076D01*
X0062718Y0049839D01*
X0062383Y0049504D01*
X0062146Y0049093D01*
X0062024Y0047376D02*
X0021600Y0047376D01*
X0021600Y0045778D02*
X0062024Y0045778D01*
X0062024Y0044179D02*
X0021600Y0044179D01*
X0021600Y0042581D02*
X0062024Y0042581D01*
X0062024Y0044068D02*
X0062024Y0039500D01*
X0062146Y0039042D01*
X0062383Y0038632D01*
X0062718Y0038297D01*
X0063129Y0038060D01*
X0063587Y0037937D01*
X0065005Y0037937D01*
X0066423Y0037937D01*
X0066881Y0038060D01*
X0066973Y0038113D01*
X0067066Y0038060D01*
X0067524Y0037937D01*
X0068942Y0037937D01*
X0068942Y0044068D01*
X0065961Y0044068D01*
X0065005Y0044068D01*
X0065005Y0037937D01*
X0065005Y0044068D01*
X0065005Y0044068D01*
X0065005Y0044068D01*
X0062024Y0044068D01*
X0065005Y0044179D02*
X0065005Y0044179D01*
X0065005Y0042581D02*
X0065005Y0042581D01*
X0065005Y0040982D02*
X0065005Y0040982D01*
X0065005Y0039384D02*
X0065005Y0039384D01*
X0062055Y0039384D02*
X0060112Y0039384D01*
X0060112Y0039974D02*
X0060112Y0035419D01*
X0055569Y0035419D01*
X0055569Y0033819D01*
X0060112Y0033819D01*
X0060112Y0029264D01*
X0059989Y0028806D01*
X0059752Y0028396D01*
X0059417Y0028060D01*
X0059007Y0027823D01*
X0058549Y0027701D01*
X0055568Y0027701D01*
X0055568Y0033819D01*
X0053969Y0033819D01*
X0053969Y0027701D01*
X0050988Y0027701D01*
X0050530Y0027823D01*
X0050120Y0028060D01*
X0049785Y0028396D01*
X0049548Y0028806D01*
X0049425Y0029264D01*
X0049425Y0033819D01*
X0053968Y0033819D01*
X0053968Y0035419D01*
X0049425Y0035419D01*
X0049425Y0039974D01*
X0049548Y0040432D01*
X0049785Y0040842D01*
X0050120Y0041177D01*
X0050530Y0041414D01*
X0050988Y0041537D01*
X0053969Y0041537D01*
X0053969Y0035419D01*
X0055568Y0035419D01*
X0055568Y0041537D01*
X0058549Y0041537D01*
X0059007Y0041414D01*
X0059417Y0041177D01*
X0059752Y0040842D01*
X0059989Y0040432D01*
X0060112Y0039974D01*
X0059612Y0040982D02*
X0062024Y0040982D01*
X0060112Y0037785D02*
X0117813Y0037785D01*
X0106392Y0051892D02*
X0106392Y0053022D01*
X0105605Y0053810D01*
X0105605Y0068625D01*
X0105652Y0068625D01*
X0106589Y0069562D01*
X0106589Y0071762D01*
X0107063Y0071762D01*
X0107877Y0072577D01*
X0109161Y0073860D01*
X0109161Y0093167D01*
X0104030Y0098298D01*
X0076924Y0125404D01*
X0078044Y0125404D01*
X0079180Y0125874D01*
X0080049Y0126743D01*
X0080519Y0127878D01*
X0080519Y0128484D01*
X0087888Y0135853D01*
X0087888Y0137358D01*
X0088056Y0137526D01*
X0088136Y0137446D01*
X0088546Y0137209D01*
X0089004Y0137087D01*
X0090698Y0137087D01*
X0092391Y0137087D01*
X0092849Y0137209D01*
X0093198Y0137411D01*
X0093546Y0137209D01*
X0094004Y0137087D01*
X0095698Y0137087D01*
X0097391Y0137087D01*
X0097849Y0137209D01*
X0098260Y0137446D01*
X0098339Y0137526D01*
X0098578Y0137287D01*
X0102817Y0137287D01*
X0103198Y0137667D01*
X0103578Y0137287D01*
X0107817Y0137287D01*
X0108754Y0138224D01*
X0108754Y0146059D01*
X0111460Y0143337D01*
X0111460Y0143334D01*
X0112098Y0142696D01*
X0112737Y0142053D01*
X0112740Y0142053D01*
X0113552Y0141241D01*
X0113552Y0070844D01*
X0113539Y0070844D01*
X0113539Y0065390D01*
X0112974Y0065390D01*
X0112974Y0070844D01*
X0110854Y0070844D01*
X0110397Y0070721D01*
X0109986Y0070484D01*
X0109651Y0070149D01*
X0109414Y0069739D01*
X0109291Y0069281D01*
X0109291Y0065390D01*
X0112974Y0065390D01*
X0112974Y0064824D01*
X0109291Y0064824D01*
X0109291Y0060933D01*
X0109414Y0060475D01*
X0109651Y0060065D01*
X0109986Y0059730D01*
X0110082Y0059674D01*
X0110082Y0055581D01*
X0106392Y0051892D01*
X0106392Y0052172D02*
X0106672Y0052172D01*
X0105644Y0053770D02*
X0108271Y0053770D01*
X0109869Y0055369D02*
X0105605Y0055369D01*
X0105605Y0056967D02*
X0110082Y0056967D01*
X0110082Y0058566D02*
X0105605Y0058566D01*
X0105605Y0060164D02*
X0109594Y0060164D01*
X0109291Y0061763D02*
X0105605Y0061763D01*
X0105605Y0063361D02*
X0109291Y0063361D01*
X0109291Y0066558D02*
X0105605Y0066558D01*
X0105605Y0064960D02*
X0112974Y0064960D01*
X0112974Y0066558D02*
X0113539Y0066558D01*
X0113539Y0068157D02*
X0112974Y0068157D01*
X0112974Y0069755D02*
X0113539Y0069755D01*
X0113552Y0071354D02*
X0106589Y0071354D01*
X0106589Y0069755D02*
X0109424Y0069755D01*
X0109291Y0068157D02*
X0105605Y0068157D01*
X0108253Y0072952D02*
X0113552Y0072952D01*
X0113552Y0074551D02*
X0109161Y0074551D01*
X0109161Y0076149D02*
X0113552Y0076149D01*
X0113552Y0077748D02*
X0109161Y0077748D01*
X0109161Y0079346D02*
X0113552Y0079346D01*
X0113552Y0080945D02*
X0109161Y0080945D01*
X0109161Y0082543D02*
X0113552Y0082543D01*
X0113552Y0084142D02*
X0109161Y0084142D01*
X0109161Y0085740D02*
X0113552Y0085740D01*
X0113552Y0087339D02*
X0109161Y0087339D01*
X0109161Y0088937D02*
X0113552Y0088937D01*
X0113552Y0090536D02*
X0109161Y0090536D01*
X0109161Y0092134D02*
X0113552Y0092134D01*
X0113552Y0093733D02*
X0108595Y0093733D01*
X0106996Y0095332D02*
X0113552Y0095332D01*
X0113552Y0096930D02*
X0105398Y0096930D01*
X0103799Y0098529D02*
X0113552Y0098529D01*
X0113552Y0100127D02*
X0102201Y0100127D01*
X0100602Y0101726D02*
X0113552Y0101726D01*
X0113552Y0103324D02*
X0099004Y0103324D01*
X0097405Y0104923D02*
X0113552Y0104923D01*
X0113552Y0106521D02*
X0095807Y0106521D01*
X0094208Y0108120D02*
X0113552Y0108120D01*
X0113552Y0109718D02*
X0092610Y0109718D01*
X0091011Y0111317D02*
X0113552Y0111317D01*
X0113552Y0112915D02*
X0089413Y0112915D01*
X0087814Y0114514D02*
X0113552Y0114514D01*
X0113552Y0116112D02*
X0086216Y0116112D01*
X0084617Y0117711D02*
X0113552Y0117711D01*
X0113552Y0119309D02*
X0083019Y0119309D01*
X0081420Y0120908D02*
X0113552Y0120908D01*
X0113552Y0122506D02*
X0079822Y0122506D01*
X0078223Y0124105D02*
X0113552Y0124105D01*
X0113552Y0125703D02*
X0078767Y0125703D01*
X0080280Y0127302D02*
X0113552Y0127302D01*
X0113552Y0128900D02*
X0080935Y0128900D01*
X0082534Y0130499D02*
X0113552Y0130499D01*
X0113552Y0132097D02*
X0084132Y0132097D01*
X0085731Y0133696D02*
X0113552Y0133696D01*
X0113552Y0135294D02*
X0087329Y0135294D01*
X0087888Y0136893D02*
X0113552Y0136893D01*
X0113552Y0138491D02*
X0108754Y0138491D01*
X0108754Y0140090D02*
X0113552Y0140090D01*
X0113105Y0141688D02*
X0108754Y0141688D01*
X0108754Y0143287D02*
X0111507Y0143287D01*
X0109921Y0144885D02*
X0108754Y0144885D01*
X0111497Y0149514D02*
X0111496Y0149555D01*
X0110861Y0150153D01*
X0110246Y0150772D01*
X0110205Y0150772D01*
X0109678Y0151270D01*
X0108062Y0152886D01*
X0108754Y0153578D01*
X0108754Y0164352D01*
X0107817Y0165290D01*
X0107573Y0165290D01*
X0107573Y0172314D01*
X0105605Y0174282D01*
X0105407Y0174480D01*
X0156643Y0174480D01*
X0155307Y0171254D01*
X0155307Y0167622D01*
X0156697Y0164266D01*
X0159266Y0161697D01*
X0162622Y0160307D01*
X0166254Y0160307D01*
X0169480Y0161643D01*
X0169480Y0110655D01*
X0167163Y0111920D01*
X0166800Y0112283D01*
X0166497Y0112283D01*
X0166232Y0112428D01*
X0165739Y0112283D01*
X0156958Y0112283D01*
X0155845Y0111170D01*
X0150727Y0106052D01*
X0150727Y0083966D01*
X0134744Y0066842D01*
X0134216Y0066345D01*
X0134214Y0066274D01*
X0134165Y0066222D01*
X0134190Y0065497D01*
X0133835Y0053760D01*
X0131751Y0052834D01*
X0128491Y0052834D01*
X0130014Y0054357D01*
X0130014Y0054452D01*
X0130061Y0054452D01*
X0130998Y0055389D01*
X0130998Y0059674D01*
X0131094Y0059730D01*
X0131429Y0060065D01*
X0131666Y0060475D01*
X0131789Y0060933D01*
X0131789Y0064824D01*
X0128106Y0064824D01*
X0128106Y0065390D01*
X0127541Y0065390D01*
X0127541Y0070844D01*
X0126621Y0070844D01*
X0130014Y0074237D01*
X0130014Y0088215D01*
X0161369Y0119570D01*
X0162652Y0120853D01*
X0162652Y0125522D01*
X0163917Y0126046D01*
X0165633Y0127762D01*
X0166561Y0130004D01*
X0166561Y0132431D01*
X0165633Y0134673D01*
X0163917Y0136389D01*
X0161675Y0137317D01*
X0160148Y0137317D01*
X0161097Y0138267D01*
X0161675Y0138267D01*
X0163917Y0139196D01*
X0165633Y0140912D01*
X0166561Y0143154D01*
X0166561Y0145580D01*
X0165633Y0147822D01*
X0163917Y0149538D01*
X0161675Y0150467D01*
X0159248Y0150467D01*
X0157006Y0149538D01*
X0155290Y0147822D01*
X0154361Y0145580D01*
X0154361Y0143154D01*
X0155290Y0140912D01*
X0156418Y0139784D01*
X0151987Y0135352D01*
X0151987Y0122289D01*
X0120921Y0091224D01*
X0120921Y0089409D01*
X0120921Y0085411D01*
X0119839Y0085411D01*
X0119839Y0079957D01*
X0119273Y0079957D01*
X0119273Y0085411D01*
X0117933Y0085411D01*
X0117933Y0143056D01*
X0116650Y0144339D01*
X0115203Y0145786D01*
X0111497Y0149514D01*
X0111362Y0149681D02*
X0157350Y0149681D01*
X0155550Y0148082D02*
X0112920Y0148082D01*
X0114509Y0146484D02*
X0154736Y0146484D01*
X0154361Y0144885D02*
X0116104Y0144885D01*
X0116650Y0144339D02*
X0116650Y0144339D01*
X0117702Y0143287D02*
X0154361Y0143287D01*
X0154968Y0141688D02*
X0117933Y0141688D01*
X0117933Y0140090D02*
X0156112Y0140090D01*
X0155126Y0138491D02*
X0117933Y0138491D01*
X0117933Y0136893D02*
X0153527Y0136893D01*
X0151987Y0135294D02*
X0117933Y0135294D01*
X0117933Y0133696D02*
X0151987Y0133696D01*
X0151987Y0132097D02*
X0117933Y0132097D01*
X0117933Y0130499D02*
X0151987Y0130499D01*
X0151987Y0128900D02*
X0117933Y0128900D01*
X0117933Y0127302D02*
X0151987Y0127302D01*
X0151987Y0125703D02*
X0117933Y0125703D01*
X0117933Y0124105D02*
X0151987Y0124105D01*
X0151987Y0122506D02*
X0117933Y0122506D01*
X0117933Y0120908D02*
X0150605Y0120908D01*
X0149007Y0119309D02*
X0117933Y0119309D01*
X0117933Y0117711D02*
X0147408Y0117711D01*
X0145810Y0116112D02*
X0117933Y0116112D01*
X0117933Y0114514D02*
X0144211Y0114514D01*
X0142613Y0112915D02*
X0117933Y0112915D01*
X0117933Y0111317D02*
X0141014Y0111317D01*
X0139416Y0109718D02*
X0117933Y0109718D01*
X0117933Y0108120D02*
X0137817Y0108120D01*
X0136218Y0106521D02*
X0117933Y0106521D01*
X0117933Y0104923D02*
X0134620Y0104923D01*
X0133021Y0103324D02*
X0117933Y0103324D01*
X0117933Y0101726D02*
X0131423Y0101726D01*
X0129824Y0100127D02*
X0117933Y0100127D01*
X0117933Y0098529D02*
X0128226Y0098529D01*
X0126627Y0096930D02*
X0117933Y0096930D01*
X0117933Y0095332D02*
X0125029Y0095332D01*
X0123430Y0093733D02*
X0117933Y0093733D01*
X0117933Y0092134D02*
X0121832Y0092134D01*
X0120921Y0090536D02*
X0117933Y0090536D01*
X0117933Y0088937D02*
X0120921Y0088937D01*
X0120921Y0087339D02*
X0117933Y0087339D01*
X0117933Y0085740D02*
X0120921Y0085740D01*
X0119839Y0084142D02*
X0119273Y0084142D01*
X0119273Y0082543D02*
X0119839Y0082543D01*
X0119839Y0080945D02*
X0119273Y0080945D01*
X0128729Y0072952D02*
X0140447Y0072952D01*
X0138955Y0071354D02*
X0127131Y0071354D01*
X0128106Y0070844D02*
X0128106Y0065390D01*
X0131789Y0065390D01*
X0131789Y0069281D01*
X0131666Y0069739D01*
X0131429Y0070149D01*
X0131094Y0070484D01*
X0130684Y0070721D01*
X0130226Y0070844D01*
X0128106Y0070844D01*
X0128106Y0069755D02*
X0127541Y0069755D01*
X0127541Y0068157D02*
X0128106Y0068157D01*
X0128106Y0066558D02*
X0127541Y0066558D01*
X0128106Y0064960D02*
X0134174Y0064960D01*
X0134126Y0063361D02*
X0131789Y0063361D01*
X0131789Y0061763D02*
X0134077Y0061763D01*
X0134029Y0060164D02*
X0131487Y0060164D01*
X0130998Y0058566D02*
X0133980Y0058566D01*
X0133932Y0056967D02*
X0130998Y0056967D01*
X0130978Y0055369D02*
X0133883Y0055369D01*
X0133835Y0053770D02*
X0129427Y0053770D01*
X0131789Y0066558D02*
X0134443Y0066558D01*
X0135971Y0068157D02*
X0131789Y0068157D01*
X0131657Y0069755D02*
X0137463Y0069755D01*
X0141939Y0074551D02*
X0130014Y0074551D01*
X0130014Y0076149D02*
X0143431Y0076149D01*
X0144923Y0077748D02*
X0130014Y0077748D01*
X0130014Y0079346D02*
X0146415Y0079346D01*
X0147907Y0080945D02*
X0130014Y0080945D01*
X0130014Y0082543D02*
X0149399Y0082543D01*
X0150727Y0084142D02*
X0130014Y0084142D01*
X0130014Y0085740D02*
X0150727Y0085740D01*
X0150727Y0087339D02*
X0130014Y0087339D01*
X0130736Y0088937D02*
X0150727Y0088937D01*
X0150727Y0090536D02*
X0132335Y0090536D01*
X0133933Y0092134D02*
X0150727Y0092134D01*
X0150727Y0093733D02*
X0135532Y0093733D01*
X0137130Y0095332D02*
X0150727Y0095332D01*
X0150727Y0096930D02*
X0138729Y0096930D01*
X0140327Y0098529D02*
X0150727Y0098529D01*
X0150727Y0100127D02*
X0141926Y0100127D01*
X0143524Y0101726D02*
X0150727Y0101726D01*
X0150727Y0103324D02*
X0145123Y0103324D01*
X0146721Y0104923D02*
X0150727Y0104923D01*
X0151196Y0106521D02*
X0148320Y0106521D01*
X0149918Y0108120D02*
X0152795Y0108120D01*
X0151517Y0109718D02*
X0154393Y0109718D01*
X0153115Y0111317D02*
X0155992Y0111317D01*
X0154714Y0112915D02*
X0169480Y0112915D01*
X0169480Y0111317D02*
X0168268Y0111317D01*
X0169480Y0114514D02*
X0156312Y0114514D01*
X0157911Y0116112D02*
X0169480Y0116112D01*
X0169480Y0117711D02*
X0159509Y0117711D01*
X0161108Y0119309D02*
X0169480Y0119309D01*
X0169480Y0120908D02*
X0162652Y0120908D01*
X0162652Y0122506D02*
X0169480Y0122506D01*
X0169480Y0124105D02*
X0162652Y0124105D01*
X0163089Y0125703D02*
X0169480Y0125703D01*
X0169480Y0127302D02*
X0165173Y0127302D01*
X0166104Y0128900D02*
X0169480Y0128900D01*
X0169480Y0130499D02*
X0166561Y0130499D01*
X0166561Y0132097D02*
X0169480Y0132097D01*
X0169480Y0133696D02*
X0166037Y0133696D01*
X0165011Y0135294D02*
X0169480Y0135294D01*
X0169480Y0136893D02*
X0162700Y0136893D01*
X0162217Y0138491D02*
X0169480Y0138491D01*
X0169480Y0140090D02*
X0164811Y0140090D01*
X0165954Y0141688D02*
X0169480Y0141688D01*
X0169480Y0143287D02*
X0166561Y0143287D01*
X0166561Y0144885D02*
X0169480Y0144885D01*
X0169480Y0146484D02*
X0166187Y0146484D01*
X0165373Y0148082D02*
X0169480Y0148082D01*
X0169480Y0149681D02*
X0163572Y0149681D01*
X0169480Y0151279D02*
X0109668Y0151279D01*
X0108070Y0152878D02*
X0169480Y0152878D01*
X0169480Y0154476D02*
X0108754Y0154476D01*
X0108754Y0156075D02*
X0169480Y0156075D01*
X0169480Y0157673D02*
X0108754Y0157673D01*
X0108754Y0159272D02*
X0169480Y0159272D01*
X0169480Y0160870D02*
X0167614Y0160870D01*
X0161261Y0160870D02*
X0108754Y0160870D01*
X0108754Y0162469D02*
X0124458Y0162469D01*
X0124681Y0162355D02*
X0125624Y0162049D01*
X0126399Y0161926D01*
X0126399Y0167494D01*
X0120832Y0167494D01*
X0120954Y0166718D01*
X0121261Y0165775D01*
X0121711Y0164892D01*
X0122294Y0164090D01*
X0122995Y0163388D01*
X0123797Y0162805D01*
X0124681Y0162355D01*
X0126399Y0162469D02*
X0127799Y0162469D01*
X0127799Y0161926D02*
X0128574Y0162049D01*
X0129518Y0162355D01*
X0130401Y0162805D01*
X0131203Y0163388D01*
X0131905Y0164090D01*
X0132487Y0164892D01*
X0132938Y0165775D01*
X0133244Y0166718D01*
X0133367Y0167494D01*
X0127799Y0167494D01*
X0127799Y0168894D01*
X0126399Y0168894D01*
X0126399Y0174461D01*
X0125624Y0174339D01*
X0124681Y0174032D01*
X0123797Y0173582D01*
X0122995Y0172999D01*
X0122294Y0172298D01*
X0121711Y0171496D01*
X0121261Y0170612D01*
X0120954Y0169669D01*
X0120832Y0168894D01*
X0126399Y0168894D01*
X0126399Y0167494D01*
X0127799Y0167494D01*
X0127799Y0161926D01*
X0129741Y0162469D02*
X0139300Y0162469D01*
X0139026Y0162609D02*
X0139909Y0162158D01*
X0140852Y0161852D01*
X0141628Y0161729D01*
X0141628Y0167297D01*
X0143028Y0167297D01*
X0143028Y0168697D01*
X0148595Y0168697D01*
X0148472Y0169472D01*
X0148166Y0170415D01*
X0147716Y0171299D01*
X0147133Y0172101D01*
X0146432Y0172802D01*
X0145629Y0173385D01*
X0144746Y0173835D01*
X0143803Y0174142D01*
X0143028Y0174264D01*
X0143028Y0168697D01*
X0141628Y0168697D01*
X0141628Y0174264D01*
X0140852Y0174142D01*
X0139909Y0173835D01*
X0139026Y0173385D01*
X0138223Y0172802D01*
X0137522Y0172101D01*
X0136939Y0171299D01*
X0136489Y0170415D01*
X0136183Y0169472D01*
X0136060Y0168697D01*
X0141627Y0168697D01*
X0141627Y0167297D01*
X0136060Y0167297D01*
X0136183Y0166522D01*
X0136489Y0165578D01*
X0136939Y0164695D01*
X0137522Y0163893D01*
X0138223Y0163191D01*
X0139026Y0162609D01*
X0137395Y0164068D02*
X0131883Y0164068D01*
X0132882Y0165666D02*
X0136461Y0165666D01*
X0136065Y0167265D02*
X0133331Y0167265D01*
X0133367Y0168894D02*
X0133244Y0169669D01*
X0132938Y0170612D01*
X0132487Y0171496D01*
X0131905Y0172298D01*
X0131203Y0172999D01*
X0130401Y0173582D01*
X0129518Y0174032D01*
X0128574Y0174339D01*
X0127799Y0174461D01*
X0127799Y0168894D01*
X0133367Y0168894D01*
X0132987Y0170462D02*
X0136513Y0170462D01*
X0136086Y0168863D02*
X0127799Y0168863D01*
X0126399Y0168863D02*
X0107573Y0168863D01*
X0107573Y0167265D02*
X0120868Y0167265D01*
X0121316Y0165666D02*
X0107573Y0165666D01*
X0108754Y0164068D02*
X0122316Y0164068D01*
X0126399Y0164068D02*
X0127799Y0164068D01*
X0127799Y0165666D02*
X0126399Y0165666D01*
X0126399Y0167265D02*
X0127799Y0167265D01*
X0127799Y0170462D02*
X0126399Y0170462D01*
X0126399Y0172060D02*
X0127799Y0172060D01*
X0127799Y0173659D02*
X0126399Y0173659D01*
X0123948Y0173659D02*
X0106228Y0173659D01*
X0107573Y0172060D02*
X0122121Y0172060D01*
X0121212Y0170462D02*
X0107573Y0170462D01*
X0103198Y0153022D02*
X0103507Y0152712D01*
X0103507Y0151245D01*
X0104817Y0149935D01*
X0103578Y0149935D01*
X0103198Y0149555D01*
X0102817Y0149935D01*
X0098578Y0149935D01*
X0098339Y0149696D01*
X0098260Y0149776D01*
X0097849Y0150013D01*
X0097391Y0150135D01*
X0095698Y0150135D01*
X0095698Y0143611D01*
X0095698Y0137087D01*
X0095698Y0143611D01*
X0095698Y0143611D01*
X0095698Y0143611D01*
X0095698Y0150135D01*
X0094004Y0150135D01*
X0093546Y0150013D01*
X0093198Y0149812D01*
X0092849Y0150013D01*
X0092391Y0150135D01*
X0090698Y0150135D01*
X0090698Y0143611D01*
X0093954Y0143611D01*
X0095698Y0143611D01*
X0090698Y0143611D01*
X0090698Y0143611D01*
X0090698Y0137087D01*
X0090698Y0143611D01*
X0090698Y0143611D01*
X0090698Y0143611D01*
X0090698Y0150135D01*
X0089004Y0150135D01*
X0088546Y0150013D01*
X0088136Y0149776D01*
X0088056Y0149696D01*
X0087817Y0149935D01*
X0083578Y0149935D01*
X0082641Y0148998D01*
X0082641Y0138224D01*
X0083352Y0137513D01*
X0077421Y0131582D01*
X0076815Y0131582D01*
X0075680Y0131112D01*
X0074811Y0130243D01*
X0074341Y0129107D01*
X0074341Y0127987D01*
X0071604Y0130724D01*
X0072091Y0130522D01*
X0073320Y0130522D01*
X0074455Y0130992D01*
X0075324Y0131861D01*
X0075794Y0132997D01*
X0075794Y0134225D01*
X0075683Y0134493D01*
X0075683Y0145853D01*
X0083025Y0153194D01*
X0083578Y0152641D01*
X0087817Y0152641D01*
X0088198Y0153022D01*
X0088578Y0152641D01*
X0092817Y0152641D01*
X0093198Y0153022D01*
X0093578Y0152641D01*
X0097817Y0152641D01*
X0098198Y0153022D01*
X0098578Y0152641D01*
X0102817Y0152641D01*
X0103198Y0153022D01*
X0103341Y0152878D02*
X0103054Y0152878D01*
X0103507Y0151279D02*
X0081110Y0151279D01*
X0079511Y0149681D02*
X0083324Y0149681D01*
X0082641Y0148082D02*
X0077913Y0148082D01*
X0076314Y0146484D02*
X0082641Y0146484D01*
X0082641Y0144885D02*
X0075683Y0144885D01*
X0075683Y0143287D02*
X0082641Y0143287D01*
X0082641Y0141688D02*
X0075683Y0141688D01*
X0075683Y0140090D02*
X0082641Y0140090D01*
X0082641Y0138491D02*
X0075683Y0138491D01*
X0075683Y0136893D02*
X0082732Y0136893D01*
X0081133Y0135294D02*
X0075683Y0135294D01*
X0075794Y0133696D02*
X0079535Y0133696D01*
X0077936Y0132097D02*
X0075422Y0132097D01*
X0075067Y0130499D02*
X0071829Y0130499D01*
X0073428Y0128900D02*
X0074341Y0128900D01*
X0070429Y0125703D02*
X0067133Y0125703D01*
X0067133Y0125123D02*
X0067133Y0126351D01*
X0066663Y0127487D01*
X0065794Y0128356D01*
X0064659Y0128826D01*
X0063430Y0128826D01*
X0062294Y0128356D01*
X0061425Y0127487D01*
X0060955Y0126351D01*
X0060955Y0125746D01*
X0058288Y0123079D01*
X0057005Y0121796D01*
X0057005Y0117258D01*
X0034661Y0117258D01*
X0034137Y0118523D01*
X0032421Y0120239D01*
X0030179Y0121168D01*
X0027752Y0121168D01*
X0025510Y0120239D01*
X0023794Y0118523D01*
X0022865Y0116281D01*
X0022865Y0113854D01*
X0023794Y0111612D01*
X0025510Y0109896D01*
X0027752Y0108968D01*
X0030179Y0108968D01*
X0032421Y0109896D01*
X0034137Y0111612D01*
X0034661Y0112877D01*
X0068688Y0112877D01*
X0078178Y0103387D01*
X0075887Y0103387D01*
X0075887Y0100013D01*
X0080049Y0100013D01*
X0080049Y0101516D01*
X0091762Y0089803D01*
X0091762Y0084985D01*
X0091643Y0085017D01*
X0089524Y0085017D01*
X0089524Y0079563D01*
X0088958Y0079563D01*
X0088958Y0078998D01*
X0085276Y0078998D01*
X0085276Y0075106D01*
X0085398Y0074649D01*
X0085635Y0074238D01*
X0085883Y0073991D01*
X0078731Y0073991D01*
X0078451Y0074271D01*
X0078990Y0074271D01*
X0079928Y0075208D01*
X0079928Y0079683D01*
X0078990Y0080620D01*
X0072940Y0080620D01*
X0072003Y0079683D01*
X0072003Y0079636D01*
X0069148Y0079636D01*
X0057573Y0091211D01*
X0056290Y0092494D01*
X0053646Y0092494D01*
X0053646Y0102004D01*
X0058148Y0106506D01*
X0058753Y0106506D01*
X0059888Y0106977D01*
X0060757Y0107846D01*
X0061228Y0108981D01*
X0061228Y0110210D01*
X0060757Y0111345D01*
X0059888Y0112214D01*
X0058753Y0112684D01*
X0057524Y0112684D01*
X0056389Y0112214D01*
X0055520Y0111345D01*
X0055050Y0110210D01*
X0055050Y0109604D01*
X0050548Y0105102D01*
X0049264Y0103819D01*
X0049264Y0092494D01*
X0038353Y0092494D01*
X0034541Y0096306D01*
X0035065Y0097571D01*
X0035065Y0099998D01*
X0034137Y0102240D01*
X0032421Y0103956D01*
X0030179Y0104884D01*
X0027752Y0104884D01*
X0025510Y0103956D01*
X0023794Y0102240D01*
X0022865Y0099998D01*
X0022865Y0097571D01*
X0023794Y0095329D01*
X0025510Y0093613D01*
X0027752Y0092684D01*
X0030179Y0092684D01*
X0031444Y0093208D01*
X0036538Y0088113D01*
X0054475Y0088113D01*
X0067334Y0075255D01*
X0072003Y0075255D01*
X0072003Y0075208D01*
X0072940Y0074271D01*
X0073775Y0074271D01*
X0073775Y0072751D01*
X0075058Y0071468D01*
X0076916Y0069609D01*
X0086066Y0069609D01*
X0086066Y0069562D01*
X0087003Y0068625D01*
X0087050Y0068625D01*
X0087050Y0064866D01*
X0086023Y0065894D01*
X0084910Y0067007D01*
X0069555Y0067007D01*
X0061486Y0075077D01*
X0051377Y0086309D01*
X0051377Y0086367D01*
X0050856Y0086888D01*
X0050363Y0087436D01*
X0050305Y0087439D01*
X0050264Y0087480D01*
X0049527Y0087480D01*
X0048791Y0087518D01*
X0048748Y0087480D01*
X0021600Y0087480D01*
X0021600Y0161643D01*
X0024826Y0160307D01*
X0028459Y0160307D01*
X0031815Y0161697D01*
X0034383Y0164266D01*
X0035773Y0167622D01*
X0035773Y0171254D01*
X0034437Y0174480D01*
X0076225Y0174480D01*
X0055727Y0153983D01*
X0034267Y0153983D01*
X0033743Y0155247D01*
X0032027Y0156963D01*
X0029785Y0157892D01*
X0027358Y0157892D01*
X0025116Y0156963D01*
X0023400Y0155247D01*
X0022472Y0153005D01*
X0022472Y0150579D01*
X0023400Y0148337D01*
X0025116Y0146621D01*
X0027358Y0145692D01*
X0029785Y0145692D01*
X0032027Y0146621D01*
X0033743Y0148337D01*
X0034267Y0149602D01*
X0057542Y0149602D01*
X0058825Y0150885D01*
X0079125Y0171184D01*
X0080803Y0171184D01*
X0066972Y0157353D01*
X0066972Y0139038D01*
X0064223Y0136290D01*
X0034267Y0136290D01*
X0033743Y0137555D01*
X0032027Y0139271D01*
X0029785Y0140199D01*
X0027358Y0140199D01*
X0025116Y0139271D01*
X0023400Y0137555D01*
X0022472Y0135313D01*
X0022472Y0132886D01*
X0023400Y0130644D01*
X0025116Y0128928D01*
X0027358Y0127999D01*
X0029785Y0127999D01*
X0032027Y0128928D01*
X0033743Y0130644D01*
X0034267Y0131909D01*
X0064223Y0131909D01*
X0100932Y0095200D01*
X0104780Y0091352D01*
X0104780Y0085017D01*
X0103697Y0085017D01*
X0103697Y0079563D01*
X0103131Y0079563D01*
X0103131Y0078998D01*
X0099449Y0078998D01*
X0099449Y0075106D01*
X0099571Y0074649D01*
X0099808Y0074238D01*
X0100144Y0073903D01*
X0100239Y0073848D01*
X0100239Y0070756D01*
X0099911Y0070844D01*
X0097791Y0070844D01*
X0097791Y0065390D01*
X0097226Y0065390D01*
X0097226Y0070844D01*
X0096143Y0070844D01*
X0096143Y0091618D01*
X0094860Y0092901D01*
X0070503Y0117258D01*
X0061386Y0117258D01*
X0061386Y0119981D01*
X0064053Y0122648D01*
X0064659Y0122648D01*
X0065794Y0123118D01*
X0066663Y0123987D01*
X0067133Y0125123D01*
X0066711Y0124105D02*
X0072027Y0124105D01*
X0073626Y0122506D02*
X0063911Y0122506D01*
X0062313Y0120908D02*
X0075224Y0120908D01*
X0076823Y0119309D02*
X0061386Y0119309D01*
X0061386Y0117711D02*
X0078421Y0117711D01*
X0080020Y0116112D02*
X0071649Y0116112D01*
X0073247Y0114514D02*
X0081618Y0114514D01*
X0083217Y0112915D02*
X0074846Y0112915D01*
X0076444Y0111317D02*
X0084815Y0111317D01*
X0086414Y0109718D02*
X0078043Y0109718D01*
X0079641Y0108120D02*
X0088012Y0108120D01*
X0089611Y0106521D02*
X0081240Y0106521D01*
X0082838Y0104923D02*
X0091209Y0104923D01*
X0092808Y0103324D02*
X0084437Y0103324D01*
X0086035Y0101726D02*
X0094406Y0101726D01*
X0096005Y0100127D02*
X0087634Y0100127D01*
X0089232Y0098529D02*
X0097603Y0098529D01*
X0099202Y0096930D02*
X0090831Y0096930D01*
X0092429Y0095332D02*
X0100800Y0095332D01*
X0102399Y0093733D02*
X0094028Y0093733D01*
X0094860Y0092901D02*
X0094860Y0092901D01*
X0095626Y0092134D02*
X0103998Y0092134D01*
X0104780Y0090536D02*
X0096143Y0090536D01*
X0096143Y0088937D02*
X0104780Y0088937D01*
X0104780Y0087339D02*
X0096143Y0087339D01*
X0096143Y0085740D02*
X0104780Y0085740D01*
X0103131Y0085017D02*
X0101012Y0085017D01*
X0100554Y0084895D01*
X0100144Y0084658D01*
X0099808Y0084323D01*
X0099571Y0083912D01*
X0099449Y0083454D01*
X0099449Y0079563D01*
X0103131Y0079563D01*
X0103131Y0085017D01*
X0103131Y0084142D02*
X0103697Y0084142D01*
X0103697Y0082543D02*
X0103131Y0082543D01*
X0103131Y0080945D02*
X0103697Y0080945D01*
X0103131Y0079346D02*
X0096143Y0079346D01*
X0096143Y0077748D02*
X0099449Y0077748D01*
X0099449Y0076149D02*
X0096143Y0076149D01*
X0096143Y0074551D02*
X0099628Y0074551D01*
X0100239Y0072952D02*
X0096143Y0072952D01*
X0096143Y0071354D02*
X0100239Y0071354D01*
X0097791Y0069755D02*
X0097226Y0069755D01*
X0097226Y0068157D02*
X0097791Y0068157D01*
X0097791Y0066558D02*
X0097226Y0066558D01*
X0087050Y0066558D02*
X0085359Y0066558D01*
X0086957Y0064960D02*
X0087050Y0064960D01*
X0087050Y0068157D02*
X0068406Y0068157D01*
X0066807Y0069755D02*
X0076770Y0069755D01*
X0075172Y0071354D02*
X0065209Y0071354D01*
X0063610Y0072952D02*
X0073775Y0072952D01*
X0072660Y0074551D02*
X0062012Y0074551D01*
X0060520Y0076149D02*
X0066439Y0076149D01*
X0064841Y0077748D02*
X0059082Y0077748D01*
X0057643Y0079346D02*
X0063242Y0079346D01*
X0061644Y0080945D02*
X0056204Y0080945D01*
X0054766Y0082543D02*
X0060045Y0082543D01*
X0058447Y0084142D02*
X0053327Y0084142D01*
X0051889Y0085740D02*
X0056848Y0085740D01*
X0055250Y0087339D02*
X0050450Y0087339D01*
X0049264Y0093733D02*
X0037114Y0093733D01*
X0035516Y0095332D02*
X0049264Y0095332D01*
X0049264Y0096930D02*
X0034800Y0096930D01*
X0035065Y0098529D02*
X0049264Y0098529D01*
X0049264Y0100127D02*
X0035012Y0100127D01*
X0034350Y0101726D02*
X0049264Y0101726D01*
X0049264Y0103324D02*
X0033052Y0103324D01*
X0031990Y0109718D02*
X0055050Y0109718D01*
X0055508Y0111317D02*
X0033841Y0111317D01*
X0034473Y0117711D02*
X0057005Y0117711D01*
X0057005Y0119309D02*
X0033351Y0119309D01*
X0030806Y0120908D02*
X0057005Y0120908D01*
X0057715Y0122506D02*
X0021600Y0122506D01*
X0021600Y0120908D02*
X0027124Y0120908D01*
X0024580Y0119309D02*
X0021600Y0119309D01*
X0021600Y0117711D02*
X0023458Y0117711D01*
X0022865Y0116112D02*
X0021600Y0116112D01*
X0021600Y0114514D02*
X0022865Y0114514D01*
X0023254Y0112915D02*
X0021600Y0112915D01*
X0021600Y0111317D02*
X0024090Y0111317D01*
X0025940Y0109718D02*
X0021600Y0109718D01*
X0021600Y0108120D02*
X0053565Y0108120D01*
X0051967Y0106521D02*
X0021600Y0106521D01*
X0021600Y0104923D02*
X0050368Y0104923D01*
X0053646Y0101726D02*
X0071724Y0101726D01*
X0071724Y0101824D02*
X0071724Y0100013D01*
X0075886Y0100013D01*
X0075886Y0100013D01*
X0075887Y0100013D02*
X0075887Y0103387D01*
X0073287Y0103387D01*
X0072830Y0103265D01*
X0072419Y0103028D01*
X0072084Y0102693D01*
X0071847Y0102282D01*
X0071724Y0101824D01*
X0071724Y0100127D02*
X0053646Y0100127D01*
X0053646Y0098529D02*
X0071724Y0098529D01*
X0071724Y0098201D02*
X0071847Y0097743D01*
X0072084Y0097333D01*
X0072419Y0096997D01*
X0072830Y0096760D01*
X0073287Y0096638D01*
X0075887Y0096638D01*
X0078486Y0096638D01*
X0078944Y0096760D01*
X0079354Y0096997D01*
X0079689Y0097333D01*
X0079926Y0097743D01*
X0080049Y0098201D01*
X0080049Y0100013D01*
X0075887Y0100013D01*
X0075887Y0100013D01*
X0075887Y0100013D01*
X0075887Y0100012D02*
X0075887Y0096638D01*
X0075887Y0100012D01*
X0075887Y0100012D01*
X0075886Y0100013D02*
X0071724Y0100013D01*
X0071724Y0098201D01*
X0072536Y0096930D02*
X0053646Y0096930D01*
X0053646Y0095332D02*
X0072092Y0095332D01*
X0071924Y0095164D02*
X0071924Y0090688D01*
X0072862Y0089751D01*
X0073696Y0089751D01*
X0073696Y0087707D01*
X0072940Y0087707D01*
X0072003Y0086770D01*
X0072003Y0082295D01*
X0072940Y0081357D01*
X0078990Y0081357D01*
X0079928Y0082295D01*
X0079928Y0086770D01*
X0078990Y0087707D01*
X0078077Y0087707D01*
X0078077Y0089751D01*
X0078912Y0089751D01*
X0079849Y0090688D01*
X0079849Y0095164D01*
X0078912Y0096101D01*
X0072862Y0096101D01*
X0071924Y0095164D01*
X0071924Y0093733D02*
X0053646Y0093733D01*
X0056650Y0092134D02*
X0071924Y0092134D01*
X0072077Y0090536D02*
X0058249Y0090536D01*
X0059847Y0088937D02*
X0073696Y0088937D01*
X0072572Y0087339D02*
X0061446Y0087339D01*
X0063044Y0085740D02*
X0072003Y0085740D01*
X0072003Y0084142D02*
X0064643Y0084142D01*
X0066241Y0082543D02*
X0072003Y0082543D01*
X0067840Y0080945D02*
X0085276Y0080945D01*
X0085276Y0079563D02*
X0088958Y0079563D01*
X0088958Y0085017D01*
X0086839Y0085017D01*
X0086381Y0084895D01*
X0085970Y0084658D01*
X0085635Y0084323D01*
X0085398Y0083912D01*
X0085276Y0083454D01*
X0085276Y0079563D01*
X0085276Y0077748D02*
X0079928Y0077748D01*
X0079928Y0079346D02*
X0088958Y0079346D01*
X0088958Y0080945D02*
X0089524Y0080945D01*
X0089524Y0082543D02*
X0088958Y0082543D01*
X0088958Y0084142D02*
X0089524Y0084142D01*
X0091762Y0085740D02*
X0079928Y0085740D01*
X0079928Y0084142D02*
X0085531Y0084142D01*
X0085276Y0082543D02*
X0079928Y0082543D01*
X0079358Y0087339D02*
X0091762Y0087339D01*
X0091762Y0088937D02*
X0078077Y0088937D01*
X0079696Y0090536D02*
X0091029Y0090536D01*
X0089431Y0092134D02*
X0079849Y0092134D01*
X0079849Y0093733D02*
X0087832Y0093733D01*
X0086234Y0095332D02*
X0079681Y0095332D01*
X0079237Y0096930D02*
X0084635Y0096930D01*
X0083037Y0098529D02*
X0080049Y0098529D01*
X0080049Y0100127D02*
X0081438Y0100127D01*
X0075887Y0100127D02*
X0075887Y0100127D01*
X0075887Y0098529D02*
X0075887Y0098529D01*
X0075887Y0096930D02*
X0075887Y0096930D01*
X0075887Y0101726D02*
X0075887Y0101726D01*
X0075887Y0103324D02*
X0075887Y0103324D01*
X0076642Y0104923D02*
X0056564Y0104923D01*
X0054965Y0103324D02*
X0073051Y0103324D01*
X0075044Y0106521D02*
X0058789Y0106521D01*
X0060871Y0108120D02*
X0073445Y0108120D01*
X0071847Y0109718D02*
X0061228Y0109718D01*
X0060769Y0111317D02*
X0070248Y0111317D01*
X0059314Y0124105D02*
X0021600Y0124105D01*
X0021600Y0125703D02*
X0060912Y0125703D01*
X0061349Y0127302D02*
X0021600Y0127302D01*
X0021600Y0128900D02*
X0025183Y0128900D01*
X0023545Y0130499D02*
X0021600Y0130499D01*
X0021600Y0132097D02*
X0022798Y0132097D01*
X0022472Y0133696D02*
X0021600Y0133696D01*
X0021600Y0135294D02*
X0022472Y0135294D01*
X0023126Y0136893D02*
X0021600Y0136893D01*
X0021600Y0138491D02*
X0024337Y0138491D01*
X0021600Y0140090D02*
X0027094Y0140090D01*
X0030049Y0140090D02*
X0066972Y0140090D01*
X0066972Y0141688D02*
X0021600Y0141688D01*
X0021600Y0143287D02*
X0066972Y0143287D01*
X0066972Y0144885D02*
X0021600Y0144885D01*
X0021600Y0146484D02*
X0025447Y0146484D01*
X0023655Y0148082D02*
X0021600Y0148082D01*
X0021600Y0149681D02*
X0022844Y0149681D01*
X0022472Y0151279D02*
X0021600Y0151279D01*
X0021600Y0152878D02*
X0022472Y0152878D01*
X0023081Y0154476D02*
X0021600Y0154476D01*
X0021600Y0156075D02*
X0024228Y0156075D01*
X0026830Y0157673D02*
X0021600Y0157673D01*
X0021600Y0159272D02*
X0061017Y0159272D01*
X0062615Y0160870D02*
X0029819Y0160870D01*
X0032586Y0162469D02*
X0042837Y0162469D01*
X0042671Y0162553D02*
X0043555Y0162103D01*
X0044498Y0161797D01*
X0045273Y0161674D01*
X0045273Y0167242D01*
X0039706Y0167242D01*
X0039828Y0166466D01*
X0040135Y0165523D01*
X0040585Y0164640D01*
X0041168Y0163838D01*
X0041869Y0163136D01*
X0042671Y0162553D01*
X0041001Y0164068D02*
X0034185Y0164068D01*
X0034963Y0165666D02*
X0040088Y0165666D01*
X0039706Y0168642D02*
X0045273Y0168642D01*
X0045273Y0174209D01*
X0044498Y0174087D01*
X0043555Y0173780D01*
X0042671Y0173330D01*
X0041869Y0172747D01*
X0041168Y0172046D01*
X0040585Y0171244D01*
X0040135Y0170360D01*
X0039828Y0169417D01*
X0039706Y0168642D01*
X0039741Y0168863D02*
X0035773Y0168863D01*
X0035773Y0170462D02*
X0040186Y0170462D01*
X0041182Y0172060D02*
X0035439Y0172060D01*
X0034777Y0173659D02*
X0043316Y0173659D01*
X0045273Y0173659D02*
X0046673Y0173659D01*
X0046673Y0174209D02*
X0047448Y0174087D01*
X0048392Y0173780D01*
X0049275Y0173330D01*
X0050077Y0172747D01*
X0050779Y0172046D01*
X0051361Y0171244D01*
X0051812Y0170360D01*
X0052118Y0169417D01*
X0052241Y0168642D01*
X0046673Y0168642D01*
X0045273Y0168642D01*
X0045273Y0167242D01*
X0046673Y0167242D01*
X0046673Y0168642D01*
X0046673Y0174209D01*
X0048630Y0173659D02*
X0057868Y0173659D01*
X0058122Y0173788D02*
X0057238Y0173338D01*
X0056436Y0172755D01*
X0055735Y0172054D01*
X0055152Y0171252D01*
X0054702Y0170368D01*
X0054395Y0169425D01*
X0054272Y0168650D01*
X0059840Y0168650D01*
X0059840Y0174217D01*
X0059065Y0174094D01*
X0058122Y0173788D01*
X0059840Y0173659D02*
X0061240Y0173659D01*
X0061240Y0174217D02*
X0061240Y0168650D01*
X0059840Y0168650D01*
X0059840Y0167250D01*
X0054272Y0167250D01*
X0054395Y0166474D01*
X0054702Y0165531D01*
X0055152Y0164648D01*
X0055735Y0163845D01*
X0056436Y0163144D01*
X0057238Y0162561D01*
X0058122Y0162111D01*
X0059065Y0161805D01*
X0059840Y0161682D01*
X0059840Y0167250D01*
X0061240Y0167250D01*
X0061240Y0168650D01*
X0066808Y0168650D01*
X0066685Y0169425D01*
X0066379Y0170368D01*
X0065928Y0171252D01*
X0065346Y0172054D01*
X0064644Y0172755D01*
X0063842Y0173338D01*
X0062959Y0173788D01*
X0062015Y0174094D01*
X0061240Y0174217D01*
X0063213Y0173659D02*
X0075403Y0173659D01*
X0073805Y0172060D02*
X0065339Y0172060D01*
X0066331Y0170462D02*
X0072206Y0170462D01*
X0070608Y0168863D02*
X0066774Y0168863D01*
X0066808Y0167250D02*
X0061240Y0167250D01*
X0061240Y0161682D01*
X0062015Y0161805D01*
X0062959Y0162111D01*
X0063842Y0162561D01*
X0064644Y0163144D01*
X0065346Y0163845D01*
X0065928Y0164648D01*
X0066379Y0165531D01*
X0066685Y0166474D01*
X0066808Y0167250D01*
X0066422Y0165666D02*
X0067411Y0165666D01*
X0069009Y0167265D02*
X0061240Y0167265D01*
X0059840Y0167265D02*
X0046673Y0167265D01*
X0046673Y0167242D02*
X0052241Y0167242D01*
X0052118Y0166466D01*
X0051812Y0165523D01*
X0051361Y0164640D01*
X0050779Y0163838D01*
X0050077Y0163136D01*
X0049275Y0162553D01*
X0048392Y0162103D01*
X0047448Y0161797D01*
X0046673Y0161674D01*
X0046673Y0167242D01*
X0045273Y0167265D02*
X0035625Y0167265D01*
X0030313Y0157673D02*
X0059418Y0157673D01*
X0057820Y0156075D02*
X0032916Y0156075D01*
X0034062Y0154476D02*
X0056221Y0154476D01*
X0059220Y0151279D02*
X0066972Y0151279D01*
X0066972Y0149681D02*
X0057621Y0149681D01*
X0060818Y0152878D02*
X0066972Y0152878D01*
X0066972Y0154476D02*
X0062417Y0154476D01*
X0064015Y0156075D02*
X0066972Y0156075D01*
X0067292Y0157673D02*
X0065614Y0157673D01*
X0067212Y0159272D02*
X0068891Y0159272D01*
X0068811Y0160870D02*
X0070489Y0160870D01*
X0070409Y0162469D02*
X0072088Y0162469D01*
X0072008Y0164068D02*
X0073686Y0164068D01*
X0073606Y0165666D02*
X0075285Y0165666D01*
X0075205Y0167265D02*
X0076883Y0167265D01*
X0076803Y0168863D02*
X0078482Y0168863D01*
X0078402Y0170462D02*
X0080080Y0170462D01*
X0065812Y0164068D02*
X0065507Y0164068D01*
X0064214Y0162469D02*
X0063661Y0162469D01*
X0061240Y0162469D02*
X0059840Y0162469D01*
X0059840Y0164068D02*
X0061240Y0164068D01*
X0061240Y0165666D02*
X0059840Y0165666D01*
X0059840Y0168863D02*
X0061240Y0168863D01*
X0061240Y0170462D02*
X0059840Y0170462D01*
X0059840Y0172060D02*
X0061240Y0172060D01*
X0055741Y0172060D02*
X0050764Y0172060D01*
X0051760Y0170462D02*
X0054749Y0170462D01*
X0054306Y0168863D02*
X0052206Y0168863D01*
X0051858Y0165666D02*
X0054658Y0165666D01*
X0055573Y0164068D02*
X0050946Y0164068D01*
X0049109Y0162469D02*
X0057419Y0162469D01*
X0046673Y0162469D02*
X0045273Y0162469D01*
X0045273Y0164068D02*
X0046673Y0164068D01*
X0046673Y0165666D02*
X0045273Y0165666D01*
X0045273Y0168863D02*
X0046673Y0168863D01*
X0046673Y0170462D02*
X0045273Y0170462D01*
X0045273Y0172060D02*
X0046673Y0172060D01*
X0033489Y0148082D02*
X0066972Y0148082D01*
X0066972Y0146484D02*
X0031696Y0146484D01*
X0032806Y0138491D02*
X0066425Y0138491D01*
X0064826Y0136893D02*
X0034017Y0136893D01*
X0033598Y0130499D02*
X0065633Y0130499D01*
X0067232Y0128900D02*
X0031960Y0128900D01*
X0024878Y0103324D02*
X0021600Y0103324D01*
X0021600Y0101726D02*
X0023581Y0101726D01*
X0022919Y0100127D02*
X0021600Y0100127D01*
X0021600Y0098529D02*
X0022865Y0098529D01*
X0023131Y0096930D02*
X0021600Y0096930D01*
X0021600Y0095332D02*
X0023793Y0095332D01*
X0025390Y0093733D02*
X0021600Y0093733D01*
X0021600Y0092134D02*
X0032517Y0092134D01*
X0034116Y0090536D02*
X0021600Y0090536D01*
X0021600Y0088937D02*
X0035714Y0088937D01*
X0021600Y0056967D02*
X0070118Y0056967D01*
X0070118Y0055369D02*
X0021600Y0055369D01*
X0021600Y0053770D02*
X0070118Y0053770D01*
X0071364Y0052172D02*
X0021600Y0052172D01*
X0021600Y0040982D02*
X0049925Y0040982D01*
X0049425Y0039384D02*
X0031813Y0039384D01*
X0033413Y0037785D02*
X0049425Y0037785D01*
X0049425Y0036187D02*
X0034643Y0036187D01*
X0035305Y0034588D02*
X0053968Y0034588D01*
X0053969Y0032990D02*
X0055568Y0032990D01*
X0055569Y0034588D02*
X0133496Y0034588D01*
X0133496Y0032990D02*
X0135096Y0032990D01*
X0135096Y0033819D02*
X0135096Y0027701D01*
X0138076Y0027701D01*
X0138534Y0027823D01*
X0138945Y0028060D01*
X0139280Y0028396D01*
X0139517Y0028806D01*
X0139639Y0029264D01*
X0139639Y0033819D01*
X0135096Y0033819D01*
X0135096Y0034588D02*
X0155775Y0034588D01*
X0155307Y0032990D02*
X0139639Y0032990D01*
X0139639Y0031391D02*
X0155307Y0031391D01*
X0155321Y0029793D02*
X0139639Y0029793D01*
X0139078Y0028194D02*
X0155983Y0028194D01*
X0156437Y0036187D02*
X0139639Y0036187D01*
X0139639Y0037785D02*
X0157668Y0037785D01*
X0159267Y0039384D02*
X0139639Y0039384D01*
X0139140Y0040982D02*
X0169480Y0040982D01*
X0169480Y0042581D02*
X0139205Y0042581D01*
X0142210Y0044179D02*
X0169480Y0044179D01*
X0169480Y0045778D02*
X0145215Y0045778D01*
X0148220Y0047376D02*
X0169480Y0047376D01*
X0169480Y0048975D02*
X0149802Y0048975D01*
X0149802Y0050573D02*
X0157760Y0050573D01*
X0157585Y0050675D02*
X0157995Y0050438D01*
X0158453Y0050315D01*
X0160986Y0050315D01*
X0160986Y0057718D01*
X0162378Y0057718D01*
X0162378Y0050315D01*
X0164911Y0050315D01*
X0165369Y0050438D01*
X0165779Y0050675D01*
X0166114Y0051010D01*
X0166351Y0051420D01*
X0166474Y0051878D01*
X0166474Y0057718D01*
X0162378Y0057718D01*
X0162378Y0059110D01*
X0166474Y0059110D01*
X0166474Y0064950D01*
X0166351Y0065408D01*
X0166114Y0065819D01*
X0165779Y0066154D01*
X0165369Y0066391D01*
X0164911Y0066513D01*
X0162378Y0066513D01*
X0162378Y0059110D01*
X0160986Y0059110D01*
X0160986Y0057718D01*
X0156890Y0057718D01*
X0156890Y0051878D01*
X0157012Y0051420D01*
X0157249Y0051010D01*
X0157585Y0050675D01*
X0156890Y0052172D02*
X0149802Y0052172D01*
X0149802Y0053770D02*
X0156890Y0053770D01*
X0156890Y0055369D02*
X0149802Y0055369D01*
X0149802Y0056967D02*
X0156890Y0056967D01*
X0156890Y0059110D02*
X0160986Y0059110D01*
X0160986Y0066513D01*
X0158453Y0066513D01*
X0157995Y0066391D01*
X0157585Y0066154D01*
X0157249Y0065819D01*
X0157012Y0065408D01*
X0156890Y0064950D01*
X0156890Y0059110D01*
X0156890Y0060164D02*
X0149802Y0060164D01*
X0149802Y0058566D02*
X0160986Y0058566D01*
X0162378Y0058566D02*
X0169480Y0058566D01*
X0169480Y0060164D02*
X0166474Y0060164D01*
X0166474Y0061763D02*
X0169480Y0061763D01*
X0169480Y0063361D02*
X0166474Y0063361D01*
X0166471Y0064960D02*
X0169480Y0064960D01*
X0169480Y0066558D02*
X0155106Y0066558D01*
X0153419Y0064960D02*
X0156892Y0064960D01*
X0156890Y0063361D02*
X0151731Y0063361D01*
X0150044Y0061763D02*
X0156890Y0061763D01*
X0160986Y0061763D02*
X0162378Y0061763D01*
X0162378Y0063361D02*
X0160986Y0063361D01*
X0160986Y0064960D02*
X0162378Y0064960D01*
X0162378Y0060164D02*
X0160986Y0060164D01*
X0160986Y0056967D02*
X0162378Y0056967D01*
X0162378Y0055369D02*
X0160986Y0055369D01*
X0160986Y0053770D02*
X0162378Y0053770D01*
X0162378Y0052172D02*
X0160986Y0052172D01*
X0160986Y0050573D02*
X0162378Y0050573D01*
X0165604Y0050573D02*
X0169480Y0050573D01*
X0169480Y0052172D02*
X0166474Y0052172D01*
X0166474Y0053770D02*
X0169480Y0053770D01*
X0169480Y0055369D02*
X0166474Y0055369D01*
X0166474Y0056967D02*
X0169480Y0056967D01*
X0169480Y0068157D02*
X0156793Y0068157D01*
X0158480Y0069755D02*
X0169480Y0069755D01*
X0169480Y0071354D02*
X0160168Y0071354D01*
X0161855Y0072952D02*
X0169480Y0072952D01*
X0169480Y0074551D02*
X0163542Y0074551D01*
X0165230Y0076149D02*
X0169480Y0076149D01*
X0169480Y0077748D02*
X0166917Y0077748D01*
X0168604Y0079346D02*
X0169480Y0079346D01*
X0135096Y0031391D02*
X0133496Y0031391D01*
X0133496Y0029793D02*
X0135096Y0029793D01*
X0135096Y0028194D02*
X0133496Y0028194D01*
X0129514Y0028194D02*
X0059551Y0028194D01*
X0060112Y0029793D02*
X0128953Y0029793D01*
X0128953Y0031391D02*
X0060112Y0031391D01*
X0060112Y0032990D02*
X0128953Y0032990D01*
X0128953Y0036187D02*
X0060112Y0036187D01*
X0055568Y0036187D02*
X0053969Y0036187D01*
X0053969Y0037785D02*
X0055568Y0037785D01*
X0055568Y0039384D02*
X0053969Y0039384D01*
X0053969Y0040982D02*
X0055568Y0040982D01*
X0049425Y0032990D02*
X0035773Y0032990D01*
X0035773Y0031391D02*
X0049425Y0031391D01*
X0049425Y0029793D02*
X0035759Y0029793D01*
X0035097Y0028194D02*
X0049986Y0028194D01*
X0053969Y0028194D02*
X0055568Y0028194D01*
X0055568Y0029793D02*
X0053969Y0029793D01*
X0053969Y0031391D02*
X0055568Y0031391D01*
X0068942Y0039384D02*
X0068942Y0039384D01*
X0068942Y0040982D02*
X0068942Y0040982D01*
X0068942Y0042581D02*
X0068942Y0042581D01*
X0068942Y0044179D02*
X0068942Y0044179D01*
X0068942Y0045778D02*
X0068942Y0045778D01*
X0068942Y0047376D02*
X0068942Y0047376D01*
X0068942Y0048975D02*
X0068942Y0048975D01*
X0072879Y0048975D02*
X0072879Y0048975D01*
X0072879Y0047376D02*
X0072879Y0047376D01*
X0072879Y0045778D02*
X0072879Y0045778D01*
X0072879Y0044179D02*
X0072879Y0044179D01*
X0072879Y0042581D02*
X0072879Y0042581D01*
X0072879Y0040982D02*
X0072879Y0040982D01*
X0072879Y0039384D02*
X0072879Y0039384D01*
X0065005Y0045778D02*
X0065005Y0045778D01*
X0065005Y0047376D02*
X0065005Y0047376D01*
X0065005Y0048975D02*
X0065005Y0048975D01*
X0080347Y0052172D02*
X0080592Y0052172D01*
X0079270Y0074551D02*
X0085455Y0074551D01*
X0085276Y0076149D02*
X0079928Y0076149D01*
X0096143Y0080945D02*
X0099449Y0080945D01*
X0099449Y0082543D02*
X0096143Y0082543D01*
X0096143Y0084142D02*
X0099704Y0084142D01*
X0068830Y0127302D02*
X0066739Y0127302D01*
X0082708Y0152878D02*
X0083341Y0152878D01*
X0088054Y0152878D02*
X0088341Y0152878D01*
X0090698Y0149681D02*
X0090698Y0149681D01*
X0090698Y0148082D02*
X0090698Y0148082D01*
X0090698Y0146484D02*
X0090698Y0146484D01*
X0090698Y0144885D02*
X0090698Y0144885D01*
X0090698Y0143287D02*
X0090698Y0143287D01*
X0090698Y0141688D02*
X0090698Y0141688D01*
X0090698Y0140090D02*
X0090698Y0140090D01*
X0090698Y0138491D02*
X0090698Y0138491D01*
X0095698Y0138491D02*
X0095698Y0138491D01*
X0095698Y0140090D02*
X0095698Y0140090D01*
X0095698Y0141688D02*
X0095698Y0141688D01*
X0095698Y0143287D02*
X0095698Y0143287D01*
X0095698Y0143611D02*
X0095698Y0143611D01*
X0095698Y0144885D02*
X0095698Y0144885D01*
X0095698Y0146484D02*
X0095698Y0146484D01*
X0095698Y0148082D02*
X0095698Y0148082D01*
X0095698Y0149681D02*
X0095698Y0149681D01*
X0098054Y0152878D02*
X0098341Y0152878D01*
X0103072Y0149681D02*
X0103324Y0149681D01*
X0093341Y0152878D02*
X0093054Y0152878D01*
X0130251Y0173659D02*
X0139562Y0173659D01*
X0141628Y0173659D02*
X0143028Y0173659D01*
X0143028Y0172060D02*
X0141628Y0172060D01*
X0141628Y0170462D02*
X0143028Y0170462D01*
X0143028Y0168863D02*
X0141628Y0168863D01*
X0141628Y0167265D02*
X0143028Y0167265D01*
X0143028Y0167297D02*
X0143028Y0161729D01*
X0143803Y0161852D01*
X0144746Y0162158D01*
X0145629Y0162609D01*
X0146432Y0163191D01*
X0147133Y0163893D01*
X0147716Y0164695D01*
X0148166Y0165578D01*
X0148472Y0166522D01*
X0148595Y0167297D01*
X0143028Y0167297D01*
X0143028Y0165666D02*
X0141628Y0165666D01*
X0141628Y0164068D02*
X0143028Y0164068D01*
X0143028Y0162469D02*
X0141628Y0162469D01*
X0145355Y0162469D02*
X0158494Y0162469D01*
X0156895Y0164068D02*
X0147260Y0164068D01*
X0148194Y0165666D02*
X0156117Y0165666D01*
X0155455Y0167265D02*
X0148590Y0167265D01*
X0148569Y0168863D02*
X0155307Y0168863D01*
X0155307Y0170462D02*
X0148142Y0170462D01*
X0147163Y0172060D02*
X0155641Y0172060D01*
X0156303Y0173659D02*
X0145093Y0173659D01*
X0137492Y0172060D02*
X0132077Y0172060D01*
X0023466Y0160870D02*
X0021600Y0160870D01*
D20*
X0064044Y0125737D03*
X0072706Y0133611D03*
X0077430Y0128493D03*
X0090028Y0128887D03*
X0090028Y0133611D03*
X0095540Y0133611D03*
X0095540Y0128887D03*
X0071918Y0106446D03*
X0082548Y0095028D03*
X0089241Y0086761D03*
X0082942Y0078887D03*
X0097902Y0080855D03*
X0097902Y0075737D03*
X0097902Y0086367D03*
X0103020Y0086367D03*
X0110894Y0074162D03*
X0107745Y0066682D03*
X0107745Y0061957D03*
X0119556Y0087154D03*
X0119556Y0091485D03*
X0132942Y0070619D03*
X0132942Y0065501D03*
X0147902Y0043060D03*
X0147902Y0038335D03*
X0147902Y0033611D03*
X0147902Y0028493D03*
X0153020Y0043060D03*
X0157351Y0043060D03*
X0161682Y0043060D03*
X0166013Y0043060D03*
X0164438Y0074162D03*
X0067194Y0054871D03*
X0062469Y0054871D03*
X0057745Y0054871D03*
X0053020Y0054871D03*
X0053020Y0050146D03*
X0053020Y0045422D03*
X0047902Y0045028D03*
X0047902Y0049753D03*
X0047902Y0054871D03*
X0056564Y0098178D03*
X0058139Y0109595D03*
D21*
X0049477Y0085580D02*
X0060107Y0073769D01*
X0068769Y0065107D01*
X0084123Y0065107D01*
X0089125Y0060105D01*
X0021918Y0060105D01*
X0021918Y0059989D02*
X0021918Y0085580D01*
X0049477Y0085580D01*
X0049781Y0085242D02*
X0030677Y0085242D01*
X0030556Y0085261D02*
X0031457Y0085119D01*
X0032326Y0084836D01*
X0033139Y0084422D01*
X0033878Y0083885D01*
X0034523Y0083240D01*
X0035060Y0082501D01*
X0035474Y0081688D01*
X0035756Y0080820D01*
X0035899Y0079918D01*
X0035899Y0079761D01*
X0030399Y0079761D01*
X0030399Y0079161D01*
X0030399Y0073661D01*
X0030556Y0073661D01*
X0031457Y0073804D01*
X0032326Y0074086D01*
X0033139Y0074501D01*
X0033878Y0075037D01*
X0034523Y0075683D01*
X0035060Y0076422D01*
X0035474Y0077235D01*
X0035756Y0078103D01*
X0035899Y0079005D01*
X0035899Y0079161D01*
X0030399Y0079161D01*
X0029799Y0079161D01*
X0029799Y0073661D01*
X0029643Y0073661D01*
X0028741Y0073804D01*
X0027873Y0074086D01*
X0027059Y0074501D01*
X0026321Y0075037D01*
X0025675Y0075683D01*
X0025139Y0076422D01*
X0024724Y0077235D01*
X0024442Y0078103D01*
X0024299Y0079005D01*
X0024299Y0079161D01*
X0029799Y0079161D01*
X0029799Y0079761D01*
X0024299Y0079761D01*
X0024299Y0079918D01*
X0024442Y0080820D01*
X0024724Y0081688D01*
X0025139Y0082501D01*
X0025675Y0083240D01*
X0026321Y0083885D01*
X0027059Y0084422D01*
X0027873Y0084836D01*
X0028741Y0085119D01*
X0029643Y0085261D01*
X0029799Y0085261D01*
X0029799Y0079761D01*
X0030399Y0079761D01*
X0030399Y0085261D01*
X0030556Y0085261D01*
X0030399Y0085242D02*
X0029799Y0085242D01*
X0029521Y0085242D02*
X0021918Y0085242D01*
X0021918Y0084644D02*
X0027494Y0084644D01*
X0026541Y0084045D02*
X0021918Y0084045D01*
X0021918Y0083447D02*
X0025882Y0083447D01*
X0025391Y0082848D02*
X0021918Y0082848D01*
X0021918Y0082250D02*
X0025010Y0082250D01*
X0024712Y0081651D02*
X0021918Y0081651D01*
X0021918Y0081053D02*
X0024518Y0081053D01*
X0024384Y0080454D02*
X0021918Y0080454D01*
X0021918Y0079856D02*
X0024299Y0079856D01*
X0024354Y0078659D02*
X0021918Y0078659D01*
X0021918Y0079257D02*
X0029799Y0079257D01*
X0029799Y0078659D02*
X0030399Y0078659D01*
X0030399Y0079257D02*
X0055167Y0079257D01*
X0054629Y0079856D02*
X0035899Y0079856D01*
X0035814Y0080454D02*
X0054090Y0080454D01*
X0053551Y0081053D02*
X0035681Y0081053D01*
X0035486Y0081651D02*
X0053013Y0081651D01*
X0052474Y0082250D02*
X0035188Y0082250D01*
X0034808Y0082848D02*
X0051935Y0082848D01*
X0051397Y0083447D02*
X0034316Y0083447D01*
X0033658Y0084045D02*
X0050858Y0084045D01*
X0050319Y0084644D02*
X0032704Y0084644D01*
X0030399Y0084644D02*
X0029799Y0084644D01*
X0029799Y0084045D02*
X0030399Y0084045D01*
X0030399Y0083447D02*
X0029799Y0083447D01*
X0029799Y0082848D02*
X0030399Y0082848D01*
X0030399Y0082250D02*
X0029799Y0082250D01*
X0029799Y0081651D02*
X0030399Y0081651D01*
X0030399Y0081053D02*
X0029799Y0081053D01*
X0029799Y0080454D02*
X0030399Y0080454D01*
X0030399Y0079856D02*
X0029799Y0079856D01*
X0029799Y0078060D02*
X0030399Y0078060D01*
X0030399Y0077462D02*
X0029799Y0077462D01*
X0029799Y0076863D02*
X0030399Y0076863D01*
X0030399Y0076265D02*
X0029799Y0076265D01*
X0029799Y0075666D02*
X0030399Y0075666D01*
X0030399Y0075068D02*
X0029799Y0075068D01*
X0029799Y0074469D02*
X0030399Y0074469D01*
X0030399Y0073870D02*
X0029799Y0073870D01*
X0028537Y0073870D02*
X0021918Y0073870D01*
X0021918Y0073272D02*
X0060604Y0073272D01*
X0060015Y0073870D02*
X0031661Y0073870D01*
X0033077Y0074469D02*
X0059477Y0074469D01*
X0058938Y0075068D02*
X0033908Y0075068D01*
X0034506Y0075666D02*
X0058399Y0075666D01*
X0057861Y0076265D02*
X0034946Y0076265D01*
X0035285Y0076863D02*
X0057322Y0076863D01*
X0056783Y0077462D02*
X0035548Y0077462D01*
X0035742Y0078060D02*
X0056245Y0078060D01*
X0055706Y0078659D02*
X0035844Y0078659D01*
X0031932Y0071986D02*
X0031064Y0072268D01*
X0030162Y0072411D01*
X0030005Y0072411D01*
X0030005Y0066911D01*
X0029406Y0066911D01*
X0029406Y0072411D01*
X0029249Y0072411D01*
X0028347Y0072268D01*
X0027479Y0071986D01*
X0026666Y0071572D01*
X0025927Y0071035D01*
X0025282Y0070389D01*
X0024745Y0069651D01*
X0024330Y0068837D01*
X0024048Y0067969D01*
X0023906Y0067067D01*
X0023906Y0066911D01*
X0029405Y0066911D01*
X0029405Y0066311D01*
X0023905Y0066311D01*
X0023906Y0066155D01*
X0024048Y0065253D01*
X0024330Y0064385D01*
X0024745Y0063571D01*
X0025282Y0062833D01*
X0025927Y0062187D01*
X0026666Y0061650D01*
X0027479Y0061236D01*
X0028347Y0060954D01*
X0029249Y0060811D01*
X0029406Y0060811D01*
X0029406Y0066311D01*
X0030005Y0066311D01*
X0030005Y0060811D01*
X0030162Y0060811D01*
X0031064Y0060954D01*
X0031932Y0061236D01*
X0032745Y0061650D01*
X0033484Y0062187D01*
X0034129Y0062833D01*
X0034666Y0063571D01*
X0035081Y0064385D01*
X0035363Y0065253D01*
X0035505Y0066155D01*
X0035505Y0066311D01*
X0030006Y0066311D01*
X0030006Y0066911D01*
X0035505Y0066911D01*
X0035505Y0067067D01*
X0035363Y0067969D01*
X0035081Y0068837D01*
X0034666Y0069651D01*
X0034129Y0070389D01*
X0033484Y0071035D01*
X0032745Y0071572D01*
X0031932Y0071986D01*
X0031658Y0072075D02*
X0061801Y0072075D01*
X0062399Y0071476D02*
X0032876Y0071476D01*
X0033641Y0070878D02*
X0062998Y0070878D01*
X0063596Y0070279D02*
X0034209Y0070279D01*
X0034644Y0069681D02*
X0064195Y0069681D01*
X0064793Y0069082D02*
X0034956Y0069082D01*
X0035195Y0068484D02*
X0065392Y0068484D01*
X0065990Y0067885D02*
X0035376Y0067885D01*
X0035471Y0067287D02*
X0066589Y0067287D01*
X0067187Y0066688D02*
X0030006Y0066688D01*
X0030005Y0066090D02*
X0029406Y0066090D01*
X0029405Y0066688D02*
X0021918Y0066688D01*
X0021918Y0066090D02*
X0023916Y0066090D01*
X0024011Y0065491D02*
X0021918Y0065491D01*
X0021918Y0064893D02*
X0024165Y0064893D01*
X0024376Y0064294D02*
X0021918Y0064294D01*
X0021918Y0063696D02*
X0024681Y0063696D01*
X0025089Y0063097D02*
X0021918Y0063097D01*
X0021918Y0062499D02*
X0025615Y0062499D01*
X0026322Y0061900D02*
X0021918Y0061900D01*
X0021918Y0061302D02*
X0027350Y0061302D01*
X0029406Y0061302D02*
X0030005Y0061302D01*
X0030005Y0061900D02*
X0029406Y0061900D01*
X0029406Y0062499D02*
X0030005Y0062499D01*
X0030005Y0063097D02*
X0029406Y0063097D01*
X0029406Y0063696D02*
X0030005Y0063696D01*
X0030005Y0064294D02*
X0029406Y0064294D01*
X0029406Y0064893D02*
X0030005Y0064893D01*
X0030005Y0065491D02*
X0029406Y0065491D01*
X0029406Y0067287D02*
X0030005Y0067287D01*
X0030005Y0067885D02*
X0029406Y0067885D01*
X0029406Y0068484D02*
X0030005Y0068484D01*
X0030005Y0069082D02*
X0029406Y0069082D01*
X0029406Y0069681D02*
X0030005Y0069681D01*
X0030005Y0070279D02*
X0029406Y0070279D01*
X0029406Y0070878D02*
X0030005Y0070878D01*
X0030005Y0071476D02*
X0029406Y0071476D01*
X0029406Y0072075D02*
X0030005Y0072075D01*
X0027753Y0072075D02*
X0021918Y0072075D01*
X0021918Y0072673D02*
X0061202Y0072673D01*
X0067786Y0066090D02*
X0035495Y0066090D01*
X0035400Y0065491D02*
X0068384Y0065491D01*
X0080580Y0059595D02*
X0022312Y0059595D01*
X0021918Y0059989D01*
X0021918Y0060703D02*
X0088527Y0060703D01*
X0089125Y0060105D02*
X0089125Y0054564D01*
X0089635Y0054055D01*
X0089635Y0052509D01*
X0092854Y0049289D01*
X0092854Y0044358D01*
X0092273Y0044358D01*
X0092273Y0043777D01*
X0090083Y0043777D01*
X0088917Y0043777D01*
X0088917Y0044358D01*
X0088336Y0044358D01*
X0088336Y0043777D01*
X0086146Y0043777D01*
X0084980Y0043777D01*
X0084980Y0044358D01*
X0084399Y0044358D01*
X0084399Y0049698D01*
X0083729Y0049698D01*
X0083729Y0051721D01*
X0082273Y0053177D01*
X0083035Y0053177D01*
X0083035Y0055752D01*
X0083635Y0055752D01*
X0083635Y0053177D01*
X0085081Y0053177D01*
X0085412Y0053266D01*
X0085708Y0053437D01*
X0085950Y0053679D01*
X0086122Y0053975D01*
X0086210Y0054306D01*
X0086210Y0055752D01*
X0083635Y0055752D01*
X0083635Y0056352D01*
X0083035Y0056352D01*
X0083035Y0058927D01*
X0081589Y0058927D01*
X0081259Y0058838D01*
X0080973Y0058673D01*
X0080973Y0059202D01*
X0080580Y0059595D01*
X0080669Y0059506D02*
X0089125Y0059506D01*
X0089125Y0058908D02*
X0085153Y0058908D01*
X0085081Y0058927D02*
X0083635Y0058927D01*
X0083635Y0056352D01*
X0086210Y0056352D01*
X0086210Y0057798D01*
X0086122Y0058129D01*
X0085950Y0058425D01*
X0085708Y0058667D01*
X0085412Y0058838D01*
X0085081Y0058927D01*
X0086017Y0058309D02*
X0089125Y0058309D01*
X0089125Y0057711D02*
X0086210Y0057711D01*
X0086210Y0057112D02*
X0089125Y0057112D01*
X0089125Y0056514D02*
X0086210Y0056514D01*
X0086210Y0055317D02*
X0089125Y0055317D01*
X0089125Y0055915D02*
X0083635Y0055915D01*
X0083635Y0055317D02*
X0083035Y0055317D01*
X0083035Y0054718D02*
X0083635Y0054718D01*
X0083635Y0054120D02*
X0083035Y0054120D01*
X0083035Y0053521D02*
X0083635Y0053521D01*
X0082528Y0052923D02*
X0089635Y0052923D01*
X0089635Y0053521D02*
X0085793Y0053521D01*
X0086160Y0054120D02*
X0089570Y0054120D01*
X0089125Y0054718D02*
X0086210Y0054718D01*
X0083126Y0052324D02*
X0089819Y0052324D01*
X0090418Y0051726D02*
X0083725Y0051726D01*
X0083729Y0051127D02*
X0091016Y0051127D01*
X0091615Y0050529D02*
X0083729Y0050529D01*
X0083729Y0049930D02*
X0092213Y0049930D01*
X0092273Y0049698D02*
X0091212Y0049698D01*
X0090881Y0049610D01*
X0090595Y0049445D01*
X0090310Y0049610D01*
X0089979Y0049698D01*
X0088917Y0049698D01*
X0088917Y0044358D01*
X0092273Y0044358D01*
X0092273Y0049698D01*
X0092273Y0049332D02*
X0092812Y0049332D01*
X0092854Y0048733D02*
X0092273Y0048733D01*
X0092273Y0048134D02*
X0092854Y0048134D01*
X0092854Y0047536D02*
X0092273Y0047536D01*
X0092273Y0046937D02*
X0092854Y0046937D01*
X0092854Y0046339D02*
X0092273Y0046339D01*
X0092273Y0045740D02*
X0092854Y0045740D01*
X0092854Y0045142D02*
X0092273Y0045142D01*
X0092273Y0044543D02*
X0092854Y0044543D01*
X0092273Y0043945D02*
X0088917Y0043945D01*
X0088336Y0043945D02*
X0084980Y0043945D01*
X0084980Y0044358D02*
X0088336Y0044358D01*
X0088336Y0049698D01*
X0087275Y0049698D01*
X0086944Y0049610D01*
X0086658Y0049445D01*
X0086373Y0049610D01*
X0086042Y0049698D01*
X0084980Y0049698D01*
X0084980Y0044358D01*
X0084980Y0044543D02*
X0084399Y0044543D01*
X0084399Y0045142D02*
X0084980Y0045142D01*
X0084980Y0045740D02*
X0084399Y0045740D01*
X0084399Y0046339D02*
X0084980Y0046339D01*
X0084980Y0046937D02*
X0084399Y0046937D01*
X0084399Y0047536D02*
X0084980Y0047536D01*
X0084980Y0048134D02*
X0084399Y0048134D01*
X0084399Y0048733D02*
X0084980Y0048733D01*
X0084980Y0049332D02*
X0084399Y0049332D01*
X0088336Y0049332D02*
X0088917Y0049332D01*
X0088917Y0048733D02*
X0088336Y0048733D01*
X0088336Y0048134D02*
X0088917Y0048134D01*
X0088917Y0047536D02*
X0088336Y0047536D01*
X0088336Y0046937D02*
X0088917Y0046937D01*
X0088917Y0046339D02*
X0088336Y0046339D01*
X0088336Y0045740D02*
X0088917Y0045740D01*
X0088917Y0045142D02*
X0088336Y0045142D01*
X0088336Y0044543D02*
X0088917Y0044543D01*
X0083635Y0056514D02*
X0083035Y0056514D01*
X0083035Y0057112D02*
X0083635Y0057112D01*
X0083635Y0057711D02*
X0083035Y0057711D01*
X0083035Y0058309D02*
X0083635Y0058309D01*
X0083635Y0058908D02*
X0083035Y0058908D01*
X0081518Y0058908D02*
X0080973Y0058908D01*
X0085534Y0063696D02*
X0034730Y0063696D01*
X0035035Y0064294D02*
X0084936Y0064294D01*
X0084337Y0064893D02*
X0035246Y0064893D01*
X0034322Y0063097D02*
X0086133Y0063097D01*
X0086731Y0062499D02*
X0033796Y0062499D01*
X0033089Y0061900D02*
X0087330Y0061900D01*
X0087928Y0061302D02*
X0032061Y0061302D01*
X0024767Y0069681D02*
X0021918Y0069681D01*
X0021918Y0070279D02*
X0025202Y0070279D01*
X0025770Y0070878D02*
X0021918Y0070878D01*
X0021918Y0071476D02*
X0026535Y0071476D01*
X0027122Y0074469D02*
X0021918Y0074469D01*
X0021918Y0075068D02*
X0026291Y0075068D01*
X0025692Y0075666D02*
X0021918Y0075666D01*
X0021918Y0076265D02*
X0025253Y0076265D01*
X0024914Y0076863D02*
X0021918Y0076863D01*
X0021918Y0077462D02*
X0024651Y0077462D01*
X0024456Y0078060D02*
X0021918Y0078060D01*
X0021918Y0069082D02*
X0024455Y0069082D01*
X0024216Y0068484D02*
X0021918Y0068484D01*
X0021918Y0067885D02*
X0024035Y0067885D01*
X0023940Y0067287D02*
X0021918Y0067287D01*
X0119203Y0049698D02*
X0119556Y0050934D01*
X0132154Y0050934D01*
X0135698Y0052509D01*
X0136091Y0065501D01*
X0152627Y0083217D01*
X0152627Y0105265D01*
X0157745Y0110383D01*
X0166013Y0110383D01*
X0169980Y0108218D01*
X0169980Y0083267D01*
X0147902Y0062351D01*
X0147902Y0049359D01*
X0131881Y0040837D01*
X0130297Y0040837D01*
X0129653Y0040193D01*
X0129653Y0039652D01*
X0129398Y0039517D01*
X0126528Y0039517D01*
X0126541Y0039566D01*
X0126541Y0043777D01*
X0124350Y0043777D01*
X0124350Y0044358D01*
X0123769Y0044358D01*
X0123769Y0043777D01*
X0121579Y0043777D01*
X0120413Y0043777D01*
X0120413Y0044358D01*
X0119832Y0044358D01*
X0119832Y0049698D01*
X0119203Y0049698D01*
X0119269Y0049930D02*
X0147902Y0049930D01*
X0147902Y0050529D02*
X0119440Y0050529D01*
X0119832Y0049332D02*
X0120413Y0049332D01*
X0120413Y0049698D02*
X0120413Y0044358D01*
X0123769Y0044358D01*
X0123769Y0049698D01*
X0122708Y0049698D01*
X0122377Y0049610D01*
X0122091Y0049445D01*
X0121806Y0049610D01*
X0121475Y0049698D01*
X0120413Y0049698D01*
X0120413Y0048733D02*
X0119832Y0048733D01*
X0119832Y0048134D02*
X0120413Y0048134D01*
X0120413Y0047536D02*
X0119832Y0047536D01*
X0119832Y0046937D02*
X0120413Y0046937D01*
X0120413Y0046339D02*
X0119832Y0046339D01*
X0119832Y0045740D02*
X0120413Y0045740D01*
X0120413Y0045142D02*
X0119832Y0045142D01*
X0119832Y0044543D02*
X0120413Y0044543D01*
X0120413Y0043945D02*
X0123769Y0043945D01*
X0124350Y0043945D02*
X0137724Y0043945D01*
X0138849Y0044543D02*
X0126541Y0044543D01*
X0126541Y0044358D02*
X0126541Y0048570D01*
X0126452Y0048900D01*
X0126281Y0049197D01*
X0126039Y0049439D01*
X0125743Y0049610D01*
X0125412Y0049698D01*
X0124350Y0049698D01*
X0124350Y0044358D01*
X0126541Y0044358D01*
X0126541Y0045142D02*
X0139974Y0045142D01*
X0141099Y0045740D02*
X0126541Y0045740D01*
X0126541Y0046339D02*
X0142225Y0046339D01*
X0143350Y0046937D02*
X0126541Y0046937D01*
X0126541Y0047536D02*
X0144475Y0047536D01*
X0145600Y0048134D02*
X0126541Y0048134D01*
X0126497Y0048733D02*
X0146725Y0048733D01*
X0147851Y0049332D02*
X0126146Y0049332D01*
X0124350Y0049332D02*
X0123769Y0049332D01*
X0123769Y0048733D02*
X0124350Y0048733D01*
X0124350Y0048134D02*
X0123769Y0048134D01*
X0123769Y0047536D02*
X0124350Y0047536D01*
X0124350Y0046937D02*
X0123769Y0046937D01*
X0123769Y0046339D02*
X0124350Y0046339D01*
X0124350Y0045740D02*
X0123769Y0045740D01*
X0123769Y0045142D02*
X0124350Y0045142D01*
X0124350Y0044543D02*
X0123769Y0044543D01*
X0126541Y0043346D02*
X0136599Y0043346D01*
X0135473Y0042748D02*
X0126541Y0042748D01*
X0126541Y0042149D02*
X0134348Y0042149D01*
X0133223Y0041551D02*
X0126541Y0041551D01*
X0126541Y0040952D02*
X0132098Y0040952D01*
X0129814Y0040354D02*
X0126541Y0040354D01*
X0126541Y0039755D02*
X0129653Y0039755D01*
X0132589Y0051127D02*
X0136579Y0051127D01*
X0136632Y0051075D02*
X0136928Y0050904D01*
X0137259Y0050815D01*
X0140122Y0050815D01*
X0140122Y0058114D01*
X0140722Y0058114D01*
X0140722Y0050815D01*
X0143585Y0050815D01*
X0143916Y0050904D01*
X0144212Y0051075D01*
X0144454Y0051317D01*
X0144626Y0051613D01*
X0144714Y0051944D01*
X0144714Y0058114D01*
X0140722Y0058114D01*
X0140722Y0058714D01*
X0144714Y0058714D01*
X0144714Y0064885D01*
X0144626Y0065215D01*
X0144454Y0065512D01*
X0144212Y0065754D01*
X0143916Y0065925D01*
X0143585Y0066013D01*
X0140722Y0066013D01*
X0140722Y0058714D01*
X0140122Y0058714D01*
X0140122Y0058114D01*
X0136130Y0058114D01*
X0136130Y0051944D01*
X0136219Y0051613D01*
X0136390Y0051317D01*
X0136632Y0051075D01*
X0136188Y0051726D02*
X0133936Y0051726D01*
X0135282Y0052324D02*
X0136130Y0052324D01*
X0136130Y0052923D02*
X0135710Y0052923D01*
X0135728Y0053521D02*
X0136130Y0053521D01*
X0136130Y0054120D02*
X0135746Y0054120D01*
X0135765Y0054718D02*
X0136130Y0054718D01*
X0136130Y0055317D02*
X0135783Y0055317D01*
X0135801Y0055915D02*
X0136130Y0055915D01*
X0136130Y0056514D02*
X0135819Y0056514D01*
X0135837Y0057112D02*
X0136130Y0057112D01*
X0136130Y0057711D02*
X0135855Y0057711D01*
X0135873Y0058309D02*
X0140122Y0058309D01*
X0140122Y0058714D02*
X0136130Y0058714D01*
X0136130Y0064885D01*
X0136219Y0065215D01*
X0136390Y0065512D01*
X0136632Y0065754D01*
X0136928Y0065925D01*
X0137259Y0066013D01*
X0140122Y0066013D01*
X0140122Y0058714D01*
X0140122Y0058908D02*
X0140722Y0058908D01*
X0140722Y0059506D02*
X0140122Y0059506D01*
X0140122Y0060105D02*
X0140722Y0060105D01*
X0140722Y0060703D02*
X0140122Y0060703D01*
X0140122Y0061302D02*
X0140722Y0061302D01*
X0140722Y0061900D02*
X0140122Y0061900D01*
X0140122Y0062499D02*
X0140722Y0062499D01*
X0140722Y0063097D02*
X0140122Y0063097D01*
X0140122Y0063696D02*
X0140722Y0063696D01*
X0140722Y0064294D02*
X0140122Y0064294D01*
X0140122Y0064893D02*
X0140722Y0064893D01*
X0140722Y0065491D02*
X0140122Y0065491D01*
X0137758Y0067287D02*
X0153112Y0067287D01*
X0152480Y0066688D02*
X0137200Y0066688D01*
X0136641Y0066090D02*
X0151849Y0066090D01*
X0151217Y0065491D02*
X0144466Y0065491D01*
X0144712Y0064893D02*
X0150585Y0064893D01*
X0149953Y0064294D02*
X0144714Y0064294D01*
X0144714Y0063696D02*
X0149322Y0063696D01*
X0148690Y0063097D02*
X0144714Y0063097D01*
X0144714Y0062499D02*
X0148058Y0062499D01*
X0147902Y0061900D02*
X0144714Y0061900D01*
X0144714Y0061302D02*
X0147902Y0061302D01*
X0147902Y0060703D02*
X0144714Y0060703D01*
X0144714Y0060105D02*
X0147902Y0060105D01*
X0147902Y0059506D02*
X0144714Y0059506D01*
X0144714Y0058908D02*
X0147902Y0058908D01*
X0147902Y0058309D02*
X0140722Y0058309D01*
X0140722Y0057711D02*
X0140122Y0057711D01*
X0140122Y0057112D02*
X0140722Y0057112D01*
X0140722Y0056514D02*
X0140122Y0056514D01*
X0140122Y0055915D02*
X0140722Y0055915D01*
X0140722Y0055317D02*
X0140122Y0055317D01*
X0140122Y0054718D02*
X0140722Y0054718D01*
X0140722Y0054120D02*
X0140122Y0054120D01*
X0140122Y0053521D02*
X0140722Y0053521D01*
X0140722Y0052923D02*
X0140122Y0052923D01*
X0140122Y0052324D02*
X0140722Y0052324D01*
X0140722Y0051726D02*
X0140122Y0051726D01*
X0140122Y0051127D02*
X0140722Y0051127D01*
X0144265Y0051127D02*
X0147902Y0051127D01*
X0147902Y0051726D02*
X0144656Y0051726D01*
X0144714Y0052324D02*
X0147902Y0052324D01*
X0147902Y0052923D02*
X0144714Y0052923D01*
X0144714Y0053521D02*
X0147902Y0053521D01*
X0147902Y0054120D02*
X0144714Y0054120D01*
X0144714Y0054718D02*
X0147902Y0054718D01*
X0147902Y0055317D02*
X0144714Y0055317D01*
X0144714Y0055915D02*
X0147902Y0055915D01*
X0147902Y0056514D02*
X0144714Y0056514D01*
X0144714Y0057112D02*
X0147902Y0057112D01*
X0147902Y0057711D02*
X0144714Y0057711D01*
X0136130Y0058908D02*
X0135892Y0058908D01*
X0135910Y0059506D02*
X0136130Y0059506D01*
X0136130Y0060105D02*
X0135928Y0060105D01*
X0135946Y0060703D02*
X0136130Y0060703D01*
X0136130Y0061302D02*
X0135964Y0061302D01*
X0135982Y0061900D02*
X0136130Y0061900D01*
X0136130Y0062499D02*
X0136000Y0062499D01*
X0136019Y0063097D02*
X0136130Y0063097D01*
X0136130Y0063696D02*
X0136037Y0063696D01*
X0136055Y0064294D02*
X0136130Y0064294D01*
X0136132Y0064893D02*
X0136073Y0064893D01*
X0136091Y0065491D02*
X0136378Y0065491D01*
X0138317Y0067885D02*
X0153744Y0067885D01*
X0154376Y0068484D02*
X0138876Y0068484D01*
X0139434Y0069082D02*
X0155008Y0069082D01*
X0155639Y0069681D02*
X0139993Y0069681D01*
X0140551Y0070279D02*
X0156271Y0070279D01*
X0156903Y0070878D02*
X0141110Y0070878D01*
X0141669Y0071476D02*
X0157535Y0071476D01*
X0158166Y0072075D02*
X0142227Y0072075D01*
X0142786Y0072673D02*
X0158798Y0072673D01*
X0159430Y0073272D02*
X0143344Y0073272D01*
X0143903Y0073870D02*
X0160062Y0073870D01*
X0160693Y0074469D02*
X0144462Y0074469D01*
X0145020Y0075068D02*
X0161325Y0075068D01*
X0161957Y0075666D02*
X0145579Y0075666D01*
X0146137Y0076265D02*
X0162589Y0076265D01*
X0163220Y0076863D02*
X0146696Y0076863D01*
X0147255Y0077462D02*
X0163852Y0077462D01*
X0164484Y0078060D02*
X0147813Y0078060D01*
X0148372Y0078659D02*
X0165116Y0078659D01*
X0165747Y0079257D02*
X0148931Y0079257D01*
X0149489Y0079856D02*
X0158514Y0079856D01*
X0158361Y0079905D02*
X0159229Y0079623D01*
X0160131Y0079480D01*
X0160287Y0079480D01*
X0160287Y0084980D01*
X0154787Y0084980D01*
X0154787Y0084824D01*
X0154930Y0083922D01*
X0155212Y0083054D01*
X0155627Y0082240D01*
X0156163Y0081502D01*
X0156809Y0080856D01*
X0157548Y0080320D01*
X0158361Y0079905D01*
X0157363Y0080454D02*
X0150048Y0080454D01*
X0150606Y0081053D02*
X0156613Y0081053D01*
X0156055Y0081651D02*
X0151165Y0081651D01*
X0151724Y0082250D02*
X0155622Y0082250D01*
X0155317Y0082848D02*
X0152282Y0082848D01*
X0152627Y0083447D02*
X0155085Y0083447D01*
X0154911Y0084045D02*
X0152627Y0084045D01*
X0152627Y0084644D02*
X0154816Y0084644D01*
X0154787Y0085580D02*
X0160287Y0085580D01*
X0160287Y0084980D01*
X0160887Y0084980D01*
X0160887Y0079480D01*
X0161044Y0079480D01*
X0161946Y0079623D01*
X0162814Y0079905D01*
X0163627Y0080320D01*
X0164366Y0080856D01*
X0165011Y0081502D01*
X0165548Y0082240D01*
X0165962Y0083054D01*
X0166245Y0083922D01*
X0166387Y0084824D01*
X0166387Y0084980D01*
X0160887Y0084980D01*
X0160887Y0085580D01*
X0160287Y0085580D01*
X0160287Y0091080D01*
X0160131Y0091080D01*
X0159229Y0090937D01*
X0158361Y0090655D01*
X0157548Y0090241D01*
X0156809Y0089704D01*
X0156163Y0089059D01*
X0155627Y0088320D01*
X0155212Y0087507D01*
X0154930Y0086638D01*
X0154787Y0085737D01*
X0154787Y0085580D01*
X0154804Y0085841D02*
X0152627Y0085841D01*
X0152627Y0086439D02*
X0154899Y0086439D01*
X0155060Y0087038D02*
X0152627Y0087038D01*
X0152627Y0087636D02*
X0155278Y0087636D01*
X0155583Y0088235D02*
X0152627Y0088235D01*
X0152627Y0088833D02*
X0156000Y0088833D01*
X0156536Y0089432D02*
X0152627Y0089432D01*
X0152627Y0090030D02*
X0157258Y0090030D01*
X0158309Y0090629D02*
X0152627Y0090629D01*
X0152627Y0091227D02*
X0169980Y0091227D01*
X0169980Y0090629D02*
X0162866Y0090629D01*
X0162814Y0090655D02*
X0161946Y0090937D01*
X0161044Y0091080D01*
X0160887Y0091080D01*
X0160887Y0085580D01*
X0166387Y0085580D01*
X0166387Y0085737D01*
X0166245Y0086638D01*
X0165962Y0087507D01*
X0165548Y0088320D01*
X0165011Y0089059D01*
X0164366Y0089704D01*
X0163627Y0090241D01*
X0162814Y0090655D01*
X0163917Y0090030D02*
X0169980Y0090030D01*
X0169980Y0089432D02*
X0164638Y0089432D01*
X0165175Y0088833D02*
X0169980Y0088833D01*
X0169980Y0088235D02*
X0165592Y0088235D01*
X0165896Y0087636D02*
X0169980Y0087636D01*
X0169980Y0087038D02*
X0166115Y0087038D01*
X0166276Y0086439D02*
X0169980Y0086439D01*
X0169980Y0085841D02*
X0166371Y0085841D01*
X0166359Y0084644D02*
X0169980Y0084644D01*
X0169980Y0085242D02*
X0160887Y0085242D01*
X0160887Y0084644D02*
X0160287Y0084644D01*
X0160287Y0085242D02*
X0152627Y0085242D01*
X0152627Y0091826D02*
X0169980Y0091826D01*
X0169980Y0092424D02*
X0152627Y0092424D01*
X0152627Y0093023D02*
X0169980Y0093023D01*
X0169980Y0093621D02*
X0152627Y0093621D01*
X0152627Y0094220D02*
X0169980Y0094220D01*
X0169980Y0094818D02*
X0152627Y0094818D01*
X0152627Y0095417D02*
X0169980Y0095417D01*
X0169980Y0096015D02*
X0152627Y0096015D01*
X0152627Y0096614D02*
X0169980Y0096614D01*
X0169980Y0097212D02*
X0152627Y0097212D01*
X0152627Y0097811D02*
X0159916Y0097811D01*
X0159966Y0097803D02*
X0159064Y0097946D01*
X0158196Y0098228D01*
X0157382Y0098643D01*
X0156644Y0099179D01*
X0155998Y0099825D01*
X0155461Y0100563D01*
X0155047Y0101377D01*
X0154765Y0102245D01*
X0154622Y0103147D01*
X0154622Y0103303D01*
X0160122Y0103303D01*
X0160722Y0103303D01*
X0160722Y0097803D01*
X0160879Y0097803D01*
X0161780Y0097946D01*
X0162648Y0098228D01*
X0163462Y0098643D01*
X0164200Y0099179D01*
X0164846Y0099825D01*
X0165383Y0100563D01*
X0165797Y0101377D01*
X0166079Y0102245D01*
X0166222Y0103147D01*
X0166222Y0103303D01*
X0160722Y0103303D01*
X0160722Y0103903D01*
X0166222Y0103903D01*
X0166222Y0104060D01*
X0166079Y0104961D01*
X0165797Y0105830D01*
X0165383Y0106643D01*
X0164846Y0107382D01*
X0164200Y0108027D01*
X0163462Y0108564D01*
X0162648Y0108978D01*
X0161780Y0109260D01*
X0160879Y0109403D01*
X0160722Y0109403D01*
X0160722Y0103903D01*
X0160122Y0103903D01*
X0160122Y0103303D01*
X0160122Y0097803D01*
X0159966Y0097803D01*
X0160122Y0097811D02*
X0160722Y0097811D01*
X0160928Y0097811D02*
X0169980Y0097811D01*
X0169980Y0098409D02*
X0163004Y0098409D01*
X0163965Y0099008D02*
X0169980Y0099008D01*
X0169980Y0099606D02*
X0164628Y0099606D01*
X0165122Y0100205D02*
X0169980Y0100205D01*
X0169980Y0100803D02*
X0165505Y0100803D01*
X0165805Y0101402D02*
X0169980Y0101402D01*
X0169980Y0102001D02*
X0166000Y0102001D01*
X0166135Y0102599D02*
X0169980Y0102599D01*
X0169980Y0103198D02*
X0166222Y0103198D01*
X0166169Y0104395D02*
X0169980Y0104395D01*
X0169980Y0104993D02*
X0166069Y0104993D01*
X0165874Y0105592D02*
X0169980Y0105592D01*
X0169980Y0106190D02*
X0165613Y0106190D01*
X0165277Y0106789D02*
X0169980Y0106789D01*
X0169980Y0107387D02*
X0164840Y0107387D01*
X0164242Y0107986D02*
X0169980Y0107986D01*
X0169310Y0108584D02*
X0163422Y0108584D01*
X0162019Y0109183D02*
X0168213Y0109183D01*
X0167115Y0109781D02*
X0157143Y0109781D01*
X0156545Y0109183D02*
X0158825Y0109183D01*
X0159064Y0109260D02*
X0158196Y0108978D01*
X0157382Y0108564D01*
X0156644Y0108027D01*
X0155998Y0107382D01*
X0155461Y0106643D01*
X0155047Y0105830D01*
X0154765Y0104961D01*
X0154622Y0104060D01*
X0154622Y0103903D01*
X0160122Y0103903D01*
X0160122Y0109403D01*
X0159966Y0109403D01*
X0159064Y0109260D01*
X0160122Y0109183D02*
X0160722Y0109183D01*
X0160722Y0108584D02*
X0160122Y0108584D01*
X0160122Y0107986D02*
X0160722Y0107986D01*
X0160722Y0107387D02*
X0160122Y0107387D01*
X0160122Y0106789D02*
X0160722Y0106789D01*
X0160722Y0106190D02*
X0160122Y0106190D01*
X0160122Y0105592D02*
X0160722Y0105592D01*
X0160722Y0104993D02*
X0160122Y0104993D01*
X0160122Y0104395D02*
X0160722Y0104395D01*
X0160722Y0103796D02*
X0169980Y0103796D01*
X0166018Y0110380D02*
X0157742Y0110380D01*
X0157422Y0108584D02*
X0155946Y0108584D01*
X0155348Y0107986D02*
X0156602Y0107986D01*
X0156004Y0107387D02*
X0154749Y0107387D01*
X0154151Y0106789D02*
X0155567Y0106789D01*
X0155231Y0106190D02*
X0153552Y0106190D01*
X0152954Y0105592D02*
X0154970Y0105592D01*
X0154775Y0104993D02*
X0152627Y0104993D01*
X0152627Y0104395D02*
X0154675Y0104395D01*
X0154622Y0103198D02*
X0152627Y0103198D01*
X0152627Y0103796D02*
X0160122Y0103796D01*
X0160122Y0103198D02*
X0160722Y0103198D01*
X0160722Y0102599D02*
X0160122Y0102599D01*
X0160122Y0102001D02*
X0160722Y0102001D01*
X0160722Y0101402D02*
X0160122Y0101402D01*
X0160122Y0100803D02*
X0160722Y0100803D01*
X0160722Y0100205D02*
X0160122Y0100205D01*
X0160122Y0099606D02*
X0160722Y0099606D01*
X0160722Y0099008D02*
X0160122Y0099008D01*
X0160122Y0098409D02*
X0160722Y0098409D01*
X0157840Y0098409D02*
X0152627Y0098409D01*
X0152627Y0099008D02*
X0156879Y0099008D01*
X0156216Y0099606D02*
X0152627Y0099606D01*
X0152627Y0100205D02*
X0155722Y0100205D01*
X0155339Y0100803D02*
X0152627Y0100803D01*
X0152627Y0101402D02*
X0155039Y0101402D01*
X0154844Y0102001D02*
X0152627Y0102001D01*
X0152627Y0102599D02*
X0154709Y0102599D01*
X0160287Y0090629D02*
X0160887Y0090629D01*
X0160887Y0090030D02*
X0160287Y0090030D01*
X0160287Y0089432D02*
X0160887Y0089432D01*
X0160887Y0088833D02*
X0160287Y0088833D01*
X0160287Y0088235D02*
X0160887Y0088235D01*
X0160887Y0087636D02*
X0160287Y0087636D01*
X0160287Y0087038D02*
X0160887Y0087038D01*
X0160887Y0086439D02*
X0160287Y0086439D01*
X0160287Y0085841D02*
X0160887Y0085841D01*
X0160887Y0084045D02*
X0160287Y0084045D01*
X0160287Y0083447D02*
X0160887Y0083447D01*
X0160887Y0082848D02*
X0160287Y0082848D01*
X0160287Y0082250D02*
X0160887Y0082250D01*
X0160887Y0081651D02*
X0160287Y0081651D01*
X0160287Y0081053D02*
X0160887Y0081053D01*
X0160887Y0080454D02*
X0160287Y0080454D01*
X0160287Y0079856D02*
X0160887Y0079856D01*
X0162661Y0079856D02*
X0166379Y0079856D01*
X0167011Y0080454D02*
X0163812Y0080454D01*
X0164562Y0081053D02*
X0167643Y0081053D01*
X0168275Y0081651D02*
X0165120Y0081651D01*
X0165553Y0082250D02*
X0168906Y0082250D01*
X0169538Y0082848D02*
X0165858Y0082848D01*
X0166090Y0083447D02*
X0169980Y0083447D01*
X0169980Y0084045D02*
X0166264Y0084045D01*
D22*
X0160461Y0121761D02*
X0160461Y0131217D01*
X0154177Y0134445D02*
X0160461Y0140729D01*
X0160461Y0144367D01*
X0154177Y0134445D02*
X0154177Y0121382D01*
X0123112Y0090317D01*
X0123112Y0075161D01*
X0122297Y0074346D01*
X0121709Y0074346D01*
X0119556Y0072194D01*
X0119556Y0057233D01*
X0112469Y0050146D01*
X0112469Y0044288D01*
X0112249Y0044068D01*
X0116186Y0044068D02*
X0116406Y0044288D01*
X0116406Y0050540D01*
X0119556Y0053690D01*
X0126249Y0053690D01*
X0127824Y0055265D01*
X0127824Y0057627D01*
X0125671Y0059780D01*
X0125082Y0059780D01*
X0124268Y0060594D01*
X0124268Y0071589D01*
X0127824Y0075144D01*
X0127824Y0089123D01*
X0160461Y0121761D01*
X0115743Y0070690D02*
X0116813Y0069620D01*
X0116813Y0060594D01*
X0115998Y0059780D01*
X0115409Y0059780D01*
X0113257Y0057627D01*
X0113257Y0055658D01*
X0108139Y0050540D01*
X0108139Y0044241D01*
X0108312Y0044068D01*
X0104375Y0044068D02*
X0104202Y0044241D01*
X0104202Y0052115D01*
X0103414Y0052902D01*
X0103414Y0071800D01*
X0105567Y0073953D01*
X0106156Y0073953D01*
X0106970Y0074767D01*
X0106970Y0092260D01*
X0101839Y0097391D01*
X0065131Y0134099D01*
X0069162Y0138131D01*
X0069162Y0156446D01*
X0081761Y0169044D01*
X0088454Y0169044D01*
X0090698Y0166800D01*
X0090698Y0158965D01*
X0085698Y0158965D02*
X0073493Y0146761D01*
X0073493Y0134398D01*
X0072706Y0133611D01*
X0077430Y0128493D02*
X0077824Y0128493D01*
X0077824Y0128887D01*
X0085698Y0136761D01*
X0085698Y0143611D01*
X0105698Y0152152D02*
X0108151Y0149699D01*
X0109332Y0148584D01*
X0113650Y0144241D01*
X0115743Y0142149D01*
X0115743Y0070690D01*
X0097509Y0053690D02*
X0100438Y0050761D01*
X0100438Y0044068D01*
X0096501Y0044068D02*
X0096501Y0049580D01*
X0090816Y0055265D01*
X0090816Y0061564D01*
X0089241Y0063139D01*
X0089241Y0071800D01*
X0077824Y0071800D01*
X0075965Y0073658D01*
X0075965Y0077446D01*
X0068241Y0077446D01*
X0055383Y0090304D01*
X0051455Y0090304D01*
X0051455Y0102912D01*
X0058139Y0109595D01*
X0059196Y0115068D02*
X0059196Y0120888D01*
X0064044Y0125737D01*
X0065131Y0134099D02*
X0028572Y0134099D01*
X0028572Y0151792D02*
X0056635Y0151792D01*
X0078217Y0173375D01*
X0103414Y0173375D01*
X0105383Y0171406D01*
X0105383Y0159280D01*
X0105698Y0158965D01*
X0105698Y0152152D01*
X0069595Y0115068D02*
X0093953Y0090710D01*
X0093953Y0060594D01*
X0094767Y0059780D01*
X0095356Y0059780D01*
X0097509Y0057627D01*
X0097509Y0053690D01*
X0075965Y0084532D02*
X0075887Y0084611D01*
X0075887Y0092926D01*
X0069595Y0115068D02*
X0059196Y0115068D01*
X0028965Y0115068D01*
X0028965Y0098784D02*
X0037446Y0090304D01*
X0051455Y0090304D01*
X0101052Y0098178D02*
X0101839Y0097391D01*
D23*
X0016800Y0021800D02*
X0016800Y0179280D01*
X0174280Y0179280D01*
X0174280Y0021800D01*
X0016800Y0021800D01*
M02*
