G75*
%MOIN*%
%OFA0B0*%
%FSLAX25Y25*%
%IPPOS*%
%LPD*%
%AMOC8*
5,1,8,0,0,1.08239X$1,22.5*
%
%ADD10C,0.00400*%
%ADD11C,0.00600*%
%ADD12C,0.00300*%
%ADD13C,0.01181*%
%ADD14C,0.00200*%
%ADD15C,0.00500*%
%ADD16C,0.01575*%
%ADD17C,0.00591*%
%ADD18C,0.00472*%
%ADD19C,0.01600*%
%ADD20C,0.01200*%
D10*
X0018633Y0032909D02*
X0018633Y0035171D01*
X0019387Y0035925D01*
X0020142Y0035925D01*
X0020896Y0035171D01*
X0020896Y0032909D01*
X0020896Y0035171D02*
X0021650Y0035925D01*
X0022404Y0035925D01*
X0023158Y0035171D01*
X0023158Y0032909D01*
X0018633Y0032909D01*
X0019387Y0037440D02*
X0020142Y0037440D01*
X0020896Y0038194D01*
X0020896Y0039703D01*
X0021650Y0040457D01*
X0022404Y0040457D01*
X0023158Y0039703D01*
X0023158Y0038194D01*
X0022404Y0037440D01*
X0019387Y0037440D02*
X0018633Y0038194D01*
X0018633Y0039703D01*
X0019387Y0040457D01*
X0018633Y0041972D02*
X0023158Y0041972D01*
X0023158Y0044988D01*
X0020896Y0043480D02*
X0020896Y0041972D01*
X0018633Y0041972D02*
X0018633Y0044988D01*
X0025261Y0047257D02*
X0026015Y0047257D01*
X0027523Y0047257D02*
X0030540Y0047257D01*
X0030540Y0046503D02*
X0030540Y0048011D01*
X0029786Y0049524D02*
X0030540Y0050278D01*
X0030540Y0051786D01*
X0029786Y0052541D01*
X0029032Y0052541D01*
X0028278Y0051786D01*
X0028278Y0050278D01*
X0027523Y0049524D01*
X0026769Y0049524D01*
X0026015Y0050278D01*
X0026015Y0051786D01*
X0026769Y0052541D01*
X0027523Y0054809D02*
X0027523Y0056318D01*
X0028278Y0057072D01*
X0030540Y0057072D01*
X0030540Y0054809D01*
X0029786Y0054055D01*
X0029032Y0054809D01*
X0029032Y0057072D01*
X0027523Y0058587D02*
X0027523Y0060095D01*
X0026769Y0059341D02*
X0029786Y0059341D01*
X0030540Y0060095D01*
X0030540Y0066139D02*
X0026015Y0066139D01*
X0026015Y0068402D01*
X0026769Y0069156D01*
X0028278Y0069156D01*
X0029032Y0068402D01*
X0029032Y0066139D01*
X0024667Y0062360D02*
X0023912Y0063114D01*
X0020142Y0063114D01*
X0020142Y0060851D01*
X0020896Y0060097D01*
X0022404Y0060097D01*
X0023158Y0060851D01*
X0023158Y0063114D01*
X0024667Y0062360D02*
X0024667Y0061606D01*
X0023158Y0058583D02*
X0020142Y0058583D01*
X0023158Y0058583D02*
X0023158Y0056320D01*
X0022404Y0055566D01*
X0020142Y0055566D01*
X0020142Y0054051D02*
X0023158Y0054051D01*
X0020896Y0054051D02*
X0020896Y0051034D01*
X0020142Y0051034D02*
X0018633Y0052543D01*
X0020142Y0054051D01*
X0020142Y0051034D02*
X0023158Y0051034D01*
X0027523Y0047257D02*
X0027523Y0046503D01*
X0026015Y0044988D02*
X0029786Y0044988D01*
X0030540Y0044234D01*
X0030540Y0042726D01*
X0029786Y0041972D01*
X0026015Y0041972D01*
X0026769Y0040457D02*
X0029786Y0040457D01*
X0030540Y0039703D01*
X0030540Y0038194D01*
X0029786Y0037440D01*
X0026769Y0037440D01*
X0026015Y0038194D01*
X0026015Y0039703D01*
X0026769Y0040457D01*
X0029032Y0038948D02*
X0030540Y0040457D01*
X0030540Y0035925D02*
X0030540Y0032909D01*
X0026015Y0032909D01*
X0026015Y0035925D01*
X0028278Y0034417D02*
X0028278Y0032909D01*
X0022404Y0064629D02*
X0020142Y0064629D01*
X0022404Y0064629D02*
X0023158Y0065383D01*
X0023158Y0067645D01*
X0020142Y0067645D01*
X0020896Y0069160D02*
X0020142Y0069914D01*
X0020142Y0072177D01*
X0020142Y0073691D02*
X0020142Y0075200D01*
X0019387Y0074446D02*
X0022404Y0074446D01*
X0023158Y0075200D01*
X0022404Y0072177D02*
X0021650Y0071423D01*
X0021650Y0069914D01*
X0020896Y0069160D01*
X0023158Y0069160D02*
X0023158Y0071423D01*
X0022404Y0072177D01*
X0027523Y0072179D02*
X0027523Y0072933D01*
X0027523Y0072179D02*
X0029032Y0070671D01*
X0030540Y0070671D02*
X0027523Y0070671D01*
X0029786Y0074447D02*
X0029032Y0075201D01*
X0029032Y0077463D01*
X0028278Y0077463D02*
X0030540Y0077463D01*
X0030540Y0075201D01*
X0029786Y0074447D01*
X0027523Y0075201D02*
X0027523Y0076709D01*
X0028278Y0077463D01*
X0028278Y0078978D02*
X0029786Y0078978D01*
X0030540Y0079732D01*
X0030540Y0081995D01*
X0029786Y0084264D02*
X0026769Y0084264D01*
X0027523Y0083510D02*
X0027523Y0085018D01*
X0027523Y0086530D02*
X0027523Y0087285D01*
X0030540Y0087285D01*
X0030540Y0088039D02*
X0030540Y0086530D01*
X0030540Y0085018D02*
X0029786Y0084264D01*
X0027523Y0081995D02*
X0027523Y0079732D01*
X0028278Y0078978D01*
X0023158Y0081244D02*
X0020142Y0084261D01*
X0019387Y0084261D01*
X0018633Y0083506D01*
X0018633Y0081998D01*
X0019387Y0081244D01*
X0023158Y0081244D02*
X0023158Y0084261D01*
X0022404Y0085775D02*
X0019387Y0088792D01*
X0022404Y0088792D01*
X0023158Y0088038D01*
X0023158Y0086529D01*
X0022404Y0085775D01*
X0019387Y0085775D01*
X0018633Y0086529D01*
X0018633Y0088038D01*
X0019387Y0088792D01*
X0020142Y0090307D02*
X0018633Y0091815D01*
X0023158Y0091815D01*
X0023158Y0090307D02*
X0023158Y0093323D01*
X0023158Y0094838D02*
X0022404Y0094838D01*
X0019387Y0097855D01*
X0018633Y0097855D01*
X0018633Y0094838D01*
X0027523Y0094837D02*
X0027523Y0096345D01*
X0028278Y0097100D01*
X0029032Y0097100D01*
X0029032Y0094083D01*
X0029786Y0094083D02*
X0028278Y0094083D01*
X0027523Y0094837D01*
X0027523Y0092568D02*
X0027523Y0090306D01*
X0028278Y0089551D01*
X0029786Y0089551D01*
X0030540Y0090306D01*
X0030540Y0092568D01*
X0029786Y0094083D02*
X0030540Y0094837D01*
X0030540Y0096345D01*
X0030540Y0103146D02*
X0026015Y0103146D01*
X0026015Y0105408D01*
X0026769Y0106162D01*
X0027523Y0106162D01*
X0028278Y0105408D01*
X0028278Y0103146D01*
X0030540Y0103146D02*
X0030540Y0105408D01*
X0029786Y0106162D01*
X0029032Y0106162D01*
X0028278Y0105408D01*
X0028278Y0107677D02*
X0029786Y0107677D01*
X0030540Y0108431D01*
X0030540Y0109940D01*
X0029786Y0110694D01*
X0028278Y0110694D01*
X0027523Y0109940D01*
X0027523Y0108431D01*
X0028278Y0107677D01*
X0029786Y0112209D02*
X0029032Y0112963D01*
X0029032Y0115225D01*
X0028278Y0115225D02*
X0030540Y0115225D01*
X0030540Y0112963D01*
X0029786Y0112209D01*
X0027523Y0112963D02*
X0027523Y0114471D01*
X0028278Y0115225D01*
X0029032Y0116740D02*
X0027523Y0118248D01*
X0027523Y0119003D01*
X0028278Y0120516D02*
X0027523Y0121270D01*
X0027523Y0123533D01*
X0026015Y0123533D02*
X0030540Y0123533D01*
X0030540Y0121270D01*
X0029786Y0120516D01*
X0028278Y0120516D01*
X0027523Y0116740D02*
X0030540Y0116740D01*
X0029032Y0129579D02*
X0030540Y0131087D01*
X0029032Y0132596D01*
X0026015Y0132596D01*
X0027523Y0134110D02*
X0026015Y0135619D01*
X0030540Y0135619D01*
X0030540Y0137127D02*
X0030540Y0134110D01*
X0029032Y0129579D02*
X0026015Y0129579D01*
X0026015Y0087285D02*
X0025261Y0087285D01*
X0098771Y0017374D02*
X0098771Y0015839D01*
X0099538Y0015072D01*
X0099538Y0013537D02*
X0100306Y0013537D01*
X0101073Y0012770D01*
X0101073Y0010468D01*
X0101073Y0012770D02*
X0101840Y0013537D01*
X0102607Y0013537D01*
X0103375Y0012770D01*
X0103375Y0010468D01*
X0098771Y0010468D01*
X0098771Y0012770D01*
X0099538Y0013537D01*
X0103375Y0015072D02*
X0100306Y0018141D01*
X0099538Y0018141D01*
X0098771Y0017374D01*
X0103375Y0018141D02*
X0103375Y0015072D01*
X0178397Y0063460D02*
X0178397Y0064994D01*
X0178397Y0064227D02*
X0183001Y0064227D01*
X0183001Y0063460D02*
X0183001Y0064994D01*
X0183001Y0066529D02*
X0179932Y0066529D01*
X0179932Y0068831D01*
X0180699Y0069598D01*
X0183001Y0069598D01*
X0183001Y0071133D02*
X0183001Y0073435D01*
X0182233Y0074202D01*
X0180699Y0074202D01*
X0179932Y0073435D01*
X0179932Y0071133D01*
X0184535Y0071133D01*
X0185897Y0071133D02*
X0186664Y0070366D01*
X0187432Y0070366D01*
X0188199Y0071133D01*
X0188199Y0072668D01*
X0188966Y0073435D01*
X0189733Y0073435D01*
X0190501Y0072668D01*
X0190501Y0071133D01*
X0189733Y0070366D01*
X0188966Y0070366D01*
X0188199Y0071133D01*
X0188199Y0072668D02*
X0187432Y0073435D01*
X0186664Y0073435D01*
X0185897Y0072668D01*
X0185897Y0071133D01*
X0185897Y0074970D02*
X0188966Y0074970D01*
X0190501Y0076504D01*
X0188966Y0078039D01*
X0185897Y0078039D01*
X0183001Y0078806D02*
X0179932Y0078806D01*
X0179932Y0080341D02*
X0179932Y0081876D01*
X0179164Y0081108D02*
X0182233Y0081108D01*
X0183001Y0081876D01*
X0183001Y0078806D02*
X0183001Y0076504D01*
X0182233Y0075737D01*
X0179932Y0075737D01*
X0189733Y0068831D02*
X0190501Y0068831D01*
X0190501Y0068064D01*
X0189733Y0068064D01*
X0189733Y0068831D01*
X0190501Y0066529D02*
X0190501Y0063460D01*
X0190501Y0064994D02*
X0185897Y0064994D01*
X0187432Y0063460D01*
X0188199Y0084177D02*
X0188199Y0087247D01*
X0183001Y0088014D02*
X0178397Y0088014D01*
X0178397Y0090316D01*
X0179164Y0091083D01*
X0180699Y0091083D01*
X0181466Y0090316D01*
X0181466Y0088014D01*
X0181466Y0089549D02*
X0183001Y0091083D01*
X0182233Y0092618D02*
X0181466Y0093385D01*
X0181466Y0095687D01*
X0180699Y0095687D02*
X0183001Y0095687D01*
X0183001Y0093385D01*
X0182233Y0092618D01*
X0179932Y0093385D02*
X0179932Y0094920D01*
X0180699Y0095687D01*
X0179932Y0097222D02*
X0179932Y0099524D01*
X0180699Y0100291D01*
X0183001Y0100291D01*
X0182233Y0101826D02*
X0180699Y0101826D01*
X0179932Y0102593D01*
X0179932Y0104895D01*
X0183768Y0104895D01*
X0184535Y0104128D01*
X0184535Y0103361D01*
X0185897Y0103361D02*
X0185897Y0100291D01*
X0188199Y0100291D01*
X0187432Y0101826D01*
X0187432Y0102593D01*
X0188199Y0103361D01*
X0189733Y0103361D01*
X0190501Y0102593D01*
X0190501Y0101059D01*
X0189733Y0100291D01*
X0189733Y0098757D02*
X0190501Y0098757D01*
X0190501Y0097989D01*
X0189733Y0097989D01*
X0189733Y0098757D01*
X0189733Y0096455D02*
X0188199Y0096455D01*
X0187432Y0095687D01*
X0187432Y0094920D01*
X0188199Y0093385D01*
X0185897Y0093385D01*
X0185897Y0096455D01*
X0183001Y0097222D02*
X0179932Y0097222D01*
X0182233Y0101826D02*
X0183001Y0102593D01*
X0183001Y0104895D01*
X0182233Y0106430D02*
X0180699Y0106430D01*
X0179932Y0107197D01*
X0179932Y0108732D01*
X0180699Y0109499D01*
X0181466Y0109499D01*
X0181466Y0106430D01*
X0182233Y0106430D02*
X0183001Y0107197D01*
X0183001Y0108732D01*
X0183001Y0111034D02*
X0182233Y0111034D01*
X0182233Y0111801D01*
X0183001Y0111801D01*
X0183001Y0111034D01*
X0180699Y0111034D02*
X0180699Y0111801D01*
X0179932Y0111801D01*
X0179932Y0111034D01*
X0180699Y0111034D01*
X0185897Y0107964D02*
X0188966Y0107964D01*
X0190501Y0106430D01*
X0188966Y0104895D01*
X0185897Y0104895D01*
X0189733Y0096455D02*
X0190501Y0095687D01*
X0190501Y0094153D01*
X0189733Y0093385D01*
X0277787Y0115039D02*
X0277787Y0117341D01*
X0278554Y0118109D01*
X0281623Y0118109D01*
X0282391Y0117341D01*
X0282391Y0115039D01*
X0277787Y0115039D01*
X0280089Y0119643D02*
X0277787Y0121945D01*
X0282391Y0121945D01*
X0280089Y0122713D02*
X0280089Y0119643D01*
X0335779Y0087846D02*
X0335779Y0086311D01*
X0336546Y0085544D01*
X0336546Y0084009D02*
X0335779Y0083242D01*
X0335779Y0080940D01*
X0340383Y0080940D01*
X0340383Y0083242D01*
X0339615Y0084009D01*
X0336546Y0084009D01*
X0339615Y0085544D02*
X0340383Y0086311D01*
X0340383Y0087846D01*
X0339615Y0088613D01*
X0338848Y0088613D01*
X0338081Y0087846D01*
X0338081Y0087079D01*
X0338081Y0087846D02*
X0337313Y0088613D01*
X0336546Y0088613D01*
X0335779Y0087846D01*
X0305149Y0054048D02*
X0302080Y0054048D01*
X0302080Y0051746D01*
X0303614Y0052513D01*
X0304381Y0052513D01*
X0305149Y0051746D01*
X0305149Y0050211D01*
X0304381Y0049444D01*
X0302847Y0049444D01*
X0302080Y0050211D01*
X0300545Y0049444D02*
X0299010Y0050979D01*
X0299778Y0050979D02*
X0297476Y0050979D01*
X0297476Y0049444D02*
X0297476Y0054048D01*
X0299778Y0054048D01*
X0300545Y0053281D01*
X0300545Y0051746D01*
X0299778Y0050979D01*
X0102076Y0236693D02*
X0097472Y0236693D01*
X0097472Y0238995D01*
X0098239Y0239762D01*
X0099006Y0239762D01*
X0099774Y0238995D01*
X0099774Y0236693D01*
X0102076Y0236693D02*
X0102076Y0238995D01*
X0101308Y0239762D01*
X0100541Y0239762D01*
X0099774Y0238995D01*
X0099006Y0241297D02*
X0097472Y0242831D01*
X0102076Y0242831D01*
X0102076Y0241297D02*
X0102076Y0244366D01*
D11*
X0028772Y0225504D02*
X0028772Y0158969D01*
X0012630Y0158969D01*
X0012630Y0225504D01*
X0028772Y0225504D01*
X0028772Y0225245D02*
X0012630Y0225245D01*
X0012630Y0224646D02*
X0028772Y0224646D01*
X0028772Y0224048D02*
X0012630Y0224048D01*
X0012630Y0223449D02*
X0028772Y0223449D01*
X0028772Y0222851D02*
X0012630Y0222851D01*
X0012630Y0222252D02*
X0028772Y0222252D01*
X0028772Y0221654D02*
X0012630Y0221654D01*
X0012630Y0221055D02*
X0028772Y0221055D01*
X0028772Y0220457D02*
X0012630Y0220457D01*
X0012630Y0219858D02*
X0028772Y0219858D01*
X0028772Y0219260D02*
X0012630Y0219260D01*
X0012630Y0218661D02*
X0028772Y0218661D01*
X0028772Y0218063D02*
X0012630Y0218063D01*
X0012630Y0217464D02*
X0028772Y0217464D01*
X0028772Y0216866D02*
X0012630Y0216866D01*
X0012630Y0216267D02*
X0028772Y0216267D01*
X0028772Y0215669D02*
X0012630Y0215669D01*
X0012630Y0215070D02*
X0028772Y0215070D01*
X0028772Y0214472D02*
X0012630Y0214472D01*
X0012630Y0213873D02*
X0028772Y0213873D01*
X0028772Y0213274D02*
X0012630Y0213274D01*
X0012630Y0212676D02*
X0028772Y0212676D01*
X0028772Y0212077D02*
X0012630Y0212077D01*
X0012630Y0211479D02*
X0028772Y0211479D01*
X0028772Y0210880D02*
X0012630Y0210880D01*
X0012630Y0210282D02*
X0028772Y0210282D01*
X0028772Y0209683D02*
X0012630Y0209683D01*
X0012630Y0209085D02*
X0028772Y0209085D01*
X0028772Y0208486D02*
X0012630Y0208486D01*
X0012630Y0207888D02*
X0028772Y0207888D01*
X0028772Y0207289D02*
X0012630Y0207289D01*
X0012630Y0206691D02*
X0028772Y0206691D01*
X0028772Y0206092D02*
X0012630Y0206092D01*
X0012630Y0205494D02*
X0028772Y0205494D01*
X0028772Y0204895D02*
X0012630Y0204895D01*
X0012630Y0204297D02*
X0028772Y0204297D01*
X0028772Y0203698D02*
X0012630Y0203698D01*
X0012630Y0203100D02*
X0028772Y0203100D01*
X0028772Y0202501D02*
X0012630Y0202501D01*
X0012630Y0201903D02*
X0028772Y0201903D01*
X0028772Y0201304D02*
X0012630Y0201304D01*
X0012630Y0200706D02*
X0028772Y0200706D01*
X0028772Y0200107D02*
X0012630Y0200107D01*
X0012630Y0199509D02*
X0028772Y0199509D01*
X0028772Y0198910D02*
X0012630Y0198910D01*
X0012630Y0198312D02*
X0028772Y0198312D01*
X0028772Y0197713D02*
X0012630Y0197713D01*
X0012630Y0197115D02*
X0028772Y0197115D01*
X0028772Y0196516D02*
X0012630Y0196516D01*
X0012630Y0195918D02*
X0028772Y0195918D01*
X0028772Y0195319D02*
X0012630Y0195319D01*
X0012630Y0194721D02*
X0028772Y0194721D01*
X0028772Y0194122D02*
X0012630Y0194122D01*
X0012630Y0193524D02*
X0028772Y0193524D01*
X0028772Y0192925D02*
X0012630Y0192925D01*
X0012630Y0192327D02*
X0028772Y0192327D01*
X0028772Y0191728D02*
X0012630Y0191728D01*
X0012630Y0191130D02*
X0028772Y0191130D01*
X0028772Y0190531D02*
X0012630Y0190531D01*
X0012630Y0189933D02*
X0028772Y0189933D01*
X0028772Y0189334D02*
X0012630Y0189334D01*
X0012630Y0188736D02*
X0028772Y0188736D01*
X0028772Y0188137D02*
X0012630Y0188137D01*
X0012630Y0187539D02*
X0028772Y0187539D01*
X0028772Y0186940D02*
X0012630Y0186940D01*
X0012630Y0186341D02*
X0028772Y0186341D01*
X0028772Y0185743D02*
X0012630Y0185743D01*
X0012630Y0185144D02*
X0028772Y0185144D01*
X0028772Y0184546D02*
X0012630Y0184546D01*
X0012630Y0183947D02*
X0028772Y0183947D01*
X0028772Y0183349D02*
X0012630Y0183349D01*
X0012630Y0182750D02*
X0028772Y0182750D01*
X0028772Y0182152D02*
X0012630Y0182152D01*
X0012630Y0181553D02*
X0028772Y0181553D01*
X0028772Y0180955D02*
X0012630Y0180955D01*
X0012630Y0180356D02*
X0028772Y0180356D01*
X0028772Y0179758D02*
X0012630Y0179758D01*
X0012630Y0179159D02*
X0028772Y0179159D01*
X0028772Y0178561D02*
X0012630Y0178561D01*
X0012630Y0177962D02*
X0028772Y0177962D01*
X0028772Y0177364D02*
X0012630Y0177364D01*
X0012630Y0176765D02*
X0028772Y0176765D01*
X0028772Y0176167D02*
X0012630Y0176167D01*
X0012630Y0175568D02*
X0028772Y0175568D01*
X0028772Y0174970D02*
X0012630Y0174970D01*
X0012630Y0174371D02*
X0028772Y0174371D01*
X0028772Y0173773D02*
X0012630Y0173773D01*
X0012630Y0173174D02*
X0028772Y0173174D01*
X0028772Y0172576D02*
X0012630Y0172576D01*
X0012630Y0171977D02*
X0028772Y0171977D01*
X0028772Y0171379D02*
X0012630Y0171379D01*
X0012630Y0170780D02*
X0028772Y0170780D01*
X0028772Y0170182D02*
X0012630Y0170182D01*
X0012630Y0169583D02*
X0028772Y0169583D01*
X0028772Y0168985D02*
X0012630Y0168985D01*
X0012630Y0168386D02*
X0028772Y0168386D01*
X0028772Y0167788D02*
X0012630Y0167788D01*
X0012630Y0167189D02*
X0028772Y0167189D01*
X0028772Y0166591D02*
X0012630Y0166591D01*
X0012630Y0165992D02*
X0028772Y0165992D01*
X0028772Y0165394D02*
X0012630Y0165394D01*
X0012630Y0164795D02*
X0028772Y0164795D01*
X0028772Y0164197D02*
X0012630Y0164197D01*
X0012630Y0163598D02*
X0028772Y0163598D01*
X0028772Y0163000D02*
X0012630Y0163000D01*
X0012630Y0162401D02*
X0028772Y0162401D01*
X0028772Y0161803D02*
X0012630Y0161803D01*
X0012630Y0161204D02*
X0028772Y0161204D01*
X0028772Y0160605D02*
X0012630Y0160605D01*
X0012630Y0160007D02*
X0028772Y0160007D01*
X0028772Y0159408D02*
X0012630Y0159408D01*
X0251705Y0152669D02*
X0251705Y0142669D01*
X0264106Y0142669D01*
X0264106Y0152669D01*
X0251705Y0152669D01*
D12*
X0279706Y0164174D02*
X0280313Y0163567D01*
X0282739Y0163567D01*
X0283346Y0164174D01*
X0283346Y0165387D01*
X0282739Y0165994D01*
X0280313Y0165994D01*
X0279706Y0165387D01*
X0279706Y0164174D01*
X0279706Y0167192D02*
X0279706Y0169013D01*
X0280313Y0169619D01*
X0281526Y0169619D01*
X0282133Y0169013D01*
X0282133Y0167192D01*
X0283346Y0167192D02*
X0279706Y0167192D01*
X0282133Y0168406D02*
X0283346Y0169619D01*
X0282739Y0174443D02*
X0280313Y0174443D01*
X0279706Y0175049D01*
X0279706Y0176263D01*
X0280313Y0176869D01*
X0282739Y0176869D01*
X0283346Y0176263D01*
X0283346Y0175049D01*
X0282739Y0174443D01*
X0282739Y0178068D02*
X0280919Y0178068D01*
X0282739Y0178068D02*
X0283346Y0178675D01*
X0283346Y0180495D01*
X0280919Y0180495D01*
X0280919Y0181693D02*
X0280919Y0182906D01*
X0280313Y0182300D02*
X0282739Y0182300D01*
X0283346Y0182906D01*
X0283346Y0184110D02*
X0283346Y0185930D01*
X0282739Y0186536D01*
X0281526Y0186536D01*
X0280919Y0185930D01*
X0280919Y0184110D01*
X0284559Y0184110D01*
X0282739Y0187735D02*
X0280919Y0187735D01*
X0282739Y0187735D02*
X0283346Y0188342D01*
X0283346Y0190162D01*
X0280919Y0190162D01*
X0280919Y0191360D02*
X0280919Y0192573D01*
X0280313Y0191967D02*
X0282739Y0191967D01*
X0283346Y0192573D01*
X0293719Y0178896D02*
X0295145Y0178896D01*
X0295620Y0178421D01*
X0295620Y0176519D01*
X0295145Y0176044D01*
X0293719Y0176044D01*
X0293719Y0178896D01*
X0296619Y0177470D02*
X0298045Y0177470D01*
X0298520Y0176995D01*
X0298520Y0176519D01*
X0298045Y0176044D01*
X0297094Y0176044D01*
X0296619Y0176519D01*
X0296619Y0177470D01*
X0297569Y0178421D01*
X0298520Y0178896D01*
X0310903Y0210248D02*
X0313330Y0210248D01*
X0313937Y0210855D01*
X0313937Y0212068D01*
X0313330Y0212675D01*
X0310903Y0212675D01*
X0310297Y0212068D01*
X0310297Y0210855D01*
X0310903Y0210248D01*
X0310297Y0213873D02*
X0313330Y0213873D01*
X0313937Y0214480D01*
X0313937Y0215693D01*
X0313330Y0216300D01*
X0310297Y0216300D01*
X0310297Y0217498D02*
X0310297Y0219925D01*
X0310297Y0218711D02*
X0313937Y0218711D01*
X0313330Y0221123D02*
X0313937Y0221730D01*
X0313937Y0222943D01*
X0313330Y0223550D01*
X0312723Y0223550D01*
X0312117Y0222943D01*
X0312117Y0222337D01*
X0312117Y0222943D02*
X0311510Y0223550D01*
X0310903Y0223550D01*
X0310297Y0222943D01*
X0310297Y0221730D01*
X0310903Y0221123D01*
X0333919Y0221730D02*
X0334525Y0221123D01*
X0333919Y0221730D02*
X0333919Y0222943D01*
X0334525Y0223550D01*
X0335132Y0223550D01*
X0337559Y0221123D01*
X0337559Y0223550D01*
X0333919Y0219925D02*
X0333919Y0217498D01*
X0333919Y0216300D02*
X0336952Y0216300D01*
X0337559Y0215693D01*
X0337559Y0214480D01*
X0336952Y0213873D01*
X0333919Y0213873D01*
X0334525Y0212675D02*
X0333919Y0212068D01*
X0333919Y0210855D01*
X0334525Y0210248D01*
X0336952Y0210248D01*
X0337559Y0210855D01*
X0337559Y0212068D01*
X0336952Y0212675D01*
X0334525Y0212675D01*
X0333919Y0218711D02*
X0337559Y0218711D01*
X0357541Y0218711D02*
X0361181Y0218711D01*
X0361181Y0221123D02*
X0361181Y0223550D01*
X0361181Y0222337D02*
X0357541Y0222337D01*
X0358754Y0221123D01*
X0357541Y0219925D02*
X0357541Y0217498D01*
X0357541Y0216300D02*
X0360574Y0216300D01*
X0361181Y0215693D01*
X0361181Y0214480D01*
X0360574Y0213873D01*
X0357541Y0213873D01*
X0358147Y0212675D02*
X0357541Y0212068D01*
X0357541Y0210855D01*
X0358147Y0210248D01*
X0360574Y0210248D01*
X0361181Y0210855D01*
X0361181Y0212068D01*
X0360574Y0212675D01*
X0358147Y0212675D01*
X0357541Y0238703D02*
X0357541Y0239917D01*
X0357541Y0239310D02*
X0361181Y0239310D01*
X0361181Y0238703D02*
X0361181Y0239917D01*
X0361181Y0241120D02*
X0357541Y0241120D01*
X0361181Y0243547D01*
X0357541Y0243547D01*
X0358754Y0244745D02*
X0357541Y0245959D01*
X0361181Y0245959D01*
X0361181Y0247172D02*
X0361181Y0244745D01*
X0337559Y0244745D02*
X0335132Y0247172D01*
X0334525Y0247172D01*
X0333919Y0246565D01*
X0333919Y0245352D01*
X0334525Y0244745D01*
X0333919Y0243547D02*
X0337559Y0243547D01*
X0333919Y0241120D01*
X0337559Y0241120D01*
X0337559Y0239917D02*
X0337559Y0238703D01*
X0337559Y0239310D02*
X0333919Y0239310D01*
X0333919Y0238703D02*
X0333919Y0239917D01*
X0337559Y0244745D02*
X0337559Y0247172D01*
X0313937Y0246565D02*
X0313937Y0245352D01*
X0313330Y0244745D01*
X0313937Y0243547D02*
X0310297Y0243547D01*
X0310903Y0244745D02*
X0310297Y0245352D01*
X0310297Y0246565D01*
X0310903Y0247172D01*
X0311510Y0247172D01*
X0312117Y0246565D01*
X0312723Y0247172D01*
X0313330Y0247172D01*
X0313937Y0246565D01*
X0312117Y0246565D02*
X0312117Y0245959D01*
X0313937Y0243547D02*
X0310297Y0241120D01*
X0313937Y0241120D01*
X0313937Y0239917D02*
X0313937Y0238703D01*
X0313937Y0239310D02*
X0310297Y0239310D01*
X0310297Y0238703D02*
X0310297Y0239917D01*
X0278088Y0228199D02*
X0276875Y0228199D01*
X0277482Y0228805D02*
X0277482Y0226379D01*
X0278088Y0225772D01*
X0275677Y0225772D02*
X0275677Y0228199D01*
X0275677Y0225772D02*
X0273856Y0225772D01*
X0273250Y0226379D01*
X0273250Y0228199D01*
X0272051Y0227592D02*
X0271445Y0228199D01*
X0269625Y0228199D01*
X0269625Y0224559D01*
X0269625Y0225772D02*
X0271445Y0225772D01*
X0272051Y0226379D01*
X0272051Y0227592D01*
X0268421Y0228199D02*
X0267208Y0228199D01*
X0267815Y0228805D02*
X0267815Y0226379D01*
X0268421Y0225772D01*
X0266009Y0225772D02*
X0266009Y0228199D01*
X0263583Y0228199D02*
X0263583Y0226379D01*
X0264189Y0225772D01*
X0266009Y0225772D01*
X0262384Y0226379D02*
X0262384Y0228805D01*
X0261778Y0229412D01*
X0260564Y0229412D01*
X0259958Y0228805D01*
X0259958Y0226379D01*
X0260564Y0225772D01*
X0261778Y0225772D01*
X0262384Y0226379D01*
X0255134Y0226379D02*
X0255134Y0228805D01*
X0254527Y0229412D01*
X0252707Y0229412D01*
X0252707Y0225772D01*
X0254527Y0225772D01*
X0255134Y0226379D01*
X0251509Y0225772D02*
X0249082Y0225772D01*
X0249082Y0229412D01*
X0251509Y0229412D01*
X0250296Y0227592D02*
X0249082Y0227592D01*
X0247884Y0225772D02*
X0245457Y0225772D01*
X0245457Y0229412D01*
X0245577Y0221659D02*
X0244151Y0221659D01*
X0244151Y0218807D01*
X0245577Y0218807D01*
X0246053Y0219282D01*
X0246053Y0221184D01*
X0245577Y0221659D01*
X0247051Y0221659D02*
X0248953Y0221659D01*
X0248953Y0221184D01*
X0247051Y0219282D01*
X0247051Y0218807D01*
X0243614Y0237544D02*
X0243614Y0241184D01*
X0241187Y0241184D02*
X0243614Y0237544D01*
X0241187Y0237544D02*
X0241187Y0241184D01*
X0239989Y0240577D02*
X0239989Y0238150D01*
X0239382Y0237544D01*
X0237562Y0237544D01*
X0237562Y0241184D01*
X0239382Y0241184D01*
X0239989Y0240577D01*
X0236364Y0241184D02*
X0236364Y0237544D01*
X0236364Y0239364D02*
X0233937Y0239364D01*
X0232739Y0238757D02*
X0232739Y0238150D01*
X0232132Y0237544D01*
X0230919Y0237544D01*
X0230312Y0238150D01*
X0230919Y0239364D02*
X0232132Y0239364D01*
X0232739Y0238757D01*
X0233937Y0237544D02*
X0233937Y0241184D01*
X0232739Y0240577D02*
X0232132Y0241184D01*
X0230919Y0241184D01*
X0230312Y0240577D01*
X0230312Y0239970D01*
X0230919Y0239364D01*
X0229114Y0236937D02*
X0226687Y0236937D01*
X0225488Y0238150D02*
X0225488Y0240577D01*
X0224882Y0241184D01*
X0223062Y0241184D01*
X0223062Y0237544D01*
X0224882Y0237544D01*
X0225488Y0238150D01*
X0221863Y0237544D02*
X0219437Y0237544D01*
X0219437Y0241184D01*
X0221863Y0241184D01*
X0220650Y0239364D02*
X0219437Y0239364D01*
X0218238Y0237544D02*
X0215811Y0237544D01*
X0215811Y0241184D01*
X0199085Y0191564D02*
X0199085Y0189137D01*
X0197265Y0190957D01*
X0200905Y0190957D01*
X0200905Y0187938D02*
X0197265Y0187938D01*
X0197265Y0185512D02*
X0200905Y0187938D01*
X0200905Y0185512D02*
X0197265Y0185512D01*
X0197265Y0184308D02*
X0197265Y0183095D01*
X0197265Y0183702D02*
X0200905Y0183702D01*
X0200905Y0184308D02*
X0200905Y0183095D01*
X0216871Y0181342D02*
X0218691Y0179521D01*
X0218691Y0181948D01*
X0220511Y0181342D02*
X0216871Y0181342D01*
X0216871Y0178323D02*
X0216871Y0175896D01*
X0216871Y0174698D02*
X0219905Y0174698D01*
X0220511Y0174091D01*
X0220511Y0172878D01*
X0219905Y0172271D01*
X0216871Y0172271D01*
X0217478Y0171073D02*
X0216871Y0170466D01*
X0216871Y0169253D01*
X0217478Y0168646D01*
X0219905Y0168646D01*
X0220511Y0169253D01*
X0220511Y0170466D01*
X0219905Y0171073D01*
X0217478Y0171073D01*
X0216871Y0177110D02*
X0220511Y0177110D01*
X0193997Y0155058D02*
X0193997Y0152632D01*
X0193997Y0151433D02*
X0193997Y0149007D01*
X0193997Y0150220D02*
X0197637Y0150220D01*
X0197637Y0147808D02*
X0195211Y0147808D01*
X0193997Y0146595D01*
X0195211Y0145381D01*
X0197637Y0145381D01*
X0197031Y0144183D02*
X0197637Y0143576D01*
X0197637Y0141756D01*
X0193997Y0141756D01*
X0193997Y0143576D01*
X0194604Y0144183D01*
X0195211Y0144183D01*
X0195817Y0143576D01*
X0195817Y0141756D01*
X0195817Y0143576D02*
X0196424Y0144183D01*
X0197031Y0144183D01*
X0195817Y0145381D02*
X0195817Y0147808D01*
X0197637Y0153845D02*
X0193997Y0153845D01*
X0187677Y0154139D02*
X0187193Y0153655D01*
X0185258Y0153655D01*
X0185742Y0153171D02*
X0185742Y0154139D01*
X0186226Y0155136D02*
X0187193Y0155136D01*
X0187677Y0155619D01*
X0187677Y0157071D01*
X0187677Y0158082D02*
X0184774Y0158082D01*
X0185742Y0158566D02*
X0185742Y0159533D01*
X0186226Y0160017D01*
X0187677Y0160017D01*
X0186226Y0158082D02*
X0185742Y0158566D01*
X0185742Y0157071D02*
X0185742Y0155619D01*
X0186226Y0155136D01*
X0187677Y0152174D02*
X0187677Y0151207D01*
X0187677Y0151691D02*
X0185742Y0151691D01*
X0185742Y0151207D01*
X0185742Y0150195D02*
X0187193Y0150195D01*
X0187677Y0149712D01*
X0187193Y0149228D01*
X0187677Y0148744D01*
X0187193Y0148260D01*
X0185742Y0148260D01*
X0185258Y0147249D02*
X0184774Y0146765D01*
X0184774Y0145798D01*
X0185258Y0145314D01*
X0185742Y0145314D01*
X0186226Y0145798D01*
X0186226Y0146765D01*
X0186709Y0147249D01*
X0187193Y0147249D01*
X0187677Y0146765D01*
X0187677Y0145798D01*
X0187193Y0145314D01*
X0187677Y0141356D02*
X0187677Y0139905D01*
X0187193Y0139421D01*
X0185742Y0139421D01*
X0185742Y0138417D02*
X0185742Y0137933D01*
X0186709Y0136965D01*
X0185742Y0136965D02*
X0187677Y0136965D01*
X0186709Y0135954D02*
X0186709Y0134019D01*
X0186226Y0134019D02*
X0185742Y0134503D01*
X0185742Y0135470D01*
X0186226Y0135954D01*
X0186709Y0135954D01*
X0187677Y0135470D02*
X0187677Y0134503D01*
X0187193Y0134019D01*
X0186226Y0134019D01*
X0185742Y0133022D02*
X0185742Y0132055D01*
X0185258Y0132538D02*
X0187193Y0132538D01*
X0187677Y0133022D01*
X0187677Y0131058D02*
X0187193Y0130574D01*
X0185258Y0130574D01*
X0185742Y0130090D02*
X0185742Y0131058D01*
X0186226Y0129079D02*
X0187677Y0129079D01*
X0187677Y0127627D01*
X0187193Y0127144D01*
X0186709Y0127627D01*
X0186709Y0129079D01*
X0186226Y0129079D02*
X0185742Y0128595D01*
X0185742Y0127627D01*
X0185742Y0126132D02*
X0185258Y0126132D01*
X0184774Y0125648D01*
X0184774Y0124197D01*
X0187677Y0124197D01*
X0187677Y0125648D01*
X0187193Y0126132D01*
X0186709Y0126132D01*
X0186226Y0125648D01*
X0186226Y0124197D01*
X0186226Y0125648D02*
X0185742Y0126132D01*
X0193997Y0125996D02*
X0193997Y0124176D01*
X0197637Y0124176D01*
X0197637Y0122978D02*
X0193997Y0122978D01*
X0193997Y0120551D02*
X0197637Y0122978D01*
X0196424Y0124176D02*
X0196424Y0125996D01*
X0195817Y0126603D01*
X0194604Y0126603D01*
X0193997Y0125996D01*
X0193997Y0127801D02*
X0197031Y0127801D01*
X0197637Y0128408D01*
X0197637Y0129621D01*
X0197031Y0130228D01*
X0193997Y0130228D01*
X0193997Y0131426D02*
X0193997Y0133853D01*
X0193997Y0132640D02*
X0197637Y0132640D01*
X0188644Y0140388D02*
X0188644Y0140872D01*
X0188161Y0141356D01*
X0185742Y0141356D01*
X0184774Y0151691D02*
X0184291Y0151691D01*
X0193997Y0120551D02*
X0197637Y0120551D01*
X0197637Y0119348D02*
X0197637Y0118134D01*
X0197637Y0118741D02*
X0193997Y0118741D01*
X0193997Y0118134D02*
X0193997Y0119348D01*
X0195817Y0103877D02*
X0195817Y0101451D01*
X0195817Y0100252D02*
X0196424Y0099646D01*
X0196424Y0097825D01*
X0197637Y0097825D02*
X0193997Y0097825D01*
X0193997Y0099646D01*
X0194604Y0100252D01*
X0195817Y0100252D01*
X0196424Y0099039D02*
X0197637Y0100252D01*
X0197031Y0102664D02*
X0194604Y0102664D01*
X0193997Y0096627D02*
X0197637Y0096627D01*
X0196424Y0095414D01*
X0197637Y0094200D01*
X0193997Y0094200D01*
X0194604Y0093002D02*
X0195817Y0093002D01*
X0196424Y0092395D01*
X0196424Y0090575D01*
X0197637Y0090575D02*
X0193997Y0090575D01*
X0193997Y0092395D01*
X0194604Y0093002D01*
X0195817Y0080255D02*
X0195817Y0077829D01*
X0195817Y0076630D02*
X0196424Y0076023D01*
X0196424Y0074203D01*
X0197637Y0074203D02*
X0193997Y0074203D01*
X0193997Y0076023D01*
X0194604Y0076630D01*
X0195817Y0076630D01*
X0196424Y0075417D02*
X0197637Y0076630D01*
X0197637Y0073005D02*
X0193997Y0073005D01*
X0193997Y0070578D02*
X0197637Y0070578D01*
X0196424Y0071792D01*
X0197637Y0073005D01*
X0195817Y0069380D02*
X0196424Y0068773D01*
X0196424Y0066953D01*
X0197637Y0066953D02*
X0193997Y0066953D01*
X0193997Y0068773D01*
X0194604Y0069380D01*
X0195817Y0069380D01*
X0229709Y0074804D02*
X0230316Y0074197D01*
X0231529Y0074197D01*
X0232136Y0074804D01*
X0232136Y0075411D01*
X0231529Y0076017D01*
X0230922Y0076017D01*
X0231529Y0076017D02*
X0232136Y0076624D01*
X0232136Y0077231D01*
X0231529Y0077837D01*
X0230316Y0077837D01*
X0229709Y0077231D01*
X0233334Y0077837D02*
X0233334Y0075411D01*
X0234548Y0074197D01*
X0235761Y0075411D01*
X0235761Y0077837D01*
X0236959Y0077231D02*
X0237566Y0077837D01*
X0238779Y0077837D01*
X0239386Y0077231D01*
X0239386Y0076624D01*
X0238779Y0076017D01*
X0239386Y0075411D01*
X0239386Y0074804D01*
X0238779Y0074197D01*
X0237566Y0074197D01*
X0236959Y0074804D01*
X0238173Y0076017D02*
X0238779Y0076017D01*
X0244210Y0074804D02*
X0244816Y0074197D01*
X0246030Y0074197D01*
X0246636Y0074804D01*
X0246636Y0077231D01*
X0246030Y0077837D01*
X0244816Y0077837D01*
X0244210Y0077231D01*
X0244210Y0074804D01*
X0247835Y0074197D02*
X0247835Y0077837D01*
X0250261Y0074197D01*
X0250261Y0077837D01*
X0240483Y0059999D02*
X0240483Y0057147D01*
X0241433Y0057147D02*
X0239532Y0057147D01*
X0238533Y0057622D02*
X0238533Y0059523D01*
X0238058Y0059999D01*
X0236632Y0059999D01*
X0236632Y0057147D01*
X0238058Y0057147D01*
X0238533Y0057622D01*
X0239532Y0059048D02*
X0240483Y0059999D01*
X0239491Y0044255D02*
X0240098Y0043648D01*
X0240098Y0043041D01*
X0239491Y0042435D01*
X0240098Y0041828D01*
X0240098Y0041221D01*
X0239491Y0040615D01*
X0238278Y0040615D01*
X0237671Y0041221D01*
X0236473Y0041828D02*
X0236473Y0044255D01*
X0237671Y0043648D02*
X0238278Y0044255D01*
X0239491Y0044255D01*
X0239491Y0042435D02*
X0238884Y0042435D01*
X0236473Y0041828D02*
X0235259Y0040615D01*
X0234046Y0041828D01*
X0234046Y0044255D01*
X0232848Y0043648D02*
X0232848Y0043041D01*
X0232241Y0042435D01*
X0232848Y0041828D01*
X0232848Y0041221D01*
X0232241Y0040615D01*
X0231027Y0040615D01*
X0230421Y0041221D01*
X0229222Y0042435D02*
X0226796Y0042435D01*
X0228009Y0043648D02*
X0228009Y0041221D01*
X0230421Y0043648D02*
X0231027Y0044255D01*
X0232241Y0044255D01*
X0232848Y0043648D01*
X0232241Y0042435D02*
X0231634Y0042435D01*
X0193953Y0043254D02*
X0193346Y0043861D01*
X0191526Y0043861D01*
X0191526Y0040221D01*
X0193346Y0040221D01*
X0193953Y0040828D01*
X0193953Y0043254D01*
X0190328Y0043861D02*
X0190328Y0040221D01*
X0187901Y0043861D01*
X0187901Y0040221D01*
X0186703Y0040828D02*
X0186096Y0040221D01*
X0184883Y0040221D01*
X0184276Y0040828D01*
X0184276Y0043254D01*
X0184883Y0043861D01*
X0186096Y0043861D01*
X0186703Y0043254D01*
X0186703Y0042041D02*
X0185489Y0042041D01*
X0186703Y0042041D02*
X0186703Y0040828D01*
X0295422Y0105383D02*
X0296040Y0104766D01*
X0298508Y0104766D01*
X0299126Y0105383D01*
X0299126Y0106618D01*
X0298508Y0107235D01*
X0296040Y0107235D02*
X0295422Y0106618D01*
X0295422Y0105383D01*
X0319044Y0098490D02*
X0319044Y0097255D01*
X0319662Y0096638D01*
X0322130Y0096638D01*
X0322748Y0097255D01*
X0322748Y0098490D01*
X0322130Y0099107D01*
X0319662Y0099107D02*
X0319044Y0098490D01*
X0343095Y0123804D02*
X0343095Y0126230D01*
X0344308Y0127444D01*
X0345522Y0126230D01*
X0345522Y0123804D01*
X0346720Y0123804D02*
X0346720Y0127444D01*
X0349147Y0123804D01*
X0349147Y0127444D01*
X0350345Y0127444D02*
X0352165Y0127444D01*
X0352772Y0126837D01*
X0352772Y0124410D01*
X0352165Y0123804D01*
X0350345Y0123804D01*
X0350345Y0127444D01*
X0345522Y0125624D02*
X0343095Y0125624D01*
X0357595Y0126837D02*
X0357595Y0124410D01*
X0358202Y0123804D01*
X0359415Y0123804D01*
X0360022Y0124410D01*
X0360022Y0126837D01*
X0359415Y0127444D01*
X0358202Y0127444D01*
X0357595Y0126837D01*
X0361221Y0126230D02*
X0361221Y0124410D01*
X0361827Y0123804D01*
X0363647Y0123804D01*
X0363647Y0126230D01*
X0364846Y0126230D02*
X0366059Y0126230D01*
X0365452Y0126837D02*
X0365452Y0124410D01*
X0366059Y0123804D01*
X0367262Y0123804D02*
X0369083Y0123804D01*
X0369689Y0124410D01*
X0369689Y0125624D01*
X0369083Y0126230D01*
X0367262Y0126230D01*
X0367262Y0122590D01*
X0370888Y0124410D02*
X0370888Y0126230D01*
X0370888Y0124410D02*
X0371494Y0123804D01*
X0373314Y0123804D01*
X0373314Y0126230D01*
X0374513Y0126230D02*
X0375726Y0126230D01*
X0375119Y0126837D02*
X0375119Y0124410D01*
X0375726Y0123804D01*
X0371263Y0136238D02*
X0368411Y0136238D01*
X0368411Y0137664D01*
X0368886Y0138140D01*
X0370788Y0138140D01*
X0371263Y0137664D01*
X0371263Y0136238D01*
X0370788Y0139138D02*
X0371263Y0139614D01*
X0371263Y0140564D01*
X0370788Y0141040D01*
X0369837Y0141040D01*
X0369362Y0140564D01*
X0369362Y0140089D01*
X0369837Y0139138D01*
X0368411Y0139138D01*
X0368411Y0141040D01*
X0382422Y0082605D02*
X0382422Y0080178D01*
X0382422Y0078980D02*
X0385456Y0078980D01*
X0386063Y0078373D01*
X0386063Y0077160D01*
X0385456Y0076553D01*
X0382422Y0076553D01*
X0383029Y0075355D02*
X0382422Y0074748D01*
X0382422Y0073535D01*
X0383029Y0072928D01*
X0385456Y0072928D01*
X0386063Y0073535D01*
X0386063Y0074748D01*
X0385456Y0075355D01*
X0383029Y0075355D01*
X0386669Y0071730D02*
X0386669Y0069303D01*
X0386063Y0068104D02*
X0386063Y0065678D01*
X0382422Y0065678D01*
X0382422Y0068104D01*
X0384243Y0066891D02*
X0384243Y0065678D01*
X0386063Y0064479D02*
X0386063Y0062053D01*
X0382422Y0062053D01*
X0383029Y0060854D02*
X0383636Y0060854D01*
X0384243Y0060248D01*
X0384243Y0058427D01*
X0384243Y0057229D02*
X0384243Y0054802D01*
X0383636Y0054802D02*
X0382422Y0056016D01*
X0383636Y0057229D01*
X0386063Y0057229D01*
X0386063Y0058427D02*
X0386063Y0060248D01*
X0385456Y0060854D01*
X0384849Y0060854D01*
X0384243Y0060248D01*
X0383029Y0060854D02*
X0382422Y0060248D01*
X0382422Y0058427D01*
X0386063Y0058427D01*
X0386063Y0054802D02*
X0383636Y0054802D01*
X0382422Y0053604D02*
X0382422Y0051177D01*
X0382422Y0052391D02*
X0386063Y0052391D01*
X0385456Y0049979D02*
X0386063Y0049372D01*
X0386063Y0048159D01*
X0385456Y0047552D01*
X0386063Y0046354D02*
X0383636Y0046354D01*
X0382422Y0045140D01*
X0383636Y0043927D01*
X0386063Y0043927D01*
X0384243Y0043927D02*
X0384243Y0046354D01*
X0383636Y0047552D02*
X0384243Y0048159D01*
X0384243Y0049372D01*
X0384849Y0049979D01*
X0385456Y0049979D01*
X0383029Y0049979D02*
X0382422Y0049372D01*
X0382422Y0048159D01*
X0383029Y0047552D01*
X0383636Y0047552D01*
X0367326Y0046551D02*
X0367326Y0044650D01*
X0365425Y0046551D01*
X0364949Y0046551D01*
X0364474Y0046076D01*
X0364474Y0045125D01*
X0364949Y0044650D01*
X0364949Y0043651D02*
X0364474Y0043176D01*
X0364474Y0041750D01*
X0367326Y0041750D01*
X0367326Y0043176D01*
X0366851Y0043651D01*
X0364949Y0043651D01*
X0382422Y0081392D02*
X0386063Y0081392D01*
D13*
X0265228Y0130346D02*
X0265230Y0130385D01*
X0265236Y0130424D01*
X0265246Y0130462D01*
X0265259Y0130499D01*
X0265276Y0130534D01*
X0265296Y0130568D01*
X0265320Y0130599D01*
X0265347Y0130628D01*
X0265376Y0130654D01*
X0265408Y0130677D01*
X0265442Y0130697D01*
X0265478Y0130713D01*
X0265515Y0130725D01*
X0265554Y0130734D01*
X0265593Y0130739D01*
X0265632Y0130740D01*
X0265671Y0130737D01*
X0265710Y0130730D01*
X0265747Y0130719D01*
X0265784Y0130705D01*
X0265819Y0130687D01*
X0265852Y0130666D01*
X0265883Y0130641D01*
X0265911Y0130614D01*
X0265936Y0130584D01*
X0265958Y0130551D01*
X0265977Y0130517D01*
X0265992Y0130481D01*
X0266004Y0130443D01*
X0266012Y0130405D01*
X0266016Y0130366D01*
X0266016Y0130326D01*
X0266012Y0130287D01*
X0266004Y0130249D01*
X0265992Y0130211D01*
X0265977Y0130175D01*
X0265958Y0130141D01*
X0265936Y0130108D01*
X0265911Y0130078D01*
X0265883Y0130051D01*
X0265852Y0130026D01*
X0265819Y0130005D01*
X0265784Y0129987D01*
X0265747Y0129973D01*
X0265710Y0129962D01*
X0265671Y0129955D01*
X0265632Y0129952D01*
X0265593Y0129953D01*
X0265554Y0129958D01*
X0265515Y0129967D01*
X0265478Y0129979D01*
X0265442Y0129995D01*
X0265408Y0130015D01*
X0265376Y0130038D01*
X0265347Y0130064D01*
X0265320Y0130093D01*
X0265296Y0130124D01*
X0265276Y0130158D01*
X0265259Y0130193D01*
X0265246Y0130230D01*
X0265236Y0130268D01*
X0265230Y0130307D01*
X0265228Y0130346D01*
X0234283Y0165386D02*
X0234283Y0190189D01*
X0214205Y0190189D01*
X0214205Y0193732D01*
X0195307Y0193732D01*
X0195307Y0165386D01*
X0234283Y0165386D01*
X0210268Y0161843D02*
X0191764Y0161843D01*
X0191764Y0115386D01*
X0210268Y0115386D01*
X0210268Y0161843D01*
X0210268Y0110661D02*
X0191764Y0110661D01*
X0191764Y0064205D01*
X0210268Y0064205D01*
X0210268Y0110661D01*
X0297669Y0207512D02*
X0317748Y0207512D01*
X0341370Y0207512D01*
X0364598Y0207512D01*
X0364598Y0249244D01*
X0341370Y0249244D01*
X0341370Y0207512D01*
X0317748Y0207512D02*
X0317748Y0249244D01*
X0297669Y0249244D01*
X0297669Y0207512D01*
X0318142Y0249244D02*
X0341370Y0249244D01*
D14*
X0368010Y0226135D02*
X0368863Y0226135D01*
X0369289Y0225709D01*
X0368863Y0225283D02*
X0369289Y0224856D01*
X0368863Y0225283D02*
X0368010Y0225283D01*
X0368436Y0223171D02*
X0370994Y0223171D01*
X0370994Y0222319D02*
X0370994Y0224024D01*
X0369289Y0222319D02*
X0368436Y0223171D01*
X0368010Y0221483D02*
X0368863Y0221483D01*
X0369289Y0221057D01*
X0368863Y0220630D02*
X0369289Y0220204D01*
X0368863Y0220630D02*
X0368010Y0220630D01*
X0369289Y0216831D02*
X0369289Y0216404D01*
X0370142Y0215552D01*
X0370994Y0215552D02*
X0369289Y0215552D01*
X0369715Y0214720D02*
X0369289Y0214293D01*
X0369289Y0213441D01*
X0369715Y0213014D01*
X0370568Y0213014D01*
X0370994Y0213441D01*
X0370994Y0214293D01*
X0370568Y0214720D01*
X0369715Y0214720D01*
X0369715Y0212175D02*
X0369715Y0211322D01*
X0368863Y0211749D02*
X0368436Y0212175D01*
X0368863Y0211749D02*
X0370994Y0211749D01*
X0370994Y0207946D02*
X0370568Y0207519D01*
X0368863Y0207519D01*
X0369289Y0207093D02*
X0369289Y0207946D01*
X0369289Y0206261D02*
X0370994Y0206261D01*
X0370994Y0204982D01*
X0370568Y0204556D01*
X0369289Y0204556D01*
X0368863Y0203723D02*
X0368436Y0203297D01*
X0368436Y0202444D01*
X0368863Y0202018D01*
X0370568Y0202018D01*
X0370994Y0202444D01*
X0370994Y0203297D01*
X0370568Y0203723D01*
X0368863Y0203723D01*
X0372144Y0204559D02*
X0372997Y0204559D01*
X0373423Y0204133D01*
X0373423Y0204985D02*
X0372997Y0205412D01*
X0372144Y0205412D01*
X0372997Y0203300D02*
X0374702Y0201595D01*
X0375128Y0202021D01*
X0375128Y0202874D01*
X0374702Y0203300D01*
X0372997Y0203300D01*
X0372570Y0202874D01*
X0372570Y0202021D01*
X0372997Y0201595D01*
X0374702Y0201595D01*
X0373423Y0200333D02*
X0372997Y0200759D01*
X0372144Y0200759D01*
X0372144Y0199907D02*
X0372997Y0199907D01*
X0373423Y0199480D01*
X0370994Y0198222D02*
X0370568Y0198648D01*
X0369715Y0198648D01*
X0369289Y0198222D01*
X0369289Y0197369D01*
X0369715Y0196943D01*
X0370568Y0196943D01*
X0370994Y0197369D01*
X0370994Y0198222D01*
X0370994Y0196104D02*
X0370568Y0195677D01*
X0368863Y0195677D01*
X0369289Y0195251D02*
X0369289Y0196104D01*
X0372144Y0193140D02*
X0372570Y0193140D01*
X0373423Y0193140D02*
X0375128Y0193140D01*
X0375128Y0193566D02*
X0375128Y0192713D01*
X0375128Y0194405D02*
X0375128Y0195684D01*
X0374702Y0196111D01*
X0374276Y0195684D01*
X0374276Y0194831D01*
X0373849Y0194405D01*
X0373423Y0194831D01*
X0373423Y0196111D01*
X0373423Y0193140D02*
X0373423Y0192713D01*
X0370994Y0191881D02*
X0369715Y0191881D01*
X0369289Y0191455D01*
X0369289Y0190176D01*
X0370994Y0190176D01*
X0370994Y0189337D02*
X0370994Y0188484D01*
X0370994Y0188910D02*
X0368436Y0188910D01*
X0368436Y0188484D02*
X0368436Y0189337D01*
X0369289Y0185107D02*
X0369289Y0184255D01*
X0368863Y0184681D02*
X0370568Y0184681D01*
X0370994Y0185107D01*
X0370994Y0183423D02*
X0370994Y0182143D01*
X0370568Y0181717D01*
X0369715Y0181717D01*
X0369289Y0182143D01*
X0369289Y0183423D01*
X0369715Y0180885D02*
X0370142Y0180885D01*
X0370142Y0179180D01*
X0370568Y0179180D02*
X0369715Y0179180D01*
X0369289Y0179606D01*
X0369289Y0180459D01*
X0369715Y0180885D01*
X0370994Y0180459D02*
X0370994Y0179606D01*
X0370568Y0179180D01*
X0370994Y0178347D02*
X0369715Y0178347D01*
X0369289Y0177921D01*
X0369289Y0176642D01*
X0370994Y0176642D01*
X0370994Y0175810D02*
X0369715Y0175810D01*
X0369289Y0175383D01*
X0369289Y0174104D01*
X0370994Y0174104D01*
X0370568Y0173272D02*
X0369715Y0173272D01*
X0369289Y0172846D01*
X0369289Y0171993D01*
X0369715Y0171567D01*
X0370568Y0171567D01*
X0370994Y0171993D01*
X0370994Y0172846D01*
X0370568Y0173272D01*
X0372570Y0173272D02*
X0375128Y0171567D01*
X0374702Y0170735D02*
X0373849Y0170735D01*
X0373423Y0170308D01*
X0373423Y0169455D01*
X0373849Y0169029D01*
X0374702Y0169029D01*
X0375128Y0169455D01*
X0375128Y0170308D01*
X0374702Y0170735D01*
X0370994Y0170308D02*
X0370568Y0170735D01*
X0370994Y0170308D02*
X0370994Y0169455D01*
X0370568Y0169029D01*
X0368863Y0169029D01*
X0368436Y0169455D01*
X0368436Y0170308D01*
X0368863Y0170735D01*
X0373423Y0174104D02*
X0374702Y0174104D01*
X0375128Y0174531D01*
X0374702Y0174957D01*
X0375128Y0175383D01*
X0374702Y0175810D01*
X0373423Y0175810D01*
X0373423Y0179180D02*
X0373423Y0179606D01*
X0375128Y0179606D01*
X0375128Y0179180D02*
X0375128Y0180032D01*
X0375128Y0180871D02*
X0373423Y0180871D01*
X0373423Y0182150D01*
X0373849Y0182577D01*
X0375128Y0182577D01*
X0375128Y0183409D02*
X0375128Y0184688D01*
X0374702Y0185114D01*
X0373849Y0185114D01*
X0373423Y0184688D01*
X0373423Y0183409D01*
X0375981Y0183409D01*
X0374702Y0185946D02*
X0375128Y0186373D01*
X0375128Y0187652D01*
X0373423Y0187652D01*
X0373423Y0188484D02*
X0373423Y0189337D01*
X0372997Y0188910D02*
X0374702Y0188910D01*
X0375128Y0189337D01*
X0374702Y0185946D02*
X0373423Y0185946D01*
X0372570Y0179606D02*
X0372144Y0179606D01*
X0348235Y0192920D02*
X0345633Y0192920D01*
X0345633Y0194221D01*
X0346067Y0194655D01*
X0346934Y0194655D01*
X0347368Y0194221D01*
X0347368Y0192920D01*
X0347368Y0193788D02*
X0348235Y0194655D01*
X0347801Y0195498D02*
X0348235Y0195932D01*
X0348235Y0196800D01*
X0347801Y0197233D01*
X0346067Y0197233D01*
X0345633Y0196800D01*
X0345633Y0195932D01*
X0346067Y0195498D01*
X0346500Y0195498D01*
X0346934Y0195932D01*
X0346934Y0197233D01*
X0324613Y0196800D02*
X0324613Y0195932D01*
X0324179Y0195498D01*
X0323746Y0195498D01*
X0323312Y0195932D01*
X0323312Y0196800D01*
X0323746Y0197233D01*
X0324179Y0197233D01*
X0324613Y0196800D01*
X0323312Y0196800D02*
X0322878Y0197233D01*
X0322445Y0197233D01*
X0322011Y0196800D01*
X0322011Y0195932D01*
X0322445Y0195498D01*
X0322878Y0195498D01*
X0323312Y0195932D01*
X0323312Y0194655D02*
X0323746Y0194221D01*
X0323746Y0192920D01*
X0324613Y0192920D02*
X0322011Y0192920D01*
X0322011Y0194221D01*
X0322445Y0194655D01*
X0323312Y0194655D01*
X0323746Y0193788D02*
X0324613Y0194655D01*
X0300991Y0194655D02*
X0300124Y0193788D01*
X0300124Y0194221D02*
X0300124Y0192920D01*
X0300991Y0192920D02*
X0298389Y0192920D01*
X0298389Y0194221D01*
X0298822Y0194655D01*
X0299690Y0194655D01*
X0300124Y0194221D01*
X0300557Y0195498D02*
X0298822Y0197233D01*
X0298389Y0197233D01*
X0298389Y0195498D01*
X0300557Y0195498D02*
X0300991Y0195498D01*
X0289656Y0188614D02*
X0289361Y0188909D01*
X0288771Y0188909D01*
X0288476Y0188614D01*
X0288476Y0187434D01*
X0288771Y0187139D01*
X0289361Y0187139D01*
X0289656Y0187434D01*
X0263192Y0186386D02*
X0263192Y0185953D01*
X0262759Y0185519D01*
X0263192Y0185085D01*
X0263192Y0184651D01*
X0262759Y0184218D01*
X0261891Y0184218D01*
X0261457Y0184651D01*
X0260614Y0184218D02*
X0258879Y0184218D01*
X0258036Y0184218D02*
X0257168Y0185085D01*
X0257602Y0185085D02*
X0256301Y0185085D01*
X0256301Y0184218D02*
X0256301Y0186820D01*
X0257602Y0186820D01*
X0258036Y0186386D01*
X0258036Y0185519D01*
X0257602Y0185085D01*
X0258879Y0185953D02*
X0259747Y0186820D01*
X0259747Y0184218D01*
X0261457Y0186386D02*
X0261891Y0186820D01*
X0262759Y0186820D01*
X0263192Y0186386D01*
X0262759Y0185519D02*
X0262325Y0185519D01*
X0259442Y0201238D02*
X0259869Y0201664D01*
X0259869Y0202517D01*
X0259442Y0202943D01*
X0257737Y0202943D02*
X0257310Y0202517D01*
X0257310Y0201664D01*
X0257737Y0201238D01*
X0259442Y0201238D01*
X0249256Y0205676D02*
X0249256Y0206102D01*
X0248830Y0206529D01*
X0247977Y0206529D01*
X0247551Y0206955D01*
X0247551Y0207381D01*
X0247977Y0207808D01*
X0248830Y0207808D01*
X0249256Y0207381D01*
X0249256Y0206955D01*
X0248830Y0206529D01*
X0247977Y0206529D02*
X0247551Y0206102D01*
X0247551Y0205676D01*
X0247977Y0205250D01*
X0248830Y0205250D01*
X0249256Y0205676D01*
X0246719Y0205676D02*
X0246719Y0207381D01*
X0246292Y0207808D01*
X0245013Y0207808D01*
X0245013Y0205250D01*
X0246292Y0205250D01*
X0246719Y0205676D01*
X0253281Y0209088D02*
X0253576Y0208793D01*
X0254166Y0208793D01*
X0254461Y0209088D01*
X0253281Y0209088D02*
X0253281Y0210268D01*
X0253576Y0210563D01*
X0254166Y0210563D01*
X0254461Y0210268D01*
X0263786Y0218757D02*
X0263786Y0221359D01*
X0265087Y0221359D01*
X0265521Y0220926D01*
X0265521Y0220058D01*
X0265087Y0219624D01*
X0263786Y0219624D01*
X0264654Y0219624D02*
X0265521Y0218757D01*
X0266365Y0218757D02*
X0268099Y0218757D01*
X0267232Y0218757D02*
X0267232Y0221359D01*
X0266365Y0220492D01*
X0268943Y0220058D02*
X0270678Y0220058D01*
X0270244Y0218757D02*
X0270244Y0221359D01*
X0268943Y0220058D01*
X0229603Y0195209D02*
X0227868Y0195209D01*
X0227868Y0193908D01*
X0228736Y0194342D01*
X0229169Y0194342D01*
X0229603Y0193908D01*
X0229603Y0193041D01*
X0229169Y0192607D01*
X0228302Y0192607D01*
X0227868Y0193041D01*
X0227025Y0193041D02*
X0227025Y0195209D01*
X0225290Y0195209D02*
X0225290Y0193041D01*
X0225724Y0192607D01*
X0226591Y0192607D01*
X0227025Y0193041D01*
X0235397Y0185422D02*
X0235830Y0184555D01*
X0236698Y0183687D01*
X0236698Y0184989D01*
X0237131Y0185422D01*
X0237565Y0185422D01*
X0237999Y0184989D01*
X0237999Y0184121D01*
X0237565Y0183687D01*
X0236698Y0183687D01*
X0237565Y0182844D02*
X0237999Y0182410D01*
X0237999Y0181543D01*
X0237565Y0181109D01*
X0235830Y0181109D01*
X0235397Y0181543D01*
X0235397Y0182410D01*
X0235830Y0182844D01*
X0244136Y0167647D02*
X0245437Y0167647D01*
X0245871Y0167213D01*
X0245871Y0166346D01*
X0245437Y0165912D01*
X0244136Y0165912D01*
X0245003Y0165912D02*
X0245871Y0165045D01*
X0246714Y0165045D02*
X0248449Y0165045D01*
X0249292Y0165045D02*
X0251027Y0166779D01*
X0251027Y0167213D01*
X0250593Y0167647D01*
X0249726Y0167647D01*
X0249292Y0167213D01*
X0247581Y0167647D02*
X0247581Y0165045D01*
X0249292Y0165045D02*
X0251027Y0165045D01*
X0247581Y0167647D02*
X0246714Y0166779D01*
X0244136Y0167647D02*
X0244136Y0165045D01*
X0253006Y0157872D02*
X0253006Y0155269D01*
X0254740Y0155269D01*
X0255584Y0155269D02*
X0257319Y0155269D01*
X0256451Y0155269D02*
X0256451Y0157872D01*
X0255584Y0157004D01*
X0231799Y0138682D02*
X0231799Y0136080D01*
X0230932Y0136080D02*
X0232666Y0136080D01*
X0230932Y0137815D02*
X0231799Y0138682D01*
X0230088Y0138248D02*
X0229654Y0138682D01*
X0228787Y0138682D01*
X0228353Y0138248D01*
X0228353Y0136514D01*
X0228787Y0136080D01*
X0229654Y0136080D01*
X0230088Y0136514D01*
X0235397Y0125500D02*
X0237999Y0125500D01*
X0237999Y0126367D02*
X0237999Y0124632D01*
X0237999Y0123789D02*
X0237131Y0122921D01*
X0237131Y0123355D02*
X0237131Y0122054D01*
X0237999Y0122054D02*
X0235397Y0122054D01*
X0235397Y0123355D01*
X0235830Y0123789D01*
X0236698Y0123789D01*
X0237131Y0123355D01*
X0236264Y0124632D02*
X0235397Y0125500D01*
X0246748Y0113586D02*
X0246314Y0113152D01*
X0246314Y0112285D01*
X0246748Y0111851D01*
X0246748Y0111008D02*
X0246314Y0110574D01*
X0246314Y0109707D01*
X0246748Y0109273D01*
X0248482Y0109273D01*
X0248916Y0109707D01*
X0248916Y0110574D01*
X0248482Y0111008D01*
X0248916Y0111851D02*
X0247181Y0113586D01*
X0246748Y0113586D01*
X0248916Y0113586D02*
X0248916Y0111851D01*
X0264932Y0115448D02*
X0267101Y0115448D01*
X0267535Y0115881D01*
X0267535Y0116749D01*
X0267101Y0117182D01*
X0264932Y0117182D01*
X0265800Y0118026D02*
X0264932Y0118893D01*
X0267535Y0118893D01*
X0267535Y0118026D02*
X0267535Y0119761D01*
X0267089Y0103749D02*
X0267523Y0103315D01*
X0267523Y0102882D01*
X0267089Y0102448D01*
X0267523Y0102014D01*
X0267523Y0101581D01*
X0267089Y0101147D01*
X0266222Y0101147D01*
X0265788Y0101581D01*
X0264945Y0101581D02*
X0264511Y0101147D01*
X0263644Y0101147D01*
X0263210Y0101581D01*
X0263210Y0103315D01*
X0263644Y0103749D01*
X0264511Y0103749D01*
X0264945Y0103315D01*
X0265788Y0103315D02*
X0266222Y0103749D01*
X0267089Y0103749D01*
X0267089Y0102448D02*
X0266656Y0102448D01*
X0254885Y0072253D02*
X0254017Y0072253D01*
X0253583Y0071819D01*
X0252740Y0071819D02*
X0252740Y0070952D01*
X0252306Y0070518D01*
X0251005Y0070518D01*
X0251005Y0069651D02*
X0251005Y0072253D01*
X0252306Y0072253D01*
X0252740Y0071819D01*
X0251873Y0070518D02*
X0252740Y0069651D01*
X0253583Y0069651D02*
X0255318Y0071386D01*
X0255318Y0071819D01*
X0254885Y0072253D01*
X0255318Y0069651D02*
X0253583Y0069651D01*
X0232570Y0069717D02*
X0232275Y0070012D01*
X0231685Y0070012D01*
X0231390Y0069717D01*
X0231390Y0068537D01*
X0231685Y0068242D01*
X0232275Y0068242D01*
X0232570Y0068537D01*
X0293558Y0067267D02*
X0293992Y0067701D01*
X0294859Y0067701D01*
X0295293Y0067267D01*
X0295293Y0065966D01*
X0296160Y0065966D02*
X0293558Y0065966D01*
X0293558Y0067267D01*
X0295293Y0066833D02*
X0296160Y0067701D01*
X0295726Y0068544D02*
X0294859Y0068544D01*
X0294859Y0069845D01*
X0295293Y0070279D01*
X0295726Y0070279D01*
X0296160Y0069845D01*
X0296160Y0068978D01*
X0295726Y0068544D01*
X0294859Y0068544D02*
X0293992Y0069411D01*
X0293558Y0070279D01*
X0302326Y0062941D02*
X0303627Y0061640D01*
X0303627Y0063375D01*
X0304928Y0062941D02*
X0302326Y0062941D01*
X0302759Y0060797D02*
X0303627Y0060797D01*
X0304061Y0060363D01*
X0304061Y0059062D01*
X0304928Y0059062D02*
X0302326Y0059062D01*
X0302326Y0060363D01*
X0302759Y0060797D01*
X0304061Y0059929D02*
X0304928Y0060797D01*
X0342211Y0061155D02*
X0344380Y0061155D01*
X0344813Y0061589D01*
X0344813Y0062456D01*
X0344380Y0062890D01*
X0342211Y0062890D01*
X0342645Y0063733D02*
X0342211Y0064167D01*
X0342211Y0065034D01*
X0342645Y0065468D01*
X0343079Y0065468D01*
X0344813Y0063733D01*
X0344813Y0065468D01*
X0353047Y0046657D02*
X0353480Y0046657D01*
X0353914Y0046223D01*
X0354348Y0046657D01*
X0354782Y0046657D01*
X0355215Y0046223D01*
X0355215Y0045356D01*
X0354782Y0044922D01*
X0355215Y0044079D02*
X0354348Y0043211D01*
X0354348Y0043645D02*
X0354348Y0042344D01*
X0355215Y0042344D02*
X0352613Y0042344D01*
X0352613Y0043645D01*
X0353047Y0044079D01*
X0353914Y0044079D01*
X0354348Y0043645D01*
X0353047Y0044922D02*
X0352613Y0045356D01*
X0352613Y0046223D01*
X0353047Y0046657D01*
X0353914Y0046223D02*
X0353914Y0045789D01*
X0354756Y0037688D02*
X0354461Y0037393D01*
X0354461Y0036803D01*
X0354756Y0036508D01*
X0355936Y0036508D01*
X0356231Y0036803D01*
X0356231Y0037393D01*
X0355936Y0037688D01*
X0269270Y0016436D02*
X0269270Y0016010D01*
X0268844Y0015584D01*
X0269270Y0015157D01*
X0269270Y0014731D01*
X0268844Y0014305D01*
X0267991Y0014305D01*
X0267565Y0014731D01*
X0266733Y0014731D02*
X0266733Y0016436D01*
X0266306Y0016863D01*
X0265027Y0016863D01*
X0265027Y0014305D01*
X0266306Y0014305D01*
X0266733Y0014731D01*
X0268418Y0015584D02*
X0268844Y0015584D01*
X0269270Y0016436D02*
X0268844Y0016863D01*
X0267991Y0016863D01*
X0267565Y0016436D01*
X0265461Y0018439D02*
X0265887Y0018865D01*
X0265887Y0019718D01*
X0265461Y0020144D01*
X0264608Y0020144D01*
X0264182Y0019718D01*
X0264182Y0018865D01*
X0264608Y0018439D01*
X0265461Y0018439D01*
X0263343Y0018439D02*
X0262916Y0018865D01*
X0262916Y0020570D01*
X0262490Y0020144D02*
X0263343Y0020144D01*
X0261651Y0016863D02*
X0261224Y0016436D01*
X0261224Y0014305D01*
X0259966Y0014731D02*
X0259966Y0015584D01*
X0259540Y0016010D01*
X0258687Y0016010D01*
X0258261Y0015584D01*
X0258261Y0014731D01*
X0258687Y0014305D01*
X0259540Y0014305D01*
X0259966Y0014731D01*
X0260798Y0015584D02*
X0261651Y0015584D01*
X0257838Y0018439D02*
X0257838Y0020144D01*
X0258690Y0020144D02*
X0259117Y0020144D01*
X0258690Y0020144D02*
X0257838Y0019291D01*
X0257005Y0019291D02*
X0255300Y0019291D01*
X0255300Y0018865D02*
X0255300Y0019718D01*
X0255726Y0020144D01*
X0256579Y0020144D01*
X0257005Y0019718D01*
X0257005Y0019291D01*
X0256579Y0018439D02*
X0255726Y0018439D01*
X0255300Y0018865D01*
X0254461Y0018439D02*
X0254035Y0018865D01*
X0254035Y0020570D01*
X0254461Y0020144D02*
X0253608Y0020144D01*
X0252776Y0019718D02*
X0252776Y0019291D01*
X0251071Y0019291D01*
X0251071Y0018865D02*
X0251071Y0019718D01*
X0251497Y0020144D01*
X0252350Y0020144D01*
X0252776Y0019718D01*
X0252350Y0018439D02*
X0251497Y0018439D01*
X0251071Y0018865D01*
X0250238Y0018439D02*
X0250238Y0019718D01*
X0249812Y0020144D01*
X0249386Y0019718D01*
X0249386Y0018439D01*
X0248533Y0018439D02*
X0248533Y0020144D01*
X0248959Y0020144D01*
X0249386Y0019718D01*
X0247701Y0019718D02*
X0247701Y0018865D01*
X0247275Y0018439D01*
X0246422Y0018439D01*
X0245995Y0018865D01*
X0245995Y0019718D01*
X0246422Y0020144D01*
X0247275Y0020144D01*
X0247701Y0019718D01*
X0245156Y0018439D02*
X0244304Y0018439D01*
X0244730Y0018439D02*
X0244730Y0020144D01*
X0244304Y0020144D01*
X0243465Y0020144D02*
X0242612Y0020144D01*
X0243038Y0020570D02*
X0243038Y0018865D01*
X0243465Y0018439D01*
X0241780Y0018439D02*
X0241780Y0019718D01*
X0241353Y0020144D01*
X0240074Y0020144D01*
X0240074Y0018439D01*
X0239242Y0019291D02*
X0237537Y0019291D01*
X0237537Y0018865D02*
X0237537Y0019718D01*
X0237963Y0020144D01*
X0238816Y0020144D01*
X0239242Y0019718D01*
X0239242Y0019291D01*
X0238816Y0018439D02*
X0237963Y0018439D01*
X0237537Y0018865D01*
X0236698Y0018439D02*
X0236271Y0018865D01*
X0236271Y0020570D01*
X0235845Y0020144D02*
X0236698Y0020144D01*
X0235013Y0019718D02*
X0235013Y0018865D01*
X0234587Y0018439D01*
X0233734Y0018439D01*
X0233307Y0018865D01*
X0233307Y0019718D01*
X0233734Y0020144D01*
X0234587Y0020144D01*
X0235013Y0019718D01*
X0232475Y0019718D02*
X0232475Y0018865D01*
X0232049Y0018439D01*
X0230770Y0018439D01*
X0230770Y0017586D02*
X0230770Y0020144D01*
X0232049Y0020144D01*
X0232475Y0019718D01*
X0232462Y0016863D02*
X0232462Y0014305D01*
X0233741Y0014305D01*
X0234167Y0014731D01*
X0234167Y0015584D01*
X0233741Y0016010D01*
X0232462Y0016010D01*
X0234999Y0016010D02*
X0234999Y0014305D01*
X0234999Y0015157D02*
X0235852Y0016010D01*
X0236278Y0016010D01*
X0237114Y0016010D02*
X0237540Y0016010D01*
X0237540Y0014305D01*
X0237114Y0014305D02*
X0237967Y0014305D01*
X0238806Y0014731D02*
X0239232Y0014305D01*
X0240511Y0014305D01*
X0240511Y0013878D02*
X0240511Y0016010D01*
X0239232Y0016010D01*
X0238806Y0015584D01*
X0238806Y0014731D01*
X0239658Y0013452D02*
X0240085Y0013452D01*
X0240511Y0013878D01*
X0241343Y0014305D02*
X0241343Y0016863D01*
X0241770Y0016010D02*
X0242622Y0016010D01*
X0243049Y0015584D01*
X0243049Y0014305D01*
X0244307Y0014731D02*
X0244734Y0014305D01*
X0244307Y0014731D02*
X0244307Y0016436D01*
X0243881Y0016010D02*
X0244734Y0016010D01*
X0245573Y0016010D02*
X0246852Y0016010D01*
X0247278Y0015584D01*
X0247278Y0014305D01*
X0248110Y0014731D02*
X0248110Y0015584D01*
X0248536Y0016010D01*
X0249389Y0016010D01*
X0249816Y0015584D01*
X0249816Y0015157D01*
X0248110Y0015157D01*
X0248110Y0014731D02*
X0248536Y0014305D01*
X0249389Y0014305D01*
X0250648Y0014305D02*
X0251927Y0014305D01*
X0252353Y0014731D01*
X0251927Y0015157D01*
X0251074Y0015157D01*
X0250648Y0015584D01*
X0251074Y0016010D01*
X0252353Y0016010D01*
X0253185Y0015584D02*
X0253612Y0016010D01*
X0254891Y0016010D01*
X0254464Y0015157D02*
X0253612Y0015157D01*
X0253185Y0015584D01*
X0253185Y0014305D02*
X0254464Y0014305D01*
X0254891Y0014731D01*
X0254464Y0015157D01*
X0245573Y0014305D02*
X0245573Y0016010D01*
X0241770Y0016010D02*
X0241343Y0015584D01*
X0237540Y0016863D02*
X0237540Y0017289D01*
X0244730Y0020997D02*
X0244730Y0021423D01*
X0229092Y0015584D02*
X0229092Y0015157D01*
X0227386Y0015157D01*
X0227386Y0014731D02*
X0227386Y0015584D01*
X0227813Y0016010D01*
X0228665Y0016010D01*
X0229092Y0015584D01*
X0228665Y0014305D02*
X0227813Y0014305D01*
X0227386Y0014731D01*
X0226554Y0014305D02*
X0225275Y0014305D01*
X0224849Y0014731D01*
X0224849Y0015584D01*
X0225275Y0016010D01*
X0226554Y0016010D01*
X0226554Y0013878D01*
X0226128Y0013452D01*
X0225702Y0013452D01*
X0224017Y0014305D02*
X0224017Y0015584D01*
X0223590Y0016010D01*
X0222311Y0016010D01*
X0222311Y0014305D01*
X0221479Y0014305D02*
X0220200Y0014305D01*
X0219774Y0014731D01*
X0220200Y0015157D01*
X0221479Y0015157D01*
X0221479Y0015584D02*
X0221479Y0014305D01*
X0221479Y0015584D02*
X0221053Y0016010D01*
X0220200Y0016010D01*
X0218941Y0015584D02*
X0218941Y0014305D01*
X0218941Y0015584D02*
X0218515Y0016010D01*
X0217662Y0016010D01*
X0217236Y0015584D01*
X0216404Y0016010D02*
X0215125Y0016010D01*
X0214698Y0015584D01*
X0214698Y0014731D01*
X0215125Y0014305D01*
X0216404Y0014305D01*
X0217236Y0014305D02*
X0217236Y0016863D01*
X0217662Y0018439D02*
X0217236Y0018865D01*
X0217236Y0019718D01*
X0217662Y0020144D01*
X0218515Y0020144D01*
X0218941Y0019718D01*
X0218941Y0018865D01*
X0218515Y0018439D01*
X0217662Y0018439D01*
X0216404Y0018439D02*
X0215551Y0019291D01*
X0215977Y0019291D02*
X0214698Y0019291D01*
X0214698Y0018439D02*
X0214698Y0020997D01*
X0215977Y0020997D01*
X0216404Y0020570D01*
X0216404Y0019718D01*
X0215977Y0019291D01*
X0219774Y0020144D02*
X0220626Y0020144D01*
X0220200Y0020570D02*
X0220200Y0018865D01*
X0220626Y0018439D01*
X0221465Y0018865D02*
X0221892Y0019291D01*
X0223171Y0019291D01*
X0223171Y0019718D02*
X0223171Y0018439D01*
X0221892Y0018439D01*
X0221465Y0018865D01*
X0221892Y0020144D02*
X0222744Y0020144D01*
X0223171Y0019718D01*
X0224003Y0020144D02*
X0224856Y0020144D01*
X0224429Y0020570D02*
X0224429Y0018865D01*
X0224856Y0018439D01*
X0225695Y0018865D02*
X0225695Y0019718D01*
X0226121Y0020144D01*
X0226974Y0020144D01*
X0227400Y0019718D01*
X0227400Y0019291D01*
X0225695Y0019291D01*
X0225695Y0018865D02*
X0226121Y0018439D01*
X0226974Y0018439D01*
X0349570Y0098866D02*
X0350004Y0098432D01*
X0351738Y0098432D01*
X0352172Y0098866D01*
X0352172Y0099733D01*
X0351738Y0100167D01*
X0351738Y0101010D02*
X0352172Y0101444D01*
X0352172Y0102311D01*
X0351738Y0102745D01*
X0350871Y0102745D01*
X0350437Y0102311D01*
X0350437Y0101878D01*
X0350871Y0101010D01*
X0349570Y0101010D01*
X0349570Y0102745D01*
X0350004Y0100167D02*
X0349570Y0099733D01*
X0349570Y0098866D01*
X0361381Y0098866D02*
X0361815Y0098432D01*
X0363549Y0098432D01*
X0363983Y0098866D01*
X0363983Y0099733D01*
X0363549Y0100167D01*
X0362682Y0101010D02*
X0361381Y0102311D01*
X0363983Y0102311D01*
X0362682Y0102745D02*
X0362682Y0101010D01*
X0361815Y0100167D02*
X0361381Y0099733D01*
X0361381Y0098866D01*
X0348235Y0129928D02*
X0345633Y0129928D01*
X0345633Y0131229D01*
X0346067Y0131663D01*
X0346934Y0131663D01*
X0347368Y0131229D01*
X0347368Y0129928D01*
X0347368Y0130796D02*
X0348235Y0131663D01*
X0348235Y0132506D02*
X0348235Y0134241D01*
X0348235Y0133374D02*
X0345633Y0133374D01*
X0346500Y0132506D01*
X0346067Y0135085D02*
X0345633Y0135518D01*
X0345633Y0136386D01*
X0346067Y0136819D01*
X0347801Y0135085D01*
X0348235Y0135518D01*
X0348235Y0136386D01*
X0347801Y0136819D01*
X0346067Y0136819D01*
X0346067Y0135085D02*
X0347801Y0135085D01*
X0358398Y0131881D02*
X0358398Y0131291D01*
X0358693Y0130996D01*
X0359873Y0130996D01*
X0360168Y0131291D01*
X0360168Y0131881D01*
X0359873Y0132176D01*
X0358693Y0132176D02*
X0358398Y0131881D01*
X0298625Y0164533D02*
X0296891Y0164533D01*
X0296047Y0164533D02*
X0294312Y0164533D01*
X0293469Y0164533D02*
X0292602Y0165400D01*
X0293035Y0165400D02*
X0291734Y0165400D01*
X0291734Y0164533D02*
X0291734Y0167135D01*
X0293035Y0167135D01*
X0293469Y0166701D01*
X0293469Y0165834D01*
X0293035Y0165400D01*
X0294312Y0166268D02*
X0295180Y0167135D01*
X0295180Y0164533D01*
X0296891Y0166268D02*
X0297758Y0167135D01*
X0297758Y0164533D01*
X0208074Y0221819D02*
X0206339Y0220085D01*
X0206339Y0219651D01*
X0205496Y0220085D02*
X0205062Y0219651D01*
X0204195Y0219651D01*
X0203761Y0220085D01*
X0203761Y0221819D01*
X0204195Y0222253D01*
X0205062Y0222253D01*
X0205496Y0221819D01*
X0206339Y0222253D02*
X0208074Y0222253D01*
X0208074Y0221819D01*
X0185422Y0220926D02*
X0185422Y0220492D01*
X0184989Y0220058D01*
X0184121Y0220058D01*
X0183687Y0220492D01*
X0183687Y0220926D01*
X0184121Y0221359D01*
X0184989Y0221359D01*
X0185422Y0220926D01*
X0184989Y0220058D02*
X0185422Y0219624D01*
X0185422Y0219191D01*
X0184989Y0218757D01*
X0184121Y0218757D01*
X0183687Y0219191D01*
X0183687Y0219624D01*
X0184121Y0220058D01*
X0182844Y0219191D02*
X0182410Y0218757D01*
X0181543Y0218757D01*
X0181109Y0219191D01*
X0181109Y0220926D01*
X0181543Y0221359D01*
X0182410Y0221359D01*
X0182844Y0220926D01*
X0182410Y0209548D02*
X0181109Y0209548D01*
X0181109Y0206946D01*
X0181109Y0207813D02*
X0182410Y0207813D01*
X0182844Y0208247D01*
X0182844Y0209115D01*
X0182410Y0209548D01*
X0183687Y0208681D02*
X0184555Y0209548D01*
X0184555Y0206946D01*
X0185422Y0206946D02*
X0183687Y0206946D01*
X0182844Y0206946D02*
X0181977Y0207813D01*
X0186266Y0207380D02*
X0186699Y0206946D01*
X0187567Y0206946D01*
X0188000Y0207380D01*
X0188000Y0208247D01*
X0187567Y0208681D01*
X0187133Y0208681D01*
X0186266Y0208247D01*
X0186266Y0209548D01*
X0188000Y0209548D01*
X0191139Y0197798D02*
X0191139Y0197371D01*
X0191992Y0196519D01*
X0191992Y0195686D02*
X0191992Y0193981D01*
X0191566Y0193981D02*
X0191139Y0194407D01*
X0191139Y0195260D01*
X0191566Y0195686D01*
X0191992Y0195686D01*
X0192845Y0195260D02*
X0192845Y0194407D01*
X0192419Y0193981D01*
X0191566Y0193981D01*
X0191139Y0193149D02*
X0191139Y0191870D01*
X0191566Y0191443D01*
X0192419Y0191443D01*
X0192845Y0191870D01*
X0192845Y0193149D01*
X0193271Y0193149D02*
X0191139Y0193149D01*
X0193271Y0193149D02*
X0193698Y0192722D01*
X0193698Y0192296D01*
X0193271Y0190611D02*
X0191139Y0190611D01*
X0191139Y0189332D01*
X0191566Y0188906D01*
X0192419Y0188906D01*
X0192845Y0189332D01*
X0192845Y0190611D01*
X0193271Y0190611D02*
X0193698Y0190185D01*
X0193698Y0189759D01*
X0192845Y0188067D02*
X0192845Y0187214D01*
X0192845Y0187640D02*
X0191139Y0187640D01*
X0191139Y0187214D01*
X0191139Y0186378D02*
X0191139Y0185952D01*
X0191992Y0185099D01*
X0192845Y0185099D02*
X0191139Y0185099D01*
X0191139Y0184260D02*
X0191139Y0183408D01*
X0190713Y0183834D02*
X0192419Y0183834D01*
X0192845Y0184260D01*
X0188711Y0183415D02*
X0188285Y0182988D01*
X0186579Y0182988D01*
X0187006Y0182562D02*
X0187006Y0183415D01*
X0187006Y0181730D02*
X0187006Y0180451D01*
X0187432Y0180024D01*
X0188285Y0180024D01*
X0188711Y0180451D01*
X0188711Y0181730D01*
X0187858Y0179192D02*
X0187858Y0177487D01*
X0187432Y0177487D02*
X0187006Y0177913D01*
X0187006Y0178766D01*
X0187432Y0179192D01*
X0187858Y0179192D01*
X0188711Y0178766D02*
X0188711Y0177913D01*
X0188285Y0177487D01*
X0187432Y0177487D01*
X0187432Y0176654D02*
X0188711Y0176654D01*
X0187432Y0176654D02*
X0187006Y0176228D01*
X0187006Y0174949D01*
X0188711Y0174949D01*
X0188711Y0174117D02*
X0187432Y0174117D01*
X0187006Y0173690D01*
X0187006Y0172411D01*
X0188711Y0172411D01*
X0188285Y0171579D02*
X0187432Y0171579D01*
X0187006Y0171153D01*
X0187006Y0170300D01*
X0187432Y0169874D01*
X0188285Y0169874D01*
X0188711Y0170300D01*
X0188711Y0171153D01*
X0188285Y0171579D01*
X0188285Y0169042D02*
X0188711Y0168615D01*
X0188711Y0167763D01*
X0188285Y0167336D01*
X0186579Y0167336D01*
X0186153Y0167763D01*
X0186153Y0168615D01*
X0186579Y0169042D01*
X0190287Y0168615D02*
X0190287Y0167763D01*
X0190713Y0167336D01*
X0192419Y0167336D01*
X0192845Y0167763D01*
X0192845Y0168615D01*
X0192419Y0169042D01*
X0190713Y0169042D01*
X0190287Y0168615D01*
X0191139Y0169874D02*
X0192419Y0169874D01*
X0192845Y0170300D01*
X0192845Y0171579D01*
X0191139Y0171579D01*
X0191139Y0172411D02*
X0191139Y0173264D01*
X0190713Y0172838D02*
X0192419Y0172838D01*
X0192845Y0173264D01*
X0191139Y0176641D02*
X0191139Y0177493D01*
X0190713Y0177067D02*
X0192419Y0177067D01*
X0192845Y0177493D01*
X0192419Y0178332D02*
X0192845Y0178759D01*
X0192845Y0179612D01*
X0192419Y0180038D01*
X0191566Y0180038D01*
X0191139Y0179612D01*
X0191139Y0178759D01*
X0191566Y0178332D01*
X0192419Y0178332D01*
X0188711Y0186791D02*
X0188711Y0187644D01*
X0188711Y0187217D02*
X0186153Y0187217D01*
X0186153Y0186791D02*
X0186153Y0187644D01*
X0187006Y0188483D02*
X0187006Y0189762D01*
X0187432Y0190188D01*
X0188711Y0190188D01*
X0188711Y0188483D02*
X0187006Y0188483D01*
X0189860Y0187640D02*
X0190287Y0187640D01*
X0188285Y0193984D02*
X0188711Y0194411D01*
X0188285Y0193984D02*
X0186579Y0193984D01*
X0187006Y0193558D02*
X0187006Y0194411D01*
X0187432Y0195250D02*
X0188285Y0195250D01*
X0188711Y0195676D01*
X0188711Y0196529D01*
X0188285Y0196955D01*
X0187432Y0196955D01*
X0187006Y0196529D01*
X0187006Y0195676D01*
X0187432Y0195250D01*
X0191139Y0196519D02*
X0192845Y0196519D01*
D15*
X0033496Y0245504D02*
X0033496Y0010465D01*
X0096488Y0010465D01*
X0096488Y0245504D01*
X0033496Y0245504D01*
X0104362Y0245504D02*
X0167354Y0245504D01*
X0167354Y0010465D01*
X0104362Y0010465D01*
X0104362Y0245504D01*
X0180875Y0218006D02*
X0180875Y0211188D01*
X0193203Y0211192D01*
X0193206Y0218007D01*
X0180875Y0218006D01*
X0180875Y0206195D02*
X0193206Y0206196D01*
X0193203Y0199381D01*
X0180875Y0199377D01*
X0180875Y0206195D01*
X0196621Y0223001D02*
X0208952Y0223002D01*
X0208952Y0229820D01*
X0196624Y0229816D01*
X0196621Y0223001D01*
X0208693Y0216567D02*
X0228378Y0216567D01*
X0228378Y0196882D01*
X0208693Y0196882D01*
X0208693Y0216567D01*
X0243867Y0218006D02*
X0243867Y0211188D01*
X0255801Y0211192D01*
X0255804Y0218007D01*
X0243867Y0218006D01*
X0255937Y0218142D02*
X0255937Y0217748D01*
X0256331Y0217748D01*
X0256724Y0217748D01*
X0256724Y0211449D01*
X0256331Y0211449D01*
X0256331Y0211843D02*
X0256331Y0217748D01*
X0255937Y0217748D02*
X0255937Y0211449D01*
X0257118Y0211055D01*
X0255937Y0211055D01*
X0255937Y0212236D01*
X0257118Y0212236D01*
X0257118Y0211055D01*
X0257118Y0212236D02*
X0257118Y0218142D01*
X0255937Y0218142D01*
X0263552Y0218006D02*
X0275883Y0218007D01*
X0275880Y0211192D01*
X0263552Y0211188D01*
X0263552Y0218006D01*
X0252394Y0204362D02*
X0251606Y0204362D01*
X0251213Y0204362D01*
X0251213Y0201213D01*
X0251606Y0201213D01*
X0251606Y0204362D01*
X0251213Y0204362D02*
X0247669Y0204362D01*
X0247669Y0201213D01*
X0251213Y0201213D01*
X0251606Y0201213D02*
X0252394Y0201213D01*
X0252394Y0204362D01*
X0251742Y0194383D02*
X0251739Y0187568D01*
X0264070Y0187569D01*
X0264070Y0194387D01*
X0251742Y0194383D01*
X0245564Y0193203D02*
X0238749Y0193206D01*
X0238750Y0180875D01*
X0245568Y0180875D01*
X0245564Y0193203D01*
X0239577Y0175210D02*
X0239574Y0168395D01*
X0251905Y0168395D01*
X0251904Y0175213D01*
X0239577Y0175210D01*
X0286252Y0179559D02*
X0286252Y0185465D01*
X0287433Y0185465D01*
X0287433Y0186646D01*
X0286252Y0186646D01*
X0287433Y0186252D01*
X0287433Y0179953D01*
X0287039Y0179953D01*
X0286646Y0179953D01*
X0286646Y0186252D01*
X0287039Y0186252D01*
X0287039Y0185858D02*
X0287039Y0179953D01*
X0287433Y0179953D02*
X0287433Y0179559D01*
X0286252Y0179559D01*
X0287566Y0179694D02*
X0299503Y0179695D01*
X0299503Y0186512D01*
X0287569Y0186509D01*
X0287566Y0179694D01*
X0287175Y0174698D02*
X0287172Y0167883D01*
X0299503Y0167884D01*
X0299503Y0174701D01*
X0287175Y0174698D01*
X0286252Y0185465D02*
X0286252Y0186646D01*
X0301742Y0192686D02*
X0301741Y0205017D01*
X0308556Y0205014D01*
X0308560Y0192686D01*
X0301742Y0192686D01*
X0325364Y0192686D02*
X0325363Y0205017D01*
X0332178Y0205014D01*
X0332182Y0192686D01*
X0325364Y0192686D01*
X0348986Y0192686D02*
X0348985Y0205017D01*
X0355801Y0205014D01*
X0355804Y0192686D01*
X0348986Y0192686D01*
X0357118Y0168142D02*
X0339795Y0168142D01*
X0339795Y0150819D01*
X0357118Y0150819D01*
X0357118Y0168142D01*
X0326803Y0168142D02*
X0326803Y0150819D01*
X0307118Y0150819D01*
X0307118Y0168142D01*
X0326803Y0168142D01*
X0348985Y0142025D02*
X0348986Y0129693D01*
X0355804Y0129694D01*
X0355801Y0142021D01*
X0348985Y0142025D01*
X0360795Y0142022D02*
X0360798Y0130089D01*
X0367613Y0130085D01*
X0367612Y0142023D01*
X0360795Y0142022D01*
X0360661Y0129953D02*
X0361843Y0129953D01*
X0361843Y0128772D01*
X0360661Y0128772D01*
X0360661Y0129953D01*
X0361055Y0129953D02*
X0367354Y0129953D01*
X0367354Y0129559D01*
X0367354Y0129165D01*
X0361055Y0129165D01*
X0361055Y0129559D01*
X0361055Y0129953D02*
X0360661Y0128772D01*
X0361449Y0129559D02*
X0367354Y0129559D01*
X0367354Y0129953D02*
X0367748Y0129953D01*
X0367748Y0128772D01*
X0361843Y0128772D01*
X0359738Y0110525D02*
X0352922Y0110529D01*
X0352923Y0098197D01*
X0359741Y0098198D01*
X0359738Y0110525D01*
X0364733Y0110529D02*
X0364734Y0098197D01*
X0371552Y0098198D01*
X0371549Y0110525D01*
X0364733Y0110529D01*
X0332709Y0101528D02*
X0332709Y0098850D01*
X0324835Y0098850D01*
X0324835Y0101528D01*
X0328772Y0101528D01*
X0328772Y0120110D01*
X0328772Y0101528D02*
X0332709Y0101528D01*
X0332709Y0098850D02*
X0332709Y0083575D01*
X0328772Y0083575D01*
X0328772Y0064992D01*
X0312497Y0058828D02*
X0312493Y0071155D01*
X0305678Y0071159D01*
X0305679Y0058827D01*
X0312497Y0058828D01*
X0292810Y0058826D02*
X0292809Y0071157D01*
X0285991Y0071156D01*
X0285995Y0058829D01*
X0292810Y0058826D01*
X0275622Y0048063D02*
X0342551Y0048063D01*
X0342551Y0010661D01*
X0275622Y0010661D01*
X0275622Y0048063D01*
X0258163Y0060798D02*
X0258167Y0067613D01*
X0245835Y0067612D01*
X0245836Y0060795D01*
X0258163Y0060798D01*
X0242417Y0060797D02*
X0230479Y0060796D01*
X0230483Y0067612D01*
X0242416Y0067615D01*
X0242417Y0060797D01*
X0230346Y0060661D02*
X0230346Y0061055D01*
X0229953Y0061055D01*
X0229559Y0061055D01*
X0229559Y0067354D01*
X0229953Y0067354D01*
X0229953Y0066961D02*
X0229953Y0061055D01*
X0230346Y0061055D02*
X0230346Y0067354D01*
X0229165Y0067748D01*
X0230346Y0067748D01*
X0230346Y0066567D01*
X0229165Y0066567D01*
X0229165Y0067748D01*
X0229165Y0066567D02*
X0229165Y0060661D01*
X0230346Y0060661D01*
X0289402Y0084677D02*
X0289402Y0103260D01*
X0285465Y0103260D01*
X0285465Y0105937D01*
X0293339Y0105937D01*
X0293339Y0103260D01*
X0289402Y0103260D01*
X0293339Y0105937D02*
X0293339Y0121213D01*
X0289402Y0121213D01*
X0289402Y0139795D01*
X0264047Y0130740D02*
X0264047Y0118339D01*
X0250661Y0118339D01*
X0250661Y0130740D01*
X0264047Y0130740D01*
X0245564Y0134147D02*
X0245568Y0121820D01*
X0238750Y0121819D01*
X0238749Y0134151D01*
X0245564Y0134147D01*
X0233754Y0134149D02*
X0233755Y0121818D01*
X0226940Y0121821D01*
X0226936Y0134148D01*
X0233754Y0134149D01*
X0238747Y0114463D02*
X0238751Y0102136D01*
X0245566Y0102133D01*
X0245565Y0114464D01*
X0238747Y0114463D01*
X0256073Y0111312D02*
X0256070Y0104497D01*
X0268401Y0104498D01*
X0268400Y0111316D01*
X0256073Y0111312D01*
X0285465Y0105937D02*
X0285465Y0121213D01*
X0289402Y0121213D01*
X0324835Y0098850D02*
X0324835Y0083575D01*
X0328772Y0083575D01*
X0346488Y0082709D02*
X0346488Y0063024D01*
X0366173Y0063024D01*
X0366173Y0082709D01*
X0346488Y0082709D01*
X0345047Y0047534D02*
X0345050Y0035207D01*
X0351865Y0035204D01*
X0351864Y0047535D01*
X0345047Y0047534D01*
X0356858Y0047534D02*
X0356861Y0035601D01*
X0363676Y0035597D01*
X0363675Y0047535D01*
X0356858Y0047534D01*
X0356724Y0035465D02*
X0357906Y0035465D01*
X0357906Y0034283D01*
X0356724Y0034283D01*
X0356724Y0035465D01*
X0357118Y0035465D02*
X0363417Y0035465D01*
X0363417Y0035071D01*
X0363417Y0034677D01*
X0357118Y0034677D01*
X0357118Y0035071D01*
X0357118Y0035465D02*
X0356724Y0034283D01*
X0357512Y0035071D02*
X0363417Y0035071D01*
X0363417Y0035465D02*
X0363811Y0035465D01*
X0363811Y0034283D01*
X0357906Y0034283D01*
X0309087Y0017748D02*
X0309087Y0013811D01*
X0309874Y0014598D01*
X0309087Y0013811D02*
X0308299Y0014598D01*
D16*
X0348063Y0067354D02*
X0348065Y0067410D01*
X0348071Y0067465D01*
X0348081Y0067519D01*
X0348094Y0067573D01*
X0348112Y0067626D01*
X0348133Y0067677D01*
X0348157Y0067727D01*
X0348185Y0067775D01*
X0348217Y0067821D01*
X0348251Y0067865D01*
X0348289Y0067906D01*
X0348329Y0067944D01*
X0348372Y0067979D01*
X0348417Y0068011D01*
X0348465Y0068040D01*
X0348514Y0068066D01*
X0348565Y0068088D01*
X0348617Y0068106D01*
X0348671Y0068120D01*
X0348726Y0068131D01*
X0348781Y0068138D01*
X0348836Y0068141D01*
X0348892Y0068140D01*
X0348947Y0068135D01*
X0349002Y0068126D01*
X0349056Y0068114D01*
X0349109Y0068097D01*
X0349161Y0068077D01*
X0349211Y0068053D01*
X0349259Y0068026D01*
X0349306Y0067996D01*
X0349350Y0067962D01*
X0349392Y0067925D01*
X0349430Y0067885D01*
X0349467Y0067843D01*
X0349500Y0067798D01*
X0349529Y0067752D01*
X0349556Y0067703D01*
X0349578Y0067652D01*
X0349598Y0067600D01*
X0349613Y0067546D01*
X0349625Y0067492D01*
X0349633Y0067437D01*
X0349637Y0067382D01*
X0349637Y0067326D01*
X0349633Y0067271D01*
X0349625Y0067216D01*
X0349613Y0067162D01*
X0349598Y0067108D01*
X0349578Y0067056D01*
X0349556Y0067005D01*
X0349529Y0066956D01*
X0349500Y0066910D01*
X0349467Y0066865D01*
X0349430Y0066823D01*
X0349392Y0066783D01*
X0349350Y0066746D01*
X0349306Y0066712D01*
X0349259Y0066682D01*
X0349211Y0066655D01*
X0349161Y0066631D01*
X0349109Y0066611D01*
X0349056Y0066594D01*
X0349002Y0066582D01*
X0348947Y0066573D01*
X0348892Y0066568D01*
X0348836Y0066567D01*
X0348781Y0066570D01*
X0348726Y0066577D01*
X0348671Y0066588D01*
X0348617Y0066602D01*
X0348565Y0066620D01*
X0348514Y0066642D01*
X0348465Y0066668D01*
X0348417Y0066697D01*
X0348372Y0066729D01*
X0348329Y0066764D01*
X0348289Y0066802D01*
X0348251Y0066843D01*
X0348217Y0066887D01*
X0348185Y0066933D01*
X0348157Y0066981D01*
X0348133Y0067031D01*
X0348112Y0067082D01*
X0348094Y0067135D01*
X0348081Y0067189D01*
X0348071Y0067243D01*
X0348065Y0067298D01*
X0348063Y0067354D01*
X0223260Y0199244D02*
X0223262Y0199300D01*
X0223268Y0199355D01*
X0223278Y0199409D01*
X0223291Y0199463D01*
X0223309Y0199516D01*
X0223330Y0199567D01*
X0223354Y0199617D01*
X0223382Y0199665D01*
X0223414Y0199711D01*
X0223448Y0199755D01*
X0223486Y0199796D01*
X0223526Y0199834D01*
X0223569Y0199869D01*
X0223614Y0199901D01*
X0223662Y0199930D01*
X0223711Y0199956D01*
X0223762Y0199978D01*
X0223814Y0199996D01*
X0223868Y0200010D01*
X0223923Y0200021D01*
X0223978Y0200028D01*
X0224033Y0200031D01*
X0224089Y0200030D01*
X0224144Y0200025D01*
X0224199Y0200016D01*
X0224253Y0200004D01*
X0224306Y0199987D01*
X0224358Y0199967D01*
X0224408Y0199943D01*
X0224456Y0199916D01*
X0224503Y0199886D01*
X0224547Y0199852D01*
X0224589Y0199815D01*
X0224627Y0199775D01*
X0224664Y0199733D01*
X0224697Y0199688D01*
X0224726Y0199642D01*
X0224753Y0199593D01*
X0224775Y0199542D01*
X0224795Y0199490D01*
X0224810Y0199436D01*
X0224822Y0199382D01*
X0224830Y0199327D01*
X0224834Y0199272D01*
X0224834Y0199216D01*
X0224830Y0199161D01*
X0224822Y0199106D01*
X0224810Y0199052D01*
X0224795Y0198998D01*
X0224775Y0198946D01*
X0224753Y0198895D01*
X0224726Y0198846D01*
X0224697Y0198800D01*
X0224664Y0198755D01*
X0224627Y0198713D01*
X0224589Y0198673D01*
X0224547Y0198636D01*
X0224503Y0198602D01*
X0224456Y0198572D01*
X0224408Y0198545D01*
X0224358Y0198521D01*
X0224306Y0198501D01*
X0224253Y0198484D01*
X0224199Y0198472D01*
X0224144Y0198463D01*
X0224089Y0198458D01*
X0224033Y0198457D01*
X0223978Y0198460D01*
X0223923Y0198467D01*
X0223868Y0198478D01*
X0223814Y0198492D01*
X0223762Y0198510D01*
X0223711Y0198532D01*
X0223662Y0198558D01*
X0223614Y0198587D01*
X0223569Y0198619D01*
X0223526Y0198654D01*
X0223486Y0198692D01*
X0223448Y0198733D01*
X0223414Y0198777D01*
X0223382Y0198823D01*
X0223354Y0198871D01*
X0223330Y0198921D01*
X0223309Y0198972D01*
X0223291Y0199025D01*
X0223278Y0199079D01*
X0223268Y0199133D01*
X0223262Y0199188D01*
X0223260Y0199244D01*
D17*
X0352788Y0166764D02*
X0352790Y0166820D01*
X0352796Y0166875D01*
X0352806Y0166929D01*
X0352819Y0166983D01*
X0352837Y0167036D01*
X0352858Y0167087D01*
X0352882Y0167137D01*
X0352910Y0167185D01*
X0352942Y0167231D01*
X0352976Y0167275D01*
X0353014Y0167316D01*
X0353054Y0167354D01*
X0353097Y0167389D01*
X0353142Y0167421D01*
X0353190Y0167450D01*
X0353239Y0167476D01*
X0353290Y0167498D01*
X0353342Y0167516D01*
X0353396Y0167530D01*
X0353451Y0167541D01*
X0353506Y0167548D01*
X0353561Y0167551D01*
X0353617Y0167550D01*
X0353672Y0167545D01*
X0353727Y0167536D01*
X0353781Y0167524D01*
X0353834Y0167507D01*
X0353886Y0167487D01*
X0353936Y0167463D01*
X0353984Y0167436D01*
X0354031Y0167406D01*
X0354075Y0167372D01*
X0354117Y0167335D01*
X0354155Y0167295D01*
X0354192Y0167253D01*
X0354225Y0167208D01*
X0354254Y0167162D01*
X0354281Y0167113D01*
X0354303Y0167062D01*
X0354323Y0167010D01*
X0354338Y0166956D01*
X0354350Y0166902D01*
X0354358Y0166847D01*
X0354362Y0166792D01*
X0354362Y0166736D01*
X0354358Y0166681D01*
X0354350Y0166626D01*
X0354338Y0166572D01*
X0354323Y0166518D01*
X0354303Y0166466D01*
X0354281Y0166415D01*
X0354254Y0166366D01*
X0354225Y0166320D01*
X0354192Y0166275D01*
X0354155Y0166233D01*
X0354117Y0166193D01*
X0354075Y0166156D01*
X0354031Y0166122D01*
X0353984Y0166092D01*
X0353936Y0166065D01*
X0353886Y0166041D01*
X0353834Y0166021D01*
X0353781Y0166004D01*
X0353727Y0165992D01*
X0353672Y0165983D01*
X0353617Y0165978D01*
X0353561Y0165977D01*
X0353506Y0165980D01*
X0353451Y0165987D01*
X0353396Y0165998D01*
X0353342Y0166012D01*
X0353290Y0166030D01*
X0353239Y0166052D01*
X0353190Y0166078D01*
X0353142Y0166107D01*
X0353097Y0166139D01*
X0353054Y0166174D01*
X0353014Y0166212D01*
X0352976Y0166253D01*
X0352942Y0166297D01*
X0352910Y0166343D01*
X0352882Y0166391D01*
X0352858Y0166441D01*
X0352837Y0166492D01*
X0352819Y0166545D01*
X0352806Y0166599D01*
X0352796Y0166653D01*
X0352790Y0166708D01*
X0352788Y0166764D01*
D18*
X0323066Y0164598D02*
X0323068Y0164677D01*
X0323074Y0164756D01*
X0323084Y0164834D01*
X0323098Y0164912D01*
X0323115Y0164989D01*
X0323137Y0165065D01*
X0323162Y0165140D01*
X0323191Y0165213D01*
X0323224Y0165285D01*
X0323260Y0165355D01*
X0323300Y0165424D01*
X0323343Y0165490D01*
X0323390Y0165554D01*
X0323439Y0165615D01*
X0323492Y0165674D01*
X0323548Y0165730D01*
X0323606Y0165784D01*
X0323667Y0165834D01*
X0323730Y0165881D01*
X0323796Y0165925D01*
X0323863Y0165966D01*
X0323933Y0166003D01*
X0324005Y0166037D01*
X0324078Y0166067D01*
X0324152Y0166093D01*
X0324228Y0166116D01*
X0324305Y0166134D01*
X0324382Y0166149D01*
X0324461Y0166160D01*
X0324539Y0166167D01*
X0324618Y0166170D01*
X0324697Y0166169D01*
X0324776Y0166164D01*
X0324855Y0166155D01*
X0324933Y0166142D01*
X0325010Y0166125D01*
X0325086Y0166105D01*
X0325161Y0166080D01*
X0325235Y0166052D01*
X0325307Y0166020D01*
X0325378Y0165985D01*
X0325447Y0165946D01*
X0325513Y0165904D01*
X0325578Y0165858D01*
X0325640Y0165809D01*
X0325700Y0165757D01*
X0325757Y0165703D01*
X0325811Y0165645D01*
X0325862Y0165585D01*
X0325910Y0165522D01*
X0325955Y0165457D01*
X0325996Y0165390D01*
X0326034Y0165320D01*
X0326069Y0165249D01*
X0326100Y0165177D01*
X0326127Y0165103D01*
X0326150Y0165027D01*
X0326170Y0164951D01*
X0326186Y0164873D01*
X0326198Y0164795D01*
X0326206Y0164716D01*
X0326210Y0164638D01*
X0326210Y0164558D01*
X0326206Y0164480D01*
X0326198Y0164401D01*
X0326186Y0164323D01*
X0326170Y0164245D01*
X0326150Y0164169D01*
X0326127Y0164093D01*
X0326100Y0164019D01*
X0326069Y0163947D01*
X0326034Y0163876D01*
X0325996Y0163806D01*
X0325955Y0163739D01*
X0325910Y0163674D01*
X0325862Y0163611D01*
X0325811Y0163551D01*
X0325757Y0163493D01*
X0325700Y0163439D01*
X0325640Y0163387D01*
X0325578Y0163338D01*
X0325513Y0163292D01*
X0325447Y0163250D01*
X0325378Y0163211D01*
X0325307Y0163176D01*
X0325235Y0163144D01*
X0325161Y0163116D01*
X0325086Y0163091D01*
X0325010Y0163071D01*
X0324933Y0163054D01*
X0324855Y0163041D01*
X0324776Y0163032D01*
X0324697Y0163027D01*
X0324618Y0163026D01*
X0324539Y0163029D01*
X0324461Y0163036D01*
X0324382Y0163047D01*
X0324305Y0163062D01*
X0324228Y0163080D01*
X0324152Y0163103D01*
X0324078Y0163129D01*
X0324005Y0163159D01*
X0323933Y0163193D01*
X0323863Y0163230D01*
X0323796Y0163271D01*
X0323730Y0163315D01*
X0323667Y0163362D01*
X0323606Y0163412D01*
X0323548Y0163466D01*
X0323492Y0163522D01*
X0323439Y0163581D01*
X0323390Y0163642D01*
X0323343Y0163706D01*
X0323300Y0163772D01*
X0323260Y0163841D01*
X0323224Y0163911D01*
X0323191Y0163983D01*
X0323162Y0164056D01*
X0323137Y0164131D01*
X0323115Y0164207D01*
X0323098Y0164284D01*
X0323084Y0164362D01*
X0323074Y0164440D01*
X0323068Y0164519D01*
X0323066Y0164598D01*
D19*
X0134850Y0036854D02*
X0134850Y0024576D01*
X0065984Y0214576D02*
X0065984Y0226854D01*
D20*
X0130710Y0221282D02*
X0139918Y0221282D01*
X0135314Y0216678D02*
X0135314Y0225886D01*
X0065525Y0035886D02*
X0065525Y0026678D01*
X0060921Y0031282D02*
X0070129Y0031282D01*
M02*
