G75*
%MOIN*%
%OFA0B0*%
%FSLAX25Y25*%
%IPPOS*%
%LPD*%
%AMOC8*
5,1,8,0,0,1.08239X$1,22.5*
%
%ADD10R,0.09000X0.09000*%
%ADD11C,0.07087*%
%ADD12C,0.09035*%
%ADD13C,0.02000*%
%ADD14C,0.03962*%
%ADD15C,0.02978*%
%ADD16C,0.02008*%
%ADD17C,0.03175*%
%ADD18C,0.01181*%
D10*
X0194126Y0035071D03*
X0236646Y0035465D03*
X0202787Y0076803D03*
X0202787Y0100425D03*
X0202787Y0127984D03*
X0202787Y0151606D03*
X0226409Y0175228D03*
X0206724Y0187039D03*
X0231528Y0229559D03*
X0305150Y0238220D03*
X0328772Y0238220D03*
X0352394Y0238220D03*
X0352394Y0214598D03*
X0328772Y0214598D03*
X0305150Y0214598D03*
X0376016Y0049244D03*
D11*
X0328772Y0025622D03*
X0309087Y0025622D03*
X0289402Y0025622D03*
X0272000Y0124488D03*
X0135858Y0018339D03*
X0064992Y0018339D03*
X0064992Y0237630D03*
X0135858Y0237630D03*
D12*
X0289402Y0139795D03*
X0328772Y0120110D03*
X0289402Y0084677D03*
X0328772Y0064992D03*
D13*
X0375648Y0007000D02*
X0022053Y0007000D01*
X0022185Y0007035D01*
X0024807Y0008549D01*
X0026947Y0010689D01*
X0028461Y0013311D01*
X0029244Y0016235D01*
X0029244Y0019262D01*
X0028461Y0022185D01*
X0026947Y0024807D01*
X0024807Y0026947D01*
X0022185Y0028461D01*
X0019262Y0029244D01*
X0016235Y0029244D01*
X0013311Y0028461D01*
X0010689Y0026947D01*
X0008549Y0024807D01*
X0007035Y0022185D01*
X0007000Y0022053D01*
X0007000Y0233915D01*
X0007035Y0233783D01*
X0008549Y0231162D01*
X0010689Y0229021D01*
X0013311Y0227508D01*
X0016235Y0226724D01*
X0019262Y0226724D01*
X0022185Y0227508D01*
X0024807Y0229021D01*
X0026947Y0231162D01*
X0028461Y0233783D01*
X0029244Y0236707D01*
X0029244Y0239734D01*
X0028461Y0242658D01*
X0026947Y0245279D01*
X0024807Y0247420D01*
X0022185Y0248933D01*
X0022053Y0248969D01*
X0375648Y0248969D01*
X0375515Y0248933D01*
X0372894Y0247420D01*
X0370754Y0245279D01*
X0369240Y0242658D01*
X0368457Y0239734D01*
X0368457Y0236707D01*
X0369240Y0233783D01*
X0370754Y0231162D01*
X0372894Y0229021D01*
X0375515Y0227508D01*
X0378439Y0226724D01*
X0381466Y0226724D01*
X0384390Y0227508D01*
X0387011Y0229021D01*
X0389152Y0231162D01*
X0390665Y0233783D01*
X0390701Y0233915D01*
X0390701Y0022053D01*
X0390665Y0022185D01*
X0389152Y0024807D01*
X0387011Y0026947D01*
X0384390Y0028461D01*
X0381466Y0029244D01*
X0378439Y0029244D01*
X0375515Y0028461D01*
X0372894Y0026947D01*
X0370754Y0024807D01*
X0369240Y0022185D01*
X0368457Y0019262D01*
X0368457Y0016235D01*
X0369240Y0013311D01*
X0370754Y0010689D01*
X0372894Y0008549D01*
X0375515Y0007035D01*
X0375648Y0007000D01*
X0373852Y0007996D02*
X0023848Y0007996D01*
X0026252Y0009994D02*
X0371449Y0009994D01*
X0370001Y0011993D02*
X0027700Y0011993D01*
X0028643Y0013991D02*
X0061773Y0013991D01*
X0061961Y0013803D02*
X0063928Y0012988D01*
X0066056Y0012988D01*
X0068023Y0013803D01*
X0069528Y0015308D01*
X0070343Y0017274D01*
X0070343Y0019403D01*
X0069528Y0021369D01*
X0068023Y0022874D01*
X0066056Y0023689D01*
X0063928Y0023689D01*
X0061961Y0022874D01*
X0060456Y0021369D01*
X0059642Y0019403D01*
X0059642Y0017274D01*
X0060456Y0015308D01*
X0061961Y0013803D01*
X0060174Y0015990D02*
X0029178Y0015990D01*
X0029244Y0017988D02*
X0059642Y0017988D01*
X0059884Y0019987D02*
X0029050Y0019987D01*
X0028514Y0021985D02*
X0061072Y0021985D01*
X0068912Y0021985D02*
X0131938Y0021985D01*
X0131322Y0021369D02*
X0132828Y0022874D01*
X0134794Y0023689D01*
X0136923Y0023689D01*
X0138889Y0022874D01*
X0140394Y0021369D01*
X0141209Y0019403D01*
X0141209Y0017274D01*
X0140394Y0015308D01*
X0138889Y0013803D01*
X0136923Y0012988D01*
X0134794Y0012988D01*
X0132828Y0013803D01*
X0131322Y0015308D01*
X0130508Y0017274D01*
X0130508Y0019403D01*
X0131322Y0021369D01*
X0130750Y0019987D02*
X0070101Y0019987D01*
X0070343Y0017988D02*
X0130508Y0017988D01*
X0131040Y0015990D02*
X0069810Y0015990D01*
X0068211Y0013991D02*
X0132639Y0013991D01*
X0139077Y0013991D02*
X0369058Y0013991D01*
X0368522Y0015990D02*
X0140676Y0015990D01*
X0141209Y0017988D02*
X0368457Y0017988D01*
X0368651Y0019987D02*
X0140967Y0019987D01*
X0139778Y0021985D02*
X0285472Y0021985D01*
X0284866Y0022591D02*
X0286371Y0021086D01*
X0288337Y0020272D01*
X0290466Y0020272D01*
X0292432Y0021086D01*
X0293937Y0022591D01*
X0294752Y0024558D01*
X0294752Y0026686D01*
X0293937Y0028653D01*
X0292432Y0030158D01*
X0290466Y0030972D01*
X0288337Y0030972D01*
X0286371Y0030158D01*
X0284866Y0028653D01*
X0284051Y0026686D01*
X0284051Y0024558D01*
X0284866Y0022591D01*
X0284289Y0023984D02*
X0027422Y0023984D01*
X0025772Y0025982D02*
X0284051Y0025982D01*
X0284587Y0027981D02*
X0023017Y0027981D01*
X0012479Y0027981D02*
X0007000Y0027981D01*
X0007000Y0029979D02*
X0187714Y0029979D01*
X0187762Y0029799D02*
X0187626Y0030308D01*
X0187626Y0034571D01*
X0193626Y0034571D01*
X0193626Y0035571D01*
X0193626Y0041571D01*
X0189363Y0041571D01*
X0188854Y0041435D01*
X0188398Y0041171D01*
X0188026Y0040799D01*
X0187762Y0040343D01*
X0187626Y0039834D01*
X0187626Y0035571D01*
X0193626Y0035571D01*
X0194626Y0035571D01*
X0194626Y0041571D01*
X0198889Y0041571D01*
X0199398Y0041435D01*
X0199854Y0041171D01*
X0200226Y0040799D01*
X0200490Y0040343D01*
X0200626Y0039834D01*
X0200626Y0035571D01*
X0194626Y0035571D01*
X0194626Y0034571D01*
X0200626Y0034571D01*
X0200626Y0030308D01*
X0200490Y0029799D01*
X0200226Y0029343D01*
X0199854Y0028970D01*
X0199398Y0028707D01*
X0198889Y0028571D01*
X0194626Y0028571D01*
X0194626Y0034571D01*
X0193626Y0034571D01*
X0193626Y0028571D01*
X0189363Y0028571D01*
X0188854Y0028707D01*
X0188398Y0028970D01*
X0188026Y0029343D01*
X0187762Y0029799D01*
X0187626Y0031978D02*
X0007000Y0031978D01*
X0007000Y0033976D02*
X0187626Y0033976D01*
X0187626Y0035975D02*
X0007000Y0035975D01*
X0007000Y0037973D02*
X0187626Y0037973D01*
X0187663Y0039972D02*
X0007000Y0039972D01*
X0007000Y0041970D02*
X0390701Y0041970D01*
X0390701Y0039972D02*
X0242953Y0039972D01*
X0242953Y0040713D02*
X0241894Y0041772D01*
X0231397Y0041772D01*
X0230339Y0040713D01*
X0230339Y0030216D01*
X0231397Y0029157D01*
X0241894Y0029157D01*
X0242953Y0030216D01*
X0242953Y0040713D01*
X0242953Y0037973D02*
X0390701Y0037973D01*
X0390701Y0035975D02*
X0242953Y0035975D01*
X0242953Y0033976D02*
X0390701Y0033976D01*
X0390701Y0031978D02*
X0242953Y0031978D01*
X0242716Y0029979D02*
X0286192Y0029979D01*
X0292611Y0029979D02*
X0305877Y0029979D01*
X0306056Y0030158D02*
X0304551Y0028653D01*
X0303736Y0026686D01*
X0303736Y0024558D01*
X0304551Y0022591D01*
X0306056Y0021086D01*
X0308022Y0020272D01*
X0310151Y0020272D01*
X0312117Y0021086D01*
X0313622Y0022591D01*
X0314437Y0024558D01*
X0314437Y0026686D01*
X0313622Y0028653D01*
X0312117Y0030158D01*
X0310151Y0030972D01*
X0308022Y0030972D01*
X0306056Y0030158D01*
X0304272Y0027981D02*
X0294216Y0027981D01*
X0294752Y0025982D02*
X0303736Y0025982D01*
X0303974Y0023984D02*
X0294514Y0023984D01*
X0293331Y0021985D02*
X0305157Y0021985D01*
X0313016Y0021985D02*
X0324842Y0021985D01*
X0324236Y0022591D02*
X0323421Y0024558D01*
X0323421Y0026686D01*
X0324236Y0028653D01*
X0325741Y0030158D01*
X0327707Y0030972D01*
X0329836Y0030972D01*
X0331802Y0030158D01*
X0333307Y0028653D01*
X0334122Y0026686D01*
X0334122Y0024558D01*
X0333307Y0022591D01*
X0331802Y0021086D01*
X0329836Y0020272D01*
X0327707Y0020272D01*
X0325741Y0021086D01*
X0324236Y0022591D01*
X0323659Y0023984D02*
X0314199Y0023984D01*
X0314437Y0025982D02*
X0323421Y0025982D01*
X0323957Y0027981D02*
X0313901Y0027981D01*
X0312296Y0029979D02*
X0325562Y0029979D01*
X0331981Y0029979D02*
X0390701Y0029979D01*
X0390701Y0027981D02*
X0385221Y0027981D01*
X0387977Y0025982D02*
X0390701Y0025982D01*
X0390701Y0023984D02*
X0389627Y0023984D01*
X0374684Y0027981D02*
X0333586Y0027981D01*
X0334122Y0025982D02*
X0371929Y0025982D01*
X0370278Y0023984D02*
X0333884Y0023984D01*
X0332701Y0021985D02*
X0369186Y0021985D01*
X0370767Y0042937D02*
X0369709Y0043996D01*
X0369709Y0054493D01*
X0370767Y0055551D01*
X0381264Y0055551D01*
X0382323Y0054493D01*
X0382323Y0043996D01*
X0381264Y0042937D01*
X0370767Y0042937D01*
X0369735Y0043969D02*
X0007000Y0043969D01*
X0007000Y0045967D02*
X0369709Y0045967D01*
X0369709Y0047966D02*
X0007000Y0047966D01*
X0007000Y0049964D02*
X0369709Y0049964D01*
X0369709Y0051963D02*
X0007000Y0051963D01*
X0007000Y0053961D02*
X0369709Y0053961D01*
X0382323Y0053961D02*
X0390701Y0053961D01*
X0390701Y0051963D02*
X0382323Y0051963D01*
X0382323Y0049964D02*
X0390701Y0049964D01*
X0390701Y0047966D02*
X0382323Y0047966D01*
X0382323Y0045967D02*
X0390701Y0045967D01*
X0390701Y0043969D02*
X0382296Y0043969D01*
X0390701Y0055960D02*
X0007000Y0055960D01*
X0007000Y0057958D02*
X0390701Y0057958D01*
X0390701Y0059957D02*
X0332681Y0059957D01*
X0332354Y0059630D02*
X0334134Y0061409D01*
X0335096Y0063734D01*
X0335096Y0066250D01*
X0334134Y0068575D01*
X0332354Y0070354D01*
X0330030Y0071317D01*
X0327514Y0071317D01*
X0325189Y0070354D01*
X0323410Y0068575D01*
X0322447Y0066250D01*
X0322447Y0063734D01*
X0323410Y0061409D01*
X0325189Y0059630D01*
X0327514Y0058667D01*
X0330030Y0058667D01*
X0332354Y0059630D01*
X0334360Y0061955D02*
X0390701Y0061955D01*
X0390701Y0063954D02*
X0335096Y0063954D01*
X0335096Y0065952D02*
X0390701Y0065952D01*
X0390701Y0067951D02*
X0334392Y0067951D01*
X0332759Y0069949D02*
X0390701Y0069949D01*
X0390701Y0071948D02*
X0209263Y0071948D01*
X0209287Y0072040D02*
X0209287Y0076303D01*
X0203287Y0076303D01*
X0203287Y0070303D01*
X0207551Y0070303D01*
X0208059Y0070439D01*
X0208515Y0070703D01*
X0208888Y0071075D01*
X0209151Y0071531D01*
X0209287Y0072040D01*
X0209287Y0073946D02*
X0390701Y0073946D01*
X0390701Y0075945D02*
X0209287Y0075945D01*
X0209287Y0077303D02*
X0209287Y0081566D01*
X0209151Y0082075D01*
X0208888Y0082531D01*
X0208515Y0082904D01*
X0208059Y0083167D01*
X0207551Y0083303D01*
X0203287Y0083303D01*
X0203287Y0077303D01*
X0202287Y0077303D01*
X0202287Y0076303D01*
X0196287Y0076303D01*
X0196287Y0072040D01*
X0196424Y0071531D01*
X0196687Y0071075D01*
X0197059Y0070703D01*
X0197515Y0070439D01*
X0198024Y0070303D01*
X0202287Y0070303D01*
X0202287Y0076303D01*
X0203287Y0076303D01*
X0203287Y0077303D01*
X0209287Y0077303D01*
X0209287Y0077943D02*
X0390701Y0077943D01*
X0390701Y0079942D02*
X0293611Y0079942D01*
X0292984Y0079315D02*
X0294763Y0081094D01*
X0295726Y0083419D01*
X0295726Y0085935D01*
X0294763Y0088260D01*
X0292984Y0090039D01*
X0290660Y0091002D01*
X0288143Y0091002D01*
X0285819Y0090039D01*
X0284040Y0088260D01*
X0283077Y0085935D01*
X0283077Y0083419D01*
X0284040Y0081094D01*
X0285819Y0079315D01*
X0288143Y0078352D01*
X0290660Y0078352D01*
X0292984Y0079315D01*
X0295114Y0081940D02*
X0390701Y0081940D01*
X0390701Y0083939D02*
X0295726Y0083939D01*
X0295725Y0085937D02*
X0390701Y0085937D01*
X0390701Y0087936D02*
X0294898Y0087936D01*
X0293089Y0089934D02*
X0390701Y0089934D01*
X0390701Y0091933D02*
X0007000Y0091933D01*
X0007000Y0089934D02*
X0285714Y0089934D01*
X0283906Y0087936D02*
X0007000Y0087936D01*
X0007000Y0085937D02*
X0283078Y0085937D01*
X0283077Y0083939D02*
X0007000Y0083939D01*
X0007000Y0081940D02*
X0196388Y0081940D01*
X0196424Y0082075D02*
X0196287Y0081566D01*
X0196287Y0077303D01*
X0202287Y0077303D01*
X0202287Y0083303D01*
X0198024Y0083303D01*
X0197515Y0083167D01*
X0197059Y0082904D01*
X0196687Y0082531D01*
X0196424Y0082075D01*
X0196287Y0079942D02*
X0007000Y0079942D01*
X0007000Y0077943D02*
X0196287Y0077943D01*
X0196287Y0075945D02*
X0007000Y0075945D01*
X0007000Y0073946D02*
X0196287Y0073946D01*
X0196312Y0071948D02*
X0007000Y0071948D01*
X0007000Y0069949D02*
X0324784Y0069949D01*
X0323151Y0067951D02*
X0007000Y0067951D01*
X0007000Y0065952D02*
X0322447Y0065952D01*
X0322447Y0063954D02*
X0007000Y0063954D01*
X0007000Y0061955D02*
X0323184Y0061955D01*
X0324862Y0059957D02*
X0007000Y0059957D01*
X0007000Y0093932D02*
X0390701Y0093932D01*
X0390701Y0095930D02*
X0209094Y0095930D01*
X0209094Y0095177D02*
X0209094Y0105674D01*
X0208036Y0106732D01*
X0197539Y0106732D01*
X0196480Y0105674D01*
X0196480Y0095177D01*
X0197539Y0094118D01*
X0208036Y0094118D01*
X0209094Y0095177D01*
X0209094Y0097929D02*
X0390701Y0097929D01*
X0390701Y0099927D02*
X0209094Y0099927D01*
X0209094Y0101926D02*
X0390701Y0101926D01*
X0390701Y0103924D02*
X0209094Y0103924D01*
X0208846Y0105923D02*
X0390701Y0105923D01*
X0390701Y0107921D02*
X0007000Y0107921D01*
X0007000Y0105923D02*
X0196729Y0105923D01*
X0196480Y0103924D02*
X0007000Y0103924D01*
X0007000Y0101926D02*
X0196480Y0101926D01*
X0196480Y0099927D02*
X0007000Y0099927D01*
X0007000Y0097929D02*
X0196480Y0097929D01*
X0196480Y0095930D02*
X0007000Y0095930D01*
X0007000Y0109920D02*
X0390701Y0109920D01*
X0390701Y0111918D02*
X0007000Y0111918D01*
X0007000Y0113917D02*
X0327197Y0113917D01*
X0327514Y0113785D02*
X0325189Y0114748D01*
X0323410Y0116528D01*
X0322447Y0118852D01*
X0322447Y0121368D01*
X0323410Y0123693D01*
X0325189Y0125472D01*
X0327514Y0126435D01*
X0330030Y0126435D01*
X0332354Y0125472D01*
X0334134Y0123693D01*
X0335096Y0121368D01*
X0335096Y0118852D01*
X0334134Y0116528D01*
X0332354Y0114748D01*
X0330030Y0113785D01*
X0327514Y0113785D01*
X0330346Y0113917D02*
X0390701Y0113917D01*
X0390701Y0115915D02*
X0333521Y0115915D01*
X0334708Y0117914D02*
X0390701Y0117914D01*
X0390701Y0119912D02*
X0335096Y0119912D01*
X0334872Y0121911D02*
X0390701Y0121911D01*
X0390701Y0123909D02*
X0333917Y0123909D01*
X0331303Y0125908D02*
X0390701Y0125908D01*
X0390701Y0127906D02*
X0209094Y0127906D01*
X0209094Y0125908D02*
X0326240Y0125908D01*
X0323626Y0123909D02*
X0209094Y0123909D01*
X0209094Y0122736D02*
X0209094Y0133233D01*
X0208036Y0134291D01*
X0197539Y0134291D01*
X0196480Y0133233D01*
X0196480Y0122736D01*
X0197539Y0121677D01*
X0208036Y0121677D01*
X0209094Y0122736D01*
X0208269Y0121911D02*
X0322672Y0121911D01*
X0322447Y0119912D02*
X0007000Y0119912D01*
X0007000Y0117914D02*
X0322836Y0117914D01*
X0324022Y0115915D02*
X0007000Y0115915D01*
X0007000Y0121911D02*
X0197305Y0121911D01*
X0196480Y0123909D02*
X0007000Y0123909D01*
X0007000Y0125908D02*
X0196480Y0125908D01*
X0196480Y0127906D02*
X0007000Y0127906D01*
X0007000Y0129905D02*
X0196480Y0129905D01*
X0196480Y0131903D02*
X0007000Y0131903D01*
X0007000Y0133902D02*
X0197149Y0133902D01*
X0208425Y0133902D02*
X0287102Y0133902D01*
X0288143Y0133470D02*
X0290660Y0133470D01*
X0292984Y0134433D01*
X0294763Y0136213D01*
X0295726Y0138537D01*
X0295726Y0141053D01*
X0294763Y0143378D01*
X0292984Y0145157D01*
X0290660Y0146120D01*
X0288143Y0146120D01*
X0285819Y0145157D01*
X0284040Y0143378D01*
X0283077Y0141053D01*
X0283077Y0138537D01*
X0284040Y0136213D01*
X0285819Y0134433D01*
X0288143Y0133470D01*
X0291701Y0133902D02*
X0390701Y0133902D01*
X0390701Y0135900D02*
X0294451Y0135900D01*
X0295462Y0137899D02*
X0390701Y0137899D01*
X0390701Y0139897D02*
X0295726Y0139897D01*
X0295377Y0141896D02*
X0390701Y0141896D01*
X0390701Y0143894D02*
X0294247Y0143894D01*
X0291208Y0145893D02*
X0390701Y0145893D01*
X0390701Y0147891D02*
X0209094Y0147891D01*
X0209094Y0146358D02*
X0209094Y0156855D01*
X0208036Y0157913D01*
X0197539Y0157913D01*
X0196480Y0156855D01*
X0196480Y0146358D01*
X0197539Y0145299D01*
X0208036Y0145299D01*
X0209094Y0146358D01*
X0208630Y0145893D02*
X0287595Y0145893D01*
X0284556Y0143894D02*
X0007000Y0143894D01*
X0007000Y0141896D02*
X0283426Y0141896D01*
X0283077Y0139897D02*
X0007000Y0139897D01*
X0007000Y0137899D02*
X0283341Y0137899D01*
X0284352Y0135900D02*
X0007000Y0135900D01*
X0007000Y0145893D02*
X0196945Y0145893D01*
X0196480Y0147891D02*
X0007000Y0147891D01*
X0007000Y0149890D02*
X0196480Y0149890D01*
X0196480Y0151888D02*
X0007000Y0151888D01*
X0007000Y0153887D02*
X0196480Y0153887D01*
X0196480Y0155885D02*
X0007000Y0155885D01*
X0007000Y0157884D02*
X0197509Y0157884D01*
X0208065Y0157884D02*
X0361696Y0157884D01*
X0361696Y0157607D02*
X0360456Y0156366D01*
X0332610Y0156366D01*
X0332214Y0156763D01*
X0331002Y0157265D01*
X0329691Y0157265D01*
X0328479Y0156763D01*
X0327552Y0155836D01*
X0327050Y0154624D01*
X0327050Y0153313D01*
X0327552Y0152101D01*
X0328479Y0151174D01*
X0329691Y0150672D01*
X0331002Y0150672D01*
X0332214Y0151174D01*
X0332610Y0151571D01*
X0361926Y0151571D01*
X0362807Y0151936D01*
X0365087Y0154216D01*
X0365648Y0154216D01*
X0366859Y0154718D01*
X0367786Y0155645D01*
X0368288Y0156856D01*
X0368288Y0158167D01*
X0367786Y0159379D01*
X0366859Y0160306D01*
X0365648Y0160808D01*
X0364336Y0160808D01*
X0363125Y0160306D01*
X0362198Y0159379D01*
X0361696Y0158167D01*
X0361696Y0157607D01*
X0362701Y0159882D02*
X0007000Y0159882D01*
X0007000Y0161881D02*
X0390701Y0161881D01*
X0390701Y0163879D02*
X0007000Y0163879D01*
X0007000Y0165878D02*
X0390701Y0165878D01*
X0390701Y0167876D02*
X0007000Y0167876D01*
X0007000Y0169875D02*
X0220207Y0169875D01*
X0220102Y0169980D02*
X0221161Y0168921D01*
X0231658Y0168921D01*
X0232717Y0169980D01*
X0232717Y0180477D01*
X0231658Y0181535D01*
X0221161Y0181535D01*
X0220102Y0180477D01*
X0220102Y0169980D01*
X0220102Y0171873D02*
X0007000Y0171873D01*
X0007000Y0173872D02*
X0220102Y0173872D01*
X0220102Y0175870D02*
X0007000Y0175870D01*
X0007000Y0177869D02*
X0220102Y0177869D01*
X0220102Y0179868D02*
X0007000Y0179868D01*
X0007000Y0181866D02*
X0200334Y0181866D01*
X0200361Y0181767D02*
X0200624Y0181311D01*
X0200996Y0180939D01*
X0201452Y0180676D01*
X0201961Y0180539D01*
X0206224Y0180539D01*
X0206224Y0186539D01*
X0207224Y0186539D01*
X0207224Y0180539D01*
X0211488Y0180539D01*
X0211996Y0180676D01*
X0212452Y0180939D01*
X0212825Y0181311D01*
X0213088Y0181767D01*
X0213224Y0182276D01*
X0213224Y0186539D01*
X0207224Y0186539D01*
X0207224Y0187539D01*
X0206224Y0187539D01*
X0206224Y0186539D01*
X0200224Y0186539D01*
X0200224Y0182276D01*
X0200361Y0181767D01*
X0200224Y0183865D02*
X0007000Y0183865D01*
X0007000Y0185863D02*
X0200224Y0185863D01*
X0200224Y0187539D02*
X0206224Y0187539D01*
X0206224Y0193539D01*
X0201961Y0193539D01*
X0201452Y0193403D01*
X0200996Y0193140D01*
X0200624Y0192767D01*
X0200361Y0192311D01*
X0200224Y0191803D01*
X0200224Y0187539D01*
X0200224Y0187862D02*
X0007000Y0187862D01*
X0007000Y0189860D02*
X0200224Y0189860D01*
X0200239Y0191859D02*
X0007000Y0191859D01*
X0007000Y0193857D02*
X0339318Y0193857D01*
X0339109Y0193771D02*
X0338182Y0192843D01*
X0337680Y0191632D01*
X0337680Y0190321D01*
X0338182Y0189109D01*
X0339109Y0188182D01*
X0340321Y0187680D01*
X0341275Y0187680D01*
X0341967Y0186989D01*
X0340920Y0186556D01*
X0339993Y0185628D01*
X0339491Y0184417D01*
X0339491Y0183106D01*
X0339993Y0181894D01*
X0340920Y0180967D01*
X0342131Y0180465D01*
X0342191Y0180465D01*
X0348321Y0174335D01*
X0348310Y0174309D01*
X0348310Y0172998D01*
X0348812Y0171786D01*
X0349739Y0170859D01*
X0350951Y0170357D01*
X0352262Y0170357D01*
X0353473Y0170859D01*
X0354401Y0171786D01*
X0354902Y0172998D01*
X0354902Y0174243D01*
X0355460Y0174012D01*
X0356036Y0174012D01*
X0356432Y0173615D01*
X0357644Y0173113D01*
X0358955Y0173113D01*
X0360166Y0173615D01*
X0361093Y0174542D01*
X0361595Y0175754D01*
X0361595Y0177065D01*
X0361093Y0178277D01*
X0360166Y0179204D01*
X0358955Y0179705D01*
X0357644Y0179705D01*
X0356504Y0179233D01*
X0344272Y0191465D01*
X0344272Y0191632D01*
X0343771Y0192843D01*
X0342843Y0193771D01*
X0341632Y0194272D01*
X0340321Y0194272D01*
X0339109Y0193771D01*
X0337774Y0191859D02*
X0213209Y0191859D01*
X0213224Y0191803D02*
X0213088Y0192311D01*
X0212825Y0192767D01*
X0212452Y0193140D01*
X0211996Y0193403D01*
X0211488Y0193539D01*
X0207224Y0193539D01*
X0207224Y0187539D01*
X0213224Y0187539D01*
X0213224Y0191803D01*
X0213224Y0189860D02*
X0337871Y0189860D01*
X0339883Y0187862D02*
X0213224Y0187862D01*
X0213224Y0185863D02*
X0340227Y0185863D01*
X0339491Y0183865D02*
X0213224Y0183865D01*
X0213115Y0181866D02*
X0340021Y0181866D01*
X0342789Y0179868D02*
X0232717Y0179868D01*
X0232717Y0177869D02*
X0344787Y0177869D01*
X0346786Y0175870D02*
X0232717Y0175870D01*
X0232717Y0173872D02*
X0348310Y0173872D01*
X0348776Y0171873D02*
X0232717Y0171873D01*
X0232612Y0169875D02*
X0390701Y0169875D01*
X0390701Y0171873D02*
X0354437Y0171873D01*
X0354902Y0173872D02*
X0356175Y0173872D01*
X0360423Y0173872D02*
X0390701Y0173872D01*
X0390701Y0175870D02*
X0361595Y0175870D01*
X0361262Y0177869D02*
X0390701Y0177869D01*
X0390701Y0179868D02*
X0355870Y0179868D01*
X0353871Y0181866D02*
X0390701Y0181866D01*
X0390701Y0183865D02*
X0351873Y0183865D01*
X0349874Y0185863D02*
X0390701Y0185863D01*
X0390701Y0187862D02*
X0347876Y0187862D01*
X0345877Y0189860D02*
X0390701Y0189860D01*
X0390701Y0191859D02*
X0344179Y0191859D01*
X0342635Y0193857D02*
X0390701Y0193857D01*
X0390701Y0195856D02*
X0007000Y0195856D01*
X0007000Y0197854D02*
X0390701Y0197854D01*
X0390701Y0199853D02*
X0007000Y0199853D01*
X0007000Y0201851D02*
X0390701Y0201851D01*
X0390701Y0203850D02*
X0007000Y0203850D01*
X0007000Y0205848D02*
X0390701Y0205848D01*
X0390701Y0207847D02*
X0007000Y0207847D01*
X0007000Y0209845D02*
X0298843Y0209845D01*
X0298843Y0209350D02*
X0299901Y0208291D01*
X0310398Y0208291D01*
X0311457Y0209350D01*
X0311457Y0219847D01*
X0310398Y0220905D01*
X0299901Y0220905D01*
X0298843Y0219847D01*
X0298843Y0209350D01*
X0298843Y0211844D02*
X0007000Y0211844D01*
X0007000Y0213842D02*
X0298843Y0213842D01*
X0298843Y0215841D02*
X0007000Y0215841D01*
X0007000Y0217839D02*
X0298843Y0217839D01*
X0298843Y0219838D02*
X0007000Y0219838D01*
X0007000Y0221836D02*
X0390701Y0221836D01*
X0390701Y0219838D02*
X0358701Y0219838D01*
X0358701Y0219847D02*
X0357642Y0220905D01*
X0347145Y0220905D01*
X0346087Y0219847D01*
X0346087Y0209350D01*
X0347145Y0208291D01*
X0357642Y0208291D01*
X0358701Y0209350D01*
X0358701Y0219847D01*
X0358701Y0217839D02*
X0390701Y0217839D01*
X0390701Y0215841D02*
X0358701Y0215841D01*
X0358701Y0213842D02*
X0390701Y0213842D01*
X0390701Y0211844D02*
X0358701Y0211844D01*
X0358701Y0209845D02*
X0390701Y0209845D01*
X0390701Y0223835D02*
X0237359Y0223835D01*
X0237835Y0224311D02*
X0236776Y0223252D01*
X0226279Y0223252D01*
X0225220Y0224311D01*
X0225220Y0234808D01*
X0226279Y0235866D01*
X0236776Y0235866D01*
X0237835Y0234808D01*
X0237835Y0224311D01*
X0237835Y0225833D02*
X0390701Y0225833D01*
X0390701Y0227832D02*
X0384951Y0227832D01*
X0387820Y0229830D02*
X0390701Y0229830D01*
X0390701Y0231829D02*
X0389537Y0231829D01*
X0390677Y0233827D02*
X0390701Y0233827D01*
X0374954Y0227832D02*
X0237835Y0227832D01*
X0237835Y0229830D02*
X0372085Y0229830D01*
X0370368Y0231829D02*
X0237835Y0231829D01*
X0237835Y0233827D02*
X0298843Y0233827D01*
X0298843Y0232972D02*
X0299901Y0231913D01*
X0310398Y0231913D01*
X0311457Y0232972D01*
X0311457Y0243469D01*
X0310398Y0244528D01*
X0299901Y0244528D01*
X0298843Y0243469D01*
X0298843Y0232972D01*
X0298843Y0235826D02*
X0236816Y0235826D01*
X0226239Y0235826D02*
X0140902Y0235826D01*
X0141209Y0236566D02*
X0140394Y0234599D01*
X0138889Y0233094D01*
X0136923Y0232280D01*
X0134794Y0232280D01*
X0132828Y0233094D01*
X0131322Y0234599D01*
X0130508Y0236566D01*
X0130508Y0238694D01*
X0131322Y0240661D01*
X0132828Y0242166D01*
X0134794Y0242980D01*
X0136923Y0242980D01*
X0138889Y0242166D01*
X0140394Y0240661D01*
X0141209Y0238694D01*
X0141209Y0236566D01*
X0141209Y0237824D02*
X0298843Y0237824D01*
X0298843Y0239823D02*
X0140741Y0239823D01*
X0139233Y0241821D02*
X0298843Y0241821D01*
X0299193Y0243820D02*
X0027790Y0243820D01*
X0028685Y0241821D02*
X0061344Y0241821D01*
X0061381Y0241858D02*
X0060764Y0241241D01*
X0060251Y0240535D01*
X0059855Y0239758D01*
X0059585Y0238928D01*
X0059449Y0238066D01*
X0059449Y0237811D01*
X0064811Y0237811D01*
X0064811Y0237449D01*
X0059449Y0237449D01*
X0059449Y0237194D01*
X0059585Y0236332D01*
X0059855Y0235502D01*
X0060251Y0234725D01*
X0060764Y0234019D01*
X0061381Y0233402D01*
X0062087Y0232889D01*
X0062864Y0232493D01*
X0063694Y0232223D01*
X0064556Y0232087D01*
X0064811Y0232087D01*
X0064811Y0237449D01*
X0065173Y0237449D01*
X0065173Y0232087D01*
X0065428Y0232087D01*
X0066290Y0232223D01*
X0067120Y0232493D01*
X0067897Y0232889D01*
X0068603Y0233402D01*
X0069220Y0234019D01*
X0069733Y0234725D01*
X0070129Y0235502D01*
X0070399Y0236332D01*
X0070535Y0237194D01*
X0070535Y0237449D01*
X0065173Y0237449D01*
X0065173Y0237811D01*
X0064811Y0237811D01*
X0064811Y0243173D01*
X0064556Y0243173D01*
X0063694Y0243037D01*
X0062864Y0242767D01*
X0062087Y0242371D01*
X0061381Y0241858D01*
X0059888Y0239823D02*
X0029220Y0239823D01*
X0029244Y0237824D02*
X0059449Y0237824D01*
X0059750Y0235826D02*
X0029008Y0235826D01*
X0028472Y0233827D02*
X0060955Y0233827D01*
X0064811Y0233827D02*
X0065173Y0233827D01*
X0065173Y0235826D02*
X0064811Y0235826D01*
X0064811Y0237824D02*
X0065173Y0237824D01*
X0065173Y0237811D02*
X0065173Y0243173D01*
X0065428Y0243173D01*
X0066290Y0243037D01*
X0067120Y0242767D01*
X0067897Y0242371D01*
X0068603Y0241858D01*
X0069220Y0241241D01*
X0069733Y0240535D01*
X0070129Y0239758D01*
X0070399Y0238928D01*
X0070535Y0238066D01*
X0070535Y0237811D01*
X0065173Y0237811D01*
X0065173Y0239823D02*
X0064811Y0239823D01*
X0064811Y0241821D02*
X0065173Y0241821D01*
X0068640Y0241821D02*
X0132483Y0241821D01*
X0130975Y0239823D02*
X0070096Y0239823D01*
X0070535Y0237824D02*
X0130508Y0237824D01*
X0130814Y0235826D02*
X0070234Y0235826D01*
X0069029Y0233827D02*
X0132094Y0233827D01*
X0139622Y0233827D02*
X0225220Y0233827D01*
X0225220Y0231829D02*
X0027332Y0231829D01*
X0025616Y0229830D02*
X0225220Y0229830D01*
X0225220Y0227832D02*
X0022746Y0227832D01*
X0012750Y0227832D02*
X0007000Y0227832D01*
X0007000Y0229830D02*
X0009880Y0229830D01*
X0008164Y0231829D02*
X0007000Y0231829D01*
X0007000Y0233827D02*
X0007024Y0233827D01*
X0007000Y0225833D02*
X0225220Y0225833D01*
X0225696Y0223835D02*
X0007000Y0223835D01*
X0026408Y0245818D02*
X0371293Y0245818D01*
X0369911Y0243820D02*
X0358350Y0243820D01*
X0358701Y0243469D02*
X0357642Y0244528D01*
X0347145Y0244528D01*
X0346087Y0243469D01*
X0346087Y0232972D01*
X0347145Y0231913D01*
X0357642Y0231913D01*
X0358701Y0232972D01*
X0358701Y0243469D01*
X0358701Y0241821D02*
X0369016Y0241821D01*
X0368481Y0239823D02*
X0358701Y0239823D01*
X0358701Y0237824D02*
X0368457Y0237824D01*
X0368693Y0235826D02*
X0358701Y0235826D01*
X0358701Y0233827D02*
X0369228Y0233827D01*
X0373582Y0247817D02*
X0024119Y0247817D01*
X0206224Y0191859D02*
X0207224Y0191859D01*
X0207224Y0189860D02*
X0206224Y0189860D01*
X0206224Y0187862D02*
X0207224Y0187862D01*
X0207224Y0185863D02*
X0206224Y0185863D01*
X0206224Y0183865D02*
X0207224Y0183865D01*
X0207224Y0181866D02*
X0206224Y0181866D01*
X0209094Y0155885D02*
X0327602Y0155885D01*
X0327050Y0153887D02*
X0209094Y0153887D01*
X0209094Y0151888D02*
X0327765Y0151888D01*
X0362692Y0151888D02*
X0390701Y0151888D01*
X0390701Y0149890D02*
X0209094Y0149890D01*
X0209094Y0131903D02*
X0390701Y0131903D01*
X0390701Y0129905D02*
X0209094Y0129905D01*
X0209187Y0081940D02*
X0283689Y0081940D01*
X0285192Y0079942D02*
X0209287Y0079942D01*
X0203287Y0079942D02*
X0202287Y0079942D01*
X0202287Y0081940D02*
X0203287Y0081940D01*
X0203287Y0077943D02*
X0202287Y0077943D01*
X0202287Y0075945D02*
X0203287Y0075945D01*
X0203287Y0073946D02*
X0202287Y0073946D01*
X0202287Y0071948D02*
X0203287Y0071948D01*
X0200589Y0039972D02*
X0230339Y0039972D01*
X0230339Y0037973D02*
X0200626Y0037973D01*
X0200626Y0035975D02*
X0230339Y0035975D01*
X0230339Y0033976D02*
X0200626Y0033976D01*
X0200626Y0031978D02*
X0230339Y0031978D01*
X0230575Y0029979D02*
X0200538Y0029979D01*
X0194626Y0029979D02*
X0193626Y0029979D01*
X0193626Y0031978D02*
X0194626Y0031978D01*
X0194626Y0033976D02*
X0193626Y0033976D01*
X0193626Y0035975D02*
X0194626Y0035975D01*
X0194626Y0037973D02*
X0193626Y0037973D01*
X0193626Y0039972D02*
X0194626Y0039972D01*
X0364758Y0153887D02*
X0390701Y0153887D01*
X0390701Y0155885D02*
X0367886Y0155885D01*
X0368288Y0157884D02*
X0390701Y0157884D01*
X0390701Y0159882D02*
X0367283Y0159882D01*
X0334020Y0208291D02*
X0323523Y0208291D01*
X0322465Y0209350D01*
X0322465Y0219847D01*
X0323523Y0220905D01*
X0334020Y0220905D01*
X0335079Y0219847D01*
X0335079Y0209350D01*
X0334020Y0208291D01*
X0335079Y0209845D02*
X0346087Y0209845D01*
X0346087Y0211844D02*
X0335079Y0211844D01*
X0335079Y0213842D02*
X0346087Y0213842D01*
X0346087Y0215841D02*
X0335079Y0215841D01*
X0335079Y0217839D02*
X0346087Y0217839D01*
X0346087Y0219838D02*
X0335079Y0219838D01*
X0322465Y0219838D02*
X0311457Y0219838D01*
X0311457Y0217839D02*
X0322465Y0217839D01*
X0322465Y0215841D02*
X0311457Y0215841D01*
X0311457Y0213842D02*
X0322465Y0213842D01*
X0322465Y0211844D02*
X0311457Y0211844D01*
X0311457Y0209845D02*
X0322465Y0209845D01*
X0323523Y0231913D02*
X0322465Y0232972D01*
X0322465Y0243469D01*
X0323523Y0244528D01*
X0334020Y0244528D01*
X0335079Y0243469D01*
X0335079Y0232972D01*
X0334020Y0231913D01*
X0323523Y0231913D01*
X0322465Y0233827D02*
X0311457Y0233827D01*
X0311457Y0235826D02*
X0322465Y0235826D01*
X0322465Y0237824D02*
X0311457Y0237824D01*
X0311457Y0239823D02*
X0322465Y0239823D01*
X0322465Y0241821D02*
X0311457Y0241821D01*
X0311106Y0243820D02*
X0322815Y0243820D01*
X0334728Y0243820D02*
X0346437Y0243820D01*
X0346087Y0241821D02*
X0335079Y0241821D01*
X0335079Y0239823D02*
X0346087Y0239823D01*
X0346087Y0237824D02*
X0335079Y0237824D01*
X0335079Y0235826D02*
X0346087Y0235826D01*
X0346087Y0233827D02*
X0335079Y0233827D01*
X0009724Y0025982D02*
X0007000Y0025982D01*
X0007000Y0023984D02*
X0008074Y0023984D01*
D14*
X0230346Y0108299D03*
X0257349Y0139199D03*
X0344520Y0143732D03*
X0348457Y0108299D03*
X0348457Y0053181D03*
X0285465Y0214598D03*
D15*
X0305150Y0189008D03*
X0328772Y0189008D03*
X0340976Y0190976D03*
X0342787Y0183761D03*
X0352394Y0189008D03*
X0358299Y0176409D03*
X0351606Y0173654D03*
X0364992Y0157512D03*
X0330346Y0153969D03*
X0190583Y0226409D03*
D16*
X0305150Y0189008D02*
X0307512Y0189008D01*
D17*
X0303575Y0176016D03*
X0316961Y0140583D03*
X0224441Y0064205D03*
D18*
X0330346Y0153969D02*
X0361449Y0153969D01*
X0364992Y0157512D01*
X0351606Y0173654D02*
X0351606Y0174441D01*
X0342551Y0183496D01*
X0342945Y0183890D01*
X0342916Y0183890D01*
X0342787Y0183761D01*
X0342157Y0190189D02*
X0341764Y0190189D01*
X0340976Y0190976D01*
X0342157Y0190189D02*
X0355937Y0176409D01*
X0358299Y0176409D01*
M02*
