%
M48
M72
T01C0.01378
T02C0.01575
T03C0.02362
T04C0.04724
T05C0.06000
T06C0.06024
T07C0.12992
%
T01
X305150Y189008
X328772Y189008
X340976Y190976
X342787Y183761
X352394Y189008
X358299Y176409
X351606Y173654
X364992Y157512
X330346Y153969
X190583Y226409
T02
X303575Y176016
X316961Y140583
X224441Y64205
T03
X230346Y108299
X257349Y139199
X344520Y143732
X348457Y108299
X348457Y53181
X285465Y214598
T04
X272000Y124488
X289402Y25622
X309087Y25622
X328772Y25622
X135858Y18339
X64992Y18339
X64992Y237630
X135858Y237630
T05
X206724Y187039
X226409Y175228
X202787Y151606
X202787Y127984
X202787Y100425
X202787Y76803
X236646Y35465
X194126Y35071
X376016Y49244
X352394Y214598
X328772Y214598
X305150Y214598
X305150Y238220
X328772Y238220
X352394Y238220
X231528Y229559
T06
X289402Y139795
X328772Y120110
X289402Y84677
X328772Y64992
T07
X17748Y17748
X17748Y238220
X379953Y238220
X379953Y17748
M30
