G75*
%MOIN*%
%OFA0B0*%
%FSLAX25Y25*%
%IPPOS*%
%LPD*%
%AMOC8*
5,1,8,0,0,1.08239X$1,22.5*
%
%ADD10R,0.01102X0.03346*%
%ADD11R,0.11811X0.06299*%
%ADD12R,0.06299X0.08661*%
%ADD13R,0.04724X0.03150*%
%ADD14R,0.03150X0.04724*%
%ADD15R,0.09000X0.09000*%
%ADD16R,0.02756X0.05906*%
%ADD17R,0.08071X0.08071*%
%ADD18R,0.03346X0.01102*%
%ADD19R,0.01378X0.06299*%
%ADD20R,0.05906X0.02756*%
%ADD21R,0.03150X0.01969*%
%ADD22C,0.07087*%
%ADD23C,0.09035*%
%ADD24C,0.01200*%
%ADD25C,0.00787*%
%ADD26C,0.04000*%
%ADD27C,0.00500*%
%ADD28C,0.01000*%
%ADD29C,0.03962*%
%ADD30C,0.02000*%
%ADD31C,0.02978*%
%ADD32C,0.02008*%
%ADD33C,0.01181*%
%ADD34C,0.03175*%
%ADD35C,0.05000*%
D10*
X0253417Y0118732D03*
X0255386Y0118732D03*
X0257354Y0118732D03*
X0259323Y0118732D03*
X0261291Y0118732D03*
X0261291Y0130346D03*
X0259323Y0130346D03*
X0257354Y0130346D03*
X0255386Y0130346D03*
X0253417Y0130346D03*
X0345504Y0152689D03*
X0351409Y0152689D03*
X0351409Y0166272D03*
X0345504Y0166272D03*
D11*
X0257354Y0124539D03*
D12*
X0252394Y0147669D03*
X0263417Y0147669D03*
D13*
X0242157Y0131528D03*
X0242157Y0124441D03*
X0230346Y0124441D03*
X0230346Y0131528D03*
X0242157Y0111843D03*
X0242157Y0104756D03*
X0289402Y0068535D03*
X0289402Y0061449D03*
X0309087Y0061449D03*
X0309087Y0068535D03*
X0348457Y0044913D03*
X0348457Y0037827D03*
X0360268Y0037827D03*
X0360268Y0044913D03*
X0356331Y0100819D03*
X0356331Y0107906D03*
X0368142Y0107906D03*
X0368142Y0100819D03*
X0364205Y0132315D03*
X0364205Y0139402D03*
X0352394Y0139402D03*
X0352394Y0132315D03*
X0352394Y0195307D03*
X0352394Y0202394D03*
X0328772Y0202394D03*
X0328772Y0195307D03*
X0305150Y0195307D03*
X0305150Y0202394D03*
X0242157Y0190583D03*
X0242157Y0183496D03*
D14*
X0254362Y0190976D03*
X0261449Y0190976D03*
X0289795Y0183102D03*
X0296882Y0183102D03*
X0296882Y0171291D03*
X0289795Y0171291D03*
X0249283Y0171803D03*
X0242197Y0171803D03*
X0190583Y0202787D03*
X0183496Y0202787D03*
X0183496Y0214598D03*
X0190583Y0214598D03*
X0199244Y0226409D03*
X0206331Y0226409D03*
X0246488Y0214598D03*
X0253575Y0214598D03*
X0266173Y0214598D03*
X0273260Y0214598D03*
X0265780Y0107906D03*
X0258693Y0107906D03*
X0255543Y0064205D03*
X0248457Y0064205D03*
X0239795Y0064205D03*
X0232709Y0064205D03*
D15*
X0202787Y0076803D03*
X0202787Y0100425D03*
X0202787Y0127984D03*
X0202787Y0151606D03*
X0226409Y0175228D03*
X0206724Y0187039D03*
X0231528Y0229559D03*
X0305150Y0238220D03*
X0328772Y0238220D03*
X0352394Y0238220D03*
X0352394Y0214598D03*
X0328772Y0214598D03*
X0305150Y0214598D03*
X0376016Y0049244D03*
X0236646Y0035465D03*
X0194126Y0035071D03*
D16*
X0348831Y0061449D03*
X0353831Y0061449D03*
X0358831Y0061449D03*
X0363831Y0061449D03*
X0363831Y0084283D03*
X0358831Y0084283D03*
X0353831Y0084283D03*
X0348831Y0084283D03*
D17*
X0348457Y0159480D03*
D18*
X0341665Y0159480D03*
X0341665Y0157512D03*
X0341665Y0155543D03*
X0341665Y0161449D03*
X0341665Y0163417D03*
X0355248Y0163417D03*
X0355248Y0161449D03*
X0355248Y0159480D03*
X0355248Y0157512D03*
X0355248Y0155543D03*
D19*
X0324638Y0148457D03*
X0322079Y0148457D03*
X0319520Y0148457D03*
X0316961Y0148457D03*
X0314402Y0148457D03*
X0311843Y0148457D03*
X0309283Y0148457D03*
X0309283Y0170504D03*
X0311843Y0170504D03*
X0314402Y0170504D03*
X0316961Y0170504D03*
X0319520Y0170504D03*
X0322079Y0170504D03*
X0324638Y0170504D03*
D20*
X0229953Y0199224D03*
X0229953Y0204224D03*
X0229953Y0209224D03*
X0229953Y0214224D03*
X0207118Y0214224D03*
X0207118Y0209224D03*
X0207118Y0204224D03*
X0207118Y0199224D03*
D21*
X0246094Y0202787D03*
X0253969Y0202787D03*
D22*
X0135858Y0237630D03*
X0064992Y0237630D03*
X0272000Y0124488D03*
X0289402Y0025622D03*
X0309087Y0025622D03*
X0328772Y0025622D03*
X0135858Y0018339D03*
X0064992Y0018339D03*
D23*
X0289402Y0084677D03*
X0328772Y0064992D03*
X0328772Y0120110D03*
X0289402Y0139795D03*
D24*
X0265780Y0142157D02*
X0265780Y0145307D01*
X0263417Y0147669D01*
X0265780Y0142157D02*
X0259321Y0135698D01*
X0259323Y0130346D01*
X0257354Y0130346D02*
X0257349Y0139199D01*
X0255392Y0134435D02*
X0250031Y0139795D01*
X0250031Y0145307D01*
X0252394Y0147669D01*
X0255392Y0134435D02*
X0255386Y0130346D01*
X0311843Y0170504D02*
X0311843Y0174638D01*
X0311528Y0174953D01*
D25*
X0312610Y0178754D02*
X0307350Y0184014D01*
X0306061Y0185303D01*
X0299657Y0185303D01*
X0299657Y0185962D01*
X0298954Y0186665D01*
X0294810Y0186665D01*
X0294106Y0185962D01*
X0294106Y0180243D01*
X0294810Y0179539D01*
X0298954Y0179539D01*
X0299657Y0180243D01*
X0299657Y0180902D01*
X0304238Y0180902D01*
X0307423Y0177717D01*
X0305817Y0177717D01*
X0305154Y0178379D01*
X0304129Y0178804D01*
X0303020Y0178804D01*
X0301995Y0178379D01*
X0301211Y0177595D01*
X0300787Y0176570D01*
X0300787Y0175633D01*
X0299481Y0174327D01*
X0298954Y0174854D01*
X0294810Y0174854D01*
X0294106Y0174151D01*
X0294106Y0168432D01*
X0294810Y0167728D01*
X0298954Y0167728D01*
X0299657Y0168432D01*
X0299657Y0169693D01*
X0303192Y0173228D01*
X0304129Y0173228D01*
X0305154Y0173652D01*
X0305817Y0174315D01*
X0306807Y0174315D01*
X0307394Y0173729D01*
X0307394Y0166857D01*
X0308097Y0166154D01*
X0310470Y0166154D01*
X0310563Y0166247D01*
X0310656Y0166154D01*
X0312973Y0166154D01*
X0314954Y0164172D01*
X0317609Y0164172D01*
X0327657Y0154125D01*
X0327657Y0153433D01*
X0328066Y0152445D01*
X0328823Y0151688D01*
X0329811Y0151279D01*
X0330881Y0151279D01*
X0331870Y0151688D01*
X0332627Y0152445D01*
X0333036Y0153433D01*
X0333036Y0154504D01*
X0332627Y0155492D01*
X0331870Y0156249D01*
X0330881Y0156658D01*
X0330190Y0156658D01*
X0320695Y0166154D01*
X0320706Y0166154D01*
X0320799Y0166247D01*
X0320892Y0166154D01*
X0323265Y0166154D01*
X0323358Y0166247D01*
X0323451Y0166154D01*
X0325824Y0166154D01*
X0326528Y0166857D01*
X0326528Y0174151D01*
X0326429Y0174249D01*
X0326429Y0175864D01*
X0327151Y0176587D01*
X0338146Y0176587D01*
X0342631Y0181072D01*
X0343322Y0181072D01*
X0344311Y0181481D01*
X0345067Y0182238D01*
X0345477Y0183226D01*
X0345477Y0183918D01*
X0348456Y0186897D01*
X0349383Y0186897D01*
X0350071Y0187586D01*
X0350113Y0187484D01*
X0350870Y0186728D01*
X0351859Y0186318D01*
X0352929Y0186318D01*
X0353917Y0186728D01*
X0354674Y0187484D01*
X0355083Y0188473D01*
X0355083Y0189543D01*
X0354674Y0190531D01*
X0354598Y0190607D01*
X0354598Y0192531D01*
X0355253Y0192531D01*
X0355957Y0193235D01*
X0355957Y0197379D01*
X0355253Y0198083D01*
X0350616Y0198083D01*
X0352151Y0199618D01*
X0355253Y0199618D01*
X0355957Y0200322D01*
X0355957Y0204466D01*
X0355253Y0205169D01*
X0354598Y0205169D01*
X0354598Y0208898D01*
X0357391Y0208898D01*
X0358094Y0209601D01*
X0358094Y0219596D01*
X0357391Y0220299D01*
X0347396Y0220299D01*
X0346693Y0219596D01*
X0346693Y0209601D01*
X0347396Y0208898D01*
X0350189Y0208898D01*
X0350189Y0205169D01*
X0349534Y0205169D01*
X0348831Y0204466D01*
X0348831Y0201364D01*
X0346850Y0199383D01*
X0346850Y0190357D01*
X0342944Y0186451D01*
X0342252Y0186451D01*
X0341263Y0186042D01*
X0340507Y0185285D01*
X0340097Y0184296D01*
X0340097Y0183605D01*
X0336662Y0180169D01*
X0325667Y0180169D01*
X0324618Y0179120D01*
X0323870Y0178372D01*
X0323870Y0194959D01*
X0325209Y0196297D01*
X0325209Y0193235D01*
X0325912Y0192531D01*
X0326567Y0192531D01*
X0326567Y0190607D01*
X0326491Y0190531D01*
X0326082Y0189543D01*
X0326082Y0188473D01*
X0326491Y0187484D01*
X0327248Y0186728D01*
X0328237Y0186318D01*
X0329307Y0186318D01*
X0330295Y0186728D01*
X0331052Y0187484D01*
X0331461Y0188473D01*
X0331461Y0189543D01*
X0331052Y0190531D01*
X0330976Y0190607D01*
X0330976Y0192531D01*
X0331631Y0192531D01*
X0332335Y0193235D01*
X0332335Y0196614D01*
X0338287Y0190662D01*
X0338287Y0190441D01*
X0338696Y0189453D01*
X0339453Y0188696D01*
X0340441Y0188287D01*
X0341511Y0188287D01*
X0342500Y0188696D01*
X0343257Y0189453D01*
X0343666Y0190441D01*
X0343666Y0191511D01*
X0343257Y0192500D01*
X0342500Y0193257D01*
X0341511Y0193666D01*
X0340441Y0193666D01*
X0340376Y0193639D01*
X0332335Y0201681D01*
X0332335Y0204466D01*
X0331631Y0205169D01*
X0330976Y0205169D01*
X0330976Y0208898D01*
X0333769Y0208898D01*
X0334472Y0209601D01*
X0334472Y0219596D01*
X0333769Y0220299D01*
X0323774Y0220299D01*
X0323071Y0219596D01*
X0323071Y0209601D01*
X0323774Y0208898D01*
X0326567Y0208898D01*
X0326567Y0205169D01*
X0325912Y0205169D01*
X0325209Y0204466D01*
X0325209Y0201364D01*
X0320287Y0196443D01*
X0320287Y0174854D01*
X0318333Y0174854D01*
X0318240Y0174761D01*
X0318147Y0174854D01*
X0316193Y0174854D01*
X0316193Y0194382D01*
X0308713Y0201862D01*
X0308713Y0204466D01*
X0308009Y0205169D01*
X0307354Y0205169D01*
X0307354Y0208898D01*
X0310147Y0208898D01*
X0310850Y0209601D01*
X0310850Y0219596D01*
X0310147Y0220299D01*
X0300152Y0220299D01*
X0299449Y0219596D01*
X0299449Y0209601D01*
X0300152Y0208898D01*
X0302945Y0208898D01*
X0302945Y0205169D01*
X0302290Y0205169D01*
X0301587Y0204466D01*
X0301587Y0200322D01*
X0302290Y0199618D01*
X0305890Y0199618D01*
X0307425Y0198083D01*
X0302290Y0198083D01*
X0301587Y0197379D01*
X0301587Y0193235D01*
X0302290Y0192531D01*
X0302945Y0192531D01*
X0302945Y0190607D01*
X0302869Y0190531D01*
X0302460Y0189543D01*
X0302460Y0188473D01*
X0302869Y0187484D01*
X0303626Y0186728D01*
X0304615Y0186318D01*
X0305685Y0186318D01*
X0306673Y0186728D01*
X0307430Y0187484D01*
X0307839Y0188473D01*
X0307839Y0189543D01*
X0307430Y0190531D01*
X0307354Y0190607D01*
X0307354Y0192531D01*
X0308009Y0192531D01*
X0308713Y0193235D01*
X0308713Y0196795D01*
X0312610Y0192898D01*
X0312610Y0178754D01*
X0312610Y0178830D02*
X0312534Y0178830D01*
X0312610Y0179616D02*
X0311748Y0179616D01*
X0310962Y0180402D02*
X0312610Y0180402D01*
X0312610Y0181188D02*
X0310176Y0181188D01*
X0309390Y0181974D02*
X0312610Y0181974D01*
X0312610Y0182760D02*
X0308604Y0182760D01*
X0307818Y0183546D02*
X0312610Y0183546D01*
X0312610Y0184332D02*
X0307033Y0184332D01*
X0306247Y0185118D02*
X0312610Y0185118D01*
X0312610Y0185904D02*
X0299657Y0185904D01*
X0302878Y0187475D02*
X0263839Y0187475D01*
X0263879Y0187499D02*
X0264139Y0187758D01*
X0264322Y0188076D01*
X0264417Y0188431D01*
X0264417Y0190583D01*
X0261843Y0190583D01*
X0261843Y0191370D01*
X0264417Y0191370D01*
X0264417Y0193522D01*
X0264322Y0193877D01*
X0264139Y0194194D01*
X0263879Y0194454D01*
X0263562Y0194637D01*
X0263207Y0194732D01*
X0261842Y0194732D01*
X0261842Y0191370D01*
X0261055Y0191370D01*
X0261055Y0190583D01*
X0258480Y0190583D01*
X0258480Y0188431D01*
X0258575Y0188076D01*
X0258759Y0187758D01*
X0259018Y0187499D01*
X0259336Y0187315D01*
X0259691Y0187220D01*
X0261055Y0187220D01*
X0261055Y0190583D01*
X0261842Y0190583D01*
X0261842Y0187220D01*
X0263207Y0187220D01*
X0263562Y0187315D01*
X0263879Y0187499D01*
X0264372Y0188261D02*
X0302547Y0188261D01*
X0302460Y0189047D02*
X0264417Y0189047D01*
X0264417Y0189833D02*
X0302580Y0189833D01*
X0302945Y0190619D02*
X0261843Y0190619D01*
X0261842Y0189833D02*
X0261055Y0189833D01*
X0261055Y0189047D02*
X0261842Y0189047D01*
X0261842Y0188261D02*
X0261055Y0188261D01*
X0261055Y0187475D02*
X0261842Y0187475D01*
X0259059Y0187475D02*
X0256496Y0187475D01*
X0256434Y0187413D02*
X0257138Y0188117D01*
X0257138Y0193836D01*
X0256434Y0194539D01*
X0252290Y0194539D01*
X0251876Y0194125D01*
X0244358Y0196631D01*
X0244358Y0197939D01*
X0247022Y0200602D01*
X0248167Y0200602D01*
X0248870Y0201306D01*
X0248870Y0204269D01*
X0248167Y0204972D01*
X0247022Y0204972D01*
X0247006Y0204988D01*
X0245183Y0204988D01*
X0245167Y0204972D01*
X0244022Y0204972D01*
X0243319Y0204269D01*
X0243319Y0203124D01*
X0242157Y0201963D01*
X0237695Y0206425D01*
X0233781Y0206425D01*
X0233482Y0206724D01*
X0233781Y0207024D01*
X0242026Y0207024D01*
X0246038Y0211035D01*
X0248560Y0211035D01*
X0249264Y0211739D01*
X0249264Y0217458D01*
X0248560Y0218161D01*
X0245330Y0218161D01*
X0237228Y0226264D01*
X0237228Y0234556D01*
X0236525Y0235260D01*
X0226530Y0235260D01*
X0225827Y0234556D01*
X0225827Y0224562D01*
X0226530Y0223858D01*
X0234823Y0223858D01*
X0243713Y0214969D01*
X0243713Y0214935D01*
X0240203Y0211425D01*
X0233781Y0211425D01*
X0233580Y0211626D01*
X0233761Y0211731D01*
X0234021Y0211991D01*
X0234204Y0212309D01*
X0234299Y0212663D01*
X0234299Y0213929D01*
X0230248Y0213929D01*
X0230248Y0214520D01*
X0229657Y0214520D01*
X0229657Y0213929D01*
X0225606Y0213929D01*
X0225606Y0212663D01*
X0225701Y0212309D01*
X0225885Y0211991D01*
X0226144Y0211731D01*
X0226326Y0211626D01*
X0225799Y0211100D01*
X0225799Y0207349D01*
X0226424Y0206724D01*
X0225799Y0206100D01*
X0225799Y0202349D01*
X0226424Y0201724D01*
X0225799Y0201100D01*
X0225799Y0201016D01*
X0218167Y0201016D01*
X0217118Y0199966D01*
X0209892Y0192740D01*
X0201727Y0192740D01*
X0201024Y0192037D01*
X0201024Y0182042D01*
X0201727Y0181339D01*
X0211722Y0181339D01*
X0212425Y0182042D01*
X0212425Y0190207D01*
X0219651Y0197433D01*
X0225799Y0197433D01*
X0225799Y0197349D01*
X0226503Y0196646D01*
X0233403Y0196646D01*
X0234106Y0197349D01*
X0234106Y0201100D01*
X0233482Y0201724D01*
X0233781Y0202024D01*
X0235872Y0202024D01*
X0239957Y0197939D01*
X0239957Y0193358D01*
X0239298Y0193358D01*
X0238594Y0192655D01*
X0238594Y0188510D01*
X0239298Y0187807D01*
X0245017Y0187807D01*
X0245720Y0188510D01*
X0245720Y0191537D01*
X0251587Y0189582D01*
X0251587Y0188117D01*
X0252290Y0187413D01*
X0256434Y0187413D01*
X0257138Y0188261D02*
X0258526Y0188261D01*
X0258480Y0189047D02*
X0257138Y0189047D01*
X0257138Y0189833D02*
X0258480Y0189833D01*
X0258480Y0191370D02*
X0261055Y0191370D01*
X0261055Y0194732D01*
X0259691Y0194732D01*
X0259336Y0194637D01*
X0259018Y0194454D01*
X0258759Y0194194D01*
X0258575Y0193877D01*
X0258480Y0193522D01*
X0258480Y0191370D01*
X0258480Y0191405D02*
X0257138Y0191405D01*
X0257138Y0190619D02*
X0261055Y0190619D01*
X0261055Y0191405D02*
X0261842Y0191405D01*
X0261842Y0192191D02*
X0261055Y0192191D01*
X0261055Y0192977D02*
X0261842Y0192977D01*
X0261842Y0193763D02*
X0261055Y0193763D01*
X0261055Y0194549D02*
X0261842Y0194549D01*
X0263715Y0194549D02*
X0301587Y0194549D01*
X0301587Y0195335D02*
X0248247Y0195335D01*
X0245889Y0196120D02*
X0301587Y0196120D01*
X0301587Y0196906D02*
X0244358Y0196906D01*
X0244358Y0197692D02*
X0301900Y0197692D01*
X0301858Y0200050D02*
X0246470Y0200050D01*
X0245684Y0199264D02*
X0306244Y0199264D01*
X0307030Y0198478D02*
X0244898Y0198478D01*
X0248400Y0200836D02*
X0251390Y0200836D01*
X0251278Y0200947D02*
X0251538Y0200688D01*
X0251856Y0200504D01*
X0252210Y0200409D01*
X0253870Y0200409D01*
X0253870Y0202689D01*
X0251000Y0202689D01*
X0251000Y0201620D01*
X0251095Y0201265D01*
X0251278Y0200947D01*
X0251000Y0201622D02*
X0248870Y0201622D01*
X0248870Y0202408D02*
X0251000Y0202408D01*
X0251000Y0202886D02*
X0253870Y0202886D01*
X0253870Y0205165D01*
X0252210Y0205165D01*
X0251856Y0205070D01*
X0251538Y0204887D01*
X0251278Y0204627D01*
X0251095Y0204310D01*
X0251000Y0203955D01*
X0251000Y0202886D01*
X0251000Y0203194D02*
X0248870Y0203194D01*
X0248870Y0203980D02*
X0251007Y0203980D01*
X0251417Y0204766D02*
X0248374Y0204766D01*
X0243815Y0204766D02*
X0239355Y0204766D01*
X0238569Y0205551D02*
X0302945Y0205551D01*
X0302945Y0206337D02*
X0237783Y0206337D01*
X0240141Y0203980D02*
X0243319Y0203980D01*
X0243319Y0203194D02*
X0240927Y0203194D01*
X0241712Y0202408D02*
X0242602Y0202408D01*
X0239417Y0198478D02*
X0234106Y0198478D01*
X0234106Y0197692D02*
X0239957Y0197692D01*
X0239957Y0196906D02*
X0233664Y0196906D01*
X0234106Y0199264D02*
X0238631Y0199264D01*
X0237845Y0200050D02*
X0234106Y0200050D01*
X0234106Y0200836D02*
X0237060Y0200836D01*
X0236274Y0201622D02*
X0233584Y0201622D01*
X0226321Y0201622D02*
X0211022Y0201622D01*
X0210927Y0201718D02*
X0210745Y0201822D01*
X0211272Y0202349D01*
X0211272Y0206100D01*
X0210647Y0206724D01*
X0211272Y0207349D01*
X0211272Y0211100D01*
X0210647Y0211724D01*
X0211272Y0212349D01*
X0211272Y0216100D01*
X0210568Y0216803D01*
X0208909Y0216803D01*
X0208909Y0223353D01*
X0209106Y0223550D01*
X0209106Y0229269D01*
X0208403Y0229972D01*
X0204259Y0229972D01*
X0203555Y0229269D01*
X0203555Y0223550D01*
X0204259Y0222846D01*
X0205327Y0222846D01*
X0205327Y0216803D01*
X0203668Y0216803D01*
X0202965Y0216100D01*
X0202965Y0212349D01*
X0203589Y0211724D01*
X0202965Y0211100D01*
X0202965Y0207349D01*
X0203589Y0206724D01*
X0202965Y0206100D01*
X0202965Y0205760D01*
X0199289Y0205760D01*
X0198108Y0204579D01*
X0193358Y0204579D01*
X0193358Y0205647D01*
X0192655Y0206350D01*
X0189553Y0206350D01*
X0185287Y0210616D01*
X0185287Y0211035D01*
X0185568Y0211035D01*
X0186272Y0211739D01*
X0186272Y0217458D01*
X0185568Y0218161D01*
X0181424Y0218161D01*
X0180720Y0217458D01*
X0180720Y0211739D01*
X0181424Y0211035D01*
X0181705Y0211035D01*
X0181705Y0209132D01*
X0182754Y0208083D01*
X0184293Y0206543D01*
X0183890Y0206543D01*
X0183890Y0203181D01*
X0186465Y0203181D01*
X0186465Y0204372D01*
X0187807Y0203030D01*
X0187807Y0199928D01*
X0188510Y0199224D01*
X0192655Y0199224D01*
X0193358Y0199928D01*
X0193358Y0200996D01*
X0199592Y0200996D01*
X0200642Y0202045D01*
X0200773Y0202177D01*
X0203136Y0202177D01*
X0203491Y0201822D01*
X0203310Y0201718D01*
X0203050Y0201458D01*
X0202867Y0201140D01*
X0202772Y0200786D01*
X0202772Y0199520D01*
X0206823Y0199520D01*
X0206823Y0198929D01*
X0207413Y0198929D01*
X0207413Y0196453D01*
X0210254Y0196453D01*
X0210609Y0196548D01*
X0210927Y0196731D01*
X0211186Y0196991D01*
X0211370Y0197309D01*
X0211465Y0197663D01*
X0211465Y0198929D01*
X0207413Y0198929D01*
X0207413Y0199520D01*
X0211465Y0199520D01*
X0211465Y0200786D01*
X0211370Y0201140D01*
X0211186Y0201458D01*
X0210927Y0201718D01*
X0211272Y0202408D02*
X0225799Y0202408D01*
X0225799Y0203194D02*
X0211272Y0203194D01*
X0211272Y0203980D02*
X0225799Y0203980D01*
X0225799Y0204766D02*
X0211272Y0204766D01*
X0211272Y0205551D02*
X0225799Y0205551D01*
X0226037Y0206337D02*
X0211034Y0206337D01*
X0211046Y0207123D02*
X0226025Y0207123D01*
X0225799Y0207909D02*
X0211272Y0207909D01*
X0211272Y0208695D02*
X0225799Y0208695D01*
X0225799Y0209481D02*
X0211272Y0209481D01*
X0211272Y0210267D02*
X0225799Y0210267D01*
X0225799Y0211053D02*
X0211272Y0211053D01*
X0210761Y0211839D02*
X0226037Y0211839D01*
X0225617Y0212625D02*
X0211272Y0212625D01*
X0211272Y0213411D02*
X0225606Y0213411D01*
X0225606Y0214520D02*
X0229657Y0214520D01*
X0229657Y0216996D01*
X0226817Y0216996D01*
X0226462Y0216901D01*
X0226144Y0216718D01*
X0225885Y0216458D01*
X0225701Y0216140D01*
X0225606Y0215786D01*
X0225606Y0214520D01*
X0225606Y0214982D02*
X0211272Y0214982D01*
X0211272Y0214196D02*
X0229657Y0214196D01*
X0230248Y0214196D02*
X0242974Y0214196D01*
X0243699Y0214982D02*
X0234299Y0214982D01*
X0234299Y0214520D02*
X0234299Y0215786D01*
X0234204Y0216140D01*
X0234021Y0216458D01*
X0233761Y0216718D01*
X0233443Y0216901D01*
X0233089Y0216996D01*
X0230248Y0216996D01*
X0230248Y0214520D01*
X0234299Y0214520D01*
X0234299Y0213411D02*
X0242188Y0213411D01*
X0241402Y0212625D02*
X0234289Y0212625D01*
X0233869Y0211839D02*
X0240616Y0211839D01*
X0244483Y0209481D02*
X0299569Y0209481D01*
X0299449Y0210267D02*
X0245269Y0210267D01*
X0243697Y0208695D02*
X0302945Y0208695D01*
X0302945Y0207909D02*
X0242911Y0207909D01*
X0242125Y0207123D02*
X0302945Y0207123D01*
X0301886Y0204766D02*
X0256520Y0204766D01*
X0256399Y0204887D02*
X0256081Y0205070D01*
X0255727Y0205165D01*
X0254067Y0205165D01*
X0254067Y0202886D01*
X0253870Y0202886D01*
X0253870Y0202689D01*
X0254067Y0202689D01*
X0254067Y0202886D01*
X0256937Y0202886D01*
X0256937Y0203955D01*
X0256842Y0204310D01*
X0256659Y0204627D01*
X0256399Y0204887D01*
X0256930Y0203980D02*
X0301587Y0203980D01*
X0301587Y0203194D02*
X0256937Y0203194D01*
X0256937Y0202689D02*
X0256937Y0201620D01*
X0256842Y0201265D01*
X0256659Y0200947D01*
X0256399Y0200688D01*
X0256081Y0200504D01*
X0255727Y0200409D01*
X0254067Y0200409D01*
X0254067Y0202689D01*
X0256937Y0202689D01*
X0256937Y0202408D02*
X0301587Y0202408D01*
X0301587Y0201622D02*
X0256937Y0201622D01*
X0256547Y0200836D02*
X0301587Y0200836D01*
X0307354Y0205551D02*
X0326567Y0205551D01*
X0326567Y0206337D02*
X0307354Y0206337D01*
X0307354Y0207123D02*
X0326567Y0207123D01*
X0326567Y0207909D02*
X0307354Y0207909D01*
X0307354Y0208695D02*
X0326567Y0208695D01*
X0323191Y0209481D02*
X0310730Y0209481D01*
X0310850Y0210267D02*
X0323071Y0210267D01*
X0323071Y0211053D02*
X0310850Y0211053D01*
X0310850Y0211839D02*
X0323071Y0211839D01*
X0323071Y0212625D02*
X0310850Y0212625D01*
X0310850Y0213411D02*
X0323071Y0213411D01*
X0323071Y0214196D02*
X0310850Y0214196D01*
X0310850Y0214982D02*
X0323071Y0214982D01*
X0323071Y0215768D02*
X0310850Y0215768D01*
X0310850Y0216554D02*
X0323071Y0216554D01*
X0323071Y0217340D02*
X0310850Y0217340D01*
X0310850Y0218126D02*
X0323071Y0218126D01*
X0323071Y0218912D02*
X0310850Y0218912D01*
X0310748Y0219698D02*
X0323173Y0219698D01*
X0334370Y0219698D02*
X0346795Y0219698D01*
X0346693Y0218912D02*
X0334472Y0218912D01*
X0334472Y0218126D02*
X0346693Y0218126D01*
X0346693Y0217340D02*
X0334472Y0217340D01*
X0334472Y0216554D02*
X0346693Y0216554D01*
X0346693Y0215768D02*
X0334472Y0215768D01*
X0334472Y0214982D02*
X0346693Y0214982D01*
X0346693Y0214196D02*
X0334472Y0214196D01*
X0334472Y0213411D02*
X0346693Y0213411D01*
X0346693Y0212625D02*
X0334472Y0212625D01*
X0334472Y0211839D02*
X0346693Y0211839D01*
X0346693Y0211053D02*
X0334472Y0211053D01*
X0334472Y0210267D02*
X0346693Y0210267D01*
X0346813Y0209481D02*
X0334352Y0209481D01*
X0330976Y0208695D02*
X0350189Y0208695D01*
X0350189Y0207909D02*
X0330976Y0207909D01*
X0330976Y0207123D02*
X0350189Y0207123D01*
X0350189Y0206337D02*
X0330976Y0206337D01*
X0330976Y0205551D02*
X0350189Y0205551D01*
X0349130Y0204766D02*
X0332035Y0204766D01*
X0332335Y0203980D02*
X0348831Y0203980D01*
X0348831Y0203194D02*
X0332335Y0203194D01*
X0332335Y0202408D02*
X0348831Y0202408D01*
X0348831Y0201622D02*
X0332394Y0201622D01*
X0333180Y0200836D02*
X0348303Y0200836D01*
X0347517Y0200050D02*
X0333965Y0200050D01*
X0334751Y0199264D02*
X0346850Y0199264D01*
X0346850Y0198478D02*
X0335537Y0198478D01*
X0336323Y0197692D02*
X0346850Y0197692D01*
X0346850Y0196906D02*
X0337109Y0196906D01*
X0337895Y0196120D02*
X0346850Y0196120D01*
X0346850Y0195335D02*
X0338681Y0195335D01*
X0339467Y0194549D02*
X0346850Y0194549D01*
X0346850Y0193763D02*
X0340253Y0193763D01*
X0342780Y0192977D02*
X0346850Y0192977D01*
X0346850Y0192191D02*
X0343385Y0192191D01*
X0343666Y0191405D02*
X0346850Y0191405D01*
X0346850Y0190619D02*
X0343666Y0190619D01*
X0343414Y0189833D02*
X0346326Y0189833D01*
X0345540Y0189047D02*
X0342851Y0189047D01*
X0343968Y0187475D02*
X0331043Y0187475D01*
X0331374Y0188261D02*
X0344754Y0188261D01*
X0343182Y0186690D02*
X0330203Y0186690D01*
X0331461Y0189047D02*
X0339102Y0189047D01*
X0338539Y0189833D02*
X0331341Y0189833D01*
X0330976Y0190619D02*
X0338287Y0190619D01*
X0337544Y0191405D02*
X0330976Y0191405D01*
X0330976Y0192191D02*
X0336758Y0192191D01*
X0335972Y0192977D02*
X0332077Y0192977D01*
X0332335Y0193763D02*
X0335186Y0193763D01*
X0334400Y0194549D02*
X0332335Y0194549D01*
X0332335Y0195335D02*
X0333614Y0195335D01*
X0332828Y0196120D02*
X0332335Y0196120D01*
X0325209Y0196120D02*
X0325032Y0196120D01*
X0325209Y0195335D02*
X0324246Y0195335D01*
X0323870Y0194549D02*
X0325209Y0194549D01*
X0325209Y0193763D02*
X0323870Y0193763D01*
X0323870Y0192977D02*
X0325467Y0192977D01*
X0326567Y0192191D02*
X0323870Y0192191D01*
X0323870Y0191405D02*
X0326567Y0191405D01*
X0326567Y0190619D02*
X0323870Y0190619D01*
X0323870Y0189833D02*
X0326202Y0189833D01*
X0326082Y0189047D02*
X0323870Y0189047D01*
X0323870Y0188261D02*
X0326169Y0188261D01*
X0326500Y0187475D02*
X0323870Y0187475D01*
X0323870Y0186690D02*
X0327340Y0186690D01*
X0323870Y0185904D02*
X0341125Y0185904D01*
X0340438Y0185118D02*
X0323870Y0185118D01*
X0323870Y0184332D02*
X0340112Y0184332D01*
X0340038Y0183546D02*
X0323870Y0183546D01*
X0323870Y0182760D02*
X0339252Y0182760D01*
X0338466Y0181974D02*
X0323870Y0181974D01*
X0323870Y0181188D02*
X0337681Y0181188D01*
X0336895Y0180402D02*
X0323870Y0180402D01*
X0323870Y0179616D02*
X0325114Y0179616D01*
X0324329Y0178830D02*
X0323870Y0178830D01*
X0320287Y0178830D02*
X0316193Y0178830D01*
X0316193Y0178044D02*
X0320287Y0178044D01*
X0320287Y0177259D02*
X0316193Y0177259D01*
X0316193Y0176473D02*
X0320287Y0176473D01*
X0320287Y0175687D02*
X0316193Y0175687D01*
X0316193Y0174901D02*
X0320287Y0174901D01*
X0326429Y0174901D02*
X0349212Y0174901D01*
X0349326Y0175177D02*
X0348917Y0174189D01*
X0348917Y0173119D01*
X0349326Y0172130D01*
X0349421Y0172035D01*
X0349421Y0170943D01*
X0349618Y0170746D01*
X0349618Y0165530D01*
X0349657Y0165490D01*
X0349657Y0164717D01*
X0347449Y0164717D01*
X0347449Y0166272D01*
X0347449Y0168128D01*
X0347354Y0168483D01*
X0347170Y0168801D01*
X0346911Y0169060D01*
X0346593Y0169244D01*
X0346239Y0169339D01*
X0345504Y0169339D01*
X0345504Y0166272D01*
X0345504Y0166272D01*
X0345504Y0169339D01*
X0344769Y0169339D01*
X0344415Y0169244D01*
X0344097Y0169060D01*
X0343838Y0168801D01*
X0343654Y0168483D01*
X0343559Y0168128D01*
X0343559Y0166272D01*
X0345504Y0166272D01*
X0347449Y0166272D01*
X0345504Y0166272D01*
X0345504Y0166272D01*
X0345504Y0166272D01*
X0343559Y0166272D01*
X0343559Y0165169D01*
X0339495Y0165169D01*
X0339444Y0165118D01*
X0337516Y0165118D01*
X0336335Y0163937D01*
X0335339Y0162941D01*
X0335339Y0150508D01*
X0339465Y0146382D01*
X0339465Y0145675D01*
X0341338Y0143802D01*
X0341338Y0143099D01*
X0341822Y0141930D01*
X0342717Y0141035D01*
X0343887Y0140550D01*
X0345153Y0140550D01*
X0346322Y0141035D01*
X0346819Y0141531D01*
X0347151Y0141531D01*
X0348831Y0139852D01*
X0348831Y0137329D01*
X0349534Y0136626D01*
X0355253Y0136626D01*
X0355957Y0137329D01*
X0355957Y0141474D01*
X0355253Y0142177D01*
X0352730Y0142177D01*
X0350822Y0144086D01*
X0353110Y0146374D01*
X0353110Y0150467D01*
X0353161Y0150518D01*
X0353161Y0153791D01*
X0357252Y0153791D01*
X0362504Y0148540D01*
X0362504Y0142177D01*
X0361345Y0142177D01*
X0360642Y0141474D01*
X0360642Y0137329D01*
X0361345Y0136626D01*
X0367064Y0136626D01*
X0367768Y0137329D01*
X0367768Y0141474D01*
X0367064Y0142177D01*
X0365905Y0142177D01*
X0365905Y0149949D01*
X0360134Y0155720D01*
X0362980Y0155720D01*
X0363468Y0155232D01*
X0364457Y0154822D01*
X0365527Y0154822D01*
X0366516Y0155232D01*
X0367272Y0155988D01*
X0367682Y0156977D01*
X0367682Y0158047D01*
X0367272Y0159035D01*
X0366516Y0159792D01*
X0365527Y0160202D01*
X0364457Y0160202D01*
X0363468Y0159792D01*
X0362980Y0159303D01*
X0361575Y0159303D01*
X0361575Y0161626D01*
X0362191Y0161626D01*
X0363766Y0163201D01*
X0364815Y0164250D01*
X0364815Y0173214D01*
X0361272Y0176758D01*
X0360921Y0177108D01*
X0360579Y0177933D01*
X0359823Y0178690D01*
X0358834Y0179099D01*
X0357764Y0179099D01*
X0356776Y0178690D01*
X0356019Y0177933D01*
X0355609Y0176944D01*
X0355609Y0175874D01*
X0356019Y0174886D01*
X0356776Y0174129D01*
X0357764Y0173720D01*
X0358834Y0173720D01*
X0359123Y0173839D01*
X0361232Y0171730D01*
X0361232Y0165734D01*
X0360707Y0165209D01*
X0354506Y0165209D01*
X0354467Y0165169D01*
X0353161Y0165169D01*
X0353161Y0165490D01*
X0353201Y0165530D01*
X0353201Y0171444D01*
X0353887Y0172130D01*
X0354296Y0173119D01*
X0354296Y0174189D01*
X0353887Y0175177D01*
X0353130Y0175934D01*
X0352141Y0176343D01*
X0351071Y0176343D01*
X0350083Y0175934D01*
X0349326Y0175177D01*
X0349836Y0175687D02*
X0326429Y0175687D01*
X0327037Y0176473D02*
X0355609Y0176473D01*
X0355687Y0175687D02*
X0353377Y0175687D01*
X0354001Y0174901D02*
X0356013Y0174901D01*
X0356810Y0174115D02*
X0354296Y0174115D01*
X0354296Y0173329D02*
X0359634Y0173329D01*
X0360420Y0172543D02*
X0354058Y0172543D01*
X0353514Y0171757D02*
X0361206Y0171757D01*
X0361232Y0170971D02*
X0353201Y0170971D01*
X0353201Y0170185D02*
X0361232Y0170185D01*
X0361232Y0169399D02*
X0353201Y0169399D01*
X0353201Y0168614D02*
X0361232Y0168614D01*
X0361232Y0167828D02*
X0353201Y0167828D01*
X0353201Y0167042D02*
X0361232Y0167042D01*
X0361232Y0166256D02*
X0353201Y0166256D01*
X0353161Y0165470D02*
X0360968Y0165470D01*
X0363677Y0163112D02*
X0391307Y0163112D01*
X0391307Y0162326D02*
X0362891Y0162326D01*
X0361575Y0161540D02*
X0391307Y0161540D01*
X0391307Y0160754D02*
X0361575Y0160754D01*
X0361575Y0159968D02*
X0363894Y0159968D01*
X0366090Y0159968D02*
X0391307Y0159968D01*
X0391307Y0159183D02*
X0367125Y0159183D01*
X0367537Y0158397D02*
X0391307Y0158397D01*
X0391307Y0157611D02*
X0367682Y0157611D01*
X0367619Y0156825D02*
X0391307Y0156825D01*
X0391307Y0156039D02*
X0367293Y0156039D01*
X0366537Y0155253D02*
X0391307Y0155253D01*
X0391307Y0154467D02*
X0361387Y0154467D01*
X0362173Y0153681D02*
X0391307Y0153681D01*
X0391307Y0152895D02*
X0362959Y0152895D01*
X0363745Y0152109D02*
X0391307Y0152109D01*
X0391307Y0151323D02*
X0364531Y0151323D01*
X0365317Y0150538D02*
X0391307Y0150538D01*
X0391307Y0149752D02*
X0365905Y0149752D01*
X0365905Y0148966D02*
X0391307Y0148966D01*
X0391307Y0148180D02*
X0365905Y0148180D01*
X0365905Y0147394D02*
X0391307Y0147394D01*
X0391307Y0146608D02*
X0365905Y0146608D01*
X0365905Y0145822D02*
X0391307Y0145822D01*
X0391307Y0145036D02*
X0365905Y0145036D01*
X0365905Y0144250D02*
X0391307Y0144250D01*
X0391307Y0143464D02*
X0365905Y0143464D01*
X0365905Y0142678D02*
X0391307Y0142678D01*
X0391307Y0141892D02*
X0367349Y0141892D01*
X0367768Y0141107D02*
X0391307Y0141107D01*
X0391307Y0140321D02*
X0367768Y0140321D01*
X0367768Y0139535D02*
X0391307Y0139535D01*
X0391307Y0138749D02*
X0367768Y0138749D01*
X0367768Y0137963D02*
X0391307Y0137963D01*
X0391307Y0137177D02*
X0367615Y0137177D01*
X0367064Y0135091D02*
X0361345Y0135091D01*
X0360770Y0134516D01*
X0355828Y0134516D01*
X0355253Y0135091D01*
X0349534Y0135091D01*
X0348831Y0134387D01*
X0348831Y0130243D01*
X0349534Y0129539D01*
X0355253Y0129539D01*
X0355828Y0130114D01*
X0360770Y0130114D01*
X0361345Y0129539D01*
X0367064Y0129539D01*
X0367768Y0130243D01*
X0367768Y0134387D01*
X0367064Y0135091D01*
X0367336Y0134819D02*
X0391307Y0134819D01*
X0391307Y0134033D02*
X0367768Y0134033D01*
X0367768Y0133247D02*
X0391307Y0133247D01*
X0391307Y0132462D02*
X0367768Y0132462D01*
X0367768Y0131676D02*
X0391307Y0131676D01*
X0391307Y0130890D02*
X0367768Y0130890D01*
X0367629Y0130104D02*
X0391307Y0130104D01*
X0391307Y0129318D02*
X0322676Y0129318D01*
X0321890Y0130104D02*
X0348970Y0130104D01*
X0348831Y0130890D02*
X0321105Y0130890D01*
X0320319Y0131676D02*
X0348831Y0131676D01*
X0348831Y0132462D02*
X0319533Y0132462D01*
X0318747Y0133247D02*
X0348831Y0133247D01*
X0348831Y0134033D02*
X0317961Y0134033D01*
X0317175Y0134819D02*
X0349263Y0134819D01*
X0348983Y0137177D02*
X0314817Y0137177D01*
X0314031Y0137963D02*
X0315999Y0137963D01*
X0316406Y0137794D02*
X0317515Y0137794D01*
X0318540Y0138219D01*
X0319203Y0138882D01*
X0322783Y0138882D01*
X0323780Y0139878D01*
X0323780Y0143913D01*
X0324638Y0143913D01*
X0325510Y0143913D01*
X0325865Y0144008D01*
X0326183Y0144192D01*
X0326442Y0144451D01*
X0326625Y0144769D01*
X0326720Y0145124D01*
X0326720Y0148457D01*
X0326720Y0151790D01*
X0326625Y0152144D01*
X0326442Y0152462D01*
X0326183Y0152722D01*
X0325865Y0152905D01*
X0325510Y0153000D01*
X0324638Y0153000D01*
X0324638Y0148457D01*
X0324638Y0148457D01*
X0326720Y0148457D01*
X0324638Y0148457D01*
X0324638Y0148457D01*
X0324638Y0153000D01*
X0323765Y0153000D01*
X0323411Y0152905D01*
X0323241Y0152807D01*
X0320892Y0152807D01*
X0320799Y0152714D01*
X0320706Y0152807D01*
X0318333Y0152807D01*
X0318240Y0152714D01*
X0318147Y0152807D01*
X0315774Y0152807D01*
X0315681Y0152714D01*
X0315588Y0152807D01*
X0313215Y0152807D01*
X0313122Y0152714D01*
X0313029Y0152807D01*
X0310656Y0152807D01*
X0310563Y0152714D01*
X0310470Y0152807D01*
X0308097Y0152807D01*
X0307394Y0152104D01*
X0307394Y0144810D01*
X0308097Y0144106D01*
X0310142Y0144106D01*
X0310142Y0142634D01*
X0312898Y0139878D01*
X0313894Y0138882D01*
X0314718Y0138882D01*
X0315381Y0138219D01*
X0316406Y0137794D01*
X0317922Y0137963D02*
X0348831Y0137963D01*
X0348831Y0138749D02*
X0319070Y0138749D01*
X0316389Y0135605D02*
X0391307Y0135605D01*
X0391307Y0136391D02*
X0315603Y0136391D01*
X0314851Y0138749D02*
X0313245Y0138749D01*
X0313241Y0139535D02*
X0312459Y0139535D01*
X0312455Y0140321D02*
X0311674Y0140321D01*
X0311669Y0141107D02*
X0310888Y0141107D01*
X0310883Y0141892D02*
X0310102Y0141892D01*
X0309998Y0141996D02*
X0294680Y0141996D01*
X0294249Y0143035D01*
X0292641Y0144643D01*
X0290539Y0145514D01*
X0288264Y0145514D01*
X0286162Y0144643D01*
X0284554Y0143035D01*
X0283683Y0140933D01*
X0283683Y0138658D01*
X0284554Y0136556D01*
X0286162Y0134947D01*
X0288264Y0134077D01*
X0290539Y0134077D01*
X0292641Y0134947D01*
X0294249Y0136556D01*
X0294680Y0137594D01*
X0308175Y0137594D01*
X0323483Y0122286D01*
X0323053Y0121248D01*
X0323053Y0118973D01*
X0323924Y0116871D01*
X0325532Y0115262D01*
X0327634Y0114392D01*
X0329909Y0114392D01*
X0330948Y0114822D01*
X0347151Y0098618D01*
X0352896Y0098618D01*
X0353471Y0098043D01*
X0355994Y0098043D01*
X0356630Y0097407D01*
X0356630Y0088112D01*
X0356331Y0087812D01*
X0355706Y0088437D01*
X0351955Y0088437D01*
X0351429Y0087910D01*
X0351324Y0088092D01*
X0351064Y0088351D01*
X0350747Y0088535D01*
X0350392Y0088630D01*
X0349126Y0088630D01*
X0349126Y0084579D01*
X0348535Y0084579D01*
X0348535Y0083988D01*
X0346059Y0083988D01*
X0346059Y0081147D01*
X0346154Y0080793D01*
X0346338Y0080475D01*
X0346597Y0080215D01*
X0346915Y0080032D01*
X0347269Y0079937D01*
X0348535Y0079937D01*
X0348535Y0083988D01*
X0349126Y0083988D01*
X0349126Y0079937D01*
X0350392Y0079937D01*
X0350747Y0080032D01*
X0351064Y0080215D01*
X0351324Y0080475D01*
X0351429Y0080657D01*
X0351630Y0080455D01*
X0351630Y0079152D01*
X0339671Y0067193D01*
X0334050Y0067193D01*
X0333620Y0068231D01*
X0332011Y0069840D01*
X0329909Y0070711D01*
X0327634Y0070711D01*
X0325532Y0069840D01*
X0323924Y0068231D01*
X0323053Y0066130D01*
X0323053Y0063855D01*
X0323924Y0061753D01*
X0325532Y0060144D01*
X0326571Y0059714D01*
X0326571Y0029845D01*
X0326084Y0029644D01*
X0324750Y0028309D01*
X0324028Y0026566D01*
X0324028Y0024678D01*
X0324750Y0022935D01*
X0326084Y0021600D01*
X0327828Y0020878D01*
X0329715Y0020878D01*
X0331459Y0021600D01*
X0332793Y0022935D01*
X0333516Y0024678D01*
X0333516Y0026566D01*
X0332793Y0028309D01*
X0331459Y0029644D01*
X0330972Y0029845D01*
X0330972Y0059714D01*
X0332011Y0060144D01*
X0333620Y0061753D01*
X0334050Y0062791D01*
X0341494Y0062791D01*
X0342783Y0064081D01*
X0356031Y0077329D01*
X0356031Y0080455D01*
X0356331Y0080755D01*
X0356630Y0080455D01*
X0356630Y0072341D01*
X0351630Y0067341D01*
X0351630Y0065277D01*
X0351331Y0064978D01*
X0350706Y0065602D01*
X0346955Y0065602D01*
X0346252Y0064899D01*
X0346252Y0057999D01*
X0346630Y0057621D01*
X0346630Y0055854D01*
X0345759Y0054983D01*
X0345275Y0053814D01*
X0345275Y0052548D01*
X0345759Y0051379D01*
X0346256Y0050882D01*
X0346256Y0047689D01*
X0345597Y0047689D01*
X0344894Y0046986D01*
X0344894Y0042841D01*
X0345597Y0042138D01*
X0351316Y0042138D01*
X0352020Y0042841D01*
X0352020Y0046986D01*
X0351316Y0047689D01*
X0350657Y0047689D01*
X0350657Y0050882D01*
X0351154Y0051379D01*
X0351639Y0052548D01*
X0351639Y0053814D01*
X0351154Y0054983D01*
X0351031Y0055106D01*
X0351031Y0057621D01*
X0351331Y0057920D01*
X0351955Y0057295D01*
X0355706Y0057295D01*
X0356331Y0057920D01*
X0356630Y0057621D01*
X0356630Y0045439D01*
X0356705Y0045364D01*
X0356705Y0042841D01*
X0357408Y0042138D01*
X0363127Y0042138D01*
X0363702Y0042713D01*
X0372597Y0042713D01*
X0373427Y0043543D01*
X0381013Y0043543D01*
X0381717Y0044247D01*
X0381717Y0054241D01*
X0381013Y0054945D01*
X0371018Y0054945D01*
X0370315Y0054241D01*
X0370315Y0047114D01*
X0363702Y0047114D01*
X0363127Y0047689D01*
X0361031Y0047689D01*
X0361031Y0057621D01*
X0361233Y0057822D01*
X0361338Y0057640D01*
X0361597Y0057381D01*
X0361915Y0057197D01*
X0362269Y0057102D01*
X0363535Y0057102D01*
X0363535Y0061153D01*
X0364126Y0061153D01*
X0364126Y0057102D01*
X0365392Y0057102D01*
X0365747Y0057197D01*
X0366064Y0057381D01*
X0366324Y0057640D01*
X0366507Y0057958D01*
X0366602Y0058313D01*
X0366602Y0061154D01*
X0364126Y0061154D01*
X0364126Y0061744D01*
X0366602Y0061744D01*
X0366602Y0064585D01*
X0366507Y0064940D01*
X0366324Y0065257D01*
X0366064Y0065517D01*
X0365747Y0065700D01*
X0365392Y0065795D01*
X0364126Y0065795D01*
X0364126Y0061744D01*
X0363535Y0061744D01*
X0363535Y0065795D01*
X0362269Y0065795D01*
X0361915Y0065700D01*
X0361597Y0065517D01*
X0361338Y0065257D01*
X0361233Y0065076D01*
X0360706Y0065602D01*
X0356955Y0065602D01*
X0356331Y0064978D01*
X0356031Y0065277D01*
X0356031Y0065518D01*
X0361031Y0070518D01*
X0361031Y0080455D01*
X0361331Y0080755D01*
X0361955Y0080130D01*
X0365706Y0080130D01*
X0366409Y0080833D01*
X0366409Y0087734D01*
X0366031Y0088112D01*
X0366031Y0095596D01*
X0368479Y0098043D01*
X0371001Y0098043D01*
X0371705Y0098747D01*
X0371705Y0102891D01*
X0371001Y0103594D01*
X0365282Y0103594D01*
X0364579Y0102891D01*
X0364579Y0100368D01*
X0361630Y0097419D01*
X0361630Y0088112D01*
X0361331Y0087812D01*
X0361031Y0088112D01*
X0361031Y0099230D01*
X0359894Y0100368D01*
X0359894Y0102891D01*
X0359190Y0103594D01*
X0353471Y0103594D01*
X0352896Y0103020D01*
X0348975Y0103020D01*
X0334060Y0117934D01*
X0334490Y0118973D01*
X0334490Y0121248D01*
X0333620Y0123349D01*
X0332011Y0124958D01*
X0329909Y0125829D01*
X0327634Y0125829D01*
X0326596Y0125399D01*
X0309998Y0141996D01*
X0310142Y0142678D02*
X0294397Y0142678D01*
X0293820Y0143464D02*
X0310142Y0143464D01*
X0307953Y0144250D02*
X0293034Y0144250D01*
X0291692Y0145036D02*
X0307394Y0145036D01*
X0307394Y0145822D02*
X0267768Y0145822D01*
X0267768Y0145036D02*
X0287111Y0145036D01*
X0285769Y0144250D02*
X0267768Y0144250D01*
X0267768Y0143464D02*
X0284983Y0143464D01*
X0284406Y0142678D02*
X0267605Y0142678D01*
X0267580Y0142654D02*
X0267768Y0142841D01*
X0267768Y0152497D01*
X0267064Y0153201D01*
X0259770Y0153201D01*
X0259067Y0152497D01*
X0259067Y0142841D01*
X0259770Y0142138D01*
X0263213Y0142138D01*
X0260530Y0139455D01*
X0260530Y0139832D01*
X0260046Y0141001D01*
X0259151Y0141896D01*
X0257981Y0142381D01*
X0256716Y0142381D01*
X0255546Y0141896D01*
X0254651Y0141001D01*
X0254167Y0139832D01*
X0254167Y0138566D01*
X0254421Y0137953D01*
X0251832Y0140541D01*
X0251832Y0142138D01*
X0256041Y0142138D01*
X0256744Y0142841D01*
X0256744Y0152497D01*
X0256041Y0153201D01*
X0248747Y0153201D01*
X0248043Y0152497D01*
X0248043Y0142841D01*
X0248231Y0142654D01*
X0248231Y0139049D01*
X0249286Y0137994D01*
X0250758Y0136522D01*
X0239194Y0136522D01*
X0238407Y0135734D01*
X0237557Y0134884D01*
X0237557Y0134728D01*
X0206945Y0134728D01*
X0205768Y0134241D01*
X0205212Y0133685D01*
X0197790Y0133685D01*
X0197087Y0132982D01*
X0197087Y0122987D01*
X0197790Y0122283D01*
X0199587Y0122283D01*
X0199587Y0106126D01*
X0197790Y0106126D01*
X0197087Y0105423D01*
X0197087Y0095428D01*
X0197790Y0094724D01*
X0207785Y0094724D01*
X0208488Y0095428D01*
X0208488Y0105423D01*
X0207785Y0106126D01*
X0205988Y0106126D01*
X0205988Y0122283D01*
X0207785Y0122283D01*
X0208488Y0122987D01*
X0208488Y0127908D01*
X0208907Y0128327D01*
X0238188Y0128327D01*
X0238344Y0128171D01*
X0239194Y0127321D01*
X0250248Y0127321D01*
X0250248Y0120892D01*
X0250951Y0120189D01*
X0251665Y0120189D01*
X0251665Y0116693D01*
X0243858Y0116693D01*
X0243858Y0121665D01*
X0245017Y0121665D01*
X0245720Y0122369D01*
X0245720Y0126513D01*
X0245017Y0127217D01*
X0239298Y0127217D01*
X0238594Y0126513D01*
X0238594Y0122369D01*
X0239298Y0121665D01*
X0240457Y0121665D01*
X0240457Y0114618D01*
X0239298Y0114618D01*
X0238594Y0113915D01*
X0238594Y0109770D01*
X0239298Y0109067D01*
X0245017Y0109067D01*
X0245720Y0109770D01*
X0245720Y0113291D01*
X0257035Y0113291D01*
X0257622Y0113878D01*
X0257622Y0111468D01*
X0256621Y0111468D01*
X0255917Y0110765D01*
X0255917Y0105046D01*
X0256621Y0104343D01*
X0260765Y0104343D01*
X0261468Y0105046D01*
X0261468Y0110765D01*
X0261024Y0111210D01*
X0261024Y0115665D01*
X0261291Y0115665D01*
X0261291Y0118732D01*
X0261291Y0118732D01*
X0261291Y0115665D01*
X0262026Y0115665D01*
X0262380Y0115760D01*
X0262698Y0115944D01*
X0262958Y0116203D01*
X0263141Y0116521D01*
X0263236Y0116876D01*
X0263236Y0118732D01*
X0261291Y0118732D01*
X0261291Y0118732D01*
X0263236Y0118732D01*
X0263236Y0120189D01*
X0263757Y0120189D01*
X0264461Y0120892D01*
X0264461Y0121313D01*
X0268479Y0121299D01*
X0269313Y0120466D01*
X0271056Y0119744D01*
X0272944Y0119744D01*
X0274687Y0120466D01*
X0276022Y0121800D01*
X0276744Y0123544D01*
X0276744Y0125431D01*
X0276022Y0127175D01*
X0274687Y0128509D01*
X0272944Y0129232D01*
X0271056Y0129232D01*
X0269313Y0128509D01*
X0268504Y0127701D01*
X0264461Y0127715D01*
X0264461Y0128186D01*
X0263757Y0128890D01*
X0263236Y0128890D01*
X0263236Y0130346D01*
X0261291Y0130346D01*
X0261291Y0130347D01*
X0261291Y0133413D01*
X0261122Y0133413D01*
X0261122Y0134953D01*
X0266525Y0140357D01*
X0267580Y0141412D01*
X0267580Y0142654D01*
X0267580Y0141892D02*
X0284081Y0141892D01*
X0283755Y0141107D02*
X0267275Y0141107D01*
X0266489Y0140321D02*
X0283683Y0140321D01*
X0283683Y0139535D02*
X0265703Y0139535D01*
X0264918Y0138749D02*
X0283683Y0138749D01*
X0283971Y0137963D02*
X0264132Y0137963D01*
X0263346Y0137177D02*
X0284296Y0137177D01*
X0284719Y0136391D02*
X0262560Y0136391D01*
X0261774Y0135605D02*
X0285504Y0135605D01*
X0286472Y0134819D02*
X0261122Y0134819D01*
X0261122Y0134033D02*
X0311736Y0134033D01*
X0312522Y0133247D02*
X0262503Y0133247D01*
X0262380Y0133318D02*
X0262026Y0133413D01*
X0261291Y0133413D01*
X0261291Y0130347D01*
X0261291Y0130347D01*
X0263236Y0130347D01*
X0263236Y0132203D01*
X0263141Y0132558D01*
X0262958Y0132875D01*
X0262698Y0133135D01*
X0262380Y0133318D01*
X0261291Y0133247D02*
X0261291Y0133247D01*
X0261291Y0132462D02*
X0261291Y0132462D01*
X0261291Y0131676D02*
X0261291Y0131676D01*
X0261291Y0130890D02*
X0261291Y0130890D01*
X0263236Y0130890D02*
X0314880Y0130890D01*
X0314094Y0131676D02*
X0263236Y0131676D01*
X0263167Y0132462D02*
X0313308Y0132462D01*
X0310950Y0134819D02*
X0292332Y0134819D01*
X0293299Y0135605D02*
X0310164Y0135605D01*
X0309378Y0136391D02*
X0294085Y0136391D01*
X0294507Y0137177D02*
X0308592Y0137177D01*
X0315666Y0130104D02*
X0263236Y0130104D01*
X0263236Y0129318D02*
X0316452Y0129318D01*
X0317238Y0128532D02*
X0274633Y0128532D01*
X0275451Y0127746D02*
X0318023Y0127746D01*
X0318809Y0126960D02*
X0276111Y0126960D01*
X0276436Y0126174D02*
X0319595Y0126174D01*
X0320381Y0125388D02*
X0276744Y0125388D01*
X0276744Y0124602D02*
X0321167Y0124602D01*
X0321953Y0123816D02*
X0276744Y0123816D01*
X0276531Y0123031D02*
X0322739Y0123031D01*
X0323466Y0122245D02*
X0276206Y0122245D01*
X0275680Y0121459D02*
X0323141Y0121459D01*
X0323053Y0120673D02*
X0274894Y0120673D01*
X0273290Y0119887D02*
X0323053Y0119887D01*
X0323053Y0119101D02*
X0263236Y0119101D01*
X0263236Y0118315D02*
X0323326Y0118315D01*
X0323651Y0117529D02*
X0263236Y0117529D01*
X0263201Y0116743D02*
X0324051Y0116743D01*
X0324837Y0115957D02*
X0262712Y0115957D01*
X0261291Y0115957D02*
X0261291Y0115957D01*
X0261291Y0116743D02*
X0261291Y0116743D01*
X0261291Y0117529D02*
X0261291Y0117529D01*
X0261291Y0118315D02*
X0261291Y0118315D01*
X0263236Y0119887D02*
X0270710Y0119887D01*
X0269106Y0120673D02*
X0264241Y0120673D01*
X0261024Y0115171D02*
X0325752Y0115171D01*
X0331384Y0114386D02*
X0261024Y0114386D01*
X0261024Y0113600D02*
X0332170Y0113600D01*
X0332956Y0112814D02*
X0261024Y0112814D01*
X0261024Y0112028D02*
X0333742Y0112028D01*
X0334528Y0111242D02*
X0268351Y0111242D01*
X0268470Y0111123D02*
X0268210Y0111383D01*
X0267892Y0111566D01*
X0267538Y0111661D01*
X0266173Y0111661D01*
X0266173Y0108299D01*
X0265386Y0108299D01*
X0265386Y0107512D01*
X0262811Y0107512D01*
X0262811Y0105360D01*
X0262906Y0105005D01*
X0263089Y0104688D01*
X0263349Y0104428D01*
X0263667Y0104245D01*
X0264021Y0104150D01*
X0265386Y0104150D01*
X0265386Y0107512D01*
X0266173Y0107512D01*
X0266173Y0104150D01*
X0267538Y0104150D01*
X0267892Y0104245D01*
X0268210Y0104428D01*
X0268470Y0104688D01*
X0268653Y0105005D01*
X0268748Y0105360D01*
X0268748Y0107512D01*
X0266173Y0107512D01*
X0266173Y0108299D01*
X0268748Y0108299D01*
X0268748Y0110451D01*
X0268653Y0110806D01*
X0268470Y0111123D01*
X0268747Y0110456D02*
X0335314Y0110456D01*
X0336099Y0109670D02*
X0268748Y0109670D01*
X0268748Y0108884D02*
X0336885Y0108884D01*
X0337671Y0108098D02*
X0266173Y0108098D01*
X0266173Y0107312D02*
X0265386Y0107312D01*
X0265386Y0106526D02*
X0266173Y0106526D01*
X0266173Y0105741D02*
X0265386Y0105741D01*
X0265386Y0104955D02*
X0266173Y0104955D01*
X0266173Y0104169D02*
X0265386Y0104169D01*
X0263950Y0104169D02*
X0245720Y0104169D01*
X0245720Y0104955D02*
X0256009Y0104955D01*
X0255917Y0105741D02*
X0245720Y0105741D01*
X0245720Y0106526D02*
X0255917Y0106526D01*
X0255917Y0107312D02*
X0245236Y0107312D01*
X0245017Y0107531D02*
X0239298Y0107531D01*
X0238723Y0106957D01*
X0234801Y0106957D01*
X0233528Y0108230D01*
X0233528Y0108932D01*
X0233044Y0110102D01*
X0232547Y0110598D01*
X0232547Y0121665D01*
X0233206Y0121665D01*
X0233909Y0122369D01*
X0233909Y0126513D01*
X0233206Y0127217D01*
X0227487Y0127217D01*
X0226783Y0126513D01*
X0226783Y0122369D01*
X0227487Y0121665D01*
X0228146Y0121665D01*
X0228146Y0110598D01*
X0227649Y0110102D01*
X0227165Y0108932D01*
X0227165Y0107666D01*
X0227649Y0106497D01*
X0228544Y0105602D01*
X0229714Y0105117D01*
X0230416Y0105117D01*
X0232978Y0102555D01*
X0238723Y0102555D01*
X0239298Y0101980D01*
X0245017Y0101980D01*
X0245720Y0102684D01*
X0245720Y0106828D01*
X0245017Y0107531D01*
X0245620Y0109670D02*
X0255917Y0109670D01*
X0255917Y0108884D02*
X0233528Y0108884D01*
X0233660Y0108098D02*
X0255917Y0108098D01*
X0255917Y0110456D02*
X0245720Y0110456D01*
X0245720Y0111242D02*
X0256394Y0111242D01*
X0257622Y0112028D02*
X0245720Y0112028D01*
X0245720Y0112814D02*
X0257622Y0112814D01*
X0257622Y0113600D02*
X0257343Y0113600D01*
X0261024Y0111242D02*
X0263208Y0111242D01*
X0263089Y0111123D02*
X0263349Y0111383D01*
X0263667Y0111566D01*
X0264021Y0111661D01*
X0265386Y0111661D01*
X0265386Y0108299D01*
X0262811Y0108299D01*
X0262811Y0110451D01*
X0262906Y0110806D01*
X0263089Y0111123D01*
X0262812Y0110456D02*
X0261468Y0110456D01*
X0261468Y0109670D02*
X0262811Y0109670D01*
X0262811Y0108884D02*
X0261468Y0108884D01*
X0261468Y0108098D02*
X0265386Y0108098D01*
X0265386Y0108884D02*
X0266173Y0108884D01*
X0266173Y0109670D02*
X0265386Y0109670D01*
X0265386Y0110456D02*
X0266173Y0110456D01*
X0266173Y0111242D02*
X0265386Y0111242D01*
X0262811Y0107312D02*
X0261468Y0107312D01*
X0261468Y0106526D02*
X0262811Y0106526D01*
X0262811Y0105741D02*
X0261468Y0105741D01*
X0261377Y0104955D02*
X0262935Y0104955D01*
X0267609Y0104169D02*
X0341601Y0104169D01*
X0340815Y0104955D02*
X0268624Y0104955D01*
X0268748Y0105741D02*
X0340029Y0105741D01*
X0339243Y0106526D02*
X0268748Y0106526D01*
X0268748Y0107312D02*
X0338457Y0107312D01*
X0341538Y0110456D02*
X0346114Y0110456D01*
X0345759Y0110102D02*
X0345275Y0108932D01*
X0345275Y0107666D01*
X0345759Y0106497D01*
X0346654Y0105602D01*
X0347824Y0105117D01*
X0349090Y0105117D01*
X0350259Y0105602D01*
X0350362Y0105705D01*
X0352896Y0105705D01*
X0353471Y0105130D01*
X0359190Y0105130D01*
X0359765Y0105705D01*
X0364707Y0105705D01*
X0365282Y0105130D01*
X0371001Y0105130D01*
X0371705Y0105833D01*
X0371705Y0109978D01*
X0371001Y0110681D01*
X0365282Y0110681D01*
X0364707Y0110106D01*
X0359765Y0110106D01*
X0359190Y0110681D01*
X0353471Y0110681D01*
X0352896Y0110106D01*
X0351149Y0110106D01*
X0350259Y0110997D01*
X0349090Y0111481D01*
X0347824Y0111481D01*
X0346654Y0110997D01*
X0345759Y0110102D01*
X0345580Y0109670D02*
X0342324Y0109670D01*
X0343110Y0108884D02*
X0345275Y0108884D01*
X0345275Y0108098D02*
X0343896Y0108098D01*
X0344682Y0107312D02*
X0345421Y0107312D01*
X0345468Y0106526D02*
X0345747Y0106526D01*
X0346254Y0105741D02*
X0346516Y0105741D01*
X0347040Y0104955D02*
X0391307Y0104955D01*
X0391307Y0105741D02*
X0371612Y0105741D01*
X0371705Y0106526D02*
X0391307Y0106526D01*
X0391307Y0107312D02*
X0371705Y0107312D01*
X0371705Y0108098D02*
X0391307Y0108098D01*
X0391307Y0108884D02*
X0371705Y0108884D01*
X0371705Y0109670D02*
X0391307Y0109670D01*
X0391307Y0110456D02*
X0371226Y0110456D01*
X0365057Y0110456D02*
X0359415Y0110456D01*
X0353246Y0110456D02*
X0350800Y0110456D01*
X0349667Y0111242D02*
X0391307Y0111242D01*
X0391307Y0112028D02*
X0339966Y0112028D01*
X0339181Y0112814D02*
X0391307Y0112814D01*
X0391307Y0113600D02*
X0338395Y0113600D01*
X0337609Y0114386D02*
X0391307Y0114386D01*
X0391307Y0115171D02*
X0336823Y0115171D01*
X0336037Y0115957D02*
X0391307Y0115957D01*
X0391307Y0116743D02*
X0335251Y0116743D01*
X0334465Y0117529D02*
X0391307Y0117529D01*
X0391307Y0118315D02*
X0334218Y0118315D01*
X0334490Y0119101D02*
X0391307Y0119101D01*
X0391307Y0119887D02*
X0334490Y0119887D01*
X0334490Y0120673D02*
X0391307Y0120673D01*
X0391307Y0121459D02*
X0334403Y0121459D01*
X0334077Y0122245D02*
X0391307Y0122245D01*
X0391307Y0123031D02*
X0333752Y0123031D01*
X0333153Y0123816D02*
X0391307Y0123816D01*
X0391307Y0124602D02*
X0332367Y0124602D01*
X0330972Y0125388D02*
X0391307Y0125388D01*
X0391307Y0126174D02*
X0325820Y0126174D01*
X0325034Y0126960D02*
X0391307Y0126960D01*
X0391307Y0127746D02*
X0324248Y0127746D01*
X0323462Y0128532D02*
X0391307Y0128532D01*
X0362504Y0142678D02*
X0352229Y0142678D01*
X0351443Y0143464D02*
X0362504Y0143464D01*
X0362504Y0144250D02*
X0350986Y0144250D01*
X0351772Y0145036D02*
X0362504Y0145036D01*
X0362504Y0145822D02*
X0352558Y0145822D01*
X0353110Y0146608D02*
X0362504Y0146608D01*
X0362504Y0147394D02*
X0353110Y0147394D01*
X0353110Y0148180D02*
X0362504Y0148180D01*
X0362078Y0148966D02*
X0353110Y0148966D01*
X0353110Y0149752D02*
X0361292Y0149752D01*
X0360506Y0150538D02*
X0353161Y0150538D01*
X0353161Y0151323D02*
X0359720Y0151323D01*
X0358934Y0152109D02*
X0353161Y0152109D01*
X0353161Y0152895D02*
X0358148Y0152895D01*
X0357362Y0153681D02*
X0353161Y0153681D01*
X0360601Y0155253D02*
X0363447Y0155253D01*
X0364463Y0163898D02*
X0391307Y0163898D01*
X0391307Y0164684D02*
X0364815Y0164684D01*
X0364815Y0165470D02*
X0391307Y0165470D01*
X0391307Y0166256D02*
X0364815Y0166256D01*
X0364815Y0167042D02*
X0391307Y0167042D01*
X0391307Y0167828D02*
X0364815Y0167828D01*
X0364815Y0168614D02*
X0391307Y0168614D01*
X0391307Y0169399D02*
X0364815Y0169399D01*
X0364815Y0170185D02*
X0391307Y0170185D01*
X0391307Y0170971D02*
X0364815Y0170971D01*
X0364815Y0171757D02*
X0391307Y0171757D01*
X0391307Y0172543D02*
X0364815Y0172543D01*
X0364700Y0173329D02*
X0391307Y0173329D01*
X0391307Y0174115D02*
X0363914Y0174115D01*
X0363129Y0174901D02*
X0391307Y0174901D01*
X0391307Y0175687D02*
X0362343Y0175687D01*
X0361557Y0176473D02*
X0391307Y0176473D01*
X0391307Y0177259D02*
X0360859Y0177259D01*
X0360468Y0178044D02*
X0391307Y0178044D01*
X0391307Y0178830D02*
X0359483Y0178830D01*
X0357115Y0178830D02*
X0340390Y0178830D01*
X0341175Y0179616D02*
X0391307Y0179616D01*
X0391307Y0180402D02*
X0341961Y0180402D01*
X0343604Y0181188D02*
X0391307Y0181188D01*
X0391307Y0181974D02*
X0344804Y0181974D01*
X0345284Y0182760D02*
X0391307Y0182760D01*
X0391307Y0183546D02*
X0345477Y0183546D01*
X0345891Y0184332D02*
X0391307Y0184332D01*
X0391307Y0185118D02*
X0346677Y0185118D01*
X0347463Y0185904D02*
X0391307Y0185904D01*
X0391307Y0186690D02*
X0353825Y0186690D01*
X0354665Y0187475D02*
X0391307Y0187475D01*
X0391307Y0188261D02*
X0354996Y0188261D01*
X0355083Y0189047D02*
X0391307Y0189047D01*
X0391307Y0189833D02*
X0354963Y0189833D01*
X0354598Y0190619D02*
X0391307Y0190619D01*
X0391307Y0191405D02*
X0354598Y0191405D01*
X0354598Y0192191D02*
X0391307Y0192191D01*
X0391307Y0192977D02*
X0355699Y0192977D01*
X0355957Y0193763D02*
X0391307Y0193763D01*
X0391307Y0194549D02*
X0355957Y0194549D01*
X0355957Y0195335D02*
X0391307Y0195335D01*
X0391307Y0196120D02*
X0355957Y0196120D01*
X0355957Y0196906D02*
X0391307Y0196906D01*
X0391307Y0197692D02*
X0355644Y0197692D01*
X0355685Y0200050D02*
X0391307Y0200050D01*
X0391307Y0199264D02*
X0351797Y0199264D01*
X0351012Y0198478D02*
X0391307Y0198478D01*
X0391307Y0200836D02*
X0355957Y0200836D01*
X0355957Y0201622D02*
X0391307Y0201622D01*
X0391307Y0202408D02*
X0355957Y0202408D01*
X0355957Y0203194D02*
X0391307Y0203194D01*
X0391307Y0203980D02*
X0355957Y0203980D01*
X0355657Y0204766D02*
X0391307Y0204766D01*
X0391307Y0205551D02*
X0354598Y0205551D01*
X0354598Y0206337D02*
X0391307Y0206337D01*
X0391307Y0207123D02*
X0354598Y0207123D01*
X0354598Y0207909D02*
X0391307Y0207909D01*
X0391307Y0208695D02*
X0354598Y0208695D01*
X0357974Y0209481D02*
X0391307Y0209481D01*
X0391307Y0210267D02*
X0358094Y0210267D01*
X0358094Y0211053D02*
X0391307Y0211053D01*
X0391307Y0211839D02*
X0358094Y0211839D01*
X0358094Y0212625D02*
X0391307Y0212625D01*
X0391307Y0213411D02*
X0358094Y0213411D01*
X0358094Y0214196D02*
X0391307Y0214196D01*
X0391307Y0214982D02*
X0358094Y0214982D01*
X0358094Y0215768D02*
X0391307Y0215768D01*
X0391307Y0216554D02*
X0358094Y0216554D01*
X0358094Y0217340D02*
X0391307Y0217340D01*
X0391307Y0218126D02*
X0358094Y0218126D01*
X0358094Y0218912D02*
X0391307Y0218912D01*
X0391307Y0219698D02*
X0357992Y0219698D01*
X0357077Y0232327D02*
X0352787Y0232327D01*
X0352787Y0237827D01*
X0352000Y0237827D01*
X0346500Y0237827D01*
X0346500Y0233537D01*
X0346595Y0233183D01*
X0346778Y0232865D01*
X0347038Y0232605D01*
X0347356Y0232422D01*
X0347710Y0232327D01*
X0352000Y0232327D01*
X0352000Y0237827D01*
X0352000Y0238614D01*
X0346500Y0238614D01*
X0346500Y0242904D01*
X0346595Y0243258D01*
X0346778Y0243576D01*
X0347038Y0243836D01*
X0347356Y0244019D01*
X0347710Y0244114D01*
X0352000Y0244114D01*
X0352000Y0238614D01*
X0352787Y0238614D01*
X0352787Y0244114D01*
X0357077Y0244114D01*
X0357432Y0244019D01*
X0357749Y0243836D01*
X0358009Y0243576D01*
X0358192Y0243258D01*
X0358287Y0242904D01*
X0358287Y0238614D01*
X0352787Y0238614D01*
X0352787Y0237827D01*
X0358287Y0237827D01*
X0358287Y0233537D01*
X0358192Y0233183D01*
X0358009Y0232865D01*
X0357749Y0232605D01*
X0357432Y0232422D01*
X0357077Y0232327D01*
X0358121Y0233058D02*
X0370359Y0233058D01*
X0370812Y0232272D02*
X0237228Y0232272D01*
X0237228Y0231487D02*
X0371286Y0231487D01*
X0371239Y0231534D02*
X0373266Y0229506D01*
X0375749Y0228073D01*
X0378519Y0227331D01*
X0381386Y0227331D01*
X0384156Y0228073D01*
X0386639Y0229506D01*
X0388667Y0231534D01*
X0390100Y0234017D01*
X0390843Y0236787D01*
X0390843Y0239654D01*
X0390100Y0242424D01*
X0388667Y0244907D01*
X0386639Y0246934D01*
X0384156Y0248368D01*
X0381386Y0249110D01*
X0378519Y0249110D01*
X0375749Y0248368D01*
X0373266Y0246934D01*
X0371239Y0244907D01*
X0369805Y0242424D01*
X0369063Y0239654D01*
X0369063Y0236787D01*
X0369805Y0234017D01*
X0371239Y0231534D01*
X0372072Y0230701D02*
X0237228Y0230701D01*
X0237228Y0229915D02*
X0372858Y0229915D01*
X0373920Y0229129D02*
X0237228Y0229129D01*
X0237228Y0228343D02*
X0375282Y0228343D01*
X0377675Y0227557D02*
X0237228Y0227557D01*
X0237228Y0226771D02*
X0391307Y0226771D01*
X0391307Y0225985D02*
X0237507Y0225985D01*
X0238293Y0225199D02*
X0391307Y0225199D01*
X0391307Y0224413D02*
X0239079Y0224413D01*
X0239864Y0223627D02*
X0391307Y0223627D01*
X0391307Y0222842D02*
X0240650Y0222842D01*
X0241436Y0222056D02*
X0391307Y0222056D01*
X0391307Y0221270D02*
X0242222Y0221270D01*
X0243008Y0220484D02*
X0391307Y0220484D01*
X0391307Y0227557D02*
X0382231Y0227557D01*
X0384624Y0228343D02*
X0391307Y0228343D01*
X0391307Y0229129D02*
X0385985Y0229129D01*
X0387047Y0229915D02*
X0391307Y0229915D01*
X0391307Y0230701D02*
X0387833Y0230701D01*
X0388619Y0231487D02*
X0391307Y0231487D01*
X0391307Y0232272D02*
X0389093Y0232272D01*
X0389547Y0233058D02*
X0391307Y0233058D01*
X0391307Y0233844D02*
X0390001Y0233844D01*
X0390265Y0234630D02*
X0391307Y0234630D01*
X0391307Y0235416D02*
X0390475Y0235416D01*
X0390686Y0236202D02*
X0391307Y0236202D01*
X0391307Y0236988D02*
X0390843Y0236988D01*
X0390843Y0237774D02*
X0391307Y0237774D01*
X0391307Y0238560D02*
X0390843Y0238560D01*
X0390843Y0239346D02*
X0391307Y0239346D01*
X0391307Y0240132D02*
X0390715Y0240132D01*
X0390504Y0240918D02*
X0391307Y0240918D01*
X0391307Y0241703D02*
X0390293Y0241703D01*
X0390063Y0242489D02*
X0391307Y0242489D01*
X0391307Y0243275D02*
X0389609Y0243275D01*
X0389155Y0244061D02*
X0391307Y0244061D01*
X0391307Y0244847D02*
X0388701Y0244847D01*
X0387941Y0245633D02*
X0391307Y0245633D01*
X0391307Y0246419D02*
X0387155Y0246419D01*
X0386171Y0247205D02*
X0391307Y0247205D01*
X0391307Y0247991D02*
X0384810Y0247991D01*
X0382631Y0248777D02*
X0391307Y0248777D01*
X0391307Y0249563D02*
X0006394Y0249563D01*
X0006394Y0249575D02*
X0391307Y0249575D01*
X0391307Y0006394D01*
X0006394Y0006394D01*
X0006394Y0249575D01*
X0006394Y0248777D02*
X0015069Y0248777D01*
X0016314Y0249110D02*
X0013545Y0248368D01*
X0011062Y0246934D01*
X0009034Y0244907D01*
X0007600Y0242424D01*
X0006858Y0239654D01*
X0006858Y0236787D01*
X0007600Y0234017D01*
X0009034Y0231534D01*
X0011062Y0229506D01*
X0013545Y0228073D01*
X0016314Y0227331D01*
X0019182Y0227331D01*
X0021951Y0228073D01*
X0024434Y0229506D01*
X0026462Y0231534D01*
X0027896Y0234017D01*
X0028638Y0236787D01*
X0028638Y0239654D01*
X0027896Y0242424D01*
X0026462Y0244907D01*
X0024434Y0246934D01*
X0021951Y0248368D01*
X0019182Y0249110D01*
X0016314Y0249110D01*
X0012891Y0247991D02*
X0006394Y0247991D01*
X0006394Y0247205D02*
X0011530Y0247205D01*
X0010546Y0246419D02*
X0006394Y0246419D01*
X0006394Y0245633D02*
X0009760Y0245633D01*
X0009000Y0244847D02*
X0006394Y0244847D01*
X0006394Y0244061D02*
X0008546Y0244061D01*
X0008092Y0243275D02*
X0006394Y0243275D01*
X0006394Y0242489D02*
X0007638Y0242489D01*
X0007407Y0241703D02*
X0006394Y0241703D01*
X0006394Y0240918D02*
X0007197Y0240918D01*
X0006986Y0240132D02*
X0006394Y0240132D01*
X0006394Y0239346D02*
X0006858Y0239346D01*
X0006858Y0238560D02*
X0006394Y0238560D01*
X0006394Y0237774D02*
X0006858Y0237774D01*
X0006858Y0236988D02*
X0006394Y0236988D01*
X0006394Y0236202D02*
X0007015Y0236202D01*
X0007226Y0235416D02*
X0006394Y0235416D01*
X0006394Y0234630D02*
X0007436Y0234630D01*
X0007700Y0233844D02*
X0006394Y0233844D01*
X0006394Y0233058D02*
X0008154Y0233058D01*
X0008608Y0232272D02*
X0006394Y0232272D01*
X0006394Y0231487D02*
X0009081Y0231487D01*
X0009867Y0230701D02*
X0006394Y0230701D01*
X0006394Y0229915D02*
X0010653Y0229915D01*
X0011716Y0229129D02*
X0006394Y0229129D01*
X0006394Y0228343D02*
X0013077Y0228343D01*
X0015470Y0227557D02*
X0006394Y0227557D01*
X0006394Y0226771D02*
X0132157Y0226771D01*
X0132157Y0225985D02*
X0006394Y0225985D01*
X0006394Y0225199D02*
X0132157Y0225199D01*
X0132157Y0224413D02*
X0006394Y0224413D01*
X0006394Y0223627D02*
X0132157Y0223627D01*
X0132157Y0222842D02*
X0006394Y0222842D01*
X0006394Y0222056D02*
X0132157Y0222056D01*
X0132157Y0221270D02*
X0006394Y0221270D01*
X0006394Y0220484D02*
X0132157Y0220484D01*
X0132157Y0219698D02*
X0006394Y0219698D01*
X0006394Y0218912D02*
X0132157Y0218912D01*
X0132157Y0218126D02*
X0006394Y0218126D01*
X0006394Y0217340D02*
X0132348Y0217340D01*
X0132157Y0217799D02*
X0132721Y0216439D01*
X0197087Y0152073D01*
X0197087Y0146609D01*
X0197790Y0145906D01*
X0207785Y0145906D01*
X0208488Y0146609D01*
X0208488Y0156604D01*
X0207785Y0157307D01*
X0202320Y0157307D01*
X0139559Y0220068D01*
X0139559Y0234622D01*
X0139880Y0234943D01*
X0140602Y0236686D01*
X0140602Y0238574D01*
X0139880Y0240317D01*
X0138546Y0241652D01*
X0136802Y0242374D01*
X0134915Y0242374D01*
X0133171Y0241652D01*
X0131836Y0240317D01*
X0131114Y0238574D01*
X0131114Y0236686D01*
X0131836Y0234943D01*
X0132157Y0234622D01*
X0132157Y0217799D01*
X0132673Y0216554D02*
X0006394Y0216554D01*
X0006394Y0215768D02*
X0133392Y0215768D01*
X0134178Y0214982D02*
X0006394Y0214982D01*
X0006394Y0214196D02*
X0134964Y0214196D01*
X0135749Y0213411D02*
X0006394Y0213411D01*
X0006394Y0212625D02*
X0136535Y0212625D01*
X0137321Y0211839D02*
X0006394Y0211839D01*
X0006394Y0211053D02*
X0138107Y0211053D01*
X0138893Y0210267D02*
X0006394Y0210267D01*
X0006394Y0209481D02*
X0139679Y0209481D01*
X0140465Y0208695D02*
X0006394Y0208695D01*
X0006394Y0207909D02*
X0141251Y0207909D01*
X0142037Y0207123D02*
X0006394Y0207123D01*
X0006394Y0206337D02*
X0142823Y0206337D01*
X0143609Y0205551D02*
X0006394Y0205551D01*
X0006394Y0204766D02*
X0144394Y0204766D01*
X0145180Y0203980D02*
X0006394Y0203980D01*
X0006394Y0203194D02*
X0145966Y0203194D01*
X0146752Y0202408D02*
X0006394Y0202408D01*
X0006394Y0201622D02*
X0147538Y0201622D01*
X0148324Y0200836D02*
X0006394Y0200836D01*
X0006394Y0200050D02*
X0149110Y0200050D01*
X0149896Y0199264D02*
X0006394Y0199264D01*
X0006394Y0198478D02*
X0150682Y0198478D01*
X0151468Y0197692D02*
X0006394Y0197692D01*
X0006394Y0196906D02*
X0152254Y0196906D01*
X0153040Y0196120D02*
X0006394Y0196120D01*
X0006394Y0195335D02*
X0153825Y0195335D01*
X0154611Y0194549D02*
X0006394Y0194549D01*
X0006394Y0193763D02*
X0155397Y0193763D01*
X0156183Y0192977D02*
X0006394Y0192977D01*
X0006394Y0192191D02*
X0156969Y0192191D01*
X0157755Y0191405D02*
X0006394Y0191405D01*
X0006394Y0190619D02*
X0158541Y0190619D01*
X0159327Y0189833D02*
X0006394Y0189833D01*
X0006394Y0189047D02*
X0160113Y0189047D01*
X0160899Y0188261D02*
X0006394Y0188261D01*
X0006394Y0187475D02*
X0161685Y0187475D01*
X0162470Y0186690D02*
X0006394Y0186690D01*
X0006394Y0185904D02*
X0163256Y0185904D01*
X0164042Y0185118D02*
X0006394Y0185118D01*
X0006394Y0184332D02*
X0164828Y0184332D01*
X0165614Y0183546D02*
X0006394Y0183546D01*
X0006394Y0182760D02*
X0166400Y0182760D01*
X0167186Y0181974D02*
X0006394Y0181974D01*
X0006394Y0181188D02*
X0167972Y0181188D01*
X0168758Y0180402D02*
X0006394Y0180402D01*
X0006394Y0179616D02*
X0169544Y0179616D01*
X0170330Y0178830D02*
X0006394Y0178830D01*
X0006394Y0178044D02*
X0171116Y0178044D01*
X0171901Y0177259D02*
X0006394Y0177259D01*
X0006394Y0176473D02*
X0172687Y0176473D01*
X0173473Y0175687D02*
X0006394Y0175687D01*
X0006394Y0174901D02*
X0174259Y0174901D01*
X0175045Y0174115D02*
X0006394Y0174115D01*
X0006394Y0173329D02*
X0175831Y0173329D01*
X0176617Y0172543D02*
X0006394Y0172543D01*
X0006394Y0171757D02*
X0177403Y0171757D01*
X0178189Y0170971D02*
X0006394Y0170971D01*
X0006394Y0170185D02*
X0178975Y0170185D01*
X0179761Y0169399D02*
X0006394Y0169399D01*
X0006394Y0168614D02*
X0180546Y0168614D01*
X0181332Y0167828D02*
X0006394Y0167828D01*
X0006394Y0167042D02*
X0182118Y0167042D01*
X0182904Y0166256D02*
X0006394Y0166256D01*
X0006394Y0165470D02*
X0183690Y0165470D01*
X0184476Y0164684D02*
X0006394Y0164684D01*
X0006394Y0163898D02*
X0185262Y0163898D01*
X0186048Y0163112D02*
X0006394Y0163112D01*
X0006394Y0162326D02*
X0186834Y0162326D01*
X0187620Y0161540D02*
X0006394Y0161540D01*
X0006394Y0160754D02*
X0188406Y0160754D01*
X0189191Y0159968D02*
X0006394Y0159968D01*
X0006394Y0159183D02*
X0189977Y0159183D01*
X0190763Y0158397D02*
X0006394Y0158397D01*
X0006394Y0157611D02*
X0191549Y0157611D01*
X0192335Y0156825D02*
X0006394Y0156825D01*
X0006394Y0156039D02*
X0193121Y0156039D01*
X0193907Y0155253D02*
X0006394Y0155253D01*
X0006394Y0154467D02*
X0194693Y0154467D01*
X0195479Y0153681D02*
X0006394Y0153681D01*
X0006394Y0152895D02*
X0196265Y0152895D01*
X0197051Y0152109D02*
X0006394Y0152109D01*
X0006394Y0151323D02*
X0197087Y0151323D01*
X0197087Y0150538D02*
X0006394Y0150538D01*
X0006394Y0149752D02*
X0197087Y0149752D01*
X0197087Y0148966D02*
X0006394Y0148966D01*
X0006394Y0148180D02*
X0197087Y0148180D01*
X0197087Y0147394D02*
X0006394Y0147394D01*
X0006394Y0146608D02*
X0197088Y0146608D01*
X0208487Y0146608D02*
X0248043Y0146608D01*
X0248043Y0147394D02*
X0208488Y0147394D01*
X0208488Y0148180D02*
X0248043Y0148180D01*
X0248043Y0148966D02*
X0208488Y0148966D01*
X0208488Y0149752D02*
X0248043Y0149752D01*
X0248043Y0150538D02*
X0208488Y0150538D01*
X0208488Y0151323D02*
X0248043Y0151323D01*
X0248043Y0152109D02*
X0208488Y0152109D01*
X0208488Y0152895D02*
X0248441Y0152895D01*
X0256346Y0152895D02*
X0259465Y0152895D01*
X0259067Y0152109D02*
X0256744Y0152109D01*
X0256744Y0151323D02*
X0259067Y0151323D01*
X0259067Y0150538D02*
X0256744Y0150538D01*
X0256744Y0149752D02*
X0259067Y0149752D01*
X0259067Y0148966D02*
X0256744Y0148966D01*
X0256744Y0148180D02*
X0259067Y0148180D01*
X0259067Y0147394D02*
X0256744Y0147394D01*
X0256744Y0146608D02*
X0259067Y0146608D01*
X0259067Y0145822D02*
X0256744Y0145822D01*
X0256744Y0145036D02*
X0259067Y0145036D01*
X0259067Y0144250D02*
X0256744Y0144250D01*
X0256744Y0143464D02*
X0259067Y0143464D01*
X0259230Y0142678D02*
X0256581Y0142678D01*
X0255542Y0141892D02*
X0251832Y0141892D01*
X0251832Y0141107D02*
X0254756Y0141107D01*
X0254369Y0140321D02*
X0252053Y0140321D01*
X0252839Y0139535D02*
X0254167Y0139535D01*
X0254167Y0138749D02*
X0253625Y0138749D01*
X0254411Y0137963D02*
X0254416Y0137963D01*
X0250103Y0137177D02*
X0006394Y0137177D01*
X0006394Y0136391D02*
X0239064Y0136391D01*
X0238278Y0135605D02*
X0006394Y0135605D01*
X0006394Y0134819D02*
X0237557Y0134819D01*
X0238769Y0127746D02*
X0208488Y0127746D01*
X0208488Y0126960D02*
X0227230Y0126960D01*
X0226783Y0126174D02*
X0208488Y0126174D01*
X0208488Y0125388D02*
X0226783Y0125388D01*
X0226783Y0124602D02*
X0208488Y0124602D01*
X0208488Y0123816D02*
X0226783Y0123816D01*
X0226783Y0123031D02*
X0208488Y0123031D01*
X0205988Y0122245D02*
X0226908Y0122245D01*
X0228146Y0121459D02*
X0205988Y0121459D01*
X0205988Y0120673D02*
X0228146Y0120673D01*
X0228146Y0119887D02*
X0205988Y0119887D01*
X0205988Y0119101D02*
X0228146Y0119101D01*
X0228146Y0118315D02*
X0205988Y0118315D01*
X0205988Y0117529D02*
X0228146Y0117529D01*
X0228146Y0116743D02*
X0205988Y0116743D01*
X0205988Y0115957D02*
X0228146Y0115957D01*
X0228146Y0115171D02*
X0205988Y0115171D01*
X0205988Y0114386D02*
X0228146Y0114386D01*
X0228146Y0113600D02*
X0205988Y0113600D01*
X0205988Y0112814D02*
X0228146Y0112814D01*
X0228146Y0112028D02*
X0205988Y0112028D01*
X0205988Y0111242D02*
X0228146Y0111242D01*
X0228003Y0110456D02*
X0205988Y0110456D01*
X0205988Y0109670D02*
X0227470Y0109670D01*
X0227165Y0108884D02*
X0205988Y0108884D01*
X0205988Y0108098D02*
X0227165Y0108098D01*
X0227311Y0107312D02*
X0205988Y0107312D01*
X0205988Y0106526D02*
X0227637Y0106526D01*
X0228405Y0105741D02*
X0208170Y0105741D01*
X0208488Y0104955D02*
X0230579Y0104955D01*
X0231365Y0104169D02*
X0208488Y0104169D01*
X0208488Y0103383D02*
X0232151Y0103383D01*
X0232936Y0102597D02*
X0208488Y0102597D01*
X0208488Y0101811D02*
X0343959Y0101811D01*
X0344744Y0101025D02*
X0208488Y0101025D01*
X0208488Y0100239D02*
X0345530Y0100239D01*
X0346316Y0099453D02*
X0208488Y0099453D01*
X0208488Y0098667D02*
X0347102Y0098667D01*
X0343173Y0102597D02*
X0245634Y0102597D01*
X0245720Y0103383D02*
X0342387Y0103383D01*
X0347826Y0104169D02*
X0391307Y0104169D01*
X0391307Y0103383D02*
X0371213Y0103383D01*
X0371705Y0102597D02*
X0391307Y0102597D01*
X0391307Y0101811D02*
X0371705Y0101811D01*
X0371705Y0101025D02*
X0391307Y0101025D01*
X0391307Y0100239D02*
X0371705Y0100239D01*
X0371705Y0099453D02*
X0391307Y0099453D01*
X0391307Y0098667D02*
X0371625Y0098667D01*
X0368317Y0097881D02*
X0391307Y0097881D01*
X0391307Y0097095D02*
X0367531Y0097095D01*
X0366745Y0096310D02*
X0391307Y0096310D01*
X0391307Y0095524D02*
X0366031Y0095524D01*
X0366031Y0094738D02*
X0391307Y0094738D01*
X0391307Y0093952D02*
X0366031Y0093952D01*
X0366031Y0093166D02*
X0391307Y0093166D01*
X0391307Y0092380D02*
X0366031Y0092380D01*
X0366031Y0091594D02*
X0391307Y0091594D01*
X0391307Y0090808D02*
X0366031Y0090808D01*
X0366031Y0090022D02*
X0391307Y0090022D01*
X0391307Y0089236D02*
X0366031Y0089236D01*
X0366031Y0088450D02*
X0391307Y0088450D01*
X0391307Y0087665D02*
X0366409Y0087665D01*
X0366409Y0086879D02*
X0391307Y0086879D01*
X0391307Y0086093D02*
X0366409Y0086093D01*
X0366409Y0085307D02*
X0391307Y0085307D01*
X0391307Y0084521D02*
X0366409Y0084521D01*
X0366409Y0083735D02*
X0391307Y0083735D01*
X0391307Y0082949D02*
X0366409Y0082949D01*
X0366409Y0082163D02*
X0391307Y0082163D01*
X0391307Y0081377D02*
X0366409Y0081377D01*
X0366167Y0080591D02*
X0391307Y0080591D01*
X0391307Y0079805D02*
X0361031Y0079805D01*
X0361031Y0079019D02*
X0391307Y0079019D01*
X0391307Y0078234D02*
X0361031Y0078234D01*
X0361031Y0077448D02*
X0391307Y0077448D01*
X0391307Y0076662D02*
X0361031Y0076662D01*
X0361031Y0075876D02*
X0391307Y0075876D01*
X0391307Y0075090D02*
X0361031Y0075090D01*
X0361031Y0074304D02*
X0391307Y0074304D01*
X0391307Y0073518D02*
X0361031Y0073518D01*
X0361031Y0072732D02*
X0391307Y0072732D01*
X0391307Y0071946D02*
X0361031Y0071946D01*
X0361031Y0071160D02*
X0391307Y0071160D01*
X0391307Y0070374D02*
X0360888Y0070374D01*
X0360102Y0069589D02*
X0391307Y0069589D01*
X0391307Y0068803D02*
X0359317Y0068803D01*
X0358531Y0068017D02*
X0391307Y0068017D01*
X0391307Y0067231D02*
X0357745Y0067231D01*
X0356959Y0066445D02*
X0391307Y0066445D01*
X0391307Y0065659D02*
X0365818Y0065659D01*
X0366525Y0064873D02*
X0391307Y0064873D01*
X0391307Y0064087D02*
X0366602Y0064087D01*
X0366602Y0063301D02*
X0391307Y0063301D01*
X0391307Y0062515D02*
X0366602Y0062515D01*
X0366602Y0060943D02*
X0391307Y0060943D01*
X0391307Y0060158D02*
X0366602Y0060158D01*
X0366602Y0059372D02*
X0391307Y0059372D01*
X0391307Y0058586D02*
X0366602Y0058586D01*
X0366416Y0057800D02*
X0391307Y0057800D01*
X0391307Y0057014D02*
X0361031Y0057014D01*
X0361031Y0056228D02*
X0391307Y0056228D01*
X0391307Y0055442D02*
X0361031Y0055442D01*
X0361031Y0054656D02*
X0370730Y0054656D01*
X0370315Y0053870D02*
X0361031Y0053870D01*
X0361031Y0053084D02*
X0370315Y0053084D01*
X0370315Y0052298D02*
X0361031Y0052298D01*
X0361031Y0051513D02*
X0370315Y0051513D01*
X0370315Y0050727D02*
X0361031Y0050727D01*
X0361031Y0049941D02*
X0370315Y0049941D01*
X0370315Y0049155D02*
X0361031Y0049155D01*
X0361031Y0048369D02*
X0370315Y0048369D01*
X0370315Y0047583D02*
X0363233Y0047583D01*
X0356630Y0047583D02*
X0351422Y0047583D01*
X0352020Y0046797D02*
X0356630Y0046797D01*
X0356630Y0046011D02*
X0352020Y0046011D01*
X0352020Y0045225D02*
X0356705Y0045225D01*
X0356705Y0044439D02*
X0352020Y0044439D01*
X0352020Y0043653D02*
X0356705Y0043653D01*
X0356705Y0042867D02*
X0352020Y0042867D01*
X0351316Y0040602D02*
X0345597Y0040602D01*
X0344894Y0039899D01*
X0344894Y0035755D01*
X0345597Y0035051D01*
X0351316Y0035051D01*
X0351891Y0035626D01*
X0356833Y0035626D01*
X0357408Y0035051D01*
X0363127Y0035051D01*
X0363831Y0035755D01*
X0363831Y0039899D01*
X0363127Y0040602D01*
X0357408Y0040602D01*
X0356833Y0040028D01*
X0351891Y0040028D01*
X0351316Y0040602D01*
X0351409Y0040510D02*
X0357316Y0040510D01*
X0363220Y0040510D02*
X0391307Y0040510D01*
X0391307Y0041296D02*
X0330972Y0041296D01*
X0330972Y0042082D02*
X0391307Y0042082D01*
X0391307Y0042867D02*
X0372752Y0042867D01*
X0381123Y0043653D02*
X0391307Y0043653D01*
X0391307Y0044439D02*
X0381717Y0044439D01*
X0381717Y0045225D02*
X0391307Y0045225D01*
X0391307Y0046011D02*
X0381717Y0046011D01*
X0381717Y0046797D02*
X0391307Y0046797D01*
X0391307Y0047583D02*
X0381717Y0047583D01*
X0381717Y0048369D02*
X0391307Y0048369D01*
X0391307Y0049155D02*
X0381717Y0049155D01*
X0381717Y0049941D02*
X0391307Y0049941D01*
X0391307Y0050727D02*
X0381717Y0050727D01*
X0381717Y0051513D02*
X0391307Y0051513D01*
X0391307Y0052298D02*
X0381717Y0052298D01*
X0381717Y0053084D02*
X0391307Y0053084D01*
X0391307Y0053870D02*
X0381717Y0053870D01*
X0381302Y0054656D02*
X0391307Y0054656D01*
X0391307Y0061729D02*
X0364126Y0061729D01*
X0364126Y0060943D02*
X0363535Y0060943D01*
X0363535Y0060158D02*
X0364126Y0060158D01*
X0364126Y0059372D02*
X0363535Y0059372D01*
X0363535Y0058586D02*
X0364126Y0058586D01*
X0364126Y0057800D02*
X0363535Y0057800D01*
X0361245Y0057800D02*
X0361211Y0057800D01*
X0356630Y0057014D02*
X0351031Y0057014D01*
X0351031Y0056228D02*
X0356630Y0056228D01*
X0356630Y0055442D02*
X0351031Y0055442D01*
X0351290Y0054656D02*
X0356630Y0054656D01*
X0356630Y0053870D02*
X0351615Y0053870D01*
X0351639Y0053084D02*
X0356630Y0053084D01*
X0356630Y0052298D02*
X0351535Y0052298D01*
X0351210Y0051513D02*
X0356630Y0051513D01*
X0356630Y0050727D02*
X0350657Y0050727D01*
X0350657Y0049941D02*
X0356630Y0049941D01*
X0356630Y0049155D02*
X0350657Y0049155D01*
X0350657Y0048369D02*
X0356630Y0048369D01*
X0346256Y0048369D02*
X0330972Y0048369D01*
X0330972Y0049155D02*
X0346256Y0049155D01*
X0346256Y0049941D02*
X0330972Y0049941D01*
X0330972Y0050727D02*
X0346256Y0050727D01*
X0345704Y0051513D02*
X0330972Y0051513D01*
X0330972Y0052298D02*
X0345378Y0052298D01*
X0345275Y0053084D02*
X0330972Y0053084D01*
X0330972Y0053870D02*
X0345298Y0053870D01*
X0345624Y0054656D02*
X0330972Y0054656D01*
X0330972Y0055442D02*
X0346218Y0055442D01*
X0346630Y0056228D02*
X0330972Y0056228D01*
X0330972Y0057014D02*
X0346630Y0057014D01*
X0346451Y0057800D02*
X0330972Y0057800D01*
X0330972Y0058586D02*
X0346252Y0058586D01*
X0346252Y0059372D02*
X0330972Y0059372D01*
X0332024Y0060158D02*
X0346252Y0060158D01*
X0346252Y0060943D02*
X0332810Y0060943D01*
X0333596Y0061729D02*
X0346252Y0061729D01*
X0346252Y0062515D02*
X0333935Y0062515D01*
X0334034Y0067231D02*
X0339709Y0067231D01*
X0340495Y0068017D02*
X0333709Y0068017D01*
X0333048Y0068803D02*
X0341281Y0068803D01*
X0342067Y0069589D02*
X0332262Y0069589D01*
X0330721Y0070374D02*
X0342853Y0070374D01*
X0343639Y0071160D02*
X0312370Y0071160D01*
X0312305Y0071225D02*
X0311987Y0071409D01*
X0311632Y0071504D01*
X0309480Y0071504D01*
X0309480Y0068929D01*
X0308693Y0068929D01*
X0308693Y0068142D01*
X0305331Y0068142D01*
X0305331Y0066777D01*
X0305426Y0066423D01*
X0305609Y0066105D01*
X0305869Y0065845D01*
X0306186Y0065662D01*
X0306541Y0065567D01*
X0308693Y0065567D01*
X0308693Y0068142D01*
X0309480Y0068142D01*
X0309480Y0065567D01*
X0311632Y0065567D01*
X0311987Y0065662D01*
X0312305Y0065845D01*
X0312564Y0066105D01*
X0312748Y0066423D01*
X0312843Y0066777D01*
X0312843Y0068142D01*
X0309480Y0068142D01*
X0309480Y0068929D01*
X0312843Y0068929D01*
X0312843Y0070294D01*
X0312748Y0070648D01*
X0312564Y0070966D01*
X0312305Y0071225D01*
X0312821Y0070374D02*
X0326823Y0070374D01*
X0325281Y0069589D02*
X0312843Y0069589D01*
X0312843Y0068017D02*
X0323835Y0068017D01*
X0323509Y0067231D02*
X0312843Y0067231D01*
X0312753Y0066445D02*
X0323184Y0066445D01*
X0323053Y0065659D02*
X0311976Y0065659D01*
X0311946Y0064224D02*
X0312650Y0063521D01*
X0312650Y0059377D01*
X0311946Y0058673D01*
X0311287Y0058673D01*
X0311287Y0029845D01*
X0311774Y0029644D01*
X0313108Y0028309D01*
X0313831Y0026566D01*
X0313831Y0024678D01*
X0313108Y0022935D01*
X0311774Y0021600D01*
X0310030Y0020878D01*
X0308143Y0020878D01*
X0306399Y0021600D01*
X0305065Y0022935D01*
X0304343Y0024678D01*
X0304343Y0026566D01*
X0305065Y0028309D01*
X0306399Y0029644D01*
X0306886Y0029845D01*
X0306886Y0058673D01*
X0306227Y0058673D01*
X0305524Y0059377D01*
X0305524Y0063521D01*
X0306227Y0064224D01*
X0311946Y0064224D01*
X0312083Y0064087D02*
X0323053Y0064087D01*
X0323053Y0064873D02*
X0258512Y0064873D01*
X0258512Y0064598D02*
X0258512Y0066750D01*
X0258417Y0067105D01*
X0258233Y0067423D01*
X0257974Y0067682D01*
X0257656Y0067866D01*
X0257302Y0067961D01*
X0255937Y0067961D01*
X0255937Y0064598D01*
X0258512Y0064598D01*
X0258512Y0063811D02*
X0255937Y0063811D01*
X0255937Y0060449D01*
X0257302Y0060449D01*
X0257656Y0060544D01*
X0257974Y0060727D01*
X0258233Y0060987D01*
X0258417Y0061305D01*
X0258512Y0061659D01*
X0258512Y0063811D01*
X0258512Y0063301D02*
X0285839Y0063301D01*
X0285839Y0063521D02*
X0285839Y0059377D01*
X0286542Y0058673D01*
X0287201Y0058673D01*
X0287201Y0029845D01*
X0286714Y0029644D01*
X0285380Y0028309D01*
X0284657Y0026566D01*
X0284657Y0024678D01*
X0285380Y0022935D01*
X0286714Y0021600D01*
X0288458Y0020878D01*
X0290345Y0020878D01*
X0292089Y0021600D01*
X0293423Y0022935D01*
X0294146Y0024678D01*
X0294146Y0026566D01*
X0293423Y0028309D01*
X0292089Y0029644D01*
X0291602Y0029845D01*
X0291602Y0058673D01*
X0292261Y0058673D01*
X0292965Y0059377D01*
X0292965Y0063521D01*
X0292261Y0064224D01*
X0286542Y0064224D01*
X0285839Y0063521D01*
X0286405Y0064087D02*
X0255937Y0064087D01*
X0255937Y0063811D02*
X0255937Y0064598D01*
X0255150Y0064598D01*
X0255150Y0063811D01*
X0255937Y0063811D01*
X0255937Y0063301D02*
X0255150Y0063301D01*
X0255150Y0063811D02*
X0255150Y0060449D01*
X0253785Y0060449D01*
X0253431Y0060544D01*
X0253113Y0060727D01*
X0252853Y0060987D01*
X0252670Y0061305D01*
X0252575Y0061659D01*
X0252575Y0063811D01*
X0255150Y0063811D01*
X0255150Y0064087D02*
X0251232Y0064087D01*
X0251232Y0063301D02*
X0252575Y0063301D01*
X0252575Y0062515D02*
X0251232Y0062515D01*
X0251232Y0061729D02*
X0252575Y0061729D01*
X0252897Y0060943D02*
X0250831Y0060943D01*
X0250529Y0060642D02*
X0251232Y0061345D01*
X0251232Y0067064D01*
X0250529Y0067768D01*
X0246384Y0067768D01*
X0245681Y0067064D01*
X0245681Y0066405D01*
X0242571Y0066405D01*
X0242571Y0067064D01*
X0241867Y0067768D01*
X0237723Y0067768D01*
X0237020Y0067064D01*
X0237020Y0061345D01*
X0237723Y0060642D01*
X0241867Y0060642D01*
X0242571Y0061345D01*
X0242571Y0062004D01*
X0245681Y0062004D01*
X0245681Y0061345D01*
X0246384Y0060642D01*
X0250529Y0060642D01*
X0251232Y0064873D02*
X0252575Y0064873D01*
X0252575Y0064598D02*
X0255150Y0064598D01*
X0255150Y0067961D01*
X0253785Y0067961D01*
X0253431Y0067866D01*
X0253113Y0067682D01*
X0252853Y0067423D01*
X0252670Y0067105D01*
X0252575Y0066750D01*
X0252575Y0064598D01*
X0252575Y0065659D02*
X0251232Y0065659D01*
X0251232Y0066445D02*
X0252575Y0066445D01*
X0252742Y0067231D02*
X0251066Y0067231D01*
X0255150Y0067231D02*
X0255937Y0067231D01*
X0255937Y0066445D02*
X0255150Y0066445D01*
X0255150Y0065659D02*
X0255937Y0065659D01*
X0255937Y0064873D02*
X0255150Y0064873D01*
X0255150Y0062515D02*
X0255937Y0062515D01*
X0255937Y0061729D02*
X0255150Y0061729D01*
X0255150Y0060943D02*
X0255937Y0060943D01*
X0258190Y0060943D02*
X0285839Y0060943D01*
X0285839Y0060158D02*
X0006394Y0060158D01*
X0006394Y0060943D02*
X0230335Y0060943D01*
X0230636Y0060642D02*
X0234781Y0060642D01*
X0235484Y0061345D01*
X0235484Y0067064D01*
X0234781Y0067768D01*
X0230636Y0067768D01*
X0229933Y0067064D01*
X0229933Y0065905D01*
X0226683Y0065905D01*
X0226020Y0066568D01*
X0224996Y0066993D01*
X0223886Y0066993D01*
X0222862Y0066568D01*
X0222077Y0065784D01*
X0221653Y0064759D01*
X0221653Y0063650D01*
X0222077Y0062625D01*
X0222862Y0061841D01*
X0223886Y0061417D01*
X0224996Y0061417D01*
X0226020Y0061841D01*
X0226683Y0062504D01*
X0229933Y0062504D01*
X0229933Y0061345D01*
X0230636Y0060642D01*
X0229933Y0061729D02*
X0225751Y0061729D01*
X0223131Y0061729D02*
X0006394Y0061729D01*
X0006394Y0062515D02*
X0222187Y0062515D01*
X0221797Y0063301D02*
X0006394Y0063301D01*
X0006394Y0064087D02*
X0221653Y0064087D01*
X0221700Y0064873D02*
X0006394Y0064873D01*
X0006394Y0065659D02*
X0222025Y0065659D01*
X0222738Y0066445D02*
X0006394Y0066445D01*
X0006394Y0067231D02*
X0230100Y0067231D01*
X0229933Y0066445D02*
X0226144Y0066445D01*
X0235318Y0067231D02*
X0237186Y0067231D01*
X0237020Y0066445D02*
X0235484Y0066445D01*
X0235484Y0065659D02*
X0237020Y0065659D01*
X0237020Y0064873D02*
X0235484Y0064873D01*
X0235484Y0064087D02*
X0237020Y0064087D01*
X0237020Y0063301D02*
X0235484Y0063301D01*
X0235484Y0062515D02*
X0237020Y0062515D01*
X0237020Y0061729D02*
X0235484Y0061729D01*
X0235083Y0060943D02*
X0237421Y0060943D01*
X0242169Y0060943D02*
X0246083Y0060943D01*
X0245681Y0061729D02*
X0242571Y0061729D01*
X0242571Y0066445D02*
X0245681Y0066445D01*
X0245848Y0067231D02*
X0242404Y0067231D01*
X0258344Y0067231D02*
X0285839Y0067231D01*
X0285839Y0066463D02*
X0286542Y0065760D01*
X0292261Y0065760D01*
X0292965Y0066463D01*
X0292965Y0070608D01*
X0292261Y0071311D01*
X0291602Y0071311D01*
X0291602Y0079399D01*
X0292641Y0079829D01*
X0294249Y0081438D01*
X0295120Y0083540D01*
X0295120Y0085815D01*
X0294249Y0087916D01*
X0292641Y0089525D01*
X0290539Y0090396D01*
X0288264Y0090396D01*
X0286162Y0089525D01*
X0284554Y0087916D01*
X0283683Y0085815D01*
X0283683Y0083540D01*
X0284554Y0081438D01*
X0286162Y0079829D01*
X0287201Y0079399D01*
X0287201Y0071311D01*
X0286542Y0071311D01*
X0285839Y0070608D01*
X0285839Y0066463D01*
X0285857Y0066445D02*
X0258512Y0066445D01*
X0258512Y0065659D02*
X0306198Y0065659D01*
X0305420Y0066445D02*
X0292946Y0066445D01*
X0292965Y0067231D02*
X0305331Y0067231D01*
X0305331Y0068017D02*
X0292965Y0068017D01*
X0292965Y0068803D02*
X0308693Y0068803D01*
X0308693Y0068929D02*
X0305331Y0068929D01*
X0305331Y0070294D01*
X0305426Y0070648D01*
X0305609Y0070966D01*
X0305869Y0071225D01*
X0306186Y0071409D01*
X0306541Y0071504D01*
X0308693Y0071504D01*
X0308693Y0068929D01*
X0308693Y0069589D02*
X0309480Y0069589D01*
X0309480Y0070374D02*
X0308693Y0070374D01*
X0308693Y0071160D02*
X0309480Y0071160D01*
X0309480Y0068803D02*
X0324495Y0068803D01*
X0323282Y0063301D02*
X0312650Y0063301D01*
X0312650Y0062515D02*
X0323608Y0062515D01*
X0323947Y0061729D02*
X0312650Y0061729D01*
X0312650Y0060943D02*
X0324733Y0060943D01*
X0325519Y0060158D02*
X0312650Y0060158D01*
X0312645Y0059372D02*
X0326571Y0059372D01*
X0326571Y0058586D02*
X0311287Y0058586D01*
X0311287Y0057800D02*
X0326571Y0057800D01*
X0326571Y0057014D02*
X0311287Y0057014D01*
X0311287Y0056228D02*
X0326571Y0056228D01*
X0326571Y0055442D02*
X0311287Y0055442D01*
X0311287Y0054656D02*
X0326571Y0054656D01*
X0326571Y0053870D02*
X0311287Y0053870D01*
X0311287Y0053084D02*
X0326571Y0053084D01*
X0326571Y0052298D02*
X0311287Y0052298D01*
X0311287Y0051513D02*
X0326571Y0051513D01*
X0326571Y0050727D02*
X0311287Y0050727D01*
X0311287Y0049941D02*
X0326571Y0049941D01*
X0326571Y0049155D02*
X0311287Y0049155D01*
X0311287Y0048369D02*
X0326571Y0048369D01*
X0326571Y0047583D02*
X0311287Y0047583D01*
X0311287Y0046797D02*
X0326571Y0046797D01*
X0326571Y0046011D02*
X0311287Y0046011D01*
X0311287Y0045225D02*
X0326571Y0045225D01*
X0326571Y0044439D02*
X0311287Y0044439D01*
X0311287Y0043653D02*
X0326571Y0043653D01*
X0326571Y0042867D02*
X0311287Y0042867D01*
X0311287Y0042082D02*
X0326571Y0042082D01*
X0326571Y0041296D02*
X0311287Y0041296D01*
X0311287Y0040510D02*
X0326571Y0040510D01*
X0326571Y0039724D02*
X0311287Y0039724D01*
X0311287Y0038938D02*
X0326571Y0038938D01*
X0326571Y0038152D02*
X0311287Y0038152D01*
X0311287Y0037366D02*
X0326571Y0037366D01*
X0326571Y0036580D02*
X0311287Y0036580D01*
X0311287Y0035794D02*
X0326571Y0035794D01*
X0326571Y0035008D02*
X0311287Y0035008D01*
X0311287Y0034222D02*
X0326571Y0034222D01*
X0326571Y0033437D02*
X0311287Y0033437D01*
X0311287Y0032651D02*
X0326571Y0032651D01*
X0326571Y0031865D02*
X0311287Y0031865D01*
X0311287Y0031079D02*
X0326571Y0031079D01*
X0326571Y0030293D02*
X0311287Y0030293D01*
X0311911Y0029507D02*
X0325947Y0029507D01*
X0325161Y0028721D02*
X0312697Y0028721D01*
X0313263Y0027935D02*
X0324595Y0027935D01*
X0324269Y0027149D02*
X0313589Y0027149D01*
X0313831Y0026363D02*
X0324028Y0026363D01*
X0324028Y0025577D02*
X0313831Y0025577D01*
X0313831Y0024791D02*
X0324028Y0024791D01*
X0324306Y0024006D02*
X0313552Y0024006D01*
X0313226Y0023220D02*
X0324632Y0023220D01*
X0325251Y0022434D02*
X0312607Y0022434D01*
X0311822Y0021648D02*
X0326037Y0021648D01*
X0331507Y0021648D02*
X0369724Y0021648D01*
X0369805Y0021951D02*
X0369063Y0019182D01*
X0369063Y0016314D01*
X0369805Y0013545D01*
X0371239Y0011062D01*
X0373266Y0009034D01*
X0375749Y0007600D01*
X0378519Y0006858D01*
X0381386Y0006858D01*
X0384156Y0007600D01*
X0386639Y0009034D01*
X0388667Y0011062D01*
X0390100Y0013545D01*
X0390843Y0016314D01*
X0390843Y0019182D01*
X0390100Y0021951D01*
X0388667Y0024434D01*
X0386639Y0026462D01*
X0384156Y0027896D01*
X0381386Y0028638D01*
X0378519Y0028638D01*
X0375749Y0027896D01*
X0373266Y0026462D01*
X0371239Y0024434D01*
X0369805Y0021951D01*
X0370084Y0022434D02*
X0332292Y0022434D01*
X0332912Y0023220D02*
X0370537Y0023220D01*
X0370991Y0024006D02*
X0333237Y0024006D01*
X0333516Y0024791D02*
X0371596Y0024791D01*
X0372382Y0025577D02*
X0333516Y0025577D01*
X0333516Y0026363D02*
X0373168Y0026363D01*
X0374457Y0027149D02*
X0333274Y0027149D01*
X0332949Y0027935D02*
X0375897Y0027935D01*
X0384009Y0027935D02*
X0391307Y0027935D01*
X0391307Y0027149D02*
X0385449Y0027149D01*
X0386738Y0026363D02*
X0391307Y0026363D01*
X0391307Y0025577D02*
X0387524Y0025577D01*
X0388310Y0024791D02*
X0391307Y0024791D01*
X0391307Y0024006D02*
X0388914Y0024006D01*
X0389368Y0023220D02*
X0391307Y0023220D01*
X0391307Y0022434D02*
X0389822Y0022434D01*
X0390182Y0021648D02*
X0391307Y0021648D01*
X0391307Y0020862D02*
X0390392Y0020862D01*
X0390603Y0020076D02*
X0391307Y0020076D01*
X0391307Y0019290D02*
X0390813Y0019290D01*
X0390843Y0018504D02*
X0391307Y0018504D01*
X0391307Y0017718D02*
X0390843Y0017718D01*
X0390843Y0016932D02*
X0391307Y0016932D01*
X0391307Y0016146D02*
X0390798Y0016146D01*
X0390587Y0015361D02*
X0391307Y0015361D01*
X0391307Y0014575D02*
X0390376Y0014575D01*
X0390166Y0013789D02*
X0391307Y0013789D01*
X0391307Y0013003D02*
X0389787Y0013003D01*
X0389334Y0012217D02*
X0391307Y0012217D01*
X0391307Y0011431D02*
X0388880Y0011431D01*
X0388250Y0010645D02*
X0391307Y0010645D01*
X0391307Y0009859D02*
X0387464Y0009859D01*
X0386678Y0009073D02*
X0391307Y0009073D01*
X0391307Y0008287D02*
X0385346Y0008287D01*
X0383787Y0007501D02*
X0391307Y0007501D01*
X0391307Y0006715D02*
X0006394Y0006715D01*
X0006394Y0007501D02*
X0013914Y0007501D01*
X0013545Y0007600D02*
X0016314Y0006858D01*
X0019182Y0006858D01*
X0021951Y0007600D01*
X0024434Y0009034D01*
X0026462Y0011062D01*
X0027896Y0013545D01*
X0028638Y0016314D01*
X0028638Y0019182D01*
X0027896Y0021951D01*
X0026462Y0024434D01*
X0024434Y0026462D01*
X0021951Y0027896D01*
X0019182Y0028638D01*
X0016314Y0028638D01*
X0013545Y0027896D01*
X0011062Y0026462D01*
X0009034Y0024434D01*
X0007600Y0021951D01*
X0006858Y0019182D01*
X0006858Y0016314D01*
X0007600Y0013545D01*
X0009034Y0011062D01*
X0011062Y0009034D01*
X0013545Y0007600D01*
X0012355Y0008287D02*
X0006394Y0008287D01*
X0006394Y0009073D02*
X0011022Y0009073D01*
X0010236Y0009859D02*
X0006394Y0009859D01*
X0006394Y0010645D02*
X0009451Y0010645D01*
X0008821Y0011431D02*
X0006394Y0011431D01*
X0006394Y0012217D02*
X0008367Y0012217D01*
X0007913Y0013003D02*
X0006394Y0013003D01*
X0006394Y0013789D02*
X0007535Y0013789D01*
X0007324Y0014575D02*
X0006394Y0014575D01*
X0006394Y0015361D02*
X0007114Y0015361D01*
X0006903Y0016146D02*
X0006394Y0016146D01*
X0006394Y0016932D02*
X0006858Y0016932D01*
X0006858Y0017718D02*
X0006394Y0017718D01*
X0006394Y0018504D02*
X0006858Y0018504D01*
X0006887Y0019290D02*
X0006394Y0019290D01*
X0006394Y0020076D02*
X0007098Y0020076D01*
X0007308Y0020862D02*
X0006394Y0020862D01*
X0006394Y0021648D02*
X0007519Y0021648D01*
X0007879Y0022434D02*
X0006394Y0022434D01*
X0006394Y0023220D02*
X0008333Y0023220D01*
X0008786Y0024006D02*
X0006394Y0024006D01*
X0006394Y0024791D02*
X0009391Y0024791D01*
X0010177Y0025577D02*
X0006394Y0025577D01*
X0006394Y0026363D02*
X0010963Y0026363D01*
X0012252Y0027149D02*
X0006394Y0027149D01*
X0006394Y0027935D02*
X0013692Y0027935D01*
X0006394Y0028721D02*
X0285791Y0028721D01*
X0285225Y0027935D02*
X0021804Y0027935D01*
X0023244Y0027149D02*
X0284899Y0027149D01*
X0284657Y0026363D02*
X0024533Y0026363D01*
X0025319Y0025577D02*
X0284657Y0025577D01*
X0284657Y0024791D02*
X0026105Y0024791D01*
X0026710Y0024006D02*
X0284936Y0024006D01*
X0285262Y0023220D02*
X0027163Y0023220D01*
X0027617Y0022434D02*
X0062482Y0022434D01*
X0062305Y0022360D02*
X0060970Y0021026D01*
X0060248Y0019282D01*
X0060248Y0017395D01*
X0060970Y0015651D01*
X0062305Y0014317D01*
X0064048Y0013594D01*
X0065936Y0013594D01*
X0067679Y0014317D01*
X0068000Y0014638D01*
X0132850Y0014638D01*
X0133171Y0014317D01*
X0134915Y0013594D01*
X0136802Y0013594D01*
X0138546Y0014317D01*
X0139880Y0015651D01*
X0140602Y0017395D01*
X0140602Y0019282D01*
X0139880Y0021026D01*
X0138546Y0022360D01*
X0136802Y0023083D01*
X0134915Y0023083D01*
X0133171Y0022360D01*
X0132850Y0022039D01*
X0068000Y0022039D01*
X0067679Y0022360D01*
X0065936Y0023083D01*
X0064048Y0023083D01*
X0062305Y0022360D01*
X0061592Y0021648D02*
X0027977Y0021648D01*
X0028188Y0020862D02*
X0060902Y0020862D01*
X0060577Y0020076D02*
X0028398Y0020076D01*
X0028609Y0019290D02*
X0060251Y0019290D01*
X0060248Y0018504D02*
X0028638Y0018504D01*
X0028638Y0017718D02*
X0060248Y0017718D01*
X0060440Y0016932D02*
X0028638Y0016932D01*
X0028593Y0016146D02*
X0060765Y0016146D01*
X0061261Y0015361D02*
X0028382Y0015361D01*
X0028172Y0014575D02*
X0062047Y0014575D01*
X0063580Y0013789D02*
X0027961Y0013789D01*
X0027583Y0013003D02*
X0370118Y0013003D01*
X0369740Y0013789D02*
X0137271Y0013789D01*
X0138803Y0014575D02*
X0369529Y0014575D01*
X0369319Y0015361D02*
X0139589Y0015361D01*
X0140085Y0016146D02*
X0369108Y0016146D01*
X0369063Y0016932D02*
X0140411Y0016932D01*
X0140602Y0017718D02*
X0369063Y0017718D01*
X0369063Y0018504D02*
X0140602Y0018504D01*
X0140599Y0019290D02*
X0369092Y0019290D01*
X0369303Y0020076D02*
X0140274Y0020076D01*
X0139948Y0020862D02*
X0369513Y0020862D01*
X0370572Y0012217D02*
X0027129Y0012217D01*
X0026675Y0011431D02*
X0371025Y0011431D01*
X0371655Y0010645D02*
X0026045Y0010645D01*
X0025260Y0009859D02*
X0372441Y0009859D01*
X0373227Y0009073D02*
X0024474Y0009073D01*
X0023141Y0008287D02*
X0374560Y0008287D01*
X0376119Y0007501D02*
X0021582Y0007501D01*
X0006394Y0029507D02*
X0188992Y0029507D01*
X0189129Y0029370D02*
X0199123Y0029370D01*
X0199827Y0030073D01*
X0199827Y0040068D01*
X0199123Y0040772D01*
X0189129Y0040772D01*
X0188425Y0040068D01*
X0188425Y0030073D01*
X0189129Y0029370D01*
X0188425Y0030293D02*
X0006394Y0030293D01*
X0006394Y0031079D02*
X0188425Y0031079D01*
X0188425Y0031865D02*
X0006394Y0031865D01*
X0006394Y0032651D02*
X0188425Y0032651D01*
X0188425Y0033437D02*
X0006394Y0033437D01*
X0006394Y0034222D02*
X0188425Y0034222D01*
X0188425Y0035008D02*
X0006394Y0035008D01*
X0006394Y0035794D02*
X0188425Y0035794D01*
X0188425Y0036580D02*
X0006394Y0036580D01*
X0006394Y0037366D02*
X0188425Y0037366D01*
X0188425Y0038152D02*
X0006394Y0038152D01*
X0006394Y0038938D02*
X0188425Y0038938D01*
X0188425Y0039724D02*
X0006394Y0039724D01*
X0006394Y0040510D02*
X0188867Y0040510D01*
X0199385Y0040510D02*
X0230851Y0040510D01*
X0230847Y0040503D02*
X0230752Y0040148D01*
X0230752Y0035858D01*
X0236252Y0035858D01*
X0236252Y0035071D01*
X0230752Y0035071D01*
X0230752Y0030781D01*
X0230847Y0030427D01*
X0231030Y0030109D01*
X0231290Y0029849D01*
X0231608Y0029666D01*
X0231962Y0029571D01*
X0236252Y0029571D01*
X0236252Y0035071D01*
X0237039Y0035071D01*
X0237039Y0029571D01*
X0241329Y0029571D01*
X0241684Y0029666D01*
X0242001Y0029849D01*
X0242261Y0030109D01*
X0242444Y0030427D01*
X0242539Y0030781D01*
X0242539Y0035071D01*
X0237039Y0035071D01*
X0237039Y0035858D01*
X0236252Y0035858D01*
X0236252Y0041358D01*
X0231962Y0041358D01*
X0231608Y0041263D01*
X0231290Y0041080D01*
X0231030Y0040820D01*
X0230847Y0040503D01*
X0230752Y0039724D02*
X0199827Y0039724D01*
X0199827Y0038938D02*
X0230752Y0038938D01*
X0230752Y0038152D02*
X0199827Y0038152D01*
X0199827Y0037366D02*
X0230752Y0037366D01*
X0230752Y0036580D02*
X0199827Y0036580D01*
X0199827Y0035794D02*
X0236252Y0035794D01*
X0236252Y0035008D02*
X0237039Y0035008D01*
X0237039Y0034222D02*
X0236252Y0034222D01*
X0236252Y0033437D02*
X0237039Y0033437D01*
X0237039Y0032651D02*
X0236252Y0032651D01*
X0236252Y0031865D02*
X0237039Y0031865D01*
X0237039Y0031079D02*
X0236252Y0031079D01*
X0236252Y0030293D02*
X0237039Y0030293D01*
X0242367Y0030293D02*
X0287201Y0030293D01*
X0287201Y0031079D02*
X0242539Y0031079D01*
X0242539Y0031865D02*
X0287201Y0031865D01*
X0287201Y0032651D02*
X0242539Y0032651D01*
X0242539Y0033437D02*
X0287201Y0033437D01*
X0287201Y0034222D02*
X0242539Y0034222D01*
X0242539Y0035008D02*
X0287201Y0035008D01*
X0287201Y0035794D02*
X0237039Y0035794D01*
X0237039Y0035858D02*
X0242539Y0035858D01*
X0242539Y0040148D01*
X0242444Y0040503D01*
X0242261Y0040820D01*
X0242001Y0041080D01*
X0241684Y0041263D01*
X0241329Y0041358D01*
X0237039Y0041358D01*
X0237039Y0035858D01*
X0237039Y0036580D02*
X0236252Y0036580D01*
X0236252Y0037366D02*
X0237039Y0037366D01*
X0237039Y0038152D02*
X0236252Y0038152D01*
X0236252Y0038938D02*
X0237039Y0038938D01*
X0237039Y0039724D02*
X0236252Y0039724D01*
X0236252Y0040510D02*
X0237039Y0040510D01*
X0237039Y0041296D02*
X0236252Y0041296D01*
X0231729Y0041296D02*
X0006394Y0041296D01*
X0006394Y0042082D02*
X0287201Y0042082D01*
X0287201Y0042867D02*
X0006394Y0042867D01*
X0006394Y0043653D02*
X0287201Y0043653D01*
X0287201Y0044439D02*
X0006394Y0044439D01*
X0006394Y0045225D02*
X0287201Y0045225D01*
X0287201Y0046011D02*
X0006394Y0046011D01*
X0006394Y0046797D02*
X0287201Y0046797D01*
X0287201Y0047583D02*
X0006394Y0047583D01*
X0006394Y0048369D02*
X0287201Y0048369D01*
X0287201Y0049155D02*
X0006394Y0049155D01*
X0006394Y0049941D02*
X0287201Y0049941D01*
X0287201Y0050727D02*
X0006394Y0050727D01*
X0006394Y0051513D02*
X0287201Y0051513D01*
X0287201Y0052298D02*
X0006394Y0052298D01*
X0006394Y0053084D02*
X0287201Y0053084D01*
X0287201Y0053870D02*
X0006394Y0053870D01*
X0006394Y0054656D02*
X0287201Y0054656D01*
X0287201Y0055442D02*
X0006394Y0055442D01*
X0006394Y0056228D02*
X0287201Y0056228D01*
X0287201Y0057014D02*
X0006394Y0057014D01*
X0006394Y0057800D02*
X0287201Y0057800D01*
X0287201Y0058586D02*
X0006394Y0058586D01*
X0006394Y0059372D02*
X0285844Y0059372D01*
X0285839Y0061729D02*
X0258512Y0061729D01*
X0258512Y0062515D02*
X0285839Y0062515D01*
X0285839Y0068017D02*
X0006394Y0068017D01*
X0006394Y0068803D02*
X0285839Y0068803D01*
X0285839Y0069589D02*
X0006394Y0069589D01*
X0006394Y0070374D02*
X0285839Y0070374D01*
X0286391Y0071160D02*
X0207843Y0071160D01*
X0207785Y0071102D02*
X0208488Y0071806D01*
X0208488Y0081801D01*
X0207785Y0082504D01*
X0197790Y0082504D01*
X0197087Y0081801D01*
X0197087Y0071806D01*
X0197790Y0071102D01*
X0207785Y0071102D01*
X0208488Y0071946D02*
X0287201Y0071946D01*
X0287201Y0072732D02*
X0208488Y0072732D01*
X0208488Y0073518D02*
X0287201Y0073518D01*
X0287201Y0074304D02*
X0208488Y0074304D01*
X0208488Y0075090D02*
X0287201Y0075090D01*
X0287201Y0075876D02*
X0208488Y0075876D01*
X0208488Y0076662D02*
X0287201Y0076662D01*
X0287201Y0077448D02*
X0208488Y0077448D01*
X0208488Y0078234D02*
X0287201Y0078234D01*
X0287201Y0079019D02*
X0208488Y0079019D01*
X0208488Y0079805D02*
X0286220Y0079805D01*
X0285400Y0080591D02*
X0208488Y0080591D01*
X0208488Y0081377D02*
X0284614Y0081377D01*
X0284253Y0082163D02*
X0208126Y0082163D01*
X0197449Y0082163D02*
X0006394Y0082163D01*
X0006394Y0081377D02*
X0197087Y0081377D01*
X0197087Y0080591D02*
X0006394Y0080591D01*
X0006394Y0079805D02*
X0197087Y0079805D01*
X0197087Y0079019D02*
X0006394Y0079019D01*
X0006394Y0078234D02*
X0197087Y0078234D01*
X0197087Y0077448D02*
X0006394Y0077448D01*
X0006394Y0076662D02*
X0197087Y0076662D01*
X0197087Y0075876D02*
X0006394Y0075876D01*
X0006394Y0075090D02*
X0197087Y0075090D01*
X0197087Y0074304D02*
X0006394Y0074304D01*
X0006394Y0073518D02*
X0197087Y0073518D01*
X0197087Y0072732D02*
X0006394Y0072732D01*
X0006394Y0071946D02*
X0197087Y0071946D01*
X0197732Y0071160D02*
X0006394Y0071160D01*
X0006394Y0082949D02*
X0283928Y0082949D01*
X0283683Y0083735D02*
X0006394Y0083735D01*
X0006394Y0084521D02*
X0283683Y0084521D01*
X0283683Y0085307D02*
X0006394Y0085307D01*
X0006394Y0086093D02*
X0283798Y0086093D01*
X0284124Y0086879D02*
X0006394Y0086879D01*
X0006394Y0087665D02*
X0284449Y0087665D01*
X0285088Y0088450D02*
X0006394Y0088450D01*
X0006394Y0089236D02*
X0285874Y0089236D01*
X0287363Y0090022D02*
X0006394Y0090022D01*
X0006394Y0090808D02*
X0356630Y0090808D01*
X0356630Y0090022D02*
X0291441Y0090022D01*
X0292930Y0089236D02*
X0356630Y0089236D01*
X0356630Y0088450D02*
X0350893Y0088450D01*
X0349126Y0088450D02*
X0348535Y0088450D01*
X0348535Y0088630D02*
X0347269Y0088630D01*
X0346915Y0088535D01*
X0346597Y0088351D01*
X0346338Y0088092D01*
X0346154Y0087774D01*
X0346059Y0087420D01*
X0346059Y0084579D01*
X0348535Y0084579D01*
X0348535Y0088630D01*
X0348535Y0087665D02*
X0349126Y0087665D01*
X0349126Y0086879D02*
X0348535Y0086879D01*
X0348535Y0086093D02*
X0349126Y0086093D01*
X0349126Y0085307D02*
X0348535Y0085307D01*
X0348535Y0084521D02*
X0295120Y0084521D01*
X0295120Y0085307D02*
X0346059Y0085307D01*
X0346059Y0086093D02*
X0295005Y0086093D01*
X0294679Y0086879D02*
X0346059Y0086879D01*
X0346125Y0087665D02*
X0294354Y0087665D01*
X0293715Y0088450D02*
X0346768Y0088450D01*
X0346059Y0083735D02*
X0295120Y0083735D01*
X0294875Y0082949D02*
X0346059Y0082949D01*
X0346059Y0082163D02*
X0294550Y0082163D01*
X0294189Y0081377D02*
X0346059Y0081377D01*
X0346270Y0080591D02*
X0293403Y0080591D01*
X0292583Y0079805D02*
X0351630Y0079805D01*
X0351498Y0079019D02*
X0291602Y0079019D01*
X0291602Y0078234D02*
X0350712Y0078234D01*
X0349926Y0077448D02*
X0291602Y0077448D01*
X0291602Y0076662D02*
X0349140Y0076662D01*
X0348354Y0075876D02*
X0291602Y0075876D01*
X0291602Y0075090D02*
X0347568Y0075090D01*
X0346782Y0074304D02*
X0291602Y0074304D01*
X0291602Y0073518D02*
X0345996Y0073518D01*
X0345210Y0072732D02*
X0291602Y0072732D01*
X0291602Y0071946D02*
X0344424Y0071946D01*
X0347506Y0068803D02*
X0353092Y0068803D01*
X0353878Y0069589D02*
X0348291Y0069589D01*
X0349077Y0070374D02*
X0354664Y0070374D01*
X0355450Y0071160D02*
X0349863Y0071160D01*
X0350649Y0071946D02*
X0356235Y0071946D01*
X0356630Y0072732D02*
X0351435Y0072732D01*
X0352221Y0073518D02*
X0356630Y0073518D01*
X0356630Y0074304D02*
X0353007Y0074304D01*
X0353793Y0075090D02*
X0356630Y0075090D01*
X0356630Y0075876D02*
X0354579Y0075876D01*
X0355365Y0076662D02*
X0356630Y0076662D01*
X0356630Y0077448D02*
X0356031Y0077448D01*
X0356031Y0078234D02*
X0356630Y0078234D01*
X0356630Y0079019D02*
X0356031Y0079019D01*
X0356031Y0079805D02*
X0356630Y0079805D01*
X0356494Y0080591D02*
X0356167Y0080591D01*
X0351494Y0080591D02*
X0351391Y0080591D01*
X0349126Y0080591D02*
X0348535Y0080591D01*
X0348535Y0081377D02*
X0349126Y0081377D01*
X0349126Y0082163D02*
X0348535Y0082163D01*
X0348535Y0082949D02*
X0349126Y0082949D01*
X0349126Y0083735D02*
X0348535Y0083735D01*
X0356630Y0091594D02*
X0006394Y0091594D01*
X0006394Y0092380D02*
X0356630Y0092380D01*
X0356630Y0093166D02*
X0006394Y0093166D01*
X0006394Y0093952D02*
X0356630Y0093952D01*
X0356630Y0094738D02*
X0207798Y0094738D01*
X0208488Y0095524D02*
X0356630Y0095524D01*
X0356630Y0096310D02*
X0208488Y0096310D01*
X0208488Y0097095D02*
X0356630Y0097095D01*
X0356156Y0097881D02*
X0208488Y0097881D01*
X0197777Y0094738D02*
X0006394Y0094738D01*
X0006394Y0095524D02*
X0197087Y0095524D01*
X0197087Y0096310D02*
X0006394Y0096310D01*
X0006394Y0097095D02*
X0197087Y0097095D01*
X0197087Y0097881D02*
X0006394Y0097881D01*
X0006394Y0098667D02*
X0197087Y0098667D01*
X0197087Y0099453D02*
X0006394Y0099453D01*
X0006394Y0100239D02*
X0197087Y0100239D01*
X0197087Y0101025D02*
X0006394Y0101025D01*
X0006394Y0101811D02*
X0197087Y0101811D01*
X0197087Y0102597D02*
X0006394Y0102597D01*
X0006394Y0103383D02*
X0197087Y0103383D01*
X0197087Y0104169D02*
X0006394Y0104169D01*
X0006394Y0104955D02*
X0197087Y0104955D01*
X0197405Y0105741D02*
X0006394Y0105741D01*
X0006394Y0106526D02*
X0199587Y0106526D01*
X0199587Y0107312D02*
X0006394Y0107312D01*
X0006394Y0108098D02*
X0199587Y0108098D01*
X0199587Y0108884D02*
X0006394Y0108884D01*
X0006394Y0109670D02*
X0199587Y0109670D01*
X0199587Y0110456D02*
X0006394Y0110456D01*
X0006394Y0111242D02*
X0199587Y0111242D01*
X0199587Y0112028D02*
X0006394Y0112028D01*
X0006394Y0112814D02*
X0199587Y0112814D01*
X0199587Y0113600D02*
X0006394Y0113600D01*
X0006394Y0114386D02*
X0199587Y0114386D01*
X0199587Y0115171D02*
X0006394Y0115171D01*
X0006394Y0115957D02*
X0199587Y0115957D01*
X0199587Y0116743D02*
X0006394Y0116743D01*
X0006394Y0117529D02*
X0199587Y0117529D01*
X0199587Y0118315D02*
X0006394Y0118315D01*
X0006394Y0119101D02*
X0199587Y0119101D01*
X0199587Y0119887D02*
X0006394Y0119887D01*
X0006394Y0120673D02*
X0199587Y0120673D01*
X0199587Y0121459D02*
X0006394Y0121459D01*
X0006394Y0122245D02*
X0199587Y0122245D01*
X0197087Y0123031D02*
X0006394Y0123031D01*
X0006394Y0123816D02*
X0197087Y0123816D01*
X0197087Y0124602D02*
X0006394Y0124602D01*
X0006394Y0125388D02*
X0197087Y0125388D01*
X0197087Y0126174D02*
X0006394Y0126174D01*
X0006394Y0126960D02*
X0197087Y0126960D01*
X0197087Y0127746D02*
X0006394Y0127746D01*
X0006394Y0128532D02*
X0197087Y0128532D01*
X0197087Y0129318D02*
X0006394Y0129318D01*
X0006394Y0130104D02*
X0197087Y0130104D01*
X0197087Y0130890D02*
X0006394Y0130890D01*
X0006394Y0131676D02*
X0197087Y0131676D01*
X0197087Y0132462D02*
X0006394Y0132462D01*
X0006394Y0133247D02*
X0197352Y0133247D01*
X0205561Y0134033D02*
X0006394Y0134033D01*
X0006394Y0137963D02*
X0249317Y0137963D01*
X0248531Y0138749D02*
X0006394Y0138749D01*
X0006394Y0139535D02*
X0248231Y0139535D01*
X0248231Y0140321D02*
X0006394Y0140321D01*
X0006394Y0141107D02*
X0248231Y0141107D01*
X0248231Y0141892D02*
X0006394Y0141892D01*
X0006394Y0142678D02*
X0248206Y0142678D01*
X0248043Y0143464D02*
X0006394Y0143464D01*
X0006394Y0144250D02*
X0248043Y0144250D01*
X0248043Y0145036D02*
X0006394Y0145036D01*
X0006394Y0145822D02*
X0248043Y0145822D01*
X0259155Y0141892D02*
X0262968Y0141892D01*
X0262182Y0141107D02*
X0259941Y0141107D01*
X0260328Y0140321D02*
X0261396Y0140321D01*
X0260610Y0139535D02*
X0260530Y0139535D01*
X0267768Y0146608D02*
X0307394Y0146608D01*
X0307394Y0147394D02*
X0267768Y0147394D01*
X0267768Y0148180D02*
X0307394Y0148180D01*
X0307394Y0148966D02*
X0267768Y0148966D01*
X0267768Y0149752D02*
X0307394Y0149752D01*
X0307394Y0150538D02*
X0267768Y0150538D01*
X0267768Y0151323D02*
X0307394Y0151323D01*
X0307399Y0152109D02*
X0267768Y0152109D01*
X0267370Y0152895D02*
X0323394Y0152895D01*
X0324638Y0152895D02*
X0324638Y0152895D01*
X0324638Y0152109D02*
X0324638Y0152109D01*
X0324638Y0151323D02*
X0324638Y0151323D01*
X0324638Y0150538D02*
X0324638Y0150538D01*
X0324638Y0149752D02*
X0324638Y0149752D01*
X0324638Y0148966D02*
X0324638Y0148966D01*
X0324638Y0148457D02*
X0324638Y0143913D01*
X0324638Y0148457D01*
X0324638Y0148457D01*
X0324638Y0148180D02*
X0324638Y0148180D01*
X0324638Y0147394D02*
X0324638Y0147394D01*
X0324638Y0146608D02*
X0324638Y0146608D01*
X0324638Y0145822D02*
X0324638Y0145822D01*
X0324638Y0145036D02*
X0324638Y0145036D01*
X0324638Y0144250D02*
X0324638Y0144250D01*
X0323780Y0143464D02*
X0341338Y0143464D01*
X0341512Y0142678D02*
X0323780Y0142678D01*
X0323780Y0141892D02*
X0341860Y0141892D01*
X0342646Y0141107D02*
X0323780Y0141107D01*
X0323780Y0140321D02*
X0348362Y0140321D01*
X0348831Y0139535D02*
X0323436Y0139535D01*
X0326241Y0144250D02*
X0340889Y0144250D01*
X0340103Y0145036D02*
X0326697Y0145036D01*
X0326720Y0145822D02*
X0339465Y0145822D01*
X0339239Y0146608D02*
X0326720Y0146608D01*
X0326720Y0147394D02*
X0338453Y0147394D01*
X0337667Y0148180D02*
X0326720Y0148180D01*
X0326720Y0148966D02*
X0336881Y0148966D01*
X0336095Y0149752D02*
X0326720Y0149752D01*
X0326720Y0150538D02*
X0335339Y0150538D01*
X0335339Y0151323D02*
X0330989Y0151323D01*
X0329703Y0151323D02*
X0326720Y0151323D01*
X0326635Y0152109D02*
X0328402Y0152109D01*
X0327880Y0152895D02*
X0325882Y0152895D01*
X0327657Y0153681D02*
X0208488Y0153681D01*
X0208488Y0154467D02*
X0327315Y0154467D01*
X0326529Y0155253D02*
X0208488Y0155253D01*
X0208488Y0156039D02*
X0325743Y0156039D01*
X0324957Y0156825D02*
X0208267Y0156825D01*
X0202017Y0157611D02*
X0324171Y0157611D01*
X0323385Y0158397D02*
X0201231Y0158397D01*
X0200445Y0159183D02*
X0322599Y0159183D01*
X0321813Y0159968D02*
X0199659Y0159968D01*
X0198873Y0160754D02*
X0321027Y0160754D01*
X0320241Y0161540D02*
X0198087Y0161540D01*
X0197301Y0162326D02*
X0319455Y0162326D01*
X0318669Y0163112D02*
X0196515Y0163112D01*
X0195729Y0163898D02*
X0317884Y0163898D01*
X0314442Y0164684D02*
X0194943Y0164684D01*
X0194158Y0165470D02*
X0313656Y0165470D01*
X0307995Y0166256D02*
X0193372Y0166256D01*
X0192586Y0167042D02*
X0307394Y0167042D01*
X0307394Y0167828D02*
X0299053Y0167828D01*
X0299657Y0168614D02*
X0307394Y0168614D01*
X0307394Y0169399D02*
X0299657Y0169399D01*
X0300150Y0170185D02*
X0307394Y0170185D01*
X0307394Y0170971D02*
X0300936Y0170971D01*
X0301721Y0171757D02*
X0307394Y0171757D01*
X0307394Y0172543D02*
X0302507Y0172543D01*
X0304374Y0173329D02*
X0307394Y0173329D01*
X0307007Y0174115D02*
X0305617Y0174115D01*
X0305489Y0178044D02*
X0307095Y0178044D01*
X0306309Y0178830D02*
X0291996Y0178830D01*
X0291996Y0178044D02*
X0301660Y0178044D01*
X0301072Y0177259D02*
X0291996Y0177259D01*
X0291996Y0176473D02*
X0300787Y0176473D01*
X0300787Y0175687D02*
X0291996Y0175687D01*
X0291996Y0174901D02*
X0300055Y0174901D01*
X0299031Y0179616D02*
X0305523Y0179616D01*
X0304737Y0180402D02*
X0299657Y0180402D01*
X0294733Y0179616D02*
X0291996Y0179616D01*
X0291996Y0179668D02*
X0292571Y0180243D01*
X0292571Y0185962D01*
X0291867Y0186665D01*
X0287723Y0186665D01*
X0287020Y0185962D01*
X0287020Y0180243D01*
X0287594Y0179668D01*
X0287594Y0174726D01*
X0287020Y0174151D01*
X0287020Y0168432D01*
X0287723Y0167728D01*
X0291867Y0167728D01*
X0292571Y0168432D01*
X0292571Y0174151D01*
X0291996Y0174726D01*
X0291996Y0179668D01*
X0292571Y0180402D02*
X0294106Y0180402D01*
X0294106Y0181188D02*
X0292571Y0181188D01*
X0292571Y0181974D02*
X0294106Y0181974D01*
X0294106Y0182760D02*
X0292571Y0182760D01*
X0292571Y0183546D02*
X0294106Y0183546D01*
X0294106Y0184332D02*
X0292571Y0184332D01*
X0292571Y0185118D02*
X0294106Y0185118D01*
X0294106Y0185904D02*
X0292571Y0185904D01*
X0287020Y0185904D02*
X0245385Y0185904D01*
X0245720Y0185568D02*
X0245017Y0186272D01*
X0239298Y0186272D01*
X0238594Y0185568D01*
X0238594Y0181424D01*
X0239298Y0180720D01*
X0239966Y0180720D01*
X0239985Y0175226D01*
X0239421Y0174663D01*
X0239421Y0173594D01*
X0232110Y0173594D01*
X0232110Y0180226D01*
X0231407Y0180929D01*
X0221412Y0180929D01*
X0220709Y0180226D01*
X0220709Y0170231D01*
X0221412Y0169528D01*
X0231407Y0169528D01*
X0231891Y0170012D01*
X0239421Y0170012D01*
X0239421Y0168944D01*
X0240125Y0168240D01*
X0244269Y0168240D01*
X0244972Y0168944D01*
X0244972Y0174663D01*
X0244386Y0175249D01*
X0244368Y0180720D01*
X0245017Y0180720D01*
X0245720Y0181424D01*
X0245720Y0185568D01*
X0245720Y0185118D02*
X0287020Y0185118D01*
X0287020Y0184332D02*
X0245720Y0184332D01*
X0245720Y0183546D02*
X0287020Y0183546D01*
X0287020Y0182760D02*
X0245720Y0182760D01*
X0245720Y0181974D02*
X0287020Y0181974D01*
X0287020Y0181188D02*
X0245485Y0181188D01*
X0244369Y0180402D02*
X0287020Y0180402D01*
X0287594Y0179616D02*
X0244371Y0179616D01*
X0244374Y0178830D02*
X0287594Y0178830D01*
X0287594Y0178044D02*
X0244377Y0178044D01*
X0244379Y0177259D02*
X0287594Y0177259D01*
X0287594Y0176473D02*
X0244382Y0176473D01*
X0244385Y0175687D02*
X0287594Y0175687D01*
X0287594Y0174901D02*
X0252043Y0174901D01*
X0251973Y0175021D02*
X0251714Y0175281D01*
X0251396Y0175464D01*
X0251042Y0175559D01*
X0249677Y0175559D01*
X0249677Y0172197D01*
X0248890Y0172197D01*
X0248890Y0175559D01*
X0247525Y0175559D01*
X0247171Y0175464D01*
X0246853Y0175281D01*
X0246593Y0175021D01*
X0246410Y0174703D01*
X0246315Y0174349D01*
X0246315Y0172197D01*
X0248890Y0172197D01*
X0248890Y0171409D01*
X0249677Y0171409D01*
X0249677Y0168047D01*
X0251042Y0168047D01*
X0251396Y0168142D01*
X0251714Y0168326D01*
X0251973Y0168585D01*
X0252157Y0168903D01*
X0252252Y0169257D01*
X0252252Y0171409D01*
X0249677Y0171409D01*
X0249677Y0172197D01*
X0252252Y0172197D01*
X0252252Y0174349D01*
X0252157Y0174703D01*
X0251973Y0175021D01*
X0252252Y0174115D02*
X0287020Y0174115D01*
X0287020Y0173329D02*
X0252252Y0173329D01*
X0252252Y0172543D02*
X0287020Y0172543D01*
X0287020Y0171757D02*
X0249677Y0171757D01*
X0249677Y0170971D02*
X0248890Y0170971D01*
X0248890Y0171409D02*
X0248890Y0168047D01*
X0247525Y0168047D01*
X0247171Y0168142D01*
X0246853Y0168326D01*
X0246593Y0168585D01*
X0246410Y0168903D01*
X0246315Y0169257D01*
X0246315Y0171409D01*
X0248890Y0171409D01*
X0248890Y0171757D02*
X0244972Y0171757D01*
X0244972Y0170971D02*
X0246315Y0170971D01*
X0246315Y0170185D02*
X0244972Y0170185D01*
X0244972Y0169399D02*
X0246315Y0169399D01*
X0246577Y0168614D02*
X0244642Y0168614D01*
X0244972Y0172543D02*
X0246315Y0172543D01*
X0246315Y0173329D02*
X0244972Y0173329D01*
X0244972Y0174115D02*
X0246315Y0174115D01*
X0246524Y0174901D02*
X0244734Y0174901D01*
X0248890Y0174901D02*
X0249677Y0174901D01*
X0249677Y0174115D02*
X0248890Y0174115D01*
X0248890Y0173329D02*
X0249677Y0173329D01*
X0249677Y0172543D02*
X0248890Y0172543D01*
X0248890Y0170185D02*
X0249677Y0170185D01*
X0249677Y0169399D02*
X0248890Y0169399D01*
X0248890Y0168614D02*
X0249677Y0168614D01*
X0251990Y0168614D02*
X0287020Y0168614D01*
X0287020Y0169399D02*
X0252252Y0169399D01*
X0252252Y0170185D02*
X0287020Y0170185D01*
X0287020Y0170971D02*
X0252252Y0170971D01*
X0239751Y0168614D02*
X0191014Y0168614D01*
X0190228Y0169399D02*
X0239421Y0169399D01*
X0239421Y0174115D02*
X0232110Y0174115D01*
X0232110Y0174901D02*
X0239659Y0174901D01*
X0239983Y0175687D02*
X0232110Y0175687D01*
X0232110Y0176473D02*
X0239980Y0176473D01*
X0239978Y0177259D02*
X0232110Y0177259D01*
X0232110Y0178044D02*
X0239975Y0178044D01*
X0239972Y0178830D02*
X0232110Y0178830D01*
X0232110Y0179616D02*
X0239970Y0179616D01*
X0239967Y0180402D02*
X0231934Y0180402D01*
X0238594Y0181974D02*
X0212357Y0181974D01*
X0212425Y0182760D02*
X0238594Y0182760D01*
X0238594Y0183546D02*
X0212425Y0183546D01*
X0212425Y0184332D02*
X0238594Y0184332D01*
X0238594Y0185118D02*
X0212425Y0185118D01*
X0212425Y0185904D02*
X0238930Y0185904D01*
X0238844Y0188261D02*
X0212425Y0188261D01*
X0212425Y0187475D02*
X0252228Y0187475D01*
X0251587Y0188261D02*
X0245471Y0188261D01*
X0245720Y0189047D02*
X0251587Y0189047D01*
X0250832Y0189833D02*
X0245720Y0189833D01*
X0245720Y0190619D02*
X0248475Y0190619D01*
X0246117Y0191405D02*
X0245720Y0191405D01*
X0250605Y0194549D02*
X0259183Y0194549D01*
X0258545Y0193763D02*
X0257138Y0193763D01*
X0257138Y0192977D02*
X0258480Y0192977D01*
X0258480Y0192191D02*
X0257138Y0192191D01*
X0264417Y0192191D02*
X0302945Y0192191D01*
X0302945Y0191405D02*
X0264417Y0191405D01*
X0264417Y0192977D02*
X0301845Y0192977D01*
X0301587Y0193763D02*
X0264353Y0193763D01*
X0254067Y0200836D02*
X0253870Y0200836D01*
X0253870Y0201622D02*
X0254067Y0201622D01*
X0254067Y0202408D02*
X0253870Y0202408D01*
X0253870Y0203194D02*
X0254067Y0203194D01*
X0254067Y0203980D02*
X0253870Y0203980D01*
X0253870Y0204766D02*
X0254067Y0204766D01*
X0255647Y0211035D02*
X0251503Y0211035D01*
X0250799Y0211739D01*
X0250799Y0217458D01*
X0251503Y0218161D01*
X0255647Y0218161D01*
X0256350Y0217458D01*
X0256350Y0216799D01*
X0263398Y0216799D01*
X0263398Y0217458D01*
X0264101Y0218161D01*
X0268245Y0218161D01*
X0268949Y0217458D01*
X0268949Y0211739D01*
X0268245Y0211035D01*
X0264101Y0211035D01*
X0263398Y0211739D01*
X0263398Y0212398D01*
X0256350Y0212398D01*
X0256350Y0211739D01*
X0255647Y0211035D01*
X0255664Y0211053D02*
X0264084Y0211053D01*
X0263398Y0211839D02*
X0256350Y0211839D01*
X0251485Y0211053D02*
X0248578Y0211053D01*
X0249264Y0211839D02*
X0250799Y0211839D01*
X0250799Y0212625D02*
X0249264Y0212625D01*
X0249264Y0213411D02*
X0250799Y0213411D01*
X0250799Y0214196D02*
X0249264Y0214196D01*
X0249264Y0214982D02*
X0250799Y0214982D01*
X0250799Y0215768D02*
X0249264Y0215768D01*
X0249264Y0216554D02*
X0250799Y0216554D01*
X0250799Y0217340D02*
X0249264Y0217340D01*
X0248596Y0218126D02*
X0251467Y0218126D01*
X0255682Y0218126D02*
X0264066Y0218126D01*
X0263398Y0217340D02*
X0256350Y0217340D01*
X0244580Y0218912D02*
X0299449Y0218912D01*
X0299449Y0218126D02*
X0275367Y0218126D01*
X0275332Y0218161D02*
X0271188Y0218161D01*
X0270484Y0217458D01*
X0270484Y0211739D01*
X0271188Y0211035D01*
X0275332Y0211035D01*
X0276035Y0211739D01*
X0276035Y0212398D01*
X0283165Y0212398D01*
X0283662Y0211901D01*
X0284832Y0211417D01*
X0286097Y0211417D01*
X0287267Y0211901D01*
X0288162Y0212796D01*
X0288646Y0213966D01*
X0288646Y0215231D01*
X0288162Y0216401D01*
X0287267Y0217296D01*
X0286097Y0217780D01*
X0284832Y0217780D01*
X0283662Y0217296D01*
X0283165Y0216799D01*
X0276035Y0216799D01*
X0276035Y0217458D01*
X0275332Y0218161D01*
X0276035Y0217340D02*
X0283769Y0217340D01*
X0287160Y0217340D02*
X0299449Y0217340D01*
X0299449Y0216554D02*
X0288009Y0216554D01*
X0288424Y0215768D02*
X0299449Y0215768D01*
X0299449Y0214982D02*
X0288646Y0214982D01*
X0288646Y0214196D02*
X0299449Y0214196D01*
X0299449Y0213411D02*
X0288417Y0213411D01*
X0287991Y0212625D02*
X0299449Y0212625D01*
X0299449Y0211839D02*
X0287117Y0211839D01*
X0283812Y0211839D02*
X0276035Y0211839D01*
X0275349Y0211053D02*
X0299449Y0211053D01*
X0308413Y0204766D02*
X0325508Y0204766D01*
X0325209Y0203980D02*
X0308713Y0203980D01*
X0308713Y0203194D02*
X0325209Y0203194D01*
X0325209Y0202408D02*
X0308713Y0202408D01*
X0308953Y0201622D02*
X0325209Y0201622D01*
X0324681Y0200836D02*
X0309739Y0200836D01*
X0310525Y0200050D02*
X0323895Y0200050D01*
X0323109Y0199264D02*
X0311311Y0199264D01*
X0312096Y0198478D02*
X0322323Y0198478D01*
X0321537Y0197692D02*
X0312882Y0197692D01*
X0313668Y0196906D02*
X0320751Y0196906D01*
X0320287Y0196120D02*
X0314454Y0196120D01*
X0315240Y0195335D02*
X0320287Y0195335D01*
X0320287Y0194549D02*
X0316026Y0194549D01*
X0316193Y0193763D02*
X0320287Y0193763D01*
X0320287Y0192977D02*
X0316193Y0192977D01*
X0316193Y0192191D02*
X0320287Y0192191D01*
X0320287Y0191405D02*
X0316193Y0191405D01*
X0316193Y0190619D02*
X0320287Y0190619D01*
X0320287Y0189833D02*
X0316193Y0189833D01*
X0316193Y0189047D02*
X0320287Y0189047D01*
X0320287Y0188261D02*
X0316193Y0188261D01*
X0316193Y0187475D02*
X0320287Y0187475D01*
X0320287Y0186690D02*
X0316193Y0186690D01*
X0316193Y0185904D02*
X0320287Y0185904D01*
X0320287Y0185118D02*
X0316193Y0185118D01*
X0316193Y0184332D02*
X0320287Y0184332D01*
X0320287Y0183546D02*
X0316193Y0183546D01*
X0316193Y0182760D02*
X0320287Y0182760D01*
X0320287Y0181974D02*
X0316193Y0181974D01*
X0316193Y0181188D02*
X0320287Y0181188D01*
X0320287Y0180402D02*
X0316193Y0180402D01*
X0316193Y0179616D02*
X0320287Y0179616D01*
X0326528Y0174115D02*
X0348917Y0174115D01*
X0348917Y0173329D02*
X0326528Y0173329D01*
X0326528Y0172543D02*
X0349155Y0172543D01*
X0349421Y0171757D02*
X0326528Y0171757D01*
X0326528Y0170971D02*
X0349421Y0170971D01*
X0349618Y0170185D02*
X0326528Y0170185D01*
X0326528Y0169399D02*
X0349618Y0169399D01*
X0349618Y0168614D02*
X0347278Y0168614D01*
X0347449Y0167828D02*
X0349618Y0167828D01*
X0349618Y0167042D02*
X0347449Y0167042D01*
X0347449Y0166256D02*
X0349618Y0166256D01*
X0349657Y0165470D02*
X0347449Y0165470D01*
X0345504Y0167042D02*
X0345504Y0167042D01*
X0345504Y0167828D02*
X0345504Y0167828D01*
X0345504Y0168614D02*
X0345504Y0168614D01*
X0343730Y0168614D02*
X0326528Y0168614D01*
X0326528Y0167828D02*
X0343559Y0167828D01*
X0343559Y0167042D02*
X0326528Y0167042D01*
X0325926Y0166256D02*
X0343559Y0166256D01*
X0343559Y0165470D02*
X0321378Y0165470D01*
X0322164Y0164684D02*
X0337082Y0164684D01*
X0336296Y0163898D02*
X0322950Y0163898D01*
X0323736Y0163112D02*
X0335510Y0163112D01*
X0335339Y0162326D02*
X0324522Y0162326D01*
X0325308Y0161540D02*
X0335339Y0161540D01*
X0335339Y0160754D02*
X0326094Y0160754D01*
X0326880Y0159968D02*
X0335339Y0159968D01*
X0335339Y0159183D02*
X0327666Y0159183D01*
X0328452Y0158397D02*
X0335339Y0158397D01*
X0335339Y0157611D02*
X0329238Y0157611D01*
X0330023Y0156825D02*
X0335339Y0156825D01*
X0335339Y0156039D02*
X0332080Y0156039D01*
X0332726Y0155253D02*
X0335339Y0155253D01*
X0335339Y0154467D02*
X0333036Y0154467D01*
X0333036Y0153681D02*
X0335339Y0153681D01*
X0335339Y0152895D02*
X0332813Y0152895D01*
X0332291Y0152109D02*
X0335339Y0152109D01*
X0346394Y0141107D02*
X0347576Y0141107D01*
X0355538Y0141892D02*
X0361060Y0141892D01*
X0360642Y0141107D02*
X0355957Y0141107D01*
X0355957Y0140321D02*
X0360642Y0140321D01*
X0360642Y0139535D02*
X0355957Y0139535D01*
X0355957Y0138749D02*
X0360642Y0138749D01*
X0360642Y0137963D02*
X0355957Y0137963D01*
X0355804Y0137177D02*
X0360794Y0137177D01*
X0361074Y0134819D02*
X0355525Y0134819D01*
X0355818Y0130104D02*
X0360781Y0130104D01*
X0347246Y0111242D02*
X0340752Y0111242D01*
X0348611Y0103383D02*
X0353259Y0103383D01*
X0359402Y0103383D02*
X0365070Y0103383D01*
X0364579Y0102597D02*
X0359894Y0102597D01*
X0359894Y0101811D02*
X0364579Y0101811D01*
X0364579Y0101025D02*
X0359894Y0101025D01*
X0360023Y0100239D02*
X0364450Y0100239D01*
X0363664Y0099453D02*
X0360809Y0099453D01*
X0361031Y0098667D02*
X0362878Y0098667D01*
X0362092Y0097881D02*
X0361031Y0097881D01*
X0361031Y0097095D02*
X0361630Y0097095D01*
X0361630Y0096310D02*
X0361031Y0096310D01*
X0361031Y0095524D02*
X0361630Y0095524D01*
X0361630Y0094738D02*
X0361031Y0094738D01*
X0361031Y0093952D02*
X0361630Y0093952D01*
X0361630Y0093166D02*
X0361031Y0093166D01*
X0361031Y0092380D02*
X0361630Y0092380D01*
X0361630Y0091594D02*
X0361031Y0091594D01*
X0361031Y0090808D02*
X0361630Y0090808D01*
X0361630Y0090022D02*
X0361031Y0090022D01*
X0361031Y0089236D02*
X0361630Y0089236D01*
X0361630Y0088450D02*
X0361031Y0088450D01*
X0361167Y0080591D02*
X0361494Y0080591D01*
X0352306Y0068017D02*
X0346720Y0068017D01*
X0345934Y0067231D02*
X0351630Y0067231D01*
X0351630Y0066445D02*
X0345148Y0066445D01*
X0344362Y0065659D02*
X0351630Y0065659D01*
X0356173Y0065659D02*
X0361843Y0065659D01*
X0363535Y0065659D02*
X0364126Y0065659D01*
X0364126Y0064873D02*
X0363535Y0064873D01*
X0363535Y0064087D02*
X0364126Y0064087D01*
X0364126Y0063301D02*
X0363535Y0063301D01*
X0363535Y0062515D02*
X0364126Y0062515D01*
X0356451Y0057800D02*
X0356211Y0057800D01*
X0351451Y0057800D02*
X0351211Y0057800D01*
X0346252Y0063301D02*
X0342004Y0063301D01*
X0342790Y0064087D02*
X0346252Y0064087D01*
X0346252Y0064873D02*
X0343576Y0064873D01*
X0345491Y0047583D02*
X0330972Y0047583D01*
X0330972Y0046797D02*
X0344894Y0046797D01*
X0344894Y0046011D02*
X0330972Y0046011D01*
X0330972Y0045225D02*
X0344894Y0045225D01*
X0344894Y0044439D02*
X0330972Y0044439D01*
X0330972Y0043653D02*
X0344894Y0043653D01*
X0344894Y0042867D02*
X0330972Y0042867D01*
X0330972Y0040510D02*
X0345504Y0040510D01*
X0344894Y0039724D02*
X0330972Y0039724D01*
X0330972Y0038938D02*
X0344894Y0038938D01*
X0344894Y0038152D02*
X0330972Y0038152D01*
X0330972Y0037366D02*
X0344894Y0037366D01*
X0344894Y0036580D02*
X0330972Y0036580D01*
X0330972Y0035794D02*
X0344894Y0035794D01*
X0330972Y0035008D02*
X0391307Y0035008D01*
X0391307Y0034222D02*
X0330972Y0034222D01*
X0330972Y0033437D02*
X0391307Y0033437D01*
X0391307Y0032651D02*
X0330972Y0032651D01*
X0330972Y0031865D02*
X0391307Y0031865D01*
X0391307Y0031079D02*
X0330972Y0031079D01*
X0330972Y0030293D02*
X0391307Y0030293D01*
X0391307Y0029507D02*
X0331596Y0029507D01*
X0332382Y0028721D02*
X0391307Y0028721D01*
X0391307Y0035794D02*
X0363831Y0035794D01*
X0363831Y0036580D02*
X0391307Y0036580D01*
X0391307Y0037366D02*
X0363831Y0037366D01*
X0363831Y0038152D02*
X0391307Y0038152D01*
X0391307Y0038938D02*
X0363831Y0038938D01*
X0363831Y0039724D02*
X0391307Y0039724D01*
X0309480Y0065659D02*
X0308693Y0065659D01*
X0308693Y0066445D02*
X0309480Y0066445D01*
X0309480Y0067231D02*
X0308693Y0067231D01*
X0308693Y0068017D02*
X0309480Y0068017D01*
X0305331Y0069589D02*
X0292965Y0069589D01*
X0292965Y0070374D02*
X0305352Y0070374D01*
X0305804Y0071160D02*
X0292412Y0071160D01*
X0292398Y0064087D02*
X0306090Y0064087D01*
X0305524Y0063301D02*
X0292965Y0063301D01*
X0292965Y0062515D02*
X0305524Y0062515D01*
X0305524Y0061729D02*
X0292965Y0061729D01*
X0292965Y0060943D02*
X0305524Y0060943D01*
X0305524Y0060158D02*
X0292965Y0060158D01*
X0292960Y0059372D02*
X0305529Y0059372D01*
X0306886Y0058586D02*
X0291602Y0058586D01*
X0291602Y0057800D02*
X0306886Y0057800D01*
X0306886Y0057014D02*
X0291602Y0057014D01*
X0291602Y0056228D02*
X0306886Y0056228D01*
X0306886Y0055442D02*
X0291602Y0055442D01*
X0291602Y0054656D02*
X0306886Y0054656D01*
X0306886Y0053870D02*
X0291602Y0053870D01*
X0291602Y0053084D02*
X0306886Y0053084D01*
X0306886Y0052298D02*
X0291602Y0052298D01*
X0291602Y0051513D02*
X0306886Y0051513D01*
X0306886Y0050727D02*
X0291602Y0050727D01*
X0291602Y0049941D02*
X0306886Y0049941D01*
X0306886Y0049155D02*
X0291602Y0049155D01*
X0291602Y0048369D02*
X0306886Y0048369D01*
X0306886Y0047583D02*
X0291602Y0047583D01*
X0291602Y0046797D02*
X0306886Y0046797D01*
X0306886Y0046011D02*
X0291602Y0046011D01*
X0291602Y0045225D02*
X0306886Y0045225D01*
X0306886Y0044439D02*
X0291602Y0044439D01*
X0291602Y0043653D02*
X0306886Y0043653D01*
X0306886Y0042867D02*
X0291602Y0042867D01*
X0291602Y0042082D02*
X0306886Y0042082D01*
X0306886Y0041296D02*
X0291602Y0041296D01*
X0291602Y0040510D02*
X0306886Y0040510D01*
X0306886Y0039724D02*
X0291602Y0039724D01*
X0291602Y0038938D02*
X0306886Y0038938D01*
X0306886Y0038152D02*
X0291602Y0038152D01*
X0291602Y0037366D02*
X0306886Y0037366D01*
X0306886Y0036580D02*
X0291602Y0036580D01*
X0291602Y0035794D02*
X0306886Y0035794D01*
X0306886Y0035008D02*
X0291602Y0035008D01*
X0291602Y0034222D02*
X0306886Y0034222D01*
X0306886Y0033437D02*
X0291602Y0033437D01*
X0291602Y0032651D02*
X0306886Y0032651D01*
X0306886Y0031865D02*
X0291602Y0031865D01*
X0291602Y0031079D02*
X0306886Y0031079D01*
X0306886Y0030293D02*
X0291602Y0030293D01*
X0292226Y0029507D02*
X0306262Y0029507D01*
X0305476Y0028721D02*
X0293012Y0028721D01*
X0293578Y0027935D02*
X0304910Y0027935D01*
X0304584Y0027149D02*
X0293904Y0027149D01*
X0294146Y0026363D02*
X0304343Y0026363D01*
X0304343Y0025577D02*
X0294146Y0025577D01*
X0294146Y0024791D02*
X0304343Y0024791D01*
X0304621Y0024006D02*
X0293867Y0024006D01*
X0293541Y0023220D02*
X0304947Y0023220D01*
X0305566Y0022434D02*
X0292922Y0022434D01*
X0292137Y0021648D02*
X0306352Y0021648D01*
X0286667Y0021648D02*
X0139258Y0021648D01*
X0138369Y0022434D02*
X0285881Y0022434D01*
X0286577Y0029507D02*
X0199260Y0029507D01*
X0199827Y0030293D02*
X0230924Y0030293D01*
X0230752Y0031079D02*
X0199827Y0031079D01*
X0199827Y0031865D02*
X0230752Y0031865D01*
X0230752Y0032651D02*
X0199827Y0032651D01*
X0199827Y0033437D02*
X0230752Y0033437D01*
X0230752Y0034222D02*
X0199827Y0034222D01*
X0199827Y0035008D02*
X0230752Y0035008D01*
X0242539Y0036580D02*
X0287201Y0036580D01*
X0287201Y0037366D02*
X0242539Y0037366D01*
X0242539Y0038152D02*
X0287201Y0038152D01*
X0287201Y0038938D02*
X0242539Y0038938D01*
X0242539Y0039724D02*
X0287201Y0039724D01*
X0287201Y0040510D02*
X0242440Y0040510D01*
X0241563Y0041296D02*
X0287201Y0041296D01*
X0239079Y0107312D02*
X0234446Y0107312D01*
X0233223Y0109670D02*
X0238695Y0109670D01*
X0238594Y0110456D02*
X0232690Y0110456D01*
X0232547Y0111242D02*
X0238594Y0111242D01*
X0238594Y0112028D02*
X0232547Y0112028D01*
X0232547Y0112814D02*
X0238594Y0112814D01*
X0238594Y0113600D02*
X0232547Y0113600D01*
X0232547Y0114386D02*
X0239065Y0114386D01*
X0240457Y0115171D02*
X0232547Y0115171D01*
X0232547Y0115957D02*
X0240457Y0115957D01*
X0240457Y0116743D02*
X0232547Y0116743D01*
X0232547Y0117529D02*
X0240457Y0117529D01*
X0240457Y0118315D02*
X0232547Y0118315D01*
X0232547Y0119101D02*
X0240457Y0119101D01*
X0240457Y0119887D02*
X0232547Y0119887D01*
X0232547Y0120673D02*
X0240457Y0120673D01*
X0240457Y0121459D02*
X0232547Y0121459D01*
X0233785Y0122245D02*
X0238719Y0122245D01*
X0238594Y0123031D02*
X0233909Y0123031D01*
X0233909Y0123816D02*
X0238594Y0123816D01*
X0238594Y0124602D02*
X0233909Y0124602D01*
X0233909Y0125388D02*
X0238594Y0125388D01*
X0238594Y0126174D02*
X0233909Y0126174D01*
X0233462Y0126960D02*
X0239042Y0126960D01*
X0245273Y0126960D02*
X0250248Y0126960D01*
X0250248Y0126174D02*
X0245720Y0126174D01*
X0245720Y0125388D02*
X0250248Y0125388D01*
X0250248Y0124602D02*
X0245720Y0124602D01*
X0245720Y0123816D02*
X0250248Y0123816D01*
X0250248Y0123031D02*
X0245720Y0123031D01*
X0245596Y0122245D02*
X0250248Y0122245D01*
X0250248Y0121459D02*
X0243858Y0121459D01*
X0243858Y0120673D02*
X0250468Y0120673D01*
X0251665Y0119887D02*
X0243858Y0119887D01*
X0243858Y0119101D02*
X0251665Y0119101D01*
X0251665Y0118315D02*
X0243858Y0118315D01*
X0243858Y0117529D02*
X0251665Y0117529D01*
X0251665Y0116743D02*
X0243858Y0116743D01*
X0264461Y0127746D02*
X0268549Y0127746D01*
X0269367Y0128532D02*
X0264115Y0128532D01*
X0287624Y0167828D02*
X0191800Y0167828D01*
X0189442Y0170185D02*
X0220754Y0170185D01*
X0220709Y0170971D02*
X0188656Y0170971D01*
X0187870Y0171757D02*
X0220709Y0171757D01*
X0220709Y0172543D02*
X0187084Y0172543D01*
X0186298Y0173329D02*
X0220709Y0173329D01*
X0220709Y0174115D02*
X0185512Y0174115D01*
X0184727Y0174901D02*
X0220709Y0174901D01*
X0220709Y0175687D02*
X0183941Y0175687D01*
X0183155Y0176473D02*
X0220709Y0176473D01*
X0220709Y0177259D02*
X0182369Y0177259D01*
X0181583Y0178044D02*
X0220709Y0178044D01*
X0220709Y0178830D02*
X0180797Y0178830D01*
X0180011Y0179616D02*
X0220709Y0179616D01*
X0220885Y0180402D02*
X0179225Y0180402D01*
X0178439Y0181188D02*
X0238830Y0181188D01*
X0238594Y0189047D02*
X0212425Y0189047D01*
X0212425Y0189833D02*
X0238594Y0189833D01*
X0238594Y0190619D02*
X0212837Y0190619D01*
X0213623Y0191405D02*
X0238594Y0191405D01*
X0238594Y0192191D02*
X0214409Y0192191D01*
X0215195Y0192977D02*
X0238916Y0192977D01*
X0239957Y0193763D02*
X0215981Y0193763D01*
X0216767Y0194549D02*
X0239957Y0194549D01*
X0239957Y0195335D02*
X0217553Y0195335D01*
X0218339Y0196120D02*
X0239957Y0196120D01*
X0226242Y0196906D02*
X0219125Y0196906D01*
X0216416Y0199264D02*
X0207413Y0199264D01*
X0206823Y0199264D02*
X0192695Y0199264D01*
X0193358Y0200050D02*
X0202772Y0200050D01*
X0202785Y0200836D02*
X0193358Y0200836D01*
X0193358Y0204766D02*
X0198295Y0204766D01*
X0199081Y0205551D02*
X0193358Y0205551D01*
X0192668Y0206337D02*
X0203202Y0206337D01*
X0203190Y0207123D02*
X0188780Y0207123D01*
X0187994Y0207909D02*
X0202965Y0207909D01*
X0202965Y0208695D02*
X0187208Y0208695D01*
X0186422Y0209481D02*
X0202965Y0209481D01*
X0202965Y0210267D02*
X0185636Y0210267D01*
X0185586Y0211053D02*
X0188493Y0211053D01*
X0188510Y0211035D02*
X0192655Y0211035D01*
X0193358Y0211739D01*
X0193358Y0217458D01*
X0192655Y0218161D01*
X0192374Y0218161D01*
X0192374Y0224397D01*
X0192595Y0224618D01*
X0196469Y0224618D01*
X0196469Y0223550D01*
X0197172Y0222846D01*
X0201316Y0222846D01*
X0202020Y0223550D01*
X0202020Y0229269D01*
X0201316Y0229972D01*
X0197172Y0229972D01*
X0196469Y0229269D01*
X0196469Y0228201D01*
X0192595Y0228201D01*
X0192106Y0228690D01*
X0191118Y0229099D01*
X0190048Y0229099D01*
X0189059Y0228690D01*
X0188302Y0227933D01*
X0187893Y0226944D01*
X0187893Y0225874D01*
X0188302Y0224886D01*
X0188791Y0224397D01*
X0188791Y0218161D01*
X0188510Y0218161D01*
X0187807Y0217458D01*
X0187807Y0211739D01*
X0188510Y0211035D01*
X0187807Y0211839D02*
X0186272Y0211839D01*
X0186272Y0212625D02*
X0187807Y0212625D01*
X0187807Y0213411D02*
X0186272Y0213411D01*
X0186272Y0214196D02*
X0187807Y0214196D01*
X0187807Y0214982D02*
X0186272Y0214982D01*
X0186272Y0215768D02*
X0187807Y0215768D01*
X0187807Y0216554D02*
X0186272Y0216554D01*
X0186272Y0217340D02*
X0187807Y0217340D01*
X0188475Y0218126D02*
X0185604Y0218126D01*
X0188791Y0218912D02*
X0140715Y0218912D01*
X0139930Y0219698D02*
X0188791Y0219698D01*
X0188791Y0220484D02*
X0139559Y0220484D01*
X0139559Y0221270D02*
X0188791Y0221270D01*
X0188791Y0222056D02*
X0139559Y0222056D01*
X0139559Y0222842D02*
X0188791Y0222842D01*
X0188791Y0223627D02*
X0139559Y0223627D01*
X0139559Y0224413D02*
X0188775Y0224413D01*
X0188173Y0225199D02*
X0139559Y0225199D01*
X0139559Y0225985D02*
X0187893Y0225985D01*
X0187893Y0226771D02*
X0139559Y0226771D01*
X0139559Y0227557D02*
X0188147Y0227557D01*
X0188712Y0228343D02*
X0139559Y0228343D01*
X0139559Y0229129D02*
X0196469Y0229129D01*
X0196469Y0228343D02*
X0192453Y0228343D01*
X0197114Y0229915D02*
X0139559Y0229915D01*
X0139559Y0230701D02*
X0225827Y0230701D01*
X0225827Y0231487D02*
X0139559Y0231487D01*
X0139559Y0232272D02*
X0225827Y0232272D01*
X0225827Y0233058D02*
X0139559Y0233058D01*
X0139559Y0233844D02*
X0225827Y0233844D01*
X0225901Y0234630D02*
X0139568Y0234630D01*
X0140076Y0235416D02*
X0299256Y0235416D01*
X0299256Y0234630D02*
X0237155Y0234630D01*
X0237228Y0233844D02*
X0299256Y0233844D01*
X0299256Y0233537D02*
X0299351Y0233183D01*
X0299534Y0232865D01*
X0299794Y0232605D01*
X0300112Y0232422D01*
X0300466Y0232327D01*
X0304756Y0232327D01*
X0304756Y0237827D01*
X0299256Y0237827D01*
X0299256Y0233537D01*
X0299423Y0233058D02*
X0237228Y0233058D01*
X0235054Y0223627D02*
X0209106Y0223627D01*
X0209106Y0224413D02*
X0225975Y0224413D01*
X0225827Y0225199D02*
X0209106Y0225199D01*
X0209106Y0225985D02*
X0225827Y0225985D01*
X0225827Y0226771D02*
X0209106Y0226771D01*
X0209106Y0227557D02*
X0225827Y0227557D01*
X0225827Y0228343D02*
X0209106Y0228343D01*
X0209106Y0229129D02*
X0225827Y0229129D01*
X0225827Y0229915D02*
X0208461Y0229915D01*
X0204201Y0229915D02*
X0201374Y0229915D01*
X0202020Y0229129D02*
X0203555Y0229129D01*
X0203555Y0228343D02*
X0202020Y0228343D01*
X0202020Y0227557D02*
X0203555Y0227557D01*
X0203555Y0226771D02*
X0202020Y0226771D01*
X0202020Y0225985D02*
X0203555Y0225985D01*
X0203555Y0225199D02*
X0202020Y0225199D01*
X0202020Y0224413D02*
X0203555Y0224413D01*
X0203555Y0223627D02*
X0202020Y0223627D01*
X0205327Y0222842D02*
X0192374Y0222842D01*
X0192374Y0223627D02*
X0196469Y0223627D01*
X0196469Y0224413D02*
X0192390Y0224413D01*
X0192374Y0222056D02*
X0205327Y0222056D01*
X0205327Y0221270D02*
X0192374Y0221270D01*
X0192374Y0220484D02*
X0205327Y0220484D01*
X0205327Y0219698D02*
X0192374Y0219698D01*
X0192374Y0218912D02*
X0205327Y0218912D01*
X0205327Y0218126D02*
X0192690Y0218126D01*
X0193358Y0217340D02*
X0205327Y0217340D01*
X0203419Y0216554D02*
X0193358Y0216554D01*
X0193358Y0215768D02*
X0202965Y0215768D01*
X0202965Y0214982D02*
X0193358Y0214982D01*
X0193358Y0214196D02*
X0202965Y0214196D01*
X0202965Y0213411D02*
X0193358Y0213411D01*
X0193358Y0212625D02*
X0202965Y0212625D01*
X0203475Y0211839D02*
X0193358Y0211839D01*
X0192672Y0211053D02*
X0202965Y0211053D01*
X0211272Y0215768D02*
X0225606Y0215768D01*
X0225981Y0216554D02*
X0210817Y0216554D01*
X0208909Y0217340D02*
X0241341Y0217340D01*
X0240555Y0218126D02*
X0208909Y0218126D01*
X0208909Y0218912D02*
X0239769Y0218912D01*
X0238983Y0219698D02*
X0208909Y0219698D01*
X0208909Y0220484D02*
X0238198Y0220484D01*
X0237412Y0221270D02*
X0208909Y0221270D01*
X0208909Y0222056D02*
X0236626Y0222056D01*
X0235840Y0222842D02*
X0208909Y0222842D01*
X0229657Y0216554D02*
X0230248Y0216554D01*
X0230248Y0215768D02*
X0229657Y0215768D01*
X0229657Y0214982D02*
X0230248Y0214982D01*
X0233925Y0216554D02*
X0242127Y0216554D01*
X0242913Y0215768D02*
X0234299Y0215768D01*
X0243794Y0219698D02*
X0299551Y0219698D01*
X0305543Y0232327D02*
X0309833Y0232327D01*
X0310188Y0232422D01*
X0310505Y0232605D01*
X0310765Y0232865D01*
X0310948Y0233183D01*
X0311043Y0233537D01*
X0311043Y0237827D01*
X0305543Y0237827D01*
X0305543Y0232327D01*
X0305543Y0233058D02*
X0304756Y0233058D01*
X0304756Y0233844D02*
X0305543Y0233844D01*
X0305543Y0234630D02*
X0304756Y0234630D01*
X0304756Y0235416D02*
X0305543Y0235416D01*
X0305543Y0236202D02*
X0304756Y0236202D01*
X0304756Y0236988D02*
X0305543Y0236988D01*
X0305543Y0237774D02*
X0304756Y0237774D01*
X0304756Y0237827D02*
X0305543Y0237827D01*
X0305543Y0238614D01*
X0304756Y0238614D01*
X0304756Y0237827D01*
X0304756Y0238560D02*
X0140602Y0238560D01*
X0140602Y0237774D02*
X0299256Y0237774D01*
X0299256Y0236988D02*
X0140602Y0236988D01*
X0140402Y0236202D02*
X0299256Y0236202D01*
X0299256Y0238614D02*
X0304756Y0238614D01*
X0304756Y0244114D01*
X0300466Y0244114D01*
X0300112Y0244019D01*
X0299794Y0243836D01*
X0299534Y0243576D01*
X0299351Y0243258D01*
X0299256Y0242904D01*
X0299256Y0238614D01*
X0299256Y0239346D02*
X0140283Y0239346D01*
X0139957Y0240132D02*
X0299256Y0240132D01*
X0299256Y0240918D02*
X0139280Y0240918D01*
X0138421Y0241703D02*
X0299256Y0241703D01*
X0299256Y0242489D02*
X0027858Y0242489D01*
X0028089Y0241703D02*
X0062430Y0241703D01*
X0062305Y0241652D02*
X0060970Y0240317D01*
X0060248Y0238574D01*
X0060248Y0236686D01*
X0060970Y0234943D01*
X0062305Y0233608D01*
X0064048Y0232886D01*
X0065936Y0232886D01*
X0067679Y0233608D01*
X0069014Y0234943D01*
X0069736Y0236686D01*
X0069736Y0238574D01*
X0069014Y0240317D01*
X0067679Y0241652D01*
X0065936Y0242374D01*
X0064048Y0242374D01*
X0062305Y0241652D01*
X0061571Y0240918D02*
X0028299Y0240918D01*
X0028510Y0240132D02*
X0060893Y0240132D01*
X0060568Y0239346D02*
X0028638Y0239346D01*
X0028638Y0238560D02*
X0060248Y0238560D01*
X0060248Y0237774D02*
X0028638Y0237774D01*
X0028638Y0236988D02*
X0060248Y0236988D01*
X0060449Y0236202D02*
X0028481Y0236202D01*
X0028271Y0235416D02*
X0060774Y0235416D01*
X0061283Y0234630D02*
X0028060Y0234630D01*
X0027796Y0233844D02*
X0062069Y0233844D01*
X0063632Y0233058D02*
X0027342Y0233058D01*
X0026888Y0232272D02*
X0132157Y0232272D01*
X0132157Y0231487D02*
X0026415Y0231487D01*
X0025629Y0230701D02*
X0132157Y0230701D01*
X0132157Y0229915D02*
X0024843Y0229915D01*
X0023780Y0229129D02*
X0132157Y0229129D01*
X0132157Y0228343D02*
X0022419Y0228343D01*
X0020026Y0227557D02*
X0132157Y0227557D01*
X0132157Y0233058D02*
X0066352Y0233058D01*
X0067916Y0233844D02*
X0132157Y0233844D01*
X0132149Y0234630D02*
X0068702Y0234630D01*
X0069210Y0235416D02*
X0131640Y0235416D01*
X0131315Y0236202D02*
X0069536Y0236202D01*
X0069736Y0236988D02*
X0131114Y0236988D01*
X0131114Y0237774D02*
X0069736Y0237774D01*
X0069736Y0238560D02*
X0131114Y0238560D01*
X0131434Y0239346D02*
X0069416Y0239346D01*
X0069091Y0240132D02*
X0131760Y0240132D01*
X0132437Y0240918D02*
X0068414Y0240918D01*
X0067555Y0241703D02*
X0133296Y0241703D01*
X0141501Y0218126D02*
X0181389Y0218126D01*
X0180720Y0217340D02*
X0142287Y0217340D01*
X0143073Y0216554D02*
X0180720Y0216554D01*
X0180720Y0215768D02*
X0143859Y0215768D01*
X0144645Y0214982D02*
X0180720Y0214982D01*
X0180720Y0214196D02*
X0145431Y0214196D01*
X0146217Y0213411D02*
X0180720Y0213411D01*
X0180720Y0212625D02*
X0147003Y0212625D01*
X0147789Y0211839D02*
X0180720Y0211839D01*
X0181406Y0211053D02*
X0148575Y0211053D01*
X0149360Y0210267D02*
X0181705Y0210267D01*
X0181705Y0209481D02*
X0150146Y0209481D01*
X0150932Y0208695D02*
X0182142Y0208695D01*
X0182928Y0207909D02*
X0151718Y0207909D01*
X0152504Y0207123D02*
X0183713Y0207123D01*
X0183890Y0206337D02*
X0183102Y0206337D01*
X0183102Y0206543D02*
X0181738Y0206543D01*
X0181383Y0206448D01*
X0181066Y0206265D01*
X0180806Y0206005D01*
X0180623Y0205688D01*
X0180528Y0205333D01*
X0180528Y0203181D01*
X0183102Y0203181D01*
X0183102Y0202394D01*
X0180528Y0202394D01*
X0180528Y0200242D01*
X0180623Y0199887D01*
X0180806Y0199569D01*
X0181066Y0199310D01*
X0181383Y0199126D01*
X0181738Y0199031D01*
X0183102Y0199031D01*
X0183102Y0202394D01*
X0183890Y0202394D01*
X0183890Y0203181D01*
X0183102Y0203181D01*
X0183102Y0206543D01*
X0183102Y0205551D02*
X0183890Y0205551D01*
X0183890Y0204766D02*
X0183102Y0204766D01*
X0183102Y0203980D02*
X0183890Y0203980D01*
X0183890Y0203194D02*
X0183102Y0203194D01*
X0183102Y0202408D02*
X0157220Y0202408D01*
X0158006Y0201622D02*
X0180528Y0201622D01*
X0180528Y0200836D02*
X0158791Y0200836D01*
X0159577Y0200050D02*
X0180579Y0200050D01*
X0181145Y0199264D02*
X0160363Y0199264D01*
X0161149Y0198478D02*
X0202772Y0198478D01*
X0202772Y0198929D02*
X0202772Y0197663D01*
X0202867Y0197309D01*
X0203050Y0196991D01*
X0203310Y0196731D01*
X0203627Y0196548D01*
X0203982Y0196453D01*
X0206823Y0196453D01*
X0206823Y0198929D01*
X0202772Y0198929D01*
X0202772Y0197692D02*
X0161935Y0197692D01*
X0162721Y0196906D02*
X0203134Y0196906D01*
X0206823Y0196906D02*
X0207413Y0196906D01*
X0207413Y0197692D02*
X0206823Y0197692D01*
X0206823Y0198478D02*
X0207413Y0198478D01*
X0211102Y0196906D02*
X0214058Y0196906D01*
X0213272Y0196120D02*
X0163507Y0196120D01*
X0164293Y0195335D02*
X0212486Y0195335D01*
X0211700Y0194549D02*
X0165079Y0194549D01*
X0165865Y0193763D02*
X0210914Y0193763D01*
X0210129Y0192977D02*
X0166651Y0192977D01*
X0167436Y0192191D02*
X0201178Y0192191D01*
X0201024Y0191405D02*
X0168222Y0191405D01*
X0169008Y0190619D02*
X0201024Y0190619D01*
X0201024Y0189833D02*
X0169794Y0189833D01*
X0170580Y0189047D02*
X0201024Y0189047D01*
X0201024Y0188261D02*
X0171366Y0188261D01*
X0172152Y0187475D02*
X0201024Y0187475D01*
X0201024Y0186690D02*
X0172938Y0186690D01*
X0173724Y0185904D02*
X0201024Y0185904D01*
X0201024Y0185118D02*
X0174510Y0185118D01*
X0175296Y0184332D02*
X0201024Y0184332D01*
X0201024Y0183546D02*
X0176082Y0183546D01*
X0176867Y0182760D02*
X0201024Y0182760D01*
X0201092Y0181974D02*
X0177653Y0181974D01*
X0183102Y0199264D02*
X0183890Y0199264D01*
X0183890Y0199031D02*
X0185254Y0199031D01*
X0185609Y0199126D01*
X0185927Y0199310D01*
X0186186Y0199569D01*
X0186370Y0199887D01*
X0186465Y0200242D01*
X0186465Y0202394D01*
X0183890Y0202394D01*
X0183890Y0199031D01*
X0183890Y0200050D02*
X0183102Y0200050D01*
X0183102Y0200836D02*
X0183890Y0200836D01*
X0183890Y0201622D02*
X0183102Y0201622D01*
X0183890Y0202408D02*
X0187807Y0202408D01*
X0187807Y0201622D02*
X0186465Y0201622D01*
X0186465Y0200836D02*
X0187807Y0200836D01*
X0187807Y0200050D02*
X0186413Y0200050D01*
X0185847Y0199264D02*
X0188471Y0199264D01*
X0187643Y0203194D02*
X0186465Y0203194D01*
X0186465Y0203980D02*
X0186857Y0203980D01*
X0181191Y0206337D02*
X0153290Y0206337D01*
X0154076Y0205551D02*
X0180586Y0205551D01*
X0180528Y0204766D02*
X0154862Y0204766D01*
X0155648Y0203980D02*
X0180528Y0203980D01*
X0180528Y0203194D02*
X0156434Y0203194D01*
X0200218Y0201622D02*
X0203214Y0201622D01*
X0211451Y0200836D02*
X0217988Y0200836D01*
X0217202Y0200050D02*
X0211465Y0200050D01*
X0211465Y0198478D02*
X0215630Y0198478D01*
X0214844Y0197692D02*
X0211465Y0197692D01*
X0212425Y0186690D02*
X0303718Y0186690D01*
X0306581Y0186690D02*
X0312610Y0186690D01*
X0312610Y0187475D02*
X0307421Y0187475D01*
X0307752Y0188261D02*
X0312610Y0188261D01*
X0312610Y0189047D02*
X0307839Y0189047D01*
X0307719Y0189833D02*
X0312610Y0189833D01*
X0312610Y0190619D02*
X0307354Y0190619D01*
X0307354Y0191405D02*
X0312610Y0191405D01*
X0312610Y0192191D02*
X0307354Y0192191D01*
X0308455Y0192977D02*
X0312531Y0192977D01*
X0311745Y0193763D02*
X0308713Y0193763D01*
X0308713Y0194549D02*
X0310959Y0194549D01*
X0310173Y0195335D02*
X0308713Y0195335D01*
X0308713Y0196120D02*
X0309388Y0196120D01*
X0338818Y0177259D02*
X0355740Y0177259D01*
X0356130Y0178044D02*
X0339604Y0178044D01*
X0348249Y0186690D02*
X0350962Y0186690D01*
X0350122Y0187475D02*
X0349961Y0187475D01*
X0294106Y0174115D02*
X0292571Y0174115D01*
X0292571Y0173329D02*
X0294106Y0173329D01*
X0294106Y0172543D02*
X0292571Y0172543D01*
X0292571Y0171757D02*
X0294106Y0171757D01*
X0294106Y0170971D02*
X0292571Y0170971D01*
X0292571Y0170185D02*
X0294106Y0170185D01*
X0294106Y0169399D02*
X0292571Y0169399D01*
X0292571Y0168614D02*
X0294106Y0168614D01*
X0294710Y0167828D02*
X0291967Y0167828D01*
X0271170Y0211053D02*
X0268263Y0211053D01*
X0268949Y0211839D02*
X0270484Y0211839D01*
X0270484Y0212625D02*
X0268949Y0212625D01*
X0268949Y0213411D02*
X0270484Y0213411D01*
X0270484Y0214196D02*
X0268949Y0214196D01*
X0268949Y0214982D02*
X0270484Y0214982D01*
X0270484Y0215768D02*
X0268949Y0215768D01*
X0268949Y0216554D02*
X0270484Y0216554D01*
X0270484Y0217340D02*
X0268949Y0217340D01*
X0268281Y0218126D02*
X0271152Y0218126D01*
X0304756Y0239346D02*
X0305543Y0239346D01*
X0305543Y0238614D02*
X0305543Y0244114D01*
X0309833Y0244114D01*
X0310188Y0244019D01*
X0310505Y0243836D01*
X0310765Y0243576D01*
X0310948Y0243258D01*
X0311043Y0242904D01*
X0311043Y0238614D01*
X0305543Y0238614D01*
X0305543Y0238560D02*
X0328378Y0238560D01*
X0328378Y0238614D02*
X0328378Y0237827D01*
X0322878Y0237827D01*
X0322878Y0233537D01*
X0322973Y0233183D01*
X0323156Y0232865D01*
X0323416Y0232605D01*
X0323734Y0232422D01*
X0324088Y0232327D01*
X0328378Y0232327D01*
X0328378Y0237827D01*
X0329165Y0237827D01*
X0329165Y0232327D01*
X0333455Y0232327D01*
X0333810Y0232422D01*
X0334127Y0232605D01*
X0334387Y0232865D01*
X0334570Y0233183D01*
X0334665Y0233537D01*
X0334665Y0237827D01*
X0329165Y0237827D01*
X0329165Y0238614D01*
X0328378Y0238614D01*
X0322878Y0238614D01*
X0322878Y0242904D01*
X0322973Y0243258D01*
X0323156Y0243576D01*
X0323416Y0243836D01*
X0323734Y0244019D01*
X0324088Y0244114D01*
X0328378Y0244114D01*
X0328378Y0238614D01*
X0328378Y0239346D02*
X0329165Y0239346D01*
X0329165Y0238614D02*
X0329165Y0244114D01*
X0333455Y0244114D01*
X0333810Y0244019D01*
X0334127Y0243836D01*
X0334387Y0243576D01*
X0334570Y0243258D01*
X0334665Y0242904D01*
X0334665Y0238614D01*
X0329165Y0238614D01*
X0329165Y0238560D02*
X0352000Y0238560D01*
X0352000Y0239346D02*
X0352787Y0239346D01*
X0352787Y0240132D02*
X0352000Y0240132D01*
X0352000Y0240918D02*
X0352787Y0240918D01*
X0352787Y0241703D02*
X0352000Y0241703D01*
X0352000Y0242489D02*
X0352787Y0242489D01*
X0352787Y0243275D02*
X0352000Y0243275D01*
X0352000Y0244061D02*
X0352787Y0244061D01*
X0357275Y0244061D02*
X0370750Y0244061D01*
X0370297Y0243275D02*
X0358183Y0243275D01*
X0358287Y0242489D02*
X0369843Y0242489D01*
X0369612Y0241703D02*
X0358287Y0241703D01*
X0358287Y0240918D02*
X0369402Y0240918D01*
X0369191Y0240132D02*
X0358287Y0240132D01*
X0358287Y0239346D02*
X0369063Y0239346D01*
X0369063Y0238560D02*
X0352787Y0238560D01*
X0352787Y0237774D02*
X0352000Y0237774D01*
X0352000Y0236988D02*
X0352787Y0236988D01*
X0352787Y0236202D02*
X0352000Y0236202D01*
X0352000Y0235416D02*
X0352787Y0235416D01*
X0352787Y0234630D02*
X0352000Y0234630D01*
X0352000Y0233844D02*
X0352787Y0233844D01*
X0352787Y0233058D02*
X0352000Y0233058D01*
X0346667Y0233058D02*
X0334499Y0233058D01*
X0334665Y0233844D02*
X0346500Y0233844D01*
X0346500Y0234630D02*
X0334665Y0234630D01*
X0334665Y0235416D02*
X0346500Y0235416D01*
X0346500Y0236202D02*
X0334665Y0236202D01*
X0334665Y0236988D02*
X0346500Y0236988D01*
X0346500Y0237774D02*
X0334665Y0237774D01*
X0334665Y0239346D02*
X0346500Y0239346D01*
X0346500Y0240132D02*
X0334665Y0240132D01*
X0334665Y0240918D02*
X0346500Y0240918D01*
X0346500Y0241703D02*
X0334665Y0241703D01*
X0334665Y0242489D02*
X0346500Y0242489D01*
X0346605Y0243275D02*
X0334561Y0243275D01*
X0333653Y0244061D02*
X0347512Y0244061D01*
X0358287Y0237774D02*
X0369063Y0237774D01*
X0369063Y0236988D02*
X0358287Y0236988D01*
X0358287Y0236202D02*
X0369220Y0236202D01*
X0369430Y0235416D02*
X0358287Y0235416D01*
X0358287Y0234630D02*
X0369641Y0234630D01*
X0369905Y0233844D02*
X0358287Y0233844D01*
X0371204Y0244847D02*
X0026497Y0244847D01*
X0026950Y0244061D02*
X0300268Y0244061D01*
X0299361Y0243275D02*
X0027404Y0243275D01*
X0025736Y0245633D02*
X0371965Y0245633D01*
X0372751Y0246419D02*
X0024950Y0246419D01*
X0023966Y0247205D02*
X0373735Y0247205D01*
X0375096Y0247991D02*
X0022605Y0247991D01*
X0020427Y0248777D02*
X0377274Y0248777D01*
X0329165Y0244061D02*
X0328378Y0244061D01*
X0328378Y0243275D02*
X0329165Y0243275D01*
X0329165Y0242489D02*
X0328378Y0242489D01*
X0328378Y0241703D02*
X0329165Y0241703D01*
X0329165Y0240918D02*
X0328378Y0240918D01*
X0328378Y0240132D02*
X0329165Y0240132D01*
X0329165Y0237774D02*
X0328378Y0237774D01*
X0328378Y0236988D02*
X0329165Y0236988D01*
X0329165Y0236202D02*
X0328378Y0236202D01*
X0328378Y0235416D02*
X0329165Y0235416D01*
X0329165Y0234630D02*
X0328378Y0234630D01*
X0328378Y0233844D02*
X0329165Y0233844D01*
X0329165Y0233058D02*
X0328378Y0233058D01*
X0323045Y0233058D02*
X0310877Y0233058D01*
X0311043Y0233844D02*
X0322878Y0233844D01*
X0322878Y0234630D02*
X0311043Y0234630D01*
X0311043Y0235416D02*
X0322878Y0235416D01*
X0322878Y0236202D02*
X0311043Y0236202D01*
X0311043Y0236988D02*
X0322878Y0236988D01*
X0322878Y0237774D02*
X0311043Y0237774D01*
X0311043Y0239346D02*
X0322878Y0239346D01*
X0322878Y0240132D02*
X0311043Y0240132D01*
X0311043Y0240918D02*
X0322878Y0240918D01*
X0322878Y0241703D02*
X0311043Y0241703D01*
X0311043Y0242489D02*
X0322878Y0242489D01*
X0322983Y0243275D02*
X0310939Y0243275D01*
X0310031Y0244061D02*
X0323890Y0244061D01*
X0305543Y0244061D02*
X0304756Y0244061D01*
X0304756Y0243275D02*
X0305543Y0243275D01*
X0305543Y0242489D02*
X0304756Y0242489D01*
X0304756Y0241703D02*
X0305543Y0241703D01*
X0305543Y0240918D02*
X0304756Y0240918D01*
X0304756Y0240132D02*
X0305543Y0240132D01*
X0133348Y0022434D02*
X0067502Y0022434D01*
X0067937Y0014575D02*
X0132913Y0014575D01*
X0134446Y0013789D02*
X0066405Y0013789D01*
D26*
X0202787Y0100425D02*
X0202787Y0126733D01*
X0207582Y0131528D01*
X0230346Y0131528D01*
X0242157Y0131528D01*
X0257354Y0124539D02*
X0272000Y0124488D01*
X0202787Y0126733D02*
X0202787Y0127984D01*
D27*
X0239008Y0134083D02*
X0239008Y0134283D01*
X0239795Y0135071D01*
X0252412Y0135071D01*
X0253733Y0133750D01*
X0253733Y0133270D01*
X0253443Y0133270D01*
X0253443Y0130372D01*
X0253392Y0130372D01*
X0253392Y0133270D01*
X0252702Y0133270D01*
X0252384Y0133184D01*
X0252099Y0133020D01*
X0251866Y0132787D01*
X0251701Y0132502D01*
X0251616Y0132184D01*
X0251616Y0130372D01*
X0253392Y0130372D01*
X0253392Y0130321D01*
X0251616Y0130321D01*
X0251616Y0128772D01*
X0244941Y0128772D01*
X0245002Y0128788D01*
X0245287Y0128953D01*
X0245520Y0129185D01*
X0245684Y0129470D01*
X0245770Y0129788D01*
X0245770Y0131278D01*
X0242408Y0131278D01*
X0242408Y0131778D01*
X0242407Y0131778D02*
X0241907Y0131778D01*
X0241907Y0134352D01*
X0239631Y0134352D01*
X0239313Y0134267D01*
X0239028Y0134103D01*
X0239008Y0134083D01*
X0239008Y0134105D02*
X0239033Y0134105D01*
X0239328Y0134604D02*
X0252879Y0134604D01*
X0253378Y0134105D02*
X0245282Y0134105D01*
X0245287Y0134103D02*
X0245002Y0134267D01*
X0244684Y0134352D01*
X0242407Y0134352D01*
X0242407Y0131778D01*
X0242408Y0131778D02*
X0245770Y0131778D01*
X0245770Y0133267D01*
X0245684Y0133585D01*
X0245520Y0133870D01*
X0245287Y0134103D01*
X0245672Y0133607D02*
X0253733Y0133607D01*
X0253443Y0133108D02*
X0253392Y0133108D01*
X0253392Y0132610D02*
X0253443Y0132610D01*
X0253443Y0132111D02*
X0253392Y0132111D01*
X0253392Y0131613D02*
X0253443Y0131613D01*
X0253443Y0131114D02*
X0253392Y0131114D01*
X0253392Y0130616D02*
X0253443Y0130616D01*
X0251616Y0130616D02*
X0245770Y0130616D01*
X0245770Y0131114D02*
X0251616Y0131114D01*
X0251616Y0131613D02*
X0242408Y0131613D01*
X0242407Y0132111D02*
X0241907Y0132111D01*
X0241907Y0132610D02*
X0242407Y0132610D01*
X0242407Y0133108D02*
X0241907Y0133108D01*
X0241907Y0133607D02*
X0242407Y0133607D01*
X0242407Y0134105D02*
X0241907Y0134105D01*
X0245770Y0133108D02*
X0252252Y0133108D01*
X0251764Y0132610D02*
X0245770Y0132610D01*
X0245770Y0132111D02*
X0251616Y0132111D01*
X0251616Y0130117D02*
X0245770Y0130117D01*
X0245724Y0129619D02*
X0251616Y0129619D01*
X0251616Y0129120D02*
X0245455Y0129120D01*
D28*
X0395701Y0002000D02*
X0002000Y0002000D01*
X0002000Y0253969D01*
X0395701Y0253969D01*
X0395701Y0002000D01*
X0232709Y0064205D02*
X0224441Y0064205D01*
X0258693Y0107906D02*
X0259323Y0108535D01*
X0259323Y0118732D01*
X0259323Y0122571D01*
X0257354Y0124539D01*
X0257354Y0118732D02*
X0257354Y0116016D01*
X0256331Y0114992D01*
X0255651Y0114992D01*
X0255386Y0115257D01*
X0255386Y0118732D01*
X0253417Y0118732D02*
X0253417Y0115172D01*
X0253237Y0114992D01*
X0242551Y0114992D01*
X0242157Y0115386D01*
X0242157Y0124441D01*
X0242551Y0114992D02*
X0242157Y0114598D01*
X0242157Y0111843D01*
X0253237Y0114992D02*
X0255651Y0114992D01*
X0311843Y0143339D02*
X0314598Y0140583D01*
X0316961Y0140583D01*
X0318929Y0140583D01*
X0322079Y0140583D01*
X0322079Y0148457D01*
X0319520Y0148457D02*
X0319520Y0141173D01*
X0318929Y0140583D01*
X0314598Y0140583D02*
X0314598Y0148260D01*
X0314402Y0148457D01*
X0311843Y0148457D02*
X0311843Y0143339D01*
X0337039Y0151213D02*
X0337039Y0155230D01*
X0337353Y0155543D01*
X0341665Y0155543D01*
X0341665Y0157512D02*
X0337385Y0157512D01*
X0337039Y0157166D01*
X0337039Y0155230D01*
X0337039Y0157166D02*
X0337039Y0161269D01*
X0337219Y0161449D01*
X0341665Y0161449D01*
X0341665Y0163417D02*
X0338220Y0163417D01*
X0337039Y0162236D01*
X0337039Y0161269D01*
X0337039Y0151213D02*
X0344520Y0143732D01*
X0348063Y0143732D02*
X0351409Y0147079D01*
X0351409Y0152689D01*
X0355248Y0155543D02*
X0357906Y0155543D01*
X0364205Y0149244D01*
X0364205Y0139402D01*
X0359480Y0159480D02*
X0355248Y0159480D01*
X0355248Y0161449D02*
X0359480Y0161449D01*
X0359874Y0161055D01*
X0359874Y0159874D01*
X0359480Y0159480D01*
X0309283Y0170504D02*
X0309283Y0173934D01*
X0309220Y0173997D01*
X0309220Y0174307D01*
X0307512Y0176016D01*
X0303575Y0176016D01*
X0298850Y0171291D01*
X0296882Y0171291D01*
X0246488Y0214598D02*
X0231528Y0229559D01*
D29*
X0285465Y0214598D03*
X0344520Y0143732D03*
X0348457Y0108299D03*
X0348457Y0053181D03*
X0230346Y0108299D03*
X0257349Y0139199D03*
D30*
X0230346Y0124441D02*
X0230346Y0108299D01*
X0233890Y0104756D01*
X0242157Y0104756D01*
X0289402Y0084677D02*
X0289402Y0068535D01*
X0289402Y0061449D02*
X0289402Y0025622D01*
X0309087Y0025622D02*
X0309087Y0061449D01*
X0328772Y0064992D02*
X0328772Y0025622D01*
X0348457Y0037827D02*
X0360268Y0037827D01*
X0360268Y0044913D02*
X0371685Y0044913D01*
X0376016Y0049244D01*
X0360268Y0044913D02*
X0358831Y0046350D01*
X0358831Y0061449D01*
X0353831Y0061449D02*
X0353831Y0066429D01*
X0358831Y0071429D01*
X0358831Y0084283D01*
X0358831Y0098319D01*
X0356331Y0100819D01*
X0348063Y0100819D01*
X0328772Y0120110D01*
X0309087Y0139795D01*
X0289402Y0139795D01*
X0316961Y0170504D02*
X0319520Y0170504D01*
X0311528Y0174953D02*
X0311528Y0176724D01*
X0305150Y0183102D01*
X0296882Y0183102D01*
X0289795Y0183102D02*
X0289795Y0171291D01*
X0254362Y0190976D02*
X0242551Y0194913D01*
X0242157Y0190583D01*
X0242157Y0198850D01*
X0246094Y0202787D01*
X0242157Y0198850D02*
X0236783Y0204224D01*
X0229953Y0204224D01*
X0229953Y0209224D02*
X0241114Y0209224D01*
X0246488Y0214598D01*
X0253575Y0214598D02*
X0266173Y0214598D01*
X0273260Y0214598D02*
X0285465Y0214598D01*
X0242157Y0183496D02*
X0242197Y0171803D01*
X0207118Y0204224D02*
X0207118Y0209224D01*
X0341665Y0146587D02*
X0344520Y0143732D01*
X0348063Y0143732D01*
X0352394Y0139402D01*
X0351409Y0140386D01*
X0352394Y0132315D02*
X0364205Y0132315D01*
X0368142Y0107906D02*
X0356331Y0107906D01*
X0348850Y0107906D01*
X0348457Y0108299D01*
X0363831Y0096508D02*
X0368142Y0100819D01*
X0363831Y0096508D02*
X0363831Y0084283D01*
X0353831Y0084283D02*
X0353831Y0078240D01*
X0340583Y0064992D01*
X0328772Y0064992D01*
X0348831Y0061449D02*
X0348831Y0053555D01*
X0348457Y0053181D01*
X0348457Y0044913D01*
X0248457Y0064205D02*
X0239795Y0064205D01*
D31*
X0330346Y0153969D03*
X0351606Y0173654D03*
X0358299Y0176409D03*
X0352394Y0189008D03*
X0342787Y0183761D03*
X0340976Y0190976D03*
X0328772Y0189008D03*
X0305150Y0189008D03*
X0364992Y0157512D03*
X0190583Y0226409D03*
D32*
X0305150Y0214598D02*
X0305150Y0202892D01*
X0305150Y0202394D01*
X0305150Y0195307D02*
X0305150Y0189008D01*
X0328772Y0189008D02*
X0328772Y0195307D01*
X0328772Y0202394D02*
X0328772Y0202711D01*
X0328772Y0214598D01*
X0352394Y0214598D02*
X0352394Y0202394D01*
X0352394Y0195307D02*
X0352394Y0189008D01*
X0232709Y0064205D02*
X0233102Y0063811D01*
D33*
X0330346Y0153969D02*
X0318351Y0165964D01*
X0315696Y0165964D01*
X0314402Y0167258D01*
X0314402Y0170504D01*
X0314402Y0193640D01*
X0305150Y0202892D01*
X0322079Y0195701D02*
X0328772Y0202394D01*
X0328772Y0202711D02*
X0340506Y0190976D01*
X0340976Y0190976D01*
X0342787Y0183761D02*
X0348641Y0189615D01*
X0348641Y0198641D01*
X0352394Y0202394D01*
X0348641Y0189615D02*
X0348641Y0188688D01*
X0342787Y0183761D02*
X0337404Y0178378D01*
X0326409Y0178378D01*
X0324638Y0176606D01*
X0324638Y0170504D01*
X0322079Y0170504D02*
X0322079Y0195701D01*
X0351213Y0173260D02*
X0351606Y0173654D01*
X0351213Y0173260D02*
X0351213Y0171685D01*
X0351409Y0171488D01*
X0351409Y0166272D01*
X0355248Y0163417D02*
X0361449Y0163417D01*
X0363024Y0164992D01*
X0363024Y0172472D01*
X0359480Y0176016D01*
X0358693Y0176016D01*
X0358299Y0176409D01*
X0359087Y0163417D02*
X0355248Y0163417D01*
X0355248Y0157512D02*
X0364992Y0157512D01*
X0242197Y0171803D02*
X0229835Y0171803D01*
X0226409Y0175228D01*
X0206724Y0187039D02*
X0218909Y0199224D01*
X0229953Y0199224D01*
X0207118Y0204224D02*
X0206862Y0203969D01*
X0200031Y0203969D01*
X0198850Y0202787D01*
X0190583Y0202787D01*
X0183496Y0209874D01*
X0183496Y0214598D01*
X0190583Y0214598D02*
X0190583Y0226409D01*
X0199244Y0226409D01*
X0206331Y0226409D02*
X0207118Y0225622D01*
X0207118Y0214224D01*
D34*
X0303575Y0176016D03*
X0316961Y0140583D03*
X0224441Y0064205D03*
D35*
X0135858Y0018339D02*
X0064992Y0018339D01*
X0202787Y0151606D02*
X0135858Y0218535D01*
X0135858Y0237630D01*
M02*
