G75*
%MOIN*%
%OFA0B0*%
%FSLAX25Y25*%
%IPPOS*%
%LPD*%
%AMOC8*
5,1,8,0,0,1.08239X$1,22.5*
%
%ADD10C,0.13792*%
%ADD11R,0.01902X0.04146*%
%ADD12R,0.12611X0.07099*%
%ADD13R,0.07099X0.09461*%
%ADD14R,0.05524X0.03950*%
%ADD15R,0.03950X0.05524*%
%ADD16R,0.09800X0.09800*%
%ADD17R,0.03556X0.06706*%
%ADD18R,0.08871X0.08871*%
%ADD19R,0.04146X0.01902*%
%ADD20R,0.02178X0.07099*%
%ADD21R,0.06706X0.03556*%
%ADD22R,0.03950X0.02769*%
%ADD23C,0.07887*%
%ADD24C,0.09835*%
%ADD25C,0.04762*%
%ADD26C,0.03778*%
%ADD27C,0.03975*%
D10*
X0017748Y0017748D03*
X0017748Y0238220D03*
X0379953Y0238220D03*
X0379953Y0017748D03*
D11*
X0261291Y0118732D03*
X0259323Y0118732D03*
X0257354Y0118732D03*
X0255386Y0118732D03*
X0253417Y0118732D03*
X0253417Y0130346D03*
X0255386Y0130346D03*
X0257354Y0130346D03*
X0259323Y0130346D03*
X0261291Y0130346D03*
X0345504Y0152689D03*
X0351409Y0152689D03*
X0351409Y0166272D03*
X0345504Y0166272D03*
D12*
X0257354Y0124539D03*
D13*
X0252394Y0147669D03*
X0263417Y0147669D03*
D14*
X0242157Y0131528D03*
X0242157Y0124441D03*
X0230346Y0124441D03*
X0230346Y0131528D03*
X0242157Y0111843D03*
X0242157Y0104756D03*
X0289402Y0068535D03*
X0289402Y0061449D03*
X0309087Y0061449D03*
X0309087Y0068535D03*
X0348457Y0044913D03*
X0348457Y0037827D03*
X0360268Y0037827D03*
X0360268Y0044913D03*
X0356331Y0100819D03*
X0356331Y0107906D03*
X0368142Y0107906D03*
X0368142Y0100819D03*
X0364205Y0132315D03*
X0364205Y0139402D03*
X0352394Y0139402D03*
X0352394Y0132315D03*
X0352394Y0195307D03*
X0352394Y0202394D03*
X0328772Y0202394D03*
X0328772Y0195307D03*
X0305150Y0195307D03*
X0305150Y0202394D03*
X0242157Y0190583D03*
X0242157Y0183496D03*
D15*
X0254362Y0190976D03*
X0261449Y0190976D03*
X0289795Y0183102D03*
X0296882Y0183102D03*
X0296882Y0171291D03*
X0289795Y0171291D03*
X0249283Y0171803D03*
X0242197Y0171803D03*
X0190583Y0202787D03*
X0183496Y0202787D03*
X0183496Y0214598D03*
X0190583Y0214598D03*
X0199244Y0226409D03*
X0206331Y0226409D03*
X0246488Y0214598D03*
X0253575Y0214598D03*
X0266173Y0214598D03*
X0273260Y0214598D03*
X0265780Y0107906D03*
X0258693Y0107906D03*
X0255543Y0064205D03*
X0248457Y0064205D03*
X0239795Y0064205D03*
X0232709Y0064205D03*
D16*
X0202787Y0076803D03*
X0202787Y0100425D03*
X0202787Y0127984D03*
X0202787Y0151606D03*
X0226409Y0175228D03*
X0206724Y0187039D03*
X0231528Y0229559D03*
X0305150Y0238220D03*
X0328772Y0238220D03*
X0352394Y0238220D03*
X0352394Y0214598D03*
X0328772Y0214598D03*
X0305150Y0214598D03*
X0376016Y0049244D03*
X0236646Y0035465D03*
X0194126Y0035071D03*
D17*
X0348831Y0061449D03*
X0353831Y0061449D03*
X0358831Y0061449D03*
X0363831Y0061449D03*
X0363831Y0084283D03*
X0358831Y0084283D03*
X0353831Y0084283D03*
X0348831Y0084283D03*
D18*
X0348457Y0159480D03*
D19*
X0341665Y0159480D03*
X0341665Y0157512D03*
X0341665Y0155543D03*
X0341665Y0161449D03*
X0341665Y0163417D03*
X0355248Y0163417D03*
X0355248Y0161449D03*
X0355248Y0159480D03*
X0355248Y0157512D03*
X0355248Y0155543D03*
D20*
X0324638Y0148457D03*
X0322079Y0148457D03*
X0319520Y0148457D03*
X0316961Y0148457D03*
X0314402Y0148457D03*
X0311843Y0148457D03*
X0309283Y0148457D03*
X0309283Y0170504D03*
X0311843Y0170504D03*
X0314402Y0170504D03*
X0316961Y0170504D03*
X0319520Y0170504D03*
X0322079Y0170504D03*
X0324638Y0170504D03*
D21*
X0229953Y0199224D03*
X0229953Y0204224D03*
X0229953Y0209224D03*
X0229953Y0214224D03*
X0207118Y0214224D03*
X0207118Y0209224D03*
X0207118Y0204224D03*
X0207118Y0199224D03*
D22*
X0246094Y0202787D03*
X0253969Y0202787D03*
D23*
X0135858Y0237630D03*
X0064992Y0237630D03*
X0272000Y0124488D03*
X0289402Y0025622D03*
X0309087Y0025622D03*
X0328772Y0025622D03*
X0135858Y0018339D03*
X0064992Y0018339D03*
D24*
X0289402Y0084677D03*
X0328772Y0064992D03*
X0328772Y0120110D03*
X0289402Y0139795D03*
D25*
X0257349Y0139199D03*
X0230346Y0108299D03*
X0344520Y0143732D03*
X0348457Y0108299D03*
X0348457Y0053181D03*
X0285465Y0214598D03*
D26*
X0305150Y0189008D03*
X0328772Y0189008D03*
X0340976Y0190976D03*
X0342787Y0183761D03*
X0352394Y0189008D03*
X0358299Y0176409D03*
X0351606Y0173654D03*
X0364992Y0157512D03*
X0330346Y0153969D03*
X0190583Y0226409D03*
D27*
X0303575Y0176016D03*
X0316961Y0140583D03*
X0224441Y0064205D03*
M02*
