G75*
%MOIN*%
%OFA0B0*%
%FSLAX25Y25*%
%IPPOS*%
%LPD*%
%AMOC8*
5,1,8,0,0,1.08239X$1,22.5*
%
%ADD10C,0.00600*%
%ADD11C,0.00800*%
%ADD12C,0.00200*%
%ADD13C,0.00500*%
%ADD14C,0.00300*%
D10*
X0251658Y0286879D02*
X0251658Y0302879D01*
X0275658Y0302879D01*
X0275658Y0286879D01*
X0251658Y0286879D01*
X0251658Y0287190D02*
X0275658Y0287190D01*
X0275658Y0287788D02*
X0251658Y0287788D01*
X0251658Y0288387D02*
X0275658Y0288387D01*
X0275658Y0288985D02*
X0251658Y0288985D01*
X0251658Y0289584D02*
X0275658Y0289584D01*
X0275658Y0290182D02*
X0251658Y0290182D01*
X0251658Y0290781D02*
X0275658Y0290781D01*
X0275658Y0291379D02*
X0251658Y0291379D01*
X0251658Y0291978D02*
X0275658Y0291978D01*
X0275658Y0292576D02*
X0251658Y0292576D01*
X0251658Y0293175D02*
X0275658Y0293175D01*
X0275658Y0293773D02*
X0251658Y0293773D01*
X0251658Y0294372D02*
X0275658Y0294372D01*
X0275658Y0294970D02*
X0251658Y0294970D01*
X0251658Y0295569D02*
X0275658Y0295569D01*
X0275658Y0296167D02*
X0251658Y0296167D01*
X0251658Y0296766D02*
X0275658Y0296766D01*
X0275658Y0297364D02*
X0251658Y0297364D01*
X0251658Y0297963D02*
X0275658Y0297963D01*
X0275658Y0298561D02*
X0251658Y0298561D01*
X0251658Y0299160D02*
X0275658Y0299160D01*
X0275658Y0299758D02*
X0251658Y0299758D01*
X0251658Y0300357D02*
X0275658Y0300357D01*
X0275658Y0300955D02*
X0251658Y0300955D01*
X0251658Y0301554D02*
X0275658Y0301554D01*
X0275658Y0302152D02*
X0251658Y0302152D01*
X0251658Y0302751D02*
X0275658Y0302751D01*
X0274306Y0307163D02*
X0272171Y0307163D01*
X0271104Y0308231D01*
X0268929Y0308231D02*
X0267861Y0309298D01*
X0264658Y0309298D01*
X0264658Y0310366D02*
X0264658Y0307163D01*
X0267861Y0307163D01*
X0268929Y0308231D01*
X0267861Y0311433D02*
X0265726Y0311433D01*
X0264658Y0310366D01*
X0262483Y0310366D02*
X0261415Y0311433D01*
X0259280Y0311433D01*
X0258213Y0310366D01*
X0258213Y0309298D01*
X0262483Y0309298D01*
X0262483Y0308231D02*
X0262483Y0310366D01*
X0262483Y0308231D02*
X0261415Y0307163D01*
X0259280Y0307163D01*
X0256038Y0307163D02*
X0253902Y0307163D01*
X0254970Y0307163D02*
X0254970Y0313568D01*
X0256038Y0313568D01*
X0258213Y0316595D02*
X0258213Y0321933D01*
X0261415Y0321933D01*
X0262483Y0320866D01*
X0262483Y0318731D01*
X0261415Y0317663D01*
X0258213Y0317663D01*
X0258213Y0316595D02*
X0259280Y0315528D01*
X0260348Y0315528D01*
X0264658Y0317663D02*
X0264658Y0321933D01*
X0264658Y0317663D02*
X0267861Y0317663D01*
X0268929Y0318731D01*
X0268929Y0321933D01*
X0271104Y0321933D02*
X0271104Y0317663D01*
X0271104Y0320866D02*
X0275374Y0320866D01*
X0275374Y0321933D02*
X0273239Y0324068D01*
X0271104Y0321933D01*
X0275374Y0321933D02*
X0275374Y0317663D01*
X0274306Y0313568D02*
X0275374Y0312501D01*
X0275374Y0308231D01*
X0274306Y0307163D01*
X0271104Y0312501D02*
X0272171Y0313568D01*
X0274306Y0313568D01*
X0256038Y0318731D02*
X0254970Y0317663D01*
X0251767Y0317663D01*
X0251767Y0321933D01*
X0249592Y0320866D02*
X0248524Y0321933D01*
X0245322Y0321933D01*
X0243147Y0321933D02*
X0241011Y0321933D01*
X0242079Y0323001D02*
X0242079Y0318731D01*
X0241011Y0317663D01*
X0245322Y0318731D02*
X0246389Y0319798D01*
X0248524Y0319798D01*
X0249592Y0320866D01*
X0249592Y0317663D02*
X0246389Y0317663D01*
X0245322Y0318731D01*
X0245295Y0311433D02*
X0242092Y0311433D01*
X0241025Y0310366D01*
X0241025Y0307163D01*
X0245295Y0307163D02*
X0245295Y0311433D01*
X0247470Y0310366D02*
X0247470Y0307163D01*
X0250673Y0307163D01*
X0251741Y0308231D01*
X0250673Y0309298D01*
X0247470Y0309298D01*
X0247470Y0310366D02*
X0248538Y0311433D01*
X0250673Y0311433D01*
X0256038Y0318731D02*
X0256038Y0321933D01*
X0256038Y0328163D02*
X0253902Y0328163D01*
X0254970Y0328163D02*
X0254970Y0332433D01*
X0256038Y0332433D01*
X0254970Y0334568D02*
X0254970Y0335636D01*
X0253909Y0338663D02*
X0252841Y0339731D01*
X0252841Y0342933D01*
X0250666Y0342933D02*
X0247464Y0342933D01*
X0246396Y0341866D01*
X0246396Y0338663D01*
X0250666Y0338663D02*
X0250666Y0342933D01*
X0253909Y0338663D02*
X0254977Y0339731D01*
X0256044Y0338663D01*
X0257112Y0339731D01*
X0257112Y0342933D01*
X0259287Y0341866D02*
X0260355Y0342933D01*
X0262490Y0342933D01*
X0263557Y0341866D01*
X0263557Y0339731D01*
X0262490Y0338663D01*
X0260355Y0338663D01*
X0259287Y0339731D01*
X0259287Y0341866D01*
X0265726Y0342933D02*
X0266793Y0342933D01*
X0268929Y0340798D01*
X0268929Y0338663D02*
X0268929Y0342933D01*
X0271104Y0342933D02*
X0272171Y0341866D01*
X0275374Y0341866D01*
X0275374Y0345068D02*
X0275374Y0338663D01*
X0272171Y0338663D01*
X0271104Y0339731D01*
X0271104Y0340798D01*
X0272171Y0341866D01*
X0271104Y0342933D02*
X0271104Y0344001D01*
X0272171Y0345068D01*
X0275374Y0345068D01*
X0275374Y0334568D02*
X0271104Y0334568D01*
X0268929Y0333501D02*
X0267861Y0334568D01*
X0265726Y0334568D01*
X0264658Y0333501D01*
X0264658Y0329231D01*
X0265726Y0328163D01*
X0267861Y0328163D01*
X0268929Y0329231D01*
X0268929Y0333501D01*
X0266793Y0330298D02*
X0264658Y0328163D01*
X0262483Y0329231D02*
X0261415Y0328163D01*
X0259280Y0328163D01*
X0258213Y0329231D01*
X0258213Y0334568D01*
X0262483Y0334568D02*
X0262483Y0329231D01*
X0271104Y0328163D02*
X0275374Y0328163D01*
X0275374Y0334568D01*
X0275374Y0331366D02*
X0273239Y0331366D01*
X0251741Y0332433D02*
X0250673Y0331366D01*
X0248538Y0331366D01*
X0247470Y0330298D01*
X0247470Y0329231D01*
X0248538Y0328163D01*
X0250673Y0328163D01*
X0251741Y0329231D01*
X0251741Y0332433D02*
X0251741Y0333501D01*
X0250673Y0334568D01*
X0248538Y0334568D01*
X0247470Y0333501D01*
X0244227Y0332433D02*
X0242092Y0332433D01*
X0241025Y0331366D01*
X0241025Y0328163D01*
X0244227Y0328163D01*
X0245295Y0329231D01*
X0244227Y0330298D01*
X0241025Y0330298D01*
X0238850Y0332433D02*
X0236714Y0332433D01*
X0237782Y0333501D02*
X0237782Y0329231D01*
X0236714Y0328163D01*
X0234553Y0328163D02*
X0234553Y0329231D01*
X0233485Y0329231D01*
X0233485Y0328163D01*
X0234553Y0328163D01*
X0234553Y0331366D02*
X0234553Y0332433D01*
X0233485Y0332433D01*
X0233485Y0331366D01*
X0234553Y0331366D01*
X0231330Y0336528D02*
X0231330Y0342933D01*
X0228127Y0342933D01*
X0227059Y0341866D01*
X0227059Y0339731D01*
X0228127Y0338663D01*
X0231330Y0338663D01*
X0233505Y0339731D02*
X0234573Y0338663D01*
X0236708Y0338663D01*
X0237775Y0339731D01*
X0236708Y0341866D02*
X0234573Y0341866D01*
X0233505Y0340798D01*
X0233505Y0339731D01*
X0236708Y0341866D02*
X0237775Y0342933D01*
X0237775Y0344001D01*
X0236708Y0345068D01*
X0234573Y0345068D01*
X0233505Y0344001D01*
X0224884Y0339731D02*
X0223817Y0340798D01*
X0220614Y0340798D01*
X0220614Y0341866D02*
X0220614Y0338663D01*
X0223817Y0338663D01*
X0224884Y0339731D01*
X0223817Y0342933D02*
X0221682Y0342933D01*
X0220614Y0341866D01*
X0218439Y0341866D02*
X0218439Y0339731D01*
X0217371Y0338663D01*
X0214168Y0338663D01*
X0211993Y0339731D02*
X0211993Y0341866D01*
X0210926Y0342933D01*
X0208791Y0342933D01*
X0207723Y0341866D01*
X0207723Y0340798D01*
X0211993Y0340798D01*
X0211993Y0339731D02*
X0210926Y0338663D01*
X0208791Y0338663D01*
X0207723Y0334568D02*
X0211993Y0334568D01*
X0211993Y0328163D01*
X0214168Y0329231D02*
X0215236Y0328163D01*
X0218439Y0328163D01*
X0218439Y0334568D01*
X0215236Y0334568D01*
X0214168Y0333501D01*
X0214168Y0332433D01*
X0215236Y0331366D01*
X0218439Y0331366D01*
X0220614Y0331366D02*
X0224884Y0331366D01*
X0224884Y0332433D02*
X0222749Y0334568D01*
X0220614Y0332433D01*
X0220614Y0328163D01*
X0224884Y0328163D02*
X0224884Y0332433D01*
X0224891Y0324068D02*
X0222756Y0324068D01*
X0221688Y0323001D01*
X0225959Y0318731D01*
X0224891Y0317663D01*
X0222756Y0317663D01*
X0221688Y0318731D01*
X0221688Y0323001D01*
X0219513Y0321933D02*
X0217378Y0324068D01*
X0217378Y0317663D01*
X0219513Y0317663D02*
X0215243Y0317663D01*
X0213068Y0317663D02*
X0213068Y0318731D01*
X0208797Y0323001D01*
X0208797Y0324068D01*
X0213068Y0324068D01*
X0214168Y0329231D02*
X0214168Y0330298D01*
X0215236Y0331366D01*
X0211993Y0331366D02*
X0209858Y0331366D01*
X0199102Y0330298D02*
X0195900Y0330298D01*
X0194832Y0331366D01*
X0194832Y0333501D01*
X0195900Y0334568D01*
X0199102Y0334568D01*
X0199102Y0328163D01*
X0192657Y0329231D02*
X0191589Y0330298D01*
X0188386Y0330298D01*
X0188386Y0331366D02*
X0188386Y0328163D01*
X0191589Y0328163D01*
X0192657Y0329231D01*
X0191589Y0332433D02*
X0189454Y0332433D01*
X0188386Y0331366D01*
X0186211Y0332433D02*
X0183009Y0332433D01*
X0181941Y0331366D01*
X0181941Y0328163D01*
X0179766Y0329231D02*
X0179766Y0331366D01*
X0178698Y0332433D01*
X0176563Y0332433D01*
X0175495Y0331366D01*
X0175495Y0330298D01*
X0179766Y0330298D01*
X0179766Y0329231D02*
X0178698Y0328163D01*
X0176563Y0328163D01*
X0173320Y0328163D02*
X0171185Y0328163D01*
X0172253Y0328163D02*
X0172253Y0334568D01*
X0173320Y0334568D01*
X0171198Y0338663D02*
X0171198Y0341866D01*
X0172266Y0342933D01*
X0175469Y0342933D01*
X0175469Y0338663D01*
X0177631Y0338663D02*
X0179766Y0338663D01*
X0178698Y0338663D02*
X0178698Y0342933D01*
X0179766Y0342933D01*
X0181941Y0342933D02*
X0185144Y0342933D01*
X0186211Y0341866D01*
X0186211Y0339731D01*
X0185144Y0338663D01*
X0181941Y0338663D01*
X0181941Y0337595D02*
X0181941Y0342933D01*
X0178698Y0345068D02*
X0178698Y0346136D01*
X0181941Y0337595D02*
X0183009Y0336528D01*
X0184076Y0336528D01*
X0186211Y0332433D02*
X0186211Y0328163D01*
X0188386Y0338663D02*
X0188386Y0341866D01*
X0189454Y0342933D01*
X0192657Y0342933D01*
X0192657Y0338663D01*
X0194832Y0338663D02*
X0199102Y0338663D01*
X0199102Y0345068D01*
X0194832Y0345068D01*
X0196967Y0341866D02*
X0199102Y0341866D01*
X0214168Y0342933D02*
X0217371Y0342933D01*
X0218439Y0341866D01*
X0224891Y0324068D02*
X0225959Y0323001D01*
X0225959Y0318731D01*
X0228134Y0317663D02*
X0232404Y0317663D01*
X0228134Y0321933D01*
X0228134Y0323001D01*
X0229201Y0324068D01*
X0231336Y0324068D01*
X0232404Y0323001D01*
X0224891Y0314636D02*
X0224891Y0313568D01*
X0224891Y0311433D02*
X0224891Y0307163D01*
X0225959Y0307163D02*
X0223823Y0307163D01*
X0220594Y0308231D02*
X0220594Y0312501D01*
X0221662Y0311433D02*
X0219526Y0311433D01*
X0217365Y0311433D02*
X0215229Y0311433D01*
X0216297Y0312501D02*
X0216297Y0308231D01*
X0215229Y0307163D01*
X0213068Y0308231D02*
X0213068Y0310366D01*
X0212000Y0311433D01*
X0209865Y0311433D01*
X0208797Y0310366D01*
X0208797Y0309298D01*
X0213068Y0309298D01*
X0213068Y0308231D02*
X0212000Y0307163D01*
X0209865Y0307163D01*
X0206622Y0307163D02*
X0206622Y0311433D01*
X0206622Y0309298D02*
X0204487Y0311433D01*
X0203419Y0311433D01*
X0219526Y0307163D02*
X0220594Y0308231D01*
X0224891Y0311433D02*
X0225959Y0311433D01*
X0228134Y0310366D02*
X0229201Y0309298D01*
X0232404Y0309298D01*
X0232404Y0307163D02*
X0232404Y0313568D01*
X0229201Y0313568D01*
X0228134Y0312501D01*
X0228134Y0310366D01*
X0230269Y0309298D02*
X0228134Y0307163D01*
X0169023Y0339731D02*
X0169023Y0341866D01*
X0167956Y0342933D01*
X0165821Y0342933D01*
X0164753Y0341866D01*
X0164753Y0340798D01*
X0169023Y0340798D01*
X0169023Y0339731D02*
X0167956Y0338663D01*
X0165821Y0338663D01*
X0162578Y0339731D02*
X0162578Y0341866D01*
X0161510Y0342933D01*
X0159375Y0342933D01*
X0158308Y0341866D01*
X0158308Y0340798D01*
X0162578Y0340798D01*
X0162578Y0339731D02*
X0161510Y0338663D01*
X0159375Y0338663D01*
X0156132Y0338663D02*
X0156132Y0342933D01*
X0156132Y0340798D02*
X0153997Y0342933D01*
X0152930Y0342933D01*
X0150761Y0342933D02*
X0149694Y0342933D01*
X0149694Y0338663D01*
X0150761Y0338663D02*
X0148626Y0338663D01*
X0146464Y0338663D02*
X0146464Y0342933D01*
X0143261Y0342933D01*
X0142194Y0341866D01*
X0142194Y0338663D01*
X0140019Y0339731D02*
X0138951Y0338663D01*
X0135748Y0338663D01*
X0135748Y0337595D02*
X0135748Y0342933D01*
X0138951Y0342933D01*
X0140019Y0341866D01*
X0140019Y0339731D01*
X0137883Y0336528D02*
X0136816Y0336528D01*
X0135748Y0337595D01*
X0149694Y0345068D02*
X0149694Y0346136D01*
X0153997Y0334568D02*
X0153997Y0328163D01*
X0156132Y0328163D02*
X0151862Y0328163D01*
X0156132Y0332433D02*
X0153997Y0334568D01*
X0158308Y0334568D02*
X0158308Y0330298D01*
X0160443Y0328163D01*
X0162578Y0330298D01*
X0162578Y0334568D01*
D11*
X0082931Y0225113D02*
X0076792Y0225113D01*
X0082931Y0225113D02*
X0082931Y0226648D01*
X0076792Y0232787D01*
X0076792Y0234321D01*
X0082931Y0234321D01*
X0086000Y0229717D02*
X0092139Y0229717D01*
X0366447Y0271531D02*
X0372586Y0271531D01*
X0372586Y0273065D01*
X0366447Y0279204D01*
X0366447Y0280739D01*
X0372586Y0280739D01*
X0375655Y0276135D02*
X0381794Y0276135D01*
X0378724Y0279204D02*
X0378724Y0273065D01*
D12*
X0324151Y0277963D02*
X0321349Y0277963D01*
X0321349Y0279831D01*
X0321349Y0280725D02*
X0321349Y0281659D01*
X0321349Y0281192D02*
X0324151Y0281192D01*
X0324151Y0280725D02*
X0324151Y0281659D01*
X0323684Y0282567D02*
X0321816Y0282567D01*
X0321349Y0283034D01*
X0321349Y0283968D01*
X0321816Y0284435D01*
X0323684Y0284435D01*
X0324151Y0283968D01*
X0324151Y0283034D01*
X0323684Y0282567D01*
X0324151Y0285329D02*
X0321349Y0287198D01*
X0324151Y0287198D01*
X0322750Y0288092D02*
X0322750Y0289960D01*
X0321349Y0290854D02*
X0321349Y0291788D01*
X0321349Y0291321D02*
X0324151Y0291321D01*
X0324151Y0290854D02*
X0324151Y0291788D01*
X0324151Y0292696D02*
X0321349Y0294564D01*
X0324151Y0294564D01*
X0324151Y0292696D02*
X0321349Y0292696D01*
X0321349Y0285329D02*
X0324151Y0285329D01*
X0306435Y0286213D02*
X0303632Y0286213D01*
X0306435Y0284345D01*
X0303632Y0284345D01*
X0304099Y0283451D02*
X0305968Y0283451D01*
X0306435Y0282984D01*
X0306435Y0282050D01*
X0305968Y0281583D01*
X0304099Y0281583D01*
X0303632Y0282050D01*
X0303632Y0282984D01*
X0304099Y0283451D01*
X0303632Y0280675D02*
X0303632Y0279741D01*
X0303632Y0280208D02*
X0306435Y0280208D01*
X0306435Y0279741D02*
X0306435Y0280675D01*
X0303632Y0278847D02*
X0303632Y0276979D01*
X0306435Y0276979D01*
X0305033Y0287107D02*
X0305033Y0288976D01*
X0303632Y0289870D02*
X0303632Y0290804D01*
X0303632Y0290337D02*
X0306435Y0290337D01*
X0306435Y0289870D02*
X0306435Y0290804D01*
X0306435Y0291711D02*
X0303632Y0293580D01*
X0306435Y0293580D01*
X0306435Y0291711D02*
X0303632Y0291711D01*
X0284653Y0294295D02*
X0284226Y0293869D01*
X0283374Y0293869D01*
X0282947Y0294295D01*
X0282947Y0294721D01*
X0283374Y0295148D01*
X0284226Y0295148D01*
X0284653Y0295574D01*
X0284653Y0296000D01*
X0284226Y0296427D01*
X0283374Y0296427D01*
X0282947Y0296000D01*
X0282115Y0296427D02*
X0280410Y0293869D01*
X0280410Y0296427D01*
X0279578Y0295574D02*
X0279578Y0295148D01*
X0279151Y0295148D01*
X0279151Y0295574D01*
X0279578Y0295574D01*
X0279578Y0294295D02*
X0279578Y0293869D01*
X0279151Y0293869D01*
X0279151Y0294295D01*
X0279578Y0294295D01*
X0282115Y0293869D02*
X0282115Y0296427D01*
X0298711Y0310443D02*
X0298711Y0312312D01*
X0298711Y0313206D02*
X0298711Y0314140D01*
X0298711Y0313673D02*
X0301513Y0313673D01*
X0301513Y0313206D02*
X0301513Y0314140D01*
X0301046Y0315047D02*
X0299178Y0315047D01*
X0298711Y0315514D01*
X0298711Y0316448D01*
X0299178Y0316915D01*
X0301046Y0316915D01*
X0301513Y0316448D01*
X0301513Y0315514D01*
X0301046Y0315047D01*
X0301513Y0317810D02*
X0298711Y0319678D01*
X0301513Y0319678D01*
X0300112Y0320572D02*
X0300112Y0322440D01*
X0299178Y0323334D02*
X0298711Y0323801D01*
X0298711Y0324735D01*
X0299178Y0325203D01*
X0301046Y0325203D01*
X0301513Y0324735D01*
X0301513Y0323801D01*
X0301046Y0323334D01*
X0299178Y0323334D01*
X0299178Y0326097D02*
X0298711Y0326564D01*
X0298711Y0327498D01*
X0299178Y0327965D01*
X0301513Y0327965D01*
X0301513Y0328859D02*
X0301513Y0330727D01*
X0301513Y0329793D02*
X0298711Y0329793D01*
X0299178Y0326097D02*
X0301513Y0326097D01*
X0301513Y0317810D02*
X0298711Y0317810D01*
X0298711Y0310443D02*
X0301513Y0310443D01*
X0321349Y0310443D02*
X0321349Y0312312D01*
X0321349Y0313206D02*
X0321349Y0314140D01*
X0321349Y0313673D02*
X0324151Y0313673D01*
X0324151Y0313206D02*
X0324151Y0314140D01*
X0323684Y0315047D02*
X0321816Y0315047D01*
X0321349Y0315514D01*
X0321349Y0316448D01*
X0321816Y0316915D01*
X0323684Y0316915D01*
X0324151Y0316448D01*
X0324151Y0315514D01*
X0323684Y0315047D01*
X0324151Y0317810D02*
X0321349Y0319678D01*
X0324151Y0319678D01*
X0322750Y0320572D02*
X0322750Y0322440D01*
X0321816Y0323334D02*
X0321349Y0323801D01*
X0321349Y0324735D01*
X0321816Y0325203D01*
X0323684Y0325203D01*
X0324151Y0324735D01*
X0324151Y0323801D01*
X0323684Y0323334D01*
X0321816Y0323334D01*
X0323277Y0324426D02*
X0324811Y0324426D01*
X0324044Y0324426D02*
X0324044Y0326728D01*
X0324811Y0325960D01*
X0324151Y0326097D02*
X0321816Y0326097D01*
X0321349Y0326564D01*
X0321349Y0327498D01*
X0321816Y0327965D01*
X0324151Y0327965D01*
X0324151Y0328859D02*
X0324151Y0330727D01*
X0324151Y0329793D02*
X0321349Y0329793D01*
X0325579Y0326344D02*
X0325962Y0326728D01*
X0326730Y0326728D01*
X0327113Y0326344D01*
X0327113Y0324809D01*
X0326730Y0324426D01*
X0325962Y0324426D01*
X0325579Y0324809D01*
X0324151Y0317810D02*
X0321349Y0317810D01*
X0321349Y0310443D02*
X0324151Y0310443D01*
X0323881Y0341680D02*
X0324816Y0341680D01*
X0325283Y0342147D01*
X0324349Y0343081D02*
X0323881Y0343081D01*
X0323414Y0342614D01*
X0323414Y0342147D01*
X0323881Y0341680D01*
X0323881Y0343081D02*
X0323414Y0343548D01*
X0323414Y0344015D01*
X0323881Y0344482D01*
X0324816Y0344482D01*
X0325283Y0344015D01*
X0322520Y0344482D02*
X0322520Y0342614D01*
X0321586Y0341680D01*
X0320652Y0342614D01*
X0320652Y0344482D01*
X0319758Y0344015D02*
X0319291Y0344482D01*
X0318357Y0344482D01*
X0317890Y0344015D01*
X0317890Y0343548D01*
X0318357Y0343081D01*
X0317890Y0342614D01*
X0317890Y0342147D01*
X0318357Y0341680D01*
X0319291Y0341680D01*
X0319758Y0342147D01*
X0318824Y0343081D02*
X0318357Y0343081D01*
X0318569Y0357806D02*
X0318569Y0359674D01*
X0317635Y0360608D01*
X0316701Y0359674D01*
X0316701Y0357806D01*
X0316701Y0359207D02*
X0318569Y0359207D01*
X0319463Y0360141D02*
X0319930Y0360608D01*
X0321331Y0360608D01*
X0321331Y0357806D01*
X0319930Y0357806D01*
X0319463Y0358273D01*
X0319463Y0360141D01*
X0322225Y0360141D02*
X0322693Y0360608D01*
X0323627Y0360608D01*
X0324094Y0360141D01*
X0324094Y0359674D01*
X0323627Y0359207D01*
X0322693Y0359207D01*
X0322225Y0358740D01*
X0322225Y0358273D01*
X0322693Y0357806D01*
X0323627Y0357806D01*
X0324094Y0358273D01*
X0302834Y0358871D02*
X0302367Y0358404D01*
X0301433Y0358404D01*
X0300966Y0358871D01*
X0300966Y0359805D01*
X0301900Y0359805D01*
X0302834Y0360739D02*
X0302834Y0358871D01*
X0302834Y0360739D02*
X0302367Y0361206D01*
X0301433Y0361206D01*
X0300966Y0360739D01*
X0300072Y0361206D02*
X0300072Y0358404D01*
X0298203Y0358404D02*
X0298203Y0361206D01*
X0297309Y0361206D02*
X0295908Y0361206D01*
X0295441Y0360739D01*
X0295441Y0358871D01*
X0295908Y0358404D01*
X0297309Y0358404D01*
X0297309Y0361206D01*
X0300072Y0361206D02*
X0298203Y0358404D01*
X0367878Y0343198D02*
X0369747Y0343198D01*
X0370641Y0343198D02*
X0370641Y0340863D01*
X0371108Y0340396D01*
X0372042Y0340396D01*
X0372509Y0340863D01*
X0372509Y0343198D01*
X0373403Y0342731D02*
X0373870Y0343198D01*
X0374804Y0343198D01*
X0375271Y0342731D01*
X0375271Y0340863D01*
X0374804Y0340396D01*
X0373870Y0340396D01*
X0373403Y0340863D01*
X0373403Y0342731D01*
X0376165Y0341797D02*
X0378034Y0341797D01*
X0378928Y0340863D02*
X0378928Y0342731D01*
X0379395Y0343198D01*
X0380796Y0343198D01*
X0380796Y0340396D01*
X0379395Y0340396D01*
X0378928Y0340863D01*
X0381690Y0341797D02*
X0382157Y0341330D01*
X0383558Y0341330D01*
X0383558Y0340396D02*
X0383558Y0343198D01*
X0382157Y0343198D01*
X0381690Y0342731D01*
X0381690Y0341797D01*
X0368812Y0340396D02*
X0368812Y0343198D01*
X0377024Y0358183D02*
X0378892Y0358183D01*
X0378892Y0360986D01*
X0379786Y0360519D02*
X0380253Y0360986D01*
X0381187Y0360986D01*
X0381654Y0360519D01*
X0381654Y0358651D01*
X0381187Y0358183D01*
X0380253Y0358183D01*
X0379786Y0358651D01*
X0382548Y0358651D02*
X0383015Y0358183D01*
X0383949Y0358183D01*
X0384417Y0358651D01*
X0383949Y0359585D02*
X0383015Y0359585D01*
X0382548Y0359118D01*
X0382548Y0358651D01*
X0383949Y0359585D02*
X0384417Y0360052D01*
X0384417Y0360519D01*
X0383949Y0360986D01*
X0383015Y0360986D01*
X0382548Y0360519D01*
X0309800Y0214490D02*
X0310267Y0214023D01*
X0310267Y0213556D01*
X0309800Y0213089D01*
X0308866Y0213089D01*
X0308399Y0212622D01*
X0308399Y0212154D01*
X0308866Y0211687D01*
X0309800Y0211687D01*
X0310267Y0212154D01*
X0309800Y0214490D02*
X0308866Y0214490D01*
X0308399Y0214023D01*
X0307505Y0214490D02*
X0306103Y0214490D01*
X0305636Y0214023D01*
X0305636Y0213089D01*
X0306103Y0212622D01*
X0307505Y0212622D01*
X0307505Y0211687D02*
X0307505Y0214490D01*
X0304742Y0213089D02*
X0302874Y0213089D01*
X0301980Y0212622D02*
X0300579Y0212622D01*
X0300112Y0213089D01*
X0300112Y0214023D01*
X0300579Y0214490D01*
X0301980Y0214490D01*
X0301980Y0211687D01*
X0299218Y0211687D02*
X0298283Y0212622D01*
X0297349Y0211687D01*
X0297349Y0214490D01*
X0296455Y0214490D02*
X0295054Y0214490D01*
X0294587Y0214023D01*
X0294587Y0213089D01*
X0295054Y0212622D01*
X0296455Y0212622D01*
X0295521Y0212622D02*
X0294587Y0211687D01*
X0293693Y0213089D02*
X0291825Y0213089D01*
X0290930Y0214023D02*
X0290930Y0212154D01*
X0290463Y0211687D01*
X0289529Y0211687D01*
X0289062Y0212154D01*
X0289062Y0214023D01*
X0289529Y0214490D01*
X0290463Y0214490D01*
X0290930Y0214023D01*
X0288168Y0214490D02*
X0288168Y0212154D01*
X0287701Y0211687D01*
X0286767Y0211687D01*
X0286300Y0212154D01*
X0286300Y0214490D01*
X0285406Y0214490D02*
X0283538Y0214490D01*
X0284472Y0214490D02*
X0284472Y0211687D01*
X0296455Y0211687D02*
X0296455Y0214490D01*
X0299218Y0214490D02*
X0299218Y0211687D01*
X0306113Y0179513D02*
X0306113Y0177808D01*
X0306113Y0178660D02*
X0308671Y0178660D01*
X0307818Y0177808D01*
X0308244Y0176975D02*
X0308671Y0176549D01*
X0308671Y0175270D01*
X0306113Y0175270D01*
X0306113Y0176549D01*
X0306539Y0176975D01*
X0308244Y0176975D01*
X0350829Y0176257D02*
X0352564Y0177992D01*
X0352997Y0177992D01*
X0353431Y0177559D01*
X0353431Y0176691D01*
X0352997Y0176257D01*
X0352997Y0175414D02*
X0352130Y0175414D01*
X0351696Y0174980D01*
X0351696Y0173679D01*
X0350829Y0173679D02*
X0353431Y0173679D01*
X0353431Y0174980D01*
X0352997Y0175414D01*
X0351696Y0174547D02*
X0350829Y0175414D01*
X0350829Y0176257D02*
X0350829Y0177992D01*
D13*
X0354180Y0178870D02*
X0354179Y0166539D01*
X0360994Y0166542D01*
X0360998Y0178870D01*
X0354180Y0178870D01*
X0358178Y0187272D02*
X0358178Y0197509D01*
X0370776Y0197509D01*
X0370776Y0187272D01*
X0358178Y0187272D01*
X0326280Y0187131D02*
X0326280Y0174532D01*
X0316044Y0174532D01*
X0316044Y0187131D01*
X0326280Y0187131D01*
X0307225Y0183800D02*
X0307225Y0183406D01*
X0305650Y0183406D01*
X0297776Y0183406D01*
X0296202Y0183406D01*
X0296202Y0183800D01*
X0307225Y0183800D01*
X0305650Y0183800D02*
X0305650Y0183406D01*
X0305650Y0174351D01*
X0297776Y0174351D01*
X0297776Y0183406D01*
X0297776Y0183800D01*
X0305650Y0183800D01*
X0305650Y0186162D01*
X0297776Y0186162D01*
X0297776Y0183800D01*
X0328056Y0323772D02*
X0328056Y0335796D01*
X0334568Y0335796D01*
X0334568Y0323772D01*
X0328056Y0323772D01*
D14*
X0359108Y0186337D02*
X0358633Y0185862D01*
X0358633Y0185387D01*
X0359108Y0184911D01*
X0358633Y0184436D01*
X0358633Y0183961D01*
X0359108Y0183485D01*
X0360059Y0183485D01*
X0360534Y0183961D01*
X0361533Y0183485D02*
X0362484Y0184436D01*
X0362008Y0184436D02*
X0363434Y0184436D01*
X0363434Y0183485D02*
X0363434Y0186337D01*
X0362008Y0186337D01*
X0361533Y0185862D01*
X0361533Y0184911D01*
X0362008Y0184436D01*
X0360534Y0185862D02*
X0360059Y0186337D01*
X0359108Y0186337D01*
X0359108Y0184911D02*
X0359584Y0184911D01*
X0315109Y0181725D02*
X0312257Y0181725D01*
X0312257Y0180774D02*
X0312257Y0182676D01*
X0314158Y0180774D02*
X0315109Y0181725D01*
X0314634Y0179776D02*
X0313683Y0179776D01*
X0313208Y0179300D01*
X0313208Y0177874D01*
X0313208Y0178825D02*
X0312257Y0179776D01*
X0312257Y0177874D02*
X0315109Y0177874D01*
X0315109Y0179300D01*
X0314634Y0179776D01*
M02*
