%
M48
M72
T01C0.01400
T02C0.03150
T03C0.04724
T04C0.06000
T05C0.07874
T06C0.09843
T07C0.12835
%
T01
X297548Y163847
X303454Y163847
X309359Y163847
X309359Y157942
X303454Y157942
X309359Y152036
T02
X289052Y193934
X279910Y252068
X258784Y254532
X248910Y252068
X227784Y254532
X217910Y252068
X196784Y254532
X186910Y252068
X165784Y254532
X155910Y252068
X134784Y254532
X124910Y252068
X103784Y254532
X93910Y252068
X72784Y254532
X41784Y203532
X62910Y201068
X73784Y53532
X104784Y53532
X135784Y53532
X166784Y53532
X198761Y53532
X229761Y53532
X260761Y53532
X291761Y53532
X322257Y53745
X353257Y52942
X392957Y76430
X344124Y333906
X335093Y342934
X344124Y351961
X353156Y342934
T03
X356288Y311485
X376288Y311485
X336288Y311485
X333965Y209123
X353965Y209123
X373965Y209123
T04
X300367Y206587
X298532Y286879
X316249Y287863
X316249Y320343
X315383Y336580
X293611Y320343
X292934Y353304
X314194Y352706
X374517Y353083
X373658Y335296
T05
X369083Y294556
X343493Y294556
X341170Y226052
X366761Y226052
T06
X378729Y252981
X354635Y261288
X331603Y267587
T07
X47548Y54595
X47548Y353808
X407784Y353808
X407784Y54595
M30
