G75*
%MOIN*%
%OFA0B0*%
%FSLAX25Y25*%
%IPPOS*%
%LPD*%
%AMOC8*
5,1,8,0,0,1.08239X$1,22.5*
%
%ADD10C,0.05150*%
%ADD11R,0.03937X0.05709*%
%ADD12R,0.09252X0.29528*%
%ADD13R,0.05150X0.05150*%
%ADD14R,0.29528X0.09252*%
%ADD15C,0.09000*%
%ADD16C,0.07087*%
%ADD17C,0.16835*%
%ADD18C,0.02000*%
%ADD19C,0.01600*%
%ADD20C,0.03000*%
%ADD21C,0.01200*%
%ADD22C,0.00600*%
D10*
X0344124Y0333906D03*
X0335093Y0342934D03*
X0344124Y0351961D03*
X0353156Y0342934D03*
D11*
X0387178Y0335517D03*
X0393635Y0335517D03*
D12*
X0268627Y0291186D03*
X0237627Y0291186D03*
X0206627Y0291186D03*
X0175627Y0291186D03*
X0144627Y0291186D03*
X0113627Y0291186D03*
X0082627Y0291186D03*
X0051627Y0240186D03*
X0084068Y0215414D03*
X0115068Y0215414D03*
X0146068Y0215414D03*
X0177068Y0215414D03*
X0208068Y0215414D03*
X0239068Y0215414D03*
X0270068Y0215414D03*
X0402800Y0113083D03*
X0363099Y0089595D03*
X0332099Y0090398D03*
X0301603Y0090186D03*
X0270603Y0090186D03*
X0239603Y0090186D03*
X0208603Y0090186D03*
X0176627Y0090186D03*
X0145627Y0090186D03*
X0114627Y0090186D03*
X0083627Y0090186D03*
X0053068Y0164414D03*
D13*
X0062910Y0201068D03*
X0041784Y0203532D03*
X0093910Y0252068D03*
X0103784Y0254532D03*
X0124910Y0252068D03*
X0134784Y0254532D03*
X0155910Y0252068D03*
X0165784Y0254532D03*
X0186910Y0252068D03*
X0196784Y0254532D03*
X0217910Y0252068D03*
X0227784Y0254532D03*
X0248910Y0252068D03*
X0258784Y0254532D03*
X0279910Y0252068D03*
X0289052Y0193934D03*
X0392957Y0076430D03*
X0353257Y0052942D03*
X0322257Y0053745D03*
X0291761Y0053532D03*
X0260761Y0053532D03*
X0229761Y0053532D03*
X0198761Y0053532D03*
X0166784Y0053532D03*
X0135784Y0053532D03*
X0104784Y0053532D03*
X0073784Y0053532D03*
X0072784Y0254532D03*
D14*
X0325706Y0184091D03*
D15*
X0300367Y0206587D03*
X0298532Y0286879D03*
X0316249Y0287863D03*
X0316249Y0320343D03*
X0315383Y0336580D03*
X0293611Y0320343D03*
X0292934Y0353304D03*
X0314194Y0352706D03*
X0374517Y0353083D03*
X0373658Y0335296D03*
D16*
X0376288Y0311485D03*
X0356288Y0311485D03*
X0336288Y0311485D03*
X0333965Y0209123D03*
X0353965Y0209123D03*
X0373965Y0209123D03*
D17*
X0407784Y0353808D03*
X0407784Y0054595D03*
X0047548Y0054595D03*
X0047548Y0353808D03*
D18*
X0082627Y0291186D02*
X0082627Y0263351D01*
X0093910Y0252068D01*
X0072784Y0254532D02*
X0058438Y0240186D01*
X0051627Y0240186D01*
X0068461Y0215414D02*
X0062847Y0209800D01*
X0062847Y0201131D01*
X0062910Y0201068D01*
X0068461Y0215414D02*
X0084068Y0215414D01*
X0124910Y0252068D02*
X0146068Y0230910D01*
X0146068Y0215414D01*
X0155910Y0252068D02*
X0144627Y0263351D01*
X0144627Y0291186D01*
X0175627Y0291186D02*
X0175627Y0275690D01*
X0196784Y0254532D01*
X0186910Y0252068D02*
X0208068Y0230910D01*
X0208068Y0215414D01*
X0217910Y0252068D02*
X0206627Y0263351D01*
X0206627Y0291186D01*
X0227847Y0306800D02*
X0231847Y0310800D01*
X0264847Y0310800D01*
X0268627Y0307020D01*
X0268627Y0291186D01*
X0237627Y0291186D02*
X0237627Y0263351D01*
X0248910Y0252068D01*
X0258784Y0254532D02*
X0270068Y0243249D01*
X0270068Y0215414D01*
X0289052Y0193934D02*
X0289052Y0162501D01*
X0331997Y0119556D01*
X0331997Y0090501D01*
X0332099Y0090398D01*
X0301603Y0090186D02*
X0301485Y0090068D01*
X0301485Y0072312D01*
X0282706Y0053532D01*
X0260761Y0053532D01*
X0250225Y0053532D02*
X0229761Y0053532D01*
X0219713Y0053532D02*
X0198761Y0053532D01*
X0219713Y0053532D02*
X0239477Y0073296D01*
X0239477Y0090060D01*
X0239603Y0090186D01*
X0269989Y0089572D02*
X0269989Y0073296D01*
X0250225Y0053532D01*
X0269989Y0089572D02*
X0270603Y0090186D01*
X0322257Y0053745D02*
X0344926Y0053745D01*
X0362509Y0071328D01*
X0362509Y0089005D01*
X0363099Y0089595D01*
X0389083Y0084123D02*
X0357902Y0052942D01*
X0353257Y0052942D01*
X0389083Y0084123D02*
X0393020Y0084123D01*
X0402863Y0093965D01*
X0402863Y0113020D01*
X0402800Y0113083D01*
X0227847Y0254595D02*
X0227784Y0254532D01*
X0227847Y0254595D02*
X0227847Y0306800D01*
X0315383Y0336580D02*
X0341451Y0336580D01*
X0344124Y0333906D01*
X0335093Y0342934D02*
X0325321Y0352706D01*
X0314194Y0352706D01*
X0344124Y0351961D02*
X0345246Y0353083D01*
X0374517Y0353083D01*
X0373658Y0335296D02*
X0386957Y0335296D01*
X0387178Y0335517D01*
X0393635Y0335517D02*
X0394209Y0336091D01*
X0398926Y0336091D01*
X0407784Y0344950D01*
X0407784Y0353808D01*
X0134784Y0254532D02*
X0113627Y0275690D01*
X0113627Y0291186D01*
X0114627Y0090186D02*
X0114627Y0074690D01*
X0135784Y0053532D01*
X0145627Y0074690D02*
X0166784Y0053532D01*
X0145627Y0074690D02*
X0145627Y0090186D01*
X0104784Y0053532D02*
X0083627Y0074690D01*
X0083627Y0090186D01*
D19*
X0090253Y0089755D02*
X0108001Y0089755D01*
X0108001Y0088157D02*
X0090253Y0088157D01*
X0090253Y0086558D02*
X0108001Y0086558D01*
X0108001Y0084960D02*
X0090253Y0084960D01*
X0090253Y0083361D02*
X0108001Y0083361D01*
X0108001Y0081763D02*
X0090253Y0081763D01*
X0090253Y0080164D02*
X0108001Y0080164D01*
X0108001Y0078566D02*
X0090253Y0078566D01*
X0090253Y0076967D02*
X0108001Y0076967D01*
X0108001Y0075369D02*
X0090253Y0075369D01*
X0090253Y0074594D02*
X0090253Y0105778D01*
X0089081Y0106950D01*
X0078172Y0106950D01*
X0077001Y0105778D01*
X0077001Y0074594D01*
X0078172Y0073422D01*
X0080905Y0073422D01*
X0081083Y0072990D01*
X0100209Y0053864D01*
X0100209Y0050129D01*
X0101381Y0048957D01*
X0108187Y0048957D01*
X0109359Y0050129D01*
X0109359Y0056936D01*
X0108187Y0058107D01*
X0104452Y0058107D01*
X0089109Y0073450D01*
X0090253Y0074594D01*
X0089429Y0073770D02*
X0108824Y0073770D01*
X0109172Y0073422D02*
X0108001Y0074594D01*
X0108001Y0105778D01*
X0109172Y0106950D01*
X0120081Y0106950D01*
X0121253Y0105778D01*
X0121253Y0074594D01*
X0120109Y0073450D01*
X0135452Y0058107D01*
X0139187Y0058107D01*
X0140359Y0056936D01*
X0140359Y0050129D01*
X0139187Y0048957D01*
X0132381Y0048957D01*
X0131209Y0050129D01*
X0131209Y0053864D01*
X0112083Y0072990D01*
X0111905Y0073422D01*
X0109172Y0073422D01*
X0112902Y0072172D02*
X0090387Y0072172D01*
X0091986Y0070573D02*
X0114501Y0070573D01*
X0116099Y0068975D02*
X0093584Y0068975D01*
X0095183Y0067376D02*
X0117698Y0067376D01*
X0119296Y0065778D02*
X0096781Y0065778D01*
X0098380Y0064179D02*
X0120895Y0064179D01*
X0122493Y0062581D02*
X0099979Y0062581D01*
X0101577Y0060982D02*
X0124092Y0060982D01*
X0125690Y0059384D02*
X0103176Y0059384D01*
X0108509Y0057785D02*
X0127289Y0057785D01*
X0128887Y0056187D02*
X0109359Y0056187D01*
X0109359Y0054588D02*
X0130486Y0054588D01*
X0131209Y0052990D02*
X0109359Y0052990D01*
X0109359Y0051391D02*
X0131209Y0051391D01*
X0131546Y0049793D02*
X0109023Y0049793D01*
X0100546Y0049793D02*
X0078023Y0049793D01*
X0078359Y0050129D02*
X0078359Y0056936D01*
X0077187Y0058107D01*
X0070381Y0058107D01*
X0069209Y0056936D01*
X0069209Y0050129D01*
X0070381Y0048957D01*
X0077187Y0048957D01*
X0078359Y0050129D01*
X0078359Y0051391D02*
X0100209Y0051391D01*
X0100209Y0052990D02*
X0078359Y0052990D01*
X0078359Y0054588D02*
X0099486Y0054588D01*
X0097887Y0056187D02*
X0078359Y0056187D01*
X0077509Y0057785D02*
X0096289Y0057785D01*
X0094690Y0059384D02*
X0056812Y0059384D01*
X0057255Y0058616D02*
X0055884Y0060992D01*
X0053944Y0062931D01*
X0051569Y0064303D01*
X0048920Y0065013D01*
X0046177Y0065013D01*
X0043527Y0064303D01*
X0041152Y0062931D01*
X0039212Y0060992D01*
X0037841Y0058616D01*
X0037131Y0055967D01*
X0037131Y0053224D01*
X0037841Y0050574D01*
X0039212Y0048199D01*
X0040811Y0046600D01*
X0036600Y0046600D01*
X0036600Y0361803D01*
X0040811Y0361803D01*
X0039212Y0360204D01*
X0037841Y0357829D01*
X0037131Y0355179D01*
X0037131Y0352436D01*
X0037841Y0349787D01*
X0039212Y0347411D01*
X0041152Y0345472D01*
X0043527Y0344100D01*
X0046177Y0343391D01*
X0048920Y0343391D01*
X0051569Y0344100D01*
X0053944Y0345472D01*
X0055884Y0347411D01*
X0057255Y0349787D01*
X0057965Y0352436D01*
X0057965Y0355179D01*
X0057255Y0357829D01*
X0055884Y0360204D01*
X0054285Y0361803D01*
X0401047Y0361803D01*
X0399448Y0360204D01*
X0398077Y0357829D01*
X0397367Y0355179D01*
X0397367Y0352436D01*
X0398077Y0349787D01*
X0399448Y0347411D01*
X0401388Y0345472D01*
X0403084Y0344492D01*
X0397683Y0339091D01*
X0397603Y0339091D01*
X0397603Y0339199D01*
X0396432Y0340371D01*
X0390838Y0340371D01*
X0390406Y0339939D01*
X0389975Y0340371D01*
X0384381Y0340371D01*
X0383209Y0339199D01*
X0383209Y0338296D01*
X0379451Y0338296D01*
X0379169Y0338978D01*
X0377340Y0340806D01*
X0374951Y0341796D01*
X0372365Y0341796D01*
X0369976Y0340806D01*
X0368148Y0338978D01*
X0367158Y0336589D01*
X0367158Y0334003D01*
X0368148Y0331614D01*
X0368260Y0331502D01*
X0348080Y0331502D01*
X0348699Y0332996D01*
X0348699Y0334816D01*
X0348003Y0336498D01*
X0346716Y0337785D01*
X0345034Y0338481D01*
X0343792Y0338481D01*
X0343151Y0339123D01*
X0342048Y0339580D01*
X0338208Y0339580D01*
X0338971Y0340342D01*
X0339668Y0342024D01*
X0339668Y0343844D01*
X0338971Y0345525D01*
X0337684Y0346812D01*
X0336003Y0347509D01*
X0334761Y0347509D01*
X0327865Y0354405D01*
X0327021Y0355249D01*
X0325918Y0355705D01*
X0319987Y0355705D01*
X0319704Y0356387D01*
X0317876Y0358216D01*
X0315487Y0359205D01*
X0312901Y0359205D01*
X0310512Y0358216D01*
X0308683Y0356387D01*
X0307694Y0353998D01*
X0307694Y0351413D01*
X0308683Y0349024D01*
X0310512Y0347195D01*
X0312901Y0346206D01*
X0315487Y0346206D01*
X0317876Y0347195D01*
X0319704Y0349024D01*
X0319987Y0349706D01*
X0324079Y0349706D01*
X0330518Y0343266D01*
X0330518Y0342024D01*
X0331215Y0340342D01*
X0331978Y0339580D01*
X0321176Y0339580D01*
X0320893Y0340261D01*
X0319065Y0342090D01*
X0316676Y0343080D01*
X0314090Y0343080D01*
X0311701Y0342090D01*
X0309872Y0340261D01*
X0308883Y0337872D01*
X0308883Y0335287D01*
X0309872Y0332898D01*
X0311268Y0331502D01*
X0291674Y0331502D01*
X0286753Y0326580D01*
X0285406Y0325233D01*
X0285406Y0305611D01*
X0286753Y0304264D01*
X0287374Y0304264D01*
X0287374Y0269851D01*
X0287229Y0269630D01*
X0287374Y0268927D01*
X0287374Y0268210D01*
X0287561Y0268023D01*
X0287614Y0267764D01*
X0288214Y0267370D01*
X0288721Y0266862D01*
X0288985Y0266862D01*
X0324776Y0243316D01*
X0324776Y0206202D01*
X0326123Y0204854D01*
X0331044Y0199933D01*
X0343776Y0199933D01*
X0348076Y0204233D01*
X0348076Y0214397D01*
X0349738Y0212735D01*
X0349266Y0212263D01*
X0348422Y0210225D01*
X0348422Y0208020D01*
X0349266Y0205983D01*
X0350825Y0204423D01*
X0352863Y0203580D01*
X0355068Y0203580D01*
X0357105Y0204423D01*
X0357578Y0204896D01*
X0361193Y0201280D01*
X0362540Y0199933D01*
X0392723Y0199933D01*
X0393356Y0199766D01*
X0393642Y0199933D01*
X0393973Y0199933D01*
X0394436Y0200396D01*
X0405453Y0206823D01*
X0405784Y0206823D01*
X0406247Y0207286D01*
X0406813Y0207616D01*
X0406898Y0207936D01*
X0407131Y0208170D01*
X0407131Y0208825D01*
X0407298Y0209459D01*
X0407131Y0209745D01*
X0407131Y0330154D01*
X0405784Y0331502D01*
X0397271Y0331502D01*
X0397603Y0331834D01*
X0397603Y0333091D01*
X0399523Y0333091D01*
X0400625Y0333548D01*
X0409484Y0342406D01*
X0410328Y0343250D01*
X0410539Y0343761D01*
X0411805Y0344100D01*
X0414181Y0345472D01*
X0416120Y0347411D01*
X0417492Y0349787D01*
X0418202Y0352436D01*
X0418202Y0355179D01*
X0417492Y0357829D01*
X0416120Y0360204D01*
X0414521Y0361803D01*
X0418732Y0361803D01*
X0418732Y0046600D01*
X0414521Y0046600D01*
X0416120Y0048199D01*
X0417492Y0050574D01*
X0418202Y0053224D01*
X0418202Y0055967D01*
X0417492Y0058616D01*
X0416120Y0060992D01*
X0414181Y0062931D01*
X0411805Y0064303D01*
X0409156Y0065013D01*
X0406413Y0065013D01*
X0403763Y0064303D01*
X0401388Y0062931D01*
X0399448Y0060992D01*
X0398077Y0058616D01*
X0397367Y0055967D01*
X0397367Y0053224D01*
X0398077Y0050574D01*
X0399448Y0048199D01*
X0401047Y0046600D01*
X0054285Y0046600D01*
X0055884Y0048199D01*
X0057255Y0050574D01*
X0057965Y0053224D01*
X0057965Y0055967D01*
X0057255Y0058616D01*
X0057478Y0057785D02*
X0070059Y0057785D01*
X0069209Y0056187D02*
X0057906Y0056187D01*
X0057965Y0054588D02*
X0069209Y0054588D01*
X0069209Y0052990D02*
X0057903Y0052990D01*
X0057474Y0051391D02*
X0069209Y0051391D01*
X0069546Y0049793D02*
X0056804Y0049793D01*
X0055879Y0048194D02*
X0399453Y0048194D01*
X0398528Y0049793D02*
X0357831Y0049793D01*
X0357831Y0049942D02*
X0358499Y0049942D01*
X0359602Y0050398D01*
X0360446Y0051242D01*
X0388383Y0079179D01*
X0388383Y0073027D01*
X0389554Y0071855D01*
X0396361Y0071855D01*
X0397532Y0073027D01*
X0397532Y0079833D01*
X0396361Y0081005D01*
X0390208Y0081005D01*
X0390326Y0081123D01*
X0393617Y0081123D01*
X0394720Y0081580D01*
X0395564Y0082423D01*
X0405406Y0092266D01*
X0405863Y0093369D01*
X0405863Y0096320D01*
X0408254Y0096320D01*
X0409426Y0097491D01*
X0409426Y0128676D01*
X0408254Y0129847D01*
X0397346Y0129847D01*
X0396174Y0128676D01*
X0396174Y0097491D01*
X0397346Y0096320D01*
X0399863Y0096320D01*
X0399863Y0095208D01*
X0391778Y0087123D01*
X0388487Y0087123D01*
X0387384Y0086666D01*
X0357447Y0056729D01*
X0356660Y0057517D01*
X0352940Y0057517D01*
X0365052Y0069628D01*
X0365509Y0070731D01*
X0365509Y0072831D01*
X0368554Y0072831D01*
X0369725Y0074003D01*
X0369725Y0105187D01*
X0368554Y0106359D01*
X0357645Y0106359D01*
X0356473Y0105187D01*
X0356473Y0074003D01*
X0357645Y0072831D01*
X0359509Y0072831D01*
X0359509Y0072570D01*
X0343683Y0056745D01*
X0326831Y0056745D01*
X0326831Y0057148D01*
X0325660Y0058320D01*
X0318853Y0058320D01*
X0317682Y0057148D01*
X0317682Y0050342D01*
X0318853Y0049170D01*
X0325660Y0049170D01*
X0326831Y0050342D01*
X0326831Y0050745D01*
X0345523Y0050745D01*
X0346625Y0051202D01*
X0347469Y0052046D01*
X0348682Y0053258D01*
X0348682Y0049538D01*
X0349853Y0048367D01*
X0356660Y0048367D01*
X0357831Y0049538D01*
X0357831Y0049942D01*
X0360594Y0051391D02*
X0397858Y0051391D01*
X0397430Y0052990D02*
X0362193Y0052990D01*
X0363791Y0054588D02*
X0397367Y0054588D01*
X0397426Y0056187D02*
X0365390Y0056187D01*
X0366988Y0057785D02*
X0397854Y0057785D01*
X0398520Y0059384D02*
X0368587Y0059384D01*
X0370185Y0060982D02*
X0399443Y0060982D01*
X0401037Y0062581D02*
X0371784Y0062581D01*
X0373382Y0064179D02*
X0403549Y0064179D01*
X0412019Y0064179D02*
X0418732Y0064179D01*
X0418732Y0062581D02*
X0414531Y0062581D01*
X0416126Y0060982D02*
X0418732Y0060982D01*
X0418732Y0059384D02*
X0417049Y0059384D01*
X0417714Y0057785D02*
X0418732Y0057785D01*
X0418732Y0056187D02*
X0418143Y0056187D01*
X0418202Y0054588D02*
X0418732Y0054588D01*
X0418732Y0052990D02*
X0418139Y0052990D01*
X0417710Y0051391D02*
X0418732Y0051391D01*
X0418732Y0049793D02*
X0417040Y0049793D01*
X0416115Y0048194D02*
X0418732Y0048194D01*
X0418732Y0065778D02*
X0374981Y0065778D01*
X0376579Y0067376D02*
X0418732Y0067376D01*
X0418732Y0068975D02*
X0378178Y0068975D01*
X0379776Y0070573D02*
X0418732Y0070573D01*
X0418732Y0072172D02*
X0396677Y0072172D01*
X0397532Y0073770D02*
X0418732Y0073770D01*
X0418732Y0075369D02*
X0397532Y0075369D01*
X0397532Y0076967D02*
X0418732Y0076967D01*
X0418732Y0078566D02*
X0397532Y0078566D01*
X0397201Y0080164D02*
X0418732Y0080164D01*
X0418732Y0081763D02*
X0394903Y0081763D01*
X0396502Y0083361D02*
X0418732Y0083361D01*
X0418732Y0084960D02*
X0398100Y0084960D01*
X0399699Y0086558D02*
X0418732Y0086558D01*
X0418732Y0088157D02*
X0401297Y0088157D01*
X0402896Y0089755D02*
X0418732Y0089755D01*
X0418732Y0091354D02*
X0404494Y0091354D01*
X0405691Y0092952D02*
X0418732Y0092952D01*
X0418732Y0094551D02*
X0405863Y0094551D01*
X0405863Y0096149D02*
X0418732Y0096149D01*
X0418732Y0097748D02*
X0409426Y0097748D01*
X0409426Y0099346D02*
X0418732Y0099346D01*
X0418732Y0100945D02*
X0409426Y0100945D01*
X0409426Y0102543D02*
X0418732Y0102543D01*
X0418732Y0104142D02*
X0409426Y0104142D01*
X0409426Y0105740D02*
X0418732Y0105740D01*
X0418732Y0107339D02*
X0409426Y0107339D01*
X0409426Y0108937D02*
X0418732Y0108937D01*
X0418732Y0110536D02*
X0409426Y0110536D01*
X0409426Y0112134D02*
X0418732Y0112134D01*
X0418732Y0113733D02*
X0409426Y0113733D01*
X0409426Y0115332D02*
X0418732Y0115332D01*
X0418732Y0116930D02*
X0409426Y0116930D01*
X0409426Y0118529D02*
X0418732Y0118529D01*
X0418732Y0120127D02*
X0409426Y0120127D01*
X0409426Y0121726D02*
X0418732Y0121726D01*
X0418732Y0123324D02*
X0409426Y0123324D01*
X0409426Y0124923D02*
X0418732Y0124923D01*
X0418732Y0126521D02*
X0409426Y0126521D01*
X0409426Y0128120D02*
X0418732Y0128120D01*
X0418732Y0129718D02*
X0408384Y0129718D01*
X0418732Y0131317D02*
X0324479Y0131317D01*
X0322880Y0132915D02*
X0418732Y0132915D01*
X0418732Y0134514D02*
X0321282Y0134514D01*
X0319683Y0136112D02*
X0418732Y0136112D01*
X0418732Y0137711D02*
X0318085Y0137711D01*
X0316486Y0139309D02*
X0418732Y0139309D01*
X0418732Y0140908D02*
X0314888Y0140908D01*
X0313289Y0142506D02*
X0418732Y0142506D01*
X0418732Y0144105D02*
X0311691Y0144105D01*
X0310092Y0145703D02*
X0418732Y0145703D01*
X0418732Y0147302D02*
X0308494Y0147302D01*
X0306895Y0148900D02*
X0418732Y0148900D01*
X0418732Y0150499D02*
X0305297Y0150499D01*
X0303698Y0152097D02*
X0418732Y0152097D01*
X0418732Y0153696D02*
X0302100Y0153696D01*
X0300501Y0155294D02*
X0418732Y0155294D01*
X0418732Y0156893D02*
X0298903Y0156893D01*
X0297304Y0158491D02*
X0418732Y0158491D01*
X0418732Y0160090D02*
X0295706Y0160090D01*
X0294107Y0161688D02*
X0418732Y0161688D01*
X0418732Y0163287D02*
X0292509Y0163287D01*
X0292052Y0163743D02*
X0292052Y0189359D01*
X0292455Y0189359D01*
X0293627Y0190531D01*
X0293627Y0197337D01*
X0292455Y0198509D01*
X0285649Y0198509D01*
X0284477Y0197337D01*
X0284477Y0190531D01*
X0285649Y0189359D01*
X0286052Y0189359D01*
X0286052Y0161904D01*
X0286509Y0160801D01*
X0287353Y0159958D01*
X0328997Y0118313D01*
X0328997Y0107162D01*
X0326645Y0107162D01*
X0325473Y0105991D01*
X0325473Y0074806D01*
X0326645Y0073635D01*
X0337554Y0073635D01*
X0338725Y0074806D01*
X0338725Y0105991D01*
X0337554Y0107162D01*
X0334997Y0107162D01*
X0334997Y0120153D01*
X0334540Y0121255D01*
X0292052Y0163743D01*
X0292052Y0164885D02*
X0418732Y0164885D01*
X0418732Y0166484D02*
X0292052Y0166484D01*
X0292052Y0168082D02*
X0418732Y0168082D01*
X0418732Y0169681D02*
X0292052Y0169681D01*
X0292052Y0171279D02*
X0418732Y0171279D01*
X0418732Y0172878D02*
X0292052Y0172878D01*
X0292052Y0174476D02*
X0418732Y0174476D01*
X0418732Y0176075D02*
X0292052Y0176075D01*
X0292052Y0177673D02*
X0418732Y0177673D01*
X0418732Y0179272D02*
X0292052Y0179272D01*
X0292052Y0180870D02*
X0418732Y0180870D01*
X0418732Y0182469D02*
X0292052Y0182469D01*
X0292052Y0184068D02*
X0418732Y0184068D01*
X0418732Y0185666D02*
X0292052Y0185666D01*
X0292052Y0187265D02*
X0418732Y0187265D01*
X0418732Y0188863D02*
X0292052Y0188863D01*
X0293558Y0190462D02*
X0418732Y0190462D01*
X0418732Y0192060D02*
X0293627Y0192060D01*
X0293627Y0193659D02*
X0418732Y0193659D01*
X0418732Y0195257D02*
X0293627Y0195257D01*
X0293627Y0196856D02*
X0418732Y0196856D01*
X0418732Y0198454D02*
X0292510Y0198454D01*
X0296111Y0201651D02*
X0276694Y0201651D01*
X0276694Y0200053D02*
X0330925Y0200053D01*
X0329326Y0201651D02*
X0304623Y0201651D01*
X0304049Y0201077D02*
X0305877Y0202905D01*
X0306867Y0205294D01*
X0306867Y0207880D01*
X0305877Y0210269D01*
X0304049Y0212098D01*
X0301660Y0213087D01*
X0299074Y0213087D01*
X0296685Y0212098D01*
X0294856Y0210269D01*
X0293867Y0207880D01*
X0293867Y0205294D01*
X0294856Y0202905D01*
X0296685Y0201077D01*
X0299074Y0200087D01*
X0301660Y0200087D01*
X0304049Y0201077D01*
X0306020Y0203250D02*
X0327728Y0203250D01*
X0326129Y0204848D02*
X0306682Y0204848D01*
X0306867Y0206447D02*
X0324776Y0206447D01*
X0324776Y0208045D02*
X0306799Y0208045D01*
X0306137Y0209644D02*
X0324776Y0209644D01*
X0324776Y0211242D02*
X0304905Y0211242D01*
X0302255Y0212841D02*
X0324776Y0212841D01*
X0324776Y0214439D02*
X0276694Y0214439D01*
X0276694Y0212841D02*
X0298478Y0212841D01*
X0295829Y0211242D02*
X0276694Y0211242D01*
X0276694Y0209644D02*
X0294597Y0209644D01*
X0293935Y0208045D02*
X0276694Y0208045D01*
X0276694Y0206447D02*
X0293867Y0206447D01*
X0294052Y0204848D02*
X0276694Y0204848D01*
X0276694Y0203250D02*
X0294714Y0203250D01*
X0285594Y0198454D02*
X0067485Y0198454D01*
X0067485Y0197664D02*
X0067485Y0204471D01*
X0066313Y0205643D01*
X0065847Y0205643D01*
X0065847Y0208557D01*
X0069704Y0212414D01*
X0077442Y0212414D01*
X0077442Y0199822D01*
X0078613Y0198650D01*
X0089522Y0198650D01*
X0090694Y0199822D01*
X0090694Y0231006D01*
X0089522Y0232178D01*
X0078613Y0232178D01*
X0077442Y0231006D01*
X0077442Y0218414D01*
X0067865Y0218414D01*
X0066762Y0217957D01*
X0061148Y0212343D01*
X0060304Y0211499D01*
X0059847Y0210397D01*
X0059847Y0205643D01*
X0059507Y0205643D01*
X0058335Y0204471D01*
X0058335Y0197664D01*
X0059507Y0196493D01*
X0066313Y0196493D01*
X0067485Y0197664D01*
X0066676Y0196856D02*
X0284477Y0196856D01*
X0284477Y0195257D02*
X0036600Y0195257D01*
X0036600Y0193659D02*
X0284477Y0193659D01*
X0284477Y0192060D02*
X0036600Y0192060D01*
X0036600Y0190462D02*
X0284546Y0190462D01*
X0286052Y0188863D02*
X0036600Y0188863D01*
X0036600Y0187265D02*
X0286052Y0187265D01*
X0286052Y0185666D02*
X0036600Y0185666D01*
X0036600Y0184068D02*
X0286052Y0184068D01*
X0286052Y0182469D02*
X0036600Y0182469D01*
X0036600Y0180870D02*
X0286052Y0180870D01*
X0286052Y0179272D02*
X0036600Y0179272D01*
X0036600Y0177673D02*
X0286052Y0177673D01*
X0286052Y0176075D02*
X0036600Y0176075D01*
X0036600Y0174476D02*
X0286052Y0174476D01*
X0286052Y0172878D02*
X0036600Y0172878D01*
X0036600Y0171279D02*
X0286052Y0171279D01*
X0286052Y0169681D02*
X0036600Y0169681D01*
X0036600Y0168082D02*
X0286052Y0168082D01*
X0286052Y0166484D02*
X0036600Y0166484D01*
X0036600Y0164885D02*
X0286052Y0164885D01*
X0286052Y0163287D02*
X0036600Y0163287D01*
X0036600Y0161688D02*
X0286141Y0161688D01*
X0287220Y0160090D02*
X0036600Y0160090D01*
X0036600Y0158491D02*
X0288819Y0158491D01*
X0290417Y0156893D02*
X0036600Y0156893D01*
X0036600Y0155294D02*
X0292016Y0155294D01*
X0293614Y0153696D02*
X0036600Y0153696D01*
X0036600Y0152097D02*
X0295213Y0152097D01*
X0296811Y0150499D02*
X0036600Y0150499D01*
X0036600Y0148900D02*
X0298410Y0148900D01*
X0300008Y0147302D02*
X0036600Y0147302D01*
X0036600Y0145703D02*
X0301607Y0145703D01*
X0303205Y0144105D02*
X0036600Y0144105D01*
X0036600Y0142506D02*
X0304804Y0142506D01*
X0306402Y0140908D02*
X0036600Y0140908D01*
X0036600Y0139309D02*
X0308001Y0139309D01*
X0309599Y0137711D02*
X0036600Y0137711D01*
X0036600Y0136112D02*
X0311198Y0136112D01*
X0312796Y0134514D02*
X0036600Y0134514D01*
X0036600Y0132915D02*
X0314395Y0132915D01*
X0315993Y0131317D02*
X0036600Y0131317D01*
X0036600Y0129718D02*
X0317592Y0129718D01*
X0319190Y0128120D02*
X0036600Y0128120D01*
X0036600Y0126521D02*
X0320789Y0126521D01*
X0322388Y0124923D02*
X0036600Y0124923D01*
X0036600Y0123324D02*
X0323986Y0123324D01*
X0325585Y0121726D02*
X0036600Y0121726D01*
X0036600Y0120127D02*
X0327183Y0120127D01*
X0328782Y0118529D02*
X0036600Y0118529D01*
X0036600Y0116930D02*
X0328997Y0116930D01*
X0328997Y0115332D02*
X0036600Y0115332D01*
X0036600Y0113733D02*
X0328997Y0113733D01*
X0328997Y0112134D02*
X0036600Y0112134D01*
X0036600Y0110536D02*
X0328997Y0110536D01*
X0328997Y0108937D02*
X0036600Y0108937D01*
X0036600Y0107339D02*
X0328997Y0107339D01*
X0325473Y0105740D02*
X0308229Y0105740D01*
X0308229Y0105778D02*
X0307058Y0106950D01*
X0296149Y0106950D01*
X0294977Y0105778D01*
X0294977Y0074594D01*
X0296149Y0073422D01*
X0298353Y0073422D01*
X0281463Y0056532D01*
X0265335Y0056532D01*
X0265335Y0056936D01*
X0264164Y0058107D01*
X0259043Y0058107D01*
X0272532Y0071597D01*
X0272989Y0072699D01*
X0272989Y0073422D01*
X0276058Y0073422D01*
X0277229Y0074594D01*
X0277229Y0105778D01*
X0276058Y0106950D01*
X0265149Y0106950D01*
X0263977Y0105778D01*
X0263977Y0074594D01*
X0265149Y0073422D01*
X0265872Y0073422D01*
X0248983Y0056532D01*
X0234335Y0056532D01*
X0234335Y0056936D01*
X0233164Y0058107D01*
X0228531Y0058107D01*
X0242020Y0071597D01*
X0242477Y0072699D01*
X0242477Y0073422D01*
X0245058Y0073422D01*
X0246229Y0074594D01*
X0246229Y0105778D01*
X0245058Y0106950D01*
X0234149Y0106950D01*
X0232977Y0105778D01*
X0232977Y0074594D01*
X0234149Y0073422D01*
X0235361Y0073422D01*
X0218471Y0056532D01*
X0203335Y0056532D01*
X0203335Y0056936D01*
X0202164Y0058107D01*
X0195357Y0058107D01*
X0194186Y0056936D01*
X0194186Y0050129D01*
X0195357Y0048957D01*
X0202164Y0048957D01*
X0203335Y0050129D01*
X0203335Y0050532D01*
X0220310Y0050532D01*
X0221413Y0050989D01*
X0222257Y0051833D01*
X0225186Y0054762D01*
X0225186Y0050129D01*
X0226357Y0048957D01*
X0233164Y0048957D01*
X0234335Y0050129D01*
X0234335Y0050532D01*
X0250822Y0050532D01*
X0251925Y0050989D01*
X0252768Y0051833D01*
X0256186Y0055250D01*
X0256186Y0050129D01*
X0257357Y0048957D01*
X0264164Y0048957D01*
X0265335Y0050129D01*
X0265335Y0050532D01*
X0283302Y0050532D01*
X0284405Y0050989D01*
X0285249Y0051833D01*
X0287186Y0053770D01*
X0287186Y0050129D01*
X0288357Y0048957D01*
X0295164Y0048957D01*
X0296335Y0050129D01*
X0296335Y0056936D01*
X0295164Y0058107D01*
X0291523Y0058107D01*
X0304028Y0070612D01*
X0304485Y0071715D01*
X0304485Y0073422D01*
X0307058Y0073422D01*
X0308229Y0074594D01*
X0308229Y0105778D01*
X0308229Y0104142D02*
X0325473Y0104142D01*
X0325473Y0102543D02*
X0308229Y0102543D01*
X0308229Y0100945D02*
X0325473Y0100945D01*
X0325473Y0099346D02*
X0308229Y0099346D01*
X0308229Y0097748D02*
X0325473Y0097748D01*
X0325473Y0096149D02*
X0308229Y0096149D01*
X0308229Y0094551D02*
X0325473Y0094551D01*
X0325473Y0092952D02*
X0308229Y0092952D01*
X0308229Y0091354D02*
X0325473Y0091354D01*
X0325473Y0089755D02*
X0308229Y0089755D01*
X0308229Y0088157D02*
X0325473Y0088157D01*
X0325473Y0086558D02*
X0308229Y0086558D01*
X0308229Y0084960D02*
X0325473Y0084960D01*
X0325473Y0083361D02*
X0308229Y0083361D01*
X0308229Y0081763D02*
X0325473Y0081763D01*
X0325473Y0080164D02*
X0308229Y0080164D01*
X0308229Y0078566D02*
X0325473Y0078566D01*
X0325473Y0076967D02*
X0308229Y0076967D01*
X0308229Y0075369D02*
X0325473Y0075369D01*
X0326509Y0073770D02*
X0307406Y0073770D01*
X0304485Y0072172D02*
X0359110Y0072172D01*
X0357512Y0070573D02*
X0303989Y0070573D01*
X0302391Y0068975D02*
X0355913Y0068975D01*
X0354315Y0067376D02*
X0300792Y0067376D01*
X0299194Y0065778D02*
X0352716Y0065778D01*
X0351118Y0064179D02*
X0297595Y0064179D01*
X0295997Y0062581D02*
X0349519Y0062581D01*
X0347921Y0060982D02*
X0294398Y0060982D01*
X0292799Y0059384D02*
X0346322Y0059384D01*
X0344724Y0057785D02*
X0326194Y0057785D01*
X0318319Y0057785D02*
X0295486Y0057785D01*
X0296335Y0056187D02*
X0317682Y0056187D01*
X0317682Y0054588D02*
X0296335Y0054588D01*
X0296335Y0052990D02*
X0317682Y0052990D01*
X0317682Y0051391D02*
X0296335Y0051391D01*
X0295999Y0049793D02*
X0318231Y0049793D01*
X0326282Y0049793D02*
X0348682Y0049793D01*
X0348682Y0051391D02*
X0346815Y0051391D01*
X0348413Y0052990D02*
X0348682Y0052990D01*
X0353209Y0057785D02*
X0358503Y0057785D01*
X0360102Y0059384D02*
X0354807Y0059384D01*
X0356406Y0060982D02*
X0361700Y0060982D01*
X0363299Y0062581D02*
X0358004Y0062581D01*
X0359603Y0064179D02*
X0364897Y0064179D01*
X0366496Y0065778D02*
X0361201Y0065778D01*
X0362800Y0067376D02*
X0368094Y0067376D01*
X0369693Y0068975D02*
X0364398Y0068975D01*
X0365443Y0070573D02*
X0371291Y0070573D01*
X0372890Y0072172D02*
X0365509Y0072172D01*
X0369492Y0073770D02*
X0374488Y0073770D01*
X0376087Y0075369D02*
X0369725Y0075369D01*
X0369725Y0076967D02*
X0377685Y0076967D01*
X0379284Y0078566D02*
X0369725Y0078566D01*
X0369725Y0080164D02*
X0380882Y0080164D01*
X0382481Y0081763D02*
X0369725Y0081763D01*
X0369725Y0083361D02*
X0384079Y0083361D01*
X0385678Y0084960D02*
X0369725Y0084960D01*
X0369725Y0086558D02*
X0387276Y0086558D01*
X0392812Y0088157D02*
X0369725Y0088157D01*
X0369725Y0089755D02*
X0394410Y0089755D01*
X0396009Y0091354D02*
X0369725Y0091354D01*
X0369725Y0092952D02*
X0397607Y0092952D01*
X0399206Y0094551D02*
X0369725Y0094551D01*
X0369725Y0096149D02*
X0399863Y0096149D01*
X0396174Y0097748D02*
X0369725Y0097748D01*
X0369725Y0099346D02*
X0396174Y0099346D01*
X0396174Y0100945D02*
X0369725Y0100945D01*
X0369725Y0102543D02*
X0396174Y0102543D01*
X0396174Y0104142D02*
X0369725Y0104142D01*
X0369172Y0105740D02*
X0396174Y0105740D01*
X0396174Y0107339D02*
X0334997Y0107339D01*
X0334997Y0108937D02*
X0396174Y0108937D01*
X0396174Y0110536D02*
X0334997Y0110536D01*
X0334997Y0112134D02*
X0396174Y0112134D01*
X0396174Y0113733D02*
X0334997Y0113733D01*
X0334997Y0115332D02*
X0396174Y0115332D01*
X0396174Y0116930D02*
X0334997Y0116930D01*
X0334997Y0118529D02*
X0396174Y0118529D01*
X0396174Y0120127D02*
X0334997Y0120127D01*
X0334070Y0121726D02*
X0396174Y0121726D01*
X0396174Y0123324D02*
X0332471Y0123324D01*
X0330873Y0124923D02*
X0396174Y0124923D01*
X0396174Y0126521D02*
X0329274Y0126521D01*
X0327676Y0128120D02*
X0396174Y0128120D01*
X0397216Y0129718D02*
X0326077Y0129718D01*
X0338725Y0105740D02*
X0357026Y0105740D01*
X0356473Y0104142D02*
X0338725Y0104142D01*
X0338725Y0102543D02*
X0356473Y0102543D01*
X0356473Y0100945D02*
X0338725Y0100945D01*
X0338725Y0099346D02*
X0356473Y0099346D01*
X0356473Y0097748D02*
X0338725Y0097748D01*
X0338725Y0096149D02*
X0356473Y0096149D01*
X0356473Y0094551D02*
X0338725Y0094551D01*
X0338725Y0092952D02*
X0356473Y0092952D01*
X0356473Y0091354D02*
X0338725Y0091354D01*
X0338725Y0089755D02*
X0356473Y0089755D01*
X0356473Y0088157D02*
X0338725Y0088157D01*
X0338725Y0086558D02*
X0356473Y0086558D01*
X0356473Y0084960D02*
X0338725Y0084960D01*
X0338725Y0083361D02*
X0356473Y0083361D01*
X0356473Y0081763D02*
X0338725Y0081763D01*
X0338725Y0080164D02*
X0356473Y0080164D01*
X0356473Y0078566D02*
X0338725Y0078566D01*
X0338725Y0076967D02*
X0356473Y0076967D01*
X0356473Y0075369D02*
X0338725Y0075369D01*
X0337689Y0073770D02*
X0356706Y0073770D01*
X0381375Y0072172D02*
X0389238Y0072172D01*
X0388383Y0073770D02*
X0382973Y0073770D01*
X0384572Y0075369D02*
X0388383Y0075369D01*
X0388383Y0076967D02*
X0386171Y0076967D01*
X0387769Y0078566D02*
X0388383Y0078566D01*
X0297102Y0072172D02*
X0272770Y0072172D01*
X0271509Y0070573D02*
X0295504Y0070573D01*
X0293905Y0068975D02*
X0269910Y0068975D01*
X0268312Y0067376D02*
X0292307Y0067376D01*
X0290708Y0065778D02*
X0266713Y0065778D01*
X0265115Y0064179D02*
X0289110Y0064179D01*
X0287511Y0062581D02*
X0263516Y0062581D01*
X0261918Y0060982D02*
X0285913Y0060982D01*
X0284314Y0059384D02*
X0260319Y0059384D01*
X0264486Y0057785D02*
X0282716Y0057785D01*
X0286405Y0052990D02*
X0287186Y0052990D01*
X0287186Y0051391D02*
X0284807Y0051391D01*
X0287522Y0049793D02*
X0264999Y0049793D01*
X0256522Y0049793D02*
X0233999Y0049793D01*
X0233486Y0057785D02*
X0250235Y0057785D01*
X0251834Y0059384D02*
X0229807Y0059384D01*
X0231406Y0060982D02*
X0253432Y0060982D01*
X0255031Y0062581D02*
X0233004Y0062581D01*
X0234603Y0064179D02*
X0256629Y0064179D01*
X0258228Y0065778D02*
X0236201Y0065778D01*
X0237800Y0067376D02*
X0259826Y0067376D01*
X0261425Y0068975D02*
X0239398Y0068975D01*
X0240997Y0070573D02*
X0263023Y0070573D01*
X0264622Y0072172D02*
X0242259Y0072172D01*
X0245406Y0073770D02*
X0264801Y0073770D01*
X0263977Y0075369D02*
X0246229Y0075369D01*
X0246229Y0076967D02*
X0263977Y0076967D01*
X0263977Y0078566D02*
X0246229Y0078566D01*
X0246229Y0080164D02*
X0263977Y0080164D01*
X0263977Y0081763D02*
X0246229Y0081763D01*
X0246229Y0083361D02*
X0263977Y0083361D01*
X0263977Y0084960D02*
X0246229Y0084960D01*
X0246229Y0086558D02*
X0263977Y0086558D01*
X0263977Y0088157D02*
X0246229Y0088157D01*
X0246229Y0089755D02*
X0263977Y0089755D01*
X0263977Y0091354D02*
X0246229Y0091354D01*
X0246229Y0092952D02*
X0263977Y0092952D01*
X0263977Y0094551D02*
X0246229Y0094551D01*
X0246229Y0096149D02*
X0263977Y0096149D01*
X0263977Y0097748D02*
X0246229Y0097748D01*
X0246229Y0099346D02*
X0263977Y0099346D01*
X0263977Y0100945D02*
X0246229Y0100945D01*
X0246229Y0102543D02*
X0263977Y0102543D01*
X0263977Y0104142D02*
X0246229Y0104142D01*
X0246229Y0105740D02*
X0263977Y0105740D01*
X0277229Y0105740D02*
X0294977Y0105740D01*
X0294977Y0104142D02*
X0277229Y0104142D01*
X0277229Y0102543D02*
X0294977Y0102543D01*
X0294977Y0100945D02*
X0277229Y0100945D01*
X0277229Y0099346D02*
X0294977Y0099346D01*
X0294977Y0097748D02*
X0277229Y0097748D01*
X0277229Y0096149D02*
X0294977Y0096149D01*
X0294977Y0094551D02*
X0277229Y0094551D01*
X0277229Y0092952D02*
X0294977Y0092952D01*
X0294977Y0091354D02*
X0277229Y0091354D01*
X0277229Y0089755D02*
X0294977Y0089755D01*
X0294977Y0088157D02*
X0277229Y0088157D01*
X0277229Y0086558D02*
X0294977Y0086558D01*
X0294977Y0084960D02*
X0277229Y0084960D01*
X0277229Y0083361D02*
X0294977Y0083361D01*
X0294977Y0081763D02*
X0277229Y0081763D01*
X0277229Y0080164D02*
X0294977Y0080164D01*
X0294977Y0078566D02*
X0277229Y0078566D01*
X0277229Y0076967D02*
X0294977Y0076967D01*
X0294977Y0075369D02*
X0277229Y0075369D01*
X0276406Y0073770D02*
X0295801Y0073770D01*
X0256186Y0054588D02*
X0255524Y0054588D01*
X0256186Y0052990D02*
X0253925Y0052990D01*
X0252327Y0051391D02*
X0256186Y0051391D01*
X0234110Y0072172D02*
X0152387Y0072172D01*
X0151109Y0073450D02*
X0152253Y0074594D01*
X0152253Y0105778D01*
X0151081Y0106950D01*
X0140172Y0106950D01*
X0139001Y0105778D01*
X0139001Y0074594D01*
X0140172Y0073422D01*
X0142905Y0073422D01*
X0143083Y0072990D01*
X0162209Y0053864D01*
X0162209Y0050129D01*
X0163381Y0048957D01*
X0170187Y0048957D01*
X0171359Y0050129D01*
X0171359Y0056936D01*
X0170187Y0058107D01*
X0166452Y0058107D01*
X0151109Y0073450D01*
X0151429Y0073770D02*
X0233801Y0073770D01*
X0232977Y0075369D02*
X0152253Y0075369D01*
X0152253Y0076967D02*
X0232977Y0076967D01*
X0232977Y0078566D02*
X0152253Y0078566D01*
X0152253Y0080164D02*
X0232977Y0080164D01*
X0232977Y0081763D02*
X0152253Y0081763D01*
X0152253Y0083361D02*
X0232977Y0083361D01*
X0232977Y0084960D02*
X0152253Y0084960D01*
X0152253Y0086558D02*
X0232977Y0086558D01*
X0232977Y0088157D02*
X0152253Y0088157D01*
X0152253Y0089755D02*
X0232977Y0089755D01*
X0232977Y0091354D02*
X0152253Y0091354D01*
X0152253Y0092952D02*
X0232977Y0092952D01*
X0232977Y0094551D02*
X0152253Y0094551D01*
X0152253Y0096149D02*
X0232977Y0096149D01*
X0232977Y0097748D02*
X0152253Y0097748D01*
X0152253Y0099346D02*
X0232977Y0099346D01*
X0232977Y0100945D02*
X0152253Y0100945D01*
X0152253Y0102543D02*
X0232977Y0102543D01*
X0232977Y0104142D02*
X0152253Y0104142D01*
X0152253Y0105740D02*
X0232977Y0105740D01*
X0232512Y0070573D02*
X0153986Y0070573D01*
X0155584Y0068975D02*
X0230913Y0068975D01*
X0229315Y0067376D02*
X0157183Y0067376D01*
X0158781Y0065778D02*
X0227716Y0065778D01*
X0226118Y0064179D02*
X0160380Y0064179D01*
X0161979Y0062581D02*
X0224519Y0062581D01*
X0222921Y0060982D02*
X0163577Y0060982D01*
X0165176Y0059384D02*
X0221322Y0059384D01*
X0219724Y0057785D02*
X0202486Y0057785D01*
X0195035Y0057785D02*
X0170509Y0057785D01*
X0171359Y0056187D02*
X0194186Y0056187D01*
X0194186Y0054588D02*
X0171359Y0054588D01*
X0171359Y0052990D02*
X0194186Y0052990D01*
X0194186Y0051391D02*
X0171359Y0051391D01*
X0171023Y0049793D02*
X0194522Y0049793D01*
X0202999Y0049793D02*
X0225522Y0049793D01*
X0225186Y0051391D02*
X0221815Y0051391D01*
X0223413Y0052990D02*
X0225186Y0052990D01*
X0225186Y0054588D02*
X0225012Y0054588D01*
X0162546Y0049793D02*
X0140023Y0049793D01*
X0140359Y0051391D02*
X0162209Y0051391D01*
X0162209Y0052990D02*
X0140359Y0052990D01*
X0140359Y0054588D02*
X0161486Y0054588D01*
X0159887Y0056187D02*
X0140359Y0056187D01*
X0139509Y0057785D02*
X0158289Y0057785D01*
X0156690Y0059384D02*
X0134176Y0059384D01*
X0132577Y0060982D02*
X0155092Y0060982D01*
X0153493Y0062581D02*
X0130979Y0062581D01*
X0129380Y0064179D02*
X0151895Y0064179D01*
X0150296Y0065778D02*
X0127781Y0065778D01*
X0126183Y0067376D02*
X0148698Y0067376D01*
X0147099Y0068975D02*
X0124584Y0068975D01*
X0122986Y0070573D02*
X0145501Y0070573D01*
X0143902Y0072172D02*
X0121387Y0072172D01*
X0120429Y0073770D02*
X0139824Y0073770D01*
X0139001Y0075369D02*
X0121253Y0075369D01*
X0121253Y0076967D02*
X0139001Y0076967D01*
X0139001Y0078566D02*
X0121253Y0078566D01*
X0121253Y0080164D02*
X0139001Y0080164D01*
X0139001Y0081763D02*
X0121253Y0081763D01*
X0121253Y0083361D02*
X0139001Y0083361D01*
X0139001Y0084960D02*
X0121253Y0084960D01*
X0121253Y0086558D02*
X0139001Y0086558D01*
X0139001Y0088157D02*
X0121253Y0088157D01*
X0121253Y0089755D02*
X0139001Y0089755D01*
X0139001Y0091354D02*
X0121253Y0091354D01*
X0121253Y0092952D02*
X0139001Y0092952D01*
X0139001Y0094551D02*
X0121253Y0094551D01*
X0121253Y0096149D02*
X0139001Y0096149D01*
X0139001Y0097748D02*
X0121253Y0097748D01*
X0121253Y0099346D02*
X0139001Y0099346D01*
X0139001Y0100945D02*
X0121253Y0100945D01*
X0121253Y0102543D02*
X0139001Y0102543D01*
X0139001Y0104142D02*
X0121253Y0104142D01*
X0121253Y0105740D02*
X0139001Y0105740D01*
X0108001Y0105740D02*
X0090253Y0105740D01*
X0090253Y0104142D02*
X0108001Y0104142D01*
X0108001Y0102543D02*
X0090253Y0102543D01*
X0090253Y0100945D02*
X0108001Y0100945D01*
X0108001Y0099346D02*
X0090253Y0099346D01*
X0090253Y0097748D02*
X0108001Y0097748D01*
X0108001Y0096149D02*
X0090253Y0096149D01*
X0090253Y0094551D02*
X0108001Y0094551D01*
X0108001Y0092952D02*
X0090253Y0092952D01*
X0090253Y0091354D02*
X0108001Y0091354D01*
X0083501Y0070573D02*
X0036600Y0070573D01*
X0036600Y0068975D02*
X0085099Y0068975D01*
X0086698Y0067376D02*
X0036600Y0067376D01*
X0036600Y0065778D02*
X0088296Y0065778D01*
X0089895Y0064179D02*
X0051783Y0064179D01*
X0054295Y0062581D02*
X0091493Y0062581D01*
X0093092Y0060982D02*
X0055889Y0060982D01*
X0043313Y0064179D02*
X0036600Y0064179D01*
X0036600Y0062581D02*
X0040801Y0062581D01*
X0039207Y0060982D02*
X0036600Y0060982D01*
X0036600Y0059384D02*
X0038284Y0059384D01*
X0037618Y0057785D02*
X0036600Y0057785D01*
X0036600Y0056187D02*
X0037190Y0056187D01*
X0037131Y0054588D02*
X0036600Y0054588D01*
X0036600Y0052990D02*
X0037193Y0052990D01*
X0037622Y0051391D02*
X0036600Y0051391D01*
X0036600Y0049793D02*
X0038292Y0049793D01*
X0039217Y0048194D02*
X0036600Y0048194D01*
X0036600Y0072172D02*
X0081902Y0072172D01*
X0077824Y0073770D02*
X0036600Y0073770D01*
X0036600Y0075369D02*
X0077001Y0075369D01*
X0077001Y0076967D02*
X0036600Y0076967D01*
X0036600Y0078566D02*
X0077001Y0078566D01*
X0077001Y0080164D02*
X0036600Y0080164D01*
X0036600Y0081763D02*
X0077001Y0081763D01*
X0077001Y0083361D02*
X0036600Y0083361D01*
X0036600Y0084960D02*
X0077001Y0084960D01*
X0077001Y0086558D02*
X0036600Y0086558D01*
X0036600Y0088157D02*
X0077001Y0088157D01*
X0077001Y0089755D02*
X0036600Y0089755D01*
X0036600Y0091354D02*
X0077001Y0091354D01*
X0077001Y0092952D02*
X0036600Y0092952D01*
X0036600Y0094551D02*
X0077001Y0094551D01*
X0077001Y0096149D02*
X0036600Y0096149D01*
X0036600Y0097748D02*
X0077001Y0097748D01*
X0077001Y0099346D02*
X0036600Y0099346D01*
X0036600Y0100945D02*
X0077001Y0100945D01*
X0077001Y0102543D02*
X0036600Y0102543D01*
X0036600Y0104142D02*
X0077001Y0104142D01*
X0077001Y0105740D02*
X0036600Y0105740D01*
X0036600Y0196856D02*
X0059144Y0196856D01*
X0058335Y0198454D02*
X0036600Y0198454D01*
X0036600Y0200053D02*
X0037286Y0200053D01*
X0037209Y0200129D02*
X0038381Y0198957D01*
X0045187Y0198957D01*
X0046359Y0200129D01*
X0046359Y0206936D01*
X0045187Y0208107D01*
X0038381Y0208107D01*
X0037209Y0206936D01*
X0037209Y0200129D01*
X0037209Y0201651D02*
X0036600Y0201651D01*
X0036600Y0203250D02*
X0037209Y0203250D01*
X0037209Y0204848D02*
X0036600Y0204848D01*
X0036600Y0206447D02*
X0037209Y0206447D01*
X0036600Y0208045D02*
X0038319Y0208045D01*
X0036600Y0209644D02*
X0059847Y0209644D01*
X0059847Y0208045D02*
X0045249Y0208045D01*
X0046359Y0206447D02*
X0059847Y0206447D01*
X0058713Y0204848D02*
X0046359Y0204848D01*
X0046359Y0203250D02*
X0058335Y0203250D01*
X0058335Y0201651D02*
X0046359Y0201651D01*
X0046283Y0200053D02*
X0058335Y0200053D01*
X0067485Y0200053D02*
X0077442Y0200053D01*
X0077442Y0201651D02*
X0067485Y0201651D01*
X0067485Y0203250D02*
X0077442Y0203250D01*
X0077442Y0204848D02*
X0067108Y0204848D01*
X0065847Y0206447D02*
X0077442Y0206447D01*
X0077442Y0208045D02*
X0065847Y0208045D01*
X0066934Y0209644D02*
X0077442Y0209644D01*
X0077442Y0211242D02*
X0068532Y0211242D01*
X0064842Y0216038D02*
X0036600Y0216038D01*
X0036600Y0217636D02*
X0066441Y0217636D01*
X0063244Y0214439D02*
X0036600Y0214439D01*
X0036600Y0212841D02*
X0061645Y0212841D01*
X0060197Y0211242D02*
X0036600Y0211242D01*
X0036600Y0219235D02*
X0077442Y0219235D01*
X0077442Y0220833D02*
X0036600Y0220833D01*
X0036600Y0222432D02*
X0077442Y0222432D01*
X0077442Y0224030D02*
X0057689Y0224030D01*
X0058253Y0224594D02*
X0058253Y0237186D01*
X0059035Y0237186D01*
X0060137Y0237643D01*
X0060981Y0238486D01*
X0060981Y0238486D01*
X0072452Y0249957D01*
X0076187Y0249957D01*
X0077359Y0251129D01*
X0077359Y0257936D01*
X0076187Y0259107D01*
X0069381Y0259107D01*
X0068209Y0257936D01*
X0068209Y0254200D01*
X0058253Y0244243D01*
X0058253Y0255778D01*
X0057081Y0256950D01*
X0046172Y0256950D01*
X0045001Y0255778D01*
X0045001Y0224594D01*
X0046172Y0223422D01*
X0057081Y0223422D01*
X0058253Y0224594D01*
X0058253Y0225629D02*
X0077442Y0225629D01*
X0077442Y0227227D02*
X0058253Y0227227D01*
X0058253Y0228826D02*
X0077442Y0228826D01*
X0077442Y0230424D02*
X0058253Y0230424D01*
X0058253Y0232023D02*
X0078458Y0232023D01*
X0089677Y0232023D02*
X0140458Y0232023D01*
X0140585Y0232150D02*
X0139442Y0231006D01*
X0139442Y0199822D01*
X0140613Y0198650D01*
X0151522Y0198650D01*
X0152694Y0199822D01*
X0152694Y0231006D01*
X0151522Y0232178D01*
X0148790Y0232178D01*
X0148611Y0232610D01*
X0129485Y0251736D01*
X0129485Y0255471D01*
X0128313Y0256643D01*
X0121507Y0256643D01*
X0120335Y0255471D01*
X0120335Y0248664D01*
X0121507Y0247493D01*
X0125242Y0247493D01*
X0140585Y0232150D01*
X0139442Y0230424D02*
X0090694Y0230424D01*
X0090694Y0228826D02*
X0139442Y0228826D01*
X0139442Y0227227D02*
X0090694Y0227227D01*
X0090694Y0225629D02*
X0139442Y0225629D01*
X0139442Y0224030D02*
X0090694Y0224030D01*
X0090694Y0222432D02*
X0139442Y0222432D01*
X0139442Y0220833D02*
X0090694Y0220833D01*
X0090694Y0219235D02*
X0139442Y0219235D01*
X0139442Y0217636D02*
X0090694Y0217636D01*
X0090694Y0216038D02*
X0139442Y0216038D01*
X0139442Y0214439D02*
X0090694Y0214439D01*
X0090694Y0212841D02*
X0139442Y0212841D01*
X0139442Y0211242D02*
X0090694Y0211242D01*
X0090694Y0209644D02*
X0139442Y0209644D01*
X0139442Y0208045D02*
X0090694Y0208045D01*
X0090694Y0206447D02*
X0139442Y0206447D01*
X0139442Y0204848D02*
X0090694Y0204848D01*
X0090694Y0203250D02*
X0139442Y0203250D01*
X0139442Y0201651D02*
X0090694Y0201651D01*
X0090694Y0200053D02*
X0139442Y0200053D01*
X0152694Y0200053D02*
X0201442Y0200053D01*
X0201442Y0199822D02*
X0202613Y0198650D01*
X0213522Y0198650D01*
X0214694Y0199822D01*
X0214694Y0231006D01*
X0213522Y0232178D01*
X0210790Y0232178D01*
X0210611Y0232610D01*
X0191485Y0251736D01*
X0191485Y0255471D01*
X0190313Y0256643D01*
X0183507Y0256643D01*
X0182335Y0255471D01*
X0182335Y0248664D01*
X0183507Y0247493D01*
X0187242Y0247493D01*
X0202585Y0232150D01*
X0201442Y0231006D01*
X0201442Y0199822D01*
X0201442Y0201651D02*
X0152694Y0201651D01*
X0152694Y0203250D02*
X0201442Y0203250D01*
X0201442Y0204848D02*
X0152694Y0204848D01*
X0152694Y0206447D02*
X0201442Y0206447D01*
X0201442Y0208045D02*
X0152694Y0208045D01*
X0152694Y0209644D02*
X0201442Y0209644D01*
X0201442Y0211242D02*
X0152694Y0211242D01*
X0152694Y0212841D02*
X0201442Y0212841D01*
X0201442Y0214439D02*
X0152694Y0214439D01*
X0152694Y0216038D02*
X0201442Y0216038D01*
X0201442Y0217636D02*
X0152694Y0217636D01*
X0152694Y0219235D02*
X0201442Y0219235D01*
X0201442Y0220833D02*
X0152694Y0220833D01*
X0152694Y0222432D02*
X0201442Y0222432D01*
X0201442Y0224030D02*
X0152694Y0224030D01*
X0152694Y0225629D02*
X0201442Y0225629D01*
X0201442Y0227227D02*
X0152694Y0227227D01*
X0152694Y0228826D02*
X0201442Y0228826D01*
X0201442Y0230424D02*
X0152694Y0230424D01*
X0151677Y0232023D02*
X0202458Y0232023D01*
X0201114Y0233621D02*
X0147599Y0233621D01*
X0146001Y0235220D02*
X0199515Y0235220D01*
X0197917Y0236818D02*
X0144402Y0236818D01*
X0142804Y0238417D02*
X0196318Y0238417D01*
X0194720Y0240015D02*
X0141205Y0240015D01*
X0139607Y0241614D02*
X0193121Y0241614D01*
X0191523Y0243212D02*
X0138008Y0243212D01*
X0136410Y0244811D02*
X0189924Y0244811D01*
X0188326Y0246409D02*
X0134811Y0246409D01*
X0133213Y0248008D02*
X0151992Y0248008D01*
X0152507Y0247493D02*
X0159313Y0247493D01*
X0160485Y0248664D01*
X0160485Y0255471D01*
X0159313Y0256643D01*
X0155578Y0256643D01*
X0147627Y0264594D01*
X0147627Y0274422D01*
X0150081Y0274422D01*
X0151253Y0275594D01*
X0151253Y0306778D01*
X0150081Y0307950D01*
X0139172Y0307950D01*
X0138001Y0306778D01*
X0138001Y0275594D01*
X0139172Y0274422D01*
X0141627Y0274422D01*
X0141627Y0262754D01*
X0142083Y0261652D01*
X0151335Y0252400D01*
X0151335Y0248664D01*
X0152507Y0247493D01*
X0151335Y0249606D02*
X0131614Y0249606D01*
X0131381Y0249957D02*
X0138187Y0249957D01*
X0139359Y0251129D01*
X0139359Y0257936D01*
X0138187Y0259107D01*
X0134452Y0259107D01*
X0119109Y0274450D01*
X0120253Y0275594D01*
X0120253Y0306778D01*
X0119081Y0307950D01*
X0108172Y0307950D01*
X0107001Y0306778D01*
X0107001Y0275594D01*
X0108172Y0274422D01*
X0110905Y0274422D01*
X0111083Y0273990D01*
X0130209Y0254864D01*
X0130209Y0251129D01*
X0131381Y0249957D01*
X0130209Y0251205D02*
X0130016Y0251205D01*
X0130209Y0252803D02*
X0129485Y0252803D01*
X0129485Y0254402D02*
X0130209Y0254402D01*
X0129073Y0256001D02*
X0128955Y0256001D01*
X0127475Y0257599D02*
X0108359Y0257599D01*
X0108359Y0257936D02*
X0108359Y0251129D01*
X0107187Y0249957D01*
X0100381Y0249957D01*
X0099209Y0251129D01*
X0099209Y0257936D01*
X0100381Y0259107D01*
X0107187Y0259107D01*
X0108359Y0257936D01*
X0108359Y0256001D02*
X0120865Y0256001D01*
X0120335Y0254402D02*
X0108359Y0254402D01*
X0108359Y0252803D02*
X0120335Y0252803D01*
X0120335Y0251205D02*
X0108359Y0251205D01*
X0099209Y0251205D02*
X0098485Y0251205D01*
X0098485Y0252803D02*
X0099209Y0252803D01*
X0099209Y0254402D02*
X0098485Y0254402D01*
X0098485Y0255471D02*
X0097313Y0256643D01*
X0093578Y0256643D01*
X0085627Y0264594D01*
X0085627Y0274422D01*
X0088081Y0274422D01*
X0089253Y0275594D01*
X0089253Y0306778D01*
X0088081Y0307950D01*
X0077172Y0307950D01*
X0076001Y0306778D01*
X0076001Y0275594D01*
X0077172Y0274422D01*
X0079627Y0274422D01*
X0079627Y0262754D01*
X0080083Y0261652D01*
X0089335Y0252400D01*
X0089335Y0248664D01*
X0090507Y0247493D01*
X0097313Y0247493D01*
X0098485Y0248664D01*
X0098485Y0255471D01*
X0097955Y0256001D02*
X0099209Y0256001D01*
X0099209Y0257599D02*
X0092622Y0257599D01*
X0091023Y0259198D02*
X0125876Y0259198D01*
X0124278Y0260796D02*
X0089425Y0260796D01*
X0087826Y0262395D02*
X0122679Y0262395D01*
X0121081Y0263993D02*
X0086228Y0263993D01*
X0085627Y0265592D02*
X0119482Y0265592D01*
X0117884Y0267190D02*
X0085627Y0267190D01*
X0085627Y0268789D02*
X0116285Y0268789D01*
X0114687Y0270387D02*
X0085627Y0270387D01*
X0085627Y0271986D02*
X0113088Y0271986D01*
X0111490Y0273584D02*
X0085627Y0273584D01*
X0088842Y0275183D02*
X0107412Y0275183D01*
X0107001Y0276781D02*
X0089253Y0276781D01*
X0089253Y0278380D02*
X0107001Y0278380D01*
X0107001Y0279978D02*
X0089253Y0279978D01*
X0089253Y0281577D02*
X0107001Y0281577D01*
X0107001Y0283175D02*
X0089253Y0283175D01*
X0089253Y0284774D02*
X0107001Y0284774D01*
X0107001Y0286372D02*
X0089253Y0286372D01*
X0089253Y0287971D02*
X0107001Y0287971D01*
X0107001Y0289569D02*
X0089253Y0289569D01*
X0089253Y0291168D02*
X0107001Y0291168D01*
X0107001Y0292766D02*
X0089253Y0292766D01*
X0089253Y0294365D02*
X0107001Y0294365D01*
X0107001Y0295963D02*
X0089253Y0295963D01*
X0089253Y0297562D02*
X0107001Y0297562D01*
X0107001Y0299160D02*
X0089253Y0299160D01*
X0089253Y0300759D02*
X0107001Y0300759D01*
X0107001Y0302357D02*
X0089253Y0302357D01*
X0089253Y0303956D02*
X0107001Y0303956D01*
X0107001Y0305554D02*
X0089253Y0305554D01*
X0088878Y0307153D02*
X0107376Y0307153D01*
X0119878Y0307153D02*
X0138376Y0307153D01*
X0138001Y0305554D02*
X0120253Y0305554D01*
X0120253Y0303956D02*
X0138001Y0303956D01*
X0138001Y0302357D02*
X0120253Y0302357D01*
X0120253Y0300759D02*
X0138001Y0300759D01*
X0138001Y0299160D02*
X0120253Y0299160D01*
X0120253Y0297562D02*
X0138001Y0297562D01*
X0138001Y0295963D02*
X0120253Y0295963D01*
X0120253Y0294365D02*
X0138001Y0294365D01*
X0138001Y0292766D02*
X0120253Y0292766D01*
X0120253Y0291168D02*
X0138001Y0291168D01*
X0138001Y0289569D02*
X0120253Y0289569D01*
X0120253Y0287971D02*
X0138001Y0287971D01*
X0138001Y0286372D02*
X0120253Y0286372D01*
X0120253Y0284774D02*
X0138001Y0284774D01*
X0138001Y0283175D02*
X0120253Y0283175D01*
X0120253Y0281577D02*
X0138001Y0281577D01*
X0138001Y0279978D02*
X0120253Y0279978D01*
X0120253Y0278380D02*
X0138001Y0278380D01*
X0138001Y0276781D02*
X0120253Y0276781D01*
X0119842Y0275183D02*
X0138412Y0275183D01*
X0141627Y0273584D02*
X0119975Y0273584D01*
X0121574Y0271986D02*
X0141627Y0271986D01*
X0141627Y0270387D02*
X0123172Y0270387D01*
X0124771Y0268789D02*
X0141627Y0268789D01*
X0141627Y0267190D02*
X0126369Y0267190D01*
X0127968Y0265592D02*
X0141627Y0265592D01*
X0141627Y0263993D02*
X0129566Y0263993D01*
X0131165Y0262395D02*
X0141776Y0262395D01*
X0142939Y0260796D02*
X0132763Y0260796D01*
X0134362Y0259198D02*
X0144538Y0259198D01*
X0146136Y0257599D02*
X0139359Y0257599D01*
X0139359Y0256001D02*
X0147735Y0256001D01*
X0149333Y0254402D02*
X0139359Y0254402D01*
X0139359Y0252803D02*
X0150932Y0252803D01*
X0151335Y0251205D02*
X0139359Y0251205D01*
X0131121Y0241614D02*
X0064109Y0241614D01*
X0065707Y0243212D02*
X0129523Y0243212D01*
X0127924Y0244811D02*
X0067306Y0244811D01*
X0068904Y0246409D02*
X0126326Y0246409D01*
X0120992Y0248008D02*
X0097829Y0248008D01*
X0098485Y0249606D02*
X0120335Y0249606D01*
X0132720Y0240015D02*
X0062510Y0240015D01*
X0060912Y0238417D02*
X0134318Y0238417D01*
X0135917Y0236818D02*
X0058253Y0236818D01*
X0058253Y0235220D02*
X0137515Y0235220D01*
X0139114Y0233621D02*
X0058253Y0233621D01*
X0045001Y0233621D02*
X0036600Y0233621D01*
X0036600Y0232023D02*
X0045001Y0232023D01*
X0045001Y0230424D02*
X0036600Y0230424D01*
X0036600Y0228826D02*
X0045001Y0228826D01*
X0045001Y0227227D02*
X0036600Y0227227D01*
X0036600Y0225629D02*
X0045001Y0225629D01*
X0045564Y0224030D02*
X0036600Y0224030D01*
X0036600Y0235220D02*
X0045001Y0235220D01*
X0045001Y0236818D02*
X0036600Y0236818D01*
X0036600Y0238417D02*
X0045001Y0238417D01*
X0045001Y0240015D02*
X0036600Y0240015D01*
X0036600Y0241614D02*
X0045001Y0241614D01*
X0045001Y0243212D02*
X0036600Y0243212D01*
X0036600Y0244811D02*
X0045001Y0244811D01*
X0045001Y0246409D02*
X0036600Y0246409D01*
X0036600Y0248008D02*
X0045001Y0248008D01*
X0045001Y0249606D02*
X0036600Y0249606D01*
X0036600Y0251205D02*
X0045001Y0251205D01*
X0045001Y0252803D02*
X0036600Y0252803D01*
X0036600Y0254402D02*
X0045001Y0254402D01*
X0045223Y0256001D02*
X0036600Y0256001D01*
X0036600Y0257599D02*
X0068209Y0257599D01*
X0068209Y0256001D02*
X0058030Y0256001D01*
X0058253Y0254402D02*
X0068209Y0254402D01*
X0066813Y0252803D02*
X0058253Y0252803D01*
X0058253Y0251205D02*
X0065214Y0251205D01*
X0063616Y0249606D02*
X0058253Y0249606D01*
X0058253Y0248008D02*
X0062017Y0248008D01*
X0060419Y0246409D02*
X0058253Y0246409D01*
X0058253Y0244811D02*
X0058820Y0244811D01*
X0070503Y0248008D02*
X0089992Y0248008D01*
X0089335Y0249606D02*
X0072101Y0249606D01*
X0077359Y0251205D02*
X0089335Y0251205D01*
X0088932Y0252803D02*
X0077359Y0252803D01*
X0077359Y0254402D02*
X0087333Y0254402D01*
X0085735Y0256001D02*
X0077359Y0256001D01*
X0077359Y0257599D02*
X0084136Y0257599D01*
X0082538Y0259198D02*
X0036600Y0259198D01*
X0036600Y0260796D02*
X0080939Y0260796D01*
X0079776Y0262395D02*
X0036600Y0262395D01*
X0036600Y0263993D02*
X0079627Y0263993D01*
X0079627Y0265592D02*
X0036600Y0265592D01*
X0036600Y0267190D02*
X0079627Y0267190D01*
X0079627Y0268789D02*
X0036600Y0268789D01*
X0036600Y0270387D02*
X0079627Y0270387D01*
X0079627Y0271986D02*
X0036600Y0271986D01*
X0036600Y0273584D02*
X0079627Y0273584D01*
X0076412Y0275183D02*
X0036600Y0275183D01*
X0036600Y0276781D02*
X0076001Y0276781D01*
X0076001Y0278380D02*
X0036600Y0278380D01*
X0036600Y0279978D02*
X0076001Y0279978D01*
X0076001Y0281577D02*
X0036600Y0281577D01*
X0036600Y0283175D02*
X0076001Y0283175D01*
X0076001Y0284774D02*
X0036600Y0284774D01*
X0036600Y0286372D02*
X0076001Y0286372D01*
X0076001Y0287971D02*
X0036600Y0287971D01*
X0036600Y0289569D02*
X0076001Y0289569D01*
X0076001Y0291168D02*
X0036600Y0291168D01*
X0036600Y0292766D02*
X0076001Y0292766D01*
X0076001Y0294365D02*
X0036600Y0294365D01*
X0036600Y0295963D02*
X0076001Y0295963D01*
X0076001Y0297562D02*
X0036600Y0297562D01*
X0036600Y0299160D02*
X0076001Y0299160D01*
X0076001Y0300759D02*
X0036600Y0300759D01*
X0036600Y0302357D02*
X0076001Y0302357D01*
X0076001Y0303956D02*
X0036600Y0303956D01*
X0036600Y0305554D02*
X0076001Y0305554D01*
X0076376Y0307153D02*
X0036600Y0307153D01*
X0036600Y0308751D02*
X0225556Y0308751D01*
X0225304Y0308499D02*
X0224847Y0307397D01*
X0224847Y0259107D01*
X0224381Y0259107D01*
X0223209Y0257936D01*
X0223209Y0251129D01*
X0224381Y0249957D01*
X0231187Y0249957D01*
X0232359Y0251129D01*
X0232359Y0257936D01*
X0231187Y0259107D01*
X0230847Y0259107D01*
X0230847Y0305557D01*
X0231001Y0305711D01*
X0231001Y0275594D01*
X0232172Y0274422D01*
X0234627Y0274422D01*
X0234627Y0262754D01*
X0235083Y0261652D01*
X0244335Y0252400D01*
X0244335Y0248664D01*
X0245507Y0247493D01*
X0252313Y0247493D01*
X0253485Y0248664D01*
X0253485Y0255471D01*
X0252313Y0256643D01*
X0248578Y0256643D01*
X0240627Y0264594D01*
X0240627Y0274422D01*
X0243081Y0274422D01*
X0244253Y0275594D01*
X0244253Y0306778D01*
X0243231Y0307800D01*
X0263023Y0307800D01*
X0262001Y0306778D01*
X0262001Y0275594D01*
X0263172Y0274422D01*
X0274081Y0274422D01*
X0275253Y0275594D01*
X0275253Y0306778D01*
X0274081Y0307950D01*
X0271489Y0307950D01*
X0271170Y0308720D01*
X0267391Y0312499D01*
X0266547Y0313343D01*
X0265444Y0313800D01*
X0231250Y0313800D01*
X0230148Y0313343D01*
X0229304Y0312499D01*
X0226148Y0309343D01*
X0225304Y0308499D01*
X0224847Y0307153D02*
X0212878Y0307153D01*
X0213253Y0306778D02*
X0212081Y0307950D01*
X0201172Y0307950D01*
X0200001Y0306778D01*
X0200001Y0275594D01*
X0201172Y0274422D01*
X0203627Y0274422D01*
X0203627Y0262754D01*
X0204083Y0261652D01*
X0213335Y0252400D01*
X0213335Y0248664D01*
X0214507Y0247493D01*
X0221313Y0247493D01*
X0222485Y0248664D01*
X0222485Y0255471D01*
X0221313Y0256643D01*
X0217578Y0256643D01*
X0209627Y0264594D01*
X0209627Y0274422D01*
X0212081Y0274422D01*
X0213253Y0275594D01*
X0213253Y0306778D01*
X0213253Y0305554D02*
X0224847Y0305554D01*
X0224847Y0303956D02*
X0213253Y0303956D01*
X0213253Y0302357D02*
X0224847Y0302357D01*
X0224847Y0300759D02*
X0213253Y0300759D01*
X0213253Y0299160D02*
X0224847Y0299160D01*
X0224847Y0297562D02*
X0213253Y0297562D01*
X0213253Y0295963D02*
X0224847Y0295963D01*
X0224847Y0294365D02*
X0213253Y0294365D01*
X0213253Y0292766D02*
X0224847Y0292766D01*
X0224847Y0291168D02*
X0213253Y0291168D01*
X0213253Y0289569D02*
X0224847Y0289569D01*
X0224847Y0287971D02*
X0213253Y0287971D01*
X0213253Y0286372D02*
X0224847Y0286372D01*
X0224847Y0284774D02*
X0213253Y0284774D01*
X0213253Y0283175D02*
X0224847Y0283175D01*
X0224847Y0281577D02*
X0213253Y0281577D01*
X0213253Y0279978D02*
X0224847Y0279978D01*
X0224847Y0278380D02*
X0213253Y0278380D01*
X0213253Y0276781D02*
X0224847Y0276781D01*
X0224847Y0275183D02*
X0212842Y0275183D01*
X0209627Y0273584D02*
X0224847Y0273584D01*
X0224847Y0271986D02*
X0209627Y0271986D01*
X0209627Y0270387D02*
X0224847Y0270387D01*
X0224847Y0268789D02*
X0209627Y0268789D01*
X0209627Y0267190D02*
X0224847Y0267190D01*
X0224847Y0265592D02*
X0209627Y0265592D01*
X0210228Y0263993D02*
X0224847Y0263993D01*
X0224847Y0262395D02*
X0211826Y0262395D01*
X0213425Y0260796D02*
X0224847Y0260796D01*
X0224847Y0259198D02*
X0215023Y0259198D01*
X0216622Y0257599D02*
X0223209Y0257599D01*
X0223209Y0256001D02*
X0221955Y0256001D01*
X0222485Y0254402D02*
X0223209Y0254402D01*
X0223209Y0252803D02*
X0222485Y0252803D01*
X0222485Y0251205D02*
X0223209Y0251205D01*
X0222485Y0249606D02*
X0244335Y0249606D01*
X0244335Y0251205D02*
X0232359Y0251205D01*
X0232359Y0252803D02*
X0243932Y0252803D01*
X0242333Y0254402D02*
X0232359Y0254402D01*
X0232359Y0256001D02*
X0240735Y0256001D01*
X0239136Y0257599D02*
X0232359Y0257599D01*
X0230847Y0259198D02*
X0237538Y0259198D01*
X0235939Y0260796D02*
X0230847Y0260796D01*
X0230847Y0262395D02*
X0234776Y0262395D01*
X0234627Y0263993D02*
X0230847Y0263993D01*
X0230847Y0265592D02*
X0234627Y0265592D01*
X0234627Y0267190D02*
X0230847Y0267190D01*
X0230847Y0268789D02*
X0234627Y0268789D01*
X0234627Y0270387D02*
X0230847Y0270387D01*
X0230847Y0271986D02*
X0234627Y0271986D01*
X0234627Y0273584D02*
X0230847Y0273584D01*
X0230847Y0275183D02*
X0231412Y0275183D01*
X0231001Y0276781D02*
X0230847Y0276781D01*
X0230847Y0278380D02*
X0231001Y0278380D01*
X0231001Y0279978D02*
X0230847Y0279978D01*
X0230847Y0281577D02*
X0231001Y0281577D01*
X0231001Y0283175D02*
X0230847Y0283175D01*
X0230847Y0284774D02*
X0231001Y0284774D01*
X0231001Y0286372D02*
X0230847Y0286372D01*
X0230847Y0287971D02*
X0231001Y0287971D01*
X0231001Y0289569D02*
X0230847Y0289569D01*
X0230847Y0291168D02*
X0231001Y0291168D01*
X0231001Y0292766D02*
X0230847Y0292766D01*
X0230847Y0294365D02*
X0231001Y0294365D01*
X0231001Y0295963D02*
X0230847Y0295963D01*
X0230847Y0297562D02*
X0231001Y0297562D01*
X0231001Y0299160D02*
X0230847Y0299160D01*
X0230847Y0300759D02*
X0231001Y0300759D01*
X0231001Y0302357D02*
X0230847Y0302357D01*
X0230847Y0303956D02*
X0231001Y0303956D01*
X0231001Y0305554D02*
X0230847Y0305554D01*
X0227155Y0310350D02*
X0036600Y0310350D01*
X0036600Y0311948D02*
X0228753Y0311948D01*
X0230640Y0313547D02*
X0036600Y0313547D01*
X0036600Y0315145D02*
X0285406Y0315145D01*
X0285406Y0313547D02*
X0266055Y0313547D01*
X0267941Y0311948D02*
X0285406Y0311948D01*
X0285406Y0310350D02*
X0269540Y0310350D01*
X0271138Y0308751D02*
X0285406Y0308751D01*
X0285406Y0307153D02*
X0274878Y0307153D01*
X0275253Y0305554D02*
X0285462Y0305554D01*
X0287374Y0303956D02*
X0275253Y0303956D01*
X0275253Y0302357D02*
X0287374Y0302357D01*
X0287374Y0300759D02*
X0275253Y0300759D01*
X0275253Y0299160D02*
X0287374Y0299160D01*
X0287374Y0297562D02*
X0275253Y0297562D01*
X0275253Y0295963D02*
X0287374Y0295963D01*
X0287374Y0294365D02*
X0275253Y0294365D01*
X0275253Y0292766D02*
X0287374Y0292766D01*
X0287374Y0291168D02*
X0275253Y0291168D01*
X0275253Y0289569D02*
X0287374Y0289569D01*
X0287374Y0287971D02*
X0275253Y0287971D01*
X0275253Y0286372D02*
X0287374Y0286372D01*
X0287374Y0284774D02*
X0275253Y0284774D01*
X0275253Y0283175D02*
X0287374Y0283175D01*
X0287374Y0281577D02*
X0275253Y0281577D01*
X0275253Y0279978D02*
X0287374Y0279978D01*
X0287374Y0278380D02*
X0275253Y0278380D01*
X0275253Y0276781D02*
X0287374Y0276781D01*
X0287374Y0275183D02*
X0274842Y0275183D01*
X0262412Y0275183D02*
X0243842Y0275183D01*
X0244253Y0276781D02*
X0262001Y0276781D01*
X0262001Y0278380D02*
X0244253Y0278380D01*
X0244253Y0279978D02*
X0262001Y0279978D01*
X0262001Y0281577D02*
X0244253Y0281577D01*
X0244253Y0283175D02*
X0262001Y0283175D01*
X0262001Y0284774D02*
X0244253Y0284774D01*
X0244253Y0286372D02*
X0262001Y0286372D01*
X0262001Y0287971D02*
X0244253Y0287971D01*
X0244253Y0289569D02*
X0262001Y0289569D01*
X0262001Y0291168D02*
X0244253Y0291168D01*
X0244253Y0292766D02*
X0262001Y0292766D01*
X0262001Y0294365D02*
X0244253Y0294365D01*
X0244253Y0295963D02*
X0262001Y0295963D01*
X0262001Y0297562D02*
X0244253Y0297562D01*
X0244253Y0299160D02*
X0262001Y0299160D01*
X0262001Y0300759D02*
X0244253Y0300759D01*
X0244253Y0302357D02*
X0262001Y0302357D01*
X0262001Y0303956D02*
X0244253Y0303956D01*
X0244253Y0305554D02*
X0262001Y0305554D01*
X0262376Y0307153D02*
X0243878Y0307153D01*
X0240627Y0273584D02*
X0287374Y0273584D01*
X0287374Y0271986D02*
X0240627Y0271986D01*
X0240627Y0270387D02*
X0287374Y0270387D01*
X0287374Y0268789D02*
X0240627Y0268789D01*
X0240627Y0267190D02*
X0288393Y0267190D01*
X0290917Y0265592D02*
X0240627Y0265592D01*
X0241228Y0263993D02*
X0293346Y0263993D01*
X0295776Y0262395D02*
X0242826Y0262395D01*
X0244425Y0260796D02*
X0298206Y0260796D01*
X0300636Y0259198D02*
X0246023Y0259198D01*
X0247622Y0257599D02*
X0254209Y0257599D01*
X0254209Y0257936D02*
X0254209Y0251129D01*
X0255381Y0249957D01*
X0259116Y0249957D01*
X0267068Y0242006D01*
X0267068Y0232178D01*
X0264613Y0232178D01*
X0263442Y0231006D01*
X0263442Y0199822D01*
X0264613Y0198650D01*
X0275522Y0198650D01*
X0276694Y0199822D01*
X0276694Y0231006D01*
X0275522Y0232178D01*
X0273068Y0232178D01*
X0273068Y0243846D01*
X0272611Y0244948D01*
X0271767Y0245792D01*
X0263359Y0254200D01*
X0263359Y0257936D01*
X0262187Y0259107D01*
X0255381Y0259107D01*
X0254209Y0257936D01*
X0254209Y0256001D02*
X0252955Y0256001D01*
X0253485Y0254402D02*
X0254209Y0254402D01*
X0254209Y0252803D02*
X0253485Y0252803D01*
X0253485Y0251205D02*
X0254209Y0251205D01*
X0253485Y0249606D02*
X0259467Y0249606D01*
X0261066Y0248008D02*
X0252829Y0248008D01*
X0244992Y0248008D02*
X0221829Y0248008D01*
X0213992Y0248008D02*
X0195213Y0248008D01*
X0196811Y0246409D02*
X0262664Y0246409D01*
X0264263Y0244811D02*
X0198410Y0244811D01*
X0200008Y0243212D02*
X0265861Y0243212D01*
X0267068Y0241614D02*
X0201607Y0241614D01*
X0203205Y0240015D02*
X0267068Y0240015D01*
X0267068Y0238417D02*
X0204804Y0238417D01*
X0206402Y0236818D02*
X0267068Y0236818D01*
X0267068Y0235220D02*
X0208001Y0235220D01*
X0209599Y0233621D02*
X0267068Y0233621D01*
X0264458Y0232023D02*
X0213677Y0232023D01*
X0214694Y0230424D02*
X0263442Y0230424D01*
X0263442Y0228826D02*
X0214694Y0228826D01*
X0214694Y0227227D02*
X0263442Y0227227D01*
X0263442Y0225629D02*
X0214694Y0225629D01*
X0214694Y0224030D02*
X0263442Y0224030D01*
X0263442Y0222432D02*
X0214694Y0222432D01*
X0214694Y0220833D02*
X0263442Y0220833D01*
X0263442Y0219235D02*
X0214694Y0219235D01*
X0214694Y0217636D02*
X0263442Y0217636D01*
X0263442Y0216038D02*
X0214694Y0216038D01*
X0214694Y0214439D02*
X0263442Y0214439D01*
X0263442Y0212841D02*
X0214694Y0212841D01*
X0214694Y0211242D02*
X0263442Y0211242D01*
X0263442Y0209644D02*
X0214694Y0209644D01*
X0214694Y0208045D02*
X0263442Y0208045D01*
X0263442Y0206447D02*
X0214694Y0206447D01*
X0214694Y0204848D02*
X0263442Y0204848D01*
X0263442Y0203250D02*
X0214694Y0203250D01*
X0214694Y0201651D02*
X0263442Y0201651D01*
X0263442Y0200053D02*
X0214694Y0200053D01*
X0182992Y0248008D02*
X0159829Y0248008D01*
X0160485Y0249606D02*
X0182335Y0249606D01*
X0182335Y0251205D02*
X0170359Y0251205D01*
X0170359Y0251129D02*
X0170359Y0257936D01*
X0169187Y0259107D01*
X0162381Y0259107D01*
X0161209Y0257936D01*
X0161209Y0251129D01*
X0162381Y0249957D01*
X0169187Y0249957D01*
X0170359Y0251129D01*
X0170359Y0252803D02*
X0182335Y0252803D01*
X0182335Y0254402D02*
X0170359Y0254402D01*
X0170359Y0256001D02*
X0182865Y0256001D01*
X0186278Y0260796D02*
X0151425Y0260796D01*
X0153023Y0259198D02*
X0187876Y0259198D01*
X0189475Y0257599D02*
X0170359Y0257599D01*
X0161209Y0257599D02*
X0154622Y0257599D01*
X0159955Y0256001D02*
X0161209Y0256001D01*
X0161209Y0254402D02*
X0160485Y0254402D01*
X0160485Y0252803D02*
X0161209Y0252803D01*
X0161209Y0251205D02*
X0160485Y0251205D01*
X0149826Y0262395D02*
X0184679Y0262395D01*
X0183081Y0263993D02*
X0148228Y0263993D01*
X0147627Y0265592D02*
X0181482Y0265592D01*
X0179884Y0267190D02*
X0147627Y0267190D01*
X0147627Y0268789D02*
X0178285Y0268789D01*
X0176687Y0270387D02*
X0147627Y0270387D01*
X0147627Y0271986D02*
X0175088Y0271986D01*
X0173490Y0273584D02*
X0147627Y0273584D01*
X0150842Y0275183D02*
X0169412Y0275183D01*
X0169001Y0275594D02*
X0170172Y0274422D01*
X0172905Y0274422D01*
X0173083Y0273990D01*
X0192209Y0254864D01*
X0192209Y0251129D01*
X0193381Y0249957D01*
X0200187Y0249957D01*
X0201359Y0251129D01*
X0201359Y0257936D01*
X0200187Y0259107D01*
X0196452Y0259107D01*
X0181109Y0274450D01*
X0182253Y0275594D01*
X0182253Y0306778D01*
X0181081Y0307950D01*
X0170172Y0307950D01*
X0169001Y0306778D01*
X0169001Y0275594D01*
X0169001Y0276781D02*
X0151253Y0276781D01*
X0151253Y0278380D02*
X0169001Y0278380D01*
X0169001Y0279978D02*
X0151253Y0279978D01*
X0151253Y0281577D02*
X0169001Y0281577D01*
X0169001Y0283175D02*
X0151253Y0283175D01*
X0151253Y0284774D02*
X0169001Y0284774D01*
X0169001Y0286372D02*
X0151253Y0286372D01*
X0151253Y0287971D02*
X0169001Y0287971D01*
X0169001Y0289569D02*
X0151253Y0289569D01*
X0151253Y0291168D02*
X0169001Y0291168D01*
X0169001Y0292766D02*
X0151253Y0292766D01*
X0151253Y0294365D02*
X0169001Y0294365D01*
X0169001Y0295963D02*
X0151253Y0295963D01*
X0151253Y0297562D02*
X0169001Y0297562D01*
X0169001Y0299160D02*
X0151253Y0299160D01*
X0151253Y0300759D02*
X0169001Y0300759D01*
X0169001Y0302357D02*
X0151253Y0302357D01*
X0151253Y0303956D02*
X0169001Y0303956D01*
X0169001Y0305554D02*
X0151253Y0305554D01*
X0150878Y0307153D02*
X0169376Y0307153D01*
X0181878Y0307153D02*
X0200376Y0307153D01*
X0200001Y0305554D02*
X0182253Y0305554D01*
X0182253Y0303956D02*
X0200001Y0303956D01*
X0200001Y0302357D02*
X0182253Y0302357D01*
X0182253Y0300759D02*
X0200001Y0300759D01*
X0200001Y0299160D02*
X0182253Y0299160D01*
X0182253Y0297562D02*
X0200001Y0297562D01*
X0200001Y0295963D02*
X0182253Y0295963D01*
X0182253Y0294365D02*
X0200001Y0294365D01*
X0200001Y0292766D02*
X0182253Y0292766D01*
X0182253Y0291168D02*
X0200001Y0291168D01*
X0200001Y0289569D02*
X0182253Y0289569D01*
X0182253Y0287971D02*
X0200001Y0287971D01*
X0200001Y0286372D02*
X0182253Y0286372D01*
X0182253Y0284774D02*
X0200001Y0284774D01*
X0200001Y0283175D02*
X0182253Y0283175D01*
X0182253Y0281577D02*
X0200001Y0281577D01*
X0200001Y0279978D02*
X0182253Y0279978D01*
X0182253Y0278380D02*
X0200001Y0278380D01*
X0200001Y0276781D02*
X0182253Y0276781D01*
X0181842Y0275183D02*
X0200412Y0275183D01*
X0203627Y0273584D02*
X0181975Y0273584D01*
X0183574Y0271986D02*
X0203627Y0271986D01*
X0203627Y0270387D02*
X0185172Y0270387D01*
X0186771Y0268789D02*
X0203627Y0268789D01*
X0203627Y0267190D02*
X0188369Y0267190D01*
X0189968Y0265592D02*
X0203627Y0265592D01*
X0203627Y0263993D02*
X0191566Y0263993D01*
X0193165Y0262395D02*
X0203776Y0262395D01*
X0204939Y0260796D02*
X0194763Y0260796D01*
X0196362Y0259198D02*
X0206538Y0259198D01*
X0208136Y0257599D02*
X0201359Y0257599D01*
X0201359Y0256001D02*
X0209735Y0256001D01*
X0211333Y0254402D02*
X0201359Y0254402D01*
X0201359Y0252803D02*
X0212932Y0252803D01*
X0213335Y0251205D02*
X0201359Y0251205D01*
X0193614Y0249606D02*
X0213335Y0249606D01*
X0192209Y0251205D02*
X0192016Y0251205D01*
X0192209Y0252803D02*
X0191485Y0252803D01*
X0191485Y0254402D02*
X0192209Y0254402D01*
X0191073Y0256001D02*
X0190955Y0256001D01*
X0263359Y0256001D02*
X0275865Y0256001D01*
X0275335Y0255471D02*
X0275335Y0248664D01*
X0276507Y0247493D01*
X0283313Y0247493D01*
X0284485Y0248664D01*
X0284485Y0255471D01*
X0283313Y0256643D01*
X0276507Y0256643D01*
X0275335Y0255471D01*
X0275335Y0254402D02*
X0263359Y0254402D01*
X0264756Y0252803D02*
X0275335Y0252803D01*
X0275335Y0251205D02*
X0266354Y0251205D01*
X0267953Y0249606D02*
X0275335Y0249606D01*
X0275992Y0248008D02*
X0269551Y0248008D01*
X0271150Y0246409D02*
X0320073Y0246409D01*
X0317644Y0248008D02*
X0283829Y0248008D01*
X0284485Y0249606D02*
X0315214Y0249606D01*
X0312784Y0251205D02*
X0284485Y0251205D01*
X0284485Y0252803D02*
X0310355Y0252803D01*
X0307925Y0254402D02*
X0284485Y0254402D01*
X0283955Y0256001D02*
X0305495Y0256001D01*
X0303065Y0257599D02*
X0263359Y0257599D01*
X0271767Y0245792D02*
X0271767Y0245792D01*
X0272668Y0244811D02*
X0322503Y0244811D01*
X0324776Y0243212D02*
X0273068Y0243212D01*
X0273068Y0241614D02*
X0324776Y0241614D01*
X0324776Y0240015D02*
X0273068Y0240015D01*
X0273068Y0238417D02*
X0324776Y0238417D01*
X0324776Y0236818D02*
X0273068Y0236818D01*
X0273068Y0235220D02*
X0324776Y0235220D01*
X0324776Y0233621D02*
X0273068Y0233621D01*
X0275677Y0232023D02*
X0324776Y0232023D01*
X0324776Y0230424D02*
X0276694Y0230424D01*
X0276694Y0228826D02*
X0324776Y0228826D01*
X0324776Y0227227D02*
X0276694Y0227227D01*
X0276694Y0225629D02*
X0324776Y0225629D01*
X0324776Y0224030D02*
X0276694Y0224030D01*
X0276694Y0222432D02*
X0324776Y0222432D01*
X0324776Y0220833D02*
X0276694Y0220833D01*
X0276694Y0219235D02*
X0324776Y0219235D01*
X0324776Y0217636D02*
X0276694Y0217636D01*
X0276694Y0216038D02*
X0324776Y0216038D01*
X0348076Y0212841D02*
X0349633Y0212841D01*
X0348843Y0211242D02*
X0348076Y0211242D01*
X0348076Y0209644D02*
X0348422Y0209644D01*
X0348422Y0208045D02*
X0348076Y0208045D01*
X0348076Y0206447D02*
X0349074Y0206447D01*
X0348076Y0204848D02*
X0350401Y0204848D01*
X0347093Y0203250D02*
X0359224Y0203250D01*
X0357625Y0204848D02*
X0357530Y0204848D01*
X0360822Y0201651D02*
X0345494Y0201651D01*
X0343896Y0200053D02*
X0362421Y0200053D01*
X0361193Y0201280D02*
X0361193Y0201280D01*
X0394093Y0200053D02*
X0418732Y0200053D01*
X0418732Y0201651D02*
X0396587Y0201651D01*
X0399328Y0203250D02*
X0418732Y0203250D01*
X0418732Y0204848D02*
X0402068Y0204848D01*
X0404808Y0206447D02*
X0418732Y0206447D01*
X0418732Y0208045D02*
X0407007Y0208045D01*
X0407190Y0209644D02*
X0418732Y0209644D01*
X0418732Y0211242D02*
X0407131Y0211242D01*
X0407131Y0212841D02*
X0418732Y0212841D01*
X0418732Y0214439D02*
X0407131Y0214439D01*
X0407131Y0216038D02*
X0418732Y0216038D01*
X0418732Y0217636D02*
X0407131Y0217636D01*
X0407131Y0219235D02*
X0418732Y0219235D01*
X0418732Y0220833D02*
X0407131Y0220833D01*
X0407131Y0222432D02*
X0418732Y0222432D01*
X0418732Y0224030D02*
X0407131Y0224030D01*
X0407131Y0225629D02*
X0418732Y0225629D01*
X0418732Y0227227D02*
X0407131Y0227227D01*
X0407131Y0228826D02*
X0418732Y0228826D01*
X0418732Y0230424D02*
X0407131Y0230424D01*
X0407131Y0232023D02*
X0418732Y0232023D01*
X0418732Y0233621D02*
X0407131Y0233621D01*
X0407131Y0235220D02*
X0418732Y0235220D01*
X0418732Y0236818D02*
X0407131Y0236818D01*
X0407131Y0238417D02*
X0418732Y0238417D01*
X0418732Y0240015D02*
X0407131Y0240015D01*
X0407131Y0241614D02*
X0418732Y0241614D01*
X0418732Y0243212D02*
X0407131Y0243212D01*
X0407131Y0244811D02*
X0418732Y0244811D01*
X0418732Y0246409D02*
X0407131Y0246409D01*
X0407131Y0248008D02*
X0418732Y0248008D01*
X0418732Y0249606D02*
X0407131Y0249606D01*
X0407131Y0251205D02*
X0418732Y0251205D01*
X0418732Y0252803D02*
X0407131Y0252803D01*
X0407131Y0254402D02*
X0418732Y0254402D01*
X0418732Y0256001D02*
X0407131Y0256001D01*
X0407131Y0257599D02*
X0418732Y0257599D01*
X0418732Y0259198D02*
X0407131Y0259198D01*
X0407131Y0260796D02*
X0418732Y0260796D01*
X0418732Y0262395D02*
X0407131Y0262395D01*
X0407131Y0263993D02*
X0418732Y0263993D01*
X0418732Y0265592D02*
X0407131Y0265592D01*
X0407131Y0267190D02*
X0418732Y0267190D01*
X0418732Y0268789D02*
X0407131Y0268789D01*
X0407131Y0270387D02*
X0418732Y0270387D01*
X0418732Y0271986D02*
X0407131Y0271986D01*
X0407131Y0273584D02*
X0418732Y0273584D01*
X0418732Y0275183D02*
X0407131Y0275183D01*
X0407131Y0276781D02*
X0418732Y0276781D01*
X0418732Y0278380D02*
X0407131Y0278380D01*
X0407131Y0279978D02*
X0418732Y0279978D01*
X0418732Y0281577D02*
X0407131Y0281577D01*
X0407131Y0283175D02*
X0418732Y0283175D01*
X0418732Y0284774D02*
X0407131Y0284774D01*
X0407131Y0286372D02*
X0418732Y0286372D01*
X0418732Y0287971D02*
X0407131Y0287971D01*
X0407131Y0289569D02*
X0418732Y0289569D01*
X0418732Y0291168D02*
X0407131Y0291168D01*
X0407131Y0292766D02*
X0418732Y0292766D01*
X0418732Y0294365D02*
X0407131Y0294365D01*
X0407131Y0295963D02*
X0418732Y0295963D01*
X0418732Y0297562D02*
X0407131Y0297562D01*
X0407131Y0299160D02*
X0418732Y0299160D01*
X0418732Y0300759D02*
X0407131Y0300759D01*
X0407131Y0302357D02*
X0418732Y0302357D01*
X0418732Y0303956D02*
X0407131Y0303956D01*
X0407131Y0305554D02*
X0418732Y0305554D01*
X0418732Y0307153D02*
X0407131Y0307153D01*
X0407131Y0308751D02*
X0418732Y0308751D01*
X0418732Y0310350D02*
X0407131Y0310350D01*
X0407131Y0311948D02*
X0418732Y0311948D01*
X0418732Y0313547D02*
X0407131Y0313547D01*
X0407131Y0315145D02*
X0418732Y0315145D01*
X0418732Y0316744D02*
X0407131Y0316744D01*
X0407131Y0318342D02*
X0418732Y0318342D01*
X0418732Y0319941D02*
X0407131Y0319941D01*
X0407131Y0321539D02*
X0418732Y0321539D01*
X0418732Y0323138D02*
X0407131Y0323138D01*
X0407131Y0324737D02*
X0418732Y0324737D01*
X0418732Y0326335D02*
X0407131Y0326335D01*
X0407131Y0327934D02*
X0418732Y0327934D01*
X0418732Y0329532D02*
X0407131Y0329532D01*
X0406155Y0331131D02*
X0418732Y0331131D01*
X0418732Y0332729D02*
X0397603Y0332729D01*
X0401405Y0334328D02*
X0418732Y0334328D01*
X0418732Y0335926D02*
X0403003Y0335926D01*
X0404602Y0337525D02*
X0418732Y0337525D01*
X0418732Y0339123D02*
X0406200Y0339123D01*
X0407799Y0340722D02*
X0418732Y0340722D01*
X0418732Y0342320D02*
X0409397Y0342320D01*
X0411127Y0343919D02*
X0418732Y0343919D01*
X0418732Y0345517D02*
X0414226Y0345517D01*
X0415824Y0347116D02*
X0418732Y0347116D01*
X0418732Y0348714D02*
X0416872Y0348714D01*
X0417633Y0350313D02*
X0418732Y0350313D01*
X0418732Y0351911D02*
X0418061Y0351911D01*
X0418202Y0353510D02*
X0418732Y0353510D01*
X0418732Y0355108D02*
X0418202Y0355108D01*
X0417792Y0356707D02*
X0418732Y0356707D01*
X0418732Y0358305D02*
X0417217Y0358305D01*
X0416294Y0359904D02*
X0418732Y0359904D01*
X0418732Y0361502D02*
X0414822Y0361502D01*
X0400746Y0361502D02*
X0054586Y0361502D01*
X0056057Y0359904D02*
X0399275Y0359904D01*
X0398352Y0358305D02*
X0378487Y0358305D01*
X0378198Y0358594D02*
X0375809Y0359583D01*
X0373224Y0359583D01*
X0370835Y0358594D01*
X0369006Y0356765D01*
X0368724Y0356083D01*
X0346127Y0356083D01*
X0345034Y0356536D01*
X0343214Y0356536D01*
X0341533Y0355840D01*
X0340246Y0354553D01*
X0339550Y0352871D01*
X0339550Y0351051D01*
X0340246Y0349370D01*
X0341533Y0348083D01*
X0343214Y0347387D01*
X0345034Y0347387D01*
X0346716Y0348083D01*
X0348003Y0349370D01*
X0348298Y0350083D01*
X0368724Y0350083D01*
X0369006Y0349402D01*
X0370835Y0347573D01*
X0373224Y0346583D01*
X0375809Y0346583D01*
X0378198Y0347573D01*
X0380027Y0349402D01*
X0381017Y0351791D01*
X0381017Y0354376D01*
X0380027Y0356765D01*
X0378198Y0358594D01*
X0380051Y0356707D02*
X0397776Y0356707D01*
X0397367Y0355108D02*
X0380713Y0355108D01*
X0381017Y0353510D02*
X0397367Y0353510D01*
X0397508Y0351911D02*
X0381017Y0351911D01*
X0380404Y0350313D02*
X0397936Y0350313D01*
X0398696Y0348714D02*
X0379340Y0348714D01*
X0377094Y0347116D02*
X0399744Y0347116D01*
X0401343Y0345517D02*
X0357038Y0345517D01*
X0357034Y0345525D02*
X0355747Y0346812D01*
X0354066Y0347509D01*
X0352246Y0347509D01*
X0350564Y0346812D01*
X0349278Y0345525D01*
X0348581Y0343844D01*
X0348581Y0342024D01*
X0349278Y0340342D01*
X0350564Y0339056D01*
X0352246Y0338359D01*
X0354066Y0338359D01*
X0355747Y0339056D01*
X0357034Y0340342D01*
X0357731Y0342024D01*
X0357731Y0343844D01*
X0357034Y0345525D01*
X0357700Y0343919D02*
X0402511Y0343919D01*
X0400912Y0342320D02*
X0357731Y0342320D01*
X0357191Y0340722D02*
X0369891Y0340722D01*
X0368293Y0339123D02*
X0355815Y0339123D01*
X0350497Y0339123D02*
X0343150Y0339123D01*
X0346976Y0337525D02*
X0367546Y0337525D01*
X0367158Y0335926D02*
X0348240Y0335926D01*
X0348699Y0334328D02*
X0367158Y0334328D01*
X0367686Y0332729D02*
X0348588Y0332729D01*
X0349121Y0340722D02*
X0339128Y0340722D01*
X0339668Y0342320D02*
X0348581Y0342320D01*
X0348612Y0343919D02*
X0339637Y0343919D01*
X0338975Y0345517D02*
X0349274Y0345517D01*
X0351297Y0347116D02*
X0336952Y0347116D01*
X0333555Y0348714D02*
X0340902Y0348714D01*
X0339856Y0350313D02*
X0331957Y0350313D01*
X0330358Y0351911D02*
X0339550Y0351911D01*
X0339814Y0353510D02*
X0328760Y0353510D01*
X0327161Y0355108D02*
X0340801Y0355108D01*
X0347347Y0348714D02*
X0369693Y0348714D01*
X0371939Y0347116D02*
X0355015Y0347116D01*
X0368982Y0356707D02*
X0319385Y0356707D01*
X0317660Y0358305D02*
X0370546Y0358305D01*
X0377425Y0340722D02*
X0399314Y0340722D01*
X0397715Y0339123D02*
X0397603Y0339123D01*
X0383209Y0339123D02*
X0379024Y0339123D01*
X0331058Y0340722D02*
X0320433Y0340722D01*
X0318509Y0342320D02*
X0330518Y0342320D01*
X0329865Y0343919D02*
X0050890Y0343919D01*
X0053990Y0345517D02*
X0328267Y0345517D01*
X0326668Y0347116D02*
X0317684Y0347116D01*
X0319395Y0348714D02*
X0325070Y0348714D01*
X0312256Y0342320D02*
X0036600Y0342320D01*
X0036600Y0340722D02*
X0310332Y0340722D01*
X0309401Y0339123D02*
X0036600Y0339123D01*
X0036600Y0337525D02*
X0308883Y0337525D01*
X0308883Y0335926D02*
X0036600Y0335926D01*
X0036600Y0334328D02*
X0309280Y0334328D01*
X0310041Y0332729D02*
X0036600Y0332729D01*
X0036600Y0331131D02*
X0291303Y0331131D01*
X0289705Y0329532D02*
X0036600Y0329532D01*
X0036600Y0327934D02*
X0288106Y0327934D01*
X0286508Y0326335D02*
X0036600Y0326335D01*
X0036600Y0324737D02*
X0285406Y0324737D01*
X0285406Y0323138D02*
X0036600Y0323138D01*
X0036600Y0321539D02*
X0285406Y0321539D01*
X0285406Y0319941D02*
X0036600Y0319941D01*
X0036600Y0318342D02*
X0285406Y0318342D01*
X0285406Y0316744D02*
X0036600Y0316744D01*
X0036600Y0343919D02*
X0044206Y0343919D01*
X0041106Y0345517D02*
X0036600Y0345517D01*
X0036600Y0347116D02*
X0039508Y0347116D01*
X0038460Y0348714D02*
X0036600Y0348714D01*
X0036600Y0350313D02*
X0037700Y0350313D01*
X0037271Y0351911D02*
X0036600Y0351911D01*
X0036600Y0353510D02*
X0037131Y0353510D01*
X0037131Y0355108D02*
X0036600Y0355108D01*
X0036600Y0356707D02*
X0037540Y0356707D01*
X0038116Y0358305D02*
X0036600Y0358305D01*
X0036600Y0359904D02*
X0039039Y0359904D01*
X0040510Y0361502D02*
X0036600Y0361502D01*
X0056980Y0358305D02*
X0288743Y0358305D01*
X0289252Y0358814D02*
X0287423Y0356986D01*
X0286434Y0354597D01*
X0286434Y0352011D01*
X0287423Y0349622D01*
X0289252Y0347794D01*
X0291641Y0346804D01*
X0294227Y0346804D01*
X0296616Y0347794D01*
X0298444Y0349622D01*
X0299434Y0352011D01*
X0299434Y0354597D01*
X0298444Y0356986D01*
X0296616Y0358814D01*
X0294227Y0359804D01*
X0291641Y0359804D01*
X0289252Y0358814D01*
X0287308Y0356707D02*
X0057556Y0356707D01*
X0057965Y0355108D02*
X0286646Y0355108D01*
X0286434Y0353510D02*
X0057965Y0353510D01*
X0057825Y0351911D02*
X0286475Y0351911D01*
X0287137Y0350313D02*
X0057396Y0350313D01*
X0056636Y0348714D02*
X0288331Y0348714D01*
X0290888Y0347116D02*
X0055588Y0347116D01*
X0294979Y0347116D02*
X0310703Y0347116D01*
X0308993Y0348714D02*
X0297536Y0348714D01*
X0298730Y0350313D02*
X0308149Y0350313D01*
X0307694Y0351911D02*
X0299392Y0351911D01*
X0299434Y0353510D02*
X0307694Y0353510D01*
X0308153Y0355108D02*
X0299222Y0355108D01*
X0298560Y0356707D02*
X0309003Y0356707D01*
X0310727Y0358305D02*
X0297125Y0358305D01*
D20*
X0297548Y0163847D03*
X0303454Y0163847D03*
X0309359Y0163847D03*
X0309359Y0157942D03*
X0303454Y0157942D03*
X0309359Y0152036D03*
D21*
X0423532Y0041800D02*
X0031800Y0041800D01*
X0031800Y0366603D01*
X0423532Y0366603D01*
X0423532Y0041800D01*
D22*
X0393020Y0202233D02*
X0363493Y0202233D01*
X0358292Y0207434D01*
X0358609Y0208199D01*
X0358609Y0210046D01*
X0357902Y0211753D01*
X0356596Y0213059D01*
X0354889Y0213766D01*
X0353042Y0213766D01*
X0352277Y0213449D01*
X0347176Y0218550D01*
X0347176Y0220409D01*
X0348153Y0221386D01*
X0349407Y0224414D01*
X0349407Y0227690D01*
X0348153Y0230718D01*
X0347176Y0231695D01*
X0347176Y0255706D01*
X0349411Y0253471D01*
X0352800Y0252067D01*
X0356469Y0252067D01*
X0359858Y0253471D01*
X0362452Y0256065D01*
X0363856Y0259454D01*
X0363856Y0263122D01*
X0362452Y0266512D01*
X0361161Y0267803D01*
X0361940Y0268582D01*
X0382609Y0289252D01*
X0382609Y0316002D01*
X0381789Y0316822D01*
X0380805Y0317806D01*
X0373740Y0317806D01*
X0372920Y0316986D01*
X0368479Y0312545D01*
X0361058Y0306980D01*
X0357544Y0306980D01*
X0358918Y0307549D01*
X0360225Y0308855D01*
X0360931Y0310561D01*
X0360931Y0312409D01*
X0360225Y0314115D01*
X0358918Y0315421D01*
X0357212Y0316128D01*
X0355365Y0316128D01*
X0353658Y0315421D01*
X0352352Y0314115D01*
X0351645Y0312409D01*
X0351645Y0310561D01*
X0352352Y0308855D01*
X0353658Y0307549D01*
X0355032Y0306980D01*
X0338095Y0306980D01*
X0338147Y0306997D01*
X0338827Y0307343D01*
X0339443Y0307791D01*
X0339982Y0308330D01*
X0340431Y0308947D01*
X0340777Y0309626D01*
X0341012Y0310351D01*
X0341131Y0311104D01*
X0341131Y0311185D01*
X0336588Y0311185D01*
X0336588Y0311785D01*
X0335988Y0311785D01*
X0335988Y0311185D01*
X0331445Y0311185D01*
X0331445Y0311104D01*
X0331564Y0310351D01*
X0331800Y0309626D01*
X0332146Y0308947D01*
X0332594Y0308330D01*
X0333133Y0307791D01*
X0333750Y0307343D01*
X0334429Y0306997D01*
X0334482Y0306980D01*
X0289094Y0306980D01*
X0288678Y0306564D01*
X0287706Y0306564D01*
X0287706Y0324280D01*
X0292627Y0329202D01*
X0404831Y0329202D01*
X0404831Y0209123D01*
X0393020Y0202233D01*
X0393992Y0202800D02*
X0362926Y0202800D01*
X0362328Y0203398D02*
X0395018Y0203398D01*
X0396044Y0203997D02*
X0361729Y0203997D01*
X0361131Y0204595D02*
X0372227Y0204595D01*
X0372106Y0204634D02*
X0372831Y0204399D01*
X0373584Y0204280D01*
X0373665Y0204280D01*
X0373665Y0208823D01*
X0369122Y0208823D01*
X0369122Y0208742D01*
X0369241Y0207989D01*
X0369477Y0207264D01*
X0369823Y0206584D01*
X0370271Y0205968D01*
X0370810Y0205429D01*
X0371427Y0204980D01*
X0372106Y0204634D01*
X0371134Y0205194D02*
X0360532Y0205194D01*
X0359934Y0205792D02*
X0370447Y0205792D01*
X0369964Y0206391D02*
X0359335Y0206391D01*
X0358737Y0206989D02*
X0369617Y0206989D01*
X0369372Y0207588D02*
X0358355Y0207588D01*
X0358603Y0208186D02*
X0369210Y0208186D01*
X0369122Y0208785D02*
X0358609Y0208785D01*
X0358609Y0209383D02*
X0373665Y0209383D01*
X0373665Y0209423D02*
X0373665Y0208823D01*
X0374265Y0208823D01*
X0374265Y0204280D01*
X0374347Y0204280D01*
X0375099Y0204399D01*
X0375825Y0204634D01*
X0376504Y0204980D01*
X0377121Y0205429D01*
X0377660Y0205968D01*
X0378108Y0206584D01*
X0378454Y0207264D01*
X0378689Y0207989D01*
X0378809Y0208742D01*
X0378809Y0208823D01*
X0374265Y0208823D01*
X0374265Y0209423D01*
X0373665Y0209423D01*
X0369122Y0209423D01*
X0369122Y0209504D01*
X0369241Y0210257D01*
X0369477Y0210982D01*
X0369823Y0211661D01*
X0370271Y0212278D01*
X0370810Y0212817D01*
X0371427Y0213265D01*
X0372106Y0213611D01*
X0372831Y0213847D01*
X0373584Y0213966D01*
X0373665Y0213966D01*
X0373665Y0209423D01*
X0373665Y0209982D02*
X0374265Y0209982D01*
X0374265Y0209423D02*
X0374265Y0213966D01*
X0374347Y0213966D01*
X0375099Y0213847D01*
X0375825Y0213611D01*
X0376504Y0213265D01*
X0377121Y0212817D01*
X0377660Y0212278D01*
X0378108Y0211661D01*
X0378454Y0210982D01*
X0378689Y0210257D01*
X0378809Y0209504D01*
X0378809Y0209423D01*
X0374265Y0209423D01*
X0374265Y0209383D02*
X0404831Y0209383D01*
X0404831Y0209982D02*
X0378733Y0209982D01*
X0378584Y0210580D02*
X0404831Y0210580D01*
X0404831Y0211179D02*
X0378354Y0211179D01*
X0378023Y0211777D02*
X0404831Y0211777D01*
X0404831Y0212376D02*
X0377562Y0212376D01*
X0376904Y0212974D02*
X0404831Y0212974D01*
X0404831Y0213573D02*
X0375900Y0213573D01*
X0374265Y0213573D02*
X0373665Y0213573D01*
X0373665Y0212974D02*
X0374265Y0212974D01*
X0374265Y0212376D02*
X0373665Y0212376D01*
X0373665Y0211777D02*
X0374265Y0211777D01*
X0374265Y0211179D02*
X0373665Y0211179D01*
X0373665Y0210580D02*
X0374265Y0210580D01*
X0374265Y0208785D02*
X0373665Y0208785D01*
X0373665Y0208186D02*
X0374265Y0208186D01*
X0374265Y0207588D02*
X0373665Y0207588D01*
X0373665Y0206989D02*
X0374265Y0206989D01*
X0374265Y0206391D02*
X0373665Y0206391D01*
X0373665Y0205792D02*
X0374265Y0205792D01*
X0374265Y0205194D02*
X0373665Y0205194D01*
X0373665Y0204595D02*
X0374265Y0204595D01*
X0375704Y0204595D02*
X0397070Y0204595D01*
X0398096Y0205194D02*
X0376797Y0205194D01*
X0377484Y0205792D02*
X0399122Y0205792D01*
X0400148Y0206391D02*
X0377967Y0206391D01*
X0378314Y0206989D02*
X0401174Y0206989D01*
X0402200Y0207588D02*
X0378559Y0207588D01*
X0378721Y0208186D02*
X0403226Y0208186D01*
X0404252Y0208785D02*
X0378809Y0208785D01*
X0372031Y0213573D02*
X0355356Y0213573D01*
X0356681Y0212974D02*
X0371026Y0212974D01*
X0370369Y0212376D02*
X0357279Y0212376D01*
X0357878Y0211777D02*
X0369907Y0211777D01*
X0369577Y0211179D02*
X0358140Y0211179D01*
X0358388Y0210580D02*
X0369346Y0210580D01*
X0369198Y0209982D02*
X0358609Y0209982D01*
X0352575Y0213573D02*
X0352153Y0213573D01*
X0351555Y0214171D02*
X0404831Y0214171D01*
X0404831Y0214770D02*
X0350956Y0214770D01*
X0350358Y0215368D02*
X0404831Y0215368D01*
X0404831Y0215967D02*
X0349759Y0215967D01*
X0349161Y0216565D02*
X0404831Y0216565D01*
X0404831Y0217164D02*
X0348562Y0217164D01*
X0347964Y0217762D02*
X0404831Y0217762D01*
X0404831Y0218361D02*
X0369717Y0218361D01*
X0368399Y0217815D02*
X0371427Y0219069D01*
X0373744Y0221386D01*
X0374998Y0224414D01*
X0374998Y0227690D01*
X0373744Y0230718D01*
X0371427Y0233035D01*
X0368399Y0234289D01*
X0365122Y0234289D01*
X0362095Y0233035D01*
X0359778Y0230718D01*
X0358524Y0227690D01*
X0358524Y0224414D01*
X0359778Y0221386D01*
X0362095Y0219069D01*
X0365122Y0217815D01*
X0368399Y0217815D01*
X0371162Y0218959D02*
X0404831Y0218959D01*
X0404831Y0219558D02*
X0371915Y0219558D01*
X0372514Y0220156D02*
X0404831Y0220156D01*
X0404831Y0220755D02*
X0373112Y0220755D01*
X0373711Y0221353D02*
X0404831Y0221353D01*
X0404831Y0221952D02*
X0373978Y0221952D01*
X0374226Y0222550D02*
X0404831Y0222550D01*
X0404831Y0223149D02*
X0374474Y0223149D01*
X0374722Y0223747D02*
X0404831Y0223747D01*
X0404831Y0224346D02*
X0374970Y0224346D01*
X0374998Y0224944D02*
X0404831Y0224944D01*
X0404831Y0225543D02*
X0374998Y0225543D01*
X0374998Y0226141D02*
X0404831Y0226141D01*
X0404831Y0226740D02*
X0374998Y0226740D01*
X0374998Y0227339D02*
X0404831Y0227339D01*
X0404831Y0227937D02*
X0374895Y0227937D01*
X0374648Y0228536D02*
X0404831Y0228536D01*
X0404831Y0229134D02*
X0374400Y0229134D01*
X0374152Y0229733D02*
X0404831Y0229733D01*
X0404831Y0230331D02*
X0373904Y0230331D01*
X0373532Y0230930D02*
X0404831Y0230930D01*
X0404831Y0231528D02*
X0372933Y0231528D01*
X0372335Y0232127D02*
X0404831Y0232127D01*
X0404831Y0232725D02*
X0371736Y0232725D01*
X0370730Y0233324D02*
X0404831Y0233324D01*
X0404831Y0233922D02*
X0369285Y0233922D01*
X0364237Y0233922D02*
X0347176Y0233922D01*
X0347176Y0233324D02*
X0362792Y0233324D01*
X0361785Y0232725D02*
X0347176Y0232725D01*
X0347176Y0232127D02*
X0361186Y0232127D01*
X0360588Y0231528D02*
X0347343Y0231528D01*
X0347941Y0230930D02*
X0359989Y0230930D01*
X0359617Y0230331D02*
X0348313Y0230331D01*
X0348561Y0229733D02*
X0359370Y0229733D01*
X0359122Y0229134D02*
X0348809Y0229134D01*
X0349057Y0228536D02*
X0358874Y0228536D01*
X0358626Y0227937D02*
X0349305Y0227937D01*
X0349407Y0227339D02*
X0358524Y0227339D01*
X0358524Y0226740D02*
X0349407Y0226740D01*
X0349407Y0226141D02*
X0358524Y0226141D01*
X0358524Y0225543D02*
X0349407Y0225543D01*
X0349407Y0224944D02*
X0358524Y0224944D01*
X0358552Y0224346D02*
X0349379Y0224346D01*
X0349131Y0223747D02*
X0358800Y0223747D01*
X0359047Y0223149D02*
X0348883Y0223149D01*
X0348635Y0222550D02*
X0359295Y0222550D01*
X0359543Y0221952D02*
X0348387Y0221952D01*
X0348120Y0221353D02*
X0359810Y0221353D01*
X0360409Y0220755D02*
X0347522Y0220755D01*
X0347176Y0220156D02*
X0361007Y0220156D01*
X0361606Y0219558D02*
X0347176Y0219558D01*
X0347176Y0218959D02*
X0362359Y0218959D01*
X0363804Y0218361D02*
X0347365Y0218361D01*
X0345776Y0218361D02*
X0344126Y0218361D01*
X0342809Y0217815D02*
X0345776Y0219044D01*
X0345776Y0205186D01*
X0342824Y0202233D01*
X0331997Y0202233D01*
X0327076Y0207154D01*
X0327076Y0244556D01*
X0289674Y0269162D01*
X0289674Y0305580D01*
X0361524Y0305580D01*
X0369398Y0311485D01*
X0374320Y0316406D01*
X0380225Y0316406D01*
X0381209Y0315422D01*
X0381209Y0289831D01*
X0360540Y0269162D01*
X0359721Y0269162D01*
X0356469Y0270509D01*
X0352800Y0270509D01*
X0349411Y0269106D01*
X0346817Y0266512D01*
X0345413Y0263122D01*
X0345413Y0259454D01*
X0345776Y0258578D01*
X0345776Y0233060D01*
X0342809Y0234289D01*
X0339532Y0234289D01*
X0336504Y0233035D01*
X0334187Y0230718D01*
X0332933Y0227690D01*
X0332933Y0224414D01*
X0334187Y0221386D01*
X0336504Y0219069D01*
X0339532Y0217815D01*
X0342809Y0217815D01*
X0345776Y0217762D02*
X0327076Y0217762D01*
X0327076Y0217164D02*
X0345776Y0217164D01*
X0345776Y0216565D02*
X0327076Y0216565D01*
X0327076Y0215967D02*
X0345776Y0215967D01*
X0345776Y0215368D02*
X0327076Y0215368D01*
X0327076Y0214770D02*
X0345776Y0214770D01*
X0345776Y0214171D02*
X0327076Y0214171D01*
X0327076Y0213573D02*
X0332031Y0213573D01*
X0332106Y0213611D02*
X0331427Y0213265D01*
X0330810Y0212817D01*
X0330271Y0212278D01*
X0329823Y0211661D01*
X0329477Y0210982D01*
X0329241Y0210257D01*
X0329122Y0209504D01*
X0329122Y0209423D01*
X0333665Y0209423D01*
X0333665Y0208823D01*
X0329122Y0208823D01*
X0329122Y0208742D01*
X0329241Y0207989D01*
X0329477Y0207264D01*
X0329823Y0206584D01*
X0330271Y0205968D01*
X0330810Y0205429D01*
X0331427Y0204980D01*
X0332106Y0204634D01*
X0332831Y0204399D01*
X0333584Y0204280D01*
X0333665Y0204280D01*
X0333665Y0208823D01*
X0334265Y0208823D01*
X0334265Y0204280D01*
X0334347Y0204280D01*
X0335099Y0204399D01*
X0335825Y0204634D01*
X0336504Y0204980D01*
X0337121Y0205429D01*
X0337660Y0205968D01*
X0338108Y0206584D01*
X0338454Y0207264D01*
X0338689Y0207989D01*
X0338809Y0208742D01*
X0338809Y0208823D01*
X0334265Y0208823D01*
X0334265Y0209423D01*
X0333665Y0209423D01*
X0333665Y0213966D01*
X0333584Y0213966D01*
X0332831Y0213847D01*
X0332106Y0213611D01*
X0331026Y0212974D02*
X0327076Y0212974D01*
X0327076Y0212376D02*
X0330369Y0212376D01*
X0329907Y0211777D02*
X0327076Y0211777D01*
X0327076Y0211179D02*
X0329577Y0211179D01*
X0329346Y0210580D02*
X0327076Y0210580D01*
X0327076Y0209982D02*
X0329198Y0209982D01*
X0329122Y0208785D02*
X0327076Y0208785D01*
X0327076Y0209383D02*
X0333665Y0209383D01*
X0333665Y0208785D02*
X0334265Y0208785D01*
X0334265Y0209383D02*
X0345776Y0209383D01*
X0345776Y0208785D02*
X0338809Y0208785D01*
X0338721Y0208186D02*
X0345776Y0208186D01*
X0345776Y0207588D02*
X0338559Y0207588D01*
X0338314Y0206989D02*
X0345776Y0206989D01*
X0345776Y0206391D02*
X0337967Y0206391D01*
X0337484Y0205792D02*
X0345776Y0205792D01*
X0345776Y0205194D02*
X0336797Y0205194D01*
X0335704Y0204595D02*
X0345186Y0204595D01*
X0344587Y0203997D02*
X0330233Y0203997D01*
X0329635Y0204595D02*
X0332227Y0204595D01*
X0331134Y0205194D02*
X0329036Y0205194D01*
X0328438Y0205792D02*
X0330447Y0205792D01*
X0329964Y0206391D02*
X0327839Y0206391D01*
X0327241Y0206989D02*
X0329617Y0206989D01*
X0329372Y0207588D02*
X0327076Y0207588D01*
X0327076Y0208186D02*
X0329210Y0208186D01*
X0333665Y0208186D02*
X0334265Y0208186D01*
X0334265Y0207588D02*
X0333665Y0207588D01*
X0333665Y0206989D02*
X0334265Y0206989D01*
X0334265Y0206391D02*
X0333665Y0206391D01*
X0333665Y0205792D02*
X0334265Y0205792D01*
X0334265Y0205194D02*
X0333665Y0205194D01*
X0333665Y0204595D02*
X0334265Y0204595D01*
X0331430Y0202800D02*
X0343390Y0202800D01*
X0343989Y0203398D02*
X0330832Y0203398D01*
X0334265Y0209423D02*
X0338809Y0209423D01*
X0338809Y0209504D01*
X0338689Y0210257D01*
X0338454Y0210982D01*
X0338108Y0211661D01*
X0337660Y0212278D01*
X0337121Y0212817D01*
X0336504Y0213265D01*
X0335825Y0213611D01*
X0335099Y0213847D01*
X0334347Y0213966D01*
X0334265Y0213966D01*
X0334265Y0209423D01*
X0334265Y0209982D02*
X0333665Y0209982D01*
X0333665Y0210580D02*
X0334265Y0210580D01*
X0334265Y0211179D02*
X0333665Y0211179D01*
X0333665Y0211777D02*
X0334265Y0211777D01*
X0334265Y0212376D02*
X0333665Y0212376D01*
X0333665Y0212974D02*
X0334265Y0212974D01*
X0334265Y0213573D02*
X0333665Y0213573D01*
X0335900Y0213573D02*
X0345776Y0213573D01*
X0345776Y0212974D02*
X0336904Y0212974D01*
X0337562Y0212376D02*
X0345776Y0212376D01*
X0345776Y0211777D02*
X0338023Y0211777D01*
X0338354Y0211179D02*
X0345776Y0211179D01*
X0345776Y0210580D02*
X0338584Y0210580D01*
X0338733Y0209982D02*
X0345776Y0209982D01*
X0345776Y0218959D02*
X0345571Y0218959D01*
X0338214Y0218361D02*
X0327076Y0218361D01*
X0327076Y0218959D02*
X0336769Y0218959D01*
X0336015Y0219558D02*
X0327076Y0219558D01*
X0327076Y0220156D02*
X0335417Y0220156D01*
X0334818Y0220755D02*
X0327076Y0220755D01*
X0327076Y0221353D02*
X0334220Y0221353D01*
X0333953Y0221952D02*
X0327076Y0221952D01*
X0327076Y0222550D02*
X0333705Y0222550D01*
X0333457Y0223149D02*
X0327076Y0223149D01*
X0327076Y0223747D02*
X0333209Y0223747D01*
X0332961Y0224346D02*
X0327076Y0224346D01*
X0327076Y0224944D02*
X0332933Y0224944D01*
X0332933Y0225543D02*
X0327076Y0225543D01*
X0327076Y0226141D02*
X0332933Y0226141D01*
X0332933Y0226740D02*
X0327076Y0226740D01*
X0327076Y0227339D02*
X0332933Y0227339D01*
X0333035Y0227937D02*
X0327076Y0227937D01*
X0327076Y0228536D02*
X0333283Y0228536D01*
X0333531Y0229134D02*
X0327076Y0229134D01*
X0327076Y0229733D02*
X0333779Y0229733D01*
X0334027Y0230331D02*
X0327076Y0230331D01*
X0327076Y0230930D02*
X0334399Y0230930D01*
X0334997Y0231528D02*
X0327076Y0231528D01*
X0327076Y0232127D02*
X0335596Y0232127D01*
X0336194Y0232725D02*
X0327076Y0232725D01*
X0327076Y0233324D02*
X0337201Y0233324D01*
X0338646Y0233922D02*
X0327076Y0233922D01*
X0327076Y0234521D02*
X0345776Y0234521D01*
X0345776Y0235119D02*
X0327076Y0235119D01*
X0327076Y0235718D02*
X0345776Y0235718D01*
X0345776Y0236316D02*
X0327076Y0236316D01*
X0327076Y0236915D02*
X0345776Y0236915D01*
X0345776Y0237513D02*
X0327076Y0237513D01*
X0327076Y0238112D02*
X0345776Y0238112D01*
X0345776Y0238710D02*
X0327076Y0238710D01*
X0327076Y0239309D02*
X0345776Y0239309D01*
X0345776Y0239907D02*
X0327076Y0239907D01*
X0327076Y0240506D02*
X0345776Y0240506D01*
X0345776Y0241104D02*
X0327076Y0241104D01*
X0327076Y0241703D02*
X0345776Y0241703D01*
X0345776Y0242301D02*
X0327076Y0242301D01*
X0327076Y0242900D02*
X0345776Y0242900D01*
X0345776Y0243498D02*
X0327076Y0243498D01*
X0327076Y0244097D02*
X0345776Y0244097D01*
X0345776Y0244695D02*
X0326864Y0244695D01*
X0325954Y0245294D02*
X0345776Y0245294D01*
X0345776Y0245892D02*
X0325044Y0245892D01*
X0324134Y0246491D02*
X0345776Y0246491D01*
X0345776Y0247089D02*
X0323225Y0247089D01*
X0322315Y0247688D02*
X0345776Y0247688D01*
X0345776Y0248286D02*
X0321405Y0248286D01*
X0320495Y0248885D02*
X0345776Y0248885D01*
X0345776Y0249483D02*
X0319586Y0249483D01*
X0318676Y0250082D02*
X0345776Y0250082D01*
X0345776Y0250680D02*
X0317766Y0250680D01*
X0316857Y0251279D02*
X0345776Y0251279D01*
X0345776Y0251877D02*
X0315947Y0251877D01*
X0315037Y0252476D02*
X0345776Y0252476D01*
X0345776Y0253074D02*
X0314127Y0253074D01*
X0313218Y0253673D02*
X0345776Y0253673D01*
X0345776Y0254272D02*
X0312308Y0254272D01*
X0311398Y0254870D02*
X0345776Y0254870D01*
X0345776Y0255469D02*
X0310488Y0255469D01*
X0309579Y0256067D02*
X0345776Y0256067D01*
X0345776Y0256666D02*
X0308669Y0256666D01*
X0307759Y0257264D02*
X0345776Y0257264D01*
X0345776Y0257863D02*
X0306849Y0257863D01*
X0305940Y0258461D02*
X0329540Y0258461D01*
X0329769Y0258366D02*
X0333437Y0258366D01*
X0336827Y0259770D01*
X0339421Y0262364D01*
X0340824Y0265753D01*
X0340824Y0269422D01*
X0339421Y0272811D01*
X0336827Y0275405D01*
X0333437Y0276809D01*
X0329769Y0276809D01*
X0326380Y0275405D01*
X0323786Y0272811D01*
X0322382Y0269422D01*
X0322382Y0265753D01*
X0323786Y0262364D01*
X0326380Y0259770D01*
X0329769Y0258366D01*
X0328095Y0259060D02*
X0305030Y0259060D01*
X0304120Y0259658D02*
X0326650Y0259658D01*
X0325893Y0260257D02*
X0303210Y0260257D01*
X0302301Y0260855D02*
X0325295Y0260855D01*
X0324696Y0261454D02*
X0301391Y0261454D01*
X0300481Y0262052D02*
X0324098Y0262052D01*
X0323667Y0262651D02*
X0299572Y0262651D01*
X0298662Y0263249D02*
X0323419Y0263249D01*
X0323171Y0263848D02*
X0297752Y0263848D01*
X0296842Y0264446D02*
X0322923Y0264446D01*
X0322675Y0265045D02*
X0295933Y0265045D01*
X0295023Y0265643D02*
X0322427Y0265643D01*
X0322382Y0266242D02*
X0294113Y0266242D01*
X0293203Y0266840D02*
X0322382Y0266840D01*
X0322382Y0267439D02*
X0292294Y0267439D01*
X0291384Y0268037D02*
X0322382Y0268037D01*
X0322382Y0268636D02*
X0290474Y0268636D01*
X0289674Y0269234D02*
X0322382Y0269234D01*
X0322552Y0269833D02*
X0289674Y0269833D01*
X0289674Y0270431D02*
X0322800Y0270431D01*
X0323048Y0271030D02*
X0289674Y0271030D01*
X0289674Y0271628D02*
X0323296Y0271628D01*
X0323544Y0272227D02*
X0289674Y0272227D01*
X0289674Y0272825D02*
X0323800Y0272825D01*
X0324399Y0273424D02*
X0289674Y0273424D01*
X0289674Y0274022D02*
X0324997Y0274022D01*
X0325596Y0274621D02*
X0289674Y0274621D01*
X0289674Y0275219D02*
X0326194Y0275219D01*
X0327377Y0275818D02*
X0289674Y0275818D01*
X0289674Y0276416D02*
X0328822Y0276416D01*
X0334384Y0276416D02*
X0367794Y0276416D01*
X0367196Y0275818D02*
X0335829Y0275818D01*
X0337012Y0275219D02*
X0366597Y0275219D01*
X0365999Y0274621D02*
X0337610Y0274621D01*
X0338209Y0274022D02*
X0365400Y0274022D01*
X0364802Y0273424D02*
X0338807Y0273424D01*
X0339406Y0272825D02*
X0364203Y0272825D01*
X0363605Y0272227D02*
X0339662Y0272227D01*
X0339910Y0271628D02*
X0363006Y0271628D01*
X0362408Y0271030D02*
X0340158Y0271030D01*
X0340406Y0270431D02*
X0352612Y0270431D01*
X0351167Y0269833D02*
X0340654Y0269833D01*
X0340824Y0269234D02*
X0349722Y0269234D01*
X0348941Y0268636D02*
X0340824Y0268636D01*
X0340824Y0268037D02*
X0348343Y0268037D01*
X0347744Y0267439D02*
X0340824Y0267439D01*
X0340824Y0266840D02*
X0347146Y0266840D01*
X0346705Y0266242D02*
X0340824Y0266242D01*
X0340779Y0265643D02*
X0346458Y0265643D01*
X0346210Y0265045D02*
X0340531Y0265045D01*
X0340283Y0264446D02*
X0345962Y0264446D01*
X0345714Y0263848D02*
X0340035Y0263848D01*
X0339787Y0263249D02*
X0345466Y0263249D01*
X0345413Y0262651D02*
X0339539Y0262651D01*
X0339109Y0262052D02*
X0345413Y0262052D01*
X0345413Y0261454D02*
X0338510Y0261454D01*
X0337912Y0260855D02*
X0345413Y0260855D01*
X0345413Y0260257D02*
X0337313Y0260257D01*
X0336556Y0259658D02*
X0345413Y0259658D01*
X0345577Y0259060D02*
X0335112Y0259060D01*
X0333667Y0258461D02*
X0345776Y0258461D01*
X0347176Y0255469D02*
X0347413Y0255469D01*
X0347176Y0254870D02*
X0348012Y0254870D01*
X0348610Y0254272D02*
X0347176Y0254272D01*
X0347176Y0253673D02*
X0349209Y0253673D01*
X0350368Y0253074D02*
X0347176Y0253074D01*
X0347176Y0252476D02*
X0351813Y0252476D01*
X0347176Y0251877D02*
X0369508Y0251877D01*
X0369508Y0251279D02*
X0347176Y0251279D01*
X0347176Y0250680D02*
X0369701Y0250680D01*
X0369508Y0251147D02*
X0370912Y0247758D01*
X0373506Y0245164D01*
X0376895Y0243760D01*
X0380563Y0243760D01*
X0383953Y0245164D01*
X0386547Y0247758D01*
X0387950Y0251147D01*
X0387950Y0254815D01*
X0386547Y0258205D01*
X0383953Y0260798D01*
X0380563Y0262202D01*
X0376895Y0262202D01*
X0373506Y0260798D01*
X0370912Y0258205D01*
X0369508Y0254815D01*
X0369508Y0251147D01*
X0369949Y0250082D02*
X0347176Y0250082D01*
X0347176Y0249483D02*
X0370197Y0249483D01*
X0370445Y0248885D02*
X0347176Y0248885D01*
X0347176Y0248286D02*
X0370693Y0248286D01*
X0370982Y0247688D02*
X0347176Y0247688D01*
X0347176Y0247089D02*
X0371580Y0247089D01*
X0372179Y0246491D02*
X0347176Y0246491D01*
X0347176Y0245892D02*
X0372777Y0245892D01*
X0373376Y0245294D02*
X0347176Y0245294D01*
X0347176Y0244695D02*
X0374636Y0244695D01*
X0376081Y0244097D02*
X0347176Y0244097D01*
X0347176Y0243498D02*
X0404831Y0243498D01*
X0404831Y0242900D02*
X0347176Y0242900D01*
X0347176Y0242301D02*
X0404831Y0242301D01*
X0404831Y0241703D02*
X0347176Y0241703D01*
X0347176Y0241104D02*
X0404831Y0241104D01*
X0404831Y0240506D02*
X0347176Y0240506D01*
X0347176Y0239907D02*
X0404831Y0239907D01*
X0404831Y0239309D02*
X0347176Y0239309D01*
X0347176Y0238710D02*
X0404831Y0238710D01*
X0404831Y0238112D02*
X0347176Y0238112D01*
X0347176Y0237513D02*
X0404831Y0237513D01*
X0404831Y0236915D02*
X0347176Y0236915D01*
X0347176Y0236316D02*
X0404831Y0236316D01*
X0404831Y0235718D02*
X0347176Y0235718D01*
X0347176Y0235119D02*
X0404831Y0235119D01*
X0404831Y0234521D02*
X0347176Y0234521D01*
X0345776Y0233922D02*
X0343694Y0233922D01*
X0345139Y0233324D02*
X0345776Y0233324D01*
X0357456Y0252476D02*
X0369508Y0252476D01*
X0369508Y0253074D02*
X0358901Y0253074D01*
X0360060Y0253673D02*
X0369508Y0253673D01*
X0369508Y0254272D02*
X0360659Y0254272D01*
X0361257Y0254870D02*
X0369531Y0254870D01*
X0369778Y0255469D02*
X0361856Y0255469D01*
X0362453Y0256067D02*
X0370026Y0256067D01*
X0370274Y0256666D02*
X0362701Y0256666D01*
X0362949Y0257264D02*
X0370522Y0257264D01*
X0370770Y0257863D02*
X0363197Y0257863D01*
X0363445Y0258461D02*
X0371168Y0258461D01*
X0371767Y0259060D02*
X0363693Y0259060D01*
X0363856Y0259658D02*
X0372365Y0259658D01*
X0372964Y0260257D02*
X0363856Y0260257D01*
X0363856Y0260855D02*
X0373642Y0260855D01*
X0375087Y0261454D02*
X0363856Y0261454D01*
X0363856Y0262052D02*
X0376532Y0262052D01*
X0380926Y0262052D02*
X0404831Y0262052D01*
X0404831Y0261454D02*
X0382371Y0261454D01*
X0383816Y0260855D02*
X0404831Y0260855D01*
X0404831Y0260257D02*
X0384494Y0260257D01*
X0385093Y0259658D02*
X0404831Y0259658D01*
X0404831Y0259060D02*
X0385691Y0259060D01*
X0386290Y0258461D02*
X0404831Y0258461D01*
X0404831Y0257863D02*
X0386688Y0257863D01*
X0386936Y0257264D02*
X0404831Y0257264D01*
X0404831Y0256666D02*
X0387184Y0256666D01*
X0387432Y0256067D02*
X0404831Y0256067D01*
X0404831Y0255469D02*
X0387680Y0255469D01*
X0387928Y0254870D02*
X0404831Y0254870D01*
X0404831Y0254272D02*
X0387950Y0254272D01*
X0387950Y0253673D02*
X0404831Y0253673D01*
X0404831Y0253074D02*
X0387950Y0253074D01*
X0387950Y0252476D02*
X0404831Y0252476D01*
X0404831Y0251877D02*
X0387950Y0251877D01*
X0387950Y0251279D02*
X0404831Y0251279D01*
X0404831Y0250680D02*
X0387757Y0250680D01*
X0387509Y0250082D02*
X0404831Y0250082D01*
X0404831Y0249483D02*
X0387261Y0249483D01*
X0387013Y0248885D02*
X0404831Y0248885D01*
X0404831Y0248286D02*
X0386766Y0248286D01*
X0386477Y0247688D02*
X0404831Y0247688D01*
X0404831Y0247089D02*
X0385878Y0247089D01*
X0385280Y0246491D02*
X0404831Y0246491D01*
X0404831Y0245892D02*
X0384681Y0245892D01*
X0384083Y0245294D02*
X0404831Y0245294D01*
X0404831Y0244695D02*
X0382822Y0244695D01*
X0381377Y0244097D02*
X0404831Y0244097D01*
X0404831Y0262651D02*
X0363856Y0262651D01*
X0363803Y0263249D02*
X0404831Y0263249D01*
X0404831Y0263848D02*
X0363555Y0263848D01*
X0363308Y0264446D02*
X0404831Y0264446D01*
X0404831Y0265045D02*
X0363060Y0265045D01*
X0362812Y0265643D02*
X0404831Y0265643D01*
X0404831Y0266242D02*
X0362564Y0266242D01*
X0362123Y0266840D02*
X0404831Y0266840D01*
X0404831Y0267439D02*
X0361525Y0267439D01*
X0361395Y0268037D02*
X0404831Y0268037D01*
X0404831Y0268636D02*
X0361994Y0268636D01*
X0362592Y0269234D02*
X0404831Y0269234D01*
X0404831Y0269833D02*
X0363191Y0269833D01*
X0363789Y0270431D02*
X0404831Y0270431D01*
X0404831Y0271030D02*
X0364388Y0271030D01*
X0364986Y0271628D02*
X0404831Y0271628D01*
X0404831Y0272227D02*
X0365585Y0272227D01*
X0366183Y0272825D02*
X0404831Y0272825D01*
X0404831Y0273424D02*
X0366782Y0273424D01*
X0367380Y0274022D02*
X0404831Y0274022D01*
X0404831Y0274621D02*
X0367979Y0274621D01*
X0368577Y0275219D02*
X0404831Y0275219D01*
X0404831Y0275818D02*
X0369176Y0275818D01*
X0369774Y0276416D02*
X0404831Y0276416D01*
X0404831Y0277015D02*
X0370373Y0277015D01*
X0370971Y0277613D02*
X0404831Y0277613D01*
X0404831Y0278212D02*
X0371570Y0278212D01*
X0372168Y0278810D02*
X0404831Y0278810D01*
X0404831Y0279409D02*
X0372767Y0279409D01*
X0373365Y0280008D02*
X0404831Y0280008D01*
X0404831Y0280606D02*
X0373964Y0280606D01*
X0374562Y0281205D02*
X0404831Y0281205D01*
X0404831Y0281803D02*
X0375161Y0281803D01*
X0375759Y0282402D02*
X0404831Y0282402D01*
X0404831Y0283000D02*
X0376358Y0283000D01*
X0376956Y0283599D02*
X0404831Y0283599D01*
X0404831Y0284197D02*
X0377555Y0284197D01*
X0378153Y0284796D02*
X0404831Y0284796D01*
X0404831Y0285394D02*
X0378752Y0285394D01*
X0379350Y0285993D02*
X0404831Y0285993D01*
X0404831Y0286591D02*
X0379949Y0286591D01*
X0380547Y0287190D02*
X0404831Y0287190D01*
X0404831Y0287788D02*
X0381146Y0287788D01*
X0381745Y0288387D02*
X0404831Y0288387D01*
X0404831Y0288985D02*
X0382343Y0288985D01*
X0382609Y0289584D02*
X0404831Y0289584D01*
X0404831Y0290182D02*
X0382609Y0290182D01*
X0382609Y0290781D02*
X0404831Y0290781D01*
X0404831Y0291379D02*
X0382609Y0291379D01*
X0382609Y0291978D02*
X0404831Y0291978D01*
X0404831Y0292576D02*
X0382609Y0292576D01*
X0382609Y0293175D02*
X0404831Y0293175D01*
X0404831Y0293773D02*
X0382609Y0293773D01*
X0382609Y0294372D02*
X0404831Y0294372D01*
X0404831Y0294970D02*
X0382609Y0294970D01*
X0382609Y0295569D02*
X0404831Y0295569D01*
X0404831Y0296167D02*
X0382609Y0296167D01*
X0382609Y0296766D02*
X0404831Y0296766D01*
X0404831Y0297364D02*
X0382609Y0297364D01*
X0382609Y0297963D02*
X0404831Y0297963D01*
X0404831Y0298561D02*
X0382609Y0298561D01*
X0382609Y0299160D02*
X0404831Y0299160D01*
X0404831Y0299758D02*
X0382609Y0299758D01*
X0382609Y0300357D02*
X0404831Y0300357D01*
X0404831Y0300955D02*
X0382609Y0300955D01*
X0382609Y0301554D02*
X0404831Y0301554D01*
X0404831Y0302152D02*
X0382609Y0302152D01*
X0382609Y0302751D02*
X0404831Y0302751D01*
X0404831Y0303349D02*
X0382609Y0303349D01*
X0382609Y0303948D02*
X0404831Y0303948D01*
X0404831Y0304546D02*
X0382609Y0304546D01*
X0382609Y0305145D02*
X0404831Y0305145D01*
X0404831Y0305743D02*
X0382609Y0305743D01*
X0382609Y0306342D02*
X0404831Y0306342D01*
X0404831Y0306941D02*
X0382609Y0306941D01*
X0382609Y0307539D02*
X0404831Y0307539D01*
X0404831Y0308138D02*
X0382609Y0308138D01*
X0382609Y0308736D02*
X0404831Y0308736D01*
X0404831Y0309335D02*
X0382609Y0309335D01*
X0382609Y0309933D02*
X0404831Y0309933D01*
X0404831Y0310532D02*
X0382609Y0310532D01*
X0382609Y0311130D02*
X0404831Y0311130D01*
X0404831Y0311729D02*
X0382609Y0311729D01*
X0382609Y0312327D02*
X0404831Y0312327D01*
X0404831Y0312926D02*
X0382609Y0312926D01*
X0382609Y0313524D02*
X0404831Y0313524D01*
X0404831Y0314123D02*
X0382609Y0314123D01*
X0382609Y0314721D02*
X0404831Y0314721D01*
X0404831Y0315320D02*
X0382609Y0315320D01*
X0382609Y0315918D02*
X0404831Y0315918D01*
X0404831Y0316517D02*
X0382095Y0316517D01*
X0381496Y0317115D02*
X0404831Y0317115D01*
X0404831Y0317714D02*
X0380898Y0317714D01*
X0380713Y0315918D02*
X0378256Y0315918D01*
X0378147Y0315973D02*
X0377422Y0316209D01*
X0376669Y0316328D01*
X0376588Y0316328D01*
X0376588Y0311785D01*
X0375988Y0311785D01*
X0375988Y0311185D01*
X0371445Y0311185D01*
X0371445Y0311104D01*
X0371564Y0310351D01*
X0371800Y0309626D01*
X0372146Y0308947D01*
X0372594Y0308330D01*
X0373133Y0307791D01*
X0373750Y0307343D01*
X0374429Y0306997D01*
X0375154Y0306761D01*
X0375907Y0306642D01*
X0375988Y0306642D01*
X0375988Y0311185D01*
X0376588Y0311185D01*
X0376588Y0306642D01*
X0376669Y0306642D01*
X0377422Y0306761D01*
X0378147Y0306997D01*
X0378827Y0307343D01*
X0379443Y0307791D01*
X0379982Y0308330D01*
X0380431Y0308947D01*
X0380777Y0309626D01*
X0381012Y0310351D01*
X0381131Y0311104D01*
X0381131Y0311185D01*
X0376588Y0311185D01*
X0376588Y0311785D01*
X0381131Y0311785D01*
X0381131Y0311866D01*
X0381012Y0312619D01*
X0380777Y0313344D01*
X0380431Y0314023D01*
X0379982Y0314640D01*
X0379443Y0315179D01*
X0378827Y0315627D01*
X0378147Y0315973D01*
X0379250Y0315320D02*
X0381209Y0315320D01*
X0381209Y0314721D02*
X0379902Y0314721D01*
X0380359Y0314123D02*
X0381209Y0314123D01*
X0381209Y0313524D02*
X0380685Y0313524D01*
X0380913Y0312926D02*
X0381209Y0312926D01*
X0381209Y0312327D02*
X0381058Y0312327D01*
X0381209Y0311729D02*
X0376588Y0311729D01*
X0376588Y0312327D02*
X0375988Y0312327D01*
X0375988Y0311785D02*
X0375988Y0316328D01*
X0375907Y0316328D01*
X0375154Y0316209D01*
X0374429Y0315973D01*
X0373750Y0315627D01*
X0373133Y0315179D01*
X0372594Y0314640D01*
X0372146Y0314023D01*
X0371800Y0313344D01*
X0371564Y0312619D01*
X0371445Y0311866D01*
X0371445Y0311785D01*
X0375988Y0311785D01*
X0375988Y0311729D02*
X0369642Y0311729D01*
X0370241Y0312327D02*
X0371518Y0312327D01*
X0371664Y0312926D02*
X0370839Y0312926D01*
X0371438Y0313524D02*
X0371891Y0313524D01*
X0372036Y0314123D02*
X0372218Y0314123D01*
X0372635Y0314721D02*
X0372675Y0314721D01*
X0373233Y0315320D02*
X0373326Y0315320D01*
X0373832Y0315918D02*
X0374320Y0315918D01*
X0375988Y0315918D02*
X0376588Y0315918D01*
X0376588Y0315320D02*
X0375988Y0315320D01*
X0375988Y0314721D02*
X0376588Y0314721D01*
X0376588Y0314123D02*
X0375988Y0314123D01*
X0375988Y0313524D02*
X0376588Y0313524D01*
X0376588Y0312926D02*
X0375988Y0312926D01*
X0375988Y0311130D02*
X0376588Y0311130D01*
X0376588Y0310532D02*
X0375988Y0310532D01*
X0375988Y0309933D02*
X0376588Y0309933D01*
X0376588Y0309335D02*
X0375988Y0309335D01*
X0375988Y0308736D02*
X0376588Y0308736D01*
X0376588Y0308138D02*
X0375988Y0308138D01*
X0375988Y0307539D02*
X0376588Y0307539D01*
X0376588Y0306941D02*
X0375988Y0306941D01*
X0374602Y0306941D02*
X0363339Y0306941D01*
X0364137Y0307539D02*
X0373479Y0307539D01*
X0372786Y0308138D02*
X0364935Y0308138D01*
X0365733Y0308736D02*
X0372299Y0308736D01*
X0371948Y0309335D02*
X0366531Y0309335D01*
X0367329Y0309933D02*
X0371700Y0309933D01*
X0371536Y0310532D02*
X0368127Y0310532D01*
X0368925Y0311130D02*
X0371445Y0311130D01*
X0369458Y0313524D02*
X0360469Y0313524D01*
X0360717Y0312926D02*
X0368859Y0312926D01*
X0368188Y0312327D02*
X0360931Y0312327D01*
X0360931Y0311729D02*
X0367390Y0311729D01*
X0366592Y0311130D02*
X0360931Y0311130D01*
X0360919Y0310532D02*
X0365794Y0310532D01*
X0364996Y0309933D02*
X0360671Y0309933D01*
X0360423Y0309335D02*
X0364198Y0309335D01*
X0363400Y0308736D02*
X0360106Y0308736D01*
X0359507Y0308138D02*
X0362602Y0308138D01*
X0361804Y0307539D02*
X0358895Y0307539D01*
X0361743Y0305743D02*
X0381209Y0305743D01*
X0381209Y0305145D02*
X0289674Y0305145D01*
X0289674Y0304546D02*
X0381209Y0304546D01*
X0381209Y0303948D02*
X0289674Y0303948D01*
X0289674Y0303349D02*
X0381209Y0303349D01*
X0381209Y0302751D02*
X0370823Y0302751D01*
X0370722Y0302793D02*
X0367445Y0302793D01*
X0364418Y0301539D01*
X0362100Y0299222D01*
X0360846Y0296194D01*
X0360846Y0292917D01*
X0362100Y0289890D01*
X0364418Y0287573D01*
X0367445Y0286319D01*
X0370722Y0286319D01*
X0373749Y0287573D01*
X0376066Y0289890D01*
X0377320Y0292917D01*
X0377320Y0296194D01*
X0376066Y0299222D01*
X0373749Y0301539D01*
X0370722Y0302793D01*
X0372268Y0302152D02*
X0381209Y0302152D01*
X0381209Y0301554D02*
X0373713Y0301554D01*
X0374333Y0300955D02*
X0381209Y0300955D01*
X0381209Y0300357D02*
X0374931Y0300357D01*
X0375530Y0299758D02*
X0381209Y0299758D01*
X0381209Y0299160D02*
X0376092Y0299160D01*
X0376340Y0298561D02*
X0381209Y0298561D01*
X0381209Y0297963D02*
X0376588Y0297963D01*
X0376836Y0297364D02*
X0381209Y0297364D01*
X0381209Y0296766D02*
X0377084Y0296766D01*
X0377320Y0296167D02*
X0381209Y0296167D01*
X0381209Y0295569D02*
X0377320Y0295569D01*
X0377320Y0294970D02*
X0381209Y0294970D01*
X0381209Y0294372D02*
X0377320Y0294372D01*
X0377320Y0293773D02*
X0381209Y0293773D01*
X0381209Y0293175D02*
X0377320Y0293175D01*
X0377179Y0292576D02*
X0381209Y0292576D01*
X0381209Y0291978D02*
X0376931Y0291978D01*
X0376683Y0291379D02*
X0381209Y0291379D01*
X0381209Y0290781D02*
X0376435Y0290781D01*
X0376187Y0290182D02*
X0381209Y0290182D01*
X0380962Y0289584D02*
X0375760Y0289584D01*
X0375162Y0288985D02*
X0380363Y0288985D01*
X0379765Y0288387D02*
X0374563Y0288387D01*
X0373965Y0287788D02*
X0379166Y0287788D01*
X0378568Y0287190D02*
X0372824Y0287190D01*
X0371379Y0286591D02*
X0377969Y0286591D01*
X0377371Y0285993D02*
X0321740Y0285993D01*
X0321624Y0285637D02*
X0321906Y0286505D01*
X0322049Y0287407D01*
X0322049Y0287563D01*
X0316549Y0287563D01*
X0316549Y0288163D01*
X0322049Y0288163D01*
X0322049Y0288319D01*
X0321906Y0289221D01*
X0321624Y0290089D01*
X0321209Y0290903D01*
X0320673Y0291641D01*
X0320027Y0292287D01*
X0319289Y0292824D01*
X0318475Y0293238D01*
X0317607Y0293520D01*
X0316705Y0293663D01*
X0316549Y0293663D01*
X0316549Y0288163D01*
X0315949Y0288163D01*
X0315949Y0293663D01*
X0315792Y0293663D01*
X0314891Y0293520D01*
X0314022Y0293238D01*
X0313209Y0292824D01*
X0312470Y0292287D01*
X0311825Y0291641D01*
X0311288Y0290903D01*
X0310874Y0290089D01*
X0310592Y0289221D01*
X0310449Y0288319D01*
X0310449Y0288163D01*
X0315949Y0288163D01*
X0315949Y0287563D01*
X0316549Y0287563D01*
X0316549Y0282063D01*
X0316705Y0282063D01*
X0317607Y0282206D01*
X0318475Y0282488D01*
X0319289Y0282902D01*
X0320027Y0283439D01*
X0320673Y0284085D01*
X0321209Y0284823D01*
X0321624Y0285637D01*
X0321500Y0285394D02*
X0376772Y0285394D01*
X0376174Y0284796D02*
X0321189Y0284796D01*
X0320755Y0284197D02*
X0375575Y0284197D01*
X0374977Y0283599D02*
X0320187Y0283599D01*
X0319423Y0283000D02*
X0374378Y0283000D01*
X0373780Y0282402D02*
X0318209Y0282402D01*
X0316549Y0282402D02*
X0315949Y0282402D01*
X0315949Y0282063D02*
X0315949Y0287563D01*
X0310449Y0287563D01*
X0310449Y0287407D01*
X0310592Y0286505D01*
X0310874Y0285637D01*
X0311288Y0284823D01*
X0311825Y0284085D01*
X0312470Y0283439D01*
X0313209Y0282902D01*
X0314022Y0282488D01*
X0314891Y0282206D01*
X0315792Y0282063D01*
X0315949Y0282063D01*
X0315949Y0283000D02*
X0316549Y0283000D01*
X0316549Y0283599D02*
X0315949Y0283599D01*
X0315949Y0284197D02*
X0316549Y0284197D01*
X0316549Y0284796D02*
X0315949Y0284796D01*
X0315949Y0285394D02*
X0316549Y0285394D01*
X0316549Y0285993D02*
X0315949Y0285993D01*
X0315949Y0286591D02*
X0316549Y0286591D01*
X0316549Y0287190D02*
X0315949Y0287190D01*
X0315949Y0287788D02*
X0304261Y0287788D01*
X0304189Y0288237D02*
X0303907Y0289105D01*
X0303493Y0289919D01*
X0302956Y0290657D01*
X0302311Y0291303D01*
X0301572Y0291839D01*
X0300759Y0292254D01*
X0299890Y0292536D01*
X0298989Y0292679D01*
X0298832Y0292679D01*
X0298832Y0287179D01*
X0298232Y0287179D01*
X0298232Y0292679D01*
X0298076Y0292679D01*
X0297174Y0292536D01*
X0296306Y0292254D01*
X0295492Y0291839D01*
X0294754Y0291303D01*
X0294108Y0290657D01*
X0293572Y0289919D01*
X0293157Y0289105D01*
X0292875Y0288237D01*
X0292732Y0287335D01*
X0292732Y0287179D01*
X0298232Y0287179D01*
X0298232Y0286579D01*
X0292732Y0286579D01*
X0292732Y0286422D01*
X0292875Y0285521D01*
X0293157Y0284652D01*
X0293572Y0283839D01*
X0294108Y0283100D01*
X0294754Y0282455D01*
X0295492Y0281918D01*
X0296306Y0281504D01*
X0297174Y0281222D01*
X0298076Y0281079D01*
X0298232Y0281079D01*
X0298232Y0286579D01*
X0298832Y0286579D01*
X0298832Y0281079D01*
X0298989Y0281079D01*
X0299890Y0281222D01*
X0300759Y0281504D01*
X0301572Y0281918D01*
X0302311Y0282455D01*
X0302956Y0283100D01*
X0303493Y0283839D01*
X0303907Y0284652D01*
X0304189Y0285521D01*
X0304332Y0286422D01*
X0304332Y0286579D01*
X0298832Y0286579D01*
X0298832Y0287179D01*
X0304332Y0287179D01*
X0304332Y0287335D01*
X0304189Y0288237D01*
X0304141Y0288387D02*
X0310459Y0288387D01*
X0310554Y0288985D02*
X0303946Y0288985D01*
X0303664Y0289584D02*
X0310709Y0289584D01*
X0310921Y0290182D02*
X0303301Y0290182D01*
X0302833Y0290781D02*
X0311226Y0290781D01*
X0311634Y0291379D02*
X0302205Y0291379D01*
X0301301Y0291978D02*
X0312161Y0291978D01*
X0312869Y0292576D02*
X0299636Y0292576D01*
X0298832Y0292576D02*
X0298232Y0292576D01*
X0298232Y0291978D02*
X0298832Y0291978D01*
X0298832Y0291379D02*
X0298232Y0291379D01*
X0298232Y0290781D02*
X0298832Y0290781D01*
X0298832Y0290182D02*
X0298232Y0290182D01*
X0298232Y0289584D02*
X0298832Y0289584D01*
X0298832Y0288985D02*
X0298232Y0288985D01*
X0298232Y0288387D02*
X0298832Y0288387D01*
X0298832Y0287788D02*
X0298232Y0287788D01*
X0298232Y0287190D02*
X0298832Y0287190D01*
X0298832Y0286591D02*
X0310578Y0286591D01*
X0310483Y0287190D02*
X0304332Y0287190D01*
X0304264Y0285993D02*
X0310758Y0285993D01*
X0310997Y0285394D02*
X0304148Y0285394D01*
X0303954Y0284796D02*
X0311308Y0284796D01*
X0311743Y0284197D02*
X0303675Y0284197D01*
X0303318Y0283599D02*
X0312311Y0283599D01*
X0313075Y0283000D02*
X0302856Y0283000D01*
X0302237Y0282402D02*
X0314288Y0282402D01*
X0316549Y0287788D02*
X0338612Y0287788D01*
X0338827Y0287573D02*
X0341854Y0286319D01*
X0345131Y0286319D01*
X0348159Y0287573D01*
X0350476Y0289890D01*
X0351730Y0292917D01*
X0351730Y0296194D01*
X0350476Y0299222D01*
X0348159Y0301539D01*
X0345131Y0302793D01*
X0341854Y0302793D01*
X0338827Y0301539D01*
X0336510Y0299222D01*
X0335256Y0296194D01*
X0335256Y0292917D01*
X0336510Y0289890D01*
X0338827Y0287573D01*
X0339752Y0287190D02*
X0322014Y0287190D01*
X0321920Y0286591D02*
X0341197Y0286591D01*
X0338013Y0288387D02*
X0322038Y0288387D01*
X0321943Y0288985D02*
X0337415Y0288985D01*
X0336816Y0289584D02*
X0321788Y0289584D01*
X0321577Y0290182D02*
X0336389Y0290182D01*
X0336141Y0290781D02*
X0321272Y0290781D01*
X0320863Y0291379D02*
X0335893Y0291379D01*
X0335645Y0291978D02*
X0320336Y0291978D01*
X0319629Y0292576D02*
X0335397Y0292576D01*
X0335256Y0293175D02*
X0318599Y0293175D01*
X0316549Y0293175D02*
X0315949Y0293175D01*
X0315949Y0292576D02*
X0316549Y0292576D01*
X0316549Y0291978D02*
X0315949Y0291978D01*
X0315949Y0291379D02*
X0316549Y0291379D01*
X0316549Y0290781D02*
X0315949Y0290781D01*
X0315949Y0290182D02*
X0316549Y0290182D01*
X0316549Y0289584D02*
X0315949Y0289584D01*
X0315949Y0288985D02*
X0316549Y0288985D01*
X0316549Y0288387D02*
X0315949Y0288387D01*
X0313898Y0293175D02*
X0289674Y0293175D01*
X0289674Y0293773D02*
X0335256Y0293773D01*
X0335256Y0294372D02*
X0289674Y0294372D01*
X0289674Y0294970D02*
X0335256Y0294970D01*
X0335256Y0295569D02*
X0289674Y0295569D01*
X0289674Y0296167D02*
X0335256Y0296167D01*
X0335493Y0296766D02*
X0289674Y0296766D01*
X0289674Y0297364D02*
X0335741Y0297364D01*
X0335988Y0297963D02*
X0289674Y0297963D01*
X0289674Y0298561D02*
X0336236Y0298561D01*
X0336484Y0299160D02*
X0289674Y0299160D01*
X0289674Y0299758D02*
X0337047Y0299758D01*
X0337645Y0300357D02*
X0289674Y0300357D01*
X0289674Y0300955D02*
X0338244Y0300955D01*
X0338863Y0301554D02*
X0289674Y0301554D01*
X0289674Y0302152D02*
X0340308Y0302152D01*
X0341753Y0302751D02*
X0289674Y0302751D01*
X0289055Y0306941D02*
X0287706Y0306941D01*
X0287706Y0307539D02*
X0333479Y0307539D01*
X0332786Y0308138D02*
X0287706Y0308138D01*
X0287706Y0308736D02*
X0332299Y0308736D01*
X0331948Y0309335D02*
X0287706Y0309335D01*
X0287706Y0309933D02*
X0331700Y0309933D01*
X0331536Y0310532D02*
X0287706Y0310532D01*
X0287706Y0311130D02*
X0331445Y0311130D01*
X0331445Y0311785D02*
X0335988Y0311785D01*
X0335988Y0316328D01*
X0335907Y0316328D01*
X0335154Y0316209D01*
X0334429Y0315973D01*
X0333750Y0315627D01*
X0333133Y0315179D01*
X0332594Y0314640D01*
X0332146Y0314023D01*
X0331800Y0313344D01*
X0331564Y0312619D01*
X0331445Y0311866D01*
X0331445Y0311785D01*
X0331518Y0312327D02*
X0287706Y0312327D01*
X0287706Y0311729D02*
X0335988Y0311729D01*
X0335988Y0312327D02*
X0336588Y0312327D01*
X0336588Y0311785D02*
X0336588Y0316328D01*
X0336669Y0316328D01*
X0337422Y0316209D01*
X0338147Y0315973D01*
X0338827Y0315627D01*
X0339443Y0315179D01*
X0339982Y0314640D01*
X0340431Y0314023D01*
X0340777Y0313344D01*
X0341012Y0312619D01*
X0341131Y0311866D01*
X0341131Y0311785D01*
X0336588Y0311785D01*
X0336588Y0311729D02*
X0351645Y0311729D01*
X0351645Y0312327D02*
X0341058Y0312327D01*
X0340913Y0312926D02*
X0351859Y0312926D01*
X0352107Y0313524D02*
X0340685Y0313524D01*
X0340359Y0314123D02*
X0352359Y0314123D01*
X0352958Y0314721D02*
X0339902Y0314721D01*
X0339250Y0315320D02*
X0353556Y0315320D01*
X0354857Y0315918D02*
X0338256Y0315918D01*
X0336588Y0315918D02*
X0335988Y0315918D01*
X0335988Y0315320D02*
X0336588Y0315320D01*
X0336588Y0314721D02*
X0335988Y0314721D01*
X0335988Y0314123D02*
X0336588Y0314123D01*
X0336588Y0313524D02*
X0335988Y0313524D01*
X0335988Y0312926D02*
X0336588Y0312926D01*
X0334320Y0315918D02*
X0320026Y0315918D01*
X0320027Y0315919D02*
X0320673Y0316565D01*
X0321209Y0317303D01*
X0321624Y0318117D01*
X0321906Y0318985D01*
X0322049Y0319887D01*
X0322049Y0320043D01*
X0316549Y0320043D01*
X0316549Y0314543D01*
X0316705Y0314543D01*
X0317607Y0314686D01*
X0318475Y0314968D01*
X0319289Y0315383D01*
X0320027Y0315919D01*
X0320625Y0316517D02*
X0372450Y0316517D01*
X0373049Y0317115D02*
X0321073Y0317115D01*
X0321418Y0317714D02*
X0373647Y0317714D01*
X0371852Y0315918D02*
X0357719Y0315918D01*
X0359020Y0315320D02*
X0371253Y0315320D01*
X0370655Y0314721D02*
X0359619Y0314721D01*
X0360217Y0314123D02*
X0370056Y0314123D01*
X0377975Y0306941D02*
X0381209Y0306941D01*
X0381209Y0307539D02*
X0379097Y0307539D01*
X0379790Y0308138D02*
X0381209Y0308138D01*
X0381209Y0308736D02*
X0380278Y0308736D01*
X0380628Y0309335D02*
X0381209Y0309335D01*
X0381209Y0309933D02*
X0380876Y0309933D01*
X0381041Y0310532D02*
X0381209Y0310532D01*
X0381209Y0311130D02*
X0381131Y0311130D01*
X0381209Y0306342D02*
X0362541Y0306342D01*
X0364454Y0301554D02*
X0348123Y0301554D01*
X0348742Y0300955D02*
X0363834Y0300955D01*
X0363236Y0300357D02*
X0349341Y0300357D01*
X0349939Y0299758D02*
X0362637Y0299758D01*
X0362075Y0299160D02*
X0350502Y0299160D01*
X0350749Y0298561D02*
X0361827Y0298561D01*
X0361579Y0297963D02*
X0350997Y0297963D01*
X0351245Y0297364D02*
X0361331Y0297364D01*
X0361083Y0296766D02*
X0351493Y0296766D01*
X0351730Y0296167D02*
X0360846Y0296167D01*
X0360846Y0295569D02*
X0351730Y0295569D01*
X0351730Y0294970D02*
X0360846Y0294970D01*
X0360846Y0294372D02*
X0351730Y0294372D01*
X0351730Y0293773D02*
X0360846Y0293773D01*
X0360846Y0293175D02*
X0351730Y0293175D01*
X0351589Y0292576D02*
X0360988Y0292576D01*
X0361236Y0291978D02*
X0351341Y0291978D01*
X0351093Y0291379D02*
X0361484Y0291379D01*
X0361732Y0290781D02*
X0350845Y0290781D01*
X0350597Y0290182D02*
X0361979Y0290182D01*
X0362407Y0289584D02*
X0350170Y0289584D01*
X0349571Y0288985D02*
X0363005Y0288985D01*
X0363604Y0288387D02*
X0348973Y0288387D01*
X0348374Y0287788D02*
X0364202Y0287788D01*
X0365343Y0287190D02*
X0347234Y0287190D01*
X0345789Y0286591D02*
X0366788Y0286591D01*
X0372582Y0281205D02*
X0299783Y0281205D01*
X0298832Y0281205D02*
X0298232Y0281205D01*
X0298232Y0281803D02*
X0298832Y0281803D01*
X0298832Y0282402D02*
X0298232Y0282402D01*
X0298232Y0283000D02*
X0298832Y0283000D01*
X0298832Y0283599D02*
X0298232Y0283599D01*
X0298232Y0284197D02*
X0298832Y0284197D01*
X0298832Y0284796D02*
X0298232Y0284796D01*
X0298232Y0285394D02*
X0298832Y0285394D01*
X0298832Y0285993D02*
X0298232Y0285993D01*
X0298232Y0286591D02*
X0289674Y0286591D01*
X0289674Y0285993D02*
X0292800Y0285993D01*
X0292916Y0285394D02*
X0289674Y0285394D01*
X0289674Y0284796D02*
X0293111Y0284796D01*
X0293389Y0284197D02*
X0289674Y0284197D01*
X0289674Y0283599D02*
X0293746Y0283599D01*
X0294209Y0283000D02*
X0289674Y0283000D01*
X0289674Y0282402D02*
X0294827Y0282402D01*
X0295718Y0281803D02*
X0289674Y0281803D01*
X0289674Y0281205D02*
X0297282Y0281205D01*
X0301346Y0281803D02*
X0373181Y0281803D01*
X0371984Y0280606D02*
X0289674Y0280606D01*
X0289674Y0280008D02*
X0371385Y0280008D01*
X0370787Y0279409D02*
X0289674Y0279409D01*
X0289674Y0278810D02*
X0370188Y0278810D01*
X0369590Y0278212D02*
X0289674Y0278212D01*
X0289674Y0277613D02*
X0368991Y0277613D01*
X0368393Y0277015D02*
X0289674Y0277015D01*
X0289674Y0287190D02*
X0292732Y0287190D01*
X0292804Y0287788D02*
X0289674Y0287788D01*
X0289674Y0288387D02*
X0292924Y0288387D01*
X0293118Y0288985D02*
X0289674Y0288985D01*
X0289674Y0289584D02*
X0293401Y0289584D01*
X0293763Y0290182D02*
X0289674Y0290182D01*
X0289674Y0290781D02*
X0294232Y0290781D01*
X0294859Y0291379D02*
X0289674Y0291379D01*
X0289674Y0291978D02*
X0295764Y0291978D01*
X0297429Y0292576D02*
X0289674Y0292576D01*
X0287706Y0312926D02*
X0331664Y0312926D01*
X0331891Y0313524D02*
X0287706Y0313524D01*
X0287706Y0314123D02*
X0332218Y0314123D01*
X0332675Y0314721D02*
X0317715Y0314721D01*
X0316549Y0314721D02*
X0315949Y0314721D01*
X0315949Y0314543D02*
X0315949Y0320043D01*
X0316549Y0320043D01*
X0316549Y0320643D01*
X0322049Y0320643D01*
X0322049Y0320800D01*
X0321906Y0321701D01*
X0321624Y0322570D01*
X0321209Y0323383D01*
X0320673Y0324122D01*
X0320027Y0324767D01*
X0319289Y0325304D01*
X0318475Y0325718D01*
X0317607Y0326000D01*
X0316705Y0326143D01*
X0316549Y0326143D01*
X0316549Y0320643D01*
X0315949Y0320643D01*
X0315949Y0320043D01*
X0310449Y0320043D01*
X0310449Y0319887D01*
X0310592Y0318985D01*
X0310874Y0318117D01*
X0311288Y0317303D01*
X0311825Y0316565D01*
X0312470Y0315919D01*
X0313209Y0315383D01*
X0314022Y0314968D01*
X0314891Y0314686D01*
X0315792Y0314543D01*
X0315949Y0314543D01*
X0315949Y0315320D02*
X0316549Y0315320D01*
X0316549Y0315918D02*
X0315949Y0315918D01*
X0315949Y0316517D02*
X0316549Y0316517D01*
X0316549Y0317115D02*
X0315949Y0317115D01*
X0315949Y0317714D02*
X0316549Y0317714D01*
X0316549Y0318312D02*
X0315949Y0318312D01*
X0315949Y0318911D02*
X0316549Y0318911D01*
X0316549Y0319509D02*
X0315949Y0319509D01*
X0315949Y0320108D02*
X0293911Y0320108D01*
X0293911Y0320043D02*
X0293911Y0320643D01*
X0299411Y0320643D01*
X0299411Y0320800D01*
X0299268Y0321701D01*
X0298986Y0322570D01*
X0298572Y0323383D01*
X0298035Y0324122D01*
X0297389Y0324767D01*
X0296651Y0325304D01*
X0295837Y0325718D01*
X0294969Y0326000D01*
X0294067Y0326143D01*
X0293911Y0326143D01*
X0293911Y0320643D01*
X0293311Y0320643D01*
X0293311Y0320043D01*
X0293911Y0320043D01*
X0293911Y0314543D01*
X0294067Y0314543D01*
X0294969Y0314686D01*
X0295837Y0314968D01*
X0296651Y0315383D01*
X0297389Y0315919D01*
X0298035Y0316565D01*
X0298572Y0317303D01*
X0298986Y0318117D01*
X0299268Y0318985D01*
X0299411Y0319887D01*
X0299411Y0320043D01*
X0293911Y0320043D01*
X0293911Y0319509D02*
X0293311Y0319509D01*
X0293311Y0320043D02*
X0293311Y0314543D01*
X0293155Y0314543D01*
X0292253Y0314686D01*
X0291385Y0314968D01*
X0290571Y0315383D01*
X0289833Y0315919D01*
X0289187Y0316565D01*
X0288650Y0317303D01*
X0288236Y0318117D01*
X0287954Y0318985D01*
X0287811Y0319887D01*
X0287811Y0320043D01*
X0293311Y0320043D01*
X0293311Y0320108D02*
X0287706Y0320108D01*
X0287811Y0320643D02*
X0293311Y0320643D01*
X0293311Y0326143D01*
X0293155Y0326143D01*
X0292253Y0326000D01*
X0291385Y0325718D01*
X0290571Y0325304D01*
X0289833Y0324767D01*
X0289187Y0324122D01*
X0288650Y0323383D01*
X0288236Y0322570D01*
X0287954Y0321701D01*
X0287811Y0320800D01*
X0287811Y0320643D01*
X0287811Y0320706D02*
X0287706Y0320706D01*
X0287706Y0321305D02*
X0287891Y0321305D01*
X0288019Y0321903D02*
X0287706Y0321903D01*
X0287706Y0322502D02*
X0288214Y0322502D01*
X0288506Y0323100D02*
X0287706Y0323100D01*
X0287706Y0323699D02*
X0288880Y0323699D01*
X0289363Y0324297D02*
X0287723Y0324297D01*
X0288321Y0324896D02*
X0290010Y0324896D01*
X0290945Y0325494D02*
X0288920Y0325494D01*
X0289518Y0326093D02*
X0292836Y0326093D01*
X0293311Y0326093D02*
X0293911Y0326093D01*
X0294386Y0326093D02*
X0315474Y0326093D01*
X0315792Y0326143D02*
X0314891Y0326000D01*
X0314022Y0325718D01*
X0313209Y0325304D01*
X0312470Y0324767D01*
X0311825Y0324122D01*
X0311288Y0323383D01*
X0310874Y0322570D01*
X0310592Y0321701D01*
X0310449Y0320800D01*
X0310449Y0320643D01*
X0315949Y0320643D01*
X0315949Y0326143D01*
X0315792Y0326143D01*
X0315949Y0326093D02*
X0316549Y0326093D01*
X0317024Y0326093D02*
X0404831Y0326093D01*
X0404831Y0326691D02*
X0290117Y0326691D01*
X0290715Y0327290D02*
X0404831Y0327290D01*
X0404831Y0327888D02*
X0291314Y0327888D01*
X0291912Y0328487D02*
X0404831Y0328487D01*
X0404831Y0329085D02*
X0292511Y0329085D01*
X0293311Y0325494D02*
X0293911Y0325494D01*
X0293911Y0324896D02*
X0293311Y0324896D01*
X0293311Y0324297D02*
X0293911Y0324297D01*
X0293911Y0323699D02*
X0293311Y0323699D01*
X0293311Y0323100D02*
X0293911Y0323100D01*
X0293911Y0322502D02*
X0293311Y0322502D01*
X0293311Y0321903D02*
X0293911Y0321903D01*
X0293911Y0321305D02*
X0293311Y0321305D01*
X0293311Y0320706D02*
X0293911Y0320706D01*
X0293911Y0318911D02*
X0293311Y0318911D01*
X0293311Y0318312D02*
X0293911Y0318312D01*
X0293911Y0317714D02*
X0293311Y0317714D01*
X0293311Y0317115D02*
X0293911Y0317115D01*
X0293911Y0316517D02*
X0293311Y0316517D01*
X0293311Y0315918D02*
X0293911Y0315918D01*
X0293911Y0315320D02*
X0293311Y0315320D01*
X0293311Y0314721D02*
X0293911Y0314721D01*
X0295077Y0314721D02*
X0314783Y0314721D01*
X0313333Y0315320D02*
X0296527Y0315320D01*
X0297388Y0315918D02*
X0312472Y0315918D01*
X0311873Y0316517D02*
X0297987Y0316517D01*
X0298435Y0317115D02*
X0311425Y0317115D01*
X0311079Y0317714D02*
X0298781Y0317714D01*
X0299050Y0318312D02*
X0310810Y0318312D01*
X0310616Y0318911D02*
X0299244Y0318911D01*
X0299351Y0319509D02*
X0310509Y0319509D01*
X0310449Y0320706D02*
X0299411Y0320706D01*
X0299331Y0321305D02*
X0310529Y0321305D01*
X0310657Y0321903D02*
X0299203Y0321903D01*
X0299008Y0322502D02*
X0310852Y0322502D01*
X0311144Y0323100D02*
X0298716Y0323100D01*
X0298342Y0323699D02*
X0311518Y0323699D01*
X0312000Y0324297D02*
X0297859Y0324297D01*
X0297213Y0324896D02*
X0312647Y0324896D01*
X0313583Y0325494D02*
X0296277Y0325494D01*
X0287978Y0318911D02*
X0287706Y0318911D01*
X0287706Y0319509D02*
X0287871Y0319509D01*
X0287706Y0318312D02*
X0288172Y0318312D01*
X0288441Y0317714D02*
X0287706Y0317714D01*
X0287706Y0317115D02*
X0288787Y0317115D01*
X0289235Y0316517D02*
X0287706Y0316517D01*
X0287706Y0315918D02*
X0289834Y0315918D01*
X0290695Y0315320D02*
X0287706Y0315320D01*
X0287706Y0314721D02*
X0292145Y0314721D01*
X0315949Y0320706D02*
X0316549Y0320706D01*
X0316549Y0320108D02*
X0404831Y0320108D01*
X0404831Y0320706D02*
X0322049Y0320706D01*
X0321969Y0321305D02*
X0404831Y0321305D01*
X0404831Y0321903D02*
X0321840Y0321903D01*
X0321646Y0322502D02*
X0404831Y0322502D01*
X0404831Y0323100D02*
X0321354Y0323100D01*
X0320980Y0323699D02*
X0404831Y0323699D01*
X0404831Y0324297D02*
X0320497Y0324297D01*
X0319850Y0324896D02*
X0404831Y0324896D01*
X0404831Y0325494D02*
X0318915Y0325494D01*
X0316549Y0325494D02*
X0315949Y0325494D01*
X0315949Y0324896D02*
X0316549Y0324896D01*
X0316549Y0324297D02*
X0315949Y0324297D01*
X0315949Y0323699D02*
X0316549Y0323699D01*
X0316549Y0323100D02*
X0315949Y0323100D01*
X0315949Y0322502D02*
X0316549Y0322502D01*
X0316549Y0321903D02*
X0315949Y0321903D01*
X0315949Y0321305D02*
X0316549Y0321305D01*
X0321989Y0319509D02*
X0404831Y0319509D01*
X0404831Y0318911D02*
X0321882Y0318911D01*
X0321687Y0318312D02*
X0404831Y0318312D01*
X0367344Y0302751D02*
X0345233Y0302751D01*
X0346678Y0302152D02*
X0365899Y0302152D01*
X0353681Y0307539D02*
X0339097Y0307539D01*
X0339790Y0308138D02*
X0353069Y0308138D01*
X0352471Y0308736D02*
X0340278Y0308736D01*
X0340628Y0309335D02*
X0352153Y0309335D01*
X0351905Y0309933D02*
X0340876Y0309933D01*
X0341041Y0310532D02*
X0351657Y0310532D01*
X0351645Y0311130D02*
X0341131Y0311130D01*
X0333326Y0315320D02*
X0319165Y0315320D01*
X0356657Y0270431D02*
X0361809Y0270431D01*
X0361211Y0269833D02*
X0358102Y0269833D01*
X0359547Y0269234D02*
X0360612Y0269234D01*
M02*
