%
M48
M72
T01C0.01378
T02C0.06000
T03C0.08661
%
T01
X47902Y45028
X47902Y49753
X47902Y54871
X53020Y54871
X53020Y50146
X53020Y45422
X57745Y54871
X62469Y54871
X67194Y54871
X82942Y78887
X89241Y86761
X97902Y86367
X97902Y80855
X97902Y75737
X103020Y86367
X110894Y74162
X107745Y66682
X107745Y61957
X119556Y87154
X119556Y91485
X132942Y70619
X132942Y65501
X147902Y43060
X147902Y38335
X147902Y33611
X147902Y28493
X153020Y43060
X157351Y43060
X161682Y43060
X166013Y43060
X164438Y74162
X95540Y128887
X95540Y133611
X90028Y133611
X90028Y128887
X77430Y128493
X72706Y133611
X64044Y125737
X58139Y109595
X56564Y98178
X71918Y106446
X82548Y95028
T02
X28965Y98784
X28965Y115068
X28572Y134099
X28572Y151792
X45973Y167942
X60540Y167950
X127099Y168194
X142328Y167997
X160461Y144367
X160461Y131217
X160422Y103603
X160587Y85280
X30099Y79461
X29706Y66611
T03
X26643Y31643
X26643Y169438
X164438Y169438
X164438Y31643
M30
