G75*
%MOIN*%
%OFA0B0*%
%FSLAX25Y25*%
%IPPOS*%
%LPD*%
%AMOC8*
5,1,8,0,0,1.08239X$1,22.5*
%
%ADD10R,0.03713X0.10249*%
%ADD11C,0.09800*%
%ADD12R,0.03162X0.09461*%
%ADD13R,0.07887X0.11036*%
%ADD14R,0.05524X0.03950*%
%ADD15C,0.09461*%
%ADD16R,0.06784X0.13398*%
%ADD17R,0.03950X0.03950*%
%ADD18R,0.05131X0.08674*%
%ADD19R,0.08674X0.05131*%
%ADD20C,0.03778*%
D10*
X0085698Y0143611D03*
X0090698Y0143611D03*
X0095698Y0143611D03*
X0100698Y0143611D03*
X0105698Y0143611D03*
X0105698Y0158965D03*
X0100698Y0158965D03*
X0095698Y0158965D03*
X0090698Y0158965D03*
X0085698Y0158965D03*
D11*
X0060540Y0167950D03*
X0045973Y0167942D03*
X0028572Y0151792D03*
X0028572Y0134099D03*
X0028965Y0115068D03*
X0028965Y0098784D03*
X0030099Y0079461D03*
X0029706Y0066611D03*
X0127099Y0168194D03*
X0142328Y0167997D03*
X0160461Y0144367D03*
X0160461Y0131217D03*
X0160422Y0103603D03*
X0160587Y0085280D03*
D12*
X0124060Y0044068D03*
X0120123Y0044068D03*
X0116186Y0044068D03*
X0112249Y0044068D03*
X0108312Y0044068D03*
X0104375Y0044068D03*
X0100438Y0044068D03*
X0096501Y0044068D03*
X0092564Y0044068D03*
X0088627Y0044068D03*
X0084690Y0044068D03*
X0080753Y0044068D03*
X0076816Y0044068D03*
X0072879Y0044068D03*
X0068942Y0044068D03*
X0065005Y0044068D03*
D13*
X0054769Y0034619D03*
X0134296Y0034619D03*
D14*
X0075965Y0077446D03*
X0075965Y0084532D03*
X0075887Y0092926D03*
X0075887Y0100013D03*
D15*
X0026643Y0031643D03*
X0026643Y0169438D03*
X0164438Y0169438D03*
X0164438Y0031643D03*
D16*
X0161682Y0058414D03*
X0140422Y0058414D03*
D17*
X0127824Y0057627D03*
X0119556Y0072194D03*
X0113257Y0057627D03*
X0103414Y0071800D03*
X0097509Y0057627D03*
X0089241Y0071800D03*
X0083335Y0056052D03*
D18*
X0097509Y0065107D03*
X0103414Y0079280D03*
X0113257Y0065107D03*
X0119556Y0079674D03*
X0127824Y0065107D03*
X0089241Y0079280D03*
D19*
X0075855Y0056052D03*
D20*
X0067194Y0054871D03*
X0062469Y0054871D03*
X0057745Y0054871D03*
X0053020Y0054871D03*
X0053020Y0050146D03*
X0053020Y0045422D03*
X0047902Y0045028D03*
X0047902Y0049753D03*
X0047902Y0054871D03*
X0082942Y0078887D03*
X0089241Y0086761D03*
X0097902Y0086367D03*
X0097902Y0080855D03*
X0097902Y0075737D03*
X0103020Y0086367D03*
X0110894Y0074162D03*
X0107745Y0066682D03*
X0107745Y0061957D03*
X0119556Y0087154D03*
X0119556Y0091485D03*
X0132942Y0070619D03*
X0132942Y0065501D03*
X0147902Y0043060D03*
X0147902Y0038335D03*
X0147902Y0033611D03*
X0147902Y0028493D03*
X0153020Y0043060D03*
X0157351Y0043060D03*
X0161682Y0043060D03*
X0166013Y0043060D03*
X0164438Y0074162D03*
X0095540Y0128887D03*
X0095540Y0133611D03*
X0090028Y0133611D03*
X0090028Y0128887D03*
X0077430Y0128493D03*
X0072706Y0133611D03*
X0064044Y0125737D03*
X0058139Y0109595D03*
X0056564Y0098178D03*
X0071918Y0106446D03*
X0082548Y0095028D03*
M02*
