G75*
%MOIN*%
%OFA0B0*%
%FSLAX25Y25*%
%IPPOS*%
%LPD*%
%AMOC8*
5,1,8,0,0,1.08239X$1,22.5*
%
%ADD10C,0.04756*%
%ADD11C,0.09449*%
%ADD12R,0.04756X0.04756*%
%ADD13C,0.04724*%
%ADD14OC8,0.07400*%
%ADD15R,0.03962X0.03962*%
%ADD16R,0.04600X0.04600*%
%ADD17C,0.01200*%
%ADD18R,0.06000X0.06000*%
%ADD19C,0.00800*%
%ADD20C,0.03962*%
%ADD21C,0.01500*%
%ADD22C,0.01000*%
%ADD23R,0.14000X0.14000*%
%ADD24R,0.03600X0.03600*%
D10*
X0030000Y0056000D03*
X0037874Y0056000D03*
X0037874Y0063874D03*
X0030000Y0063874D03*
X0030000Y0071748D03*
X0037874Y0071748D03*
X0037874Y0079622D03*
X0030000Y0079622D03*
X0030000Y0087496D03*
X0037874Y0087496D03*
X0037874Y0095370D03*
X0030000Y0095370D03*
X0032559Y0185118D03*
X0024685Y0185118D03*
X0024685Y0192992D03*
X0032559Y0192992D03*
X0032559Y0200866D03*
X0024685Y0200866D03*
X0434000Y0158370D03*
X0434000Y0150496D03*
X0441874Y0150496D03*
X0441874Y0158370D03*
X0441874Y0142622D03*
X0441874Y0134748D03*
X0434000Y0134748D03*
X0434000Y0142622D03*
X0434000Y0126874D03*
X0434000Y0119000D03*
X0441874Y0119000D03*
X0441874Y0126874D03*
D11*
X0437937Y0174118D03*
X0437937Y0189866D03*
X0033937Y0126866D03*
X0033937Y0111118D03*
X0028622Y0216614D03*
X0028622Y0232362D03*
D12*
X0062315Y0029937D03*
X0070189Y0029937D03*
X0078063Y0029937D03*
X0085937Y0029937D03*
X0093811Y0029937D03*
X0101685Y0029937D03*
X0101685Y0022063D03*
X0093811Y0022063D03*
X0085937Y0022063D03*
X0078063Y0022063D03*
X0070189Y0022063D03*
X0062315Y0022063D03*
X0151126Y0022063D03*
X0159000Y0022063D03*
X0166874Y0022063D03*
X0166874Y0029937D03*
X0159000Y0029937D03*
X0151126Y0029937D03*
X0425063Y0055126D03*
X0432937Y0055126D03*
X0432937Y0063000D03*
X0425063Y0063000D03*
X0425063Y0070874D03*
X0432937Y0070874D03*
X0436685Y0288063D03*
X0428811Y0288063D03*
X0420937Y0288063D03*
X0413063Y0288063D03*
X0405189Y0288063D03*
X0397315Y0288063D03*
X0397315Y0295937D03*
X0405189Y0295937D03*
X0413063Y0295937D03*
X0420937Y0295937D03*
X0428811Y0295937D03*
X0436685Y0295937D03*
D13*
X0430000Y0260031D03*
X0420972Y0251000D03*
X0430000Y0241969D03*
X0439028Y0251000D03*
X0347000Y0072028D03*
X0337969Y0063000D03*
X0347000Y0053972D03*
X0356031Y0063000D03*
D14*
X0298000Y0132000D03*
X0288000Y0132000D03*
X0288000Y0142000D03*
X0298000Y0142000D03*
X0298000Y0152000D03*
X0288000Y0152000D03*
X0288000Y0162000D03*
X0298000Y0162000D03*
X0298000Y0172000D03*
X0288000Y0172000D03*
X0288000Y0182000D03*
X0298000Y0182000D03*
X0298000Y0192000D03*
X0288000Y0192000D03*
X0288000Y0202000D03*
X0298000Y0202000D03*
X0298000Y0212000D03*
X0288000Y0212000D03*
X0288000Y0222000D03*
X0298000Y0222000D03*
D15*
X0246000Y0281000D03*
X0231000Y0283000D03*
X0225000Y0287000D03*
X0227200Y0294300D03*
X0223000Y0299000D03*
X0216000Y0305000D03*
X0209000Y0304000D03*
X0193000Y0302000D03*
X0202000Y0289000D03*
X0202000Y0274000D03*
X0182000Y0289000D03*
X0175000Y0281000D03*
X0155000Y0273000D03*
X0169000Y0263000D03*
X0163000Y0256000D03*
X0155000Y0252000D03*
X0129000Y0255000D03*
X0113053Y0254947D03*
X0099000Y0264000D03*
X0095000Y0271000D03*
X0077000Y0282000D03*
X0070000Y0275000D03*
X0064000Y0268000D03*
X0059000Y0262000D03*
X0057000Y0274000D03*
X0047000Y0275000D03*
X0042000Y0279000D03*
X0026000Y0272000D03*
X0021000Y0252000D03*
X0034000Y0253000D03*
X0045000Y0249000D03*
X0036000Y0241000D03*
X0069000Y0246000D03*
X0078000Y0254000D03*
X0070000Y0238000D03*
X0067600Y0213400D03*
X0074700Y0208200D03*
X0068700Y0196400D03*
X0056000Y0204000D03*
X0056000Y0187000D03*
X0063000Y0183000D03*
X0054000Y0176000D03*
X0099000Y0163000D03*
X0122000Y0150000D03*
X0135000Y0152000D03*
X0148000Y0165000D03*
X0155000Y0158000D03*
X0158000Y0171000D03*
X0153000Y0176000D03*
X0163000Y0187000D03*
X0169000Y0187000D03*
X0175000Y0183000D03*
X0194000Y0185000D03*
X0204000Y0181000D03*
X0196000Y0165000D03*
X0208000Y0157000D03*
X0189000Y0134000D03*
X0179000Y0145000D03*
X0171000Y0139000D03*
X0175000Y0157000D03*
X0172000Y0162000D03*
X0178000Y0167000D03*
X0169000Y0200000D03*
X0184000Y0205000D03*
X0166500Y0214500D03*
X0153000Y0200000D03*
X0144000Y0208000D03*
X0133000Y0219000D03*
X0116000Y0200000D03*
X0116300Y0193200D03*
X0187000Y0238000D03*
X0196000Y0229000D03*
X0125000Y0272000D03*
X0119500Y0277400D03*
X0151000Y0286000D03*
X0042000Y0298000D03*
X0144400Y0135000D03*
X0116000Y0123000D03*
X0149000Y0114000D03*
X0195000Y0119000D03*
X0237000Y0125000D03*
X0260000Y0113000D03*
X0212000Y0066000D03*
X0167000Y0052000D03*
X0147000Y0060000D03*
X0119000Y0073000D03*
X0114000Y0081000D03*
X0089000Y0065000D03*
X0063000Y0046000D03*
X0386000Y0278000D03*
X0365400Y0294400D03*
D16*
X0223000Y0141000D03*
X0272000Y0121000D03*
X0157000Y0102000D03*
X0140000Y0122000D03*
X0076000Y0137000D03*
X0039000Y0148000D03*
X0131100Y0182900D03*
X0132000Y0282000D03*
X0104000Y0282000D03*
D17*
X0132000Y0282000D01*
X0386000Y0278000D02*
X0391000Y0283000D01*
X0413063Y0283000D01*
X0413063Y0288063D01*
X0404000Y0198000D02*
X0438000Y0164000D01*
X0438000Y0123000D01*
X0441874Y0119126D01*
X0441874Y0119000D01*
X0441874Y0126126D02*
X0451000Y0117000D01*
X0451000Y0113000D01*
X0450000Y0112000D01*
X0420000Y0112000D01*
X0419000Y0113000D01*
X0441874Y0126126D02*
X0441874Y0126874D01*
X0434000Y0134748D02*
X0427252Y0134748D01*
X0419000Y0143000D01*
X0410000Y0143000D01*
X0393000Y0160000D01*
X0393000Y0174000D01*
X0398000Y0179000D01*
X0419000Y0173000D02*
X0433630Y0158370D01*
X0434000Y0158370D01*
X0434000Y0150496D02*
X0431504Y0150496D01*
X0419000Y0163000D01*
X0419000Y0153000D02*
X0415000Y0153000D01*
X0404000Y0164000D01*
X0419000Y0153000D02*
X0429378Y0142622D01*
X0434000Y0142622D01*
X0432937Y0063000D02*
X0432937Y0059063D01*
X0433000Y0059000D01*
X0413000Y0059000D01*
X0408000Y0054000D01*
X0401000Y0054000D01*
X0396000Y0059000D01*
X0341969Y0059000D01*
X0337969Y0063000D01*
D18*
X0401000Y0064000D03*
X0401000Y0074000D03*
X0401000Y0084000D03*
X0419000Y0103000D03*
X0419000Y0113000D03*
X0419000Y0123000D03*
X0419000Y0133000D03*
X0419000Y0143000D03*
X0419000Y0153000D03*
X0419000Y0163000D03*
X0419000Y0173000D03*
X0404000Y0164000D03*
X0398000Y0179000D03*
X0404000Y0198000D03*
X0454000Y0159000D03*
X0454000Y0149000D03*
X0454000Y0139000D03*
X0454000Y0129000D03*
X0401000Y0054000D03*
X0401000Y0044000D03*
X0401000Y0034000D03*
X0205000Y0192000D03*
X0205000Y0202000D03*
X0215000Y0202000D03*
X0225000Y0202000D03*
X0235000Y0202000D03*
X0215000Y0213000D03*
X0205000Y0213000D03*
X0225000Y0221000D03*
X0235000Y0221000D03*
X0245000Y0221000D03*
X0158000Y0217000D03*
X0106000Y0213000D03*
X0096000Y0213000D03*
X0103000Y0232000D03*
X0083000Y0180000D03*
X0054000Y0111000D03*
X0099000Y0298000D03*
X0109000Y0298000D03*
X0119000Y0298000D03*
X0129000Y0298000D03*
X0139000Y0298000D03*
X0149000Y0298000D03*
X0397000Y0308000D03*
X0407000Y0308000D03*
X0417000Y0308000D03*
X0427000Y0308000D03*
X0437000Y0308000D03*
X0447000Y0308000D03*
X0447000Y0277000D03*
X0437000Y0277000D03*
X0427000Y0277000D03*
X0417000Y0277000D03*
X0407000Y0277000D03*
X0397000Y0277000D03*
D19*
X0231000Y0283000D02*
X0231000Y0299000D01*
X0223000Y0299000D01*
X0209000Y0304000D02*
X0187000Y0306000D01*
X0175000Y0297000D01*
X0175000Y0281000D01*
X0193000Y0266000D02*
X0209000Y0266000D01*
X0235000Y0240000D01*
X0235000Y0221000D01*
X0205000Y0213000D02*
X0194000Y0213000D01*
X0191000Y0210000D01*
X0171200Y0210000D01*
X0158000Y0211000D02*
X0156000Y0209000D01*
X0156000Y0179000D01*
X0153000Y0176000D01*
X0153000Y0164000D01*
X0145000Y0156000D01*
X0078000Y0156000D01*
X0065000Y0143000D01*
X0065000Y0098126D01*
X0037874Y0079622D01*
X0093811Y0100811D02*
X0116000Y0123000D01*
X0125000Y0136000D02*
X0125000Y0053252D01*
X0101685Y0029937D01*
X0093811Y0029937D02*
X0093811Y0100811D01*
X0119000Y0073000D02*
X0122000Y0076000D01*
X0122000Y0150000D01*
X0135000Y0152000D02*
X0135000Y0146000D01*
X0125000Y0136000D01*
X0147000Y0112000D02*
X0147000Y0060000D01*
X0167000Y0052000D02*
X0205000Y0090000D01*
X0205000Y0126000D01*
X0185000Y0146000D01*
X0185000Y0185000D01*
X0183000Y0187000D01*
X0169000Y0187000D01*
X0169000Y0200000D02*
X0177000Y0200000D01*
X0187000Y0190000D01*
X0189000Y0192000D01*
X0205000Y0192000D01*
X0204000Y0181000D02*
X0201000Y0181000D01*
X0191000Y0171000D01*
X0191000Y0150000D01*
X0211000Y0130000D01*
X0212000Y0066000D01*
X0208000Y0084000D02*
X0159000Y0035000D01*
X0127000Y0035000D01*
X0108000Y0016000D01*
X0099874Y0016000D01*
X0093811Y0022063D01*
X0159000Y0029937D02*
X0159000Y0035000D01*
X0208000Y0084000D02*
X0208000Y0128000D01*
X0188000Y0148000D01*
X0188000Y0189000D01*
X0187000Y0190000D01*
X0153000Y0200000D02*
X0152000Y0201000D01*
X0152000Y0223000D01*
X0193000Y0264000D01*
X0193000Y0266000D01*
X0193000Y0302000D01*
X0169000Y0263000D02*
X0169000Y0242000D01*
X0166000Y0242000D01*
X0149000Y0225000D01*
X0149000Y0166000D01*
X0148000Y0165000D01*
X0155000Y0158000D02*
X0166000Y0158000D01*
X0173000Y0151000D01*
X0173000Y0148000D01*
X0174000Y0147000D01*
X0174000Y0144000D01*
X0177000Y0141000D01*
X0181000Y0141000D01*
X0184000Y0138000D01*
X0184000Y0130000D01*
X0195000Y0119000D01*
X0194000Y0119000D01*
X0149000Y0114000D02*
X0147000Y0112000D01*
X0196000Y0165000D02*
X0275000Y0165000D01*
X0288000Y0152000D01*
X0158000Y0211000D02*
X0158000Y0217000D01*
X0073000Y0239000D02*
X0073000Y0278000D01*
X0077000Y0282000D01*
X0070000Y0275000D02*
X0069000Y0273000D01*
X0069000Y0246000D01*
X0047000Y0246000D01*
X0045000Y0248000D01*
X0045000Y0249000D01*
X0021000Y0252000D02*
X0021000Y0275000D01*
X0042000Y0298000D01*
X0042000Y0279000D02*
X0033000Y0279000D01*
X0026000Y0272000D01*
X0072000Y0238000D02*
X0073000Y0239000D01*
X0072000Y0238000D02*
X0070000Y0238000D01*
X0037000Y0206000D02*
X0028000Y0206000D01*
X0024685Y0202685D01*
X0024685Y0200866D01*
X0032559Y0192992D02*
X0049551Y0176000D01*
X0054000Y0176000D01*
X0050000Y0183000D02*
X0063000Y0183000D01*
X0050000Y0183000D02*
X0046000Y0187000D01*
X0046000Y0197000D01*
X0037000Y0206000D01*
D20*
X0051000Y0225000D03*
X0113000Y0277000D03*
X0071000Y0282000D03*
X0222000Y0114000D03*
D21*
X0019000Y0051000D02*
X0019000Y0017000D01*
X0077000Y0017000D01*
X0078063Y0018063D01*
X0078063Y0022063D01*
X0037874Y0051874D02*
X0037000Y0051000D01*
X0019000Y0051000D01*
X0019000Y0068000D01*
X0034000Y0068000D01*
X0037874Y0064126D01*
X0037874Y0063874D01*
X0037874Y0056000D02*
X0037874Y0051874D01*
X0019000Y0068000D02*
X0019000Y0094000D01*
X0018994Y0094987D01*
X0018994Y0095370D01*
X0030000Y0095370D01*
X0030000Y0087496D01*
X0018994Y0094987D02*
X0019000Y0248000D01*
X0028000Y0248000D01*
X0028000Y0257000D01*
X0040000Y0269000D01*
X0058000Y0269000D01*
X0066000Y0277000D01*
X0066000Y0286000D01*
X0069000Y0289000D01*
X0123000Y0289000D01*
X0129000Y0295000D01*
X0129000Y0298000D01*
D22*
X0365400Y0294400D02*
X0386000Y0278000D01*
D23*
X0422000Y0218000D03*
X0449000Y0218000D03*
D24*
X0171200Y0210000D03*
X0171000Y0178000D03*
X0172000Y0170000D03*
M02*
