%
M48
M72
T01C0.01772
T02C0.02000
T03C0.02362
T04C0.02756
T05C0.03000
T06C0.04000
T07C0.06299
T08C0.08661
T09C0.10000
T10C0.11024
%
T01
X337969Y63000
X347000Y53972
X356031Y63000
X347000Y72028
X430000Y241969
X420972Y251000
X430000Y260031
X439028Y251000
T02
X171200Y210000
X171000Y178000
X172000Y170000
T03
X178000Y167000
X172000Y162000
X175000Y157000
X179000Y145000
X171000Y139000
X189000Y134000
X195000Y119000
X222000Y114000
X237000Y125000
X260000Y113000
X208000Y157000
X196000Y165000
X204000Y181000
X194000Y185000
X175000Y183000
X169000Y187000
X163000Y187000
X153000Y176000
X158000Y171000
X148000Y165000
X155000Y158000
X135000Y152000
X122000Y150000
X99000Y163000
X63000Y183000
X56000Y187000
X54000Y176000
X68700Y196400
X56000Y204000
X67600Y213400
X74700Y208200
X51000Y225000
X70000Y238000
X69000Y246000
X78000Y254000
X59000Y262000
X64000Y268000
X57000Y274000
X47000Y275000
X42000Y279000
X26000Y272000
X21000Y252000
X34000Y253000
X45000Y249000
X36000Y241000
X70000Y275000
X71000Y282000
X77000Y282000
X95000Y271000
X99000Y264000
X113053Y254947
X129000Y255000
X125000Y272000
X119500Y277400
X113000Y277000
X151000Y286000
X155000Y273000
X169000Y263000
X163000Y256000
X155000Y252000
X187000Y238000
X196000Y229000
X166500Y214500
X184000Y205000
X169000Y200000
X153000Y200000
X144000Y208000
X133000Y219000
X116000Y200000
X116300Y193200
X144400Y135000
X116000Y123000
X149000Y114000
X114000Y81000
X119000Y73000
X147000Y60000
X167000Y52000
X212000Y66000
X89000Y65000
X63000Y46000
X202000Y274000
X202000Y289000
X182000Y289000
X175000Y281000
X193000Y302000
X209000Y304000
X216000Y305000
X223000Y299000
X227200Y294300
X225000Y287000
X231000Y283000
X246000Y281000
X365400Y294400
X386000Y278000
X42000Y298000
T04
X32559Y200866
X24685Y200866
X24685Y192992
X24685Y185118
X32559Y185118
X32559Y192992
X30000Y95370
X37874Y95370
X37874Y87496
X37874Y79622
X30000Y79622
X30000Y87496
X30000Y71748
X30000Y63874
X37874Y63874
X37874Y71748
X37874Y56000
X30000Y56000
X62315Y29937
X70189Y29937
X78063Y29937
X85937Y29937
X93811Y29937
X101685Y29937
X101685Y22063
X93811Y22063
X85937Y22063
X78063Y22063
X70189Y22063
X62315Y22063
X151126Y22063
X159000Y22063
X166874Y22063
X166874Y29937
X159000Y29937
X151126Y29937
X425063Y55126
X432937Y55126
X432937Y63000
X425063Y63000
X425063Y70874
X432937Y70874
X434000Y119000
X434000Y126874
X441874Y126874
X441874Y119000
X441874Y134748
X434000Y134748
X434000Y142622
X441874Y142622
X441874Y150496
X434000Y150496
X434000Y158370
X441874Y158370
X436685Y288063
X428811Y288063
X420937Y288063
X413063Y288063
X405189Y288063
X397315Y288063
X397315Y295937
X405189Y295937
X413063Y295937
X420937Y295937
X428811Y295937
X436685Y295937
T05
X223000Y141000
X272000Y121000
X157000Y102000
X140000Y122000
X76000Y137000
X39000Y148000
X131100Y182900
X132000Y282000
X104000Y282000
T06
X99000Y298000
X109000Y298000
X119000Y298000
X129000Y298000
X139000Y298000
X149000Y298000
X103000Y232000
X106000Y213000
X96000Y213000
X83000Y180000
X158000Y217000
X205000Y213000
X215000Y213000
X225000Y221000
X235000Y221000
X245000Y221000
X235000Y202000
X225000Y202000
X215000Y202000
X205000Y202000
X205000Y192000
X288000Y192000
X298000Y192000
X298000Y182000
X288000Y182000
X288000Y172000
X298000Y172000
X298000Y162000
X288000Y162000
X288000Y152000
X298000Y152000
X298000Y142000
X288000Y142000
X288000Y132000
X298000Y132000
X298000Y202000
X288000Y202000
X288000Y212000
X298000Y212000
X298000Y222000
X288000Y222000
X397000Y277000
X407000Y277000
X417000Y277000
X427000Y277000
X437000Y277000
X447000Y277000
X447000Y308000
X437000Y308000
X427000Y308000
X417000Y308000
X407000Y308000
X397000Y308000
X404000Y198000
X398000Y179000
X419000Y173000
X419000Y163000
X419000Y153000
X404000Y164000
X419000Y143000
X419000Y133000
X419000Y123000
X419000Y113000
X419000Y103000
X401000Y84000
X401000Y74000
X401000Y64000
X401000Y54000
X401000Y44000
X401000Y34000
X454000Y129000
X454000Y139000
X454000Y149000
X454000Y159000
X54000Y111000
T07
X33937Y111118
X33937Y126866
X28622Y216614
X28622Y232362
X437937Y189866
X437937Y174118
T08
X429000Y84654
X429000Y41346
X180654Y26000
X137346Y26000
T09
X422000Y218000
X449000Y218000
T10
X48535Y26000
X115465Y26000
X383535Y292000
X450465Y292000
M30
