G75*
%MOIN*%
%OFA0B0*%
%FSLAX25Y25*%
%IPPOS*%
%LPD*%
%AMOC8*
5,1,8,0,0,1.08239X$1,22.5*
%
%ADD10C,0.00000*%
%ADD11R,0.01102X0.02795*%
%ADD12C,0.00551*%
%ADD13R,0.09449X0.06496*%
%ADD14R,0.08937X0.01102*%
%ADD15R,0.02756X0.01102*%
%ADD16R,0.00800X0.01600*%
%ADD17R,0.07000X0.03600*%
%ADD18R,0.04724X0.03150*%
%ADD19R,0.03150X0.04724*%
%ADD20R,0.03937X0.04331*%
%ADD21R,0.04331X0.03937*%
%ADD22C,0.04756*%
%ADD23C,0.09449*%
%ADD24R,0.04756X0.04756*%
%ADD25C,0.04724*%
%ADD26R,0.05118X0.05906*%
%ADD27R,0.06299X0.08661*%
%ADD28R,0.08661X0.02362*%
%ADD29R,0.01181X0.01772*%
%ADD30R,0.01772X0.01181*%
%ADD31OC8,0.07400*%
%ADD32R,0.02756X0.00984*%
%ADD33C,0.00096*%
%ADD34R,0.10236X0.05906*%
%ADD35R,0.03937X0.01181*%
%ADD36R,0.03200X0.01600*%
%ADD37R,0.09449X0.09449*%
%ADD38R,0.01969X0.01181*%
%ADD39R,0.00866X0.03937*%
%ADD40R,0.03937X0.00866*%
%ADD41C,0.01500*%
%ADD42R,0.03962X0.03962*%
%ADD43C,0.01200*%
%ADD44C,0.00800*%
%ADD45R,0.04600X0.04600*%
%ADD46R,0.06000X0.06000*%
%ADD47C,0.03962*%
%ADD48C,0.01000*%
%ADD49C,0.02000*%
%ADD50C,0.03000*%
%ADD51R,0.14000X0.14000*%
%ADD52R,0.03600X0.03600*%
D10*
X0001000Y0001000D02*
X0001000Y0314701D01*
X0460921Y0314701D01*
X0460921Y0001000D01*
X0001000Y0001000D01*
X0043023Y0026000D02*
X0043025Y0026148D01*
X0043031Y0026296D01*
X0043041Y0026444D01*
X0043055Y0026591D01*
X0043073Y0026738D01*
X0043094Y0026884D01*
X0043120Y0027030D01*
X0043150Y0027175D01*
X0043183Y0027319D01*
X0043221Y0027462D01*
X0043262Y0027604D01*
X0043307Y0027745D01*
X0043355Y0027885D01*
X0043408Y0028024D01*
X0043464Y0028161D01*
X0043524Y0028296D01*
X0043587Y0028430D01*
X0043654Y0028562D01*
X0043725Y0028692D01*
X0043799Y0028820D01*
X0043876Y0028946D01*
X0043957Y0029070D01*
X0044041Y0029192D01*
X0044128Y0029311D01*
X0044219Y0029428D01*
X0044313Y0029543D01*
X0044409Y0029655D01*
X0044509Y0029765D01*
X0044611Y0029871D01*
X0044717Y0029975D01*
X0044825Y0030076D01*
X0044936Y0030174D01*
X0045049Y0030270D01*
X0045165Y0030362D01*
X0045283Y0030451D01*
X0045404Y0030536D01*
X0045527Y0030619D01*
X0045652Y0030698D01*
X0045779Y0030774D01*
X0045908Y0030846D01*
X0046039Y0030915D01*
X0046172Y0030980D01*
X0046307Y0031041D01*
X0046443Y0031099D01*
X0046580Y0031154D01*
X0046719Y0031204D01*
X0046860Y0031251D01*
X0047001Y0031294D01*
X0047144Y0031334D01*
X0047288Y0031369D01*
X0047432Y0031401D01*
X0047578Y0031428D01*
X0047724Y0031452D01*
X0047871Y0031472D01*
X0048018Y0031488D01*
X0048165Y0031500D01*
X0048313Y0031508D01*
X0048461Y0031512D01*
X0048609Y0031512D01*
X0048757Y0031508D01*
X0048905Y0031500D01*
X0049052Y0031488D01*
X0049199Y0031472D01*
X0049346Y0031452D01*
X0049492Y0031428D01*
X0049638Y0031401D01*
X0049782Y0031369D01*
X0049926Y0031334D01*
X0050069Y0031294D01*
X0050210Y0031251D01*
X0050351Y0031204D01*
X0050490Y0031154D01*
X0050627Y0031099D01*
X0050763Y0031041D01*
X0050898Y0030980D01*
X0051031Y0030915D01*
X0051162Y0030846D01*
X0051291Y0030774D01*
X0051418Y0030698D01*
X0051543Y0030619D01*
X0051666Y0030536D01*
X0051787Y0030451D01*
X0051905Y0030362D01*
X0052021Y0030270D01*
X0052134Y0030174D01*
X0052245Y0030076D01*
X0052353Y0029975D01*
X0052459Y0029871D01*
X0052561Y0029765D01*
X0052661Y0029655D01*
X0052757Y0029543D01*
X0052851Y0029428D01*
X0052942Y0029311D01*
X0053029Y0029192D01*
X0053113Y0029070D01*
X0053194Y0028946D01*
X0053271Y0028820D01*
X0053345Y0028692D01*
X0053416Y0028562D01*
X0053483Y0028430D01*
X0053546Y0028296D01*
X0053606Y0028161D01*
X0053662Y0028024D01*
X0053715Y0027885D01*
X0053763Y0027745D01*
X0053808Y0027604D01*
X0053849Y0027462D01*
X0053887Y0027319D01*
X0053920Y0027175D01*
X0053950Y0027030D01*
X0053976Y0026884D01*
X0053997Y0026738D01*
X0054015Y0026591D01*
X0054029Y0026444D01*
X0054039Y0026296D01*
X0054045Y0026148D01*
X0054047Y0026000D01*
X0054045Y0025852D01*
X0054039Y0025704D01*
X0054029Y0025556D01*
X0054015Y0025409D01*
X0053997Y0025262D01*
X0053976Y0025116D01*
X0053950Y0024970D01*
X0053920Y0024825D01*
X0053887Y0024681D01*
X0053849Y0024538D01*
X0053808Y0024396D01*
X0053763Y0024255D01*
X0053715Y0024115D01*
X0053662Y0023976D01*
X0053606Y0023839D01*
X0053546Y0023704D01*
X0053483Y0023570D01*
X0053416Y0023438D01*
X0053345Y0023308D01*
X0053271Y0023180D01*
X0053194Y0023054D01*
X0053113Y0022930D01*
X0053029Y0022808D01*
X0052942Y0022689D01*
X0052851Y0022572D01*
X0052757Y0022457D01*
X0052661Y0022345D01*
X0052561Y0022235D01*
X0052459Y0022129D01*
X0052353Y0022025D01*
X0052245Y0021924D01*
X0052134Y0021826D01*
X0052021Y0021730D01*
X0051905Y0021638D01*
X0051787Y0021549D01*
X0051666Y0021464D01*
X0051543Y0021381D01*
X0051418Y0021302D01*
X0051291Y0021226D01*
X0051162Y0021154D01*
X0051031Y0021085D01*
X0050898Y0021020D01*
X0050763Y0020959D01*
X0050627Y0020901D01*
X0050490Y0020846D01*
X0050351Y0020796D01*
X0050210Y0020749D01*
X0050069Y0020706D01*
X0049926Y0020666D01*
X0049782Y0020631D01*
X0049638Y0020599D01*
X0049492Y0020572D01*
X0049346Y0020548D01*
X0049199Y0020528D01*
X0049052Y0020512D01*
X0048905Y0020500D01*
X0048757Y0020492D01*
X0048609Y0020488D01*
X0048461Y0020488D01*
X0048313Y0020492D01*
X0048165Y0020500D01*
X0048018Y0020512D01*
X0047871Y0020528D01*
X0047724Y0020548D01*
X0047578Y0020572D01*
X0047432Y0020599D01*
X0047288Y0020631D01*
X0047144Y0020666D01*
X0047001Y0020706D01*
X0046860Y0020749D01*
X0046719Y0020796D01*
X0046580Y0020846D01*
X0046443Y0020901D01*
X0046307Y0020959D01*
X0046172Y0021020D01*
X0046039Y0021085D01*
X0045908Y0021154D01*
X0045779Y0021226D01*
X0045652Y0021302D01*
X0045527Y0021381D01*
X0045404Y0021464D01*
X0045283Y0021549D01*
X0045165Y0021638D01*
X0045049Y0021730D01*
X0044936Y0021826D01*
X0044825Y0021924D01*
X0044717Y0022025D01*
X0044611Y0022129D01*
X0044509Y0022235D01*
X0044409Y0022345D01*
X0044313Y0022457D01*
X0044219Y0022572D01*
X0044128Y0022689D01*
X0044041Y0022808D01*
X0043957Y0022930D01*
X0043876Y0023054D01*
X0043799Y0023180D01*
X0043725Y0023308D01*
X0043654Y0023438D01*
X0043587Y0023570D01*
X0043524Y0023704D01*
X0043464Y0023839D01*
X0043408Y0023976D01*
X0043355Y0024115D01*
X0043307Y0024255D01*
X0043262Y0024396D01*
X0043221Y0024538D01*
X0043183Y0024681D01*
X0043150Y0024825D01*
X0043120Y0024970D01*
X0043094Y0025116D01*
X0043073Y0025262D01*
X0043055Y0025409D01*
X0043041Y0025556D01*
X0043031Y0025704D01*
X0043025Y0025852D01*
X0043023Y0026000D01*
X0109953Y0026000D02*
X0109955Y0026148D01*
X0109961Y0026296D01*
X0109971Y0026444D01*
X0109985Y0026591D01*
X0110003Y0026738D01*
X0110024Y0026884D01*
X0110050Y0027030D01*
X0110080Y0027175D01*
X0110113Y0027319D01*
X0110151Y0027462D01*
X0110192Y0027604D01*
X0110237Y0027745D01*
X0110285Y0027885D01*
X0110338Y0028024D01*
X0110394Y0028161D01*
X0110454Y0028296D01*
X0110517Y0028430D01*
X0110584Y0028562D01*
X0110655Y0028692D01*
X0110729Y0028820D01*
X0110806Y0028946D01*
X0110887Y0029070D01*
X0110971Y0029192D01*
X0111058Y0029311D01*
X0111149Y0029428D01*
X0111243Y0029543D01*
X0111339Y0029655D01*
X0111439Y0029765D01*
X0111541Y0029871D01*
X0111647Y0029975D01*
X0111755Y0030076D01*
X0111866Y0030174D01*
X0111979Y0030270D01*
X0112095Y0030362D01*
X0112213Y0030451D01*
X0112334Y0030536D01*
X0112457Y0030619D01*
X0112582Y0030698D01*
X0112709Y0030774D01*
X0112838Y0030846D01*
X0112969Y0030915D01*
X0113102Y0030980D01*
X0113237Y0031041D01*
X0113373Y0031099D01*
X0113510Y0031154D01*
X0113649Y0031204D01*
X0113790Y0031251D01*
X0113931Y0031294D01*
X0114074Y0031334D01*
X0114218Y0031369D01*
X0114362Y0031401D01*
X0114508Y0031428D01*
X0114654Y0031452D01*
X0114801Y0031472D01*
X0114948Y0031488D01*
X0115095Y0031500D01*
X0115243Y0031508D01*
X0115391Y0031512D01*
X0115539Y0031512D01*
X0115687Y0031508D01*
X0115835Y0031500D01*
X0115982Y0031488D01*
X0116129Y0031472D01*
X0116276Y0031452D01*
X0116422Y0031428D01*
X0116568Y0031401D01*
X0116712Y0031369D01*
X0116856Y0031334D01*
X0116999Y0031294D01*
X0117140Y0031251D01*
X0117281Y0031204D01*
X0117420Y0031154D01*
X0117557Y0031099D01*
X0117693Y0031041D01*
X0117828Y0030980D01*
X0117961Y0030915D01*
X0118092Y0030846D01*
X0118221Y0030774D01*
X0118348Y0030698D01*
X0118473Y0030619D01*
X0118596Y0030536D01*
X0118717Y0030451D01*
X0118835Y0030362D01*
X0118951Y0030270D01*
X0119064Y0030174D01*
X0119175Y0030076D01*
X0119283Y0029975D01*
X0119389Y0029871D01*
X0119491Y0029765D01*
X0119591Y0029655D01*
X0119687Y0029543D01*
X0119781Y0029428D01*
X0119872Y0029311D01*
X0119959Y0029192D01*
X0120043Y0029070D01*
X0120124Y0028946D01*
X0120201Y0028820D01*
X0120275Y0028692D01*
X0120346Y0028562D01*
X0120413Y0028430D01*
X0120476Y0028296D01*
X0120536Y0028161D01*
X0120592Y0028024D01*
X0120645Y0027885D01*
X0120693Y0027745D01*
X0120738Y0027604D01*
X0120779Y0027462D01*
X0120817Y0027319D01*
X0120850Y0027175D01*
X0120880Y0027030D01*
X0120906Y0026884D01*
X0120927Y0026738D01*
X0120945Y0026591D01*
X0120959Y0026444D01*
X0120969Y0026296D01*
X0120975Y0026148D01*
X0120977Y0026000D01*
X0120975Y0025852D01*
X0120969Y0025704D01*
X0120959Y0025556D01*
X0120945Y0025409D01*
X0120927Y0025262D01*
X0120906Y0025116D01*
X0120880Y0024970D01*
X0120850Y0024825D01*
X0120817Y0024681D01*
X0120779Y0024538D01*
X0120738Y0024396D01*
X0120693Y0024255D01*
X0120645Y0024115D01*
X0120592Y0023976D01*
X0120536Y0023839D01*
X0120476Y0023704D01*
X0120413Y0023570D01*
X0120346Y0023438D01*
X0120275Y0023308D01*
X0120201Y0023180D01*
X0120124Y0023054D01*
X0120043Y0022930D01*
X0119959Y0022808D01*
X0119872Y0022689D01*
X0119781Y0022572D01*
X0119687Y0022457D01*
X0119591Y0022345D01*
X0119491Y0022235D01*
X0119389Y0022129D01*
X0119283Y0022025D01*
X0119175Y0021924D01*
X0119064Y0021826D01*
X0118951Y0021730D01*
X0118835Y0021638D01*
X0118717Y0021549D01*
X0118596Y0021464D01*
X0118473Y0021381D01*
X0118348Y0021302D01*
X0118221Y0021226D01*
X0118092Y0021154D01*
X0117961Y0021085D01*
X0117828Y0021020D01*
X0117693Y0020959D01*
X0117557Y0020901D01*
X0117420Y0020846D01*
X0117281Y0020796D01*
X0117140Y0020749D01*
X0116999Y0020706D01*
X0116856Y0020666D01*
X0116712Y0020631D01*
X0116568Y0020599D01*
X0116422Y0020572D01*
X0116276Y0020548D01*
X0116129Y0020528D01*
X0115982Y0020512D01*
X0115835Y0020500D01*
X0115687Y0020492D01*
X0115539Y0020488D01*
X0115391Y0020488D01*
X0115243Y0020492D01*
X0115095Y0020500D01*
X0114948Y0020512D01*
X0114801Y0020528D01*
X0114654Y0020548D01*
X0114508Y0020572D01*
X0114362Y0020599D01*
X0114218Y0020631D01*
X0114074Y0020666D01*
X0113931Y0020706D01*
X0113790Y0020749D01*
X0113649Y0020796D01*
X0113510Y0020846D01*
X0113373Y0020901D01*
X0113237Y0020959D01*
X0113102Y0021020D01*
X0112969Y0021085D01*
X0112838Y0021154D01*
X0112709Y0021226D01*
X0112582Y0021302D01*
X0112457Y0021381D01*
X0112334Y0021464D01*
X0112213Y0021549D01*
X0112095Y0021638D01*
X0111979Y0021730D01*
X0111866Y0021826D01*
X0111755Y0021924D01*
X0111647Y0022025D01*
X0111541Y0022129D01*
X0111439Y0022235D01*
X0111339Y0022345D01*
X0111243Y0022457D01*
X0111149Y0022572D01*
X0111058Y0022689D01*
X0110971Y0022808D01*
X0110887Y0022930D01*
X0110806Y0023054D01*
X0110729Y0023180D01*
X0110655Y0023308D01*
X0110584Y0023438D01*
X0110517Y0023570D01*
X0110454Y0023704D01*
X0110394Y0023839D01*
X0110338Y0023976D01*
X0110285Y0024115D01*
X0110237Y0024255D01*
X0110192Y0024396D01*
X0110151Y0024538D01*
X0110113Y0024681D01*
X0110080Y0024825D01*
X0110050Y0024970D01*
X0110024Y0025116D01*
X0110003Y0025262D01*
X0109985Y0025409D01*
X0109971Y0025556D01*
X0109961Y0025704D01*
X0109955Y0025852D01*
X0109953Y0026000D01*
X0133015Y0026000D02*
X0133017Y0026131D01*
X0133023Y0026263D01*
X0133033Y0026394D01*
X0133047Y0026525D01*
X0133065Y0026655D01*
X0133087Y0026784D01*
X0133112Y0026913D01*
X0133142Y0027041D01*
X0133176Y0027168D01*
X0133213Y0027295D01*
X0133254Y0027419D01*
X0133299Y0027543D01*
X0133348Y0027665D01*
X0133400Y0027786D01*
X0133456Y0027904D01*
X0133516Y0028022D01*
X0133579Y0028137D01*
X0133646Y0028250D01*
X0133716Y0028362D01*
X0133789Y0028471D01*
X0133865Y0028577D01*
X0133945Y0028682D01*
X0134028Y0028784D01*
X0134114Y0028883D01*
X0134203Y0028980D01*
X0134295Y0029074D01*
X0134390Y0029165D01*
X0134487Y0029254D01*
X0134587Y0029339D01*
X0134690Y0029421D01*
X0134795Y0029500D01*
X0134902Y0029576D01*
X0135012Y0029648D01*
X0135124Y0029717D01*
X0135238Y0029783D01*
X0135353Y0029845D01*
X0135471Y0029904D01*
X0135590Y0029959D01*
X0135711Y0030011D01*
X0135834Y0030058D01*
X0135958Y0030102D01*
X0136083Y0030143D01*
X0136209Y0030179D01*
X0136337Y0030212D01*
X0136465Y0030240D01*
X0136594Y0030265D01*
X0136724Y0030286D01*
X0136854Y0030303D01*
X0136985Y0030316D01*
X0137116Y0030325D01*
X0137247Y0030330D01*
X0137379Y0030331D01*
X0137510Y0030328D01*
X0137642Y0030321D01*
X0137773Y0030310D01*
X0137903Y0030295D01*
X0138033Y0030276D01*
X0138163Y0030253D01*
X0138291Y0030227D01*
X0138419Y0030196D01*
X0138546Y0030161D01*
X0138672Y0030123D01*
X0138796Y0030081D01*
X0138920Y0030035D01*
X0139041Y0029985D01*
X0139161Y0029932D01*
X0139280Y0029875D01*
X0139397Y0029815D01*
X0139511Y0029751D01*
X0139624Y0029683D01*
X0139735Y0029612D01*
X0139844Y0029538D01*
X0139950Y0029461D01*
X0140054Y0029380D01*
X0140155Y0029297D01*
X0140254Y0029210D01*
X0140350Y0029120D01*
X0140443Y0029027D01*
X0140534Y0028932D01*
X0140621Y0028834D01*
X0140706Y0028733D01*
X0140787Y0028630D01*
X0140865Y0028524D01*
X0140940Y0028416D01*
X0141012Y0028306D01*
X0141080Y0028194D01*
X0141145Y0028080D01*
X0141206Y0027963D01*
X0141264Y0027845D01*
X0141318Y0027725D01*
X0141369Y0027604D01*
X0141416Y0027481D01*
X0141459Y0027357D01*
X0141498Y0027232D01*
X0141534Y0027105D01*
X0141565Y0026977D01*
X0141593Y0026849D01*
X0141617Y0026720D01*
X0141637Y0026590D01*
X0141653Y0026459D01*
X0141665Y0026328D01*
X0141673Y0026197D01*
X0141677Y0026066D01*
X0141677Y0025934D01*
X0141673Y0025803D01*
X0141665Y0025672D01*
X0141653Y0025541D01*
X0141637Y0025410D01*
X0141617Y0025280D01*
X0141593Y0025151D01*
X0141565Y0025023D01*
X0141534Y0024895D01*
X0141498Y0024768D01*
X0141459Y0024643D01*
X0141416Y0024519D01*
X0141369Y0024396D01*
X0141318Y0024275D01*
X0141264Y0024155D01*
X0141206Y0024037D01*
X0141145Y0023920D01*
X0141080Y0023806D01*
X0141012Y0023694D01*
X0140940Y0023584D01*
X0140865Y0023476D01*
X0140787Y0023370D01*
X0140706Y0023267D01*
X0140621Y0023166D01*
X0140534Y0023068D01*
X0140443Y0022973D01*
X0140350Y0022880D01*
X0140254Y0022790D01*
X0140155Y0022703D01*
X0140054Y0022620D01*
X0139950Y0022539D01*
X0139844Y0022462D01*
X0139735Y0022388D01*
X0139624Y0022317D01*
X0139512Y0022249D01*
X0139397Y0022185D01*
X0139280Y0022125D01*
X0139161Y0022068D01*
X0139041Y0022015D01*
X0138920Y0021965D01*
X0138796Y0021919D01*
X0138672Y0021877D01*
X0138546Y0021839D01*
X0138419Y0021804D01*
X0138291Y0021773D01*
X0138163Y0021747D01*
X0138033Y0021724D01*
X0137903Y0021705D01*
X0137773Y0021690D01*
X0137642Y0021679D01*
X0137510Y0021672D01*
X0137379Y0021669D01*
X0137247Y0021670D01*
X0137116Y0021675D01*
X0136985Y0021684D01*
X0136854Y0021697D01*
X0136724Y0021714D01*
X0136594Y0021735D01*
X0136465Y0021760D01*
X0136337Y0021788D01*
X0136209Y0021821D01*
X0136083Y0021857D01*
X0135958Y0021898D01*
X0135834Y0021942D01*
X0135711Y0021989D01*
X0135590Y0022041D01*
X0135471Y0022096D01*
X0135353Y0022155D01*
X0135238Y0022217D01*
X0135124Y0022283D01*
X0135012Y0022352D01*
X0134902Y0022424D01*
X0134795Y0022500D01*
X0134690Y0022579D01*
X0134587Y0022661D01*
X0134487Y0022746D01*
X0134390Y0022835D01*
X0134295Y0022926D01*
X0134203Y0023020D01*
X0134114Y0023117D01*
X0134028Y0023216D01*
X0133945Y0023318D01*
X0133865Y0023423D01*
X0133789Y0023529D01*
X0133716Y0023638D01*
X0133646Y0023750D01*
X0133579Y0023863D01*
X0133516Y0023978D01*
X0133456Y0024096D01*
X0133400Y0024214D01*
X0133348Y0024335D01*
X0133299Y0024457D01*
X0133254Y0024581D01*
X0133213Y0024705D01*
X0133176Y0024832D01*
X0133142Y0024959D01*
X0133112Y0025087D01*
X0133087Y0025216D01*
X0133065Y0025345D01*
X0133047Y0025475D01*
X0133033Y0025606D01*
X0133023Y0025737D01*
X0133017Y0025869D01*
X0133015Y0026000D01*
X0176323Y0026000D02*
X0176325Y0026131D01*
X0176331Y0026263D01*
X0176341Y0026394D01*
X0176355Y0026525D01*
X0176373Y0026655D01*
X0176395Y0026784D01*
X0176420Y0026913D01*
X0176450Y0027041D01*
X0176484Y0027168D01*
X0176521Y0027295D01*
X0176562Y0027419D01*
X0176607Y0027543D01*
X0176656Y0027665D01*
X0176708Y0027786D01*
X0176764Y0027904D01*
X0176824Y0028022D01*
X0176887Y0028137D01*
X0176954Y0028250D01*
X0177024Y0028362D01*
X0177097Y0028471D01*
X0177173Y0028577D01*
X0177253Y0028682D01*
X0177336Y0028784D01*
X0177422Y0028883D01*
X0177511Y0028980D01*
X0177603Y0029074D01*
X0177698Y0029165D01*
X0177795Y0029254D01*
X0177895Y0029339D01*
X0177998Y0029421D01*
X0178103Y0029500D01*
X0178210Y0029576D01*
X0178320Y0029648D01*
X0178432Y0029717D01*
X0178546Y0029783D01*
X0178661Y0029845D01*
X0178779Y0029904D01*
X0178898Y0029959D01*
X0179019Y0030011D01*
X0179142Y0030058D01*
X0179266Y0030102D01*
X0179391Y0030143D01*
X0179517Y0030179D01*
X0179645Y0030212D01*
X0179773Y0030240D01*
X0179902Y0030265D01*
X0180032Y0030286D01*
X0180162Y0030303D01*
X0180293Y0030316D01*
X0180424Y0030325D01*
X0180555Y0030330D01*
X0180687Y0030331D01*
X0180818Y0030328D01*
X0180950Y0030321D01*
X0181081Y0030310D01*
X0181211Y0030295D01*
X0181341Y0030276D01*
X0181471Y0030253D01*
X0181599Y0030227D01*
X0181727Y0030196D01*
X0181854Y0030161D01*
X0181980Y0030123D01*
X0182104Y0030081D01*
X0182228Y0030035D01*
X0182349Y0029985D01*
X0182469Y0029932D01*
X0182588Y0029875D01*
X0182705Y0029815D01*
X0182819Y0029751D01*
X0182932Y0029683D01*
X0183043Y0029612D01*
X0183152Y0029538D01*
X0183258Y0029461D01*
X0183362Y0029380D01*
X0183463Y0029297D01*
X0183562Y0029210D01*
X0183658Y0029120D01*
X0183751Y0029027D01*
X0183842Y0028932D01*
X0183929Y0028834D01*
X0184014Y0028733D01*
X0184095Y0028630D01*
X0184173Y0028524D01*
X0184248Y0028416D01*
X0184320Y0028306D01*
X0184388Y0028194D01*
X0184453Y0028080D01*
X0184514Y0027963D01*
X0184572Y0027845D01*
X0184626Y0027725D01*
X0184677Y0027604D01*
X0184724Y0027481D01*
X0184767Y0027357D01*
X0184806Y0027232D01*
X0184842Y0027105D01*
X0184873Y0026977D01*
X0184901Y0026849D01*
X0184925Y0026720D01*
X0184945Y0026590D01*
X0184961Y0026459D01*
X0184973Y0026328D01*
X0184981Y0026197D01*
X0184985Y0026066D01*
X0184985Y0025934D01*
X0184981Y0025803D01*
X0184973Y0025672D01*
X0184961Y0025541D01*
X0184945Y0025410D01*
X0184925Y0025280D01*
X0184901Y0025151D01*
X0184873Y0025023D01*
X0184842Y0024895D01*
X0184806Y0024768D01*
X0184767Y0024643D01*
X0184724Y0024519D01*
X0184677Y0024396D01*
X0184626Y0024275D01*
X0184572Y0024155D01*
X0184514Y0024037D01*
X0184453Y0023920D01*
X0184388Y0023806D01*
X0184320Y0023694D01*
X0184248Y0023584D01*
X0184173Y0023476D01*
X0184095Y0023370D01*
X0184014Y0023267D01*
X0183929Y0023166D01*
X0183842Y0023068D01*
X0183751Y0022973D01*
X0183658Y0022880D01*
X0183562Y0022790D01*
X0183463Y0022703D01*
X0183362Y0022620D01*
X0183258Y0022539D01*
X0183152Y0022462D01*
X0183043Y0022388D01*
X0182932Y0022317D01*
X0182820Y0022249D01*
X0182705Y0022185D01*
X0182588Y0022125D01*
X0182469Y0022068D01*
X0182349Y0022015D01*
X0182228Y0021965D01*
X0182104Y0021919D01*
X0181980Y0021877D01*
X0181854Y0021839D01*
X0181727Y0021804D01*
X0181599Y0021773D01*
X0181471Y0021747D01*
X0181341Y0021724D01*
X0181211Y0021705D01*
X0181081Y0021690D01*
X0180950Y0021679D01*
X0180818Y0021672D01*
X0180687Y0021669D01*
X0180555Y0021670D01*
X0180424Y0021675D01*
X0180293Y0021684D01*
X0180162Y0021697D01*
X0180032Y0021714D01*
X0179902Y0021735D01*
X0179773Y0021760D01*
X0179645Y0021788D01*
X0179517Y0021821D01*
X0179391Y0021857D01*
X0179266Y0021898D01*
X0179142Y0021942D01*
X0179019Y0021989D01*
X0178898Y0022041D01*
X0178779Y0022096D01*
X0178661Y0022155D01*
X0178546Y0022217D01*
X0178432Y0022283D01*
X0178320Y0022352D01*
X0178210Y0022424D01*
X0178103Y0022500D01*
X0177998Y0022579D01*
X0177895Y0022661D01*
X0177795Y0022746D01*
X0177698Y0022835D01*
X0177603Y0022926D01*
X0177511Y0023020D01*
X0177422Y0023117D01*
X0177336Y0023216D01*
X0177253Y0023318D01*
X0177173Y0023423D01*
X0177097Y0023529D01*
X0177024Y0023638D01*
X0176954Y0023750D01*
X0176887Y0023863D01*
X0176824Y0023978D01*
X0176764Y0024096D01*
X0176708Y0024214D01*
X0176656Y0024335D01*
X0176607Y0024457D01*
X0176562Y0024581D01*
X0176521Y0024705D01*
X0176484Y0024832D01*
X0176450Y0024959D01*
X0176420Y0025087D01*
X0176395Y0025216D01*
X0176373Y0025345D01*
X0176355Y0025475D01*
X0176341Y0025606D01*
X0176331Y0025737D01*
X0176325Y0025869D01*
X0176323Y0026000D01*
X0424669Y0041346D02*
X0424671Y0041477D01*
X0424677Y0041609D01*
X0424687Y0041740D01*
X0424701Y0041871D01*
X0424719Y0042001D01*
X0424741Y0042130D01*
X0424766Y0042259D01*
X0424796Y0042387D01*
X0424830Y0042514D01*
X0424867Y0042641D01*
X0424908Y0042765D01*
X0424953Y0042889D01*
X0425002Y0043011D01*
X0425054Y0043132D01*
X0425110Y0043250D01*
X0425170Y0043368D01*
X0425233Y0043483D01*
X0425300Y0043596D01*
X0425370Y0043708D01*
X0425443Y0043817D01*
X0425519Y0043923D01*
X0425599Y0044028D01*
X0425682Y0044130D01*
X0425768Y0044229D01*
X0425857Y0044326D01*
X0425949Y0044420D01*
X0426044Y0044511D01*
X0426141Y0044600D01*
X0426241Y0044685D01*
X0426344Y0044767D01*
X0426449Y0044846D01*
X0426556Y0044922D01*
X0426666Y0044994D01*
X0426778Y0045063D01*
X0426892Y0045129D01*
X0427007Y0045191D01*
X0427125Y0045250D01*
X0427244Y0045305D01*
X0427365Y0045357D01*
X0427488Y0045404D01*
X0427612Y0045448D01*
X0427737Y0045489D01*
X0427863Y0045525D01*
X0427991Y0045558D01*
X0428119Y0045586D01*
X0428248Y0045611D01*
X0428378Y0045632D01*
X0428508Y0045649D01*
X0428639Y0045662D01*
X0428770Y0045671D01*
X0428901Y0045676D01*
X0429033Y0045677D01*
X0429164Y0045674D01*
X0429296Y0045667D01*
X0429427Y0045656D01*
X0429557Y0045641D01*
X0429687Y0045622D01*
X0429817Y0045599D01*
X0429945Y0045573D01*
X0430073Y0045542D01*
X0430200Y0045507D01*
X0430326Y0045469D01*
X0430450Y0045427D01*
X0430574Y0045381D01*
X0430695Y0045331D01*
X0430815Y0045278D01*
X0430934Y0045221D01*
X0431051Y0045161D01*
X0431165Y0045097D01*
X0431278Y0045029D01*
X0431389Y0044958D01*
X0431498Y0044884D01*
X0431604Y0044807D01*
X0431708Y0044726D01*
X0431809Y0044643D01*
X0431908Y0044556D01*
X0432004Y0044466D01*
X0432097Y0044373D01*
X0432188Y0044278D01*
X0432275Y0044180D01*
X0432360Y0044079D01*
X0432441Y0043976D01*
X0432519Y0043870D01*
X0432594Y0043762D01*
X0432666Y0043652D01*
X0432734Y0043540D01*
X0432799Y0043426D01*
X0432860Y0043309D01*
X0432918Y0043191D01*
X0432972Y0043071D01*
X0433023Y0042950D01*
X0433070Y0042827D01*
X0433113Y0042703D01*
X0433152Y0042578D01*
X0433188Y0042451D01*
X0433219Y0042323D01*
X0433247Y0042195D01*
X0433271Y0042066D01*
X0433291Y0041936D01*
X0433307Y0041805D01*
X0433319Y0041674D01*
X0433327Y0041543D01*
X0433331Y0041412D01*
X0433331Y0041280D01*
X0433327Y0041149D01*
X0433319Y0041018D01*
X0433307Y0040887D01*
X0433291Y0040756D01*
X0433271Y0040626D01*
X0433247Y0040497D01*
X0433219Y0040369D01*
X0433188Y0040241D01*
X0433152Y0040114D01*
X0433113Y0039989D01*
X0433070Y0039865D01*
X0433023Y0039742D01*
X0432972Y0039621D01*
X0432918Y0039501D01*
X0432860Y0039383D01*
X0432799Y0039266D01*
X0432734Y0039152D01*
X0432666Y0039040D01*
X0432594Y0038930D01*
X0432519Y0038822D01*
X0432441Y0038716D01*
X0432360Y0038613D01*
X0432275Y0038512D01*
X0432188Y0038414D01*
X0432097Y0038319D01*
X0432004Y0038226D01*
X0431908Y0038136D01*
X0431809Y0038049D01*
X0431708Y0037966D01*
X0431604Y0037885D01*
X0431498Y0037808D01*
X0431389Y0037734D01*
X0431278Y0037663D01*
X0431166Y0037595D01*
X0431051Y0037531D01*
X0430934Y0037471D01*
X0430815Y0037414D01*
X0430695Y0037361D01*
X0430574Y0037311D01*
X0430450Y0037265D01*
X0430326Y0037223D01*
X0430200Y0037185D01*
X0430073Y0037150D01*
X0429945Y0037119D01*
X0429817Y0037093D01*
X0429687Y0037070D01*
X0429557Y0037051D01*
X0429427Y0037036D01*
X0429296Y0037025D01*
X0429164Y0037018D01*
X0429033Y0037015D01*
X0428901Y0037016D01*
X0428770Y0037021D01*
X0428639Y0037030D01*
X0428508Y0037043D01*
X0428378Y0037060D01*
X0428248Y0037081D01*
X0428119Y0037106D01*
X0427991Y0037134D01*
X0427863Y0037167D01*
X0427737Y0037203D01*
X0427612Y0037244D01*
X0427488Y0037288D01*
X0427365Y0037335D01*
X0427244Y0037387D01*
X0427125Y0037442D01*
X0427007Y0037501D01*
X0426892Y0037563D01*
X0426778Y0037629D01*
X0426666Y0037698D01*
X0426556Y0037770D01*
X0426449Y0037846D01*
X0426344Y0037925D01*
X0426241Y0038007D01*
X0426141Y0038092D01*
X0426044Y0038181D01*
X0425949Y0038272D01*
X0425857Y0038366D01*
X0425768Y0038463D01*
X0425682Y0038562D01*
X0425599Y0038664D01*
X0425519Y0038769D01*
X0425443Y0038875D01*
X0425370Y0038984D01*
X0425300Y0039096D01*
X0425233Y0039209D01*
X0425170Y0039324D01*
X0425110Y0039442D01*
X0425054Y0039560D01*
X0425002Y0039681D01*
X0424953Y0039803D01*
X0424908Y0039927D01*
X0424867Y0040051D01*
X0424830Y0040178D01*
X0424796Y0040305D01*
X0424766Y0040433D01*
X0424741Y0040562D01*
X0424719Y0040691D01*
X0424701Y0040821D01*
X0424687Y0040952D01*
X0424677Y0041083D01*
X0424671Y0041215D01*
X0424669Y0041346D01*
X0424669Y0084654D02*
X0424671Y0084785D01*
X0424677Y0084917D01*
X0424687Y0085048D01*
X0424701Y0085179D01*
X0424719Y0085309D01*
X0424741Y0085438D01*
X0424766Y0085567D01*
X0424796Y0085695D01*
X0424830Y0085822D01*
X0424867Y0085949D01*
X0424908Y0086073D01*
X0424953Y0086197D01*
X0425002Y0086319D01*
X0425054Y0086440D01*
X0425110Y0086558D01*
X0425170Y0086676D01*
X0425233Y0086791D01*
X0425300Y0086904D01*
X0425370Y0087016D01*
X0425443Y0087125D01*
X0425519Y0087231D01*
X0425599Y0087336D01*
X0425682Y0087438D01*
X0425768Y0087537D01*
X0425857Y0087634D01*
X0425949Y0087728D01*
X0426044Y0087819D01*
X0426141Y0087908D01*
X0426241Y0087993D01*
X0426344Y0088075D01*
X0426449Y0088154D01*
X0426556Y0088230D01*
X0426666Y0088302D01*
X0426778Y0088371D01*
X0426892Y0088437D01*
X0427007Y0088499D01*
X0427125Y0088558D01*
X0427244Y0088613D01*
X0427365Y0088665D01*
X0427488Y0088712D01*
X0427612Y0088756D01*
X0427737Y0088797D01*
X0427863Y0088833D01*
X0427991Y0088866D01*
X0428119Y0088894D01*
X0428248Y0088919D01*
X0428378Y0088940D01*
X0428508Y0088957D01*
X0428639Y0088970D01*
X0428770Y0088979D01*
X0428901Y0088984D01*
X0429033Y0088985D01*
X0429164Y0088982D01*
X0429296Y0088975D01*
X0429427Y0088964D01*
X0429557Y0088949D01*
X0429687Y0088930D01*
X0429817Y0088907D01*
X0429945Y0088881D01*
X0430073Y0088850D01*
X0430200Y0088815D01*
X0430326Y0088777D01*
X0430450Y0088735D01*
X0430574Y0088689D01*
X0430695Y0088639D01*
X0430815Y0088586D01*
X0430934Y0088529D01*
X0431051Y0088469D01*
X0431165Y0088405D01*
X0431278Y0088337D01*
X0431389Y0088266D01*
X0431498Y0088192D01*
X0431604Y0088115D01*
X0431708Y0088034D01*
X0431809Y0087951D01*
X0431908Y0087864D01*
X0432004Y0087774D01*
X0432097Y0087681D01*
X0432188Y0087586D01*
X0432275Y0087488D01*
X0432360Y0087387D01*
X0432441Y0087284D01*
X0432519Y0087178D01*
X0432594Y0087070D01*
X0432666Y0086960D01*
X0432734Y0086848D01*
X0432799Y0086734D01*
X0432860Y0086617D01*
X0432918Y0086499D01*
X0432972Y0086379D01*
X0433023Y0086258D01*
X0433070Y0086135D01*
X0433113Y0086011D01*
X0433152Y0085886D01*
X0433188Y0085759D01*
X0433219Y0085631D01*
X0433247Y0085503D01*
X0433271Y0085374D01*
X0433291Y0085244D01*
X0433307Y0085113D01*
X0433319Y0084982D01*
X0433327Y0084851D01*
X0433331Y0084720D01*
X0433331Y0084588D01*
X0433327Y0084457D01*
X0433319Y0084326D01*
X0433307Y0084195D01*
X0433291Y0084064D01*
X0433271Y0083934D01*
X0433247Y0083805D01*
X0433219Y0083677D01*
X0433188Y0083549D01*
X0433152Y0083422D01*
X0433113Y0083297D01*
X0433070Y0083173D01*
X0433023Y0083050D01*
X0432972Y0082929D01*
X0432918Y0082809D01*
X0432860Y0082691D01*
X0432799Y0082574D01*
X0432734Y0082460D01*
X0432666Y0082348D01*
X0432594Y0082238D01*
X0432519Y0082130D01*
X0432441Y0082024D01*
X0432360Y0081921D01*
X0432275Y0081820D01*
X0432188Y0081722D01*
X0432097Y0081627D01*
X0432004Y0081534D01*
X0431908Y0081444D01*
X0431809Y0081357D01*
X0431708Y0081274D01*
X0431604Y0081193D01*
X0431498Y0081116D01*
X0431389Y0081042D01*
X0431278Y0080971D01*
X0431166Y0080903D01*
X0431051Y0080839D01*
X0430934Y0080779D01*
X0430815Y0080722D01*
X0430695Y0080669D01*
X0430574Y0080619D01*
X0430450Y0080573D01*
X0430326Y0080531D01*
X0430200Y0080493D01*
X0430073Y0080458D01*
X0429945Y0080427D01*
X0429817Y0080401D01*
X0429687Y0080378D01*
X0429557Y0080359D01*
X0429427Y0080344D01*
X0429296Y0080333D01*
X0429164Y0080326D01*
X0429033Y0080323D01*
X0428901Y0080324D01*
X0428770Y0080329D01*
X0428639Y0080338D01*
X0428508Y0080351D01*
X0428378Y0080368D01*
X0428248Y0080389D01*
X0428119Y0080414D01*
X0427991Y0080442D01*
X0427863Y0080475D01*
X0427737Y0080511D01*
X0427612Y0080552D01*
X0427488Y0080596D01*
X0427365Y0080643D01*
X0427244Y0080695D01*
X0427125Y0080750D01*
X0427007Y0080809D01*
X0426892Y0080871D01*
X0426778Y0080937D01*
X0426666Y0081006D01*
X0426556Y0081078D01*
X0426449Y0081154D01*
X0426344Y0081233D01*
X0426241Y0081315D01*
X0426141Y0081400D01*
X0426044Y0081489D01*
X0425949Y0081580D01*
X0425857Y0081674D01*
X0425768Y0081771D01*
X0425682Y0081870D01*
X0425599Y0081972D01*
X0425519Y0082077D01*
X0425443Y0082183D01*
X0425370Y0082292D01*
X0425300Y0082404D01*
X0425233Y0082517D01*
X0425170Y0082632D01*
X0425110Y0082750D01*
X0425054Y0082868D01*
X0425002Y0082989D01*
X0424953Y0083111D01*
X0424908Y0083235D01*
X0424867Y0083359D01*
X0424830Y0083486D01*
X0424796Y0083613D01*
X0424766Y0083741D01*
X0424741Y0083870D01*
X0424719Y0083999D01*
X0424701Y0084129D01*
X0424687Y0084260D01*
X0424677Y0084391D01*
X0424671Y0084523D01*
X0424669Y0084654D01*
X0444953Y0292000D02*
X0444955Y0292148D01*
X0444961Y0292296D01*
X0444971Y0292444D01*
X0444985Y0292591D01*
X0445003Y0292738D01*
X0445024Y0292884D01*
X0445050Y0293030D01*
X0445080Y0293175D01*
X0445113Y0293319D01*
X0445151Y0293462D01*
X0445192Y0293604D01*
X0445237Y0293745D01*
X0445285Y0293885D01*
X0445338Y0294024D01*
X0445394Y0294161D01*
X0445454Y0294296D01*
X0445517Y0294430D01*
X0445584Y0294562D01*
X0445655Y0294692D01*
X0445729Y0294820D01*
X0445806Y0294946D01*
X0445887Y0295070D01*
X0445971Y0295192D01*
X0446058Y0295311D01*
X0446149Y0295428D01*
X0446243Y0295543D01*
X0446339Y0295655D01*
X0446439Y0295765D01*
X0446541Y0295871D01*
X0446647Y0295975D01*
X0446755Y0296076D01*
X0446866Y0296174D01*
X0446979Y0296270D01*
X0447095Y0296362D01*
X0447213Y0296451D01*
X0447334Y0296536D01*
X0447457Y0296619D01*
X0447582Y0296698D01*
X0447709Y0296774D01*
X0447838Y0296846D01*
X0447969Y0296915D01*
X0448102Y0296980D01*
X0448237Y0297041D01*
X0448373Y0297099D01*
X0448510Y0297154D01*
X0448649Y0297204D01*
X0448790Y0297251D01*
X0448931Y0297294D01*
X0449074Y0297334D01*
X0449218Y0297369D01*
X0449362Y0297401D01*
X0449508Y0297428D01*
X0449654Y0297452D01*
X0449801Y0297472D01*
X0449948Y0297488D01*
X0450095Y0297500D01*
X0450243Y0297508D01*
X0450391Y0297512D01*
X0450539Y0297512D01*
X0450687Y0297508D01*
X0450835Y0297500D01*
X0450982Y0297488D01*
X0451129Y0297472D01*
X0451276Y0297452D01*
X0451422Y0297428D01*
X0451568Y0297401D01*
X0451712Y0297369D01*
X0451856Y0297334D01*
X0451999Y0297294D01*
X0452140Y0297251D01*
X0452281Y0297204D01*
X0452420Y0297154D01*
X0452557Y0297099D01*
X0452693Y0297041D01*
X0452828Y0296980D01*
X0452961Y0296915D01*
X0453092Y0296846D01*
X0453221Y0296774D01*
X0453348Y0296698D01*
X0453473Y0296619D01*
X0453596Y0296536D01*
X0453717Y0296451D01*
X0453835Y0296362D01*
X0453951Y0296270D01*
X0454064Y0296174D01*
X0454175Y0296076D01*
X0454283Y0295975D01*
X0454389Y0295871D01*
X0454491Y0295765D01*
X0454591Y0295655D01*
X0454687Y0295543D01*
X0454781Y0295428D01*
X0454872Y0295311D01*
X0454959Y0295192D01*
X0455043Y0295070D01*
X0455124Y0294946D01*
X0455201Y0294820D01*
X0455275Y0294692D01*
X0455346Y0294562D01*
X0455413Y0294430D01*
X0455476Y0294296D01*
X0455536Y0294161D01*
X0455592Y0294024D01*
X0455645Y0293885D01*
X0455693Y0293745D01*
X0455738Y0293604D01*
X0455779Y0293462D01*
X0455817Y0293319D01*
X0455850Y0293175D01*
X0455880Y0293030D01*
X0455906Y0292884D01*
X0455927Y0292738D01*
X0455945Y0292591D01*
X0455959Y0292444D01*
X0455969Y0292296D01*
X0455975Y0292148D01*
X0455977Y0292000D01*
X0455975Y0291852D01*
X0455969Y0291704D01*
X0455959Y0291556D01*
X0455945Y0291409D01*
X0455927Y0291262D01*
X0455906Y0291116D01*
X0455880Y0290970D01*
X0455850Y0290825D01*
X0455817Y0290681D01*
X0455779Y0290538D01*
X0455738Y0290396D01*
X0455693Y0290255D01*
X0455645Y0290115D01*
X0455592Y0289976D01*
X0455536Y0289839D01*
X0455476Y0289704D01*
X0455413Y0289570D01*
X0455346Y0289438D01*
X0455275Y0289308D01*
X0455201Y0289180D01*
X0455124Y0289054D01*
X0455043Y0288930D01*
X0454959Y0288808D01*
X0454872Y0288689D01*
X0454781Y0288572D01*
X0454687Y0288457D01*
X0454591Y0288345D01*
X0454491Y0288235D01*
X0454389Y0288129D01*
X0454283Y0288025D01*
X0454175Y0287924D01*
X0454064Y0287826D01*
X0453951Y0287730D01*
X0453835Y0287638D01*
X0453717Y0287549D01*
X0453596Y0287464D01*
X0453473Y0287381D01*
X0453348Y0287302D01*
X0453221Y0287226D01*
X0453092Y0287154D01*
X0452961Y0287085D01*
X0452828Y0287020D01*
X0452693Y0286959D01*
X0452557Y0286901D01*
X0452420Y0286846D01*
X0452281Y0286796D01*
X0452140Y0286749D01*
X0451999Y0286706D01*
X0451856Y0286666D01*
X0451712Y0286631D01*
X0451568Y0286599D01*
X0451422Y0286572D01*
X0451276Y0286548D01*
X0451129Y0286528D01*
X0450982Y0286512D01*
X0450835Y0286500D01*
X0450687Y0286492D01*
X0450539Y0286488D01*
X0450391Y0286488D01*
X0450243Y0286492D01*
X0450095Y0286500D01*
X0449948Y0286512D01*
X0449801Y0286528D01*
X0449654Y0286548D01*
X0449508Y0286572D01*
X0449362Y0286599D01*
X0449218Y0286631D01*
X0449074Y0286666D01*
X0448931Y0286706D01*
X0448790Y0286749D01*
X0448649Y0286796D01*
X0448510Y0286846D01*
X0448373Y0286901D01*
X0448237Y0286959D01*
X0448102Y0287020D01*
X0447969Y0287085D01*
X0447838Y0287154D01*
X0447709Y0287226D01*
X0447582Y0287302D01*
X0447457Y0287381D01*
X0447334Y0287464D01*
X0447213Y0287549D01*
X0447095Y0287638D01*
X0446979Y0287730D01*
X0446866Y0287826D01*
X0446755Y0287924D01*
X0446647Y0288025D01*
X0446541Y0288129D01*
X0446439Y0288235D01*
X0446339Y0288345D01*
X0446243Y0288457D01*
X0446149Y0288572D01*
X0446058Y0288689D01*
X0445971Y0288808D01*
X0445887Y0288930D01*
X0445806Y0289054D01*
X0445729Y0289180D01*
X0445655Y0289308D01*
X0445584Y0289438D01*
X0445517Y0289570D01*
X0445454Y0289704D01*
X0445394Y0289839D01*
X0445338Y0289976D01*
X0445285Y0290115D01*
X0445237Y0290255D01*
X0445192Y0290396D01*
X0445151Y0290538D01*
X0445113Y0290681D01*
X0445080Y0290825D01*
X0445050Y0290970D01*
X0445024Y0291116D01*
X0445003Y0291262D01*
X0444985Y0291409D01*
X0444971Y0291556D01*
X0444961Y0291704D01*
X0444955Y0291852D01*
X0444953Y0292000D01*
X0378023Y0292000D02*
X0378025Y0292148D01*
X0378031Y0292296D01*
X0378041Y0292444D01*
X0378055Y0292591D01*
X0378073Y0292738D01*
X0378094Y0292884D01*
X0378120Y0293030D01*
X0378150Y0293175D01*
X0378183Y0293319D01*
X0378221Y0293462D01*
X0378262Y0293604D01*
X0378307Y0293745D01*
X0378355Y0293885D01*
X0378408Y0294024D01*
X0378464Y0294161D01*
X0378524Y0294296D01*
X0378587Y0294430D01*
X0378654Y0294562D01*
X0378725Y0294692D01*
X0378799Y0294820D01*
X0378876Y0294946D01*
X0378957Y0295070D01*
X0379041Y0295192D01*
X0379128Y0295311D01*
X0379219Y0295428D01*
X0379313Y0295543D01*
X0379409Y0295655D01*
X0379509Y0295765D01*
X0379611Y0295871D01*
X0379717Y0295975D01*
X0379825Y0296076D01*
X0379936Y0296174D01*
X0380049Y0296270D01*
X0380165Y0296362D01*
X0380283Y0296451D01*
X0380404Y0296536D01*
X0380527Y0296619D01*
X0380652Y0296698D01*
X0380779Y0296774D01*
X0380908Y0296846D01*
X0381039Y0296915D01*
X0381172Y0296980D01*
X0381307Y0297041D01*
X0381443Y0297099D01*
X0381580Y0297154D01*
X0381719Y0297204D01*
X0381860Y0297251D01*
X0382001Y0297294D01*
X0382144Y0297334D01*
X0382288Y0297369D01*
X0382432Y0297401D01*
X0382578Y0297428D01*
X0382724Y0297452D01*
X0382871Y0297472D01*
X0383018Y0297488D01*
X0383165Y0297500D01*
X0383313Y0297508D01*
X0383461Y0297512D01*
X0383609Y0297512D01*
X0383757Y0297508D01*
X0383905Y0297500D01*
X0384052Y0297488D01*
X0384199Y0297472D01*
X0384346Y0297452D01*
X0384492Y0297428D01*
X0384638Y0297401D01*
X0384782Y0297369D01*
X0384926Y0297334D01*
X0385069Y0297294D01*
X0385210Y0297251D01*
X0385351Y0297204D01*
X0385490Y0297154D01*
X0385627Y0297099D01*
X0385763Y0297041D01*
X0385898Y0296980D01*
X0386031Y0296915D01*
X0386162Y0296846D01*
X0386291Y0296774D01*
X0386418Y0296698D01*
X0386543Y0296619D01*
X0386666Y0296536D01*
X0386787Y0296451D01*
X0386905Y0296362D01*
X0387021Y0296270D01*
X0387134Y0296174D01*
X0387245Y0296076D01*
X0387353Y0295975D01*
X0387459Y0295871D01*
X0387561Y0295765D01*
X0387661Y0295655D01*
X0387757Y0295543D01*
X0387851Y0295428D01*
X0387942Y0295311D01*
X0388029Y0295192D01*
X0388113Y0295070D01*
X0388194Y0294946D01*
X0388271Y0294820D01*
X0388345Y0294692D01*
X0388416Y0294562D01*
X0388483Y0294430D01*
X0388546Y0294296D01*
X0388606Y0294161D01*
X0388662Y0294024D01*
X0388715Y0293885D01*
X0388763Y0293745D01*
X0388808Y0293604D01*
X0388849Y0293462D01*
X0388887Y0293319D01*
X0388920Y0293175D01*
X0388950Y0293030D01*
X0388976Y0292884D01*
X0388997Y0292738D01*
X0389015Y0292591D01*
X0389029Y0292444D01*
X0389039Y0292296D01*
X0389045Y0292148D01*
X0389047Y0292000D01*
X0389045Y0291852D01*
X0389039Y0291704D01*
X0389029Y0291556D01*
X0389015Y0291409D01*
X0388997Y0291262D01*
X0388976Y0291116D01*
X0388950Y0290970D01*
X0388920Y0290825D01*
X0388887Y0290681D01*
X0388849Y0290538D01*
X0388808Y0290396D01*
X0388763Y0290255D01*
X0388715Y0290115D01*
X0388662Y0289976D01*
X0388606Y0289839D01*
X0388546Y0289704D01*
X0388483Y0289570D01*
X0388416Y0289438D01*
X0388345Y0289308D01*
X0388271Y0289180D01*
X0388194Y0289054D01*
X0388113Y0288930D01*
X0388029Y0288808D01*
X0387942Y0288689D01*
X0387851Y0288572D01*
X0387757Y0288457D01*
X0387661Y0288345D01*
X0387561Y0288235D01*
X0387459Y0288129D01*
X0387353Y0288025D01*
X0387245Y0287924D01*
X0387134Y0287826D01*
X0387021Y0287730D01*
X0386905Y0287638D01*
X0386787Y0287549D01*
X0386666Y0287464D01*
X0386543Y0287381D01*
X0386418Y0287302D01*
X0386291Y0287226D01*
X0386162Y0287154D01*
X0386031Y0287085D01*
X0385898Y0287020D01*
X0385763Y0286959D01*
X0385627Y0286901D01*
X0385490Y0286846D01*
X0385351Y0286796D01*
X0385210Y0286749D01*
X0385069Y0286706D01*
X0384926Y0286666D01*
X0384782Y0286631D01*
X0384638Y0286599D01*
X0384492Y0286572D01*
X0384346Y0286548D01*
X0384199Y0286528D01*
X0384052Y0286512D01*
X0383905Y0286500D01*
X0383757Y0286492D01*
X0383609Y0286488D01*
X0383461Y0286488D01*
X0383313Y0286492D01*
X0383165Y0286500D01*
X0383018Y0286512D01*
X0382871Y0286528D01*
X0382724Y0286548D01*
X0382578Y0286572D01*
X0382432Y0286599D01*
X0382288Y0286631D01*
X0382144Y0286666D01*
X0382001Y0286706D01*
X0381860Y0286749D01*
X0381719Y0286796D01*
X0381580Y0286846D01*
X0381443Y0286901D01*
X0381307Y0286959D01*
X0381172Y0287020D01*
X0381039Y0287085D01*
X0380908Y0287154D01*
X0380779Y0287226D01*
X0380652Y0287302D01*
X0380527Y0287381D01*
X0380404Y0287464D01*
X0380283Y0287549D01*
X0380165Y0287638D01*
X0380049Y0287730D01*
X0379936Y0287826D01*
X0379825Y0287924D01*
X0379717Y0288025D01*
X0379611Y0288129D01*
X0379509Y0288235D01*
X0379409Y0288345D01*
X0379313Y0288457D01*
X0379219Y0288572D01*
X0379128Y0288689D01*
X0379041Y0288808D01*
X0378957Y0288930D01*
X0378876Y0289054D01*
X0378799Y0289180D01*
X0378725Y0289308D01*
X0378654Y0289438D01*
X0378587Y0289570D01*
X0378524Y0289704D01*
X0378464Y0289839D01*
X0378408Y0289976D01*
X0378355Y0290115D01*
X0378307Y0290255D01*
X0378262Y0290396D01*
X0378221Y0290538D01*
X0378183Y0290681D01*
X0378150Y0290825D01*
X0378120Y0290970D01*
X0378094Y0291116D01*
X0378073Y0291262D01*
X0378055Y0291409D01*
X0378041Y0291556D01*
X0378031Y0291704D01*
X0378025Y0291852D01*
X0378023Y0292000D01*
D11*
X0154425Y0268563D03*
X0152457Y0268563D03*
X0150488Y0268563D03*
X0148520Y0268563D03*
X0146551Y0268563D03*
X0146551Y0256398D03*
X0148520Y0256398D03*
X0150488Y0256398D03*
X0152457Y0256398D03*
X0154425Y0256398D03*
X0125425Y0255398D03*
X0123457Y0255398D03*
X0121488Y0255398D03*
X0119520Y0255398D03*
X0117551Y0255398D03*
X0117551Y0267563D03*
X0119520Y0267563D03*
X0121488Y0267563D03*
X0123457Y0267563D03*
X0125425Y0267563D03*
D12*
X0125149Y0266165D02*
X0125151Y0266198D01*
X0125157Y0266230D01*
X0125166Y0266261D01*
X0125179Y0266291D01*
X0125196Y0266319D01*
X0125216Y0266345D01*
X0125239Y0266369D01*
X0125264Y0266389D01*
X0125292Y0266407D01*
X0125321Y0266421D01*
X0125352Y0266431D01*
X0125384Y0266438D01*
X0125417Y0266441D01*
X0125450Y0266440D01*
X0125482Y0266435D01*
X0125513Y0266426D01*
X0125544Y0266414D01*
X0125572Y0266398D01*
X0125599Y0266379D01*
X0125623Y0266357D01*
X0125644Y0266332D01*
X0125663Y0266305D01*
X0125678Y0266276D01*
X0125689Y0266246D01*
X0125697Y0266214D01*
X0125701Y0266181D01*
X0125701Y0266149D01*
X0125697Y0266116D01*
X0125689Y0266084D01*
X0125678Y0266054D01*
X0125663Y0266025D01*
X0125644Y0265998D01*
X0125623Y0265973D01*
X0125599Y0265951D01*
X0125572Y0265932D01*
X0125544Y0265916D01*
X0125513Y0265904D01*
X0125482Y0265895D01*
X0125450Y0265890D01*
X0125417Y0265889D01*
X0125384Y0265892D01*
X0125352Y0265899D01*
X0125321Y0265909D01*
X0125292Y0265923D01*
X0125264Y0265941D01*
X0125239Y0265961D01*
X0125216Y0265985D01*
X0125196Y0266011D01*
X0125179Y0266039D01*
X0125166Y0266069D01*
X0125157Y0266100D01*
X0125151Y0266132D01*
X0125149Y0266165D01*
X0123181Y0266165D02*
X0123183Y0266198D01*
X0123189Y0266230D01*
X0123198Y0266261D01*
X0123211Y0266291D01*
X0123228Y0266319D01*
X0123248Y0266345D01*
X0123271Y0266369D01*
X0123296Y0266389D01*
X0123324Y0266407D01*
X0123353Y0266421D01*
X0123384Y0266431D01*
X0123416Y0266438D01*
X0123449Y0266441D01*
X0123482Y0266440D01*
X0123514Y0266435D01*
X0123545Y0266426D01*
X0123576Y0266414D01*
X0123604Y0266398D01*
X0123631Y0266379D01*
X0123655Y0266357D01*
X0123676Y0266332D01*
X0123695Y0266305D01*
X0123710Y0266276D01*
X0123721Y0266246D01*
X0123729Y0266214D01*
X0123733Y0266181D01*
X0123733Y0266149D01*
X0123729Y0266116D01*
X0123721Y0266084D01*
X0123710Y0266054D01*
X0123695Y0266025D01*
X0123676Y0265998D01*
X0123655Y0265973D01*
X0123631Y0265951D01*
X0123604Y0265932D01*
X0123576Y0265916D01*
X0123545Y0265904D01*
X0123514Y0265895D01*
X0123482Y0265890D01*
X0123449Y0265889D01*
X0123416Y0265892D01*
X0123384Y0265899D01*
X0123353Y0265909D01*
X0123324Y0265923D01*
X0123296Y0265941D01*
X0123271Y0265961D01*
X0123248Y0265985D01*
X0123228Y0266011D01*
X0123211Y0266039D01*
X0123198Y0266069D01*
X0123189Y0266100D01*
X0123183Y0266132D01*
X0123181Y0266165D01*
X0121212Y0266165D02*
X0121214Y0266198D01*
X0121220Y0266230D01*
X0121229Y0266261D01*
X0121242Y0266291D01*
X0121259Y0266319D01*
X0121279Y0266345D01*
X0121302Y0266369D01*
X0121327Y0266389D01*
X0121355Y0266407D01*
X0121384Y0266421D01*
X0121415Y0266431D01*
X0121447Y0266438D01*
X0121480Y0266441D01*
X0121513Y0266440D01*
X0121545Y0266435D01*
X0121576Y0266426D01*
X0121607Y0266414D01*
X0121635Y0266398D01*
X0121662Y0266379D01*
X0121686Y0266357D01*
X0121707Y0266332D01*
X0121726Y0266305D01*
X0121741Y0266276D01*
X0121752Y0266246D01*
X0121760Y0266214D01*
X0121764Y0266181D01*
X0121764Y0266149D01*
X0121760Y0266116D01*
X0121752Y0266084D01*
X0121741Y0266054D01*
X0121726Y0266025D01*
X0121707Y0265998D01*
X0121686Y0265973D01*
X0121662Y0265951D01*
X0121635Y0265932D01*
X0121607Y0265916D01*
X0121576Y0265904D01*
X0121545Y0265895D01*
X0121513Y0265890D01*
X0121480Y0265889D01*
X0121447Y0265892D01*
X0121415Y0265899D01*
X0121384Y0265909D01*
X0121355Y0265923D01*
X0121327Y0265941D01*
X0121302Y0265961D01*
X0121279Y0265985D01*
X0121259Y0266011D01*
X0121242Y0266039D01*
X0121229Y0266069D01*
X0121220Y0266100D01*
X0121214Y0266132D01*
X0121212Y0266165D01*
X0119244Y0266165D02*
X0119246Y0266198D01*
X0119252Y0266230D01*
X0119261Y0266261D01*
X0119274Y0266291D01*
X0119291Y0266319D01*
X0119311Y0266345D01*
X0119334Y0266369D01*
X0119359Y0266389D01*
X0119387Y0266407D01*
X0119416Y0266421D01*
X0119447Y0266431D01*
X0119479Y0266438D01*
X0119512Y0266441D01*
X0119545Y0266440D01*
X0119577Y0266435D01*
X0119608Y0266426D01*
X0119639Y0266414D01*
X0119667Y0266398D01*
X0119694Y0266379D01*
X0119718Y0266357D01*
X0119739Y0266332D01*
X0119758Y0266305D01*
X0119773Y0266276D01*
X0119784Y0266246D01*
X0119792Y0266214D01*
X0119796Y0266181D01*
X0119796Y0266149D01*
X0119792Y0266116D01*
X0119784Y0266084D01*
X0119773Y0266054D01*
X0119758Y0266025D01*
X0119739Y0265998D01*
X0119718Y0265973D01*
X0119694Y0265951D01*
X0119667Y0265932D01*
X0119639Y0265916D01*
X0119608Y0265904D01*
X0119577Y0265895D01*
X0119545Y0265890D01*
X0119512Y0265889D01*
X0119479Y0265892D01*
X0119447Y0265899D01*
X0119416Y0265909D01*
X0119387Y0265923D01*
X0119359Y0265941D01*
X0119334Y0265961D01*
X0119311Y0265985D01*
X0119291Y0266011D01*
X0119274Y0266039D01*
X0119261Y0266069D01*
X0119252Y0266100D01*
X0119246Y0266132D01*
X0119244Y0266165D01*
X0117275Y0266165D02*
X0117277Y0266198D01*
X0117283Y0266230D01*
X0117292Y0266261D01*
X0117305Y0266291D01*
X0117322Y0266319D01*
X0117342Y0266345D01*
X0117365Y0266369D01*
X0117390Y0266389D01*
X0117418Y0266407D01*
X0117447Y0266421D01*
X0117478Y0266431D01*
X0117510Y0266438D01*
X0117543Y0266441D01*
X0117576Y0266440D01*
X0117608Y0266435D01*
X0117639Y0266426D01*
X0117670Y0266414D01*
X0117698Y0266398D01*
X0117725Y0266379D01*
X0117749Y0266357D01*
X0117770Y0266332D01*
X0117789Y0266305D01*
X0117804Y0266276D01*
X0117815Y0266246D01*
X0117823Y0266214D01*
X0117827Y0266181D01*
X0117827Y0266149D01*
X0117823Y0266116D01*
X0117815Y0266084D01*
X0117804Y0266054D01*
X0117789Y0266025D01*
X0117770Y0265998D01*
X0117749Y0265973D01*
X0117725Y0265951D01*
X0117698Y0265932D01*
X0117670Y0265916D01*
X0117639Y0265904D01*
X0117608Y0265895D01*
X0117576Y0265890D01*
X0117543Y0265889D01*
X0117510Y0265892D01*
X0117478Y0265899D01*
X0117447Y0265909D01*
X0117418Y0265923D01*
X0117390Y0265941D01*
X0117365Y0265961D01*
X0117342Y0265985D01*
X0117322Y0266011D01*
X0117305Y0266039D01*
X0117292Y0266069D01*
X0117283Y0266100D01*
X0117277Y0266132D01*
X0117275Y0266165D01*
X0117275Y0256795D02*
X0117277Y0256828D01*
X0117283Y0256860D01*
X0117292Y0256891D01*
X0117305Y0256921D01*
X0117322Y0256949D01*
X0117342Y0256975D01*
X0117365Y0256999D01*
X0117390Y0257019D01*
X0117418Y0257037D01*
X0117447Y0257051D01*
X0117478Y0257061D01*
X0117510Y0257068D01*
X0117543Y0257071D01*
X0117576Y0257070D01*
X0117608Y0257065D01*
X0117639Y0257056D01*
X0117670Y0257044D01*
X0117698Y0257028D01*
X0117725Y0257009D01*
X0117749Y0256987D01*
X0117770Y0256962D01*
X0117789Y0256935D01*
X0117804Y0256906D01*
X0117815Y0256876D01*
X0117823Y0256844D01*
X0117827Y0256811D01*
X0117827Y0256779D01*
X0117823Y0256746D01*
X0117815Y0256714D01*
X0117804Y0256684D01*
X0117789Y0256655D01*
X0117770Y0256628D01*
X0117749Y0256603D01*
X0117725Y0256581D01*
X0117698Y0256562D01*
X0117670Y0256546D01*
X0117639Y0256534D01*
X0117608Y0256525D01*
X0117576Y0256520D01*
X0117543Y0256519D01*
X0117510Y0256522D01*
X0117478Y0256529D01*
X0117447Y0256539D01*
X0117418Y0256553D01*
X0117390Y0256571D01*
X0117365Y0256591D01*
X0117342Y0256615D01*
X0117322Y0256641D01*
X0117305Y0256669D01*
X0117292Y0256699D01*
X0117283Y0256730D01*
X0117277Y0256762D01*
X0117275Y0256795D01*
X0119244Y0256795D02*
X0119246Y0256828D01*
X0119252Y0256860D01*
X0119261Y0256891D01*
X0119274Y0256921D01*
X0119291Y0256949D01*
X0119311Y0256975D01*
X0119334Y0256999D01*
X0119359Y0257019D01*
X0119387Y0257037D01*
X0119416Y0257051D01*
X0119447Y0257061D01*
X0119479Y0257068D01*
X0119512Y0257071D01*
X0119545Y0257070D01*
X0119577Y0257065D01*
X0119608Y0257056D01*
X0119639Y0257044D01*
X0119667Y0257028D01*
X0119694Y0257009D01*
X0119718Y0256987D01*
X0119739Y0256962D01*
X0119758Y0256935D01*
X0119773Y0256906D01*
X0119784Y0256876D01*
X0119792Y0256844D01*
X0119796Y0256811D01*
X0119796Y0256779D01*
X0119792Y0256746D01*
X0119784Y0256714D01*
X0119773Y0256684D01*
X0119758Y0256655D01*
X0119739Y0256628D01*
X0119718Y0256603D01*
X0119694Y0256581D01*
X0119667Y0256562D01*
X0119639Y0256546D01*
X0119608Y0256534D01*
X0119577Y0256525D01*
X0119545Y0256520D01*
X0119512Y0256519D01*
X0119479Y0256522D01*
X0119447Y0256529D01*
X0119416Y0256539D01*
X0119387Y0256553D01*
X0119359Y0256571D01*
X0119334Y0256591D01*
X0119311Y0256615D01*
X0119291Y0256641D01*
X0119274Y0256669D01*
X0119261Y0256699D01*
X0119252Y0256730D01*
X0119246Y0256762D01*
X0119244Y0256795D01*
X0121212Y0256795D02*
X0121214Y0256828D01*
X0121220Y0256860D01*
X0121229Y0256891D01*
X0121242Y0256921D01*
X0121259Y0256949D01*
X0121279Y0256975D01*
X0121302Y0256999D01*
X0121327Y0257019D01*
X0121355Y0257037D01*
X0121384Y0257051D01*
X0121415Y0257061D01*
X0121447Y0257068D01*
X0121480Y0257071D01*
X0121513Y0257070D01*
X0121545Y0257065D01*
X0121576Y0257056D01*
X0121607Y0257044D01*
X0121635Y0257028D01*
X0121662Y0257009D01*
X0121686Y0256987D01*
X0121707Y0256962D01*
X0121726Y0256935D01*
X0121741Y0256906D01*
X0121752Y0256876D01*
X0121760Y0256844D01*
X0121764Y0256811D01*
X0121764Y0256779D01*
X0121760Y0256746D01*
X0121752Y0256714D01*
X0121741Y0256684D01*
X0121726Y0256655D01*
X0121707Y0256628D01*
X0121686Y0256603D01*
X0121662Y0256581D01*
X0121635Y0256562D01*
X0121607Y0256546D01*
X0121576Y0256534D01*
X0121545Y0256525D01*
X0121513Y0256520D01*
X0121480Y0256519D01*
X0121447Y0256522D01*
X0121415Y0256529D01*
X0121384Y0256539D01*
X0121355Y0256553D01*
X0121327Y0256571D01*
X0121302Y0256591D01*
X0121279Y0256615D01*
X0121259Y0256641D01*
X0121242Y0256669D01*
X0121229Y0256699D01*
X0121220Y0256730D01*
X0121214Y0256762D01*
X0121212Y0256795D01*
X0123181Y0256795D02*
X0123183Y0256828D01*
X0123189Y0256860D01*
X0123198Y0256891D01*
X0123211Y0256921D01*
X0123228Y0256949D01*
X0123248Y0256975D01*
X0123271Y0256999D01*
X0123296Y0257019D01*
X0123324Y0257037D01*
X0123353Y0257051D01*
X0123384Y0257061D01*
X0123416Y0257068D01*
X0123449Y0257071D01*
X0123482Y0257070D01*
X0123514Y0257065D01*
X0123545Y0257056D01*
X0123576Y0257044D01*
X0123604Y0257028D01*
X0123631Y0257009D01*
X0123655Y0256987D01*
X0123676Y0256962D01*
X0123695Y0256935D01*
X0123710Y0256906D01*
X0123721Y0256876D01*
X0123729Y0256844D01*
X0123733Y0256811D01*
X0123733Y0256779D01*
X0123729Y0256746D01*
X0123721Y0256714D01*
X0123710Y0256684D01*
X0123695Y0256655D01*
X0123676Y0256628D01*
X0123655Y0256603D01*
X0123631Y0256581D01*
X0123604Y0256562D01*
X0123576Y0256546D01*
X0123545Y0256534D01*
X0123514Y0256525D01*
X0123482Y0256520D01*
X0123449Y0256519D01*
X0123416Y0256522D01*
X0123384Y0256529D01*
X0123353Y0256539D01*
X0123324Y0256553D01*
X0123296Y0256571D01*
X0123271Y0256591D01*
X0123248Y0256615D01*
X0123228Y0256641D01*
X0123211Y0256669D01*
X0123198Y0256699D01*
X0123189Y0256730D01*
X0123183Y0256762D01*
X0123181Y0256795D01*
X0125149Y0256795D02*
X0125151Y0256828D01*
X0125157Y0256860D01*
X0125166Y0256891D01*
X0125179Y0256921D01*
X0125196Y0256949D01*
X0125216Y0256975D01*
X0125239Y0256999D01*
X0125264Y0257019D01*
X0125292Y0257037D01*
X0125321Y0257051D01*
X0125352Y0257061D01*
X0125384Y0257068D01*
X0125417Y0257071D01*
X0125450Y0257070D01*
X0125482Y0257065D01*
X0125513Y0257056D01*
X0125544Y0257044D01*
X0125572Y0257028D01*
X0125599Y0257009D01*
X0125623Y0256987D01*
X0125644Y0256962D01*
X0125663Y0256935D01*
X0125678Y0256906D01*
X0125689Y0256876D01*
X0125697Y0256844D01*
X0125701Y0256811D01*
X0125701Y0256779D01*
X0125697Y0256746D01*
X0125689Y0256714D01*
X0125678Y0256684D01*
X0125663Y0256655D01*
X0125644Y0256628D01*
X0125623Y0256603D01*
X0125599Y0256581D01*
X0125572Y0256562D01*
X0125544Y0256546D01*
X0125513Y0256534D01*
X0125482Y0256525D01*
X0125450Y0256520D01*
X0125417Y0256519D01*
X0125384Y0256522D01*
X0125352Y0256529D01*
X0125321Y0256539D01*
X0125292Y0256553D01*
X0125264Y0256571D01*
X0125239Y0256591D01*
X0125216Y0256615D01*
X0125196Y0256641D01*
X0125179Y0256669D01*
X0125166Y0256699D01*
X0125157Y0256730D01*
X0125151Y0256762D01*
X0125149Y0256795D01*
X0146275Y0257795D02*
X0146277Y0257828D01*
X0146283Y0257860D01*
X0146292Y0257891D01*
X0146305Y0257921D01*
X0146322Y0257949D01*
X0146342Y0257975D01*
X0146365Y0257999D01*
X0146390Y0258019D01*
X0146418Y0258037D01*
X0146447Y0258051D01*
X0146478Y0258061D01*
X0146510Y0258068D01*
X0146543Y0258071D01*
X0146576Y0258070D01*
X0146608Y0258065D01*
X0146639Y0258056D01*
X0146670Y0258044D01*
X0146698Y0258028D01*
X0146725Y0258009D01*
X0146749Y0257987D01*
X0146770Y0257962D01*
X0146789Y0257935D01*
X0146804Y0257906D01*
X0146815Y0257876D01*
X0146823Y0257844D01*
X0146827Y0257811D01*
X0146827Y0257779D01*
X0146823Y0257746D01*
X0146815Y0257714D01*
X0146804Y0257684D01*
X0146789Y0257655D01*
X0146770Y0257628D01*
X0146749Y0257603D01*
X0146725Y0257581D01*
X0146698Y0257562D01*
X0146670Y0257546D01*
X0146639Y0257534D01*
X0146608Y0257525D01*
X0146576Y0257520D01*
X0146543Y0257519D01*
X0146510Y0257522D01*
X0146478Y0257529D01*
X0146447Y0257539D01*
X0146418Y0257553D01*
X0146390Y0257571D01*
X0146365Y0257591D01*
X0146342Y0257615D01*
X0146322Y0257641D01*
X0146305Y0257669D01*
X0146292Y0257699D01*
X0146283Y0257730D01*
X0146277Y0257762D01*
X0146275Y0257795D01*
X0148244Y0257795D02*
X0148246Y0257828D01*
X0148252Y0257860D01*
X0148261Y0257891D01*
X0148274Y0257921D01*
X0148291Y0257949D01*
X0148311Y0257975D01*
X0148334Y0257999D01*
X0148359Y0258019D01*
X0148387Y0258037D01*
X0148416Y0258051D01*
X0148447Y0258061D01*
X0148479Y0258068D01*
X0148512Y0258071D01*
X0148545Y0258070D01*
X0148577Y0258065D01*
X0148608Y0258056D01*
X0148639Y0258044D01*
X0148667Y0258028D01*
X0148694Y0258009D01*
X0148718Y0257987D01*
X0148739Y0257962D01*
X0148758Y0257935D01*
X0148773Y0257906D01*
X0148784Y0257876D01*
X0148792Y0257844D01*
X0148796Y0257811D01*
X0148796Y0257779D01*
X0148792Y0257746D01*
X0148784Y0257714D01*
X0148773Y0257684D01*
X0148758Y0257655D01*
X0148739Y0257628D01*
X0148718Y0257603D01*
X0148694Y0257581D01*
X0148667Y0257562D01*
X0148639Y0257546D01*
X0148608Y0257534D01*
X0148577Y0257525D01*
X0148545Y0257520D01*
X0148512Y0257519D01*
X0148479Y0257522D01*
X0148447Y0257529D01*
X0148416Y0257539D01*
X0148387Y0257553D01*
X0148359Y0257571D01*
X0148334Y0257591D01*
X0148311Y0257615D01*
X0148291Y0257641D01*
X0148274Y0257669D01*
X0148261Y0257699D01*
X0148252Y0257730D01*
X0148246Y0257762D01*
X0148244Y0257795D01*
X0150212Y0257795D02*
X0150214Y0257828D01*
X0150220Y0257860D01*
X0150229Y0257891D01*
X0150242Y0257921D01*
X0150259Y0257949D01*
X0150279Y0257975D01*
X0150302Y0257999D01*
X0150327Y0258019D01*
X0150355Y0258037D01*
X0150384Y0258051D01*
X0150415Y0258061D01*
X0150447Y0258068D01*
X0150480Y0258071D01*
X0150513Y0258070D01*
X0150545Y0258065D01*
X0150576Y0258056D01*
X0150607Y0258044D01*
X0150635Y0258028D01*
X0150662Y0258009D01*
X0150686Y0257987D01*
X0150707Y0257962D01*
X0150726Y0257935D01*
X0150741Y0257906D01*
X0150752Y0257876D01*
X0150760Y0257844D01*
X0150764Y0257811D01*
X0150764Y0257779D01*
X0150760Y0257746D01*
X0150752Y0257714D01*
X0150741Y0257684D01*
X0150726Y0257655D01*
X0150707Y0257628D01*
X0150686Y0257603D01*
X0150662Y0257581D01*
X0150635Y0257562D01*
X0150607Y0257546D01*
X0150576Y0257534D01*
X0150545Y0257525D01*
X0150513Y0257520D01*
X0150480Y0257519D01*
X0150447Y0257522D01*
X0150415Y0257529D01*
X0150384Y0257539D01*
X0150355Y0257553D01*
X0150327Y0257571D01*
X0150302Y0257591D01*
X0150279Y0257615D01*
X0150259Y0257641D01*
X0150242Y0257669D01*
X0150229Y0257699D01*
X0150220Y0257730D01*
X0150214Y0257762D01*
X0150212Y0257795D01*
X0152181Y0257795D02*
X0152183Y0257828D01*
X0152189Y0257860D01*
X0152198Y0257891D01*
X0152211Y0257921D01*
X0152228Y0257949D01*
X0152248Y0257975D01*
X0152271Y0257999D01*
X0152296Y0258019D01*
X0152324Y0258037D01*
X0152353Y0258051D01*
X0152384Y0258061D01*
X0152416Y0258068D01*
X0152449Y0258071D01*
X0152482Y0258070D01*
X0152514Y0258065D01*
X0152545Y0258056D01*
X0152576Y0258044D01*
X0152604Y0258028D01*
X0152631Y0258009D01*
X0152655Y0257987D01*
X0152676Y0257962D01*
X0152695Y0257935D01*
X0152710Y0257906D01*
X0152721Y0257876D01*
X0152729Y0257844D01*
X0152733Y0257811D01*
X0152733Y0257779D01*
X0152729Y0257746D01*
X0152721Y0257714D01*
X0152710Y0257684D01*
X0152695Y0257655D01*
X0152676Y0257628D01*
X0152655Y0257603D01*
X0152631Y0257581D01*
X0152604Y0257562D01*
X0152576Y0257546D01*
X0152545Y0257534D01*
X0152514Y0257525D01*
X0152482Y0257520D01*
X0152449Y0257519D01*
X0152416Y0257522D01*
X0152384Y0257529D01*
X0152353Y0257539D01*
X0152324Y0257553D01*
X0152296Y0257571D01*
X0152271Y0257591D01*
X0152248Y0257615D01*
X0152228Y0257641D01*
X0152211Y0257669D01*
X0152198Y0257699D01*
X0152189Y0257730D01*
X0152183Y0257762D01*
X0152181Y0257795D01*
X0154149Y0257795D02*
X0154151Y0257828D01*
X0154157Y0257860D01*
X0154166Y0257891D01*
X0154179Y0257921D01*
X0154196Y0257949D01*
X0154216Y0257975D01*
X0154239Y0257999D01*
X0154264Y0258019D01*
X0154292Y0258037D01*
X0154321Y0258051D01*
X0154352Y0258061D01*
X0154384Y0258068D01*
X0154417Y0258071D01*
X0154450Y0258070D01*
X0154482Y0258065D01*
X0154513Y0258056D01*
X0154544Y0258044D01*
X0154572Y0258028D01*
X0154599Y0258009D01*
X0154623Y0257987D01*
X0154644Y0257962D01*
X0154663Y0257935D01*
X0154678Y0257906D01*
X0154689Y0257876D01*
X0154697Y0257844D01*
X0154701Y0257811D01*
X0154701Y0257779D01*
X0154697Y0257746D01*
X0154689Y0257714D01*
X0154678Y0257684D01*
X0154663Y0257655D01*
X0154644Y0257628D01*
X0154623Y0257603D01*
X0154599Y0257581D01*
X0154572Y0257562D01*
X0154544Y0257546D01*
X0154513Y0257534D01*
X0154482Y0257525D01*
X0154450Y0257520D01*
X0154417Y0257519D01*
X0154384Y0257522D01*
X0154352Y0257529D01*
X0154321Y0257539D01*
X0154292Y0257553D01*
X0154264Y0257571D01*
X0154239Y0257591D01*
X0154216Y0257615D01*
X0154196Y0257641D01*
X0154179Y0257669D01*
X0154166Y0257699D01*
X0154157Y0257730D01*
X0154151Y0257762D01*
X0154149Y0257795D01*
X0154149Y0267165D02*
X0154151Y0267198D01*
X0154157Y0267230D01*
X0154166Y0267261D01*
X0154179Y0267291D01*
X0154196Y0267319D01*
X0154216Y0267345D01*
X0154239Y0267369D01*
X0154264Y0267389D01*
X0154292Y0267407D01*
X0154321Y0267421D01*
X0154352Y0267431D01*
X0154384Y0267438D01*
X0154417Y0267441D01*
X0154450Y0267440D01*
X0154482Y0267435D01*
X0154513Y0267426D01*
X0154544Y0267414D01*
X0154572Y0267398D01*
X0154599Y0267379D01*
X0154623Y0267357D01*
X0154644Y0267332D01*
X0154663Y0267305D01*
X0154678Y0267276D01*
X0154689Y0267246D01*
X0154697Y0267214D01*
X0154701Y0267181D01*
X0154701Y0267149D01*
X0154697Y0267116D01*
X0154689Y0267084D01*
X0154678Y0267054D01*
X0154663Y0267025D01*
X0154644Y0266998D01*
X0154623Y0266973D01*
X0154599Y0266951D01*
X0154572Y0266932D01*
X0154544Y0266916D01*
X0154513Y0266904D01*
X0154482Y0266895D01*
X0154450Y0266890D01*
X0154417Y0266889D01*
X0154384Y0266892D01*
X0154352Y0266899D01*
X0154321Y0266909D01*
X0154292Y0266923D01*
X0154264Y0266941D01*
X0154239Y0266961D01*
X0154216Y0266985D01*
X0154196Y0267011D01*
X0154179Y0267039D01*
X0154166Y0267069D01*
X0154157Y0267100D01*
X0154151Y0267132D01*
X0154149Y0267165D01*
X0152181Y0267165D02*
X0152183Y0267198D01*
X0152189Y0267230D01*
X0152198Y0267261D01*
X0152211Y0267291D01*
X0152228Y0267319D01*
X0152248Y0267345D01*
X0152271Y0267369D01*
X0152296Y0267389D01*
X0152324Y0267407D01*
X0152353Y0267421D01*
X0152384Y0267431D01*
X0152416Y0267438D01*
X0152449Y0267441D01*
X0152482Y0267440D01*
X0152514Y0267435D01*
X0152545Y0267426D01*
X0152576Y0267414D01*
X0152604Y0267398D01*
X0152631Y0267379D01*
X0152655Y0267357D01*
X0152676Y0267332D01*
X0152695Y0267305D01*
X0152710Y0267276D01*
X0152721Y0267246D01*
X0152729Y0267214D01*
X0152733Y0267181D01*
X0152733Y0267149D01*
X0152729Y0267116D01*
X0152721Y0267084D01*
X0152710Y0267054D01*
X0152695Y0267025D01*
X0152676Y0266998D01*
X0152655Y0266973D01*
X0152631Y0266951D01*
X0152604Y0266932D01*
X0152576Y0266916D01*
X0152545Y0266904D01*
X0152514Y0266895D01*
X0152482Y0266890D01*
X0152449Y0266889D01*
X0152416Y0266892D01*
X0152384Y0266899D01*
X0152353Y0266909D01*
X0152324Y0266923D01*
X0152296Y0266941D01*
X0152271Y0266961D01*
X0152248Y0266985D01*
X0152228Y0267011D01*
X0152211Y0267039D01*
X0152198Y0267069D01*
X0152189Y0267100D01*
X0152183Y0267132D01*
X0152181Y0267165D01*
X0150212Y0267165D02*
X0150214Y0267198D01*
X0150220Y0267230D01*
X0150229Y0267261D01*
X0150242Y0267291D01*
X0150259Y0267319D01*
X0150279Y0267345D01*
X0150302Y0267369D01*
X0150327Y0267389D01*
X0150355Y0267407D01*
X0150384Y0267421D01*
X0150415Y0267431D01*
X0150447Y0267438D01*
X0150480Y0267441D01*
X0150513Y0267440D01*
X0150545Y0267435D01*
X0150576Y0267426D01*
X0150607Y0267414D01*
X0150635Y0267398D01*
X0150662Y0267379D01*
X0150686Y0267357D01*
X0150707Y0267332D01*
X0150726Y0267305D01*
X0150741Y0267276D01*
X0150752Y0267246D01*
X0150760Y0267214D01*
X0150764Y0267181D01*
X0150764Y0267149D01*
X0150760Y0267116D01*
X0150752Y0267084D01*
X0150741Y0267054D01*
X0150726Y0267025D01*
X0150707Y0266998D01*
X0150686Y0266973D01*
X0150662Y0266951D01*
X0150635Y0266932D01*
X0150607Y0266916D01*
X0150576Y0266904D01*
X0150545Y0266895D01*
X0150513Y0266890D01*
X0150480Y0266889D01*
X0150447Y0266892D01*
X0150415Y0266899D01*
X0150384Y0266909D01*
X0150355Y0266923D01*
X0150327Y0266941D01*
X0150302Y0266961D01*
X0150279Y0266985D01*
X0150259Y0267011D01*
X0150242Y0267039D01*
X0150229Y0267069D01*
X0150220Y0267100D01*
X0150214Y0267132D01*
X0150212Y0267165D01*
X0148244Y0267165D02*
X0148246Y0267198D01*
X0148252Y0267230D01*
X0148261Y0267261D01*
X0148274Y0267291D01*
X0148291Y0267319D01*
X0148311Y0267345D01*
X0148334Y0267369D01*
X0148359Y0267389D01*
X0148387Y0267407D01*
X0148416Y0267421D01*
X0148447Y0267431D01*
X0148479Y0267438D01*
X0148512Y0267441D01*
X0148545Y0267440D01*
X0148577Y0267435D01*
X0148608Y0267426D01*
X0148639Y0267414D01*
X0148667Y0267398D01*
X0148694Y0267379D01*
X0148718Y0267357D01*
X0148739Y0267332D01*
X0148758Y0267305D01*
X0148773Y0267276D01*
X0148784Y0267246D01*
X0148792Y0267214D01*
X0148796Y0267181D01*
X0148796Y0267149D01*
X0148792Y0267116D01*
X0148784Y0267084D01*
X0148773Y0267054D01*
X0148758Y0267025D01*
X0148739Y0266998D01*
X0148718Y0266973D01*
X0148694Y0266951D01*
X0148667Y0266932D01*
X0148639Y0266916D01*
X0148608Y0266904D01*
X0148577Y0266895D01*
X0148545Y0266890D01*
X0148512Y0266889D01*
X0148479Y0266892D01*
X0148447Y0266899D01*
X0148416Y0266909D01*
X0148387Y0266923D01*
X0148359Y0266941D01*
X0148334Y0266961D01*
X0148311Y0266985D01*
X0148291Y0267011D01*
X0148274Y0267039D01*
X0148261Y0267069D01*
X0148252Y0267100D01*
X0148246Y0267132D01*
X0148244Y0267165D01*
X0146275Y0267165D02*
X0146277Y0267198D01*
X0146283Y0267230D01*
X0146292Y0267261D01*
X0146305Y0267291D01*
X0146322Y0267319D01*
X0146342Y0267345D01*
X0146365Y0267369D01*
X0146390Y0267389D01*
X0146418Y0267407D01*
X0146447Y0267421D01*
X0146478Y0267431D01*
X0146510Y0267438D01*
X0146543Y0267441D01*
X0146576Y0267440D01*
X0146608Y0267435D01*
X0146639Y0267426D01*
X0146670Y0267414D01*
X0146698Y0267398D01*
X0146725Y0267379D01*
X0146749Y0267357D01*
X0146770Y0267332D01*
X0146789Y0267305D01*
X0146804Y0267276D01*
X0146815Y0267246D01*
X0146823Y0267214D01*
X0146827Y0267181D01*
X0146827Y0267149D01*
X0146823Y0267116D01*
X0146815Y0267084D01*
X0146804Y0267054D01*
X0146789Y0267025D01*
X0146770Y0266998D01*
X0146749Y0266973D01*
X0146725Y0266951D01*
X0146698Y0266932D01*
X0146670Y0266916D01*
X0146639Y0266904D01*
X0146608Y0266895D01*
X0146576Y0266890D01*
X0146543Y0266889D01*
X0146510Y0266892D01*
X0146478Y0266899D01*
X0146447Y0266909D01*
X0146418Y0266923D01*
X0146390Y0266941D01*
X0146365Y0266961D01*
X0146342Y0266985D01*
X0146322Y0267011D01*
X0146305Y0267039D01*
X0146292Y0267069D01*
X0146283Y0267100D01*
X0146277Y0267132D01*
X0146275Y0267165D01*
D13*
X0150488Y0262480D03*
X0121488Y0261480D03*
D14*
X0118476Y0260496D03*
X0147476Y0261496D03*
D15*
X0144386Y0263465D03*
X0156591Y0263465D03*
X0156591Y0261496D03*
X0127591Y0262465D03*
X0127591Y0260496D03*
X0115386Y0262465D03*
D16*
X0117548Y0268008D03*
X0119522Y0267997D03*
X0121485Y0267997D03*
X0123454Y0268013D03*
X0125426Y0268013D03*
X0125420Y0254952D03*
X0123451Y0254939D03*
X0121494Y0254952D03*
X0119522Y0254947D03*
X0117551Y0254947D03*
X0146551Y0255947D03*
X0148522Y0255947D03*
X0150494Y0255952D03*
X0152451Y0255939D03*
X0154420Y0255952D03*
X0154426Y0269013D03*
X0152454Y0269013D03*
X0150485Y0268997D03*
X0148522Y0268997D03*
X0146548Y0269008D03*
D17*
X0150546Y0262473D03*
X0121546Y0261473D03*
D18*
X0098600Y0259943D03*
X0098600Y0252857D03*
X0074000Y0249543D03*
X0074000Y0242457D03*
X0124000Y0182543D03*
X0124000Y0175457D03*
X0208000Y0168543D03*
X0208000Y0161457D03*
X0201000Y0237457D03*
X0201000Y0244543D03*
X0200000Y0250457D03*
X0200000Y0257543D03*
X0234000Y0288457D03*
X0234000Y0295543D03*
X0246000Y0295543D03*
X0246000Y0288457D03*
X0322000Y0076543D03*
X0322000Y0069457D03*
X0055000Y0052543D03*
X0055000Y0045457D03*
D19*
X0144457Y0129000D03*
X0151543Y0129000D03*
X0193457Y0134000D03*
X0200543Y0134000D03*
X0209457Y0141000D03*
X0216543Y0141000D03*
X0208543Y0152000D03*
X0201457Y0152000D03*
X0247457Y0113000D03*
X0254543Y0113000D03*
X0265457Y0113000D03*
X0272543Y0113000D03*
X0166543Y0206000D03*
X0159457Y0206000D03*
X0091543Y0248000D03*
X0084457Y0248000D03*
X0083457Y0260000D03*
X0090543Y0260000D03*
X0076543Y0260000D03*
X0069457Y0260000D03*
X0070457Y0270000D03*
X0077543Y0270000D03*
X0083457Y0271000D03*
X0090543Y0271000D03*
X0089543Y0282000D03*
X0089543Y0289000D03*
X0082457Y0289000D03*
X0082457Y0282000D03*
X0065543Y0241000D03*
X0058457Y0241000D03*
X0058043Y0234500D03*
X0050957Y0234500D03*
X0074457Y0234000D03*
X0081543Y0234000D03*
X0186457Y0281000D03*
X0193543Y0281000D03*
X0193543Y0296000D03*
X0186457Y0296000D03*
X0222457Y0304000D03*
X0229543Y0304000D03*
X0231543Y0276000D03*
X0224457Y0276000D03*
X0398457Y0261000D03*
X0405543Y0261000D03*
D20*
X0163000Y0262454D03*
X0163000Y0269146D03*
X0132500Y0266054D03*
X0132500Y0272746D03*
X0106000Y0275346D03*
X0106000Y0268654D03*
X0022000Y0264346D03*
X0022000Y0257654D03*
D21*
X0031654Y0285000D03*
X0038346Y0285000D03*
X0041654Y0304000D03*
X0048346Y0304000D03*
X0138654Y0281000D03*
X0145346Y0281000D03*
X0157654Y0281000D03*
X0164346Y0281000D03*
D22*
X0032559Y0200866D03*
X0024685Y0200866D03*
X0024685Y0192992D03*
X0024685Y0185118D03*
X0032559Y0185118D03*
X0032559Y0192992D03*
X0030000Y0095370D03*
X0037874Y0095370D03*
X0037874Y0087496D03*
X0037874Y0079622D03*
X0030000Y0079622D03*
X0030000Y0087496D03*
X0030000Y0071748D03*
X0030000Y0063874D03*
X0037874Y0063874D03*
X0037874Y0071748D03*
X0037874Y0056000D03*
X0030000Y0056000D03*
X0434000Y0119000D03*
X0434000Y0126874D03*
X0441874Y0126874D03*
X0441874Y0119000D03*
X0441874Y0134748D03*
X0434000Y0134748D03*
X0434000Y0142622D03*
X0441874Y0142622D03*
X0441874Y0150496D03*
X0434000Y0150496D03*
X0434000Y0158370D03*
X0441874Y0158370D03*
D23*
X0437937Y0174118D03*
X0437937Y0189866D03*
X0033937Y0126866D03*
X0033937Y0111118D03*
X0028622Y0216614D03*
X0028622Y0232362D03*
D24*
X0062315Y0029937D03*
X0070189Y0029937D03*
X0078063Y0029937D03*
X0085937Y0029937D03*
X0093811Y0029937D03*
X0101685Y0029937D03*
X0101685Y0022063D03*
X0093811Y0022063D03*
X0085937Y0022063D03*
X0078063Y0022063D03*
X0070189Y0022063D03*
X0062315Y0022063D03*
X0151126Y0022063D03*
X0159000Y0022063D03*
X0166874Y0022063D03*
X0166874Y0029937D03*
X0159000Y0029937D03*
X0151126Y0029937D03*
X0425063Y0055126D03*
X0432937Y0055126D03*
X0432937Y0063000D03*
X0425063Y0063000D03*
X0425063Y0070874D03*
X0432937Y0070874D03*
X0436685Y0288063D03*
X0428811Y0288063D03*
X0420937Y0288063D03*
X0413063Y0288063D03*
X0405189Y0288063D03*
X0397315Y0288063D03*
X0397315Y0295937D03*
X0405189Y0295937D03*
X0413063Y0295937D03*
X0420937Y0295937D03*
X0428811Y0295937D03*
X0436685Y0295937D03*
D25*
X0430000Y0260031D03*
X0420972Y0251000D03*
X0430000Y0241969D03*
X0439028Y0251000D03*
X0347000Y0072028D03*
X0337969Y0063000D03*
X0347000Y0053972D03*
X0356031Y0063000D03*
D26*
X0237740Y0114000D03*
X0230260Y0114000D03*
D27*
X0129512Y0234000D03*
X0118488Y0234000D03*
X0148488Y0238000D03*
X0159512Y0238000D03*
X0032512Y0299000D03*
X0021488Y0299000D03*
D28*
X0067201Y0086500D03*
X0067201Y0081500D03*
X0067201Y0076500D03*
X0067201Y0071500D03*
X0067201Y0066500D03*
X0067201Y0061500D03*
X0067201Y0056500D03*
X0067201Y0051500D03*
X0104898Y0051500D03*
X0104898Y0056500D03*
X0104898Y0061500D03*
X0104898Y0066500D03*
X0104898Y0071500D03*
X0104898Y0076500D03*
X0104898Y0081500D03*
X0104898Y0086500D03*
X0134764Y0085500D03*
X0134764Y0080500D03*
X0134764Y0075500D03*
X0134764Y0070500D03*
X0155236Y0070500D03*
X0155236Y0075500D03*
X0155236Y0080500D03*
X0155236Y0085500D03*
X0359764Y0094500D03*
X0359764Y0099500D03*
X0359764Y0104500D03*
X0359764Y0109500D03*
X0380236Y0109500D03*
X0380236Y0104500D03*
X0380236Y0099500D03*
X0380236Y0094500D03*
X0381236Y0131500D03*
X0381236Y0136500D03*
X0381236Y0141500D03*
X0381236Y0146500D03*
X0360764Y0146500D03*
X0360764Y0141500D03*
X0360764Y0136500D03*
X0360764Y0131500D03*
X0360764Y0168500D03*
X0360764Y0173500D03*
X0360764Y0178500D03*
X0360764Y0183500D03*
X0381236Y0183500D03*
X0381236Y0178500D03*
X0381236Y0173500D03*
X0381236Y0168500D03*
X0382236Y0206500D03*
X0382236Y0211500D03*
X0382236Y0216500D03*
X0382236Y0221500D03*
X0361764Y0221500D03*
X0361764Y0216500D03*
X0361764Y0211500D03*
X0361764Y0206500D03*
X0353236Y0250500D03*
X0353236Y0255500D03*
X0353236Y0260500D03*
X0353236Y0265500D03*
X0332764Y0265500D03*
X0332764Y0260500D03*
X0332764Y0255500D03*
X0332764Y0250500D03*
X0332764Y0289500D03*
X0332764Y0294500D03*
X0332764Y0299500D03*
X0332764Y0304500D03*
X0353236Y0304500D03*
X0353236Y0299500D03*
X0353236Y0294500D03*
X0353236Y0289500D03*
D29*
X0218858Y0286886D03*
X0216890Y0286886D03*
X0214921Y0286886D03*
X0212953Y0286886D03*
X0212953Y0296925D03*
X0214921Y0296925D03*
X0216890Y0296925D03*
X0218858Y0296925D03*
D30*
X0220925Y0294858D03*
X0220925Y0292890D03*
X0220925Y0290921D03*
X0220925Y0288953D03*
X0210886Y0288953D03*
X0210886Y0290921D03*
X0210886Y0292890D03*
X0210886Y0294858D03*
D31*
X0288000Y0222000D03*
X0298000Y0222000D03*
X0298000Y0212000D03*
X0288000Y0212000D03*
X0288000Y0202000D03*
X0298000Y0202000D03*
X0298000Y0192000D03*
X0288000Y0192000D03*
X0288000Y0182000D03*
X0298000Y0182000D03*
X0298000Y0172000D03*
X0288000Y0172000D03*
X0288000Y0162000D03*
X0298000Y0162000D03*
X0298000Y0152000D03*
X0288000Y0152000D03*
X0288000Y0142000D03*
X0298000Y0142000D03*
X0298000Y0132000D03*
X0288000Y0132000D03*
D32*
X0053622Y0254492D03*
X0053622Y0256461D03*
X0053622Y0258429D03*
X0053622Y0260398D03*
X0053622Y0262366D03*
X0053622Y0264384D03*
X0053622Y0266303D03*
X0053622Y0268321D03*
X0038661Y0268272D03*
X0038661Y0266303D03*
X0038661Y0264335D03*
X0038661Y0262366D03*
X0038661Y0260398D03*
X0038661Y0258429D03*
X0038661Y0256461D03*
X0038661Y0254492D03*
D33*
X0041387Y0269877D02*
X0050897Y0269877D01*
X0050897Y0252887D01*
X0041387Y0252887D01*
X0041387Y0269877D01*
X0041387Y0252982D02*
X0050897Y0252982D01*
X0050897Y0253077D02*
X0041387Y0253077D01*
X0041387Y0253172D02*
X0050897Y0253172D01*
X0050897Y0253267D02*
X0041387Y0253267D01*
X0041387Y0253362D02*
X0050897Y0253362D01*
X0050897Y0253457D02*
X0041387Y0253457D01*
X0041387Y0253552D02*
X0050897Y0253552D01*
X0050897Y0253647D02*
X0041387Y0253647D01*
X0041387Y0253742D02*
X0050897Y0253742D01*
X0050897Y0253837D02*
X0041387Y0253837D01*
X0041387Y0253932D02*
X0050897Y0253932D01*
X0050897Y0254027D02*
X0041387Y0254027D01*
X0041387Y0254122D02*
X0050897Y0254122D01*
X0050897Y0254217D02*
X0041387Y0254217D01*
X0041387Y0254312D02*
X0050897Y0254312D01*
X0050897Y0254407D02*
X0041387Y0254407D01*
X0041387Y0254502D02*
X0050897Y0254502D01*
X0050897Y0254597D02*
X0041387Y0254597D01*
X0041387Y0254692D02*
X0050897Y0254692D01*
X0050897Y0254787D02*
X0041387Y0254787D01*
X0041387Y0254882D02*
X0050897Y0254882D01*
X0050897Y0254977D02*
X0041387Y0254977D01*
X0041387Y0255072D02*
X0050897Y0255072D01*
X0050897Y0255167D02*
X0041387Y0255167D01*
X0041387Y0255262D02*
X0050897Y0255262D01*
X0050897Y0255357D02*
X0041387Y0255357D01*
X0041387Y0255452D02*
X0050897Y0255452D01*
X0050897Y0255547D02*
X0041387Y0255547D01*
X0041387Y0255642D02*
X0050897Y0255642D01*
X0050897Y0255737D02*
X0041387Y0255737D01*
X0041387Y0255832D02*
X0050897Y0255832D01*
X0050897Y0255927D02*
X0041387Y0255927D01*
X0041387Y0256022D02*
X0050897Y0256022D01*
X0050897Y0256117D02*
X0041387Y0256117D01*
X0041387Y0256212D02*
X0050897Y0256212D01*
X0050897Y0256307D02*
X0041387Y0256307D01*
X0041387Y0256402D02*
X0050897Y0256402D01*
X0050897Y0256497D02*
X0041387Y0256497D01*
X0041387Y0256592D02*
X0050897Y0256592D01*
X0050897Y0256687D02*
X0041387Y0256687D01*
X0041387Y0256782D02*
X0050897Y0256782D01*
X0050897Y0256877D02*
X0041387Y0256877D01*
X0041387Y0256972D02*
X0050897Y0256972D01*
X0050897Y0257067D02*
X0041387Y0257067D01*
X0041387Y0257162D02*
X0050897Y0257162D01*
X0050897Y0257257D02*
X0041387Y0257257D01*
X0041387Y0257352D02*
X0050897Y0257352D01*
X0050897Y0257447D02*
X0041387Y0257447D01*
X0041387Y0257542D02*
X0050897Y0257542D01*
X0050897Y0257637D02*
X0041387Y0257637D01*
X0041387Y0257732D02*
X0050897Y0257732D01*
X0050897Y0257827D02*
X0041387Y0257827D01*
X0041387Y0257922D02*
X0050897Y0257922D01*
X0050897Y0258017D02*
X0041387Y0258017D01*
X0041387Y0258112D02*
X0050897Y0258112D01*
X0050897Y0258207D02*
X0041387Y0258207D01*
X0041387Y0258302D02*
X0050897Y0258302D01*
X0050897Y0258397D02*
X0041387Y0258397D01*
X0041387Y0258492D02*
X0050897Y0258492D01*
X0050897Y0258587D02*
X0041387Y0258587D01*
X0041387Y0258682D02*
X0050897Y0258682D01*
X0050897Y0258777D02*
X0041387Y0258777D01*
X0041387Y0258872D02*
X0050897Y0258872D01*
X0050897Y0258967D02*
X0041387Y0258967D01*
X0041387Y0259062D02*
X0050897Y0259062D01*
X0050897Y0259157D02*
X0041387Y0259157D01*
X0041387Y0259252D02*
X0050897Y0259252D01*
X0050897Y0259347D02*
X0041387Y0259347D01*
X0041387Y0259442D02*
X0050897Y0259442D01*
X0050897Y0259537D02*
X0041387Y0259537D01*
X0041387Y0259632D02*
X0050897Y0259632D01*
X0050897Y0259727D02*
X0041387Y0259727D01*
X0041387Y0259822D02*
X0050897Y0259822D01*
X0050897Y0259917D02*
X0041387Y0259917D01*
X0041387Y0260012D02*
X0050897Y0260012D01*
X0050897Y0260107D02*
X0041387Y0260107D01*
X0041387Y0260202D02*
X0050897Y0260202D01*
X0050897Y0260297D02*
X0041387Y0260297D01*
X0041387Y0260392D02*
X0050897Y0260392D01*
X0050897Y0260487D02*
X0041387Y0260487D01*
X0041387Y0260582D02*
X0050897Y0260582D01*
X0050897Y0260677D02*
X0041387Y0260677D01*
X0041387Y0260772D02*
X0050897Y0260772D01*
X0050897Y0260867D02*
X0041387Y0260867D01*
X0041387Y0260962D02*
X0050897Y0260962D01*
X0050897Y0261057D02*
X0041387Y0261057D01*
X0041387Y0261152D02*
X0050897Y0261152D01*
X0050897Y0261247D02*
X0041387Y0261247D01*
X0041387Y0261342D02*
X0050897Y0261342D01*
X0050897Y0261437D02*
X0041387Y0261437D01*
X0041387Y0261532D02*
X0050897Y0261532D01*
X0050897Y0261627D02*
X0041387Y0261627D01*
X0041387Y0261722D02*
X0050897Y0261722D01*
X0050897Y0261817D02*
X0041387Y0261817D01*
X0041387Y0261912D02*
X0050897Y0261912D01*
X0050897Y0262007D02*
X0041387Y0262007D01*
X0041387Y0262102D02*
X0050897Y0262102D01*
X0050897Y0262197D02*
X0041387Y0262197D01*
X0041387Y0262292D02*
X0050897Y0262292D01*
X0050897Y0262387D02*
X0041387Y0262387D01*
X0041387Y0262482D02*
X0050897Y0262482D01*
X0050897Y0262577D02*
X0041387Y0262577D01*
X0041387Y0262672D02*
X0050897Y0262672D01*
X0050897Y0262767D02*
X0041387Y0262767D01*
X0041387Y0262862D02*
X0050897Y0262862D01*
X0050897Y0262957D02*
X0041387Y0262957D01*
X0041387Y0263052D02*
X0050897Y0263052D01*
X0050897Y0263147D02*
X0041387Y0263147D01*
X0041387Y0263242D02*
X0050897Y0263242D01*
X0050897Y0263337D02*
X0041387Y0263337D01*
X0041387Y0263432D02*
X0050897Y0263432D01*
X0050897Y0263527D02*
X0041387Y0263527D01*
X0041387Y0263622D02*
X0050897Y0263622D01*
X0050897Y0263717D02*
X0041387Y0263717D01*
X0041387Y0263812D02*
X0050897Y0263812D01*
X0050897Y0263907D02*
X0041387Y0263907D01*
X0041387Y0264002D02*
X0050897Y0264002D01*
X0050897Y0264097D02*
X0041387Y0264097D01*
X0041387Y0264192D02*
X0050897Y0264192D01*
X0050897Y0264287D02*
X0041387Y0264287D01*
X0041387Y0264382D02*
X0050897Y0264382D01*
X0050897Y0264477D02*
X0041387Y0264477D01*
X0041387Y0264572D02*
X0050897Y0264572D01*
X0050897Y0264667D02*
X0041387Y0264667D01*
X0041387Y0264762D02*
X0050897Y0264762D01*
X0050897Y0264857D02*
X0041387Y0264857D01*
X0041387Y0264952D02*
X0050897Y0264952D01*
X0050897Y0265047D02*
X0041387Y0265047D01*
X0041387Y0265142D02*
X0050897Y0265142D01*
X0050897Y0265237D02*
X0041387Y0265237D01*
X0041387Y0265332D02*
X0050897Y0265332D01*
X0050897Y0265427D02*
X0041387Y0265427D01*
X0041387Y0265522D02*
X0050897Y0265522D01*
X0050897Y0265617D02*
X0041387Y0265617D01*
X0041387Y0265712D02*
X0050897Y0265712D01*
X0050897Y0265807D02*
X0041387Y0265807D01*
X0041387Y0265902D02*
X0050897Y0265902D01*
X0050897Y0265997D02*
X0041387Y0265997D01*
X0041387Y0266092D02*
X0050897Y0266092D01*
X0050897Y0266187D02*
X0041387Y0266187D01*
X0041387Y0266282D02*
X0050897Y0266282D01*
X0050897Y0266377D02*
X0041387Y0266377D01*
X0041387Y0266472D02*
X0050897Y0266472D01*
X0050897Y0266567D02*
X0041387Y0266567D01*
X0041387Y0266662D02*
X0050897Y0266662D01*
X0050897Y0266757D02*
X0041387Y0266757D01*
X0041387Y0266852D02*
X0050897Y0266852D01*
X0050897Y0266947D02*
X0041387Y0266947D01*
X0041387Y0267042D02*
X0050897Y0267042D01*
X0050897Y0267137D02*
X0041387Y0267137D01*
X0041387Y0267232D02*
X0050897Y0267232D01*
X0050897Y0267327D02*
X0041387Y0267327D01*
X0041387Y0267422D02*
X0050897Y0267422D01*
X0050897Y0267517D02*
X0041387Y0267517D01*
X0041387Y0267612D02*
X0050897Y0267612D01*
X0050897Y0267707D02*
X0041387Y0267707D01*
X0041387Y0267802D02*
X0050897Y0267802D01*
X0050897Y0267897D02*
X0041387Y0267897D01*
X0041387Y0267992D02*
X0050897Y0267992D01*
X0050897Y0268087D02*
X0041387Y0268087D01*
X0041387Y0268182D02*
X0050897Y0268182D01*
X0050897Y0268277D02*
X0041387Y0268277D01*
X0041387Y0268372D02*
X0050897Y0268372D01*
X0050897Y0268467D02*
X0041387Y0268467D01*
X0041387Y0268562D02*
X0050897Y0268562D01*
X0050897Y0268657D02*
X0041387Y0268657D01*
X0041387Y0268752D02*
X0050897Y0268752D01*
X0050897Y0268847D02*
X0041387Y0268847D01*
X0041387Y0268942D02*
X0050897Y0268942D01*
X0050897Y0269037D02*
X0041387Y0269037D01*
X0041387Y0269132D02*
X0050897Y0269132D01*
X0050897Y0269227D02*
X0041387Y0269227D01*
X0041387Y0269322D02*
X0050897Y0269322D01*
X0050897Y0269417D02*
X0041387Y0269417D01*
X0041387Y0269512D02*
X0050897Y0269512D01*
X0050897Y0269607D02*
X0041387Y0269607D01*
X0041387Y0269702D02*
X0050897Y0269702D01*
X0050897Y0269797D02*
X0041387Y0269797D01*
D34*
X0039000Y0166953D03*
X0025000Y0166953D03*
X0025000Y0155142D03*
X0039000Y0155142D03*
X0054000Y0155142D03*
X0054000Y0166953D03*
D35*
X0169929Y0250063D03*
X0169929Y0252031D03*
X0169929Y0254000D03*
X0169929Y0255969D03*
X0169929Y0257937D03*
X0186071Y0257937D03*
X0186071Y0255969D03*
X0186071Y0254000D03*
X0186071Y0252031D03*
X0186071Y0250063D03*
D36*
X0188811Y0123461D03*
X0188811Y0118500D03*
X0188811Y0113500D03*
X0188811Y0108539D03*
X0165189Y0108539D03*
X0165189Y0113500D03*
X0165189Y0118500D03*
X0165189Y0123461D03*
D37*
X0177000Y0116000D03*
D38*
X0062480Y0191291D03*
X0062480Y0196409D03*
X0055984Y0196409D03*
X0055984Y0193850D03*
X0055984Y0191291D03*
X0055984Y0208291D03*
X0055984Y0210850D03*
X0055984Y0213409D03*
X0062480Y0213409D03*
X0062480Y0208291D03*
D39*
X0147252Y0193654D03*
X0149220Y0193654D03*
X0151189Y0193654D03*
X0153157Y0193654D03*
X0155126Y0193654D03*
X0157094Y0193654D03*
X0159063Y0193654D03*
X0161031Y0193654D03*
X0163000Y0193654D03*
X0164969Y0193654D03*
X0166937Y0193654D03*
X0168906Y0193654D03*
X0170874Y0193654D03*
X0172843Y0193654D03*
X0174811Y0193654D03*
X0176780Y0193654D03*
X0176780Y0150346D03*
X0174811Y0150346D03*
X0172843Y0150346D03*
X0170874Y0150346D03*
X0168906Y0150346D03*
X0166937Y0150346D03*
X0164969Y0150346D03*
X0163000Y0150346D03*
X0161031Y0150346D03*
X0159063Y0150346D03*
X0157094Y0150346D03*
X0155126Y0150346D03*
X0153157Y0150346D03*
X0151189Y0150346D03*
X0149220Y0150346D03*
X0147252Y0150346D03*
D40*
X0140362Y0157236D03*
X0140362Y0159205D03*
X0140362Y0161173D03*
X0140362Y0163142D03*
X0140362Y0165110D03*
X0140362Y0167079D03*
X0140362Y0169047D03*
X0140362Y0171016D03*
X0140362Y0172984D03*
X0140362Y0174953D03*
X0140362Y0176921D03*
X0140362Y0178890D03*
X0140362Y0180858D03*
X0140362Y0182827D03*
X0140362Y0184795D03*
X0140362Y0186764D03*
X0183669Y0186764D03*
X0183669Y0184795D03*
X0183669Y0182827D03*
X0183669Y0180858D03*
X0183669Y0178890D03*
X0183669Y0176921D03*
X0183669Y0174953D03*
X0183669Y0172984D03*
X0183669Y0171016D03*
X0183669Y0169047D03*
X0183669Y0167079D03*
X0183669Y0165110D03*
X0183669Y0163142D03*
X0183669Y0161173D03*
X0183669Y0159205D03*
X0183669Y0157236D03*
D41*
X0084457Y0229543D02*
X0084457Y0248000D01*
X0090543Y0260000D02*
X0098543Y0260000D01*
X0098600Y0259943D01*
X0099000Y0259943D01*
X0099000Y0264000D01*
X0095000Y0271000D02*
X0090543Y0271000D01*
X0089543Y0272000D01*
X0089543Y0282000D02*
X0089543Y0289000D01*
X0097543Y0297000D01*
X0099000Y0298000D01*
X0113000Y0277000D02*
X0117548Y0272452D01*
X0117548Y0268008D01*
X0119500Y0267997D02*
X0119500Y0277400D01*
X0119522Y0267997D02*
X0119500Y0267997D01*
X0119522Y0267997D02*
X0119522Y0261473D01*
X0121546Y0261473D01*
X0121494Y0261473D01*
X0121494Y0254952D01*
X0117551Y0254947D02*
X0113053Y0254947D01*
X0140000Y0257000D02*
X0140000Y0268000D01*
X0141000Y0268000D01*
X0138654Y0270346D01*
X0138654Y0281000D01*
X0138654Y0285346D01*
X0129000Y0295000D01*
X0129000Y0298000D01*
X0145346Y0281000D02*
X0151000Y0281000D01*
X0151000Y0277000D01*
X0148500Y0274500D01*
X0148500Y0268997D01*
X0148522Y0268997D01*
X0148522Y0264497D01*
X0150546Y0262473D01*
X0150546Y0256004D01*
X0150494Y0255952D01*
X0146551Y0255947D02*
X0141053Y0255947D01*
X0140000Y0257000D01*
X0141000Y0268000D02*
X0145540Y0268000D01*
X0146548Y0269008D01*
X0163000Y0256000D02*
X0165031Y0255969D01*
X0169929Y0255969D01*
X0234000Y0295543D02*
X0234000Y0299543D01*
X0229543Y0304000D01*
X0234000Y0295543D02*
X0246000Y0295543D01*
X0084000Y0229000D02*
X0075000Y0229000D01*
X0075000Y0233457D01*
X0074457Y0234000D02*
X0058543Y0234000D01*
X0058043Y0236000D02*
X0062000Y0236000D01*
X0062000Y0256461D01*
X0053622Y0256461D01*
X0053622Y0258429D02*
X0065100Y0258429D01*
X0065543Y0258500D02*
X0065543Y0241000D01*
X0067000Y0241000D02*
X0070000Y0238000D01*
X0047000Y0261524D02*
X0046142Y0261382D01*
X0047000Y0261524D02*
X0047000Y0275000D01*
X0054000Y0155142D02*
X0039000Y0155142D01*
X0025000Y0155142D01*
X0039000Y0155142D02*
X0039000Y0148000D01*
D42*
X0054000Y0176000D03*
X0063000Y0183000D03*
X0056000Y0187000D03*
X0068700Y0196400D03*
X0056000Y0204000D03*
X0067600Y0213400D03*
X0074700Y0208200D03*
X0070000Y0238000D03*
X0069000Y0246000D03*
X0078000Y0254000D03*
X0059000Y0262000D03*
X0064000Y0268000D03*
X0057000Y0274000D03*
X0047000Y0275000D03*
X0042000Y0279000D03*
X0026000Y0272000D03*
X0021000Y0252000D03*
X0034000Y0253000D03*
X0045000Y0249000D03*
X0036000Y0241000D03*
X0070000Y0275000D03*
X0077000Y0282000D03*
X0095000Y0271000D03*
X0099000Y0264000D03*
X0113053Y0254947D03*
X0129000Y0255000D03*
X0125000Y0272000D03*
X0119500Y0277400D03*
X0151000Y0286000D03*
X0155000Y0273000D03*
X0169000Y0263000D03*
X0163000Y0256000D03*
X0155000Y0252000D03*
X0187000Y0238000D03*
X0196000Y0229000D03*
X0166500Y0214500D03*
X0184000Y0205000D03*
X0169000Y0200000D03*
X0153000Y0200000D03*
X0144000Y0208000D03*
X0133000Y0219000D03*
X0116000Y0200000D03*
X0116300Y0193200D03*
X0153000Y0176000D03*
X0158000Y0171000D03*
X0148000Y0165000D03*
X0155000Y0158000D03*
X0172000Y0162000D03*
X0175000Y0157000D03*
X0178000Y0167000D03*
X0196000Y0165000D03*
X0208000Y0157000D03*
X0204000Y0181000D03*
X0194000Y0185000D03*
X0175000Y0183000D03*
X0169000Y0187000D03*
X0163000Y0187000D03*
X0135000Y0152000D03*
X0122000Y0150000D03*
X0099000Y0163000D03*
X0144400Y0135000D03*
X0171000Y0139000D03*
X0179000Y0145000D03*
X0189000Y0134000D03*
X0195000Y0119000D03*
X0237000Y0125000D03*
X0260000Y0113000D03*
X0212000Y0066000D03*
X0167000Y0052000D03*
X0147000Y0060000D03*
X0119000Y0073000D03*
X0114000Y0081000D03*
X0089000Y0065000D03*
X0063000Y0046000D03*
X0149000Y0114000D03*
X0116000Y0123000D03*
X0202000Y0274000D03*
X0202000Y0289000D03*
X0182000Y0289000D03*
X0175000Y0281000D03*
X0193000Y0302000D03*
X0209000Y0304000D03*
X0216000Y0305000D03*
X0223000Y0299000D03*
X0227200Y0294300D03*
X0225000Y0287000D03*
X0231000Y0283000D03*
X0246000Y0281000D03*
X0365400Y0294400D03*
X0386000Y0278000D03*
X0042000Y0298000D03*
D43*
X0048346Y0304000D02*
X0048346Y0276346D01*
X0047000Y0275000D01*
X0076543Y0260000D02*
X0078000Y0258000D01*
X0078000Y0254000D01*
X0106000Y0268654D02*
X0107310Y0267946D01*
X0117548Y0268008D01*
X0121485Y0267997D02*
X0121501Y0268013D01*
X0123454Y0268013D01*
X0125426Y0268013D01*
X0125000Y0268439D01*
X0125000Y0272000D01*
X0125746Y0272746D01*
X0132500Y0272746D01*
X0132500Y0266054D02*
X0128054Y0266054D01*
X0124000Y0262000D01*
X0122073Y0262000D01*
X0121546Y0261473D01*
X0125468Y0255000D02*
X0129000Y0255000D01*
X0125468Y0255000D02*
X0125420Y0254952D01*
X0150546Y0262473D02*
X0151073Y0263000D01*
X0153000Y0263000D01*
X0157000Y0267000D01*
X0158000Y0267000D01*
X0162546Y0262454D01*
X0163000Y0262454D01*
X0163000Y0269146D02*
X0163000Y0273000D01*
X0155000Y0273000D01*
X0155000Y0269587D01*
X0154426Y0269013D01*
X0152454Y0269013D01*
X0150501Y0269013D01*
X0150485Y0268997D01*
X0163000Y0273000D02*
X0164000Y0273000D01*
X0164000Y0280654D01*
X0164346Y0281000D01*
X0151000Y0281000D02*
X0151000Y0286000D01*
X0182000Y0289000D02*
X0182057Y0289057D01*
X0186457Y0289057D01*
X0186500Y0289100D01*
X0186457Y0289143D01*
X0186457Y0296000D01*
X0186457Y0289057D02*
X0186457Y0281000D01*
X0202000Y0289000D02*
X0206000Y0289000D01*
X0206000Y0292000D01*
X0206890Y0292890D01*
X0210886Y0292890D01*
X0210886Y0288953D02*
X0206047Y0288953D01*
X0206000Y0289000D01*
X0220925Y0288953D02*
X0223047Y0288953D01*
X0225000Y0287000D01*
X0225390Y0292890D02*
X0220925Y0292890D01*
X0225390Y0292890D02*
X0227200Y0294300D01*
X0228043Y0295543D01*
X0234000Y0295543D01*
X0246000Y0288457D02*
X0246000Y0281000D01*
X0218858Y0296925D02*
X0218858Y0301142D01*
X0217000Y0303000D01*
X0217000Y0304000D01*
X0216000Y0305000D01*
X0218000Y0304000D02*
X0217000Y0303000D01*
X0218000Y0304000D02*
X0222457Y0304000D01*
X0155000Y0255372D02*
X0155000Y0252000D01*
X0166000Y0252000D01*
X0168000Y0254000D01*
X0169929Y0254000D01*
X0155000Y0255372D02*
X0154420Y0255952D01*
X0186071Y0250063D02*
X0187000Y0249134D01*
X0187000Y0238000D01*
X0200457Y0238000D01*
X0201000Y0237457D01*
X0166543Y0214457D02*
X0166500Y0214500D01*
X0166543Y0214457D02*
X0166543Y0206000D01*
X0165000Y0204457D01*
X0165000Y0199000D01*
X0164969Y0198969D01*
X0164969Y0193654D01*
X0150000Y0189300D02*
X0150000Y0187000D01*
X0148000Y0187000D01*
X0146000Y0189000D01*
X0123000Y0189000D01*
X0115000Y0181000D01*
X0115000Y0180000D01*
X0098000Y0180000D01*
X0097000Y0180000D01*
X0043866Y0126866D01*
X0033937Y0126866D01*
X0033937Y0111118D01*
X0104898Y0086500D02*
X0133764Y0086500D01*
X0134764Y0085500D01*
X0134764Y0089764D01*
X0153539Y0108539D01*
X0165189Y0108539D01*
X0157400Y0108500D01*
X0157000Y0102000D01*
X0146500Y0124500D02*
X0140000Y0122000D01*
X0146500Y0124500D02*
X0151500Y0124500D01*
X0151543Y0129000D01*
X0144457Y0129000D02*
X0144457Y0134943D01*
X0144400Y0135000D01*
X0147252Y0137852D01*
X0147252Y0150346D01*
X0174811Y0150346D02*
X0174811Y0156811D01*
X0175000Y0157000D01*
X0178000Y0167000D02*
X0179079Y0167079D01*
X0183669Y0167079D01*
X0200000Y0152000D02*
X0197000Y0149000D01*
X0200000Y0152000D02*
X0201457Y0152000D01*
X0208543Y0152000D02*
X0208543Y0156457D01*
X0208000Y0157000D01*
X0208000Y0161457D01*
X0208543Y0152000D02*
X0209457Y0151087D01*
X0209457Y0141000D01*
X0209543Y0134000D02*
X0216543Y0141000D01*
X0223000Y0141000D01*
X0209543Y0134000D02*
X0200543Y0134000D01*
X0193457Y0134000D02*
X0189000Y0134000D01*
X0188811Y0133811D01*
X0188811Y0123461D01*
X0222000Y0114000D02*
X0230260Y0114000D01*
X0254543Y0113000D02*
X0260000Y0113000D01*
X0265457Y0113000D01*
X0272543Y0113000D02*
X0272543Y0120457D01*
X0272000Y0121000D01*
X0322000Y0076543D02*
X0342484Y0076543D01*
X0347000Y0072028D01*
X0358972Y0084000D01*
X0401000Y0084000D01*
X0421000Y0084000D01*
X0432937Y0072063D01*
X0432937Y0070874D01*
X0425063Y0070874D02*
X0421937Y0074000D01*
X0401000Y0074000D01*
X0367031Y0074000D01*
X0356031Y0063000D01*
X0347000Y0053972D02*
X0366972Y0053972D01*
X0377000Y0064000D01*
X0401000Y0064000D01*
X0424063Y0064000D01*
X0425063Y0063000D01*
X0425063Y0055126D02*
X0413937Y0044000D01*
X0401000Y0044000D01*
X0401000Y0034000D02*
X0411811Y0034000D01*
X0432937Y0055126D01*
X0405500Y0099500D02*
X0380236Y0099500D01*
X0380236Y0104500D02*
X0400500Y0104500D01*
X0419000Y0123000D01*
X0423000Y0119000D01*
X0434000Y0119000D01*
X0434000Y0126874D02*
X0425126Y0126874D01*
X0419000Y0133000D01*
X0424000Y0133000D01*
X0428000Y0135000D01*
X0428000Y0195000D01*
X0403000Y0217000D01*
X0382736Y0217000D01*
X0382236Y0216500D01*
X0382236Y0211500D02*
X0382736Y0211000D01*
X0400000Y0211000D01*
X0404000Y0207000D01*
X0404000Y0198000D01*
X0398000Y0179000D02*
X0381736Y0179000D01*
X0381236Y0178500D01*
X0381236Y0173500D02*
X0418500Y0173500D01*
X0419000Y0173000D01*
X0419370Y0173000D01*
X0419000Y0163000D02*
X0415000Y0163000D01*
X0388000Y0136000D01*
X0381736Y0136000D01*
X0381236Y0136500D01*
X0381236Y0141500D02*
X0381736Y0142000D01*
X0389000Y0142000D01*
X0404000Y0157000D01*
X0404000Y0164000D01*
X0441874Y0158370D02*
X0442504Y0159000D01*
X0454000Y0159000D01*
X0443370Y0149000D02*
X0441874Y0150496D01*
X0443370Y0149000D02*
X0454000Y0149000D01*
X0454000Y0139000D02*
X0445496Y0139000D01*
X0441874Y0142622D01*
X0441874Y0134748D02*
X0447622Y0129000D01*
X0454000Y0129000D01*
X0441874Y0119000D02*
X0425874Y0103000D01*
X0419000Y0103000D01*
X0419000Y0113000D02*
X0405500Y0099500D01*
X0337969Y0063000D02*
X0336969Y0064000D01*
X0325000Y0064000D01*
X0322000Y0069457D01*
X0150000Y0189300D02*
X0149300Y0190000D01*
X0149300Y0193574D01*
X0149220Y0193654D01*
X0131100Y0182900D02*
X0131100Y0179100D01*
X0131000Y0179000D01*
X0184000Y0205000D02*
X0202000Y0205000D01*
X0205000Y0202000D01*
X0113000Y0282000D02*
X0106346Y0275346D01*
X0106000Y0275346D01*
X0113000Y0282000D02*
X0118000Y0282000D01*
X0118000Y0278900D01*
X0119500Y0277400D01*
X0055984Y0208291D02*
X0055984Y0204016D01*
X0056000Y0204000D01*
X0055984Y0191291D02*
X0055984Y0189016D01*
X0056000Y0187000D01*
X0134764Y0085500D02*
X0134764Y0080500D01*
X0134764Y0075500D01*
X0067201Y0051500D02*
X0063000Y0047299D01*
X0063000Y0046000D01*
X0062457Y0045457D01*
X0055000Y0045457D01*
X0397000Y0262457D02*
X0398457Y0261000D01*
X0398457Y0253543D01*
X0410031Y0241969D01*
X0430000Y0241969D01*
X0420972Y0251000D02*
X0410972Y0261000D01*
X0405543Y0261000D01*
X0407000Y0262457D01*
X0407000Y0277000D01*
X0405189Y0278811D01*
X0405189Y0288063D01*
X0398457Y0286921D02*
X0398457Y0278457D01*
X0397000Y0277000D01*
X0397000Y0262457D01*
X0413063Y0280937D02*
X0417000Y0277000D01*
X0413063Y0280937D02*
X0413063Y0288063D01*
X0420937Y0288063D02*
X0420937Y0283063D01*
X0427000Y0277000D01*
X0430000Y0274000D01*
X0430000Y0260031D01*
X0437000Y0253028D02*
X0439028Y0251000D01*
X0437000Y0253028D02*
X0437000Y0277000D01*
X0428811Y0285189D01*
X0428811Y0288063D01*
X0436685Y0288063D02*
X0447000Y0277748D01*
X0447000Y0277000D01*
X0436685Y0295937D02*
X0436685Y0297685D01*
X0447000Y0308000D01*
X0437000Y0308000D02*
X0428811Y0299811D01*
X0428811Y0295937D01*
X0420937Y0295937D02*
X0420937Y0301937D01*
X0427000Y0308000D01*
X0417000Y0308000D02*
X0413063Y0304063D01*
X0413063Y0295937D01*
X0405189Y0295937D02*
X0405189Y0306189D01*
X0407000Y0308000D01*
X0397000Y0308000D02*
X0395400Y0306400D01*
X0395400Y0299500D01*
D44*
X0288000Y0192000D02*
X0262000Y0192000D01*
X0245000Y0175000D01*
X0183717Y0175000D01*
X0183669Y0174953D01*
X0183685Y0173000D02*
X0248000Y0173000D01*
X0258000Y0182000D01*
X0288000Y0182000D01*
X0225000Y0221000D02*
X0225000Y0251000D01*
X0202000Y0274000D01*
X0200543Y0274000D01*
X0193543Y0281000D01*
X0193543Y0288543D01*
X0200000Y0295000D01*
X0210744Y0295000D01*
X0210886Y0294858D01*
X0212953Y0296925D02*
X0213000Y0296972D01*
X0213000Y0299000D01*
X0208000Y0299000D01*
X0207000Y0298000D01*
X0200000Y0298000D01*
X0198000Y0296000D01*
X0193543Y0296000D01*
X0193543Y0301457D01*
X0193000Y0302000D01*
X0209000Y0304000D02*
X0214921Y0300079D01*
X0214921Y0296925D01*
X0220925Y0294858D02*
X0223000Y0294833D01*
X0223000Y0299000D01*
X0221004Y0291000D02*
X0220925Y0290921D01*
X0221004Y0291000D02*
X0228000Y0291000D01*
X0230543Y0288457D01*
X0234000Y0288457D01*
X0231000Y0283000D02*
X0231543Y0282457D01*
X0231543Y0276000D01*
X0224457Y0276000D02*
X0219000Y0276000D01*
X0219000Y0286744D01*
X0218858Y0286886D01*
X0205000Y0262000D02*
X0190134Y0262000D01*
X0186071Y0257937D01*
X0186102Y0256000D02*
X0186071Y0255969D01*
X0186102Y0256000D02*
X0196000Y0256000D01*
X0197543Y0257543D01*
X0200000Y0257543D01*
X0205000Y0262000D02*
X0209000Y0258000D01*
X0209000Y0235000D01*
X0203000Y0229000D01*
X0196000Y0229000D01*
X0198457Y0244543D02*
X0191000Y0252000D01*
X0186102Y0252000D01*
X0186071Y0252031D01*
X0181969Y0252031D01*
X0181000Y0253000D01*
X0181000Y0283000D01*
X0160000Y0297000D01*
X0157654Y0281000D02*
X0151000Y0281000D01*
X0175000Y0281000D02*
X0176780Y0279220D01*
X0176780Y0193654D01*
X0174811Y0193654D02*
X0174811Y0245181D01*
X0169929Y0250063D01*
X0169929Y0257937D02*
X0169000Y0258866D01*
X0169000Y0263000D01*
X0152451Y0255939D02*
X0152451Y0254451D01*
X0151000Y0253000D01*
X0151000Y0247000D01*
X0152000Y0246000D01*
X0152000Y0245512D01*
X0159512Y0238000D01*
X0148488Y0238000D02*
X0148488Y0240688D01*
X0148500Y0240700D01*
X0148500Y0255925D01*
X0148522Y0255947D01*
X0123451Y0254939D02*
X0123451Y0240061D01*
X0129512Y0234000D01*
X0119700Y0235800D02*
X0118488Y0234588D01*
X0118488Y0234000D01*
X0119700Y0235800D02*
X0119700Y0254769D01*
X0119522Y0254947D01*
X0111000Y0248000D02*
X0111000Y0232000D01*
X0103000Y0232000D01*
X0111000Y0232000D02*
X0111000Y0227000D01*
X0115000Y0223000D01*
X0136100Y0222900D01*
X0159000Y0200000D01*
X0159000Y0193717D01*
X0159063Y0193654D01*
X0161031Y0193654D02*
X0161031Y0191031D01*
X0159000Y0189000D01*
X0159000Y0179000D01*
X0169000Y0169000D01*
X0171000Y0169000D01*
X0172000Y0170000D01*
X0167000Y0166000D02*
X0167000Y0150409D01*
X0166937Y0150346D01*
X0165000Y0150315D02*
X0164969Y0150346D01*
X0165000Y0150315D02*
X0165000Y0136000D01*
X0174000Y0127000D01*
X0186000Y0127000D01*
X0186000Y0116000D01*
X0188500Y0113500D01*
X0188811Y0113500D01*
X0188811Y0108539D02*
X0187461Y0108539D01*
X0184000Y0112000D01*
X0184000Y0123000D01*
X0183000Y0124000D01*
X0174000Y0124000D01*
X0163000Y0135000D01*
X0163000Y0150346D01*
X0161031Y0150346D02*
X0161000Y0150315D01*
X0161000Y0133000D01*
X0168000Y0126000D01*
X0168000Y0121000D01*
X0165500Y0118500D01*
X0165189Y0118500D01*
X0165189Y0123461D02*
X0162539Y0123461D01*
X0159000Y0127000D01*
X0159000Y0150283D01*
X0159063Y0150346D01*
X0157094Y0150346D02*
X0157000Y0150252D01*
X0157000Y0121000D01*
X0164500Y0113500D01*
X0165189Y0113500D01*
X0155000Y0123000D02*
X0155000Y0135000D01*
X0153157Y0136843D01*
X0153157Y0150346D01*
X0155000Y0150472D02*
X0155126Y0150346D01*
X0155000Y0150472D02*
X0155000Y0158000D01*
X0151189Y0156811D02*
X0151189Y0150346D01*
X0149220Y0150346D02*
X0149000Y0150126D01*
X0149000Y0133000D01*
X0151543Y0130457D01*
X0151543Y0129000D01*
X0155000Y0123000D02*
X0149000Y0117000D01*
X0149000Y0114000D01*
X0116000Y0123000D02*
X0116000Y0124000D01*
X0150000Y0158000D01*
X0151189Y0156811D01*
X0148000Y0165000D02*
X0140472Y0165000D01*
X0140362Y0165110D01*
X0140362Y0163142D02*
X0099142Y0163142D01*
X0099000Y0163000D01*
X0098000Y0180000D02*
X0083000Y0180000D01*
X0063000Y0183000D02*
X0063000Y0190772D01*
X0062480Y0191291D01*
X0059900Y0193300D02*
X0116200Y0193300D01*
X0116300Y0193200D01*
X0116000Y0200000D02*
X0057000Y0200000D01*
X0055984Y0198984D01*
X0055984Y0196409D01*
X0055984Y0193850D02*
X0059350Y0193850D01*
X0059900Y0193300D01*
X0041000Y0185000D02*
X0041000Y0204000D01*
X0047850Y0210850D01*
X0055984Y0210850D01*
X0055984Y0213409D02*
X0056000Y0213425D01*
X0056000Y0218000D01*
X0057000Y0219000D01*
X0133000Y0219000D01*
X0144000Y0208000D02*
X0144000Y0205000D01*
X0149000Y0200000D01*
X0149000Y0198000D01*
X0151189Y0195811D01*
X0151189Y0193654D01*
X0153000Y0193811D02*
X0153157Y0193654D01*
X0153000Y0193811D02*
X0153000Y0200000D01*
X0155126Y0193654D02*
X0155126Y0189126D01*
X0153000Y0176000D01*
X0157094Y0171906D02*
X0158000Y0171000D01*
X0157094Y0171906D02*
X0157094Y0193654D01*
X0163000Y0193654D02*
X0163000Y0187000D01*
X0168906Y0187094D02*
X0169000Y0187000D01*
X0168906Y0187094D02*
X0168906Y0193654D01*
X0170874Y0193654D02*
X0170874Y0195874D01*
X0172000Y0197000D01*
X0172000Y0209200D01*
X0171200Y0210000D01*
X0180000Y0208000D02*
X0182000Y0210000D01*
X0191000Y0210000D01*
X0194000Y0207000D01*
X0209000Y0207000D01*
X0215000Y0213000D01*
X0184000Y0205000D02*
X0183669Y0204669D01*
X0183669Y0186764D01*
X0183874Y0185000D02*
X0183669Y0184795D01*
X0183874Y0185000D02*
X0194000Y0185000D01*
X0183669Y0182827D02*
X0183496Y0183000D01*
X0175000Y0183000D01*
X0173000Y0188000D02*
X0179000Y0188000D01*
X0179000Y0189000D01*
X0180000Y0190000D01*
X0180000Y0208000D01*
X0169000Y0200000D02*
X0166937Y0197937D01*
X0166937Y0193654D01*
X0163000Y0193654D02*
X0163000Y0202457D01*
X0159457Y0206000D01*
X0147252Y0193654D02*
X0130346Y0193654D01*
X0120000Y0204000D01*
X0105000Y0204000D01*
X0096000Y0213000D01*
X0074700Y0208200D02*
X0062572Y0208200D01*
X0062480Y0208291D01*
X0032559Y0200866D02*
X0028400Y0196707D01*
X0028400Y0181200D01*
X0039000Y0170600D01*
X0039000Y0166953D01*
X0025000Y0166953D02*
X0025000Y0184803D01*
X0024685Y0185118D01*
X0032559Y0185118D02*
X0040882Y0185118D01*
X0041000Y0185000D01*
X0054000Y0176000D02*
X0054000Y0166953D01*
X0122000Y0161000D02*
X0122000Y0150000D01*
X0128900Y0146900D02*
X0080000Y0098000D01*
X0063000Y0098000D01*
X0057000Y0092000D01*
X0057000Y0082000D01*
X0066701Y0082000D01*
X0067201Y0081500D01*
X0067701Y0081000D01*
X0067201Y0076500D02*
X0034500Y0076500D01*
X0030000Y0079622D01*
X0030000Y0071748D02*
X0035126Y0067000D01*
X0044000Y0068000D01*
X0047500Y0071500D01*
X0067201Y0071500D01*
X0067201Y0066500D02*
X0066701Y0066000D01*
X0053000Y0066000D01*
X0047000Y0060000D01*
X0035000Y0060000D01*
X0031063Y0063937D01*
X0030000Y0063874D01*
X0030000Y0056000D02*
X0035000Y0051000D01*
X0043000Y0051000D01*
X0053000Y0061000D01*
X0066701Y0061000D01*
X0067201Y0061500D01*
X0067201Y0056500D02*
X0058957Y0056500D01*
X0055000Y0052543D01*
X0067201Y0056500D02*
X0088500Y0056500D01*
X0089000Y0056000D01*
X0089000Y0065000D01*
X0089000Y0056000D02*
X0094000Y0051000D01*
X0104398Y0051000D01*
X0104898Y0051500D01*
X0104898Y0056500D02*
X0111500Y0056500D01*
X0114000Y0054000D01*
X0114000Y0045000D01*
X0077378Y0045000D01*
X0062315Y0029937D01*
X0070189Y0029937D02*
X0082252Y0042000D01*
X0117000Y0042000D01*
X0117000Y0057000D01*
X0112500Y0061500D01*
X0104898Y0061500D01*
X0104898Y0066500D02*
X0111500Y0066500D01*
X0121000Y0057000D01*
X0121000Y0042000D01*
X0118000Y0039000D01*
X0087126Y0039000D01*
X0078063Y0029937D01*
X0085937Y0029937D02*
X0092000Y0036000D01*
X0121000Y0036000D01*
X0125000Y0040000D01*
X0125000Y0057000D01*
X0110500Y0071500D01*
X0104898Y0071500D01*
X0104898Y0076500D02*
X0115500Y0076500D01*
X0119000Y0073000D01*
X0114000Y0081000D02*
X0105398Y0081000D01*
X0104898Y0081500D01*
X0134764Y0070500D02*
X0136500Y0070500D01*
X0147000Y0060000D01*
X0155236Y0070500D02*
X0155236Y0045764D01*
X0162000Y0039000D01*
X0162000Y0038900D01*
X0162800Y0038100D01*
X0162800Y0026137D01*
X0166874Y0022063D01*
X0173000Y0024000D02*
X0173000Y0017000D01*
X0171000Y0015000D01*
X0093000Y0015000D01*
X0085937Y0022063D01*
X0155236Y0070500D02*
X0155236Y0075500D01*
X0155236Y0080500D01*
X0155236Y0085500D01*
X0167000Y0052000D02*
X0167000Y0030063D01*
X0166874Y0029937D01*
X0167063Y0029937D01*
X0173000Y0024000D01*
X0072500Y0086500D02*
X0132000Y0146000D01*
X0135000Y0146000D01*
X0155000Y0166000D01*
X0167000Y0166000D01*
X0172000Y0162000D02*
X0172000Y0160000D01*
X0171000Y0159000D01*
X0171000Y0155000D01*
X0173000Y0153000D01*
X0173000Y0150504D01*
X0172843Y0150346D01*
X0171000Y0150220D02*
X0170874Y0150346D01*
X0171000Y0150220D02*
X0171000Y0145000D01*
X0179000Y0145000D01*
X0171000Y0140000D02*
X0169000Y0142000D01*
X0169000Y0150252D01*
X0168906Y0150346D01*
X0176780Y0150346D02*
X0195654Y0150346D01*
X0197000Y0149000D01*
X0197000Y0137543D01*
X0200543Y0134000D01*
X0195000Y0119000D02*
X0194500Y0118500D01*
X0188811Y0118500D01*
X0171000Y0139000D02*
X0171000Y0140000D01*
X0201457Y0152000D02*
X0201457Y0164457D01*
X0202000Y0165000D01*
X0215000Y0165000D01*
X0215000Y0171000D01*
X0183685Y0171000D01*
X0183669Y0171016D01*
X0183669Y0172984D02*
X0183685Y0173000D01*
X0183669Y0169047D02*
X0184073Y0169043D01*
X0208000Y0168543D01*
X0196000Y0165000D02*
X0192000Y0163000D01*
X0183811Y0163000D01*
X0183669Y0163142D01*
X0183669Y0180858D02*
X0203858Y0180858D01*
X0204000Y0181000D01*
X0173000Y0188000D02*
X0172843Y0188157D01*
X0172843Y0193654D01*
X0140362Y0178890D02*
X0140252Y0179000D01*
X0131000Y0179000D01*
X0128000Y0179000D01*
X0124457Y0182543D01*
X0124000Y0182543D01*
X0128000Y0177000D02*
X0140283Y0177000D01*
X0140362Y0176921D01*
X0128000Y0177000D02*
X0126457Y0175457D01*
X0124000Y0175457D01*
X0122173Y0161173D02*
X0122000Y0161000D01*
X0122173Y0161173D02*
X0140362Y0161173D01*
X0140362Y0159205D02*
X0140357Y0159200D01*
X0128900Y0159200D01*
X0128900Y0146900D01*
X0135000Y0152000D02*
X0140236Y0157236D01*
X0140362Y0157236D01*
X0237000Y0125000D02*
X0237000Y0114740D01*
X0237740Y0114000D01*
X0238740Y0113000D01*
X0247457Y0113000D01*
X0084457Y0229543D02*
X0084000Y0229000D01*
X0081543Y0234000D02*
X0082000Y0234457D01*
X0082000Y0241000D01*
X0080543Y0242457D01*
X0074000Y0242457D01*
X0069000Y0246000D02*
X0072543Y0249543D01*
X0074000Y0249543D01*
X0080000Y0258000D02*
X0084457Y0253543D01*
X0084457Y0248000D01*
X0091543Y0248000D02*
X0093743Y0248000D01*
X0098600Y0252857D01*
X0103000Y0256000D02*
X0111000Y0248000D01*
X0103000Y0256000D02*
X0088000Y0256000D01*
X0084000Y0260000D01*
X0083457Y0260000D01*
X0083457Y0271000D01*
X0079457Y0278000D01*
X0065000Y0278000D01*
X0056303Y0266303D01*
X0053622Y0266303D01*
X0053622Y0254492D02*
X0055000Y0254114D01*
X0055000Y0252000D01*
X0052000Y0249000D01*
X0045000Y0249000D01*
X0039201Y0256500D02*
X0029000Y0256500D01*
X0029000Y0252000D01*
X0021000Y0252000D01*
X0022000Y0257654D02*
X0022776Y0258429D01*
X0038661Y0258429D01*
X0038661Y0256461D02*
X0039201Y0256500D01*
X0038661Y0260398D02*
X0038661Y0262366D01*
X0023980Y0262366D01*
X0022000Y0264346D01*
X0022000Y0298488D01*
X0021488Y0299000D01*
X0031654Y0298142D02*
X0031654Y0285000D01*
X0031654Y0268346D01*
X0032000Y0268000D01*
X0039390Y0268000D01*
X0038661Y0268272D01*
X0038661Y0266303D01*
X0038661Y0264335D02*
X0039296Y0264300D01*
X0028100Y0264300D01*
X0026000Y0266800D01*
X0026000Y0272000D01*
X0038346Y0282654D02*
X0042000Y0279000D01*
X0038346Y0282654D02*
X0038346Y0285000D01*
X0042000Y0298000D02*
X0042000Y0303654D01*
X0041654Y0304000D01*
X0032512Y0299000D02*
X0031654Y0298142D01*
X0070000Y0275000D02*
X0070457Y0274457D01*
X0070457Y0270000D01*
X0077543Y0270000D02*
X0077543Y0266457D01*
X0080000Y0264000D01*
X0080000Y0258000D01*
X0065543Y0258500D02*
X0065100Y0258500D01*
X0065100Y0258429D01*
X0065543Y0241000D02*
X0067000Y0241000D01*
X0074457Y0234000D02*
X0075000Y0233457D01*
X0058543Y0234000D02*
X0058043Y0234500D01*
X0058043Y0236000D01*
X0077000Y0282000D02*
X0082457Y0282000D01*
X0082457Y0289000D01*
X0186071Y0254000D02*
X0196457Y0254000D01*
X0200000Y0250457D01*
X0201000Y0244543D02*
X0198457Y0244543D01*
X0072500Y0086500D02*
X0067201Y0086500D01*
D45*
X0076000Y0137000D03*
X0039000Y0148000D03*
X0131100Y0182900D03*
X0140000Y0122000D03*
X0157000Y0102000D03*
X0223000Y0141000D03*
X0272000Y0121000D03*
X0132000Y0282000D03*
X0104000Y0282000D03*
D46*
X0099000Y0298000D03*
X0109000Y0298000D03*
X0119000Y0298000D03*
X0129000Y0298000D03*
X0139000Y0298000D03*
X0149000Y0298000D03*
X0103000Y0232000D03*
X0106000Y0213000D03*
X0096000Y0213000D03*
X0083000Y0180000D03*
X0158000Y0217000D03*
X0205000Y0213000D03*
X0215000Y0213000D03*
X0225000Y0221000D03*
X0235000Y0221000D03*
X0245000Y0221000D03*
X0235000Y0202000D03*
X0225000Y0202000D03*
X0215000Y0202000D03*
X0205000Y0202000D03*
X0205000Y0192000D03*
X0054000Y0111000D03*
X0397000Y0277000D03*
X0407000Y0277000D03*
X0417000Y0277000D03*
X0427000Y0277000D03*
X0437000Y0277000D03*
X0447000Y0277000D03*
X0447000Y0308000D03*
X0437000Y0308000D03*
X0427000Y0308000D03*
X0417000Y0308000D03*
X0407000Y0308000D03*
X0397000Y0308000D03*
X0404000Y0198000D03*
X0398000Y0179000D03*
X0419000Y0173000D03*
X0419000Y0163000D03*
X0419000Y0153000D03*
X0404000Y0164000D03*
X0419000Y0143000D03*
X0419000Y0133000D03*
X0419000Y0123000D03*
X0419000Y0113000D03*
X0419000Y0103000D03*
X0401000Y0084000D03*
X0401000Y0074000D03*
X0401000Y0064000D03*
X0401000Y0054000D03*
X0401000Y0044000D03*
X0401000Y0034000D03*
X0454000Y0129000D03*
X0454000Y0139000D03*
X0454000Y0149000D03*
X0454000Y0159000D03*
D47*
X0222000Y0114000D03*
X0051000Y0225000D03*
X0113000Y0277000D03*
X0071000Y0282000D03*
D48*
X0149000Y0298000D02*
X0150000Y0297000D01*
X0160000Y0297000D01*
X0235000Y0202000D02*
X0214000Y0181000D01*
X0204000Y0181000D01*
X0171000Y0178000D02*
X0169000Y0178000D01*
X0169000Y0187000D01*
X0353236Y0255500D02*
X0363500Y0255500D01*
X0386000Y0278000D01*
X0397315Y0288063D02*
X0398457Y0286921D01*
X0401000Y0292000D02*
X0395000Y0292000D01*
X0363400Y0260400D01*
X0357436Y0260400D01*
X0353236Y0260500D01*
X0401000Y0292000D02*
X0404937Y0295937D01*
X0405189Y0295937D01*
X0397315Y0295937D02*
X0397315Y0296685D01*
X0395400Y0299500D01*
X0353236Y0299500D01*
X0353236Y0294500D02*
X0362500Y0294500D01*
X0365400Y0294400D01*
D49*
X0059000Y0262000D02*
X0056616Y0264384D01*
X0053622Y0264384D01*
X0053622Y0262366D01*
X0053622Y0260398D01*
X0053622Y0268321D02*
X0054622Y0269622D01*
X0055000Y0270000D01*
X0038661Y0254492D02*
X0037692Y0252992D01*
X0034000Y0253000D01*
D50*
X0036000Y0241000D02*
X0058457Y0241000D01*
X0050957Y0234500D02*
X0050957Y0225043D01*
X0051000Y0225000D01*
X0062480Y0213409D02*
X0067591Y0213409D01*
X0067600Y0213400D01*
X0068691Y0196409D02*
X0062480Y0196409D01*
X0068691Y0196409D02*
X0068700Y0196400D01*
X0069457Y0260000D02*
X0064654Y0264654D01*
X0064000Y0268000D01*
X0057000Y0274000D02*
X0055000Y0272000D01*
X0055000Y0270000D01*
X0422000Y0218000D02*
X0437937Y0202063D01*
X0437937Y0189866D01*
X0450000Y0180000D02*
X0450000Y0217000D01*
X0449000Y0218000D01*
X0450000Y0180000D02*
X0444118Y0174118D01*
X0437937Y0174118D01*
D51*
X0449000Y0218000D03*
X0422000Y0218000D03*
D52*
X0171200Y0210000D03*
X0171000Y0178000D03*
X0172000Y0170000D03*
M02*
