G75*
%MOIN*%
%OFA0B0*%
%FSLAX25Y25*%
%IPPOS*%
%LPD*%
%AMOC8*
5,1,8,0,0,1.08239X$1,22.5*
%
%ADD10C,0.05556*%
%ADD11C,0.10249*%
%ADD12R,0.05556X0.05556*%
%ADD13C,0.11824*%
%ADD14C,0.09461*%
%ADD15C,0.05524*%
%ADD16OC8,0.08200*%
%ADD17R,0.04762X0.04762*%
%ADD18R,0.05400X0.05400*%
%ADD19R,0.06800X0.06800*%
%ADD20C,0.04762*%
%ADD21R,0.14800X0.14800*%
%ADD22R,0.04400X0.04400*%
D10*
X0030000Y0056000D03*
X0037874Y0056000D03*
X0037874Y0063874D03*
X0030000Y0063874D03*
X0030000Y0071748D03*
X0037874Y0071748D03*
X0037874Y0079622D03*
X0030000Y0079622D03*
X0030000Y0087496D03*
X0037874Y0087496D03*
X0037874Y0095370D03*
X0030000Y0095370D03*
X0032559Y0185118D03*
X0024685Y0185118D03*
X0024685Y0192992D03*
X0032559Y0192992D03*
X0032559Y0200866D03*
X0024685Y0200866D03*
X0434000Y0158370D03*
X0434000Y0150496D03*
X0441874Y0150496D03*
X0441874Y0158370D03*
X0441874Y0142622D03*
X0441874Y0134748D03*
X0434000Y0134748D03*
X0434000Y0142622D03*
X0434000Y0126874D03*
X0434000Y0119000D03*
X0441874Y0119000D03*
X0441874Y0126874D03*
D11*
X0437937Y0174118D03*
X0437937Y0189866D03*
X0033937Y0126866D03*
X0033937Y0111118D03*
X0028622Y0216614D03*
X0028622Y0232362D03*
D12*
X0062315Y0029937D03*
X0070189Y0029937D03*
X0078063Y0029937D03*
X0085937Y0029937D03*
X0093811Y0029937D03*
X0101685Y0029937D03*
X0101685Y0022063D03*
X0093811Y0022063D03*
X0085937Y0022063D03*
X0078063Y0022063D03*
X0070189Y0022063D03*
X0062315Y0022063D03*
X0151126Y0022063D03*
X0159000Y0022063D03*
X0166874Y0022063D03*
X0166874Y0029937D03*
X0159000Y0029937D03*
X0151126Y0029937D03*
X0425063Y0055126D03*
X0432937Y0055126D03*
X0432937Y0063000D03*
X0425063Y0063000D03*
X0425063Y0070874D03*
X0432937Y0070874D03*
X0436685Y0288063D03*
X0428811Y0288063D03*
X0420937Y0288063D03*
X0413063Y0288063D03*
X0405189Y0288063D03*
X0397315Y0288063D03*
X0397315Y0295937D03*
X0405189Y0295937D03*
X0413063Y0295937D03*
X0420937Y0295937D03*
X0428811Y0295937D03*
X0436685Y0295937D03*
D13*
X0048535Y0026000D03*
X0115465Y0026000D03*
X0383535Y0292000D03*
X0450465Y0292000D03*
D14*
X0429000Y0084654D03*
X0429000Y0041346D03*
X0180654Y0026000D03*
X0137346Y0026000D03*
D15*
X0337969Y0063000D03*
X0347000Y0053972D03*
X0356031Y0063000D03*
X0347000Y0072028D03*
X0430000Y0241969D03*
X0420972Y0251000D03*
X0430000Y0260031D03*
X0439028Y0251000D03*
D16*
X0298000Y0222000D03*
X0288000Y0222000D03*
X0288000Y0212000D03*
X0298000Y0212000D03*
X0298000Y0202000D03*
X0288000Y0202000D03*
X0288000Y0192000D03*
X0298000Y0192000D03*
X0298000Y0182000D03*
X0288000Y0182000D03*
X0288000Y0172000D03*
X0298000Y0172000D03*
X0298000Y0162000D03*
X0288000Y0162000D03*
X0288000Y0152000D03*
X0298000Y0152000D03*
X0298000Y0142000D03*
X0288000Y0142000D03*
X0288000Y0132000D03*
X0298000Y0132000D03*
D17*
X0260000Y0113000D03*
X0237000Y0125000D03*
X0195000Y0119000D03*
X0189000Y0134000D03*
X0179000Y0145000D03*
X0171000Y0139000D03*
X0175000Y0157000D03*
X0172000Y0162000D03*
X0178000Y0167000D03*
X0196000Y0165000D03*
X0208000Y0157000D03*
X0204000Y0181000D03*
X0194000Y0185000D03*
X0175000Y0183000D03*
X0169000Y0187000D03*
X0163000Y0187000D03*
X0153000Y0176000D03*
X0158000Y0171000D03*
X0148000Y0165000D03*
X0155000Y0158000D03*
X0135000Y0152000D03*
X0122000Y0150000D03*
X0099000Y0163000D03*
X0063000Y0183000D03*
X0056000Y0187000D03*
X0054000Y0176000D03*
X0068700Y0196400D03*
X0056000Y0204000D03*
X0067600Y0213400D03*
X0074700Y0208200D03*
X0070000Y0238000D03*
X0069000Y0246000D03*
X0078000Y0254000D03*
X0059000Y0262000D03*
X0064000Y0268000D03*
X0057000Y0274000D03*
X0047000Y0275000D03*
X0042000Y0279000D03*
X0026000Y0272000D03*
X0021000Y0252000D03*
X0034000Y0253000D03*
X0045000Y0249000D03*
X0036000Y0241000D03*
X0070000Y0275000D03*
X0077000Y0282000D03*
X0095000Y0271000D03*
X0099000Y0264000D03*
X0113053Y0254947D03*
X0129000Y0255000D03*
X0125000Y0272000D03*
X0119500Y0277400D03*
X0151000Y0286000D03*
X0155000Y0273000D03*
X0169000Y0263000D03*
X0163000Y0256000D03*
X0155000Y0252000D03*
X0187000Y0238000D03*
X0196000Y0229000D03*
X0166500Y0214500D03*
X0184000Y0205000D03*
X0169000Y0200000D03*
X0153000Y0200000D03*
X0144000Y0208000D03*
X0133000Y0219000D03*
X0116000Y0200000D03*
X0116300Y0193200D03*
X0144400Y0135000D03*
X0116000Y0123000D03*
X0149000Y0114000D03*
X0114000Y0081000D03*
X0119000Y0073000D03*
X0147000Y0060000D03*
X0167000Y0052000D03*
X0212000Y0066000D03*
X0089000Y0065000D03*
X0063000Y0046000D03*
X0202000Y0274000D03*
X0202000Y0289000D03*
X0182000Y0289000D03*
X0175000Y0281000D03*
X0193000Y0302000D03*
X0209000Y0304000D03*
X0216000Y0305000D03*
X0223000Y0299000D03*
X0227200Y0294300D03*
X0225000Y0287000D03*
X0231000Y0283000D03*
X0246000Y0281000D03*
X0365400Y0294400D03*
X0386000Y0278000D03*
X0042000Y0298000D03*
D18*
X0104000Y0282000D03*
X0132000Y0282000D03*
X0131100Y0182900D03*
X0076000Y0137000D03*
X0039000Y0148000D03*
X0140000Y0122000D03*
X0157000Y0102000D03*
X0223000Y0141000D03*
X0272000Y0121000D03*
D19*
X0205000Y0192000D03*
X0205000Y0202000D03*
X0215000Y0202000D03*
X0225000Y0202000D03*
X0235000Y0202000D03*
X0215000Y0213000D03*
X0205000Y0213000D03*
X0225000Y0221000D03*
X0235000Y0221000D03*
X0245000Y0221000D03*
X0158000Y0217000D03*
X0106000Y0213000D03*
X0096000Y0213000D03*
X0103000Y0232000D03*
X0083000Y0180000D03*
X0054000Y0111000D03*
X0099000Y0298000D03*
X0109000Y0298000D03*
X0119000Y0298000D03*
X0129000Y0298000D03*
X0139000Y0298000D03*
X0149000Y0298000D03*
X0397000Y0308000D03*
X0407000Y0308000D03*
X0417000Y0308000D03*
X0427000Y0308000D03*
X0437000Y0308000D03*
X0447000Y0308000D03*
X0447000Y0277000D03*
X0437000Y0277000D03*
X0427000Y0277000D03*
X0417000Y0277000D03*
X0407000Y0277000D03*
X0397000Y0277000D03*
X0404000Y0198000D03*
X0398000Y0179000D03*
X0419000Y0173000D03*
X0419000Y0163000D03*
X0419000Y0153000D03*
X0404000Y0164000D03*
X0419000Y0143000D03*
X0419000Y0133000D03*
X0419000Y0123000D03*
X0419000Y0113000D03*
X0419000Y0103000D03*
X0401000Y0084000D03*
X0401000Y0074000D03*
X0401000Y0064000D03*
X0401000Y0054000D03*
X0401000Y0044000D03*
X0401000Y0034000D03*
X0454000Y0129000D03*
X0454000Y0139000D03*
X0454000Y0149000D03*
X0454000Y0159000D03*
D20*
X0222000Y0114000D03*
X0051000Y0225000D03*
X0113000Y0277000D03*
X0071000Y0282000D03*
D21*
X0422000Y0218000D03*
X0449000Y0218000D03*
D22*
X0171200Y0210000D03*
X0171000Y0178000D03*
X0172000Y0170000D03*
M02*
