G75*
%MOIN*%
%OFA0B0*%
%FSLAX25Y25*%
%IPPOS*%
%LPD*%
%AMOC8*
5,1,8,0,0,1.08239X$1,22.5*
%
%ADD10C,0.04756*%
%ADD11C,0.09449*%
%ADD12C,0.03772*%
%ADD13C,0.06000*%
%ADD14C,0.01600*%
%ADD15C,0.03962*%
%ADD16C,0.01500*%
%ADD17C,0.01200*%
%ADD18C,0.04600*%
%ADD19C,0.00800*%
%ADD20C,0.01000*%
%ADD21C,0.05000*%
%ADD22C,0.14000*%
%ADD23C,0.03600*%
D10*
X0062315Y0022063D03*
X0070189Y0022063D03*
X0078063Y0022063D03*
X0085937Y0022063D03*
X0093811Y0022063D03*
X0101685Y0022063D03*
X0101685Y0029937D03*
X0093811Y0029937D03*
X0085937Y0029937D03*
X0078063Y0029937D03*
X0070189Y0029937D03*
X0062315Y0029937D03*
X0037874Y0056000D03*
X0030000Y0056000D03*
X0030000Y0063874D03*
X0037874Y0063874D03*
X0037874Y0071748D03*
X0030000Y0071748D03*
X0030000Y0079622D03*
X0037874Y0079622D03*
X0037874Y0087496D03*
X0030000Y0087496D03*
X0030000Y0095370D03*
X0037874Y0095370D03*
X0151126Y0029937D03*
X0159000Y0029937D03*
X0166874Y0029937D03*
X0166874Y0022063D03*
X0159000Y0022063D03*
X0151126Y0022063D03*
X0032559Y0185118D03*
X0024685Y0185118D03*
X0024685Y0192992D03*
X0032559Y0192992D03*
X0032559Y0200866D03*
X0024685Y0200866D03*
X0397315Y0288063D03*
X0405189Y0288063D03*
X0413063Y0288063D03*
X0420937Y0288063D03*
X0428811Y0288063D03*
X0436685Y0288063D03*
X0436685Y0295937D03*
X0428811Y0295937D03*
X0420937Y0295937D03*
X0413063Y0295937D03*
X0405189Y0295937D03*
X0397315Y0295937D03*
X0434000Y0158370D03*
X0434000Y0150496D03*
X0441874Y0150496D03*
X0441874Y0158370D03*
X0441874Y0142622D03*
X0441874Y0134748D03*
X0434000Y0134748D03*
X0434000Y0142622D03*
X0434000Y0126874D03*
X0434000Y0119000D03*
X0441874Y0119000D03*
X0441874Y0126874D03*
X0432937Y0070874D03*
X0425063Y0070874D03*
X0425063Y0063000D03*
X0432937Y0063000D03*
X0432937Y0055126D03*
X0425063Y0055126D03*
D11*
X0437937Y0174118D03*
X0437937Y0189866D03*
X0033937Y0126866D03*
X0033937Y0111118D03*
X0028622Y0216614D03*
X0028622Y0232362D03*
D12*
X0337969Y0063000D03*
X0347000Y0053972D03*
X0356031Y0063000D03*
X0347000Y0072028D03*
X0430000Y0241969D03*
X0420972Y0251000D03*
X0430000Y0260031D03*
X0439028Y0251000D03*
D13*
X0437000Y0277000D03*
X0427000Y0277000D03*
X0417000Y0277000D03*
X0407000Y0277000D03*
X0397000Y0277000D03*
X0397000Y0308000D03*
X0407000Y0308000D03*
X0417000Y0308000D03*
X0427000Y0308000D03*
X0437000Y0308000D03*
X0447000Y0308000D03*
X0447000Y0277000D03*
X0404000Y0198000D03*
X0398000Y0179000D03*
X0419000Y0173000D03*
X0419000Y0163000D03*
X0419000Y0153000D03*
X0404000Y0164000D03*
X0419000Y0143000D03*
X0419000Y0133000D03*
X0419000Y0123000D03*
X0419000Y0113000D03*
X0419000Y0103000D03*
X0401000Y0084000D03*
X0401000Y0074000D03*
X0401000Y0064000D03*
X0401000Y0054000D03*
X0401000Y0044000D03*
X0401000Y0034000D03*
X0454000Y0129000D03*
X0454000Y0139000D03*
X0454000Y0149000D03*
X0454000Y0159000D03*
X0298000Y0162000D03*
X0288000Y0162000D03*
X0288000Y0152000D03*
X0298000Y0152000D03*
X0298000Y0142000D03*
X0288000Y0142000D03*
X0288000Y0132000D03*
X0298000Y0132000D03*
X0298000Y0172000D03*
X0288000Y0172000D03*
X0288000Y0182000D03*
X0298000Y0182000D03*
X0298000Y0192000D03*
X0288000Y0192000D03*
X0288000Y0202000D03*
X0298000Y0202000D03*
X0298000Y0212000D03*
X0288000Y0212000D03*
X0288000Y0222000D03*
X0298000Y0222000D03*
X0245000Y0221000D03*
X0235000Y0221000D03*
X0225000Y0221000D03*
X0215000Y0213000D03*
X0205000Y0213000D03*
X0205000Y0202000D03*
X0215000Y0202000D03*
X0225000Y0202000D03*
X0235000Y0202000D03*
X0205000Y0192000D03*
X0158000Y0217000D03*
X0106000Y0213000D03*
X0096000Y0213000D03*
X0103000Y0232000D03*
X0083000Y0180000D03*
X0054000Y0111000D03*
X0099000Y0298000D03*
X0109000Y0298000D03*
X0119000Y0298000D03*
X0129000Y0298000D03*
X0139000Y0298000D03*
X0149000Y0298000D03*
D14*
X0004000Y0312401D02*
X0004000Y0006000D01*
X0316000Y0006000D01*
X0316000Y0312401D01*
X0004000Y0312401D01*
X0004000Y0311520D02*
X0316000Y0311520D01*
X0316000Y0309922D02*
X0241755Y0309922D01*
X0241473Y0310204D02*
X0240517Y0310600D01*
X0238507Y0310600D01*
X0238497Y0310604D01*
X0237991Y0310600D01*
X0237483Y0310600D01*
X0237473Y0310596D01*
X0112735Y0309629D01*
X0111549Y0310815D01*
X0109895Y0311500D01*
X0074105Y0311500D01*
X0072451Y0310815D01*
X0071185Y0309549D01*
X0066185Y0304549D01*
X0065500Y0302895D01*
X0065500Y0296864D01*
X0065136Y0296500D01*
X0045688Y0296500D01*
X0045981Y0297208D01*
X0045981Y0298792D01*
X0045375Y0300255D01*
X0044255Y0301375D01*
X0042792Y0301981D01*
X0041208Y0301981D01*
X0039745Y0301375D01*
X0038625Y0300255D01*
X0038019Y0298792D01*
X0038019Y0297208D01*
X0038312Y0296500D01*
X0036105Y0296500D01*
X0034451Y0295815D01*
X0033185Y0294549D01*
X0030185Y0291549D01*
X0029500Y0289895D01*
X0029500Y0273953D01*
X0029375Y0274255D01*
X0028255Y0275375D01*
X0026792Y0275981D01*
X0025208Y0275981D01*
X0023745Y0275375D01*
X0022625Y0274255D01*
X0022019Y0272792D01*
X0022019Y0271208D01*
X0022625Y0269745D01*
X0023745Y0268625D01*
X0025208Y0268019D01*
X0026792Y0268019D01*
X0028255Y0268625D01*
X0029375Y0269745D01*
X0029500Y0270047D01*
X0029500Y0252105D01*
X0030185Y0250451D01*
X0031451Y0249185D01*
X0033105Y0248500D01*
X0034895Y0248500D01*
X0036549Y0249185D01*
X0037815Y0250451D01*
X0038500Y0252105D01*
X0038500Y0261500D01*
X0053136Y0261500D01*
X0056451Y0258185D01*
X0058105Y0257500D01*
X0059895Y0257500D01*
X0061549Y0258185D01*
X0062815Y0259451D01*
X0063500Y0261105D01*
X0063500Y0262895D01*
X0062999Y0264106D01*
X0063208Y0264019D01*
X0064792Y0264019D01*
X0066255Y0264625D01*
X0067375Y0265745D01*
X0067981Y0267208D01*
X0067981Y0268792D01*
X0067375Y0270255D01*
X0066255Y0271375D01*
X0064792Y0271981D01*
X0063208Y0271981D01*
X0061745Y0271375D01*
X0060625Y0270255D01*
X0060019Y0268792D01*
X0060019Y0267345D01*
X0058815Y0268549D01*
X0057549Y0269815D01*
X0057057Y0270019D01*
X0057792Y0270019D01*
X0059255Y0270625D01*
X0060375Y0271745D01*
X0060981Y0273208D01*
X0060981Y0274792D01*
X0060375Y0276255D01*
X0059255Y0277375D01*
X0057792Y0277981D01*
X0056208Y0277981D01*
X0054745Y0277375D01*
X0053625Y0276255D01*
X0053019Y0274792D01*
X0053019Y0273208D01*
X0053625Y0271745D01*
X0054745Y0270625D01*
X0055047Y0270500D01*
X0038500Y0270500D01*
X0038500Y0277047D01*
X0038625Y0276745D01*
X0039745Y0275625D01*
X0041208Y0275019D01*
X0042792Y0275019D01*
X0044255Y0275625D01*
X0045375Y0276745D01*
X0045981Y0278208D01*
X0045981Y0279792D01*
X0045375Y0281255D01*
X0044255Y0282375D01*
X0042792Y0282981D01*
X0041208Y0282981D01*
X0039745Y0282375D01*
X0038625Y0281255D01*
X0038500Y0280953D01*
X0038500Y0287136D01*
X0038864Y0287500D01*
X0067895Y0287500D01*
X0069549Y0288185D01*
X0073815Y0292451D01*
X0074500Y0294105D01*
X0074500Y0300136D01*
X0076864Y0302500D01*
X0104500Y0302500D01*
X0104500Y0300202D01*
X0104000Y0298995D01*
X0104000Y0297005D01*
X0104761Y0295168D01*
X0106168Y0293761D01*
X0106250Y0293727D01*
X0106250Y0287453D01*
X0106669Y0286442D01*
X0107442Y0285669D01*
X0108453Y0285250D01*
X0109547Y0285250D01*
X0109909Y0285400D01*
X0123400Y0285400D01*
X0123400Y0275646D01*
X0122745Y0275375D01*
X0121625Y0274255D01*
X0121019Y0272792D01*
X0121019Y0271208D01*
X0121625Y0269745D01*
X0122400Y0268970D01*
X0122400Y0258483D01*
X0122796Y0257527D01*
X0123527Y0256796D01*
X0125019Y0255304D01*
X0125019Y0254208D01*
X0125625Y0252745D01*
X0126745Y0251625D01*
X0128208Y0251019D01*
X0129792Y0251019D01*
X0131255Y0251625D01*
X0132030Y0252400D01*
X0150923Y0252400D01*
X0151019Y0252304D01*
X0151019Y0251208D01*
X0151625Y0249745D01*
X0152745Y0248625D01*
X0154208Y0248019D01*
X0155792Y0248019D01*
X0157255Y0248625D01*
X0158030Y0249400D01*
X0171923Y0249400D01*
X0183019Y0238304D01*
X0183019Y0237208D01*
X0183625Y0235745D01*
X0184745Y0234625D01*
X0186208Y0234019D01*
X0187625Y0234019D01*
X0178006Y0224400D01*
X0143523Y0224400D01*
X0142641Y0224035D01*
X0141965Y0223359D01*
X0141600Y0222477D01*
X0141600Y0211230D01*
X0140625Y0210255D01*
X0140019Y0208792D01*
X0140019Y0207208D01*
X0140625Y0205745D01*
X0141745Y0204625D01*
X0143208Y0204019D01*
X0144792Y0204019D01*
X0146255Y0204625D01*
X0147375Y0205745D01*
X0147981Y0207208D01*
X0147981Y0208792D01*
X0147375Y0210255D01*
X0146400Y0211230D01*
X0146400Y0219600D01*
X0153665Y0219600D01*
X0153000Y0217995D01*
X0153000Y0216005D01*
X0153761Y0214168D01*
X0155168Y0212761D01*
X0157005Y0212000D01*
X0158995Y0212000D01*
X0160832Y0212761D01*
X0162239Y0214168D01*
X0163000Y0216005D01*
X0163000Y0217995D01*
X0162335Y0219600D01*
X0179477Y0219600D01*
X0180359Y0219965D01*
X0181035Y0220641D01*
X0196035Y0235641D01*
X0196400Y0236523D01*
X0196400Y0265006D01*
X0201413Y0270019D01*
X0202792Y0270019D01*
X0204255Y0270625D01*
X0205375Y0271745D01*
X0205981Y0273208D01*
X0205981Y0274792D01*
X0205375Y0276255D01*
X0204255Y0277375D01*
X0202792Y0277981D01*
X0201208Y0277981D01*
X0199745Y0277375D01*
X0198625Y0276255D01*
X0198019Y0274792D01*
X0198019Y0273413D01*
X0192641Y0268035D01*
X0191965Y0267359D01*
X0191600Y0266477D01*
X0191600Y0237994D01*
X0190981Y0237375D01*
X0190981Y0238792D01*
X0190375Y0240255D01*
X0189255Y0241375D01*
X0187792Y0241981D01*
X0186696Y0241981D01*
X0175204Y0253473D01*
X0174473Y0254204D01*
X0173517Y0254600D01*
X0158030Y0254600D01*
X0157255Y0255375D01*
X0155792Y0255981D01*
X0154696Y0255981D01*
X0154204Y0256473D01*
X0153473Y0257204D01*
X0152517Y0257600D01*
X0132030Y0257600D01*
X0131255Y0258375D01*
X0129792Y0258981D01*
X0128696Y0258981D01*
X0127600Y0260077D01*
X0127600Y0268970D01*
X0128030Y0269400D01*
X0153288Y0269400D01*
X0154208Y0269019D01*
X0155792Y0269019D01*
X0157255Y0269625D01*
X0158375Y0270745D01*
X0158981Y0272208D01*
X0158981Y0273792D01*
X0158375Y0275255D01*
X0157255Y0276375D01*
X0155792Y0276981D01*
X0154208Y0276981D01*
X0152745Y0276375D01*
X0151625Y0275255D01*
X0151354Y0274600D01*
X0128600Y0274600D01*
X0128600Y0288517D01*
X0128204Y0289473D01*
X0127473Y0290204D01*
X0126517Y0290600D01*
X0111750Y0290600D01*
X0111750Y0293727D01*
X0111832Y0293761D01*
X0113239Y0295168D01*
X0114000Y0297005D01*
X0114761Y0295168D01*
X0116168Y0293761D01*
X0118005Y0293000D01*
X0119995Y0293000D01*
X0121832Y0293761D01*
X0123239Y0295168D01*
X0124000Y0297005D01*
X0124000Y0298995D01*
X0123239Y0300832D01*
X0121832Y0302239D01*
X0119995Y0303000D01*
X0118005Y0303000D01*
X0116168Y0302239D01*
X0114761Y0300832D01*
X0114000Y0298995D01*
X0114000Y0297005D01*
X0114000Y0298995D01*
X0113500Y0300202D01*
X0113500Y0304435D01*
X0190401Y0305031D01*
X0189625Y0304255D01*
X0189019Y0302792D01*
X0189019Y0301208D01*
X0189625Y0299745D01*
X0190745Y0298625D01*
X0192208Y0298019D01*
X0193792Y0298019D01*
X0195255Y0298625D01*
X0196375Y0299745D01*
X0196981Y0301208D01*
X0196981Y0302792D01*
X0196375Y0304255D01*
X0195559Y0305071D01*
X0205165Y0305145D01*
X0205019Y0304792D01*
X0205019Y0303208D01*
X0205625Y0301745D01*
X0206745Y0300625D01*
X0208208Y0300019D01*
X0209792Y0300019D01*
X0211255Y0300625D01*
X0212375Y0301745D01*
X0212741Y0302629D01*
X0213745Y0301625D01*
X0215208Y0301019D01*
X0216792Y0301019D01*
X0218255Y0301625D01*
X0219375Y0302745D01*
X0219981Y0304208D01*
X0219981Y0305260D01*
X0237400Y0305395D01*
X0237400Y0286483D01*
X0237796Y0285527D01*
X0238527Y0284796D01*
X0242019Y0281304D01*
X0242019Y0280208D01*
X0242625Y0278745D01*
X0243745Y0277625D01*
X0245208Y0277019D01*
X0246792Y0277019D01*
X0248255Y0277625D01*
X0249375Y0278745D01*
X0249981Y0280208D01*
X0249981Y0281792D01*
X0249375Y0283255D01*
X0248255Y0284375D01*
X0246792Y0284981D01*
X0245696Y0284981D01*
X0242600Y0288077D01*
X0242600Y0308517D01*
X0242204Y0309473D01*
X0241473Y0310204D01*
X0242600Y0308323D02*
X0316000Y0308323D01*
X0316000Y0306725D02*
X0242600Y0306725D01*
X0242600Y0305126D02*
X0316000Y0305126D01*
X0316000Y0303528D02*
X0242600Y0303528D01*
X0242600Y0301929D02*
X0316000Y0301929D01*
X0316000Y0300331D02*
X0242600Y0300331D01*
X0242600Y0298732D02*
X0316000Y0298732D01*
X0316000Y0297134D02*
X0242600Y0297134D01*
X0242600Y0295535D02*
X0316000Y0295535D01*
X0316000Y0293937D02*
X0242600Y0293937D01*
X0242600Y0292338D02*
X0316000Y0292338D01*
X0316000Y0290739D02*
X0242600Y0290739D01*
X0242600Y0289141D02*
X0316000Y0289141D01*
X0316000Y0287542D02*
X0243134Y0287542D01*
X0244733Y0285944D02*
X0316000Y0285944D01*
X0316000Y0284345D02*
X0248285Y0284345D01*
X0249586Y0282747D02*
X0316000Y0282747D01*
X0316000Y0281148D02*
X0249981Y0281148D01*
X0249708Y0279550D02*
X0316000Y0279550D01*
X0316000Y0277951D02*
X0248582Y0277951D01*
X0243418Y0277951D02*
X0202864Y0277951D01*
X0201136Y0277951D02*
X0177582Y0277951D01*
X0177255Y0277625D02*
X0178375Y0278745D01*
X0178981Y0280208D01*
X0178981Y0281792D01*
X0178375Y0283255D01*
X0177255Y0284375D01*
X0175792Y0284981D01*
X0174208Y0284981D01*
X0172745Y0284375D01*
X0171625Y0283255D01*
X0171019Y0281792D01*
X0171019Y0280208D01*
X0171625Y0278745D01*
X0172745Y0277625D01*
X0174208Y0277019D01*
X0175792Y0277019D01*
X0177255Y0277625D01*
X0178708Y0279550D02*
X0228926Y0279550D01*
X0228745Y0279625D02*
X0230208Y0279019D01*
X0231792Y0279019D01*
X0233255Y0279625D01*
X0234375Y0280745D01*
X0234981Y0282208D01*
X0234981Y0283792D01*
X0234375Y0285255D01*
X0233255Y0286375D01*
X0231792Y0286981D01*
X0230208Y0286981D01*
X0228745Y0286375D01*
X0227625Y0285255D01*
X0227019Y0283792D01*
X0227019Y0282208D01*
X0227625Y0280745D01*
X0228745Y0279625D01*
X0227458Y0281148D02*
X0178981Y0281148D01*
X0178586Y0282747D02*
X0227019Y0282747D01*
X0227248Y0284345D02*
X0177285Y0284345D01*
X0179426Y0285944D02*
X0128600Y0285944D01*
X0128600Y0287542D02*
X0178295Y0287542D01*
X0178019Y0288208D02*
X0178625Y0286745D01*
X0179745Y0285625D01*
X0181208Y0285019D01*
X0182792Y0285019D01*
X0184255Y0285625D01*
X0185375Y0286745D01*
X0185981Y0288208D01*
X0185981Y0289792D01*
X0185375Y0291255D01*
X0184255Y0292375D01*
X0182792Y0292981D01*
X0181208Y0292981D01*
X0179745Y0292375D01*
X0178625Y0291255D01*
X0178019Y0289792D01*
X0178019Y0288208D01*
X0178019Y0289141D02*
X0128342Y0289141D01*
X0128600Y0284345D02*
X0172715Y0284345D01*
X0171414Y0282747D02*
X0128600Y0282747D01*
X0128600Y0281148D02*
X0171019Y0281148D01*
X0171292Y0279550D02*
X0128600Y0279550D01*
X0128600Y0277951D02*
X0172418Y0277951D01*
X0184574Y0285944D02*
X0199426Y0285944D01*
X0199745Y0285625D02*
X0201208Y0285019D01*
X0202792Y0285019D01*
X0204255Y0285625D01*
X0205375Y0286745D01*
X0205981Y0288208D01*
X0205981Y0289792D01*
X0205375Y0291255D01*
X0204255Y0292375D01*
X0202792Y0292981D01*
X0201208Y0292981D01*
X0199745Y0292375D01*
X0198625Y0291255D01*
X0198019Y0289792D01*
X0198019Y0288208D01*
X0198625Y0286745D01*
X0199745Y0285625D01*
X0198295Y0287542D02*
X0185705Y0287542D01*
X0185981Y0289141D02*
X0198019Y0289141D01*
X0198411Y0290739D02*
X0185589Y0290739D01*
X0184292Y0292338D02*
X0199708Y0292338D01*
X0204292Y0292338D02*
X0237400Y0292338D01*
X0237400Y0293937D02*
X0152008Y0293937D01*
X0151832Y0293761D02*
X0153239Y0295168D01*
X0154000Y0297005D01*
X0154000Y0298995D01*
X0153239Y0300832D01*
X0151832Y0302239D01*
X0149995Y0303000D01*
X0148005Y0303000D01*
X0146168Y0302239D01*
X0144761Y0300832D01*
X0144000Y0298995D01*
X0143239Y0300832D01*
X0141832Y0302239D01*
X0139995Y0303000D01*
X0138005Y0303000D01*
X0136168Y0302239D01*
X0134761Y0300832D01*
X0134000Y0298995D01*
X0134000Y0297005D01*
X0134761Y0295168D01*
X0136168Y0293761D01*
X0138005Y0293000D01*
X0139995Y0293000D01*
X0141832Y0293761D01*
X0143239Y0295168D01*
X0144000Y0297005D01*
X0144000Y0298995D01*
X0144000Y0297005D01*
X0144761Y0295168D01*
X0146168Y0293761D01*
X0148005Y0293000D01*
X0149995Y0293000D01*
X0151832Y0293761D01*
X0153391Y0295535D02*
X0220962Y0295535D01*
X0220745Y0295625D02*
X0222208Y0295019D01*
X0223792Y0295019D01*
X0225255Y0295625D01*
X0226375Y0296745D01*
X0226981Y0298208D01*
X0226981Y0299792D01*
X0226375Y0301255D01*
X0225255Y0302375D01*
X0223792Y0302981D01*
X0222208Y0302981D01*
X0220745Y0302375D01*
X0219625Y0301255D01*
X0219019Y0299792D01*
X0219019Y0298208D01*
X0219625Y0296745D01*
X0220745Y0295625D01*
X0219464Y0297134D02*
X0154000Y0297134D01*
X0154000Y0298732D02*
X0190638Y0298732D01*
X0189382Y0300331D02*
X0153447Y0300331D01*
X0152142Y0301929D02*
X0189019Y0301929D01*
X0189324Y0303528D02*
X0113500Y0303528D01*
X0113500Y0301929D02*
X0115858Y0301929D01*
X0114553Y0300331D02*
X0113500Y0300331D01*
X0114000Y0298732D02*
X0114000Y0298732D01*
X0114000Y0297134D02*
X0114000Y0297134D01*
X0113391Y0295535D02*
X0114609Y0295535D01*
X0115992Y0293937D02*
X0112008Y0293937D01*
X0111750Y0292338D02*
X0179708Y0292338D01*
X0178411Y0290739D02*
X0111750Y0290739D01*
X0106250Y0290739D02*
X0072103Y0290739D01*
X0070505Y0289141D02*
X0106250Y0289141D01*
X0106250Y0287542D02*
X0067998Y0287542D01*
X0068745Y0285375D02*
X0067625Y0284255D01*
X0067019Y0282792D01*
X0067019Y0281208D01*
X0067625Y0279745D01*
X0068629Y0278741D01*
X0067745Y0278375D01*
X0066625Y0277255D01*
X0066019Y0275792D01*
X0066019Y0274208D01*
X0066625Y0272745D01*
X0067745Y0271625D01*
X0069208Y0271019D01*
X0070792Y0271019D01*
X0072255Y0271625D01*
X0073375Y0272745D01*
X0073981Y0274208D01*
X0073981Y0275792D01*
X0073375Y0277255D01*
X0072371Y0278259D01*
X0073255Y0278625D01*
X0074000Y0279370D01*
X0074745Y0278625D01*
X0076208Y0278019D01*
X0077792Y0278019D01*
X0079255Y0278625D01*
X0080375Y0279745D01*
X0080981Y0281208D01*
X0080981Y0282792D01*
X0080375Y0284255D01*
X0079255Y0285375D01*
X0077792Y0285981D01*
X0076208Y0285981D01*
X0074745Y0285375D01*
X0074000Y0284630D01*
X0073255Y0285375D01*
X0071792Y0285981D01*
X0070208Y0285981D01*
X0068745Y0285375D01*
X0067715Y0284345D02*
X0038500Y0284345D01*
X0038500Y0282747D02*
X0040643Y0282747D01*
X0038581Y0281148D02*
X0038500Y0281148D01*
X0038500Y0285944D02*
X0070118Y0285944D01*
X0071882Y0285944D02*
X0076118Y0285944D01*
X0077882Y0285944D02*
X0107167Y0285944D01*
X0110745Y0280375D02*
X0109625Y0279255D01*
X0109019Y0277792D01*
X0109019Y0276208D01*
X0109625Y0274745D01*
X0110745Y0273625D01*
X0112208Y0273019D01*
X0113792Y0273019D01*
X0115255Y0273625D01*
X0116375Y0274745D01*
X0116981Y0276208D01*
X0116981Y0277792D01*
X0116375Y0279255D01*
X0115255Y0280375D01*
X0113792Y0280981D01*
X0112208Y0280981D01*
X0110745Y0280375D01*
X0109920Y0279550D02*
X0080180Y0279550D01*
X0080956Y0281148D02*
X0123400Y0281148D01*
X0123400Y0279550D02*
X0116080Y0279550D01*
X0116915Y0277951D02*
X0123400Y0277951D01*
X0123400Y0276353D02*
X0116981Y0276353D01*
X0116379Y0274754D02*
X0122124Y0274754D01*
X0121170Y0273156D02*
X0114123Y0273156D01*
X0111877Y0273156D02*
X0073545Y0273156D01*
X0073981Y0274754D02*
X0109621Y0274754D01*
X0109019Y0276353D02*
X0073749Y0276353D01*
X0072679Y0277951D02*
X0109085Y0277951D01*
X0121019Y0271557D02*
X0072092Y0271557D01*
X0067908Y0271557D02*
X0065815Y0271557D01*
X0066455Y0273156D02*
X0060959Y0273156D01*
X0060981Y0274754D02*
X0066019Y0274754D01*
X0066251Y0276353D02*
X0060277Y0276353D01*
X0057864Y0277951D02*
X0067321Y0277951D01*
X0067820Y0279550D02*
X0045981Y0279550D01*
X0045875Y0277951D02*
X0056136Y0277951D01*
X0053723Y0276353D02*
X0044983Y0276353D01*
X0039017Y0276353D02*
X0038500Y0276353D01*
X0038500Y0274754D02*
X0053019Y0274754D01*
X0053041Y0273156D02*
X0038500Y0273156D01*
X0038500Y0271557D02*
X0053813Y0271557D01*
X0057202Y0269959D02*
X0060502Y0269959D01*
X0060187Y0271557D02*
X0062185Y0271557D01*
X0060019Y0268360D02*
X0059004Y0268360D01*
X0063223Y0263565D02*
X0122400Y0263565D01*
X0122400Y0265163D02*
X0066793Y0265163D01*
X0067796Y0266762D02*
X0122400Y0266762D01*
X0122400Y0268360D02*
X0067981Y0268360D01*
X0067498Y0269959D02*
X0121536Y0269959D01*
X0127600Y0268360D02*
X0192966Y0268360D01*
X0191718Y0266762D02*
X0170321Y0266762D01*
X0169792Y0266981D02*
X0168208Y0266981D01*
X0166745Y0266375D01*
X0165625Y0265255D01*
X0165019Y0263792D01*
X0165019Y0262208D01*
X0165625Y0260745D01*
X0166745Y0259625D01*
X0168208Y0259019D01*
X0169792Y0259019D01*
X0171255Y0259625D01*
X0172375Y0260745D01*
X0172981Y0262208D01*
X0172981Y0263792D01*
X0172375Y0265255D01*
X0171255Y0266375D01*
X0169792Y0266981D01*
X0167679Y0266762D02*
X0127600Y0266762D01*
X0127600Y0265163D02*
X0165587Y0265163D01*
X0165019Y0263565D02*
X0127600Y0263565D01*
X0127600Y0261966D02*
X0165119Y0261966D01*
X0166002Y0260368D02*
X0127600Y0260368D01*
X0130303Y0258769D02*
X0191600Y0258769D01*
X0191600Y0257171D02*
X0153506Y0257171D01*
X0156779Y0255572D02*
X0191600Y0255572D01*
X0191600Y0253974D02*
X0174703Y0253974D01*
X0176302Y0252375D02*
X0191600Y0252375D01*
X0191600Y0250777D02*
X0177900Y0250777D01*
X0179499Y0249178D02*
X0191600Y0249178D01*
X0191600Y0247580D02*
X0181097Y0247580D01*
X0182696Y0245981D02*
X0191600Y0245981D01*
X0191600Y0244383D02*
X0184294Y0244383D01*
X0185893Y0242784D02*
X0191600Y0242784D01*
X0191600Y0241186D02*
X0189444Y0241186D01*
X0190652Y0239587D02*
X0191600Y0239587D01*
X0191595Y0237989D02*
X0190981Y0237989D01*
X0195186Y0234792D02*
X0316000Y0234792D01*
X0316000Y0236390D02*
X0196345Y0236390D01*
X0196400Y0237989D02*
X0316000Y0237989D01*
X0316000Y0239587D02*
X0196400Y0239587D01*
X0196400Y0241186D02*
X0316000Y0241186D01*
X0316000Y0242784D02*
X0196400Y0242784D01*
X0196400Y0244383D02*
X0316000Y0244383D01*
X0316000Y0245981D02*
X0196400Y0245981D01*
X0196400Y0247580D02*
X0316000Y0247580D01*
X0316000Y0249178D02*
X0196400Y0249178D01*
X0196400Y0250777D02*
X0316000Y0250777D01*
X0316000Y0252375D02*
X0196400Y0252375D01*
X0196400Y0253974D02*
X0316000Y0253974D01*
X0316000Y0255572D02*
X0196400Y0255572D01*
X0196400Y0257171D02*
X0316000Y0257171D01*
X0316000Y0258769D02*
X0196400Y0258769D01*
X0196400Y0260368D02*
X0316000Y0260368D01*
X0316000Y0261966D02*
X0196400Y0261966D01*
X0196400Y0263565D02*
X0316000Y0263565D01*
X0316000Y0265163D02*
X0196557Y0265163D01*
X0198156Y0266762D02*
X0316000Y0266762D01*
X0316000Y0268360D02*
X0199754Y0268360D01*
X0201353Y0269959D02*
X0316000Y0269959D01*
X0316000Y0271557D02*
X0205187Y0271557D01*
X0205959Y0273156D02*
X0316000Y0273156D01*
X0316000Y0274754D02*
X0205981Y0274754D01*
X0205277Y0276353D02*
X0316000Y0276353D01*
X0316000Y0233193D02*
X0193587Y0233193D01*
X0193745Y0232375D02*
X0192625Y0231255D01*
X0192019Y0229792D01*
X0192019Y0228208D01*
X0192625Y0226745D01*
X0193745Y0225625D01*
X0195208Y0225019D01*
X0196792Y0225019D01*
X0198255Y0225625D01*
X0199375Y0226745D01*
X0199981Y0228208D01*
X0199981Y0229792D01*
X0199375Y0231255D01*
X0198255Y0232375D01*
X0196792Y0232981D01*
X0195208Y0232981D01*
X0193745Y0232375D01*
X0192964Y0231595D02*
X0191989Y0231595D01*
X0192103Y0229996D02*
X0190390Y0229996D01*
X0188792Y0228398D02*
X0192019Y0228398D01*
X0192603Y0226799D02*
X0187193Y0226799D01*
X0185595Y0225201D02*
X0194770Y0225201D01*
X0197230Y0225201D02*
X0222129Y0225201D01*
X0222168Y0225239D02*
X0220761Y0223832D01*
X0220000Y0221995D01*
X0220000Y0220005D01*
X0220761Y0218168D01*
X0222168Y0216761D01*
X0224005Y0216000D01*
X0225995Y0216000D01*
X0227832Y0216761D01*
X0229239Y0218168D01*
X0230000Y0220005D01*
X0230000Y0221995D01*
X0229239Y0223832D01*
X0227832Y0225239D01*
X0225995Y0226000D01*
X0224005Y0226000D01*
X0222168Y0225239D01*
X0220666Y0223602D02*
X0183996Y0223602D01*
X0182398Y0222003D02*
X0220004Y0222003D01*
X0220000Y0220405D02*
X0180799Y0220405D01*
X0178806Y0225201D02*
X0054981Y0225201D01*
X0054981Y0225792D02*
X0054981Y0224208D01*
X0054375Y0222745D01*
X0053255Y0221625D01*
X0051792Y0221019D01*
X0050208Y0221019D01*
X0048745Y0221625D01*
X0047625Y0222745D01*
X0047019Y0224208D01*
X0047019Y0225792D01*
X0047625Y0227255D01*
X0048745Y0228375D01*
X0050208Y0228981D01*
X0051792Y0228981D01*
X0053255Y0228375D01*
X0054375Y0227255D01*
X0054981Y0225792D01*
X0054564Y0226799D02*
X0180405Y0226799D01*
X0182003Y0228398D02*
X0106469Y0228398D01*
X0105832Y0227761D02*
X0107239Y0229168D01*
X0108000Y0231005D01*
X0108000Y0232995D01*
X0107239Y0234832D01*
X0105832Y0236239D01*
X0103995Y0237000D01*
X0102005Y0237000D01*
X0100168Y0236239D01*
X0098761Y0234832D01*
X0098000Y0232995D01*
X0098000Y0231005D01*
X0098761Y0229168D01*
X0100168Y0227761D01*
X0102005Y0227000D01*
X0103995Y0227000D01*
X0105832Y0227761D01*
X0107582Y0229996D02*
X0183602Y0229996D01*
X0185200Y0231595D02*
X0108000Y0231595D01*
X0107918Y0233193D02*
X0186799Y0233193D01*
X0184578Y0234792D02*
X0107256Y0234792D01*
X0105467Y0236390D02*
X0183358Y0236390D01*
X0183019Y0237989D02*
X0073981Y0237989D01*
X0073981Y0237208D02*
X0073375Y0235745D01*
X0072255Y0234625D01*
X0070792Y0234019D01*
X0069208Y0234019D01*
X0067745Y0234625D01*
X0066625Y0235745D01*
X0066019Y0237208D01*
X0066019Y0238792D01*
X0066625Y0240255D01*
X0067745Y0241375D01*
X0069208Y0241981D01*
X0070792Y0241981D01*
X0072255Y0241375D01*
X0073375Y0240255D01*
X0073981Y0238792D01*
X0073981Y0237208D01*
X0073642Y0236390D02*
X0100533Y0236390D01*
X0098744Y0234792D02*
X0072422Y0234792D01*
X0067578Y0234792D02*
X0034894Y0234792D01*
X0035346Y0233700D02*
X0034323Y0236171D01*
X0032431Y0238063D01*
X0029960Y0239087D01*
X0027284Y0239087D01*
X0024813Y0238063D01*
X0022921Y0236171D01*
X0021898Y0233700D01*
X0021898Y0231025D01*
X0022921Y0228553D01*
X0024813Y0226662D01*
X0027284Y0225638D01*
X0029960Y0225638D01*
X0032431Y0226662D01*
X0034323Y0228553D01*
X0035346Y0231025D01*
X0035346Y0233700D01*
X0035346Y0233193D02*
X0098082Y0233193D01*
X0098000Y0231595D02*
X0035346Y0231595D01*
X0034920Y0229996D02*
X0098418Y0229996D01*
X0099531Y0228398D02*
X0053201Y0228398D01*
X0048799Y0228398D02*
X0034167Y0228398D01*
X0032569Y0226799D02*
X0047436Y0226799D01*
X0047019Y0225201D02*
X0004000Y0225201D01*
X0004000Y0226799D02*
X0024675Y0226799D01*
X0023077Y0228398D02*
X0004000Y0228398D01*
X0004000Y0229996D02*
X0022324Y0229996D01*
X0021898Y0231595D02*
X0004000Y0231595D01*
X0004000Y0233193D02*
X0021898Y0233193D01*
X0022350Y0234792D02*
X0004000Y0234792D01*
X0004000Y0236390D02*
X0023140Y0236390D01*
X0024739Y0237989D02*
X0004000Y0237989D01*
X0004000Y0239587D02*
X0032276Y0239587D01*
X0032019Y0240208D02*
X0032625Y0238745D01*
X0033745Y0237625D01*
X0035208Y0237019D01*
X0036792Y0237019D01*
X0038255Y0237625D01*
X0039375Y0238745D01*
X0039981Y0240208D01*
X0039981Y0241792D01*
X0039375Y0243255D01*
X0038255Y0244375D01*
X0036792Y0244981D01*
X0035208Y0244981D01*
X0033745Y0244375D01*
X0032625Y0243255D01*
X0032019Y0241792D01*
X0032019Y0240208D01*
X0032019Y0241186D02*
X0004000Y0241186D01*
X0004000Y0242784D02*
X0032430Y0242784D01*
X0033763Y0244383D02*
X0004000Y0244383D01*
X0004000Y0245981D02*
X0042389Y0245981D01*
X0042745Y0245625D02*
X0044208Y0245019D01*
X0045792Y0245019D01*
X0047255Y0245625D01*
X0048375Y0246745D01*
X0048981Y0248208D01*
X0048981Y0249792D01*
X0048375Y0251255D01*
X0047255Y0252375D01*
X0045792Y0252981D01*
X0044208Y0252981D01*
X0042745Y0252375D01*
X0041625Y0251255D01*
X0041019Y0249792D01*
X0041019Y0248208D01*
X0041625Y0246745D01*
X0042745Y0245625D01*
X0041279Y0247580D02*
X0004000Y0247580D01*
X0004000Y0249178D02*
X0018192Y0249178D01*
X0018745Y0248625D02*
X0017625Y0249745D01*
X0017019Y0251208D01*
X0017019Y0252792D01*
X0017625Y0254255D01*
X0018745Y0255375D01*
X0020208Y0255981D01*
X0021792Y0255981D01*
X0023255Y0255375D01*
X0024375Y0254255D01*
X0024981Y0252792D01*
X0024981Y0251208D01*
X0024375Y0249745D01*
X0023255Y0248625D01*
X0021792Y0248019D01*
X0020208Y0248019D01*
X0018745Y0248625D01*
X0017198Y0250777D02*
X0004000Y0250777D01*
X0004000Y0252375D02*
X0017019Y0252375D01*
X0017508Y0253974D02*
X0004000Y0253974D01*
X0004000Y0255572D02*
X0019221Y0255572D01*
X0022779Y0255572D02*
X0029500Y0255572D01*
X0029500Y0253974D02*
X0024492Y0253974D01*
X0024981Y0252375D02*
X0029500Y0252375D01*
X0030050Y0250777D02*
X0024802Y0250777D01*
X0023808Y0249178D02*
X0031468Y0249178D01*
X0036532Y0249178D02*
X0041019Y0249178D01*
X0041427Y0250777D02*
X0037950Y0250777D01*
X0038500Y0252375D02*
X0042745Y0252375D01*
X0047255Y0252375D02*
X0109995Y0252375D01*
X0109678Y0252692D02*
X0110798Y0251572D01*
X0112261Y0250966D01*
X0113845Y0250966D01*
X0115308Y0251572D01*
X0116428Y0252692D01*
X0117034Y0254155D01*
X0117034Y0255739D01*
X0116428Y0257202D01*
X0115308Y0258322D01*
X0113845Y0258928D01*
X0112261Y0258928D01*
X0110798Y0258322D01*
X0109678Y0257202D01*
X0109072Y0255739D01*
X0109072Y0254155D01*
X0109678Y0252692D01*
X0109147Y0253974D02*
X0038500Y0253974D01*
X0038500Y0255572D02*
X0109072Y0255572D01*
X0109665Y0257171D02*
X0038500Y0257171D01*
X0038500Y0258769D02*
X0055867Y0258769D01*
X0054268Y0260368D02*
X0038500Y0260368D01*
X0029500Y0260368D02*
X0004000Y0260368D01*
X0004000Y0261966D02*
X0029500Y0261966D01*
X0029500Y0263565D02*
X0004000Y0263565D01*
X0004000Y0265163D02*
X0029500Y0265163D01*
X0029500Y0266762D02*
X0004000Y0266762D01*
X0004000Y0268360D02*
X0024384Y0268360D01*
X0022536Y0269959D02*
X0004000Y0269959D01*
X0004000Y0271557D02*
X0022019Y0271557D01*
X0022170Y0273156D02*
X0004000Y0273156D01*
X0004000Y0274754D02*
X0023124Y0274754D01*
X0028876Y0274754D02*
X0029500Y0274754D01*
X0029500Y0276353D02*
X0004000Y0276353D01*
X0004000Y0277951D02*
X0029500Y0277951D01*
X0029500Y0279550D02*
X0004000Y0279550D01*
X0004000Y0281148D02*
X0029500Y0281148D01*
X0029500Y0282747D02*
X0004000Y0282747D01*
X0004000Y0284345D02*
X0029500Y0284345D01*
X0029500Y0285944D02*
X0004000Y0285944D01*
X0004000Y0287542D02*
X0029500Y0287542D01*
X0029500Y0289141D02*
X0004000Y0289141D01*
X0004000Y0290739D02*
X0029850Y0290739D01*
X0030974Y0292338D02*
X0004000Y0292338D01*
X0004000Y0293937D02*
X0032573Y0293937D01*
X0034171Y0295535D02*
X0004000Y0295535D01*
X0004000Y0297134D02*
X0038050Y0297134D01*
X0038019Y0298732D02*
X0004000Y0298732D01*
X0004000Y0300331D02*
X0038700Y0300331D01*
X0041082Y0301929D02*
X0004000Y0301929D01*
X0004000Y0303528D02*
X0065762Y0303528D01*
X0065500Y0301929D02*
X0042918Y0301929D01*
X0045300Y0300331D02*
X0065500Y0300331D01*
X0065500Y0298732D02*
X0045981Y0298732D01*
X0045950Y0297134D02*
X0065500Y0297134D01*
X0074500Y0297134D02*
X0104000Y0297134D01*
X0104000Y0298732D02*
X0074500Y0298732D01*
X0074695Y0300331D02*
X0104500Y0300331D01*
X0104500Y0301929D02*
X0076293Y0301929D01*
X0069959Y0308323D02*
X0004000Y0308323D01*
X0004000Y0306725D02*
X0068361Y0306725D01*
X0066762Y0305126D02*
X0004000Y0305126D01*
X0004000Y0309922D02*
X0071558Y0309922D01*
X0071185Y0309549D02*
X0071185Y0309549D01*
X0074500Y0295535D02*
X0104609Y0295535D01*
X0105992Y0293937D02*
X0074430Y0293937D01*
X0073702Y0292338D02*
X0106250Y0292338D01*
X0122008Y0293937D02*
X0125992Y0293937D01*
X0126168Y0293761D02*
X0128005Y0293000D01*
X0129995Y0293000D01*
X0131832Y0293761D01*
X0133239Y0295168D01*
X0134000Y0297005D01*
X0134000Y0298995D01*
X0133239Y0300832D01*
X0131832Y0302239D01*
X0129995Y0303000D01*
X0128005Y0303000D01*
X0126168Y0302239D01*
X0124761Y0300832D01*
X0124000Y0298995D01*
X0124000Y0297005D01*
X0124761Y0295168D01*
X0126168Y0293761D01*
X0124609Y0295535D02*
X0123391Y0295535D01*
X0124000Y0297134D02*
X0124000Y0297134D01*
X0124000Y0298732D02*
X0124000Y0298732D01*
X0123447Y0300331D02*
X0124553Y0300331D01*
X0125858Y0301929D02*
X0122142Y0301929D01*
X0132142Y0301929D02*
X0135858Y0301929D01*
X0134553Y0300331D02*
X0133447Y0300331D01*
X0134000Y0298732D02*
X0134000Y0298732D01*
X0134000Y0297134D02*
X0134000Y0297134D01*
X0133391Y0295535D02*
X0134609Y0295535D01*
X0135992Y0293937D02*
X0132008Y0293937D01*
X0142008Y0293937D02*
X0145992Y0293937D01*
X0144609Y0295535D02*
X0143391Y0295535D01*
X0144000Y0297134D02*
X0144000Y0297134D01*
X0144000Y0298732D02*
X0144000Y0298732D01*
X0143447Y0300331D02*
X0144553Y0300331D01*
X0145858Y0301929D02*
X0142142Y0301929D01*
X0150480Y0309922D02*
X0112442Y0309922D01*
X0123400Y0284345D02*
X0080285Y0284345D01*
X0080981Y0282747D02*
X0123400Y0282747D01*
X0128600Y0276353D02*
X0152723Y0276353D01*
X0151418Y0274754D02*
X0128600Y0274754D01*
X0122400Y0261966D02*
X0063500Y0261966D01*
X0063195Y0260368D02*
X0122400Y0260368D01*
X0122400Y0258769D02*
X0114228Y0258769D01*
X0111878Y0258769D02*
X0062133Y0258769D01*
X0066745Y0249375D02*
X0065625Y0248255D01*
X0065019Y0246792D01*
X0065019Y0245208D01*
X0065625Y0243745D01*
X0066745Y0242625D01*
X0068208Y0242019D01*
X0069792Y0242019D01*
X0071255Y0242625D01*
X0072375Y0243745D01*
X0072981Y0245208D01*
X0072981Y0246792D01*
X0072375Y0248255D01*
X0071255Y0249375D01*
X0069792Y0249981D01*
X0068208Y0249981D01*
X0066745Y0249375D01*
X0066548Y0249178D02*
X0048981Y0249178D01*
X0048721Y0247580D02*
X0065345Y0247580D01*
X0065019Y0245981D02*
X0047611Y0245981D01*
X0048573Y0250777D02*
X0151198Y0250777D01*
X0150948Y0252375D02*
X0132005Y0252375D01*
X0125995Y0252375D02*
X0116111Y0252375D01*
X0116959Y0253974D02*
X0125116Y0253974D01*
X0124751Y0255572D02*
X0117034Y0255572D01*
X0116441Y0257171D02*
X0123152Y0257171D01*
X0152192Y0249178D02*
X0071452Y0249178D01*
X0072655Y0247580D02*
X0173743Y0247580D01*
X0172145Y0249178D02*
X0157808Y0249178D01*
X0163000Y0256000D02*
X0164000Y0257000D01*
X0171998Y0260368D02*
X0191600Y0260368D01*
X0191600Y0261966D02*
X0172881Y0261966D01*
X0172981Y0263565D02*
X0191600Y0263565D01*
X0191600Y0265163D02*
X0172413Y0265163D01*
X0158712Y0271557D02*
X0196163Y0271557D01*
X0194565Y0269959D02*
X0157589Y0269959D01*
X0158981Y0273156D02*
X0197762Y0273156D01*
X0198019Y0274754D02*
X0158582Y0274754D01*
X0157277Y0276353D02*
X0198723Y0276353D01*
X0204574Y0285944D02*
X0228314Y0285944D01*
X0233686Y0285944D02*
X0237623Y0285944D01*
X0237400Y0287542D02*
X0205705Y0287542D01*
X0205981Y0289141D02*
X0237400Y0289141D01*
X0237400Y0290739D02*
X0205589Y0290739D01*
X0207456Y0300331D02*
X0196618Y0300331D01*
X0196981Y0301929D02*
X0205549Y0301929D01*
X0205019Y0303528D02*
X0196676Y0303528D01*
X0195362Y0298732D02*
X0219019Y0298732D01*
X0219242Y0300331D02*
X0210544Y0300331D01*
X0212451Y0301929D02*
X0213441Y0301929D01*
X0218559Y0301929D02*
X0220299Y0301929D01*
X0219699Y0303528D02*
X0237400Y0303528D01*
X0237400Y0305126D02*
X0219981Y0305126D01*
X0225701Y0301929D02*
X0237400Y0301929D01*
X0237400Y0300331D02*
X0226758Y0300331D01*
X0226981Y0298732D02*
X0237400Y0298732D01*
X0237400Y0297134D02*
X0226536Y0297134D01*
X0225038Y0295535D02*
X0237400Y0295535D01*
X0238978Y0284345D02*
X0234752Y0284345D01*
X0234981Y0282747D02*
X0240576Y0282747D01*
X0242019Y0281148D02*
X0234542Y0281148D01*
X0233074Y0279550D02*
X0242292Y0279550D01*
X0205157Y0305126D02*
X0202675Y0305126D01*
X0175342Y0245981D02*
X0072981Y0245981D01*
X0072639Y0244383D02*
X0176940Y0244383D01*
X0178539Y0242784D02*
X0071414Y0242784D01*
X0072444Y0241186D02*
X0180137Y0241186D01*
X0181736Y0239587D02*
X0073652Y0239587D01*
X0067556Y0241186D02*
X0039981Y0241186D01*
X0039724Y0239587D02*
X0066348Y0239587D01*
X0066019Y0237989D02*
X0038619Y0237989D01*
X0034104Y0236390D02*
X0066358Y0236390D01*
X0066586Y0242784D02*
X0039570Y0242784D01*
X0038237Y0244383D02*
X0065361Y0244383D01*
X0063523Y0224400D02*
X0062641Y0224035D01*
X0061965Y0223359D01*
X0060965Y0222359D01*
X0060600Y0221477D01*
X0060600Y0203994D01*
X0056006Y0199400D01*
X0036690Y0199400D01*
X0036937Y0199995D01*
X0036937Y0201737D01*
X0036270Y0203346D01*
X0035039Y0204578D01*
X0033430Y0205244D01*
X0031688Y0205244D01*
X0030079Y0204578D01*
X0028848Y0203346D01*
X0028622Y0202801D01*
X0028396Y0203346D01*
X0027165Y0204578D01*
X0025556Y0205244D01*
X0023814Y0205244D01*
X0022205Y0204578D01*
X0020974Y0203346D01*
X0020307Y0201737D01*
X0020307Y0199995D01*
X0020974Y0198386D01*
X0022205Y0197155D01*
X0022750Y0196929D01*
X0022205Y0196704D01*
X0020974Y0195472D01*
X0020307Y0193863D01*
X0020307Y0192121D01*
X0020974Y0190512D01*
X0022205Y0189281D01*
X0022750Y0189055D01*
X0022205Y0188830D01*
X0020974Y0187598D01*
X0020307Y0185989D01*
X0020307Y0184247D01*
X0020974Y0182638D01*
X0022205Y0181407D01*
X0023814Y0180740D01*
X0025556Y0180740D01*
X0027165Y0181407D01*
X0028396Y0182638D01*
X0028622Y0183183D01*
X0028848Y0182638D01*
X0030079Y0181407D01*
X0031688Y0180740D01*
X0033430Y0180740D01*
X0035039Y0181407D01*
X0036270Y0182638D01*
X0036937Y0184247D01*
X0036937Y0185989D01*
X0036270Y0187598D01*
X0035039Y0188830D01*
X0034494Y0189055D01*
X0035039Y0189281D01*
X0036270Y0190512D01*
X0036937Y0192121D01*
X0036937Y0193863D01*
X0036632Y0194600D01*
X0057477Y0194600D01*
X0058359Y0194965D01*
X0064359Y0200965D01*
X0065035Y0201641D01*
X0065400Y0202523D01*
X0065400Y0210002D01*
X0066808Y0209419D01*
X0068392Y0209419D01*
X0069855Y0210025D01*
X0070975Y0211145D01*
X0071581Y0212608D01*
X0071581Y0214192D01*
X0070975Y0215655D01*
X0069855Y0216775D01*
X0068392Y0217381D01*
X0066808Y0217381D01*
X0065400Y0216798D01*
X0065400Y0219600D01*
X0109206Y0219600D01*
X0107427Y0217821D01*
X0106995Y0218000D01*
X0105005Y0218000D01*
X0103168Y0217239D01*
X0101761Y0215832D01*
X0101000Y0213995D01*
X0100239Y0215832D01*
X0098832Y0217239D01*
X0096995Y0218000D01*
X0095005Y0218000D01*
X0093168Y0217239D01*
X0091761Y0215832D01*
X0091000Y0213995D01*
X0091000Y0212005D01*
X0091665Y0210400D01*
X0078098Y0210400D01*
X0078075Y0210455D01*
X0076955Y0211575D01*
X0075492Y0212181D01*
X0073908Y0212181D01*
X0072445Y0211575D01*
X0071325Y0210455D01*
X0070719Y0208992D01*
X0070719Y0207408D01*
X0071325Y0205945D01*
X0072445Y0204825D01*
X0073908Y0204219D01*
X0075492Y0204219D01*
X0076955Y0204825D01*
X0077730Y0205600D01*
X0125006Y0205600D01*
X0151089Y0179517D01*
X0150745Y0179375D01*
X0149625Y0178255D01*
X0149019Y0176792D01*
X0149019Y0175208D01*
X0149625Y0173745D01*
X0150745Y0172625D01*
X0152208Y0172019D01*
X0153792Y0172019D01*
X0154179Y0172179D01*
X0154019Y0171792D01*
X0154019Y0170208D01*
X0154252Y0169646D01*
X0151517Y0166911D01*
X0151375Y0167255D01*
X0150255Y0168375D01*
X0148792Y0168981D01*
X0147208Y0168981D01*
X0145745Y0168375D01*
X0144625Y0167255D01*
X0144019Y0165792D01*
X0144019Y0164208D01*
X0144625Y0162745D01*
X0145050Y0162320D01*
X0102545Y0161156D01*
X0102981Y0162208D01*
X0102981Y0163792D01*
X0102375Y0165255D01*
X0101255Y0166375D01*
X0099792Y0166981D01*
X0098208Y0166981D01*
X0096745Y0166375D01*
X0095625Y0165255D01*
X0095019Y0163792D01*
X0095019Y0162208D01*
X0095534Y0160963D01*
X0074967Y0160400D01*
X0074523Y0160400D01*
X0074491Y0160387D01*
X0074457Y0160386D01*
X0074051Y0160205D01*
X0073641Y0160035D01*
X0073616Y0160011D01*
X0073585Y0159997D01*
X0073280Y0159674D01*
X0045641Y0132035D01*
X0044965Y0131359D01*
X0044600Y0130477D01*
X0044600Y0129994D01*
X0043965Y0129359D01*
X0043600Y0128477D01*
X0043600Y0087599D01*
X0040989Y0082699D01*
X0040354Y0083333D01*
X0039809Y0083559D01*
X0040354Y0083785D01*
X0041585Y0085016D01*
X0042252Y0086625D01*
X0042252Y0088367D01*
X0041585Y0089976D01*
X0040354Y0091208D01*
X0039809Y0091433D01*
X0040354Y0091659D01*
X0041585Y0092890D01*
X0042252Y0094499D01*
X0042252Y0096241D01*
X0041585Y0097850D01*
X0040354Y0099082D01*
X0038745Y0099748D01*
X0037003Y0099748D01*
X0035394Y0099082D01*
X0034163Y0097850D01*
X0033937Y0097305D01*
X0033711Y0097850D01*
X0032480Y0099082D01*
X0030871Y0099748D01*
X0029129Y0099748D01*
X0027520Y0099082D01*
X0026289Y0097850D01*
X0025622Y0096241D01*
X0025622Y0094499D01*
X0026289Y0092890D01*
X0027520Y0091659D01*
X0028065Y0091433D01*
X0027520Y0091208D01*
X0026289Y0089976D01*
X0025622Y0088367D01*
X0025622Y0086625D01*
X0026289Y0085016D01*
X0027520Y0083785D01*
X0028065Y0083559D01*
X0027520Y0083333D01*
X0026289Y0082102D01*
X0025622Y0080493D01*
X0025622Y0078751D01*
X0026289Y0077142D01*
X0027520Y0075911D01*
X0028065Y0075685D01*
X0027520Y0075459D01*
X0026289Y0074228D01*
X0025622Y0072619D01*
X0025622Y0070877D01*
X0026289Y0069268D01*
X0027520Y0068037D01*
X0028065Y0067811D01*
X0027520Y0067585D01*
X0026289Y0066354D01*
X0025622Y0064745D01*
X0025622Y0063003D01*
X0026289Y0061394D01*
X0027520Y0060163D01*
X0028065Y0059937D01*
X0027520Y0059711D01*
X0026289Y0058480D01*
X0025622Y0056871D01*
X0025622Y0055129D01*
X0026289Y0053520D01*
X0027520Y0052289D01*
X0029129Y0051622D01*
X0030871Y0051622D01*
X0032480Y0052289D01*
X0033711Y0053520D01*
X0033937Y0054065D01*
X0034163Y0053520D01*
X0035394Y0052289D01*
X0037003Y0051622D01*
X0038745Y0051622D01*
X0040354Y0052289D01*
X0041585Y0053520D01*
X0042252Y0055129D01*
X0042252Y0056871D01*
X0041585Y0058480D01*
X0040354Y0059711D01*
X0039809Y0059937D01*
X0040354Y0060163D01*
X0041585Y0061394D01*
X0042252Y0063003D01*
X0042252Y0064745D01*
X0041585Y0066354D01*
X0040354Y0067585D01*
X0039809Y0067811D01*
X0040354Y0068037D01*
X0041585Y0069268D01*
X0042252Y0070877D01*
X0042252Y0072619D01*
X0041729Y0073880D01*
X0047950Y0085556D01*
X0048035Y0085641D01*
X0048173Y0085974D01*
X0048343Y0086293D01*
X0048354Y0086412D01*
X0048400Y0086523D01*
X0048400Y0086884D01*
X0048435Y0087243D01*
X0048400Y0087358D01*
X0048400Y0108600D01*
X0049582Y0108600D01*
X0049761Y0108168D01*
X0051168Y0106761D01*
X0053005Y0106000D01*
X0054995Y0106000D01*
X0056832Y0106761D01*
X0058239Y0108168D01*
X0059000Y0110005D01*
X0059000Y0111995D01*
X0058239Y0113832D01*
X0056832Y0115239D01*
X0054995Y0116000D01*
X0053005Y0116000D01*
X0051168Y0115239D01*
X0049761Y0113832D01*
X0049582Y0113400D01*
X0048400Y0113400D01*
X0048400Y0127006D01*
X0049035Y0127641D01*
X0049400Y0128523D01*
X0049400Y0129006D01*
X0076021Y0155627D01*
X0148033Y0157600D01*
X0148477Y0157600D01*
X0148509Y0157613D01*
X0148543Y0157614D01*
X0148949Y0157795D01*
X0149359Y0157965D01*
X0149384Y0157989D01*
X0149415Y0158003D01*
X0149720Y0158326D01*
X0151608Y0160214D01*
X0151019Y0158792D01*
X0151019Y0157208D01*
X0151625Y0155745D01*
X0152745Y0154625D01*
X0154208Y0154019D01*
X0155792Y0154019D01*
X0157255Y0154625D01*
X0158375Y0155745D01*
X0158981Y0157208D01*
X0158981Y0158792D01*
X0158375Y0160255D01*
X0157255Y0161375D01*
X0155792Y0161981D01*
X0154208Y0161981D01*
X0152786Y0161392D01*
X0158413Y0167019D01*
X0158792Y0167019D01*
X0160255Y0167625D01*
X0161375Y0168745D01*
X0161517Y0169089D01*
X0168019Y0162587D01*
X0168019Y0161208D01*
X0168625Y0159745D01*
X0169745Y0158625D01*
X0171208Y0158019D01*
X0172792Y0158019D01*
X0174255Y0158625D01*
X0175375Y0159745D01*
X0175981Y0161208D01*
X0175981Y0162792D01*
X0175375Y0164255D01*
X0174255Y0165375D01*
X0172792Y0165981D01*
X0171413Y0165981D01*
X0171159Y0166235D01*
X0171244Y0166200D01*
X0172756Y0166200D01*
X0174153Y0166779D01*
X0175221Y0167847D01*
X0175800Y0169244D01*
X0175800Y0170756D01*
X0175221Y0172153D01*
X0174153Y0173221D01*
X0172756Y0173800D01*
X0171244Y0173800D01*
X0169847Y0173221D01*
X0169026Y0172400D01*
X0167994Y0172400D01*
X0161794Y0178600D01*
X0167200Y0178600D01*
X0167200Y0177244D01*
X0167779Y0175847D01*
X0168847Y0174779D01*
X0170244Y0174200D01*
X0171756Y0174200D01*
X0173153Y0174779D01*
X0173566Y0175192D01*
X0214482Y0170543D01*
X0214731Y0170465D01*
X0214972Y0170487D01*
X0215212Y0170460D01*
X0215462Y0170532D01*
X0215722Y0170555D01*
X0215936Y0170668D01*
X0216168Y0170734D01*
X0216372Y0170896D01*
X0216602Y0171018D01*
X0216757Y0171203D01*
X0216946Y0171354D01*
X0217072Y0171581D01*
X0231171Y0188500D01*
X0252497Y0188500D01*
X0253416Y0188881D01*
X0254119Y0189584D01*
X0257119Y0192584D01*
X0257500Y0193503D01*
X0257500Y0217497D01*
X0257119Y0218416D01*
X0256416Y0219119D01*
X0251941Y0223595D01*
X0251801Y0223804D01*
X0251593Y0223943D01*
X0251416Y0224119D01*
X0251183Y0224216D01*
X0250973Y0224356D01*
X0250728Y0224404D01*
X0250497Y0224500D01*
X0250245Y0224500D01*
X0249997Y0224549D01*
X0249752Y0224500D01*
X0249503Y0224500D01*
X0249270Y0224403D01*
X0248768Y0224303D01*
X0247832Y0225239D01*
X0245995Y0226000D01*
X0244005Y0226000D01*
X0242168Y0225239D01*
X0240761Y0223832D01*
X0240000Y0221995D01*
X0240000Y0220005D01*
X0240761Y0218168D01*
X0242168Y0216761D01*
X0244005Y0216000D01*
X0245995Y0216000D01*
X0247832Y0216761D01*
X0249239Y0218168D01*
X0249549Y0218916D01*
X0252500Y0215964D01*
X0252500Y0195036D01*
X0250964Y0193500D01*
X0230380Y0193500D01*
X0230269Y0193535D01*
X0229887Y0193500D01*
X0229503Y0193500D01*
X0229395Y0193455D01*
X0229278Y0193445D01*
X0228939Y0193266D01*
X0228584Y0193119D01*
X0228501Y0193037D01*
X0228398Y0192982D01*
X0228152Y0192688D01*
X0227881Y0192416D01*
X0227836Y0192308D01*
X0213943Y0175636D01*
X0197087Y0177552D01*
X0197119Y0177584D01*
X0200019Y0180483D01*
X0200019Y0180208D01*
X0200625Y0178745D01*
X0201745Y0177625D01*
X0203208Y0177019D01*
X0204792Y0177019D01*
X0206255Y0177625D01*
X0207375Y0178745D01*
X0207981Y0180208D01*
X0207981Y0181792D01*
X0207375Y0183255D01*
X0206255Y0184375D01*
X0205953Y0184500D01*
X0213497Y0184500D01*
X0214416Y0184881D01*
X0215119Y0185584D01*
X0226918Y0197383D01*
X0227832Y0197761D01*
X0229239Y0199168D01*
X0230000Y0201005D01*
X0230761Y0199168D01*
X0232168Y0197761D01*
X0234005Y0197000D01*
X0235995Y0197000D01*
X0237832Y0197761D01*
X0239239Y0199168D01*
X0240000Y0201005D01*
X0240000Y0202995D01*
X0239239Y0204832D01*
X0237832Y0206239D01*
X0235995Y0207000D01*
X0234005Y0207000D01*
X0232168Y0206239D01*
X0230761Y0204832D01*
X0230000Y0202995D01*
X0230000Y0201005D01*
X0230000Y0202995D01*
X0229239Y0204832D01*
X0227832Y0206239D01*
X0225995Y0207000D01*
X0224005Y0207000D01*
X0222168Y0206239D01*
X0220761Y0204832D01*
X0220000Y0202995D01*
X0220000Y0201005D01*
X0220761Y0199168D01*
X0221197Y0198732D01*
X0211964Y0189500D01*
X0209376Y0189500D01*
X0210000Y0191005D01*
X0210000Y0192995D01*
X0209239Y0194832D01*
X0207832Y0196239D01*
X0205995Y0197000D01*
X0204005Y0197000D01*
X0202168Y0196239D01*
X0200761Y0194832D01*
X0200000Y0192995D01*
X0200000Y0191005D01*
X0200761Y0189168D01*
X0201197Y0188732D01*
X0197981Y0185517D01*
X0197981Y0185792D01*
X0197375Y0187255D01*
X0196255Y0188375D01*
X0194792Y0188981D01*
X0193208Y0188981D01*
X0191745Y0188375D01*
X0190625Y0187255D01*
X0190019Y0185792D01*
X0190019Y0184208D01*
X0190625Y0182745D01*
X0191745Y0181625D01*
X0192047Y0181500D01*
X0180036Y0181500D01*
X0178981Y0182554D01*
X0178981Y0183792D01*
X0178375Y0185255D01*
X0177255Y0186375D01*
X0175792Y0186981D01*
X0174208Y0186981D01*
X0172981Y0186473D01*
X0172981Y0187792D01*
X0172375Y0189255D01*
X0171255Y0190375D01*
X0169792Y0190981D01*
X0168208Y0190981D01*
X0166745Y0190375D01*
X0166000Y0189630D01*
X0165255Y0190375D01*
X0163792Y0190981D01*
X0162208Y0190981D01*
X0160745Y0190375D01*
X0159625Y0189255D01*
X0159019Y0187792D01*
X0159019Y0186208D01*
X0159608Y0184786D01*
X0120359Y0224035D01*
X0119477Y0224400D01*
X0063523Y0224400D01*
X0062208Y0223602D02*
X0054730Y0223602D01*
X0053634Y0222003D02*
X0060818Y0222003D01*
X0060600Y0220405D02*
X0033937Y0220405D01*
X0034059Y0220247D02*
X0033538Y0220925D01*
X0032933Y0221530D01*
X0032255Y0222051D01*
X0031514Y0222478D01*
X0030724Y0222806D01*
X0029898Y0223027D01*
X0029397Y0223093D01*
X0029397Y0217389D01*
X0035101Y0217389D01*
X0035035Y0217890D01*
X0034813Y0218716D01*
X0034486Y0219506D01*
X0034059Y0220247D01*
X0034776Y0218806D02*
X0060600Y0218806D01*
X0060600Y0217208D02*
X0029397Y0217208D01*
X0029397Y0217389D02*
X0029397Y0215839D01*
X0029397Y0210135D01*
X0029898Y0210201D01*
X0030724Y0210423D01*
X0031514Y0210750D01*
X0032255Y0211178D01*
X0032933Y0211698D01*
X0033538Y0212303D01*
X0034059Y0212982D01*
X0034486Y0213722D01*
X0034813Y0214512D01*
X0035035Y0215339D01*
X0035101Y0215839D01*
X0029397Y0215839D01*
X0027847Y0215839D01*
X0027847Y0210135D01*
X0027346Y0210201D01*
X0026520Y0210423D01*
X0025730Y0210750D01*
X0024989Y0211178D01*
X0024311Y0211698D01*
X0023706Y0212303D01*
X0023186Y0212982D01*
X0022758Y0213722D01*
X0022431Y0214512D01*
X0022209Y0215339D01*
X0022143Y0215839D01*
X0027847Y0215839D01*
X0027847Y0217389D01*
X0022143Y0217389D01*
X0022209Y0217890D01*
X0022431Y0218716D01*
X0022758Y0219506D01*
X0023186Y0220247D01*
X0023706Y0220925D01*
X0024311Y0221530D01*
X0024989Y0222051D01*
X0025730Y0222478D01*
X0026520Y0222806D01*
X0027346Y0223027D01*
X0027847Y0223093D01*
X0027847Y0217389D01*
X0029397Y0217389D01*
X0029397Y0218806D02*
X0027847Y0218806D01*
X0027847Y0217208D02*
X0004000Y0217208D01*
X0004000Y0218806D02*
X0022468Y0218806D01*
X0023307Y0220405D02*
X0004000Y0220405D01*
X0004000Y0222003D02*
X0024928Y0222003D01*
X0027847Y0222003D02*
X0029397Y0222003D01*
X0029397Y0220405D02*
X0027847Y0220405D01*
X0032316Y0222003D02*
X0048366Y0222003D01*
X0047270Y0223602D02*
X0004000Y0223602D01*
X0004000Y0215609D02*
X0022174Y0215609D01*
X0022638Y0214011D02*
X0004000Y0214011D01*
X0004000Y0212412D02*
X0023622Y0212412D01*
X0025620Y0210814D02*
X0004000Y0210814D01*
X0004000Y0209215D02*
X0060600Y0209215D01*
X0060600Y0207617D02*
X0004000Y0207617D01*
X0004000Y0206018D02*
X0060600Y0206018D01*
X0060600Y0204420D02*
X0035197Y0204420D01*
X0036488Y0202821D02*
X0059427Y0202821D01*
X0057829Y0201223D02*
X0036937Y0201223D01*
X0036783Y0199624D02*
X0056230Y0199624D01*
X0059821Y0196427D02*
X0064719Y0196427D01*
X0064719Y0197192D02*
X0064719Y0195608D01*
X0065325Y0194145D01*
X0066445Y0193025D01*
X0067908Y0192419D01*
X0069492Y0192419D01*
X0070955Y0193025D01*
X0072075Y0194145D01*
X0072681Y0195608D01*
X0072681Y0197192D01*
X0072075Y0198655D01*
X0070955Y0199775D01*
X0069492Y0200381D01*
X0067908Y0200381D01*
X0066445Y0199775D01*
X0065325Y0198655D01*
X0064719Y0197192D01*
X0065064Y0198026D02*
X0061420Y0198026D01*
X0063018Y0199624D02*
X0066294Y0199624D01*
X0064617Y0201223D02*
X0112197Y0201223D01*
X0112019Y0200792D02*
X0112019Y0199208D01*
X0112625Y0197745D01*
X0113745Y0196625D01*
X0113992Y0196522D01*
X0112925Y0195455D01*
X0112319Y0193992D01*
X0112319Y0192408D01*
X0112925Y0190945D01*
X0114045Y0189825D01*
X0115508Y0189219D01*
X0117092Y0189219D01*
X0118555Y0189825D01*
X0119675Y0190945D01*
X0120281Y0192408D01*
X0120281Y0193992D01*
X0119675Y0195455D01*
X0118555Y0196575D01*
X0118308Y0196678D01*
X0119375Y0197745D01*
X0119981Y0199208D01*
X0119981Y0200792D01*
X0119375Y0202255D01*
X0118255Y0203375D01*
X0116792Y0203981D01*
X0115208Y0203981D01*
X0113745Y0203375D01*
X0112625Y0202255D01*
X0112019Y0200792D01*
X0112019Y0199624D02*
X0071106Y0199624D01*
X0072336Y0198026D02*
X0112509Y0198026D01*
X0113897Y0196427D02*
X0072681Y0196427D01*
X0072358Y0194829D02*
X0112666Y0194829D01*
X0112319Y0193230D02*
X0071160Y0193230D01*
X0066240Y0193230D02*
X0036937Y0193230D01*
X0036734Y0191632D02*
X0112640Y0191632D01*
X0113837Y0190033D02*
X0035792Y0190033D01*
X0035434Y0188435D02*
X0142171Y0188435D01*
X0140573Y0190033D02*
X0118763Y0190033D01*
X0119960Y0191632D02*
X0138974Y0191632D01*
X0137376Y0193230D02*
X0120281Y0193230D01*
X0119934Y0194829D02*
X0135777Y0194829D01*
X0134179Y0196427D02*
X0118703Y0196427D01*
X0119491Y0198026D02*
X0132580Y0198026D01*
X0130982Y0199624D02*
X0119981Y0199624D01*
X0119803Y0201223D02*
X0129383Y0201223D01*
X0127785Y0202821D02*
X0118809Y0202821D01*
X0113191Y0202821D02*
X0065400Y0202821D01*
X0065400Y0204420D02*
X0073423Y0204420D01*
X0075977Y0204420D02*
X0126186Y0204420D01*
X0133580Y0210814D02*
X0141184Y0210814D01*
X0141600Y0212412D02*
X0131982Y0212412D01*
X0130383Y0214011D02*
X0141600Y0214011D01*
X0141600Y0215609D02*
X0135218Y0215609D01*
X0135255Y0215625D02*
X0136375Y0216745D01*
X0136981Y0218208D01*
X0136981Y0219792D01*
X0136375Y0221255D01*
X0135255Y0222375D01*
X0133792Y0222981D01*
X0132208Y0222981D01*
X0130745Y0222375D01*
X0129625Y0221255D01*
X0129019Y0219792D01*
X0129019Y0218208D01*
X0129625Y0216745D01*
X0130745Y0215625D01*
X0132208Y0215019D01*
X0133792Y0215019D01*
X0135255Y0215625D01*
X0136567Y0217208D02*
X0141600Y0217208D01*
X0141600Y0218806D02*
X0136981Y0218806D01*
X0136727Y0220405D02*
X0141600Y0220405D01*
X0141600Y0222003D02*
X0135627Y0222003D01*
X0130373Y0222003D02*
X0122391Y0222003D01*
X0123989Y0220405D02*
X0129273Y0220405D01*
X0129019Y0218806D02*
X0125588Y0218806D01*
X0127186Y0217208D02*
X0129433Y0217208D01*
X0128785Y0215609D02*
X0130782Y0215609D01*
X0135179Y0209215D02*
X0140194Y0209215D01*
X0140019Y0207617D02*
X0136777Y0207617D01*
X0138376Y0206018D02*
X0140512Y0206018D01*
X0139974Y0204420D02*
X0142240Y0204420D01*
X0141573Y0202821D02*
X0150191Y0202821D01*
X0150745Y0203375D02*
X0149625Y0202255D01*
X0149019Y0200792D01*
X0149019Y0199208D01*
X0149625Y0197745D01*
X0150745Y0196625D01*
X0152208Y0196019D01*
X0153792Y0196019D01*
X0155255Y0196625D01*
X0156375Y0197745D01*
X0156981Y0199208D01*
X0156981Y0200792D01*
X0156375Y0202255D01*
X0155255Y0203375D01*
X0153792Y0203981D01*
X0152208Y0203981D01*
X0150745Y0203375D01*
X0149197Y0201223D02*
X0143171Y0201223D01*
X0144770Y0199624D02*
X0149019Y0199624D01*
X0149509Y0198026D02*
X0146368Y0198026D01*
X0147967Y0196427D02*
X0151222Y0196427D01*
X0149565Y0194829D02*
X0200760Y0194829D01*
X0200098Y0193230D02*
X0151164Y0193230D01*
X0152762Y0191632D02*
X0200000Y0191632D01*
X0200403Y0190033D02*
X0171597Y0190033D01*
X0172715Y0188435D02*
X0191889Y0188435D01*
X0190451Y0186836D02*
X0176142Y0186836D01*
X0173858Y0186836D02*
X0172981Y0186836D01*
X0178382Y0185238D02*
X0190019Y0185238D01*
X0190255Y0183639D02*
X0178981Y0183639D01*
X0179495Y0182041D02*
X0191329Y0182041D01*
X0198379Y0178844D02*
X0200584Y0178844D01*
X0200019Y0180442D02*
X0199978Y0180442D01*
X0199784Y0177245D02*
X0202662Y0177245D01*
X0205338Y0177245D02*
X0215283Y0177245D01*
X0213951Y0175647D02*
X0213851Y0175647D01*
X0216615Y0178844D02*
X0207416Y0178844D01*
X0207981Y0180442D02*
X0217948Y0180442D01*
X0219280Y0182041D02*
X0207878Y0182041D01*
X0206991Y0183639D02*
X0220612Y0183639D01*
X0221944Y0185238D02*
X0214773Y0185238D01*
X0216372Y0186836D02*
X0223276Y0186836D01*
X0224608Y0188435D02*
X0217970Y0188435D01*
X0219569Y0190033D02*
X0225940Y0190033D01*
X0227272Y0191632D02*
X0221167Y0191632D01*
X0222766Y0193230D02*
X0228852Y0193230D01*
X0225963Y0196427D02*
X0252500Y0196427D01*
X0252500Y0198026D02*
X0238097Y0198026D01*
X0239428Y0199624D02*
X0252500Y0199624D01*
X0252500Y0201223D02*
X0240000Y0201223D01*
X0240000Y0202821D02*
X0252500Y0202821D01*
X0252500Y0204420D02*
X0239410Y0204420D01*
X0238053Y0206018D02*
X0252500Y0206018D01*
X0252500Y0207617D02*
X0187013Y0207617D01*
X0187375Y0207255D02*
X0186255Y0208375D01*
X0184792Y0208981D01*
X0183208Y0208981D01*
X0181745Y0208375D01*
X0180625Y0207255D01*
X0180019Y0205792D01*
X0180019Y0204208D01*
X0180625Y0202745D01*
X0181745Y0201625D01*
X0183208Y0201019D01*
X0184792Y0201019D01*
X0186255Y0201625D01*
X0187375Y0202745D01*
X0187981Y0204208D01*
X0187981Y0205792D01*
X0187375Y0207255D01*
X0187887Y0206018D02*
X0201947Y0206018D01*
X0202168Y0206239D02*
X0200761Y0204832D01*
X0200000Y0202995D01*
X0200000Y0201005D01*
X0200761Y0199168D01*
X0202168Y0197761D01*
X0204005Y0197000D01*
X0205995Y0197000D01*
X0207832Y0197761D01*
X0209239Y0199168D01*
X0210000Y0201005D01*
X0210000Y0202995D01*
X0209239Y0204832D01*
X0207832Y0206239D01*
X0205995Y0207000D01*
X0204005Y0207000D01*
X0202168Y0206239D01*
X0200590Y0204420D02*
X0187981Y0204420D01*
X0187407Y0202821D02*
X0200000Y0202821D01*
X0200000Y0201223D02*
X0185284Y0201223D01*
X0182716Y0201223D02*
X0172803Y0201223D01*
X0172981Y0200792D02*
X0172375Y0202255D01*
X0171255Y0203375D01*
X0169792Y0203981D01*
X0168208Y0203981D01*
X0166745Y0203375D01*
X0165625Y0202255D01*
X0165019Y0200792D01*
X0165019Y0199208D01*
X0165625Y0197745D01*
X0166745Y0196625D01*
X0168208Y0196019D01*
X0169792Y0196019D01*
X0171255Y0196625D01*
X0172375Y0197745D01*
X0172981Y0199208D01*
X0172981Y0200792D01*
X0172981Y0199624D02*
X0200572Y0199624D01*
X0201903Y0198026D02*
X0172491Y0198026D01*
X0170778Y0196427D02*
X0202623Y0196427D01*
X0207377Y0196427D02*
X0218892Y0196427D01*
X0217832Y0197761D02*
X0219239Y0199168D01*
X0220000Y0201005D01*
X0220000Y0202995D01*
X0219239Y0204832D01*
X0217832Y0206239D01*
X0215995Y0207000D01*
X0214005Y0207000D01*
X0212168Y0206239D01*
X0210761Y0204832D01*
X0210000Y0202995D01*
X0210000Y0201005D01*
X0210761Y0199168D01*
X0212168Y0197761D01*
X0214005Y0197000D01*
X0215995Y0197000D01*
X0217832Y0197761D01*
X0218097Y0198026D02*
X0220490Y0198026D01*
X0220572Y0199624D02*
X0219428Y0199624D01*
X0220000Y0201223D02*
X0220000Y0201223D01*
X0220000Y0202821D02*
X0220000Y0202821D01*
X0219410Y0204420D02*
X0220590Y0204420D01*
X0221947Y0206018D02*
X0218053Y0206018D01*
X0217832Y0208761D02*
X0215995Y0208000D01*
X0214005Y0208000D01*
X0212168Y0208761D01*
X0210761Y0210168D01*
X0210000Y0212005D01*
X0210000Y0213995D01*
X0210761Y0215832D01*
X0212168Y0217239D01*
X0214005Y0218000D01*
X0215995Y0218000D01*
X0217832Y0217239D01*
X0219239Y0215832D01*
X0220000Y0213995D01*
X0220000Y0212005D01*
X0219239Y0210168D01*
X0217832Y0208761D01*
X0218286Y0209215D02*
X0252500Y0209215D01*
X0252500Y0210814D02*
X0219506Y0210814D01*
X0220000Y0212412D02*
X0252500Y0212412D01*
X0252500Y0214011D02*
X0219993Y0214011D01*
X0219331Y0215609D02*
X0252500Y0215609D01*
X0251256Y0217208D02*
X0248279Y0217208D01*
X0249503Y0218806D02*
X0249658Y0218806D01*
X0253532Y0222003D02*
X0283000Y0222003D01*
X0283000Y0222995D02*
X0283000Y0221005D01*
X0283761Y0219168D01*
X0285168Y0217761D01*
X0287005Y0217000D01*
X0285168Y0216239D01*
X0283761Y0214832D01*
X0283000Y0212995D01*
X0283000Y0211005D01*
X0283761Y0209168D01*
X0285168Y0207761D01*
X0287005Y0207000D01*
X0285168Y0206239D01*
X0283761Y0204832D01*
X0283000Y0202995D01*
X0283000Y0201005D01*
X0283761Y0199168D01*
X0285168Y0197761D01*
X0287005Y0197000D01*
X0285168Y0196239D01*
X0283761Y0194832D01*
X0283000Y0192995D01*
X0283000Y0191005D01*
X0283761Y0189168D01*
X0285168Y0187761D01*
X0287005Y0187000D01*
X0285168Y0186239D01*
X0283761Y0184832D01*
X0283000Y0182995D01*
X0283000Y0181005D01*
X0283761Y0179168D01*
X0285168Y0177761D01*
X0287005Y0177000D01*
X0285168Y0176239D01*
X0283761Y0174832D01*
X0283000Y0172995D01*
X0283000Y0171005D01*
X0283761Y0169168D01*
X0285168Y0167761D01*
X0287005Y0167000D01*
X0285168Y0166239D01*
X0283761Y0164832D01*
X0283000Y0162995D01*
X0283000Y0161005D01*
X0283761Y0159168D01*
X0285168Y0157761D01*
X0287005Y0157000D01*
X0285168Y0156239D01*
X0283761Y0154832D01*
X0283000Y0152995D01*
X0283000Y0151005D01*
X0283761Y0149168D01*
X0285168Y0147761D01*
X0287005Y0147000D01*
X0285168Y0146239D01*
X0283761Y0144832D01*
X0283000Y0142995D01*
X0283000Y0141005D01*
X0283761Y0139168D01*
X0285168Y0137761D01*
X0287005Y0137000D01*
X0285168Y0136239D01*
X0283761Y0134832D01*
X0283000Y0132995D01*
X0283000Y0131005D01*
X0283761Y0129168D01*
X0285168Y0127761D01*
X0287005Y0127000D01*
X0288995Y0127000D01*
X0290832Y0127761D01*
X0292239Y0129168D01*
X0293000Y0131005D01*
X0293761Y0129168D01*
X0295168Y0127761D01*
X0297005Y0127000D01*
X0298995Y0127000D01*
X0300832Y0127761D01*
X0302239Y0129168D01*
X0303000Y0131005D01*
X0303000Y0132995D01*
X0302239Y0134832D01*
X0300832Y0136239D01*
X0298995Y0137000D01*
X0297005Y0137000D01*
X0295168Y0136239D01*
X0293761Y0134832D01*
X0293000Y0132995D01*
X0293000Y0131005D01*
X0293000Y0132995D01*
X0292239Y0134832D01*
X0290832Y0136239D01*
X0288995Y0137000D01*
X0287005Y0137000D01*
X0288995Y0137000D01*
X0290832Y0137761D01*
X0292239Y0139168D01*
X0293000Y0141005D01*
X0293761Y0139168D01*
X0295168Y0137761D01*
X0297005Y0137000D01*
X0298995Y0137000D01*
X0300832Y0137761D01*
X0302239Y0139168D01*
X0303000Y0141005D01*
X0303000Y0142995D01*
X0302239Y0144832D01*
X0300832Y0146239D01*
X0298995Y0147000D01*
X0297005Y0147000D01*
X0295168Y0146239D01*
X0293761Y0144832D01*
X0293000Y0142995D01*
X0293000Y0141005D01*
X0293000Y0142995D01*
X0292239Y0144832D01*
X0290832Y0146239D01*
X0288995Y0147000D01*
X0287005Y0147000D01*
X0288995Y0147000D01*
X0290832Y0147761D01*
X0292239Y0149168D01*
X0293000Y0151005D01*
X0293761Y0149168D01*
X0295168Y0147761D01*
X0297005Y0147000D01*
X0298995Y0147000D01*
X0300832Y0147761D01*
X0302239Y0149168D01*
X0303000Y0151005D01*
X0303000Y0152995D01*
X0302239Y0154832D01*
X0300832Y0156239D01*
X0298995Y0157000D01*
X0297005Y0157000D01*
X0295168Y0156239D01*
X0293761Y0154832D01*
X0293000Y0152995D01*
X0293000Y0151005D01*
X0293000Y0152995D01*
X0292239Y0154832D01*
X0290832Y0156239D01*
X0288995Y0157000D01*
X0287005Y0157000D01*
X0288995Y0157000D01*
X0290832Y0157761D01*
X0292239Y0159168D01*
X0293000Y0161005D01*
X0293761Y0159168D01*
X0295168Y0157761D01*
X0297005Y0157000D01*
X0298995Y0157000D01*
X0300832Y0157761D01*
X0302239Y0159168D01*
X0303000Y0161005D01*
X0303000Y0162995D01*
X0302239Y0164832D01*
X0300832Y0166239D01*
X0298995Y0167000D01*
X0297005Y0167000D01*
X0295168Y0166239D01*
X0293761Y0164832D01*
X0293000Y0162995D01*
X0293000Y0161005D01*
X0293000Y0162995D01*
X0292239Y0164832D01*
X0290832Y0166239D01*
X0288995Y0167000D01*
X0287005Y0167000D01*
X0288995Y0167000D01*
X0290832Y0167761D01*
X0292239Y0169168D01*
X0293000Y0171005D01*
X0293761Y0169168D01*
X0295168Y0167761D01*
X0297005Y0167000D01*
X0298995Y0167000D01*
X0300832Y0167761D01*
X0302239Y0169168D01*
X0303000Y0171005D01*
X0303000Y0172995D01*
X0302239Y0174832D01*
X0300832Y0176239D01*
X0298995Y0177000D01*
X0297005Y0177000D01*
X0295168Y0176239D01*
X0293761Y0174832D01*
X0293000Y0172995D01*
X0293000Y0171005D01*
X0293000Y0172995D01*
X0292239Y0174832D01*
X0290832Y0176239D01*
X0288995Y0177000D01*
X0287005Y0177000D01*
X0288995Y0177000D01*
X0290832Y0177761D01*
X0292239Y0179168D01*
X0293000Y0181005D01*
X0293761Y0179168D01*
X0295168Y0177761D01*
X0297005Y0177000D01*
X0298995Y0177000D01*
X0300832Y0177761D01*
X0302239Y0179168D01*
X0303000Y0181005D01*
X0303000Y0182995D01*
X0302239Y0184832D01*
X0300832Y0186239D01*
X0298995Y0187000D01*
X0297005Y0187000D01*
X0295168Y0186239D01*
X0293761Y0184832D01*
X0293000Y0182995D01*
X0293000Y0181005D01*
X0293000Y0182995D01*
X0292239Y0184832D01*
X0290832Y0186239D01*
X0288995Y0187000D01*
X0287005Y0187000D01*
X0288995Y0187000D01*
X0290832Y0187761D01*
X0292239Y0189168D01*
X0293000Y0191005D01*
X0293761Y0189168D01*
X0295168Y0187761D01*
X0297005Y0187000D01*
X0298995Y0187000D01*
X0300832Y0187761D01*
X0302239Y0189168D01*
X0303000Y0191005D01*
X0303000Y0192995D01*
X0302239Y0194832D01*
X0300832Y0196239D01*
X0298995Y0197000D01*
X0297005Y0197000D01*
X0295168Y0196239D01*
X0293761Y0194832D01*
X0293000Y0192995D01*
X0293000Y0191005D01*
X0293000Y0192995D01*
X0292239Y0194832D01*
X0290832Y0196239D01*
X0288995Y0197000D01*
X0287005Y0197000D01*
X0288995Y0197000D01*
X0290832Y0197761D01*
X0292239Y0199168D01*
X0293000Y0201005D01*
X0293761Y0199168D01*
X0295168Y0197761D01*
X0297005Y0197000D01*
X0298995Y0197000D01*
X0300832Y0197761D01*
X0302239Y0199168D01*
X0303000Y0201005D01*
X0303000Y0202995D01*
X0302239Y0204832D01*
X0300832Y0206239D01*
X0298995Y0207000D01*
X0297005Y0207000D01*
X0295168Y0206239D01*
X0293761Y0204832D01*
X0293000Y0202995D01*
X0293000Y0201005D01*
X0293000Y0202995D01*
X0292239Y0204832D01*
X0290832Y0206239D01*
X0288995Y0207000D01*
X0287005Y0207000D01*
X0288995Y0207000D01*
X0290832Y0207761D01*
X0292239Y0209168D01*
X0293000Y0211005D01*
X0293761Y0209168D01*
X0295168Y0207761D01*
X0297005Y0207000D01*
X0298995Y0207000D01*
X0300832Y0207761D01*
X0302239Y0209168D01*
X0303000Y0211005D01*
X0303000Y0212995D01*
X0302239Y0214832D01*
X0300832Y0216239D01*
X0298995Y0217000D01*
X0297005Y0217000D01*
X0295168Y0216239D01*
X0293761Y0214832D01*
X0293000Y0212995D01*
X0293000Y0211005D01*
X0293000Y0212995D01*
X0292239Y0214832D01*
X0290832Y0216239D01*
X0288995Y0217000D01*
X0287005Y0217000D01*
X0288995Y0217000D01*
X0290832Y0217761D01*
X0292239Y0219168D01*
X0293000Y0221005D01*
X0293761Y0219168D01*
X0295168Y0217761D01*
X0297005Y0217000D01*
X0298995Y0217000D01*
X0300832Y0217761D01*
X0302239Y0219168D01*
X0303000Y0221005D01*
X0303000Y0222995D01*
X0302239Y0224832D01*
X0300832Y0226239D01*
X0298995Y0227000D01*
X0297005Y0227000D01*
X0295168Y0226239D01*
X0293761Y0224832D01*
X0293000Y0222995D01*
X0293000Y0221005D01*
X0293000Y0222995D01*
X0292239Y0224832D01*
X0290832Y0226239D01*
X0288995Y0227000D01*
X0287005Y0227000D01*
X0285168Y0226239D01*
X0283761Y0224832D01*
X0283000Y0222995D01*
X0283252Y0223602D02*
X0251936Y0223602D01*
X0247871Y0225201D02*
X0284129Y0225201D01*
X0286520Y0226799D02*
X0199397Y0226799D01*
X0199981Y0228398D02*
X0316000Y0228398D01*
X0316000Y0229996D02*
X0199897Y0229996D01*
X0199036Y0231595D02*
X0316000Y0231595D01*
X0316000Y0226799D02*
X0299480Y0226799D01*
X0301871Y0225201D02*
X0316000Y0225201D01*
X0316000Y0223602D02*
X0302748Y0223602D01*
X0303000Y0222003D02*
X0316000Y0222003D01*
X0316000Y0220405D02*
X0302751Y0220405D01*
X0301878Y0218806D02*
X0316000Y0218806D01*
X0316000Y0217208D02*
X0299497Y0217208D01*
X0301462Y0215609D02*
X0316000Y0215609D01*
X0316000Y0214011D02*
X0302579Y0214011D01*
X0303000Y0212412D02*
X0316000Y0212412D01*
X0316000Y0210814D02*
X0302921Y0210814D01*
X0302259Y0209215D02*
X0316000Y0209215D01*
X0316000Y0207617D02*
X0300484Y0207617D01*
X0301053Y0206018D02*
X0316000Y0206018D01*
X0316000Y0204420D02*
X0302410Y0204420D01*
X0303000Y0202821D02*
X0316000Y0202821D01*
X0316000Y0201223D02*
X0303000Y0201223D01*
X0302428Y0199624D02*
X0316000Y0199624D01*
X0316000Y0198026D02*
X0301097Y0198026D01*
X0300377Y0196427D02*
X0316000Y0196427D01*
X0316000Y0194829D02*
X0302240Y0194829D01*
X0302902Y0193230D02*
X0316000Y0193230D01*
X0316000Y0191632D02*
X0303000Y0191632D01*
X0302597Y0190033D02*
X0316000Y0190033D01*
X0316000Y0188435D02*
X0301506Y0188435D01*
X0299390Y0186836D02*
X0316000Y0186836D01*
X0316000Y0185238D02*
X0301833Y0185238D01*
X0302733Y0183639D02*
X0316000Y0183639D01*
X0316000Y0182041D02*
X0303000Y0182041D01*
X0302767Y0180442D02*
X0316000Y0180442D01*
X0316000Y0178844D02*
X0301915Y0178844D01*
X0299586Y0177245D02*
X0316000Y0177245D01*
X0316000Y0175647D02*
X0301424Y0175647D01*
X0302564Y0174048D02*
X0316000Y0174048D01*
X0316000Y0172450D02*
X0303000Y0172450D01*
X0302936Y0170851D02*
X0316000Y0170851D01*
X0316000Y0169253D02*
X0302274Y0169253D01*
X0300574Y0167654D02*
X0316000Y0167654D01*
X0316000Y0166056D02*
X0301015Y0166056D01*
X0302394Y0164457D02*
X0316000Y0164457D01*
X0316000Y0162859D02*
X0303000Y0162859D01*
X0303000Y0161260D02*
X0316000Y0161260D01*
X0316000Y0159662D02*
X0302443Y0159662D01*
X0301134Y0158063D02*
X0316000Y0158063D01*
X0316000Y0156465D02*
X0300287Y0156465D01*
X0302205Y0154866D02*
X0316000Y0154866D01*
X0316000Y0153268D02*
X0302887Y0153268D01*
X0303000Y0151669D02*
X0316000Y0151669D01*
X0316000Y0150070D02*
X0302613Y0150070D01*
X0301543Y0148472D02*
X0316000Y0148472D01*
X0316000Y0146873D02*
X0299300Y0146873D01*
X0296700Y0146873D02*
X0289300Y0146873D01*
X0286700Y0146873D02*
X0182533Y0146873D01*
X0182375Y0147255D02*
X0181255Y0148375D01*
X0179792Y0148981D01*
X0178208Y0148981D01*
X0176745Y0148375D01*
X0175625Y0147255D01*
X0175019Y0145792D01*
X0175019Y0144208D01*
X0175625Y0142745D01*
X0176745Y0141625D01*
X0178208Y0141019D01*
X0179792Y0141019D01*
X0181255Y0141625D01*
X0182375Y0142745D01*
X0182981Y0144208D01*
X0182981Y0145792D01*
X0182375Y0147255D01*
X0181021Y0148472D02*
X0284457Y0148472D01*
X0283387Y0150070D02*
X0138510Y0150070D01*
X0138375Y0149745D02*
X0138981Y0151208D01*
X0138981Y0152792D01*
X0138375Y0154255D01*
X0137255Y0155375D01*
X0135792Y0155981D01*
X0134208Y0155981D01*
X0132745Y0155375D01*
X0131625Y0154255D01*
X0131019Y0152792D01*
X0131019Y0151208D01*
X0131625Y0149745D01*
X0132745Y0148625D01*
X0134208Y0148019D01*
X0135792Y0148019D01*
X0137255Y0148625D01*
X0138375Y0149745D01*
X0136886Y0148472D02*
X0176979Y0148472D01*
X0175467Y0146873D02*
X0124504Y0146873D01*
X0124255Y0146625D02*
X0125375Y0147745D01*
X0125981Y0149208D01*
X0125981Y0150792D01*
X0125375Y0152255D01*
X0124255Y0153375D01*
X0122792Y0153981D01*
X0121208Y0153981D01*
X0119745Y0153375D01*
X0118625Y0152255D01*
X0118019Y0150792D01*
X0118019Y0149208D01*
X0118625Y0147745D01*
X0119745Y0146625D01*
X0121208Y0146019D01*
X0122792Y0146019D01*
X0124255Y0146625D01*
X0125676Y0148472D02*
X0133114Y0148472D01*
X0131490Y0150070D02*
X0125981Y0150070D01*
X0125618Y0151669D02*
X0131019Y0151669D01*
X0131216Y0153268D02*
X0124363Y0153268D01*
X0119637Y0153268D02*
X0073662Y0153268D01*
X0075260Y0154866D02*
X0132236Y0154866D01*
X0137764Y0154866D02*
X0152504Y0154866D01*
X0151327Y0156465D02*
X0106588Y0156465D01*
X0106360Y0161260D02*
X0102588Y0161260D01*
X0102981Y0162859D02*
X0144578Y0162859D01*
X0144019Y0164457D02*
X0102706Y0164457D01*
X0101575Y0166056D02*
X0144128Y0166056D01*
X0145024Y0167654D02*
X0004000Y0167654D01*
X0004000Y0166056D02*
X0096425Y0166056D01*
X0095294Y0164457D02*
X0004000Y0164457D01*
X0004000Y0162859D02*
X0095019Y0162859D01*
X0095412Y0161260D02*
X0004000Y0161260D01*
X0004000Y0159662D02*
X0073267Y0159662D01*
X0071669Y0158063D02*
X0004000Y0158063D01*
X0004000Y0156465D02*
X0070070Y0156465D01*
X0068472Y0154866D02*
X0004000Y0154866D01*
X0004000Y0153268D02*
X0066873Y0153268D01*
X0065275Y0151669D02*
X0004000Y0151669D01*
X0004000Y0150070D02*
X0063676Y0150070D01*
X0062078Y0148472D02*
X0004000Y0148472D01*
X0004000Y0146873D02*
X0060479Y0146873D01*
X0058881Y0145275D02*
X0004000Y0145275D01*
X0004000Y0143676D02*
X0057282Y0143676D01*
X0055684Y0142078D02*
X0004000Y0142078D01*
X0004000Y0140479D02*
X0054085Y0140479D01*
X0052487Y0138881D02*
X0004000Y0138881D01*
X0004000Y0137282D02*
X0050888Y0137282D01*
X0049290Y0135684D02*
X0004000Y0135684D01*
X0004000Y0134085D02*
X0047691Y0134085D01*
X0046093Y0132487D02*
X0037826Y0132487D01*
X0037746Y0132567D02*
X0035275Y0133591D01*
X0032599Y0133591D01*
X0030128Y0132567D01*
X0028236Y0130675D01*
X0027213Y0128204D01*
X0027213Y0125529D01*
X0028236Y0123057D01*
X0030128Y0121165D01*
X0032599Y0120142D01*
X0035275Y0120142D01*
X0037746Y0121165D01*
X0039638Y0123057D01*
X0040661Y0125529D01*
X0040661Y0128204D01*
X0039638Y0130675D01*
X0037746Y0132567D01*
X0039425Y0130888D02*
X0044770Y0130888D01*
X0043937Y0129290D02*
X0040212Y0129290D01*
X0040661Y0127691D02*
X0043600Y0127691D01*
X0043600Y0126093D02*
X0040661Y0126093D01*
X0040233Y0124494D02*
X0043600Y0124494D01*
X0043600Y0122896D02*
X0039476Y0122896D01*
X0037878Y0121297D02*
X0043600Y0121297D01*
X0043600Y0119699D02*
X0004000Y0119699D01*
X0004000Y0121297D02*
X0029996Y0121297D01*
X0028398Y0122896D02*
X0004000Y0122896D01*
X0004000Y0124494D02*
X0027641Y0124494D01*
X0027213Y0126093D02*
X0004000Y0126093D01*
X0004000Y0127691D02*
X0027213Y0127691D01*
X0027662Y0129290D02*
X0004000Y0129290D01*
X0004000Y0130888D02*
X0028449Y0130888D01*
X0030048Y0132487D02*
X0004000Y0132487D01*
X0004000Y0118100D02*
X0043600Y0118100D01*
X0043600Y0116502D02*
X0038063Y0116502D01*
X0037746Y0116819D02*
X0035275Y0117843D01*
X0032599Y0117843D01*
X0030128Y0116819D01*
X0028236Y0114927D01*
X0027213Y0112456D01*
X0027213Y0109781D01*
X0028236Y0107309D01*
X0030128Y0105417D01*
X0032599Y0104394D01*
X0035275Y0104394D01*
X0037746Y0105417D01*
X0039638Y0107309D01*
X0040661Y0109781D01*
X0040661Y0112456D01*
X0039638Y0114927D01*
X0037746Y0116819D01*
X0039648Y0114903D02*
X0043600Y0114903D01*
X0043600Y0113305D02*
X0040310Y0113305D01*
X0040661Y0111706D02*
X0043600Y0111706D01*
X0043600Y0110108D02*
X0040661Y0110108D01*
X0040135Y0108509D02*
X0043600Y0108509D01*
X0043600Y0106911D02*
X0039239Y0106911D01*
X0037492Y0105312D02*
X0043600Y0105312D01*
X0043600Y0103714D02*
X0004000Y0103714D01*
X0004000Y0105312D02*
X0030382Y0105312D01*
X0028635Y0106911D02*
X0004000Y0106911D01*
X0004000Y0108509D02*
X0027739Y0108509D01*
X0027213Y0110108D02*
X0004000Y0110108D01*
X0004000Y0111706D02*
X0027213Y0111706D01*
X0027564Y0113305D02*
X0004000Y0113305D01*
X0004000Y0114903D02*
X0028226Y0114903D01*
X0029811Y0116502D02*
X0004000Y0116502D01*
X0004000Y0102115D02*
X0043600Y0102115D01*
X0043600Y0100517D02*
X0004000Y0100517D01*
X0004000Y0098918D02*
X0027357Y0098918D01*
X0026069Y0097320D02*
X0004000Y0097320D01*
X0004000Y0095721D02*
X0025622Y0095721D01*
X0025778Y0094123D02*
X0004000Y0094123D01*
X0004000Y0092524D02*
X0026655Y0092524D01*
X0027238Y0090926D02*
X0004000Y0090926D01*
X0004000Y0089327D02*
X0026020Y0089327D01*
X0025622Y0087729D02*
X0004000Y0087729D01*
X0004000Y0086130D02*
X0025827Y0086130D01*
X0026773Y0084532D02*
X0004000Y0084532D01*
X0004000Y0082933D02*
X0027120Y0082933D01*
X0025971Y0081334D02*
X0004000Y0081334D01*
X0004000Y0079736D02*
X0025622Y0079736D01*
X0025876Y0078137D02*
X0004000Y0078137D01*
X0004000Y0076539D02*
X0026892Y0076539D01*
X0027001Y0074940D02*
X0004000Y0074940D01*
X0004000Y0073342D02*
X0025922Y0073342D01*
X0025622Y0071743D02*
X0004000Y0071743D01*
X0004000Y0070145D02*
X0025925Y0070145D01*
X0027010Y0068546D02*
X0004000Y0068546D01*
X0004000Y0066948D02*
X0026883Y0066948D01*
X0025872Y0065349D02*
X0004000Y0065349D01*
X0004000Y0063751D02*
X0025622Y0063751D01*
X0025974Y0062152D02*
X0004000Y0062152D01*
X0004000Y0060554D02*
X0027129Y0060554D01*
X0026764Y0058955D02*
X0004000Y0058955D01*
X0004000Y0057357D02*
X0025823Y0057357D01*
X0025622Y0055758D02*
X0004000Y0055758D01*
X0004000Y0054160D02*
X0026024Y0054160D01*
X0027247Y0052561D02*
X0004000Y0052561D01*
X0004000Y0050963D02*
X0163121Y0050963D01*
X0163019Y0051208D02*
X0163625Y0049745D01*
X0164745Y0048625D01*
X0166208Y0048019D01*
X0167792Y0048019D01*
X0169255Y0048625D01*
X0170375Y0049745D01*
X0170981Y0051208D01*
X0170981Y0052792D01*
X0170375Y0054255D01*
X0169255Y0055375D01*
X0167792Y0055981D01*
X0166208Y0055981D01*
X0164745Y0055375D01*
X0163625Y0054255D01*
X0163019Y0052792D01*
X0163019Y0051208D01*
X0163019Y0052561D02*
X0040627Y0052561D01*
X0041850Y0054160D02*
X0163586Y0054160D01*
X0165670Y0055758D02*
X0042252Y0055758D01*
X0042051Y0057357D02*
X0144013Y0057357D01*
X0143625Y0057745D02*
X0144745Y0056625D01*
X0146208Y0056019D01*
X0147792Y0056019D01*
X0149255Y0056625D01*
X0150375Y0057745D01*
X0150981Y0059208D01*
X0150981Y0060792D01*
X0150375Y0062255D01*
X0149255Y0063375D01*
X0148712Y0063600D01*
X0208770Y0063600D01*
X0209745Y0062625D01*
X0211208Y0062019D01*
X0212792Y0062019D01*
X0214255Y0062625D01*
X0215375Y0063745D01*
X0215981Y0065208D01*
X0215981Y0066792D01*
X0215375Y0068255D01*
X0214255Y0069375D01*
X0212792Y0069981D01*
X0211208Y0069981D01*
X0209745Y0069375D01*
X0208770Y0068400D01*
X0099354Y0068400D01*
X0099236Y0068436D01*
X0098880Y0068400D01*
X0098523Y0068400D01*
X0098409Y0068353D01*
X0091926Y0067705D01*
X0091255Y0068375D01*
X0089792Y0068981D01*
X0088208Y0068981D01*
X0086745Y0068375D01*
X0085625Y0067255D01*
X0085019Y0065792D01*
X0085019Y0064208D01*
X0085625Y0062745D01*
X0086745Y0061625D01*
X0088208Y0061019D01*
X0089792Y0061019D01*
X0091255Y0061625D01*
X0092375Y0062745D01*
X0092453Y0062933D01*
X0099120Y0063600D01*
X0145288Y0063600D01*
X0144745Y0063375D01*
X0143625Y0062255D01*
X0143019Y0060792D01*
X0143019Y0059208D01*
X0143625Y0057745D01*
X0143124Y0058955D02*
X0041110Y0058955D01*
X0040745Y0060554D02*
X0143019Y0060554D01*
X0143582Y0062152D02*
X0091782Y0062152D01*
X0086218Y0062152D02*
X0041900Y0062152D01*
X0042252Y0063751D02*
X0085208Y0063751D01*
X0085019Y0065349D02*
X0042002Y0065349D01*
X0040991Y0066948D02*
X0085498Y0066948D01*
X0087159Y0068546D02*
X0040864Y0068546D01*
X0041949Y0070145D02*
X0116225Y0070145D01*
X0116745Y0069625D02*
X0115625Y0070745D01*
X0115019Y0072208D01*
X0115019Y0073792D01*
X0115625Y0075255D01*
X0116745Y0076375D01*
X0118208Y0076981D01*
X0119792Y0076981D01*
X0121255Y0076375D01*
X0122375Y0075255D01*
X0122981Y0073792D01*
X0122981Y0072208D01*
X0122375Y0070745D01*
X0121255Y0069625D01*
X0119792Y0069019D01*
X0118208Y0069019D01*
X0116745Y0069625D01*
X0115211Y0071743D02*
X0042252Y0071743D01*
X0041952Y0073342D02*
X0115019Y0073342D01*
X0115495Y0074940D02*
X0042294Y0074940D01*
X0043146Y0076539D02*
X0117141Y0076539D01*
X0116255Y0077625D02*
X0117375Y0078745D01*
X0117981Y0080208D01*
X0117981Y0081587D01*
X0133359Y0096965D01*
X0134035Y0097641D01*
X0134400Y0098523D01*
X0134400Y0113600D01*
X0140477Y0113600D01*
X0141359Y0113965D01*
X0159994Y0132600D01*
X0167477Y0132600D01*
X0168359Y0132965D01*
X0170413Y0135019D01*
X0171792Y0135019D01*
X0173255Y0135625D01*
X0174375Y0136745D01*
X0174981Y0138208D01*
X0174981Y0139792D01*
X0174375Y0141255D01*
X0173255Y0142375D01*
X0171792Y0142981D01*
X0170208Y0142981D01*
X0168745Y0142375D01*
X0167625Y0141255D01*
X0167019Y0139792D01*
X0167019Y0138413D01*
X0166006Y0137400D01*
X0158523Y0137400D01*
X0157641Y0137035D01*
X0156965Y0136359D01*
X0144054Y0123448D01*
X0143645Y0124436D01*
X0142436Y0125645D01*
X0140855Y0126300D01*
X0139145Y0126300D01*
X0137564Y0125645D01*
X0136355Y0124436D01*
X0135700Y0122855D01*
X0135700Y0121145D01*
X0136355Y0119564D01*
X0137519Y0118400D01*
X0131523Y0118400D01*
X0130641Y0118035D01*
X0129965Y0117359D01*
X0129600Y0116477D01*
X0129600Y0099994D01*
X0114587Y0084981D01*
X0113208Y0084981D01*
X0111745Y0084375D01*
X0110625Y0083255D01*
X0110019Y0081792D01*
X0110019Y0080208D01*
X0110625Y0078745D01*
X0111745Y0077625D01*
X0113208Y0077019D01*
X0114792Y0077019D01*
X0116255Y0077625D01*
X0116768Y0078137D02*
X0316000Y0078137D01*
X0316000Y0076539D02*
X0120859Y0076539D01*
X0122505Y0074940D02*
X0316000Y0074940D01*
X0316000Y0073342D02*
X0122981Y0073342D01*
X0122789Y0071743D02*
X0316000Y0071743D01*
X0316000Y0070145D02*
X0121775Y0070145D01*
X0111232Y0078137D02*
X0043998Y0078137D01*
X0044849Y0079736D02*
X0110214Y0079736D01*
X0110019Y0081334D02*
X0045701Y0081334D01*
X0046553Y0082933D02*
X0110492Y0082933D01*
X0112123Y0084532D02*
X0047404Y0084532D01*
X0048256Y0086130D02*
X0115736Y0086130D01*
X0117334Y0087729D02*
X0048400Y0087729D01*
X0048400Y0089327D02*
X0118933Y0089327D01*
X0120531Y0090926D02*
X0048400Y0090926D01*
X0048400Y0092524D02*
X0122130Y0092524D01*
X0123728Y0094123D02*
X0048400Y0094123D01*
X0048400Y0095721D02*
X0125327Y0095721D01*
X0126926Y0097320D02*
X0048400Y0097320D01*
X0048400Y0098918D02*
X0128524Y0098918D01*
X0129600Y0100517D02*
X0048400Y0100517D01*
X0048400Y0102115D02*
X0129600Y0102115D01*
X0129600Y0103714D02*
X0048400Y0103714D01*
X0048400Y0105312D02*
X0129600Y0105312D01*
X0129600Y0106911D02*
X0056982Y0106911D01*
X0058380Y0108509D02*
X0129600Y0108509D01*
X0129600Y0110108D02*
X0059000Y0110108D01*
X0059000Y0111706D02*
X0129600Y0111706D01*
X0129600Y0113305D02*
X0058457Y0113305D01*
X0057168Y0114903D02*
X0129600Y0114903D01*
X0129610Y0116502D02*
X0048400Y0116502D01*
X0048400Y0118100D02*
X0130799Y0118100D01*
X0136299Y0119699D02*
X0118329Y0119699D01*
X0118255Y0119625D02*
X0119375Y0120745D01*
X0119981Y0122208D01*
X0119981Y0123792D01*
X0119375Y0125255D01*
X0118255Y0126375D01*
X0116792Y0126981D01*
X0115208Y0126981D01*
X0113745Y0126375D01*
X0112625Y0125255D01*
X0112019Y0123792D01*
X0112019Y0122208D01*
X0112625Y0120745D01*
X0113745Y0119625D01*
X0115208Y0119019D01*
X0116792Y0119019D01*
X0118255Y0119625D01*
X0119604Y0121297D02*
X0135700Y0121297D01*
X0135717Y0122896D02*
X0119981Y0122896D01*
X0119690Y0124494D02*
X0136413Y0124494D01*
X0138645Y0126093D02*
X0118537Y0126093D01*
X0113463Y0126093D02*
X0048400Y0126093D01*
X0048400Y0124494D02*
X0112310Y0124494D01*
X0112019Y0122896D02*
X0048400Y0122896D01*
X0048400Y0121297D02*
X0112396Y0121297D01*
X0113671Y0119699D02*
X0048400Y0119699D01*
X0048400Y0114903D02*
X0050832Y0114903D01*
X0049620Y0108509D02*
X0048400Y0108509D01*
X0048400Y0106911D02*
X0051018Y0106911D01*
X0043600Y0098918D02*
X0040517Y0098918D01*
X0041805Y0097320D02*
X0043600Y0097320D01*
X0043600Y0095721D02*
X0042252Y0095721D01*
X0042096Y0094123D02*
X0043600Y0094123D01*
X0043600Y0092524D02*
X0041219Y0092524D01*
X0040636Y0090926D02*
X0043600Y0090926D01*
X0043600Y0089327D02*
X0041854Y0089327D01*
X0042252Y0087729D02*
X0043600Y0087729D01*
X0042817Y0086130D02*
X0042047Y0086130D01*
X0041965Y0084532D02*
X0041101Y0084532D01*
X0041114Y0082933D02*
X0040754Y0082933D01*
X0033943Y0097320D02*
X0033931Y0097320D01*
X0032643Y0098918D02*
X0035231Y0098918D01*
X0049056Y0127691D02*
X0148297Y0127691D01*
X0146699Y0126093D02*
X0141355Y0126093D01*
X0143587Y0124494D02*
X0145100Y0124494D01*
X0148691Y0121297D02*
X0191667Y0121297D01*
X0191625Y0121255D02*
X0191019Y0119792D01*
X0191019Y0118208D01*
X0191625Y0116745D01*
X0192745Y0115625D01*
X0194208Y0115019D01*
X0195792Y0115019D01*
X0197255Y0115625D01*
X0198375Y0116745D01*
X0198981Y0118208D01*
X0198981Y0119792D01*
X0198375Y0121255D01*
X0197255Y0122375D01*
X0195792Y0122981D01*
X0194208Y0122981D01*
X0192745Y0122375D01*
X0191625Y0121255D01*
X0191019Y0119699D02*
X0147093Y0119699D01*
X0148208Y0117981D02*
X0146745Y0117375D01*
X0145625Y0116255D01*
X0145019Y0114792D01*
X0145019Y0113208D01*
X0145625Y0111745D01*
X0146745Y0110625D01*
X0148208Y0110019D01*
X0149792Y0110019D01*
X0151255Y0110625D01*
X0152375Y0111745D01*
X0152981Y0113208D01*
X0152981Y0114792D01*
X0152375Y0116255D01*
X0151255Y0117375D01*
X0149792Y0117981D01*
X0148208Y0117981D01*
X0145494Y0118100D02*
X0191064Y0118100D01*
X0191868Y0116502D02*
X0152128Y0116502D01*
X0152935Y0114903D02*
X0218065Y0114903D01*
X0218019Y0114792D02*
X0218019Y0113208D01*
X0218625Y0111745D01*
X0219745Y0110625D01*
X0221208Y0110019D01*
X0222792Y0110019D01*
X0224255Y0110625D01*
X0225375Y0111745D01*
X0225981Y0113208D01*
X0225981Y0114792D01*
X0225375Y0116255D01*
X0224255Y0117375D01*
X0222792Y0117981D01*
X0221208Y0117981D01*
X0219745Y0117375D01*
X0218625Y0116255D01*
X0218019Y0114792D01*
X0218019Y0113305D02*
X0152981Y0113305D01*
X0152336Y0111706D02*
X0218664Y0111706D01*
X0220994Y0110108D02*
X0150006Y0110108D01*
X0147994Y0110108D02*
X0134400Y0110108D01*
X0134400Y0111706D02*
X0145664Y0111706D01*
X0145019Y0113305D02*
X0134400Y0113305D01*
X0134400Y0108509D02*
X0316000Y0108509D01*
X0316000Y0106911D02*
X0134400Y0106911D01*
X0134400Y0105312D02*
X0154231Y0105312D01*
X0154564Y0105645D02*
X0153355Y0104436D01*
X0152700Y0102855D01*
X0152700Y0101145D01*
X0153355Y0099564D01*
X0154564Y0098355D01*
X0156145Y0097700D01*
X0157855Y0097700D01*
X0159436Y0098355D01*
X0160645Y0099564D01*
X0161300Y0101145D01*
X0161300Y0102855D01*
X0160645Y0104436D01*
X0159436Y0105645D01*
X0157855Y0106300D01*
X0156145Y0106300D01*
X0154564Y0105645D01*
X0153056Y0103714D02*
X0134400Y0103714D01*
X0134400Y0102115D02*
X0152700Y0102115D01*
X0152960Y0100517D02*
X0134400Y0100517D01*
X0134400Y0098918D02*
X0154001Y0098918D01*
X0159999Y0098918D02*
X0316000Y0098918D01*
X0316000Y0097320D02*
X0133714Y0097320D01*
X0132115Y0095721D02*
X0316000Y0095721D01*
X0316000Y0094123D02*
X0130517Y0094123D01*
X0128918Y0092524D02*
X0316000Y0092524D01*
X0316000Y0090926D02*
X0127320Y0090926D01*
X0125721Y0089327D02*
X0316000Y0089327D01*
X0316000Y0087729D02*
X0124123Y0087729D01*
X0122524Y0086130D02*
X0316000Y0086130D01*
X0316000Y0084532D02*
X0120926Y0084532D01*
X0119327Y0082933D02*
X0316000Y0082933D01*
X0316000Y0081334D02*
X0117981Y0081334D01*
X0117786Y0079736D02*
X0316000Y0079736D01*
X0316000Y0068546D02*
X0215084Y0068546D01*
X0215916Y0066948D02*
X0316000Y0066948D01*
X0316000Y0065349D02*
X0215981Y0065349D01*
X0215377Y0063751D02*
X0316000Y0063751D01*
X0316000Y0062152D02*
X0213114Y0062152D01*
X0210886Y0062152D02*
X0150418Y0062152D01*
X0150981Y0060554D02*
X0316000Y0060554D01*
X0316000Y0058955D02*
X0150876Y0058955D01*
X0149987Y0057357D02*
X0316000Y0057357D01*
X0316000Y0055758D02*
X0168330Y0055758D01*
X0170414Y0054160D02*
X0316000Y0054160D01*
X0316000Y0052561D02*
X0170981Y0052561D01*
X0170879Y0050963D02*
X0316000Y0050963D01*
X0316000Y0049364D02*
X0169994Y0049364D01*
X0164006Y0049364D02*
X0004000Y0049364D01*
X0004000Y0047766D02*
X0316000Y0047766D01*
X0316000Y0046167D02*
X0004000Y0046167D01*
X0004000Y0044569D02*
X0316000Y0044569D01*
X0316000Y0042970D02*
X0004000Y0042970D01*
X0004000Y0041372D02*
X0316000Y0041372D01*
X0316000Y0039773D02*
X0004000Y0039773D01*
X0004000Y0038175D02*
X0316000Y0038175D01*
X0316000Y0036576D02*
X0004000Y0036576D01*
X0004000Y0034978D02*
X0316000Y0034978D01*
X0316000Y0033379D02*
X0169623Y0033379D01*
X0169354Y0033648D02*
X0167745Y0034315D01*
X0166003Y0034315D01*
X0164394Y0033648D01*
X0163163Y0032417D01*
X0162937Y0031872D01*
X0162711Y0032417D01*
X0161480Y0033648D01*
X0159871Y0034315D01*
X0158129Y0034315D01*
X0156520Y0033648D01*
X0155289Y0032417D01*
X0155063Y0031872D01*
X0154837Y0032417D01*
X0153606Y0033648D01*
X0151997Y0034315D01*
X0150255Y0034315D01*
X0148646Y0033648D01*
X0147415Y0032417D01*
X0146748Y0030808D01*
X0146748Y0029066D01*
X0147415Y0027457D01*
X0148646Y0026226D01*
X0149191Y0026000D01*
X0148646Y0025774D01*
X0147415Y0024543D01*
X0146748Y0022934D01*
X0146748Y0021192D01*
X0147415Y0019583D01*
X0148646Y0018352D01*
X0150255Y0017685D01*
X0151997Y0017685D01*
X0153606Y0018352D01*
X0154837Y0019583D01*
X0155168Y0020381D01*
X0155427Y0019873D01*
X0155813Y0019341D01*
X0156278Y0018876D01*
X0156810Y0018490D01*
X0157396Y0018191D01*
X0158022Y0017988D01*
X0158671Y0017885D01*
X0159000Y0017885D01*
X0159302Y0017885D01*
X0157817Y0016400D01*
X0072589Y0016400D01*
X0072589Y0018318D01*
X0072669Y0018352D01*
X0073900Y0019583D01*
X0074126Y0020128D01*
X0074352Y0019583D01*
X0075583Y0018352D01*
X0077192Y0017685D01*
X0078934Y0017685D01*
X0080543Y0018352D01*
X0081774Y0019583D01*
X0082000Y0020128D01*
X0082226Y0019583D01*
X0083457Y0018352D01*
X0085066Y0017685D01*
X0086808Y0017685D01*
X0088417Y0018352D01*
X0089648Y0019583D01*
X0089874Y0020128D01*
X0090100Y0019583D01*
X0091331Y0018352D01*
X0092940Y0017685D01*
X0094682Y0017685D01*
X0096291Y0018352D01*
X0097522Y0019583D01*
X0097748Y0020128D01*
X0097974Y0019583D01*
X0099205Y0018352D01*
X0100814Y0017685D01*
X0102556Y0017685D01*
X0104165Y0018352D01*
X0105396Y0019583D01*
X0106063Y0021192D01*
X0106063Y0022934D01*
X0105396Y0024543D01*
X0104165Y0025774D01*
X0103620Y0026000D01*
X0104165Y0026226D01*
X0105396Y0027457D01*
X0106063Y0029066D01*
X0106063Y0030808D01*
X0105396Y0032417D01*
X0104165Y0033648D01*
X0102556Y0034315D01*
X0100814Y0034315D01*
X0099205Y0033648D01*
X0097974Y0032417D01*
X0097748Y0031872D01*
X0097522Y0032417D01*
X0096291Y0033648D01*
X0094682Y0034315D01*
X0092940Y0034315D01*
X0091331Y0033648D01*
X0090100Y0032417D01*
X0089874Y0031872D01*
X0089648Y0032417D01*
X0088417Y0033648D01*
X0086808Y0034315D01*
X0085066Y0034315D01*
X0083457Y0033648D01*
X0082226Y0032417D01*
X0082000Y0031872D01*
X0081774Y0032417D01*
X0080543Y0033648D01*
X0078934Y0034315D01*
X0077192Y0034315D01*
X0075583Y0033648D01*
X0074352Y0032417D01*
X0074126Y0031872D01*
X0073900Y0032417D01*
X0072669Y0033648D01*
X0071060Y0034315D01*
X0069318Y0034315D01*
X0067709Y0033648D01*
X0066478Y0032417D01*
X0066252Y0031872D01*
X0066026Y0032417D01*
X0064795Y0033648D01*
X0063186Y0034315D01*
X0061444Y0034315D01*
X0059835Y0033648D01*
X0058604Y0032417D01*
X0057937Y0030808D01*
X0057937Y0029066D01*
X0058604Y0027457D01*
X0059835Y0026226D01*
X0060633Y0025895D01*
X0060125Y0025636D01*
X0059593Y0025250D01*
X0059128Y0024785D01*
X0058742Y0024253D01*
X0058443Y0023667D01*
X0058240Y0023041D01*
X0058137Y0022392D01*
X0058137Y0022063D01*
X0062315Y0022063D01*
X0062315Y0017885D01*
X0062644Y0017885D01*
X0063293Y0017988D01*
X0063919Y0018191D01*
X0064505Y0018490D01*
X0065037Y0018876D01*
X0065502Y0019341D01*
X0065888Y0019873D01*
X0066147Y0020381D01*
X0066478Y0019583D01*
X0067709Y0018352D01*
X0067789Y0018318D01*
X0067789Y0014334D01*
X0068154Y0013452D01*
X0068965Y0012641D01*
X0069641Y0011965D01*
X0070523Y0011600D01*
X0159288Y0011600D01*
X0160171Y0011965D01*
X0165923Y0017718D01*
X0166003Y0017685D01*
X0167745Y0017685D01*
X0169354Y0018352D01*
X0170585Y0019583D01*
X0171252Y0021192D01*
X0171252Y0022934D01*
X0170585Y0024543D01*
X0169354Y0025774D01*
X0168809Y0026000D01*
X0169354Y0026226D01*
X0170585Y0027457D01*
X0171252Y0029066D01*
X0171252Y0030808D01*
X0170585Y0032417D01*
X0169354Y0033648D01*
X0170849Y0031781D02*
X0177282Y0031781D01*
X0176898Y0031621D02*
X0179335Y0032631D01*
X0181972Y0032631D01*
X0184410Y0031621D01*
X0186275Y0029756D01*
X0187284Y0027319D01*
X0187284Y0024681D01*
X0186275Y0022244D01*
X0184410Y0020379D01*
X0181972Y0019369D01*
X0179335Y0019369D01*
X0176898Y0020379D01*
X0175032Y0022244D01*
X0174023Y0024681D01*
X0174023Y0027319D01*
X0175032Y0029756D01*
X0176898Y0031621D01*
X0175458Y0030182D02*
X0171252Y0030182D01*
X0171052Y0028584D02*
X0174547Y0028584D01*
X0174023Y0026985D02*
X0170113Y0026985D01*
X0169742Y0025387D02*
X0174023Y0025387D01*
X0174393Y0023788D02*
X0170898Y0023788D01*
X0171252Y0022190D02*
X0175087Y0022190D01*
X0176685Y0020591D02*
X0171003Y0020591D01*
X0169995Y0018993D02*
X0316000Y0018993D01*
X0316000Y0020591D02*
X0184622Y0020591D01*
X0186220Y0022190D02*
X0316000Y0022190D01*
X0316000Y0023788D02*
X0186914Y0023788D01*
X0187284Y0025387D02*
X0316000Y0025387D01*
X0316000Y0026985D02*
X0187284Y0026985D01*
X0186760Y0028584D02*
X0316000Y0028584D01*
X0316000Y0030182D02*
X0185849Y0030182D01*
X0184025Y0031781D02*
X0316000Y0031781D01*
X0316000Y0017394D02*
X0165599Y0017394D01*
X0164001Y0015796D02*
X0316000Y0015796D01*
X0316000Y0014197D02*
X0162402Y0014197D01*
X0160804Y0012599D02*
X0316000Y0012599D01*
X0316000Y0011000D02*
X0004000Y0011000D01*
X0004000Y0012599D02*
X0069007Y0012599D01*
X0067846Y0014197D02*
X0004000Y0014197D01*
X0004000Y0015796D02*
X0067789Y0015796D01*
X0067789Y0017394D02*
X0004000Y0017394D01*
X0004000Y0018993D02*
X0045040Y0018993D01*
X0044110Y0019377D02*
X0046982Y0018188D01*
X0050089Y0018188D01*
X0052960Y0019377D01*
X0055158Y0021575D01*
X0056347Y0024446D01*
X0056347Y0027554D01*
X0055158Y0030425D01*
X0052960Y0032623D01*
X0050089Y0033812D01*
X0046982Y0033812D01*
X0044110Y0032623D01*
X0041913Y0030425D01*
X0040724Y0027554D01*
X0040724Y0024446D01*
X0041913Y0021575D01*
X0044110Y0019377D01*
X0042897Y0020591D02*
X0004000Y0020591D01*
X0004000Y0022190D02*
X0041658Y0022190D01*
X0040996Y0023788D02*
X0004000Y0023788D01*
X0004000Y0025387D02*
X0040724Y0025387D01*
X0040724Y0026985D02*
X0004000Y0026985D01*
X0004000Y0028584D02*
X0041150Y0028584D01*
X0041812Y0030182D02*
X0004000Y0030182D01*
X0004000Y0031781D02*
X0043269Y0031781D01*
X0045937Y0033379D02*
X0004000Y0033379D01*
X0032753Y0052561D02*
X0035121Y0052561D01*
X0051134Y0033379D02*
X0059566Y0033379D01*
X0058340Y0031781D02*
X0053802Y0031781D01*
X0055259Y0030182D02*
X0057937Y0030182D01*
X0058137Y0028584D02*
X0055921Y0028584D01*
X0056347Y0026985D02*
X0059075Y0026985D01*
X0059782Y0025387D02*
X0056347Y0025387D01*
X0056075Y0023788D02*
X0058505Y0023788D01*
X0058137Y0022190D02*
X0055413Y0022190D01*
X0054174Y0020591D02*
X0058400Y0020591D01*
X0058443Y0020459D02*
X0058742Y0019873D01*
X0059128Y0019341D01*
X0059593Y0018876D01*
X0060125Y0018490D01*
X0060711Y0018191D01*
X0061337Y0017988D01*
X0061986Y0017885D01*
X0062315Y0017885D01*
X0062315Y0022063D01*
X0062315Y0022063D01*
X0062315Y0022063D01*
X0058137Y0022063D01*
X0058137Y0021734D01*
X0058240Y0021085D01*
X0058443Y0020459D01*
X0059477Y0018993D02*
X0052031Y0018993D01*
X0062315Y0018993D02*
X0062315Y0018993D01*
X0062315Y0020591D02*
X0062315Y0020591D01*
X0065153Y0018993D02*
X0067068Y0018993D01*
X0072589Y0017394D02*
X0158811Y0017394D01*
X0159000Y0017885D02*
X0159000Y0022063D01*
X0159000Y0017885D01*
X0159000Y0018993D02*
X0159000Y0018993D01*
X0159000Y0020591D02*
X0159000Y0020591D01*
X0159000Y0022063D02*
X0159000Y0022063D01*
X0156162Y0018993D02*
X0154247Y0018993D01*
X0148005Y0018993D02*
X0118960Y0018993D01*
X0119890Y0019377D02*
X0117018Y0018188D01*
X0113911Y0018188D01*
X0111040Y0019377D01*
X0108842Y0021575D01*
X0107653Y0024446D01*
X0107653Y0027554D01*
X0108842Y0030425D01*
X0111040Y0032623D01*
X0113911Y0033812D01*
X0117018Y0033812D01*
X0119890Y0032623D01*
X0122087Y0030425D01*
X0123276Y0027554D01*
X0123276Y0024446D01*
X0122087Y0021575D01*
X0119890Y0019377D01*
X0121103Y0020591D02*
X0133378Y0020591D01*
X0133590Y0020379D02*
X0136028Y0019369D01*
X0138665Y0019369D01*
X0141102Y0020379D01*
X0142968Y0022244D01*
X0143977Y0024681D01*
X0143977Y0027319D01*
X0142968Y0029756D01*
X0141102Y0031621D01*
X0138665Y0032631D01*
X0136028Y0032631D01*
X0133590Y0031621D01*
X0131725Y0029756D01*
X0130716Y0027319D01*
X0130716Y0024681D01*
X0131725Y0022244D01*
X0133590Y0020379D01*
X0131780Y0022190D02*
X0122342Y0022190D01*
X0123004Y0023788D02*
X0131086Y0023788D01*
X0130716Y0025387D02*
X0123276Y0025387D01*
X0123276Y0026985D02*
X0130716Y0026985D01*
X0131240Y0028584D02*
X0122850Y0028584D01*
X0122188Y0030182D02*
X0132151Y0030182D01*
X0133975Y0031781D02*
X0120731Y0031781D01*
X0118063Y0033379D02*
X0148377Y0033379D01*
X0147151Y0031781D02*
X0140718Y0031781D01*
X0142542Y0030182D02*
X0146748Y0030182D01*
X0146948Y0028584D02*
X0143453Y0028584D01*
X0143977Y0026985D02*
X0147887Y0026985D01*
X0148258Y0025387D02*
X0143977Y0025387D01*
X0143607Y0023788D02*
X0147102Y0023788D01*
X0146748Y0022190D02*
X0142913Y0022190D01*
X0141315Y0020591D02*
X0146997Y0020591D01*
X0153875Y0033379D02*
X0156251Y0033379D01*
X0161749Y0033379D02*
X0164125Y0033379D01*
X0112866Y0033379D02*
X0104434Y0033379D01*
X0105660Y0031781D02*
X0110198Y0031781D01*
X0108741Y0030182D02*
X0106063Y0030182D01*
X0105863Y0028584D02*
X0108079Y0028584D01*
X0107653Y0026985D02*
X0104925Y0026985D01*
X0104553Y0025387D02*
X0107653Y0025387D01*
X0107925Y0023788D02*
X0105709Y0023788D01*
X0106063Y0022190D02*
X0108587Y0022190D01*
X0109826Y0020591D02*
X0105814Y0020591D01*
X0104806Y0018993D02*
X0111969Y0018993D01*
X0098564Y0018993D02*
X0096932Y0018993D01*
X0090690Y0018993D02*
X0089058Y0018993D01*
X0082816Y0018993D02*
X0081184Y0018993D01*
X0074942Y0018993D02*
X0073310Y0018993D01*
X0072938Y0033379D02*
X0075314Y0033379D01*
X0080812Y0033379D02*
X0083188Y0033379D01*
X0088686Y0033379D02*
X0091062Y0033379D01*
X0096560Y0033379D02*
X0098936Y0033379D01*
X0067440Y0033379D02*
X0065064Y0033379D01*
X0090841Y0068546D02*
X0208916Y0068546D01*
X0161040Y0100517D02*
X0316000Y0100517D01*
X0316000Y0102115D02*
X0161300Y0102115D01*
X0160944Y0103714D02*
X0316000Y0103714D01*
X0316000Y0105312D02*
X0159769Y0105312D01*
X0145065Y0114903D02*
X0142297Y0114903D01*
X0143896Y0116502D02*
X0145872Y0116502D01*
X0150290Y0122896D02*
X0194002Y0122896D01*
X0195998Y0122896D02*
X0233562Y0122896D01*
X0233625Y0122745D02*
X0234745Y0121625D01*
X0236208Y0121019D01*
X0237792Y0121019D01*
X0239255Y0121625D01*
X0240375Y0122745D01*
X0240981Y0124208D01*
X0240981Y0125792D01*
X0240375Y0127255D01*
X0239255Y0128375D01*
X0237792Y0128981D01*
X0236208Y0128981D01*
X0234745Y0128375D01*
X0233625Y0127255D01*
X0233019Y0125792D01*
X0233019Y0124208D01*
X0233625Y0122745D01*
X0233019Y0124494D02*
X0151888Y0124494D01*
X0153487Y0126093D02*
X0233144Y0126093D01*
X0234061Y0127691D02*
X0155085Y0127691D01*
X0156684Y0129290D02*
X0283711Y0129290D01*
X0283048Y0130888D02*
X0158282Y0130888D01*
X0159881Y0132487D02*
X0283000Y0132487D01*
X0283452Y0134085D02*
X0169479Y0134085D01*
X0173314Y0135684D02*
X0284613Y0135684D01*
X0286324Y0137282D02*
X0225261Y0137282D01*
X0225436Y0137355D02*
X0226645Y0138564D01*
X0227300Y0140145D01*
X0227300Y0141855D01*
X0226645Y0143436D01*
X0225436Y0144645D01*
X0223855Y0145300D01*
X0222145Y0145300D01*
X0220564Y0144645D01*
X0219355Y0143436D01*
X0218700Y0141855D01*
X0218700Y0140145D01*
X0219355Y0138564D01*
X0220564Y0137355D01*
X0222145Y0136700D01*
X0223855Y0136700D01*
X0225436Y0137355D01*
X0226777Y0138881D02*
X0284048Y0138881D01*
X0283218Y0140479D02*
X0227300Y0140479D01*
X0227208Y0142078D02*
X0283000Y0142078D01*
X0283282Y0143676D02*
X0226405Y0143676D01*
X0223916Y0145275D02*
X0284204Y0145275D01*
X0283000Y0151669D02*
X0138981Y0151669D01*
X0138784Y0153268D02*
X0283113Y0153268D01*
X0283795Y0154866D02*
X0157496Y0154866D01*
X0158673Y0156465D02*
X0285713Y0156465D01*
X0284866Y0158063D02*
X0172898Y0158063D01*
X0171102Y0158063D02*
X0158981Y0158063D01*
X0158621Y0159662D02*
X0168708Y0159662D01*
X0168019Y0161260D02*
X0157370Y0161260D01*
X0154253Y0162859D02*
X0167747Y0162859D01*
X0166149Y0164457D02*
X0155851Y0164457D01*
X0157450Y0166056D02*
X0164550Y0166056D01*
X0162952Y0167654D02*
X0160284Y0167654D01*
X0153859Y0169253D02*
X0004000Y0169253D01*
X0004000Y0170851D02*
X0154019Y0170851D01*
X0151168Y0172450D02*
X0055832Y0172450D01*
X0056255Y0172625D02*
X0057375Y0173745D01*
X0057981Y0175208D01*
X0057981Y0176792D01*
X0057375Y0178255D01*
X0056255Y0179375D01*
X0054792Y0179981D01*
X0053208Y0179981D01*
X0051745Y0179375D01*
X0050625Y0178255D01*
X0050019Y0176792D01*
X0050019Y0175208D01*
X0050625Y0173745D01*
X0051745Y0172625D01*
X0053208Y0172019D01*
X0054792Y0172019D01*
X0056255Y0172625D01*
X0057501Y0174048D02*
X0149499Y0174048D01*
X0149019Y0175647D02*
X0085556Y0175647D01*
X0085832Y0175761D02*
X0087239Y0177168D01*
X0088000Y0179005D01*
X0088000Y0180995D01*
X0087239Y0182832D01*
X0085832Y0184239D01*
X0083995Y0185000D01*
X0082005Y0185000D01*
X0080168Y0184239D01*
X0078761Y0182832D01*
X0078000Y0180995D01*
X0078000Y0179005D01*
X0078761Y0177168D01*
X0080168Y0175761D01*
X0082005Y0175000D01*
X0083995Y0175000D01*
X0085832Y0175761D01*
X0087271Y0177245D02*
X0149207Y0177245D01*
X0150214Y0178844D02*
X0132544Y0178844D01*
X0131955Y0178600D02*
X0133536Y0179255D01*
X0134745Y0180464D01*
X0135400Y0182045D01*
X0135400Y0183755D01*
X0134745Y0185336D01*
X0133536Y0186545D01*
X0131955Y0187200D01*
X0130245Y0187200D01*
X0128664Y0186545D01*
X0127455Y0185336D01*
X0126800Y0183755D01*
X0126800Y0182045D01*
X0127455Y0180464D01*
X0128664Y0179255D01*
X0130245Y0178600D01*
X0131955Y0178600D01*
X0129656Y0178844D02*
X0087933Y0178844D01*
X0088000Y0180442D02*
X0127477Y0180442D01*
X0126802Y0182041D02*
X0087567Y0182041D01*
X0086432Y0183639D02*
X0126800Y0183639D01*
X0127414Y0185238D02*
X0066382Y0185238D01*
X0066375Y0185255D02*
X0065255Y0186375D01*
X0063792Y0186981D01*
X0062208Y0186981D01*
X0060745Y0186375D01*
X0059625Y0185255D01*
X0059019Y0183792D01*
X0059019Y0182208D01*
X0059625Y0180745D01*
X0060745Y0179625D01*
X0062208Y0179019D01*
X0063792Y0179019D01*
X0065255Y0179625D01*
X0066375Y0180745D01*
X0066981Y0182208D01*
X0066981Y0183792D01*
X0066375Y0185255D01*
X0066981Y0183639D02*
X0079568Y0183639D01*
X0078433Y0182041D02*
X0066912Y0182041D01*
X0066072Y0180442D02*
X0078000Y0180442D01*
X0078067Y0178844D02*
X0056786Y0178844D01*
X0057793Y0177245D02*
X0078729Y0177245D01*
X0080444Y0175647D02*
X0057981Y0175647D01*
X0059928Y0180442D02*
X0004000Y0180442D01*
X0004000Y0178844D02*
X0051214Y0178844D01*
X0050207Y0177245D02*
X0004000Y0177245D01*
X0004000Y0175647D02*
X0050019Y0175647D01*
X0050499Y0174048D02*
X0004000Y0174048D01*
X0004000Y0172450D02*
X0052168Y0172450D01*
X0059088Y0182041D02*
X0035673Y0182041D01*
X0036685Y0183639D02*
X0059019Y0183639D01*
X0059618Y0185238D02*
X0036937Y0185238D01*
X0036586Y0186836D02*
X0061858Y0186836D01*
X0064142Y0186836D02*
X0129367Y0186836D01*
X0132833Y0186836D02*
X0143770Y0186836D01*
X0145368Y0185238D02*
X0134786Y0185238D01*
X0135400Y0183639D02*
X0146967Y0183639D01*
X0148565Y0182041D02*
X0135398Y0182041D01*
X0134723Y0180442D02*
X0150164Y0180442D01*
X0157558Y0186836D02*
X0159019Y0186836D01*
X0159156Y0185238D02*
X0159421Y0185238D01*
X0159285Y0188435D02*
X0155959Y0188435D01*
X0154361Y0190033D02*
X0160403Y0190033D01*
X0165597Y0190033D02*
X0166403Y0190033D01*
X0167222Y0196427D02*
X0154778Y0196427D01*
X0156491Y0198026D02*
X0165509Y0198026D01*
X0165019Y0199624D02*
X0156981Y0199624D01*
X0156803Y0201223D02*
X0165197Y0201223D01*
X0166191Y0202821D02*
X0155809Y0202821D01*
X0147488Y0206018D02*
X0180113Y0206018D01*
X0180019Y0204420D02*
X0145760Y0204420D01*
X0147981Y0207617D02*
X0168209Y0207617D01*
X0167979Y0207847D02*
X0169047Y0206779D01*
X0170444Y0206200D01*
X0171956Y0206200D01*
X0173353Y0206779D01*
X0174421Y0207847D01*
X0175000Y0209244D01*
X0175000Y0210756D01*
X0174421Y0212153D01*
X0173353Y0213221D01*
X0171956Y0213800D01*
X0170444Y0213800D01*
X0169047Y0213221D01*
X0167979Y0212153D01*
X0167400Y0210756D01*
X0167400Y0209244D01*
X0167979Y0207847D01*
X0167412Y0209215D02*
X0147806Y0209215D01*
X0146816Y0210814D02*
X0167424Y0210814D01*
X0168238Y0212412D02*
X0159990Y0212412D01*
X0162082Y0214011D02*
X0200007Y0214011D01*
X0200000Y0213995D02*
X0200000Y0212005D01*
X0200761Y0210168D01*
X0202168Y0208761D01*
X0204005Y0208000D01*
X0205995Y0208000D01*
X0207832Y0208761D01*
X0209239Y0210168D01*
X0210000Y0212005D01*
X0210000Y0213995D01*
X0209239Y0215832D01*
X0207832Y0217239D01*
X0205995Y0218000D01*
X0204005Y0218000D01*
X0202168Y0217239D01*
X0200761Y0215832D01*
X0200000Y0213995D01*
X0200000Y0212412D02*
X0174162Y0212412D01*
X0174976Y0210814D02*
X0200494Y0210814D01*
X0201714Y0209215D02*
X0174988Y0209215D01*
X0174191Y0207617D02*
X0180987Y0207617D01*
X0180593Y0202821D02*
X0171809Y0202821D01*
X0162836Y0215609D02*
X0200669Y0215609D01*
X0202137Y0217208D02*
X0163000Y0217208D01*
X0162664Y0218806D02*
X0220497Y0218806D01*
X0221721Y0217208D02*
X0217863Y0217208D01*
X0212137Y0217208D02*
X0207863Y0217208D01*
X0209331Y0215609D02*
X0210669Y0215609D01*
X0210007Y0214011D02*
X0209993Y0214011D01*
X0210000Y0212412D02*
X0210000Y0212412D01*
X0209506Y0210814D02*
X0210494Y0210814D01*
X0211714Y0209215D02*
X0208286Y0209215D01*
X0208053Y0206018D02*
X0211947Y0206018D01*
X0210590Y0204420D02*
X0209410Y0204420D01*
X0210000Y0202821D02*
X0210000Y0202821D01*
X0210000Y0201223D02*
X0210000Y0201223D01*
X0209428Y0199624D02*
X0210572Y0199624D01*
X0211903Y0198026D02*
X0208097Y0198026D01*
X0209240Y0194829D02*
X0217293Y0194829D01*
X0215695Y0193230D02*
X0209902Y0193230D01*
X0210000Y0191632D02*
X0214096Y0191632D01*
X0212498Y0190033D02*
X0209597Y0190033D01*
X0200899Y0188435D02*
X0196111Y0188435D01*
X0197549Y0186836D02*
X0199301Y0186836D01*
X0197702Y0172450D02*
X0174924Y0172450D01*
X0175761Y0170851D02*
X0211768Y0170851D01*
X0216315Y0170851D02*
X0283064Y0170851D01*
X0283000Y0172450D02*
X0217796Y0172450D01*
X0219128Y0174048D02*
X0283436Y0174048D01*
X0284576Y0175647D02*
X0220460Y0175647D01*
X0221792Y0177245D02*
X0286414Y0177245D01*
X0284085Y0178844D02*
X0223124Y0178844D01*
X0224456Y0180442D02*
X0283233Y0180442D01*
X0283000Y0182041D02*
X0225788Y0182041D01*
X0227120Y0183639D02*
X0283267Y0183639D01*
X0284167Y0185238D02*
X0228452Y0185238D01*
X0229784Y0186836D02*
X0286610Y0186836D01*
X0284494Y0188435D02*
X0231117Y0188435D01*
X0224364Y0194829D02*
X0252293Y0194829D01*
X0256167Y0191632D02*
X0283000Y0191632D01*
X0283098Y0193230D02*
X0257387Y0193230D01*
X0257500Y0194829D02*
X0283760Y0194829D01*
X0285623Y0196427D02*
X0257500Y0196427D01*
X0257500Y0198026D02*
X0284903Y0198026D01*
X0283572Y0199624D02*
X0257500Y0199624D01*
X0257500Y0201223D02*
X0283000Y0201223D01*
X0283000Y0202821D02*
X0257500Y0202821D01*
X0257500Y0204420D02*
X0283590Y0204420D01*
X0284947Y0206018D02*
X0257500Y0206018D01*
X0257500Y0207617D02*
X0285516Y0207617D01*
X0283741Y0209215D02*
X0257500Y0209215D01*
X0257500Y0210814D02*
X0283079Y0210814D01*
X0283000Y0212412D02*
X0257500Y0212412D01*
X0257500Y0214011D02*
X0283421Y0214011D01*
X0284538Y0215609D02*
X0257500Y0215609D01*
X0257500Y0217208D02*
X0286503Y0217208D01*
X0284122Y0218806D02*
X0256729Y0218806D01*
X0255131Y0220405D02*
X0283249Y0220405D01*
X0289497Y0217208D02*
X0296503Y0217208D01*
X0294538Y0215609D02*
X0291462Y0215609D01*
X0292579Y0214011D02*
X0293421Y0214011D01*
X0293000Y0212412D02*
X0293000Y0212412D01*
X0292921Y0210814D02*
X0293079Y0210814D01*
X0293741Y0209215D02*
X0292259Y0209215D01*
X0290484Y0207617D02*
X0295516Y0207617D01*
X0294947Y0206018D02*
X0291053Y0206018D01*
X0292410Y0204420D02*
X0293590Y0204420D01*
X0293000Y0202821D02*
X0293000Y0202821D01*
X0293000Y0201223D02*
X0293000Y0201223D01*
X0292428Y0199624D02*
X0293572Y0199624D01*
X0294903Y0198026D02*
X0291097Y0198026D01*
X0290377Y0196427D02*
X0295623Y0196427D01*
X0293760Y0194829D02*
X0292240Y0194829D01*
X0292902Y0193230D02*
X0293098Y0193230D01*
X0293000Y0191632D02*
X0293000Y0191632D01*
X0292597Y0190033D02*
X0293403Y0190033D01*
X0294494Y0188435D02*
X0291506Y0188435D01*
X0289390Y0186836D02*
X0296610Y0186836D01*
X0294167Y0185238D02*
X0291833Y0185238D01*
X0292733Y0183639D02*
X0293267Y0183639D01*
X0293000Y0182041D02*
X0293000Y0182041D01*
X0292767Y0180442D02*
X0293233Y0180442D01*
X0294085Y0178844D02*
X0291915Y0178844D01*
X0289586Y0177245D02*
X0296414Y0177245D01*
X0294576Y0175647D02*
X0291424Y0175647D01*
X0292564Y0174048D02*
X0293436Y0174048D01*
X0293000Y0172450D02*
X0293000Y0172450D01*
X0292936Y0170851D02*
X0293064Y0170851D01*
X0293726Y0169253D02*
X0292274Y0169253D01*
X0290574Y0167654D02*
X0295426Y0167654D01*
X0294985Y0166056D02*
X0291015Y0166056D01*
X0292394Y0164457D02*
X0293606Y0164457D01*
X0293000Y0162859D02*
X0293000Y0162859D01*
X0293000Y0161260D02*
X0293000Y0161260D01*
X0292443Y0159662D02*
X0293557Y0159662D01*
X0294866Y0158063D02*
X0291134Y0158063D01*
X0290287Y0156465D02*
X0295713Y0156465D01*
X0293795Y0154866D02*
X0292205Y0154866D01*
X0292887Y0153268D02*
X0293113Y0153268D01*
X0293000Y0151669D02*
X0293000Y0151669D01*
X0292613Y0150070D02*
X0293387Y0150070D01*
X0294457Y0148472D02*
X0291543Y0148472D01*
X0291796Y0145275D02*
X0294204Y0145275D01*
X0293282Y0143676D02*
X0292718Y0143676D01*
X0293000Y0142078D02*
X0293000Y0142078D01*
X0292782Y0140479D02*
X0293218Y0140479D01*
X0294048Y0138881D02*
X0291952Y0138881D01*
X0289676Y0137282D02*
X0296324Y0137282D01*
X0294613Y0135684D02*
X0291387Y0135684D01*
X0292548Y0134085D02*
X0293452Y0134085D01*
X0293000Y0132487D02*
X0293000Y0132487D01*
X0292951Y0130888D02*
X0293048Y0130888D01*
X0293711Y0129290D02*
X0292289Y0129290D01*
X0290664Y0127691D02*
X0295336Y0127691D01*
X0300664Y0127691D02*
X0316000Y0127691D01*
X0316000Y0126093D02*
X0240856Y0126093D01*
X0240981Y0124494D02*
X0269413Y0124494D01*
X0269564Y0124645D02*
X0268355Y0123436D01*
X0267700Y0121855D01*
X0267700Y0120145D01*
X0268355Y0118564D01*
X0269564Y0117355D01*
X0271145Y0116700D01*
X0272855Y0116700D01*
X0274436Y0117355D01*
X0275645Y0118564D01*
X0276300Y0120145D01*
X0276300Y0121855D01*
X0275645Y0123436D01*
X0274436Y0124645D01*
X0272855Y0125300D01*
X0271145Y0125300D01*
X0269564Y0124645D01*
X0268131Y0122896D02*
X0240437Y0122896D01*
X0238464Y0121297D02*
X0267700Y0121297D01*
X0267885Y0119699D02*
X0198981Y0119699D01*
X0198936Y0118100D02*
X0268819Y0118100D01*
X0275181Y0118100D02*
X0316000Y0118100D01*
X0316000Y0116502D02*
X0225128Y0116502D01*
X0225935Y0114903D02*
X0316000Y0114903D01*
X0316000Y0113305D02*
X0225981Y0113305D01*
X0225336Y0111706D02*
X0316000Y0111706D01*
X0316000Y0110108D02*
X0223006Y0110108D01*
X0218872Y0116502D02*
X0198132Y0116502D01*
X0198333Y0121297D02*
X0235536Y0121297D01*
X0239939Y0127691D02*
X0285336Y0127691D01*
X0275869Y0122896D02*
X0316000Y0122896D01*
X0316000Y0124494D02*
X0274587Y0124494D01*
X0276300Y0121297D02*
X0316000Y0121297D01*
X0316000Y0119699D02*
X0276115Y0119699D01*
X0302289Y0129290D02*
X0316000Y0129290D01*
X0316000Y0130888D02*
X0302951Y0130888D01*
X0303000Y0132487D02*
X0316000Y0132487D01*
X0316000Y0134085D02*
X0302548Y0134085D01*
X0301387Y0135684D02*
X0316000Y0135684D01*
X0316000Y0137282D02*
X0299676Y0137282D01*
X0301952Y0138881D02*
X0316000Y0138881D01*
X0316000Y0140479D02*
X0302782Y0140479D01*
X0303000Y0142078D02*
X0316000Y0142078D01*
X0316000Y0143676D02*
X0302718Y0143676D01*
X0301796Y0145275D02*
X0316000Y0145275D01*
X0283557Y0159662D02*
X0175292Y0159662D01*
X0175981Y0161260D02*
X0194626Y0161260D01*
X0195208Y0161019D02*
X0196792Y0161019D01*
X0198255Y0161625D01*
X0199375Y0162745D01*
X0199981Y0164208D01*
X0199981Y0165792D01*
X0199375Y0167255D01*
X0198255Y0168375D01*
X0196792Y0168981D01*
X0195208Y0168981D01*
X0193745Y0168375D01*
X0192625Y0167255D01*
X0192019Y0165792D01*
X0192019Y0164208D01*
X0192625Y0162745D01*
X0193745Y0161625D01*
X0195208Y0161019D01*
X0197374Y0161260D02*
X0283000Y0161260D01*
X0283000Y0162859D02*
X0199422Y0162859D01*
X0199981Y0164457D02*
X0283606Y0164457D01*
X0284985Y0166056D02*
X0199872Y0166056D01*
X0198976Y0167654D02*
X0285426Y0167654D01*
X0283726Y0169253D02*
X0175800Y0169253D01*
X0175028Y0167654D02*
X0193024Y0167654D01*
X0192128Y0166056D02*
X0171338Y0166056D01*
X0175173Y0164457D02*
X0192019Y0164457D01*
X0192578Y0162859D02*
X0175953Y0162859D01*
X0169076Y0172450D02*
X0167944Y0172450D01*
X0166346Y0174048D02*
X0183635Y0174048D01*
X0167979Y0175647D02*
X0164747Y0175647D01*
X0163149Y0177245D02*
X0167200Y0177245D01*
X0152260Y0167654D02*
X0150976Y0167654D01*
X0151056Y0159662D02*
X0151379Y0159662D01*
X0151019Y0158063D02*
X0149471Y0158063D01*
X0168448Y0142078D02*
X0062472Y0142078D01*
X0064071Y0143676D02*
X0175239Y0143676D01*
X0175019Y0145275D02*
X0065669Y0145275D01*
X0067268Y0146873D02*
X0119496Y0146873D01*
X0118324Y0148472D02*
X0068866Y0148472D01*
X0070465Y0150070D02*
X0118019Y0150070D01*
X0118382Y0151669D02*
X0072063Y0151669D01*
X0060874Y0140479D02*
X0167304Y0140479D01*
X0167019Y0138881D02*
X0059275Y0138881D01*
X0057676Y0137282D02*
X0158239Y0137282D01*
X0156290Y0135684D02*
X0056078Y0135684D01*
X0054479Y0134085D02*
X0154691Y0134085D01*
X0153093Y0132487D02*
X0052881Y0132487D01*
X0051282Y0130888D02*
X0151494Y0130888D01*
X0149896Y0129290D02*
X0049684Y0129290D01*
X0029445Y0182041D02*
X0027799Y0182041D01*
X0021571Y0182041D02*
X0004000Y0182041D01*
X0004000Y0183639D02*
X0020559Y0183639D01*
X0020307Y0185238D02*
X0004000Y0185238D01*
X0004000Y0186836D02*
X0020658Y0186836D01*
X0021810Y0188435D02*
X0004000Y0188435D01*
X0004000Y0190033D02*
X0021453Y0190033D01*
X0020510Y0191632D02*
X0004000Y0191632D01*
X0004000Y0193230D02*
X0020307Y0193230D01*
X0020707Y0194829D02*
X0004000Y0194829D01*
X0004000Y0196427D02*
X0021929Y0196427D01*
X0021334Y0198026D02*
X0004000Y0198026D01*
X0004000Y0199624D02*
X0020461Y0199624D01*
X0020307Y0201223D02*
X0004000Y0201223D01*
X0004000Y0202821D02*
X0020756Y0202821D01*
X0022047Y0204420D02*
X0004000Y0204420D01*
X0027323Y0204420D02*
X0029921Y0204420D01*
X0028630Y0202821D02*
X0028614Y0202821D01*
X0027847Y0210814D02*
X0029397Y0210814D01*
X0029397Y0212412D02*
X0027847Y0212412D01*
X0027847Y0214011D02*
X0029397Y0214011D01*
X0029397Y0215609D02*
X0027847Y0215609D01*
X0031625Y0210814D02*
X0060600Y0210814D01*
X0060600Y0212412D02*
X0033622Y0212412D01*
X0034606Y0214011D02*
X0060600Y0214011D01*
X0060600Y0215609D02*
X0035070Y0215609D01*
X0058030Y0194829D02*
X0065042Y0194829D01*
X0065400Y0206018D02*
X0071295Y0206018D01*
X0070719Y0207617D02*
X0065400Y0207617D01*
X0065400Y0209215D02*
X0070811Y0209215D01*
X0070644Y0210814D02*
X0071684Y0210814D01*
X0071500Y0212412D02*
X0091000Y0212412D01*
X0091007Y0214011D02*
X0071581Y0214011D01*
X0070994Y0215609D02*
X0091669Y0215609D01*
X0093137Y0217208D02*
X0068810Y0217208D01*
X0066390Y0217208D02*
X0065400Y0217208D01*
X0065400Y0218806D02*
X0108412Y0218806D01*
X0103137Y0217208D02*
X0098863Y0217208D01*
X0100331Y0215609D02*
X0101669Y0215609D01*
X0101007Y0214011D02*
X0100993Y0214011D01*
X0101000Y0213995D02*
X0101000Y0212005D01*
X0100335Y0210400D01*
X0101665Y0210400D01*
X0101000Y0212005D01*
X0101000Y0213995D01*
X0101000Y0212412D02*
X0101000Y0212412D01*
X0100506Y0210814D02*
X0101494Y0210814D01*
X0091494Y0210814D02*
X0077716Y0210814D01*
X0033381Y0237989D02*
X0032505Y0237989D01*
X0029500Y0257171D02*
X0004000Y0257171D01*
X0004000Y0258769D02*
X0029500Y0258769D01*
X0029500Y0268360D02*
X0027616Y0268360D01*
X0029464Y0269959D02*
X0029500Y0269959D01*
X0043357Y0282747D02*
X0067019Y0282747D01*
X0067044Y0281148D02*
X0045419Y0281148D01*
X0120792Y0223602D02*
X0142208Y0223602D01*
X0146400Y0218806D02*
X0153336Y0218806D01*
X0153000Y0217208D02*
X0146400Y0217208D01*
X0146400Y0215609D02*
X0153164Y0215609D01*
X0153918Y0214011D02*
X0146400Y0214011D01*
X0146400Y0212412D02*
X0156010Y0212412D01*
X0228053Y0206018D02*
X0231947Y0206018D01*
X0230590Y0204420D02*
X0229410Y0204420D01*
X0230000Y0202821D02*
X0230000Y0202821D01*
X0230000Y0201223D02*
X0230000Y0201223D01*
X0229428Y0199624D02*
X0230572Y0199624D01*
X0231903Y0198026D02*
X0228097Y0198026D01*
X0234005Y0216000D02*
X0235995Y0216000D01*
X0237832Y0216761D01*
X0239239Y0218168D01*
X0240000Y0220005D01*
X0240000Y0221995D01*
X0239239Y0223832D01*
X0237832Y0225239D01*
X0235995Y0226000D01*
X0234005Y0226000D01*
X0232168Y0225239D01*
X0230761Y0223832D01*
X0230000Y0221995D01*
X0230000Y0220005D01*
X0230761Y0218168D01*
X0232168Y0216761D01*
X0234005Y0216000D01*
X0231721Y0217208D02*
X0228279Y0217208D01*
X0229503Y0218806D02*
X0230497Y0218806D01*
X0230000Y0220405D02*
X0230000Y0220405D01*
X0229996Y0222003D02*
X0230004Y0222003D01*
X0230666Y0223602D02*
X0229334Y0223602D01*
X0227871Y0225201D02*
X0232129Y0225201D01*
X0237871Y0225201D02*
X0242129Y0225201D01*
X0240666Y0223602D02*
X0239334Y0223602D01*
X0239996Y0222003D02*
X0240004Y0222003D01*
X0240000Y0220405D02*
X0240000Y0220405D01*
X0239503Y0218806D02*
X0240497Y0218806D01*
X0241721Y0217208D02*
X0238279Y0217208D01*
X0254569Y0190033D02*
X0283403Y0190033D01*
X0291878Y0218806D02*
X0294122Y0218806D01*
X0293249Y0220405D02*
X0292751Y0220405D01*
X0293000Y0222003D02*
X0293000Y0222003D01*
X0292748Y0223602D02*
X0293252Y0223602D01*
X0294129Y0225201D02*
X0291871Y0225201D01*
X0289480Y0226799D02*
X0296520Y0226799D01*
X0222084Y0145275D02*
X0182981Y0145275D01*
X0182761Y0143676D02*
X0219595Y0143676D01*
X0218792Y0142078D02*
X0181708Y0142078D01*
X0176292Y0142078D02*
X0173552Y0142078D01*
X0174696Y0140479D02*
X0218700Y0140479D01*
X0219223Y0138881D02*
X0174981Y0138881D01*
X0174598Y0137282D02*
X0220739Y0137282D01*
X0316000Y0009401D02*
X0004000Y0009401D01*
X0004000Y0007803D02*
X0316000Y0007803D01*
X0316000Y0006204D02*
X0004000Y0006204D01*
D15*
X0063000Y0046000D03*
X0089000Y0065000D03*
X0114000Y0081000D03*
X0119000Y0073000D03*
X0147000Y0060000D03*
X0167000Y0052000D03*
X0212000Y0066000D03*
X0222000Y0114000D03*
X0237000Y0125000D03*
X0260000Y0113000D03*
X0195000Y0119000D03*
X0189000Y0134000D03*
X0179000Y0145000D03*
X0171000Y0139000D03*
X0175000Y0157000D03*
X0172000Y0162000D03*
X0178000Y0167000D03*
X0196000Y0165000D03*
X0208000Y0157000D03*
X0204000Y0181000D03*
X0194000Y0185000D03*
X0175000Y0183000D03*
X0169000Y0187000D03*
X0163000Y0187000D03*
X0153000Y0176000D03*
X0158000Y0171000D03*
X0148000Y0165000D03*
X0155000Y0158000D03*
X0135000Y0152000D03*
X0122000Y0150000D03*
X0099000Y0163000D03*
X0063000Y0183000D03*
X0056000Y0187000D03*
X0054000Y0176000D03*
X0068700Y0196400D03*
X0056000Y0204000D03*
X0067600Y0213400D03*
X0074700Y0208200D03*
X0051000Y0225000D03*
X0070000Y0238000D03*
X0069000Y0246000D03*
X0078000Y0254000D03*
X0059000Y0262000D03*
X0064000Y0268000D03*
X0057000Y0274000D03*
X0047000Y0275000D03*
X0042000Y0279000D03*
X0026000Y0272000D03*
X0021000Y0252000D03*
X0034000Y0253000D03*
X0045000Y0249000D03*
X0036000Y0241000D03*
X0070000Y0275000D03*
X0071000Y0282000D03*
X0077000Y0282000D03*
X0095000Y0271000D03*
X0099000Y0264000D03*
X0113053Y0254947D03*
X0129000Y0255000D03*
X0125000Y0272000D03*
X0119500Y0277400D03*
X0113000Y0277000D03*
X0151000Y0286000D03*
X0155000Y0273000D03*
X0169000Y0263000D03*
X0163000Y0256000D03*
X0155000Y0252000D03*
X0187000Y0238000D03*
X0196000Y0229000D03*
X0166500Y0214500D03*
X0184000Y0205000D03*
X0169000Y0200000D03*
X0153000Y0200000D03*
X0144000Y0208000D03*
X0133000Y0219000D03*
X0116000Y0200000D03*
X0116300Y0193200D03*
X0144400Y0135000D03*
X0116000Y0123000D03*
X0149000Y0114000D03*
X0202000Y0274000D03*
X0202000Y0289000D03*
X0182000Y0289000D03*
X0175000Y0281000D03*
X0193000Y0302000D03*
X0209000Y0304000D03*
X0216000Y0305000D03*
X0223000Y0299000D03*
X0227200Y0294300D03*
X0225000Y0287000D03*
X0231000Y0283000D03*
X0246000Y0281000D03*
X0365400Y0294400D03*
X0386000Y0278000D03*
X0042000Y0298000D03*
D16*
X0073000Y0263000D02*
X0073000Y0262000D01*
X0072000Y0261000D01*
X0078000Y0254000D01*
X0095000Y0264000D02*
X0099000Y0264000D01*
X0109000Y0288000D02*
X0109000Y0298000D01*
X0227200Y0294300D02*
X0228000Y0304000D01*
D17*
X0238000Y0308000D02*
X0109000Y0307000D01*
X0109000Y0288000D02*
X0126000Y0288000D01*
X0126000Y0273000D01*
X0125000Y0272000D01*
X0154000Y0272000D01*
X0155000Y0273000D01*
X0152000Y0255000D02*
X0129000Y0255000D01*
X0125000Y0259000D01*
X0125000Y0272000D01*
X0152000Y0255000D02*
X0155000Y0252000D01*
X0173000Y0252000D01*
X0187000Y0238000D01*
X0240000Y0287000D02*
X0246000Y0281000D01*
X0240000Y0287000D02*
X0240000Y0308000D01*
X0238000Y0308000D01*
X0227200Y0294300D02*
X0225000Y0292500D01*
X0225000Y0287000D01*
X0056000Y0187236D02*
X0056000Y0187000D01*
X0175000Y0157000D02*
X0177000Y0156000D01*
X0189000Y0138000D02*
X0189000Y0134000D01*
X0191000Y0134000D01*
X0189000Y0134000D02*
X0188000Y0135000D01*
X0207000Y0156000D02*
X0208000Y0157000D01*
X0062315Y0022063D02*
X0058937Y0022063D01*
D18*
X0157000Y0102000D03*
X0140000Y0122000D03*
X0076000Y0137000D03*
X0039000Y0148000D03*
X0131100Y0182900D03*
X0223000Y0141000D03*
X0272000Y0121000D03*
X0132000Y0282000D03*
X0104000Y0282000D03*
D19*
X0119000Y0222000D02*
X0064000Y0222000D01*
X0063000Y0221000D01*
X0063000Y0203000D01*
X0057000Y0197000D01*
X0029000Y0197000D01*
X0024992Y0192992D01*
X0024685Y0192992D01*
X0074700Y0208200D02*
X0074900Y0208000D01*
X0126000Y0208000D01*
X0172000Y0162000D01*
X0172000Y0170000D02*
X0167000Y0170000D01*
X0127000Y0210000D01*
X0127000Y0211000D01*
X0118000Y0220000D01*
X0113000Y0220000D01*
X0106000Y0213000D01*
X0119000Y0222000D02*
X0160000Y0181000D01*
X0173000Y0181000D01*
X0175000Y0183000D01*
X0158000Y0171000D02*
X0158000Y0170000D01*
X0148000Y0160000D01*
X0075000Y0158000D01*
X0047000Y0130000D01*
X0047000Y0129000D01*
X0046000Y0128000D01*
X0046000Y0111000D01*
X0054000Y0111000D01*
X0046000Y0111000D02*
X0046000Y0087000D01*
X0037874Y0071748D01*
X0089000Y0065000D02*
X0099000Y0066000D01*
X0212000Y0066000D01*
X0166874Y0022063D02*
X0158811Y0014000D01*
X0071000Y0014000D01*
X0070189Y0014811D01*
X0070189Y0022063D01*
X0114000Y0081000D02*
X0132000Y0099000D01*
X0132000Y0116000D01*
X0140000Y0116000D01*
X0159000Y0135000D01*
X0167000Y0135000D01*
X0171000Y0139000D01*
X0144000Y0208000D02*
X0144000Y0222000D01*
X0179000Y0222000D01*
X0194000Y0237000D01*
X0194000Y0266000D01*
X0202000Y0274000D01*
D20*
X0245000Y0221000D02*
X0250000Y0222000D01*
X0255000Y0217000D01*
X0255000Y0194000D01*
X0252000Y0191000D01*
X0230000Y0191000D01*
X0215000Y0173000D01*
X0171000Y0178000D01*
X0175000Y0183000D02*
X0179000Y0179000D01*
X0195000Y0179000D01*
X0203000Y0187000D01*
X0213000Y0187000D01*
X0225000Y0199000D01*
X0225000Y0202000D01*
D21*
X0109000Y0298000D02*
X0109000Y0307000D01*
X0075000Y0307000D01*
X0070000Y0302000D01*
X0070000Y0295000D01*
X0067000Y0292000D01*
X0037000Y0292000D01*
X0034000Y0289000D01*
X0034000Y0266000D01*
X0055000Y0266000D01*
X0059000Y0262000D01*
X0034000Y0266000D02*
X0034000Y0253000D01*
D22*
X0422000Y0218000D03*
X0449000Y0218000D03*
D23*
X0171200Y0210000D03*
X0171000Y0178000D03*
X0172000Y0170000D03*
M02*
