G75*
%MOIN*%
%OFA0B0*%
%FSLAX25Y25*%
%IPPOS*%
%LPD*%
%AMOC8*
5,1,8,0,0,1.08239X$1,22.5*
%
%ADD10C,0.01600*%
%ADD11C,0.00200*%
%ADD12C,0.00100*%
%ADD13C,0.00500*%
%ADD14C,0.00000*%
%ADD15C,0.00600*%
%ADD16C,0.02200*%
%ADD17C,0.00197*%
%ADD18C,0.00787*%
%ADD19C,0.00118*%
%ADD20C,0.00394*%
%ADD21C,0.00800*%
%ADD22C,0.01575*%
%ADD23C,0.01000*%
D10*
X0011000Y0011000D02*
X0011000Y0311000D01*
X0311000Y0311000D01*
X0312000Y0011000D01*
X0011000Y0011000D01*
D11*
X0049848Y0046100D02*
X0049848Y0047001D01*
X0050149Y0047301D01*
X0050749Y0047301D01*
X0051049Y0047001D01*
X0051049Y0046100D01*
X0051049Y0046701D02*
X0051650Y0047301D01*
X0051350Y0047942D02*
X0051650Y0048242D01*
X0051650Y0048842D01*
X0051350Y0049143D01*
X0050749Y0049143D01*
X0050449Y0048842D01*
X0050449Y0048542D01*
X0050749Y0047942D01*
X0049848Y0047942D01*
X0049848Y0049143D01*
X0049848Y0046100D02*
X0051650Y0046100D01*
X0058598Y0046301D02*
X0058598Y0045100D01*
X0059499Y0045100D01*
X0059199Y0045701D01*
X0059199Y0046001D01*
X0059499Y0046301D01*
X0060100Y0046301D01*
X0060400Y0046001D01*
X0060400Y0045400D01*
X0060100Y0045100D01*
X0060100Y0046942D02*
X0060100Y0047242D01*
X0060400Y0047242D01*
X0060400Y0046942D01*
X0060100Y0046942D01*
X0060100Y0047862D02*
X0060400Y0048163D01*
X0060400Y0048763D01*
X0060100Y0049063D01*
X0059499Y0049063D01*
X0059199Y0048763D01*
X0059199Y0048463D01*
X0059499Y0047862D01*
X0058598Y0047862D01*
X0058598Y0049063D01*
X0058598Y0049704D02*
X0060400Y0049704D01*
X0059799Y0049704D02*
X0058598Y0050905D01*
X0059499Y0050004D02*
X0060400Y0050905D01*
X0060100Y0036902D02*
X0060100Y0035100D01*
X0060100Y0036001D02*
X0061301Y0036001D01*
X0061942Y0036001D02*
X0062542Y0036001D01*
X0061942Y0036902D02*
X0061942Y0035100D01*
X0063143Y0035100D01*
X0063783Y0035100D02*
X0063783Y0036301D01*
X0064384Y0036902D01*
X0064984Y0036301D01*
X0064984Y0035100D01*
X0065625Y0035100D02*
X0066525Y0035100D01*
X0066826Y0035400D01*
X0066826Y0036601D01*
X0066525Y0036902D01*
X0065625Y0036902D01*
X0065625Y0035100D01*
X0064984Y0036001D02*
X0063783Y0036001D01*
X0063143Y0036902D02*
X0061942Y0036902D01*
X0061301Y0036902D02*
X0061301Y0035100D01*
X0067466Y0035100D02*
X0068667Y0035100D01*
X0069308Y0035100D02*
X0069308Y0036902D01*
X0070209Y0036902D01*
X0070509Y0036601D01*
X0070509Y0036001D01*
X0070209Y0035701D01*
X0069308Y0035701D01*
X0069908Y0035701D02*
X0070509Y0035100D01*
X0071149Y0035400D02*
X0071450Y0035100D01*
X0072050Y0035100D01*
X0072350Y0035400D01*
X0072350Y0036601D01*
X0072050Y0036902D01*
X0071450Y0036902D01*
X0071149Y0036601D01*
X0071149Y0036301D01*
X0071450Y0036001D01*
X0072350Y0036001D01*
X0072991Y0036902D02*
X0073592Y0036301D01*
X0074192Y0036902D01*
X0074192Y0035100D01*
X0072991Y0035100D02*
X0072991Y0036902D01*
X0068667Y0036902D02*
X0067466Y0036902D01*
X0067466Y0035100D01*
X0067466Y0036001D02*
X0068067Y0036001D01*
X0023900Y0069100D02*
X0022098Y0069100D01*
X0022999Y0069100D02*
X0022999Y0070301D01*
X0022999Y0070942D02*
X0022999Y0071542D01*
X0022098Y0070942D02*
X0023900Y0070942D01*
X0023900Y0072143D01*
X0023900Y0072783D02*
X0022699Y0072783D01*
X0022098Y0073384D01*
X0022699Y0073984D01*
X0023900Y0073984D01*
X0023900Y0074625D02*
X0023900Y0075525D01*
X0023600Y0075826D01*
X0022399Y0075826D01*
X0022098Y0075525D01*
X0022098Y0074625D01*
X0023900Y0074625D01*
X0022999Y0073984D02*
X0022999Y0072783D01*
X0022098Y0072143D02*
X0022098Y0070942D01*
X0022098Y0070301D02*
X0023900Y0070301D01*
X0023900Y0076466D02*
X0022098Y0076466D01*
X0022098Y0077667D01*
X0022098Y0078308D02*
X0022098Y0079209D01*
X0022399Y0079509D01*
X0022999Y0079509D01*
X0023299Y0079209D01*
X0023299Y0078308D01*
X0023299Y0078908D02*
X0023900Y0079509D01*
X0023900Y0080149D02*
X0023600Y0080149D01*
X0022399Y0081350D01*
X0022098Y0081350D01*
X0022098Y0080149D01*
X0022098Y0078308D02*
X0023900Y0078308D01*
X0023900Y0077667D02*
X0023900Y0076466D01*
X0022999Y0076466D02*
X0022999Y0077067D01*
X0022098Y0081991D02*
X0022699Y0082592D01*
X0022098Y0083192D01*
X0023900Y0083192D01*
X0023900Y0081991D02*
X0022098Y0081991D01*
X0073600Y0091900D02*
X0073900Y0091600D01*
X0074501Y0091600D01*
X0074801Y0091900D01*
X0074801Y0093402D01*
X0075442Y0093101D02*
X0075742Y0093402D01*
X0076342Y0093402D01*
X0076643Y0093101D01*
X0076643Y0092801D01*
X0075442Y0091600D01*
X0076643Y0091600D01*
X0073600Y0091900D02*
X0073600Y0093402D01*
X0137600Y0090402D02*
X0137600Y0088900D01*
X0137900Y0088600D01*
X0138501Y0088600D01*
X0138801Y0088900D01*
X0138801Y0090402D01*
X0139442Y0090101D02*
X0139742Y0090402D01*
X0140342Y0090402D01*
X0140643Y0090101D01*
X0140342Y0089501D02*
X0139742Y0089501D01*
X0139442Y0089801D01*
X0139442Y0090101D01*
X0140042Y0090702D02*
X0140042Y0088300D01*
X0139742Y0088600D02*
X0140342Y0088600D01*
X0140643Y0088900D01*
X0140643Y0089201D01*
X0140342Y0089501D01*
X0141283Y0089801D02*
X0141884Y0090402D01*
X0141884Y0088600D01*
X0142484Y0088600D02*
X0141283Y0088600D01*
X0139742Y0088600D02*
X0139442Y0088900D01*
X0143125Y0089501D02*
X0144326Y0089501D01*
X0144025Y0090402D02*
X0143125Y0089501D01*
X0144025Y0088600D02*
X0144025Y0090402D01*
X0160241Y0101900D02*
X0160241Y0104102D01*
X0160975Y0103368D01*
X0161709Y0104102D01*
X0161709Y0101900D01*
X0162451Y0101900D02*
X0162451Y0104102D01*
X0163551Y0104102D01*
X0163918Y0103735D01*
X0163918Y0103001D01*
X0163551Y0102634D01*
X0162451Y0102634D01*
X0163184Y0102634D02*
X0163918Y0101900D01*
X0164660Y0101900D02*
X0164660Y0103368D01*
X0165394Y0104102D01*
X0166128Y0103368D01*
X0166128Y0101900D01*
X0166870Y0101900D02*
X0166870Y0104102D01*
X0167604Y0103368D01*
X0168338Y0104102D01*
X0168338Y0101900D01*
X0166128Y0103001D02*
X0164660Y0103001D01*
X0171290Y0104102D02*
X0172024Y0103368D01*
X0172758Y0104102D01*
X0172758Y0101900D01*
X0173500Y0101900D02*
X0173500Y0104102D01*
X0174601Y0104102D01*
X0174968Y0103735D01*
X0174968Y0103001D01*
X0174601Y0102634D01*
X0173500Y0102634D01*
X0174234Y0102634D02*
X0174968Y0101900D01*
X0175710Y0101900D02*
X0177178Y0103368D01*
X0177178Y0103735D01*
X0176811Y0104102D01*
X0176077Y0104102D01*
X0175710Y0103735D01*
X0175710Y0101900D02*
X0177178Y0101900D01*
X0177920Y0102267D02*
X0178287Y0101900D01*
X0179021Y0101900D01*
X0179388Y0102267D01*
X0179388Y0103001D01*
X0179021Y0103368D01*
X0178654Y0103368D01*
X0177920Y0103001D01*
X0177920Y0104102D01*
X0179388Y0104102D01*
X0180130Y0104102D02*
X0180130Y0101900D01*
X0180130Y0103001D02*
X0181597Y0103001D01*
X0182339Y0103368D02*
X0183073Y0104102D01*
X0183073Y0101900D01*
X0182339Y0101900D02*
X0183807Y0101900D01*
X0184549Y0102267D02*
X0186017Y0103735D01*
X0186017Y0102267D01*
X0185650Y0101900D01*
X0184916Y0101900D01*
X0184549Y0102267D01*
X0184549Y0103735D01*
X0184916Y0104102D01*
X0185650Y0104102D01*
X0186017Y0103735D01*
X0186759Y0103735D02*
X0186759Y0102267D01*
X0187126Y0101900D01*
X0187860Y0101900D01*
X0188227Y0102267D01*
X0188969Y0101900D02*
X0190070Y0101900D01*
X0190437Y0102267D01*
X0190437Y0103735D01*
X0190070Y0104102D01*
X0188969Y0104102D01*
X0188969Y0101900D01*
X0188227Y0103735D02*
X0187860Y0104102D01*
X0187126Y0104102D01*
X0186759Y0103735D01*
X0191179Y0103735D02*
X0191179Y0102267D01*
X0191546Y0101900D01*
X0192280Y0101900D01*
X0192647Y0102267D01*
X0192647Y0103735D02*
X0192280Y0104102D01*
X0191546Y0104102D01*
X0191179Y0103735D01*
X0181597Y0104102D02*
X0181597Y0101900D01*
X0171290Y0101900D02*
X0171290Y0104102D01*
X0150545Y0123600D02*
X0150545Y0125402D01*
X0151747Y0125402D01*
X0151146Y0124501D02*
X0150545Y0124501D01*
X0149905Y0124801D02*
X0149905Y0123600D01*
X0149004Y0123600D01*
X0148704Y0123900D01*
X0148704Y0124801D01*
X0148063Y0123600D02*
X0146862Y0123600D01*
X0147463Y0123600D02*
X0147463Y0125402D01*
X0146862Y0124801D01*
X0146242Y0123900D02*
X0146242Y0123600D01*
X0145942Y0123600D01*
X0145942Y0123900D01*
X0146242Y0123900D01*
X0145301Y0123900D02*
X0145001Y0123600D01*
X0144400Y0123600D01*
X0144100Y0123900D01*
X0145301Y0125101D01*
X0145301Y0123900D01*
X0144100Y0123900D02*
X0144100Y0125101D01*
X0144400Y0125402D01*
X0145001Y0125402D01*
X0145301Y0125101D01*
X0146400Y0133350D02*
X0147001Y0133350D01*
X0147301Y0133650D01*
X0147942Y0133650D02*
X0148242Y0133350D01*
X0148842Y0133350D01*
X0149143Y0133650D01*
X0149143Y0133951D01*
X0148842Y0134251D01*
X0147942Y0134251D01*
X0147942Y0133650D01*
X0147942Y0134251D02*
X0148542Y0134851D01*
X0149143Y0135152D01*
X0147301Y0134851D02*
X0147001Y0135152D01*
X0146400Y0135152D01*
X0146100Y0134851D01*
X0146100Y0133650D01*
X0146400Y0133350D01*
X0193100Y0130101D02*
X0193400Y0130402D01*
X0194001Y0130402D01*
X0194301Y0130101D01*
X0193100Y0128900D01*
X0193400Y0128600D01*
X0194001Y0128600D01*
X0194301Y0128900D01*
X0194301Y0130101D01*
X0193100Y0130101D02*
X0193100Y0128900D01*
X0194942Y0128900D02*
X0195242Y0128900D01*
X0195242Y0128600D01*
X0194942Y0128600D01*
X0194942Y0128900D01*
X0195862Y0128600D02*
X0197063Y0128600D01*
X0196463Y0128600D02*
X0196463Y0130402D01*
X0195862Y0129801D01*
X0197704Y0129801D02*
X0197704Y0128900D01*
X0198004Y0128600D01*
X0198905Y0128600D01*
X0198905Y0129801D01*
X0199545Y0129501D02*
X0200146Y0129501D01*
X0199545Y0128600D02*
X0199545Y0130402D01*
X0200747Y0130402D01*
X0196842Y0137350D02*
X0196242Y0137350D01*
X0195942Y0137650D01*
X0195942Y0138251D02*
X0196542Y0138551D01*
X0196842Y0138551D01*
X0197143Y0138251D01*
X0197143Y0137650D01*
X0196842Y0137350D01*
X0195942Y0138251D02*
X0195942Y0139152D01*
X0197143Y0139152D01*
X0195301Y0138851D02*
X0195001Y0139152D01*
X0194400Y0139152D01*
X0194100Y0138851D01*
X0194100Y0137650D01*
X0194400Y0137350D01*
X0195001Y0137350D01*
X0195301Y0137650D01*
X0204717Y0146850D02*
X0205318Y0146850D01*
X0205618Y0147150D01*
X0206258Y0147150D02*
X0206258Y0146850D01*
X0206258Y0147150D02*
X0207459Y0148351D01*
X0207459Y0148652D01*
X0206258Y0148652D01*
X0205618Y0148351D02*
X0205318Y0148652D01*
X0204717Y0148652D01*
X0204417Y0148351D01*
X0204417Y0147150D01*
X0204717Y0146850D01*
X0208813Y0146101D02*
X0209113Y0146402D01*
X0209714Y0146402D01*
X0210014Y0146101D01*
X0208813Y0144900D01*
X0209113Y0144600D01*
X0209714Y0144600D01*
X0210014Y0144900D01*
X0210014Y0146101D01*
X0208813Y0146101D02*
X0208813Y0144900D01*
X0210654Y0144900D02*
X0210955Y0144900D01*
X0210955Y0144600D01*
X0210654Y0144600D01*
X0210654Y0144900D01*
X0211575Y0144600D02*
X0212776Y0144600D01*
X0212176Y0144600D02*
X0212176Y0146402D01*
X0211575Y0145801D01*
X0213417Y0145801D02*
X0213417Y0144900D01*
X0213717Y0144600D01*
X0214618Y0144600D01*
X0214618Y0145801D01*
X0215258Y0145501D02*
X0215859Y0145501D01*
X0216459Y0146402D02*
X0215258Y0146402D01*
X0215258Y0144600D01*
X0215159Y0137652D02*
X0215459Y0137351D01*
X0215459Y0137051D01*
X0215159Y0136751D01*
X0214559Y0136751D01*
X0214258Y0137051D01*
X0214258Y0137351D01*
X0214559Y0137652D01*
X0215159Y0137652D01*
X0215159Y0136751D02*
X0215459Y0136451D01*
X0215459Y0136150D01*
X0215159Y0135850D01*
X0214559Y0135850D01*
X0214258Y0136150D01*
X0214258Y0136451D01*
X0214559Y0136751D01*
X0213618Y0135850D02*
X0212417Y0135850D01*
X0213017Y0135850D02*
X0213017Y0137652D01*
X0212417Y0137051D01*
X0211776Y0137351D02*
X0211476Y0137652D01*
X0210876Y0137652D01*
X0210575Y0137351D01*
X0210575Y0136150D01*
X0210876Y0135850D01*
X0211476Y0135850D01*
X0211776Y0136150D01*
X0231600Y0120902D02*
X0231600Y0119100D01*
X0232801Y0119100D01*
X0233442Y0119100D02*
X0234643Y0119100D01*
X0234042Y0119100D02*
X0234042Y0120902D01*
X0233442Y0120301D01*
X0233392Y0108902D02*
X0232791Y0108902D01*
X0232491Y0108601D01*
X0231850Y0108601D02*
X0231550Y0108902D01*
X0230950Y0108902D01*
X0230649Y0108601D01*
X0230649Y0107400D01*
X0230950Y0107100D01*
X0231550Y0107100D01*
X0231850Y0107400D01*
X0231850Y0108001D01*
X0231250Y0108001D01*
X0230009Y0108001D02*
X0230009Y0108601D01*
X0229709Y0108902D01*
X0228808Y0108902D01*
X0228808Y0107100D01*
X0228808Y0107701D02*
X0229709Y0107701D01*
X0230009Y0108001D01*
X0228167Y0107100D02*
X0226966Y0107100D01*
X0227567Y0107100D02*
X0227567Y0108902D01*
X0226966Y0108301D01*
X0226326Y0108301D02*
X0225125Y0107100D01*
X0226326Y0107100D01*
X0226326Y0108301D02*
X0226326Y0108601D01*
X0226025Y0108902D01*
X0225425Y0108902D01*
X0225125Y0108601D01*
X0224484Y0108902D02*
X0224484Y0107100D01*
X0223283Y0107100D02*
X0223283Y0108902D01*
X0223884Y0108301D01*
X0224484Y0108902D01*
X0222643Y0107100D02*
X0221442Y0107100D01*
X0221442Y0108902D01*
X0220801Y0108601D02*
X0220801Y0108301D01*
X0220501Y0108001D01*
X0219600Y0108001D01*
X0219600Y0107100D02*
X0219600Y0108902D01*
X0220501Y0108902D01*
X0220801Y0108601D01*
X0220501Y0108001D02*
X0220801Y0107701D01*
X0220801Y0107400D01*
X0220501Y0107100D01*
X0219600Y0107100D01*
X0232491Y0107100D02*
X0233692Y0108301D01*
X0233692Y0108601D01*
X0233392Y0108902D01*
X0234333Y0108601D02*
X0234633Y0108902D01*
X0235233Y0108902D01*
X0235534Y0108601D01*
X0235534Y0108301D01*
X0234333Y0107100D01*
X0235534Y0107100D01*
X0236174Y0107100D02*
X0237375Y0107100D01*
X0236775Y0107100D02*
X0236775Y0108902D01*
X0236174Y0108301D01*
X0238016Y0108301D02*
X0238316Y0108001D01*
X0238916Y0108001D01*
X0239217Y0107701D01*
X0239217Y0107400D01*
X0238916Y0107100D01*
X0238316Y0107100D01*
X0238016Y0107400D01*
X0238016Y0108301D02*
X0238016Y0108601D01*
X0238316Y0108902D01*
X0238916Y0108902D01*
X0239217Y0108601D01*
X0239857Y0108902D02*
X0241058Y0107100D01*
X0241058Y0108902D01*
X0241699Y0108301D02*
X0242299Y0108902D01*
X0242299Y0107100D01*
X0241699Y0107100D02*
X0242900Y0107100D01*
X0243540Y0107100D02*
X0244441Y0107100D01*
X0244741Y0107400D01*
X0244741Y0108601D01*
X0244441Y0108902D01*
X0243540Y0108902D01*
X0243540Y0107100D01*
X0239857Y0107100D02*
X0239857Y0108902D01*
X0233692Y0107100D02*
X0232491Y0107100D01*
X0247734Y0116600D02*
X0248935Y0116600D01*
X0248334Y0116600D02*
X0248334Y0118402D01*
X0247734Y0117801D01*
X0249575Y0118101D02*
X0249575Y0116900D01*
X0250776Y0118101D01*
X0250776Y0116900D01*
X0250476Y0116600D01*
X0249876Y0116600D01*
X0249575Y0116900D01*
X0249575Y0118101D02*
X0249876Y0118402D01*
X0250476Y0118402D01*
X0250776Y0118101D01*
X0251417Y0117801D02*
X0251417Y0116900D01*
X0251717Y0116600D01*
X0252618Y0116600D01*
X0252618Y0117801D01*
X0253258Y0117501D02*
X0253859Y0117501D01*
X0254459Y0118402D02*
X0253258Y0118402D01*
X0253258Y0116600D01*
X0253159Y0109652D02*
X0253459Y0109351D01*
X0253459Y0109051D01*
X0253159Y0108751D01*
X0252559Y0108751D01*
X0252258Y0109051D01*
X0252258Y0109351D01*
X0252559Y0109652D01*
X0253159Y0109652D01*
X0253159Y0108751D02*
X0253459Y0108451D01*
X0253459Y0108150D01*
X0253159Y0107850D01*
X0252559Y0107850D01*
X0252258Y0108150D01*
X0252258Y0108451D01*
X0252559Y0108751D01*
X0251618Y0109351D02*
X0251318Y0109652D01*
X0250717Y0109652D01*
X0250417Y0109351D01*
X0250417Y0108150D01*
X0250717Y0107850D01*
X0251318Y0107850D01*
X0251618Y0108150D01*
X0265100Y0107600D02*
X0266301Y0107600D01*
X0265701Y0107600D02*
X0265701Y0109402D01*
X0265100Y0108801D01*
X0266942Y0109101D02*
X0267242Y0109402D01*
X0267842Y0109402D01*
X0268143Y0109101D01*
X0266942Y0107900D01*
X0267242Y0107600D01*
X0267842Y0107600D01*
X0268143Y0107900D01*
X0268143Y0109101D01*
X0268783Y0108801D02*
X0268783Y0107900D01*
X0269083Y0107600D01*
X0269984Y0107600D01*
X0269984Y0108801D01*
X0270625Y0108501D02*
X0271225Y0108501D01*
X0270625Y0109402D02*
X0271826Y0109402D01*
X0270625Y0109402D02*
X0270625Y0107600D01*
X0266942Y0107900D02*
X0266942Y0109101D01*
X0267001Y0116350D02*
X0267301Y0116650D01*
X0267001Y0116350D02*
X0266400Y0116350D01*
X0266100Y0116650D01*
X0266100Y0117851D01*
X0266400Y0118152D01*
X0267001Y0118152D01*
X0267301Y0117851D01*
X0267942Y0117851D02*
X0267942Y0117551D01*
X0268242Y0117251D01*
X0269143Y0117251D01*
X0269143Y0117851D02*
X0269143Y0116650D01*
X0268842Y0116350D01*
X0268242Y0116350D01*
X0267942Y0116650D01*
X0267942Y0117851D02*
X0268242Y0118152D01*
X0268842Y0118152D01*
X0269143Y0117851D01*
X0213400Y0161400D02*
X0213100Y0161100D01*
X0211899Y0162301D01*
X0213100Y0162301D01*
X0213400Y0162001D01*
X0213400Y0161400D01*
X0213100Y0161100D02*
X0211899Y0161100D01*
X0211598Y0161400D01*
X0211598Y0162001D01*
X0211899Y0162301D01*
X0213100Y0162942D02*
X0213100Y0163242D01*
X0213400Y0163242D01*
X0213400Y0162942D01*
X0213100Y0162942D01*
X0213400Y0163862D02*
X0213400Y0165063D01*
X0213400Y0164463D02*
X0211598Y0164463D01*
X0212199Y0163862D01*
X0212199Y0165704D02*
X0213100Y0165704D01*
X0213400Y0166004D01*
X0213400Y0166905D01*
X0212199Y0166905D01*
X0212499Y0167545D02*
X0212499Y0168146D01*
X0213400Y0167545D02*
X0211598Y0167545D01*
X0211598Y0168747D01*
X0204650Y0164842D02*
X0202848Y0164842D01*
X0203749Y0163942D01*
X0203749Y0165143D01*
X0203149Y0163301D02*
X0202848Y0163001D01*
X0202848Y0162400D01*
X0203149Y0162100D01*
X0204350Y0162100D01*
X0204650Y0162400D01*
X0204650Y0163001D01*
X0204350Y0163301D01*
X0204176Y0157402D02*
X0204176Y0155600D01*
X0204776Y0155600D02*
X0203575Y0155600D01*
X0202955Y0155600D02*
X0202955Y0155900D01*
X0202654Y0155900D01*
X0202654Y0155600D01*
X0202955Y0155600D01*
X0202014Y0155900D02*
X0201714Y0155600D01*
X0201113Y0155600D01*
X0200813Y0155900D01*
X0202014Y0157101D01*
X0202014Y0155900D01*
X0200813Y0155900D02*
X0200813Y0157101D01*
X0201113Y0157402D01*
X0201714Y0157402D01*
X0202014Y0157101D01*
X0203575Y0156801D02*
X0204176Y0157402D01*
X0205417Y0156801D02*
X0205417Y0155900D01*
X0205717Y0155600D01*
X0206618Y0155600D01*
X0206618Y0156801D01*
X0207258Y0156501D02*
X0207859Y0156501D01*
X0208459Y0157402D02*
X0207258Y0157402D01*
X0207258Y0155600D01*
X0165459Y0200850D02*
X0164258Y0200850D01*
X0165459Y0202051D01*
X0165459Y0202351D01*
X0165159Y0202652D01*
X0164559Y0202652D01*
X0164258Y0202351D01*
X0163618Y0202351D02*
X0163318Y0202652D01*
X0162717Y0202652D01*
X0162417Y0202351D01*
X0162417Y0201150D01*
X0162717Y0200850D01*
X0163318Y0200850D01*
X0163618Y0201150D01*
X0163717Y0209600D02*
X0164618Y0209600D01*
X0164618Y0210801D01*
X0165258Y0210501D02*
X0165859Y0210501D01*
X0166459Y0211402D02*
X0165258Y0211402D01*
X0165258Y0209600D01*
X0163717Y0209600D02*
X0163417Y0209900D01*
X0163417Y0210801D01*
X0162776Y0209600D02*
X0161575Y0209600D01*
X0162176Y0209600D02*
X0162176Y0211402D01*
X0161575Y0210801D01*
X0160955Y0209900D02*
X0160955Y0209600D01*
X0160654Y0209600D01*
X0160654Y0209900D01*
X0160955Y0209900D01*
X0160014Y0209900D02*
X0159714Y0209600D01*
X0159113Y0209600D01*
X0158813Y0209900D01*
X0160014Y0211101D01*
X0160014Y0209900D01*
X0158813Y0209900D02*
X0158813Y0211101D01*
X0159113Y0211402D01*
X0159714Y0211402D01*
X0160014Y0211101D01*
X0160059Y0228600D02*
X0159758Y0228900D01*
X0160059Y0228600D02*
X0160659Y0228600D01*
X0160959Y0228900D01*
X0160959Y0229201D01*
X0160659Y0229501D01*
X0160359Y0229501D01*
X0160659Y0229501D02*
X0160959Y0229801D01*
X0160959Y0230101D01*
X0160659Y0230402D01*
X0160059Y0230402D01*
X0159758Y0230101D01*
X0159118Y0228600D02*
X0157917Y0228600D01*
X0157917Y0230402D01*
X0178497Y0244629D02*
X0178797Y0244328D01*
X0179397Y0244328D01*
X0179698Y0244629D01*
X0179698Y0246130D01*
X0180338Y0245830D02*
X0180638Y0246130D01*
X0181239Y0246130D01*
X0181539Y0245830D01*
X0182180Y0245830D02*
X0182480Y0246130D01*
X0183080Y0246130D01*
X0183381Y0245830D01*
X0183381Y0245529D01*
X0182180Y0244328D01*
X0183381Y0244328D01*
X0181539Y0244629D02*
X0181539Y0244929D01*
X0181239Y0245229D01*
X0180638Y0245229D01*
X0180338Y0245529D01*
X0180338Y0245830D01*
X0180939Y0246430D02*
X0180939Y0244028D01*
X0181239Y0244328D02*
X0181539Y0244629D01*
X0181239Y0244328D02*
X0180638Y0244328D01*
X0180338Y0244629D01*
X0178497Y0244629D02*
X0178497Y0246130D01*
X0194848Y0251400D02*
X0195149Y0251100D01*
X0196350Y0251100D01*
X0196650Y0251400D01*
X0196650Y0252001D01*
X0196350Y0252301D01*
X0196650Y0252942D02*
X0196650Y0254143D01*
X0196650Y0253542D02*
X0194848Y0253542D01*
X0195449Y0252942D01*
X0195149Y0252301D02*
X0194848Y0252001D01*
X0194848Y0251400D01*
X0195149Y0254783D02*
X0194848Y0255083D01*
X0194848Y0255684D01*
X0195149Y0255984D01*
X0195449Y0255984D01*
X0195749Y0255684D01*
X0196049Y0255984D01*
X0196350Y0255984D01*
X0196650Y0255684D01*
X0196650Y0255083D01*
X0196350Y0254783D01*
X0195749Y0255384D02*
X0195749Y0255684D01*
X0203598Y0256545D02*
X0203598Y0257747D01*
X0204499Y0257146D02*
X0204499Y0256545D01*
X0204199Y0255905D02*
X0205400Y0255905D01*
X0205400Y0255004D01*
X0205100Y0254704D01*
X0204199Y0254704D01*
X0203899Y0254063D02*
X0205100Y0252862D01*
X0205400Y0252862D01*
X0205400Y0252242D02*
X0205400Y0251942D01*
X0205100Y0251942D01*
X0205100Y0252242D01*
X0205400Y0252242D01*
X0205400Y0251001D02*
X0203598Y0251001D01*
X0204499Y0250100D01*
X0204499Y0251301D01*
X0203598Y0252862D02*
X0203598Y0254063D01*
X0203899Y0254063D01*
X0203598Y0256545D02*
X0205400Y0256545D01*
X0182806Y0261487D02*
X0182506Y0261187D01*
X0181905Y0261187D01*
X0181605Y0261487D01*
X0182806Y0262688D01*
X0182806Y0261487D01*
X0182806Y0262688D02*
X0182506Y0262988D01*
X0181905Y0262988D01*
X0181605Y0262688D01*
X0181605Y0261487D01*
X0180964Y0261487D02*
X0180664Y0261187D01*
X0180064Y0261187D01*
X0179763Y0261487D01*
X0179763Y0262087D02*
X0180364Y0262388D01*
X0180664Y0262388D01*
X0180964Y0262087D01*
X0180964Y0261487D01*
X0179763Y0262087D02*
X0179763Y0262988D01*
X0180964Y0262988D01*
X0178522Y0262988D02*
X0178522Y0261187D01*
X0177922Y0261187D02*
X0179123Y0261187D01*
X0177922Y0262388D02*
X0178522Y0262988D01*
X0177281Y0262087D02*
X0176080Y0262087D01*
X0176981Y0262988D01*
X0176981Y0261187D01*
X0175440Y0261487D02*
X0175139Y0261187D01*
X0174539Y0261187D01*
X0174239Y0261487D01*
X0174239Y0262688D01*
X0174539Y0262988D01*
X0175139Y0262988D01*
X0175440Y0262688D01*
X0173598Y0262988D02*
X0172397Y0262988D01*
X0172998Y0262988D02*
X0172998Y0261187D01*
X0171756Y0261187D02*
X0170555Y0261187D01*
X0170555Y0262988D01*
X0186100Y0275600D02*
X0187301Y0276801D01*
X0187301Y0277101D01*
X0187001Y0277402D01*
X0186400Y0277402D01*
X0186100Y0277101D01*
X0186100Y0275600D02*
X0187301Y0275600D01*
X0187942Y0275600D02*
X0188242Y0275600D01*
X0188242Y0275900D01*
X0187942Y0275900D01*
X0187942Y0275600D01*
X0188862Y0275600D02*
X0190063Y0276801D01*
X0190063Y0277101D01*
X0189763Y0277402D01*
X0189163Y0277402D01*
X0188862Y0277101D01*
X0188862Y0275600D02*
X0190063Y0275600D01*
X0190704Y0275600D02*
X0190704Y0277402D01*
X0191004Y0276501D02*
X0191905Y0275600D01*
X0190704Y0276201D02*
X0191905Y0277402D01*
X0190143Y0284350D02*
X0188942Y0284350D01*
X0189542Y0284350D02*
X0189542Y0286152D01*
X0188942Y0285551D01*
X0188301Y0285251D02*
X0188001Y0284951D01*
X0187100Y0284951D01*
X0187701Y0284951D02*
X0188301Y0284350D01*
X0188301Y0285251D02*
X0188301Y0285851D01*
X0188001Y0286152D01*
X0187100Y0286152D01*
X0187100Y0284350D01*
X0187301Y0290600D02*
X0186100Y0290600D01*
X0187301Y0291801D01*
X0187301Y0292101D01*
X0187001Y0292402D01*
X0186400Y0292402D01*
X0186100Y0292101D01*
X0187942Y0290900D02*
X0188242Y0290900D01*
X0188242Y0290600D01*
X0187942Y0290600D01*
X0187942Y0290900D01*
X0188862Y0290600D02*
X0190063Y0291801D01*
X0190063Y0292101D01*
X0189763Y0292402D01*
X0189163Y0292402D01*
X0188862Y0292101D01*
X0188862Y0290600D02*
X0190063Y0290600D01*
X0190704Y0290600D02*
X0190704Y0292402D01*
X0191004Y0291501D02*
X0191905Y0290600D01*
X0190704Y0291201D02*
X0191905Y0292402D01*
X0190143Y0299350D02*
X0188942Y0299350D01*
X0190143Y0300551D01*
X0190143Y0300851D01*
X0189842Y0301152D01*
X0189242Y0301152D01*
X0188942Y0300851D01*
X0188301Y0300851D02*
X0188301Y0300251D01*
X0188001Y0299951D01*
X0187100Y0299951D01*
X0187701Y0299951D02*
X0188301Y0299350D01*
X0187100Y0299350D02*
X0187100Y0301152D01*
X0188001Y0301152D01*
X0188301Y0300851D01*
X0207100Y0300902D02*
X0207701Y0300301D01*
X0208301Y0300902D01*
X0208301Y0299100D01*
X0208942Y0299100D02*
X0208942Y0300301D01*
X0209542Y0300902D01*
X0210143Y0300301D01*
X0210143Y0299100D01*
X0210783Y0299400D02*
X0211083Y0299100D01*
X0211684Y0299100D01*
X0211984Y0299400D01*
X0211984Y0300001D01*
X0211384Y0300001D01*
X0211984Y0300601D02*
X0211684Y0300902D01*
X0211083Y0300902D01*
X0210783Y0300601D01*
X0210783Y0299400D01*
X0210143Y0300001D02*
X0208942Y0300001D01*
X0207100Y0299100D02*
X0207100Y0300902D01*
X0222100Y0300101D02*
X0222400Y0300402D01*
X0223001Y0300402D01*
X0223301Y0300101D01*
X0222100Y0298900D01*
X0222400Y0298600D01*
X0223001Y0298600D01*
X0223301Y0298900D01*
X0223301Y0300101D01*
X0222100Y0300101D02*
X0222100Y0298900D01*
X0223942Y0298900D02*
X0224242Y0298900D01*
X0224242Y0298600D01*
X0223942Y0298600D01*
X0223942Y0298900D01*
X0224862Y0298600D02*
X0226063Y0298600D01*
X0225463Y0298600D02*
X0225463Y0300402D01*
X0224862Y0299801D01*
X0226704Y0299801D02*
X0226704Y0298900D01*
X0227004Y0298600D01*
X0227905Y0298600D01*
X0227905Y0299801D01*
X0228545Y0299501D02*
X0229146Y0299501D01*
X0228545Y0300402D02*
X0229747Y0300402D01*
X0228545Y0300402D02*
X0228545Y0298600D01*
X0230650Y0292143D02*
X0230650Y0290942D01*
X0230650Y0291542D02*
X0228848Y0291542D01*
X0229449Y0290942D01*
X0229149Y0290301D02*
X0228848Y0290001D01*
X0228848Y0289400D01*
X0229149Y0289100D01*
X0230350Y0289100D01*
X0230650Y0289400D01*
X0230650Y0290001D01*
X0230350Y0290301D01*
X0237598Y0290862D02*
X0237598Y0292063D01*
X0237899Y0292063D01*
X0239100Y0290862D01*
X0239400Y0290862D01*
X0239400Y0290242D02*
X0239400Y0289942D01*
X0239100Y0289942D01*
X0239100Y0290242D01*
X0239400Y0290242D01*
X0239400Y0289001D02*
X0237598Y0289001D01*
X0238499Y0288100D01*
X0238499Y0289301D01*
X0240848Y0289400D02*
X0241149Y0289100D01*
X0242350Y0289100D01*
X0242650Y0289400D01*
X0242650Y0290001D01*
X0242350Y0290301D01*
X0242650Y0290942D02*
X0242650Y0292143D01*
X0242650Y0291542D02*
X0240848Y0291542D01*
X0241449Y0290942D01*
X0241149Y0290301D02*
X0240848Y0290001D01*
X0240848Y0289400D01*
X0241749Y0292783D02*
X0241749Y0293684D01*
X0242049Y0293984D01*
X0242350Y0293984D01*
X0242650Y0293684D01*
X0242650Y0293083D01*
X0242350Y0292783D01*
X0241749Y0292783D01*
X0241149Y0293384D01*
X0240848Y0293984D01*
X0239400Y0293905D02*
X0238199Y0293905D01*
X0238499Y0294545D02*
X0238499Y0295146D01*
X0237598Y0294545D02*
X0237598Y0295747D01*
X0237598Y0294545D02*
X0239400Y0294545D01*
X0239400Y0293905D02*
X0239400Y0293004D01*
X0239100Y0292704D01*
X0238199Y0292704D01*
X0249598Y0292063D02*
X0249899Y0292063D01*
X0251100Y0290862D01*
X0251400Y0290862D01*
X0251400Y0290242D02*
X0251400Y0289942D01*
X0251100Y0289942D01*
X0251100Y0290242D01*
X0251400Y0290242D01*
X0251400Y0289001D02*
X0249598Y0289001D01*
X0250499Y0288100D01*
X0250499Y0289301D01*
X0249598Y0290862D02*
X0249598Y0292063D01*
X0250199Y0292704D02*
X0251100Y0292704D01*
X0251400Y0293004D01*
X0251400Y0293905D01*
X0250199Y0293905D01*
X0250499Y0294545D02*
X0250499Y0295146D01*
X0249598Y0294545D02*
X0249598Y0295747D01*
X0249598Y0294545D02*
X0251400Y0294545D01*
X0229984Y0280851D02*
X0228783Y0279650D01*
X0229083Y0279350D01*
X0229684Y0279350D01*
X0229984Y0279650D01*
X0229984Y0280851D01*
X0229684Y0281152D01*
X0229083Y0281152D01*
X0228783Y0280851D01*
X0228783Y0279650D01*
X0228143Y0279350D02*
X0226942Y0279350D01*
X0227542Y0279350D02*
X0227542Y0281152D01*
X0226942Y0280551D01*
X0226301Y0280851D02*
X0226001Y0281152D01*
X0225400Y0281152D01*
X0225100Y0280851D01*
X0225100Y0279650D01*
X0225400Y0279350D01*
X0226001Y0279350D01*
X0226301Y0279650D01*
X0225922Y0272402D02*
X0225321Y0272402D01*
X0225021Y0272101D01*
X0225922Y0272402D02*
X0226222Y0272101D01*
X0226222Y0271801D01*
X0225021Y0270600D01*
X0226222Y0270600D01*
X0226862Y0270600D02*
X0228063Y0271801D01*
X0228063Y0272101D01*
X0227763Y0272402D01*
X0227163Y0272402D01*
X0226862Y0272101D01*
X0226862Y0270600D02*
X0228063Y0270600D01*
X0228704Y0270900D02*
X0229004Y0270600D01*
X0229905Y0270600D01*
X0229905Y0271801D01*
X0230545Y0271501D02*
X0231146Y0271501D01*
X0230545Y0272402D02*
X0231747Y0272402D01*
X0230545Y0272402D02*
X0230545Y0270600D01*
X0228704Y0270900D02*
X0228704Y0271801D01*
X0224400Y0270900D02*
X0224400Y0270600D01*
X0224100Y0270600D01*
X0224100Y0270900D01*
X0224400Y0270900D01*
X0224001Y0307350D02*
X0224301Y0307650D01*
X0224001Y0307350D02*
X0223400Y0307350D01*
X0223100Y0307650D01*
X0223100Y0308851D01*
X0223400Y0309152D01*
X0224001Y0309152D01*
X0224301Y0308851D01*
X0224942Y0308551D02*
X0225542Y0309152D01*
X0225542Y0307350D01*
X0224942Y0307350D02*
X0226143Y0307350D01*
X0226783Y0307350D02*
X0226783Y0307650D01*
X0227984Y0308851D01*
X0227984Y0309152D01*
X0226783Y0309152D01*
X0161780Y0305902D02*
X0159912Y0305902D01*
X0159912Y0303100D01*
X0161780Y0303100D01*
X0160846Y0304501D02*
X0159912Y0304501D01*
X0159018Y0304501D02*
X0158084Y0304501D01*
X0159018Y0304501D02*
X0159018Y0303567D01*
X0158551Y0303100D01*
X0157616Y0303100D01*
X0157149Y0303567D01*
X0157149Y0305435D01*
X0157616Y0305902D01*
X0158551Y0305902D01*
X0159018Y0305435D01*
X0156255Y0305435D02*
X0156255Y0304501D01*
X0155788Y0304034D01*
X0154387Y0304034D01*
X0154387Y0303100D02*
X0154387Y0305902D01*
X0155788Y0305902D01*
X0156255Y0305435D01*
X0155321Y0304034D02*
X0156255Y0303100D01*
X0153493Y0303100D02*
X0153493Y0304968D01*
X0152559Y0305902D01*
X0151625Y0304968D01*
X0151625Y0303100D01*
X0150731Y0303100D02*
X0150731Y0305902D01*
X0150731Y0304501D02*
X0148862Y0304501D01*
X0147968Y0303567D02*
X0147501Y0303100D01*
X0146567Y0303100D01*
X0146100Y0303567D01*
X0146100Y0305435D01*
X0146567Y0305902D01*
X0147501Y0305902D01*
X0147968Y0305435D01*
X0148862Y0305902D02*
X0148862Y0303100D01*
X0151625Y0304501D02*
X0153493Y0304501D01*
X0142493Y0304034D02*
X0142026Y0304501D01*
X0140625Y0304501D01*
X0140625Y0303567D01*
X0141092Y0303100D01*
X0142026Y0303100D01*
X0142493Y0303567D01*
X0142493Y0304034D01*
X0141559Y0305435D02*
X0140625Y0304501D01*
X0139731Y0304034D02*
X0139731Y0305902D01*
X0139731Y0304034D02*
X0138796Y0303100D01*
X0137862Y0304034D01*
X0137862Y0305902D01*
X0136968Y0305435D02*
X0136968Y0304968D01*
X0136501Y0304501D01*
X0136968Y0304034D01*
X0136968Y0303567D01*
X0136501Y0303100D01*
X0135567Y0303100D01*
X0135100Y0303567D01*
X0136034Y0304501D02*
X0136501Y0304501D01*
X0136968Y0305435D02*
X0136501Y0305902D01*
X0135567Y0305902D01*
X0135100Y0305435D01*
X0130731Y0305902D02*
X0130731Y0304034D01*
X0129796Y0303100D01*
X0128862Y0304034D01*
X0128862Y0305902D01*
X0127968Y0305902D02*
X0126100Y0305902D01*
X0126100Y0304501D01*
X0127034Y0304968D01*
X0127501Y0304968D01*
X0127968Y0304501D01*
X0127968Y0303567D01*
X0127501Y0303100D01*
X0126567Y0303100D01*
X0126100Y0303567D01*
X0122493Y0303567D02*
X0122026Y0303100D01*
X0121092Y0303100D01*
X0120625Y0303567D01*
X0119731Y0304034D02*
X0119731Y0305902D01*
X0120625Y0305435D02*
X0121092Y0305902D01*
X0122026Y0305902D01*
X0122493Y0305435D01*
X0122493Y0304968D01*
X0122026Y0304501D01*
X0122493Y0304034D01*
X0122493Y0303567D01*
X0122026Y0304501D02*
X0121559Y0304501D01*
X0119731Y0304034D02*
X0118796Y0303100D01*
X0117862Y0304034D01*
X0117862Y0305902D01*
X0116968Y0305435D02*
X0116968Y0304968D01*
X0116501Y0304501D01*
X0116968Y0304034D01*
X0116968Y0303567D01*
X0116501Y0303100D01*
X0115567Y0303100D01*
X0115100Y0303567D01*
X0116034Y0304501D02*
X0116501Y0304501D01*
X0116968Y0305435D02*
X0116501Y0305902D01*
X0115567Y0305902D01*
X0115100Y0305435D01*
X0111572Y0305902D02*
X0111572Y0303100D01*
X0109704Y0305902D01*
X0109704Y0303100D01*
X0108796Y0303100D02*
X0107862Y0303100D01*
X0108329Y0303100D02*
X0108329Y0305902D01*
X0107862Y0305902D02*
X0108796Y0305902D01*
X0106968Y0305902D02*
X0106968Y0304034D01*
X0106034Y0303100D01*
X0105100Y0304034D01*
X0105100Y0305902D01*
X0101493Y0305435D02*
X0101493Y0303567D01*
X0101026Y0303100D01*
X0099625Y0303100D01*
X0099625Y0305902D01*
X0101026Y0305902D01*
X0101493Y0305435D01*
X0098731Y0305902D02*
X0098731Y0303100D01*
X0096862Y0305902D01*
X0096862Y0303100D01*
X0095968Y0303567D02*
X0095968Y0304501D01*
X0095034Y0304501D01*
X0094100Y0303567D02*
X0094567Y0303100D01*
X0095501Y0303100D01*
X0095968Y0303567D01*
X0094100Y0303567D02*
X0094100Y0305435D01*
X0094567Y0305902D01*
X0095501Y0305902D01*
X0095968Y0305435D01*
X0087984Y0294152D02*
X0087384Y0293851D01*
X0086783Y0293251D01*
X0087684Y0293251D01*
X0087984Y0292951D01*
X0087984Y0292650D01*
X0087684Y0292350D01*
X0087083Y0292350D01*
X0086783Y0292650D01*
X0086783Y0293251D01*
X0086143Y0293551D02*
X0086143Y0293851D01*
X0085842Y0294152D01*
X0085242Y0294152D01*
X0084942Y0293851D01*
X0084301Y0293851D02*
X0084001Y0294152D01*
X0083400Y0294152D01*
X0083100Y0293851D01*
X0083100Y0292650D01*
X0083400Y0292350D01*
X0084001Y0292350D01*
X0084301Y0292650D01*
X0084942Y0292350D02*
X0086143Y0293551D01*
X0086143Y0292350D02*
X0084942Y0292350D01*
X0092100Y0289801D02*
X0092701Y0290402D01*
X0092701Y0288600D01*
X0093301Y0288600D02*
X0092100Y0288600D01*
X0093942Y0288900D02*
X0095143Y0290101D01*
X0095143Y0288900D01*
X0094842Y0288600D01*
X0094242Y0288600D01*
X0093942Y0288900D01*
X0093942Y0290101D01*
X0094242Y0290402D01*
X0094842Y0290402D01*
X0095143Y0290101D01*
X0095783Y0290101D02*
X0096083Y0290402D01*
X0096684Y0290402D01*
X0096984Y0290101D01*
X0095783Y0288900D01*
X0096083Y0288600D01*
X0096684Y0288600D01*
X0096984Y0288900D01*
X0096984Y0290101D01*
X0097625Y0289801D02*
X0097625Y0287999D01*
X0097625Y0288600D02*
X0098525Y0288600D01*
X0098826Y0288900D01*
X0098826Y0289501D01*
X0098525Y0289801D01*
X0097625Y0289801D01*
X0099466Y0289501D02*
X0100067Y0289501D01*
X0100667Y0290402D02*
X0099466Y0290402D01*
X0099466Y0288600D01*
X0095783Y0288900D02*
X0095783Y0290101D01*
X0080459Y0283652D02*
X0079859Y0283351D01*
X0079258Y0282751D01*
X0080159Y0282751D01*
X0080459Y0282451D01*
X0080459Y0282150D01*
X0080159Y0281850D01*
X0079559Y0281850D01*
X0079258Y0282150D01*
X0079258Y0282751D01*
X0078618Y0282751D02*
X0078318Y0282451D01*
X0077417Y0282451D01*
X0078017Y0282451D02*
X0078618Y0281850D01*
X0078618Y0282751D02*
X0078618Y0283351D01*
X0078318Y0283652D01*
X0077417Y0283652D01*
X0077417Y0281850D01*
X0076842Y0275152D02*
X0076242Y0275152D01*
X0075942Y0274851D01*
X0075301Y0274851D02*
X0075001Y0275152D01*
X0074400Y0275152D01*
X0074100Y0274851D01*
X0074100Y0273650D01*
X0074400Y0273350D01*
X0075001Y0273350D01*
X0075301Y0273650D01*
X0075942Y0273350D02*
X0077143Y0274551D01*
X0077143Y0274851D01*
X0076842Y0275152D01*
X0077783Y0274851D02*
X0077783Y0274551D01*
X0078083Y0274251D01*
X0078684Y0274251D01*
X0078984Y0273951D01*
X0078984Y0273650D01*
X0078684Y0273350D01*
X0078083Y0273350D01*
X0077783Y0273650D01*
X0077783Y0273951D01*
X0078083Y0274251D01*
X0078684Y0274251D02*
X0078984Y0274551D01*
X0078984Y0274851D01*
X0078684Y0275152D01*
X0078083Y0275152D01*
X0077783Y0274851D01*
X0077143Y0273350D02*
X0075942Y0273350D01*
X0076242Y0267402D02*
X0075942Y0267101D01*
X0076242Y0267402D02*
X0076842Y0267402D01*
X0077143Y0267101D01*
X0077143Y0266801D01*
X0075942Y0265600D01*
X0077143Y0265600D01*
X0077783Y0265600D02*
X0078684Y0265600D01*
X0078984Y0265900D01*
X0078984Y0266501D01*
X0078684Y0266801D01*
X0077783Y0266801D01*
X0077783Y0264999D01*
X0079625Y0265600D02*
X0079625Y0267402D01*
X0080826Y0267402D01*
X0080225Y0266501D02*
X0079625Y0266501D01*
X0083100Y0266801D02*
X0083701Y0267402D01*
X0083701Y0265600D01*
X0084301Y0265600D02*
X0083100Y0265600D01*
X0082714Y0264402D02*
X0081813Y0263501D01*
X0083014Y0263501D01*
X0083654Y0264101D02*
X0083955Y0264402D01*
X0084555Y0264402D01*
X0084856Y0264101D01*
X0084856Y0263801D01*
X0083654Y0262600D01*
X0084856Y0262600D01*
X0085496Y0262600D02*
X0085796Y0262600D01*
X0085796Y0262900D01*
X0085496Y0262900D01*
X0085496Y0262600D01*
X0086417Y0262600D02*
X0087618Y0263801D01*
X0087618Y0264101D01*
X0087318Y0264402D01*
X0086717Y0264402D01*
X0086417Y0264101D01*
X0086417Y0262600D02*
X0087618Y0262600D01*
X0088258Y0262600D02*
X0088258Y0264402D01*
X0088625Y0264999D02*
X0088625Y0266801D01*
X0089525Y0266801D01*
X0089826Y0266501D01*
X0089826Y0265900D01*
X0089525Y0265600D01*
X0088625Y0265600D01*
X0087984Y0265900D02*
X0087684Y0265600D01*
X0087083Y0265600D01*
X0086783Y0265900D01*
X0087984Y0267101D01*
X0087984Y0265900D01*
X0086783Y0265900D02*
X0086783Y0267101D01*
X0087083Y0267402D01*
X0087684Y0267402D01*
X0087984Y0267101D01*
X0086143Y0267101D02*
X0084942Y0265900D01*
X0085242Y0265600D01*
X0085842Y0265600D01*
X0086143Y0265900D01*
X0086143Y0267101D01*
X0085842Y0267402D01*
X0085242Y0267402D01*
X0084942Y0267101D01*
X0084942Y0265900D01*
X0082714Y0264402D02*
X0082714Y0262600D01*
X0075301Y0265600D02*
X0074100Y0265600D01*
X0075301Y0266801D01*
X0075301Y0267101D01*
X0075001Y0267402D01*
X0074400Y0267402D01*
X0074100Y0267101D01*
X0084100Y0274650D02*
X0084400Y0274350D01*
X0085001Y0274350D01*
X0085301Y0274650D01*
X0085942Y0274350D02*
X0087143Y0275551D01*
X0087143Y0275851D01*
X0086842Y0276152D01*
X0086242Y0276152D01*
X0085942Y0275851D01*
X0085301Y0275851D02*
X0085001Y0276152D01*
X0084400Y0276152D01*
X0084100Y0275851D01*
X0084100Y0274650D01*
X0085942Y0274350D02*
X0087143Y0274350D01*
X0087783Y0274350D02*
X0087783Y0274650D01*
X0088984Y0275851D01*
X0088984Y0276152D01*
X0087783Y0276152D01*
X0088258Y0277600D02*
X0088258Y0279402D01*
X0087618Y0279402D02*
X0087618Y0279101D01*
X0086417Y0277900D01*
X0086417Y0277600D01*
X0085476Y0277600D02*
X0085476Y0279402D01*
X0084575Y0278501D01*
X0085776Y0278501D01*
X0086417Y0279402D02*
X0087618Y0279402D01*
X0088559Y0278501D02*
X0089459Y0277600D01*
X0088258Y0278201D02*
X0089459Y0279402D01*
X0090466Y0267402D02*
X0091667Y0267402D01*
X0091067Y0266501D02*
X0090466Y0266501D01*
X0090466Y0265600D02*
X0090466Y0267402D01*
X0089459Y0264402D02*
X0088258Y0263201D01*
X0088559Y0263501D02*
X0089459Y0262600D01*
X0093749Y0257543D02*
X0093448Y0257242D01*
X0093448Y0256642D01*
X0093749Y0256342D01*
X0094049Y0256342D01*
X0094349Y0256642D01*
X0094349Y0257543D01*
X0093749Y0257543D02*
X0094950Y0257543D01*
X0095250Y0257242D01*
X0095250Y0256642D01*
X0094950Y0256342D01*
X0095250Y0255701D02*
X0094649Y0255101D01*
X0094649Y0255401D02*
X0094649Y0254500D01*
X0095250Y0254500D02*
X0093448Y0254500D01*
X0093448Y0255401D01*
X0093749Y0255701D01*
X0094349Y0255701D01*
X0094649Y0255401D01*
X0089459Y0255451D02*
X0089459Y0255150D01*
X0089159Y0254850D01*
X0088559Y0254850D01*
X0088258Y0255150D01*
X0088258Y0255451D01*
X0088559Y0255751D01*
X0089159Y0255751D01*
X0089459Y0255451D01*
X0089159Y0255751D02*
X0089459Y0256051D01*
X0089459Y0256351D01*
X0089159Y0256652D01*
X0088559Y0256652D01*
X0088258Y0256351D01*
X0088258Y0256051D01*
X0088559Y0255751D01*
X0087618Y0255751D02*
X0087318Y0255451D01*
X0086417Y0255451D01*
X0087017Y0255451D02*
X0087618Y0254850D01*
X0087618Y0255751D02*
X0087618Y0256351D01*
X0087318Y0256652D01*
X0086417Y0256652D01*
X0086417Y0254850D01*
X0085842Y0253152D02*
X0084942Y0252251D01*
X0086143Y0252251D01*
X0085842Y0251350D02*
X0085842Y0253152D01*
X0084301Y0252851D02*
X0084301Y0252251D01*
X0084001Y0251951D01*
X0083100Y0251951D01*
X0083701Y0251951D02*
X0084301Y0251350D01*
X0083100Y0251350D02*
X0083100Y0253152D01*
X0084001Y0253152D01*
X0084301Y0252851D01*
X0079400Y0249466D02*
X0077598Y0249466D01*
X0077598Y0250667D01*
X0078499Y0250067D02*
X0078499Y0249466D01*
X0078499Y0248826D02*
X0079100Y0248826D01*
X0079400Y0248525D01*
X0079400Y0247625D01*
X0080001Y0247625D02*
X0078199Y0247625D01*
X0078199Y0248525D01*
X0078499Y0248826D01*
X0077899Y0246984D02*
X0079100Y0245783D01*
X0079400Y0246083D01*
X0079400Y0246684D01*
X0079100Y0246984D01*
X0077899Y0246984D01*
X0077598Y0246684D01*
X0077598Y0246083D01*
X0077899Y0245783D01*
X0079100Y0245783D01*
X0079100Y0245143D02*
X0079400Y0244842D01*
X0079400Y0244242D01*
X0079100Y0243942D01*
X0078799Y0243942D01*
X0078499Y0244242D01*
X0078499Y0244842D01*
X0078799Y0245143D01*
X0079100Y0245143D01*
X0078499Y0244842D02*
X0078199Y0245143D01*
X0077899Y0245143D01*
X0077598Y0244842D01*
X0077598Y0244242D01*
X0077899Y0243942D01*
X0078199Y0243942D01*
X0078499Y0244242D01*
X0078799Y0243301D02*
X0078499Y0243001D01*
X0078499Y0242100D01*
X0079100Y0242100D01*
X0079400Y0242400D01*
X0079400Y0243001D01*
X0079100Y0243301D01*
X0078799Y0243301D01*
X0077899Y0242701D02*
X0078499Y0242100D01*
X0077899Y0242701D02*
X0077598Y0243301D01*
X0077459Y0239402D02*
X0076258Y0238201D01*
X0076559Y0238501D02*
X0077459Y0237600D01*
X0076258Y0237600D02*
X0076258Y0239402D01*
X0075618Y0239101D02*
X0075618Y0238801D01*
X0075318Y0238501D01*
X0075618Y0238201D01*
X0075618Y0237900D01*
X0075318Y0237600D01*
X0074717Y0237600D01*
X0074417Y0237900D01*
X0073776Y0237900D02*
X0073476Y0237600D01*
X0072876Y0237600D01*
X0072575Y0237900D01*
X0073176Y0238501D02*
X0073476Y0238501D01*
X0073776Y0238201D01*
X0073776Y0237900D01*
X0073476Y0238501D02*
X0073776Y0238801D01*
X0073776Y0239101D01*
X0073476Y0239402D01*
X0072876Y0239402D01*
X0072575Y0239101D01*
X0074417Y0239101D02*
X0074717Y0239402D01*
X0075318Y0239402D01*
X0075618Y0239101D01*
X0075318Y0238501D02*
X0075017Y0238501D01*
X0070350Y0243100D02*
X0070650Y0243400D01*
X0070650Y0244001D01*
X0070350Y0244301D01*
X0070650Y0244942D02*
X0069449Y0246143D01*
X0069149Y0246143D01*
X0068848Y0245842D01*
X0068848Y0245242D01*
X0069149Y0244942D01*
X0069149Y0244301D02*
X0068848Y0244001D01*
X0068848Y0243400D01*
X0069149Y0243100D01*
X0070350Y0243100D01*
X0070650Y0244942D02*
X0070650Y0246143D01*
X0070350Y0246783D02*
X0070650Y0247083D01*
X0070650Y0247684D01*
X0070350Y0247984D01*
X0069149Y0247984D01*
X0068848Y0247684D01*
X0068848Y0247083D01*
X0069149Y0246783D01*
X0069449Y0246783D01*
X0069749Y0247083D01*
X0069749Y0247984D01*
X0063826Y0245402D02*
X0062625Y0244201D01*
X0062925Y0244501D02*
X0063826Y0243600D01*
X0062625Y0243600D02*
X0062625Y0245402D01*
X0061984Y0245101D02*
X0060783Y0243900D01*
X0061083Y0243600D01*
X0061684Y0243600D01*
X0061984Y0243900D01*
X0061984Y0245101D01*
X0061684Y0245402D01*
X0061083Y0245402D01*
X0060783Y0245101D01*
X0060783Y0243900D01*
X0060143Y0243900D02*
X0059842Y0243600D01*
X0059242Y0243600D01*
X0058942Y0243900D01*
X0058942Y0244201D01*
X0059242Y0244501D01*
X0059842Y0244501D01*
X0060143Y0244201D01*
X0060143Y0243900D01*
X0059842Y0244501D02*
X0060143Y0244801D01*
X0060143Y0245101D01*
X0059842Y0245402D01*
X0059242Y0245402D01*
X0058942Y0245101D01*
X0058942Y0244801D01*
X0059242Y0244501D01*
X0058301Y0243600D02*
X0057100Y0243600D01*
X0057701Y0243600D02*
X0057701Y0245402D01*
X0057100Y0244801D01*
X0053342Y0239652D02*
X0053643Y0239351D01*
X0053643Y0239051D01*
X0053342Y0238751D01*
X0053643Y0238451D01*
X0053643Y0238150D01*
X0053342Y0237850D01*
X0052742Y0237850D01*
X0052442Y0238150D01*
X0051801Y0237850D02*
X0051201Y0238451D01*
X0051501Y0238451D02*
X0050600Y0238451D01*
X0050600Y0237850D02*
X0050600Y0239652D01*
X0051501Y0239652D01*
X0051801Y0239351D01*
X0051801Y0238751D01*
X0051501Y0238451D01*
X0052442Y0239351D02*
X0052742Y0239652D01*
X0053342Y0239652D01*
X0053342Y0238751D02*
X0053042Y0238751D01*
X0063100Y0238152D02*
X0064001Y0238152D01*
X0064301Y0237851D01*
X0064301Y0237251D01*
X0064001Y0236951D01*
X0063100Y0236951D01*
X0063701Y0236951D02*
X0064301Y0236350D01*
X0064942Y0236350D02*
X0064942Y0236650D01*
X0066143Y0237851D01*
X0066143Y0238152D01*
X0064942Y0238152D01*
X0063100Y0238152D02*
X0063100Y0236350D01*
X0060326Y0231902D02*
X0059125Y0230701D01*
X0059425Y0231001D02*
X0060326Y0230100D01*
X0059125Y0230100D02*
X0059125Y0231902D01*
X0058484Y0231601D02*
X0057283Y0230400D01*
X0057583Y0230100D01*
X0058184Y0230100D01*
X0058484Y0230400D01*
X0058484Y0231601D01*
X0058184Y0231902D01*
X0057583Y0231902D01*
X0057283Y0231601D01*
X0057283Y0230400D01*
X0056643Y0230400D02*
X0056643Y0230701D01*
X0056342Y0231001D01*
X0055442Y0231001D01*
X0055442Y0230400D01*
X0055742Y0230100D01*
X0056342Y0230100D01*
X0056643Y0230400D01*
X0056042Y0231601D02*
X0055442Y0231001D01*
X0054801Y0231001D02*
X0054801Y0230400D01*
X0054501Y0230100D01*
X0053900Y0230100D01*
X0053600Y0230400D01*
X0053600Y0231001D02*
X0054201Y0231301D01*
X0054501Y0231301D01*
X0054801Y0231001D01*
X0054801Y0231902D02*
X0053600Y0231902D01*
X0053600Y0231001D01*
X0056042Y0231601D02*
X0056643Y0231902D01*
X0078575Y0231652D02*
X0079476Y0231652D01*
X0079776Y0231351D01*
X0079776Y0230751D01*
X0079476Y0230451D01*
X0078575Y0230451D01*
X0079176Y0230451D02*
X0079776Y0229850D01*
X0080417Y0229850D02*
X0081618Y0229850D01*
X0081017Y0229850D02*
X0081017Y0231652D01*
X0080417Y0231051D01*
X0082258Y0231351D02*
X0082559Y0231652D01*
X0083159Y0231652D01*
X0083459Y0231351D01*
X0082258Y0230150D01*
X0082559Y0229850D01*
X0083159Y0229850D01*
X0083459Y0230150D01*
X0083459Y0231351D01*
X0082258Y0231351D02*
X0082258Y0230150D01*
X0078575Y0229850D02*
X0078575Y0231652D01*
X0087100Y0243600D02*
X0088301Y0243600D01*
X0087701Y0243600D02*
X0087701Y0245402D01*
X0087100Y0244801D01*
X0088942Y0244501D02*
X0089542Y0244801D01*
X0089842Y0244801D01*
X0090143Y0244501D01*
X0090143Y0243900D01*
X0089842Y0243600D01*
X0089242Y0243600D01*
X0088942Y0243900D01*
X0088942Y0244501D02*
X0088942Y0245402D01*
X0090143Y0245402D01*
X0090783Y0245101D02*
X0091083Y0245402D01*
X0091684Y0245402D01*
X0091984Y0245101D01*
X0090783Y0243900D01*
X0091083Y0243600D01*
X0091684Y0243600D01*
X0091984Y0243900D01*
X0091984Y0245101D01*
X0092625Y0245402D02*
X0092625Y0243600D01*
X0092625Y0244201D02*
X0093826Y0245402D01*
X0092925Y0244501D02*
X0093826Y0243600D01*
X0090783Y0243900D02*
X0090783Y0245101D01*
X0101799Y0256500D02*
X0101198Y0257101D01*
X0103000Y0257101D01*
X0103000Y0257701D02*
X0103000Y0256500D01*
X0102700Y0258342D02*
X0101499Y0259543D01*
X0102700Y0259543D01*
X0103000Y0259242D01*
X0103000Y0258642D01*
X0102700Y0258342D01*
X0101499Y0258342D01*
X0101198Y0258642D01*
X0101198Y0259242D01*
X0101499Y0259543D01*
X0101198Y0260183D02*
X0103000Y0260183D01*
X0102399Y0260183D02*
X0101198Y0261384D01*
X0102099Y0260483D02*
X0103000Y0261384D01*
X0123313Y0246101D02*
X0123613Y0246402D01*
X0124214Y0246402D01*
X0124514Y0246101D01*
X0124514Y0245801D01*
X0123313Y0244600D01*
X0124514Y0244600D01*
X0125154Y0244600D02*
X0125154Y0244900D01*
X0125455Y0244900D01*
X0125455Y0244600D01*
X0125154Y0244600D01*
X0126075Y0244600D02*
X0127276Y0245801D01*
X0127276Y0246101D01*
X0126976Y0246402D01*
X0126376Y0246402D01*
X0126075Y0246101D01*
X0126075Y0244600D02*
X0127276Y0244600D01*
X0127917Y0244900D02*
X0128217Y0244600D01*
X0129118Y0244600D01*
X0129118Y0245801D01*
X0129758Y0245501D02*
X0130959Y0245501D01*
X0130959Y0246402D02*
X0130959Y0244600D01*
X0129758Y0244600D02*
X0129758Y0246402D01*
X0127917Y0245801D02*
X0127917Y0244900D01*
X0152313Y0245900D02*
X0152613Y0245600D01*
X0153214Y0245600D01*
X0153514Y0245900D01*
X0153514Y0246201D01*
X0153214Y0246501D01*
X0152913Y0246501D01*
X0153214Y0246501D02*
X0153514Y0246801D01*
X0153514Y0247101D01*
X0153214Y0247402D01*
X0152613Y0247402D01*
X0152313Y0247101D01*
X0154154Y0245900D02*
X0154455Y0245900D01*
X0154455Y0245600D01*
X0154154Y0245600D01*
X0154154Y0245900D01*
X0155075Y0245900D02*
X0155376Y0245600D01*
X0155976Y0245600D01*
X0156276Y0245900D01*
X0156276Y0246201D01*
X0155976Y0246501D01*
X0155676Y0246501D01*
X0155976Y0246501D02*
X0156276Y0246801D01*
X0156276Y0247101D01*
X0155976Y0247402D01*
X0155376Y0247402D01*
X0155075Y0247101D01*
X0156917Y0246801D02*
X0156917Y0245900D01*
X0157217Y0245600D01*
X0158118Y0245600D01*
X0158118Y0246801D01*
X0158758Y0246501D02*
X0159959Y0246501D01*
X0159959Y0247402D02*
X0159959Y0245600D01*
X0158758Y0245600D02*
X0158758Y0247402D01*
X0130959Y0226101D02*
X0130659Y0226402D01*
X0130059Y0226402D01*
X0129758Y0226101D01*
X0130959Y0226101D02*
X0130959Y0225801D01*
X0129758Y0224600D01*
X0130959Y0224600D01*
X0129118Y0224600D02*
X0127917Y0224600D01*
X0127917Y0226402D01*
X0118598Y0182459D02*
X0118598Y0181258D01*
X0120400Y0181258D01*
X0120400Y0180618D02*
X0119199Y0180618D01*
X0119499Y0181258D02*
X0119499Y0181859D01*
X0120400Y0180618D02*
X0120400Y0179717D01*
X0120100Y0179417D01*
X0119199Y0179417D01*
X0120400Y0178776D02*
X0120400Y0177575D01*
X0120400Y0178176D02*
X0118598Y0178176D01*
X0119199Y0177575D01*
X0120100Y0176955D02*
X0120400Y0176955D01*
X0120400Y0176654D01*
X0120100Y0176654D01*
X0120100Y0176955D01*
X0120100Y0176014D02*
X0120400Y0175714D01*
X0120400Y0175113D01*
X0120100Y0174813D01*
X0118899Y0176014D01*
X0120100Y0176014D01*
X0120100Y0174813D02*
X0118899Y0174813D01*
X0118598Y0175113D01*
X0118598Y0175714D01*
X0118899Y0176014D01*
X0127348Y0178717D02*
X0127649Y0178417D01*
X0128850Y0178417D01*
X0129150Y0178717D01*
X0129150Y0179318D01*
X0128850Y0179618D01*
X0128850Y0180258D02*
X0129150Y0180559D01*
X0129150Y0181159D01*
X0128850Y0181459D01*
X0128549Y0181459D01*
X0128249Y0181159D01*
X0128249Y0180859D01*
X0128249Y0181159D02*
X0127949Y0181459D01*
X0127649Y0181459D01*
X0127348Y0181159D01*
X0127348Y0180559D01*
X0127649Y0180258D01*
X0127649Y0179618D02*
X0127348Y0179318D01*
X0127348Y0178717D01*
X0016711Y0181281D02*
X0014909Y0181281D01*
X0014909Y0182182D01*
X0015210Y0182482D01*
X0015810Y0182482D01*
X0016111Y0182182D01*
X0016111Y0181281D01*
X0016111Y0181882D02*
X0016711Y0182482D01*
X0016711Y0183123D02*
X0015510Y0183123D01*
X0014909Y0183723D01*
X0015510Y0184324D01*
X0016711Y0184324D01*
X0016711Y0184964D02*
X0016711Y0185865D01*
X0016411Y0186165D01*
X0015210Y0186165D01*
X0014909Y0185865D01*
X0014909Y0184964D01*
X0016711Y0184964D01*
X0015810Y0184324D02*
X0015810Y0183123D01*
X0015210Y0186806D02*
X0016411Y0186806D01*
X0016711Y0187106D01*
X0016711Y0187707D01*
X0016411Y0188007D01*
X0016411Y0188647D02*
X0016711Y0188948D01*
X0016711Y0189548D01*
X0016411Y0189848D01*
X0015210Y0189848D01*
X0014909Y0189548D01*
X0014909Y0188948D01*
X0015210Y0188647D01*
X0016411Y0188647D01*
X0015210Y0188007D02*
X0014909Y0187707D01*
X0014909Y0187106D01*
X0015210Y0186806D01*
X0014909Y0190489D02*
X0016711Y0191690D01*
X0014909Y0191690D01*
X0014909Y0192331D02*
X0016711Y0193532D01*
X0014909Y0193532D01*
X0014909Y0194172D02*
X0014909Y0195373D01*
X0015810Y0194773D02*
X0015810Y0194172D01*
X0016711Y0194172D02*
X0014909Y0194172D01*
X0014909Y0192331D02*
X0016711Y0192331D01*
X0016711Y0190489D02*
X0014909Y0190489D01*
X0033098Y0257100D02*
X0035900Y0257100D01*
X0035900Y0258968D01*
X0035900Y0260796D02*
X0033098Y0260796D01*
X0033098Y0259862D02*
X0033098Y0261731D01*
X0033565Y0262625D02*
X0035433Y0262625D01*
X0035900Y0263092D01*
X0035900Y0264026D01*
X0035433Y0264493D01*
X0035433Y0265387D02*
X0035900Y0265854D01*
X0035900Y0266788D01*
X0035433Y0267255D01*
X0034966Y0267255D01*
X0034499Y0266788D01*
X0034499Y0266321D01*
X0034499Y0266788D02*
X0034032Y0267255D01*
X0033565Y0267255D01*
X0033098Y0266788D01*
X0033098Y0265854D01*
X0033565Y0265387D01*
X0033565Y0264493D02*
X0033098Y0264026D01*
X0033098Y0263092D01*
X0033565Y0262625D01*
X0034032Y0268149D02*
X0033098Y0269084D01*
X0035900Y0269084D01*
X0035900Y0270018D02*
X0035900Y0268149D01*
X0035900Y0270912D02*
X0035900Y0272780D01*
X0035900Y0273674D02*
X0034032Y0275542D01*
X0033565Y0275542D01*
X0033098Y0275075D01*
X0033098Y0274141D01*
X0033565Y0273674D01*
X0033098Y0271846D02*
X0035900Y0271846D01*
X0035900Y0273674D02*
X0035900Y0275542D01*
X0033098Y0271846D02*
X0034032Y0270912D01*
X0026247Y0290600D02*
X0026247Y0292402D01*
X0026247Y0291501D02*
X0025045Y0291501D01*
X0024405Y0291801D02*
X0024405Y0290600D01*
X0023504Y0290600D01*
X0023204Y0290900D01*
X0023204Y0291801D01*
X0022563Y0292101D02*
X0022563Y0292402D01*
X0021362Y0292402D01*
X0022563Y0292101D02*
X0021362Y0290900D01*
X0021362Y0290600D01*
X0020742Y0290600D02*
X0020442Y0290600D01*
X0020442Y0290900D01*
X0020742Y0290900D01*
X0020742Y0290600D01*
X0019501Y0290600D02*
X0019501Y0292402D01*
X0018600Y0291501D01*
X0019801Y0291501D01*
X0025045Y0290600D02*
X0025045Y0292402D01*
X0022342Y0306600D02*
X0022342Y0308402D01*
X0021442Y0307501D01*
X0022643Y0307501D01*
X0020801Y0306600D02*
X0019600Y0306600D01*
X0019600Y0308402D01*
X0141559Y0305435D02*
X0142493Y0305902D01*
X0305598Y0226459D02*
X0305598Y0225258D01*
X0307400Y0225258D01*
X0307400Y0226459D01*
X0306499Y0225859D02*
X0306499Y0225258D01*
X0305899Y0224618D02*
X0305598Y0224318D01*
X0305598Y0223717D01*
X0305899Y0223417D01*
X0307100Y0223417D01*
X0307400Y0223717D01*
X0307400Y0224318D01*
X0307100Y0224618D01*
X0307400Y0222790D02*
X0307400Y0222189D01*
X0307400Y0222489D02*
X0305598Y0222489D01*
X0305598Y0222189D02*
X0305598Y0222790D01*
X0306499Y0221549D02*
X0306499Y0220348D01*
X0305598Y0219707D02*
X0307400Y0219707D01*
X0307400Y0218506D02*
X0305598Y0218506D01*
X0306199Y0219106D01*
X0305598Y0219707D01*
X0306199Y0217865D02*
X0307400Y0217865D01*
X0306499Y0217865D02*
X0306499Y0216664D01*
X0306199Y0216664D02*
X0305598Y0217265D01*
X0306199Y0217865D01*
X0306199Y0216664D02*
X0307400Y0216664D01*
X0307100Y0216024D02*
X0307400Y0215724D01*
X0307400Y0215123D01*
X0307100Y0214823D01*
X0306499Y0215123D02*
X0306499Y0215724D01*
X0306799Y0216024D01*
X0307100Y0216024D01*
X0306499Y0215123D02*
X0306199Y0214823D01*
X0305899Y0214823D01*
X0305598Y0215123D01*
X0305598Y0215724D01*
X0305899Y0216024D01*
X0332184Y0243600D02*
X0333385Y0243600D01*
X0334026Y0243600D02*
X0335227Y0243600D01*
X0335867Y0243600D02*
X0336768Y0243600D01*
X0337068Y0243900D01*
X0337068Y0245101D01*
X0336768Y0245402D01*
X0335867Y0245402D01*
X0335867Y0243600D01*
X0334626Y0244501D02*
X0334026Y0244501D01*
X0334026Y0245402D02*
X0334026Y0243600D01*
X0334026Y0245402D02*
X0335227Y0245402D01*
X0332184Y0245402D02*
X0332184Y0243600D01*
X0337709Y0243300D02*
X0338910Y0243300D01*
X0340151Y0243600D02*
X0340151Y0245402D01*
X0339551Y0245402D02*
X0340752Y0245402D01*
X0341392Y0245402D02*
X0341392Y0243600D01*
X0342593Y0243600D01*
X0343234Y0243600D02*
X0343234Y0245402D01*
X0343834Y0244801D01*
X0344435Y0245402D01*
X0344435Y0243600D01*
X0345075Y0243600D02*
X0345075Y0245402D01*
X0345976Y0245402D01*
X0346276Y0245101D01*
X0346276Y0244501D01*
X0345976Y0244201D01*
X0345075Y0244201D01*
X0346917Y0243300D02*
X0348118Y0243300D01*
X0348758Y0243600D02*
X0349959Y0244801D01*
X0349959Y0245101D01*
X0349659Y0245402D01*
X0349059Y0245402D01*
X0348758Y0245101D01*
X0348758Y0243600D02*
X0349959Y0243600D01*
X0342593Y0245402D02*
X0341392Y0245402D01*
X0341392Y0244501D02*
X0341993Y0244501D01*
X0370392Y0230801D02*
X0370993Y0231402D01*
X0371593Y0230801D01*
X0371593Y0229600D01*
X0372234Y0229600D02*
X0373134Y0229600D01*
X0373435Y0229900D01*
X0373435Y0231101D01*
X0373134Y0231402D01*
X0372234Y0231402D01*
X0372234Y0229600D01*
X0371593Y0230501D02*
X0370392Y0230501D01*
X0370392Y0230801D02*
X0370392Y0229600D01*
X0374075Y0229900D02*
X0374376Y0229600D01*
X0374976Y0229600D01*
X0375276Y0229900D01*
X0375276Y0230501D01*
X0374976Y0230801D01*
X0374676Y0230801D01*
X0374075Y0230501D01*
X0374075Y0231402D01*
X0375276Y0231402D01*
X0375917Y0231101D02*
X0375917Y0230801D01*
X0376217Y0230501D01*
X0377118Y0230501D01*
X0377118Y0231101D02*
X0376818Y0231402D01*
X0376217Y0231402D01*
X0375917Y0231101D01*
X0375917Y0229900D02*
X0376217Y0229600D01*
X0376818Y0229600D01*
X0377118Y0229900D01*
X0377118Y0231101D01*
X0377758Y0231101D02*
X0378059Y0231402D01*
X0378659Y0231402D01*
X0378959Y0231101D01*
X0377758Y0229900D01*
X0378059Y0229600D01*
X0378659Y0229600D01*
X0378959Y0229900D01*
X0378959Y0231101D01*
X0377758Y0231101D02*
X0377758Y0229900D01*
X0398100Y0255600D02*
X0399301Y0255600D01*
X0398701Y0255600D02*
X0398701Y0257402D01*
X0398100Y0256801D01*
X0399942Y0256801D02*
X0399942Y0255900D01*
X0400242Y0255600D01*
X0401143Y0255600D01*
X0401143Y0256801D01*
X0401783Y0256501D02*
X0402384Y0256501D01*
X0402984Y0257402D02*
X0401783Y0257402D01*
X0401783Y0255600D01*
X0402143Y0264350D02*
X0400942Y0264350D01*
X0402143Y0265551D01*
X0402143Y0265851D01*
X0401842Y0266152D01*
X0401242Y0266152D01*
X0400942Y0265851D01*
X0400301Y0265851D02*
X0400001Y0266152D01*
X0399400Y0266152D01*
X0399100Y0265851D01*
X0399100Y0264650D01*
X0399400Y0264350D01*
X0400001Y0264350D01*
X0400301Y0264650D01*
X0402783Y0264650D02*
X0403083Y0264350D01*
X0403684Y0264350D01*
X0403984Y0264650D01*
X0403984Y0265251D01*
X0403684Y0265551D01*
X0403384Y0265551D01*
X0402783Y0265251D01*
X0402783Y0266152D01*
X0403984Y0266152D01*
X0414538Y0231185D02*
X0415139Y0231185D01*
X0414839Y0231185D02*
X0414839Y0229383D01*
X0415139Y0229383D02*
X0414538Y0229383D01*
X0415766Y0229383D02*
X0415766Y0231185D01*
X0416667Y0231185D01*
X0416967Y0230885D01*
X0416967Y0230284D01*
X0416667Y0229984D01*
X0415766Y0229984D01*
X0416367Y0229984D02*
X0416967Y0229383D01*
X0417608Y0229684D02*
X0417908Y0229383D01*
X0418508Y0229383D01*
X0418809Y0229684D01*
X0418809Y0229984D01*
X0418508Y0230284D01*
X0417608Y0230284D01*
X0417608Y0229684D01*
X0417608Y0230284D02*
X0418208Y0230885D01*
X0418809Y0231185D01*
X0419449Y0230584D02*
X0420050Y0231185D01*
X0420677Y0231185D02*
X0421878Y0231185D01*
X0422519Y0231185D02*
X0422519Y0229383D01*
X0423720Y0229383D01*
X0424360Y0229383D02*
X0424360Y0230584D01*
X0424961Y0231185D01*
X0425561Y0230584D01*
X0425561Y0229383D01*
X0426202Y0229684D02*
X0426502Y0229383D01*
X0427102Y0229383D01*
X0427403Y0229684D01*
X0427403Y0229984D01*
X0427102Y0230284D01*
X0426502Y0230284D01*
X0426202Y0230584D01*
X0426202Y0230885D01*
X0426502Y0231185D01*
X0427102Y0231185D01*
X0427403Y0230885D01*
X0428043Y0231185D02*
X0428043Y0229383D01*
X0428043Y0230284D02*
X0429244Y0230284D01*
X0429885Y0229984D02*
X0430786Y0229984D01*
X0431086Y0230284D01*
X0431086Y0230885D01*
X0430786Y0231185D01*
X0429885Y0231185D01*
X0429885Y0229383D01*
X0429244Y0229383D02*
X0429244Y0231185D01*
X0431726Y0230584D02*
X0432327Y0231185D01*
X0432927Y0230584D01*
X0432927Y0229383D01*
X0433568Y0229383D02*
X0433568Y0231185D01*
X0434769Y0229383D01*
X0434769Y0231185D01*
X0435410Y0231185D02*
X0435410Y0229383D01*
X0436611Y0229383D01*
X0437251Y0229383D02*
X0438452Y0229383D01*
X0439093Y0229383D02*
X0439693Y0229984D01*
X0439693Y0230584D01*
X0439093Y0231185D01*
X0437251Y0231185D02*
X0437251Y0229383D01*
X0436010Y0230284D02*
X0435410Y0230284D01*
X0435410Y0231185D02*
X0436611Y0231185D01*
X0432927Y0230284D02*
X0431726Y0230284D01*
X0431726Y0230584D02*
X0431726Y0229383D01*
X0425561Y0230284D02*
X0424360Y0230284D01*
X0421278Y0230284D02*
X0420677Y0230284D01*
X0420677Y0229383D02*
X0420677Y0231185D01*
X0419449Y0230584D02*
X0419449Y0229984D01*
X0420050Y0229383D01*
X0378959Y0201101D02*
X0378659Y0201402D01*
X0378059Y0201402D01*
X0377758Y0201101D01*
X0377758Y0200801D01*
X0378059Y0200501D01*
X0378959Y0200501D01*
X0378959Y0201101D02*
X0378959Y0199900D01*
X0378659Y0199600D01*
X0378059Y0199600D01*
X0377758Y0199900D01*
X0377118Y0199900D02*
X0377118Y0200201D01*
X0376818Y0200501D01*
X0376217Y0200501D01*
X0375917Y0200801D01*
X0375917Y0201101D01*
X0376217Y0201402D01*
X0376818Y0201402D01*
X0377118Y0201101D01*
X0376517Y0201702D02*
X0376517Y0199300D01*
X0376217Y0199600D02*
X0376818Y0199600D01*
X0377118Y0199900D01*
X0376217Y0199600D02*
X0375917Y0199900D01*
X0375276Y0199900D02*
X0375276Y0201402D01*
X0374075Y0201402D02*
X0374075Y0199900D01*
X0374376Y0199600D01*
X0374976Y0199600D01*
X0375276Y0199900D01*
X0375217Y0193402D02*
X0374917Y0193101D01*
X0374917Y0192801D01*
X0375217Y0192501D01*
X0376118Y0192501D01*
X0376118Y0193101D02*
X0375818Y0193402D01*
X0375217Y0193402D01*
X0374276Y0193402D02*
X0373075Y0193402D01*
X0373075Y0192501D01*
X0373676Y0192801D01*
X0373976Y0192801D01*
X0374276Y0192501D01*
X0374276Y0191900D01*
X0373976Y0191600D01*
X0373376Y0191600D01*
X0373075Y0191900D01*
X0372435Y0191900D02*
X0372435Y0193101D01*
X0372134Y0193402D01*
X0371234Y0193402D01*
X0371234Y0191600D01*
X0372134Y0191600D01*
X0372435Y0191900D01*
X0370593Y0191600D02*
X0370593Y0192801D01*
X0369993Y0193402D01*
X0369392Y0192801D01*
X0369392Y0191600D01*
X0369392Y0192501D02*
X0370593Y0192501D01*
X0374917Y0191900D02*
X0375217Y0191600D01*
X0375818Y0191600D01*
X0376118Y0191900D01*
X0376118Y0193101D01*
X0376758Y0193101D02*
X0377059Y0193402D01*
X0377659Y0193402D01*
X0377959Y0193101D01*
X0376758Y0191900D01*
X0377059Y0191600D01*
X0377659Y0191600D01*
X0377959Y0191900D01*
X0377959Y0193101D01*
X0376758Y0193101D02*
X0376758Y0191900D01*
X0375517Y0163702D02*
X0375517Y0161300D01*
X0375217Y0161600D02*
X0375818Y0161600D01*
X0376118Y0161900D01*
X0376118Y0162201D01*
X0375818Y0162501D01*
X0375217Y0162501D01*
X0374917Y0162801D01*
X0374917Y0163101D01*
X0375217Y0163402D01*
X0375818Y0163402D01*
X0376118Y0163101D01*
X0376758Y0163101D02*
X0376758Y0162801D01*
X0377059Y0162501D01*
X0377659Y0162501D01*
X0377959Y0162201D01*
X0377959Y0161900D01*
X0377659Y0161600D01*
X0377059Y0161600D01*
X0376758Y0161900D01*
X0376758Y0162201D01*
X0377059Y0162501D01*
X0377659Y0162501D02*
X0377959Y0162801D01*
X0377959Y0163101D01*
X0377659Y0163402D01*
X0377059Y0163402D01*
X0376758Y0163101D01*
X0375217Y0161600D02*
X0374917Y0161900D01*
X0374276Y0161900D02*
X0374276Y0163402D01*
X0373075Y0163402D02*
X0373075Y0161900D01*
X0373376Y0161600D01*
X0373976Y0161600D01*
X0374276Y0161900D01*
X0374276Y0156402D02*
X0373075Y0156402D01*
X0373075Y0155501D01*
X0373676Y0155801D01*
X0373976Y0155801D01*
X0374276Y0155501D01*
X0374276Y0154900D01*
X0373976Y0154600D01*
X0373376Y0154600D01*
X0373075Y0154900D01*
X0372435Y0154900D02*
X0372435Y0156101D01*
X0372134Y0156402D01*
X0371234Y0156402D01*
X0371234Y0154600D01*
X0372134Y0154600D01*
X0372435Y0154900D01*
X0370593Y0154600D02*
X0370593Y0155801D01*
X0369993Y0156402D01*
X0369392Y0155801D01*
X0369392Y0154600D01*
X0369392Y0155501D02*
X0370593Y0155501D01*
X0374917Y0155801D02*
X0375217Y0155501D01*
X0376118Y0155501D01*
X0376118Y0156101D02*
X0376118Y0154900D01*
X0375818Y0154600D01*
X0375217Y0154600D01*
X0374917Y0154900D01*
X0374917Y0155801D02*
X0374917Y0156101D01*
X0375217Y0156402D01*
X0375818Y0156402D01*
X0376118Y0156101D01*
X0376758Y0156101D02*
X0377059Y0156402D01*
X0377659Y0156402D01*
X0377959Y0156101D01*
X0376758Y0154900D01*
X0377059Y0154600D01*
X0377659Y0154600D01*
X0377959Y0154900D01*
X0377959Y0156101D01*
X0376758Y0156101D02*
X0376758Y0154900D01*
X0375517Y0126702D02*
X0375517Y0124300D01*
X0375217Y0124600D02*
X0375818Y0124600D01*
X0376118Y0124900D01*
X0376118Y0125201D01*
X0375818Y0125501D01*
X0375217Y0125501D01*
X0374917Y0125801D01*
X0374917Y0126101D01*
X0375217Y0126402D01*
X0375818Y0126402D01*
X0376118Y0126101D01*
X0376758Y0126402D02*
X0377959Y0126402D01*
X0377959Y0126101D01*
X0376758Y0124900D01*
X0376758Y0124600D01*
X0375217Y0124600D02*
X0374917Y0124900D01*
X0374276Y0124900D02*
X0374276Y0126402D01*
X0373075Y0126402D02*
X0373075Y0124900D01*
X0373376Y0124600D01*
X0373976Y0124600D01*
X0374276Y0124900D01*
X0374217Y0119402D02*
X0373917Y0119101D01*
X0373917Y0118801D01*
X0374217Y0118501D01*
X0375118Y0118501D01*
X0375118Y0119101D02*
X0374818Y0119402D01*
X0374217Y0119402D01*
X0373276Y0119402D02*
X0372075Y0119402D01*
X0372075Y0118501D01*
X0372676Y0118801D01*
X0372976Y0118801D01*
X0373276Y0118501D01*
X0373276Y0117900D01*
X0372976Y0117600D01*
X0372376Y0117600D01*
X0372075Y0117900D01*
X0371435Y0117900D02*
X0371435Y0119101D01*
X0371134Y0119402D01*
X0370234Y0119402D01*
X0370234Y0117600D01*
X0371134Y0117600D01*
X0371435Y0117900D01*
X0369593Y0117600D02*
X0369593Y0118801D01*
X0368993Y0119402D01*
X0368392Y0118801D01*
X0368392Y0117600D01*
X0368392Y0118501D02*
X0369593Y0118501D01*
X0373917Y0117900D02*
X0374217Y0117600D01*
X0374818Y0117600D01*
X0375118Y0117900D01*
X0375118Y0119101D01*
X0375758Y0119101D02*
X0376059Y0119402D01*
X0376659Y0119402D01*
X0376959Y0119101D01*
X0375758Y0117900D01*
X0376059Y0117600D01*
X0376659Y0117600D01*
X0376959Y0117900D01*
X0376959Y0119101D01*
X0375758Y0119101D02*
X0375758Y0117900D01*
X0372676Y0089702D02*
X0372676Y0087300D01*
X0372976Y0087600D02*
X0373276Y0087900D01*
X0373276Y0088201D01*
X0372976Y0088501D01*
X0372376Y0088501D01*
X0372075Y0088801D01*
X0372075Y0089101D01*
X0372376Y0089402D01*
X0372976Y0089402D01*
X0373276Y0089101D01*
X0373917Y0088801D02*
X0374517Y0089402D01*
X0374517Y0087600D01*
X0373917Y0087600D02*
X0375118Y0087600D01*
X0375758Y0087900D02*
X0376959Y0089101D01*
X0376959Y0087900D01*
X0376659Y0087600D01*
X0376059Y0087600D01*
X0375758Y0087900D01*
X0375758Y0089101D01*
X0376059Y0089402D01*
X0376659Y0089402D01*
X0376959Y0089101D01*
X0372976Y0087600D02*
X0372376Y0087600D01*
X0372075Y0087900D01*
X0371435Y0087900D02*
X0371435Y0089402D01*
X0370234Y0089402D02*
X0370234Y0087900D01*
X0370534Y0087600D01*
X0371134Y0087600D01*
X0371435Y0087900D01*
X0327400Y0072783D02*
X0325598Y0072783D01*
X0325598Y0073984D01*
X0326499Y0073384D02*
X0326499Y0072783D01*
X0326199Y0072143D02*
X0327400Y0072143D01*
X0327400Y0071242D01*
X0327100Y0070942D01*
X0326199Y0070942D01*
X0327400Y0070301D02*
X0327400Y0069100D01*
X0327400Y0069701D02*
X0325598Y0069701D01*
X0326199Y0069100D01*
X0318650Y0070400D02*
X0318650Y0071001D01*
X0318350Y0071301D01*
X0318650Y0071942D02*
X0317449Y0073143D01*
X0317149Y0073143D01*
X0316848Y0072842D01*
X0316848Y0072242D01*
X0317149Y0071942D01*
X0317149Y0071301D02*
X0316848Y0071001D01*
X0316848Y0070400D01*
X0317149Y0070100D01*
X0318350Y0070100D01*
X0318650Y0070400D01*
X0318650Y0071942D02*
X0318650Y0073143D01*
X0317749Y0073783D02*
X0317749Y0074984D01*
X0316848Y0074684D02*
X0317749Y0073783D01*
X0318650Y0074684D02*
X0316848Y0074684D01*
X0340880Y0038618D02*
X0341480Y0038618D01*
X0341180Y0038618D02*
X0341180Y0036817D01*
X0340880Y0036817D02*
X0341480Y0036817D01*
X0342107Y0036817D02*
X0342107Y0038618D01*
X0343008Y0038618D01*
X0343308Y0038318D01*
X0343308Y0037717D01*
X0343008Y0037417D01*
X0342107Y0037417D01*
X0342708Y0037417D02*
X0343308Y0036817D01*
X0343949Y0036817D02*
X0345150Y0036817D01*
X0344549Y0036817D02*
X0344549Y0038618D01*
X0343949Y0038018D01*
X0417098Y0048100D02*
X0418900Y0048100D01*
X0417999Y0048100D02*
X0417999Y0049301D01*
X0417999Y0049942D02*
X0417999Y0050542D01*
X0417098Y0049942D02*
X0418900Y0049942D01*
X0418900Y0051143D01*
X0418900Y0051783D02*
X0417699Y0051783D01*
X0417098Y0052384D01*
X0417699Y0052984D01*
X0418900Y0052984D01*
X0418900Y0053625D02*
X0418900Y0054525D01*
X0418600Y0054826D01*
X0417399Y0054826D01*
X0417098Y0054525D01*
X0417098Y0053625D01*
X0418900Y0053625D01*
X0417999Y0052984D02*
X0417999Y0051783D01*
X0417098Y0051143D02*
X0417098Y0049942D01*
X0417098Y0049301D02*
X0418900Y0049301D01*
X0418900Y0055466D02*
X0418900Y0056667D01*
X0418900Y0057308D02*
X0417098Y0057308D01*
X0417098Y0058209D01*
X0417399Y0058509D01*
X0417999Y0058509D01*
X0418299Y0058209D01*
X0418299Y0057308D01*
X0418299Y0057908D02*
X0418900Y0058509D01*
X0418900Y0059149D02*
X0418900Y0060350D01*
X0418900Y0059750D02*
X0417098Y0059750D01*
X0417699Y0059149D01*
X0417999Y0060991D02*
X0417999Y0061592D01*
X0417098Y0062192D02*
X0417098Y0060991D01*
X0418900Y0060991D01*
X0417098Y0056667D02*
X0417098Y0055466D01*
X0418900Y0055466D01*
X0417999Y0055466D02*
X0417999Y0056067D01*
X0452098Y0175100D02*
X0453900Y0175100D01*
X0452999Y0175100D02*
X0452999Y0176301D01*
X0452999Y0176942D02*
X0452999Y0177542D01*
X0452098Y0176942D02*
X0453900Y0176942D01*
X0453900Y0178143D01*
X0453900Y0178783D02*
X0452699Y0178783D01*
X0452098Y0179384D01*
X0452699Y0179984D01*
X0453900Y0179984D01*
X0453900Y0180625D02*
X0453900Y0181525D01*
X0453600Y0181826D01*
X0452399Y0181826D01*
X0452098Y0181525D01*
X0452098Y0180625D01*
X0453900Y0180625D01*
X0452999Y0179984D02*
X0452999Y0178783D01*
X0452098Y0178143D02*
X0452098Y0176942D01*
X0452098Y0176301D02*
X0453900Y0176301D01*
X0453900Y0182466D02*
X0452098Y0182466D01*
X0452098Y0183667D01*
X0452098Y0184308D02*
X0452098Y0185209D01*
X0452399Y0185509D01*
X0452999Y0185509D01*
X0453299Y0185209D01*
X0453299Y0184308D01*
X0453299Y0184908D02*
X0453900Y0185509D01*
X0453900Y0186149D02*
X0453600Y0186149D01*
X0452399Y0187350D01*
X0452098Y0187350D01*
X0452098Y0186149D01*
X0452098Y0184308D02*
X0453900Y0184308D01*
X0453900Y0183667D02*
X0453900Y0182466D01*
X0452999Y0182466D02*
X0452999Y0183067D01*
X0452999Y0187991D02*
X0452999Y0188592D01*
X0452098Y0189192D02*
X0452098Y0187991D01*
X0453900Y0187991D01*
X0349959Y0273900D02*
X0349659Y0273600D01*
X0349059Y0273600D01*
X0348758Y0273900D01*
X0349959Y0275101D01*
X0349959Y0273900D01*
X0348758Y0273900D02*
X0348758Y0275101D01*
X0349059Y0275402D01*
X0349659Y0275402D01*
X0349959Y0275101D01*
X0348118Y0275101D02*
X0347818Y0275402D01*
X0347217Y0275402D01*
X0346917Y0275101D01*
X0346917Y0274801D01*
X0347217Y0274501D01*
X0348118Y0274501D01*
X0348118Y0275101D02*
X0348118Y0273900D01*
X0347818Y0273600D01*
X0347217Y0273600D01*
X0346917Y0273900D01*
X0346276Y0273900D02*
X0345976Y0273600D01*
X0345376Y0273600D01*
X0345075Y0273900D01*
X0345075Y0274501D02*
X0345676Y0274801D01*
X0345976Y0274801D01*
X0346276Y0274501D01*
X0346276Y0273900D01*
X0345075Y0274501D02*
X0345075Y0275402D01*
X0346276Y0275402D01*
X0344435Y0275101D02*
X0344134Y0275402D01*
X0343234Y0275402D01*
X0343234Y0273600D01*
X0344134Y0273600D01*
X0344435Y0273900D01*
X0344435Y0275101D01*
X0342593Y0274801D02*
X0342593Y0273600D01*
X0342593Y0274501D02*
X0341392Y0274501D01*
X0341392Y0274801D02*
X0341993Y0275402D01*
X0342593Y0274801D01*
X0341392Y0274801D02*
X0341392Y0273600D01*
X0341392Y0282600D02*
X0342593Y0282600D01*
X0343234Y0282600D02*
X0343234Y0284402D01*
X0343834Y0283801D01*
X0344435Y0284402D01*
X0344435Y0282600D01*
X0345075Y0282600D02*
X0345075Y0284402D01*
X0345976Y0284402D01*
X0346276Y0284101D01*
X0346276Y0283501D01*
X0345976Y0283201D01*
X0345075Y0283201D01*
X0346917Y0282300D02*
X0348118Y0282300D01*
X0348758Y0282600D02*
X0349959Y0282600D01*
X0349359Y0282600D02*
X0349359Y0284402D01*
X0348758Y0283801D01*
X0342593Y0284402D02*
X0341392Y0284402D01*
X0341392Y0282600D01*
X0341392Y0283501D02*
X0341993Y0283501D01*
X0340752Y0284402D02*
X0339551Y0284402D01*
X0340151Y0284402D02*
X0340151Y0282600D01*
X0338910Y0282300D02*
X0337709Y0282300D01*
X0337068Y0282900D02*
X0337068Y0284101D01*
X0336768Y0284402D01*
X0335867Y0284402D01*
X0335867Y0282600D01*
X0336768Y0282600D01*
X0337068Y0282900D01*
X0335227Y0282600D02*
X0334026Y0282600D01*
X0334026Y0284402D01*
X0335227Y0284402D01*
X0334626Y0283501D02*
X0334026Y0283501D01*
X0333385Y0282600D02*
X0332184Y0282600D01*
X0332184Y0284402D01*
X0338392Y0307600D02*
X0338392Y0308801D01*
X0338993Y0309402D01*
X0339593Y0308801D01*
X0339593Y0307600D01*
X0340234Y0307600D02*
X0341134Y0307600D01*
X0341435Y0307900D01*
X0341435Y0309101D01*
X0341134Y0309402D01*
X0340234Y0309402D01*
X0340234Y0307600D01*
X0339593Y0308501D02*
X0338392Y0308501D01*
X0342075Y0308501D02*
X0342676Y0308801D01*
X0342976Y0308801D01*
X0343276Y0308501D01*
X0343276Y0307900D01*
X0342976Y0307600D01*
X0342376Y0307600D01*
X0342075Y0307900D01*
X0342075Y0308501D02*
X0342075Y0309402D01*
X0343276Y0309402D01*
X0343917Y0309101D02*
X0343917Y0308801D01*
X0344217Y0308501D01*
X0345118Y0308501D01*
X0345118Y0309101D02*
X0344818Y0309402D01*
X0344217Y0309402D01*
X0343917Y0309101D01*
X0343917Y0307900D02*
X0344217Y0307600D01*
X0344818Y0307600D01*
X0345118Y0307900D01*
X0345118Y0309101D01*
X0345758Y0309101D02*
X0346059Y0309402D01*
X0346659Y0309402D01*
X0346959Y0309101D01*
X0345758Y0307900D01*
X0346059Y0307600D01*
X0346659Y0307600D01*
X0346959Y0307900D01*
X0346959Y0309101D01*
X0345758Y0309101D02*
X0345758Y0307900D01*
X0370367Y0306902D02*
X0370367Y0305100D01*
X0370367Y0306001D02*
X0371568Y0306001D01*
X0372209Y0306001D02*
X0372809Y0306001D01*
X0372209Y0306902D02*
X0372209Y0305100D01*
X0373410Y0305100D01*
X0374051Y0305100D02*
X0374051Y0306301D01*
X0374651Y0306902D01*
X0375252Y0306301D01*
X0375252Y0305100D01*
X0375892Y0305100D02*
X0376793Y0305100D01*
X0377093Y0305400D01*
X0377093Y0306601D01*
X0376793Y0306902D01*
X0375892Y0306902D01*
X0375892Y0305100D01*
X0375252Y0306001D02*
X0374051Y0306001D01*
X0373410Y0306902D02*
X0372209Y0306902D01*
X0371568Y0306902D02*
X0371568Y0305100D01*
X0377734Y0305100D02*
X0378935Y0305100D01*
X0379575Y0305100D02*
X0379575Y0306902D01*
X0380476Y0306902D01*
X0380776Y0306601D01*
X0380776Y0306001D01*
X0380476Y0305701D01*
X0379575Y0305701D01*
X0380176Y0305701D02*
X0380776Y0305100D01*
X0381417Y0305400D02*
X0381717Y0305100D01*
X0382318Y0305100D01*
X0382618Y0305400D01*
X0382618Y0306601D01*
X0382318Y0306902D01*
X0381717Y0306902D01*
X0381417Y0306601D01*
X0381417Y0306301D01*
X0381717Y0306001D01*
X0382618Y0306001D01*
X0383258Y0306001D02*
X0383859Y0306001D01*
X0384459Y0306902D02*
X0383258Y0306902D01*
X0383258Y0305100D01*
X0378935Y0306902D02*
X0377734Y0306902D01*
X0377734Y0305100D01*
X0377734Y0306001D02*
X0378334Y0306001D01*
X0153233Y0067402D02*
X0152633Y0067402D01*
X0152333Y0067101D01*
X0152333Y0066801D01*
X0152633Y0066501D01*
X0153233Y0066501D01*
X0153534Y0066201D01*
X0153534Y0065900D01*
X0153233Y0065600D01*
X0152633Y0065600D01*
X0152333Y0065900D01*
X0151692Y0065900D02*
X0151692Y0067101D01*
X0151392Y0067402D01*
X0150791Y0067402D01*
X0150491Y0067101D01*
X0150491Y0065900D01*
X0150791Y0065600D01*
X0151392Y0065600D01*
X0151692Y0065900D01*
X0149850Y0065600D02*
X0149850Y0067402D01*
X0149250Y0066801D01*
X0148649Y0067402D01*
X0148649Y0065600D01*
X0148009Y0066501D02*
X0147709Y0066201D01*
X0146808Y0066201D01*
X0146808Y0065600D02*
X0146808Y0067402D01*
X0147709Y0067402D01*
X0148009Y0067101D01*
X0148009Y0066501D01*
X0146167Y0066501D02*
X0146167Y0067101D01*
X0145867Y0067402D01*
X0144966Y0067402D01*
X0144966Y0065600D01*
X0144966Y0066201D02*
X0145867Y0066201D01*
X0146167Y0066501D01*
X0145567Y0066201D02*
X0146167Y0065600D01*
X0144326Y0065600D02*
X0143125Y0065600D01*
X0143125Y0067402D01*
X0144326Y0067402D01*
X0143725Y0066501D02*
X0143125Y0066501D01*
X0142484Y0065600D02*
X0142484Y0067402D01*
X0141283Y0067402D02*
X0141283Y0065600D01*
X0141884Y0066201D01*
X0142484Y0065600D01*
X0140643Y0065900D02*
X0140643Y0067101D01*
X0140342Y0067402D01*
X0139742Y0067402D01*
X0139442Y0067101D01*
X0139442Y0065900D01*
X0139742Y0065600D01*
X0140342Y0065600D01*
X0140643Y0065900D01*
X0138801Y0066501D02*
X0138501Y0066201D01*
X0137600Y0066201D01*
X0137600Y0065600D02*
X0137600Y0067402D01*
X0138501Y0067402D01*
X0138801Y0067101D01*
X0138801Y0066501D01*
X0153233Y0067402D02*
X0153534Y0067101D01*
X0153308Y0037902D02*
X0154209Y0037902D01*
X0154509Y0037601D01*
X0154509Y0037001D01*
X0154209Y0036701D01*
X0153308Y0036701D01*
X0153908Y0036701D02*
X0154509Y0036100D01*
X0155149Y0036100D02*
X0156350Y0036100D01*
X0155750Y0036100D02*
X0155750Y0037902D01*
X0155149Y0037301D01*
X0153308Y0037902D02*
X0153308Y0036100D01*
X0152667Y0036100D02*
X0151466Y0036100D01*
X0151466Y0037902D01*
X0152667Y0037902D01*
X0152067Y0037001D02*
X0151466Y0037001D01*
X0150826Y0037601D02*
X0150525Y0037902D01*
X0149625Y0037902D01*
X0149625Y0036100D01*
X0150525Y0036100D01*
X0150826Y0036400D01*
X0150826Y0037601D01*
X0148984Y0037301D02*
X0148984Y0036100D01*
X0148984Y0037001D02*
X0147783Y0037001D01*
X0147783Y0037301D02*
X0148384Y0037902D01*
X0148984Y0037301D01*
X0147783Y0037301D02*
X0147783Y0036100D01*
X0147143Y0036100D02*
X0145942Y0036100D01*
X0145942Y0037902D01*
X0147143Y0037902D01*
X0146542Y0037001D02*
X0145942Y0037001D01*
X0145301Y0037001D02*
X0144100Y0037001D01*
X0144100Y0036100D02*
X0144100Y0037902D01*
X0145301Y0037902D02*
X0145301Y0036100D01*
X0156991Y0036100D02*
X0156991Y0037902D01*
X0157592Y0037301D01*
X0158192Y0037902D01*
X0158192Y0036100D01*
D12*
X0057128Y0116284D02*
X0056894Y0116050D01*
X0056427Y0116050D01*
X0056194Y0116284D01*
X0056194Y0116517D01*
X0056427Y0116751D01*
X0056894Y0116751D01*
X0057128Y0116517D01*
X0057128Y0116284D01*
X0056894Y0116751D02*
X0057128Y0116984D01*
X0057128Y0117218D01*
X0056894Y0117451D01*
X0056427Y0117451D01*
X0056194Y0117218D01*
X0056194Y0116984D01*
X0056427Y0116751D01*
X0055746Y0117218D02*
X0054812Y0116284D01*
X0055046Y0116050D01*
X0055513Y0116050D01*
X0055746Y0116284D01*
X0055746Y0117218D01*
X0055513Y0117451D01*
X0055046Y0117451D01*
X0054812Y0117218D01*
X0054812Y0116284D01*
X0054365Y0116284D02*
X0054132Y0116050D01*
X0053431Y0116050D01*
X0053431Y0117451D01*
X0054132Y0117451D01*
X0054365Y0117218D01*
X0054365Y0116984D01*
X0054132Y0116751D01*
X0053431Y0116751D01*
X0052984Y0116751D02*
X0052751Y0116517D01*
X0052050Y0116517D01*
X0052050Y0116050D02*
X0052050Y0117451D01*
X0052751Y0117451D01*
X0052984Y0117218D01*
X0052984Y0116751D01*
X0054132Y0116751D02*
X0054365Y0116517D01*
X0054365Y0116284D01*
X0081050Y0185050D02*
X0081050Y0186451D01*
X0081751Y0186451D01*
X0081984Y0186218D01*
X0081984Y0185751D01*
X0081751Y0185517D01*
X0081050Y0185517D01*
X0082431Y0185751D02*
X0083365Y0185751D01*
X0083365Y0185984D02*
X0083365Y0185050D01*
X0083812Y0185284D02*
X0084746Y0186218D01*
X0084746Y0185284D01*
X0084513Y0185050D01*
X0084046Y0185050D01*
X0083812Y0185284D01*
X0083812Y0186218D01*
X0084046Y0186451D01*
X0084513Y0186451D01*
X0084746Y0186218D01*
X0085194Y0185751D02*
X0085894Y0185751D01*
X0086128Y0185517D01*
X0086128Y0185284D01*
X0085894Y0185050D01*
X0085427Y0185050D01*
X0085194Y0185284D01*
X0085194Y0185751D01*
X0085661Y0186218D01*
X0086128Y0186451D01*
X0083365Y0185984D02*
X0082898Y0186451D01*
X0082431Y0185984D01*
X0082431Y0185050D01*
X0087050Y0212050D02*
X0087050Y0213451D01*
X0087751Y0213451D01*
X0087984Y0213218D01*
X0087984Y0212751D01*
X0087751Y0212517D01*
X0087050Y0212517D01*
X0088431Y0212751D02*
X0089365Y0212751D01*
X0089365Y0212984D02*
X0089365Y0212050D01*
X0089812Y0212284D02*
X0090746Y0213218D01*
X0090746Y0212284D01*
X0090513Y0212050D01*
X0090046Y0212050D01*
X0089812Y0212284D01*
X0089812Y0213218D01*
X0090046Y0213451D01*
X0090513Y0213451D01*
X0090746Y0213218D01*
X0091194Y0213451D02*
X0092128Y0213451D01*
X0092128Y0213218D01*
X0091194Y0212284D01*
X0091194Y0212050D01*
X0089365Y0212984D02*
X0088898Y0213451D01*
X0088431Y0212984D01*
X0088431Y0212050D01*
X0110050Y0212050D02*
X0110050Y0213451D01*
X0110751Y0213451D01*
X0110984Y0213218D01*
X0110984Y0212751D01*
X0110751Y0212517D01*
X0110050Y0212517D01*
X0111431Y0212751D02*
X0112132Y0212751D01*
X0112365Y0212517D01*
X0112365Y0212284D01*
X0112132Y0212050D01*
X0111431Y0212050D01*
X0111431Y0213451D01*
X0112132Y0213451D01*
X0112365Y0213218D01*
X0112365Y0212984D01*
X0112132Y0212751D01*
X0112812Y0212284D02*
X0112812Y0213218D01*
X0113046Y0213451D01*
X0113513Y0213451D01*
X0113746Y0213218D01*
X0112812Y0212284D01*
X0113046Y0212050D01*
X0113513Y0212050D01*
X0113746Y0212284D01*
X0113746Y0213218D01*
X0114194Y0212751D02*
X0114661Y0213218D01*
X0115128Y0213451D01*
X0114894Y0212751D02*
X0114194Y0212751D01*
X0114194Y0212284D01*
X0114427Y0212050D01*
X0114894Y0212050D01*
X0115128Y0212284D01*
X0115128Y0212517D01*
X0114894Y0212751D01*
X0105194Y0227050D02*
X0105194Y0227284D01*
X0106128Y0228218D01*
X0106128Y0228451D01*
X0105194Y0228451D01*
X0104746Y0228218D02*
X0103812Y0227284D01*
X0104046Y0227050D01*
X0104513Y0227050D01*
X0104746Y0227284D01*
X0104746Y0228218D01*
X0104513Y0228451D01*
X0104046Y0228451D01*
X0103812Y0228218D01*
X0103812Y0227284D01*
X0103365Y0227284D02*
X0103132Y0227050D01*
X0102431Y0227050D01*
X0102431Y0228451D01*
X0103132Y0228451D01*
X0103365Y0228218D01*
X0103365Y0227984D01*
X0103132Y0227751D01*
X0102431Y0227751D01*
X0101984Y0227751D02*
X0101751Y0227517D01*
X0101050Y0227517D01*
X0101050Y0227050D02*
X0101050Y0228451D01*
X0101751Y0228451D01*
X0101984Y0228218D01*
X0101984Y0227751D01*
X0103132Y0227751D02*
X0103365Y0227517D01*
X0103365Y0227284D01*
X0074575Y0255550D02*
X0074575Y0257452D01*
X0075842Y0257452D01*
X0075209Y0256501D02*
X0074575Y0256501D01*
X0074001Y0256818D02*
X0074001Y0255550D01*
X0073050Y0255550D01*
X0072733Y0255867D01*
X0072733Y0256818D01*
X0072159Y0257135D02*
X0070892Y0255867D01*
X0070892Y0255550D01*
X0070001Y0255550D02*
X0070001Y0257452D01*
X0069050Y0256501D01*
X0070318Y0256501D01*
X0070892Y0257452D02*
X0072159Y0257452D01*
X0072159Y0257135D01*
X0072659Y0263050D02*
X0071392Y0263050D01*
X0072659Y0264318D01*
X0072659Y0264635D01*
X0072342Y0264952D01*
X0071709Y0264952D01*
X0071392Y0264635D01*
X0070818Y0264635D02*
X0070501Y0264952D01*
X0069867Y0264952D01*
X0069550Y0264635D01*
X0069550Y0263367D01*
X0069867Y0263050D01*
X0070501Y0263050D01*
X0070818Y0263367D01*
X0073233Y0263367D02*
X0074501Y0264635D01*
X0074501Y0263367D01*
X0074184Y0263050D01*
X0073550Y0263050D01*
X0073233Y0263367D01*
X0073233Y0264635D01*
X0073550Y0264952D01*
X0074184Y0264952D01*
X0074501Y0264635D01*
X0101548Y0269318D02*
X0103450Y0269318D01*
X0103450Y0269951D02*
X0103450Y0268684D01*
X0102182Y0268684D02*
X0101548Y0269318D01*
X0101865Y0270525D02*
X0101548Y0270842D01*
X0101548Y0271476D01*
X0101865Y0271793D01*
X0103133Y0270525D01*
X0103450Y0270842D01*
X0103450Y0271476D01*
X0103133Y0271793D01*
X0101865Y0271793D01*
X0102182Y0272367D02*
X0103133Y0272367D01*
X0103450Y0272684D01*
X0103450Y0273635D01*
X0102182Y0273635D01*
X0102499Y0274208D02*
X0102499Y0274842D01*
X0103450Y0274208D02*
X0101548Y0274208D01*
X0101548Y0275476D01*
X0101865Y0270525D02*
X0103133Y0270525D01*
X0109048Y0270342D02*
X0109365Y0270025D01*
X0110633Y0270025D01*
X0110950Y0270342D01*
X0110950Y0270976D01*
X0110633Y0271293D01*
X0110950Y0271867D02*
X0110950Y0273135D01*
X0110950Y0273708D02*
X0110950Y0274976D01*
X0110950Y0274342D02*
X0109048Y0274342D01*
X0109682Y0273708D01*
X0109048Y0272501D02*
X0110950Y0272501D01*
X0109682Y0271867D02*
X0109048Y0272501D01*
X0109365Y0271293D02*
X0109048Y0270976D01*
X0109048Y0270342D01*
X0128048Y0271608D02*
X0128048Y0272876D01*
X0128999Y0272242D02*
X0128999Y0271608D01*
X0128682Y0271035D02*
X0129950Y0271035D01*
X0129950Y0270084D01*
X0129633Y0269767D01*
X0128682Y0269767D01*
X0128365Y0269193D02*
X0129633Y0267925D01*
X0129950Y0268242D01*
X0129950Y0268876D01*
X0129633Y0269193D01*
X0128365Y0269193D01*
X0128048Y0268876D01*
X0128048Y0268242D01*
X0128365Y0267925D01*
X0129633Y0267925D01*
X0129950Y0267351D02*
X0129950Y0266084D01*
X0129950Y0266718D02*
X0128048Y0266718D01*
X0128682Y0266084D01*
X0128048Y0271608D02*
X0129950Y0271608D01*
X0135548Y0271425D02*
X0135865Y0271108D01*
X0135548Y0271425D02*
X0135548Y0272059D01*
X0135865Y0272376D01*
X0136182Y0272376D01*
X0137450Y0271108D01*
X0137450Y0272376D01*
X0137450Y0270535D02*
X0137450Y0269267D01*
X0137450Y0269901D02*
X0135548Y0269901D01*
X0136182Y0269267D01*
X0135865Y0268693D02*
X0135548Y0268376D01*
X0135548Y0267742D01*
X0135865Y0267425D01*
X0137133Y0267425D01*
X0137450Y0267742D01*
X0137450Y0268376D01*
X0137133Y0268693D01*
X0140342Y0276050D02*
X0140976Y0276050D01*
X0141293Y0276367D01*
X0141867Y0276050D02*
X0143135Y0276050D01*
X0142501Y0276050D02*
X0142501Y0277952D01*
X0141867Y0277318D01*
X0141293Y0277635D02*
X0140976Y0277952D01*
X0140342Y0277952D01*
X0140025Y0277635D01*
X0140025Y0276367D01*
X0140342Y0276050D01*
X0143708Y0276367D02*
X0144025Y0276050D01*
X0144659Y0276050D01*
X0144976Y0276367D01*
X0144976Y0277001D01*
X0144659Y0277318D01*
X0144342Y0277318D01*
X0143708Y0277001D01*
X0143708Y0277952D01*
X0144976Y0277952D01*
X0144208Y0283550D02*
X0144208Y0285452D01*
X0145476Y0285452D01*
X0144842Y0284501D02*
X0144208Y0284501D01*
X0143635Y0284818D02*
X0143635Y0283550D01*
X0142684Y0283550D01*
X0142367Y0283867D01*
X0142367Y0284818D01*
X0141793Y0285135D02*
X0140525Y0283867D01*
X0140525Y0283550D01*
X0139635Y0283550D02*
X0139635Y0285452D01*
X0138684Y0284501D01*
X0139951Y0284501D01*
X0140525Y0285452D02*
X0141793Y0285452D01*
X0141793Y0285135D01*
X0157684Y0284818D02*
X0158318Y0285452D01*
X0158318Y0283550D01*
X0158951Y0283550D02*
X0157684Y0283550D01*
X0159525Y0283867D02*
X0160793Y0285135D01*
X0160793Y0283867D01*
X0160476Y0283550D01*
X0159842Y0283550D01*
X0159525Y0283867D01*
X0159525Y0285135D01*
X0159842Y0285452D01*
X0160476Y0285452D01*
X0160793Y0285135D01*
X0161367Y0284818D02*
X0161367Y0283867D01*
X0161684Y0283550D01*
X0162635Y0283550D01*
X0162635Y0284818D01*
X0163208Y0284501D02*
X0163842Y0284501D01*
X0163208Y0285452D02*
X0164476Y0285452D01*
X0163208Y0285452D02*
X0163208Y0283550D01*
X0163025Y0277952D02*
X0162708Y0277635D01*
X0162708Y0277318D01*
X0163025Y0277001D01*
X0163976Y0277001D01*
X0163976Y0277635D02*
X0163659Y0277952D01*
X0163025Y0277952D01*
X0163976Y0277635D02*
X0163976Y0276367D01*
X0163659Y0276050D01*
X0163025Y0276050D01*
X0162708Y0276367D01*
X0162135Y0276050D02*
X0160867Y0276050D01*
X0161501Y0276050D02*
X0161501Y0277952D01*
X0160867Y0277318D01*
X0160293Y0277635D02*
X0159976Y0277952D01*
X0159342Y0277952D01*
X0159025Y0277635D01*
X0159025Y0276367D01*
X0159342Y0276050D01*
X0159976Y0276050D01*
X0160293Y0276367D01*
X0158999Y0267301D02*
X0158999Y0266033D01*
X0158048Y0266984D01*
X0159950Y0266984D01*
X0159950Y0265459D02*
X0159950Y0264192D01*
X0159950Y0264825D02*
X0158048Y0264825D01*
X0158682Y0264192D01*
X0158365Y0263618D02*
X0158048Y0263301D01*
X0158048Y0262667D01*
X0158365Y0262350D01*
X0159633Y0262350D01*
X0159950Y0262667D01*
X0159950Y0263301D01*
X0159633Y0263618D01*
X0165548Y0264009D02*
X0165548Y0264642D01*
X0165865Y0264959D01*
X0167133Y0263692D01*
X0167450Y0264009D01*
X0167450Y0264642D01*
X0167133Y0264959D01*
X0165865Y0264959D01*
X0166182Y0265533D02*
X0167133Y0265533D01*
X0167450Y0265850D01*
X0167450Y0266801D01*
X0166182Y0266801D01*
X0166499Y0267375D02*
X0166499Y0268009D01*
X0165548Y0267375D02*
X0165548Y0268642D01*
X0165548Y0267375D02*
X0167450Y0267375D01*
X0165548Y0264009D02*
X0165865Y0263692D01*
X0167133Y0263692D01*
X0167450Y0263118D02*
X0167450Y0261850D01*
X0167450Y0262484D02*
X0165548Y0262484D01*
X0166182Y0261850D01*
X0196199Y0241497D02*
X0197700Y0241497D01*
X0197700Y0240997D02*
X0197700Y0241997D01*
X0196699Y0240997D02*
X0196199Y0241497D01*
X0196199Y0240024D02*
X0197700Y0240024D01*
X0197700Y0240524D02*
X0197700Y0239523D01*
X0197700Y0239051D02*
X0197200Y0238550D01*
X0197200Y0238801D02*
X0197200Y0238050D01*
X0197700Y0238050D02*
X0196199Y0238050D01*
X0196199Y0238801D01*
X0196449Y0239051D01*
X0196949Y0239051D01*
X0197200Y0238801D01*
X0196699Y0239523D02*
X0196199Y0240024D01*
X0204949Y0240011D02*
X0205199Y0240261D01*
X0206200Y0239260D01*
X0206450Y0239510D01*
X0206450Y0240011D01*
X0206200Y0240261D01*
X0205199Y0240261D01*
X0204949Y0240011D02*
X0204949Y0239510D01*
X0205199Y0239260D01*
X0206200Y0239260D01*
X0206200Y0238773D02*
X0206450Y0238773D01*
X0206450Y0238523D01*
X0206200Y0238523D01*
X0206200Y0238773D01*
X0206200Y0238051D02*
X0206450Y0237801D01*
X0206450Y0237300D01*
X0206200Y0237050D01*
X0205199Y0238051D01*
X0206200Y0238051D01*
X0206200Y0237050D02*
X0205199Y0237050D01*
X0204949Y0237300D01*
X0204949Y0237801D01*
X0205199Y0238051D01*
X0204949Y0240733D02*
X0205699Y0240733D01*
X0205449Y0241234D01*
X0205449Y0241484D01*
X0205699Y0241734D01*
X0206200Y0241734D01*
X0206450Y0241484D01*
X0206450Y0240983D01*
X0206200Y0240733D01*
X0204949Y0240733D02*
X0204949Y0241734D01*
X0204949Y0242206D02*
X0204949Y0242957D01*
X0205199Y0243207D01*
X0205699Y0243207D01*
X0205950Y0242957D01*
X0205950Y0242206D01*
X0206450Y0242206D02*
X0204949Y0242206D01*
X0205950Y0242707D02*
X0206450Y0243207D01*
X0223050Y0227451D02*
X0223751Y0227451D01*
X0223984Y0227218D01*
X0223984Y0226751D01*
X0223751Y0226517D01*
X0223050Y0226517D01*
X0223050Y0226050D02*
X0223050Y0227451D01*
X0224431Y0226984D02*
X0224898Y0227451D01*
X0225365Y0226984D01*
X0225365Y0226050D01*
X0225812Y0226284D02*
X0226746Y0227218D01*
X0226746Y0226284D01*
X0226513Y0226050D01*
X0226046Y0226050D01*
X0225812Y0226284D01*
X0225812Y0227218D01*
X0226046Y0227451D01*
X0226513Y0227451D01*
X0226746Y0227218D01*
X0227194Y0227451D02*
X0227194Y0226751D01*
X0227661Y0226984D01*
X0227894Y0226984D01*
X0228128Y0226751D01*
X0228128Y0226284D01*
X0227894Y0226050D01*
X0227427Y0226050D01*
X0227194Y0226284D01*
X0227194Y0227451D02*
X0228128Y0227451D01*
X0225365Y0226751D02*
X0224431Y0226751D01*
X0224431Y0226984D02*
X0224431Y0226050D01*
X0233050Y0226050D02*
X0233050Y0227451D01*
X0233751Y0227451D01*
X0233984Y0227218D01*
X0233984Y0226751D01*
X0233751Y0226517D01*
X0233050Y0226517D01*
X0234431Y0226751D02*
X0235365Y0226751D01*
X0235365Y0226984D02*
X0235365Y0226050D01*
X0235812Y0226284D02*
X0236746Y0227218D01*
X0236746Y0226284D01*
X0236513Y0226050D01*
X0236046Y0226050D01*
X0235812Y0226284D01*
X0235812Y0227218D01*
X0236046Y0227451D01*
X0236513Y0227451D01*
X0236746Y0227218D01*
X0237194Y0226751D02*
X0238128Y0226751D01*
X0237894Y0227451D02*
X0237194Y0226751D01*
X0237894Y0227451D02*
X0237894Y0226050D01*
X0235365Y0226984D02*
X0234898Y0227451D01*
X0234431Y0226984D01*
X0234431Y0226050D01*
X0243050Y0226050D02*
X0243050Y0227451D01*
X0243751Y0227451D01*
X0243984Y0227218D01*
X0243984Y0226751D01*
X0243751Y0226517D01*
X0243050Y0226517D01*
X0244431Y0226751D02*
X0245132Y0226751D01*
X0245365Y0226517D01*
X0245365Y0226284D01*
X0245132Y0226050D01*
X0244431Y0226050D01*
X0244431Y0227451D01*
X0245132Y0227451D01*
X0245365Y0227218D01*
X0245365Y0226984D01*
X0245132Y0226751D01*
X0245812Y0227218D02*
X0246046Y0227451D01*
X0246513Y0227451D01*
X0246746Y0227218D01*
X0245812Y0226284D01*
X0246046Y0226050D01*
X0246513Y0226050D01*
X0246746Y0226284D01*
X0246746Y0227218D01*
X0247194Y0226751D02*
X0248128Y0226751D01*
X0247894Y0227451D02*
X0247194Y0226751D01*
X0247894Y0227451D02*
X0247894Y0226050D01*
X0245812Y0226284D02*
X0245812Y0227218D01*
X0218128Y0218218D02*
X0217894Y0218451D01*
X0217427Y0218451D01*
X0217194Y0218218D01*
X0216746Y0218218D02*
X0215812Y0217284D01*
X0216046Y0217050D01*
X0216513Y0217050D01*
X0216746Y0217284D01*
X0216746Y0218218D01*
X0216513Y0218451D01*
X0216046Y0218451D01*
X0215812Y0218218D01*
X0215812Y0217284D01*
X0215365Y0217050D02*
X0215365Y0217984D01*
X0214898Y0218451D01*
X0214431Y0217984D01*
X0214431Y0217050D01*
X0214431Y0217751D02*
X0215365Y0217751D01*
X0213984Y0217751D02*
X0213751Y0217517D01*
X0213050Y0217517D01*
X0213050Y0217050D02*
X0213050Y0218451D01*
X0213751Y0218451D01*
X0213984Y0218218D01*
X0213984Y0217751D01*
X0217194Y0217050D02*
X0218128Y0217984D01*
X0218128Y0218218D01*
X0218128Y0217050D02*
X0217194Y0217050D01*
X0208128Y0217284D02*
X0207894Y0217050D01*
X0207427Y0217050D01*
X0207194Y0217284D01*
X0206746Y0217284D02*
X0206513Y0217050D01*
X0206046Y0217050D01*
X0205812Y0217284D01*
X0206746Y0218218D01*
X0206746Y0217284D01*
X0206746Y0218218D02*
X0206513Y0218451D01*
X0206046Y0218451D01*
X0205812Y0218218D01*
X0205812Y0217284D01*
X0205365Y0217050D02*
X0205365Y0217984D01*
X0204898Y0218451D01*
X0204431Y0217984D01*
X0204431Y0217050D01*
X0204431Y0217751D02*
X0205365Y0217751D01*
X0203984Y0217751D02*
X0203751Y0217517D01*
X0203050Y0217517D01*
X0203050Y0217050D02*
X0203050Y0218451D01*
X0203751Y0218451D01*
X0203984Y0218218D01*
X0203984Y0217751D01*
X0207194Y0218218D02*
X0207427Y0218451D01*
X0207894Y0218451D01*
X0208128Y0218218D01*
X0208128Y0217984D01*
X0207894Y0217751D01*
X0208128Y0217517D01*
X0208128Y0217284D01*
X0207894Y0217751D02*
X0207661Y0217751D01*
X0183651Y0200216D02*
X0183651Y0198949D01*
X0183651Y0199582D02*
X0181749Y0199582D01*
X0182383Y0198949D01*
X0182066Y0198375D02*
X0181749Y0198058D01*
X0181749Y0197424D01*
X0182066Y0197107D01*
X0183334Y0197107D01*
X0183651Y0197424D01*
X0183651Y0198058D01*
X0183334Y0198375D01*
X0183334Y0196533D02*
X0181749Y0196533D01*
X0181749Y0195265D02*
X0183334Y0195265D01*
X0183651Y0195582D01*
X0183651Y0196216D01*
X0183334Y0196533D01*
X0203050Y0196517D02*
X0203751Y0196517D01*
X0203984Y0196751D01*
X0203984Y0197218D01*
X0203751Y0197451D01*
X0203050Y0197451D01*
X0203050Y0196050D01*
X0204431Y0196050D02*
X0204431Y0197451D01*
X0205132Y0197451D01*
X0205365Y0197218D01*
X0205365Y0196984D01*
X0205132Y0196751D01*
X0204431Y0196751D01*
X0205132Y0196751D02*
X0205365Y0196517D01*
X0205365Y0196284D01*
X0205132Y0196050D01*
X0204431Y0196050D01*
X0205812Y0196284D02*
X0206746Y0197218D01*
X0206746Y0196284D01*
X0206513Y0196050D01*
X0206046Y0196050D01*
X0205812Y0196284D01*
X0205812Y0197218D01*
X0206046Y0197451D01*
X0206513Y0197451D01*
X0206746Y0197218D01*
X0207194Y0197218D02*
X0207427Y0197451D01*
X0207894Y0197451D01*
X0208128Y0197218D01*
X0208128Y0196984D01*
X0207894Y0196751D01*
X0208128Y0196517D01*
X0208128Y0196284D01*
X0207894Y0196050D01*
X0207427Y0196050D01*
X0207194Y0196284D01*
X0207661Y0196751D02*
X0207894Y0196751D01*
X0213050Y0196517D02*
X0213751Y0196517D01*
X0213984Y0196751D01*
X0213984Y0197218D01*
X0213751Y0197451D01*
X0213050Y0197451D01*
X0213050Y0196050D01*
X0214431Y0196050D02*
X0215132Y0196050D01*
X0215365Y0196284D01*
X0215365Y0196517D01*
X0215132Y0196751D01*
X0214431Y0196751D01*
X0214431Y0197451D02*
X0214431Y0196050D01*
X0215132Y0196751D02*
X0215365Y0196984D01*
X0215365Y0197218D01*
X0215132Y0197451D01*
X0214431Y0197451D01*
X0215812Y0197218D02*
X0216046Y0197451D01*
X0216513Y0197451D01*
X0216746Y0197218D01*
X0215812Y0196284D01*
X0216046Y0196050D01*
X0216513Y0196050D01*
X0216746Y0196284D01*
X0216746Y0197218D01*
X0217194Y0197218D02*
X0217427Y0197451D01*
X0217894Y0197451D01*
X0218128Y0197218D01*
X0218128Y0196984D01*
X0217194Y0196050D01*
X0218128Y0196050D01*
X0215812Y0196284D02*
X0215812Y0197218D01*
X0223050Y0197451D02*
X0223050Y0196050D01*
X0223050Y0196517D02*
X0223751Y0196517D01*
X0223984Y0196751D01*
X0223984Y0197218D01*
X0223751Y0197451D01*
X0223050Y0197451D01*
X0224431Y0197451D02*
X0225132Y0197451D01*
X0225365Y0197218D01*
X0225365Y0196984D01*
X0225132Y0196751D01*
X0224431Y0196751D01*
X0224431Y0197451D02*
X0224431Y0196050D01*
X0225132Y0196050D01*
X0225365Y0196284D01*
X0225365Y0196517D01*
X0225132Y0196751D01*
X0225812Y0196284D02*
X0225812Y0197218D01*
X0226046Y0197451D01*
X0226513Y0197451D01*
X0226746Y0197218D01*
X0225812Y0196284D01*
X0226046Y0196050D01*
X0226513Y0196050D01*
X0226746Y0196284D01*
X0226746Y0197218D01*
X0227194Y0196984D02*
X0227661Y0197451D01*
X0227661Y0196050D01*
X0227194Y0196050D02*
X0228128Y0196050D01*
X0233050Y0196050D02*
X0233050Y0197451D01*
X0233751Y0197451D01*
X0233984Y0197218D01*
X0233984Y0196751D01*
X0233751Y0196517D01*
X0233050Y0196517D01*
X0234431Y0196751D02*
X0235132Y0196751D01*
X0235365Y0196517D01*
X0235365Y0196284D01*
X0235132Y0196050D01*
X0234431Y0196050D01*
X0234431Y0197451D01*
X0235132Y0197451D01*
X0235365Y0197218D01*
X0235365Y0196984D01*
X0235132Y0196751D01*
X0235812Y0197218D02*
X0236046Y0197451D01*
X0236513Y0197451D01*
X0236746Y0197218D01*
X0235812Y0196284D01*
X0236046Y0196050D01*
X0236513Y0196050D01*
X0236746Y0196284D01*
X0236746Y0197218D01*
X0237194Y0197218D02*
X0237427Y0197451D01*
X0237894Y0197451D01*
X0238128Y0197218D01*
X0237194Y0196284D01*
X0237427Y0196050D01*
X0237894Y0196050D01*
X0238128Y0196284D01*
X0238128Y0197218D01*
X0237194Y0197218D02*
X0237194Y0196284D01*
X0235812Y0196284D02*
X0235812Y0197218D01*
X0208128Y0188451D02*
X0207194Y0188451D01*
X0207194Y0187751D01*
X0207661Y0187984D01*
X0207894Y0187984D01*
X0208128Y0187751D01*
X0208128Y0187284D01*
X0207894Y0187050D01*
X0207427Y0187050D01*
X0207194Y0187284D01*
X0206746Y0187284D02*
X0206513Y0187050D01*
X0206046Y0187050D01*
X0205812Y0187284D01*
X0206746Y0188218D01*
X0206746Y0187284D01*
X0205812Y0187284D02*
X0205812Y0188218D01*
X0206046Y0188451D01*
X0206513Y0188451D01*
X0206746Y0188218D01*
X0205365Y0188218D02*
X0205365Y0187984D01*
X0205132Y0187751D01*
X0204431Y0187751D01*
X0203984Y0187751D02*
X0203751Y0187517D01*
X0203050Y0187517D01*
X0203050Y0187050D02*
X0203050Y0188451D01*
X0203751Y0188451D01*
X0203984Y0188218D01*
X0203984Y0187751D01*
X0204431Y0188451D02*
X0205132Y0188451D01*
X0205365Y0188218D01*
X0205132Y0187751D02*
X0205365Y0187517D01*
X0205365Y0187284D01*
X0205132Y0187050D01*
X0204431Y0187050D01*
X0204431Y0188451D01*
X0161128Y0221284D02*
X0161128Y0222218D01*
X0160894Y0222451D01*
X0160427Y0222451D01*
X0160194Y0222218D01*
X0160194Y0221984D01*
X0160427Y0221751D01*
X0161128Y0221751D01*
X0161128Y0221284D02*
X0160894Y0221050D01*
X0160427Y0221050D01*
X0160194Y0221284D01*
X0159746Y0221284D02*
X0159513Y0221050D01*
X0159046Y0221050D01*
X0158812Y0221284D01*
X0159746Y0222218D01*
X0159746Y0221284D01*
X0159746Y0222218D02*
X0159513Y0222451D01*
X0159046Y0222451D01*
X0158812Y0222218D01*
X0158812Y0221284D01*
X0158365Y0221284D02*
X0158132Y0221050D01*
X0157431Y0221050D01*
X0157431Y0222451D01*
X0158132Y0222451D01*
X0158365Y0222218D01*
X0158365Y0221984D01*
X0158132Y0221751D01*
X0157431Y0221751D01*
X0156984Y0221751D02*
X0156751Y0221517D01*
X0156050Y0221517D01*
X0156050Y0221050D02*
X0156050Y0222451D01*
X0156751Y0222451D01*
X0156984Y0222218D01*
X0156984Y0221751D01*
X0158132Y0221751D02*
X0158365Y0221517D01*
X0158365Y0221284D01*
X0213987Y0291168D02*
X0214446Y0291856D01*
X0213987Y0291856D02*
X0214446Y0291168D01*
X0216972Y0294318D02*
X0216972Y0294662D01*
X0217202Y0294891D01*
X0217202Y0295006D01*
X0216972Y0294662D02*
X0216743Y0294891D01*
X0216743Y0295006D01*
X0048476Y0308452D02*
X0047208Y0308452D01*
X0047208Y0306550D01*
X0046635Y0306550D02*
X0046635Y0307818D01*
X0047208Y0307501D02*
X0047842Y0307501D01*
X0046635Y0306550D02*
X0045684Y0306550D01*
X0045367Y0306867D01*
X0045367Y0307818D01*
X0044159Y0308452D02*
X0044159Y0306550D01*
X0043525Y0306550D02*
X0044793Y0306550D01*
X0043525Y0307818D02*
X0044159Y0308452D01*
X0044184Y0299952D02*
X0043867Y0299635D01*
X0044184Y0299952D02*
X0044818Y0299952D01*
X0045135Y0299635D01*
X0045135Y0299318D01*
X0043867Y0298050D01*
X0045135Y0298050D01*
X0045708Y0298367D02*
X0046025Y0298050D01*
X0046659Y0298050D01*
X0046976Y0298367D01*
X0046976Y0298684D01*
X0046659Y0299001D01*
X0046342Y0299001D01*
X0046659Y0299001D02*
X0046976Y0299318D01*
X0046976Y0299635D01*
X0046659Y0299952D01*
X0046025Y0299952D01*
X0045708Y0299635D01*
X0043293Y0299635D02*
X0042976Y0299952D01*
X0042342Y0299952D01*
X0042025Y0299635D01*
X0042025Y0298367D01*
X0042342Y0298050D01*
X0042976Y0298050D01*
X0043293Y0298367D01*
X0038476Y0289452D02*
X0037208Y0289452D01*
X0037208Y0287550D01*
X0036635Y0287550D02*
X0036635Y0288818D01*
X0037208Y0288501D02*
X0037842Y0288501D01*
X0036635Y0287550D02*
X0035684Y0287550D01*
X0035367Y0287867D01*
X0035367Y0288818D01*
X0034159Y0289452D02*
X0034159Y0287550D01*
X0033525Y0287550D02*
X0034793Y0287550D01*
X0033525Y0288818D02*
X0034159Y0289452D01*
X0032921Y0287867D02*
X0032921Y0287550D01*
X0032604Y0287550D01*
X0032604Y0287867D01*
X0032921Y0287867D01*
X0032031Y0287867D02*
X0031714Y0287550D01*
X0031080Y0287550D01*
X0030763Y0287867D01*
X0032031Y0289135D01*
X0032031Y0287867D01*
X0032031Y0289135D02*
X0031714Y0289452D01*
X0031080Y0289452D01*
X0030763Y0289135D01*
X0030763Y0287867D01*
X0033342Y0281952D02*
X0033025Y0281635D01*
X0033025Y0280367D01*
X0033342Y0280050D01*
X0033976Y0280050D01*
X0034293Y0280367D01*
X0034867Y0280050D02*
X0036135Y0281318D01*
X0036135Y0281635D01*
X0035818Y0281952D01*
X0035184Y0281952D01*
X0034867Y0281635D01*
X0034293Y0281635D02*
X0033976Y0281952D01*
X0033342Y0281952D01*
X0034867Y0280050D02*
X0036135Y0280050D01*
X0036708Y0280050D02*
X0037976Y0280050D01*
X0037342Y0280050D02*
X0037342Y0281952D01*
X0036708Y0281318D01*
X0025499Y0264129D02*
X0025499Y0263495D01*
X0025182Y0262922D02*
X0026450Y0262922D01*
X0026450Y0261971D01*
X0026133Y0261654D01*
X0025182Y0261654D01*
X0024548Y0260446D02*
X0026450Y0260446D01*
X0026450Y0259812D02*
X0026450Y0261080D01*
X0025182Y0259812D02*
X0024548Y0260446D01*
X0026133Y0259209D02*
X0026450Y0259209D01*
X0026450Y0258892D01*
X0026133Y0258892D01*
X0026133Y0259209D01*
X0026133Y0258318D02*
X0026450Y0258001D01*
X0026450Y0257367D01*
X0026133Y0257050D01*
X0024865Y0258318D01*
X0026133Y0258318D01*
X0024865Y0258318D02*
X0024548Y0258001D01*
X0024548Y0257367D01*
X0024865Y0257050D01*
X0026133Y0257050D01*
X0018950Y0257867D02*
X0018950Y0258501D01*
X0018633Y0258818D01*
X0018950Y0259392D02*
X0017682Y0260659D01*
X0017365Y0260659D01*
X0017048Y0260342D01*
X0017048Y0259709D01*
X0017365Y0259392D01*
X0017365Y0258818D02*
X0017048Y0258501D01*
X0017048Y0257867D01*
X0017365Y0257550D01*
X0018633Y0257550D01*
X0018950Y0257867D01*
X0018950Y0259392D02*
X0018950Y0260659D01*
X0018950Y0261233D02*
X0017682Y0262501D01*
X0017365Y0262501D01*
X0017048Y0262184D01*
X0017048Y0261550D01*
X0017365Y0261233D01*
X0018950Y0261233D02*
X0018950Y0262501D01*
X0024548Y0263495D02*
X0024548Y0264763D01*
X0024548Y0263495D02*
X0026450Y0263495D01*
D13*
X0115031Y0257937D02*
X0115033Y0257910D01*
X0115038Y0257884D01*
X0115047Y0257859D01*
X0115060Y0257835D01*
X0115075Y0257813D01*
X0115094Y0257793D01*
X0115114Y0257776D01*
X0115137Y0257762D01*
X0115162Y0257751D01*
X0115188Y0257744D01*
X0115215Y0257740D01*
X0115241Y0257740D01*
X0115268Y0257744D01*
X0115294Y0257751D01*
X0115319Y0257762D01*
X0115342Y0257776D01*
X0115362Y0257793D01*
X0115381Y0257813D01*
X0115396Y0257835D01*
X0115409Y0257859D01*
X0115418Y0257884D01*
X0115423Y0257910D01*
X0115425Y0257937D01*
X0115031Y0257937D02*
X0115033Y0257976D01*
X0115039Y0258015D01*
X0115049Y0258053D01*
X0115062Y0258090D01*
X0115079Y0258125D01*
X0115099Y0258159D01*
X0115123Y0258190D01*
X0115150Y0258219D01*
X0115179Y0258245D01*
X0115211Y0258268D01*
X0115245Y0258288D01*
X0115281Y0258304D01*
X0115318Y0258316D01*
X0115357Y0258325D01*
X0115396Y0258330D01*
X0115435Y0258331D01*
X0115474Y0258328D01*
X0115513Y0258321D01*
X0115550Y0258310D01*
X0115587Y0258296D01*
X0115622Y0258278D01*
X0115655Y0258257D01*
X0115686Y0258232D01*
X0115714Y0258205D01*
X0115739Y0258175D01*
X0115761Y0258142D01*
X0115780Y0258108D01*
X0115795Y0258072D01*
X0115807Y0258034D01*
X0115815Y0257996D01*
X0115819Y0257957D01*
X0115819Y0257917D01*
X0115815Y0257878D01*
X0115807Y0257840D01*
X0115795Y0257802D01*
X0115780Y0257766D01*
X0115761Y0257732D01*
X0115739Y0257699D01*
X0115714Y0257669D01*
X0115686Y0257642D01*
X0115655Y0257617D01*
X0115622Y0257596D01*
X0115587Y0257578D01*
X0115550Y0257564D01*
X0115513Y0257553D01*
X0115474Y0257546D01*
X0115435Y0257543D01*
X0115396Y0257544D01*
X0115357Y0257549D01*
X0115318Y0257558D01*
X0115281Y0257570D01*
X0115245Y0257586D01*
X0115211Y0257606D01*
X0115179Y0257629D01*
X0115150Y0257655D01*
X0115123Y0257684D01*
X0115099Y0257715D01*
X0115079Y0257749D01*
X0115062Y0257784D01*
X0115049Y0257821D01*
X0115039Y0257859D01*
X0115033Y0257898D01*
X0115031Y0257937D01*
X0114868Y0257937D02*
X0114870Y0257984D01*
X0114876Y0258030D01*
X0114885Y0258076D01*
X0114899Y0258120D01*
X0114916Y0258164D01*
X0114937Y0258205D01*
X0114961Y0258245D01*
X0114988Y0258283D01*
X0115019Y0258318D01*
X0115052Y0258351D01*
X0115088Y0258381D01*
X0115127Y0258407D01*
X0115167Y0258431D01*
X0115209Y0258450D01*
X0115253Y0258467D01*
X0115298Y0258479D01*
X0115344Y0258488D01*
X0115390Y0258493D01*
X0115437Y0258494D01*
X0115483Y0258491D01*
X0115529Y0258484D01*
X0115575Y0258473D01*
X0115619Y0258459D01*
X0115662Y0258441D01*
X0115703Y0258419D01*
X0115743Y0258394D01*
X0115780Y0258366D01*
X0115815Y0258335D01*
X0115847Y0258301D01*
X0115876Y0258264D01*
X0115901Y0258226D01*
X0115924Y0258185D01*
X0115943Y0258142D01*
X0115958Y0258098D01*
X0115970Y0258053D01*
X0115978Y0258007D01*
X0115982Y0257960D01*
X0115982Y0257914D01*
X0115978Y0257867D01*
X0115970Y0257821D01*
X0115958Y0257776D01*
X0115943Y0257732D01*
X0115924Y0257689D01*
X0115901Y0257648D01*
X0115876Y0257610D01*
X0115847Y0257573D01*
X0115815Y0257539D01*
X0115780Y0257508D01*
X0115743Y0257480D01*
X0115704Y0257455D01*
X0115662Y0257433D01*
X0115619Y0257415D01*
X0115575Y0257401D01*
X0115529Y0257390D01*
X0115483Y0257383D01*
X0115437Y0257380D01*
X0115390Y0257381D01*
X0115344Y0257386D01*
X0115298Y0257395D01*
X0115253Y0257407D01*
X0115209Y0257424D01*
X0115167Y0257443D01*
X0115127Y0257467D01*
X0115088Y0257493D01*
X0115052Y0257523D01*
X0115019Y0257556D01*
X0114988Y0257591D01*
X0114961Y0257629D01*
X0114937Y0257669D01*
X0114916Y0257710D01*
X0114899Y0257754D01*
X0114885Y0257798D01*
X0114876Y0257844D01*
X0114870Y0257890D01*
X0114868Y0257937D01*
X0144031Y0258937D02*
X0144033Y0258910D01*
X0144038Y0258884D01*
X0144047Y0258859D01*
X0144060Y0258835D01*
X0144075Y0258813D01*
X0144094Y0258793D01*
X0144114Y0258776D01*
X0144137Y0258762D01*
X0144162Y0258751D01*
X0144188Y0258744D01*
X0144215Y0258740D01*
X0144241Y0258740D01*
X0144268Y0258744D01*
X0144294Y0258751D01*
X0144319Y0258762D01*
X0144342Y0258776D01*
X0144362Y0258793D01*
X0144381Y0258813D01*
X0144396Y0258835D01*
X0144409Y0258859D01*
X0144418Y0258884D01*
X0144423Y0258910D01*
X0144425Y0258937D01*
X0144031Y0258937D02*
X0144033Y0258976D01*
X0144039Y0259015D01*
X0144049Y0259053D01*
X0144062Y0259090D01*
X0144079Y0259125D01*
X0144099Y0259159D01*
X0144123Y0259190D01*
X0144150Y0259219D01*
X0144179Y0259245D01*
X0144211Y0259268D01*
X0144245Y0259288D01*
X0144281Y0259304D01*
X0144318Y0259316D01*
X0144357Y0259325D01*
X0144396Y0259330D01*
X0144435Y0259331D01*
X0144474Y0259328D01*
X0144513Y0259321D01*
X0144550Y0259310D01*
X0144587Y0259296D01*
X0144622Y0259278D01*
X0144655Y0259257D01*
X0144686Y0259232D01*
X0144714Y0259205D01*
X0144739Y0259175D01*
X0144761Y0259142D01*
X0144780Y0259108D01*
X0144795Y0259072D01*
X0144807Y0259034D01*
X0144815Y0258996D01*
X0144819Y0258957D01*
X0144819Y0258917D01*
X0144815Y0258878D01*
X0144807Y0258840D01*
X0144795Y0258802D01*
X0144780Y0258766D01*
X0144761Y0258732D01*
X0144739Y0258699D01*
X0144714Y0258669D01*
X0144686Y0258642D01*
X0144655Y0258617D01*
X0144622Y0258596D01*
X0144587Y0258578D01*
X0144550Y0258564D01*
X0144513Y0258553D01*
X0144474Y0258546D01*
X0144435Y0258543D01*
X0144396Y0258544D01*
X0144357Y0258549D01*
X0144318Y0258558D01*
X0144281Y0258570D01*
X0144245Y0258586D01*
X0144211Y0258606D01*
X0144179Y0258629D01*
X0144150Y0258655D01*
X0144123Y0258684D01*
X0144099Y0258715D01*
X0144079Y0258749D01*
X0144062Y0258784D01*
X0144049Y0258821D01*
X0144039Y0258859D01*
X0144033Y0258898D01*
X0144031Y0258937D01*
X0143868Y0258937D02*
X0143870Y0258984D01*
X0143876Y0259030D01*
X0143885Y0259076D01*
X0143899Y0259120D01*
X0143916Y0259164D01*
X0143937Y0259205D01*
X0143961Y0259245D01*
X0143988Y0259283D01*
X0144019Y0259318D01*
X0144052Y0259351D01*
X0144088Y0259381D01*
X0144127Y0259407D01*
X0144167Y0259431D01*
X0144209Y0259450D01*
X0144253Y0259467D01*
X0144298Y0259479D01*
X0144344Y0259488D01*
X0144390Y0259493D01*
X0144437Y0259494D01*
X0144483Y0259491D01*
X0144529Y0259484D01*
X0144575Y0259473D01*
X0144619Y0259459D01*
X0144662Y0259441D01*
X0144703Y0259419D01*
X0144743Y0259394D01*
X0144780Y0259366D01*
X0144815Y0259335D01*
X0144847Y0259301D01*
X0144876Y0259264D01*
X0144901Y0259226D01*
X0144924Y0259185D01*
X0144943Y0259142D01*
X0144958Y0259098D01*
X0144970Y0259053D01*
X0144978Y0259007D01*
X0144982Y0258960D01*
X0144982Y0258914D01*
X0144978Y0258867D01*
X0144970Y0258821D01*
X0144958Y0258776D01*
X0144943Y0258732D01*
X0144924Y0258689D01*
X0144901Y0258648D01*
X0144876Y0258610D01*
X0144847Y0258573D01*
X0144815Y0258539D01*
X0144780Y0258508D01*
X0144743Y0258480D01*
X0144704Y0258455D01*
X0144662Y0258433D01*
X0144619Y0258415D01*
X0144575Y0258401D01*
X0144529Y0258390D01*
X0144483Y0258383D01*
X0144437Y0258380D01*
X0144390Y0258381D01*
X0144344Y0258386D01*
X0144298Y0258395D01*
X0144253Y0258407D01*
X0144209Y0258424D01*
X0144167Y0258443D01*
X0144127Y0258467D01*
X0144088Y0258493D01*
X0144052Y0258523D01*
X0144019Y0258556D01*
X0143988Y0258591D01*
X0143961Y0258629D01*
X0143937Y0258669D01*
X0143916Y0258710D01*
X0143899Y0258754D01*
X0143885Y0258798D01*
X0143876Y0258844D01*
X0143870Y0258890D01*
X0143868Y0258937D01*
X0144299Y0189717D02*
X0144299Y0154283D01*
X0179732Y0154283D01*
X0179732Y0189717D01*
X0144299Y0189717D01*
X0175438Y0186528D02*
X0175440Y0186589D01*
X0175446Y0186650D01*
X0175456Y0186711D01*
X0175470Y0186771D01*
X0175487Y0186830D01*
X0175509Y0186887D01*
X0175534Y0186943D01*
X0175562Y0186998D01*
X0175595Y0187050D01*
X0175630Y0187100D01*
X0175669Y0187148D01*
X0175710Y0187193D01*
X0175755Y0187235D01*
X0175802Y0187275D01*
X0175851Y0187311D01*
X0175903Y0187344D01*
X0175957Y0187373D01*
X0176013Y0187399D01*
X0176070Y0187422D01*
X0176128Y0187440D01*
X0176188Y0187455D01*
X0176248Y0187466D01*
X0176309Y0187473D01*
X0176371Y0187476D01*
X0176432Y0187475D01*
X0176493Y0187470D01*
X0176554Y0187461D01*
X0176614Y0187448D01*
X0176673Y0187431D01*
X0176731Y0187411D01*
X0176787Y0187387D01*
X0176842Y0187359D01*
X0176895Y0187328D01*
X0176946Y0187293D01*
X0176994Y0187255D01*
X0177040Y0187214D01*
X0177083Y0187171D01*
X0177123Y0187124D01*
X0177160Y0187075D01*
X0177194Y0187024D01*
X0177224Y0186971D01*
X0177251Y0186915D01*
X0177274Y0186859D01*
X0177294Y0186800D01*
X0177310Y0186741D01*
X0177322Y0186681D01*
X0177330Y0186620D01*
X0177334Y0186559D01*
X0177334Y0186497D01*
X0177330Y0186436D01*
X0177322Y0186375D01*
X0177310Y0186315D01*
X0177294Y0186256D01*
X0177274Y0186197D01*
X0177251Y0186141D01*
X0177224Y0186085D01*
X0177194Y0186032D01*
X0177160Y0185981D01*
X0177123Y0185932D01*
X0177083Y0185885D01*
X0177040Y0185842D01*
X0176994Y0185801D01*
X0176946Y0185763D01*
X0176895Y0185728D01*
X0176842Y0185697D01*
X0176787Y0185669D01*
X0176731Y0185645D01*
X0176673Y0185625D01*
X0176614Y0185608D01*
X0176554Y0185595D01*
X0176493Y0185586D01*
X0176432Y0185581D01*
X0176371Y0185580D01*
X0176309Y0185583D01*
X0176248Y0185590D01*
X0176188Y0185601D01*
X0176128Y0185616D01*
X0176070Y0185634D01*
X0176013Y0185657D01*
X0175957Y0185683D01*
X0175903Y0185712D01*
X0175851Y0185745D01*
X0175802Y0185781D01*
X0175755Y0185821D01*
X0175710Y0185863D01*
X0175669Y0185908D01*
X0175630Y0185956D01*
X0175595Y0186006D01*
X0175562Y0186058D01*
X0175534Y0186113D01*
X0175509Y0186169D01*
X0175487Y0186226D01*
X0175470Y0186285D01*
X0175456Y0186345D01*
X0175446Y0186406D01*
X0175440Y0186467D01*
X0175438Y0186528D01*
X0176262Y0186488D02*
X0176264Y0186510D01*
X0176269Y0186530D01*
X0176279Y0186550D01*
X0176291Y0186568D01*
X0176306Y0186583D01*
X0176324Y0186595D01*
X0176344Y0186605D01*
X0176364Y0186610D01*
X0176386Y0186612D01*
X0176408Y0186610D01*
X0176428Y0186605D01*
X0176448Y0186595D01*
X0176466Y0186583D01*
X0176481Y0186568D01*
X0176493Y0186550D01*
X0176503Y0186530D01*
X0176508Y0186510D01*
X0176510Y0186488D01*
X0176508Y0186466D01*
X0176503Y0186446D01*
X0176493Y0186426D01*
X0176481Y0186408D01*
X0176466Y0186393D01*
X0176448Y0186381D01*
X0176428Y0186371D01*
X0176408Y0186366D01*
X0176386Y0186364D01*
X0176364Y0186366D01*
X0176344Y0186371D01*
X0176324Y0186381D01*
X0176306Y0186393D01*
X0176291Y0186408D01*
X0176279Y0186426D01*
X0176269Y0186446D01*
X0176264Y0186466D01*
X0176262Y0186488D01*
X0175868Y0186488D02*
X0175870Y0186533D01*
X0175876Y0186578D01*
X0175886Y0186622D01*
X0175899Y0186665D01*
X0175917Y0186707D01*
X0175937Y0186747D01*
X0175962Y0186785D01*
X0175989Y0186821D01*
X0176020Y0186854D01*
X0176053Y0186885D01*
X0176089Y0186912D01*
X0176127Y0186937D01*
X0176167Y0186957D01*
X0176209Y0186975D01*
X0176252Y0186988D01*
X0176296Y0186998D01*
X0176341Y0187004D01*
X0176386Y0187006D01*
X0176431Y0187004D01*
X0176476Y0186998D01*
X0176520Y0186988D01*
X0176563Y0186975D01*
X0176605Y0186957D01*
X0176645Y0186937D01*
X0176683Y0186912D01*
X0176719Y0186885D01*
X0176752Y0186854D01*
X0176783Y0186821D01*
X0176810Y0186785D01*
X0176835Y0186747D01*
X0176855Y0186707D01*
X0176873Y0186665D01*
X0176886Y0186622D01*
X0176896Y0186578D01*
X0176902Y0186533D01*
X0176904Y0186488D01*
X0176902Y0186443D01*
X0176896Y0186398D01*
X0176886Y0186354D01*
X0176873Y0186311D01*
X0176855Y0186269D01*
X0176835Y0186229D01*
X0176810Y0186191D01*
X0176783Y0186155D01*
X0176752Y0186122D01*
X0176719Y0186091D01*
X0176683Y0186064D01*
X0176645Y0186039D01*
X0176605Y0186019D01*
X0176563Y0186001D01*
X0176520Y0185988D01*
X0176476Y0185978D01*
X0176431Y0185972D01*
X0176386Y0185970D01*
X0176341Y0185972D01*
X0176296Y0185978D01*
X0176252Y0185988D01*
X0176209Y0186001D01*
X0176167Y0186019D01*
X0176127Y0186039D01*
X0176089Y0186064D01*
X0176053Y0186091D01*
X0176020Y0186122D01*
X0175989Y0186155D01*
X0175962Y0186191D01*
X0175937Y0186229D01*
X0175917Y0186269D01*
X0175899Y0186311D01*
X0175886Y0186354D01*
X0175876Y0186398D01*
X0175870Y0186443D01*
X0175868Y0186488D01*
X0161000Y0125500D02*
X0193929Y0125500D01*
X0193929Y0109600D01*
X0192100Y0109600D01*
X0192100Y0107400D01*
X0193929Y0107400D01*
X0193929Y0105400D01*
X0160800Y0105400D01*
X0160800Y0125300D01*
X0329024Y0063000D02*
X0329029Y0063441D01*
X0329046Y0063882D01*
X0329073Y0064322D01*
X0329111Y0064762D01*
X0329159Y0065200D01*
X0329219Y0065638D01*
X0329289Y0066073D01*
X0329369Y0066507D01*
X0329461Y0066939D01*
X0329563Y0067368D01*
X0329675Y0067794D01*
X0329798Y0068218D01*
X0329931Y0068639D01*
X0330075Y0069056D01*
X0330229Y0069469D01*
X0330392Y0069879D01*
X0330566Y0070285D01*
X0330750Y0070686D01*
X0330943Y0071082D01*
X0331147Y0071474D01*
X0331359Y0071860D01*
X0331581Y0072242D01*
X0331813Y0072617D01*
X0332054Y0072987D01*
X0332303Y0073351D01*
X0332562Y0073708D01*
X0332829Y0074059D01*
X0333104Y0074404D01*
X0333388Y0074741D01*
X0333681Y0075072D01*
X0333981Y0075395D01*
X0334289Y0075711D01*
X0334605Y0076019D01*
X0334928Y0076319D01*
X0335259Y0076612D01*
X0335596Y0076896D01*
X0335941Y0077171D01*
X0336292Y0077438D01*
X0336649Y0077697D01*
X0337013Y0077946D01*
X0337383Y0078187D01*
X0337758Y0078419D01*
X0338140Y0078641D01*
X0338526Y0078853D01*
X0338918Y0079057D01*
X0339314Y0079250D01*
X0339715Y0079434D01*
X0340121Y0079608D01*
X0340531Y0079771D01*
X0340944Y0079925D01*
X0341361Y0080069D01*
X0341782Y0080202D01*
X0342206Y0080325D01*
X0342632Y0080437D01*
X0343061Y0080539D01*
X0343493Y0080631D01*
X0343927Y0080711D01*
X0344362Y0080781D01*
X0344800Y0080841D01*
X0345238Y0080889D01*
X0345678Y0080927D01*
X0346118Y0080954D01*
X0346559Y0080971D01*
X0347000Y0080976D01*
X0347441Y0080971D01*
X0347882Y0080954D01*
X0348322Y0080927D01*
X0348762Y0080889D01*
X0349200Y0080841D01*
X0349638Y0080781D01*
X0350073Y0080711D01*
X0350507Y0080631D01*
X0350939Y0080539D01*
X0351368Y0080437D01*
X0351794Y0080325D01*
X0352218Y0080202D01*
X0352639Y0080069D01*
X0353056Y0079925D01*
X0353469Y0079771D01*
X0353879Y0079608D01*
X0354285Y0079434D01*
X0354686Y0079250D01*
X0355082Y0079057D01*
X0355474Y0078853D01*
X0355860Y0078641D01*
X0356242Y0078419D01*
X0356617Y0078187D01*
X0356987Y0077946D01*
X0357351Y0077697D01*
X0357708Y0077438D01*
X0358059Y0077171D01*
X0358404Y0076896D01*
X0358741Y0076612D01*
X0359072Y0076319D01*
X0359395Y0076019D01*
X0359711Y0075711D01*
X0360019Y0075395D01*
X0360319Y0075072D01*
X0360612Y0074741D01*
X0360896Y0074404D01*
X0361171Y0074059D01*
X0361438Y0073708D01*
X0361697Y0073351D01*
X0361946Y0072987D01*
X0362187Y0072617D01*
X0362419Y0072242D01*
X0362641Y0071860D01*
X0362853Y0071474D01*
X0363057Y0071082D01*
X0363250Y0070686D01*
X0363434Y0070285D01*
X0363608Y0069879D01*
X0363771Y0069469D01*
X0363925Y0069056D01*
X0364069Y0068639D01*
X0364202Y0068218D01*
X0364325Y0067794D01*
X0364437Y0067368D01*
X0364539Y0066939D01*
X0364631Y0066507D01*
X0364711Y0066073D01*
X0364781Y0065638D01*
X0364841Y0065200D01*
X0364889Y0064762D01*
X0364927Y0064322D01*
X0364954Y0063882D01*
X0364971Y0063441D01*
X0364976Y0063000D01*
X0364971Y0062559D01*
X0364954Y0062118D01*
X0364927Y0061678D01*
X0364889Y0061238D01*
X0364841Y0060800D01*
X0364781Y0060362D01*
X0364711Y0059927D01*
X0364631Y0059493D01*
X0364539Y0059061D01*
X0364437Y0058632D01*
X0364325Y0058206D01*
X0364202Y0057782D01*
X0364069Y0057361D01*
X0363925Y0056944D01*
X0363771Y0056531D01*
X0363608Y0056121D01*
X0363434Y0055715D01*
X0363250Y0055314D01*
X0363057Y0054918D01*
X0362853Y0054526D01*
X0362641Y0054140D01*
X0362419Y0053758D01*
X0362187Y0053383D01*
X0361946Y0053013D01*
X0361697Y0052649D01*
X0361438Y0052292D01*
X0361171Y0051941D01*
X0360896Y0051596D01*
X0360612Y0051259D01*
X0360319Y0050928D01*
X0360019Y0050605D01*
X0359711Y0050289D01*
X0359395Y0049981D01*
X0359072Y0049681D01*
X0358741Y0049388D01*
X0358404Y0049104D01*
X0358059Y0048829D01*
X0357708Y0048562D01*
X0357351Y0048303D01*
X0356987Y0048054D01*
X0356617Y0047813D01*
X0356242Y0047581D01*
X0355860Y0047359D01*
X0355474Y0047147D01*
X0355082Y0046943D01*
X0354686Y0046750D01*
X0354285Y0046566D01*
X0353879Y0046392D01*
X0353469Y0046229D01*
X0353056Y0046075D01*
X0352639Y0045931D01*
X0352218Y0045798D01*
X0351794Y0045675D01*
X0351368Y0045563D01*
X0350939Y0045461D01*
X0350507Y0045369D01*
X0350073Y0045289D01*
X0349638Y0045219D01*
X0349200Y0045159D01*
X0348762Y0045111D01*
X0348322Y0045073D01*
X0347882Y0045046D01*
X0347441Y0045029D01*
X0347000Y0045024D01*
X0346559Y0045029D01*
X0346118Y0045046D01*
X0345678Y0045073D01*
X0345238Y0045111D01*
X0344800Y0045159D01*
X0344362Y0045219D01*
X0343927Y0045289D01*
X0343493Y0045369D01*
X0343061Y0045461D01*
X0342632Y0045563D01*
X0342206Y0045675D01*
X0341782Y0045798D01*
X0341361Y0045931D01*
X0340944Y0046075D01*
X0340531Y0046229D01*
X0340121Y0046392D01*
X0339715Y0046566D01*
X0339314Y0046750D01*
X0338918Y0046943D01*
X0338526Y0047147D01*
X0338140Y0047359D01*
X0337758Y0047581D01*
X0337383Y0047813D01*
X0337013Y0048054D01*
X0336649Y0048303D01*
X0336292Y0048562D01*
X0335941Y0048829D01*
X0335596Y0049104D01*
X0335259Y0049388D01*
X0334928Y0049681D01*
X0334605Y0049981D01*
X0334289Y0050289D01*
X0333981Y0050605D01*
X0333681Y0050928D01*
X0333388Y0051259D01*
X0333104Y0051596D01*
X0332829Y0051941D01*
X0332562Y0052292D01*
X0332303Y0052649D01*
X0332054Y0053013D01*
X0331813Y0053383D01*
X0331581Y0053758D01*
X0331359Y0054140D01*
X0331147Y0054526D01*
X0330943Y0054918D01*
X0330750Y0055314D01*
X0330566Y0055715D01*
X0330392Y0056121D01*
X0330229Y0056531D01*
X0330075Y0056944D01*
X0329931Y0057361D01*
X0329798Y0057782D01*
X0329675Y0058206D01*
X0329563Y0058632D01*
X0329461Y0059061D01*
X0329369Y0059493D01*
X0329289Y0059927D01*
X0329219Y0060362D01*
X0329159Y0060800D01*
X0329111Y0061238D01*
X0329073Y0061678D01*
X0329046Y0062118D01*
X0329029Y0062559D01*
X0329024Y0063000D01*
X0412024Y0251000D02*
X0412029Y0251441D01*
X0412046Y0251882D01*
X0412073Y0252322D01*
X0412111Y0252762D01*
X0412159Y0253200D01*
X0412219Y0253638D01*
X0412289Y0254073D01*
X0412369Y0254507D01*
X0412461Y0254939D01*
X0412563Y0255368D01*
X0412675Y0255794D01*
X0412798Y0256218D01*
X0412931Y0256639D01*
X0413075Y0257056D01*
X0413229Y0257469D01*
X0413392Y0257879D01*
X0413566Y0258285D01*
X0413750Y0258686D01*
X0413943Y0259082D01*
X0414147Y0259474D01*
X0414359Y0259860D01*
X0414581Y0260242D01*
X0414813Y0260617D01*
X0415054Y0260987D01*
X0415303Y0261351D01*
X0415562Y0261708D01*
X0415829Y0262059D01*
X0416104Y0262404D01*
X0416388Y0262741D01*
X0416681Y0263072D01*
X0416981Y0263395D01*
X0417289Y0263711D01*
X0417605Y0264019D01*
X0417928Y0264319D01*
X0418259Y0264612D01*
X0418596Y0264896D01*
X0418941Y0265171D01*
X0419292Y0265438D01*
X0419649Y0265697D01*
X0420013Y0265946D01*
X0420383Y0266187D01*
X0420758Y0266419D01*
X0421140Y0266641D01*
X0421526Y0266853D01*
X0421918Y0267057D01*
X0422314Y0267250D01*
X0422715Y0267434D01*
X0423121Y0267608D01*
X0423531Y0267771D01*
X0423944Y0267925D01*
X0424361Y0268069D01*
X0424782Y0268202D01*
X0425206Y0268325D01*
X0425632Y0268437D01*
X0426061Y0268539D01*
X0426493Y0268631D01*
X0426927Y0268711D01*
X0427362Y0268781D01*
X0427800Y0268841D01*
X0428238Y0268889D01*
X0428678Y0268927D01*
X0429118Y0268954D01*
X0429559Y0268971D01*
X0430000Y0268976D01*
X0430441Y0268971D01*
X0430882Y0268954D01*
X0431322Y0268927D01*
X0431762Y0268889D01*
X0432200Y0268841D01*
X0432638Y0268781D01*
X0433073Y0268711D01*
X0433507Y0268631D01*
X0433939Y0268539D01*
X0434368Y0268437D01*
X0434794Y0268325D01*
X0435218Y0268202D01*
X0435639Y0268069D01*
X0436056Y0267925D01*
X0436469Y0267771D01*
X0436879Y0267608D01*
X0437285Y0267434D01*
X0437686Y0267250D01*
X0438082Y0267057D01*
X0438474Y0266853D01*
X0438860Y0266641D01*
X0439242Y0266419D01*
X0439617Y0266187D01*
X0439987Y0265946D01*
X0440351Y0265697D01*
X0440708Y0265438D01*
X0441059Y0265171D01*
X0441404Y0264896D01*
X0441741Y0264612D01*
X0442072Y0264319D01*
X0442395Y0264019D01*
X0442711Y0263711D01*
X0443019Y0263395D01*
X0443319Y0263072D01*
X0443612Y0262741D01*
X0443896Y0262404D01*
X0444171Y0262059D01*
X0444438Y0261708D01*
X0444697Y0261351D01*
X0444946Y0260987D01*
X0445187Y0260617D01*
X0445419Y0260242D01*
X0445641Y0259860D01*
X0445853Y0259474D01*
X0446057Y0259082D01*
X0446250Y0258686D01*
X0446434Y0258285D01*
X0446608Y0257879D01*
X0446771Y0257469D01*
X0446925Y0257056D01*
X0447069Y0256639D01*
X0447202Y0256218D01*
X0447325Y0255794D01*
X0447437Y0255368D01*
X0447539Y0254939D01*
X0447631Y0254507D01*
X0447711Y0254073D01*
X0447781Y0253638D01*
X0447841Y0253200D01*
X0447889Y0252762D01*
X0447927Y0252322D01*
X0447954Y0251882D01*
X0447971Y0251441D01*
X0447976Y0251000D01*
X0447971Y0250559D01*
X0447954Y0250118D01*
X0447927Y0249678D01*
X0447889Y0249238D01*
X0447841Y0248800D01*
X0447781Y0248362D01*
X0447711Y0247927D01*
X0447631Y0247493D01*
X0447539Y0247061D01*
X0447437Y0246632D01*
X0447325Y0246206D01*
X0447202Y0245782D01*
X0447069Y0245361D01*
X0446925Y0244944D01*
X0446771Y0244531D01*
X0446608Y0244121D01*
X0446434Y0243715D01*
X0446250Y0243314D01*
X0446057Y0242918D01*
X0445853Y0242526D01*
X0445641Y0242140D01*
X0445419Y0241758D01*
X0445187Y0241383D01*
X0444946Y0241013D01*
X0444697Y0240649D01*
X0444438Y0240292D01*
X0444171Y0239941D01*
X0443896Y0239596D01*
X0443612Y0239259D01*
X0443319Y0238928D01*
X0443019Y0238605D01*
X0442711Y0238289D01*
X0442395Y0237981D01*
X0442072Y0237681D01*
X0441741Y0237388D01*
X0441404Y0237104D01*
X0441059Y0236829D01*
X0440708Y0236562D01*
X0440351Y0236303D01*
X0439987Y0236054D01*
X0439617Y0235813D01*
X0439242Y0235581D01*
X0438860Y0235359D01*
X0438474Y0235147D01*
X0438082Y0234943D01*
X0437686Y0234750D01*
X0437285Y0234566D01*
X0436879Y0234392D01*
X0436469Y0234229D01*
X0436056Y0234075D01*
X0435639Y0233931D01*
X0435218Y0233798D01*
X0434794Y0233675D01*
X0434368Y0233563D01*
X0433939Y0233461D01*
X0433507Y0233369D01*
X0433073Y0233289D01*
X0432638Y0233219D01*
X0432200Y0233159D01*
X0431762Y0233111D01*
X0431322Y0233073D01*
X0430882Y0233046D01*
X0430441Y0233029D01*
X0430000Y0233024D01*
X0429559Y0233029D01*
X0429118Y0233046D01*
X0428678Y0233073D01*
X0428238Y0233111D01*
X0427800Y0233159D01*
X0427362Y0233219D01*
X0426927Y0233289D01*
X0426493Y0233369D01*
X0426061Y0233461D01*
X0425632Y0233563D01*
X0425206Y0233675D01*
X0424782Y0233798D01*
X0424361Y0233931D01*
X0423944Y0234075D01*
X0423531Y0234229D01*
X0423121Y0234392D01*
X0422715Y0234566D01*
X0422314Y0234750D01*
X0421918Y0234943D01*
X0421526Y0235147D01*
X0421140Y0235359D01*
X0420758Y0235581D01*
X0420383Y0235813D01*
X0420013Y0236054D01*
X0419649Y0236303D01*
X0419292Y0236562D01*
X0418941Y0236829D01*
X0418596Y0237104D01*
X0418259Y0237388D01*
X0417928Y0237681D01*
X0417605Y0237981D01*
X0417289Y0238289D01*
X0416981Y0238605D01*
X0416681Y0238928D01*
X0416388Y0239259D01*
X0416104Y0239596D01*
X0415829Y0239941D01*
X0415562Y0240292D01*
X0415303Y0240649D01*
X0415054Y0241013D01*
X0414813Y0241383D01*
X0414581Y0241758D01*
X0414359Y0242140D01*
X0414147Y0242526D01*
X0413943Y0242918D01*
X0413750Y0243314D01*
X0413566Y0243715D01*
X0413392Y0244121D01*
X0413229Y0244531D01*
X0413075Y0244944D01*
X0412931Y0245361D01*
X0412798Y0245782D01*
X0412675Y0246206D01*
X0412563Y0246632D01*
X0412461Y0247061D01*
X0412369Y0247493D01*
X0412289Y0247927D01*
X0412219Y0248362D01*
X0412159Y0248800D01*
X0412111Y0249238D01*
X0412073Y0249678D01*
X0412046Y0250118D01*
X0412029Y0250559D01*
X0412024Y0251000D01*
D14*
X0402000Y0257161D02*
X0402000Y0264839D01*
X0398161Y0261000D02*
X0405839Y0261000D01*
X0426000Y0251000D02*
X0434000Y0251000D01*
X0430000Y0247000D02*
X0430000Y0255000D01*
X0417000Y0288000D02*
X0417000Y0296000D01*
X0413000Y0292000D02*
X0421000Y0292000D01*
X0347000Y0297000D02*
X0339000Y0297000D01*
X0343000Y0293000D02*
X0343000Y0301000D01*
X0343000Y0262000D02*
X0343000Y0254000D01*
X0339000Y0258000D02*
X0347000Y0258000D01*
X0372000Y0218000D02*
X0372000Y0210000D01*
X0368000Y0214000D02*
X0376000Y0214000D01*
X0371000Y0180000D02*
X0371000Y0172000D01*
X0367000Y0176000D02*
X0375000Y0176000D01*
X0371000Y0143000D02*
X0371000Y0135000D01*
X0367000Y0139000D02*
X0375000Y0139000D01*
X0370000Y0106000D02*
X0370000Y0098000D01*
X0366000Y0102000D02*
X0374000Y0102000D01*
X0325839Y0073000D02*
X0318161Y0073000D01*
X0322000Y0069161D02*
X0322000Y0076839D01*
X0343000Y0063000D02*
X0351000Y0063000D01*
X0347000Y0059000D02*
X0347000Y0067000D01*
X0272839Y0113000D02*
X0265161Y0113000D01*
X0269000Y0109161D02*
X0269000Y0116839D01*
X0254839Y0113000D02*
X0247161Y0113000D01*
X0251000Y0109161D02*
X0251000Y0116839D01*
X0238000Y0114000D02*
X0230000Y0114000D01*
X0234000Y0110000D02*
X0234000Y0118000D01*
X0213000Y0137161D02*
X0213000Y0144839D01*
X0209161Y0141000D02*
X0216839Y0141000D01*
X0205000Y0148161D02*
X0205000Y0155839D01*
X0208000Y0161161D02*
X0208000Y0168839D01*
X0204161Y0165000D02*
X0211839Y0165000D01*
X0208839Y0152000D02*
X0201161Y0152000D01*
X0197000Y0137839D02*
X0197000Y0130161D01*
X0193161Y0134000D02*
X0200839Y0134000D01*
X0177000Y0120000D02*
X0177000Y0112000D01*
X0173000Y0116000D02*
X0181000Y0116000D01*
X0151839Y0129000D02*
X0144161Y0129000D01*
X0148000Y0125161D02*
X0148000Y0132839D01*
X0163000Y0168000D02*
X0163000Y0176000D01*
X0159000Y0172000D02*
X0167000Y0172000D01*
X0163000Y0202161D02*
X0163000Y0209839D01*
X0159161Y0206000D02*
X0166839Y0206000D01*
X0154000Y0234000D02*
X0154000Y0242000D01*
X0150000Y0238000D02*
X0158000Y0238000D01*
X0146000Y0251000D02*
X0146000Y0259000D01*
X0142000Y0255000D02*
X0150000Y0255000D01*
X0159029Y0265800D02*
X0166971Y0265800D01*
X0163000Y0261829D02*
X0163000Y0269771D01*
X0161000Y0277029D02*
X0161000Y0284971D01*
X0157029Y0281000D02*
X0164971Y0281000D01*
X0145971Y0281000D02*
X0138029Y0281000D01*
X0142000Y0277029D02*
X0142000Y0284971D01*
X0132500Y0273371D02*
X0132500Y0265429D01*
X0128529Y0269400D02*
X0136471Y0269400D01*
X0117000Y0258000D02*
X0117000Y0250000D01*
X0113000Y0254000D02*
X0121000Y0254000D01*
X0102372Y0256400D02*
X0094828Y0256400D01*
X0098600Y0252628D02*
X0098600Y0260172D01*
X0090679Y0260000D02*
X0083321Y0260000D01*
X0087000Y0256321D02*
X0087000Y0263679D01*
X0087000Y0267161D02*
X0087000Y0274839D01*
X0086000Y0278944D02*
X0086000Y0285056D01*
X0086000Y0285694D02*
X0086000Y0292306D01*
X0082694Y0289000D02*
X0089306Y0289000D01*
X0089056Y0282000D02*
X0082944Y0282000D01*
X0074000Y0274000D02*
X0074000Y0266000D01*
X0073000Y0263839D02*
X0073000Y0256161D01*
X0069161Y0260000D02*
X0076839Y0260000D01*
X0078000Y0270000D02*
X0070000Y0270000D01*
X0083161Y0271000D02*
X0090839Y0271000D01*
X0102029Y0272000D02*
X0109971Y0272000D01*
X0106000Y0268029D02*
X0106000Y0275971D01*
X0088000Y0252000D02*
X0088000Y0244000D01*
X0084000Y0248000D02*
X0092000Y0248000D01*
X0077839Y0246000D02*
X0070161Y0246000D01*
X0074000Y0242161D02*
X0074000Y0249839D01*
X0065972Y0241000D02*
X0058028Y0241000D01*
X0054500Y0238500D02*
X0054500Y0230500D01*
X0050500Y0234500D02*
X0058500Y0234500D01*
X0062000Y0237028D02*
X0062000Y0244972D01*
X0055000Y0250000D02*
X0055000Y0258000D01*
X0051000Y0254000D02*
X0059000Y0254000D01*
X0078000Y0238000D02*
X0078000Y0230000D01*
X0074000Y0234000D02*
X0082000Y0234000D01*
X0061652Y0215929D02*
X0061652Y0215535D01*
X0061521Y0215667D01*
X0061389Y0215535D01*
X0061389Y0215929D01*
X0061289Y0215864D02*
X0061224Y0215929D01*
X0061092Y0215929D01*
X0061027Y0215864D01*
X0061027Y0215601D01*
X0061092Y0215535D01*
X0061224Y0215535D01*
X0061289Y0215601D01*
X0061289Y0215732D01*
X0061158Y0215732D01*
X0060927Y0215732D02*
X0060927Y0215601D01*
X0060861Y0215535D01*
X0060730Y0215535D01*
X0060664Y0215601D01*
X0060564Y0215535D02*
X0060302Y0215535D01*
X0060564Y0215798D01*
X0060564Y0215864D01*
X0060499Y0215929D01*
X0060367Y0215929D01*
X0060302Y0215864D01*
X0060070Y0215929D02*
X0060070Y0215535D01*
X0059939Y0215535D02*
X0060202Y0215535D01*
X0059839Y0215601D02*
X0059839Y0215732D01*
X0059708Y0215732D01*
X0059839Y0215601D02*
X0059774Y0215535D01*
X0059642Y0215535D01*
X0059577Y0215601D01*
X0059577Y0215864D01*
X0059642Y0215929D01*
X0059774Y0215929D01*
X0059839Y0215864D01*
X0059939Y0215798D02*
X0060070Y0215929D01*
X0060664Y0215929D02*
X0060664Y0215732D01*
X0060796Y0215798D01*
X0060861Y0215798D01*
X0060927Y0215732D01*
X0060927Y0215929D02*
X0060664Y0215929D01*
X0059477Y0215535D02*
X0059214Y0215535D01*
X0059345Y0215535D02*
X0059345Y0215929D01*
X0059214Y0215798D01*
X0059114Y0215732D02*
X0059049Y0215667D01*
X0058852Y0215667D01*
X0058752Y0215601D02*
X0058752Y0215929D01*
X0058852Y0215929D02*
X0059049Y0215929D01*
X0059114Y0215864D01*
X0059114Y0215732D01*
X0058852Y0215535D02*
X0058852Y0215929D01*
X0058752Y0215601D02*
X0058686Y0215535D01*
X0058555Y0215535D01*
X0058489Y0215601D01*
X0058489Y0215929D01*
X0058389Y0215798D02*
X0058389Y0215535D01*
X0058389Y0215732D02*
X0058127Y0215732D01*
X0058127Y0215798D02*
X0058258Y0215929D01*
X0058389Y0215798D01*
X0058127Y0215798D02*
X0058127Y0215535D01*
X0057961Y0215535D02*
X0057961Y0215929D01*
X0057764Y0215732D01*
X0058027Y0215732D01*
X0057664Y0215864D02*
X0057402Y0215601D01*
X0057402Y0215535D01*
X0057402Y0215929D02*
X0057664Y0215929D01*
X0057664Y0215864D01*
X0059000Y0214000D02*
X0051000Y0214000D01*
X0055000Y0210000D02*
X0055000Y0218000D01*
X0056575Y0204947D02*
X0056575Y0203278D01*
X0056908Y0202945D01*
X0057576Y0202945D01*
X0057909Y0203278D01*
X0057909Y0204947D01*
X0058416Y0204613D02*
X0058750Y0204947D01*
X0059417Y0204947D01*
X0059751Y0204613D01*
X0060258Y0204947D02*
X0060258Y0203946D01*
X0060925Y0204279D01*
X0061259Y0204279D01*
X0061592Y0203946D01*
X0061592Y0203278D01*
X0061259Y0202945D01*
X0060592Y0202945D01*
X0060258Y0203278D01*
X0059751Y0203278D02*
X0059751Y0203612D01*
X0059417Y0203946D01*
X0058750Y0203946D01*
X0058416Y0204279D01*
X0058416Y0204613D01*
X0059084Y0205280D02*
X0059084Y0202611D01*
X0059417Y0202945D02*
X0059751Y0203278D01*
X0059417Y0202945D02*
X0058750Y0202945D01*
X0058416Y0203278D01*
X0060258Y0204947D02*
X0061592Y0204947D01*
X0061652Y0198929D02*
X0061652Y0198535D01*
X0061521Y0198667D01*
X0061389Y0198535D01*
X0061389Y0198929D01*
X0061289Y0198864D02*
X0061224Y0198929D01*
X0061092Y0198929D01*
X0061027Y0198864D01*
X0061027Y0198601D01*
X0061092Y0198535D01*
X0061224Y0198535D01*
X0061289Y0198601D01*
X0061289Y0198732D01*
X0061158Y0198732D01*
X0060927Y0198732D02*
X0060927Y0198601D01*
X0060861Y0198535D01*
X0060730Y0198535D01*
X0060664Y0198601D01*
X0060564Y0198535D02*
X0060302Y0198535D01*
X0060564Y0198798D01*
X0060564Y0198864D01*
X0060499Y0198929D01*
X0060367Y0198929D01*
X0060302Y0198864D01*
X0060070Y0198929D02*
X0060070Y0198535D01*
X0059939Y0198535D02*
X0060202Y0198535D01*
X0059839Y0198601D02*
X0059839Y0198732D01*
X0059708Y0198732D01*
X0059839Y0198601D02*
X0059774Y0198535D01*
X0059642Y0198535D01*
X0059577Y0198601D01*
X0059577Y0198864D01*
X0059642Y0198929D01*
X0059774Y0198929D01*
X0059839Y0198864D01*
X0059939Y0198798D02*
X0060070Y0198929D01*
X0060664Y0198929D02*
X0060664Y0198732D01*
X0060796Y0198798D01*
X0060861Y0198798D01*
X0060927Y0198732D01*
X0060927Y0198929D02*
X0060664Y0198929D01*
X0059477Y0198535D02*
X0059214Y0198535D01*
X0059345Y0198535D02*
X0059345Y0198929D01*
X0059214Y0198798D01*
X0059114Y0198732D02*
X0059049Y0198667D01*
X0058852Y0198667D01*
X0058752Y0198601D02*
X0058752Y0198929D01*
X0058852Y0198929D02*
X0059049Y0198929D01*
X0059114Y0198864D01*
X0059114Y0198732D01*
X0058852Y0198535D02*
X0058852Y0198929D01*
X0058752Y0198601D02*
X0058686Y0198535D01*
X0058555Y0198535D01*
X0058489Y0198601D01*
X0058489Y0198929D01*
X0058389Y0198798D02*
X0058389Y0198535D01*
X0058389Y0198732D02*
X0058127Y0198732D01*
X0058127Y0198798D02*
X0058258Y0198929D01*
X0058389Y0198798D01*
X0058127Y0198798D02*
X0058127Y0198535D01*
X0057961Y0198535D02*
X0057961Y0198929D01*
X0057764Y0198732D01*
X0058027Y0198732D01*
X0057664Y0198864D02*
X0057402Y0198601D01*
X0057402Y0198535D01*
X0057402Y0198929D02*
X0057664Y0198929D01*
X0057664Y0198864D01*
X0059000Y0197000D02*
X0051000Y0197000D01*
X0055000Y0193000D02*
X0055000Y0201000D01*
X0057575Y0188947D02*
X0057575Y0187278D01*
X0057908Y0186945D01*
X0058576Y0186945D01*
X0058909Y0187278D01*
X0058909Y0188947D01*
X0059416Y0188613D02*
X0059750Y0188947D01*
X0060417Y0188947D01*
X0060751Y0188613D01*
X0060417Y0187946D02*
X0059750Y0187946D01*
X0059416Y0188279D01*
X0059416Y0188613D01*
X0060084Y0189280D02*
X0060084Y0186611D01*
X0060417Y0186945D02*
X0060751Y0187278D01*
X0060751Y0187612D01*
X0060417Y0187946D01*
X0061258Y0187946D02*
X0062592Y0187946D01*
X0062259Y0188947D02*
X0061258Y0187946D01*
X0060417Y0186945D02*
X0059750Y0186945D01*
X0059416Y0187278D01*
X0062259Y0186945D02*
X0062259Y0188947D01*
X0054000Y0168000D02*
X0054000Y0160000D01*
X0050000Y0164000D02*
X0058000Y0164000D01*
X0043000Y0164000D02*
X0035000Y0164000D01*
X0039000Y0160000D02*
X0039000Y0168000D01*
X0029000Y0164000D02*
X0021000Y0164000D01*
X0025000Y0160000D02*
X0025000Y0168000D01*
X0025000Y0181000D02*
X0025000Y0189000D01*
X0021000Y0185000D02*
X0029000Y0185000D01*
X0120000Y0234000D02*
X0128000Y0234000D01*
X0124000Y0230000D02*
X0124000Y0238000D01*
X0174000Y0254000D02*
X0182000Y0254000D01*
X0178000Y0250000D02*
X0178000Y0258000D01*
X0196161Y0254000D02*
X0203839Y0254000D01*
X0200000Y0250161D02*
X0200000Y0257839D01*
X0201000Y0244839D02*
X0201000Y0237161D01*
X0197161Y0241000D02*
X0204839Y0241000D01*
X0228000Y0272161D02*
X0228000Y0279839D01*
X0224161Y0276000D02*
X0231839Y0276000D01*
X0234000Y0288161D02*
X0234000Y0295839D01*
X0230161Y0292000D02*
X0237839Y0292000D01*
X0242161Y0292000D02*
X0249839Y0292000D01*
X0246000Y0288161D02*
X0246000Y0295839D01*
X0229839Y0304000D02*
X0222161Y0304000D01*
X0226000Y0300161D02*
X0226000Y0307839D01*
X0210000Y0290000D02*
X0210000Y0282000D01*
X0209911Y0285213D02*
X0209813Y0285311D01*
X0209813Y0285410D01*
X0209911Y0285508D01*
X0210108Y0285508D01*
X0210207Y0285410D01*
X0210207Y0285311D01*
X0210108Y0285213D01*
X0209911Y0285213D01*
X0209663Y0285311D02*
X0209565Y0285213D01*
X0209368Y0285213D01*
X0209269Y0285311D01*
X0209119Y0285311D02*
X0209021Y0285213D01*
X0208824Y0285213D01*
X0208725Y0285311D01*
X0208725Y0285705D01*
X0208824Y0285804D01*
X0209021Y0285804D01*
X0209119Y0285705D01*
X0209269Y0285804D02*
X0209269Y0285508D01*
X0209466Y0285607D01*
X0209565Y0285607D01*
X0209663Y0285508D01*
X0209663Y0285311D01*
X0209911Y0285508D02*
X0209813Y0285607D01*
X0209813Y0285705D01*
X0209911Y0285804D01*
X0210108Y0285804D01*
X0210207Y0285705D01*
X0210207Y0285607D01*
X0210108Y0285508D01*
X0210357Y0285410D02*
X0210455Y0285508D01*
X0210652Y0285508D01*
X0210751Y0285410D01*
X0210751Y0285311D01*
X0210652Y0285213D01*
X0210455Y0285213D01*
X0210357Y0285311D01*
X0210357Y0285410D01*
X0210455Y0285508D02*
X0210357Y0285607D01*
X0210357Y0285705D01*
X0210455Y0285804D01*
X0210652Y0285804D01*
X0210751Y0285705D01*
X0210751Y0285607D01*
X0210652Y0285508D01*
X0210900Y0285311D02*
X0210999Y0285213D01*
X0211196Y0285213D01*
X0211294Y0285311D01*
X0211294Y0285410D01*
X0211196Y0285508D01*
X0211097Y0285508D01*
X0211196Y0285508D02*
X0211294Y0285607D01*
X0211294Y0285705D01*
X0211196Y0285804D01*
X0210999Y0285804D01*
X0210900Y0285705D01*
X0211444Y0285804D02*
X0211444Y0285213D01*
X0211838Y0285213D01*
X0209663Y0285804D02*
X0209269Y0285804D01*
X0208576Y0285804D02*
X0208576Y0285213D01*
X0208182Y0285213D02*
X0208182Y0285804D01*
X0208379Y0285607D01*
X0208576Y0285804D01*
X0208032Y0285804D02*
X0208032Y0285213D01*
X0208032Y0285508D02*
X0207638Y0285508D01*
X0207638Y0285213D02*
X0207638Y0285804D01*
X0206000Y0286000D02*
X0214000Y0286000D01*
X0193839Y0281000D02*
X0186161Y0281000D01*
X0190000Y0277161D02*
X0190000Y0284839D01*
X0190000Y0292161D02*
X0190000Y0299839D01*
X0186161Y0296000D02*
X0193839Y0296000D01*
X0048971Y0304000D02*
X0041029Y0304000D01*
X0045000Y0300029D02*
X0045000Y0307971D01*
X0031000Y0299000D02*
X0023000Y0299000D01*
X0027000Y0295000D02*
X0027000Y0303000D01*
X0035000Y0288971D02*
X0035000Y0281029D01*
X0031029Y0285000D02*
X0038971Y0285000D01*
X0022000Y0264971D02*
X0022000Y0257029D01*
X0018029Y0261000D02*
X0025971Y0261000D01*
X0124000Y0182839D02*
X0124000Y0175161D01*
X0120161Y0179000D02*
X0127839Y0179000D01*
X0145000Y0082000D02*
X0145000Y0074000D01*
X0141000Y0078000D02*
X0149000Y0078000D01*
X0090000Y0069000D02*
X0082000Y0069000D01*
X0086000Y0065000D02*
X0086000Y0073000D01*
X0058839Y0049000D02*
X0051161Y0049000D01*
X0055000Y0045161D02*
X0055000Y0052839D01*
X0034000Y0056000D02*
X0026000Y0056000D01*
X0030000Y0052000D02*
X0030000Y0060000D01*
X0078000Y0026000D02*
X0086000Y0026000D01*
X0082000Y0022000D02*
X0082000Y0030000D01*
X0155000Y0026000D02*
X0163000Y0026000D01*
X0159000Y0022000D02*
X0159000Y0030000D01*
X0293000Y0173000D02*
X0293000Y0181000D01*
X0289000Y0177000D02*
X0297000Y0177000D01*
X0430000Y0119000D02*
X0438000Y0119000D01*
X0434000Y0115000D02*
X0434000Y0123000D01*
X0429000Y0067000D02*
X0429000Y0059000D01*
X0425000Y0063000D02*
X0433000Y0063000D01*
D15*
X0324362Y0071819D02*
X0324362Y0074181D01*
X0319638Y0074181D02*
X0319638Y0071819D01*
X0270181Y0110638D02*
X0267819Y0110638D01*
X0267819Y0115362D02*
X0270181Y0115362D01*
X0283000Y0129500D02*
X0285500Y0127000D01*
X0300500Y0127000D01*
X0303000Y0129500D01*
X0303000Y0134500D01*
X0300500Y0137000D01*
X0285500Y0137000D01*
X0283000Y0134500D01*
X0283000Y0129500D01*
X0285500Y0137000D02*
X0283000Y0139500D01*
X0283000Y0144500D01*
X0285500Y0147000D01*
X0300500Y0147000D01*
X0303000Y0144500D01*
X0303000Y0139500D01*
X0300500Y0137000D01*
X0300500Y0147000D02*
X0303000Y0149500D01*
X0303000Y0154500D01*
X0300500Y0157000D01*
X0285500Y0157000D01*
X0283000Y0159500D01*
X0283000Y0164500D01*
X0285500Y0167000D01*
X0300500Y0167000D01*
X0303000Y0164500D01*
X0303000Y0159500D01*
X0300500Y0157000D01*
X0300500Y0167000D02*
X0303000Y0169500D01*
X0303000Y0174500D01*
X0300500Y0177000D01*
X0285500Y0177000D01*
X0283000Y0174500D01*
X0283000Y0169500D01*
X0285500Y0167000D01*
X0285500Y0157000D02*
X0283000Y0154500D01*
X0283000Y0149500D01*
X0285500Y0147000D01*
X0285500Y0177000D02*
X0283000Y0179500D01*
X0283000Y0184500D01*
X0285500Y0187000D01*
X0300500Y0187000D01*
X0303000Y0184500D01*
X0303000Y0179500D01*
X0300500Y0177000D01*
X0300500Y0187000D02*
X0303000Y0189500D01*
X0303000Y0194500D01*
X0300500Y0197000D01*
X0285500Y0197000D01*
X0283000Y0194500D01*
X0283000Y0189500D01*
X0285500Y0187000D01*
X0285500Y0197000D02*
X0283000Y0199500D01*
X0283000Y0204500D01*
X0285500Y0207000D01*
X0300500Y0207000D01*
X0303000Y0204500D01*
X0303000Y0199500D01*
X0300500Y0197000D01*
X0300500Y0207000D02*
X0303000Y0209500D01*
X0303000Y0214500D01*
X0300500Y0217000D01*
X0285500Y0217000D01*
X0283000Y0214500D01*
X0283000Y0209500D01*
X0285500Y0207000D01*
X0285500Y0217000D02*
X0283000Y0219500D01*
X0283000Y0224500D01*
X0285500Y0227000D01*
X0300500Y0227000D01*
X0303000Y0224500D01*
X0303000Y0219500D01*
X0300500Y0217000D01*
X0229181Y0273638D02*
X0226819Y0273638D01*
X0226819Y0278362D02*
X0229181Y0278362D01*
X0231638Y0290819D02*
X0231638Y0293181D01*
X0236362Y0293181D02*
X0236362Y0290819D01*
X0243638Y0290819D02*
X0243638Y0293181D01*
X0248362Y0293181D02*
X0248362Y0290819D01*
X0227181Y0301638D02*
X0224819Y0301638D01*
X0224819Y0306362D02*
X0227181Y0306362D01*
X0191181Y0298362D02*
X0188819Y0298362D01*
X0188819Y0293638D02*
X0191181Y0293638D01*
X0191181Y0283362D02*
X0188819Y0283362D01*
X0188819Y0278638D02*
X0191181Y0278638D01*
X0197638Y0255181D02*
X0197638Y0252819D01*
X0202362Y0252819D02*
X0202362Y0255181D01*
X0203362Y0242181D02*
X0203362Y0239819D01*
X0198638Y0239819D02*
X0198638Y0242181D01*
X0164181Y0208362D02*
X0161819Y0208362D01*
X0161819Y0203638D02*
X0164181Y0203638D01*
X0126362Y0180181D02*
X0126362Y0177819D01*
X0121638Y0177819D02*
X0121638Y0180181D01*
X0146819Y0131362D02*
X0149181Y0131362D01*
X0149181Y0126638D02*
X0146819Y0126638D01*
X0195819Y0131638D02*
X0198181Y0131638D01*
X0198181Y0136362D02*
X0195819Y0136362D01*
X0211819Y0138638D02*
X0214181Y0138638D01*
X0214181Y0143362D02*
X0211819Y0143362D01*
X0206181Y0149638D02*
X0203819Y0149638D01*
X0203819Y0154362D02*
X0206181Y0154362D01*
X0205638Y0163819D02*
X0205638Y0166181D01*
X0210362Y0166181D02*
X0210362Y0163819D01*
X0249819Y0115362D02*
X0252181Y0115362D01*
X0252181Y0110638D02*
X0249819Y0110638D01*
X0079181Y0231638D02*
X0076819Y0231638D01*
X0076819Y0236362D02*
X0079181Y0236362D01*
X0076362Y0244819D02*
X0076362Y0247181D01*
X0071638Y0247181D02*
X0071638Y0244819D01*
X0063181Y0243362D02*
X0060819Y0243362D01*
X0060819Y0238638D02*
X0063181Y0238638D01*
X0055681Y0236862D02*
X0053319Y0236862D01*
X0053319Y0232138D02*
X0055681Y0232138D01*
X0086819Y0245638D02*
X0089181Y0245638D01*
X0089181Y0250362D02*
X0086819Y0250362D01*
X0096238Y0255219D02*
X0096238Y0257581D01*
X0100962Y0257581D02*
X0100962Y0255219D01*
X0088181Y0257638D02*
X0085819Y0257638D01*
X0085819Y0262362D02*
X0088181Y0262362D01*
X0088181Y0268638D02*
X0085819Y0268638D01*
X0085819Y0273362D02*
X0088181Y0273362D01*
X0087181Y0279638D02*
X0084819Y0279638D01*
X0084819Y0284362D02*
X0087181Y0284362D01*
X0087181Y0286638D02*
X0084819Y0286638D01*
X0084819Y0291362D02*
X0087181Y0291362D01*
X0075181Y0272362D02*
X0072819Y0272362D01*
X0072819Y0267638D02*
X0075181Y0267638D01*
X0074181Y0262362D02*
X0071819Y0262362D01*
X0071819Y0257638D02*
X0074181Y0257638D01*
X0057362Y0050181D02*
X0057362Y0047819D01*
X0052638Y0047819D02*
X0052638Y0050181D01*
X0400819Y0258638D02*
X0403181Y0258638D01*
X0403181Y0263362D02*
X0400819Y0263362D01*
D16*
X0163120Y0265800D02*
X0162880Y0265800D01*
X0161000Y0280880D02*
X0161000Y0281120D01*
X0142000Y0281120D02*
X0142000Y0280880D01*
X0132620Y0269400D02*
X0132380Y0269400D01*
X0106120Y0272000D02*
X0105880Y0272000D01*
X0045000Y0303880D02*
X0045000Y0304120D01*
X0035000Y0285120D02*
X0035000Y0284880D01*
X0022120Y0261000D02*
X0021880Y0261000D01*
D17*
X0038268Y0251638D02*
X0054016Y0251638D01*
X0054016Y0271323D01*
X0038268Y0271323D01*
X0038268Y0251638D01*
X0052081Y0252425D02*
X0052083Y0252472D01*
X0052089Y0252518D01*
X0052098Y0252564D01*
X0052112Y0252608D01*
X0052129Y0252652D01*
X0052150Y0252693D01*
X0052174Y0252733D01*
X0052201Y0252771D01*
X0052232Y0252806D01*
X0052265Y0252839D01*
X0052301Y0252869D01*
X0052340Y0252895D01*
X0052380Y0252919D01*
X0052422Y0252938D01*
X0052466Y0252955D01*
X0052511Y0252967D01*
X0052557Y0252976D01*
X0052603Y0252981D01*
X0052650Y0252982D01*
X0052696Y0252979D01*
X0052742Y0252972D01*
X0052788Y0252961D01*
X0052832Y0252947D01*
X0052875Y0252929D01*
X0052916Y0252907D01*
X0052956Y0252882D01*
X0052993Y0252854D01*
X0053028Y0252823D01*
X0053060Y0252789D01*
X0053089Y0252752D01*
X0053114Y0252714D01*
X0053137Y0252673D01*
X0053156Y0252630D01*
X0053171Y0252586D01*
X0053183Y0252541D01*
X0053191Y0252495D01*
X0053195Y0252448D01*
X0053195Y0252402D01*
X0053191Y0252355D01*
X0053183Y0252309D01*
X0053171Y0252264D01*
X0053156Y0252220D01*
X0053137Y0252177D01*
X0053114Y0252136D01*
X0053089Y0252098D01*
X0053060Y0252061D01*
X0053028Y0252027D01*
X0052993Y0251996D01*
X0052956Y0251968D01*
X0052917Y0251943D01*
X0052875Y0251921D01*
X0052832Y0251903D01*
X0052788Y0251889D01*
X0052742Y0251878D01*
X0052696Y0251871D01*
X0052650Y0251868D01*
X0052603Y0251869D01*
X0052557Y0251874D01*
X0052511Y0251883D01*
X0052466Y0251895D01*
X0052422Y0251912D01*
X0052380Y0251931D01*
X0052340Y0251955D01*
X0052301Y0251981D01*
X0052265Y0252011D01*
X0052232Y0252044D01*
X0052201Y0252079D01*
X0052174Y0252117D01*
X0052150Y0252157D01*
X0052129Y0252198D01*
X0052112Y0252242D01*
X0052098Y0252286D01*
X0052089Y0252332D01*
X0052083Y0252378D01*
X0052081Y0252425D01*
X0056969Y0215181D02*
X0061693Y0215181D01*
X0061693Y0206520D01*
X0056969Y0206520D01*
X0056969Y0215181D01*
X0056969Y0198181D02*
X0061693Y0198181D01*
X0061693Y0189520D01*
X0056969Y0189520D01*
X0056969Y0198181D01*
X0059906Y0167740D02*
X0048961Y0167740D01*
X0048882Y0167740D01*
X0048094Y0167740D01*
X0048094Y0154354D01*
X0059906Y0154354D01*
X0059906Y0167740D01*
X0044906Y0167740D02*
X0044906Y0154354D01*
X0033094Y0154354D01*
X0033094Y0167740D01*
X0033882Y0167740D01*
X0033961Y0167740D01*
X0044906Y0167740D01*
X0048094Y0156126D02*
X0048094Y0154157D01*
X0050063Y0154157D01*
X0048094Y0156126D01*
X0048094Y0155958D02*
X0048262Y0155958D01*
X0048094Y0155763D02*
X0048457Y0155763D01*
X0048653Y0155568D02*
X0048094Y0155568D01*
X0048094Y0155372D02*
X0048848Y0155372D01*
X0049044Y0155177D02*
X0048094Y0155177D01*
X0048094Y0154982D02*
X0049239Y0154982D01*
X0049434Y0154786D02*
X0048094Y0154786D01*
X0048094Y0154591D02*
X0049630Y0154591D01*
X0049825Y0154395D02*
X0048094Y0154395D01*
X0048094Y0154200D02*
X0050020Y0154200D01*
X0035063Y0154157D02*
X0033094Y0154157D01*
X0033094Y0156126D01*
X0035063Y0154157D01*
X0035020Y0154200D02*
X0033094Y0154200D01*
X0033094Y0154395D02*
X0034825Y0154395D01*
X0034630Y0154591D02*
X0033094Y0154591D01*
X0033094Y0154786D02*
X0034434Y0154786D01*
X0034239Y0154982D02*
X0033094Y0154982D01*
X0033094Y0155177D02*
X0034044Y0155177D01*
X0033848Y0155372D02*
X0033094Y0155372D01*
X0033094Y0155568D02*
X0033653Y0155568D01*
X0033457Y0155763D02*
X0033094Y0155763D01*
X0033094Y0155958D02*
X0033262Y0155958D01*
X0030906Y0154354D02*
X0019094Y0154354D01*
X0019094Y0167740D01*
X0019882Y0167740D01*
X0019961Y0167740D01*
X0030906Y0167740D01*
X0030906Y0154354D01*
X0021063Y0154157D02*
X0019094Y0154157D01*
X0019094Y0156126D01*
X0021063Y0154157D01*
X0021020Y0154200D02*
X0019094Y0154200D01*
X0019094Y0154395D02*
X0020825Y0154395D01*
X0020630Y0154591D02*
X0019094Y0154591D01*
X0019094Y0154786D02*
X0020434Y0154786D01*
X0020239Y0154982D02*
X0019094Y0154982D01*
X0019094Y0155177D02*
X0020044Y0155177D01*
X0019848Y0155372D02*
X0019094Y0155372D01*
X0019094Y0155568D02*
X0019653Y0155568D01*
X0019457Y0155763D02*
X0019094Y0155763D01*
X0019094Y0155958D02*
X0019262Y0155958D01*
X0210000Y0286000D02*
X0221811Y0286000D01*
X0221811Y0297811D01*
X0210000Y0297811D01*
X0210000Y0286000D01*
X0215118Y0291512D02*
X0214724Y0291906D01*
X0215118Y0291512D02*
X0215512Y0291906D01*
X0215118Y0291512D02*
X0215118Y0293874D01*
X0217874Y0293874D01*
X0217480Y0293480D01*
X0217874Y0293874D02*
X0217480Y0294268D01*
X0420984Y0251000D02*
X0420987Y0251221D01*
X0420995Y0251442D01*
X0421008Y0251663D01*
X0421027Y0251884D01*
X0421052Y0252104D01*
X0421082Y0252323D01*
X0421117Y0252541D01*
X0421157Y0252759D01*
X0421203Y0252975D01*
X0421254Y0253191D01*
X0421311Y0253405D01*
X0421372Y0253617D01*
X0421439Y0253828D01*
X0421511Y0254037D01*
X0421588Y0254245D01*
X0421670Y0254450D01*
X0421757Y0254654D01*
X0421850Y0254855D01*
X0421947Y0255054D01*
X0422049Y0255250D01*
X0422155Y0255444D01*
X0422267Y0255635D01*
X0422383Y0255824D01*
X0422503Y0256009D01*
X0422629Y0256191D01*
X0422758Y0256371D01*
X0422892Y0256547D01*
X0423031Y0256720D01*
X0423173Y0256889D01*
X0423320Y0257055D01*
X0423470Y0257217D01*
X0423625Y0257375D01*
X0423783Y0257530D01*
X0423945Y0257680D01*
X0424111Y0257827D01*
X0424280Y0257969D01*
X0424453Y0258108D01*
X0424629Y0258242D01*
X0424809Y0258371D01*
X0424991Y0258497D01*
X0425176Y0258617D01*
X0425365Y0258733D01*
X0425556Y0258845D01*
X0425750Y0258951D01*
X0425946Y0259053D01*
X0426145Y0259150D01*
X0426346Y0259243D01*
X0426550Y0259330D01*
X0426755Y0259412D01*
X0426963Y0259489D01*
X0427172Y0259561D01*
X0427383Y0259628D01*
X0427595Y0259689D01*
X0427809Y0259746D01*
X0428025Y0259797D01*
X0428241Y0259843D01*
X0428459Y0259883D01*
X0428677Y0259918D01*
X0428896Y0259948D01*
X0429116Y0259973D01*
X0429337Y0259992D01*
X0429558Y0260005D01*
X0429779Y0260013D01*
X0430000Y0260016D01*
X0430221Y0260013D01*
X0430442Y0260005D01*
X0430663Y0259992D01*
X0430884Y0259973D01*
X0431104Y0259948D01*
X0431323Y0259918D01*
X0431541Y0259883D01*
X0431759Y0259843D01*
X0431975Y0259797D01*
X0432191Y0259746D01*
X0432405Y0259689D01*
X0432617Y0259628D01*
X0432828Y0259561D01*
X0433037Y0259489D01*
X0433245Y0259412D01*
X0433450Y0259330D01*
X0433654Y0259243D01*
X0433855Y0259150D01*
X0434054Y0259053D01*
X0434250Y0258951D01*
X0434444Y0258845D01*
X0434635Y0258733D01*
X0434824Y0258617D01*
X0435009Y0258497D01*
X0435191Y0258371D01*
X0435371Y0258242D01*
X0435547Y0258108D01*
X0435720Y0257969D01*
X0435889Y0257827D01*
X0436055Y0257680D01*
X0436217Y0257530D01*
X0436375Y0257375D01*
X0436530Y0257217D01*
X0436680Y0257055D01*
X0436827Y0256889D01*
X0436969Y0256720D01*
X0437108Y0256547D01*
X0437242Y0256371D01*
X0437371Y0256191D01*
X0437497Y0256009D01*
X0437617Y0255824D01*
X0437733Y0255635D01*
X0437845Y0255444D01*
X0437951Y0255250D01*
X0438053Y0255054D01*
X0438150Y0254855D01*
X0438243Y0254654D01*
X0438330Y0254450D01*
X0438412Y0254245D01*
X0438489Y0254037D01*
X0438561Y0253828D01*
X0438628Y0253617D01*
X0438689Y0253405D01*
X0438746Y0253191D01*
X0438797Y0252975D01*
X0438843Y0252759D01*
X0438883Y0252541D01*
X0438918Y0252323D01*
X0438948Y0252104D01*
X0438973Y0251884D01*
X0438992Y0251663D01*
X0439005Y0251442D01*
X0439013Y0251221D01*
X0439016Y0251000D01*
X0439013Y0250779D01*
X0439005Y0250558D01*
X0438992Y0250337D01*
X0438973Y0250116D01*
X0438948Y0249896D01*
X0438918Y0249677D01*
X0438883Y0249459D01*
X0438843Y0249241D01*
X0438797Y0249025D01*
X0438746Y0248809D01*
X0438689Y0248595D01*
X0438628Y0248383D01*
X0438561Y0248172D01*
X0438489Y0247963D01*
X0438412Y0247755D01*
X0438330Y0247550D01*
X0438243Y0247346D01*
X0438150Y0247145D01*
X0438053Y0246946D01*
X0437951Y0246750D01*
X0437845Y0246556D01*
X0437733Y0246365D01*
X0437617Y0246176D01*
X0437497Y0245991D01*
X0437371Y0245809D01*
X0437242Y0245629D01*
X0437108Y0245453D01*
X0436969Y0245280D01*
X0436827Y0245111D01*
X0436680Y0244945D01*
X0436530Y0244783D01*
X0436375Y0244625D01*
X0436217Y0244470D01*
X0436055Y0244320D01*
X0435889Y0244173D01*
X0435720Y0244031D01*
X0435547Y0243892D01*
X0435371Y0243758D01*
X0435191Y0243629D01*
X0435009Y0243503D01*
X0434824Y0243383D01*
X0434635Y0243267D01*
X0434444Y0243155D01*
X0434250Y0243049D01*
X0434054Y0242947D01*
X0433855Y0242850D01*
X0433654Y0242757D01*
X0433450Y0242670D01*
X0433245Y0242588D01*
X0433037Y0242511D01*
X0432828Y0242439D01*
X0432617Y0242372D01*
X0432405Y0242311D01*
X0432191Y0242254D01*
X0431975Y0242203D01*
X0431759Y0242157D01*
X0431541Y0242117D01*
X0431323Y0242082D01*
X0431104Y0242052D01*
X0430884Y0242027D01*
X0430663Y0242008D01*
X0430442Y0241995D01*
X0430221Y0241987D01*
X0430000Y0241984D01*
X0429779Y0241987D01*
X0429558Y0241995D01*
X0429337Y0242008D01*
X0429116Y0242027D01*
X0428896Y0242052D01*
X0428677Y0242082D01*
X0428459Y0242117D01*
X0428241Y0242157D01*
X0428025Y0242203D01*
X0427809Y0242254D01*
X0427595Y0242311D01*
X0427383Y0242372D01*
X0427172Y0242439D01*
X0426963Y0242511D01*
X0426755Y0242588D01*
X0426550Y0242670D01*
X0426346Y0242757D01*
X0426145Y0242850D01*
X0425946Y0242947D01*
X0425750Y0243049D01*
X0425556Y0243155D01*
X0425365Y0243267D01*
X0425176Y0243383D01*
X0424991Y0243503D01*
X0424809Y0243629D01*
X0424629Y0243758D01*
X0424453Y0243892D01*
X0424280Y0244031D01*
X0424111Y0244173D01*
X0423945Y0244320D01*
X0423783Y0244470D01*
X0423625Y0244625D01*
X0423470Y0244783D01*
X0423320Y0244945D01*
X0423173Y0245111D01*
X0423031Y0245280D01*
X0422892Y0245453D01*
X0422758Y0245629D01*
X0422629Y0245809D01*
X0422503Y0245991D01*
X0422383Y0246176D01*
X0422267Y0246365D01*
X0422155Y0246556D01*
X0422049Y0246750D01*
X0421947Y0246946D01*
X0421850Y0247145D01*
X0421757Y0247346D01*
X0421670Y0247550D01*
X0421588Y0247755D01*
X0421511Y0247963D01*
X0421439Y0248172D01*
X0421372Y0248383D01*
X0421311Y0248595D01*
X0421254Y0248809D01*
X0421203Y0249025D01*
X0421157Y0249241D01*
X0421117Y0249459D01*
X0421082Y0249677D01*
X0421052Y0249896D01*
X0421027Y0250116D01*
X0421008Y0250337D01*
X0420995Y0250558D01*
X0420987Y0250779D01*
X0420984Y0251000D01*
X0442720Y0237933D02*
X0443780Y0239189D01*
X0444535Y0240000D01*
X0448004Y0237020D01*
X0446189Y0234953D01*
X0442720Y0237933D01*
X0442786Y0238010D02*
X0446851Y0238010D01*
X0447078Y0237815D02*
X0442858Y0237815D01*
X0443085Y0237620D02*
X0447306Y0237620D01*
X0447533Y0237424D02*
X0443313Y0237424D01*
X0443540Y0237229D02*
X0447760Y0237229D01*
X0447988Y0237034D02*
X0443767Y0237034D01*
X0443995Y0236838D02*
X0447845Y0236838D01*
X0447673Y0236643D02*
X0444222Y0236643D01*
X0444449Y0236447D02*
X0447501Y0236447D01*
X0447330Y0236252D02*
X0444677Y0236252D01*
X0444904Y0236057D02*
X0447158Y0236057D01*
X0446987Y0235861D02*
X0445132Y0235861D01*
X0445359Y0235666D02*
X0446815Y0235666D01*
X0446644Y0235471D02*
X0445586Y0235471D01*
X0445814Y0235275D02*
X0446472Y0235275D01*
X0446301Y0235080D02*
X0446041Y0235080D01*
X0446624Y0238206D02*
X0442950Y0238206D01*
X0443115Y0238401D02*
X0446396Y0238401D01*
X0446169Y0238596D02*
X0443280Y0238596D01*
X0443445Y0238792D02*
X0445942Y0238792D01*
X0445714Y0238987D02*
X0443609Y0238987D01*
X0443774Y0239182D02*
X0445487Y0239182D01*
X0445259Y0239378D02*
X0443994Y0239378D01*
X0443956Y0239378D01*
X0443780Y0239189D02*
X0444701Y0240000D01*
X0443780Y0239189D01*
X0444138Y0239573D02*
X0444216Y0239573D01*
X0445032Y0239573D01*
X0444805Y0239769D02*
X0444438Y0239769D01*
X0444320Y0239769D01*
X0444502Y0239964D02*
X0444577Y0239964D01*
X0444660Y0239964D02*
X0444660Y0239964D01*
X0337984Y0063000D02*
X0337987Y0063221D01*
X0337995Y0063442D01*
X0338008Y0063663D01*
X0338027Y0063884D01*
X0338052Y0064104D01*
X0338082Y0064323D01*
X0338117Y0064541D01*
X0338157Y0064759D01*
X0338203Y0064975D01*
X0338254Y0065191D01*
X0338311Y0065405D01*
X0338372Y0065617D01*
X0338439Y0065828D01*
X0338511Y0066037D01*
X0338588Y0066245D01*
X0338670Y0066450D01*
X0338757Y0066654D01*
X0338850Y0066855D01*
X0338947Y0067054D01*
X0339049Y0067250D01*
X0339155Y0067444D01*
X0339267Y0067635D01*
X0339383Y0067824D01*
X0339503Y0068009D01*
X0339629Y0068191D01*
X0339758Y0068371D01*
X0339892Y0068547D01*
X0340031Y0068720D01*
X0340173Y0068889D01*
X0340320Y0069055D01*
X0340470Y0069217D01*
X0340625Y0069375D01*
X0340783Y0069530D01*
X0340945Y0069680D01*
X0341111Y0069827D01*
X0341280Y0069969D01*
X0341453Y0070108D01*
X0341629Y0070242D01*
X0341809Y0070371D01*
X0341991Y0070497D01*
X0342176Y0070617D01*
X0342365Y0070733D01*
X0342556Y0070845D01*
X0342750Y0070951D01*
X0342946Y0071053D01*
X0343145Y0071150D01*
X0343346Y0071243D01*
X0343550Y0071330D01*
X0343755Y0071412D01*
X0343963Y0071489D01*
X0344172Y0071561D01*
X0344383Y0071628D01*
X0344595Y0071689D01*
X0344809Y0071746D01*
X0345025Y0071797D01*
X0345241Y0071843D01*
X0345459Y0071883D01*
X0345677Y0071918D01*
X0345896Y0071948D01*
X0346116Y0071973D01*
X0346337Y0071992D01*
X0346558Y0072005D01*
X0346779Y0072013D01*
X0347000Y0072016D01*
X0347221Y0072013D01*
X0347442Y0072005D01*
X0347663Y0071992D01*
X0347884Y0071973D01*
X0348104Y0071948D01*
X0348323Y0071918D01*
X0348541Y0071883D01*
X0348759Y0071843D01*
X0348975Y0071797D01*
X0349191Y0071746D01*
X0349405Y0071689D01*
X0349617Y0071628D01*
X0349828Y0071561D01*
X0350037Y0071489D01*
X0350245Y0071412D01*
X0350450Y0071330D01*
X0350654Y0071243D01*
X0350855Y0071150D01*
X0351054Y0071053D01*
X0351250Y0070951D01*
X0351444Y0070845D01*
X0351635Y0070733D01*
X0351824Y0070617D01*
X0352009Y0070497D01*
X0352191Y0070371D01*
X0352371Y0070242D01*
X0352547Y0070108D01*
X0352720Y0069969D01*
X0352889Y0069827D01*
X0353055Y0069680D01*
X0353217Y0069530D01*
X0353375Y0069375D01*
X0353530Y0069217D01*
X0353680Y0069055D01*
X0353827Y0068889D01*
X0353969Y0068720D01*
X0354108Y0068547D01*
X0354242Y0068371D01*
X0354371Y0068191D01*
X0354497Y0068009D01*
X0354617Y0067824D01*
X0354733Y0067635D01*
X0354845Y0067444D01*
X0354951Y0067250D01*
X0355053Y0067054D01*
X0355150Y0066855D01*
X0355243Y0066654D01*
X0355330Y0066450D01*
X0355412Y0066245D01*
X0355489Y0066037D01*
X0355561Y0065828D01*
X0355628Y0065617D01*
X0355689Y0065405D01*
X0355746Y0065191D01*
X0355797Y0064975D01*
X0355843Y0064759D01*
X0355883Y0064541D01*
X0355918Y0064323D01*
X0355948Y0064104D01*
X0355973Y0063884D01*
X0355992Y0063663D01*
X0356005Y0063442D01*
X0356013Y0063221D01*
X0356016Y0063000D01*
X0356013Y0062779D01*
X0356005Y0062558D01*
X0355992Y0062337D01*
X0355973Y0062116D01*
X0355948Y0061896D01*
X0355918Y0061677D01*
X0355883Y0061459D01*
X0355843Y0061241D01*
X0355797Y0061025D01*
X0355746Y0060809D01*
X0355689Y0060595D01*
X0355628Y0060383D01*
X0355561Y0060172D01*
X0355489Y0059963D01*
X0355412Y0059755D01*
X0355330Y0059550D01*
X0355243Y0059346D01*
X0355150Y0059145D01*
X0355053Y0058946D01*
X0354951Y0058750D01*
X0354845Y0058556D01*
X0354733Y0058365D01*
X0354617Y0058176D01*
X0354497Y0057991D01*
X0354371Y0057809D01*
X0354242Y0057629D01*
X0354108Y0057453D01*
X0353969Y0057280D01*
X0353827Y0057111D01*
X0353680Y0056945D01*
X0353530Y0056783D01*
X0353375Y0056625D01*
X0353217Y0056470D01*
X0353055Y0056320D01*
X0352889Y0056173D01*
X0352720Y0056031D01*
X0352547Y0055892D01*
X0352371Y0055758D01*
X0352191Y0055629D01*
X0352009Y0055503D01*
X0351824Y0055383D01*
X0351635Y0055267D01*
X0351444Y0055155D01*
X0351250Y0055049D01*
X0351054Y0054947D01*
X0350855Y0054850D01*
X0350654Y0054757D01*
X0350450Y0054670D01*
X0350245Y0054588D01*
X0350037Y0054511D01*
X0349828Y0054439D01*
X0349617Y0054372D01*
X0349405Y0054311D01*
X0349191Y0054254D01*
X0348975Y0054203D01*
X0348759Y0054157D01*
X0348541Y0054117D01*
X0348323Y0054082D01*
X0348104Y0054052D01*
X0347884Y0054027D01*
X0347663Y0054008D01*
X0347442Y0053995D01*
X0347221Y0053987D01*
X0347000Y0053984D01*
X0346779Y0053987D01*
X0346558Y0053995D01*
X0346337Y0054008D01*
X0346116Y0054027D01*
X0345896Y0054052D01*
X0345677Y0054082D01*
X0345459Y0054117D01*
X0345241Y0054157D01*
X0345025Y0054203D01*
X0344809Y0054254D01*
X0344595Y0054311D01*
X0344383Y0054372D01*
X0344172Y0054439D01*
X0343963Y0054511D01*
X0343755Y0054588D01*
X0343550Y0054670D01*
X0343346Y0054757D01*
X0343145Y0054850D01*
X0342946Y0054947D01*
X0342750Y0055049D01*
X0342556Y0055155D01*
X0342365Y0055267D01*
X0342176Y0055383D01*
X0341991Y0055503D01*
X0341809Y0055629D01*
X0341629Y0055758D01*
X0341453Y0055892D01*
X0341280Y0056031D01*
X0341111Y0056173D01*
X0340945Y0056320D01*
X0340783Y0056470D01*
X0340625Y0056625D01*
X0340470Y0056783D01*
X0340320Y0056945D01*
X0340173Y0057111D01*
X0340031Y0057280D01*
X0339892Y0057453D01*
X0339758Y0057629D01*
X0339629Y0057809D01*
X0339503Y0057991D01*
X0339383Y0058176D01*
X0339267Y0058365D01*
X0339155Y0058556D01*
X0339049Y0058750D01*
X0338947Y0058946D01*
X0338850Y0059145D01*
X0338757Y0059346D01*
X0338670Y0059550D01*
X0338588Y0059755D01*
X0338511Y0059963D01*
X0338439Y0060172D01*
X0338372Y0060383D01*
X0338311Y0060595D01*
X0338254Y0060809D01*
X0338203Y0061025D01*
X0338157Y0061241D01*
X0338117Y0061459D01*
X0338082Y0061677D01*
X0338052Y0061896D01*
X0338027Y0062116D01*
X0338008Y0062337D01*
X0337995Y0062558D01*
X0337987Y0062779D01*
X0337984Y0063000D01*
X0333933Y0050280D02*
X0335189Y0049220D01*
X0336000Y0048465D01*
X0333020Y0044996D01*
X0330953Y0046811D01*
X0333933Y0050280D01*
X0333923Y0050268D02*
X0333947Y0050268D01*
X0333755Y0050072D02*
X0334179Y0050072D01*
X0334410Y0049877D02*
X0333587Y0049877D01*
X0333419Y0049682D02*
X0334642Y0049682D01*
X0334874Y0049486D02*
X0333251Y0049486D01*
X0333084Y0049291D02*
X0335105Y0049291D01*
X0335189Y0049220D02*
X0336000Y0048299D01*
X0335189Y0049220D01*
X0335299Y0049096D02*
X0335323Y0049096D01*
X0335299Y0049096D02*
X0332916Y0049096D01*
X0332748Y0048900D02*
X0335471Y0048900D01*
X0335533Y0048900D01*
X0335643Y0048705D02*
X0335742Y0048705D01*
X0335643Y0048705D02*
X0332580Y0048705D01*
X0332412Y0048509D02*
X0335815Y0048509D01*
X0335952Y0048509D01*
X0335987Y0048314D02*
X0335987Y0048314D01*
X0335871Y0048314D02*
X0332244Y0048314D01*
X0332076Y0048119D02*
X0335703Y0048119D01*
X0335535Y0047923D02*
X0331909Y0047923D01*
X0331741Y0047728D02*
X0335367Y0047728D01*
X0335199Y0047533D02*
X0331573Y0047533D01*
X0331405Y0047337D02*
X0335031Y0047337D01*
X0334864Y0047142D02*
X0331237Y0047142D01*
X0331069Y0046947D02*
X0334696Y0046947D01*
X0334528Y0046751D02*
X0331021Y0046751D01*
X0331243Y0046556D02*
X0334360Y0046556D01*
X0334192Y0046360D02*
X0331466Y0046360D01*
X0331688Y0046165D02*
X0334024Y0046165D01*
X0333856Y0045970D02*
X0331911Y0045970D01*
X0332133Y0045774D02*
X0333688Y0045774D01*
X0333521Y0045579D02*
X0332356Y0045579D01*
X0332578Y0045384D02*
X0333353Y0045384D01*
X0333185Y0045188D02*
X0332801Y0045188D01*
D18*
X0210787Y0296630D02*
X0210789Y0296669D01*
X0210795Y0296708D01*
X0210805Y0296746D01*
X0210818Y0296783D01*
X0210835Y0296818D01*
X0210855Y0296852D01*
X0210879Y0296883D01*
X0210906Y0296912D01*
X0210935Y0296938D01*
X0210967Y0296961D01*
X0211001Y0296981D01*
X0211037Y0296997D01*
X0211074Y0297009D01*
X0211113Y0297018D01*
X0211152Y0297023D01*
X0211191Y0297024D01*
X0211230Y0297021D01*
X0211269Y0297014D01*
X0211306Y0297003D01*
X0211343Y0296989D01*
X0211378Y0296971D01*
X0211411Y0296950D01*
X0211442Y0296925D01*
X0211470Y0296898D01*
X0211495Y0296868D01*
X0211517Y0296835D01*
X0211536Y0296801D01*
X0211551Y0296765D01*
X0211563Y0296727D01*
X0211571Y0296689D01*
X0211575Y0296650D01*
X0211575Y0296610D01*
X0211571Y0296571D01*
X0211563Y0296533D01*
X0211551Y0296495D01*
X0211536Y0296459D01*
X0211517Y0296425D01*
X0211495Y0296392D01*
X0211470Y0296362D01*
X0211442Y0296335D01*
X0211411Y0296310D01*
X0211378Y0296289D01*
X0211343Y0296271D01*
X0211306Y0296257D01*
X0211269Y0296246D01*
X0211230Y0296239D01*
X0211191Y0296236D01*
X0211152Y0296237D01*
X0211113Y0296242D01*
X0211074Y0296251D01*
X0211037Y0296263D01*
X0211001Y0296279D01*
X0210967Y0296299D01*
X0210935Y0296322D01*
X0210906Y0296348D01*
X0210879Y0296377D01*
X0210855Y0296408D01*
X0210835Y0296442D01*
X0210818Y0296477D01*
X0210805Y0296514D01*
X0210795Y0296552D01*
X0210789Y0296591D01*
X0210787Y0296630D01*
D19*
X0214282Y0293874D02*
X0214284Y0293932D01*
X0214290Y0293989D01*
X0214300Y0294046D01*
X0214314Y0294102D01*
X0214331Y0294157D01*
X0214353Y0294211D01*
X0214378Y0294263D01*
X0214406Y0294313D01*
X0214438Y0294361D01*
X0214473Y0294406D01*
X0214512Y0294450D01*
X0214553Y0294490D01*
X0214597Y0294528D01*
X0214643Y0294562D01*
X0214692Y0294593D01*
X0214742Y0294621D01*
X0214795Y0294645D01*
X0214849Y0294665D01*
X0214904Y0294682D01*
X0214960Y0294695D01*
X0215017Y0294704D01*
X0215075Y0294709D01*
X0215132Y0294710D01*
X0215190Y0294707D01*
X0215247Y0294700D01*
X0215304Y0294689D01*
X0215360Y0294674D01*
X0215414Y0294656D01*
X0215468Y0294633D01*
X0215519Y0294607D01*
X0215569Y0294578D01*
X0215616Y0294545D01*
X0215661Y0294509D01*
X0215704Y0294470D01*
X0215744Y0294428D01*
X0215781Y0294384D01*
X0215814Y0294337D01*
X0215844Y0294288D01*
X0215871Y0294237D01*
X0215894Y0294184D01*
X0215914Y0294130D01*
X0215930Y0294074D01*
X0215942Y0294018D01*
X0215950Y0293960D01*
X0215954Y0293903D01*
X0215954Y0293845D01*
X0215950Y0293788D01*
X0215942Y0293730D01*
X0215930Y0293674D01*
X0215914Y0293618D01*
X0215894Y0293564D01*
X0215871Y0293511D01*
X0215844Y0293460D01*
X0215814Y0293411D01*
X0215781Y0293364D01*
X0215744Y0293320D01*
X0215704Y0293278D01*
X0215661Y0293239D01*
X0215616Y0293203D01*
X0215569Y0293170D01*
X0215519Y0293141D01*
X0215468Y0293115D01*
X0215414Y0293092D01*
X0215360Y0293074D01*
X0215304Y0293059D01*
X0215247Y0293048D01*
X0215190Y0293041D01*
X0215132Y0293038D01*
X0215075Y0293039D01*
X0215017Y0293044D01*
X0214960Y0293053D01*
X0214904Y0293066D01*
X0214849Y0293083D01*
X0214795Y0293103D01*
X0214742Y0293127D01*
X0214692Y0293155D01*
X0214643Y0293186D01*
X0214597Y0293220D01*
X0214553Y0293258D01*
X0214512Y0293298D01*
X0214473Y0293342D01*
X0214438Y0293387D01*
X0214406Y0293435D01*
X0214378Y0293485D01*
X0214353Y0293537D01*
X0214331Y0293591D01*
X0214314Y0293646D01*
X0214300Y0293702D01*
X0214290Y0293759D01*
X0214284Y0293816D01*
X0214282Y0293874D01*
D20*
X0215012Y0293874D02*
X0215014Y0293894D01*
X0215020Y0293913D01*
X0215029Y0293931D01*
X0215041Y0293947D01*
X0215057Y0293960D01*
X0215074Y0293970D01*
X0215093Y0293977D01*
X0215113Y0293980D01*
X0215133Y0293979D01*
X0215153Y0293974D01*
X0215171Y0293966D01*
X0215187Y0293954D01*
X0215201Y0293940D01*
X0215212Y0293923D01*
X0215220Y0293904D01*
X0215224Y0293884D01*
X0215224Y0293864D01*
X0215220Y0293844D01*
X0215212Y0293825D01*
X0215201Y0293808D01*
X0215187Y0293794D01*
X0215171Y0293782D01*
X0215153Y0293774D01*
X0215133Y0293769D01*
X0215113Y0293768D01*
X0215093Y0293771D01*
X0215074Y0293778D01*
X0215057Y0293788D01*
X0215041Y0293801D01*
X0215029Y0293817D01*
X0215020Y0293835D01*
X0215014Y0293854D01*
X0215012Y0293874D01*
D21*
X0183512Y0259610D02*
X0172488Y0259610D01*
X0172488Y0248390D02*
X0183512Y0248390D01*
X0100567Y0089236D02*
X0075075Y0089236D01*
X0075075Y0048764D01*
X0071433Y0048764D01*
X0075075Y0048764D02*
X0100567Y0048764D01*
X0075075Y0089236D02*
X0071433Y0089236D01*
D22*
X0182134Y0249866D03*
D23*
X0141253Y0084840D02*
X0141255Y0084885D01*
X0141261Y0084930D01*
X0141271Y0084974D01*
X0141284Y0085017D01*
X0141301Y0085058D01*
X0141322Y0085098D01*
X0141346Y0085137D01*
X0141374Y0085172D01*
X0141404Y0085206D01*
X0141438Y0085236D01*
X0141473Y0085264D01*
X0141511Y0085288D01*
X0141552Y0085309D01*
X0141593Y0085326D01*
X0141636Y0085339D01*
X0141680Y0085349D01*
X0141725Y0085355D01*
X0141770Y0085357D01*
X0141815Y0085355D01*
X0141860Y0085349D01*
X0141904Y0085339D01*
X0141947Y0085326D01*
X0141988Y0085309D01*
X0142028Y0085288D01*
X0142067Y0085264D01*
X0142102Y0085236D01*
X0142136Y0085206D01*
X0142166Y0085172D01*
X0142194Y0085137D01*
X0142218Y0085098D01*
X0142239Y0085058D01*
X0142256Y0085017D01*
X0142269Y0084974D01*
X0142279Y0084930D01*
X0142285Y0084885D01*
X0142287Y0084840D01*
X0142285Y0084795D01*
X0142279Y0084750D01*
X0142269Y0084706D01*
X0142256Y0084663D01*
X0142239Y0084622D01*
X0142218Y0084582D01*
X0142194Y0084543D01*
X0142166Y0084508D01*
X0142136Y0084474D01*
X0142102Y0084444D01*
X0142067Y0084416D01*
X0142029Y0084392D01*
X0141988Y0084371D01*
X0141947Y0084354D01*
X0141904Y0084341D01*
X0141860Y0084331D01*
X0141815Y0084325D01*
X0141770Y0084323D01*
X0141725Y0084325D01*
X0141680Y0084331D01*
X0141636Y0084341D01*
X0141593Y0084354D01*
X0141552Y0084371D01*
X0141511Y0084392D01*
X0141473Y0084416D01*
X0141438Y0084444D01*
X0141404Y0084474D01*
X0141374Y0084508D01*
X0141346Y0084543D01*
X0141322Y0084581D01*
X0141301Y0084622D01*
X0141284Y0084663D01*
X0141271Y0084706D01*
X0141261Y0084750D01*
X0141255Y0084795D01*
X0141253Y0084840D01*
M02*
