G75*
%MOIN*%
%OFA0B0*%
%FSLAX25Y25*%
%IPPOS*%
%LPD*%
%AMOC8*
5,1,8,0,0,1.08239X$1,22.5*
%
%ADD10R,0.00800X0.01600*%
%ADD11R,0.07000X0.03600*%
%ADD12R,0.04724X0.03150*%
%ADD13R,0.03150X0.04724*%
%ADD14R,0.03937X0.04331*%
%ADD15R,0.04331X0.03937*%
%ADD16R,0.05118X0.05906*%
%ADD17R,0.06299X0.08661*%
%ADD18R,0.08661X0.02362*%
%ADD19R,0.01181X0.01772*%
%ADD20R,0.01772X0.01181*%
%ADD21R,0.02756X0.00984*%
%ADD22C,0.00096*%
%ADD23R,0.10236X0.05906*%
%ADD24R,0.03445X0.00984*%
%ADD25R,0.03200X0.01600*%
%ADD26R,0.01969X0.01181*%
%ADD27R,0.00866X0.03937*%
%ADD28R,0.03937X0.00866*%
D10*
X0117551Y0254947D03*
X0119522Y0254947D03*
X0121494Y0254952D03*
X0123451Y0254939D03*
X0125420Y0254952D03*
X0125426Y0268013D03*
X0123454Y0268013D03*
X0121485Y0267997D03*
X0119522Y0267997D03*
X0117548Y0268008D03*
X0146548Y0269008D03*
X0148522Y0268997D03*
X0150485Y0268997D03*
X0152454Y0269013D03*
X0154426Y0269013D03*
X0154420Y0255952D03*
X0152451Y0255939D03*
X0150494Y0255952D03*
X0148522Y0255947D03*
X0146551Y0255947D03*
D11*
X0150546Y0262473D03*
X0121546Y0261473D03*
D12*
X0055000Y0045457D03*
X0055000Y0052543D03*
X0208000Y0161457D03*
X0208000Y0168543D03*
X0124000Y0175457D03*
X0124000Y0182543D03*
X0201000Y0237457D03*
X0201000Y0244543D03*
X0200000Y0250457D03*
X0200000Y0257543D03*
X0234000Y0288457D03*
X0234000Y0295543D03*
X0246000Y0295543D03*
X0246000Y0288457D03*
X0098600Y0259943D03*
X0098600Y0252857D03*
X0074000Y0249543D03*
X0074000Y0242457D03*
X0322000Y0076543D03*
X0322000Y0069457D03*
D13*
X0272543Y0113000D03*
X0265457Y0113000D03*
X0254543Y0113000D03*
X0247457Y0113000D03*
X0216543Y0141000D03*
X0209457Y0141000D03*
X0200543Y0134000D03*
X0193457Y0134000D03*
X0201457Y0152000D03*
X0208543Y0152000D03*
X0151543Y0129000D03*
X0144457Y0129000D03*
X0159457Y0206000D03*
X0166543Y0206000D03*
X0091543Y0248000D03*
X0084457Y0248000D03*
X0083457Y0260000D03*
X0090543Y0260000D03*
X0076543Y0260000D03*
X0069457Y0260000D03*
X0070457Y0270000D03*
X0077543Y0270000D03*
X0083457Y0271000D03*
X0090543Y0271000D03*
X0089543Y0282000D03*
X0089543Y0289000D03*
X0082457Y0289000D03*
X0082457Y0282000D03*
X0065543Y0241000D03*
X0058457Y0241000D03*
X0058043Y0234500D03*
X0050957Y0234500D03*
X0074457Y0234000D03*
X0081543Y0234000D03*
X0186457Y0281000D03*
X0193543Y0281000D03*
X0193543Y0296000D03*
X0186457Y0296000D03*
X0222457Y0304000D03*
X0229543Y0304000D03*
X0231543Y0276000D03*
X0224457Y0276000D03*
X0398457Y0261000D03*
X0405543Y0261000D03*
D14*
X0163000Y0262454D03*
X0163000Y0269146D03*
X0132500Y0266054D03*
X0132500Y0272746D03*
X0106000Y0275346D03*
X0106000Y0268654D03*
X0022000Y0264346D03*
X0022000Y0257654D03*
D15*
X0031654Y0285000D03*
X0038346Y0285000D03*
X0041654Y0304000D03*
X0048346Y0304000D03*
X0138654Y0281000D03*
X0145346Y0281000D03*
X0157654Y0281000D03*
X0164346Y0281000D03*
D16*
X0230260Y0114000D03*
X0237740Y0114000D03*
D17*
X0129512Y0234000D03*
X0118488Y0234000D03*
X0148488Y0238000D03*
X0159512Y0238000D03*
X0032512Y0299000D03*
X0021488Y0299000D03*
D18*
X0067201Y0086500D03*
X0067201Y0081500D03*
X0067201Y0076500D03*
X0067201Y0071500D03*
X0067201Y0066500D03*
X0067201Y0061500D03*
X0067201Y0056500D03*
X0067201Y0051500D03*
X0104898Y0051500D03*
X0104898Y0056500D03*
X0104898Y0061500D03*
X0104898Y0066500D03*
X0104898Y0071500D03*
X0104898Y0076500D03*
X0104898Y0081500D03*
X0104898Y0086500D03*
X0134764Y0085500D03*
X0134764Y0080500D03*
X0134764Y0075500D03*
X0134764Y0070500D03*
X0155236Y0070500D03*
X0155236Y0075500D03*
X0155236Y0080500D03*
X0155236Y0085500D03*
X0359764Y0094500D03*
X0359764Y0099500D03*
X0359764Y0104500D03*
X0359764Y0109500D03*
X0380236Y0109500D03*
X0380236Y0104500D03*
X0380236Y0099500D03*
X0380236Y0094500D03*
X0381236Y0131500D03*
X0381236Y0136500D03*
X0381236Y0141500D03*
X0381236Y0146500D03*
X0360764Y0146500D03*
X0360764Y0141500D03*
X0360764Y0136500D03*
X0360764Y0131500D03*
X0360764Y0168500D03*
X0360764Y0173500D03*
X0360764Y0178500D03*
X0360764Y0183500D03*
X0381236Y0183500D03*
X0381236Y0178500D03*
X0381236Y0173500D03*
X0381236Y0168500D03*
X0382236Y0206500D03*
X0382236Y0211500D03*
X0382236Y0216500D03*
X0382236Y0221500D03*
X0361764Y0221500D03*
X0361764Y0216500D03*
X0361764Y0211500D03*
X0361764Y0206500D03*
X0353236Y0250500D03*
X0353236Y0255500D03*
X0353236Y0260500D03*
X0353236Y0265500D03*
X0332764Y0265500D03*
X0332764Y0260500D03*
X0332764Y0255500D03*
X0332764Y0250500D03*
X0332764Y0289500D03*
X0332764Y0294500D03*
X0332764Y0299500D03*
X0332764Y0304500D03*
X0353236Y0304500D03*
X0353236Y0299500D03*
X0353236Y0294500D03*
X0353236Y0289500D03*
D19*
X0218858Y0286886D03*
X0216890Y0286886D03*
X0214921Y0286886D03*
X0212953Y0286886D03*
X0212953Y0296925D03*
X0214921Y0296925D03*
X0216890Y0296925D03*
X0218858Y0296925D03*
D20*
X0220925Y0294858D03*
X0220925Y0292890D03*
X0220925Y0290921D03*
X0220925Y0288953D03*
X0210886Y0288953D03*
X0210886Y0290921D03*
X0210886Y0292890D03*
X0210886Y0294858D03*
D21*
X0053622Y0268321D03*
X0053622Y0266303D03*
X0053622Y0264384D03*
X0053622Y0262366D03*
X0053622Y0260398D03*
X0053622Y0258429D03*
X0053622Y0256461D03*
X0053622Y0254492D03*
X0038661Y0254492D03*
X0038661Y0256461D03*
X0038661Y0258429D03*
X0038661Y0260398D03*
X0038661Y0262366D03*
X0038661Y0264335D03*
X0038661Y0266303D03*
X0038661Y0268272D03*
D22*
X0041387Y0269877D02*
X0050897Y0269877D01*
X0050897Y0252887D01*
X0041387Y0252887D01*
X0041387Y0269877D01*
X0041387Y0252982D02*
X0050897Y0252982D01*
X0050897Y0253077D02*
X0041387Y0253077D01*
X0041387Y0253172D02*
X0050897Y0253172D01*
X0050897Y0253267D02*
X0041387Y0253267D01*
X0041387Y0253362D02*
X0050897Y0253362D01*
X0050897Y0253457D02*
X0041387Y0253457D01*
X0041387Y0253552D02*
X0050897Y0253552D01*
X0050897Y0253647D02*
X0041387Y0253647D01*
X0041387Y0253742D02*
X0050897Y0253742D01*
X0050897Y0253837D02*
X0041387Y0253837D01*
X0041387Y0253932D02*
X0050897Y0253932D01*
X0050897Y0254027D02*
X0041387Y0254027D01*
X0041387Y0254122D02*
X0050897Y0254122D01*
X0050897Y0254217D02*
X0041387Y0254217D01*
X0041387Y0254312D02*
X0050897Y0254312D01*
X0050897Y0254407D02*
X0041387Y0254407D01*
X0041387Y0254502D02*
X0050897Y0254502D01*
X0050897Y0254597D02*
X0041387Y0254597D01*
X0041387Y0254692D02*
X0050897Y0254692D01*
X0050897Y0254787D02*
X0041387Y0254787D01*
X0041387Y0254882D02*
X0050897Y0254882D01*
X0050897Y0254977D02*
X0041387Y0254977D01*
X0041387Y0255072D02*
X0050897Y0255072D01*
X0050897Y0255167D02*
X0041387Y0255167D01*
X0041387Y0255262D02*
X0050897Y0255262D01*
X0050897Y0255357D02*
X0041387Y0255357D01*
X0041387Y0255452D02*
X0050897Y0255452D01*
X0050897Y0255547D02*
X0041387Y0255547D01*
X0041387Y0255642D02*
X0050897Y0255642D01*
X0050897Y0255737D02*
X0041387Y0255737D01*
X0041387Y0255832D02*
X0050897Y0255832D01*
X0050897Y0255927D02*
X0041387Y0255927D01*
X0041387Y0256022D02*
X0050897Y0256022D01*
X0050897Y0256117D02*
X0041387Y0256117D01*
X0041387Y0256212D02*
X0050897Y0256212D01*
X0050897Y0256307D02*
X0041387Y0256307D01*
X0041387Y0256402D02*
X0050897Y0256402D01*
X0050897Y0256497D02*
X0041387Y0256497D01*
X0041387Y0256592D02*
X0050897Y0256592D01*
X0050897Y0256687D02*
X0041387Y0256687D01*
X0041387Y0256782D02*
X0050897Y0256782D01*
X0050897Y0256877D02*
X0041387Y0256877D01*
X0041387Y0256972D02*
X0050897Y0256972D01*
X0050897Y0257067D02*
X0041387Y0257067D01*
X0041387Y0257162D02*
X0050897Y0257162D01*
X0050897Y0257257D02*
X0041387Y0257257D01*
X0041387Y0257352D02*
X0050897Y0257352D01*
X0050897Y0257447D02*
X0041387Y0257447D01*
X0041387Y0257542D02*
X0050897Y0257542D01*
X0050897Y0257637D02*
X0041387Y0257637D01*
X0041387Y0257732D02*
X0050897Y0257732D01*
X0050897Y0257827D02*
X0041387Y0257827D01*
X0041387Y0257922D02*
X0050897Y0257922D01*
X0050897Y0258017D02*
X0041387Y0258017D01*
X0041387Y0258112D02*
X0050897Y0258112D01*
X0050897Y0258207D02*
X0041387Y0258207D01*
X0041387Y0258302D02*
X0050897Y0258302D01*
X0050897Y0258397D02*
X0041387Y0258397D01*
X0041387Y0258492D02*
X0050897Y0258492D01*
X0050897Y0258587D02*
X0041387Y0258587D01*
X0041387Y0258682D02*
X0050897Y0258682D01*
X0050897Y0258777D02*
X0041387Y0258777D01*
X0041387Y0258872D02*
X0050897Y0258872D01*
X0050897Y0258967D02*
X0041387Y0258967D01*
X0041387Y0259062D02*
X0050897Y0259062D01*
X0050897Y0259157D02*
X0041387Y0259157D01*
X0041387Y0259252D02*
X0050897Y0259252D01*
X0050897Y0259347D02*
X0041387Y0259347D01*
X0041387Y0259442D02*
X0050897Y0259442D01*
X0050897Y0259537D02*
X0041387Y0259537D01*
X0041387Y0259632D02*
X0050897Y0259632D01*
X0050897Y0259727D02*
X0041387Y0259727D01*
X0041387Y0259822D02*
X0050897Y0259822D01*
X0050897Y0259917D02*
X0041387Y0259917D01*
X0041387Y0260012D02*
X0050897Y0260012D01*
X0050897Y0260107D02*
X0041387Y0260107D01*
X0041387Y0260202D02*
X0050897Y0260202D01*
X0050897Y0260297D02*
X0041387Y0260297D01*
X0041387Y0260392D02*
X0050897Y0260392D01*
X0050897Y0260487D02*
X0041387Y0260487D01*
X0041387Y0260582D02*
X0050897Y0260582D01*
X0050897Y0260677D02*
X0041387Y0260677D01*
X0041387Y0260772D02*
X0050897Y0260772D01*
X0050897Y0260867D02*
X0041387Y0260867D01*
X0041387Y0260962D02*
X0050897Y0260962D01*
X0050897Y0261057D02*
X0041387Y0261057D01*
X0041387Y0261152D02*
X0050897Y0261152D01*
X0050897Y0261247D02*
X0041387Y0261247D01*
X0041387Y0261342D02*
X0050897Y0261342D01*
X0050897Y0261437D02*
X0041387Y0261437D01*
X0041387Y0261532D02*
X0050897Y0261532D01*
X0050897Y0261627D02*
X0041387Y0261627D01*
X0041387Y0261722D02*
X0050897Y0261722D01*
X0050897Y0261817D02*
X0041387Y0261817D01*
X0041387Y0261912D02*
X0050897Y0261912D01*
X0050897Y0262007D02*
X0041387Y0262007D01*
X0041387Y0262102D02*
X0050897Y0262102D01*
X0050897Y0262197D02*
X0041387Y0262197D01*
X0041387Y0262292D02*
X0050897Y0262292D01*
X0050897Y0262387D02*
X0041387Y0262387D01*
X0041387Y0262482D02*
X0050897Y0262482D01*
X0050897Y0262577D02*
X0041387Y0262577D01*
X0041387Y0262672D02*
X0050897Y0262672D01*
X0050897Y0262767D02*
X0041387Y0262767D01*
X0041387Y0262862D02*
X0050897Y0262862D01*
X0050897Y0262957D02*
X0041387Y0262957D01*
X0041387Y0263052D02*
X0050897Y0263052D01*
X0050897Y0263147D02*
X0041387Y0263147D01*
X0041387Y0263242D02*
X0050897Y0263242D01*
X0050897Y0263337D02*
X0041387Y0263337D01*
X0041387Y0263432D02*
X0050897Y0263432D01*
X0050897Y0263527D02*
X0041387Y0263527D01*
X0041387Y0263622D02*
X0050897Y0263622D01*
X0050897Y0263717D02*
X0041387Y0263717D01*
X0041387Y0263812D02*
X0050897Y0263812D01*
X0050897Y0263907D02*
X0041387Y0263907D01*
X0041387Y0264002D02*
X0050897Y0264002D01*
X0050897Y0264097D02*
X0041387Y0264097D01*
X0041387Y0264192D02*
X0050897Y0264192D01*
X0050897Y0264287D02*
X0041387Y0264287D01*
X0041387Y0264382D02*
X0050897Y0264382D01*
X0050897Y0264477D02*
X0041387Y0264477D01*
X0041387Y0264572D02*
X0050897Y0264572D01*
X0050897Y0264667D02*
X0041387Y0264667D01*
X0041387Y0264762D02*
X0050897Y0264762D01*
X0050897Y0264857D02*
X0041387Y0264857D01*
X0041387Y0264952D02*
X0050897Y0264952D01*
X0050897Y0265047D02*
X0041387Y0265047D01*
X0041387Y0265142D02*
X0050897Y0265142D01*
X0050897Y0265237D02*
X0041387Y0265237D01*
X0041387Y0265332D02*
X0050897Y0265332D01*
X0050897Y0265427D02*
X0041387Y0265427D01*
X0041387Y0265522D02*
X0050897Y0265522D01*
X0050897Y0265617D02*
X0041387Y0265617D01*
X0041387Y0265712D02*
X0050897Y0265712D01*
X0050897Y0265807D02*
X0041387Y0265807D01*
X0041387Y0265902D02*
X0050897Y0265902D01*
X0050897Y0265997D02*
X0041387Y0265997D01*
X0041387Y0266092D02*
X0050897Y0266092D01*
X0050897Y0266187D02*
X0041387Y0266187D01*
X0041387Y0266282D02*
X0050897Y0266282D01*
X0050897Y0266377D02*
X0041387Y0266377D01*
X0041387Y0266472D02*
X0050897Y0266472D01*
X0050897Y0266567D02*
X0041387Y0266567D01*
X0041387Y0266662D02*
X0050897Y0266662D01*
X0050897Y0266757D02*
X0041387Y0266757D01*
X0041387Y0266852D02*
X0050897Y0266852D01*
X0050897Y0266947D02*
X0041387Y0266947D01*
X0041387Y0267042D02*
X0050897Y0267042D01*
X0050897Y0267137D02*
X0041387Y0267137D01*
X0041387Y0267232D02*
X0050897Y0267232D01*
X0050897Y0267327D02*
X0041387Y0267327D01*
X0041387Y0267422D02*
X0050897Y0267422D01*
X0050897Y0267517D02*
X0041387Y0267517D01*
X0041387Y0267612D02*
X0050897Y0267612D01*
X0050897Y0267707D02*
X0041387Y0267707D01*
X0041387Y0267802D02*
X0050897Y0267802D01*
X0050897Y0267897D02*
X0041387Y0267897D01*
X0041387Y0267992D02*
X0050897Y0267992D01*
X0050897Y0268087D02*
X0041387Y0268087D01*
X0041387Y0268182D02*
X0050897Y0268182D01*
X0050897Y0268277D02*
X0041387Y0268277D01*
X0041387Y0268372D02*
X0050897Y0268372D01*
X0050897Y0268467D02*
X0041387Y0268467D01*
X0041387Y0268562D02*
X0050897Y0268562D01*
X0050897Y0268657D02*
X0041387Y0268657D01*
X0041387Y0268752D02*
X0050897Y0268752D01*
X0050897Y0268847D02*
X0041387Y0268847D01*
X0041387Y0268942D02*
X0050897Y0268942D01*
X0050897Y0269037D02*
X0041387Y0269037D01*
X0041387Y0269132D02*
X0050897Y0269132D01*
X0050897Y0269227D02*
X0041387Y0269227D01*
X0041387Y0269322D02*
X0050897Y0269322D01*
X0050897Y0269417D02*
X0041387Y0269417D01*
X0041387Y0269512D02*
X0050897Y0269512D01*
X0050897Y0269607D02*
X0041387Y0269607D01*
X0041387Y0269702D02*
X0050897Y0269702D01*
X0050897Y0269797D02*
X0041387Y0269797D01*
D23*
X0039000Y0166953D03*
X0025000Y0166953D03*
X0025000Y0155142D03*
X0039000Y0155142D03*
X0054000Y0155142D03*
X0054000Y0166953D03*
D24*
X0169880Y0250063D03*
X0169880Y0252031D03*
X0169880Y0254000D03*
X0169880Y0255969D03*
X0169880Y0257937D03*
X0186120Y0257937D03*
X0186120Y0255969D03*
X0186120Y0254000D03*
X0186120Y0252031D03*
X0186120Y0250063D03*
D25*
X0188811Y0123461D03*
X0188811Y0118500D03*
X0188811Y0113500D03*
X0188811Y0108539D03*
X0165189Y0108539D03*
X0165189Y0113500D03*
X0165189Y0118500D03*
X0165189Y0123461D03*
D26*
X0062480Y0191291D03*
X0062480Y0196409D03*
X0055984Y0196409D03*
X0055984Y0193850D03*
X0055984Y0191291D03*
X0055984Y0208291D03*
X0055984Y0210850D03*
X0055984Y0213409D03*
X0062480Y0213409D03*
X0062480Y0208291D03*
D27*
X0147252Y0193654D03*
X0149220Y0193654D03*
X0151189Y0193654D03*
X0153157Y0193654D03*
X0155126Y0193654D03*
X0157094Y0193654D03*
X0159063Y0193654D03*
X0161031Y0193654D03*
X0163000Y0193654D03*
X0164969Y0193654D03*
X0166937Y0193654D03*
X0168906Y0193654D03*
X0170874Y0193654D03*
X0172843Y0193654D03*
X0174811Y0193654D03*
X0176780Y0193654D03*
X0176780Y0150346D03*
X0174811Y0150346D03*
X0172843Y0150346D03*
X0170874Y0150346D03*
X0168906Y0150346D03*
X0166937Y0150346D03*
X0164969Y0150346D03*
X0163000Y0150346D03*
X0161031Y0150346D03*
X0159063Y0150346D03*
X0157094Y0150346D03*
X0155126Y0150346D03*
X0153157Y0150346D03*
X0151189Y0150346D03*
X0149220Y0150346D03*
X0147252Y0150346D03*
D28*
X0140362Y0157236D03*
X0140362Y0159205D03*
X0140362Y0161173D03*
X0140362Y0163142D03*
X0140362Y0165110D03*
X0140362Y0167079D03*
X0140362Y0169047D03*
X0140362Y0171016D03*
X0140362Y0172984D03*
X0140362Y0174953D03*
X0140362Y0176921D03*
X0140362Y0178890D03*
X0140362Y0180858D03*
X0140362Y0182827D03*
X0140362Y0184795D03*
X0140362Y0186764D03*
X0183669Y0186764D03*
X0183669Y0184795D03*
X0183669Y0182827D03*
X0183669Y0180858D03*
X0183669Y0178890D03*
X0183669Y0176921D03*
X0183669Y0174953D03*
X0183669Y0172984D03*
X0183669Y0171016D03*
X0183669Y0169047D03*
X0183669Y0167079D03*
X0183669Y0165110D03*
X0183669Y0163142D03*
X0183669Y0161173D03*
X0183669Y0159205D03*
X0183669Y0157236D03*
M02*
