G75*
%MOIN*%
%OFA0B0*%
%FSLAX25Y25*%
%IPPOS*%
%LPD*%
%AMOC8*
5,1,8,0,0,1.08239X$1,22.5*
%
%ADD10C,0.13635*%
%ADD11C,0.01600*%
%ADD12R,0.05792X0.05792*%
%ADD13C,0.03162*%
%ADD14R,0.05524X0.03950*%
%ADD15C,0.09461*%
%ADD16C,0.05950*%
%ADD17R,0.06115X0.06115*%
%ADD18C,0.05550*%
%ADD19R,0.04762X0.04762*%
D10*
X0079740Y0059071D03*
X0439976Y0059071D03*
X0439976Y0358283D03*
X0079740Y0358283D03*
D11*
X0064976Y0370094D02*
X0064976Y0045291D01*
X0084661Y0045291D01*
X0084661Y0371079D01*
X0064976Y0370094D01*
X0064976Y0370773D02*
X0399622Y0370773D01*
X0399622Y0371079D02*
X0399622Y0350409D01*
X0236236Y0350409D01*
X0236236Y0355331D01*
X0223441Y0355331D01*
X0223441Y0353362D01*
X0064976Y0353362D01*
X0064976Y0371079D01*
X0399622Y0371079D01*
X0399622Y0369175D02*
X0064976Y0369175D01*
X0084661Y0369175D01*
X0084661Y0370773D02*
X0078554Y0370773D01*
X0084661Y0367576D02*
X0064976Y0367576D01*
X0399622Y0367576D01*
X0399622Y0365978D02*
X0064976Y0365978D01*
X0084661Y0365978D01*
X0084661Y0364379D02*
X0064976Y0364379D01*
X0399622Y0364379D01*
X0399622Y0362781D02*
X0064976Y0362781D01*
X0084661Y0362781D01*
X0084661Y0361182D02*
X0064976Y0361182D01*
X0399622Y0361182D01*
X0399622Y0359584D02*
X0064976Y0359584D01*
X0084661Y0359584D01*
X0084661Y0357985D02*
X0064976Y0357985D01*
X0399622Y0357985D01*
X0399622Y0356387D02*
X0064976Y0356387D01*
X0084661Y0356387D01*
X0084661Y0354788D02*
X0064976Y0354788D01*
X0223441Y0354788D01*
X0236236Y0354788D02*
X0399622Y0354788D01*
X0399622Y0353190D02*
X0236236Y0353190D01*
X0236236Y0351591D02*
X0399622Y0351591D01*
X0432102Y0269701D02*
X0454740Y0269701D01*
X0454740Y0047260D01*
X0454740Y0066945D01*
X0271669Y0066945D01*
X0271669Y0063008D01*
X0258874Y0063008D01*
X0258874Y0066945D01*
X0064976Y0066945D01*
X0064976Y0047260D01*
X0123047Y0047260D01*
X0123047Y0059071D01*
X0140764Y0059071D01*
X0140764Y0047260D01*
X0281512Y0047260D01*
X0281512Y0058087D01*
X0299228Y0058087D01*
X0299228Y0047260D01*
X0367142Y0047260D01*
X0367142Y0061039D01*
X0379937Y0061039D01*
X0379937Y0047260D01*
X0454740Y0047260D01*
X0431118Y0047260D01*
X0432102Y0269701D01*
X0432097Y0268469D02*
X0454740Y0268469D01*
X0454740Y0266870D02*
X0432090Y0266870D01*
X0432083Y0265272D02*
X0454740Y0265272D01*
X0454740Y0263673D02*
X0432076Y0263673D01*
X0432069Y0262075D02*
X0454740Y0262075D01*
X0454740Y0260476D02*
X0432062Y0260476D01*
X0432054Y0258878D02*
X0454740Y0258878D01*
X0454740Y0257279D02*
X0432047Y0257279D01*
X0432040Y0255681D02*
X0454740Y0255681D01*
X0454740Y0254082D02*
X0432033Y0254082D01*
X0432026Y0252484D02*
X0454740Y0252484D01*
X0454740Y0250885D02*
X0432019Y0250885D01*
X0432012Y0249287D02*
X0454740Y0249287D01*
X0454740Y0247688D02*
X0432005Y0247688D01*
X0431998Y0246090D02*
X0454740Y0246090D01*
X0454740Y0244491D02*
X0431991Y0244491D01*
X0431984Y0242892D02*
X0454740Y0242892D01*
X0454740Y0241294D02*
X0431977Y0241294D01*
X0431970Y0239695D02*
X0454740Y0239695D01*
X0454740Y0238097D02*
X0431963Y0238097D01*
X0431955Y0236498D02*
X0454740Y0236498D01*
X0454740Y0234900D02*
X0431948Y0234900D01*
X0431941Y0233301D02*
X0454740Y0233301D01*
X0454740Y0231703D02*
X0431934Y0231703D01*
X0431927Y0230104D02*
X0454740Y0230104D01*
X0454740Y0228506D02*
X0431920Y0228506D01*
X0431913Y0226907D02*
X0454740Y0226907D01*
X0454740Y0225309D02*
X0431906Y0225309D01*
X0431899Y0223710D02*
X0454740Y0223710D01*
X0454740Y0222112D02*
X0431892Y0222112D01*
X0431885Y0220513D02*
X0454740Y0220513D01*
X0454740Y0218915D02*
X0431878Y0218915D01*
X0431871Y0217316D02*
X0454740Y0217316D01*
X0454740Y0215718D02*
X0431863Y0215718D01*
X0431856Y0214119D02*
X0454740Y0214119D01*
X0454740Y0212521D02*
X0431849Y0212521D01*
X0431842Y0210922D02*
X0454740Y0210922D01*
X0454740Y0209324D02*
X0431835Y0209324D01*
X0431828Y0207725D02*
X0454740Y0207725D01*
X0454740Y0206127D02*
X0431821Y0206127D01*
X0431814Y0204528D02*
X0454740Y0204528D01*
X0454740Y0202930D02*
X0431807Y0202930D01*
X0431800Y0201331D02*
X0454740Y0201331D01*
X0454740Y0199733D02*
X0431793Y0199733D01*
X0431786Y0198134D02*
X0454740Y0198134D01*
X0454740Y0196536D02*
X0431779Y0196536D01*
X0431772Y0194937D02*
X0454740Y0194937D01*
X0454740Y0193339D02*
X0431764Y0193339D01*
X0431757Y0191740D02*
X0454740Y0191740D01*
X0454740Y0190142D02*
X0431750Y0190142D01*
X0431743Y0188543D02*
X0454740Y0188543D01*
X0454740Y0186945D02*
X0431736Y0186945D01*
X0431729Y0185346D02*
X0454740Y0185346D01*
X0454740Y0183748D02*
X0431722Y0183748D01*
X0431715Y0182149D02*
X0454740Y0182149D01*
X0454740Y0180551D02*
X0431708Y0180551D01*
X0431701Y0178952D02*
X0454740Y0178952D01*
X0454740Y0177354D02*
X0431694Y0177354D01*
X0431687Y0175755D02*
X0454740Y0175755D01*
X0454740Y0174156D02*
X0431680Y0174156D01*
X0431673Y0172558D02*
X0454740Y0172558D01*
X0454740Y0170959D02*
X0431665Y0170959D01*
X0431658Y0169361D02*
X0454740Y0169361D01*
X0454740Y0167762D02*
X0431651Y0167762D01*
X0431644Y0166164D02*
X0454740Y0166164D01*
X0454740Y0164565D02*
X0431637Y0164565D01*
X0431630Y0162967D02*
X0454740Y0162967D01*
X0454740Y0161368D02*
X0431623Y0161368D01*
X0431616Y0159770D02*
X0454740Y0159770D01*
X0454740Y0158171D02*
X0431609Y0158171D01*
X0431602Y0156573D02*
X0454740Y0156573D01*
X0454740Y0154974D02*
X0431595Y0154974D01*
X0431588Y0153376D02*
X0454740Y0153376D01*
X0454740Y0151777D02*
X0431581Y0151777D01*
X0431573Y0150179D02*
X0454740Y0150179D01*
X0454740Y0148580D02*
X0431566Y0148580D01*
X0431559Y0146982D02*
X0454740Y0146982D01*
X0454740Y0145383D02*
X0431552Y0145383D01*
X0431545Y0143785D02*
X0454740Y0143785D01*
X0454740Y0142186D02*
X0431538Y0142186D01*
X0431531Y0140588D02*
X0454740Y0140588D01*
X0454740Y0138989D02*
X0431524Y0138989D01*
X0431517Y0137391D02*
X0454740Y0137391D01*
X0454740Y0135792D02*
X0431510Y0135792D01*
X0431503Y0134194D02*
X0454740Y0134194D01*
X0454740Y0132595D02*
X0431496Y0132595D01*
X0431489Y0130997D02*
X0454740Y0130997D01*
X0454740Y0129398D02*
X0431482Y0129398D01*
X0431474Y0127800D02*
X0454740Y0127800D01*
X0454740Y0126201D02*
X0431467Y0126201D01*
X0431460Y0124603D02*
X0454740Y0124603D01*
X0454740Y0123004D02*
X0431453Y0123004D01*
X0431446Y0121406D02*
X0454740Y0121406D01*
X0454740Y0119807D02*
X0431439Y0119807D01*
X0431432Y0118209D02*
X0454740Y0118209D01*
X0454740Y0116610D02*
X0431425Y0116610D01*
X0431418Y0115012D02*
X0454740Y0115012D01*
X0454740Y0113413D02*
X0431411Y0113413D01*
X0431404Y0111815D02*
X0454740Y0111815D01*
X0454740Y0110216D02*
X0431397Y0110216D01*
X0431390Y0108618D02*
X0454740Y0108618D01*
X0454740Y0107019D02*
X0431383Y0107019D01*
X0431375Y0105421D02*
X0454740Y0105421D01*
X0454740Y0103822D02*
X0431368Y0103822D01*
X0431361Y0102223D02*
X0454740Y0102223D01*
X0454740Y0100625D02*
X0431354Y0100625D01*
X0431347Y0099026D02*
X0454740Y0099026D01*
X0454740Y0097428D02*
X0431340Y0097428D01*
X0431333Y0095829D02*
X0454740Y0095829D01*
X0454740Y0094231D02*
X0431326Y0094231D01*
X0431319Y0092632D02*
X0454740Y0092632D01*
X0454740Y0091034D02*
X0431312Y0091034D01*
X0431305Y0089435D02*
X0454740Y0089435D01*
X0454740Y0087837D02*
X0431298Y0087837D01*
X0431291Y0086238D02*
X0454740Y0086238D01*
X0454740Y0084640D02*
X0431284Y0084640D01*
X0431276Y0083041D02*
X0454740Y0083041D01*
X0454740Y0081443D02*
X0431269Y0081443D01*
X0431262Y0079844D02*
X0454740Y0079844D01*
X0454740Y0078246D02*
X0431255Y0078246D01*
X0431248Y0076647D02*
X0454740Y0076647D01*
X0454740Y0075049D02*
X0431241Y0075049D01*
X0431234Y0073450D02*
X0454740Y0073450D01*
X0454740Y0071852D02*
X0431227Y0071852D01*
X0431220Y0070253D02*
X0454740Y0070253D01*
X0454740Y0068655D02*
X0431213Y0068655D01*
X0431206Y0067056D02*
X0454740Y0067056D01*
X0454740Y0065458D02*
X0271669Y0065458D01*
X0271669Y0063859D02*
X0454740Y0063859D01*
X0431192Y0063859D01*
X0431184Y0062261D02*
X0454740Y0062261D01*
X0064976Y0062261D01*
X0084661Y0062261D01*
X0084661Y0063859D02*
X0064976Y0063859D01*
X0258874Y0063859D01*
X0258874Y0065458D02*
X0064976Y0065458D01*
X0084661Y0065458D01*
X0084661Y0067056D02*
X0064976Y0067056D01*
X0064976Y0068655D02*
X0084661Y0068655D01*
X0084661Y0070253D02*
X0064976Y0070253D01*
X0064976Y0071852D02*
X0084661Y0071852D01*
X0084661Y0073450D02*
X0064976Y0073450D01*
X0064976Y0075049D02*
X0084661Y0075049D01*
X0084661Y0076647D02*
X0064976Y0076647D01*
X0064976Y0078246D02*
X0084661Y0078246D01*
X0084661Y0079844D02*
X0064976Y0079844D01*
X0064976Y0081443D02*
X0084661Y0081443D01*
X0084661Y0083041D02*
X0064976Y0083041D01*
X0064976Y0084640D02*
X0084661Y0084640D01*
X0084661Y0086238D02*
X0064976Y0086238D01*
X0064976Y0087837D02*
X0084661Y0087837D01*
X0084661Y0089435D02*
X0064976Y0089435D01*
X0064976Y0091034D02*
X0084661Y0091034D01*
X0084661Y0092632D02*
X0064976Y0092632D01*
X0064976Y0094231D02*
X0084661Y0094231D01*
X0084661Y0095829D02*
X0064976Y0095829D01*
X0064976Y0097428D02*
X0084661Y0097428D01*
X0084661Y0099026D02*
X0064976Y0099026D01*
X0064976Y0100625D02*
X0084661Y0100625D01*
X0084661Y0102223D02*
X0064976Y0102223D01*
X0064976Y0103822D02*
X0084661Y0103822D01*
X0084661Y0105421D02*
X0064976Y0105421D01*
X0064976Y0107019D02*
X0084661Y0107019D01*
X0084661Y0108618D02*
X0064976Y0108618D01*
X0064976Y0110216D02*
X0084661Y0110216D01*
X0084661Y0111815D02*
X0064976Y0111815D01*
X0064976Y0113413D02*
X0084661Y0113413D01*
X0084661Y0115012D02*
X0064976Y0115012D01*
X0064976Y0116610D02*
X0084661Y0116610D01*
X0084661Y0118209D02*
X0064976Y0118209D01*
X0064976Y0119807D02*
X0084661Y0119807D01*
X0084661Y0121406D02*
X0064976Y0121406D01*
X0064976Y0123004D02*
X0084661Y0123004D01*
X0084661Y0124603D02*
X0064976Y0124603D01*
X0064976Y0126201D02*
X0084661Y0126201D01*
X0084661Y0127800D02*
X0064976Y0127800D01*
X0064976Y0129398D02*
X0084661Y0129398D01*
X0084661Y0130997D02*
X0064976Y0130997D01*
X0064976Y0132595D02*
X0084661Y0132595D01*
X0084661Y0134194D02*
X0064976Y0134194D01*
X0064976Y0135792D02*
X0084661Y0135792D01*
X0084661Y0137391D02*
X0064976Y0137391D01*
X0064976Y0138989D02*
X0084661Y0138989D01*
X0084661Y0140588D02*
X0064976Y0140588D01*
X0064976Y0142186D02*
X0084661Y0142186D01*
X0084661Y0143785D02*
X0064976Y0143785D01*
X0064976Y0145383D02*
X0084661Y0145383D01*
X0084661Y0146982D02*
X0064976Y0146982D01*
X0064976Y0148580D02*
X0084661Y0148580D01*
X0084661Y0150179D02*
X0064976Y0150179D01*
X0064976Y0151777D02*
X0084661Y0151777D01*
X0084661Y0153376D02*
X0064976Y0153376D01*
X0064976Y0154974D02*
X0084661Y0154974D01*
X0084661Y0156573D02*
X0064976Y0156573D01*
X0064976Y0158171D02*
X0084661Y0158171D01*
X0084661Y0159770D02*
X0064976Y0159770D01*
X0064976Y0161368D02*
X0084661Y0161368D01*
X0084661Y0162967D02*
X0064976Y0162967D01*
X0064976Y0164565D02*
X0084661Y0164565D01*
X0084661Y0166164D02*
X0064976Y0166164D01*
X0064976Y0167762D02*
X0084661Y0167762D01*
X0084661Y0169361D02*
X0064976Y0169361D01*
X0064976Y0170959D02*
X0084661Y0170959D01*
X0084661Y0172558D02*
X0064976Y0172558D01*
X0064976Y0174156D02*
X0084661Y0174156D01*
X0084661Y0175755D02*
X0064976Y0175755D01*
X0064976Y0177354D02*
X0084661Y0177354D01*
X0084661Y0178952D02*
X0064976Y0178952D01*
X0064976Y0180551D02*
X0084661Y0180551D01*
X0084661Y0182149D02*
X0064976Y0182149D01*
X0064976Y0183748D02*
X0084661Y0183748D01*
X0084661Y0185346D02*
X0064976Y0185346D01*
X0064976Y0186945D02*
X0084661Y0186945D01*
X0084661Y0188543D02*
X0064976Y0188543D01*
X0064976Y0190142D02*
X0084661Y0190142D01*
X0084661Y0191740D02*
X0064976Y0191740D01*
X0064976Y0193339D02*
X0084661Y0193339D01*
X0084661Y0194937D02*
X0064976Y0194937D01*
X0064976Y0196536D02*
X0084661Y0196536D01*
X0084661Y0198134D02*
X0064976Y0198134D01*
X0064976Y0199733D02*
X0084661Y0199733D01*
X0084661Y0201331D02*
X0064976Y0201331D01*
X0064976Y0202930D02*
X0084661Y0202930D01*
X0084661Y0204528D02*
X0064976Y0204528D01*
X0064976Y0206127D02*
X0084661Y0206127D01*
X0084661Y0207725D02*
X0064976Y0207725D01*
X0064976Y0209324D02*
X0084661Y0209324D01*
X0084661Y0210922D02*
X0064976Y0210922D01*
X0064976Y0212521D02*
X0084661Y0212521D01*
X0084661Y0214119D02*
X0064976Y0214119D01*
X0064976Y0215718D02*
X0084661Y0215718D01*
X0084661Y0217316D02*
X0064976Y0217316D01*
X0064976Y0218915D02*
X0084661Y0218915D01*
X0084661Y0220513D02*
X0064976Y0220513D01*
X0064976Y0222112D02*
X0084661Y0222112D01*
X0084661Y0223710D02*
X0064976Y0223710D01*
X0064976Y0225309D02*
X0084661Y0225309D01*
X0084661Y0226907D02*
X0064976Y0226907D01*
X0064976Y0228506D02*
X0084661Y0228506D01*
X0084661Y0230104D02*
X0064976Y0230104D01*
X0064976Y0231703D02*
X0084661Y0231703D01*
X0084661Y0233301D02*
X0064976Y0233301D01*
X0064976Y0234900D02*
X0084661Y0234900D01*
X0084661Y0236498D02*
X0064976Y0236498D01*
X0064976Y0238097D02*
X0084661Y0238097D01*
X0084661Y0239695D02*
X0064976Y0239695D01*
X0064976Y0241294D02*
X0084661Y0241294D01*
X0084661Y0242892D02*
X0064976Y0242892D01*
X0064976Y0244491D02*
X0084661Y0244491D01*
X0084661Y0246090D02*
X0064976Y0246090D01*
X0064976Y0247688D02*
X0084661Y0247688D01*
X0084661Y0249287D02*
X0064976Y0249287D01*
X0064976Y0250885D02*
X0084661Y0250885D01*
X0084661Y0252484D02*
X0064976Y0252484D01*
X0064976Y0254082D02*
X0084661Y0254082D01*
X0084661Y0255681D02*
X0064976Y0255681D01*
X0064976Y0257279D02*
X0084661Y0257279D01*
X0084661Y0258878D02*
X0064976Y0258878D01*
X0064976Y0260476D02*
X0084661Y0260476D01*
X0084661Y0262075D02*
X0064976Y0262075D01*
X0064976Y0263673D02*
X0084661Y0263673D01*
X0084661Y0265272D02*
X0064976Y0265272D01*
X0064976Y0266870D02*
X0084661Y0266870D01*
X0084661Y0268469D02*
X0064976Y0268469D01*
X0064976Y0270067D02*
X0084661Y0270067D01*
X0084661Y0271666D02*
X0064976Y0271666D01*
X0064976Y0273264D02*
X0084661Y0273264D01*
X0084661Y0274863D02*
X0064976Y0274863D01*
X0064976Y0276461D02*
X0084661Y0276461D01*
X0084661Y0278060D02*
X0064976Y0278060D01*
X0064976Y0279658D02*
X0084661Y0279658D01*
X0084661Y0281257D02*
X0064976Y0281257D01*
X0064976Y0282855D02*
X0084661Y0282855D01*
X0084661Y0284454D02*
X0064976Y0284454D01*
X0064976Y0286052D02*
X0084661Y0286052D01*
X0084661Y0287651D02*
X0064976Y0287651D01*
X0064976Y0289249D02*
X0084661Y0289249D01*
X0084661Y0290848D02*
X0064976Y0290848D01*
X0064976Y0292446D02*
X0084661Y0292446D01*
X0084661Y0294045D02*
X0064976Y0294045D01*
X0064976Y0295643D02*
X0084661Y0295643D01*
X0084661Y0297242D02*
X0064976Y0297242D01*
X0064976Y0298840D02*
X0084661Y0298840D01*
X0084661Y0300439D02*
X0064976Y0300439D01*
X0064976Y0302037D02*
X0084661Y0302037D01*
X0084661Y0303636D02*
X0064976Y0303636D01*
X0064976Y0305234D02*
X0084661Y0305234D01*
X0084661Y0306833D02*
X0064976Y0306833D01*
X0064976Y0308431D02*
X0084661Y0308431D01*
X0084661Y0310030D02*
X0064976Y0310030D01*
X0064976Y0311628D02*
X0084661Y0311628D01*
X0084661Y0313227D02*
X0064976Y0313227D01*
X0064976Y0314825D02*
X0084661Y0314825D01*
X0084661Y0316424D02*
X0064976Y0316424D01*
X0064976Y0318023D02*
X0084661Y0318023D01*
X0084661Y0319621D02*
X0064976Y0319621D01*
X0064976Y0321220D02*
X0084661Y0321220D01*
X0084661Y0322818D02*
X0064976Y0322818D01*
X0064976Y0324417D02*
X0084661Y0324417D01*
X0084661Y0326015D02*
X0064976Y0326015D01*
X0064976Y0327614D02*
X0084661Y0327614D01*
X0084661Y0329212D02*
X0064976Y0329212D01*
X0064976Y0330811D02*
X0084661Y0330811D01*
X0084661Y0332409D02*
X0064976Y0332409D01*
X0064976Y0334008D02*
X0084661Y0334008D01*
X0084661Y0335606D02*
X0064976Y0335606D01*
X0064976Y0337205D02*
X0084661Y0337205D01*
X0084661Y0338803D02*
X0064976Y0338803D01*
X0064976Y0340402D02*
X0084661Y0340402D01*
X0084661Y0342000D02*
X0064976Y0342000D01*
X0064976Y0343599D02*
X0084661Y0343599D01*
X0084661Y0345197D02*
X0064976Y0345197D01*
X0064976Y0346796D02*
X0084661Y0346796D01*
X0084661Y0348394D02*
X0064976Y0348394D01*
X0064976Y0349993D02*
X0084661Y0349993D01*
X0084661Y0351591D02*
X0064976Y0351591D01*
X0064976Y0353190D02*
X0084661Y0353190D01*
X0431199Y0065458D02*
X0454740Y0065458D01*
X0454740Y0060662D02*
X0379937Y0060662D01*
X0379937Y0059064D02*
X0454740Y0059064D01*
X0431170Y0059064D01*
X0431177Y0060662D02*
X0454740Y0060662D01*
X0454740Y0057465D02*
X0379937Y0057465D01*
X0379937Y0055867D02*
X0454740Y0055867D01*
X0431156Y0055867D01*
X0431163Y0057465D02*
X0454740Y0057465D01*
X0454740Y0054268D02*
X0379937Y0054268D01*
X0379937Y0052670D02*
X0454740Y0052670D01*
X0431142Y0052670D01*
X0431149Y0054268D02*
X0454740Y0054268D01*
X0454740Y0051071D02*
X0379937Y0051071D01*
X0379937Y0049473D02*
X0454740Y0049473D01*
X0431128Y0049473D01*
X0431135Y0051071D02*
X0454740Y0051071D01*
X0454740Y0047874D02*
X0379937Y0047874D01*
X0367142Y0047874D02*
X0299228Y0047874D01*
X0299228Y0049473D02*
X0367142Y0049473D01*
X0367142Y0051071D02*
X0299228Y0051071D01*
X0299228Y0052670D02*
X0367142Y0052670D01*
X0367142Y0054268D02*
X0299228Y0054268D01*
X0299228Y0055867D02*
X0367142Y0055867D01*
X0367142Y0057465D02*
X0299228Y0057465D01*
X0281512Y0057465D02*
X0140764Y0057465D01*
X0140764Y0055867D02*
X0281512Y0055867D01*
X0281512Y0054268D02*
X0140764Y0054268D01*
X0140764Y0052670D02*
X0281512Y0052670D01*
X0281512Y0051071D02*
X0140764Y0051071D01*
X0140764Y0049473D02*
X0281512Y0049473D01*
X0281512Y0047874D02*
X0140764Y0047874D01*
X0140764Y0059064D02*
X0367142Y0059064D01*
X0367142Y0060662D02*
X0064976Y0060662D01*
X0084661Y0060662D01*
X0084661Y0059064D02*
X0064976Y0059064D01*
X0123047Y0059064D01*
X0123047Y0057465D02*
X0064976Y0057465D01*
X0084661Y0057465D01*
X0084661Y0055867D02*
X0064976Y0055867D01*
X0123047Y0055867D01*
X0123047Y0054268D02*
X0064976Y0054268D01*
X0084661Y0054268D01*
X0084661Y0052670D02*
X0064976Y0052670D01*
X0123047Y0052670D01*
X0123047Y0051071D02*
X0064976Y0051071D01*
X0084661Y0051071D01*
X0084661Y0049473D02*
X0064976Y0049473D01*
X0123047Y0049473D01*
X0123047Y0047874D02*
X0064976Y0047874D01*
X0084661Y0047874D01*
X0084661Y0046276D02*
X0064976Y0046276D01*
X0431121Y0047874D02*
X0454740Y0047874D01*
D12*
X0422063Y0077693D03*
X0373047Y0055055D03*
X0289976Y0051945D03*
X0264858Y0068717D03*
X0252890Y0151394D03*
X0330921Y0158717D03*
X0264780Y0220094D03*
X0293244Y0242142D03*
X0281276Y0297260D03*
X0238441Y0308283D03*
X0220882Y0283559D03*
X0176394Y0283402D03*
X0122969Y0347063D03*
X0100803Y0346394D03*
X0229110Y0348047D03*
X0379740Y0231236D03*
X0427181Y0256827D03*
X0449071Y0283283D03*
X0405921Y0340764D03*
X0141157Y0155606D03*
X0090567Y0162654D03*
X0089780Y0175134D03*
X0156591Y0109268D03*
X0131709Y0053756D03*
D13*
X0132732Y0073598D03*
X0120843Y0091866D03*
X0133835Y0108874D03*
X0142772Y0093913D03*
X0176433Y0108244D03*
X0194701Y0120134D03*
X0211709Y0107142D03*
X0196748Y0098205D03*
X0224701Y0079780D03*
X0209740Y0070843D03*
X0226748Y0057850D03*
X0245016Y0069740D03*
X0279110Y0090055D03*
X0292102Y0107063D03*
X0301039Y0092102D03*
X0291000Y0071787D03*
X0328795Y0103598D03*
X0319858Y0118559D03*
X0341787Y0120606D03*
X0329898Y0138874D03*
X0375173Y0110173D03*
X0384110Y0095213D03*
X0362181Y0093165D03*
X0374071Y0074898D03*
X0423087Y0097535D03*
X0411197Y0115803D03*
X0424189Y0132811D03*
X0433126Y0117850D03*
X0377614Y0176118D03*
X0368677Y0191079D03*
X0390606Y0193126D03*
X0378717Y0211394D03*
X0416118Y0216669D03*
X0425055Y0201709D03*
X0438047Y0218717D03*
X0426157Y0236984D03*
X0410961Y0272417D03*
X0393953Y0285409D03*
X0408913Y0294346D03*
X0429228Y0284307D03*
X0367811Y0329898D03*
X0350803Y0342890D03*
X0365764Y0351827D03*
X0386079Y0341787D03*
X0336394Y0295134D03*
X0321433Y0286197D03*
X0301118Y0296236D03*
X0319386Y0308126D03*
X0284228Y0345921D03*
X0269268Y0336984D03*
X0248953Y0347024D03*
X0267220Y0358913D03*
X0218598Y0309307D03*
X0200331Y0297417D03*
X0183323Y0310409D03*
X0198283Y0319346D03*
X0178087Y0344937D03*
X0163126Y0336000D03*
X0142811Y0346039D03*
X0161079Y0357929D03*
X0099780Y0326551D03*
X0111669Y0308283D03*
X0098677Y0291276D03*
X0089740Y0306236D03*
X0175370Y0263559D03*
X0187260Y0245291D03*
X0174268Y0228283D03*
X0165331Y0243244D03*
X0143283Y0210724D03*
X0152220Y0195764D03*
X0130291Y0193717D03*
X0142181Y0175449D03*
X0090803Y0194976D03*
X0078913Y0213244D03*
X0091906Y0230252D03*
X0100843Y0215291D03*
X0089543Y0142811D03*
X0101433Y0124543D03*
X0088441Y0107535D03*
X0079504Y0122496D03*
X0197772Y0153520D03*
X0212732Y0162457D03*
X0233047Y0152417D03*
X0214780Y0140528D03*
X0218756Y0228441D03*
X0209819Y0243402D03*
X0231748Y0245449D03*
X0253913Y0258205D03*
X0266906Y0275213D03*
X0275843Y0260252D03*
X0265803Y0239937D03*
X0313087Y0241118D03*
X0331354Y0253008D03*
X0348362Y0240016D03*
X0333402Y0231079D03*
X0219858Y0263717D03*
D14*
X0420843Y0310803D03*
X0420843Y0317890D03*
D15*
X0341433Y0202654D03*
X0341591Y0176630D03*
X0258913Y0176630D03*
X0258756Y0202654D03*
D16*
X0424531Y0330646D03*
X0433559Y0339677D03*
X0442587Y0330646D03*
X0433559Y0321614D03*
D17*
X0444898Y0308087D03*
X0413402Y0312024D03*
X0411433Y0321866D03*
X0393717Y0309071D03*
X0423244Y0355331D03*
X0408480Y0257890D03*
D18*
X0405528Y0329740D03*
X0290370Y0270685D03*
X0281512Y0313008D03*
X0305134Y0142732D03*
X0317929Y0077772D03*
X0160449Y0081709D03*
D19*
X0239189Y0295291D03*
M02*
