%
M48
M72
T01C0.02362
T02C0.02992
T03C0.03150
T04C0.03543
T05C0.08661
T06C0.12835
%
T01
X120843Y91866
X133835Y108874
X142772Y93913
X132732Y73598
X176433Y108244
X194701Y120134
X211709Y107142
X196748Y98205
X224701Y79780
X209740Y70843
X226748Y57850
X245016Y69740
X279110Y90055
X292102Y107063
X301039Y92102
X291000Y71787
X328795Y103598
X319858Y118559
X341787Y120606
X329898Y138874
X375173Y110173
X384110Y95213
X362181Y93165
X374071Y74898
X423087Y97535
X411197Y115803
X424189Y132811
X433126Y117850
X377614Y176118
X368677Y191079
X390606Y193126
X378717Y211394
X416118Y216669
X425055Y201709
X438047Y218717
X426157Y236984
X410961Y272417
X393953Y285409
X408913Y294346
X429228Y284307
X367811Y329898
X350803Y342890
X365764Y351827
X386079Y341787
X336394Y295134
X321433Y286197
X301118Y296236
X319386Y308126
X284228Y345921
X269268Y336984
X248953Y347024
X267220Y358913
X218598Y309307
X200331Y297417
X183323Y310409
X198283Y319346
X178087Y344937
X163126Y336000
X142811Y346039
X161079Y357929
X99780Y326551
X111669Y308283
X98677Y291276
X89740Y306236
X175370Y263559
X187260Y245291
X174268Y228283
X165331Y243244
X143283Y210724
X152220Y195764
X130291Y193717
X142181Y175449
X90803Y194976
X78913Y213244
X91906Y230252
X100843Y215291
X89543Y142811
X101433Y124543
X88441Y107535
X79504Y122496
X197772Y153520
X212732Y162457
X233047Y152417
X214780Y140528
X218756Y228441
X209819Y243402
X231748Y245449
X253913Y258205
X266906Y275213
X275843Y260252
X265803Y239937
X313087Y241118
X331354Y253008
X348362Y240016
X333402Y231079
X239189Y295291
X219858Y263717
T02
X220882Y283559
X238441Y308283
X281276Y297260
X229110Y348047
X176394Y283402
X122969Y347063
X100803Y346394
X264780Y220094
X293244Y242142
X379740Y231236
X427181Y256827
X449071Y283283
X405921Y340764
X330921Y158717
X252890Y151394
X156591Y109268
X141157Y155606
X90567Y162654
X89780Y175134
X131709Y53756
X264858Y68717
X289976Y51945
X373047Y55055
X422063Y77693
T03
X317929Y77772
X305134Y142732
X160449Y81709
X290370Y270685
X281512Y313008
X405528Y329740
X424531Y330646
X433559Y339677
X442587Y330646
X433559Y321614
T04
X444898Y308087
X413402Y312024
X411433Y321866
X393717Y309071
X423244Y355331
X408480Y257890
T05
X341433Y202654
X341591Y176630
X258913Y176630
X258756Y202654
T06
X79740Y59071
X439976Y59071
X439976Y358283
X79740Y358283
M30
