G75*
%MOIN*%
%OFA0B0*%
%FSLAX25Y25*%
%IPPOS*%
%LPD*%
%AMOC8*
5,1,8,0,0,1.08239X$1,22.5*
%
%ADD10C,0.00300*%
%ADD11C,0.00500*%
%ADD12C,0.00600*%
%ADD13C,0.00787*%
%ADD14C,0.00197*%
%ADD15C,0.00200*%
D10*
X0261977Y0056120D02*
X0264404Y0056120D01*
X0265602Y0057333D02*
X0266815Y0056120D01*
X0266815Y0054300D01*
X0266815Y0056120D02*
X0268029Y0057333D01*
X0268029Y0057940D01*
X0265602Y0057940D02*
X0265602Y0057333D01*
X0281195Y0158079D02*
X0283015Y0158079D01*
X0283621Y0158686D01*
X0283621Y0161113D01*
X0283015Y0161719D01*
X0281195Y0161719D01*
X0281195Y0158079D01*
X0284820Y0158079D02*
X0284820Y0160506D01*
X0286033Y0161719D01*
X0287247Y0160506D01*
X0287247Y0158079D01*
X0287247Y0159899D02*
X0284820Y0159899D01*
X0288445Y0161719D02*
X0290872Y0161719D01*
X0289658Y0161719D02*
X0289658Y0158079D01*
X0292070Y0158079D02*
X0292070Y0160506D01*
X0293283Y0161719D01*
X0294497Y0160506D01*
X0294497Y0158079D01*
X0295695Y0158686D02*
X0296302Y0158079D01*
X0297515Y0158079D01*
X0298122Y0158686D01*
X0298122Y0161719D01*
X0299320Y0161719D02*
X0300534Y0160506D01*
X0301747Y0161719D01*
X0301747Y0158079D01*
X0302945Y0158079D02*
X0304766Y0158079D01*
X0305372Y0158686D01*
X0305372Y0159292D01*
X0304766Y0159899D01*
X0302945Y0159899D01*
X0302945Y0158079D02*
X0302945Y0161719D01*
X0304766Y0161719D01*
X0305372Y0161113D01*
X0305372Y0160506D01*
X0304766Y0159899D01*
X0306571Y0158686D02*
X0307177Y0158079D01*
X0308391Y0158079D01*
X0308997Y0158686D01*
X0310196Y0158686D02*
X0310802Y0158079D01*
X0312016Y0158079D01*
X0312622Y0158686D01*
X0312622Y0161113D01*
X0312016Y0161719D01*
X0310802Y0161719D01*
X0310196Y0161113D01*
X0310196Y0158686D01*
X0308997Y0161113D02*
X0308391Y0161719D01*
X0307177Y0161719D01*
X0306571Y0161113D01*
X0306571Y0158686D01*
X0313821Y0158079D02*
X0313821Y0161719D01*
X0316248Y0158079D01*
X0316248Y0161719D01*
X0317446Y0161719D02*
X0319873Y0158079D01*
X0319873Y0161719D01*
X0317446Y0161719D02*
X0317446Y0158079D01*
X0299320Y0158079D02*
X0299320Y0161719D01*
X0295695Y0161719D02*
X0295695Y0158686D01*
X0294497Y0159899D02*
X0292070Y0159899D01*
X0291961Y0215599D02*
X0293781Y0215599D01*
X0294388Y0216205D01*
X0294388Y0216812D01*
X0293781Y0217419D01*
X0291961Y0217419D01*
X0291961Y0219239D02*
X0293781Y0219239D01*
X0294388Y0218632D01*
X0294388Y0218026D01*
X0293781Y0217419D01*
X0295586Y0218632D02*
X0295586Y0216205D01*
X0296193Y0215599D01*
X0297406Y0215599D01*
X0298013Y0216205D01*
X0299212Y0216205D02*
X0299818Y0215599D01*
X0301032Y0215599D01*
X0301638Y0216205D01*
X0301638Y0218632D01*
X0301032Y0219239D01*
X0299818Y0219239D01*
X0299212Y0218632D01*
X0299212Y0216205D01*
X0298013Y0218632D02*
X0297406Y0219239D01*
X0296193Y0219239D01*
X0295586Y0218632D01*
X0291961Y0219239D02*
X0291961Y0215599D01*
X0290763Y0215599D02*
X0290763Y0219239D01*
X0289549Y0218026D01*
X0288336Y0219239D01*
X0288336Y0215599D01*
X0287138Y0216205D02*
X0287138Y0219239D01*
X0284711Y0219239D02*
X0284711Y0216205D01*
X0285318Y0215599D01*
X0286531Y0215599D01*
X0287138Y0216205D01*
X0283513Y0215599D02*
X0282299Y0216812D01*
X0282906Y0216812D02*
X0281086Y0216812D01*
X0281086Y0215599D02*
X0281086Y0219239D01*
X0282906Y0219239D01*
X0283513Y0218632D01*
X0283513Y0217419D01*
X0282906Y0216812D01*
X0279887Y0215599D02*
X0279887Y0219239D01*
X0277461Y0219239D02*
X0277461Y0215599D01*
X0278674Y0216812D01*
X0279887Y0215599D01*
X0276262Y0217419D02*
X0275656Y0216812D01*
X0273836Y0216812D01*
X0273836Y0215599D02*
X0273836Y0219239D01*
X0275656Y0219239D01*
X0276262Y0218632D01*
X0276262Y0217419D01*
X0302837Y0215599D02*
X0302837Y0219239D01*
X0305263Y0215599D01*
X0305263Y0219239D01*
X0306462Y0219239D02*
X0308889Y0215599D01*
X0308889Y0219239D01*
X0306462Y0219239D02*
X0306462Y0215599D01*
X0400753Y0245244D02*
X0400753Y0247065D01*
X0401360Y0247671D01*
X0402573Y0247671D01*
X0403180Y0247065D01*
X0403180Y0245244D01*
X0404393Y0245244D02*
X0400753Y0245244D01*
X0400753Y0248870D02*
X0404393Y0248870D01*
X0403180Y0250083D01*
X0404393Y0251296D01*
X0400753Y0251296D01*
X0400753Y0252495D02*
X0400753Y0254315D01*
X0401360Y0254921D01*
X0402573Y0254921D01*
X0403180Y0254315D01*
X0403180Y0252495D01*
X0403180Y0253708D02*
X0404393Y0254921D01*
X0404393Y0252495D02*
X0400753Y0252495D01*
X0445048Y0256907D02*
X0447474Y0256907D01*
X0448673Y0255694D02*
X0448673Y0255087D01*
X0451100Y0255087D01*
X0448673Y0255694D02*
X0451100Y0258120D01*
X0451100Y0258727D01*
X0448673Y0258727D01*
X0449062Y0293424D02*
X0449669Y0294031D01*
X0449669Y0295244D01*
X0449062Y0295851D01*
X0448456Y0295851D01*
X0447849Y0295244D01*
X0447849Y0294031D01*
X0447242Y0293424D01*
X0446635Y0293424D01*
X0446029Y0294031D01*
X0446029Y0295244D01*
X0446635Y0295851D01*
X0446635Y0297049D02*
X0449062Y0297049D01*
X0449669Y0297656D01*
X0449669Y0298869D01*
X0449062Y0299476D01*
X0449669Y0300674D02*
X0449669Y0303101D01*
X0449669Y0300674D02*
X0446029Y0300674D01*
X0446635Y0299476D02*
X0446029Y0298869D01*
X0446029Y0297656D01*
X0446635Y0297049D01*
X0421126Y0306875D02*
X0421126Y0308088D01*
X0420519Y0308695D01*
X0419306Y0308695D01*
X0419306Y0307481D01*
X0420519Y0306268D02*
X0421126Y0306875D01*
X0420519Y0306268D02*
X0418092Y0306268D01*
X0417485Y0306875D01*
X0417485Y0308088D01*
X0418092Y0308695D01*
X0417485Y0309893D02*
X0421126Y0312320D01*
X0417485Y0312320D01*
X0417485Y0313518D02*
X0417485Y0315338D01*
X0418092Y0315945D01*
X0420519Y0315945D01*
X0421126Y0315338D01*
X0421126Y0313518D01*
X0417485Y0313518D01*
X0417485Y0309893D02*
X0421126Y0309893D01*
X0410240Y0310896D02*
X0406537Y0310896D01*
X0407154Y0309682D02*
X0408388Y0309682D01*
X0409005Y0309065D01*
X0409005Y0307213D01*
X0410240Y0307213D02*
X0406537Y0307213D01*
X0406537Y0309065D01*
X0407154Y0309682D01*
X0408388Y0310896D02*
X0408388Y0313365D01*
X0406537Y0313365D02*
X0410240Y0313365D01*
X0410240Y0314579D02*
X0410240Y0316431D01*
X0409623Y0317048D01*
X0407154Y0317048D01*
X0406537Y0316431D01*
X0406537Y0314579D01*
X0410240Y0314579D01*
X0403592Y0304987D02*
X0401165Y0304987D01*
X0399967Y0304987D02*
X0399967Y0301954D01*
X0399360Y0301347D01*
X0398147Y0301347D01*
X0397540Y0301954D01*
X0397540Y0304987D01*
X0396342Y0304380D02*
X0395735Y0304987D01*
X0394522Y0304987D01*
X0393915Y0304380D01*
X0393915Y0301954D01*
X0394522Y0301347D01*
X0395735Y0301347D01*
X0396342Y0301954D01*
X0396342Y0304380D01*
X0392717Y0300740D02*
X0390290Y0300740D01*
X0389092Y0301347D02*
X0389092Y0304987D01*
X0389092Y0303167D02*
X0386665Y0303167D01*
X0385466Y0303167D02*
X0384860Y0302560D01*
X0383040Y0302560D01*
X0383040Y0301347D02*
X0383040Y0304987D01*
X0384860Y0304987D01*
X0385466Y0304380D01*
X0385466Y0303167D01*
X0386665Y0301347D02*
X0386665Y0304987D01*
X0402379Y0304987D02*
X0402379Y0301347D01*
X0411202Y0325953D02*
X0410596Y0326560D01*
X0410596Y0327773D01*
X0411202Y0328380D01*
X0411809Y0328380D01*
X0412416Y0327773D01*
X0413022Y0328380D01*
X0413629Y0328380D01*
X0414236Y0327773D01*
X0414236Y0326560D01*
X0413629Y0325953D01*
X0412416Y0327167D02*
X0412416Y0327773D01*
X0413022Y0329578D02*
X0414236Y0330792D01*
X0413022Y0332005D01*
X0410596Y0332005D01*
X0411202Y0333203D02*
X0410596Y0333810D01*
X0410596Y0335023D01*
X0411202Y0335630D01*
X0411809Y0335630D01*
X0412416Y0335023D01*
X0413022Y0335630D01*
X0413629Y0335630D01*
X0414236Y0335023D01*
X0414236Y0333810D01*
X0413629Y0333203D01*
X0412416Y0334417D02*
X0412416Y0335023D01*
X0413022Y0329578D02*
X0410596Y0329578D01*
X0419080Y0360402D02*
X0418473Y0361009D01*
X0419080Y0360402D02*
X0420293Y0360402D01*
X0420900Y0361009D01*
X0420900Y0361615D01*
X0420293Y0362222D01*
X0419080Y0362222D01*
X0418473Y0362829D01*
X0418473Y0363435D01*
X0419080Y0364042D01*
X0420293Y0364042D01*
X0420900Y0363435D01*
X0422098Y0364042D02*
X0423918Y0364042D01*
X0424525Y0363435D01*
X0424525Y0361009D01*
X0423918Y0360402D01*
X0422098Y0360402D01*
X0422098Y0364042D01*
X0425723Y0362829D02*
X0425723Y0360402D01*
X0425723Y0362222D02*
X0428150Y0362222D01*
X0428150Y0362829D02*
X0428150Y0360402D01*
X0428150Y0362829D02*
X0426936Y0364042D01*
X0425723Y0362829D01*
X0347753Y0365404D02*
X0347753Y0366011D01*
X0347753Y0365404D02*
X0346540Y0364191D01*
X0346540Y0362370D01*
X0346540Y0364191D02*
X0345326Y0365404D01*
X0345326Y0366011D01*
X0344128Y0364191D02*
X0341701Y0364191D01*
X0342915Y0365404D02*
X0342915Y0362977D01*
X0448226Y0191875D02*
X0448226Y0190662D01*
X0447620Y0191269D02*
X0450046Y0191269D01*
X0450653Y0191875D01*
X0450653Y0189463D02*
X0448833Y0189463D01*
X0448226Y0188857D01*
X0448226Y0187037D01*
X0450653Y0187037D01*
X0450653Y0185838D02*
X0450653Y0184018D01*
X0450046Y0183412D01*
X0449440Y0184018D01*
X0449440Y0185838D01*
X0448833Y0185838D02*
X0450653Y0185838D01*
X0448833Y0185838D02*
X0448226Y0185232D01*
X0448226Y0184018D01*
X0448226Y0182213D02*
X0450653Y0179786D01*
X0450653Y0182213D01*
X0448226Y0182213D02*
X0448226Y0179786D01*
X0447013Y0178583D02*
X0447013Y0177370D01*
X0447013Y0177976D02*
X0450653Y0177976D01*
X0450653Y0177370D02*
X0450653Y0178583D01*
X0450653Y0172546D02*
X0448833Y0172546D01*
X0448226Y0171940D01*
X0448226Y0170119D01*
X0450653Y0170119D01*
X0450653Y0168921D02*
X0450653Y0167101D01*
X0450046Y0166494D01*
X0449440Y0167101D01*
X0449440Y0168921D01*
X0448833Y0168921D02*
X0450653Y0168921D01*
X0448833Y0168921D02*
X0448226Y0168314D01*
X0448226Y0167101D01*
X0448226Y0165296D02*
X0451260Y0165296D01*
X0451867Y0164689D01*
X0451867Y0164083D01*
X0450653Y0163476D02*
X0450653Y0165296D01*
X0450653Y0163476D02*
X0450046Y0162869D01*
X0448226Y0162869D01*
X0447620Y0161671D02*
X0448833Y0161671D01*
X0449440Y0161064D01*
X0449440Y0159244D01*
X0450653Y0159244D02*
X0447013Y0159244D01*
X0447013Y0161064D01*
X0447620Y0161671D01*
X0449440Y0160457D02*
X0450653Y0161671D01*
X0450653Y0154413D02*
X0450653Y0153806D01*
X0450046Y0153806D01*
X0450046Y0154413D01*
X0450653Y0154413D01*
X0448833Y0154413D02*
X0448833Y0153806D01*
X0448226Y0153806D01*
X0448226Y0154413D01*
X0448833Y0154413D01*
X0449440Y0148983D02*
X0448833Y0148376D01*
X0448833Y0146556D01*
X0450046Y0146556D01*
X0450653Y0147163D01*
X0450653Y0148376D01*
X0450046Y0148983D01*
X0449440Y0148983D01*
X0447620Y0147769D02*
X0447013Y0148983D01*
X0447620Y0147769D02*
X0448833Y0146556D01*
X0450653Y0145358D02*
X0450653Y0142931D01*
X0450653Y0144144D02*
X0447013Y0144144D01*
X0448226Y0142931D01*
X0447620Y0141733D02*
X0450046Y0139306D01*
X0450653Y0139912D01*
X0450653Y0141126D01*
X0450046Y0141733D01*
X0447620Y0141733D01*
X0447013Y0141126D01*
X0447013Y0139912D01*
X0447620Y0139306D01*
X0450046Y0139306D01*
X0450653Y0138107D02*
X0450653Y0135681D01*
X0448226Y0138107D01*
X0447620Y0138107D01*
X0447013Y0137501D01*
X0447013Y0136287D01*
X0447620Y0135681D01*
X0447013Y0130245D02*
X0450653Y0130245D01*
X0450653Y0129639D02*
X0450653Y0130852D01*
X0450653Y0128435D02*
X0450653Y0127222D01*
X0450653Y0127829D02*
X0448226Y0127829D01*
X0448226Y0127222D01*
X0448226Y0126021D02*
X0448226Y0125414D01*
X0449440Y0124201D01*
X0450653Y0124201D02*
X0448226Y0124201D01*
X0448833Y0123003D02*
X0450046Y0123003D01*
X0450653Y0122396D01*
X0450653Y0120576D01*
X0450653Y0119378D02*
X0448226Y0119378D01*
X0447013Y0118164D01*
X0448226Y0116951D01*
X0450653Y0116951D01*
X0448833Y0116951D02*
X0448833Y0119378D01*
X0448226Y0120576D02*
X0448226Y0122396D01*
X0448833Y0123003D01*
X0448226Y0120576D02*
X0451867Y0120576D01*
X0450653Y0112120D02*
X0450653Y0111513D01*
X0450046Y0111513D01*
X0450046Y0112120D01*
X0450653Y0112120D01*
X0448833Y0112120D02*
X0448833Y0111513D01*
X0448226Y0111513D01*
X0448226Y0112120D01*
X0448833Y0112120D01*
X0447620Y0106690D02*
X0450046Y0104263D01*
X0450653Y0104870D01*
X0450653Y0106083D01*
X0450046Y0106690D01*
X0447620Y0106690D01*
X0447013Y0106083D01*
X0447013Y0104870D01*
X0447620Y0104263D01*
X0450046Y0104263D01*
X0450046Y0103057D02*
X0450653Y0103057D01*
X0450653Y0102450D01*
X0450046Y0102450D01*
X0450046Y0103057D01*
X0450653Y0101252D02*
X0450653Y0098825D01*
X0450653Y0100038D02*
X0447013Y0100038D01*
X0448226Y0098825D01*
X0447013Y0097627D02*
X0449440Y0097627D01*
X0450653Y0096413D01*
X0449440Y0095200D01*
X0447013Y0095200D01*
X0447013Y0089765D02*
X0450653Y0089765D01*
X0450653Y0090371D02*
X0450653Y0089158D01*
X0449440Y0087960D02*
X0449440Y0085533D01*
X0450046Y0085533D02*
X0448833Y0085533D01*
X0448226Y0086140D01*
X0448226Y0087353D01*
X0448833Y0087960D01*
X0449440Y0087960D01*
X0450653Y0087353D02*
X0450653Y0086140D01*
X0450046Y0085533D01*
X0450653Y0084335D02*
X0448833Y0084335D01*
X0448226Y0083728D01*
X0448226Y0081908D01*
X0450653Y0081908D01*
X0450653Y0080709D02*
X0450653Y0078889D01*
X0450046Y0078283D01*
X0449440Y0078889D01*
X0449440Y0080709D01*
X0448833Y0080709D02*
X0450653Y0080709D01*
X0448833Y0080709D02*
X0448226Y0080103D01*
X0448226Y0078889D01*
X0447620Y0077084D02*
X0448833Y0077084D01*
X0449440Y0076478D01*
X0449440Y0074658D01*
X0450653Y0074658D02*
X0447013Y0074658D01*
X0447013Y0076478D01*
X0447620Y0077084D01*
X0448226Y0069834D02*
X0448226Y0068014D01*
X0448833Y0067407D01*
X0449440Y0068014D01*
X0449440Y0069227D01*
X0450046Y0069834D01*
X0450653Y0069227D01*
X0450653Y0067407D01*
X0450046Y0066209D02*
X0449440Y0065602D01*
X0449440Y0064389D01*
X0448833Y0063782D01*
X0448226Y0064389D01*
X0448226Y0066209D01*
X0450046Y0066209D02*
X0450653Y0065602D01*
X0450653Y0063782D01*
X0449440Y0062584D02*
X0449440Y0060157D01*
X0450046Y0060157D02*
X0448833Y0060157D01*
X0448226Y0060764D01*
X0448226Y0061977D01*
X0448833Y0062584D01*
X0449440Y0062584D01*
X0450653Y0061977D02*
X0450653Y0060764D01*
X0450046Y0060157D01*
X0450653Y0058959D02*
X0450653Y0057139D01*
X0450046Y0056532D01*
X0448833Y0056532D01*
X0448226Y0057139D01*
X0448226Y0058959D01*
X0448226Y0055333D02*
X0448226Y0053513D01*
X0448833Y0052907D01*
X0450046Y0052907D01*
X0450653Y0053513D01*
X0450653Y0055333D01*
X0450653Y0051708D02*
X0448226Y0051708D01*
X0447013Y0050495D01*
X0448226Y0049282D01*
X0450653Y0049282D01*
X0448833Y0049282D02*
X0448833Y0051708D01*
X0448226Y0044453D02*
X0448226Y0043240D01*
X0447620Y0043846D02*
X0450046Y0043846D01*
X0450653Y0044453D01*
X0450653Y0042041D02*
X0450653Y0040221D01*
X0450046Y0039615D01*
X0449440Y0040221D01*
X0449440Y0042041D01*
X0448833Y0042041D02*
X0450653Y0042041D01*
X0448833Y0042041D02*
X0448226Y0041435D01*
X0448226Y0040221D01*
X0447620Y0038416D02*
X0447013Y0037810D01*
X0447013Y0036596D01*
X0447620Y0035989D01*
X0448226Y0035989D01*
X0448833Y0036596D01*
X0448833Y0037810D01*
X0449440Y0038416D01*
X0450046Y0038416D01*
X0450653Y0037810D01*
X0450653Y0036596D01*
X0450046Y0035989D01*
X0450653Y0034786D02*
X0450653Y0033573D01*
X0450653Y0034179D02*
X0448226Y0034179D01*
X0448226Y0033573D01*
X0448226Y0032374D02*
X0450653Y0032374D01*
X0450653Y0030554D01*
X0450046Y0029948D01*
X0448226Y0029948D01*
X0448226Y0028749D02*
X0448226Y0026929D01*
X0448833Y0026322D01*
X0450046Y0026322D01*
X0450653Y0026929D01*
X0450653Y0028749D01*
X0451867Y0028749D02*
X0448226Y0028749D01*
X0447013Y0025124D02*
X0447013Y0022697D01*
X0450653Y0022697D01*
X0450653Y0025124D01*
X0448833Y0023911D02*
X0448833Y0022697D01*
X0447013Y0034179D02*
X0446406Y0034179D01*
X0447013Y0089158D02*
X0447013Y0089765D01*
X0447013Y0127829D02*
X0446406Y0127829D01*
X0447013Y0129639D02*
X0447013Y0130245D01*
X0077084Y0291504D02*
X0074657Y0291504D01*
X0074657Y0292111D01*
X0077084Y0294538D01*
X0077084Y0295144D01*
X0074657Y0295144D01*
X0073459Y0293324D02*
X0071032Y0293324D01*
X0072245Y0292111D02*
X0072245Y0294538D01*
D11*
X0085567Y0077654D02*
X0093067Y0067654D01*
X0100567Y0060154D01*
X0110567Y0052654D01*
X0110567Y0157654D01*
X0073067Y0157654D01*
X0068067Y0140154D01*
X0068067Y0122654D01*
X0070567Y0110154D01*
X0073067Y0100154D01*
X0080567Y0085154D01*
X0085567Y0077654D01*
X0111709Y0058756D02*
X0111709Y0163756D01*
X0121709Y0156256D01*
X0129209Y0148756D01*
X0136709Y0138756D01*
X0141709Y0131256D01*
X0149209Y0116256D01*
X0151709Y0106256D01*
X0154209Y0093756D01*
X0154209Y0076256D01*
X0149209Y0058756D01*
X0111709Y0058756D01*
X0154858Y0048717D02*
X0259858Y0048717D01*
X0259858Y0086217D01*
X0242358Y0091217D01*
X0224858Y0091217D01*
X0212358Y0088717D01*
X0202358Y0086217D01*
X0187358Y0078717D01*
X0179858Y0073717D01*
X0169858Y0066217D01*
X0162358Y0058717D01*
X0154858Y0048717D01*
X0161591Y0091768D02*
X0179091Y0086768D01*
X0196591Y0086768D01*
X0209091Y0089268D01*
X0219091Y0091768D01*
X0234091Y0099268D01*
X0241591Y0104268D01*
X0251591Y0111768D01*
X0259091Y0119268D01*
X0266591Y0129268D01*
X0161591Y0129268D01*
X0161591Y0091768D01*
X0142890Y0131394D02*
X0247890Y0131394D01*
X0247890Y0168894D01*
X0230390Y0173894D01*
X0212890Y0173894D01*
X0200390Y0171394D01*
X0190390Y0168894D01*
X0175390Y0161394D01*
X0167890Y0156394D01*
X0157890Y0148894D01*
X0150390Y0141394D01*
X0142890Y0131394D01*
X0158657Y0160606D02*
X0121157Y0160606D01*
X0121157Y0265606D01*
X0131157Y0258106D01*
X0138657Y0250606D01*
X0146157Y0240606D01*
X0151157Y0233106D01*
X0158657Y0218106D01*
X0161157Y0208106D01*
X0163657Y0195606D01*
X0163657Y0178106D01*
X0158657Y0160606D01*
X0186394Y0180902D02*
X0178894Y0188402D01*
X0171394Y0198402D01*
X0166394Y0205902D01*
X0158894Y0220902D01*
X0156394Y0230902D01*
X0153894Y0243402D01*
X0153894Y0260902D01*
X0158894Y0278402D01*
X0196394Y0278402D01*
X0196394Y0173402D01*
X0186394Y0180902D01*
X0215882Y0198559D02*
X0210882Y0206059D01*
X0203382Y0221059D01*
X0200882Y0231059D01*
X0198382Y0243559D01*
X0198382Y0261059D01*
X0203382Y0278559D01*
X0240882Y0278559D01*
X0240882Y0173559D01*
X0230882Y0181059D01*
X0223382Y0188559D01*
X0215882Y0198559D01*
X0244780Y0225094D02*
X0244780Y0330094D01*
X0254780Y0322594D01*
X0262280Y0315094D01*
X0269780Y0305094D01*
X0274780Y0297594D01*
X0282280Y0282594D01*
X0284780Y0272594D01*
X0287280Y0260094D01*
X0287280Y0242594D01*
X0282280Y0225094D01*
X0244780Y0225094D01*
X0298244Y0224642D02*
X0298244Y0262142D01*
X0403244Y0262142D01*
X0395744Y0252142D01*
X0388244Y0244642D01*
X0378244Y0237142D01*
X0370744Y0232142D01*
X0355744Y0224642D01*
X0345744Y0222142D01*
X0333244Y0219642D01*
X0315744Y0219642D01*
X0298244Y0224642D01*
X0339071Y0263283D02*
X0444071Y0263283D01*
X0444071Y0300783D01*
X0426571Y0305783D01*
X0409071Y0305783D01*
X0396571Y0303283D01*
X0386571Y0300783D01*
X0371571Y0293283D01*
X0364071Y0288283D01*
X0354071Y0280783D01*
X0346571Y0273283D01*
X0339071Y0263283D01*
X0333776Y0277260D02*
X0321276Y0274760D01*
X0303776Y0274760D01*
X0286276Y0279760D01*
X0286276Y0317260D01*
X0391276Y0317260D01*
X0383776Y0307260D01*
X0376276Y0299760D01*
X0366276Y0292260D01*
X0358776Y0287260D01*
X0343776Y0279760D01*
X0333776Y0277260D01*
X0295921Y0320764D02*
X0400921Y0320764D01*
X0400921Y0358264D01*
X0383421Y0363264D01*
X0365921Y0363264D01*
X0353421Y0360764D01*
X0343421Y0358264D01*
X0328421Y0350764D01*
X0320921Y0345764D01*
X0310921Y0338264D01*
X0303421Y0330764D01*
X0295921Y0320764D01*
X0291610Y0330547D02*
X0281610Y0328047D01*
X0269110Y0325547D01*
X0251610Y0325547D01*
X0234110Y0330547D01*
X0234110Y0368047D01*
X0339110Y0368047D01*
X0331610Y0358047D01*
X0324110Y0350547D01*
X0314110Y0343047D01*
X0306610Y0338047D01*
X0291610Y0330547D01*
X0233441Y0325783D02*
X0233441Y0288283D01*
X0128441Y0288283D01*
X0135941Y0298283D01*
X0143441Y0305783D01*
X0153441Y0313283D01*
X0160941Y0318283D01*
X0175941Y0325783D01*
X0185941Y0328283D01*
X0198441Y0330783D01*
X0215941Y0330783D01*
X0233441Y0325783D01*
X0217969Y0349563D02*
X0207969Y0342063D01*
X0200469Y0337063D01*
X0185469Y0329563D01*
X0175469Y0327063D01*
X0162969Y0324563D01*
X0145469Y0324563D01*
X0127969Y0329563D01*
X0127969Y0367063D01*
X0232969Y0367063D01*
X0225469Y0357063D01*
X0217969Y0349563D01*
X0120803Y0341394D02*
X0120803Y0236394D01*
X0110803Y0243894D01*
X0103303Y0251394D01*
X0095803Y0261394D01*
X0090803Y0268894D01*
X0083303Y0283894D01*
X0080803Y0293894D01*
X0078303Y0306394D01*
X0078303Y0323894D01*
X0083303Y0341394D01*
X0120803Y0341394D01*
X0079780Y0277634D02*
X0069780Y0285134D01*
X0069780Y0180134D01*
X0107280Y0180134D01*
X0112280Y0197634D01*
X0112280Y0215134D01*
X0109780Y0227634D01*
X0107280Y0237634D01*
X0099780Y0252634D01*
X0094780Y0260134D01*
X0087280Y0270134D01*
X0079780Y0277634D01*
X0269976Y0161945D02*
X0269976Y0056945D01*
X0307476Y0056945D01*
X0312476Y0074445D01*
X0312476Y0091945D01*
X0309976Y0104445D01*
X0307476Y0114445D01*
X0299976Y0129445D01*
X0294976Y0136945D01*
X0287476Y0146945D01*
X0279976Y0154445D01*
X0269976Y0161945D01*
X0313421Y0153717D02*
X0308421Y0136217D01*
X0308421Y0118717D01*
X0310921Y0106217D01*
X0313421Y0096217D01*
X0320921Y0081217D01*
X0325921Y0073717D01*
X0333421Y0063717D01*
X0340921Y0056217D01*
X0350921Y0048717D01*
X0350921Y0153717D01*
X0313421Y0153717D01*
X0353047Y0165055D02*
X0353047Y0060055D01*
X0390547Y0060055D01*
X0395547Y0077555D01*
X0395547Y0095055D01*
X0393047Y0107555D01*
X0390547Y0117555D01*
X0383047Y0132555D01*
X0378047Y0140055D01*
X0370547Y0150055D01*
X0363047Y0157555D01*
X0353047Y0165055D01*
X0362240Y0168736D02*
X0359740Y0178736D01*
X0357240Y0191236D01*
X0357240Y0208736D01*
X0362240Y0226236D01*
X0399740Y0226236D01*
X0399740Y0121236D01*
X0389740Y0128736D01*
X0382240Y0136236D01*
X0374740Y0146236D01*
X0369740Y0153736D01*
X0362240Y0168736D01*
X0402063Y0187693D02*
X0402063Y0082693D01*
X0439563Y0082693D01*
X0444563Y0100193D01*
X0444563Y0117693D01*
X0442063Y0130193D01*
X0439563Y0140193D01*
X0432063Y0155193D01*
X0427063Y0162693D01*
X0419563Y0172693D01*
X0412063Y0180193D01*
X0402063Y0187693D01*
X0409681Y0194327D02*
X0407181Y0204327D01*
X0404681Y0216827D01*
X0404681Y0234327D01*
X0409681Y0251827D01*
X0447181Y0251827D01*
X0447181Y0146827D01*
X0437181Y0154327D01*
X0429681Y0161827D01*
X0422181Y0171827D01*
X0417181Y0179327D01*
X0409681Y0194327D01*
X0405055Y0308126D02*
X0400724Y0308126D01*
X0400724Y0316000D01*
X0405055Y0316000D01*
X0405055Y0308126D01*
X0400724Y0308126D02*
X0399937Y0308126D01*
X0399937Y0316000D01*
X0400724Y0316000D01*
X0415583Y0330646D02*
X0415588Y0331087D01*
X0415605Y0331528D01*
X0415632Y0331968D01*
X0415670Y0332408D01*
X0415718Y0332846D01*
X0415778Y0333284D01*
X0415848Y0333719D01*
X0415928Y0334153D01*
X0416020Y0334585D01*
X0416122Y0335014D01*
X0416234Y0335440D01*
X0416357Y0335864D01*
X0416490Y0336285D01*
X0416634Y0336702D01*
X0416788Y0337115D01*
X0416951Y0337525D01*
X0417125Y0337931D01*
X0417309Y0338332D01*
X0417502Y0338728D01*
X0417706Y0339120D01*
X0417918Y0339506D01*
X0418140Y0339888D01*
X0418372Y0340263D01*
X0418613Y0340633D01*
X0418862Y0340997D01*
X0419121Y0341354D01*
X0419388Y0341705D01*
X0419663Y0342050D01*
X0419947Y0342387D01*
X0420240Y0342718D01*
X0420540Y0343041D01*
X0420848Y0343357D01*
X0421164Y0343665D01*
X0421487Y0343965D01*
X0421818Y0344258D01*
X0422155Y0344542D01*
X0422500Y0344817D01*
X0422851Y0345084D01*
X0423208Y0345343D01*
X0423572Y0345592D01*
X0423942Y0345833D01*
X0424317Y0346065D01*
X0424699Y0346287D01*
X0425085Y0346499D01*
X0425477Y0346703D01*
X0425873Y0346896D01*
X0426274Y0347080D01*
X0426680Y0347254D01*
X0427090Y0347417D01*
X0427503Y0347571D01*
X0427920Y0347715D01*
X0428341Y0347848D01*
X0428765Y0347971D01*
X0429191Y0348083D01*
X0429620Y0348185D01*
X0430052Y0348277D01*
X0430486Y0348357D01*
X0430921Y0348427D01*
X0431359Y0348487D01*
X0431797Y0348535D01*
X0432237Y0348573D01*
X0432677Y0348600D01*
X0433118Y0348617D01*
X0433559Y0348622D01*
X0434000Y0348617D01*
X0434441Y0348600D01*
X0434881Y0348573D01*
X0435321Y0348535D01*
X0435759Y0348487D01*
X0436197Y0348427D01*
X0436632Y0348357D01*
X0437066Y0348277D01*
X0437498Y0348185D01*
X0437927Y0348083D01*
X0438353Y0347971D01*
X0438777Y0347848D01*
X0439198Y0347715D01*
X0439615Y0347571D01*
X0440028Y0347417D01*
X0440438Y0347254D01*
X0440844Y0347080D01*
X0441245Y0346896D01*
X0441641Y0346703D01*
X0442033Y0346499D01*
X0442419Y0346287D01*
X0442801Y0346065D01*
X0443176Y0345833D01*
X0443546Y0345592D01*
X0443910Y0345343D01*
X0444267Y0345084D01*
X0444618Y0344817D01*
X0444963Y0344542D01*
X0445300Y0344258D01*
X0445631Y0343965D01*
X0445954Y0343665D01*
X0446270Y0343357D01*
X0446578Y0343041D01*
X0446878Y0342718D01*
X0447171Y0342387D01*
X0447455Y0342050D01*
X0447730Y0341705D01*
X0447997Y0341354D01*
X0448256Y0340997D01*
X0448505Y0340633D01*
X0448746Y0340263D01*
X0448978Y0339888D01*
X0449200Y0339506D01*
X0449412Y0339120D01*
X0449616Y0338728D01*
X0449809Y0338332D01*
X0449993Y0337931D01*
X0450167Y0337525D01*
X0450330Y0337115D01*
X0450484Y0336702D01*
X0450628Y0336285D01*
X0450761Y0335864D01*
X0450884Y0335440D01*
X0450996Y0335014D01*
X0451098Y0334585D01*
X0451190Y0334153D01*
X0451270Y0333719D01*
X0451340Y0333284D01*
X0451400Y0332846D01*
X0451448Y0332408D01*
X0451486Y0331968D01*
X0451513Y0331528D01*
X0451530Y0331087D01*
X0451535Y0330646D01*
X0451530Y0330205D01*
X0451513Y0329764D01*
X0451486Y0329324D01*
X0451448Y0328884D01*
X0451400Y0328446D01*
X0451340Y0328008D01*
X0451270Y0327573D01*
X0451190Y0327139D01*
X0451098Y0326707D01*
X0450996Y0326278D01*
X0450884Y0325852D01*
X0450761Y0325428D01*
X0450628Y0325007D01*
X0450484Y0324590D01*
X0450330Y0324177D01*
X0450167Y0323767D01*
X0449993Y0323361D01*
X0449809Y0322960D01*
X0449616Y0322564D01*
X0449412Y0322172D01*
X0449200Y0321786D01*
X0448978Y0321404D01*
X0448746Y0321029D01*
X0448505Y0320659D01*
X0448256Y0320295D01*
X0447997Y0319938D01*
X0447730Y0319587D01*
X0447455Y0319242D01*
X0447171Y0318905D01*
X0446878Y0318574D01*
X0446578Y0318251D01*
X0446270Y0317935D01*
X0445954Y0317627D01*
X0445631Y0317327D01*
X0445300Y0317034D01*
X0444963Y0316750D01*
X0444618Y0316475D01*
X0444267Y0316208D01*
X0443910Y0315949D01*
X0443546Y0315700D01*
X0443176Y0315459D01*
X0442801Y0315227D01*
X0442419Y0315005D01*
X0442033Y0314793D01*
X0441641Y0314589D01*
X0441245Y0314396D01*
X0440844Y0314212D01*
X0440438Y0314038D01*
X0440028Y0313875D01*
X0439615Y0313721D01*
X0439198Y0313577D01*
X0438777Y0313444D01*
X0438353Y0313321D01*
X0437927Y0313209D01*
X0437498Y0313107D01*
X0437066Y0313015D01*
X0436632Y0312935D01*
X0436197Y0312865D01*
X0435759Y0312805D01*
X0435321Y0312757D01*
X0434881Y0312719D01*
X0434441Y0312692D01*
X0434000Y0312675D01*
X0433559Y0312670D01*
X0433118Y0312675D01*
X0432677Y0312692D01*
X0432237Y0312719D01*
X0431797Y0312757D01*
X0431359Y0312805D01*
X0430921Y0312865D01*
X0430486Y0312935D01*
X0430052Y0313015D01*
X0429620Y0313107D01*
X0429191Y0313209D01*
X0428765Y0313321D01*
X0428341Y0313444D01*
X0427920Y0313577D01*
X0427503Y0313721D01*
X0427090Y0313875D01*
X0426680Y0314038D01*
X0426274Y0314212D01*
X0425873Y0314396D01*
X0425477Y0314589D01*
X0425085Y0314793D01*
X0424699Y0315005D01*
X0424317Y0315227D01*
X0423942Y0315459D01*
X0423572Y0315700D01*
X0423208Y0315949D01*
X0422851Y0316208D01*
X0422500Y0316475D01*
X0422155Y0316750D01*
X0421818Y0317034D01*
X0421487Y0317327D01*
X0421164Y0317627D01*
X0420848Y0317935D01*
X0420540Y0318251D01*
X0420240Y0318574D01*
X0419947Y0318905D01*
X0419663Y0319242D01*
X0419388Y0319587D01*
X0419121Y0319938D01*
X0418862Y0320295D01*
X0418613Y0320659D01*
X0418372Y0321029D01*
X0418140Y0321404D01*
X0417918Y0321786D01*
X0417706Y0322172D01*
X0417502Y0322564D01*
X0417309Y0322960D01*
X0417125Y0323361D01*
X0416951Y0323767D01*
X0416788Y0324177D01*
X0416634Y0324590D01*
X0416490Y0325007D01*
X0416357Y0325428D01*
X0416234Y0325852D01*
X0416122Y0326278D01*
X0416020Y0326707D01*
X0415928Y0327139D01*
X0415848Y0327573D01*
X0415778Y0328008D01*
X0415718Y0328446D01*
X0415670Y0328884D01*
X0415632Y0329324D01*
X0415605Y0329764D01*
X0415588Y0330205D01*
X0415583Y0330646D01*
D12*
X0382536Y0280887D02*
X0383771Y0279653D01*
X0383771Y0277184D01*
X0382536Y0275950D01*
X0377599Y0275950D01*
X0376365Y0277184D01*
X0376365Y0279653D01*
X0377599Y0280887D01*
X0377599Y0273521D02*
X0378833Y0273521D01*
X0380068Y0272287D01*
X0381302Y0273521D01*
X0382536Y0273521D01*
X0383771Y0272287D01*
X0383771Y0269818D01*
X0382536Y0268583D01*
X0380068Y0271052D02*
X0380068Y0272287D01*
X0377599Y0273521D02*
X0376365Y0272287D01*
X0376365Y0269818D01*
X0377599Y0268583D01*
X0364710Y0255013D02*
X0365944Y0253779D01*
X0365944Y0251310D01*
X0364710Y0250075D01*
X0359772Y0250075D01*
X0358538Y0251310D01*
X0358538Y0253779D01*
X0359772Y0255013D01*
X0359772Y0247647D02*
X0358538Y0246412D01*
X0358538Y0243944D01*
X0359772Y0242709D01*
X0359772Y0247647D02*
X0361007Y0247647D01*
X0365944Y0242709D01*
X0365944Y0247647D01*
X0350272Y0297827D02*
X0346569Y0301530D01*
X0353976Y0301530D01*
X0352741Y0305194D02*
X0353976Y0306428D01*
X0353976Y0308897D01*
X0352741Y0310131D01*
X0347804Y0310131D02*
X0346569Y0308897D01*
X0346569Y0306428D01*
X0347804Y0305194D01*
X0352741Y0305194D01*
X0350272Y0302765D02*
X0350272Y0297827D01*
X0336918Y0326064D02*
X0336918Y0331001D01*
X0334449Y0333430D02*
X0339387Y0333430D01*
X0340621Y0334664D01*
X0340621Y0337133D01*
X0339387Y0338368D01*
X0336918Y0338368D01*
X0336918Y0335899D01*
X0334449Y0338368D02*
X0333215Y0337133D01*
X0333215Y0334664D01*
X0334449Y0333430D01*
X0333215Y0329767D02*
X0336918Y0326064D01*
X0340621Y0329767D02*
X0333215Y0329767D01*
X0301810Y0349849D02*
X0300576Y0348615D01*
X0301810Y0349849D02*
X0301810Y0352318D01*
X0300576Y0353552D01*
X0299341Y0353552D01*
X0298107Y0352318D01*
X0298107Y0351083D01*
X0298107Y0352318D02*
X0296873Y0353552D01*
X0295638Y0353552D01*
X0294404Y0352318D01*
X0294404Y0349849D01*
X0295638Y0348615D01*
X0295638Y0355981D02*
X0300576Y0355981D01*
X0301810Y0357215D01*
X0301810Y0359684D01*
X0300576Y0360918D01*
X0298107Y0360918D01*
X0298107Y0358450D01*
X0295638Y0360918D02*
X0294404Y0359684D01*
X0294404Y0357215D01*
X0295638Y0355981D01*
X0262383Y0292801D02*
X0257446Y0292801D01*
X0257446Y0285394D01*
X0253783Y0285394D02*
X0253783Y0292801D01*
X0250080Y0289098D01*
X0255017Y0289098D01*
X0257446Y0289098D02*
X0259915Y0289098D01*
X0195669Y0347630D02*
X0190731Y0352568D01*
X0189497Y0352568D01*
X0188262Y0351334D01*
X0188262Y0348865D01*
X0189497Y0347630D01*
X0195669Y0347630D02*
X0195669Y0352568D01*
X0195669Y0354997D02*
X0188262Y0354997D01*
X0188262Y0359934D01*
X0191965Y0357465D02*
X0191965Y0354997D01*
X0165735Y0305887D02*
X0165735Y0300950D01*
X0173141Y0300950D01*
X0171907Y0298521D02*
X0173141Y0297287D01*
X0173141Y0294818D01*
X0171907Y0293583D01*
X0169438Y0296052D02*
X0169438Y0297287D01*
X0170672Y0298521D01*
X0171907Y0298521D01*
X0169438Y0297287D02*
X0168203Y0298521D01*
X0166969Y0298521D01*
X0165735Y0297287D01*
X0165735Y0294818D01*
X0166969Y0293583D01*
X0169438Y0300950D02*
X0169438Y0303419D01*
X0113674Y0281100D02*
X0108737Y0281100D01*
X0108737Y0273694D01*
X0106308Y0273694D02*
X0101371Y0273694D01*
X0103839Y0273694D02*
X0103839Y0281100D01*
X0101371Y0278631D01*
X0108737Y0277397D02*
X0111206Y0277397D01*
X0086149Y0247840D02*
X0082446Y0247840D01*
X0082446Y0240434D01*
X0086149Y0240434D01*
X0087383Y0241668D01*
X0087383Y0246606D01*
X0086149Y0247840D01*
X0080017Y0246606D02*
X0078783Y0247840D01*
X0076314Y0247840D01*
X0075080Y0246606D01*
X0080017Y0246606D02*
X0080017Y0245371D01*
X0075080Y0240434D01*
X0080017Y0240434D01*
X0126457Y0225844D02*
X0128926Y0228313D01*
X0128926Y0220906D01*
X0126457Y0220906D02*
X0131395Y0220906D01*
X0133824Y0220906D02*
X0137527Y0220906D01*
X0138761Y0222141D01*
X0138761Y0227078D01*
X0137527Y0228313D01*
X0133824Y0228313D01*
X0133824Y0220906D01*
X0176961Y0215639D02*
X0179430Y0218108D01*
X0179430Y0210702D01*
X0176961Y0210702D02*
X0181899Y0210702D01*
X0184327Y0211936D02*
X0185562Y0210702D01*
X0188031Y0210702D01*
X0189265Y0211936D01*
X0189265Y0214405D01*
X0186796Y0214405D01*
X0184327Y0216874D02*
X0184327Y0211936D01*
X0184327Y0216874D02*
X0185562Y0218108D01*
X0188031Y0218108D01*
X0189265Y0216874D01*
X0221449Y0217031D02*
X0222684Y0218265D01*
X0225152Y0218265D01*
X0226387Y0217031D01*
X0226387Y0215797D01*
X0221449Y0210859D01*
X0226387Y0210859D01*
X0228816Y0212093D02*
X0230050Y0210859D01*
X0232519Y0210859D01*
X0233753Y0212093D01*
X0233753Y0214562D01*
X0231284Y0214562D01*
X0228816Y0217031D02*
X0228816Y0212093D01*
X0228816Y0217031D02*
X0230050Y0218265D01*
X0232519Y0218265D01*
X0233753Y0217031D01*
X0187590Y0148998D02*
X0182652Y0148998D01*
X0180183Y0146529D01*
X0182652Y0144060D01*
X0187590Y0144060D01*
X0187590Y0141631D02*
X0187590Y0136694D01*
X0187590Y0139162D02*
X0180183Y0139162D01*
X0182652Y0136694D01*
X0183887Y0144060D02*
X0183887Y0148998D01*
X0221884Y0119670D02*
X0224353Y0122139D01*
X0229291Y0122139D01*
X0225587Y0122139D02*
X0225587Y0117201D01*
X0224353Y0117201D02*
X0221884Y0119670D01*
X0224353Y0117201D02*
X0229291Y0117201D01*
X0229291Y0114773D02*
X0229291Y0109835D01*
X0224353Y0114773D01*
X0223119Y0114773D01*
X0221884Y0113538D01*
X0221884Y0111070D01*
X0223119Y0109835D01*
X0275276Y0120948D02*
X0280214Y0120948D01*
X0282643Y0120948D02*
X0287580Y0120948D01*
X0287580Y0122182D02*
X0287580Y0117245D01*
X0282643Y0117245D02*
X0282643Y0122182D01*
X0285111Y0124651D01*
X0287580Y0122182D01*
X0278980Y0124651D02*
X0278980Y0117245D01*
X0275276Y0120948D02*
X0278980Y0124651D01*
X0331489Y0089720D02*
X0336426Y0089720D01*
X0338855Y0089720D02*
X0342558Y0089720D01*
X0343793Y0088485D01*
X0343793Y0087251D01*
X0342558Y0086017D01*
X0338855Y0086017D01*
X0338855Y0093423D01*
X0342558Y0093423D01*
X0343793Y0092188D01*
X0343793Y0090954D01*
X0342558Y0089720D01*
X0335192Y0086017D02*
X0335192Y0093423D01*
X0331489Y0089720D01*
X0359582Y0120355D02*
X0358347Y0121590D01*
X0359582Y0120355D02*
X0362050Y0120355D01*
X0363285Y0121590D01*
X0363285Y0122824D01*
X0362050Y0124058D01*
X0360816Y0124058D01*
X0362050Y0124058D02*
X0363285Y0125293D01*
X0363285Y0126527D01*
X0362050Y0127761D01*
X0359582Y0127761D01*
X0358347Y0126527D01*
X0365714Y0127761D02*
X0365714Y0120355D01*
X0369417Y0120355D01*
X0370651Y0121590D01*
X0370651Y0122824D01*
X0369417Y0124058D01*
X0365714Y0124058D01*
X0369417Y0124058D02*
X0370651Y0125293D01*
X0370651Y0126527D01*
X0369417Y0127761D01*
X0365714Y0127761D01*
X0380308Y0158536D02*
X0385245Y0158536D01*
X0382776Y0158536D02*
X0382776Y0165943D01*
X0380308Y0163474D01*
X0387674Y0164708D02*
X0387674Y0159771D01*
X0388908Y0158536D01*
X0391377Y0158536D01*
X0392611Y0159771D01*
X0392611Y0164708D02*
X0391377Y0165943D01*
X0388908Y0165943D01*
X0387674Y0164708D01*
X0407363Y0149165D02*
X0408597Y0150399D01*
X0411066Y0150399D01*
X0412301Y0149165D01*
X0412301Y0147930D01*
X0407363Y0142993D01*
X0412301Y0142993D01*
X0414729Y0142993D02*
X0418432Y0142993D01*
X0419667Y0144227D01*
X0419667Y0145462D01*
X0418432Y0146696D01*
X0414729Y0146696D01*
X0414729Y0142993D02*
X0414729Y0150399D01*
X0418432Y0150399D01*
X0419667Y0149165D01*
X0419667Y0147930D01*
X0418432Y0146696D01*
X0427749Y0184127D02*
X0432686Y0184127D01*
X0435115Y0184127D02*
X0438818Y0184127D01*
X0440052Y0185361D01*
X0440052Y0186596D01*
X0438818Y0187830D01*
X0435115Y0187830D01*
X0438818Y0187830D02*
X0440052Y0189064D01*
X0440052Y0190299D01*
X0438818Y0191533D01*
X0435115Y0191533D01*
X0435115Y0184127D01*
X0430217Y0184127D02*
X0430217Y0191533D01*
X0427749Y0189064D01*
X0199558Y0066320D02*
X0194621Y0066320D01*
X0192152Y0063852D01*
X0194621Y0061383D01*
X0199558Y0061383D01*
X0198324Y0058954D02*
X0199558Y0057720D01*
X0199558Y0055251D01*
X0198324Y0054017D01*
X0195855Y0056485D02*
X0195855Y0057720D01*
X0197089Y0058954D01*
X0198324Y0058954D01*
X0195855Y0057720D02*
X0194621Y0058954D01*
X0193386Y0058954D01*
X0192152Y0057720D01*
X0192152Y0055251D01*
X0193386Y0054017D01*
X0195855Y0061383D02*
X0195855Y0066320D01*
X0129312Y0120290D02*
X0128078Y0119056D01*
X0124375Y0119056D01*
X0124375Y0126462D01*
X0128078Y0126462D01*
X0129312Y0125228D01*
X0129312Y0120290D01*
X0121946Y0122759D02*
X0117009Y0122759D01*
X0120712Y0126462D01*
X0120712Y0119056D01*
X0102204Y0097360D02*
X0098501Y0097360D01*
X0098501Y0089954D01*
X0102204Y0089954D01*
X0103438Y0091188D01*
X0103438Y0096125D01*
X0102204Y0097360D01*
X0096072Y0096125D02*
X0096072Y0094891D01*
X0094837Y0093657D01*
X0096072Y0092422D01*
X0096072Y0091188D01*
X0094837Y0089954D01*
X0092369Y0089954D01*
X0091134Y0091188D01*
X0093603Y0093657D02*
X0094837Y0093657D01*
X0096072Y0096125D02*
X0094837Y0097360D01*
X0092369Y0097360D01*
X0091134Y0096125D01*
D13*
X0249071Y0164819D02*
X0249071Y0188441D01*
X0351433Y0188441D01*
X0351433Y0164819D01*
X0249071Y0164819D01*
X0248913Y0190843D02*
X0248913Y0214465D01*
X0351276Y0214465D01*
X0351276Y0190843D01*
X0248913Y0190843D01*
D14*
X0446280Y0317579D02*
X0447339Y0318835D01*
X0448094Y0319646D01*
X0451563Y0316665D01*
X0449748Y0314598D01*
X0446280Y0317579D01*
X0446325Y0317633D02*
X0450437Y0317633D01*
X0450664Y0317438D02*
X0446444Y0317438D01*
X0446671Y0317242D02*
X0450892Y0317242D01*
X0451119Y0317047D02*
X0446898Y0317047D01*
X0447126Y0316852D02*
X0451346Y0316852D01*
X0451555Y0316656D02*
X0447353Y0316656D01*
X0447581Y0316461D02*
X0451383Y0316461D01*
X0451212Y0316265D02*
X0447808Y0316265D01*
X0448035Y0316070D02*
X0451040Y0316070D01*
X0450869Y0315875D02*
X0448263Y0315875D01*
X0448490Y0315679D02*
X0450697Y0315679D01*
X0450526Y0315484D02*
X0448717Y0315484D01*
X0448945Y0315289D02*
X0450354Y0315289D01*
X0450183Y0315093D02*
X0449172Y0315093D01*
X0449399Y0314898D02*
X0450011Y0314898D01*
X0449839Y0314703D02*
X0449627Y0314703D01*
X0450209Y0317828D02*
X0446490Y0317828D01*
X0446655Y0318024D02*
X0449982Y0318024D01*
X0449755Y0318219D02*
X0446820Y0318219D01*
X0446984Y0318414D02*
X0449527Y0318414D01*
X0449300Y0318610D02*
X0447149Y0318610D01*
X0447314Y0318805D02*
X0449073Y0318805D01*
X0448845Y0319001D02*
X0447527Y0319001D01*
X0447493Y0319001D01*
X0447339Y0318835D02*
X0448260Y0319646D01*
X0447339Y0318835D01*
X0447675Y0319196D02*
X0447749Y0319196D01*
X0448618Y0319196D01*
X0448391Y0319391D02*
X0447971Y0319391D01*
X0447857Y0319391D01*
X0448039Y0319587D02*
X0448163Y0319587D01*
X0448193Y0319587D02*
X0448193Y0319587D01*
D15*
X0432446Y0311388D02*
X0432446Y0310470D01*
X0431987Y0310010D01*
X0430609Y0310010D01*
X0430609Y0309092D02*
X0430609Y0311847D01*
X0431987Y0311847D01*
X0432446Y0311388D01*
X0431528Y0310010D02*
X0432446Y0309092D01*
X0429715Y0309092D02*
X0428797Y0309092D01*
X0429256Y0309092D02*
X0429256Y0311847D01*
X0428797Y0311847D02*
X0429715Y0311847D01*
M02*
