G75*
%MOIN*%
%OFA0B0*%
%FSLAX25Y25*%
%IPPOS*%
%LPD*%
%AMOC8*
5,1,8,0,0,1.08239X$1,22.5*
%
%ADD10C,0.13635*%
%ADD11C,0.37808*%
%ADD12R,0.05792X0.05792*%
%ADD13C,0.03162*%
%ADD14R,0.05792X0.05792*%
%ADD15R,0.04762X0.04762*%
%ADD16OC8,0.05550*%
%ADD17R,0.05550X0.05550*%
D10*
X0017102Y0014346D03*
X0016315Y0313244D03*
X0376669Y0312457D03*
X0377457Y0013559D03*
D11*
X0046472Y0304622D03*
D12*
X0115331Y0265685D03*
X0184583Y0206709D03*
X0174031Y0197378D03*
X0218835Y0197378D03*
X0262850Y0197378D03*
X0275606Y0207378D03*
X0308244Y0196787D03*
X0320606Y0202378D03*
X0355606Y0197378D03*
X0365606Y0202575D03*
X0350291Y0014661D03*
X0306079Y0012969D03*
X0261866Y0012378D03*
X0217850Y0012378D03*
X0172850Y0012378D03*
X0127850Y0012378D03*
X0079701Y0011984D03*
X0028362Y0021118D03*
X0037260Y0194268D03*
X0084622Y0197378D03*
X0129031Y0197378D03*
D13*
X0128008Y0177535D03*
X0139898Y0159268D03*
X0126906Y0142260D03*
X0117969Y0157220D03*
X0095488Y0159268D03*
X0082496Y0142260D03*
X0073559Y0157220D03*
X0083598Y0177535D03*
X0048126Y0156157D03*
X0035134Y0139150D03*
X0026197Y0154110D03*
X0036236Y0174425D03*
X0076095Y0209522D03*
X0059110Y0222544D03*
X0074086Y0231455D03*
X0094383Y0221380D03*
X0128168Y0247646D03*
X0141101Y0264699D03*
X0150090Y0249770D03*
X0140121Y0229420D03*
X0173717Y0244819D03*
X0185606Y0226551D03*
X0195646Y0246866D03*
X0186709Y0261827D03*
X0219296Y0243629D03*
X0232079Y0260794D03*
X0241198Y0245944D03*
X0264740Y0245488D03*
X0277732Y0262496D03*
X0286669Y0247535D03*
X0276630Y0227220D03*
X0309740Y0240488D03*
X0322732Y0257496D03*
X0331669Y0242535D03*
X0354740Y0240685D03*
X0367732Y0257693D03*
X0376669Y0242732D03*
X0366630Y0222417D03*
X0321630Y0222220D03*
X0307220Y0176945D03*
X0319110Y0158677D03*
X0306118Y0141669D03*
X0297181Y0156630D03*
X0273717Y0159268D03*
X0260724Y0142260D03*
X0251787Y0157220D03*
X0229701Y0159268D03*
X0216709Y0142260D03*
X0207772Y0157220D03*
X0217811Y0177535D03*
X0184898Y0159268D03*
X0171906Y0142260D03*
X0162969Y0157220D03*
X0173008Y0177535D03*
X0231408Y0225508D03*
X0261827Y0177535D03*
X0344543Y0157220D03*
X0353480Y0142260D03*
X0366472Y0159268D03*
X0354583Y0177535D03*
X0352417Y0069780D03*
X0361354Y0054819D03*
X0339425Y0052772D03*
X0351315Y0034504D03*
X0317142Y0053126D03*
X0308205Y0068087D03*
X0295213Y0051079D03*
X0307102Y0032811D03*
X0272929Y0052535D03*
X0263992Y0067496D03*
X0251000Y0050488D03*
X0228913Y0052535D03*
X0219976Y0067496D03*
X0206984Y0050488D03*
X0218874Y0032220D03*
X0183913Y0052535D03*
X0174976Y0067496D03*
X0161984Y0050488D03*
X0173874Y0032220D03*
X0138913Y0052535D03*
X0129976Y0067496D03*
X0116984Y0050488D03*
X0128874Y0032220D03*
X0090764Y0052142D03*
X0081827Y0067102D03*
X0068835Y0050094D03*
X0080724Y0031827D03*
X0039425Y0061276D03*
X0030488Y0076236D03*
X0017496Y0059228D03*
X0029386Y0040961D03*
X0262890Y0032220D03*
X0077220Y0254819D03*
X0060213Y0267811D03*
X0075173Y0276748D03*
X0095488Y0266709D03*
D14*
G36*
X0111323Y0217432D02*
X0111334Y0223223D01*
X0117125Y0223212D01*
X0117114Y0217421D01*
X0111323Y0217432D01*
G37*
G36*
X0136261Y0212459D02*
X0142052Y0212480D01*
X0142073Y0206689D01*
X0136282Y0206668D01*
X0136261Y0212459D01*
G37*
G36*
X0227696Y0208514D02*
X0233487Y0208585D01*
X0233558Y0202794D01*
X0227767Y0202723D01*
X0227696Y0208514D01*
G37*
D15*
X0243323Y0234346D03*
X0263008Y0269976D03*
X0289189Y0265449D03*
X0305724Y0211512D03*
X0276984Y0167024D03*
X0233705Y0168823D03*
X0188795Y0169386D03*
X0144898Y0170370D03*
X0097457Y0174504D03*
X0050409Y0164071D03*
X0082299Y0233953D03*
X0091551Y0277457D03*
X0111039Y0301472D03*
X0175016Y0261906D03*
X0198638Y0232969D03*
X0322850Y0166630D03*
X0343717Y0166236D03*
X0371276Y0171157D03*
X0378362Y0230016D03*
X0359661Y0266827D03*
X0342732Y0072732D03*
X0322850Y0042614D03*
X0277575Y0043205D03*
X0228362Y0067024D03*
X0186039Y0067220D03*
X0138402Y0064661D03*
X0071669Y0070961D03*
X0020488Y0080409D03*
D16*
X0080331Y0293598D03*
X0078953Y0315843D03*
D17*
X0078362Y0306787D03*
M02*
