%
M48
M72
T01C0.02362
T02C0.02992
T03C0.03150
T04C0.12835
T05C0.37008
%
T01
X265302Y59484
X287231Y61531
X278294Y76492
X268294Y80665
X319475Y71217
X329633Y67358
X338570Y52398
X316640Y50350
X328530Y32083
X364790Y50744
X386719Y52791
X386207Y64917
X377782Y67752
X409790Y50744
X431719Y52791
X454790Y50744
X476719Y52791
X498806Y50744
X520735Y52791
X525381Y43461
X543018Y51335
X564948Y53382
X570656Y42870
X554908Y33067
X587231Y53028
X609160Y55075
X600223Y70035
X590538Y72988
X556010Y68343
X511798Y67752
X476168Y67280
X467782Y67752
X433845Y67476
X422782Y67752
X421680Y32476
X466680Y32476
X510696Y32476
X599121Y34760
X601286Y142516
X592349Y157476
X591522Y166492
X602388Y177791
X619081Y171413
X614278Y159524
X570656Y166886
X566916Y158933
X544987Y156886
X524790Y167280
X521522Y159524
X499593Y157476
X481510Y169079
X477507Y159524
X455577Y157476
X436601Y169642
X432703Y159524
X410774Y157476
X387703Y159524
X392703Y170626
X375814Y177791
X345262Y174760
X331404Y177791
X343294Y159524
X321365Y157476
X298215Y164327
X295932Y156413
X274003Y154366
X282940Y139406
X330302Y142516
X365774Y157476
X374711Y142516
X419711Y142516
X464514Y142516
X508530Y142516
X553924Y141925
X555026Y177201
X509633Y177791
X465617Y177791
X420814Y177791
X342189Y221636
X330105Y234209
X321892Y231711
X306915Y222800
X323900Y209778
X387927Y229676
X375974Y247902
X397895Y250026
X421522Y245075
X443451Y247122
X467101Y243885
X489004Y246200
X512546Y245744
X534475Y247791
X557546Y240744
X579475Y242791
X602546Y240941
X624475Y242988
X626168Y230272
X614436Y222673
X569436Y222476
X553530Y211768
X524436Y227476
X491129Y234602
X479213Y225764
X446444Y233224
X433412Y226807
X434514Y262083
X422822Y262161
X388906Y264955
X343294Y266965
X339357Y277713
X322979Y277004
X308018Y268067
X325026Y255075
X358845Y301728
X479885Y261050
X510814Y270232
X525538Y262752
X536995Y265705
X570538Y257752
X607467Y267083
X615538Y257949
X284042Y174681
X277192Y41217
X376680Y32476
T02
X375656Y12634
X420656Y12634
X465656Y12634
X509672Y12634
X553885Y13224
X598097Y14917
X327507Y12240
X276168Y21374
X285066Y194524
X332428Y197634
X376837Y197634
X386973Y209830
X362030Y220578
X421837Y197634
X432388Y206965
X466640Y197634
X478432Y205910
X510656Y197634
X523412Y207634
X556050Y197043
X568412Y202634
X603412Y197634
X613412Y202831
X363136Y265941
T03
X328136Y293854
X326168Y307043
X326759Y316098
T04
X264908Y14602
X625262Y13815
X624475Y312713
X264121Y313500
T05
X294278Y304878
M30
