G75*
%MOIN*%
%OFA0B0*%
%FSLAX25Y25*%
%IPPOS*%
%LPD*%
%AMOC8*
5,1,8,0,0,1.08239X$1,22.5*
%
%ADD10C,0.00200*%
%ADD11C,0.00600*%
%ADD12C,0.00500*%
D10*
X0331386Y0290214D02*
X0331386Y0292416D01*
X0332487Y0292416D01*
X0332854Y0292049D01*
X0332854Y0291315D01*
X0332487Y0290948D01*
X0331386Y0290948D01*
X0333596Y0290214D02*
X0334330Y0290948D01*
X0335064Y0290214D01*
X0335064Y0292416D01*
X0335806Y0292416D02*
X0336907Y0292416D01*
X0337274Y0292049D01*
X0337274Y0291315D01*
X0336907Y0290948D01*
X0335806Y0290948D01*
X0336540Y0290948D02*
X0337274Y0290214D01*
X0335806Y0290214D02*
X0335806Y0292416D01*
X0333596Y0292416D02*
X0333596Y0290214D01*
X0340226Y0290581D02*
X0340593Y0290214D01*
X0341327Y0290214D01*
X0341694Y0290581D01*
X0341694Y0292049D01*
X0341327Y0292416D01*
X0340593Y0292416D01*
X0340226Y0292049D01*
X0340226Y0290581D01*
X0342435Y0290581D02*
X0342802Y0290214D01*
X0343536Y0290214D01*
X0343903Y0290581D01*
X0343903Y0292416D01*
X0344645Y0292416D02*
X0346113Y0292416D01*
X0345379Y0292416D02*
X0345379Y0290214D01*
X0342435Y0290581D02*
X0342435Y0292416D01*
X0332343Y0300254D02*
X0332343Y0302455D01*
X0331609Y0302455D02*
X0333077Y0302455D01*
X0330867Y0302455D02*
X0330867Y0300621D01*
X0330500Y0300254D01*
X0329766Y0300254D01*
X0329399Y0300621D01*
X0329399Y0302455D01*
X0328657Y0302088D02*
X0328290Y0302455D01*
X0327556Y0302455D01*
X0327189Y0302088D01*
X0327189Y0300621D01*
X0327556Y0300254D01*
X0328290Y0300254D01*
X0328657Y0300621D01*
X0328657Y0302088D01*
X0324237Y0302088D02*
X0323870Y0302455D01*
X0322769Y0302455D01*
X0322769Y0300254D01*
X0323870Y0300254D01*
X0324237Y0300621D01*
X0324237Y0302088D01*
X0322027Y0302088D02*
X0322027Y0301354D01*
X0321660Y0300988D01*
X0320559Y0300988D01*
X0320559Y0300254D02*
X0320559Y0302455D01*
X0321660Y0302455D01*
X0322027Y0302088D01*
D11*
X0372023Y0281250D02*
X0373253Y0282489D01*
X0375722Y0282497D01*
X0376961Y0281267D01*
X0376965Y0280033D01*
X0375735Y0278794D01*
X0376974Y0277564D01*
X0376978Y0276330D01*
X0375748Y0275091D01*
X0373279Y0275082D01*
X0372041Y0276312D01*
X0374501Y0278790D02*
X0375735Y0278794D01*
X0379398Y0278807D02*
X0381867Y0278815D01*
X0379411Y0275104D02*
X0379385Y0282510D01*
X0384323Y0282527D01*
X0417688Y0275968D02*
X0422626Y0275968D01*
X0425055Y0275968D02*
X0427524Y0275968D01*
X0425055Y0279671D02*
X0429992Y0279671D01*
X0425055Y0279671D02*
X0425055Y0272265D01*
X0421392Y0272265D02*
X0421392Y0279671D01*
X0417688Y0275968D01*
X0462860Y0277197D02*
X0464079Y0278446D01*
X0466548Y0278477D01*
X0467797Y0277257D01*
X0467812Y0276023D01*
X0466593Y0274774D01*
X0467843Y0273555D01*
X0467858Y0272320D01*
X0466638Y0271071D01*
X0464170Y0271041D01*
X0462921Y0272260D01*
X0465359Y0274759D02*
X0466593Y0274774D01*
X0470226Y0277287D02*
X0470286Y0272350D01*
X0471536Y0271131D01*
X0474004Y0271161D01*
X0475223Y0272410D01*
X0475163Y0277347D02*
X0473914Y0278567D01*
X0471445Y0278536D01*
X0470226Y0277287D01*
X0508712Y0276637D02*
X0513650Y0276637D01*
X0512415Y0272934D02*
X0512415Y0280340D01*
X0508712Y0276637D01*
X0516078Y0272934D02*
X0519782Y0272934D01*
X0521016Y0274168D01*
X0521016Y0279106D01*
X0519782Y0280340D01*
X0516078Y0280340D01*
X0516078Y0272934D01*
X0553712Y0274106D02*
X0554946Y0275340D01*
X0557415Y0275340D01*
X0558650Y0274106D01*
X0558650Y0272871D01*
X0557415Y0271637D01*
X0558650Y0270403D01*
X0558650Y0269168D01*
X0557415Y0267934D01*
X0554946Y0267934D01*
X0553712Y0269168D01*
X0556181Y0271637D02*
X0557415Y0271637D01*
X0561078Y0267934D02*
X0564782Y0267934D01*
X0566016Y0269168D01*
X0566016Y0274106D01*
X0564782Y0275340D01*
X0561078Y0275340D01*
X0561078Y0267934D01*
X0598712Y0271834D02*
X0603650Y0271834D01*
X0606078Y0274303D02*
X0606078Y0269365D01*
X0607313Y0268131D01*
X0609782Y0268131D01*
X0611016Y0269365D01*
X0611016Y0274303D02*
X0609782Y0275537D01*
X0607313Y0275537D01*
X0606078Y0274303D01*
X0602415Y0275537D02*
X0602415Y0268131D01*
X0598712Y0271834D02*
X0602415Y0275537D01*
X0607683Y0132340D02*
X0603979Y0128637D01*
X0608917Y0128637D01*
X0611346Y0128637D02*
X0615049Y0128637D01*
X0616283Y0127403D01*
X0616283Y0126168D01*
X0615049Y0124934D01*
X0611346Y0124934D01*
X0611346Y0132340D01*
X0615049Y0132340D01*
X0616283Y0131106D01*
X0616283Y0129871D01*
X0615049Y0128637D01*
X0607683Y0124934D02*
X0607683Y0132340D01*
X0568921Y0129281D02*
X0568921Y0124343D01*
X0568921Y0128046D02*
X0563984Y0128046D01*
X0563984Y0129281D02*
X0566452Y0131750D01*
X0568921Y0129281D01*
X0563984Y0129281D02*
X0563984Y0124343D01*
X0560320Y0124343D02*
X0560320Y0131750D01*
X0556617Y0128046D01*
X0561555Y0128046D01*
X0523527Y0127403D02*
X0523527Y0126168D01*
X0522293Y0124934D01*
X0518590Y0124934D01*
X0518590Y0132340D01*
X0522293Y0132340D01*
X0523527Y0131106D01*
X0523527Y0129871D01*
X0522293Y0128637D01*
X0518590Y0128637D01*
X0516161Y0127403D02*
X0516161Y0126168D01*
X0514927Y0124934D01*
X0512458Y0124934D01*
X0511224Y0126168D01*
X0513692Y0128637D02*
X0514927Y0128637D01*
X0516161Y0127403D01*
X0514927Y0128637D02*
X0516161Y0129871D01*
X0516161Y0131106D01*
X0514927Y0132340D01*
X0512458Y0132340D01*
X0511224Y0131106D01*
X0522293Y0128637D02*
X0523527Y0127403D01*
X0479512Y0127403D02*
X0479512Y0126168D01*
X0478277Y0124934D01*
X0474574Y0124934D01*
X0474574Y0132340D01*
X0478277Y0132340D01*
X0479512Y0131106D01*
X0479512Y0129871D01*
X0478277Y0128637D01*
X0474574Y0128637D01*
X0472145Y0129871D02*
X0472145Y0131106D01*
X0470911Y0132340D01*
X0468442Y0132340D01*
X0467208Y0131106D01*
X0472145Y0129871D02*
X0467208Y0124934D01*
X0472145Y0124934D01*
X0478277Y0128637D02*
X0479512Y0127403D01*
X0434709Y0126168D02*
X0433474Y0124934D01*
X0431005Y0124934D01*
X0429771Y0126168D01*
X0429771Y0131106D01*
X0431005Y0132340D01*
X0433474Y0132340D01*
X0434709Y0131106D01*
X0427342Y0131106D02*
X0427342Y0129871D01*
X0422405Y0124934D01*
X0427342Y0124934D01*
X0427342Y0131106D02*
X0426108Y0132340D01*
X0423639Y0132340D01*
X0422405Y0131106D01*
X0389709Y0131106D02*
X0389709Y0126168D01*
X0388474Y0124934D01*
X0384771Y0124934D01*
X0384771Y0132340D01*
X0388474Y0132340D01*
X0389709Y0131106D01*
X0382342Y0131106D02*
X0382342Y0129871D01*
X0377405Y0124934D01*
X0382342Y0124934D01*
X0382342Y0131106D02*
X0381108Y0132340D01*
X0378639Y0132340D01*
X0377405Y0131106D01*
X0345299Y0132340D02*
X0340362Y0132340D01*
X0340362Y0124934D01*
X0337933Y0124934D02*
X0332995Y0124934D01*
X0337933Y0129871D01*
X0337933Y0131106D01*
X0336698Y0132340D01*
X0334230Y0132340D01*
X0332995Y0131106D01*
X0340362Y0128637D02*
X0342830Y0128637D01*
X0297937Y0127996D02*
X0296702Y0129230D01*
X0294234Y0129230D01*
X0292999Y0127996D01*
X0292999Y0123058D01*
X0294234Y0121824D01*
X0296702Y0121824D01*
X0297937Y0123058D01*
X0297937Y0125527D01*
X0295468Y0125527D01*
X0290571Y0126761D02*
X0290571Y0127996D01*
X0289336Y0129230D01*
X0286867Y0129230D01*
X0285633Y0127996D01*
X0290571Y0126761D02*
X0285633Y0121824D01*
X0290571Y0121824D01*
X0272537Y0094080D02*
X0270069Y0094080D01*
X0268834Y0092846D01*
X0268834Y0087908D01*
X0270069Y0086674D01*
X0272537Y0086674D01*
X0273772Y0087908D01*
X0273772Y0090377D01*
X0271303Y0090377D01*
X0273772Y0092846D02*
X0272537Y0094080D01*
X0263937Y0094080D02*
X0263937Y0086674D01*
X0261468Y0086674D02*
X0266406Y0086674D01*
X0261468Y0091612D02*
X0263937Y0094080D01*
X0312807Y0082478D02*
X0315275Y0084946D01*
X0315275Y0077540D01*
X0312807Y0077540D02*
X0317744Y0077540D01*
X0320173Y0077540D02*
X0320173Y0084946D01*
X0325110Y0084946D01*
X0322642Y0081243D02*
X0320173Y0081243D01*
X0360956Y0082871D02*
X0363425Y0085340D01*
X0363425Y0077934D01*
X0360956Y0077934D02*
X0365894Y0077934D01*
X0368322Y0077934D02*
X0372026Y0077934D01*
X0373260Y0079168D01*
X0373260Y0084106D01*
X0372026Y0085340D01*
X0368322Y0085340D01*
X0368322Y0077934D01*
X0405956Y0077934D02*
X0410894Y0077934D01*
X0408425Y0077934D02*
X0408425Y0085340D01*
X0405956Y0082871D01*
X0413322Y0084106D02*
X0413322Y0079168D01*
X0414557Y0077934D01*
X0417026Y0077934D01*
X0418260Y0079168D01*
X0418260Y0084106D02*
X0417026Y0085340D01*
X0414557Y0085340D01*
X0413322Y0084106D01*
X0450956Y0082871D02*
X0453425Y0085340D01*
X0453425Y0077934D01*
X0450956Y0077934D02*
X0455894Y0077934D01*
X0458322Y0077934D02*
X0462026Y0077934D01*
X0463260Y0079168D01*
X0463260Y0080403D01*
X0462026Y0081637D01*
X0458322Y0081637D01*
X0458322Y0077934D02*
X0458322Y0085340D01*
X0462026Y0085340D01*
X0463260Y0084106D01*
X0463260Y0082871D01*
X0462026Y0081637D01*
X0494972Y0082871D02*
X0497441Y0085340D01*
X0497441Y0077934D01*
X0499909Y0077934D02*
X0494972Y0077934D01*
X0502338Y0077934D02*
X0502338Y0082871D01*
X0504807Y0085340D01*
X0507276Y0082871D01*
X0507276Y0077934D01*
X0507276Y0081637D02*
X0502338Y0081637D01*
X0539185Y0084696D02*
X0540419Y0085931D01*
X0542888Y0085931D01*
X0544122Y0084696D01*
X0544122Y0083462D01*
X0539185Y0078524D01*
X0544122Y0078524D01*
X0546551Y0078524D02*
X0546551Y0083462D01*
X0549020Y0085931D01*
X0551488Y0083462D01*
X0551488Y0078524D01*
X0551488Y0082228D02*
X0546551Y0082228D01*
X0583397Y0081452D02*
X0584631Y0080217D01*
X0587100Y0080217D01*
X0588335Y0081452D01*
X0588335Y0082686D01*
X0587100Y0083920D01*
X0585866Y0083920D01*
X0587100Y0083920D02*
X0588335Y0085155D01*
X0588335Y0086389D01*
X0587100Y0087624D01*
X0584631Y0087624D01*
X0583397Y0086389D01*
X0590763Y0085155D02*
X0590763Y0080217D01*
X0590763Y0083920D02*
X0595701Y0083920D01*
X0595701Y0085155D02*
X0595701Y0080217D01*
X0595701Y0085155D02*
X0593232Y0087624D01*
X0590763Y0085155D01*
X0296706Y0207226D02*
X0295470Y0205994D01*
X0296706Y0207226D02*
X0296711Y0209695D01*
X0295478Y0210932D01*
X0294244Y0210934D01*
X0293007Y0209701D01*
X0293005Y0208467D01*
X0293007Y0209701D02*
X0291775Y0210938D01*
X0290541Y0210940D01*
X0289304Y0209708D01*
X0289300Y0207239D01*
X0290532Y0206003D01*
X0290545Y0213369D02*
X0295483Y0213360D01*
X0296719Y0214592D01*
X0296723Y0217061D01*
X0295491Y0218298D01*
X0293022Y0218302D01*
X0293018Y0215833D01*
X0290545Y0213369D02*
X0289313Y0214605D01*
X0289317Y0217074D01*
X0290554Y0218306D01*
X0294133Y0251241D02*
X0294133Y0256178D01*
X0291665Y0258607D02*
X0296602Y0258607D01*
X0297836Y0259842D01*
X0297836Y0262310D01*
X0296602Y0263545D01*
X0294133Y0263545D01*
X0294133Y0261076D01*
X0291665Y0258607D02*
X0290430Y0259842D01*
X0290430Y0262310D01*
X0291665Y0263545D01*
X0290430Y0254944D02*
X0294133Y0251241D01*
X0297836Y0254944D02*
X0290430Y0254944D01*
X0265631Y0288139D02*
X0263496Y0290274D01*
X0264564Y0290274D02*
X0261361Y0290274D01*
X0261361Y0288139D02*
X0261361Y0294544D01*
X0264564Y0294544D01*
X0265631Y0293476D01*
X0265631Y0291341D01*
X0264564Y0290274D01*
X0259199Y0288139D02*
X0257064Y0288139D01*
X0258132Y0288139D02*
X0258132Y0294544D01*
X0259199Y0294544D02*
X0257064Y0294544D01*
D12*
X0256168Y0131374D02*
X0256168Y0026374D01*
X0293668Y0026374D01*
X0298668Y0043874D01*
X0298668Y0061374D01*
X0296168Y0073874D01*
X0293668Y0083874D01*
X0286168Y0098874D01*
X0281168Y0106374D01*
X0273668Y0116374D01*
X0266168Y0123874D01*
X0256168Y0131374D01*
X0267566Y0132024D02*
X0265066Y0142024D01*
X0262566Y0154524D01*
X0262566Y0172024D01*
X0267566Y0189524D01*
X0305066Y0189524D01*
X0305066Y0084524D01*
X0295066Y0092024D01*
X0287566Y0099524D01*
X0280066Y0109524D01*
X0275066Y0117024D01*
X0267566Y0132024D01*
X0307507Y0122240D02*
X0307507Y0017240D01*
X0345007Y0017240D01*
X0350007Y0034740D01*
X0350007Y0052240D01*
X0347507Y0064740D01*
X0345007Y0074740D01*
X0337507Y0089740D01*
X0332507Y0097240D01*
X0325007Y0107240D01*
X0317507Y0114740D01*
X0307507Y0122240D01*
X0314928Y0135134D02*
X0322428Y0120134D01*
X0327428Y0112634D01*
X0334928Y0102634D01*
X0342428Y0095134D01*
X0352428Y0087634D01*
X0352428Y0192634D01*
X0314928Y0192634D01*
X0309928Y0175134D01*
X0309928Y0157634D01*
X0312428Y0145134D01*
X0314928Y0135134D01*
X0355656Y0122634D02*
X0355656Y0017634D01*
X0393156Y0017634D01*
X0398156Y0035134D01*
X0398156Y0052634D01*
X0395656Y0065134D01*
X0393156Y0075134D01*
X0385656Y0090134D01*
X0380656Y0097634D01*
X0373156Y0107634D01*
X0365656Y0115134D01*
X0355656Y0122634D01*
X0366837Y0120134D02*
X0359337Y0135134D01*
X0356837Y0145134D01*
X0354337Y0157634D01*
X0354337Y0175134D01*
X0359337Y0192634D01*
X0396837Y0192634D01*
X0396837Y0087634D01*
X0386837Y0095134D01*
X0379337Y0102634D01*
X0371837Y0112634D01*
X0366837Y0120134D01*
X0400656Y0122634D02*
X0400656Y0017634D01*
X0438156Y0017634D01*
X0443156Y0035134D01*
X0443156Y0052634D01*
X0440656Y0065134D01*
X0438156Y0075134D01*
X0430656Y0090134D01*
X0425656Y0097634D01*
X0418156Y0107634D01*
X0410656Y0115134D01*
X0400656Y0122634D01*
X0411837Y0120134D02*
X0404337Y0135134D01*
X0401837Y0145134D01*
X0399337Y0157634D01*
X0399337Y0175134D01*
X0404337Y0192634D01*
X0441837Y0192634D01*
X0441837Y0087634D01*
X0431837Y0095134D01*
X0424337Y0102634D01*
X0416837Y0112634D01*
X0411837Y0120134D01*
X0445656Y0122634D02*
X0445656Y0017634D01*
X0483156Y0017634D01*
X0488156Y0035134D01*
X0488156Y0052634D01*
X0485656Y0065134D01*
X0483156Y0075134D01*
X0475656Y0090134D01*
X0470656Y0097634D01*
X0463156Y0107634D01*
X0455656Y0115134D01*
X0445656Y0122634D01*
X0456640Y0120134D02*
X0461640Y0112634D01*
X0469140Y0102634D01*
X0476640Y0095134D01*
X0486640Y0087634D01*
X0486640Y0192634D01*
X0449140Y0192634D01*
X0444140Y0175134D01*
X0444140Y0157634D01*
X0446640Y0145134D01*
X0449140Y0135134D01*
X0456640Y0120134D01*
X0489672Y0122634D02*
X0489672Y0017634D01*
X0527172Y0017634D01*
X0532172Y0035134D01*
X0532172Y0052634D01*
X0529672Y0065134D01*
X0527172Y0075134D01*
X0519672Y0090134D01*
X0514672Y0097634D01*
X0507172Y0107634D01*
X0499672Y0115134D01*
X0489672Y0122634D01*
X0500656Y0120134D02*
X0505656Y0112634D01*
X0513156Y0102634D01*
X0520656Y0095134D01*
X0530656Y0087634D01*
X0530656Y0192634D01*
X0493156Y0192634D01*
X0488156Y0175134D01*
X0488156Y0157634D01*
X0490656Y0145134D01*
X0493156Y0135134D01*
X0500656Y0120134D01*
X0533885Y0123224D02*
X0533885Y0018224D01*
X0571385Y0018224D01*
X0576385Y0035724D01*
X0576385Y0053224D01*
X0573885Y0065724D01*
X0571385Y0075724D01*
X0563885Y0090724D01*
X0558885Y0098224D01*
X0551385Y0108224D01*
X0543885Y0115724D01*
X0533885Y0123224D01*
X0538550Y0134543D02*
X0546050Y0119543D01*
X0551050Y0112043D01*
X0558550Y0102043D01*
X0566050Y0094543D01*
X0576050Y0087043D01*
X0576050Y0192043D01*
X0538550Y0192043D01*
X0533550Y0174543D01*
X0533550Y0157043D01*
X0536050Y0144543D01*
X0538550Y0134543D01*
X0578097Y0124917D02*
X0578097Y0019917D01*
X0615597Y0019917D01*
X0620597Y0037417D01*
X0620597Y0054917D01*
X0618097Y0067417D01*
X0615597Y0077417D01*
X0608097Y0092417D01*
X0603097Y0099917D01*
X0595597Y0109917D01*
X0588097Y0117417D01*
X0578097Y0124917D01*
X0585912Y0135134D02*
X0593412Y0120134D01*
X0598412Y0112634D01*
X0605912Y0102634D01*
X0613412Y0095134D01*
X0623412Y0087634D01*
X0623412Y0192634D01*
X0585912Y0192634D01*
X0580912Y0175134D01*
X0580912Y0157634D01*
X0583412Y0145134D01*
X0585912Y0135134D01*
X0585912Y0207634D02*
X0548412Y0207634D01*
X0548412Y0312634D01*
X0558412Y0305134D01*
X0565912Y0297634D01*
X0573412Y0287634D01*
X0578412Y0280134D01*
X0585912Y0265134D01*
X0588412Y0255134D01*
X0590912Y0242634D01*
X0590912Y0225134D01*
X0585912Y0207634D01*
X0593412Y0207831D02*
X0593412Y0312831D01*
X0603412Y0305331D01*
X0610912Y0297831D01*
X0618412Y0287831D01*
X0623412Y0280331D01*
X0630912Y0265331D01*
X0633412Y0255331D01*
X0635912Y0242831D01*
X0635912Y0225331D01*
X0630912Y0207831D01*
X0593412Y0207831D01*
X0545912Y0230134D02*
X0540912Y0212634D01*
X0503412Y0212634D01*
X0503412Y0317634D01*
X0513412Y0310134D01*
X0520912Y0302634D01*
X0528412Y0292634D01*
X0533412Y0285134D01*
X0540912Y0270134D01*
X0543412Y0260134D01*
X0545912Y0247634D01*
X0545912Y0230134D01*
X0500656Y0228683D02*
X0495870Y0211123D01*
X0458373Y0210665D01*
X0457090Y0315658D01*
X0467181Y0308280D01*
X0474772Y0300872D01*
X0482393Y0290965D01*
X0487485Y0283526D01*
X0495167Y0268619D01*
X0497789Y0258650D01*
X0500442Y0246182D01*
X0500656Y0228683D01*
X0454888Y0229465D02*
X0449888Y0211965D01*
X0412388Y0211965D01*
X0412388Y0316965D01*
X0422388Y0309465D01*
X0429888Y0301965D01*
X0437388Y0291965D01*
X0442388Y0284465D01*
X0449888Y0269465D01*
X0452388Y0259465D01*
X0454888Y0246965D01*
X0454888Y0229465D01*
X0409394Y0232408D02*
X0409333Y0249908D01*
X0406789Y0262399D01*
X0404254Y0272390D01*
X0396702Y0287364D01*
X0391676Y0294847D01*
X0384141Y0304820D01*
X0376615Y0312294D01*
X0366589Y0319759D01*
X0366955Y0214760D01*
X0404455Y0214891D01*
X0409394Y0232408D01*
X0357060Y0238087D02*
X0356995Y0200587D01*
X0251995Y0200770D01*
X0259512Y0210757D01*
X0267025Y0218244D01*
X0277038Y0225726D01*
X0284547Y0230713D01*
X0299560Y0238187D01*
X0309565Y0240669D01*
X0322069Y0243148D01*
X0339569Y0243117D01*
X0357060Y0238087D01*
X0358136Y0245941D02*
X0253136Y0245941D01*
X0260636Y0255941D01*
X0268136Y0263441D01*
X0278136Y0270941D01*
X0285636Y0275941D01*
X0300636Y0283441D01*
X0310636Y0285941D01*
X0323136Y0288441D01*
X0340636Y0288441D01*
X0358136Y0283441D01*
X0358136Y0245941D01*
X0352152Y0302516D02*
X0344278Y0302516D01*
X0344278Y0306846D01*
X0352152Y0306846D01*
X0352152Y0302516D01*
X0352152Y0306846D02*
X0352152Y0307634D01*
X0344278Y0307634D01*
X0344278Y0306846D01*
M02*
