G75*
%MOIN*%
%OFA0B0*%
%FSLAX25Y25*%
%IPPOS*%
%LPD*%
%AMOC8*
5,1,8,0,0,1.08239X$1,22.5*
%
%ADD10C,0.00600*%
%ADD11C,0.00500*%
D10*
X0420967Y0301635D02*
X0425237Y0301635D01*
X0423102Y0301635D02*
X0423102Y0308040D01*
X0425237Y0305905D01*
X0427393Y0302702D02*
X0427393Y0301635D01*
X0428460Y0301635D01*
X0428460Y0302702D01*
X0427393Y0302702D01*
X0430635Y0302702D02*
X0431703Y0301635D01*
X0433838Y0301635D01*
X0434906Y0302702D01*
X0437081Y0303770D02*
X0439216Y0301635D01*
X0441351Y0303770D01*
X0441351Y0308040D01*
X0440277Y0312135D02*
X0440277Y0316405D01*
X0440277Y0314270D02*
X0438142Y0316405D01*
X0437074Y0316405D01*
X0434906Y0315337D02*
X0433838Y0316405D01*
X0430635Y0316405D01*
X0428460Y0316405D02*
X0427393Y0316405D01*
X0427393Y0312135D01*
X0428460Y0312135D02*
X0426325Y0312135D01*
X0423096Y0313202D02*
X0422028Y0312135D01*
X0423096Y0313202D02*
X0423096Y0317473D01*
X0424163Y0316405D02*
X0422028Y0316405D01*
X0419866Y0316405D02*
X0419866Y0313202D01*
X0418799Y0312135D01*
X0415596Y0312135D01*
X0415596Y0311067D02*
X0416663Y0309999D01*
X0417731Y0309999D01*
X0415596Y0311067D02*
X0415596Y0316405D01*
X0406975Y0317473D02*
X0406975Y0313202D01*
X0405908Y0312135D01*
X0403772Y0312135D01*
X0402705Y0313202D01*
X0400530Y0313202D02*
X0399462Y0312135D01*
X0396259Y0312135D01*
X0396259Y0316405D01*
X0394084Y0316405D02*
X0390881Y0316405D01*
X0389814Y0315337D01*
X0389814Y0313202D01*
X0390881Y0312135D01*
X0394084Y0312135D01*
X0394084Y0318540D01*
X0400530Y0316405D02*
X0400530Y0313202D01*
X0402705Y0317473D02*
X0403772Y0318540D01*
X0405908Y0318540D01*
X0406975Y0317473D01*
X0387639Y0315337D02*
X0387639Y0313202D01*
X0386571Y0312135D01*
X0384436Y0312135D01*
X0383368Y0314270D02*
X0387639Y0314270D01*
X0387639Y0315337D02*
X0386571Y0316405D01*
X0384436Y0316405D01*
X0383368Y0315337D01*
X0383368Y0314270D01*
X0381193Y0313202D02*
X0380126Y0312135D01*
X0377990Y0312135D01*
X0376923Y0313202D01*
X0376923Y0314270D01*
X0377990Y0315337D01*
X0380126Y0315337D01*
X0381193Y0316405D01*
X0381193Y0317473D01*
X0380126Y0318540D01*
X0377990Y0318540D01*
X0376923Y0317473D01*
X0373680Y0316405D02*
X0371545Y0316405D01*
X0370477Y0315337D01*
X0370477Y0312135D01*
X0373680Y0312135D01*
X0374748Y0313202D01*
X0373680Y0314270D01*
X0370477Y0314270D01*
X0368302Y0316405D02*
X0366167Y0316405D01*
X0367235Y0317473D02*
X0367235Y0313202D01*
X0366167Y0312135D01*
X0355425Y0312135D02*
X0355425Y0318540D01*
X0357560Y0318540D02*
X0353289Y0318540D01*
X0351114Y0315337D02*
X0350047Y0316405D01*
X0347911Y0316405D01*
X0346844Y0315337D01*
X0346844Y0314270D01*
X0351114Y0314270D01*
X0351114Y0315337D02*
X0351114Y0313202D01*
X0350047Y0312135D01*
X0347911Y0312135D01*
X0344669Y0313202D02*
X0343601Y0314270D01*
X0340398Y0314270D01*
X0340398Y0315337D02*
X0340398Y0312135D01*
X0343601Y0312135D01*
X0344669Y0313202D01*
X0343601Y0316405D02*
X0341466Y0316405D01*
X0340398Y0315337D01*
X0338223Y0316405D02*
X0338223Y0312135D01*
X0336088Y0312135D02*
X0336088Y0315337D01*
X0335020Y0316405D01*
X0333953Y0315337D01*
X0333953Y0312135D01*
X0336088Y0315337D02*
X0337156Y0316405D01*
X0338223Y0316405D01*
X0427393Y0318540D02*
X0427393Y0319608D01*
X0431703Y0314270D02*
X0433838Y0314270D01*
X0434906Y0315337D01*
X0434906Y0312135D02*
X0431703Y0312135D01*
X0430635Y0313202D01*
X0431703Y0314270D01*
X0431703Y0308040D02*
X0430635Y0306973D01*
X0430635Y0305905D01*
X0431703Y0304837D01*
X0430635Y0303770D01*
X0430635Y0302702D01*
X0431703Y0304837D02*
X0432770Y0304837D01*
X0434906Y0306973D02*
X0433838Y0308040D01*
X0431703Y0308040D01*
X0437081Y0308040D02*
X0437081Y0303770D01*
X0443520Y0312135D02*
X0445655Y0312135D01*
X0446722Y0313202D01*
X0446722Y0315337D01*
X0445655Y0316405D01*
X0443520Y0316405D01*
X0442452Y0315337D01*
X0442452Y0314270D01*
X0446722Y0314270D01*
X0448898Y0316405D02*
X0451033Y0312135D01*
X0453168Y0316405D01*
X0456397Y0316405D02*
X0456397Y0312135D01*
X0455330Y0312135D02*
X0457465Y0312135D01*
X0459640Y0312135D02*
X0459640Y0315337D01*
X0460708Y0316405D01*
X0463910Y0316405D01*
X0463910Y0312135D01*
X0466086Y0313202D02*
X0466086Y0318540D01*
X0470356Y0318540D02*
X0470356Y0313202D01*
X0469288Y0312135D01*
X0467153Y0312135D01*
X0466086Y0313202D01*
X0457465Y0316405D02*
X0456397Y0316405D01*
X0456397Y0318540D02*
X0456397Y0319608D01*
X0452094Y0308040D02*
X0451026Y0308040D01*
X0451026Y0301635D01*
X0452094Y0301635D02*
X0449958Y0301635D01*
X0454269Y0303770D02*
X0458539Y0303770D01*
X0458539Y0304837D02*
X0457472Y0305905D01*
X0455336Y0305905D01*
X0454269Y0304837D01*
X0454269Y0303770D01*
X0455336Y0301635D02*
X0457472Y0301635D01*
X0458539Y0302702D01*
X0458539Y0304837D01*
X0460714Y0304837D02*
X0460714Y0301635D01*
X0460714Y0304837D02*
X0461782Y0305905D01*
X0464985Y0305905D01*
X0464985Y0301635D01*
X0467160Y0301635D02*
X0470363Y0301635D01*
X0471430Y0302702D01*
X0470363Y0303770D01*
X0467160Y0303770D01*
X0467160Y0304837D02*
X0467160Y0301635D01*
X0467160Y0304837D02*
X0468227Y0305905D01*
X0470363Y0305905D01*
X0473605Y0306973D02*
X0473605Y0304837D01*
X0474673Y0303770D01*
X0477876Y0303770D01*
X0477876Y0301635D02*
X0477876Y0308040D01*
X0474673Y0308040D01*
X0473605Y0306973D01*
X0478977Y0312135D02*
X0478977Y0315337D01*
X0480044Y0316405D01*
X0483247Y0316405D01*
X0483247Y0312135D01*
X0485422Y0313202D02*
X0485422Y0316405D01*
X0485422Y0313202D02*
X0486490Y0312135D01*
X0487557Y0313202D01*
X0488625Y0312135D01*
X0489692Y0313202D01*
X0489692Y0316405D01*
X0491868Y0315337D02*
X0492935Y0316405D01*
X0495070Y0316405D01*
X0496138Y0315337D01*
X0496138Y0313202D01*
X0495070Y0312135D01*
X0492935Y0312135D01*
X0491868Y0313202D01*
X0491868Y0315337D01*
X0498306Y0316405D02*
X0499374Y0316405D01*
X0501509Y0314270D01*
X0501509Y0312135D02*
X0501509Y0316405D01*
X0503684Y0316405D02*
X0504752Y0315337D01*
X0507955Y0315337D01*
X0507955Y0312135D02*
X0504752Y0312135D01*
X0503684Y0313202D01*
X0503684Y0314270D01*
X0504752Y0315337D01*
X0503684Y0316405D02*
X0503684Y0317473D01*
X0504752Y0318540D01*
X0507955Y0318540D01*
X0507955Y0312135D01*
X0506887Y0308040D02*
X0507955Y0306973D01*
X0507955Y0305905D01*
X0506887Y0304837D01*
X0504752Y0304837D01*
X0503684Y0303770D01*
X0503684Y0302702D01*
X0504752Y0301635D01*
X0506887Y0301635D01*
X0507955Y0302702D01*
X0501509Y0301635D02*
X0499374Y0301635D01*
X0500442Y0301635D02*
X0500442Y0305905D01*
X0501509Y0305905D01*
X0500442Y0308040D02*
X0500442Y0309108D01*
X0503684Y0306973D02*
X0504752Y0308040D01*
X0506887Y0308040D01*
X0497212Y0304837D02*
X0496145Y0305905D01*
X0492942Y0305905D01*
X0492942Y0308040D02*
X0492942Y0301635D01*
X0496145Y0301635D01*
X0497212Y0302702D01*
X0497212Y0304837D01*
X0490767Y0304837D02*
X0490767Y0302702D01*
X0489699Y0301635D01*
X0487564Y0301635D01*
X0486496Y0303770D02*
X0490767Y0303770D01*
X0490767Y0304837D02*
X0489699Y0305905D01*
X0487564Y0305905D01*
X0486496Y0304837D01*
X0486496Y0303770D01*
D11*
X0256168Y0027374D02*
X0257168Y0026374D01*
X0256909Y0026408D01*
X0256668Y0026508D01*
X0256461Y0026667D01*
X0256302Y0026874D01*
X0256202Y0027115D01*
X0256168Y0027374D01*
X0256171Y0027351D02*
X0256191Y0027351D01*
X0256318Y0026852D02*
X0256689Y0026852D01*
X0307507Y0018240D02*
X0308507Y0017240D01*
X0308248Y0017274D01*
X0308007Y0017374D01*
X0307799Y0017533D01*
X0307641Y0017740D01*
X0307541Y0017981D01*
X0307507Y0018240D01*
X0307583Y0017879D02*
X0307867Y0017879D01*
X0307998Y0017381D02*
X0308366Y0017381D01*
X0355656Y0018634D02*
X0356656Y0017634D01*
X0356397Y0017668D01*
X0356156Y0017768D01*
X0355949Y0017927D01*
X0355790Y0018134D01*
X0355690Y0018375D01*
X0355656Y0018634D01*
X0355690Y0018378D02*
X0355912Y0018378D01*
X0356011Y0017879D02*
X0356411Y0017879D01*
X0400656Y0018634D02*
X0401656Y0017634D01*
X0401397Y0017668D01*
X0401156Y0017768D01*
X0400949Y0017927D01*
X0400790Y0018134D01*
X0400690Y0018375D01*
X0400656Y0018634D01*
X0400690Y0018378D02*
X0400912Y0018378D01*
X0401011Y0017879D02*
X0401411Y0017879D01*
X0445656Y0018634D02*
X0446656Y0017634D01*
X0446397Y0017668D01*
X0446156Y0017768D01*
X0445949Y0017927D01*
X0445790Y0018134D01*
X0445690Y0018375D01*
X0445656Y0018634D01*
X0445690Y0018378D02*
X0445912Y0018378D01*
X0446011Y0017879D02*
X0446411Y0017879D01*
X0489672Y0018634D02*
X0490672Y0017634D01*
X0490413Y0017668D01*
X0490172Y0017768D01*
X0489965Y0017927D01*
X0489806Y0018134D01*
X0489706Y0018375D01*
X0489672Y0018634D01*
X0489706Y0018378D02*
X0489928Y0018378D01*
X0490027Y0017879D02*
X0490426Y0017879D01*
X0533885Y0019224D02*
X0534885Y0018224D01*
X0534626Y0018258D01*
X0534385Y0018358D01*
X0534177Y0018517D01*
X0534018Y0018724D01*
X0533919Y0018966D01*
X0533885Y0019224D01*
X0533956Y0018876D02*
X0534233Y0018876D01*
X0534359Y0018378D02*
X0534731Y0018378D01*
X0578097Y0020917D02*
X0579097Y0019917D01*
X0578838Y0019951D01*
X0578597Y0020051D01*
X0578390Y0020210D01*
X0578231Y0020417D01*
X0578131Y0020659D01*
X0578097Y0020917D01*
X0578103Y0020870D02*
X0578144Y0020870D01*
X0578266Y0020372D02*
X0578643Y0020372D01*
X0576050Y0087043D02*
X0576050Y0107043D01*
X0576050Y0088043D01*
X0576050Y0107043D01*
X0576050Y0087043D01*
X0578097Y0104917D02*
X0578097Y0123917D01*
X0578097Y0104917D01*
X0578097Y0124917D01*
X0578097Y0104917D01*
X0533885Y0103224D02*
X0533885Y0122224D01*
X0533885Y0103224D01*
X0533885Y0123224D01*
X0533885Y0103224D01*
X0530656Y0107634D02*
X0530656Y0088634D01*
X0530656Y0107634D01*
X0530656Y0087634D01*
X0530656Y0107634D01*
X0489672Y0102634D02*
X0489672Y0121634D01*
X0489672Y0102634D01*
X0489672Y0122634D01*
X0489672Y0102634D01*
X0486640Y0107634D02*
X0486640Y0088634D01*
X0486640Y0107634D01*
X0486640Y0087634D01*
X0486640Y0107634D01*
X0445656Y0102634D02*
X0445656Y0121634D01*
X0445656Y0102634D01*
X0445656Y0122634D01*
X0445656Y0102634D01*
X0441837Y0107634D02*
X0441837Y0088634D01*
X0441837Y0107634D01*
X0441837Y0087634D01*
X0441837Y0107634D01*
X0400656Y0102634D02*
X0400656Y0121634D01*
X0400656Y0102634D01*
X0400656Y0122634D01*
X0400656Y0102634D01*
X0396837Y0107634D02*
X0396837Y0088634D01*
X0396837Y0107634D01*
X0396837Y0087634D01*
X0396837Y0107634D01*
X0355656Y0102634D02*
X0355656Y0121634D01*
X0355656Y0102634D01*
X0355656Y0122634D01*
X0355656Y0102634D01*
X0352428Y0107634D02*
X0352428Y0088634D01*
X0352428Y0107634D01*
X0352428Y0087634D01*
X0352428Y0107634D01*
X0307507Y0102240D02*
X0307507Y0121240D01*
X0307507Y0102240D01*
X0307507Y0122240D01*
X0307507Y0102240D01*
X0305066Y0104524D02*
X0305066Y0085524D01*
X0305066Y0104524D01*
X0305066Y0084524D01*
X0305066Y0104524D01*
X0256168Y0111374D02*
X0256168Y0130374D01*
X0256168Y0111374D01*
X0256168Y0131374D01*
X0256168Y0111374D01*
X0305066Y0188524D02*
X0304066Y0189524D01*
X0304324Y0189490D01*
X0304566Y0189390D01*
X0304773Y0189231D01*
X0304932Y0189024D01*
X0305032Y0188782D01*
X0305066Y0188524D01*
X0304996Y0188869D02*
X0304721Y0188869D01*
X0304595Y0189367D02*
X0304222Y0189367D01*
X0271995Y0200735D02*
X0252995Y0200768D01*
X0270995Y0200737D01*
X0271995Y0200735D01*
X0251995Y0200770D01*
X0271995Y0200735D01*
X0351428Y0192634D02*
X0352428Y0191634D01*
X0352394Y0191893D01*
X0352294Y0192134D01*
X0352135Y0192341D01*
X0351928Y0192500D01*
X0351687Y0192600D01*
X0351428Y0192634D01*
X0351703Y0192358D02*
X0352112Y0192358D01*
X0352202Y0191860D02*
X0352398Y0191860D01*
X0355995Y0200588D02*
X0356996Y0201587D01*
X0356962Y0201328D01*
X0356862Y0201087D01*
X0356702Y0200880D01*
X0356495Y0200721D01*
X0356254Y0200622D01*
X0355995Y0200588D01*
X0356240Y0200833D02*
X0356641Y0200833D01*
X0356740Y0201331D02*
X0356962Y0201331D01*
X0367455Y0214896D02*
X0367247Y0215054D01*
X0367088Y0215260D01*
X0366987Y0215501D01*
X0366952Y0215760D01*
X0367955Y0214763D01*
X0367696Y0214797D01*
X0367455Y0214896D01*
X0367737Y0214791D02*
X0367927Y0214791D01*
X0367425Y0215290D02*
X0367075Y0215290D01*
X0395837Y0192634D02*
X0396837Y0191634D01*
X0396803Y0191893D01*
X0396703Y0192134D01*
X0396544Y0192341D01*
X0396337Y0192500D01*
X0396096Y0192600D01*
X0395837Y0192634D01*
X0396113Y0192358D02*
X0396522Y0192358D01*
X0396611Y0191860D02*
X0396808Y0191860D01*
X0412681Y0212257D02*
X0412522Y0212465D01*
X0412423Y0212706D01*
X0412388Y0212965D01*
X0413388Y0211965D01*
X0413130Y0211999D01*
X0412888Y0212099D01*
X0412681Y0212257D01*
X0412650Y0212299D02*
X0413054Y0212299D01*
X0412556Y0212797D02*
X0412410Y0212797D01*
X0440837Y0192634D02*
X0441837Y0191634D01*
X0441803Y0191893D01*
X0441703Y0192134D01*
X0441544Y0192341D01*
X0441337Y0192500D01*
X0441096Y0192600D01*
X0440837Y0192634D01*
X0441113Y0192358D02*
X0441522Y0192358D01*
X0441611Y0191860D02*
X0441808Y0191860D01*
X0458662Y0210962D02*
X0458501Y0211167D01*
X0458398Y0211407D01*
X0458360Y0211665D01*
X0459373Y0210678D01*
X0459113Y0210708D01*
X0458871Y0210805D01*
X0458662Y0210962D01*
X0458877Y0210803D02*
X0459244Y0210803D01*
X0458733Y0211302D02*
X0458443Y0211302D01*
X0485640Y0192634D02*
X0486640Y0191634D01*
X0486606Y0191893D01*
X0486506Y0192134D01*
X0486348Y0192341D01*
X0486140Y0192500D01*
X0485899Y0192600D01*
X0485640Y0192634D01*
X0485916Y0192358D02*
X0486325Y0192358D01*
X0486415Y0191860D02*
X0486611Y0191860D01*
X0503705Y0212927D02*
X0503546Y0213134D01*
X0503446Y0213375D01*
X0503412Y0213634D01*
X0504412Y0212634D01*
X0504153Y0212668D01*
X0503912Y0212768D01*
X0503705Y0212927D01*
X0503874Y0212797D02*
X0504249Y0212797D01*
X0503750Y0213296D02*
X0503479Y0213296D01*
X0529656Y0192634D02*
X0530656Y0191634D01*
X0530622Y0191893D01*
X0530522Y0192134D01*
X0530363Y0192341D01*
X0530156Y0192500D01*
X0529915Y0192600D01*
X0529656Y0192634D01*
X0529932Y0192358D02*
X0530341Y0192358D01*
X0530430Y0191860D02*
X0530626Y0191860D01*
X0548705Y0207927D02*
X0548546Y0208134D01*
X0548446Y0208375D01*
X0548412Y0208634D01*
X0549412Y0207634D01*
X0549153Y0207668D01*
X0548912Y0207768D01*
X0548705Y0207927D01*
X0548854Y0207812D02*
X0549234Y0207812D01*
X0548735Y0208311D02*
X0548473Y0208311D01*
X0575050Y0192043D02*
X0576050Y0191043D01*
X0576016Y0191302D01*
X0575916Y0191543D01*
X0575757Y0191750D01*
X0575550Y0191909D01*
X0575309Y0192009D01*
X0575050Y0192043D01*
X0575233Y0191860D02*
X0575614Y0191860D01*
X0575732Y0191361D02*
X0575991Y0191361D01*
X0593705Y0208124D02*
X0593546Y0208331D01*
X0593446Y0208572D01*
X0593412Y0208831D01*
X0594412Y0207831D01*
X0594153Y0207865D01*
X0593912Y0207965D01*
X0593705Y0208124D01*
X0593561Y0208311D02*
X0593932Y0208311D01*
X0593434Y0208809D02*
X0593415Y0208809D01*
X0622412Y0192634D02*
X0623412Y0191634D01*
X0623378Y0191893D01*
X0623278Y0192134D01*
X0623119Y0192341D01*
X0622912Y0192500D01*
X0622671Y0192600D01*
X0622412Y0192634D01*
X0622688Y0192358D02*
X0623097Y0192358D01*
X0623186Y0191860D02*
X0623382Y0191860D01*
X0623412Y0107634D02*
X0623412Y0088634D01*
X0623412Y0107634D01*
X0623412Y0087634D01*
X0623412Y0107634D01*
X0358003Y0246441D02*
X0357844Y0246234D01*
X0357636Y0246075D01*
X0357395Y0245975D01*
X0357136Y0245941D01*
X0358136Y0246941D01*
X0358102Y0246682D01*
X0358003Y0246441D01*
X0358104Y0246696D02*
X0357892Y0246696D01*
X0357796Y0246197D02*
X0357393Y0246197D01*
X0273136Y0245941D02*
X0254136Y0245941D01*
X0273136Y0245941D01*
X0253136Y0245941D01*
X0273136Y0245941D01*
X0366659Y0299759D02*
X0366592Y0318759D01*
X0366655Y0300759D01*
X0366659Y0299759D01*
X0366589Y0319759D01*
X0366659Y0299759D01*
X0366656Y0300535D02*
X0366656Y0300535D01*
X0366654Y0301034D02*
X0366654Y0301034D01*
X0366651Y0302031D02*
X0366651Y0302031D01*
X0366647Y0303028D02*
X0366647Y0303028D01*
X0366644Y0304025D02*
X0366644Y0304025D01*
X0366642Y0304523D02*
X0366642Y0304523D01*
X0366639Y0305520D02*
X0366639Y0305520D01*
X0366635Y0306517D02*
X0366635Y0306517D01*
X0366632Y0307514D02*
X0366632Y0307514D01*
X0366632Y0307514D01*
X0366626Y0309010D02*
X0366626Y0309010D01*
X0366623Y0310007D02*
X0366623Y0310007D01*
X0366619Y0311004D02*
X0366619Y0311004D01*
X0366619Y0311004D01*
X0366614Y0312499D02*
X0366614Y0312499D01*
X0366611Y0313497D02*
X0366611Y0313497D01*
X0366607Y0314494D02*
X0366607Y0314494D01*
X0366607Y0314494D01*
X0366599Y0316986D02*
X0366599Y0316986D01*
X0366599Y0316986D01*
X0366595Y0317983D02*
X0366595Y0317983D01*
X0366595Y0317983D01*
X0366592Y0318980D02*
X0366592Y0318980D01*
X0366590Y0319479D02*
X0366590Y0319479D01*
X0412388Y0316965D02*
X0412388Y0296965D01*
X0412388Y0315965D01*
X0412388Y0296965D01*
X0412388Y0316965D01*
X0457090Y0315658D02*
X0457334Y0295659D01*
X0457102Y0314658D01*
X0457322Y0296659D01*
X0457334Y0295659D01*
X0457090Y0315658D01*
X0457092Y0315491D02*
X0457092Y0315491D01*
X0457098Y0314992D02*
X0457098Y0314992D01*
X0503412Y0316634D02*
X0503412Y0297634D01*
X0503412Y0317634D01*
X0503412Y0297634D01*
X0503412Y0316634D01*
X0548412Y0312634D02*
X0548412Y0292634D01*
X0548412Y0311634D01*
X0548412Y0292634D01*
X0548412Y0312634D01*
X0593412Y0312831D02*
X0593412Y0292831D01*
X0593412Y0311831D01*
X0593412Y0292831D01*
X0593412Y0312831D01*
M02*
