%
M48
M72
T01C0.02362
T02C0.02992
T03C0.03150
T04C0.12835
T05C0.37008
%
T01
X29386Y40961
X17496Y59228
X30488Y76236
X20488Y80409
X39425Y61276
X68835Y50094
X81827Y67102
X71669Y70961
X90764Y52142
X80724Y31827
X116984Y50488
X129976Y67496
X138402Y64661
X138913Y52535
X161984Y50488
X174976Y67496
X186039Y67220
X183913Y52535
X206984Y50488
X219976Y67496
X228362Y67024
X228913Y52535
X251000Y50488
X263992Y67496
X272929Y52535
X277575Y43205
X262890Y32220
X295213Y51079
X308205Y68087
X317142Y53126
X322850Y42614
X307102Y32811
X339425Y52772
X352417Y69780
X342732Y72732
X361354Y54819
X351315Y34504
X353480Y142260
X344543Y157220
X343717Y166236
X354583Y177535
X371276Y171157
X366472Y159268
X322850Y166630
X319110Y158677
X306118Y141669
X297181Y156630
X276984Y167024
X273717Y159268
X260724Y142260
X251787Y157220
X233705Y168823
X229701Y159268
X216709Y142260
X207772Y157220
X188795Y169386
X184898Y159268
X171906Y142260
X162969Y157220
X144898Y170370
X139898Y159268
X126906Y142260
X117969Y157220
X95488Y159268
X97457Y174504
X83598Y177535
X73559Y157220
X82496Y142260
X48126Y156157
X50409Y164071
X36236Y174425
X26197Y154110
X35134Y139150
X76095Y209522
X59110Y222544
X74086Y231455
X82299Y233953
X94383Y221380
X128168Y247646
X141101Y264699
X150090Y249770
X140121Y229420
X173717Y244819
X185606Y226551
X198638Y232969
X195646Y246866
X186709Y261827
X175016Y261906
X219296Y243629
X232079Y260794
X241198Y245944
X243323Y234346
X231408Y225508
X264740Y245488
X277732Y262496
X289189Y265449
X286669Y247535
X276630Y227220
X305724Y211512
X321630Y222220
X309740Y240488
X322732Y257496
X331669Y242535
X354740Y240685
X367732Y257693
X359661Y266827
X376669Y242732
X378362Y230016
X366630Y222417
X307220Y176945
X261827Y177535
X217811Y177535
X173008Y177535
X128008Y177535
X77220Y254819
X60213Y267811
X75173Y276748
X91551Y277457
X95488Y266709
X111039Y301472
X263008Y269976
X218874Y32220
X173874Y32220
X128874Y32220
T02
X127850Y12378
X172850Y12378
X217850Y12378
X261866Y12378
X306079Y12969
X350291Y14661
X355606Y197378
X365606Y202575
X320606Y202378
X308244Y196787
X275606Y207378
X262850Y197378
X230627Y205654
X218835Y197378
X184583Y206709
X174031Y197378
X139167Y209574
X129031Y197378
X114224Y220322
X84622Y197378
X37260Y194268
X115331Y265685
X28362Y21118
X79701Y11984
T03
X80331Y293598
X78362Y306787
X78953Y315843
T04
X17102Y14346
X16315Y313244
X376669Y312457
X377457Y13559
T05
X46472Y304622
M30
