G75*
%MOIN*%
%OFA0B0*%
%FSLAX25Y25*%
%IPPOS*%
%LPD*%
%AMOC8*
5,1,8,0,0,1.08239X$1,22.5*
%
%ADD10C,0.00200*%
%ADD11C,0.00600*%
%ADD12C,0.00500*%
D10*
X0083580Y0289958D02*
X0083580Y0292160D01*
X0084681Y0292160D01*
X0085048Y0291793D01*
X0085048Y0291059D01*
X0084681Y0290692D01*
X0083580Y0290692D01*
X0085790Y0289958D02*
X0086524Y0290692D01*
X0087258Y0289958D01*
X0087258Y0292160D01*
X0088000Y0292160D02*
X0089101Y0292160D01*
X0089468Y0291793D01*
X0089468Y0291059D01*
X0089101Y0290692D01*
X0088000Y0290692D01*
X0088000Y0289958D02*
X0088000Y0292160D01*
X0088734Y0290692D02*
X0089468Y0289958D01*
X0092420Y0290325D02*
X0092420Y0291793D01*
X0092787Y0292160D01*
X0093521Y0292160D01*
X0093888Y0291793D01*
X0093888Y0290325D01*
X0093521Y0289958D01*
X0092787Y0289958D01*
X0092420Y0290325D01*
X0094630Y0290325D02*
X0094630Y0292160D01*
X0096098Y0292160D02*
X0096098Y0290325D01*
X0095731Y0289958D01*
X0094997Y0289958D01*
X0094630Y0290325D01*
X0096840Y0292160D02*
X0098308Y0292160D01*
X0097574Y0292160D02*
X0097574Y0289958D01*
X0085790Y0289958D02*
X0085790Y0292160D01*
X0084537Y0299998D02*
X0084537Y0302200D01*
X0083803Y0302200D02*
X0085271Y0302200D01*
X0083061Y0302200D02*
X0083061Y0300365D01*
X0082694Y0299998D01*
X0081960Y0299998D01*
X0081593Y0300365D01*
X0081593Y0302200D01*
X0080851Y0301833D02*
X0080484Y0302200D01*
X0079750Y0302200D01*
X0079383Y0301833D01*
X0079383Y0300365D01*
X0079750Y0299998D01*
X0080484Y0299998D01*
X0080851Y0300365D01*
X0080851Y0301833D01*
X0076431Y0301833D02*
X0076431Y0300365D01*
X0076064Y0299998D01*
X0074963Y0299998D01*
X0074963Y0302200D01*
X0076064Y0302200D01*
X0076431Y0301833D01*
X0074221Y0301833D02*
X0074221Y0301099D01*
X0073854Y0300732D01*
X0072754Y0300732D01*
X0072754Y0299998D02*
X0072754Y0302200D01*
X0073854Y0302200D01*
X0074221Y0301833D01*
D11*
X0048796Y0263289D02*
X0046328Y0263289D01*
X0046328Y0260820D01*
X0048796Y0258351D02*
X0043859Y0258351D01*
X0042624Y0259586D01*
X0042624Y0262054D01*
X0043859Y0263289D01*
X0048796Y0263289D02*
X0050031Y0262054D01*
X0050031Y0259586D01*
X0048796Y0258351D01*
X0046328Y0255923D02*
X0046328Y0250985D01*
X0042624Y0254688D01*
X0050031Y0254688D01*
X0017826Y0287883D02*
X0015690Y0290018D01*
X0016758Y0290018D02*
X0013555Y0290018D01*
X0013555Y0287883D02*
X0013555Y0294288D01*
X0016758Y0294288D01*
X0017826Y0293221D01*
X0017826Y0291085D01*
X0016758Y0290018D01*
X0011393Y0287883D02*
X0009258Y0287883D01*
X0010326Y0287883D02*
X0010326Y0294288D01*
X0011393Y0294288D02*
X0009258Y0294288D01*
X0042748Y0218051D02*
X0041511Y0216818D01*
X0041507Y0214350D01*
X0042739Y0213113D01*
X0047677Y0213104D01*
X0048913Y0214337D01*
X0048918Y0216805D01*
X0047685Y0218042D01*
X0045217Y0218046D01*
X0045212Y0215577D01*
X0043969Y0210682D02*
X0042735Y0210684D01*
X0041498Y0209452D01*
X0041494Y0206983D01*
X0042726Y0205747D01*
X0045199Y0208211D02*
X0045202Y0209446D01*
X0046438Y0210678D01*
X0047673Y0210676D01*
X0048905Y0209439D01*
X0048900Y0206970D01*
X0047664Y0205738D01*
X0045202Y0209446D02*
X0043969Y0210682D01*
X0124235Y0276056D02*
X0125473Y0274826D01*
X0127942Y0274835D01*
X0129172Y0276074D01*
X0129168Y0277308D01*
X0127929Y0278538D01*
X0126695Y0278534D01*
X0127929Y0278538D02*
X0129159Y0279777D01*
X0129155Y0281011D01*
X0127916Y0282241D01*
X0125448Y0282233D01*
X0124218Y0280994D01*
X0131579Y0282254D02*
X0131605Y0274848D01*
X0131592Y0278551D02*
X0134061Y0278559D01*
X0136517Y0282271D02*
X0131579Y0282254D01*
X0169883Y0275712D02*
X0174820Y0275712D01*
X0177249Y0275712D02*
X0179718Y0275712D01*
X0177249Y0279415D02*
X0182187Y0279415D01*
X0177249Y0279415D02*
X0177249Y0272009D01*
X0173586Y0272009D02*
X0173586Y0279415D01*
X0169883Y0275712D01*
X0215054Y0276941D02*
X0216274Y0278191D01*
X0218742Y0278221D01*
X0219992Y0277001D01*
X0220007Y0275767D01*
X0218787Y0274518D01*
X0220037Y0273299D01*
X0220052Y0272064D01*
X0218833Y0270815D01*
X0216364Y0270785D01*
X0215115Y0272004D01*
X0217553Y0274503D02*
X0218787Y0274518D01*
X0222420Y0277031D02*
X0222480Y0272094D01*
X0223730Y0270875D01*
X0226198Y0270905D01*
X0227418Y0272154D01*
X0227357Y0277091D02*
X0226108Y0278311D01*
X0223639Y0278281D01*
X0222420Y0277031D01*
X0260906Y0276381D02*
X0265844Y0276381D01*
X0264609Y0272678D02*
X0264609Y0280084D01*
X0260906Y0276381D01*
X0268273Y0272678D02*
X0271976Y0272678D01*
X0273210Y0273912D01*
X0273210Y0278850D01*
X0271976Y0280084D01*
X0268273Y0280084D01*
X0268273Y0272678D01*
X0305906Y0273850D02*
X0307141Y0275084D01*
X0309609Y0275084D01*
X0310844Y0273850D01*
X0310844Y0272616D01*
X0309609Y0271381D01*
X0310844Y0270147D01*
X0310844Y0268912D01*
X0309609Y0267678D01*
X0307141Y0267678D01*
X0305906Y0268912D01*
X0308375Y0271381D02*
X0309609Y0271381D01*
X0313273Y0267678D02*
X0316976Y0267678D01*
X0318210Y0268912D01*
X0318210Y0273850D01*
X0316976Y0275084D01*
X0313273Y0275084D01*
X0313273Y0267678D01*
X0350906Y0271578D02*
X0355844Y0271578D01*
X0358273Y0274047D02*
X0358273Y0269109D01*
X0359507Y0267875D01*
X0361976Y0267875D01*
X0363210Y0269109D01*
X0363210Y0274047D02*
X0361976Y0275281D01*
X0359507Y0275281D01*
X0358273Y0274047D01*
X0354609Y0275281D02*
X0350906Y0271578D01*
X0354609Y0267875D02*
X0354609Y0275281D01*
X0359877Y0132084D02*
X0356174Y0128381D01*
X0361111Y0128381D01*
X0363540Y0128381D02*
X0367243Y0128381D01*
X0368478Y0127147D01*
X0368478Y0125912D01*
X0367243Y0124678D01*
X0363540Y0124678D01*
X0363540Y0132084D01*
X0367243Y0132084D01*
X0368478Y0130850D01*
X0368478Y0129616D01*
X0367243Y0128381D01*
X0359877Y0124678D02*
X0359877Y0132084D01*
X0321115Y0129025D02*
X0321115Y0124087D01*
X0316178Y0124087D02*
X0316178Y0129025D01*
X0318647Y0131494D01*
X0321115Y0129025D01*
X0321115Y0127791D02*
X0316178Y0127791D01*
X0313749Y0127791D02*
X0308812Y0127791D01*
X0312515Y0131494D01*
X0312515Y0124087D01*
X0275722Y0125912D02*
X0274487Y0124678D01*
X0270784Y0124678D01*
X0270784Y0132084D01*
X0274487Y0132084D01*
X0275722Y0130850D01*
X0275722Y0129616D01*
X0274487Y0128381D01*
X0270784Y0128381D01*
X0268355Y0127147D02*
X0268355Y0125912D01*
X0267121Y0124678D01*
X0264652Y0124678D01*
X0263418Y0125912D01*
X0265887Y0128381D02*
X0267121Y0128381D01*
X0268355Y0127147D01*
X0267121Y0128381D02*
X0268355Y0129616D01*
X0268355Y0130850D01*
X0267121Y0132084D01*
X0264652Y0132084D01*
X0263418Y0130850D01*
X0274487Y0128381D02*
X0275722Y0127147D01*
X0275722Y0125912D01*
X0231706Y0125912D02*
X0230472Y0124678D01*
X0226768Y0124678D01*
X0226768Y0132084D01*
X0230472Y0132084D01*
X0231706Y0130850D01*
X0231706Y0129616D01*
X0230472Y0128381D01*
X0226768Y0128381D01*
X0224340Y0129616D02*
X0224340Y0130850D01*
X0223105Y0132084D01*
X0220636Y0132084D01*
X0219402Y0130850D01*
X0224340Y0129616D02*
X0219402Y0124678D01*
X0224340Y0124678D01*
X0230472Y0128381D02*
X0231706Y0127147D01*
X0231706Y0125912D01*
X0186903Y0125912D02*
X0185668Y0124678D01*
X0183200Y0124678D01*
X0181965Y0125912D01*
X0181965Y0130850D01*
X0183200Y0132084D01*
X0185668Y0132084D01*
X0186903Y0130850D01*
X0179536Y0130850D02*
X0178302Y0132084D01*
X0175833Y0132084D01*
X0174599Y0130850D01*
X0179536Y0130850D02*
X0179536Y0129616D01*
X0174599Y0124678D01*
X0179536Y0124678D01*
X0141903Y0125912D02*
X0141903Y0130850D01*
X0140668Y0132084D01*
X0136965Y0132084D01*
X0136965Y0124678D01*
X0140668Y0124678D01*
X0141903Y0125912D01*
X0134536Y0124678D02*
X0129599Y0124678D01*
X0134536Y0129616D01*
X0134536Y0130850D01*
X0133302Y0132084D01*
X0130833Y0132084D01*
X0129599Y0130850D01*
X0097493Y0132084D02*
X0092556Y0132084D01*
X0092556Y0124678D01*
X0090127Y0124678D02*
X0085189Y0124678D01*
X0090127Y0129616D01*
X0090127Y0130850D01*
X0088893Y0132084D01*
X0086424Y0132084D01*
X0085189Y0130850D01*
X0092556Y0128381D02*
X0095025Y0128381D01*
X0050131Y0127740D02*
X0048897Y0128974D01*
X0046428Y0128974D01*
X0045194Y0127740D01*
X0045194Y0122802D01*
X0046428Y0121568D01*
X0048897Y0121568D01*
X0050131Y0122802D01*
X0050131Y0125271D01*
X0047662Y0125271D01*
X0042765Y0126505D02*
X0042765Y0127740D01*
X0041530Y0128974D01*
X0039062Y0128974D01*
X0037827Y0127740D01*
X0042765Y0126505D02*
X0037827Y0121568D01*
X0042765Y0121568D01*
X0024732Y0093824D02*
X0022263Y0093824D01*
X0021028Y0092590D01*
X0021028Y0087652D01*
X0022263Y0086418D01*
X0024732Y0086418D01*
X0025966Y0087652D01*
X0025966Y0090121D01*
X0023497Y0090121D01*
X0025966Y0092590D02*
X0024732Y0093824D01*
X0016131Y0093824D02*
X0016131Y0086418D01*
X0013662Y0086418D02*
X0018600Y0086418D01*
X0013662Y0091356D02*
X0016131Y0093824D01*
X0065001Y0082222D02*
X0067470Y0084691D01*
X0067470Y0077284D01*
X0069938Y0077284D02*
X0065001Y0077284D01*
X0072367Y0077284D02*
X0072367Y0084691D01*
X0077305Y0084691D01*
X0074836Y0080987D02*
X0072367Y0080987D01*
X0113150Y0082616D02*
X0115619Y0085084D01*
X0115619Y0077678D01*
X0113150Y0077678D02*
X0118088Y0077678D01*
X0120517Y0077678D02*
X0124220Y0077678D01*
X0125454Y0078912D01*
X0125454Y0083850D01*
X0124220Y0085084D01*
X0120517Y0085084D01*
X0120517Y0077678D01*
X0158150Y0077678D02*
X0163088Y0077678D01*
X0160619Y0077678D02*
X0160619Y0085084D01*
X0158150Y0082616D01*
X0165517Y0083850D02*
X0165517Y0078912D01*
X0166751Y0077678D01*
X0169220Y0077678D01*
X0170454Y0078912D01*
X0170454Y0083850D02*
X0169220Y0085084D01*
X0166751Y0085084D01*
X0165517Y0083850D01*
X0203150Y0082616D02*
X0205619Y0085084D01*
X0205619Y0077678D01*
X0203150Y0077678D02*
X0208088Y0077678D01*
X0210517Y0077678D02*
X0214220Y0077678D01*
X0215454Y0078912D01*
X0215454Y0080147D01*
X0214220Y0081381D01*
X0210517Y0081381D01*
X0214220Y0081381D02*
X0215454Y0082616D01*
X0215454Y0083850D01*
X0214220Y0085084D01*
X0210517Y0085084D01*
X0210517Y0077678D01*
X0247166Y0077678D02*
X0252104Y0077678D01*
X0254532Y0077678D02*
X0254532Y0082616D01*
X0257001Y0085084D01*
X0259470Y0082616D01*
X0259470Y0077678D01*
X0259470Y0081381D02*
X0254532Y0081381D01*
X0249635Y0085084D02*
X0249635Y0077678D01*
X0247166Y0082616D02*
X0249635Y0085084D01*
X0291379Y0084440D02*
X0292613Y0085675D01*
X0295082Y0085675D01*
X0296316Y0084440D01*
X0296316Y0083206D01*
X0291379Y0078269D01*
X0296316Y0078269D01*
X0298745Y0078269D02*
X0298745Y0083206D01*
X0301214Y0085675D01*
X0303683Y0083206D01*
X0303683Y0078269D01*
X0303683Y0081972D02*
X0298745Y0081972D01*
X0335591Y0081196D02*
X0336826Y0079961D01*
X0339295Y0079961D01*
X0340529Y0081196D01*
X0340529Y0082430D01*
X0339295Y0083665D01*
X0338060Y0083665D01*
X0339295Y0083665D02*
X0340529Y0084899D01*
X0340529Y0086133D01*
X0339295Y0087368D01*
X0336826Y0087368D01*
X0335591Y0086133D01*
X0342958Y0084899D02*
X0342958Y0079961D01*
X0342958Y0083665D02*
X0347895Y0083665D01*
X0347895Y0084899D02*
X0347895Y0079961D01*
X0347895Y0084899D02*
X0345426Y0087368D01*
X0342958Y0084899D01*
D12*
X0008362Y0131118D02*
X0008362Y0026118D01*
X0045862Y0026118D01*
X0050862Y0043618D01*
X0050862Y0061118D01*
X0048362Y0073618D01*
X0045862Y0083618D01*
X0038362Y0098618D01*
X0033362Y0106118D01*
X0025862Y0116118D01*
X0018362Y0123618D01*
X0008362Y0131118D01*
X0019760Y0131768D02*
X0017260Y0141768D01*
X0014760Y0154268D01*
X0014760Y0171768D01*
X0019760Y0189268D01*
X0057260Y0189268D01*
X0057260Y0084268D01*
X0047260Y0091768D01*
X0039760Y0099268D01*
X0032260Y0109268D01*
X0027260Y0116768D01*
X0019760Y0131768D01*
X0059701Y0121984D02*
X0059701Y0016984D01*
X0097201Y0016984D01*
X0102201Y0034484D01*
X0102201Y0051984D01*
X0099701Y0064484D01*
X0097201Y0074484D01*
X0089701Y0089484D01*
X0084701Y0096984D01*
X0077201Y0106984D01*
X0069701Y0114484D01*
X0059701Y0121984D01*
X0067122Y0134878D02*
X0074622Y0119878D01*
X0079622Y0112378D01*
X0087122Y0102378D01*
X0094622Y0094878D01*
X0104622Y0087378D01*
X0104622Y0192378D01*
X0067122Y0192378D01*
X0062122Y0174878D01*
X0062122Y0157378D01*
X0064622Y0144878D01*
X0067122Y0134878D01*
X0107850Y0122378D02*
X0107850Y0017378D01*
X0145350Y0017378D01*
X0150350Y0034878D01*
X0150350Y0052378D01*
X0147850Y0064878D01*
X0145350Y0074878D01*
X0137850Y0089878D01*
X0132850Y0097378D01*
X0125350Y0107378D01*
X0117850Y0114878D01*
X0107850Y0122378D01*
X0119031Y0119878D02*
X0111531Y0134878D01*
X0109031Y0144878D01*
X0106531Y0157378D01*
X0106531Y0174878D01*
X0111531Y0192378D01*
X0149031Y0192378D01*
X0149031Y0087378D01*
X0139031Y0094878D01*
X0131531Y0102378D01*
X0124031Y0112378D01*
X0119031Y0119878D01*
X0152850Y0122378D02*
X0152850Y0017378D01*
X0190350Y0017378D01*
X0195350Y0034878D01*
X0195350Y0052378D01*
X0192850Y0064878D01*
X0190350Y0074878D01*
X0182850Y0089878D01*
X0177850Y0097378D01*
X0170350Y0107378D01*
X0162850Y0114878D01*
X0152850Y0122378D01*
X0164031Y0119878D02*
X0156531Y0134878D01*
X0154031Y0144878D01*
X0151531Y0157378D01*
X0151531Y0174878D01*
X0156531Y0192378D01*
X0194031Y0192378D01*
X0194031Y0087378D01*
X0184031Y0094878D01*
X0176531Y0102378D01*
X0169031Y0112378D01*
X0164031Y0119878D01*
X0197850Y0122378D02*
X0197850Y0017378D01*
X0235350Y0017378D01*
X0240350Y0034878D01*
X0240350Y0052378D01*
X0237850Y0064878D01*
X0235350Y0074878D01*
X0227850Y0089878D01*
X0222850Y0097378D01*
X0215350Y0107378D01*
X0207850Y0114878D01*
X0197850Y0122378D01*
X0208835Y0119878D02*
X0201335Y0134878D01*
X0198835Y0144878D01*
X0196335Y0157378D01*
X0196335Y0174878D01*
X0201335Y0192378D01*
X0238835Y0192378D01*
X0238835Y0087378D01*
X0228835Y0094878D01*
X0221335Y0102378D01*
X0213835Y0112378D01*
X0208835Y0119878D01*
X0241866Y0122378D02*
X0241866Y0017378D01*
X0279366Y0017378D01*
X0284366Y0034878D01*
X0284366Y0052378D01*
X0281866Y0064878D01*
X0279366Y0074878D01*
X0271866Y0089878D01*
X0266866Y0097378D01*
X0259366Y0107378D01*
X0251866Y0114878D01*
X0241866Y0122378D01*
X0252850Y0119878D02*
X0245350Y0134878D01*
X0242850Y0144878D01*
X0240350Y0157378D01*
X0240350Y0174878D01*
X0245350Y0192378D01*
X0282850Y0192378D01*
X0282850Y0087378D01*
X0272850Y0094878D01*
X0265350Y0102378D01*
X0257850Y0112378D01*
X0252850Y0119878D01*
X0286079Y0122969D02*
X0286079Y0017969D01*
X0323579Y0017969D01*
X0328579Y0035469D01*
X0328579Y0052969D01*
X0326079Y0065469D01*
X0323579Y0075469D01*
X0316079Y0090469D01*
X0311079Y0097969D01*
X0303579Y0107969D01*
X0296079Y0115469D01*
X0286079Y0122969D01*
X0290744Y0134287D02*
X0298244Y0119287D01*
X0303244Y0111787D01*
X0310744Y0101787D01*
X0318244Y0094287D01*
X0328244Y0086787D01*
X0328244Y0191787D01*
X0290744Y0191787D01*
X0285744Y0174287D01*
X0285744Y0156787D01*
X0288244Y0144287D01*
X0290744Y0134287D01*
X0330291Y0124661D02*
X0330291Y0019661D01*
X0367791Y0019661D01*
X0372791Y0037161D01*
X0372791Y0054661D01*
X0370291Y0067161D01*
X0367791Y0077161D01*
X0360291Y0092161D01*
X0355291Y0099661D01*
X0347791Y0109661D01*
X0340291Y0117161D01*
X0330291Y0124661D01*
X0338106Y0134878D02*
X0335606Y0144878D01*
X0333106Y0157378D01*
X0333106Y0174878D01*
X0338106Y0192378D01*
X0375606Y0192378D01*
X0375606Y0087378D01*
X0365606Y0094878D01*
X0358106Y0102378D01*
X0350606Y0112378D01*
X0345606Y0119878D01*
X0338106Y0134878D01*
X0338106Y0207378D02*
X0300606Y0207378D01*
X0300606Y0312378D01*
X0310606Y0304878D01*
X0318106Y0297378D01*
X0325606Y0287378D01*
X0330606Y0279878D01*
X0338106Y0264878D01*
X0340606Y0254878D01*
X0343106Y0242378D01*
X0343106Y0224878D01*
X0338106Y0207378D01*
X0345606Y0207575D02*
X0345606Y0312575D01*
X0355606Y0305075D01*
X0363106Y0297575D01*
X0370606Y0287575D01*
X0375606Y0280075D01*
X0383106Y0265075D01*
X0385606Y0255075D01*
X0388106Y0242575D01*
X0388106Y0225075D01*
X0383106Y0207575D01*
X0345606Y0207575D01*
X0298106Y0229878D02*
X0298106Y0247378D01*
X0295606Y0259878D01*
X0293106Y0269878D01*
X0285606Y0284878D01*
X0280606Y0292378D01*
X0273106Y0302378D01*
X0265606Y0309878D01*
X0255606Y0317378D01*
X0255606Y0212378D01*
X0293106Y0212378D01*
X0298106Y0229878D01*
X0252850Y0228427D02*
X0248064Y0210868D01*
X0210567Y0210409D01*
X0209284Y0315402D01*
X0219375Y0308024D01*
X0226966Y0300617D01*
X0234588Y0290709D01*
X0239679Y0283271D01*
X0247362Y0268363D01*
X0249984Y0258395D01*
X0252636Y0245926D01*
X0252850Y0228427D01*
X0207083Y0229209D02*
X0202083Y0211709D01*
X0164583Y0211709D01*
X0164583Y0316709D01*
X0174583Y0309209D01*
X0182083Y0301709D01*
X0189583Y0291709D01*
X0194583Y0284209D01*
X0202083Y0269209D01*
X0204583Y0259209D01*
X0207083Y0246709D01*
X0207083Y0229209D01*
X0161588Y0232152D02*
X0156649Y0214635D01*
X0119150Y0214504D01*
X0118783Y0319503D01*
X0128809Y0312038D01*
X0136335Y0304564D01*
X0143870Y0294591D01*
X0148896Y0287108D01*
X0156449Y0272134D01*
X0158984Y0262143D01*
X0161527Y0249652D01*
X0161588Y0232152D01*
X0110331Y0245685D02*
X0005331Y0245685D01*
X0012831Y0255685D01*
X0020331Y0263185D01*
X0030331Y0270685D01*
X0037831Y0275685D01*
X0052831Y0283185D01*
X0062831Y0285685D01*
X0075331Y0288185D01*
X0092831Y0288185D01*
X0110331Y0283185D01*
X0110331Y0245685D01*
X0109254Y0237831D02*
X0109189Y0200331D01*
X0004189Y0200514D01*
X0011707Y0210501D01*
X0019220Y0217988D01*
X0029233Y0225470D01*
X0036741Y0230457D01*
X0051755Y0237931D01*
X0061759Y0240414D01*
X0074263Y0242892D01*
X0091763Y0242861D01*
X0109254Y0237831D01*
X0104346Y0302260D02*
X0096472Y0302260D01*
X0096472Y0306591D01*
X0104346Y0306591D01*
X0104346Y0302260D01*
X0104346Y0306591D02*
X0104346Y0307378D01*
X0096472Y0307378D01*
X0096472Y0306591D01*
M02*
