G75*
%MOIN*%
%OFA0B0*%
%FSLAX25Y25*%
%IPPOS*%
%LPD*%
%AMOC8*
5,1,8,0,0,1.08239X$1,22.5*
%
%ADD10C,0.00600*%
%ADD11C,0.00500*%
D10*
X0173161Y0301379D02*
X0177432Y0301379D01*
X0175296Y0301379D02*
X0175296Y0307784D01*
X0177432Y0305649D01*
X0179587Y0302446D02*
X0179587Y0301379D01*
X0180654Y0301379D01*
X0180654Y0302446D01*
X0179587Y0302446D01*
X0182830Y0302446D02*
X0183897Y0301379D01*
X0186032Y0301379D01*
X0187100Y0302446D01*
X0189275Y0303514D02*
X0189275Y0307784D01*
X0187100Y0306717D02*
X0186032Y0307784D01*
X0183897Y0307784D01*
X0182830Y0306717D01*
X0182830Y0305649D01*
X0183897Y0304581D01*
X0182830Y0303514D01*
X0182830Y0302446D01*
X0183897Y0304581D02*
X0184965Y0304581D01*
X0189275Y0303514D02*
X0191410Y0301379D01*
X0193545Y0303514D01*
X0193545Y0307784D01*
X0192471Y0311879D02*
X0192471Y0316149D01*
X0190336Y0316149D02*
X0189268Y0316149D01*
X0190336Y0316149D02*
X0192471Y0314014D01*
X0194646Y0314014D02*
X0194646Y0315081D01*
X0195714Y0316149D01*
X0197849Y0316149D01*
X0198917Y0315081D01*
X0198917Y0312946D01*
X0197849Y0311879D01*
X0195714Y0311879D01*
X0194646Y0314014D02*
X0198917Y0314014D01*
X0201092Y0316149D02*
X0203227Y0311879D01*
X0205362Y0316149D01*
X0208592Y0316149D02*
X0208592Y0311879D01*
X0209659Y0311879D02*
X0207524Y0311879D01*
X0211834Y0311879D02*
X0211834Y0315081D01*
X0212902Y0316149D01*
X0216105Y0316149D01*
X0216105Y0311879D01*
X0218280Y0312946D02*
X0218280Y0318284D01*
X0222550Y0318284D02*
X0222550Y0312946D01*
X0221483Y0311879D01*
X0219347Y0311879D01*
X0218280Y0312946D01*
X0217179Y0305649D02*
X0213976Y0305649D01*
X0212909Y0304581D01*
X0212909Y0301379D01*
X0210733Y0302446D02*
X0210733Y0304581D01*
X0209666Y0305649D01*
X0207531Y0305649D01*
X0206463Y0304581D01*
X0206463Y0303514D01*
X0210733Y0303514D01*
X0210733Y0302446D02*
X0209666Y0301379D01*
X0207531Y0301379D01*
X0204288Y0301379D02*
X0202153Y0301379D01*
X0203220Y0301379D02*
X0203220Y0307784D01*
X0204288Y0307784D01*
X0208592Y0316149D02*
X0209659Y0316149D01*
X0208592Y0318284D02*
X0208592Y0319352D01*
X0217179Y0305649D02*
X0217179Y0301379D01*
X0219354Y0301379D02*
X0222557Y0301379D01*
X0223624Y0302446D01*
X0222557Y0303514D01*
X0219354Y0303514D01*
X0219354Y0304581D02*
X0219354Y0301379D01*
X0219354Y0304581D02*
X0220422Y0305649D01*
X0222557Y0305649D01*
X0225800Y0304581D02*
X0226867Y0303514D01*
X0230070Y0303514D01*
X0230070Y0301379D02*
X0230070Y0307784D01*
X0226867Y0307784D01*
X0225800Y0306717D01*
X0225800Y0304581D01*
X0231171Y0311879D02*
X0231171Y0315081D01*
X0232238Y0316149D01*
X0235441Y0316149D01*
X0235441Y0311879D01*
X0237616Y0312946D02*
X0237616Y0316149D01*
X0237616Y0312946D02*
X0238684Y0311879D01*
X0239751Y0312946D01*
X0240819Y0311879D01*
X0241887Y0312946D01*
X0241887Y0316149D01*
X0244062Y0315081D02*
X0245129Y0316149D01*
X0247265Y0316149D01*
X0248332Y0315081D01*
X0248332Y0312946D01*
X0247265Y0311879D01*
X0245129Y0311879D01*
X0244062Y0312946D01*
X0244062Y0315081D01*
X0250501Y0316149D02*
X0251568Y0316149D01*
X0253703Y0314014D01*
X0253703Y0311879D02*
X0253703Y0316149D01*
X0255879Y0316149D02*
X0256946Y0315081D01*
X0260149Y0315081D01*
X0260149Y0311879D02*
X0256946Y0311879D01*
X0255879Y0312946D01*
X0255879Y0314014D01*
X0256946Y0315081D01*
X0255879Y0316149D02*
X0255879Y0317217D01*
X0256946Y0318284D01*
X0260149Y0318284D01*
X0260149Y0311879D01*
X0259081Y0307784D02*
X0260149Y0306717D01*
X0260149Y0305649D01*
X0259081Y0304581D01*
X0256946Y0304581D01*
X0255879Y0303514D01*
X0255879Y0302446D01*
X0256946Y0301379D01*
X0259081Y0301379D01*
X0260149Y0302446D01*
X0259081Y0307784D02*
X0256946Y0307784D01*
X0255879Y0306717D01*
X0253703Y0305649D02*
X0252636Y0305649D01*
X0252636Y0301379D01*
X0253703Y0301379D02*
X0251568Y0301379D01*
X0249406Y0302446D02*
X0249406Y0304581D01*
X0248339Y0305649D01*
X0245136Y0305649D01*
X0245136Y0307784D02*
X0245136Y0301379D01*
X0248339Y0301379D01*
X0249406Y0302446D01*
X0252636Y0307784D02*
X0252636Y0308852D01*
X0242961Y0304581D02*
X0242961Y0302446D01*
X0241893Y0301379D01*
X0239758Y0301379D01*
X0238691Y0303514D02*
X0242961Y0303514D01*
X0242961Y0304581D02*
X0241893Y0305649D01*
X0239758Y0305649D01*
X0238691Y0304581D01*
X0238691Y0303514D01*
X0187100Y0311879D02*
X0183897Y0311879D01*
X0182830Y0312946D01*
X0183897Y0314014D01*
X0186032Y0314014D01*
X0187100Y0315081D01*
X0186032Y0316149D01*
X0182830Y0316149D01*
X0180654Y0316149D02*
X0179587Y0316149D01*
X0179587Y0311879D01*
X0180654Y0311879D02*
X0178519Y0311879D01*
X0175290Y0312946D02*
X0175290Y0317217D01*
X0176357Y0316149D02*
X0174222Y0316149D01*
X0172060Y0316149D02*
X0172060Y0312946D01*
X0170993Y0311879D01*
X0167790Y0311879D01*
X0167790Y0310811D02*
X0168858Y0309744D01*
X0169925Y0309744D01*
X0167790Y0310811D02*
X0167790Y0316149D01*
X0174222Y0311879D02*
X0175290Y0312946D01*
X0179587Y0318284D02*
X0179587Y0319352D01*
X0159169Y0317217D02*
X0159169Y0312946D01*
X0158102Y0311879D01*
X0155967Y0311879D01*
X0154899Y0312946D01*
X0152724Y0312946D02*
X0152724Y0316149D01*
X0154899Y0317217D02*
X0155967Y0318284D01*
X0158102Y0318284D01*
X0159169Y0317217D01*
X0152724Y0312946D02*
X0151656Y0311879D01*
X0148454Y0311879D01*
X0148454Y0316149D01*
X0146278Y0316149D02*
X0143076Y0316149D01*
X0142008Y0315081D01*
X0142008Y0312946D01*
X0143076Y0311879D01*
X0146278Y0311879D01*
X0146278Y0318284D01*
X0139833Y0315081D02*
X0139833Y0312946D01*
X0138765Y0311879D01*
X0136630Y0311879D01*
X0135563Y0314014D02*
X0139833Y0314014D01*
X0139833Y0315081D02*
X0138765Y0316149D01*
X0136630Y0316149D01*
X0135563Y0315081D01*
X0135563Y0314014D01*
X0133387Y0312946D02*
X0132320Y0311879D01*
X0130185Y0311879D01*
X0129117Y0312946D01*
X0129117Y0314014D01*
X0130185Y0315081D01*
X0132320Y0315081D01*
X0133387Y0316149D01*
X0133387Y0317217D01*
X0132320Y0318284D01*
X0130185Y0318284D01*
X0129117Y0317217D01*
X0125874Y0316149D02*
X0123739Y0316149D01*
X0122672Y0315081D01*
X0122672Y0311879D01*
X0125874Y0311879D01*
X0126942Y0312946D01*
X0125874Y0314014D01*
X0122672Y0314014D01*
X0120496Y0316149D02*
X0118361Y0316149D01*
X0119429Y0317217D02*
X0119429Y0312946D01*
X0118361Y0311879D01*
X0109754Y0318284D02*
X0105484Y0318284D01*
X0107619Y0318284D02*
X0107619Y0311879D01*
X0103308Y0312946D02*
X0103308Y0315081D01*
X0102241Y0316149D01*
X0100106Y0316149D01*
X0099038Y0315081D01*
X0099038Y0314014D01*
X0103308Y0314014D01*
X0103308Y0312946D02*
X0102241Y0311879D01*
X0100106Y0311879D01*
X0096863Y0312946D02*
X0095795Y0314014D01*
X0092593Y0314014D01*
X0092593Y0315081D02*
X0092593Y0311879D01*
X0095795Y0311879D01*
X0096863Y0312946D01*
X0095795Y0316149D02*
X0093660Y0316149D01*
X0092593Y0315081D01*
X0090417Y0316149D02*
X0090417Y0311879D01*
X0088282Y0311879D02*
X0088282Y0315081D01*
X0087215Y0316149D01*
X0086147Y0315081D01*
X0086147Y0311879D01*
X0088282Y0315081D02*
X0089350Y0316149D01*
X0090417Y0316149D01*
D11*
X0008862Y0026252D02*
X0009103Y0026152D01*
X0009362Y0026118D01*
X0008362Y0027118D01*
X0008396Y0026859D01*
X0008496Y0026618D01*
X0008655Y0026411D01*
X0008862Y0026252D01*
X0008885Y0026595D02*
X0008514Y0026595D01*
X0008387Y0027093D02*
X0008365Y0027093D01*
X0059701Y0017984D02*
X0060701Y0016984D01*
X0060442Y0017018D01*
X0060201Y0017118D01*
X0059994Y0017277D01*
X0059835Y0017484D01*
X0059735Y0017725D01*
X0059701Y0017984D01*
X0059778Y0017622D02*
X0060063Y0017622D01*
X0060194Y0017123D02*
X0060562Y0017123D01*
X0107850Y0018378D02*
X0108850Y0017378D01*
X0108592Y0017412D01*
X0108350Y0017512D01*
X0108143Y0017671D01*
X0107984Y0017878D01*
X0107884Y0018119D01*
X0107850Y0018378D01*
X0107884Y0018120D02*
X0108108Y0018120D01*
X0108207Y0017622D02*
X0108607Y0017622D01*
X0152850Y0018378D02*
X0153850Y0017378D01*
X0153592Y0017412D01*
X0153350Y0017512D01*
X0153143Y0017671D01*
X0152984Y0017878D01*
X0152884Y0018119D01*
X0152850Y0018378D01*
X0152884Y0018120D02*
X0153108Y0018120D01*
X0153207Y0017622D02*
X0153607Y0017622D01*
X0197850Y0018378D02*
X0198850Y0017378D01*
X0198592Y0017412D01*
X0198350Y0017512D01*
X0198143Y0017671D01*
X0197984Y0017878D01*
X0197884Y0018119D01*
X0197850Y0018378D01*
X0197884Y0018120D02*
X0198108Y0018120D01*
X0198207Y0017622D02*
X0198607Y0017622D01*
X0241866Y0018378D02*
X0242866Y0017378D01*
X0242607Y0017412D01*
X0242366Y0017512D01*
X0242159Y0017671D01*
X0242000Y0017878D01*
X0241900Y0018119D01*
X0241866Y0018378D01*
X0241900Y0018120D02*
X0242124Y0018120D01*
X0242223Y0017622D02*
X0242622Y0017622D01*
X0286079Y0018969D02*
X0287079Y0017969D01*
X0286820Y0018003D01*
X0286579Y0018102D01*
X0286372Y0018261D01*
X0286213Y0018469D01*
X0286113Y0018710D01*
X0286079Y0018969D01*
X0286151Y0018619D02*
X0286429Y0018619D01*
X0286556Y0018120D02*
X0286927Y0018120D01*
X0330291Y0020661D02*
X0331291Y0019661D01*
X0331033Y0019695D01*
X0330791Y0019795D01*
X0330584Y0019954D01*
X0330425Y0020161D01*
X0330325Y0020403D01*
X0330291Y0020661D01*
X0330298Y0020613D02*
X0330340Y0020613D01*
X0330462Y0020114D02*
X0330839Y0020114D01*
X0328244Y0086787D02*
X0328244Y0106787D01*
X0328244Y0087787D01*
X0328244Y0106787D01*
X0328244Y0086787D01*
X0330291Y0104661D02*
X0330291Y0123661D01*
X0330291Y0104661D01*
X0330291Y0124661D01*
X0330291Y0104661D01*
X0286079Y0102969D02*
X0286079Y0121969D01*
X0286079Y0102969D01*
X0286079Y0122969D01*
X0286079Y0102969D01*
X0282850Y0107378D02*
X0282850Y0088378D01*
X0282850Y0107378D01*
X0282850Y0087378D01*
X0282850Y0107378D01*
X0241866Y0102378D02*
X0241866Y0121378D01*
X0241866Y0102378D01*
X0241866Y0122378D01*
X0241866Y0102378D01*
X0238835Y0107378D02*
X0238835Y0088378D01*
X0238835Y0107378D01*
X0238835Y0087378D01*
X0238835Y0107378D01*
X0197850Y0102378D02*
X0197850Y0121378D01*
X0197850Y0102378D01*
X0197850Y0122378D01*
X0197850Y0102378D01*
X0194031Y0107378D02*
X0194031Y0088378D01*
X0194031Y0107378D01*
X0194031Y0087378D01*
X0194031Y0107378D01*
X0152850Y0102378D02*
X0152850Y0121378D01*
X0152850Y0102378D01*
X0152850Y0122378D01*
X0152850Y0102378D01*
X0149031Y0107378D02*
X0149031Y0088378D01*
X0149031Y0107378D01*
X0149031Y0087378D01*
X0149031Y0107378D01*
X0107850Y0102378D02*
X0107850Y0121378D01*
X0107850Y0102378D01*
X0107850Y0122378D01*
X0107850Y0102378D01*
X0104622Y0107378D02*
X0104622Y0088378D01*
X0104622Y0107378D01*
X0104622Y0087378D01*
X0104622Y0107378D01*
X0059701Y0101984D02*
X0059701Y0120984D01*
X0059701Y0101984D01*
X0059701Y0121984D01*
X0059701Y0101984D01*
X0057260Y0104268D02*
X0057260Y0085268D01*
X0057260Y0104268D01*
X0057260Y0084268D01*
X0057260Y0104268D01*
X0008362Y0111118D02*
X0008362Y0130118D01*
X0008362Y0111118D01*
X0008362Y0131118D01*
X0008362Y0111118D01*
X0057260Y0188268D02*
X0056260Y0189268D01*
X0056519Y0189234D01*
X0056760Y0189134D01*
X0056967Y0188975D01*
X0057126Y0188768D01*
X0057226Y0188527D01*
X0057260Y0188268D01*
X0057191Y0188611D02*
X0056917Y0188611D01*
X0056791Y0189110D02*
X0056418Y0189110D01*
X0024189Y0200479D02*
X0005189Y0200512D01*
X0023189Y0200481D01*
X0024189Y0200479D01*
X0004189Y0200514D01*
X0024189Y0200479D01*
X0025331Y0245685D02*
X0006331Y0245685D01*
X0025331Y0245685D01*
X0005331Y0245685D01*
X0025331Y0245685D01*
X0103622Y0192378D02*
X0104622Y0191378D01*
X0104588Y0191637D01*
X0104488Y0191878D01*
X0104329Y0192085D01*
X0104122Y0192244D01*
X0103881Y0192344D01*
X0103622Y0192378D01*
X0103899Y0192101D02*
X0104309Y0192101D01*
X0104398Y0191602D02*
X0104593Y0191602D01*
X0108189Y0200332D02*
X0109191Y0201331D01*
X0109156Y0201072D01*
X0109056Y0200831D01*
X0108897Y0200624D01*
X0108689Y0200466D01*
X0108448Y0200366D01*
X0108189Y0200332D01*
X0108433Y0200575D02*
X0108833Y0200575D01*
X0108933Y0201074D02*
X0109156Y0201074D01*
X0119649Y0214640D02*
X0119441Y0214798D01*
X0119282Y0215004D01*
X0119181Y0215245D01*
X0119146Y0215504D01*
X0120150Y0214507D01*
X0119891Y0214541D01*
X0119649Y0214640D01*
X0119945Y0214534D02*
X0120123Y0214534D01*
X0119621Y0215032D02*
X0119270Y0215032D01*
X0148031Y0192378D02*
X0149031Y0191378D01*
X0148997Y0191637D01*
X0148898Y0191878D01*
X0148739Y0192085D01*
X0148531Y0192244D01*
X0148290Y0192344D01*
X0148031Y0192378D01*
X0148309Y0192101D02*
X0148718Y0192101D01*
X0148807Y0191602D02*
X0149002Y0191602D01*
X0164876Y0212002D02*
X0164717Y0212209D01*
X0164617Y0212450D01*
X0164583Y0212709D01*
X0165583Y0211709D01*
X0165324Y0211743D01*
X0165083Y0211843D01*
X0164876Y0212002D01*
X0164845Y0212041D02*
X0165250Y0212041D01*
X0164752Y0212540D02*
X0164605Y0212540D01*
X0193031Y0192378D02*
X0194031Y0191378D01*
X0193997Y0191637D01*
X0193898Y0191878D01*
X0193739Y0192085D01*
X0193531Y0192244D01*
X0193290Y0192344D01*
X0193031Y0192378D01*
X0193309Y0192101D02*
X0193718Y0192101D01*
X0193807Y0191602D02*
X0194002Y0191602D01*
X0210856Y0210706D02*
X0210695Y0210911D01*
X0210592Y0211151D01*
X0210555Y0211409D01*
X0211567Y0210422D01*
X0211308Y0210453D01*
X0211065Y0210550D01*
X0210856Y0210706D01*
X0211075Y0210546D02*
X0211440Y0210546D01*
X0210929Y0211044D02*
X0210638Y0211044D01*
X0237835Y0192378D02*
X0238835Y0191378D01*
X0238801Y0191637D01*
X0238701Y0191878D01*
X0238542Y0192085D01*
X0238335Y0192244D01*
X0238093Y0192344D01*
X0237835Y0192378D01*
X0238112Y0192101D02*
X0238521Y0192101D01*
X0238610Y0191602D02*
X0238805Y0191602D01*
X0255899Y0212671D02*
X0255740Y0212878D01*
X0255640Y0213119D01*
X0255606Y0213378D01*
X0256606Y0212378D01*
X0256347Y0212412D01*
X0256106Y0212512D01*
X0255899Y0212671D01*
X0256070Y0212540D02*
X0256445Y0212540D01*
X0255946Y0213038D02*
X0255674Y0213038D01*
X0281850Y0192378D02*
X0282850Y0191378D01*
X0282816Y0191637D01*
X0282716Y0191878D01*
X0282558Y0192085D01*
X0282350Y0192244D01*
X0282109Y0192344D01*
X0281850Y0192378D01*
X0282128Y0192101D02*
X0282537Y0192101D01*
X0282626Y0191602D02*
X0282821Y0191602D01*
X0300899Y0207671D02*
X0300740Y0207878D01*
X0300640Y0208119D01*
X0300606Y0208378D01*
X0301606Y0207378D01*
X0301347Y0207412D01*
X0301106Y0207512D01*
X0300899Y0207671D01*
X0301051Y0207554D02*
X0301430Y0207554D01*
X0300931Y0208053D02*
X0300668Y0208053D01*
X0327244Y0191787D02*
X0328244Y0190787D01*
X0328210Y0191046D01*
X0328110Y0191287D01*
X0327951Y0191495D01*
X0327744Y0191653D01*
X0327503Y0191753D01*
X0327244Y0191787D01*
X0327429Y0191602D02*
X0327811Y0191602D01*
X0327928Y0191104D02*
X0328186Y0191104D01*
X0345899Y0207868D02*
X0345740Y0208075D01*
X0345640Y0208316D01*
X0345606Y0208575D01*
X0346606Y0207575D01*
X0346347Y0207609D01*
X0346106Y0207709D01*
X0345899Y0207868D01*
X0345757Y0208053D02*
X0346128Y0208053D01*
X0345630Y0208551D02*
X0345609Y0208551D01*
X0374606Y0192378D02*
X0375606Y0191378D01*
X0375572Y0191637D01*
X0375472Y0191878D01*
X0375313Y0192085D01*
X0375106Y0192244D01*
X0374865Y0192344D01*
X0374606Y0192378D01*
X0374884Y0192101D02*
X0375293Y0192101D01*
X0375382Y0191602D02*
X0375577Y0191602D01*
X0375606Y0107378D02*
X0375606Y0088378D01*
X0375606Y0107378D01*
X0375606Y0087378D01*
X0375606Y0107378D01*
X0345606Y0292575D02*
X0345606Y0311575D01*
X0345606Y0292575D01*
X0345606Y0312575D01*
X0345606Y0292575D01*
X0300606Y0292378D02*
X0300606Y0311378D01*
X0300606Y0292378D01*
X0300606Y0312378D01*
X0300606Y0292378D01*
X0255606Y0297378D02*
X0255606Y0316378D01*
X0255606Y0297378D01*
X0255606Y0317378D01*
X0255606Y0297378D01*
X0209516Y0296403D02*
X0209528Y0295403D01*
X0209296Y0314402D01*
X0209516Y0296403D01*
X0209528Y0295403D02*
X0209284Y0315402D01*
X0209528Y0295403D01*
X0209292Y0314734D02*
X0209292Y0314734D01*
X0209286Y0315233D02*
X0209286Y0315233D01*
X0164583Y0315709D02*
X0164583Y0296709D01*
X0164583Y0316709D01*
X0164583Y0296709D01*
X0164583Y0315709D01*
X0118795Y0316230D02*
X0118795Y0316230D01*
X0118791Y0317227D02*
X0118791Y0317227D01*
X0118791Y0317227D01*
X0118788Y0318224D02*
X0118788Y0318224D01*
X0118788Y0318224D01*
X0118787Y0318503D02*
X0118853Y0299503D01*
X0118783Y0319503D01*
X0118853Y0299503D01*
X0118849Y0300503D01*
X0118787Y0318503D01*
X0118786Y0318722D02*
X0118786Y0318722D01*
X0118784Y0319221D02*
X0118784Y0319221D01*
X0118800Y0314734D02*
X0118800Y0314734D01*
X0118800Y0314734D01*
X0118803Y0313737D02*
X0118803Y0313737D01*
X0118803Y0313737D01*
X0118807Y0312740D02*
X0118807Y0312740D01*
X0118812Y0311245D02*
X0118812Y0311245D01*
X0118812Y0311245D01*
X0118815Y0310248D02*
X0118815Y0310248D01*
X0118819Y0309251D02*
X0118819Y0309251D01*
X0118822Y0308254D02*
X0118822Y0308254D01*
X0118824Y0307755D02*
X0118824Y0307755D01*
X0118824Y0307755D01*
X0118828Y0306758D02*
X0118828Y0306758D01*
X0118831Y0305761D02*
X0118831Y0305761D01*
X0118835Y0304764D02*
X0118835Y0304764D01*
X0118836Y0304266D02*
X0118836Y0304266D01*
X0118836Y0304266D01*
X0118840Y0303269D02*
X0118840Y0303269D01*
X0118843Y0302272D02*
X0118843Y0302272D01*
X0118847Y0301275D02*
X0118847Y0301275D01*
X0118848Y0300776D02*
X0118848Y0300776D01*
X0110331Y0246685D02*
X0109331Y0245685D01*
X0109590Y0245719D01*
X0109831Y0245819D01*
X0110038Y0245978D01*
X0110197Y0246185D01*
X0110297Y0246426D01*
X0110331Y0246685D01*
X0110298Y0246438D02*
X0110084Y0246438D01*
X0109988Y0245940D02*
X0109586Y0245940D01*
M02*
