%
M48
M72
T01C0.03150
T02C0.03937
T03C0.06000
T04C0.12835
%
T01
X73784Y53532
X104784Y53532
X135784Y53532
X166784Y53532
X226825Y96871
X235857Y105898
X244888Y96871
X235857Y87843
X259784Y53532
X290784Y53532
X321784Y53532
X352784Y53532
X403910Y201068
X382784Y203532
X372910Y252068
X351784Y254532
X341910Y252068
X320784Y254532
X310910Y252068
X289784Y254532
X279910Y252068
X258784Y254532
X248910Y252068
X227784Y254532
X217910Y252068
X196784Y254532
X186910Y252068
X165784Y254532
X155910Y252068
X134784Y254532
X124910Y252068
X103784Y254532
X93910Y252068
X72784Y254532
X41784Y203532
X62910Y201068
T02
X227580Y157532
T03
X240769Y135784
X225894Y122769
X208548Y129265
X210847Y96800
X223847Y72800
X236847Y53800
T04
X47548Y54595
X47548Y353808
X407784Y353808
X407784Y54595
M30
