G75*
%MOIN*%
%OFA0B0*%
%FSLAX25Y25*%
%IPPOS*%
%LPD*%
%AMOC8*
5,1,8,0,0,1.08239X$1,22.5*
%
%ADD10R,0.04992X0.04992*%
%ADD11R,0.04992X0.04992*%
%ADD12R,0.03962X0.03962*%
%ADD13C,0.03268*%
%ADD14C,0.03200*%
%ADD15C,0.03150*%
%ADD16OC8,0.04750*%
%ADD17C,0.01600*%
%ADD18R,0.04750X0.04750*%
D10*
X0028362Y0021118D03*
X0079701Y0011984D03*
X0127850Y0012378D03*
X0172850Y0012378D03*
X0217850Y0012378D03*
X0261866Y0012378D03*
X0306079Y0012969D03*
X0350291Y0014661D03*
X0355606Y0197378D03*
X0365606Y0202575D03*
X0320606Y0202378D03*
X0308244Y0196787D03*
X0275606Y0207378D03*
X0262850Y0197378D03*
X0218835Y0197378D03*
X0184583Y0206709D03*
X0174031Y0197378D03*
X0129031Y0197378D03*
X0084622Y0197378D03*
X0037260Y0194268D03*
X0115331Y0265685D03*
D11*
G36*
X0111724Y0217831D02*
X0111733Y0222822D01*
X0116724Y0222813D01*
X0116715Y0217822D01*
X0111724Y0217831D01*
G37*
G36*
X0136663Y0212061D02*
X0141654Y0212078D01*
X0141671Y0207087D01*
X0136680Y0207070D01*
X0136663Y0212061D01*
G37*
G36*
X0228101Y0208119D02*
X0233092Y0208180D01*
X0233153Y0203189D01*
X0228162Y0203128D01*
X0228101Y0208119D01*
G37*
D12*
X0243323Y0234346D03*
X0263008Y0269976D03*
X0289189Y0265449D03*
X0305724Y0211512D03*
X0276984Y0167024D03*
X0233705Y0168823D03*
X0188795Y0169386D03*
X0144898Y0170370D03*
X0097457Y0174504D03*
X0050409Y0164071D03*
X0082299Y0233953D03*
X0091551Y0277457D03*
X0111039Y0301472D03*
X0175016Y0261906D03*
X0198638Y0232969D03*
X0322850Y0166630D03*
X0343717Y0166236D03*
X0371276Y0171157D03*
X0378362Y0230016D03*
X0359661Y0266827D03*
X0342732Y0072732D03*
X0322850Y0042614D03*
X0277575Y0043205D03*
X0228362Y0067024D03*
X0186039Y0067220D03*
X0138402Y0064661D03*
X0071669Y0070961D03*
X0020488Y0080409D03*
D13*
X0017535Y0176669D01*
X0016945Y0194268D01*
X0037260Y0194268D01*
X0053165Y0195567D02*
X0076836Y0202605D01*
X0114224Y0220322D01*
X0118520Y0209543D02*
X0139136Y0209543D01*
X0139167Y0209574D01*
X0144701Y0197535D02*
X0144898Y0170370D01*
X0134661Y0176276D02*
X0129031Y0197378D01*
X0118520Y0187102D02*
X0118520Y0209543D01*
X0144701Y0197535D02*
X0154937Y0210331D01*
X0164386Y0219780D01*
X0310449Y0220764D01*
X0320606Y0202378D01*
X0308244Y0196787D02*
X0282102Y0187299D01*
X0294307Y0184346D02*
X0352575Y0184346D01*
X0355606Y0187378D01*
X0355606Y0197378D01*
X0365606Y0202575D02*
X0347063Y0234346D01*
X0243323Y0234346D01*
X0230627Y0205654D02*
X0193961Y0205654D01*
X0193913Y0205606D01*
X0188992Y0197535D01*
X0188795Y0169386D01*
X0178953Y0179622D02*
X0174031Y0197378D01*
X0134661Y0176276D02*
X0138402Y0064661D01*
X0071669Y0070961D02*
X0066157Y0167220D01*
X0066157Y0169976D01*
X0076394Y0169976D01*
X0076394Y0197378D01*
X0084622Y0197378D01*
X0097457Y0174504D02*
X0118520Y0187102D01*
X0082299Y0233953D02*
X0114031Y0265685D01*
X0115331Y0265685D01*
X0115358Y0276619D02*
X0164583Y0275685D01*
X0174819Y0272339D01*
X0175016Y0261906D01*
X0198638Y0232969D02*
X0213795Y0269976D01*
X0263008Y0269976D01*
X0289189Y0265449D02*
X0359661Y0266827D01*
X0378362Y0230016D02*
X0371276Y0171157D01*
X0343717Y0166236D02*
X0322850Y0166630D01*
X0294307Y0184346D02*
X0276984Y0167024D01*
X0262024Y0197142D02*
X0244335Y0179650D01*
X0233705Y0168823D01*
X0224031Y0191827D02*
X0218835Y0197378D01*
X0224031Y0191827D02*
X0228362Y0067024D01*
X0262024Y0197142D02*
X0262850Y0197378D01*
X0276394Y0206591D02*
X0305724Y0211512D01*
X0115358Y0276619D02*
X0091945Y0277063D01*
X0091551Y0277457D01*
X0053165Y0195567D02*
X0050409Y0164071D01*
D14*
X0008677Y0166630D02*
X0007693Y0201866D01*
X0024622Y0234150D01*
X0053165Y0277654D01*
X0062220Y0283756D01*
X0070882Y0291630D01*
X0080331Y0293598D01*
X0078953Y0315843D02*
X0091354Y0317811D01*
X0115370Y0317614D01*
X0115173Y0317811D02*
X0115285Y0301482D01*
X0115173Y0277063D01*
X0178953Y0179622D02*
X0186039Y0067220D01*
X0275213Y0131787D02*
X0264189Y0163480D01*
X0282102Y0187299D01*
X0275213Y0131787D02*
X0322654Y0094189D01*
X0342732Y0072732D01*
X0079701Y0011984D02*
X0028362Y0021118D01*
X0010048Y0043417D01*
X0008677Y0166630D01*
D15*
X0079701Y0011984D02*
X0127850Y0012378D01*
X0172850Y0012378D01*
X0217850Y0012378D01*
X0261866Y0012378D01*
X0277575Y0043205D02*
X0279780Y0043205D01*
X0306079Y0012969D01*
X0322850Y0042614D02*
X0350213Y0015252D01*
X0350291Y0014661D01*
D16*
X0080331Y0293598D03*
X0078953Y0315843D03*
D17*
X0111039Y0301472D02*
X0115276Y0301472D01*
X0115285Y0301482D01*
X0115370Y0317614D02*
X0115173Y0317811D01*
X0115173Y0277063D02*
X0115358Y0277063D01*
X0115358Y0276619D01*
D18*
X0078362Y0306787D03*
M02*
