G75*
%MOIN*%
%OFA0B0*%
%FSLAX25Y25*%
%IPPOS*%
%LPD*%
%AMOC8*
5,1,8,0,0,1.08239X$1,22.5*
%
%ADD10C,0.13635*%
%ADD11C,0.37808*%
%ADD12R,0.05792X0.05792*%
%ADD13C,0.03162*%
%ADD14R,0.05792X0.05792*%
%ADD15R,0.04762X0.04762*%
%ADD16OC8,0.05550*%
%ADD17R,0.05550X0.05550*%
D10*
X0264908Y0014602D03*
X0625262Y0013815D03*
X0624475Y0312713D03*
X0264121Y0313500D03*
D11*
X0294278Y0304878D03*
D12*
X0363136Y0265941D03*
X0432388Y0206965D03*
X0421837Y0197634D03*
X0466640Y0197634D03*
X0510656Y0197634D03*
X0523412Y0207634D03*
X0556050Y0197043D03*
X0568412Y0202634D03*
X0603412Y0197634D03*
X0613412Y0202831D03*
X0376837Y0197634D03*
X0332428Y0197634D03*
X0285066Y0194524D03*
X0276168Y0021374D03*
X0327507Y0012240D03*
X0375656Y0012634D03*
X0420656Y0012634D03*
X0465656Y0012634D03*
X0509672Y0012634D03*
X0553885Y0013224D03*
X0598097Y0014917D03*
D13*
X0599121Y0034760D03*
X0587231Y0053028D03*
X0609160Y0055075D03*
X0600223Y0070035D03*
X0564948Y0053382D03*
X0543018Y0051335D03*
X0520735Y0052791D03*
X0498806Y0050744D03*
X0476719Y0052791D03*
X0454790Y0050744D03*
X0431719Y0052791D03*
X0409790Y0050744D03*
X0386719Y0052791D03*
X0364790Y0050744D03*
X0338570Y0052398D03*
X0316640Y0050350D03*
X0287231Y0061531D03*
X0265302Y0059484D03*
X0278294Y0076492D03*
X0329633Y0067358D03*
X0377782Y0067752D03*
X0422782Y0067752D03*
X0467782Y0067752D03*
X0511798Y0067752D03*
X0556010Y0068343D03*
X0554908Y0033067D03*
X0510696Y0032476D03*
X0466680Y0032476D03*
X0421680Y0032476D03*
X0376680Y0032476D03*
X0328530Y0032083D03*
X0277192Y0041217D03*
X0282940Y0139406D03*
X0274003Y0154366D03*
X0295932Y0156413D03*
X0321365Y0157476D03*
X0343294Y0159524D03*
X0365774Y0157476D03*
X0387703Y0159524D03*
X0410774Y0157476D03*
X0432703Y0159524D03*
X0455577Y0157476D03*
X0477507Y0159524D03*
X0499593Y0157476D03*
X0521522Y0159524D03*
X0544987Y0156886D03*
X0566916Y0158933D03*
X0592349Y0157476D03*
X0614278Y0159524D03*
X0601286Y0142516D03*
X0553924Y0141925D03*
X0508530Y0142516D03*
X0464514Y0142516D03*
X0419711Y0142516D03*
X0374711Y0142516D03*
X0330302Y0142516D03*
X0284042Y0174681D03*
X0331404Y0177791D03*
X0375814Y0177791D03*
X0420814Y0177791D03*
X0465617Y0177791D03*
X0509633Y0177791D03*
X0555026Y0177201D03*
X0602388Y0177791D03*
X0614436Y0222673D03*
X0602546Y0240941D03*
X0624475Y0242988D03*
X0615538Y0257949D03*
X0579475Y0242791D03*
X0557546Y0240744D03*
X0534475Y0247791D03*
X0512546Y0245744D03*
X0489004Y0246200D03*
X0467101Y0243885D03*
X0443451Y0247122D03*
X0421522Y0245075D03*
X0397895Y0250026D03*
X0375974Y0247902D03*
X0388906Y0264955D03*
X0343294Y0266965D03*
X0325026Y0255075D03*
X0308018Y0268067D03*
X0322979Y0277004D03*
X0321892Y0231711D03*
X0306915Y0222800D03*
X0323900Y0209778D03*
X0342189Y0221636D03*
X0387927Y0229676D03*
X0433412Y0226807D03*
X0479213Y0225764D03*
X0524436Y0227476D03*
X0569436Y0222476D03*
X0570538Y0257752D03*
X0525538Y0262752D03*
X0479885Y0261050D03*
X0434514Y0262083D03*
D14*
G36*
X0359129Y0217688D02*
X0359140Y0223479D01*
X0364931Y0223468D01*
X0364920Y0217677D01*
X0359129Y0217688D01*
G37*
G36*
X0384067Y0212715D02*
X0389858Y0212736D01*
X0389879Y0206945D01*
X0384088Y0206924D01*
X0384067Y0212715D01*
G37*
G36*
X0475501Y0208770D02*
X0481292Y0208841D01*
X0481363Y0203050D01*
X0475572Y0202979D01*
X0475501Y0208770D01*
G37*
D15*
X0491129Y0234602D03*
X0446444Y0233224D03*
X0422822Y0262161D03*
X0358845Y0301728D03*
X0339357Y0277713D03*
X0330105Y0234209D03*
X0345262Y0174760D03*
X0298215Y0164327D03*
X0392703Y0170626D03*
X0436601Y0169642D03*
X0481510Y0169079D03*
X0524790Y0167280D03*
X0570656Y0166886D03*
X0591522Y0166492D03*
X0619081Y0171413D03*
X0553530Y0211768D03*
X0626168Y0230272D03*
X0607467Y0267083D03*
X0536995Y0265705D03*
X0510814Y0270232D03*
X0268294Y0080665D03*
X0319475Y0071217D03*
X0386207Y0064917D03*
X0433845Y0067476D03*
X0476168Y0067280D03*
X0525381Y0043461D03*
X0570656Y0042870D03*
X0590538Y0072988D03*
D16*
X0328136Y0293854D03*
X0326759Y0316098D03*
D17*
X0326168Y0307043D03*
M02*
