%
M48
M72
T01C0.02362
T02C0.02992
T03C0.03150
T04C0.05906
T05C0.06299
T06C0.12835
%
T01
X93729Y63414
X111997Y75304
X129005Y62312
X114044Y53375
X134162Y122509
X148532Y134831
X131524Y147824
X146485Y156761
X136800Y176209
X121839Y167272
X101524Y177312
X119792Y189202
X134635Y225461
X122745Y243729
X135737Y260737
X144674Y245776
X164202Y261839
X155265Y276800
X177194Y278847
X199280Y290973
X212272Y307981
X221209Y293020
X211170Y272706
X240737Y304989
X231800Y319950
X253729Y321997
X241839Y340265
X286879Y300186
X295816Y285225
X273887Y283178
X285776Y264910
X281209Y219871
X293099Y201603
X280107Y184595
X271170Y199556
X253965Y174438
X262902Y159477
X240973Y157430
X252863Y139162
X232587Y108729
X223099Y79713
X208139Y70776
X225146Y57784
X243414Y69674
X284753Y98296
X303020Y110186
X320028Y97194
X305068Y88257
X320343Y70501
X335304Y79438
X337351Y57509
X355619Y69398
X403611Y91997
X391721Y110265
X404713Y127272
X413650Y112312
X337430Y165540
X328493Y180501
X315501Y163493
X327391Y145225
X353493Y200343
X344556Y215304
X366485Y217351
X354595Y235619
X388139Y223178
X397076Y208217
X410068Y225225
X398178Y243493
X379005Y276564
X361997Y289556
X376957Y298493
X397272Y288454
X363020Y319910
X348060Y310973
X327745Y321013
X346013Y332902
X208650Y231839
X220540Y213572
X207548Y196564
X198611Y211524
X187312Y203217
X166800Y146721
X65580Y148611
X52587Y131603
X43650Y146564
X53690Y166879
X63060Y215855
X51170Y234123
X64162Y251131
X73099Y236170
X89713Y263572
X80776Y278532
X102706Y280580
X90816Y298847
X119241Y333650
X102233Y346643
X117194Y355580
X137509Y345540
X165304Y297115
T02
X156328Y316957
X157351Y354517
X232863Y360107
X307902Y312036
X345619Y255461
X389202Y263335
X417115Y297430
X294753Y245068
X272233Y239713
X220146Y252863
X199674Y251682
X143611Y205619
X186643Y155698
X261839Y119320
X264910Y89320
X263257Y78650
X336367Y125383
X375461Y78375
X412587Y72154
X81682Y168335
X72036Y196013
X44713Y186721
X73887Y54438
X81839Y318690
T03
X201643Y112678
X210674Y103650
X201643Y94623
X192611Y103650
T04
X169595Y108729
T05
X193217Y144162
X206997Y144162
X224713Y128414
X250304Y112666
X250304Y98887
T06
X47548Y54595
X47548Y353808
X407784Y353808
X407784Y54595
M30
