G75*
%MOIN*%
%OFA0B0*%
%FSLAX25Y25*%
%IPPOS*%
%LPD*%
%AMOC8*
5,1,8,0,0,1.08239X$1,22.5*
%
%ADD10C,0.00500*%
D10*
X0074713Y0076721D02*
X0074713Y0096721D01*
X0074713Y0077721D01*
X0074713Y0096721D01*
X0074713Y0076721D01*
X0078887Y0083438D02*
X0079887Y0084438D01*
X0079628Y0084404D01*
X0079387Y0084304D01*
X0079180Y0084145D01*
X0079021Y0083938D01*
X0078921Y0083697D01*
X0078887Y0083438D01*
X0078918Y0083675D02*
X0079124Y0083675D01*
X0079217Y0084173D02*
X0079622Y0084173D01*
X0124520Y0107011D02*
X0124520Y0112515D01*
X0126354Y0112515D02*
X0122685Y0112515D01*
X0128209Y0112515D02*
X0128209Y0107928D01*
X0129127Y0107011D01*
X0130962Y0107011D01*
X0131879Y0107928D01*
X0131879Y0112515D01*
X0133734Y0111598D02*
X0134652Y0112515D01*
X0136486Y0112515D01*
X0137404Y0111598D01*
X0137404Y0107928D01*
X0136486Y0107011D01*
X0134652Y0107011D01*
X0133734Y0107928D01*
X0133734Y0111598D01*
X0139259Y0109763D02*
X0142929Y0109763D01*
X0144784Y0109763D02*
X0145701Y0108846D01*
X0148453Y0108846D01*
X0146618Y0108846D02*
X0144784Y0107011D01*
X0144784Y0109763D02*
X0144784Y0111598D01*
X0145701Y0112515D01*
X0148453Y0112515D01*
X0148453Y0107011D01*
X0150308Y0107011D02*
X0152143Y0108846D01*
X0153978Y0107011D01*
X0153978Y0112515D01*
X0155833Y0111598D02*
X0155833Y0109763D01*
X0156750Y0108846D01*
X0159503Y0108846D01*
X0159503Y0107011D02*
X0159503Y0112515D01*
X0156750Y0112515D01*
X0155833Y0111598D01*
X0150308Y0112515D02*
X0150308Y0107011D01*
X0173821Y0108262D02*
X0179326Y0108262D01*
X0179326Y0105510D01*
X0178409Y0104592D01*
X0176574Y0104592D01*
X0175656Y0105510D01*
X0175656Y0108262D01*
X0176574Y0110117D02*
X0175656Y0111035D01*
X0175656Y0113787D01*
X0179326Y0113787D01*
X0179326Y0115642D02*
X0179326Y0116559D01*
X0175656Y0116559D01*
X0175656Y0115642D02*
X0175656Y0117477D01*
X0176574Y0119325D02*
X0175656Y0120242D01*
X0175656Y0122077D01*
X0176574Y0122995D01*
X0177491Y0122995D01*
X0178409Y0122077D01*
X0178409Y0120242D01*
X0179326Y0119325D01*
X0180244Y0119325D01*
X0181161Y0120242D01*
X0181161Y0122077D01*
X0180244Y0122995D01*
X0180643Y0125698D02*
X0181643Y0126698D01*
X0181608Y0126439D01*
X0181509Y0126198D01*
X0181350Y0125991D01*
X0181143Y0125832D01*
X0180901Y0125732D01*
X0180643Y0125698D01*
X0180993Y0126048D02*
X0181394Y0126048D01*
X0181492Y0126547D02*
X0181623Y0126547D01*
X0179326Y0125767D02*
X0179326Y0127602D01*
X0178409Y0128520D01*
X0175656Y0128520D01*
X0175656Y0125767D01*
X0176574Y0124850D01*
X0177491Y0125767D01*
X0177491Y0128520D01*
X0179326Y0130374D02*
X0179326Y0132209D01*
X0180244Y0131292D02*
X0176574Y0131292D01*
X0175656Y0132209D01*
X0175656Y0134058D02*
X0176574Y0134058D01*
X0176574Y0134975D01*
X0175656Y0134975D01*
X0175656Y0134058D01*
X0178409Y0134058D02*
X0179326Y0134058D01*
X0179326Y0134975D01*
X0178409Y0134975D01*
X0178409Y0134058D01*
X0185499Y0132982D02*
X0189169Y0132982D01*
X0191004Y0134817D01*
X0189169Y0136652D01*
X0185499Y0136652D01*
X0188251Y0136652D02*
X0188251Y0132982D01*
X0186416Y0131127D02*
X0190086Y0131127D01*
X0191004Y0130210D01*
X0191004Y0127457D01*
X0185499Y0127457D01*
X0185499Y0130210D01*
X0186416Y0131127D01*
X0186416Y0125602D02*
X0185499Y0124685D01*
X0185499Y0122850D01*
X0186416Y0121933D01*
X0188251Y0122850D02*
X0188251Y0124685D01*
X0187334Y0125602D01*
X0186416Y0125602D01*
X0188251Y0122850D02*
X0189169Y0121933D01*
X0190086Y0121933D01*
X0191004Y0122850D01*
X0191004Y0124685D01*
X0190086Y0125602D01*
X0182078Y0116559D02*
X0181161Y0116559D01*
X0179326Y0110117D02*
X0176574Y0110117D01*
X0175656Y0102737D02*
X0175656Y0099068D01*
X0181161Y0099068D01*
X0181161Y0102737D01*
X0178409Y0100903D02*
X0178409Y0099068D01*
X0182887Y0084438D02*
X0163887Y0084438D01*
X0183887Y0084438D01*
X0163887Y0084438D01*
X0182887Y0084438D01*
X0216342Y0112822D02*
X0216342Y0118326D01*
X0218177Y0118326D02*
X0214507Y0118326D01*
X0220032Y0118326D02*
X0220032Y0113739D01*
X0220949Y0112822D01*
X0222784Y0112822D01*
X0223702Y0113739D01*
X0223702Y0118326D01*
X0225557Y0117409D02*
X0226474Y0118326D01*
X0228309Y0118326D01*
X0229227Y0117409D01*
X0229227Y0113739D01*
X0228309Y0112822D01*
X0226474Y0112822D01*
X0225557Y0113739D01*
X0225557Y0117409D01*
X0231081Y0115574D02*
X0234751Y0115574D01*
X0236606Y0113739D02*
X0236606Y0117409D01*
X0237524Y0118326D01*
X0240276Y0118326D01*
X0240276Y0112822D01*
X0237524Y0112822D01*
X0236606Y0113739D01*
X0242131Y0115574D02*
X0242131Y0117409D01*
X0243048Y0118326D01*
X0245801Y0118326D01*
X0245801Y0112822D01*
X0245801Y0114657D02*
X0243048Y0114657D01*
X0242131Y0115574D01*
X0232839Y0124320D02*
X0231839Y0125320D01*
X0231873Y0125061D01*
X0231973Y0124820D01*
X0232132Y0124613D01*
X0232339Y0124454D01*
X0232581Y0124354D01*
X0232839Y0124320D01*
X0232606Y0124553D02*
X0232210Y0124553D01*
X0232108Y0125051D02*
X0231877Y0125051D01*
X0229451Y0136538D02*
X0227617Y0136538D01*
X0226699Y0137456D01*
X0226699Y0139291D01*
X0228534Y0139291D01*
X0230369Y0141125D02*
X0230369Y0137456D01*
X0229451Y0136538D01*
X0224844Y0136538D02*
X0224844Y0142043D01*
X0221174Y0136538D01*
X0221174Y0142043D01*
X0219319Y0142043D02*
X0216567Y0142043D01*
X0215650Y0141125D01*
X0215650Y0137456D01*
X0216567Y0136538D01*
X0219319Y0136538D01*
X0219319Y0142043D01*
X0226699Y0141125D02*
X0227617Y0142043D01*
X0229451Y0142043D01*
X0230369Y0141125D01*
X0229674Y0141682D02*
X0229674Y0161682D01*
X0229674Y0142682D01*
X0229674Y0161682D01*
X0229674Y0141682D01*
X0208720Y0131013D02*
X0203215Y0131013D01*
X0203215Y0134683D01*
X0204133Y0129159D02*
X0203215Y0128241D01*
X0203215Y0126406D01*
X0204133Y0125489D01*
X0207803Y0125489D01*
X0208720Y0126406D01*
X0208720Y0128241D01*
X0207803Y0129159D01*
X0207803Y0123634D02*
X0208720Y0122716D01*
X0208720Y0120881D01*
X0207803Y0119964D01*
X0206885Y0119964D01*
X0205968Y0120881D01*
X0205968Y0122716D01*
X0205050Y0123634D01*
X0204133Y0123634D01*
X0203215Y0122716D01*
X0203215Y0120881D01*
X0204133Y0119964D01*
X0181161Y0143262D02*
X0180244Y0142345D01*
X0179326Y0142345D01*
X0178409Y0143262D01*
X0178409Y0145097D01*
X0177491Y0146014D01*
X0176574Y0146014D01*
X0175656Y0145097D01*
X0175656Y0143262D01*
X0176574Y0142345D01*
X0181161Y0143262D02*
X0181161Y0145097D01*
X0180244Y0146014D01*
X0179326Y0147869D02*
X0179326Y0148787D01*
X0175656Y0148787D01*
X0175656Y0149704D02*
X0175656Y0147869D01*
X0176574Y0151553D02*
X0178409Y0151553D01*
X0179326Y0152470D01*
X0179326Y0155222D01*
X0181161Y0155222D02*
X0175656Y0155222D01*
X0175656Y0152470D01*
X0176574Y0151553D01*
X0181161Y0148787D02*
X0182078Y0148787D01*
X0178409Y0157077D02*
X0176574Y0157077D01*
X0175656Y0157995D01*
X0175656Y0159830D01*
X0177491Y0160747D02*
X0177491Y0157077D01*
X0178409Y0157077D02*
X0179326Y0157995D01*
X0179326Y0159830D01*
X0178409Y0160747D01*
X0177491Y0160747D01*
X0176574Y0168127D02*
X0175656Y0169044D01*
X0175656Y0170879D01*
X0176574Y0171796D01*
X0177491Y0171796D01*
X0178409Y0170879D01*
X0178409Y0169044D01*
X0179326Y0168127D01*
X0180244Y0168127D01*
X0181161Y0169044D01*
X0181161Y0170879D01*
X0180244Y0171796D01*
X0178409Y0173651D02*
X0176574Y0173651D01*
X0175656Y0174569D01*
X0175656Y0176404D01*
X0176574Y0177321D01*
X0178409Y0177321D01*
X0179326Y0176404D01*
X0179326Y0174569D01*
X0178409Y0173651D01*
X0181161Y0179176D02*
X0181161Y0180094D01*
X0175656Y0180094D01*
X0175656Y0181011D02*
X0175656Y0179176D01*
X0176574Y0182859D02*
X0177491Y0183777D01*
X0177491Y0186529D01*
X0178409Y0186529D02*
X0175656Y0186529D01*
X0175656Y0183777D01*
X0176574Y0182859D01*
X0179326Y0183777D02*
X0179326Y0185612D01*
X0178409Y0186529D01*
X0179326Y0188384D02*
X0175656Y0188384D01*
X0177491Y0188384D02*
X0179326Y0190219D01*
X0179326Y0191136D01*
X0177491Y0198513D02*
X0177491Y0201265D01*
X0178409Y0202182D01*
X0180244Y0202182D01*
X0181161Y0201265D01*
X0181161Y0198513D01*
X0175656Y0198513D01*
X0171682Y0198335D02*
X0190682Y0198335D01*
X0171682Y0198335D01*
X0191682Y0198335D01*
X0171682Y0198335D01*
X0171318Y0198190D02*
X0169484Y0196355D01*
X0170401Y0194500D02*
X0166731Y0190830D01*
X0165814Y0191748D01*
X0165814Y0193582D01*
X0166731Y0194500D01*
X0170401Y0194500D01*
X0171318Y0193582D01*
X0171318Y0191748D01*
X0170401Y0190830D01*
X0166731Y0190830D01*
X0165814Y0188975D02*
X0165814Y0185305D01*
X0169484Y0188975D01*
X0170401Y0188975D01*
X0171318Y0188058D01*
X0171318Y0186223D01*
X0170401Y0185305D01*
X0169484Y0177932D02*
X0169484Y0176098D01*
X0170401Y0177015D02*
X0166731Y0177015D01*
X0165814Y0177932D01*
X0166731Y0174243D02*
X0165814Y0173325D01*
X0165814Y0170573D01*
X0165814Y0168718D02*
X0169484Y0168718D01*
X0168566Y0170573D02*
X0169484Y0171490D01*
X0169484Y0174243D01*
X0167649Y0173325D02*
X0166731Y0174243D01*
X0167649Y0173325D02*
X0167649Y0171490D01*
X0168566Y0170573D01*
X0165814Y0168718D02*
X0165814Y0165966D01*
X0166731Y0165048D01*
X0169484Y0165048D01*
X0169484Y0163193D02*
X0164896Y0163193D01*
X0163979Y0162276D01*
X0163979Y0161358D01*
X0165814Y0160441D02*
X0165814Y0163193D01*
X0165814Y0160441D02*
X0166731Y0159523D01*
X0168566Y0159523D01*
X0169484Y0160441D01*
X0169484Y0163193D01*
X0169484Y0157668D02*
X0165814Y0157668D01*
X0165814Y0154916D01*
X0166731Y0153999D01*
X0169484Y0153999D01*
X0169484Y0152144D02*
X0165814Y0152144D01*
X0168566Y0152144D02*
X0168566Y0148474D01*
X0169484Y0148474D02*
X0171318Y0150309D01*
X0169484Y0152144D01*
X0169484Y0148474D02*
X0165814Y0148474D01*
X0161476Y0147966D02*
X0161476Y0150719D01*
X0160559Y0151636D01*
X0158724Y0151636D01*
X0157806Y0150719D01*
X0157806Y0147966D01*
X0155971Y0147966D02*
X0161476Y0147966D01*
X0157806Y0149801D02*
X0155971Y0151636D01*
X0156889Y0153491D02*
X0155971Y0154408D01*
X0155971Y0157161D01*
X0155054Y0157161D02*
X0154136Y0156243D01*
X0154136Y0155326D01*
X0155054Y0157161D02*
X0159641Y0157161D01*
X0159641Y0159933D02*
X0159641Y0161768D01*
X0158724Y0162685D01*
X0155971Y0162685D01*
X0155971Y0159933D01*
X0156889Y0159016D01*
X0157806Y0159933D01*
X0157806Y0162685D01*
X0155971Y0164540D02*
X0159641Y0164540D01*
X0159641Y0167293D01*
X0158724Y0168210D01*
X0155971Y0168210D01*
X0155971Y0175590D02*
X0155971Y0177425D01*
X0155971Y0176507D02*
X0161476Y0176507D01*
X0161476Y0175590D02*
X0161476Y0177425D01*
X0159641Y0179273D02*
X0159641Y0182943D01*
X0155971Y0179273D01*
X0155971Y0182943D01*
X0156889Y0184798D02*
X0157806Y0185715D01*
X0157806Y0188467D01*
X0158724Y0188467D02*
X0155971Y0188467D01*
X0155971Y0185715D01*
X0156889Y0184798D01*
X0159641Y0185715D02*
X0159641Y0187550D01*
X0158724Y0188467D01*
X0159641Y0190322D02*
X0159641Y0193075D01*
X0158724Y0193992D01*
X0155971Y0193992D01*
X0156889Y0196765D02*
X0155971Y0197682D01*
X0156889Y0196765D02*
X0160559Y0196765D01*
X0159641Y0197682D02*
X0159641Y0195847D01*
X0159641Y0190322D02*
X0155971Y0190322D01*
X0165814Y0196355D02*
X0165814Y0200025D01*
X0165814Y0198190D02*
X0171318Y0198190D01*
X0168566Y0201880D02*
X0168566Y0204632D01*
X0167649Y0205549D01*
X0166731Y0205549D01*
X0165814Y0204632D01*
X0165814Y0202797D01*
X0166731Y0201880D01*
X0168566Y0201880D01*
X0170401Y0203714D01*
X0171318Y0205549D01*
X0175656Y0204955D02*
X0175656Y0207707D01*
X0178409Y0207707D01*
X0179326Y0206790D01*
X0179326Y0204955D01*
X0177491Y0204955D02*
X0177491Y0207707D01*
X0175656Y0209562D02*
X0179326Y0209562D01*
X0179326Y0212314D01*
X0178409Y0213232D01*
X0175656Y0213232D01*
X0176574Y0215087D02*
X0178409Y0215087D01*
X0179326Y0216004D01*
X0179326Y0217839D01*
X0178409Y0218757D01*
X0177491Y0218757D01*
X0177491Y0215087D01*
X0176574Y0215087D02*
X0175656Y0216004D01*
X0175656Y0217839D01*
X0175656Y0220611D02*
X0175656Y0222446D01*
X0175656Y0221529D02*
X0181161Y0221529D01*
X0181161Y0220611D01*
X0186328Y0226957D02*
X0186328Y0207957D01*
X0186328Y0226957D01*
X0186328Y0206957D01*
X0186328Y0226957D01*
X0181161Y0229819D02*
X0177491Y0229819D01*
X0175656Y0231654D01*
X0177491Y0233489D01*
X0181161Y0233489D01*
X0178409Y0235344D02*
X0178409Y0239014D01*
X0181161Y0238096D02*
X0175656Y0238096D01*
X0178409Y0235344D02*
X0181161Y0238096D01*
X0190646Y0257997D02*
X0190439Y0258156D01*
X0190280Y0258363D01*
X0190181Y0258604D01*
X0190146Y0258863D01*
X0191146Y0257863D01*
X0190888Y0257897D01*
X0190646Y0257997D01*
X0190442Y0258154D02*
X0190856Y0258154D01*
X0190357Y0258652D02*
X0190174Y0258652D01*
X0228674Y0246682D02*
X0229674Y0245682D01*
X0229640Y0245941D01*
X0229540Y0246182D01*
X0229381Y0246389D01*
X0229174Y0246548D01*
X0228933Y0246648D01*
X0228674Y0246682D01*
X0229166Y0246190D02*
X0229534Y0246190D01*
X0229665Y0245691D02*
X0229673Y0245691D01*
X0231839Y0229320D02*
X0231839Y0209320D01*
X0231839Y0228320D01*
X0231839Y0209320D01*
X0231839Y0229320D01*
X0262863Y0250107D02*
X0262863Y0270107D01*
X0262863Y0251107D01*
X0262863Y0270107D01*
X0262863Y0250107D01*
X0264787Y0250809D02*
X0264753Y0251068D01*
X0265753Y0250068D01*
X0265494Y0250102D01*
X0265253Y0250202D01*
X0265046Y0250361D01*
X0264887Y0250568D01*
X0264787Y0250809D01*
X0264842Y0250676D02*
X0265144Y0250676D01*
X0265311Y0250178D02*
X0265643Y0250178D01*
X0301233Y0234713D02*
X0302233Y0233713D01*
X0302199Y0233972D01*
X0302099Y0234213D01*
X0301940Y0234420D01*
X0301733Y0234579D01*
X0301492Y0234679D01*
X0301233Y0234713D01*
X0301721Y0234225D02*
X0302090Y0234225D01*
X0302220Y0233727D02*
X0302231Y0233727D01*
X0306367Y0234383D02*
X0306367Y0215383D01*
X0306367Y0235383D01*
X0306367Y0215383D01*
X0306367Y0234383D01*
X0307115Y0267430D02*
X0327115Y0267430D01*
X0308115Y0267430D01*
X0327115Y0267430D01*
X0307115Y0267430D01*
X0374619Y0250461D02*
X0375619Y0249461D01*
X0375585Y0249720D01*
X0375485Y0249961D01*
X0375326Y0250169D01*
X0375119Y0250327D01*
X0374878Y0250427D01*
X0374619Y0250461D01*
X0374903Y0250178D02*
X0375314Y0250178D01*
X0375401Y0249679D02*
X0375590Y0249679D01*
X0411115Y0267430D02*
X0412115Y0268430D01*
X0412081Y0268171D01*
X0411981Y0267930D01*
X0411822Y0267723D01*
X0411615Y0267564D01*
X0411374Y0267464D01*
X0411115Y0267430D01*
X0411311Y0267626D02*
X0411695Y0267626D01*
X0411809Y0268124D02*
X0412061Y0268124D01*
X0418202Y0258335D02*
X0419202Y0257335D01*
X0419167Y0257594D01*
X0419068Y0257835D01*
X0418909Y0258043D01*
X0418702Y0258201D01*
X0418460Y0258301D01*
X0418202Y0258335D01*
X0418383Y0258154D02*
X0418764Y0258154D01*
X0418882Y0257655D02*
X0419142Y0257655D01*
X0382587Y0182154D02*
X0382587Y0162154D01*
X0382587Y0181154D01*
X0382587Y0162154D01*
X0382587Y0182154D01*
X0375619Y0165461D02*
X0375619Y0146461D01*
X0375619Y0165461D01*
X0375619Y0145461D01*
X0375619Y0165461D01*
X0419202Y0173335D02*
X0419202Y0154335D01*
X0419202Y0173335D01*
X0419202Y0153335D01*
X0419202Y0173335D01*
X0374910Y0119320D02*
X0354910Y0119320D01*
X0373910Y0119320D01*
X0354910Y0119320D01*
X0374910Y0119320D01*
X0382587Y0078154D02*
X0383587Y0077154D01*
X0383329Y0077188D01*
X0383087Y0077288D01*
X0382880Y0077447D01*
X0382721Y0077654D01*
X0382621Y0077896D01*
X0382587Y0078154D01*
X0382705Y0077693D02*
X0383049Y0077693D01*
X0383314Y0077194D02*
X0383547Y0077194D01*
X0370461Y0049375D02*
X0369461Y0048375D01*
X0369720Y0048409D01*
X0369961Y0048509D01*
X0370169Y0048668D01*
X0370327Y0048875D01*
X0370427Y0049116D01*
X0370461Y0049375D01*
X0370449Y0049278D02*
X0370364Y0049278D01*
X0370254Y0048779D02*
X0369866Y0048779D01*
X0285461Y0048375D02*
X0266461Y0048375D01*
X0285461Y0048375D01*
X0265461Y0048375D01*
X0285461Y0048375D01*
X0258257Y0049650D02*
X0257257Y0048650D01*
X0257516Y0048684D01*
X0257757Y0048784D01*
X0257964Y0048943D01*
X0258123Y0049150D01*
X0258223Y0049392D01*
X0258257Y0049650D01*
X0258175Y0049278D02*
X0257884Y0049278D01*
X0257744Y0048779D02*
X0257385Y0048779D01*
X0243231Y0089294D02*
X0244148Y0090212D01*
X0243231Y0089294D02*
X0241396Y0089294D01*
X0240479Y0090212D01*
X0240479Y0091129D01*
X0241396Y0092046D01*
X0242314Y0092046D01*
X0241396Y0092046D02*
X0240479Y0092964D01*
X0240479Y0093881D01*
X0241396Y0094799D01*
X0243231Y0094799D01*
X0244148Y0093881D01*
X0238624Y0094799D02*
X0238624Y0091129D01*
X0236789Y0089294D01*
X0234954Y0091129D01*
X0234954Y0094799D01*
X0233099Y0093881D02*
X0232182Y0094799D01*
X0230347Y0094799D01*
X0229429Y0093881D01*
X0229429Y0092964D01*
X0230347Y0092046D01*
X0229429Y0091129D01*
X0229429Y0090212D01*
X0230347Y0089294D01*
X0232182Y0089294D01*
X0233099Y0090212D01*
X0231264Y0092046D02*
X0230347Y0092046D01*
X0269910Y0118320D02*
X0270910Y0119320D01*
X0270651Y0119286D01*
X0270410Y0119186D01*
X0270203Y0119027D01*
X0270044Y0118820D01*
X0269944Y0118579D01*
X0269910Y0118320D01*
X0269943Y0118571D02*
X0270161Y0118571D01*
X0270258Y0119069D02*
X0270660Y0119069D01*
X0302233Y0129713D02*
X0302233Y0149713D01*
X0302233Y0130713D01*
X0302233Y0149713D01*
X0302233Y0129713D01*
X0306401Y0131124D02*
X0306367Y0131383D01*
X0307367Y0130383D01*
X0307108Y0130417D01*
X0306867Y0130517D01*
X0306660Y0130676D01*
X0306501Y0130883D01*
X0306401Y0131124D01*
X0306438Y0131034D02*
X0306716Y0131034D01*
X0306843Y0130535D02*
X0307215Y0130535D01*
X0177491Y0204955D02*
X0176574Y0204037D01*
X0175656Y0204955D01*
X0159641Y0153491D02*
X0156889Y0153491D01*
X0096643Y0125698D02*
X0077643Y0125698D01*
X0096643Y0125698D01*
X0076643Y0125698D01*
X0096643Y0125698D01*
X0074713Y0180721D02*
X0073713Y0181721D01*
X0073972Y0181687D01*
X0074213Y0181587D01*
X0074420Y0181428D01*
X0074579Y0181221D01*
X0074679Y0180980D01*
X0074713Y0180721D01*
X0074692Y0180885D02*
X0074550Y0180885D01*
X0074455Y0181383D02*
X0074051Y0181383D01*
X0086682Y0197335D02*
X0087682Y0198335D01*
X0087423Y0198301D01*
X0087182Y0198201D01*
X0086975Y0198043D01*
X0086816Y0197835D01*
X0086716Y0197594D01*
X0086682Y0197335D01*
X0086682Y0197336D02*
X0086682Y0197336D01*
X0086815Y0197834D02*
X0087180Y0197834D01*
X0087660Y0198333D02*
X0087679Y0198333D01*
X0111839Y0208690D02*
X0111839Y0228690D01*
X0111839Y0209690D01*
X0111839Y0228690D01*
X0111839Y0208690D01*
X0113904Y0210912D02*
X0114111Y0210753D01*
X0114352Y0210653D01*
X0114611Y0210619D01*
X0113611Y0211619D01*
X0113645Y0211360D01*
X0113745Y0211119D01*
X0113904Y0210912D01*
X0114056Y0210795D02*
X0114435Y0210795D01*
X0113936Y0211294D02*
X0113673Y0211294D01*
X0043036Y0201013D02*
X0042036Y0202013D01*
X0042070Y0201754D01*
X0042170Y0201513D01*
X0042329Y0201305D01*
X0042536Y0201147D01*
X0042777Y0201047D01*
X0043036Y0201013D01*
X0042725Y0201324D02*
X0042315Y0201324D01*
X0042227Y0201822D02*
X0042061Y0201822D01*
X0042036Y0286013D02*
X0042036Y0305013D01*
X0042036Y0286013D01*
X0042036Y0306013D01*
X0042036Y0286013D01*
X0047351Y0324517D02*
X0067351Y0324517D01*
X0048351Y0324517D01*
X0067351Y0324517D01*
X0047351Y0324517D01*
X0110839Y0313690D02*
X0111839Y0312690D01*
X0111805Y0312949D01*
X0111705Y0313190D01*
X0111546Y0313397D01*
X0111339Y0313556D01*
X0111098Y0313656D01*
X0110839Y0313690D01*
X0111040Y0313489D02*
X0111427Y0313489D01*
X0111539Y0312990D02*
X0111788Y0312990D01*
X0113611Y0314619D02*
X0113611Y0295619D01*
X0113611Y0315619D01*
X0113611Y0295619D01*
X0113611Y0314619D01*
X0151351Y0324517D02*
X0152351Y0325517D01*
X0152317Y0325258D01*
X0152217Y0325017D01*
X0152058Y0324809D01*
X0151851Y0324651D01*
X0151610Y0324551D01*
X0151351Y0324517D01*
X0151789Y0324954D02*
X0152170Y0324954D01*
X0152288Y0325453D02*
X0152343Y0325453D01*
X0185328Y0311957D02*
X0186328Y0310957D01*
X0186293Y0311216D01*
X0186194Y0311457D01*
X0186035Y0311665D01*
X0185828Y0311824D01*
X0185586Y0311923D01*
X0185328Y0311957D01*
X0185790Y0311495D02*
X0186165Y0311495D01*
X0186289Y0310996D02*
X0186322Y0310996D01*
X0190146Y0342863D02*
X0190146Y0361863D01*
X0190146Y0342863D01*
X0190146Y0362863D01*
X0190146Y0342863D01*
X0261863Y0355107D02*
X0262863Y0354107D01*
X0262829Y0354366D01*
X0262729Y0354607D01*
X0262570Y0354814D01*
X0262363Y0354973D01*
X0262122Y0355073D01*
X0261863Y0355107D01*
X0262105Y0354865D02*
X0262504Y0354865D01*
X0262603Y0354367D02*
X0262829Y0354367D01*
X0264753Y0354068D02*
X0264753Y0335068D01*
X0264753Y0355068D01*
X0264753Y0335068D01*
X0264753Y0354068D01*
X0312936Y0341295D02*
X0313036Y0341536D01*
X0313195Y0341743D01*
X0313402Y0341902D01*
X0313644Y0342002D01*
X0313902Y0342036D01*
X0312902Y0341036D01*
X0312936Y0341295D01*
X0312982Y0341405D02*
X0313271Y0341405D01*
X0313406Y0341904D02*
X0313770Y0341904D01*
X0397902Y0342036D02*
X0416902Y0342036D01*
X0397902Y0342036D01*
X0417902Y0342036D01*
X0397902Y0342036D01*
X0173257Y0048650D02*
X0154257Y0048650D01*
X0173257Y0048650D01*
X0153257Y0048650D01*
X0173257Y0048650D01*
M02*
