G75*
%MOIN*%
%OFA0B0*%
%FSLAX25Y25*%
%IPPOS*%
%LPD*%
%AMOC8*
5,1,8,0,0,1.08239X$1,22.5*
%
%ADD10C,0.13635*%
%ADD11C,0.01600*%
%ADD12C,0.05950*%
%ADD13R,0.05792X0.05792*%
%ADD14C,0.03162*%
%ADD15R,0.04762X0.04762*%
%ADD16R,0.10249X0.10249*%
%ADD17R,0.09658X0.09658*%
D10*
X0047548Y0054595D03*
X0047548Y0353808D03*
X0407784Y0353808D03*
X0407784Y0054595D03*
D11*
X0067233Y0041800D02*
X0012115Y0041800D01*
X0035737Y0041800D01*
X0037706Y0039831D01*
X0031800Y0041800D01*
X0067233Y0041800D01*
X0067233Y0112666D01*
X0102666Y0112666D01*
X0102666Y0136288D01*
X0067233Y0136288D01*
X0067233Y0370540D01*
X0012115Y0370540D01*
X0012115Y0041800D01*
X0012115Y0043399D02*
X0067233Y0043399D01*
X0067233Y0044997D02*
X0012115Y0044997D01*
X0012115Y0046596D02*
X0067233Y0046596D01*
X0067233Y0048194D02*
X0012115Y0048194D01*
X0012115Y0049793D02*
X0067233Y0049793D01*
X0067233Y0051391D02*
X0012115Y0051391D01*
X0012115Y0052990D02*
X0067233Y0052990D01*
X0067233Y0054588D02*
X0012115Y0054588D01*
X0012115Y0056187D02*
X0067233Y0056187D01*
X0067233Y0057785D02*
X0012115Y0057785D01*
X0012115Y0059384D02*
X0067233Y0059384D01*
X0067233Y0060982D02*
X0012115Y0060982D01*
X0012115Y0062581D02*
X0067233Y0062581D01*
X0067233Y0064179D02*
X0012115Y0064179D01*
X0012115Y0065778D02*
X0067233Y0065778D01*
X0067233Y0067376D02*
X0012115Y0067376D01*
X0012115Y0068975D02*
X0067233Y0068975D01*
X0067233Y0070573D02*
X0012115Y0070573D01*
X0012115Y0072172D02*
X0067233Y0072172D01*
X0067233Y0073770D02*
X0012115Y0073770D01*
X0012115Y0075369D02*
X0067233Y0075369D01*
X0067233Y0076967D02*
X0012115Y0076967D01*
X0012115Y0078566D02*
X0067233Y0078566D01*
X0067233Y0080164D02*
X0012115Y0080164D01*
X0012115Y0081763D02*
X0067233Y0081763D01*
X0067233Y0083361D02*
X0012115Y0083361D01*
X0012115Y0084960D02*
X0067233Y0084960D01*
X0067233Y0086558D02*
X0012115Y0086558D01*
X0012115Y0088157D02*
X0067233Y0088157D01*
X0067233Y0089755D02*
X0012115Y0089755D01*
X0012115Y0091354D02*
X0067233Y0091354D01*
X0067233Y0092952D02*
X0012115Y0092952D01*
X0012115Y0094551D02*
X0067233Y0094551D01*
X0067233Y0096149D02*
X0012115Y0096149D01*
X0012115Y0097748D02*
X0067233Y0097748D01*
X0067233Y0099346D02*
X0012115Y0099346D01*
X0012115Y0100945D02*
X0067233Y0100945D01*
X0067233Y0102543D02*
X0012115Y0102543D01*
X0012115Y0104142D02*
X0067233Y0104142D01*
X0067233Y0105740D02*
X0012115Y0105740D01*
X0012115Y0107339D02*
X0067233Y0107339D01*
X0067233Y0108937D02*
X0012115Y0108937D01*
X0012115Y0110536D02*
X0067233Y0110536D01*
X0067233Y0112134D02*
X0012115Y0112134D01*
X0012115Y0113733D02*
X0102666Y0113733D01*
X0102666Y0115332D02*
X0012115Y0115332D01*
X0012115Y0116930D02*
X0102666Y0116930D01*
X0102666Y0118529D02*
X0012115Y0118529D01*
X0012115Y0120127D02*
X0102666Y0120127D01*
X0102666Y0121726D02*
X0012115Y0121726D01*
X0012115Y0123324D02*
X0102666Y0123324D01*
X0102666Y0124923D02*
X0012115Y0124923D01*
X0012115Y0126521D02*
X0102666Y0126521D01*
X0102666Y0128120D02*
X0012115Y0128120D01*
X0012115Y0129718D02*
X0102666Y0129718D01*
X0102666Y0131317D02*
X0012115Y0131317D01*
X0012115Y0132915D02*
X0102666Y0132915D01*
X0102666Y0134514D02*
X0012115Y0134514D01*
X0012115Y0136112D02*
X0102666Y0136112D01*
X0067233Y0137711D02*
X0012115Y0137711D01*
X0012115Y0139309D02*
X0067233Y0139309D01*
X0067233Y0140908D02*
X0012115Y0140908D01*
X0012115Y0142506D02*
X0067233Y0142506D01*
X0067233Y0144105D02*
X0012115Y0144105D01*
X0012115Y0145703D02*
X0067233Y0145703D01*
X0067233Y0147302D02*
X0012115Y0147302D01*
X0012115Y0148900D02*
X0067233Y0148900D01*
X0067233Y0150499D02*
X0012115Y0150499D01*
X0012115Y0152097D02*
X0067233Y0152097D01*
X0067233Y0153696D02*
X0012115Y0153696D01*
X0012115Y0155294D02*
X0067233Y0155294D01*
X0067233Y0156893D02*
X0012115Y0156893D01*
X0012115Y0158491D02*
X0067233Y0158491D01*
X0067233Y0160090D02*
X0012115Y0160090D01*
X0012115Y0161688D02*
X0067233Y0161688D01*
X0067233Y0163287D02*
X0012115Y0163287D01*
X0012115Y0164885D02*
X0067233Y0164885D01*
X0067233Y0166484D02*
X0012115Y0166484D01*
X0012115Y0168082D02*
X0067233Y0168082D01*
X0067233Y0169681D02*
X0012115Y0169681D01*
X0012115Y0171279D02*
X0067233Y0171279D01*
X0067233Y0172878D02*
X0012115Y0172878D01*
X0012115Y0174476D02*
X0067233Y0174476D01*
X0067233Y0176075D02*
X0012115Y0176075D01*
X0012115Y0177673D02*
X0067233Y0177673D01*
X0067233Y0179272D02*
X0012115Y0179272D01*
X0012115Y0180870D02*
X0067233Y0180870D01*
X0067233Y0182469D02*
X0012115Y0182469D01*
X0012115Y0184068D02*
X0067233Y0184068D01*
X0067233Y0185666D02*
X0012115Y0185666D01*
X0012115Y0187265D02*
X0067233Y0187265D01*
X0067233Y0188863D02*
X0012115Y0188863D01*
X0012115Y0190462D02*
X0067233Y0190462D01*
X0067233Y0192060D02*
X0012115Y0192060D01*
X0012115Y0193659D02*
X0067233Y0193659D01*
X0067233Y0195257D02*
X0012115Y0195257D01*
X0012115Y0196856D02*
X0067233Y0196856D01*
X0067233Y0198454D02*
X0012115Y0198454D01*
X0012115Y0200053D02*
X0067233Y0200053D01*
X0067233Y0201651D02*
X0012115Y0201651D01*
X0012115Y0203250D02*
X0067233Y0203250D01*
X0067233Y0204848D02*
X0012115Y0204848D01*
X0012115Y0206447D02*
X0067233Y0206447D01*
X0067233Y0208045D02*
X0012115Y0208045D01*
X0012115Y0209644D02*
X0067233Y0209644D01*
X0067233Y0211242D02*
X0012115Y0211242D01*
X0012115Y0212841D02*
X0067233Y0212841D01*
X0067233Y0214439D02*
X0012115Y0214439D01*
X0012115Y0216038D02*
X0067233Y0216038D01*
X0067233Y0217636D02*
X0012115Y0217636D01*
X0012115Y0219235D02*
X0067233Y0219235D01*
X0067233Y0220833D02*
X0012115Y0220833D01*
X0012115Y0222432D02*
X0067233Y0222432D01*
X0067233Y0224030D02*
X0012115Y0224030D01*
X0012115Y0225629D02*
X0067233Y0225629D01*
X0067233Y0227227D02*
X0012115Y0227227D01*
X0012115Y0228826D02*
X0067233Y0228826D01*
X0067233Y0230424D02*
X0012115Y0230424D01*
X0012115Y0232023D02*
X0067233Y0232023D01*
X0067233Y0233621D02*
X0012115Y0233621D01*
X0012115Y0235220D02*
X0067233Y0235220D01*
X0067233Y0236818D02*
X0012115Y0236818D01*
X0012115Y0238417D02*
X0067233Y0238417D01*
X0067233Y0240015D02*
X0012115Y0240015D01*
X0012115Y0241614D02*
X0067233Y0241614D01*
X0067233Y0243212D02*
X0012115Y0243212D01*
X0012115Y0244811D02*
X0067233Y0244811D01*
X0067233Y0246409D02*
X0012115Y0246409D01*
X0012115Y0248008D02*
X0067233Y0248008D01*
X0067233Y0249606D02*
X0012115Y0249606D01*
X0012115Y0251205D02*
X0067233Y0251205D01*
X0067233Y0252803D02*
X0012115Y0252803D01*
X0012115Y0254402D02*
X0067233Y0254402D01*
X0067233Y0256001D02*
X0012115Y0256001D01*
X0012115Y0257599D02*
X0067233Y0257599D01*
X0067233Y0259198D02*
X0012115Y0259198D01*
X0012115Y0260796D02*
X0067233Y0260796D01*
X0067233Y0262395D02*
X0012115Y0262395D01*
X0012115Y0263993D02*
X0067233Y0263993D01*
X0067233Y0265592D02*
X0012115Y0265592D01*
X0012115Y0267190D02*
X0067233Y0267190D01*
X0067233Y0268789D02*
X0012115Y0268789D01*
X0012115Y0270387D02*
X0067233Y0270387D01*
X0067233Y0271986D02*
X0012115Y0271986D01*
X0012115Y0273584D02*
X0067233Y0273584D01*
X0067233Y0275183D02*
X0012115Y0275183D01*
X0012115Y0276781D02*
X0067233Y0276781D01*
X0067233Y0278380D02*
X0012115Y0278380D01*
X0012115Y0279978D02*
X0067233Y0279978D01*
X0067233Y0281577D02*
X0012115Y0281577D01*
X0012115Y0283175D02*
X0067233Y0283175D01*
X0067233Y0284774D02*
X0012115Y0284774D01*
X0012115Y0286372D02*
X0067233Y0286372D01*
X0067233Y0287971D02*
X0012115Y0287971D01*
X0012115Y0289569D02*
X0067233Y0289569D01*
X0067233Y0291168D02*
X0012115Y0291168D01*
X0012115Y0292766D02*
X0067233Y0292766D01*
X0067233Y0294365D02*
X0012115Y0294365D01*
X0012115Y0295963D02*
X0067233Y0295963D01*
X0067233Y0297562D02*
X0012115Y0297562D01*
X0012115Y0299160D02*
X0067233Y0299160D01*
X0067233Y0300759D02*
X0012115Y0300759D01*
X0012115Y0302357D02*
X0067233Y0302357D01*
X0067233Y0303956D02*
X0012115Y0303956D01*
X0012115Y0305554D02*
X0067233Y0305554D01*
X0067233Y0307153D02*
X0012115Y0307153D01*
X0012115Y0308751D02*
X0067233Y0308751D01*
X0067233Y0310350D02*
X0012115Y0310350D01*
X0012115Y0311948D02*
X0067233Y0311948D01*
X0067233Y0313547D02*
X0012115Y0313547D01*
X0012115Y0315145D02*
X0067233Y0315145D01*
X0067233Y0316744D02*
X0012115Y0316744D01*
X0012115Y0318342D02*
X0067233Y0318342D01*
X0067233Y0319941D02*
X0012115Y0319941D01*
X0012115Y0321539D02*
X0067233Y0321539D01*
X0067233Y0323138D02*
X0012115Y0323138D01*
X0012115Y0324737D02*
X0067233Y0324737D01*
X0067233Y0326335D02*
X0012115Y0326335D01*
X0012115Y0327934D02*
X0067233Y0327934D01*
X0067233Y0329532D02*
X0012115Y0329532D01*
X0012115Y0331131D02*
X0067233Y0331131D01*
X0067233Y0332729D02*
X0012115Y0332729D01*
X0012115Y0334328D02*
X0067233Y0334328D01*
X0067233Y0335926D02*
X0012115Y0335926D01*
X0012115Y0337525D02*
X0067233Y0337525D01*
X0067233Y0339123D02*
X0012115Y0339123D01*
X0012115Y0340722D02*
X0067233Y0340722D01*
X0067233Y0342320D02*
X0012115Y0342320D01*
X0012115Y0343919D02*
X0067233Y0343919D01*
X0067233Y0345517D02*
X0012115Y0345517D01*
X0012115Y0347116D02*
X0067233Y0347116D01*
X0067233Y0348714D02*
X0012115Y0348714D01*
X0012115Y0350313D02*
X0067233Y0350313D01*
X0067233Y0351911D02*
X0012115Y0351911D01*
X0012115Y0353510D02*
X0067233Y0353510D01*
X0067233Y0355108D02*
X0012115Y0355108D01*
X0012115Y0356707D02*
X0067233Y0356707D01*
X0067233Y0358305D02*
X0012115Y0358305D01*
X0012115Y0359904D02*
X0067233Y0359904D01*
X0067233Y0361502D02*
X0012115Y0361502D01*
X0012115Y0363101D02*
X0067233Y0363101D01*
X0067233Y0364699D02*
X0012115Y0364699D01*
X0012115Y0366298D02*
X0067233Y0366298D01*
X0067233Y0367896D02*
X0012115Y0367896D01*
X0012115Y0369495D02*
X0067233Y0369495D01*
X0350698Y0134320D02*
X0388099Y0134320D01*
X0388099Y0374477D01*
X0451091Y0374477D01*
X0451091Y0041800D01*
X0388099Y0041800D01*
X0388099Y0110698D01*
X0350698Y0110698D01*
X0350698Y0134320D01*
X0350698Y0132915D02*
X0451091Y0132915D01*
X0451091Y0131317D02*
X0350698Y0131317D01*
X0350698Y0129718D02*
X0451091Y0129718D01*
X0451091Y0128120D02*
X0350698Y0128120D01*
X0350698Y0126521D02*
X0451091Y0126521D01*
X0451091Y0124923D02*
X0350698Y0124923D01*
X0350698Y0123324D02*
X0451091Y0123324D01*
X0451091Y0121726D02*
X0350698Y0121726D01*
X0350698Y0120127D02*
X0451091Y0120127D01*
X0451091Y0118529D02*
X0350698Y0118529D01*
X0350698Y0116930D02*
X0451091Y0116930D01*
X0451091Y0115332D02*
X0350698Y0115332D01*
X0350698Y0113733D02*
X0451091Y0113733D01*
X0451091Y0112134D02*
X0350698Y0112134D01*
X0388099Y0110536D02*
X0451091Y0110536D01*
X0451091Y0108937D02*
X0388099Y0108937D01*
X0388099Y0107339D02*
X0451091Y0107339D01*
X0451091Y0105740D02*
X0388099Y0105740D01*
X0388099Y0104142D02*
X0451091Y0104142D01*
X0451091Y0102543D02*
X0388099Y0102543D01*
X0388099Y0100945D02*
X0451091Y0100945D01*
X0451091Y0099346D02*
X0388099Y0099346D01*
X0388099Y0097748D02*
X0451091Y0097748D01*
X0451091Y0096149D02*
X0388099Y0096149D01*
X0388099Y0094551D02*
X0451091Y0094551D01*
X0451091Y0092952D02*
X0388099Y0092952D01*
X0388099Y0091354D02*
X0451091Y0091354D01*
X0451091Y0089755D02*
X0388099Y0089755D01*
X0388099Y0088157D02*
X0451091Y0088157D01*
X0451091Y0086558D02*
X0388099Y0086558D01*
X0388099Y0084960D02*
X0451091Y0084960D01*
X0451091Y0083361D02*
X0388099Y0083361D01*
X0388099Y0081763D02*
X0451091Y0081763D01*
X0451091Y0080164D02*
X0388099Y0080164D01*
X0388099Y0078566D02*
X0451091Y0078566D01*
X0451091Y0076967D02*
X0388099Y0076967D01*
X0388099Y0075369D02*
X0451091Y0075369D01*
X0451091Y0073770D02*
X0388099Y0073770D01*
X0388099Y0072172D02*
X0451091Y0072172D01*
X0451091Y0070573D02*
X0388099Y0070573D01*
X0388099Y0068975D02*
X0451091Y0068975D01*
X0451091Y0067376D02*
X0388099Y0067376D01*
X0388099Y0065778D02*
X0451091Y0065778D01*
X0451091Y0064179D02*
X0388099Y0064179D01*
X0388099Y0062581D02*
X0451091Y0062581D01*
X0451091Y0060982D02*
X0388099Y0060982D01*
X0388099Y0059384D02*
X0451091Y0059384D01*
X0451091Y0057785D02*
X0388099Y0057785D01*
X0388099Y0056187D02*
X0451091Y0056187D01*
X0451091Y0054588D02*
X0388099Y0054588D01*
X0388099Y0052990D02*
X0451091Y0052990D01*
X0451091Y0051391D02*
X0388099Y0051391D01*
X0388099Y0049793D02*
X0451091Y0049793D01*
X0451091Y0048194D02*
X0388099Y0048194D01*
X0388099Y0046596D02*
X0451091Y0046596D01*
X0451091Y0044997D02*
X0388099Y0044997D01*
X0388099Y0043399D02*
X0451091Y0043399D01*
X0451091Y0041800D02*
X0423532Y0041800D01*
X0388099Y0041800D01*
X0388099Y0134514D02*
X0451091Y0134514D01*
X0451091Y0136112D02*
X0388099Y0136112D01*
X0388099Y0137711D02*
X0451091Y0137711D01*
X0451091Y0139309D02*
X0388099Y0139309D01*
X0388099Y0140908D02*
X0451091Y0140908D01*
X0451091Y0142506D02*
X0388099Y0142506D01*
X0388099Y0144105D02*
X0451091Y0144105D01*
X0451091Y0145703D02*
X0388099Y0145703D01*
X0388099Y0147302D02*
X0451091Y0147302D01*
X0451091Y0148900D02*
X0388099Y0148900D01*
X0388099Y0150499D02*
X0451091Y0150499D01*
X0451091Y0152097D02*
X0388099Y0152097D01*
X0388099Y0153696D02*
X0451091Y0153696D01*
X0451091Y0155294D02*
X0388099Y0155294D01*
X0388099Y0156893D02*
X0451091Y0156893D01*
X0451091Y0158491D02*
X0388099Y0158491D01*
X0388099Y0160090D02*
X0451091Y0160090D01*
X0451091Y0161688D02*
X0388099Y0161688D01*
X0388099Y0163287D02*
X0451091Y0163287D01*
X0451091Y0164885D02*
X0388099Y0164885D01*
X0388099Y0166484D02*
X0451091Y0166484D01*
X0451091Y0168082D02*
X0388099Y0168082D01*
X0388099Y0169681D02*
X0451091Y0169681D01*
X0451091Y0171279D02*
X0388099Y0171279D01*
X0388099Y0172878D02*
X0451091Y0172878D01*
X0451091Y0174476D02*
X0388099Y0174476D01*
X0388099Y0176075D02*
X0451091Y0176075D01*
X0451091Y0177673D02*
X0388099Y0177673D01*
X0388099Y0179272D02*
X0451091Y0179272D01*
X0451091Y0180870D02*
X0388099Y0180870D01*
X0388099Y0182469D02*
X0451091Y0182469D01*
X0451091Y0184068D02*
X0388099Y0184068D01*
X0388099Y0185666D02*
X0451091Y0185666D01*
X0451091Y0187265D02*
X0388099Y0187265D01*
X0388099Y0188863D02*
X0451091Y0188863D01*
X0451091Y0190462D02*
X0388099Y0190462D01*
X0388099Y0192060D02*
X0451091Y0192060D01*
X0451091Y0193659D02*
X0388099Y0193659D01*
X0388099Y0195257D02*
X0451091Y0195257D01*
X0451091Y0196856D02*
X0388099Y0196856D01*
X0388099Y0198454D02*
X0451091Y0198454D01*
X0451091Y0200053D02*
X0388099Y0200053D01*
X0388099Y0201651D02*
X0451091Y0201651D01*
X0451091Y0203250D02*
X0388099Y0203250D01*
X0388099Y0204848D02*
X0451091Y0204848D01*
X0451091Y0206447D02*
X0388099Y0206447D01*
X0388099Y0208045D02*
X0451091Y0208045D01*
X0451091Y0209644D02*
X0388099Y0209644D01*
X0388099Y0211242D02*
X0451091Y0211242D01*
X0451091Y0212841D02*
X0388099Y0212841D01*
X0388099Y0214439D02*
X0451091Y0214439D01*
X0451091Y0216038D02*
X0388099Y0216038D01*
X0388099Y0217636D02*
X0451091Y0217636D01*
X0451091Y0219235D02*
X0388099Y0219235D01*
X0388099Y0220833D02*
X0451091Y0220833D01*
X0451091Y0222432D02*
X0388099Y0222432D01*
X0388099Y0224030D02*
X0451091Y0224030D01*
X0451091Y0225629D02*
X0388099Y0225629D01*
X0388099Y0227227D02*
X0451091Y0227227D01*
X0451091Y0228826D02*
X0388099Y0228826D01*
X0388099Y0230424D02*
X0451091Y0230424D01*
X0451091Y0232023D02*
X0388099Y0232023D01*
X0388099Y0233621D02*
X0451091Y0233621D01*
X0451091Y0235220D02*
X0388099Y0235220D01*
X0388099Y0236818D02*
X0451091Y0236818D01*
X0451091Y0238417D02*
X0388099Y0238417D01*
X0388099Y0240015D02*
X0451091Y0240015D01*
X0451091Y0241614D02*
X0388099Y0241614D01*
X0388099Y0243212D02*
X0451091Y0243212D01*
X0451091Y0244811D02*
X0388099Y0244811D01*
X0388099Y0246409D02*
X0451091Y0246409D01*
X0451091Y0248008D02*
X0388099Y0248008D01*
X0388099Y0249606D02*
X0451091Y0249606D01*
X0451091Y0251205D02*
X0388099Y0251205D01*
X0388099Y0252803D02*
X0451091Y0252803D01*
X0451091Y0254402D02*
X0388099Y0254402D01*
X0388099Y0256001D02*
X0451091Y0256001D01*
X0451091Y0257599D02*
X0388099Y0257599D01*
X0388099Y0259198D02*
X0451091Y0259198D01*
X0451091Y0260796D02*
X0388099Y0260796D01*
X0388099Y0262395D02*
X0451091Y0262395D01*
X0451091Y0263993D02*
X0388099Y0263993D01*
X0388099Y0265592D02*
X0451091Y0265592D01*
X0451091Y0267190D02*
X0388099Y0267190D01*
X0388099Y0268789D02*
X0451091Y0268789D01*
X0451091Y0270387D02*
X0388099Y0270387D01*
X0388099Y0271986D02*
X0451091Y0271986D01*
X0451091Y0273584D02*
X0388099Y0273584D01*
X0388099Y0275183D02*
X0451091Y0275183D01*
X0451091Y0276781D02*
X0388099Y0276781D01*
X0388099Y0278380D02*
X0451091Y0278380D01*
X0451091Y0279978D02*
X0388099Y0279978D01*
X0388099Y0281577D02*
X0451091Y0281577D01*
X0451091Y0283175D02*
X0388099Y0283175D01*
X0388099Y0284774D02*
X0451091Y0284774D01*
X0451091Y0286372D02*
X0388099Y0286372D01*
X0388099Y0287971D02*
X0451091Y0287971D01*
X0451091Y0289569D02*
X0388099Y0289569D01*
X0388099Y0291168D02*
X0451091Y0291168D01*
X0451091Y0292766D02*
X0388099Y0292766D01*
X0388099Y0294365D02*
X0451091Y0294365D01*
X0451091Y0295963D02*
X0388099Y0295963D01*
X0388099Y0297562D02*
X0451091Y0297562D01*
X0451091Y0299160D02*
X0388099Y0299160D01*
X0388099Y0300759D02*
X0451091Y0300759D01*
X0451091Y0302357D02*
X0388099Y0302357D01*
X0388099Y0303956D02*
X0451091Y0303956D01*
X0451091Y0305554D02*
X0388099Y0305554D01*
X0388099Y0307153D02*
X0451091Y0307153D01*
X0451091Y0308751D02*
X0388099Y0308751D01*
X0388099Y0310350D02*
X0451091Y0310350D01*
X0451091Y0311948D02*
X0388099Y0311948D01*
X0388099Y0313547D02*
X0451091Y0313547D01*
X0451091Y0315145D02*
X0388099Y0315145D01*
X0388099Y0316744D02*
X0451091Y0316744D01*
X0451091Y0318342D02*
X0388099Y0318342D01*
X0388099Y0319941D02*
X0451091Y0319941D01*
X0451091Y0321539D02*
X0388099Y0321539D01*
X0388099Y0323138D02*
X0451091Y0323138D01*
X0451091Y0324737D02*
X0388099Y0324737D01*
X0388099Y0326335D02*
X0451091Y0326335D01*
X0451091Y0327934D02*
X0388099Y0327934D01*
X0388099Y0329532D02*
X0451091Y0329532D01*
X0451091Y0331131D02*
X0388099Y0331131D01*
X0388099Y0332729D02*
X0451091Y0332729D01*
X0451091Y0334328D02*
X0388099Y0334328D01*
X0388099Y0335926D02*
X0451091Y0335926D01*
X0451091Y0337525D02*
X0388099Y0337525D01*
X0388099Y0339123D02*
X0451091Y0339123D01*
X0451091Y0340722D02*
X0388099Y0340722D01*
X0388099Y0342320D02*
X0451091Y0342320D01*
X0451091Y0343919D02*
X0388099Y0343919D01*
X0388099Y0345517D02*
X0451091Y0345517D01*
X0451091Y0347116D02*
X0388099Y0347116D01*
X0388099Y0348714D02*
X0451091Y0348714D01*
X0451091Y0350313D02*
X0388099Y0350313D01*
X0388099Y0351911D02*
X0451091Y0351911D01*
X0451091Y0353510D02*
X0388099Y0353510D01*
X0388099Y0355108D02*
X0451091Y0355108D01*
X0451091Y0356707D02*
X0388099Y0356707D01*
X0388099Y0358305D02*
X0451091Y0358305D01*
X0451091Y0359904D02*
X0388099Y0359904D01*
X0388099Y0361502D02*
X0451091Y0361502D01*
X0451091Y0363101D02*
X0388099Y0363101D01*
X0388099Y0364699D02*
X0451091Y0364699D01*
X0451091Y0366298D02*
X0388099Y0366298D01*
X0388099Y0367896D02*
X0451091Y0367896D01*
X0451091Y0369495D02*
X0388099Y0369495D01*
X0388099Y0371093D02*
X0451091Y0371093D01*
X0451091Y0372692D02*
X0388099Y0372692D01*
X0388099Y0374290D02*
X0451091Y0374290D01*
X0037336Y0040201D02*
X0036596Y0040201D01*
D12*
X0192611Y0103650D03*
X0201643Y0094623D03*
X0210674Y0103650D03*
X0201643Y0112678D03*
D13*
X0186643Y0155698D03*
X0143611Y0205619D03*
X0081682Y0168335D03*
X0072036Y0196013D03*
X0044713Y0186721D03*
X0073887Y0054438D03*
X0263257Y0078650D03*
X0264910Y0089320D03*
X0261839Y0119320D03*
X0336367Y0125383D03*
X0375461Y0078375D03*
X0412587Y0072154D03*
X0272233Y0239713D03*
X0294753Y0245068D03*
X0345619Y0255461D03*
X0389202Y0263335D03*
X0417115Y0297430D03*
X0307902Y0312036D03*
X0232863Y0360107D03*
X0157351Y0354517D03*
X0156328Y0316957D03*
X0081839Y0318690D03*
X0199674Y0251682D03*
X0220146Y0252863D03*
D14*
X0208650Y0231839D03*
X0220540Y0213572D03*
X0207548Y0196564D03*
X0198611Y0211524D03*
X0144674Y0245776D03*
X0135737Y0260737D03*
X0122745Y0243729D03*
X0134635Y0225461D03*
X0164202Y0261839D03*
X0155265Y0276800D03*
X0177194Y0278847D03*
X0199280Y0290973D03*
X0212272Y0307981D03*
X0221209Y0293020D03*
X0211170Y0272706D03*
X0240737Y0304989D03*
X0231800Y0319950D03*
X0253729Y0321997D03*
X0241839Y0340265D03*
X0286879Y0300186D03*
X0295816Y0285225D03*
X0273887Y0283178D03*
X0285776Y0264910D03*
X0281209Y0219871D03*
X0293099Y0201603D03*
X0280107Y0184595D03*
X0271170Y0199556D03*
X0253965Y0174438D03*
X0262902Y0159477D03*
X0240973Y0157430D03*
X0252863Y0139162D03*
X0284753Y0098296D03*
X0303020Y0110186D03*
X0320028Y0097194D03*
X0305068Y0088257D03*
X0320343Y0070501D03*
X0335304Y0079438D03*
X0337351Y0057509D03*
X0355619Y0069398D03*
X0403611Y0091997D03*
X0391721Y0110265D03*
X0404713Y0127272D03*
X0413650Y0112312D03*
X0337430Y0165540D03*
X0328493Y0180501D03*
X0315501Y0163493D03*
X0327391Y0145225D03*
X0353493Y0200343D03*
X0344556Y0215304D03*
X0366485Y0217351D03*
X0354595Y0235619D03*
X0388139Y0223178D03*
X0397076Y0208217D03*
X0410068Y0225225D03*
X0398178Y0243493D03*
X0379005Y0276564D03*
X0361997Y0289556D03*
X0376957Y0298493D03*
X0397272Y0288454D03*
X0363020Y0319910D03*
X0348060Y0310973D03*
X0327745Y0321013D03*
X0346013Y0332902D03*
X0165304Y0297115D03*
X0119241Y0333650D03*
X0102233Y0346643D03*
X0117194Y0355580D03*
X0137509Y0345540D03*
X0090816Y0298847D03*
X0102706Y0280580D03*
X0089713Y0263572D03*
X0080776Y0278532D03*
X0064162Y0251131D03*
X0073099Y0236170D03*
X0051170Y0234123D03*
X0063060Y0215855D03*
X0101524Y0177312D03*
X0119792Y0189202D03*
X0136800Y0176209D03*
X0121839Y0167272D03*
X0131524Y0147824D03*
X0146485Y0156761D03*
X0166800Y0146721D03*
X0148532Y0134831D03*
X0111997Y0075304D03*
X0129005Y0062312D03*
X0114044Y0053375D03*
X0093729Y0063414D03*
X0052587Y0131603D03*
X0043650Y0146564D03*
X0065580Y0148611D03*
X0053690Y0166879D03*
X0208139Y0070776D03*
X0223099Y0079713D03*
X0243414Y0069674D03*
X0225146Y0057784D03*
D15*
X0232587Y0108729D03*
X0134162Y0122509D03*
X0187312Y0203217D03*
D16*
X0193217Y0144162D03*
X0206997Y0144162D03*
X0224713Y0128414D03*
X0250304Y0112666D03*
X0250304Y0098887D03*
D17*
X0169595Y0108729D03*
M02*
