G75*
%MOIN*%
%OFA0B0*%
%FSLAX25Y25*%
%IPPOS*%
%LPD*%
%AMOC8*
5,1,8,0,0,1.08239X$1,22.5*
%
%ADD10C,0.05150*%
%ADD11R,0.04992X0.04992*%
%ADD12C,0.01600*%
%ADD13R,0.03962X0.03962*%
%ADD14R,0.09449X0.09449*%
%ADD15R,0.08858X0.08858*%
%ADD16C,0.01200*%
D10*
X0192611Y0103650D03*
X0201643Y0094623D03*
X0210674Y0103650D03*
X0201643Y0112678D03*
D11*
X0186643Y0155698D03*
X0143611Y0205619D03*
X0081682Y0168335D03*
X0072036Y0196013D03*
X0044713Y0186721D03*
X0073887Y0054438D03*
X0263257Y0078650D03*
X0264910Y0089320D03*
X0261839Y0119320D03*
X0336367Y0125383D03*
X0375461Y0078375D03*
X0412587Y0072154D03*
X0272233Y0239713D03*
X0294753Y0245068D03*
X0345619Y0255461D03*
X0389202Y0263335D03*
X0417115Y0297430D03*
X0307902Y0312036D03*
X0232863Y0360107D03*
X0157351Y0354517D03*
X0156328Y0316957D03*
X0081839Y0318690D03*
X0199674Y0251682D03*
X0220146Y0252863D03*
D12*
X0056524Y0047708D02*
X0055416Y0046600D01*
X0399916Y0046600D01*
X0398808Y0047708D01*
X0397331Y0050266D01*
X0396567Y0053118D01*
X0396567Y0056072D01*
X0397331Y0058925D01*
X0398808Y0061483D01*
X0400897Y0063571D01*
X0403455Y0065048D01*
X0406307Y0065813D01*
X0409261Y0065813D01*
X0412114Y0065048D01*
X0414672Y0063571D01*
X0416760Y0061483D01*
X0418237Y0058925D01*
X0418732Y0057077D01*
X0418732Y0108951D01*
X0418721Y0108924D01*
X0417038Y0107241D01*
X0414840Y0106331D01*
X0412461Y0106331D01*
X0410262Y0107241D01*
X0408580Y0108924D01*
X0407669Y0111122D01*
X0407669Y0113502D01*
X0408580Y0115700D01*
X0410262Y0117382D01*
X0412461Y0118293D01*
X0414840Y0118293D01*
X0417038Y0117382D01*
X0418721Y0115700D01*
X0418732Y0115672D01*
X0418732Y0292934D01*
X0413790Y0292934D01*
X0412619Y0294105D01*
X0412619Y0300754D01*
X0413790Y0301926D01*
X0418732Y0301926D01*
X0418732Y0351326D01*
X0418237Y0349478D01*
X0416760Y0346920D01*
X0414672Y0344832D01*
X0412114Y0343355D01*
X0409261Y0342591D01*
X0406307Y0342591D01*
X0403455Y0343355D01*
X0400897Y0344832D01*
X0398808Y0346920D01*
X0397331Y0349478D01*
X0396567Y0352331D01*
X0396567Y0355285D01*
X0397331Y0358138D01*
X0398808Y0360695D01*
X0399916Y0361803D01*
X0237159Y0361803D01*
X0237159Y0360107D01*
X0232863Y0360107D01*
X0232863Y0355811D01*
X0235596Y0355811D01*
X0236054Y0355934D01*
X0236464Y0356171D01*
X0236799Y0356506D01*
X0237036Y0356916D01*
X0237159Y0357374D01*
X0237159Y0360107D01*
X0232863Y0360107D01*
X0232863Y0360107D01*
X0232863Y0355811D01*
X0230130Y0355811D01*
X0229672Y0355934D01*
X0229262Y0356171D01*
X0228927Y0356506D01*
X0228690Y0356916D01*
X0228567Y0357374D01*
X0228567Y0360107D01*
X0232863Y0360107D01*
X0232863Y0360107D01*
X0232863Y0360107D01*
X0228567Y0360107D01*
X0228567Y0361803D01*
X0055416Y0361803D01*
X0056524Y0360695D01*
X0058001Y0358138D01*
X0058765Y0355285D01*
X0058765Y0352331D01*
X0058001Y0349478D01*
X0056524Y0346920D01*
X0054436Y0344832D01*
X0051878Y0343355D01*
X0049025Y0342591D01*
X0046071Y0342591D01*
X0043218Y0343355D01*
X0040660Y0344832D01*
X0038572Y0346920D01*
X0037095Y0349478D01*
X0036600Y0351326D01*
X0036600Y0057077D01*
X0037095Y0058925D01*
X0038572Y0061483D01*
X0040660Y0063571D01*
X0043218Y0065048D01*
X0046071Y0065813D01*
X0049025Y0065813D01*
X0051878Y0065048D01*
X0054436Y0063571D01*
X0056524Y0061483D01*
X0058001Y0058925D01*
X0058765Y0056072D01*
X0058765Y0053118D01*
X0058001Y0050266D01*
X0056524Y0047708D01*
X0056805Y0048194D02*
X0110922Y0048194D01*
X0110656Y0048304D02*
X0112854Y0047394D01*
X0115234Y0047394D01*
X0117432Y0048304D01*
X0119115Y0049987D01*
X0120025Y0052185D01*
X0120025Y0054565D01*
X0119115Y0056763D01*
X0117432Y0058445D01*
X0115234Y0059356D01*
X0112854Y0059356D01*
X0110656Y0058445D01*
X0108974Y0056763D01*
X0108063Y0054565D01*
X0108063Y0052185D01*
X0108974Y0049987D01*
X0110656Y0048304D01*
X0109168Y0049793D02*
X0057728Y0049793D01*
X0058302Y0051391D02*
X0069391Y0051391D01*
X0069391Y0051113D02*
X0070562Y0049942D01*
X0077211Y0049942D01*
X0078383Y0051113D01*
X0078383Y0057762D01*
X0077211Y0058934D01*
X0070562Y0058934D01*
X0069391Y0057762D01*
X0069391Y0051113D01*
X0069391Y0052990D02*
X0058731Y0052990D01*
X0058765Y0054588D02*
X0069391Y0054588D01*
X0069391Y0056187D02*
X0058735Y0056187D01*
X0058306Y0057785D02*
X0069413Y0057785D01*
X0078360Y0057785D02*
X0091689Y0057785D01*
X0092539Y0057433D02*
X0094919Y0057433D01*
X0097117Y0058344D01*
X0098800Y0060026D01*
X0099710Y0062224D01*
X0099710Y0064604D01*
X0098800Y0066802D01*
X0097117Y0068485D01*
X0094919Y0069395D01*
X0092539Y0069395D01*
X0090341Y0068485D01*
X0088659Y0066802D01*
X0087748Y0064604D01*
X0087748Y0062224D01*
X0088659Y0060026D01*
X0090341Y0058344D01*
X0092539Y0057433D01*
X0095769Y0057785D02*
X0109996Y0057785D01*
X0108735Y0056187D02*
X0078383Y0056187D01*
X0078383Y0054588D02*
X0108073Y0054588D01*
X0108063Y0052990D02*
X0078383Y0052990D01*
X0078383Y0051391D02*
X0108392Y0051391D01*
X0117166Y0048194D02*
X0398527Y0048194D01*
X0397604Y0049793D02*
X0118920Y0049793D01*
X0119696Y0051391D02*
X0397030Y0051391D01*
X0396601Y0052990D02*
X0341291Y0052990D01*
X0340739Y0052438D02*
X0342422Y0054121D01*
X0343332Y0056319D01*
X0343332Y0058698D01*
X0342422Y0060897D01*
X0340739Y0062579D01*
X0338541Y0063490D01*
X0336161Y0063490D01*
X0333963Y0062579D01*
X0332281Y0060897D01*
X0331370Y0058698D01*
X0331370Y0056319D01*
X0332281Y0054121D01*
X0333963Y0052438D01*
X0336161Y0051528D01*
X0338541Y0051528D01*
X0340739Y0052438D01*
X0342615Y0054588D02*
X0396567Y0054588D01*
X0396598Y0056187D02*
X0343277Y0056187D01*
X0343332Y0057785D02*
X0397026Y0057785D01*
X0397596Y0059384D02*
X0343048Y0059384D01*
X0342336Y0060982D02*
X0398519Y0060982D01*
X0399906Y0062581D02*
X0340736Y0062581D01*
X0333967Y0062581D02*
X0228809Y0062581D01*
X0228534Y0062855D02*
X0226336Y0063765D01*
X0223957Y0063765D01*
X0221758Y0062855D01*
X0220076Y0061172D01*
X0219165Y0058974D01*
X0219165Y0056595D01*
X0220076Y0054396D01*
X0221758Y0052714D01*
X0223957Y0051803D01*
X0226336Y0051803D01*
X0228534Y0052714D01*
X0230217Y0054396D01*
X0231128Y0056595D01*
X0231128Y0058974D01*
X0230217Y0061172D01*
X0228534Y0062855D01*
X0230296Y0060982D02*
X0332366Y0060982D01*
X0331654Y0059384D02*
X0230958Y0059384D01*
X0231128Y0057785D02*
X0331370Y0057785D01*
X0331425Y0056187D02*
X0230959Y0056187D01*
X0230296Y0054588D02*
X0332087Y0054588D01*
X0333412Y0052990D02*
X0228810Y0052990D01*
X0221483Y0052990D02*
X0120025Y0052990D01*
X0120015Y0054588D02*
X0219996Y0054588D01*
X0219334Y0056187D02*
X0119353Y0056187D01*
X0118092Y0057785D02*
X0125073Y0057785D01*
X0125617Y0057241D02*
X0127815Y0056331D01*
X0130194Y0056331D01*
X0132393Y0057241D01*
X0134075Y0058924D01*
X0134986Y0061122D01*
X0134986Y0063502D01*
X0134075Y0065700D01*
X0132393Y0067382D01*
X0130194Y0068293D01*
X0127815Y0068293D01*
X0125617Y0067382D01*
X0123934Y0065700D01*
X0123024Y0063502D01*
X0123024Y0061122D01*
X0123934Y0058924D01*
X0125617Y0057241D01*
X0123744Y0059384D02*
X0098157Y0059384D01*
X0099196Y0060982D02*
X0123082Y0060982D01*
X0123024Y0062581D02*
X0099710Y0062581D01*
X0099710Y0064179D02*
X0123304Y0064179D01*
X0124012Y0065778D02*
X0099224Y0065778D01*
X0098226Y0067376D02*
X0125611Y0067376D01*
X0132399Y0067376D02*
X0203080Y0067376D01*
X0203068Y0067388D02*
X0204751Y0065706D01*
X0206949Y0064795D01*
X0209328Y0064795D01*
X0211527Y0065706D01*
X0213209Y0067388D01*
X0214120Y0069587D01*
X0214120Y0071966D01*
X0213209Y0074164D01*
X0211527Y0075847D01*
X0209328Y0076757D01*
X0206949Y0076757D01*
X0204751Y0075847D01*
X0203068Y0074164D01*
X0202157Y0071966D01*
X0202157Y0069587D01*
X0203068Y0067388D01*
X0202411Y0068975D02*
X0095934Y0068975D01*
X0091524Y0068975D02*
X0036600Y0068975D01*
X0036600Y0070573D02*
X0108269Y0070573D01*
X0108609Y0070233D02*
X0106926Y0071916D01*
X0106016Y0074114D01*
X0106016Y0076494D01*
X0106926Y0078692D01*
X0108609Y0080374D01*
X0110807Y0081285D01*
X0113187Y0081285D01*
X0115385Y0080374D01*
X0117067Y0078692D01*
X0117978Y0076494D01*
X0117978Y0074114D01*
X0117067Y0071916D01*
X0115385Y0070233D01*
X0113187Y0069323D01*
X0110807Y0069323D01*
X0108609Y0070233D01*
X0106820Y0072172D02*
X0036600Y0072172D01*
X0036600Y0073770D02*
X0106158Y0073770D01*
X0106016Y0075369D02*
X0036600Y0075369D01*
X0036600Y0076967D02*
X0106212Y0076967D01*
X0106874Y0078566D02*
X0036600Y0078566D01*
X0036600Y0080164D02*
X0108399Y0080164D01*
X0115595Y0080164D02*
X0217118Y0080164D01*
X0217118Y0080903D02*
X0217118Y0078524D01*
X0218029Y0076325D01*
X0219711Y0074643D01*
X0221909Y0073732D01*
X0224289Y0073732D01*
X0226487Y0074643D01*
X0228170Y0076325D01*
X0229080Y0078524D01*
X0229080Y0080903D01*
X0228170Y0083101D01*
X0226487Y0084784D01*
X0224289Y0085694D01*
X0221909Y0085694D01*
X0219711Y0084784D01*
X0218029Y0083101D01*
X0217118Y0080903D01*
X0217474Y0081763D02*
X0036600Y0081763D01*
X0036600Y0083361D02*
X0218289Y0083361D01*
X0220136Y0084960D02*
X0036600Y0084960D01*
X0036600Y0086558D02*
X0260414Y0086558D01*
X0260414Y0085995D02*
X0261586Y0084824D01*
X0268235Y0084824D01*
X0269406Y0085995D01*
X0269406Y0092644D01*
X0268235Y0093816D01*
X0261586Y0093816D01*
X0260414Y0092644D01*
X0260414Y0085995D01*
X0261450Y0084960D02*
X0226063Y0084960D01*
X0227910Y0083361D02*
X0301505Y0083361D01*
X0301680Y0083186D02*
X0303878Y0082276D01*
X0306257Y0082276D01*
X0308456Y0083186D01*
X0310138Y0084869D01*
X0311049Y0087067D01*
X0311049Y0089446D01*
X0310138Y0091645D01*
X0308456Y0093327D01*
X0306257Y0094238D01*
X0303878Y0094238D01*
X0301680Y0093327D01*
X0299997Y0091645D01*
X0299087Y0089446D01*
X0299087Y0087067D01*
X0299997Y0084869D01*
X0301680Y0083186D01*
X0299959Y0084960D02*
X0268371Y0084960D01*
X0269406Y0086558D02*
X0299297Y0086558D01*
X0299087Y0088157D02*
X0269406Y0088157D01*
X0269406Y0089755D02*
X0299215Y0089755D01*
X0299877Y0091354D02*
X0269406Y0091354D01*
X0269098Y0092952D02*
X0282024Y0092952D01*
X0281365Y0093226D02*
X0283563Y0092315D01*
X0285942Y0092315D01*
X0288141Y0093226D01*
X0289823Y0094908D01*
X0290734Y0097106D01*
X0290734Y0099486D01*
X0289823Y0101684D01*
X0288141Y0103367D01*
X0285942Y0104277D01*
X0283563Y0104277D01*
X0281365Y0103367D01*
X0279682Y0101684D01*
X0278772Y0099486D01*
X0278772Y0097106D01*
X0279682Y0094908D01*
X0281365Y0093226D01*
X0280039Y0094551D02*
X0257028Y0094551D01*
X0257028Y0093334D02*
X0255857Y0092162D01*
X0244751Y0092162D01*
X0243580Y0093334D01*
X0243580Y0104439D01*
X0244751Y0105611D01*
X0255857Y0105611D01*
X0257028Y0104439D01*
X0257028Y0093334D01*
X0256647Y0092952D02*
X0260722Y0092952D01*
X0260414Y0091354D02*
X0204843Y0091354D01*
X0204234Y0090745D02*
X0205521Y0092031D01*
X0206217Y0093713D01*
X0206217Y0095533D01*
X0205521Y0097214D01*
X0204234Y0098501D01*
X0202552Y0099198D01*
X0200733Y0099198D01*
X0199051Y0098501D01*
X0197764Y0097214D01*
X0197068Y0095533D01*
X0197068Y0093713D01*
X0197764Y0092031D01*
X0199051Y0090745D01*
X0200733Y0090048D01*
X0202552Y0090048D01*
X0204234Y0090745D01*
X0205902Y0092952D02*
X0243961Y0092952D01*
X0243580Y0094551D02*
X0206217Y0094551D01*
X0205962Y0096149D02*
X0243580Y0096149D01*
X0243580Y0097748D02*
X0204987Y0097748D01*
X0207824Y0100313D02*
X0208381Y0099909D01*
X0208995Y0099596D01*
X0209650Y0099383D01*
X0210330Y0099276D01*
X0210674Y0099276D01*
X0211018Y0099276D01*
X0211698Y0099383D01*
X0212353Y0099596D01*
X0212967Y0099909D01*
X0213524Y0100313D01*
X0214011Y0100800D01*
X0214416Y0101357D01*
X0214728Y0101971D01*
X0214941Y0102626D01*
X0215049Y0103306D01*
X0215049Y0103650D01*
X0210674Y0103650D01*
X0210674Y0099276D01*
X0210674Y0103650D01*
X0210674Y0103650D01*
X0206299Y0103650D01*
X0206299Y0103306D01*
X0206407Y0102626D01*
X0206620Y0101971D01*
X0206932Y0101357D01*
X0207337Y0100800D01*
X0207824Y0100313D01*
X0207232Y0100945D02*
X0196375Y0100945D01*
X0196489Y0101059D02*
X0197186Y0102740D01*
X0197186Y0104560D01*
X0196489Y0106242D01*
X0195202Y0107529D01*
X0193521Y0108225D01*
X0191701Y0108225D01*
X0190020Y0107529D01*
X0188733Y0106242D01*
X0188036Y0104560D01*
X0188036Y0102740D01*
X0188733Y0101059D01*
X0190020Y0099772D01*
X0191701Y0099076D01*
X0193521Y0099076D01*
X0195202Y0099772D01*
X0196489Y0101059D01*
X0197104Y0102543D02*
X0206434Y0102543D01*
X0206299Y0103650D02*
X0210674Y0103650D01*
X0210674Y0103650D01*
X0210674Y0103650D01*
X0215049Y0103650D01*
X0215049Y0103995D01*
X0214941Y0104675D01*
X0214728Y0105330D01*
X0214416Y0105943D01*
X0214011Y0106500D01*
X0213524Y0106987D01*
X0212967Y0107392D01*
X0212353Y0107705D01*
X0211698Y0107917D01*
X0211018Y0108025D01*
X0210674Y0108025D01*
X0210674Y0103651D01*
X0210674Y0108025D01*
X0210330Y0108025D01*
X0209650Y0107917D01*
X0208995Y0107705D01*
X0208381Y0107392D01*
X0207824Y0106987D01*
X0207337Y0106500D01*
X0206932Y0105943D01*
X0206620Y0105330D01*
X0206407Y0104675D01*
X0206299Y0103995D01*
X0206299Y0103650D01*
X0206323Y0104142D02*
X0197186Y0104142D01*
X0196697Y0105740D02*
X0206829Y0105740D01*
X0208308Y0107339D02*
X0195392Y0107339D01*
X0197764Y0110087D02*
X0199051Y0108800D01*
X0200733Y0108103D01*
X0202552Y0108103D01*
X0204234Y0108800D01*
X0205521Y0110087D01*
X0206217Y0111768D01*
X0206217Y0113588D01*
X0205521Y0115269D01*
X0204234Y0116556D01*
X0202552Y0117253D01*
X0200733Y0117253D01*
X0199051Y0116556D01*
X0197764Y0115269D01*
X0197068Y0113588D01*
X0197068Y0111768D01*
X0197764Y0110087D01*
X0197578Y0110536D02*
X0176024Y0110536D01*
X0176024Y0112134D02*
X0197068Y0112134D01*
X0197128Y0113733D02*
X0176024Y0113733D01*
X0176024Y0113987D02*
X0174853Y0115158D01*
X0164338Y0115158D01*
X0163166Y0113987D01*
X0163166Y0103472D01*
X0164338Y0102300D01*
X0174853Y0102300D01*
X0176024Y0103472D01*
X0176024Y0113987D01*
X0176024Y0108937D02*
X0198913Y0108937D01*
X0204372Y0108937D02*
X0243580Y0108937D01*
X0243580Y0107339D02*
X0213040Y0107339D01*
X0214519Y0105740D02*
X0299007Y0105740D01*
X0299632Y0105115D02*
X0301831Y0104205D01*
X0304210Y0104205D01*
X0306408Y0105115D01*
X0308091Y0106798D01*
X0309002Y0108996D01*
X0309002Y0111376D01*
X0308091Y0113574D01*
X0306408Y0115256D01*
X0304210Y0116167D01*
X0301831Y0116167D01*
X0299632Y0115256D01*
X0297950Y0113574D01*
X0297039Y0111376D01*
X0297039Y0108996D01*
X0297950Y0106798D01*
X0299632Y0105115D01*
X0297726Y0107339D02*
X0257028Y0107339D01*
X0257028Y0107113D02*
X0255857Y0105942D01*
X0244751Y0105942D01*
X0243580Y0107113D01*
X0243580Y0118219D01*
X0244751Y0119391D01*
X0255857Y0119391D01*
X0257028Y0118219D01*
X0257028Y0107113D01*
X0257028Y0108937D02*
X0297064Y0108937D01*
X0297039Y0110536D02*
X0257028Y0110536D01*
X0257028Y0112134D02*
X0297354Y0112134D01*
X0298109Y0113733D02*
X0257028Y0113733D01*
X0257028Y0115332D02*
X0258007Y0115332D01*
X0258515Y0114824D02*
X0265164Y0114824D01*
X0266335Y0115995D01*
X0266335Y0122644D01*
X0265164Y0123816D01*
X0258515Y0123816D01*
X0257343Y0122644D01*
X0257343Y0115995D01*
X0258515Y0114824D01*
X0257343Y0116930D02*
X0257028Y0116930D01*
X0256719Y0118529D02*
X0257343Y0118529D01*
X0257343Y0120127D02*
X0138143Y0120127D01*
X0138143Y0119699D02*
X0138143Y0125318D01*
X0136972Y0126490D01*
X0136762Y0126490D01*
X0136762Y0131274D01*
X0143288Y0137800D01*
X0142551Y0136021D01*
X0142551Y0133642D01*
X0143462Y0131443D01*
X0145144Y0129761D01*
X0147343Y0128850D01*
X0149722Y0128850D01*
X0151920Y0129761D01*
X0153603Y0131443D01*
X0154513Y0133642D01*
X0154513Y0136021D01*
X0153603Y0138220D01*
X0151920Y0139902D01*
X0149722Y0140813D01*
X0147343Y0140813D01*
X0145564Y0140076D01*
X0163194Y0157706D01*
X0163925Y0158437D01*
X0164321Y0159393D01*
X0164321Y0176550D01*
X0187008Y0199236D01*
X0190121Y0199236D01*
X0191293Y0200408D01*
X0191293Y0206027D01*
X0190121Y0207198D01*
X0184502Y0207198D01*
X0183331Y0206027D01*
X0183331Y0202913D01*
X0159517Y0179100D01*
X0159121Y0178144D01*
X0159121Y0160987D01*
X0151590Y0153456D01*
X0152466Y0155571D01*
X0152466Y0157950D01*
X0151556Y0160149D01*
X0149873Y0161831D01*
X0147675Y0162742D01*
X0145295Y0162742D01*
X0143097Y0161831D01*
X0141415Y0160149D01*
X0140504Y0157950D01*
X0140504Y0155571D01*
X0141415Y0153373D01*
X0143097Y0151690D01*
X0145295Y0150780D01*
X0147675Y0150780D01*
X0149790Y0151656D01*
X0131958Y0133824D01*
X0131562Y0132868D01*
X0131562Y0126490D01*
X0131353Y0126490D01*
X0130181Y0125318D01*
X0130181Y0119699D01*
X0131353Y0118528D01*
X0136972Y0118528D01*
X0138143Y0119699D01*
X0136973Y0118529D02*
X0243889Y0118529D01*
X0243580Y0116930D02*
X0203332Y0116930D01*
X0205459Y0115332D02*
X0243580Y0115332D01*
X0243580Y0113733D02*
X0206157Y0113733D01*
X0206217Y0112134D02*
X0243580Y0112134D01*
X0243580Y0110536D02*
X0205707Y0110536D01*
X0210674Y0107339D02*
X0210674Y0107339D01*
X0210674Y0105740D02*
X0210674Y0105740D01*
X0210674Y0104142D02*
X0210674Y0104142D01*
X0210674Y0103651D02*
X0210674Y0103651D01*
X0210674Y0102543D02*
X0210674Y0102543D01*
X0210674Y0100945D02*
X0210674Y0100945D01*
X0210674Y0099346D02*
X0210674Y0099346D01*
X0211465Y0099346D02*
X0243580Y0099346D01*
X0243580Y0100945D02*
X0214116Y0100945D01*
X0214914Y0102543D02*
X0243580Y0102543D01*
X0243580Y0104142D02*
X0215025Y0104142D01*
X0209883Y0099346D02*
X0194175Y0099346D01*
X0191047Y0099346D02*
X0036600Y0099346D01*
X0036600Y0097748D02*
X0198298Y0097748D01*
X0197323Y0096149D02*
X0036600Y0096149D01*
X0036600Y0094551D02*
X0197068Y0094551D01*
X0197383Y0092952D02*
X0036600Y0092952D01*
X0036600Y0091354D02*
X0198442Y0091354D01*
X0188847Y0100945D02*
X0036600Y0100945D01*
X0036600Y0102543D02*
X0164094Y0102543D01*
X0163166Y0104142D02*
X0036600Y0104142D01*
X0036600Y0105740D02*
X0163166Y0105740D01*
X0163166Y0107339D02*
X0036600Y0107339D01*
X0036600Y0108937D02*
X0163166Y0108937D01*
X0163166Y0110536D02*
X0036600Y0110536D01*
X0036600Y0112134D02*
X0163166Y0112134D01*
X0163166Y0113733D02*
X0036600Y0113733D01*
X0036600Y0115332D02*
X0197826Y0115332D01*
X0199953Y0116930D02*
X0036600Y0116930D01*
X0036600Y0118529D02*
X0131352Y0118529D01*
X0130181Y0120127D02*
X0036600Y0120127D01*
X0036600Y0121726D02*
X0130181Y0121726D01*
X0130181Y0123324D02*
X0036600Y0123324D01*
X0036600Y0124923D02*
X0130181Y0124923D01*
X0131562Y0126521D02*
X0055948Y0126521D01*
X0055975Y0126533D02*
X0057658Y0128215D01*
X0058568Y0130413D01*
X0058568Y0132793D01*
X0057658Y0134991D01*
X0055975Y0136674D01*
X0053777Y0137584D01*
X0051398Y0137584D01*
X0049199Y0136674D01*
X0047517Y0134991D01*
X0046606Y0132793D01*
X0046606Y0130413D01*
X0047517Y0128215D01*
X0049199Y0126533D01*
X0051398Y0125622D01*
X0053777Y0125622D01*
X0055975Y0126533D01*
X0057562Y0128120D02*
X0131562Y0128120D01*
X0131562Y0129718D02*
X0058280Y0129718D01*
X0058568Y0131317D02*
X0131562Y0131317D01*
X0131582Y0132915D02*
X0058518Y0132915D01*
X0057856Y0134514D02*
X0132648Y0134514D01*
X0134246Y0136112D02*
X0056537Y0136112D01*
X0062191Y0143540D02*
X0060509Y0145223D01*
X0059598Y0147421D01*
X0059598Y0149801D01*
X0060509Y0151999D01*
X0062191Y0153682D01*
X0064390Y0154592D01*
X0066769Y0154592D01*
X0068968Y0153682D01*
X0070650Y0151999D01*
X0071561Y0149801D01*
X0071561Y0147421D01*
X0070650Y0145223D01*
X0068968Y0143540D01*
X0066769Y0142630D01*
X0064390Y0142630D01*
X0062191Y0143540D01*
X0061627Y0144105D02*
X0049106Y0144105D01*
X0048721Y0143176D02*
X0049631Y0145374D01*
X0049631Y0147753D01*
X0048721Y0149952D01*
X0047038Y0151634D01*
X0044840Y0152545D01*
X0042461Y0152545D01*
X0040262Y0151634D01*
X0038580Y0149952D01*
X0037669Y0147753D01*
X0037669Y0145374D01*
X0038580Y0143176D01*
X0040262Y0141493D01*
X0042461Y0140583D01*
X0044840Y0140583D01*
X0047038Y0141493D01*
X0048721Y0143176D01*
X0048051Y0142506D02*
X0128732Y0142506D01*
X0128136Y0142753D02*
X0130335Y0141843D01*
X0132714Y0141843D01*
X0134912Y0142753D01*
X0136595Y0144436D01*
X0137505Y0146634D01*
X0137505Y0149013D01*
X0136595Y0151212D01*
X0134912Y0152894D01*
X0132714Y0153805D01*
X0130335Y0153805D01*
X0128136Y0152894D01*
X0126454Y0151212D01*
X0125543Y0149013D01*
X0125543Y0146634D01*
X0126454Y0144436D01*
X0128136Y0142753D01*
X0126785Y0144105D02*
X0069532Y0144105D01*
X0070849Y0145703D02*
X0125929Y0145703D01*
X0125543Y0147302D02*
X0071511Y0147302D01*
X0071561Y0148900D02*
X0125543Y0148900D01*
X0126159Y0150499D02*
X0071271Y0150499D01*
X0070552Y0152097D02*
X0127340Y0152097D01*
X0130072Y0153696D02*
X0068933Y0153696D01*
X0062226Y0153696D02*
X0036600Y0153696D01*
X0036600Y0155294D02*
X0140619Y0155294D01*
X0140504Y0156893D02*
X0036600Y0156893D01*
X0036600Y0158491D02*
X0140728Y0158491D01*
X0141390Y0160090D02*
X0036600Y0160090D01*
X0036600Y0161688D02*
X0050591Y0161688D01*
X0050302Y0161808D02*
X0052500Y0160898D01*
X0054879Y0160898D01*
X0057078Y0161808D01*
X0058760Y0163491D01*
X0059671Y0165689D01*
X0059671Y0168068D01*
X0058760Y0170267D01*
X0057078Y0171949D01*
X0054879Y0172860D01*
X0052500Y0172860D01*
X0050302Y0171949D01*
X0048619Y0170267D01*
X0047709Y0168068D01*
X0047709Y0165689D01*
X0048619Y0163491D01*
X0050302Y0161808D01*
X0048823Y0163287D02*
X0036600Y0163287D01*
X0036600Y0164885D02*
X0048042Y0164885D01*
X0047709Y0166484D02*
X0036600Y0166484D01*
X0036600Y0168082D02*
X0047714Y0168082D01*
X0048377Y0169681D02*
X0036600Y0169681D01*
X0036600Y0171279D02*
X0049632Y0171279D01*
X0057748Y0171279D02*
X0077186Y0171279D01*
X0077186Y0171660D02*
X0077186Y0165011D01*
X0078357Y0163839D01*
X0085006Y0163839D01*
X0086178Y0165011D01*
X0086178Y0171660D01*
X0085006Y0172831D01*
X0078357Y0172831D01*
X0077186Y0171660D01*
X0077186Y0169681D02*
X0059003Y0169681D01*
X0059665Y0168082D02*
X0077186Y0168082D01*
X0077186Y0166484D02*
X0059671Y0166484D01*
X0059338Y0164885D02*
X0077311Y0164885D01*
X0086052Y0164885D02*
X0116354Y0164885D01*
X0116769Y0163884D02*
X0118451Y0162202D01*
X0120650Y0161291D01*
X0123029Y0161291D01*
X0125227Y0162202D01*
X0126910Y0163884D01*
X0127820Y0166083D01*
X0127820Y0168462D01*
X0126910Y0170660D01*
X0125227Y0172343D01*
X0123029Y0173254D01*
X0120650Y0173254D01*
X0118451Y0172343D01*
X0116769Y0170660D01*
X0115858Y0168462D01*
X0115858Y0166083D01*
X0116769Y0163884D01*
X0117366Y0163287D02*
X0058556Y0163287D01*
X0056788Y0161688D02*
X0119691Y0161688D01*
X0123988Y0161688D02*
X0142954Y0161688D01*
X0150016Y0161688D02*
X0159121Y0161688D01*
X0159121Y0163287D02*
X0126312Y0163287D01*
X0127324Y0164885D02*
X0159121Y0164885D01*
X0159121Y0166484D02*
X0127820Y0166484D01*
X0127820Y0168082D02*
X0159121Y0168082D01*
X0159121Y0169681D02*
X0127316Y0169681D01*
X0126291Y0171279D02*
X0133271Y0171279D01*
X0133412Y0171139D02*
X0135610Y0170228D01*
X0137990Y0170228D01*
X0140188Y0171139D01*
X0141871Y0172821D01*
X0142781Y0175020D01*
X0142781Y0177399D01*
X0141871Y0179597D01*
X0140188Y0181280D01*
X0137990Y0182191D01*
X0135610Y0182191D01*
X0133412Y0181280D01*
X0131729Y0179597D01*
X0130819Y0177399D01*
X0130819Y0175020D01*
X0131729Y0172821D01*
X0133412Y0171139D01*
X0131706Y0172878D02*
X0123936Y0172878D01*
X0119743Y0172878D02*
X0105549Y0172878D01*
X0104912Y0172241D02*
X0106595Y0173924D01*
X0107505Y0176122D01*
X0107505Y0178502D01*
X0106595Y0180700D01*
X0104912Y0182382D01*
X0102714Y0183293D01*
X0100335Y0183293D01*
X0098136Y0182382D01*
X0096454Y0180700D01*
X0095543Y0178502D01*
X0095543Y0176122D01*
X0096454Y0173924D01*
X0098136Y0172241D01*
X0100335Y0171331D01*
X0102714Y0171331D01*
X0104912Y0172241D01*
X0106824Y0174476D02*
X0131044Y0174476D01*
X0130819Y0176075D02*
X0107486Y0176075D01*
X0107505Y0177673D02*
X0130933Y0177673D01*
X0131595Y0179272D02*
X0107186Y0179272D01*
X0106424Y0180870D02*
X0133002Y0180870D01*
X0140598Y0180870D02*
X0161288Y0180870D01*
X0159690Y0179272D02*
X0142005Y0179272D01*
X0142667Y0177673D02*
X0159121Y0177673D01*
X0159121Y0176075D02*
X0142781Y0176075D01*
X0142556Y0174476D02*
X0159121Y0174476D01*
X0159121Y0172878D02*
X0141894Y0172878D01*
X0140329Y0171279D02*
X0159121Y0171279D01*
X0164321Y0171279D02*
X0248800Y0171279D01*
X0248895Y0171050D02*
X0250577Y0169367D01*
X0252776Y0168457D01*
X0255155Y0168457D01*
X0257353Y0169367D01*
X0259036Y0171050D01*
X0259946Y0173248D01*
X0259946Y0175628D01*
X0259036Y0177826D01*
X0257353Y0179508D01*
X0255155Y0180419D01*
X0252776Y0180419D01*
X0250577Y0179508D01*
X0248895Y0177826D01*
X0247984Y0175628D01*
X0247984Y0173248D01*
X0248895Y0171050D01*
X0250264Y0169681D02*
X0164321Y0169681D01*
X0164321Y0168082D02*
X0311632Y0168082D01*
X0312113Y0168563D02*
X0310430Y0166881D01*
X0309520Y0164683D01*
X0309520Y0162303D01*
X0310430Y0160105D01*
X0312113Y0158422D01*
X0314311Y0157512D01*
X0316691Y0157512D01*
X0318889Y0158422D01*
X0320571Y0160105D01*
X0321482Y0162303D01*
X0321482Y0164683D01*
X0320571Y0166881D01*
X0318889Y0168563D01*
X0316691Y0169474D01*
X0314311Y0169474D01*
X0312113Y0168563D01*
X0310266Y0166484D02*
X0164321Y0166484D01*
X0164321Y0164885D02*
X0260330Y0164885D01*
X0259514Y0164548D02*
X0261713Y0165458D01*
X0264092Y0165458D01*
X0266290Y0164548D01*
X0267973Y0162865D01*
X0268883Y0160667D01*
X0268883Y0158287D01*
X0267973Y0156089D01*
X0266290Y0154407D01*
X0264092Y0153496D01*
X0261713Y0153496D01*
X0259514Y0154407D01*
X0257832Y0156089D01*
X0256921Y0158287D01*
X0256921Y0160667D01*
X0257832Y0162865D01*
X0259514Y0164548D01*
X0258254Y0163287D02*
X0242463Y0163287D01*
X0242163Y0163411D02*
X0239784Y0163411D01*
X0237585Y0162500D01*
X0235903Y0160818D01*
X0234992Y0158620D01*
X0234992Y0156240D01*
X0235903Y0154042D01*
X0237585Y0152359D01*
X0239784Y0151449D01*
X0242163Y0151449D01*
X0244361Y0152359D01*
X0246044Y0154042D01*
X0246954Y0156240D01*
X0246954Y0158620D01*
X0246044Y0160818D01*
X0244361Y0162500D01*
X0242163Y0163411D01*
X0239484Y0163287D02*
X0164321Y0163287D01*
X0164321Y0161688D02*
X0236773Y0161688D01*
X0235601Y0160090D02*
X0190071Y0160090D01*
X0189967Y0160194D02*
X0183318Y0160194D01*
X0182146Y0159022D01*
X0182146Y0152373D01*
X0183318Y0151202D01*
X0189967Y0151202D01*
X0191139Y0152373D01*
X0191139Y0159022D01*
X0189967Y0160194D01*
X0191139Y0158491D02*
X0234992Y0158491D01*
X0234992Y0156893D02*
X0191139Y0156893D01*
X0191139Y0155294D02*
X0235384Y0155294D01*
X0236249Y0153696D02*
X0191139Y0153696D01*
X0190863Y0152097D02*
X0238218Y0152097D01*
X0243728Y0152097D02*
X0418732Y0152097D01*
X0418732Y0150499D02*
X0330288Y0150499D01*
X0330779Y0150296D02*
X0328580Y0151206D01*
X0326201Y0151206D01*
X0324003Y0150296D01*
X0322320Y0148613D01*
X0321409Y0146415D01*
X0321409Y0144035D01*
X0322320Y0141837D01*
X0324003Y0140155D01*
X0326201Y0139244D01*
X0328580Y0139244D01*
X0330779Y0140155D01*
X0332461Y0141837D01*
X0333372Y0144035D01*
X0333372Y0146415D01*
X0332461Y0148613D01*
X0330779Y0150296D01*
X0332174Y0148900D02*
X0418732Y0148900D01*
X0418732Y0147302D02*
X0333004Y0147302D01*
X0333372Y0145703D02*
X0418732Y0145703D01*
X0418732Y0144105D02*
X0333372Y0144105D01*
X0332738Y0142506D02*
X0418732Y0142506D01*
X0418732Y0140908D02*
X0331532Y0140908D01*
X0328737Y0139309D02*
X0418732Y0139309D01*
X0418732Y0137711D02*
X0258736Y0137711D01*
X0258844Y0137972D02*
X0257934Y0135774D01*
X0256251Y0134092D01*
X0254053Y0133181D01*
X0251673Y0133181D01*
X0249475Y0134092D01*
X0247792Y0135774D01*
X0246882Y0137972D01*
X0246882Y0140352D01*
X0247792Y0142550D01*
X0249475Y0144233D01*
X0251673Y0145143D01*
X0254053Y0145143D01*
X0256251Y0144233D01*
X0257934Y0142550D01*
X0258844Y0140352D01*
X0258844Y0137972D01*
X0258844Y0139309D02*
X0326044Y0139309D01*
X0323249Y0140908D02*
X0258614Y0140908D01*
X0257952Y0142506D02*
X0322043Y0142506D01*
X0321409Y0144105D02*
X0256379Y0144105D01*
X0249347Y0144105D02*
X0213721Y0144105D01*
X0213721Y0145703D02*
X0321409Y0145703D01*
X0321777Y0147302D02*
X0213721Y0147302D01*
X0213721Y0148900D02*
X0322607Y0148900D01*
X0324493Y0150499D02*
X0212938Y0150499D01*
X0212550Y0150887D02*
X0201444Y0150887D01*
X0200272Y0149715D01*
X0200272Y0138609D01*
X0201444Y0137438D01*
X0212550Y0137438D01*
X0213721Y0138609D01*
X0213721Y0149715D01*
X0212550Y0150887D01*
X0213721Y0142506D02*
X0247774Y0142506D01*
X0247112Y0140908D02*
X0213721Y0140908D01*
X0213721Y0139309D02*
X0246882Y0139309D01*
X0246990Y0137711D02*
X0212823Y0137711D01*
X0201171Y0137711D02*
X0199043Y0137711D01*
X0198770Y0137438D02*
X0199942Y0138609D01*
X0199942Y0149715D01*
X0198770Y0150887D01*
X0187664Y0150887D01*
X0186493Y0149715D01*
X0186493Y0138609D01*
X0187664Y0137438D01*
X0198770Y0137438D01*
X0199942Y0139309D02*
X0200272Y0139309D01*
X0200272Y0140908D02*
X0199942Y0140908D01*
X0199942Y0142506D02*
X0200272Y0142506D01*
X0200272Y0144105D02*
X0199942Y0144105D01*
X0199942Y0145703D02*
X0200272Y0145703D01*
X0200272Y0147302D02*
X0199942Y0147302D01*
X0199942Y0148900D02*
X0200272Y0148900D01*
X0201056Y0150499D02*
X0199158Y0150499D01*
X0187277Y0150499D02*
X0171481Y0150499D01*
X0171871Y0150109D02*
X0170188Y0151792D01*
X0167990Y0152702D01*
X0165610Y0152702D01*
X0163412Y0151792D01*
X0161729Y0150109D01*
X0160819Y0147911D01*
X0160819Y0145532D01*
X0161729Y0143333D01*
X0163412Y0141651D01*
X0165610Y0140740D01*
X0167990Y0140740D01*
X0170188Y0141651D01*
X0171871Y0143333D01*
X0172781Y0145532D01*
X0172781Y0147911D01*
X0171871Y0150109D01*
X0172371Y0148900D02*
X0186493Y0148900D01*
X0186493Y0147302D02*
X0172781Y0147302D01*
X0172781Y0145703D02*
X0186493Y0145703D01*
X0186493Y0144105D02*
X0172190Y0144105D01*
X0171044Y0142506D02*
X0186493Y0142506D01*
X0186493Y0140908D02*
X0168394Y0140908D01*
X0165206Y0140908D02*
X0146396Y0140908D01*
X0147994Y0142506D02*
X0162556Y0142506D01*
X0161410Y0144105D02*
X0149593Y0144105D01*
X0151191Y0145703D02*
X0160819Y0145703D01*
X0160819Y0147302D02*
X0152790Y0147302D01*
X0154388Y0148900D02*
X0161229Y0148900D01*
X0162119Y0150499D02*
X0155987Y0150499D01*
X0157585Y0152097D02*
X0164150Y0152097D01*
X0160782Y0155294D02*
X0182146Y0155294D01*
X0182146Y0153696D02*
X0159184Y0153696D01*
X0162381Y0156893D02*
X0182146Y0156893D01*
X0182146Y0158491D02*
X0163948Y0158491D01*
X0164321Y0160090D02*
X0183214Y0160090D01*
X0182422Y0152097D02*
X0169450Y0152097D01*
X0158224Y0160090D02*
X0151580Y0160090D01*
X0152242Y0158491D02*
X0156625Y0158491D01*
X0155027Y0156893D02*
X0152466Y0156893D01*
X0152352Y0155294D02*
X0153428Y0155294D01*
X0151830Y0153696D02*
X0151689Y0153696D01*
X0148633Y0150499D02*
X0136890Y0150499D01*
X0137505Y0148900D02*
X0147034Y0148900D01*
X0145436Y0147302D02*
X0137505Y0147302D01*
X0137120Y0145703D02*
X0143837Y0145703D01*
X0142239Y0144105D02*
X0136264Y0144105D01*
X0134316Y0142506D02*
X0140640Y0142506D01*
X0139042Y0140908D02*
X0045625Y0140908D01*
X0041676Y0140908D02*
X0036600Y0140908D01*
X0036600Y0142506D02*
X0039249Y0142506D01*
X0038195Y0144105D02*
X0036600Y0144105D01*
X0036600Y0145703D02*
X0037669Y0145703D01*
X0037669Y0147302D02*
X0036600Y0147302D01*
X0036600Y0148900D02*
X0038144Y0148900D01*
X0039127Y0150499D02*
X0036600Y0150499D01*
X0036600Y0152097D02*
X0041380Y0152097D01*
X0045921Y0152097D02*
X0060607Y0152097D01*
X0059888Y0150499D02*
X0048174Y0150499D01*
X0049156Y0148900D02*
X0059598Y0148900D01*
X0059648Y0147302D02*
X0049631Y0147302D01*
X0049631Y0145703D02*
X0060310Y0145703D01*
X0048638Y0136112D02*
X0036600Y0136112D01*
X0036600Y0134514D02*
X0047319Y0134514D01*
X0046657Y0132915D02*
X0036600Y0132915D01*
X0036600Y0131317D02*
X0046606Y0131317D01*
X0046894Y0129718D02*
X0036600Y0129718D01*
X0036600Y0128120D02*
X0047612Y0128120D01*
X0049227Y0126521D02*
X0036600Y0126521D01*
X0036600Y0137711D02*
X0135845Y0137711D01*
X0137443Y0139309D02*
X0036600Y0139309D01*
X0036600Y0172878D02*
X0097500Y0172878D01*
X0096225Y0174476D02*
X0036600Y0174476D01*
X0036600Y0176075D02*
X0095563Y0176075D01*
X0095543Y0177673D02*
X0036600Y0177673D01*
X0036600Y0179272D02*
X0095862Y0179272D01*
X0096625Y0180870D02*
X0036600Y0180870D01*
X0036600Y0182469D02*
X0041817Y0182469D01*
X0041980Y0182425D02*
X0044713Y0182425D01*
X0044713Y0186721D01*
X0040417Y0186721D01*
X0040417Y0183988D01*
X0040540Y0183530D01*
X0040777Y0183120D01*
X0041112Y0182785D01*
X0041523Y0182548D01*
X0041980Y0182425D01*
X0040417Y0184068D02*
X0036600Y0184068D01*
X0036600Y0185666D02*
X0040417Y0185666D01*
X0040417Y0186721D02*
X0044713Y0186721D01*
X0044713Y0186721D01*
X0044713Y0186721D01*
X0044713Y0182425D01*
X0047446Y0182425D01*
X0047904Y0182548D01*
X0048315Y0182785D01*
X0048650Y0183120D01*
X0048887Y0183530D01*
X0049009Y0183988D01*
X0049009Y0186721D01*
X0044714Y0186721D01*
X0044714Y0186721D01*
X0049009Y0186721D01*
X0049009Y0189454D01*
X0048887Y0189912D01*
X0048650Y0190323D01*
X0048315Y0190658D01*
X0047904Y0190895D01*
X0047446Y0191017D01*
X0044713Y0191017D01*
X0041980Y0191017D01*
X0041523Y0190895D01*
X0041112Y0190658D01*
X0040777Y0190323D01*
X0040540Y0189912D01*
X0040417Y0189454D01*
X0040417Y0186721D01*
X0040417Y0187265D02*
X0036600Y0187265D01*
X0036600Y0188863D02*
X0040417Y0188863D01*
X0040916Y0190462D02*
X0036600Y0190462D01*
X0036600Y0192060D02*
X0068463Y0192060D01*
X0068435Y0192076D02*
X0068845Y0191839D01*
X0069303Y0191717D01*
X0072036Y0191717D01*
X0072036Y0196012D01*
X0072036Y0196012D01*
X0072036Y0196013D02*
X0067740Y0196013D01*
X0072036Y0196013D01*
X0072036Y0200309D01*
X0069303Y0200309D01*
X0068845Y0200186D01*
X0068435Y0199949D01*
X0068100Y0199614D01*
X0067863Y0199203D01*
X0067740Y0198746D01*
X0067740Y0196013D01*
X0067740Y0193280D01*
X0067863Y0192822D01*
X0068100Y0192411D01*
X0068435Y0192076D01*
X0067740Y0193659D02*
X0036600Y0193659D01*
X0036600Y0195257D02*
X0067740Y0195257D01*
X0067740Y0196856D02*
X0036600Y0196856D01*
X0036600Y0198454D02*
X0067740Y0198454D01*
X0068614Y0200053D02*
X0036600Y0200053D01*
X0036600Y0201651D02*
X0139758Y0201651D01*
X0140287Y0201123D02*
X0139115Y0202294D01*
X0139115Y0208943D01*
X0140287Y0210115D01*
X0146936Y0210115D01*
X0148107Y0208943D01*
X0148107Y0202294D01*
X0146936Y0201123D01*
X0140287Y0201123D01*
X0139115Y0203250D02*
X0036600Y0203250D01*
X0036600Y0204848D02*
X0139115Y0204848D01*
X0139115Y0206447D02*
X0036600Y0206447D01*
X0036600Y0208045D02*
X0139115Y0208045D01*
X0139815Y0209644D02*
X0036600Y0209644D01*
X0036600Y0211242D02*
X0059214Y0211242D01*
X0059672Y0210785D02*
X0057989Y0212467D01*
X0057079Y0214665D01*
X0057079Y0217045D01*
X0057989Y0219243D01*
X0059672Y0220926D01*
X0061870Y0221836D01*
X0064250Y0221836D01*
X0066448Y0220926D01*
X0068130Y0219243D01*
X0069041Y0217045D01*
X0069041Y0214665D01*
X0068130Y0212467D01*
X0066448Y0210785D01*
X0064250Y0209874D01*
X0061870Y0209874D01*
X0059672Y0210785D01*
X0057835Y0212841D02*
X0036600Y0212841D01*
X0036600Y0214439D02*
X0057172Y0214439D01*
X0057079Y0216038D02*
X0036600Y0216038D01*
X0036600Y0217636D02*
X0057324Y0217636D01*
X0057986Y0219235D02*
X0036600Y0219235D01*
X0036600Y0220833D02*
X0059579Y0220833D01*
X0054558Y0229052D02*
X0056241Y0230735D01*
X0057151Y0232933D01*
X0057151Y0235313D01*
X0056241Y0237511D01*
X0054558Y0239193D01*
X0052360Y0240104D01*
X0049980Y0240104D01*
X0047782Y0239193D01*
X0046100Y0237511D01*
X0045189Y0235313D01*
X0045189Y0232933D01*
X0046100Y0230735D01*
X0047782Y0229052D01*
X0049980Y0228142D01*
X0052360Y0228142D01*
X0054558Y0229052D01*
X0054011Y0228826D02*
X0129554Y0228826D01*
X0129564Y0228849D02*
X0128654Y0226651D01*
X0128654Y0224272D01*
X0129564Y0222073D01*
X0131247Y0220391D01*
X0133445Y0219480D01*
X0135824Y0219480D01*
X0138023Y0220391D01*
X0139705Y0222073D01*
X0140616Y0224272D01*
X0140616Y0226651D01*
X0139705Y0228849D01*
X0138023Y0230532D01*
X0135824Y0231443D01*
X0133445Y0231443D01*
X0131247Y0230532D01*
X0129564Y0228849D01*
X0128892Y0227227D02*
X0036600Y0227227D01*
X0036600Y0225629D02*
X0128654Y0225629D01*
X0128754Y0224030D02*
X0036600Y0224030D01*
X0036600Y0222432D02*
X0129416Y0222432D01*
X0130804Y0220833D02*
X0066540Y0220833D01*
X0068134Y0219235D02*
X0218583Y0219235D01*
X0219350Y0219553D02*
X0217152Y0218642D01*
X0215470Y0216960D01*
X0214559Y0214761D01*
X0214559Y0212382D01*
X0215470Y0210184D01*
X0217152Y0208501D01*
X0219350Y0207591D01*
X0221730Y0207591D01*
X0223928Y0208501D01*
X0225611Y0210184D01*
X0226521Y0212382D01*
X0226521Y0214761D01*
X0225611Y0216960D01*
X0223928Y0218642D01*
X0221730Y0219553D01*
X0219350Y0219553D01*
X0222498Y0219235D02*
X0275228Y0219235D01*
X0275228Y0218681D02*
X0276139Y0216483D01*
X0277821Y0214800D01*
X0280020Y0213890D01*
X0282399Y0213890D01*
X0284597Y0214800D01*
X0286280Y0216483D01*
X0287191Y0218681D01*
X0287191Y0221061D01*
X0286280Y0223259D01*
X0284597Y0224941D01*
X0282399Y0225852D01*
X0280020Y0225852D01*
X0277821Y0224941D01*
X0276139Y0223259D01*
X0275228Y0221061D01*
X0275228Y0218681D01*
X0275661Y0217636D02*
X0224934Y0217636D01*
X0225993Y0216038D02*
X0276584Y0216038D01*
X0278693Y0214439D02*
X0226521Y0214439D01*
X0226521Y0212841D02*
X0339102Y0212841D01*
X0339485Y0211916D02*
X0341168Y0210233D01*
X0343366Y0209323D01*
X0345746Y0209323D01*
X0347944Y0210233D01*
X0349626Y0211916D01*
X0350537Y0214114D01*
X0350537Y0216494D01*
X0349626Y0218692D01*
X0347944Y0220374D01*
X0345746Y0221285D01*
X0343366Y0221285D01*
X0341168Y0220374D01*
X0339485Y0218692D01*
X0338575Y0216494D01*
X0338575Y0214114D01*
X0339485Y0211916D01*
X0340159Y0211242D02*
X0226049Y0211242D01*
X0225071Y0209644D02*
X0342592Y0209644D01*
X0346520Y0209644D02*
X0391193Y0209644D01*
X0391094Y0209407D02*
X0391094Y0207028D01*
X0392005Y0204829D01*
X0393688Y0203147D01*
X0395886Y0202236D01*
X0398265Y0202236D01*
X0400464Y0203147D01*
X0402146Y0204829D01*
X0403057Y0207028D01*
X0403057Y0209407D01*
X0402146Y0211605D01*
X0400464Y0213288D01*
X0398265Y0214198D01*
X0395886Y0214198D01*
X0393688Y0213288D01*
X0392005Y0211605D01*
X0391094Y0209407D01*
X0391094Y0208045D02*
X0222827Y0208045D01*
X0218253Y0208045D02*
X0203590Y0208045D01*
X0203682Y0208136D02*
X0204592Y0210335D01*
X0204592Y0212714D01*
X0203682Y0214912D01*
X0201999Y0216595D01*
X0199801Y0217505D01*
X0197421Y0217505D01*
X0195223Y0216595D01*
X0193540Y0214912D01*
X0192630Y0212714D01*
X0192630Y0210335D01*
X0193540Y0208136D01*
X0195223Y0206454D01*
X0197421Y0205543D01*
X0199801Y0205543D01*
X0201999Y0206454D01*
X0203682Y0208136D01*
X0204306Y0209644D02*
X0216010Y0209644D01*
X0215031Y0211242D02*
X0204592Y0211242D01*
X0204540Y0212841D02*
X0214559Y0212841D01*
X0214559Y0214439D02*
X0203878Y0214439D01*
X0202556Y0216038D02*
X0215088Y0216038D01*
X0216146Y0217636D02*
X0068796Y0217636D01*
X0069041Y0216038D02*
X0194666Y0216038D01*
X0193344Y0214439D02*
X0068947Y0214439D01*
X0068285Y0212841D02*
X0192682Y0212841D01*
X0192630Y0211242D02*
X0066905Y0211242D01*
X0072036Y0200309D02*
X0072036Y0196013D01*
X0072036Y0196013D01*
X0072036Y0196013D01*
X0076332Y0196013D01*
X0076332Y0198746D01*
X0076210Y0199203D01*
X0075973Y0199614D01*
X0075638Y0199949D01*
X0075227Y0200186D01*
X0074769Y0200309D01*
X0072036Y0200309D01*
X0072036Y0200053D02*
X0072036Y0200053D01*
X0072036Y0198454D02*
X0072036Y0198454D01*
X0072036Y0196856D02*
X0072036Y0196856D01*
X0072036Y0196013D02*
X0072036Y0196013D01*
X0076332Y0196013D01*
X0076332Y0193280D01*
X0076210Y0192822D01*
X0075973Y0192411D01*
X0075638Y0192076D01*
X0075227Y0191839D01*
X0074769Y0191717D01*
X0072036Y0191717D01*
X0072036Y0196012D01*
X0072036Y0195257D02*
X0072036Y0195257D01*
X0072036Y0193659D02*
X0072036Y0193659D01*
X0072036Y0192060D02*
X0072036Y0192060D01*
X0075610Y0192060D02*
X0114502Y0192060D01*
X0114722Y0192590D02*
X0113811Y0190391D01*
X0113811Y0188012D01*
X0114722Y0185814D01*
X0116404Y0184131D01*
X0118602Y0183220D01*
X0120982Y0183220D01*
X0123180Y0184131D01*
X0124863Y0185814D01*
X0125773Y0188012D01*
X0125773Y0190391D01*
X0124863Y0192590D01*
X0123180Y0194272D01*
X0120982Y0195183D01*
X0118602Y0195183D01*
X0116404Y0194272D01*
X0114722Y0192590D01*
X0115791Y0193659D02*
X0076332Y0193659D01*
X0076332Y0195257D02*
X0175675Y0195257D01*
X0177273Y0196856D02*
X0076332Y0196856D01*
X0076332Y0198454D02*
X0178872Y0198454D01*
X0180470Y0200053D02*
X0075458Y0200053D01*
X0098346Y0182469D02*
X0047610Y0182469D01*
X0049009Y0184068D02*
X0116557Y0184068D01*
X0114869Y0185666D02*
X0049009Y0185666D01*
X0049009Y0187265D02*
X0114121Y0187265D01*
X0113811Y0188863D02*
X0049009Y0188863D01*
X0048511Y0190462D02*
X0113840Y0190462D01*
X0123794Y0193659D02*
X0174076Y0193659D01*
X0172478Y0192060D02*
X0125082Y0192060D01*
X0125744Y0190462D02*
X0170879Y0190462D01*
X0169281Y0188863D02*
X0125773Y0188863D01*
X0125464Y0187265D02*
X0167682Y0187265D01*
X0166084Y0185666D02*
X0124715Y0185666D01*
X0123027Y0184068D02*
X0164485Y0184068D01*
X0162887Y0182469D02*
X0104703Y0182469D01*
X0117388Y0171279D02*
X0086178Y0171279D01*
X0086178Y0169681D02*
X0116363Y0169681D01*
X0115858Y0168082D02*
X0086178Y0168082D01*
X0086178Y0166484D02*
X0115858Y0166484D01*
X0132977Y0153696D02*
X0141281Y0153696D01*
X0142690Y0152097D02*
X0135709Y0152097D01*
X0143199Y0137711D02*
X0143251Y0137711D01*
X0142589Y0136112D02*
X0141600Y0136112D01*
X0142551Y0134514D02*
X0140002Y0134514D01*
X0138403Y0132915D02*
X0142852Y0132915D01*
X0143589Y0131317D02*
X0136805Y0131317D01*
X0136762Y0129718D02*
X0145248Y0129718D01*
X0151817Y0129718D02*
X0332882Y0129718D01*
X0333042Y0129879D02*
X0331871Y0128707D01*
X0331871Y0122058D01*
X0333042Y0120887D01*
X0339691Y0120887D01*
X0340863Y0122058D01*
X0340863Y0128707D01*
X0339691Y0129879D01*
X0333042Y0129879D01*
X0331871Y0128120D02*
X0136762Y0128120D01*
X0136762Y0126521D02*
X0331871Y0126521D01*
X0331871Y0124923D02*
X0138143Y0124923D01*
X0138143Y0123324D02*
X0258023Y0123324D01*
X0257343Y0121726D02*
X0138143Y0121726D01*
X0153476Y0131317D02*
X0400299Y0131317D01*
X0399643Y0130660D02*
X0401325Y0132343D01*
X0403524Y0133254D01*
X0405903Y0133254D01*
X0408101Y0132343D01*
X0409784Y0130660D01*
X0410694Y0128462D01*
X0410694Y0126083D01*
X0409784Y0123884D01*
X0408101Y0122202D01*
X0405903Y0121291D01*
X0403524Y0121291D01*
X0401325Y0122202D01*
X0399643Y0123884D01*
X0398732Y0126083D01*
X0398732Y0128462D01*
X0399643Y0130660D01*
X0399253Y0129718D02*
X0339852Y0129718D01*
X0340863Y0128120D02*
X0398732Y0128120D01*
X0398732Y0126521D02*
X0340863Y0126521D01*
X0340863Y0124923D02*
X0399213Y0124923D01*
X0400203Y0123324D02*
X0340863Y0123324D01*
X0340530Y0121726D02*
X0402475Y0121726D01*
X0406951Y0121726D02*
X0418732Y0121726D01*
X0418732Y0123324D02*
X0409224Y0123324D01*
X0410214Y0124923D02*
X0418732Y0124923D01*
X0418732Y0126521D02*
X0410694Y0126521D01*
X0410694Y0128120D02*
X0418732Y0128120D01*
X0418732Y0129718D02*
X0410174Y0129718D01*
X0409128Y0131317D02*
X0418732Y0131317D01*
X0418732Y0132915D02*
X0406720Y0132915D01*
X0402707Y0132915D02*
X0154212Y0132915D01*
X0154513Y0134514D02*
X0249053Y0134514D01*
X0247652Y0136112D02*
X0154476Y0136112D01*
X0153814Y0137711D02*
X0187392Y0137711D01*
X0186493Y0139309D02*
X0152513Y0139309D01*
X0164321Y0172878D02*
X0248138Y0172878D01*
X0247984Y0174476D02*
X0164321Y0174476D01*
X0164321Y0176075D02*
X0248170Y0176075D01*
X0248832Y0177673D02*
X0165445Y0177673D01*
X0167043Y0179272D02*
X0250341Y0179272D01*
X0257590Y0179272D02*
X0277329Y0179272D01*
X0276719Y0179525D02*
X0278917Y0178614D01*
X0281297Y0178614D01*
X0283495Y0179525D01*
X0285178Y0181207D01*
X0286088Y0183406D01*
X0286088Y0185785D01*
X0285178Y0187983D01*
X0283495Y0189666D01*
X0281297Y0190576D01*
X0278917Y0190576D01*
X0276719Y0189666D01*
X0275037Y0187983D01*
X0274126Y0185785D01*
X0274126Y0183406D01*
X0275037Y0181207D01*
X0276719Y0179525D01*
X0275373Y0180870D02*
X0168642Y0180870D01*
X0170240Y0182469D02*
X0274514Y0182469D01*
X0274126Y0184068D02*
X0171839Y0184068D01*
X0173437Y0185666D02*
X0274126Y0185666D01*
X0274739Y0187265D02*
X0175036Y0187265D01*
X0176634Y0188863D02*
X0275916Y0188863D01*
X0278640Y0190462D02*
X0178233Y0190462D01*
X0179831Y0192060D02*
X0203593Y0192060D01*
X0204160Y0191493D02*
X0206358Y0190583D01*
X0208738Y0190583D01*
X0210936Y0191493D01*
X0212619Y0193176D01*
X0213529Y0195374D01*
X0213529Y0197753D01*
X0212619Y0199952D01*
X0210936Y0201634D01*
X0208738Y0202545D01*
X0206358Y0202545D01*
X0204160Y0201634D01*
X0202477Y0199952D01*
X0201567Y0197753D01*
X0201567Y0195374D01*
X0202477Y0193176D01*
X0204160Y0191493D01*
X0202277Y0193659D02*
X0181430Y0193659D01*
X0183029Y0195257D02*
X0201615Y0195257D01*
X0201567Y0196856D02*
X0184627Y0196856D01*
X0186226Y0198454D02*
X0201857Y0198454D01*
X0202578Y0200053D02*
X0190938Y0200053D01*
X0191293Y0201651D02*
X0204201Y0201651D01*
X0201982Y0206447D02*
X0289484Y0206447D01*
X0289711Y0206674D02*
X0288029Y0204991D01*
X0287118Y0202793D01*
X0287118Y0200413D01*
X0288029Y0198215D01*
X0289711Y0196533D01*
X0291909Y0195622D01*
X0294289Y0195622D01*
X0296487Y0196533D01*
X0298170Y0198215D01*
X0299080Y0200413D01*
X0299080Y0202793D01*
X0298170Y0204991D01*
X0296487Y0206674D01*
X0294289Y0207584D01*
X0291909Y0207584D01*
X0289711Y0206674D01*
X0287969Y0204848D02*
X0274023Y0204848D01*
X0274558Y0204626D02*
X0272360Y0205537D01*
X0269980Y0205537D01*
X0267782Y0204626D01*
X0266100Y0202944D01*
X0265189Y0200746D01*
X0265189Y0198366D01*
X0266100Y0196168D01*
X0267782Y0194485D01*
X0269980Y0193575D01*
X0272360Y0193575D01*
X0274558Y0194485D01*
X0276241Y0196168D01*
X0277151Y0198366D01*
X0277151Y0200746D01*
X0276241Y0202944D01*
X0274558Y0204626D01*
X0275935Y0203250D02*
X0287307Y0203250D01*
X0287118Y0201651D02*
X0276776Y0201651D01*
X0277151Y0200053D02*
X0287268Y0200053D01*
X0287930Y0198454D02*
X0277151Y0198454D01*
X0276525Y0196856D02*
X0289388Y0196856D01*
X0296810Y0196856D02*
X0348522Y0196856D01*
X0348422Y0196955D02*
X0350105Y0195273D01*
X0352303Y0194362D01*
X0354683Y0194362D01*
X0356881Y0195273D01*
X0358563Y0196955D01*
X0359474Y0199154D01*
X0359474Y0201533D01*
X0358563Y0203731D01*
X0356881Y0205414D01*
X0354683Y0206324D01*
X0352303Y0206324D01*
X0350105Y0205414D01*
X0348422Y0203731D01*
X0347512Y0201533D01*
X0347512Y0199154D01*
X0348422Y0196955D01*
X0347802Y0198454D02*
X0298269Y0198454D01*
X0298931Y0200053D02*
X0347512Y0200053D01*
X0347561Y0201651D02*
X0299080Y0201651D01*
X0298891Y0203250D02*
X0348223Y0203250D01*
X0349539Y0204848D02*
X0298229Y0204848D01*
X0296714Y0206447D02*
X0391335Y0206447D01*
X0391997Y0204848D02*
X0357447Y0204848D01*
X0358763Y0203250D02*
X0393585Y0203250D01*
X0400566Y0203250D02*
X0418732Y0203250D01*
X0418732Y0204848D02*
X0402154Y0204848D01*
X0402816Y0206447D02*
X0418732Y0206447D01*
X0418732Y0208045D02*
X0403057Y0208045D01*
X0402959Y0209644D02*
X0418732Y0209644D01*
X0418732Y0211242D02*
X0402297Y0211242D01*
X0400911Y0212841D02*
X0418732Y0212841D01*
X0418732Y0214439D02*
X0371753Y0214439D01*
X0371556Y0213963D02*
X0372466Y0216161D01*
X0372466Y0218541D01*
X0371556Y0220739D01*
X0369873Y0222422D01*
X0367675Y0223332D01*
X0365295Y0223332D01*
X0363097Y0222422D01*
X0361415Y0220739D01*
X0360504Y0218541D01*
X0360504Y0216161D01*
X0361415Y0213963D01*
X0363097Y0212281D01*
X0365295Y0211370D01*
X0367675Y0211370D01*
X0369873Y0212281D01*
X0371556Y0213963D01*
X0370433Y0212841D02*
X0393240Y0212841D01*
X0391855Y0211242D02*
X0348953Y0211242D01*
X0350009Y0212841D02*
X0362537Y0212841D01*
X0361217Y0214439D02*
X0350537Y0214439D01*
X0350537Y0216038D02*
X0360555Y0216038D01*
X0360504Y0217636D02*
X0350064Y0217636D01*
X0349084Y0219235D02*
X0360791Y0219235D01*
X0361509Y0220833D02*
X0346836Y0220833D01*
X0342276Y0220833D02*
X0287191Y0220833D01*
X0287191Y0219235D02*
X0340028Y0219235D01*
X0339048Y0217636D02*
X0286758Y0217636D01*
X0285835Y0216038D02*
X0338575Y0216038D01*
X0338575Y0214439D02*
X0283726Y0214439D01*
X0286623Y0222432D02*
X0363121Y0222432D01*
X0369849Y0222432D02*
X0382157Y0222432D01*
X0382157Y0221988D02*
X0383068Y0219790D01*
X0384751Y0218107D01*
X0386949Y0217197D01*
X0389328Y0217197D01*
X0391527Y0218107D01*
X0393209Y0219790D01*
X0394120Y0221988D01*
X0394120Y0224368D01*
X0393209Y0226566D01*
X0391527Y0228248D01*
X0389328Y0229159D01*
X0386949Y0229159D01*
X0384751Y0228248D01*
X0383068Y0226566D01*
X0382157Y0224368D01*
X0382157Y0221988D01*
X0382636Y0220833D02*
X0371461Y0220833D01*
X0372179Y0219235D02*
X0383623Y0219235D01*
X0385888Y0217636D02*
X0372466Y0217636D01*
X0372415Y0216038D02*
X0418732Y0216038D01*
X0418732Y0217636D02*
X0390389Y0217636D01*
X0392654Y0219235D02*
X0418732Y0219235D01*
X0418732Y0220833D02*
X0414134Y0220833D01*
X0413456Y0220155D02*
X0415138Y0221837D01*
X0416049Y0224035D01*
X0416049Y0226415D01*
X0415138Y0228613D01*
X0413456Y0230296D01*
X0411257Y0231206D01*
X0408878Y0231206D01*
X0406680Y0230296D01*
X0404997Y0228613D01*
X0404087Y0226415D01*
X0404087Y0224035D01*
X0404997Y0221837D01*
X0406680Y0220155D01*
X0408878Y0219244D01*
X0411257Y0219244D01*
X0413456Y0220155D01*
X0415385Y0222432D02*
X0418732Y0222432D01*
X0418732Y0224030D02*
X0416047Y0224030D01*
X0416049Y0225629D02*
X0418732Y0225629D01*
X0418732Y0227227D02*
X0415712Y0227227D01*
X0414926Y0228826D02*
X0418732Y0228826D01*
X0418732Y0230424D02*
X0413145Y0230424D01*
X0418732Y0232023D02*
X0359458Y0232023D01*
X0359666Y0232231D02*
X0360576Y0234429D01*
X0360576Y0236809D01*
X0359666Y0239007D01*
X0357983Y0240689D01*
X0355785Y0241600D01*
X0353406Y0241600D01*
X0351207Y0240689D01*
X0349525Y0239007D01*
X0348614Y0236809D01*
X0348614Y0234429D01*
X0349525Y0232231D01*
X0351207Y0230548D01*
X0353406Y0229638D01*
X0355785Y0229638D01*
X0357983Y0230548D01*
X0359666Y0232231D01*
X0360242Y0233621D02*
X0418732Y0233621D01*
X0418732Y0235220D02*
X0360576Y0235220D01*
X0360572Y0236818D02*
X0418732Y0236818D01*
X0418732Y0238417D02*
X0401553Y0238417D01*
X0401566Y0238422D02*
X0403248Y0240105D01*
X0404159Y0242303D01*
X0404159Y0244683D01*
X0403248Y0246881D01*
X0401566Y0248563D01*
X0399368Y0249474D01*
X0396988Y0249474D01*
X0394790Y0248563D01*
X0393107Y0246881D01*
X0392197Y0244683D01*
X0392197Y0242303D01*
X0393107Y0240105D01*
X0394790Y0238422D01*
X0396988Y0237512D01*
X0399368Y0237512D01*
X0401566Y0238422D01*
X0403159Y0240015D02*
X0418732Y0240015D01*
X0418732Y0241614D02*
X0403874Y0241614D01*
X0404159Y0243212D02*
X0418732Y0243212D01*
X0418732Y0244811D02*
X0404106Y0244811D01*
X0403444Y0246409D02*
X0418732Y0246409D01*
X0418732Y0248008D02*
X0402121Y0248008D01*
X0394234Y0248008D02*
X0299249Y0248008D01*
X0299249Y0248392D02*
X0298077Y0249564D01*
X0291428Y0249564D01*
X0290257Y0248392D01*
X0290257Y0241743D01*
X0291428Y0240572D01*
X0298077Y0240572D01*
X0299249Y0241743D01*
X0299249Y0248392D01*
X0299249Y0246409D02*
X0392912Y0246409D01*
X0392250Y0244811D02*
X0299249Y0244811D01*
X0299249Y0243212D02*
X0392197Y0243212D01*
X0392482Y0241614D02*
X0299120Y0241614D01*
X0290386Y0241614D02*
X0276729Y0241614D01*
X0276729Y0243038D02*
X0275558Y0244209D01*
X0268909Y0244209D01*
X0267737Y0243038D01*
X0267737Y0236389D01*
X0268909Y0235217D01*
X0275558Y0235217D01*
X0276729Y0236389D01*
X0276729Y0243038D01*
X0276555Y0243212D02*
X0290257Y0243212D01*
X0290257Y0244811D02*
X0150655Y0244811D01*
X0150655Y0244587D02*
X0149745Y0242388D01*
X0148062Y0240706D01*
X0145864Y0239795D01*
X0143484Y0239795D01*
X0141286Y0240706D01*
X0139603Y0242388D01*
X0138693Y0244587D01*
X0138693Y0246966D01*
X0139603Y0249164D01*
X0141286Y0250847D01*
X0143484Y0251757D01*
X0145864Y0251757D01*
X0148062Y0250847D01*
X0149745Y0249164D01*
X0150655Y0246966D01*
X0150655Y0244587D01*
X0150086Y0243212D02*
X0267912Y0243212D01*
X0267737Y0241614D02*
X0148970Y0241614D01*
X0146395Y0240015D02*
X0267737Y0240015D01*
X0267737Y0238417D02*
X0125549Y0238417D01*
X0126133Y0238659D02*
X0127815Y0240341D01*
X0128726Y0242539D01*
X0128726Y0244919D01*
X0127815Y0247117D01*
X0126133Y0248800D01*
X0123935Y0249710D01*
X0121555Y0249710D01*
X0119357Y0248800D01*
X0117674Y0247117D01*
X0116764Y0244919D01*
X0116764Y0242539D01*
X0117674Y0240341D01*
X0119357Y0238659D01*
X0121555Y0237748D01*
X0123935Y0237748D01*
X0126133Y0238659D01*
X0127490Y0240015D02*
X0142953Y0240015D01*
X0140378Y0241614D02*
X0128343Y0241614D01*
X0128726Y0243212D02*
X0139262Y0243212D01*
X0138693Y0244811D02*
X0128726Y0244811D01*
X0128109Y0246409D02*
X0138693Y0246409D01*
X0139124Y0248008D02*
X0126925Y0248008D01*
X0124185Y0249606D02*
X0140046Y0249606D01*
X0142150Y0251205D02*
X0070143Y0251205D01*
X0070143Y0252320D02*
X0069233Y0254519D01*
X0067550Y0256201D01*
X0065352Y0257112D01*
X0062972Y0257112D01*
X0060774Y0256201D01*
X0059092Y0254519D01*
X0058181Y0252320D01*
X0058181Y0249941D01*
X0059092Y0247743D01*
X0060774Y0246060D01*
X0062972Y0245150D01*
X0065352Y0245150D01*
X0067550Y0246060D01*
X0069233Y0247743D01*
X0070143Y0249941D01*
X0070143Y0252320D01*
X0069943Y0252803D02*
X0195178Y0252803D01*
X0195178Y0251205D02*
X0147198Y0251205D01*
X0149302Y0249606D02*
X0195178Y0249606D01*
X0195178Y0248357D02*
X0196350Y0247186D01*
X0202998Y0247186D01*
X0204170Y0248357D01*
X0204170Y0255006D01*
X0202998Y0256178D01*
X0196350Y0256178D01*
X0195178Y0255006D01*
X0195178Y0248357D01*
X0195527Y0248008D02*
X0150224Y0248008D01*
X0150655Y0246409D02*
X0290257Y0246409D01*
X0290257Y0248008D02*
X0203821Y0248008D01*
X0204170Y0249606D02*
X0215650Y0249606D01*
X0215650Y0249538D02*
X0216822Y0248367D01*
X0223471Y0248367D01*
X0224643Y0249538D01*
X0224643Y0256187D01*
X0223471Y0257359D01*
X0216822Y0257359D01*
X0215650Y0256187D01*
X0215650Y0249538D01*
X0215650Y0251205D02*
X0204170Y0251205D01*
X0204170Y0252803D02*
X0215650Y0252803D01*
X0215650Y0254402D02*
X0204170Y0254402D01*
X0203176Y0256001D02*
X0215650Y0256001D01*
X0224643Y0256001D02*
X0341123Y0256001D01*
X0341123Y0257599D02*
X0168420Y0257599D01*
X0167590Y0256769D02*
X0169272Y0258451D01*
X0170183Y0260650D01*
X0170183Y0263029D01*
X0169272Y0265227D01*
X0167590Y0266910D01*
X0165391Y0267820D01*
X0163012Y0267820D01*
X0160814Y0266910D01*
X0159131Y0265227D01*
X0158220Y0263029D01*
X0158220Y0260650D01*
X0159131Y0258451D01*
X0160814Y0256769D01*
X0163012Y0255858D01*
X0165391Y0255858D01*
X0167590Y0256769D01*
X0165735Y0256001D02*
X0196172Y0256001D01*
X0195178Y0254402D02*
X0069281Y0254402D01*
X0067751Y0256001D02*
X0132015Y0256001D01*
X0132349Y0255666D02*
X0134547Y0254756D01*
X0136927Y0254756D01*
X0139125Y0255666D01*
X0140808Y0257349D01*
X0141718Y0259547D01*
X0141718Y0261927D01*
X0140808Y0264125D01*
X0139125Y0265808D01*
X0136927Y0266718D01*
X0134547Y0266718D01*
X0132349Y0265808D01*
X0130666Y0264125D01*
X0129756Y0261927D01*
X0129756Y0259547D01*
X0130666Y0257349D01*
X0132349Y0255666D01*
X0130563Y0257599D02*
X0090924Y0257599D01*
X0090903Y0257591D02*
X0093101Y0258501D01*
X0094784Y0260184D01*
X0095694Y0262382D01*
X0095694Y0264761D01*
X0094784Y0266960D01*
X0093101Y0268642D01*
X0090903Y0269553D01*
X0088524Y0269553D01*
X0086325Y0268642D01*
X0084643Y0266960D01*
X0083732Y0264761D01*
X0083732Y0262382D01*
X0084643Y0260184D01*
X0086325Y0258501D01*
X0088524Y0257591D01*
X0090903Y0257591D01*
X0088503Y0257599D02*
X0036600Y0257599D01*
X0036600Y0256001D02*
X0060573Y0256001D01*
X0059043Y0254402D02*
X0036600Y0254402D01*
X0036600Y0252803D02*
X0058381Y0252803D01*
X0058181Y0251205D02*
X0036600Y0251205D01*
X0036600Y0249606D02*
X0058320Y0249606D01*
X0058982Y0248008D02*
X0036600Y0248008D01*
X0036600Y0246409D02*
X0060425Y0246409D01*
X0052574Y0240015D02*
X0068486Y0240015D01*
X0068029Y0239558D02*
X0067118Y0237360D01*
X0067118Y0234980D01*
X0068029Y0232782D01*
X0069711Y0231100D01*
X0071909Y0230189D01*
X0074289Y0230189D01*
X0076487Y0231100D01*
X0078170Y0232782D01*
X0079080Y0234980D01*
X0079080Y0237360D01*
X0078170Y0239558D01*
X0076487Y0241241D01*
X0074289Y0242151D01*
X0071909Y0242151D01*
X0069711Y0241241D01*
X0068029Y0239558D01*
X0067556Y0238417D02*
X0055335Y0238417D01*
X0056527Y0236818D02*
X0067118Y0236818D01*
X0067118Y0235220D02*
X0057151Y0235220D01*
X0057151Y0233621D02*
X0067681Y0233621D01*
X0068788Y0232023D02*
X0056774Y0232023D01*
X0055930Y0230424D02*
X0071341Y0230424D01*
X0074857Y0230424D02*
X0131139Y0230424D01*
X0138130Y0230424D02*
X0202763Y0230424D01*
X0202669Y0230650D02*
X0203580Y0228451D01*
X0205262Y0226769D01*
X0207461Y0225858D01*
X0209840Y0225858D01*
X0212038Y0226769D01*
X0213721Y0228451D01*
X0214631Y0230650D01*
X0214631Y0233029D01*
X0213721Y0235227D01*
X0212038Y0236910D01*
X0209840Y0237820D01*
X0207461Y0237820D01*
X0205262Y0236910D01*
X0203580Y0235227D01*
X0202669Y0233029D01*
X0202669Y0230650D01*
X0202669Y0232023D02*
X0077411Y0232023D01*
X0078517Y0233621D02*
X0202915Y0233621D01*
X0203577Y0235220D02*
X0079080Y0235220D01*
X0079080Y0236818D02*
X0205171Y0236818D01*
X0212130Y0236818D02*
X0267737Y0236818D01*
X0268906Y0235220D02*
X0213724Y0235220D01*
X0214386Y0233621D02*
X0348949Y0233621D01*
X0348614Y0235220D02*
X0275560Y0235220D01*
X0276729Y0236818D02*
X0348618Y0236818D01*
X0349280Y0238417D02*
X0276729Y0238417D01*
X0276729Y0240015D02*
X0350533Y0240015D01*
X0358657Y0240015D02*
X0393197Y0240015D01*
X0394803Y0238417D02*
X0359910Y0238417D01*
X0357684Y0230424D02*
X0406990Y0230424D01*
X0405210Y0228826D02*
X0390133Y0228826D01*
X0392548Y0227227D02*
X0404423Y0227227D01*
X0404087Y0225629D02*
X0393597Y0225629D01*
X0394120Y0224030D02*
X0404089Y0224030D01*
X0404751Y0222432D02*
X0394120Y0222432D01*
X0393641Y0220833D02*
X0406001Y0220833D01*
X0386144Y0228826D02*
X0213876Y0228826D01*
X0214538Y0230424D02*
X0351507Y0230424D01*
X0349733Y0232023D02*
X0214631Y0232023D01*
X0212497Y0227227D02*
X0383729Y0227227D01*
X0382680Y0225629D02*
X0282938Y0225629D01*
X0285509Y0224030D02*
X0382157Y0224030D01*
X0359425Y0201651D02*
X0418732Y0201651D01*
X0418732Y0200053D02*
X0359474Y0200053D01*
X0359184Y0198454D02*
X0418732Y0198454D01*
X0418732Y0196856D02*
X0358464Y0196856D01*
X0356843Y0195257D02*
X0418732Y0195257D01*
X0418732Y0193659D02*
X0272562Y0193659D01*
X0269778Y0193659D02*
X0212819Y0193659D01*
X0213481Y0195257D02*
X0267010Y0195257D01*
X0265815Y0196856D02*
X0213529Y0196856D01*
X0213239Y0198454D02*
X0265189Y0198454D01*
X0265189Y0200053D02*
X0212518Y0200053D01*
X0210895Y0201651D02*
X0265564Y0201651D01*
X0266405Y0203250D02*
X0191293Y0203250D01*
X0191293Y0204848D02*
X0268317Y0204848D01*
X0275330Y0195257D02*
X0350143Y0195257D01*
X0333563Y0183889D02*
X0334474Y0181691D01*
X0334474Y0179311D01*
X0333563Y0177113D01*
X0331881Y0175430D01*
X0329683Y0174520D01*
X0327303Y0174520D01*
X0325105Y0175430D01*
X0323422Y0177113D01*
X0322512Y0179311D01*
X0322512Y0181691D01*
X0323422Y0183889D01*
X0325105Y0185571D01*
X0327303Y0186482D01*
X0329683Y0186482D01*
X0331881Y0185571D01*
X0333563Y0183889D01*
X0333385Y0184068D02*
X0418732Y0184068D01*
X0418732Y0185666D02*
X0331652Y0185666D01*
X0334152Y0182469D02*
X0418732Y0182469D01*
X0418732Y0180870D02*
X0334474Y0180870D01*
X0334458Y0179272D02*
X0418732Y0179272D01*
X0418732Y0177673D02*
X0333796Y0177673D01*
X0332526Y0176075D02*
X0418732Y0176075D01*
X0418732Y0174476D02*
X0259946Y0174476D01*
X0259793Y0172878D02*
X0418732Y0172878D01*
X0418732Y0171279D02*
X0339203Y0171279D01*
X0338620Y0171521D02*
X0336240Y0171521D01*
X0334042Y0170611D01*
X0332359Y0168928D01*
X0331449Y0166730D01*
X0331449Y0164350D01*
X0332359Y0162152D01*
X0334042Y0160470D01*
X0336240Y0159559D01*
X0338620Y0159559D01*
X0340818Y0160470D01*
X0342500Y0162152D01*
X0343411Y0164350D01*
X0343411Y0166730D01*
X0342500Y0168928D01*
X0340818Y0170611D01*
X0338620Y0171521D01*
X0335656Y0171279D02*
X0259131Y0171279D01*
X0257667Y0169681D02*
X0333112Y0169681D01*
X0332009Y0168082D02*
X0319370Y0168082D01*
X0320736Y0166484D02*
X0331449Y0166484D01*
X0331449Y0164885D02*
X0321398Y0164885D01*
X0321482Y0163287D02*
X0331889Y0163287D01*
X0332823Y0161688D02*
X0321227Y0161688D01*
X0320556Y0160090D02*
X0334959Y0160090D01*
X0339901Y0160090D02*
X0418732Y0160090D01*
X0418732Y0161688D02*
X0342037Y0161688D01*
X0342970Y0163287D02*
X0418732Y0163287D01*
X0418732Y0164885D02*
X0343411Y0164885D01*
X0343411Y0166484D02*
X0418732Y0166484D01*
X0418732Y0168082D02*
X0342851Y0168082D01*
X0341748Y0169681D02*
X0418732Y0169681D01*
X0418732Y0158491D02*
X0318958Y0158491D01*
X0312044Y0158491D02*
X0268883Y0158491D01*
X0268883Y0160090D02*
X0310445Y0160090D01*
X0309774Y0161688D02*
X0268460Y0161688D01*
X0267551Y0163287D02*
X0309520Y0163287D01*
X0309604Y0164885D02*
X0265475Y0164885D01*
X0257344Y0161688D02*
X0245173Y0161688D01*
X0246345Y0160090D02*
X0256921Y0160090D01*
X0256921Y0158491D02*
X0246954Y0158491D01*
X0246954Y0156893D02*
X0257499Y0156893D01*
X0258627Y0155294D02*
X0246563Y0155294D01*
X0245698Y0153696D02*
X0261230Y0153696D01*
X0264574Y0153696D02*
X0418732Y0153696D01*
X0418732Y0155294D02*
X0267178Y0155294D01*
X0268306Y0156893D02*
X0418732Y0156893D01*
X0418732Y0136112D02*
X0258074Y0136112D01*
X0256673Y0134514D02*
X0418732Y0134514D01*
X0418732Y0120127D02*
X0266335Y0120127D01*
X0266335Y0118529D02*
X0418732Y0118529D01*
X0418732Y0116930D02*
X0417491Y0116930D01*
X0409810Y0116930D02*
X0266335Y0116930D01*
X0265672Y0115332D02*
X0299814Y0115332D01*
X0306227Y0115332D02*
X0388330Y0115332D01*
X0388333Y0115335D02*
X0386651Y0113653D01*
X0385740Y0111454D01*
X0385740Y0109075D01*
X0386651Y0106877D01*
X0388333Y0105194D01*
X0390532Y0104283D01*
X0392911Y0104283D01*
X0395109Y0105194D01*
X0396792Y0106877D01*
X0397702Y0109075D01*
X0397702Y0111454D01*
X0396792Y0113653D01*
X0395109Y0115335D01*
X0392911Y0116246D01*
X0390532Y0116246D01*
X0388333Y0115335D01*
X0386731Y0113733D02*
X0307932Y0113733D01*
X0308687Y0112134D02*
X0386022Y0112134D01*
X0385740Y0110536D02*
X0309002Y0110536D01*
X0308977Y0108937D02*
X0385797Y0108937D01*
X0386459Y0107339D02*
X0308315Y0107339D01*
X0307034Y0105740D02*
X0387787Y0105740D01*
X0395656Y0105740D02*
X0418732Y0105740D01*
X0418732Y0104142D02*
X0286269Y0104142D01*
X0283237Y0104142D02*
X0257028Y0104142D01*
X0257028Y0102543D02*
X0280542Y0102543D01*
X0279376Y0100945D02*
X0257028Y0100945D01*
X0257028Y0099346D02*
X0278772Y0099346D01*
X0278772Y0097748D02*
X0257028Y0097748D01*
X0257028Y0096149D02*
X0279168Y0096149D01*
X0287481Y0092952D02*
X0301305Y0092952D01*
X0308831Y0092952D02*
X0315811Y0092952D01*
X0316640Y0092123D02*
X0318839Y0091213D01*
X0321218Y0091213D01*
X0323416Y0092123D01*
X0325099Y0093806D01*
X0326009Y0096004D01*
X0326009Y0098383D01*
X0325099Y0100582D01*
X0323416Y0102264D01*
X0321218Y0103175D01*
X0318839Y0103175D01*
X0316640Y0102264D01*
X0314958Y0100582D01*
X0314047Y0098383D01*
X0314047Y0096004D01*
X0314958Y0093806D01*
X0316640Y0092123D01*
X0318498Y0091354D02*
X0310259Y0091354D01*
X0310921Y0089755D02*
X0398066Y0089755D01*
X0397630Y0090807D02*
X0398540Y0088609D01*
X0400223Y0086926D01*
X0402421Y0086016D01*
X0404801Y0086016D01*
X0406999Y0086926D01*
X0408682Y0088609D01*
X0409592Y0090807D01*
X0409592Y0093187D01*
X0408682Y0095385D01*
X0406999Y0097067D01*
X0404801Y0097978D01*
X0402421Y0097978D01*
X0400223Y0097067D01*
X0398540Y0095385D01*
X0397630Y0093187D01*
X0397630Y0090807D01*
X0397630Y0091354D02*
X0321559Y0091354D01*
X0324246Y0092952D02*
X0397630Y0092952D01*
X0398195Y0094551D02*
X0325408Y0094551D01*
X0326009Y0096149D02*
X0399305Y0096149D01*
X0401866Y0097748D02*
X0326009Y0097748D01*
X0325611Y0099346D02*
X0418732Y0099346D01*
X0418732Y0097748D02*
X0405356Y0097748D01*
X0407917Y0096149D02*
X0418732Y0096149D01*
X0418732Y0094551D02*
X0409027Y0094551D01*
X0409592Y0092952D02*
X0418732Y0092952D01*
X0418732Y0091354D02*
X0409592Y0091354D01*
X0409156Y0089755D02*
X0418732Y0089755D01*
X0418732Y0088157D02*
X0408230Y0088157D01*
X0406111Y0086558D02*
X0418732Y0086558D01*
X0418732Y0084960D02*
X0337602Y0084960D01*
X0338692Y0084508D02*
X0336494Y0085419D01*
X0334114Y0085419D01*
X0331916Y0084508D01*
X0330233Y0082826D01*
X0329323Y0080628D01*
X0329323Y0078248D01*
X0330233Y0076050D01*
X0331916Y0074367D01*
X0334114Y0073457D01*
X0336494Y0073457D01*
X0338692Y0074367D01*
X0340374Y0076050D01*
X0341285Y0078248D01*
X0341285Y0080628D01*
X0340374Y0082826D01*
X0338692Y0084508D01*
X0339839Y0083361D02*
X0418732Y0083361D01*
X0418732Y0081763D02*
X0379894Y0081763D01*
X0379957Y0081699D02*
X0378786Y0082871D01*
X0372137Y0082871D01*
X0370965Y0081699D01*
X0370965Y0075050D01*
X0372137Y0073879D01*
X0378786Y0073879D01*
X0379957Y0075050D01*
X0379957Y0081699D01*
X0379957Y0080164D02*
X0418732Y0080164D01*
X0418732Y0078566D02*
X0379957Y0078566D01*
X0379957Y0076967D02*
X0418732Y0076967D01*
X0418732Y0075369D02*
X0416747Y0075369D01*
X0416761Y0075345D02*
X0416524Y0075756D01*
X0416189Y0076091D01*
X0415778Y0076328D01*
X0415320Y0076450D01*
X0412587Y0076450D01*
X0409854Y0076450D01*
X0409397Y0076328D01*
X0408986Y0076091D01*
X0408651Y0075756D01*
X0408414Y0075345D01*
X0408291Y0074887D01*
X0408291Y0072154D01*
X0408291Y0069421D01*
X0408414Y0068963D01*
X0408651Y0068553D01*
X0408986Y0068218D01*
X0409397Y0067981D01*
X0409854Y0067858D01*
X0412587Y0067858D01*
X0412587Y0072154D01*
X0408291Y0072154D01*
X0412587Y0072154D01*
X0412587Y0072154D01*
X0412587Y0072154D01*
X0412587Y0067858D01*
X0415320Y0067858D01*
X0415778Y0067981D01*
X0416189Y0068218D01*
X0416524Y0068553D01*
X0416761Y0068963D01*
X0416883Y0069421D01*
X0416883Y0072154D01*
X0412588Y0072154D01*
X0412588Y0072154D01*
X0416883Y0072154D01*
X0416883Y0074887D01*
X0416761Y0075345D01*
X0416883Y0073770D02*
X0418732Y0073770D01*
X0418732Y0072172D02*
X0416883Y0072172D01*
X0416883Y0070573D02*
X0418732Y0070573D01*
X0418732Y0068975D02*
X0416764Y0068975D01*
X0418732Y0067376D02*
X0361255Y0067376D01*
X0361600Y0068209D02*
X0360689Y0066010D01*
X0359007Y0064328D01*
X0356809Y0063417D01*
X0354429Y0063417D01*
X0352231Y0064328D01*
X0350548Y0066010D01*
X0349638Y0068209D01*
X0349638Y0070588D01*
X0350548Y0072786D01*
X0352231Y0074469D01*
X0354429Y0075380D01*
X0356809Y0075380D01*
X0359007Y0074469D01*
X0360689Y0072786D01*
X0361600Y0070588D01*
X0361600Y0068209D01*
X0361600Y0068975D02*
X0408411Y0068975D01*
X0408291Y0070573D02*
X0361600Y0070573D01*
X0360944Y0072172D02*
X0408291Y0072172D01*
X0408291Y0073770D02*
X0359706Y0073770D01*
X0356835Y0075369D02*
X0370965Y0075369D01*
X0370965Y0076967D02*
X0340754Y0076967D01*
X0341285Y0078566D02*
X0370965Y0078566D01*
X0370965Y0080164D02*
X0341285Y0080164D01*
X0340815Y0081763D02*
X0371029Y0081763D01*
X0379957Y0075369D02*
X0408428Y0075369D01*
X0412587Y0075369D02*
X0412587Y0075369D01*
X0412587Y0076450D02*
X0412587Y0072154D01*
X0412587Y0072154D01*
X0412587Y0076450D01*
X0412587Y0073770D02*
X0412587Y0073770D01*
X0412587Y0072172D02*
X0412587Y0072172D01*
X0412587Y0070573D02*
X0412587Y0070573D01*
X0412587Y0068975D02*
X0412587Y0068975D01*
X0409391Y0065778D02*
X0418732Y0065778D01*
X0418732Y0064179D02*
X0413619Y0064179D01*
X0415663Y0062581D02*
X0418732Y0062581D01*
X0418732Y0060982D02*
X0417049Y0060982D01*
X0417972Y0059384D02*
X0418732Y0059384D01*
X0418732Y0057785D02*
X0418543Y0057785D01*
X0406177Y0065778D02*
X0360457Y0065778D01*
X0358648Y0064179D02*
X0401949Y0064179D01*
X0401111Y0086558D02*
X0310838Y0086558D01*
X0311049Y0088157D02*
X0398992Y0088157D01*
X0418732Y0100945D02*
X0324736Y0100945D01*
X0322742Y0102543D02*
X0418732Y0102543D01*
X0418732Y0107339D02*
X0417136Y0107339D01*
X0418727Y0108937D02*
X0418732Y0108937D01*
X0410165Y0107339D02*
X0396983Y0107339D01*
X0397645Y0108937D02*
X0408574Y0108937D01*
X0407912Y0110536D02*
X0397702Y0110536D01*
X0397421Y0112134D02*
X0407669Y0112134D01*
X0407765Y0113733D02*
X0396711Y0113733D01*
X0395113Y0115332D02*
X0408427Y0115332D01*
X0354403Y0075369D02*
X0339693Y0075369D01*
X0337251Y0073770D02*
X0351532Y0073770D01*
X0350294Y0072172D02*
X0326125Y0072172D01*
X0326324Y0071691D02*
X0325414Y0073889D01*
X0323731Y0075571D01*
X0321533Y0076482D01*
X0319154Y0076482D01*
X0316955Y0075571D01*
X0315273Y0073889D01*
X0314362Y0071691D01*
X0314362Y0069311D01*
X0315273Y0067113D01*
X0316955Y0065430D01*
X0319154Y0064520D01*
X0321533Y0064520D01*
X0323731Y0065430D01*
X0325414Y0067113D01*
X0326324Y0069311D01*
X0326324Y0071691D01*
X0326324Y0070573D02*
X0349638Y0070573D01*
X0349638Y0068975D02*
X0326185Y0068975D01*
X0325523Y0067376D02*
X0349983Y0067376D01*
X0350781Y0065778D02*
X0324079Y0065778D01*
X0316608Y0065778D02*
X0247976Y0065778D01*
X0248485Y0066286D02*
X0249395Y0068484D01*
X0249395Y0070864D01*
X0248485Y0073062D01*
X0246802Y0074745D01*
X0244604Y0075655D01*
X0242224Y0075655D01*
X0240026Y0074745D01*
X0238344Y0073062D01*
X0237433Y0070864D01*
X0237433Y0068484D01*
X0238344Y0066286D01*
X0240026Y0064603D01*
X0242224Y0063693D01*
X0244604Y0063693D01*
X0246802Y0064603D01*
X0248485Y0066286D01*
X0248936Y0067376D02*
X0315164Y0067376D01*
X0314502Y0068975D02*
X0249395Y0068975D01*
X0249395Y0070573D02*
X0314362Y0070573D01*
X0314562Y0072172D02*
X0248853Y0072172D01*
X0247777Y0073770D02*
X0315224Y0073770D01*
X0316753Y0075369D02*
X0267753Y0075369D01*
X0267753Y0075326D02*
X0267753Y0081975D01*
X0266581Y0083146D01*
X0259932Y0083146D01*
X0258761Y0081975D01*
X0258761Y0075326D01*
X0259932Y0074154D01*
X0266581Y0074154D01*
X0267753Y0075326D01*
X0267753Y0076967D02*
X0329853Y0076967D01*
X0329323Y0078566D02*
X0267753Y0078566D01*
X0267753Y0080164D02*
X0329323Y0080164D01*
X0329793Y0081763D02*
X0267753Y0081763D01*
X0260414Y0088157D02*
X0036600Y0088157D01*
X0036600Y0089755D02*
X0260414Y0089755D01*
X0258761Y0081763D02*
X0228724Y0081763D01*
X0229080Y0080164D02*
X0258761Y0080164D01*
X0258761Y0078566D02*
X0229080Y0078566D01*
X0228436Y0076967D02*
X0258761Y0076967D01*
X0258761Y0075369D02*
X0245295Y0075369D01*
X0241533Y0075369D02*
X0227213Y0075369D01*
X0224381Y0073770D02*
X0239052Y0073770D01*
X0237975Y0072172D02*
X0214035Y0072172D01*
X0214120Y0070573D02*
X0237433Y0070573D01*
X0237433Y0068975D02*
X0213866Y0068975D01*
X0213197Y0067376D02*
X0237892Y0067376D01*
X0238852Y0065778D02*
X0211598Y0065778D01*
X0213372Y0073770D02*
X0221818Y0073770D01*
X0218985Y0075369D02*
X0212005Y0075369D01*
X0217763Y0076967D02*
X0117782Y0076967D01*
X0117978Y0075369D02*
X0204272Y0075369D01*
X0202905Y0073770D02*
X0117835Y0073770D01*
X0117173Y0072172D02*
X0202243Y0072172D01*
X0202157Y0070573D02*
X0115725Y0070573D01*
X0117120Y0078566D02*
X0217118Y0078566D01*
X0221484Y0062581D02*
X0134986Y0062581D01*
X0134928Y0060982D02*
X0219997Y0060982D01*
X0219335Y0059384D02*
X0134266Y0059384D01*
X0132937Y0057785D02*
X0219165Y0057785D01*
X0204679Y0065778D02*
X0133997Y0065778D01*
X0134705Y0064179D02*
X0241051Y0064179D01*
X0245778Y0064179D02*
X0352590Y0064179D01*
X0333357Y0073770D02*
X0325463Y0073770D01*
X0323934Y0075369D02*
X0330914Y0075369D01*
X0330769Y0083361D02*
X0308631Y0083361D01*
X0310176Y0084960D02*
X0333006Y0084960D01*
X0317314Y0102543D02*
X0288964Y0102543D01*
X0290129Y0100945D02*
X0315321Y0100945D01*
X0314446Y0099346D02*
X0290734Y0099346D01*
X0290734Y0097748D02*
X0314047Y0097748D01*
X0314047Y0096149D02*
X0290337Y0096149D01*
X0289466Y0094551D02*
X0314649Y0094551D01*
X0332203Y0121726D02*
X0266335Y0121726D01*
X0265656Y0123324D02*
X0331871Y0123324D01*
X0324460Y0176075D02*
X0259761Y0176075D01*
X0259099Y0177673D02*
X0323190Y0177673D01*
X0322528Y0179272D02*
X0282885Y0179272D01*
X0284841Y0180870D02*
X0322512Y0180870D01*
X0322834Y0182469D02*
X0285700Y0182469D01*
X0286088Y0184068D02*
X0323601Y0184068D01*
X0325334Y0185666D02*
X0286088Y0185666D01*
X0285475Y0187265D02*
X0418732Y0187265D01*
X0418732Y0188863D02*
X0284298Y0188863D01*
X0281574Y0190462D02*
X0418732Y0190462D01*
X0418732Y0192060D02*
X0211503Y0192060D01*
X0195240Y0206447D02*
X0190873Y0206447D01*
X0193632Y0208045D02*
X0148107Y0208045D01*
X0148107Y0206447D02*
X0183751Y0206447D01*
X0183331Y0204848D02*
X0148107Y0204848D01*
X0148107Y0203250D02*
X0183331Y0203250D01*
X0182069Y0201651D02*
X0147464Y0201651D01*
X0147407Y0209644D02*
X0192916Y0209644D01*
X0204804Y0227227D02*
X0140377Y0227227D01*
X0140616Y0225629D02*
X0279481Y0225629D01*
X0276910Y0224030D02*
X0140516Y0224030D01*
X0139854Y0222432D02*
X0275796Y0222432D01*
X0275228Y0220833D02*
X0138465Y0220833D01*
X0139715Y0228826D02*
X0203425Y0228826D01*
X0224643Y0249606D02*
X0418732Y0249606D01*
X0418732Y0251205D02*
X0349183Y0251205D01*
X0348943Y0250965D02*
X0350115Y0252137D01*
X0350115Y0258786D01*
X0348943Y0259957D01*
X0342294Y0259957D01*
X0341123Y0258786D01*
X0341123Y0252137D01*
X0342294Y0250965D01*
X0348943Y0250965D01*
X0350115Y0252803D02*
X0418732Y0252803D01*
X0418732Y0254402D02*
X0350115Y0254402D01*
X0350115Y0256001D02*
X0418732Y0256001D01*
X0418732Y0257599D02*
X0350115Y0257599D01*
X0349703Y0259198D02*
X0385949Y0259198D01*
X0386011Y0259162D02*
X0386469Y0259039D01*
X0389202Y0259039D01*
X0391935Y0259039D01*
X0392392Y0259162D01*
X0392803Y0259399D01*
X0393138Y0259734D01*
X0393375Y0260145D01*
X0393498Y0260602D01*
X0393498Y0263335D01*
X0389202Y0263335D01*
X0389202Y0263335D01*
X0389202Y0259039D01*
X0389202Y0263335D01*
X0389202Y0263335D01*
X0393498Y0263335D01*
X0393498Y0266068D01*
X0393375Y0266526D01*
X0393138Y0266937D01*
X0392803Y0267272D01*
X0392392Y0267509D01*
X0391935Y0267631D01*
X0389202Y0267631D01*
X0389202Y0263336D01*
X0389202Y0263336D01*
X0389202Y0267631D01*
X0386469Y0267631D01*
X0386011Y0267509D01*
X0385600Y0267272D01*
X0385265Y0266937D01*
X0385028Y0266526D01*
X0384906Y0266068D01*
X0384906Y0263335D01*
X0384906Y0260602D01*
X0385028Y0260145D01*
X0385265Y0259734D01*
X0385600Y0259399D01*
X0386011Y0259162D01*
X0384906Y0260796D02*
X0290121Y0260796D01*
X0290847Y0261522D02*
X0291757Y0263721D01*
X0291757Y0266100D01*
X0290847Y0268298D01*
X0289164Y0269981D01*
X0286966Y0270891D01*
X0284587Y0270891D01*
X0282388Y0269981D01*
X0280706Y0268298D01*
X0279795Y0266100D01*
X0279795Y0263721D01*
X0280706Y0261522D01*
X0282388Y0259840D01*
X0284587Y0258929D01*
X0286966Y0258929D01*
X0289164Y0259840D01*
X0290847Y0261522D01*
X0291208Y0262395D02*
X0384906Y0262395D01*
X0384906Y0263335D02*
X0389201Y0263335D01*
X0389201Y0263335D01*
X0384906Y0263335D01*
X0384906Y0263993D02*
X0291757Y0263993D01*
X0291757Y0265592D02*
X0384906Y0265592D01*
X0385519Y0267190D02*
X0291306Y0267190D01*
X0290357Y0268789D02*
X0418732Y0268789D01*
X0418732Y0270387D02*
X0288183Y0270387D01*
X0283369Y0270387D02*
X0216684Y0270387D01*
X0216241Y0269317D02*
X0217151Y0271516D01*
X0217151Y0273895D01*
X0216241Y0276094D01*
X0214558Y0277776D01*
X0212360Y0278687D01*
X0209980Y0278687D01*
X0207782Y0277776D01*
X0206100Y0276094D01*
X0205189Y0273895D01*
X0205189Y0271516D01*
X0206100Y0269317D01*
X0207782Y0267635D01*
X0209980Y0266724D01*
X0212360Y0266724D01*
X0214558Y0267635D01*
X0216241Y0269317D01*
X0215712Y0268789D02*
X0281196Y0268789D01*
X0280247Y0267190D02*
X0213484Y0267190D01*
X0208856Y0267190D02*
X0166913Y0267190D01*
X0168908Y0265592D02*
X0279795Y0265592D01*
X0279795Y0263993D02*
X0169783Y0263993D01*
X0170183Y0262395D02*
X0280345Y0262395D01*
X0281432Y0260796D02*
X0170183Y0260796D01*
X0169581Y0259198D02*
X0283939Y0259198D01*
X0287614Y0259198D02*
X0341534Y0259198D01*
X0341123Y0254402D02*
X0224643Y0254402D01*
X0224643Y0252803D02*
X0341123Y0252803D01*
X0342055Y0251205D02*
X0224643Y0251205D01*
X0206628Y0268789D02*
X0092748Y0268789D01*
X0094553Y0267190D02*
X0161490Y0267190D01*
X0159495Y0265592D02*
X0139341Y0265592D01*
X0140862Y0263993D02*
X0158620Y0263993D01*
X0158220Y0262395D02*
X0141524Y0262395D01*
X0141718Y0260796D02*
X0158220Y0260796D01*
X0158822Y0259198D02*
X0141573Y0259198D01*
X0140911Y0257599D02*
X0159983Y0257599D01*
X0162668Y0256001D02*
X0139459Y0256001D01*
X0129901Y0259198D02*
X0093798Y0259198D01*
X0095038Y0260796D02*
X0129756Y0260796D01*
X0129950Y0262395D02*
X0095694Y0262395D01*
X0095694Y0263993D02*
X0130612Y0263993D01*
X0132133Y0265592D02*
X0095351Y0265592D01*
X0086679Y0268789D02*
X0036600Y0268789D01*
X0036600Y0270387D02*
X0205656Y0270387D01*
X0205189Y0271986D02*
X0158909Y0271986D01*
X0158653Y0271729D02*
X0160335Y0273412D01*
X0161246Y0275610D01*
X0161246Y0277990D01*
X0160335Y0280188D01*
X0158653Y0281871D01*
X0156454Y0282781D01*
X0154075Y0282781D01*
X0151877Y0281871D01*
X0150194Y0280188D01*
X0149283Y0277990D01*
X0149283Y0275610D01*
X0150194Y0273412D01*
X0151877Y0271729D01*
X0154075Y0270819D01*
X0156454Y0270819D01*
X0158653Y0271729D01*
X0160406Y0273584D02*
X0174271Y0273584D01*
X0173806Y0273777D02*
X0176004Y0272866D01*
X0178383Y0272866D01*
X0180582Y0273777D01*
X0182264Y0275459D01*
X0183175Y0277658D01*
X0183175Y0280037D01*
X0182264Y0282235D01*
X0180582Y0283918D01*
X0178383Y0284828D01*
X0176004Y0284828D01*
X0173806Y0283918D01*
X0172123Y0282235D01*
X0171213Y0280037D01*
X0171213Y0277658D01*
X0172123Y0275459D01*
X0173806Y0273777D01*
X0172400Y0275183D02*
X0161069Y0275183D01*
X0161246Y0276781D02*
X0171576Y0276781D01*
X0171213Y0278380D02*
X0161084Y0278380D01*
X0160422Y0279978D02*
X0171213Y0279978D01*
X0171850Y0281577D02*
X0158946Y0281577D01*
X0151583Y0281577D02*
X0108687Y0281577D01*
X0108687Y0281769D02*
X0107776Y0283968D01*
X0106094Y0285650D01*
X0103895Y0286561D01*
X0101516Y0286561D01*
X0099317Y0285650D01*
X0097635Y0283968D01*
X0096724Y0281769D01*
X0096724Y0279390D01*
X0097635Y0277191D01*
X0099317Y0275509D01*
X0101516Y0274598D01*
X0103895Y0274598D01*
X0106094Y0275509D01*
X0107776Y0277191D01*
X0108687Y0279390D01*
X0108687Y0281769D01*
X0108104Y0283175D02*
X0173063Y0283175D01*
X0175872Y0284774D02*
X0106970Y0284774D01*
X0104350Y0286372D02*
X0195423Y0286372D01*
X0195892Y0285903D02*
X0198091Y0284992D01*
X0200470Y0284992D01*
X0202668Y0285903D01*
X0204351Y0287585D01*
X0205261Y0289784D01*
X0205261Y0292163D01*
X0204351Y0294361D01*
X0202668Y0296044D01*
X0200470Y0296954D01*
X0198091Y0296954D01*
X0195892Y0296044D01*
X0194210Y0294361D01*
X0193299Y0292163D01*
X0193299Y0289784D01*
X0194210Y0287585D01*
X0195892Y0285903D01*
X0194050Y0287971D02*
X0036600Y0287971D01*
X0036600Y0289569D02*
X0193388Y0289569D01*
X0193299Y0291168D02*
X0166576Y0291168D01*
X0166494Y0291134D02*
X0168692Y0292044D01*
X0170374Y0293727D01*
X0171285Y0295925D01*
X0171285Y0298305D01*
X0170374Y0300503D01*
X0168692Y0302185D01*
X0166494Y0303096D01*
X0164114Y0303096D01*
X0161916Y0302185D01*
X0160233Y0300503D01*
X0159323Y0298305D01*
X0159323Y0295925D01*
X0160233Y0293727D01*
X0161916Y0292044D01*
X0164114Y0291134D01*
X0166494Y0291134D01*
X0164032Y0291168D02*
X0036600Y0291168D01*
X0036600Y0292766D02*
X0161194Y0292766D01*
X0159969Y0294365D02*
X0094792Y0294365D01*
X0094204Y0293777D02*
X0095886Y0295459D01*
X0096797Y0297658D01*
X0096797Y0300037D01*
X0095886Y0302235D01*
X0094204Y0303918D01*
X0092005Y0304828D01*
X0089626Y0304828D01*
X0087428Y0303918D01*
X0085745Y0302235D01*
X0084835Y0300037D01*
X0084835Y0297658D01*
X0085745Y0295459D01*
X0087428Y0293777D01*
X0089626Y0292866D01*
X0092005Y0292866D01*
X0094204Y0293777D01*
X0096095Y0295963D02*
X0159323Y0295963D01*
X0159323Y0297562D02*
X0096757Y0297562D01*
X0096797Y0299160D02*
X0159677Y0299160D01*
X0160489Y0300759D02*
X0096498Y0300759D01*
X0095764Y0302357D02*
X0162331Y0302357D01*
X0168277Y0302357D02*
X0210220Y0302357D01*
X0211083Y0302000D02*
X0208884Y0302911D01*
X0207202Y0304593D01*
X0206291Y0306791D01*
X0206291Y0309171D01*
X0207202Y0311369D01*
X0208884Y0313052D01*
X0211083Y0313962D01*
X0213462Y0313962D01*
X0215660Y0313052D01*
X0217343Y0311369D01*
X0218254Y0309171D01*
X0218254Y0306791D01*
X0217343Y0304593D01*
X0215660Y0302911D01*
X0213462Y0302000D01*
X0211083Y0302000D01*
X0214325Y0302357D02*
X0235353Y0302357D01*
X0235666Y0301601D02*
X0237349Y0299918D01*
X0239547Y0299008D01*
X0241927Y0299008D01*
X0244125Y0299918D01*
X0245808Y0301601D01*
X0246718Y0303799D01*
X0246718Y0306179D01*
X0245808Y0308377D01*
X0244125Y0310059D01*
X0241927Y0310970D01*
X0239547Y0310970D01*
X0237349Y0310059D01*
X0235666Y0308377D01*
X0234756Y0306179D01*
X0234756Y0303799D01*
X0235666Y0301601D01*
X0236509Y0300759D02*
X0170119Y0300759D01*
X0170931Y0299160D02*
X0239179Y0299160D01*
X0242295Y0299160D02*
X0280898Y0299160D01*
X0280898Y0298996D02*
X0281808Y0296798D01*
X0283491Y0295115D01*
X0285689Y0294205D01*
X0288068Y0294205D01*
X0290267Y0295115D01*
X0291949Y0296798D01*
X0292860Y0298996D01*
X0292860Y0301376D01*
X0291949Y0303574D01*
X0290267Y0305256D01*
X0288068Y0306167D01*
X0285689Y0306167D01*
X0283491Y0305256D01*
X0281808Y0303574D01*
X0280898Y0301376D01*
X0280898Y0298996D01*
X0281492Y0297562D02*
X0225127Y0297562D01*
X0224597Y0298091D02*
X0222399Y0299002D01*
X0220020Y0299002D01*
X0217821Y0298091D01*
X0216139Y0296408D01*
X0215228Y0294210D01*
X0215228Y0291831D01*
X0216139Y0289632D01*
X0217821Y0287950D01*
X0220020Y0287039D01*
X0222399Y0287039D01*
X0224597Y0287950D01*
X0226280Y0289632D01*
X0227191Y0291831D01*
X0227191Y0294210D01*
X0226280Y0296408D01*
X0224597Y0298091D01*
X0226464Y0295963D02*
X0282643Y0295963D01*
X0285303Y0294365D02*
X0227127Y0294365D01*
X0227191Y0292766D02*
X0356853Y0292766D01*
X0356926Y0292944D02*
X0356016Y0290746D01*
X0356016Y0288366D01*
X0356926Y0286168D01*
X0358609Y0284485D01*
X0360807Y0283575D01*
X0363187Y0283575D01*
X0365385Y0284485D01*
X0367067Y0286168D01*
X0367978Y0288366D01*
X0367978Y0290746D01*
X0367067Y0292944D01*
X0365385Y0294626D01*
X0363187Y0295537D01*
X0360807Y0295537D01*
X0358609Y0294626D01*
X0356926Y0292944D01*
X0356191Y0291168D02*
X0297098Y0291168D01*
X0297005Y0291206D02*
X0294626Y0291206D01*
X0292428Y0290296D01*
X0290745Y0288613D01*
X0289835Y0286415D01*
X0289835Y0284035D01*
X0290745Y0281837D01*
X0292428Y0280155D01*
X0294626Y0279244D01*
X0297005Y0279244D01*
X0299204Y0280155D01*
X0300886Y0281837D01*
X0301797Y0284035D01*
X0301797Y0286415D01*
X0300886Y0288613D01*
X0299204Y0290296D01*
X0297005Y0291206D01*
X0294533Y0291168D02*
X0226916Y0291168D01*
X0226217Y0289569D02*
X0291701Y0289569D01*
X0290479Y0287971D02*
X0277552Y0287971D01*
X0277275Y0288248D02*
X0275076Y0289159D01*
X0272697Y0289159D01*
X0270499Y0288248D01*
X0268816Y0286566D01*
X0267906Y0284368D01*
X0267906Y0281988D01*
X0268816Y0279790D01*
X0270499Y0278107D01*
X0272697Y0277197D01*
X0275076Y0277197D01*
X0277275Y0278107D01*
X0278957Y0279790D01*
X0279868Y0281988D01*
X0279868Y0284368D01*
X0278957Y0286566D01*
X0277275Y0288248D01*
X0279037Y0286372D02*
X0289835Y0286372D01*
X0289835Y0284774D02*
X0279700Y0284774D01*
X0279868Y0283175D02*
X0290191Y0283175D01*
X0291006Y0281577D02*
X0279697Y0281577D01*
X0279035Y0279978D02*
X0292854Y0279978D01*
X0298778Y0279978D02*
X0373961Y0279978D01*
X0373934Y0279952D02*
X0373024Y0277753D01*
X0373024Y0275374D01*
X0373934Y0273176D01*
X0375617Y0271493D01*
X0377815Y0270583D01*
X0380194Y0270583D01*
X0382393Y0271493D01*
X0384075Y0273176D01*
X0384986Y0275374D01*
X0384986Y0277753D01*
X0384075Y0279952D01*
X0382393Y0281634D01*
X0380194Y0282545D01*
X0377815Y0282545D01*
X0375617Y0281634D01*
X0373934Y0279952D01*
X0373283Y0278380D02*
X0277547Y0278380D01*
X0270226Y0278380D02*
X0213101Y0278380D01*
X0215553Y0276781D02*
X0373024Y0276781D01*
X0373103Y0275183D02*
X0216618Y0275183D01*
X0217151Y0273584D02*
X0373765Y0273584D01*
X0375124Y0271986D02*
X0217151Y0271986D01*
X0209239Y0278380D02*
X0183175Y0278380D01*
X0183175Y0279978D02*
X0268738Y0279978D01*
X0268076Y0281577D02*
X0182537Y0281577D01*
X0181324Y0283175D02*
X0267906Y0283175D01*
X0268074Y0284774D02*
X0178515Y0284774D01*
X0182812Y0276781D02*
X0206787Y0276781D01*
X0205722Y0275183D02*
X0181988Y0275183D01*
X0180117Y0273584D02*
X0205189Y0273584D01*
X0203138Y0286372D02*
X0268736Y0286372D01*
X0270221Y0287971D02*
X0224618Y0287971D01*
X0217801Y0287971D02*
X0204511Y0287971D01*
X0205173Y0289569D02*
X0216202Y0289569D01*
X0215503Y0291168D02*
X0205261Y0291168D01*
X0205012Y0292766D02*
X0215228Y0292766D01*
X0215292Y0294365D02*
X0204347Y0294365D01*
X0202749Y0295963D02*
X0215955Y0295963D01*
X0217292Y0297562D02*
X0171285Y0297562D01*
X0171285Y0295963D02*
X0195812Y0295963D01*
X0194213Y0294365D02*
X0170639Y0294365D01*
X0169414Y0292766D02*
X0193549Y0292766D01*
X0207839Y0303956D02*
X0094112Y0303956D01*
X0087520Y0303956D02*
X0036600Y0303956D01*
X0036600Y0305554D02*
X0206804Y0305554D01*
X0206291Y0307153D02*
X0036600Y0307153D01*
X0036600Y0308751D02*
X0206291Y0308751D01*
X0206780Y0310350D02*
X0036600Y0310350D01*
X0036600Y0311948D02*
X0207781Y0311948D01*
X0210080Y0313547D02*
X0160738Y0313547D01*
X0160824Y0313633D02*
X0159652Y0312461D01*
X0153003Y0312461D01*
X0151831Y0313633D01*
X0151831Y0320282D01*
X0153003Y0321454D01*
X0159652Y0321454D01*
X0160824Y0320282D01*
X0160824Y0313633D01*
X0160824Y0315145D02*
X0228146Y0315145D01*
X0228412Y0314879D02*
X0230610Y0313969D01*
X0232990Y0313969D01*
X0235188Y0314879D01*
X0236871Y0316562D01*
X0237781Y0318760D01*
X0237781Y0321139D01*
X0236871Y0323338D01*
X0235188Y0325020D01*
X0232990Y0325931D01*
X0230610Y0325931D01*
X0228412Y0325020D01*
X0226729Y0323338D01*
X0225819Y0321139D01*
X0225819Y0318760D01*
X0226729Y0316562D01*
X0228412Y0314879D01*
X0226654Y0316744D02*
X0160824Y0316744D01*
X0160824Y0318342D02*
X0225992Y0318342D01*
X0225819Y0319941D02*
X0160824Y0319941D01*
X0151831Y0319941D02*
X0086335Y0319941D01*
X0086335Y0321539D02*
X0225985Y0321539D01*
X0226647Y0323138D02*
X0085212Y0323138D01*
X0085164Y0323186D02*
X0078515Y0323186D01*
X0077343Y0322014D01*
X0077343Y0315365D01*
X0078515Y0314194D01*
X0085164Y0314194D01*
X0086335Y0315365D01*
X0086335Y0322014D01*
X0085164Y0323186D01*
X0086335Y0318342D02*
X0151831Y0318342D01*
X0151831Y0316744D02*
X0086335Y0316744D01*
X0086116Y0315145D02*
X0151831Y0315145D01*
X0151918Y0313547D02*
X0036600Y0313547D01*
X0036600Y0315145D02*
X0077563Y0315145D01*
X0077343Y0316744D02*
X0036600Y0316744D01*
X0036600Y0318342D02*
X0077343Y0318342D01*
X0077343Y0319941D02*
X0036600Y0319941D01*
X0036600Y0321539D02*
X0077343Y0321539D01*
X0078467Y0323138D02*
X0036600Y0323138D01*
X0036600Y0324737D02*
X0228128Y0324737D01*
X0235472Y0324737D02*
X0248390Y0324737D01*
X0248659Y0325385D02*
X0247748Y0323187D01*
X0247748Y0320807D01*
X0248659Y0318609D01*
X0250341Y0316926D01*
X0252539Y0316016D01*
X0254919Y0316016D01*
X0257117Y0316926D01*
X0258800Y0318609D01*
X0259710Y0320807D01*
X0259710Y0323187D01*
X0258800Y0325385D01*
X0257117Y0327067D01*
X0254919Y0327978D01*
X0252539Y0327978D01*
X0250341Y0327067D01*
X0248659Y0325385D01*
X0249609Y0326335D02*
X0036600Y0326335D01*
X0036600Y0327934D02*
X0117413Y0327934D01*
X0118051Y0327669D02*
X0120431Y0327669D01*
X0122629Y0328580D01*
X0124311Y0330262D01*
X0125222Y0332461D01*
X0125222Y0334840D01*
X0124311Y0337038D01*
X0122629Y0338721D01*
X0120431Y0339631D01*
X0118051Y0339631D01*
X0115853Y0338721D01*
X0114170Y0337038D01*
X0113260Y0334840D01*
X0113260Y0332461D01*
X0114170Y0330262D01*
X0115853Y0328580D01*
X0118051Y0327669D01*
X0121069Y0327934D02*
X0252432Y0327934D01*
X0255026Y0327934D02*
X0342523Y0327934D01*
X0342625Y0327832D02*
X0344823Y0326921D01*
X0347202Y0326921D01*
X0349401Y0327832D01*
X0351083Y0329514D01*
X0351994Y0331713D01*
X0351994Y0334092D01*
X0351083Y0336290D01*
X0349401Y0337973D01*
X0347202Y0338883D01*
X0344823Y0338883D01*
X0342625Y0337973D01*
X0340942Y0336290D01*
X0340031Y0334092D01*
X0340031Y0331713D01*
X0340942Y0329514D01*
X0342625Y0327832D01*
X0340935Y0329532D02*
X0123581Y0329532D01*
X0124671Y0331131D02*
X0340273Y0331131D01*
X0340031Y0332729D02*
X0125222Y0332729D01*
X0125222Y0334328D02*
X0240543Y0334328D01*
X0240650Y0334283D02*
X0243029Y0334283D01*
X0245227Y0335194D01*
X0246910Y0336877D01*
X0247820Y0339075D01*
X0247820Y0341454D01*
X0246910Y0343653D01*
X0245227Y0345335D01*
X0243029Y0346246D01*
X0240650Y0346246D01*
X0238451Y0345335D01*
X0236769Y0343653D01*
X0235858Y0341454D01*
X0235858Y0339075D01*
X0236769Y0336877D01*
X0238451Y0335194D01*
X0240650Y0334283D01*
X0243136Y0334328D02*
X0340129Y0334328D01*
X0340791Y0335926D02*
X0245959Y0335926D01*
X0247178Y0337525D02*
X0342176Y0337525D01*
X0349849Y0337525D02*
X0418732Y0337525D01*
X0418732Y0339123D02*
X0247820Y0339123D01*
X0247820Y0340722D02*
X0418732Y0340722D01*
X0418732Y0342320D02*
X0247462Y0342320D01*
X0246644Y0343919D02*
X0402478Y0343919D01*
X0400211Y0345517D02*
X0244788Y0345517D01*
X0238891Y0345517D02*
X0143490Y0345517D01*
X0143490Y0344350D02*
X0142579Y0342152D01*
X0140897Y0340470D01*
X0138698Y0339559D01*
X0136319Y0339559D01*
X0134121Y0340470D01*
X0132438Y0342152D01*
X0131528Y0344350D01*
X0131528Y0346730D01*
X0132438Y0348928D01*
X0134121Y0350611D01*
X0136319Y0351521D01*
X0138698Y0351521D01*
X0140897Y0350611D01*
X0142579Y0348928D01*
X0143490Y0346730D01*
X0143490Y0344350D01*
X0143311Y0343919D02*
X0237035Y0343919D01*
X0236217Y0342320D02*
X0142649Y0342320D01*
X0141149Y0340722D02*
X0235858Y0340722D01*
X0235858Y0339123D02*
X0121658Y0339123D01*
X0123825Y0337525D02*
X0236500Y0337525D01*
X0237719Y0335926D02*
X0124772Y0335926D01*
X0116824Y0339123D02*
X0036600Y0339123D01*
X0036600Y0337525D02*
X0114657Y0337525D01*
X0113710Y0335926D02*
X0036600Y0335926D01*
X0036600Y0334328D02*
X0113260Y0334328D01*
X0113260Y0332729D02*
X0036600Y0332729D01*
X0036600Y0331131D02*
X0113811Y0331131D01*
X0114901Y0329532D02*
X0036600Y0329532D01*
X0036600Y0340722D02*
X0100898Y0340722D01*
X0101043Y0340661D02*
X0103423Y0340661D01*
X0105621Y0341572D01*
X0107304Y0343254D01*
X0108214Y0345453D01*
X0108214Y0347832D01*
X0107304Y0350031D01*
X0105621Y0351713D01*
X0103423Y0352624D01*
X0101043Y0352624D01*
X0098845Y0351713D01*
X0097163Y0350031D01*
X0096252Y0347832D01*
X0096252Y0345453D01*
X0097163Y0343254D01*
X0098845Y0341572D01*
X0101043Y0340661D01*
X0103568Y0340722D02*
X0133869Y0340722D01*
X0132369Y0342320D02*
X0106369Y0342320D01*
X0107579Y0343919D02*
X0131706Y0343919D01*
X0131528Y0345517D02*
X0108214Y0345517D01*
X0108214Y0347116D02*
X0131687Y0347116D01*
X0132349Y0348714D02*
X0107849Y0348714D01*
X0107021Y0350313D02*
X0114280Y0350313D01*
X0113806Y0350509D02*
X0116004Y0349598D01*
X0118383Y0349598D01*
X0120582Y0350509D01*
X0122264Y0352191D01*
X0123175Y0354390D01*
X0123175Y0356769D01*
X0122264Y0358968D01*
X0120582Y0360650D01*
X0118383Y0361561D01*
X0116004Y0361561D01*
X0113806Y0360650D01*
X0112123Y0358968D01*
X0111213Y0356769D01*
X0111213Y0354390D01*
X0112123Y0352191D01*
X0113806Y0350509D01*
X0112403Y0351911D02*
X0105143Y0351911D01*
X0099323Y0351911D02*
X0058653Y0351911D01*
X0058765Y0353510D02*
X0111577Y0353510D01*
X0111213Y0355108D02*
X0058765Y0355108D01*
X0058384Y0356707D02*
X0111213Y0356707D01*
X0111849Y0358305D02*
X0057904Y0358305D01*
X0056981Y0359904D02*
X0113059Y0359904D01*
X0115863Y0361502D02*
X0055717Y0361502D01*
X0058225Y0350313D02*
X0097445Y0350313D01*
X0096617Y0348714D02*
X0057560Y0348714D01*
X0056637Y0347116D02*
X0096252Y0347116D01*
X0096252Y0345517D02*
X0055121Y0345517D01*
X0052854Y0343919D02*
X0096887Y0343919D01*
X0098097Y0342320D02*
X0036600Y0342320D01*
X0036600Y0343919D02*
X0042242Y0343919D01*
X0039975Y0345517D02*
X0036600Y0345517D01*
X0036600Y0347116D02*
X0038459Y0347116D01*
X0037536Y0348714D02*
X0036600Y0348714D01*
X0036600Y0350313D02*
X0036872Y0350313D01*
X0036600Y0302357D02*
X0085867Y0302357D01*
X0085134Y0300759D02*
X0036600Y0300759D01*
X0036600Y0299160D02*
X0084835Y0299160D01*
X0084874Y0297562D02*
X0036600Y0297562D01*
X0036600Y0295963D02*
X0085536Y0295963D01*
X0086840Y0294365D02*
X0036600Y0294365D01*
X0036600Y0286372D02*
X0101061Y0286372D01*
X0098441Y0284774D02*
X0036600Y0284774D01*
X0036600Y0283175D02*
X0076961Y0283175D01*
X0077388Y0283603D02*
X0075706Y0281920D01*
X0074795Y0279722D01*
X0074795Y0277343D01*
X0075706Y0275144D01*
X0077388Y0273462D01*
X0079587Y0272551D01*
X0081966Y0272551D01*
X0084164Y0273462D01*
X0085847Y0275144D01*
X0086757Y0277343D01*
X0086757Y0279722D01*
X0085847Y0281920D01*
X0084164Y0283603D01*
X0081966Y0284513D01*
X0079587Y0284513D01*
X0077388Y0283603D01*
X0075564Y0281577D02*
X0036600Y0281577D01*
X0036600Y0279978D02*
X0074901Y0279978D01*
X0074795Y0278380D02*
X0036600Y0278380D01*
X0036600Y0276781D02*
X0075028Y0276781D01*
X0075690Y0275183D02*
X0036600Y0275183D01*
X0036600Y0273584D02*
X0077266Y0273584D01*
X0084287Y0273584D02*
X0150123Y0273584D01*
X0149461Y0275183D02*
X0105306Y0275183D01*
X0107366Y0276781D02*
X0149283Y0276781D01*
X0149445Y0278380D02*
X0108268Y0278380D01*
X0108687Y0279978D02*
X0150107Y0279978D01*
X0151620Y0271986D02*
X0036600Y0271986D01*
X0036600Y0267190D02*
X0084873Y0267190D01*
X0084076Y0265592D02*
X0036600Y0265592D01*
X0036600Y0263993D02*
X0083732Y0263993D01*
X0083732Y0262395D02*
X0036600Y0262395D01*
X0036600Y0260796D02*
X0084389Y0260796D01*
X0085629Y0259198D02*
X0036600Y0259198D01*
X0036600Y0244811D02*
X0116764Y0244811D01*
X0116764Y0243212D02*
X0036600Y0243212D01*
X0036600Y0241614D02*
X0070612Y0241614D01*
X0075586Y0241614D02*
X0117147Y0241614D01*
X0118000Y0240015D02*
X0077712Y0240015D01*
X0078642Y0238417D02*
X0119940Y0238417D01*
X0117381Y0246409D02*
X0067899Y0246409D01*
X0069343Y0248008D02*
X0118565Y0248008D01*
X0121305Y0249606D02*
X0070005Y0249606D01*
X0049767Y0240015D02*
X0036600Y0240015D01*
X0036600Y0238417D02*
X0047006Y0238417D01*
X0045813Y0236818D02*
X0036600Y0236818D01*
X0036600Y0235220D02*
X0045189Y0235220D01*
X0045189Y0233621D02*
X0036600Y0233621D01*
X0036600Y0232023D02*
X0045566Y0232023D01*
X0046410Y0230424D02*
X0036600Y0230424D01*
X0036600Y0228826D02*
X0048329Y0228826D01*
X0044713Y0191017D02*
X0044713Y0186721D01*
X0044713Y0191017D01*
X0044713Y0190462D02*
X0044713Y0190462D01*
X0044713Y0188863D02*
X0044713Y0188863D01*
X0044713Y0187265D02*
X0044713Y0187265D01*
X0044713Y0186721D02*
X0044713Y0186721D01*
X0044713Y0185666D02*
X0044713Y0185666D01*
X0044713Y0184068D02*
X0044713Y0184068D01*
X0044713Y0182469D02*
X0044713Y0182469D01*
X0085863Y0275183D02*
X0100105Y0275183D01*
X0098045Y0276781D02*
X0086525Y0276781D01*
X0086757Y0278380D02*
X0097143Y0278380D01*
X0096724Y0279978D02*
X0086651Y0279978D01*
X0085989Y0281577D02*
X0096724Y0281577D01*
X0097307Y0283175D02*
X0084592Y0283175D01*
X0120108Y0350313D02*
X0133823Y0350313D01*
X0141195Y0350313D02*
X0154274Y0350313D01*
X0154160Y0350343D02*
X0154618Y0350220D01*
X0157351Y0350220D01*
X0157351Y0354516D01*
X0157351Y0354516D01*
X0157351Y0350220D01*
X0160084Y0350220D01*
X0160542Y0350343D01*
X0160952Y0350580D01*
X0161288Y0350915D01*
X0161525Y0351326D01*
X0161647Y0351783D01*
X0161647Y0354516D01*
X0157351Y0354516D01*
X0153055Y0354516D01*
X0153055Y0351783D01*
X0153178Y0351326D01*
X0153415Y0350915D01*
X0153750Y0350580D01*
X0154160Y0350343D01*
X0153055Y0351911D02*
X0121984Y0351911D01*
X0122810Y0353510D02*
X0153055Y0353510D01*
X0153055Y0354517D02*
X0157351Y0354517D01*
X0157351Y0358813D01*
X0154618Y0358813D01*
X0154160Y0358690D01*
X0153750Y0358453D01*
X0153415Y0358118D01*
X0153178Y0357707D01*
X0153055Y0357250D01*
X0153055Y0354517D01*
X0153055Y0355108D02*
X0123175Y0355108D01*
X0123175Y0356707D02*
X0153055Y0356707D01*
X0153602Y0358305D02*
X0122539Y0358305D01*
X0121328Y0359904D02*
X0228567Y0359904D01*
X0228567Y0361502D02*
X0118524Y0361502D01*
X0142668Y0348714D02*
X0397772Y0348714D01*
X0397108Y0350313D02*
X0160428Y0350313D01*
X0161647Y0351911D02*
X0396679Y0351911D01*
X0396567Y0353510D02*
X0161647Y0353510D01*
X0161647Y0354517D02*
X0161647Y0357250D01*
X0161525Y0357707D01*
X0161288Y0358118D01*
X0160952Y0358453D01*
X0160542Y0358690D01*
X0160084Y0358813D01*
X0157351Y0358813D01*
X0157351Y0354517D01*
X0157351Y0354517D01*
X0157351Y0354516D01*
X0157351Y0354517D01*
X0161647Y0354517D01*
X0161647Y0355108D02*
X0396567Y0355108D01*
X0396948Y0356707D02*
X0236915Y0356707D01*
X0237159Y0358305D02*
X0397428Y0358305D01*
X0398351Y0359904D02*
X0237159Y0359904D01*
X0237159Y0361502D02*
X0399615Y0361502D01*
X0398695Y0347116D02*
X0143330Y0347116D01*
X0157351Y0350313D02*
X0157351Y0350313D01*
X0157351Y0351911D02*
X0157351Y0351911D01*
X0157351Y0353510D02*
X0157351Y0353510D01*
X0157351Y0355108D02*
X0157351Y0355108D01*
X0157351Y0356707D02*
X0157351Y0356707D01*
X0157351Y0358305D02*
X0157351Y0358305D01*
X0161100Y0358305D02*
X0228567Y0358305D01*
X0228811Y0356707D02*
X0161647Y0356707D01*
X0214465Y0313547D02*
X0303406Y0313547D01*
X0303406Y0315145D02*
X0235454Y0315145D01*
X0236946Y0316744D02*
X0250781Y0316744D01*
X0248925Y0318342D02*
X0237608Y0318342D01*
X0237781Y0319941D02*
X0248107Y0319941D01*
X0247748Y0321539D02*
X0237615Y0321539D01*
X0236953Y0323138D02*
X0247748Y0323138D01*
X0257850Y0326335D02*
X0324965Y0326335D01*
X0324357Y0326083D02*
X0322674Y0324401D01*
X0321764Y0322202D01*
X0321764Y0319823D01*
X0322674Y0317625D01*
X0324357Y0315942D01*
X0326555Y0315031D01*
X0328935Y0315031D01*
X0331133Y0315942D01*
X0332815Y0317625D01*
X0333726Y0319823D01*
X0333726Y0322202D01*
X0332815Y0324401D01*
X0331133Y0326083D01*
X0328935Y0326994D01*
X0326555Y0326994D01*
X0324357Y0326083D01*
X0323010Y0324737D02*
X0259068Y0324737D01*
X0259710Y0323138D02*
X0322151Y0323138D01*
X0321764Y0321539D02*
X0259710Y0321539D01*
X0259351Y0319941D02*
X0321764Y0319941D01*
X0322377Y0318342D02*
X0258533Y0318342D01*
X0256677Y0316744D02*
X0323555Y0316744D01*
X0326280Y0315145D02*
X0312398Y0315145D01*
X0312398Y0315361D02*
X0311227Y0316532D01*
X0304578Y0316532D01*
X0303406Y0315361D01*
X0303406Y0308712D01*
X0304578Y0307540D01*
X0311227Y0307540D01*
X0312398Y0308712D01*
X0312398Y0315361D01*
X0312398Y0313547D02*
X0342652Y0313547D01*
X0342989Y0314361D02*
X0342079Y0312163D01*
X0342079Y0309784D01*
X0342989Y0307585D01*
X0344672Y0305903D01*
X0346870Y0304992D01*
X0349250Y0304992D01*
X0351448Y0305903D01*
X0353130Y0307585D01*
X0354041Y0309784D01*
X0354041Y0312163D01*
X0353130Y0314361D01*
X0351448Y0316044D01*
X0349250Y0316954D01*
X0346870Y0316954D01*
X0344672Y0316044D01*
X0342989Y0314361D01*
X0343773Y0315145D02*
X0329210Y0315145D01*
X0331935Y0316744D02*
X0346362Y0316744D01*
X0349757Y0316744D02*
X0357858Y0316744D01*
X0357950Y0316522D02*
X0359632Y0314840D01*
X0361831Y0313929D01*
X0364210Y0313929D01*
X0366408Y0314840D01*
X0368091Y0316522D01*
X0369002Y0318721D01*
X0369002Y0321100D01*
X0368091Y0323298D01*
X0366408Y0324981D01*
X0364210Y0325891D01*
X0361831Y0325891D01*
X0359632Y0324981D01*
X0357950Y0323298D01*
X0357039Y0321100D01*
X0357039Y0318721D01*
X0357950Y0316522D01*
X0359327Y0315145D02*
X0352346Y0315145D01*
X0353468Y0313547D02*
X0418732Y0313547D01*
X0418732Y0315145D02*
X0366714Y0315145D01*
X0368183Y0316744D02*
X0418732Y0316744D01*
X0418732Y0318342D02*
X0368845Y0318342D01*
X0369002Y0319941D02*
X0418732Y0319941D01*
X0418732Y0321539D02*
X0368820Y0321539D01*
X0368157Y0323138D02*
X0418732Y0323138D01*
X0418732Y0324737D02*
X0366653Y0324737D01*
X0359388Y0324737D02*
X0332480Y0324737D01*
X0333338Y0323138D02*
X0357884Y0323138D01*
X0357221Y0321539D02*
X0333726Y0321539D01*
X0333726Y0319941D02*
X0357039Y0319941D01*
X0357196Y0318342D02*
X0333113Y0318342D01*
X0342079Y0311948D02*
X0312398Y0311948D01*
X0312398Y0310350D02*
X0342079Y0310350D01*
X0342506Y0308751D02*
X0312398Y0308751D01*
X0303406Y0308751D02*
X0245433Y0308751D01*
X0246315Y0307153D02*
X0343422Y0307153D01*
X0345513Y0305554D02*
X0289547Y0305554D01*
X0291567Y0303956D02*
X0374517Y0303956D01*
X0373569Y0303563D02*
X0371887Y0301881D01*
X0370976Y0299683D01*
X0370976Y0297303D01*
X0371887Y0295105D01*
X0373569Y0293422D01*
X0375768Y0292512D01*
X0378147Y0292512D01*
X0380345Y0293422D01*
X0382028Y0295105D01*
X0382939Y0297303D01*
X0382939Y0299683D01*
X0382028Y0301881D01*
X0380345Y0303563D01*
X0378147Y0304474D01*
X0375768Y0304474D01*
X0373569Y0303563D01*
X0372363Y0302357D02*
X0292453Y0302357D01*
X0292860Y0300759D02*
X0371422Y0300759D01*
X0370976Y0299160D02*
X0292860Y0299160D01*
X0292266Y0297562D02*
X0370976Y0297562D01*
X0371531Y0295963D02*
X0291115Y0295963D01*
X0288455Y0294365D02*
X0358347Y0294365D01*
X0356016Y0289569D02*
X0299930Y0289569D01*
X0301152Y0287971D02*
X0356180Y0287971D01*
X0356842Y0286372D02*
X0301797Y0286372D01*
X0301797Y0284774D02*
X0358320Y0284774D01*
X0365673Y0284774D02*
X0392494Y0284774D01*
X0392202Y0285066D02*
X0393884Y0283383D01*
X0396083Y0282472D01*
X0398462Y0282472D01*
X0400660Y0283383D01*
X0402343Y0285066D01*
X0403254Y0287264D01*
X0403254Y0289643D01*
X0402343Y0291842D01*
X0400660Y0293524D01*
X0398462Y0294435D01*
X0396083Y0294435D01*
X0393884Y0293524D01*
X0392202Y0291842D01*
X0391291Y0289643D01*
X0391291Y0287264D01*
X0392202Y0285066D01*
X0391661Y0286372D02*
X0367152Y0286372D01*
X0367814Y0287971D02*
X0391291Y0287971D01*
X0391291Y0289569D02*
X0367978Y0289569D01*
X0367803Y0291168D02*
X0391923Y0291168D01*
X0393127Y0292766D02*
X0378762Y0292766D01*
X0381288Y0294365D02*
X0395914Y0294365D01*
X0398631Y0294365D02*
X0412619Y0294365D01*
X0412619Y0295963D02*
X0382384Y0295963D01*
X0382939Y0297562D02*
X0412619Y0297562D01*
X0412619Y0299160D02*
X0382939Y0299160D01*
X0382493Y0300759D02*
X0412623Y0300759D01*
X0418732Y0302357D02*
X0381552Y0302357D01*
X0379398Y0303956D02*
X0418732Y0303956D01*
X0418732Y0305554D02*
X0350607Y0305554D01*
X0352698Y0307153D02*
X0418732Y0307153D01*
X0418732Y0308751D02*
X0353613Y0308751D01*
X0354041Y0310350D02*
X0418732Y0310350D01*
X0418732Y0311948D02*
X0354041Y0311948D01*
X0349502Y0327934D02*
X0418732Y0327934D01*
X0418732Y0329532D02*
X0351090Y0329532D01*
X0351753Y0331131D02*
X0418732Y0331131D01*
X0418732Y0332729D02*
X0351994Y0332729D01*
X0351896Y0334328D02*
X0418732Y0334328D01*
X0418732Y0335926D02*
X0351234Y0335926D01*
X0330525Y0326335D02*
X0418732Y0326335D01*
X0418732Y0343919D02*
X0413090Y0343919D01*
X0415357Y0345517D02*
X0418732Y0345517D01*
X0418732Y0347116D02*
X0416873Y0347116D01*
X0417796Y0348714D02*
X0418732Y0348714D01*
X0418732Y0350313D02*
X0418461Y0350313D01*
X0418732Y0292766D02*
X0401418Y0292766D01*
X0402622Y0291168D02*
X0418732Y0291168D01*
X0418732Y0289569D02*
X0403254Y0289569D01*
X0403254Y0287971D02*
X0418732Y0287971D01*
X0418732Y0286372D02*
X0402884Y0286372D01*
X0402051Y0284774D02*
X0418732Y0284774D01*
X0418732Y0283175D02*
X0400159Y0283175D01*
X0394386Y0283175D02*
X0301441Y0283175D01*
X0300626Y0281577D02*
X0375559Y0281577D01*
X0382450Y0281577D02*
X0418732Y0281577D01*
X0418732Y0279978D02*
X0384049Y0279978D01*
X0384726Y0278380D02*
X0418732Y0278380D01*
X0418732Y0276781D02*
X0384986Y0276781D01*
X0384907Y0275183D02*
X0418732Y0275183D01*
X0418732Y0273584D02*
X0384244Y0273584D01*
X0382885Y0271986D02*
X0418732Y0271986D01*
X0418732Y0267190D02*
X0392885Y0267190D01*
X0393498Y0265592D02*
X0418732Y0265592D01*
X0418732Y0263993D02*
X0393498Y0263993D01*
X0393498Y0262395D02*
X0418732Y0262395D01*
X0418732Y0260796D02*
X0393498Y0260796D01*
X0392454Y0259198D02*
X0418732Y0259198D01*
X0389202Y0259198D02*
X0389202Y0259198D01*
X0389202Y0260796D02*
X0389202Y0260796D01*
X0389202Y0262395D02*
X0389202Y0262395D01*
X0389202Y0263993D02*
X0389202Y0263993D01*
X0389202Y0265592D02*
X0389202Y0265592D01*
X0389202Y0267190D02*
X0389202Y0267190D01*
X0375153Y0292766D02*
X0367141Y0292766D01*
X0365647Y0294365D02*
X0372627Y0294365D01*
X0303406Y0310350D02*
X0243424Y0310350D01*
X0238050Y0310350D02*
X0217765Y0310350D01*
X0218254Y0308751D02*
X0236041Y0308751D01*
X0235159Y0307153D02*
X0218254Y0307153D01*
X0217741Y0305554D02*
X0234756Y0305554D01*
X0234756Y0303956D02*
X0216706Y0303956D01*
X0216764Y0311948D02*
X0303406Y0311948D01*
X0284210Y0305554D02*
X0246718Y0305554D01*
X0246718Y0303956D02*
X0282190Y0303956D01*
X0281304Y0302357D02*
X0246121Y0302357D01*
X0244965Y0300759D02*
X0280898Y0300759D01*
X0232863Y0356707D02*
X0232863Y0356707D01*
X0232863Y0358305D02*
X0232863Y0358305D01*
X0232863Y0359904D02*
X0232863Y0359904D01*
X0189830Y0107339D02*
X0176024Y0107339D01*
X0176024Y0105740D02*
X0188525Y0105740D01*
X0188036Y0104142D02*
X0176024Y0104142D01*
X0175096Y0102543D02*
X0188118Y0102543D01*
X0089233Y0067376D02*
X0036600Y0067376D01*
X0036600Y0065778D02*
X0045941Y0065778D01*
X0049155Y0065778D02*
X0088234Y0065778D01*
X0087748Y0064179D02*
X0053383Y0064179D01*
X0055426Y0062581D02*
X0087748Y0062581D01*
X0088263Y0060982D02*
X0056813Y0060982D01*
X0057736Y0059384D02*
X0089301Y0059384D01*
X0041713Y0064179D02*
X0036600Y0064179D01*
X0036600Y0062581D02*
X0039670Y0062581D01*
X0038283Y0060982D02*
X0036600Y0060982D01*
X0036600Y0059384D02*
X0037360Y0059384D01*
X0036790Y0057785D02*
X0036600Y0057785D01*
D13*
X0134162Y0122509D03*
X0187312Y0203217D03*
X0232587Y0108729D03*
D14*
X0250304Y0112666D03*
X0250304Y0098887D03*
X0224713Y0128414D03*
X0206997Y0144162D03*
X0193217Y0144162D03*
D15*
X0169595Y0108729D03*
D16*
X0134162Y0122509D02*
X0134162Y0132351D01*
X0161721Y0159910D01*
X0161721Y0177627D01*
X0187312Y0203217D01*
M02*
