G75*
%MOIN*%
%OFA0B0*%
%FSLAX25Y25*%
%IPPOS*%
%LPD*%
%AMOC8*
5,1,8,0,0,1.08239X$1,22.5*
%
%ADD10C,0.00500*%
%ADD11C,0.00600*%
%ADD12C,0.00200*%
%ADD13C,0.00197*%
%ADD14C,0.00400*%
%ADD15C,0.00000*%
%ADD16C,0.00300*%
D10*
X0068887Y0049438D02*
X0068887Y0059438D01*
X0078887Y0059438D01*
X0078887Y0084438D01*
X0183887Y0084438D01*
X0183387Y0083938D02*
X0157487Y0056638D01*
X0150987Y0053338D01*
X0118987Y0047338D01*
X0113887Y0046938D01*
X0078887Y0045068D01*
X0078887Y0049438D01*
X0068887Y0049438D01*
X0078887Y0049438D02*
X0078887Y0059438D01*
X0074713Y0076721D02*
X0074713Y0181721D01*
X0049713Y0181721D01*
X0049713Y0191721D01*
X0039713Y0191721D01*
X0039713Y0181721D01*
X0049713Y0181721D01*
X0039713Y0181721D02*
X0035343Y0181721D01*
X0037213Y0146721D01*
X0037613Y0141621D01*
X0043613Y0109621D01*
X0046913Y0103121D01*
X0074213Y0077221D01*
X0073244Y0091168D02*
X0070492Y0091168D01*
X0069574Y0092086D01*
X0070492Y0093003D01*
X0073244Y0093003D01*
X0073244Y0093920D02*
X0073244Y0091168D01*
X0073244Y0093920D02*
X0072326Y0094838D01*
X0070492Y0094838D01*
X0067719Y0095755D02*
X0066802Y0096673D01*
X0064967Y0096673D01*
X0064049Y0095755D01*
X0064049Y0094838D01*
X0064967Y0093920D01*
X0066802Y0093920D01*
X0067719Y0093003D01*
X0067719Y0092086D01*
X0066802Y0091168D01*
X0064967Y0091168D01*
X0064049Y0092086D01*
X0062201Y0091168D02*
X0060366Y0091168D01*
X0061284Y0091168D02*
X0061284Y0094838D01*
X0060366Y0094838D01*
X0058511Y0094838D02*
X0058511Y0091168D01*
X0055759Y0091168D01*
X0054842Y0092086D01*
X0054842Y0094838D01*
X0052987Y0094838D02*
X0050234Y0094838D01*
X0049317Y0093920D01*
X0049317Y0092086D01*
X0050234Y0091168D01*
X0052987Y0091168D01*
X0052987Y0089333D02*
X0052987Y0094838D01*
X0047462Y0096673D02*
X0043792Y0096673D01*
X0043792Y0091168D01*
X0047462Y0091168D01*
X0045627Y0093920D02*
X0043792Y0093920D01*
X0061284Y0096673D02*
X0061284Y0097590D01*
X0075099Y0094838D02*
X0076934Y0094838D01*
X0076016Y0095755D02*
X0076016Y0092086D01*
X0076934Y0091168D01*
X0078782Y0091168D02*
X0078782Y0092086D01*
X0079699Y0092086D01*
X0079699Y0091168D01*
X0078782Y0091168D01*
X0078782Y0093920D02*
X0078782Y0094838D01*
X0079699Y0094838D01*
X0079699Y0093920D01*
X0078782Y0093920D01*
X0087069Y0094838D02*
X0087987Y0093920D01*
X0089821Y0093920D01*
X0090739Y0093003D01*
X0090739Y0092086D01*
X0089821Y0091168D01*
X0087987Y0091168D01*
X0087069Y0092086D01*
X0087069Y0094838D02*
X0087069Y0095755D01*
X0087987Y0096673D01*
X0089821Y0096673D01*
X0090739Y0095755D01*
X0092594Y0094838D02*
X0093511Y0094838D01*
X0093511Y0091168D01*
X0092594Y0091168D02*
X0094429Y0091168D01*
X0096277Y0092086D02*
X0096277Y0093920D01*
X0097194Y0094838D01*
X0099947Y0094838D01*
X0099947Y0096673D02*
X0099947Y0091168D01*
X0097194Y0091168D01*
X0096277Y0092086D01*
X0093511Y0096673D02*
X0093511Y0097590D01*
X0101802Y0093920D02*
X0101802Y0092086D01*
X0102719Y0091168D01*
X0104554Y0091168D01*
X0105471Y0093003D02*
X0101802Y0093003D01*
X0101802Y0093920D02*
X0102719Y0094838D01*
X0104554Y0094838D01*
X0105471Y0093920D01*
X0105471Y0093003D01*
X0112851Y0092086D02*
X0113769Y0091168D01*
X0115603Y0091168D01*
X0116521Y0092086D01*
X0116521Y0093003D01*
X0115603Y0093920D01*
X0113769Y0093920D01*
X0112851Y0094838D01*
X0112851Y0095755D01*
X0113769Y0096673D01*
X0115603Y0096673D01*
X0116521Y0095755D01*
X0118376Y0093920D02*
X0118376Y0092086D01*
X0119293Y0091168D01*
X0121128Y0091168D01*
X0122046Y0092086D01*
X0122046Y0093920D01*
X0121128Y0094838D01*
X0119293Y0094838D01*
X0118376Y0093920D01*
X0123901Y0091168D02*
X0125735Y0091168D01*
X0124818Y0091168D02*
X0124818Y0096673D01*
X0123901Y0096673D01*
X0128501Y0094838D02*
X0130336Y0094838D01*
X0131253Y0093920D01*
X0131253Y0091168D01*
X0128501Y0091168D01*
X0127584Y0092086D01*
X0128501Y0093003D01*
X0131253Y0093003D01*
X0133108Y0093003D02*
X0134943Y0094838D01*
X0135861Y0094838D01*
X0133108Y0094838D02*
X0133108Y0091168D01*
X0143237Y0091168D02*
X0143237Y0096673D01*
X0145989Y0096673D01*
X0146907Y0095755D01*
X0146907Y0093920D01*
X0145989Y0093003D01*
X0143237Y0093003D01*
X0148762Y0092086D02*
X0149679Y0093003D01*
X0152432Y0093003D01*
X0152432Y0093920D02*
X0152432Y0091168D01*
X0149679Y0091168D01*
X0148762Y0092086D01*
X0149679Y0094838D02*
X0151514Y0094838D01*
X0152432Y0093920D01*
X0154286Y0094838D02*
X0157039Y0094838D01*
X0157956Y0093920D01*
X0157956Y0091168D01*
X0159811Y0092086D02*
X0159811Y0093920D01*
X0160729Y0094838D01*
X0162564Y0094838D01*
X0163481Y0093920D01*
X0163481Y0093003D01*
X0159811Y0093003D01*
X0159811Y0092086D02*
X0160729Y0091168D01*
X0162564Y0091168D01*
X0165336Y0091168D02*
X0167171Y0091168D01*
X0166253Y0091168D02*
X0166253Y0096673D01*
X0165336Y0096673D01*
X0174544Y0096673D02*
X0174544Y0093003D01*
X0176379Y0091168D01*
X0178214Y0093003D01*
X0178214Y0096673D01*
X0180068Y0093920D02*
X0183738Y0093920D01*
X0182821Y0091168D02*
X0182821Y0096673D01*
X0180068Y0093920D01*
X0186157Y0079750D02*
X0179657Y0076450D01*
X0153757Y0049150D01*
X0153257Y0048650D02*
X0258257Y0048650D01*
X0258257Y0073650D01*
X0268257Y0073650D01*
X0268257Y0083650D01*
X0258257Y0083650D01*
X0258257Y0073650D01*
X0258257Y0083650D02*
X0258257Y0088020D01*
X0223257Y0086150D01*
X0218157Y0085750D01*
X0186157Y0079750D01*
X0183667Y0103650D02*
X0183672Y0104091D01*
X0183689Y0104532D01*
X0183716Y0104972D01*
X0183754Y0105412D01*
X0183802Y0105850D01*
X0183862Y0106288D01*
X0183932Y0106723D01*
X0184012Y0107157D01*
X0184104Y0107589D01*
X0184206Y0108018D01*
X0184318Y0108444D01*
X0184441Y0108868D01*
X0184574Y0109289D01*
X0184718Y0109706D01*
X0184872Y0110119D01*
X0185035Y0110529D01*
X0185209Y0110935D01*
X0185393Y0111336D01*
X0185586Y0111732D01*
X0185790Y0112124D01*
X0186002Y0112510D01*
X0186224Y0112892D01*
X0186456Y0113267D01*
X0186697Y0113637D01*
X0186946Y0114001D01*
X0187205Y0114358D01*
X0187472Y0114709D01*
X0187747Y0115054D01*
X0188031Y0115391D01*
X0188324Y0115722D01*
X0188624Y0116045D01*
X0188932Y0116361D01*
X0189248Y0116669D01*
X0189571Y0116969D01*
X0189902Y0117262D01*
X0190239Y0117546D01*
X0190584Y0117821D01*
X0190935Y0118088D01*
X0191292Y0118347D01*
X0191656Y0118596D01*
X0192026Y0118837D01*
X0192401Y0119069D01*
X0192783Y0119291D01*
X0193169Y0119503D01*
X0193561Y0119707D01*
X0193957Y0119900D01*
X0194358Y0120084D01*
X0194764Y0120258D01*
X0195174Y0120421D01*
X0195587Y0120575D01*
X0196004Y0120719D01*
X0196425Y0120852D01*
X0196849Y0120975D01*
X0197275Y0121087D01*
X0197704Y0121189D01*
X0198136Y0121281D01*
X0198570Y0121361D01*
X0199005Y0121431D01*
X0199443Y0121491D01*
X0199881Y0121539D01*
X0200321Y0121577D01*
X0200761Y0121604D01*
X0201202Y0121621D01*
X0201643Y0121626D01*
X0202084Y0121621D01*
X0202525Y0121604D01*
X0202965Y0121577D01*
X0203405Y0121539D01*
X0203843Y0121491D01*
X0204281Y0121431D01*
X0204716Y0121361D01*
X0205150Y0121281D01*
X0205582Y0121189D01*
X0206011Y0121087D01*
X0206437Y0120975D01*
X0206861Y0120852D01*
X0207282Y0120719D01*
X0207699Y0120575D01*
X0208112Y0120421D01*
X0208522Y0120258D01*
X0208928Y0120084D01*
X0209329Y0119900D01*
X0209725Y0119707D01*
X0210117Y0119503D01*
X0210503Y0119291D01*
X0210885Y0119069D01*
X0211260Y0118837D01*
X0211630Y0118596D01*
X0211994Y0118347D01*
X0212351Y0118088D01*
X0212702Y0117821D01*
X0213047Y0117546D01*
X0213384Y0117262D01*
X0213715Y0116969D01*
X0214038Y0116669D01*
X0214354Y0116361D01*
X0214662Y0116045D01*
X0214962Y0115722D01*
X0215255Y0115391D01*
X0215539Y0115054D01*
X0215814Y0114709D01*
X0216081Y0114358D01*
X0216340Y0114001D01*
X0216589Y0113637D01*
X0216830Y0113267D01*
X0217062Y0112892D01*
X0217284Y0112510D01*
X0217496Y0112124D01*
X0217700Y0111732D01*
X0217893Y0111336D01*
X0218077Y0110935D01*
X0218251Y0110529D01*
X0218414Y0110119D01*
X0218568Y0109706D01*
X0218712Y0109289D01*
X0218845Y0108868D01*
X0218968Y0108444D01*
X0219080Y0108018D01*
X0219182Y0107589D01*
X0219274Y0107157D01*
X0219354Y0106723D01*
X0219424Y0106288D01*
X0219484Y0105850D01*
X0219532Y0105412D01*
X0219570Y0104972D01*
X0219597Y0104532D01*
X0219614Y0104091D01*
X0219619Y0103650D01*
X0219614Y0103209D01*
X0219597Y0102768D01*
X0219570Y0102328D01*
X0219532Y0101888D01*
X0219484Y0101450D01*
X0219424Y0101012D01*
X0219354Y0100577D01*
X0219274Y0100143D01*
X0219182Y0099711D01*
X0219080Y0099282D01*
X0218968Y0098856D01*
X0218845Y0098432D01*
X0218712Y0098011D01*
X0218568Y0097594D01*
X0218414Y0097181D01*
X0218251Y0096771D01*
X0218077Y0096365D01*
X0217893Y0095964D01*
X0217700Y0095568D01*
X0217496Y0095176D01*
X0217284Y0094790D01*
X0217062Y0094408D01*
X0216830Y0094033D01*
X0216589Y0093663D01*
X0216340Y0093299D01*
X0216081Y0092942D01*
X0215814Y0092591D01*
X0215539Y0092246D01*
X0215255Y0091909D01*
X0214962Y0091578D01*
X0214662Y0091255D01*
X0214354Y0090939D01*
X0214038Y0090631D01*
X0213715Y0090331D01*
X0213384Y0090038D01*
X0213047Y0089754D01*
X0212702Y0089479D01*
X0212351Y0089212D01*
X0211994Y0088953D01*
X0211630Y0088704D01*
X0211260Y0088463D01*
X0210885Y0088231D01*
X0210503Y0088009D01*
X0210117Y0087797D01*
X0209725Y0087593D01*
X0209329Y0087400D01*
X0208928Y0087216D01*
X0208522Y0087042D01*
X0208112Y0086879D01*
X0207699Y0086725D01*
X0207282Y0086581D01*
X0206861Y0086448D01*
X0206437Y0086325D01*
X0206011Y0086213D01*
X0205582Y0086111D01*
X0205150Y0086019D01*
X0204716Y0085939D01*
X0204281Y0085869D01*
X0203843Y0085809D01*
X0203405Y0085761D01*
X0202965Y0085723D01*
X0202525Y0085696D01*
X0202084Y0085679D01*
X0201643Y0085674D01*
X0201202Y0085679D01*
X0200761Y0085696D01*
X0200321Y0085723D01*
X0199881Y0085761D01*
X0199443Y0085809D01*
X0199005Y0085869D01*
X0198570Y0085939D01*
X0198136Y0086019D01*
X0197704Y0086111D01*
X0197275Y0086213D01*
X0196849Y0086325D01*
X0196425Y0086448D01*
X0196004Y0086581D01*
X0195587Y0086725D01*
X0195174Y0086879D01*
X0194764Y0087042D01*
X0194358Y0087216D01*
X0193957Y0087400D01*
X0193561Y0087593D01*
X0193169Y0087797D01*
X0192783Y0088009D01*
X0192401Y0088231D01*
X0192026Y0088463D01*
X0191656Y0088704D01*
X0191292Y0088953D01*
X0190935Y0089212D01*
X0190584Y0089479D01*
X0190239Y0089754D01*
X0189902Y0090038D01*
X0189571Y0090331D01*
X0189248Y0090631D01*
X0188932Y0090939D01*
X0188624Y0091255D01*
X0188324Y0091578D01*
X0188031Y0091909D01*
X0187747Y0092246D01*
X0187472Y0092591D01*
X0187205Y0092942D01*
X0186946Y0093299D01*
X0186697Y0093663D01*
X0186456Y0094033D01*
X0186224Y0094408D01*
X0186002Y0094790D01*
X0185790Y0095176D01*
X0185586Y0095568D01*
X0185393Y0095964D01*
X0185209Y0096365D01*
X0185035Y0096771D01*
X0184872Y0097181D01*
X0184718Y0097594D01*
X0184574Y0098011D01*
X0184441Y0098432D01*
X0184318Y0098856D01*
X0184206Y0099282D01*
X0184104Y0099711D01*
X0184012Y0100143D01*
X0183932Y0100577D01*
X0183862Y0101012D01*
X0183802Y0101450D01*
X0183754Y0101888D01*
X0183716Y0102328D01*
X0183689Y0102768D01*
X0183672Y0103209D01*
X0183667Y0103650D01*
X0181643Y0125698D02*
X0076643Y0125698D01*
X0077143Y0126198D02*
X0103043Y0153498D01*
X0109543Y0156798D01*
X0141543Y0162798D01*
X0146643Y0163198D01*
X0181643Y0165068D01*
X0181643Y0160698D01*
X0191643Y0160698D01*
X0191643Y0150698D01*
X0181643Y0150698D01*
X0181643Y0125698D01*
X0203305Y0124685D02*
X0203305Y0122850D01*
X0204223Y0121933D01*
X0205140Y0121933D01*
X0206057Y0122850D01*
X0206057Y0124685D01*
X0206975Y0125602D01*
X0207892Y0125602D01*
X0208810Y0124685D01*
X0208810Y0122850D01*
X0207892Y0121933D01*
X0204223Y0125602D02*
X0203305Y0124685D01*
X0204223Y0127457D02*
X0207892Y0127457D01*
X0208810Y0128375D01*
X0208810Y0130210D01*
X0207892Y0131127D01*
X0208810Y0132982D02*
X0203305Y0132982D01*
X0204223Y0131127D02*
X0203305Y0130210D01*
X0203305Y0128375D01*
X0204223Y0127457D01*
X0208810Y0132982D02*
X0208810Y0136652D01*
X0213152Y0135487D02*
X0214070Y0134570D01*
X0215905Y0134570D01*
X0216822Y0135487D01*
X0216822Y0137322D01*
X0214987Y0137322D01*
X0213152Y0139157D02*
X0213152Y0135487D01*
X0213152Y0139157D02*
X0214070Y0140074D01*
X0215905Y0140074D01*
X0216822Y0139157D01*
X0218677Y0140074D02*
X0222347Y0134570D01*
X0222347Y0140074D01*
X0224202Y0140074D02*
X0226954Y0140074D01*
X0227872Y0139157D01*
X0227872Y0135487D01*
X0226954Y0134570D01*
X0224202Y0134570D01*
X0224202Y0140074D01*
X0229174Y0142182D02*
X0201874Y0168082D01*
X0198574Y0174582D01*
X0192574Y0206582D01*
X0192174Y0211682D01*
X0190304Y0246682D01*
X0194674Y0246682D01*
X0194674Y0256682D01*
X0204674Y0256682D01*
X0204674Y0246682D01*
X0229674Y0246682D01*
X0229674Y0141682D01*
X0218677Y0140074D02*
X0218677Y0134570D01*
X0219058Y0122358D02*
X0221810Y0122358D01*
X0222728Y0121440D01*
X0222728Y0119605D01*
X0221810Y0118688D01*
X0219058Y0118688D01*
X0219058Y0116853D02*
X0219058Y0122358D01*
X0224583Y0122358D02*
X0227335Y0122358D01*
X0228252Y0121440D01*
X0228252Y0117771D01*
X0227335Y0116853D01*
X0224583Y0116853D01*
X0224583Y0122358D01*
X0230107Y0119605D02*
X0233777Y0119605D01*
X0235632Y0117771D02*
X0236549Y0116853D01*
X0238384Y0116853D01*
X0239302Y0117771D01*
X0239302Y0121440D01*
X0238384Y0122358D01*
X0236549Y0122358D01*
X0235632Y0121440D01*
X0235632Y0117771D01*
X0241157Y0117771D02*
X0242074Y0116853D01*
X0243909Y0116853D01*
X0244827Y0117771D01*
X0244827Y0122358D01*
X0246681Y0122358D02*
X0250351Y0122358D01*
X0248516Y0122358D02*
X0248516Y0116853D01*
X0241157Y0117771D02*
X0241157Y0122358D01*
X0231839Y0124320D02*
X0231839Y0229320D01*
X0232339Y0228820D02*
X0259639Y0202920D01*
X0262939Y0196420D01*
X0268939Y0164420D01*
X0269339Y0159320D01*
X0271209Y0124320D01*
X0266839Y0124320D01*
X0266839Y0114320D01*
X0256839Y0114320D01*
X0256839Y0124320D01*
X0231839Y0124320D01*
X0232784Y0104595D02*
X0237115Y0104595D01*
X0237115Y0096721D01*
X0232784Y0096721D01*
X0232784Y0104595D01*
X0237115Y0104595D02*
X0237902Y0104595D01*
X0237902Y0096721D01*
X0237115Y0096721D01*
X0237269Y0094704D02*
X0237269Y0091034D01*
X0235434Y0089200D01*
X0233599Y0091034D01*
X0233599Y0094704D01*
X0231744Y0093787D02*
X0231744Y0092869D01*
X0230827Y0091952D01*
X0231744Y0091034D01*
X0231744Y0090117D01*
X0230827Y0089200D01*
X0228992Y0089200D01*
X0228074Y0090117D01*
X0229909Y0091952D02*
X0230827Y0091952D01*
X0231744Y0093787D02*
X0230827Y0094704D01*
X0228992Y0094704D01*
X0228074Y0093787D01*
X0228080Y0092824D02*
X0222980Y0092824D01*
X0222980Y0100024D01*
X0228080Y0100024D01*
X0228080Y0092824D01*
X0239124Y0093787D02*
X0240041Y0094704D01*
X0241876Y0094704D01*
X0242793Y0093787D01*
X0242793Y0092869D01*
X0241876Y0091952D01*
X0242793Y0091034D01*
X0242793Y0090117D01*
X0241876Y0089200D01*
X0240041Y0089200D01*
X0239124Y0090117D01*
X0240959Y0091952D02*
X0241876Y0091952D01*
X0259910Y0094320D02*
X0259910Y0084320D01*
X0269910Y0084320D01*
X0269910Y0094320D01*
X0259910Y0094320D01*
X0269910Y0094320D02*
X0269910Y0119320D01*
X0374910Y0119320D01*
X0374410Y0118820D02*
X0348510Y0091520D01*
X0342010Y0088220D01*
X0310010Y0082220D01*
X0304910Y0081820D01*
X0269910Y0079950D01*
X0269910Y0084320D01*
X0291861Y0076175D02*
X0265961Y0048875D01*
X0265461Y0048375D02*
X0370461Y0048375D01*
X0370461Y0073375D01*
X0380461Y0073375D01*
X0380461Y0083375D01*
X0370461Y0083375D01*
X0370461Y0073375D01*
X0370461Y0083375D02*
X0370461Y0087745D01*
X0335461Y0085875D01*
X0330361Y0085475D01*
X0298361Y0079475D01*
X0291861Y0076175D01*
X0331367Y0120383D02*
X0341367Y0120383D01*
X0341367Y0130383D01*
X0331367Y0130383D01*
X0331367Y0120383D01*
X0331367Y0130383D02*
X0306367Y0130383D01*
X0306367Y0235383D01*
X0306867Y0234883D02*
X0334167Y0208983D01*
X0337467Y0202483D01*
X0343467Y0170483D01*
X0343867Y0165383D01*
X0345737Y0130383D01*
X0341367Y0130383D01*
X0375119Y0145961D02*
X0347819Y0171861D01*
X0344519Y0178361D01*
X0338519Y0210361D01*
X0338119Y0215461D01*
X0336249Y0250461D01*
X0340619Y0250461D01*
X0340619Y0260461D01*
X0350619Y0260461D01*
X0350619Y0250461D01*
X0375619Y0250461D01*
X0375619Y0145461D01*
X0410387Y0155754D02*
X0383087Y0181654D01*
X0382587Y0182154D02*
X0382587Y0077154D01*
X0407587Y0077154D01*
X0407587Y0067154D01*
X0417587Y0067154D01*
X0417587Y0077154D01*
X0407587Y0077154D01*
X0417587Y0077154D02*
X0421957Y0077154D01*
X0420087Y0112154D01*
X0419687Y0117254D01*
X0413687Y0149254D01*
X0410387Y0155754D01*
X0418702Y0153835D02*
X0391402Y0179735D01*
X0388102Y0186235D01*
X0382102Y0218235D01*
X0381702Y0223335D01*
X0379831Y0258335D01*
X0384202Y0258335D01*
X0384202Y0268335D01*
X0394202Y0268335D01*
X0394202Y0258335D01*
X0419202Y0258335D01*
X0419202Y0153335D01*
X0350619Y0250461D02*
X0340619Y0250461D01*
X0307615Y0267930D02*
X0333515Y0295230D01*
X0340015Y0298530D01*
X0372015Y0304530D01*
X0377115Y0304930D01*
X0412115Y0306800D01*
X0412115Y0302430D01*
X0422115Y0302430D01*
X0422115Y0292430D01*
X0412115Y0292430D01*
X0412115Y0267430D01*
X0307115Y0267430D01*
X0304123Y0250068D02*
X0302253Y0285068D01*
X0301853Y0290168D01*
X0295853Y0322168D01*
X0292553Y0328668D01*
X0265253Y0354568D01*
X0264753Y0355068D02*
X0264753Y0250068D01*
X0289753Y0250068D01*
X0289753Y0240068D01*
X0299753Y0240068D01*
X0299753Y0250068D01*
X0289753Y0250068D01*
X0299753Y0250068D02*
X0304123Y0250068D01*
X0302233Y0234713D02*
X0302233Y0129713D01*
X0301733Y0130213D02*
X0274433Y0156113D01*
X0271133Y0162613D01*
X0265133Y0194613D01*
X0264733Y0199713D01*
X0262863Y0234713D01*
X0267233Y0234713D01*
X0267233Y0244713D01*
X0277233Y0244713D01*
X0277233Y0234713D01*
X0302233Y0234713D01*
X0277233Y0234713D02*
X0267233Y0234713D01*
X0262863Y0250107D02*
X0262863Y0355107D01*
X0237863Y0355107D01*
X0237863Y0365107D01*
X0227863Y0365107D01*
X0227863Y0355107D01*
X0237863Y0355107D01*
X0227863Y0355107D02*
X0223493Y0355107D01*
X0225363Y0320107D01*
X0225763Y0315007D01*
X0231763Y0283007D01*
X0235063Y0276507D01*
X0262363Y0250607D01*
X0229517Y0257863D02*
X0227646Y0292863D01*
X0227246Y0297963D01*
X0221246Y0329963D01*
X0217946Y0336463D01*
X0190646Y0362363D01*
X0190146Y0362863D02*
X0190146Y0257863D01*
X0215146Y0257863D01*
X0215146Y0247863D01*
X0225146Y0247863D01*
X0225146Y0257863D01*
X0215146Y0257863D01*
X0225146Y0257863D02*
X0229517Y0257863D01*
X0204674Y0246682D02*
X0194674Y0246682D01*
X0158528Y0233357D02*
X0185828Y0207457D01*
X0186328Y0206957D02*
X0186328Y0311957D01*
X0161328Y0311957D01*
X0161328Y0321957D01*
X0151328Y0321957D01*
X0151328Y0311957D01*
X0161328Y0311957D01*
X0151328Y0311957D02*
X0146957Y0311957D01*
X0148828Y0276957D01*
X0149228Y0271857D01*
X0155228Y0239857D01*
X0158528Y0233357D01*
X0151111Y0245619D02*
X0150711Y0250719D01*
X0144711Y0282719D01*
X0141411Y0289219D01*
X0114111Y0315119D01*
X0113611Y0315619D02*
X0113611Y0210619D01*
X0138611Y0210619D01*
X0138611Y0200619D01*
X0148611Y0200619D01*
X0148611Y0210619D01*
X0138611Y0210619D01*
X0148611Y0210619D02*
X0152981Y0210619D01*
X0151111Y0245619D01*
X0111839Y0208690D02*
X0111839Y0313690D01*
X0086839Y0313690D01*
X0086839Y0323690D01*
X0076839Y0323690D01*
X0076839Y0313690D01*
X0086839Y0313690D01*
X0076839Y0313690D02*
X0072469Y0313690D01*
X0074339Y0278690D01*
X0074739Y0273590D01*
X0080739Y0241590D01*
X0084039Y0235090D01*
X0111339Y0209190D01*
X0086682Y0198335D02*
X0191682Y0198335D01*
X0191182Y0197835D02*
X0165282Y0170535D01*
X0158782Y0167235D01*
X0126782Y0161235D01*
X0121682Y0160835D01*
X0086682Y0158965D01*
X0086682Y0163335D01*
X0076682Y0163335D01*
X0076682Y0173335D01*
X0086682Y0173335D01*
X0086682Y0198335D01*
X0081406Y0201013D02*
X0079536Y0236013D01*
X0079136Y0241113D01*
X0073136Y0273113D01*
X0069836Y0279613D01*
X0042536Y0305513D01*
X0042036Y0306013D02*
X0042036Y0201013D01*
X0067036Y0201013D01*
X0067036Y0191013D01*
X0077036Y0191013D01*
X0077036Y0201013D01*
X0067036Y0201013D01*
X0077036Y0201013D02*
X0081406Y0201013D01*
X0086682Y0173335D02*
X0086682Y0163335D01*
X0122601Y0110547D02*
X0125354Y0110547D01*
X0126271Y0109629D01*
X0126271Y0107794D01*
X0125354Y0106877D01*
X0122601Y0106877D01*
X0122601Y0105042D02*
X0122601Y0110547D01*
X0128126Y0110547D02*
X0128126Y0105042D01*
X0129961Y0106877D01*
X0131796Y0105042D01*
X0131796Y0110547D01*
X0133651Y0110547D02*
X0133651Y0105042D01*
X0133651Y0106877D02*
X0136403Y0106877D01*
X0137320Y0107794D01*
X0137320Y0109629D01*
X0136403Y0110547D01*
X0133651Y0110547D01*
X0135486Y0106877D02*
X0137320Y0105042D01*
X0139175Y0107794D02*
X0142845Y0107794D01*
X0144700Y0105960D02*
X0145617Y0105042D01*
X0147452Y0105042D01*
X0148370Y0105960D01*
X0148370Y0109629D01*
X0147452Y0110547D01*
X0145617Y0110547D01*
X0144700Y0109629D01*
X0144700Y0105960D01*
X0150225Y0105960D02*
X0150225Y0110547D01*
X0153895Y0110547D02*
X0153895Y0105960D01*
X0152977Y0105042D01*
X0151142Y0105042D01*
X0150225Y0105960D01*
X0155749Y0110547D02*
X0159419Y0110547D01*
X0157584Y0110547D02*
X0157584Y0105042D01*
X0154286Y0094838D02*
X0154286Y0091168D01*
X0181643Y0150698D02*
X0181643Y0160698D01*
X0193463Y0159737D02*
X0193463Y0156985D01*
X0198967Y0156985D01*
X0198967Y0159737D01*
X0198050Y0160655D01*
X0194380Y0160655D01*
X0193463Y0159737D01*
X0195298Y0162510D02*
X0193463Y0164344D01*
X0195298Y0166179D01*
X0198967Y0166179D01*
X0196215Y0166179D02*
X0196215Y0162510D01*
X0195298Y0162510D02*
X0198967Y0162510D01*
X0198050Y0155130D02*
X0198967Y0154212D01*
X0198967Y0152378D01*
X0198050Y0151460D01*
X0196215Y0152378D02*
X0196215Y0154212D01*
X0197132Y0155130D01*
X0198050Y0155130D01*
X0196215Y0152378D02*
X0195298Y0151460D01*
X0194380Y0151460D01*
X0193463Y0152378D01*
X0193463Y0154212D01*
X0194380Y0155130D01*
X0256839Y0124320D02*
X0266839Y0124320D01*
X0384202Y0258335D02*
X0394202Y0258335D01*
X0412115Y0292430D02*
X0412115Y0302430D01*
X0391502Y0314236D02*
X0417402Y0341536D01*
X0417902Y0342036D02*
X0312902Y0342036D01*
X0312902Y0317036D01*
X0302902Y0317036D01*
X0302902Y0307036D01*
X0312902Y0307036D01*
X0312902Y0317036D01*
X0312902Y0307036D02*
X0312902Y0302666D01*
X0347902Y0304536D01*
X0353002Y0304936D01*
X0385002Y0310936D01*
X0391502Y0314236D01*
X0162351Y0349517D02*
X0162351Y0359517D01*
X0152351Y0359517D01*
X0152351Y0349517D01*
X0162351Y0349517D01*
X0152351Y0349517D02*
X0152351Y0324517D01*
X0047351Y0324517D01*
X0047851Y0325017D02*
X0073751Y0352317D01*
X0080251Y0355617D01*
X0112251Y0361617D01*
X0117351Y0362017D01*
X0152351Y0363887D01*
X0152351Y0359517D01*
D11*
X0195446Y0323101D02*
X0197915Y0325569D01*
X0197915Y0318163D01*
X0195446Y0318163D02*
X0200384Y0318163D01*
X0202813Y0318163D02*
X0206516Y0318163D01*
X0207750Y0319397D01*
X0207750Y0324335D01*
X0206516Y0325569D01*
X0202813Y0325569D01*
X0202813Y0318163D01*
X0243430Y0293579D02*
X0244665Y0294813D01*
X0247134Y0294813D01*
X0248368Y0293579D01*
X0248368Y0292345D01*
X0243430Y0287407D01*
X0248368Y0287407D01*
X0250797Y0287407D02*
X0250797Y0292345D01*
X0253265Y0294813D01*
X0255734Y0292345D01*
X0255734Y0287407D01*
X0255734Y0291110D02*
X0250797Y0291110D01*
X0270053Y0310368D02*
X0274990Y0315305D01*
X0274990Y0316540D01*
X0273756Y0317774D01*
X0271287Y0317774D01*
X0270053Y0316540D01*
X0270053Y0310368D02*
X0274990Y0310368D01*
X0277419Y0310368D02*
X0277419Y0317774D01*
X0281122Y0317774D01*
X0282357Y0316540D01*
X0282357Y0315305D01*
X0281122Y0314071D01*
X0277419Y0314071D01*
X0281122Y0314071D02*
X0282357Y0312836D01*
X0282357Y0311602D01*
X0281122Y0310368D01*
X0277419Y0310368D01*
X0344409Y0283799D02*
X0344409Y0280096D01*
X0351815Y0280096D01*
X0351815Y0283799D01*
X0350581Y0285034D01*
X0345643Y0285034D01*
X0344409Y0283799D01*
X0345643Y0277667D02*
X0344409Y0276433D01*
X0344409Y0273964D01*
X0345643Y0272730D01*
X0345643Y0277667D02*
X0346877Y0277667D01*
X0351815Y0272730D01*
X0351815Y0277667D01*
X0374430Y0322604D02*
X0373196Y0323838D01*
X0373196Y0326307D01*
X0374430Y0327541D01*
X0375665Y0327541D01*
X0380602Y0322604D01*
X0380602Y0327541D01*
X0379368Y0329970D02*
X0374430Y0329970D01*
X0373196Y0331204D01*
X0373196Y0333673D01*
X0374430Y0334907D01*
X0379368Y0334907D02*
X0380602Y0333673D01*
X0380602Y0331204D01*
X0379368Y0329970D01*
X0404707Y0198042D02*
X0402238Y0196807D01*
X0399769Y0194339D01*
X0403472Y0194339D01*
X0404707Y0193104D01*
X0404707Y0191870D01*
X0403472Y0190635D01*
X0401003Y0190635D01*
X0399769Y0191870D01*
X0399769Y0194339D01*
X0407135Y0194339D02*
X0412073Y0194339D01*
X0412073Y0195573D02*
X0412073Y0190635D01*
X0407135Y0190635D02*
X0407135Y0195573D01*
X0409604Y0198042D01*
X0412073Y0195573D01*
X0368490Y0188933D02*
X0368490Y0187699D01*
X0367256Y0186465D01*
X0363553Y0186465D01*
X0361124Y0185230D02*
X0359889Y0186465D01*
X0356186Y0186465D01*
X0356186Y0183996D01*
X0357421Y0182761D01*
X0359889Y0182761D01*
X0361124Y0183996D01*
X0361124Y0185230D01*
X0363553Y0182761D02*
X0367256Y0182761D01*
X0368490Y0183996D01*
X0368490Y0185230D01*
X0367256Y0186465D01*
X0368490Y0188933D02*
X0367256Y0190168D01*
X0363553Y0190168D01*
X0363553Y0182761D01*
X0361124Y0190168D02*
X0358655Y0188933D01*
X0356186Y0186465D01*
X0323971Y0191917D02*
X0322736Y0190683D01*
X0320268Y0190683D01*
X0319033Y0191917D01*
X0319033Y0196855D01*
X0320268Y0198089D01*
X0322736Y0198089D01*
X0323971Y0196855D01*
X0316604Y0198089D02*
X0314136Y0196855D01*
X0311667Y0194386D01*
X0315370Y0194386D01*
X0316604Y0193151D01*
X0316604Y0191917D01*
X0315370Y0190683D01*
X0312901Y0190683D01*
X0311667Y0191917D01*
X0311667Y0194386D01*
X0293870Y0174420D02*
X0290167Y0174420D01*
X0290167Y0167013D01*
X0293870Y0167013D01*
X0295104Y0168248D01*
X0295104Y0173185D01*
X0293870Y0174420D01*
X0287738Y0174420D02*
X0285269Y0173185D01*
X0282800Y0170717D01*
X0286504Y0170717D01*
X0287738Y0169482D01*
X0287738Y0168248D01*
X0286504Y0167013D01*
X0284035Y0167013D01*
X0282800Y0168248D01*
X0282800Y0170717D01*
X0249443Y0185854D02*
X0249443Y0190792D01*
X0248209Y0192026D01*
X0244506Y0192026D01*
X0244506Y0184620D01*
X0248209Y0184620D01*
X0249443Y0185854D01*
X0242077Y0188323D02*
X0237139Y0188323D01*
X0240843Y0192026D01*
X0240843Y0184620D01*
X0222545Y0185154D02*
X0221311Y0186388D01*
X0218842Y0186388D01*
X0217608Y0185154D01*
X0217608Y0180216D01*
X0218842Y0178982D01*
X0221311Y0178982D01*
X0222545Y0180216D01*
X0215179Y0182685D02*
X0210241Y0182685D01*
X0213945Y0186388D01*
X0213945Y0178982D01*
X0154382Y0180137D02*
X0153148Y0178903D01*
X0154382Y0180137D02*
X0154382Y0182606D01*
X0153148Y0183840D01*
X0151913Y0183840D01*
X0150679Y0182606D01*
X0150679Y0181372D01*
X0150679Y0182606D02*
X0149444Y0183840D01*
X0148210Y0183840D01*
X0146976Y0182606D01*
X0146976Y0180137D01*
X0148210Y0178903D01*
X0148210Y0186269D02*
X0153148Y0186269D01*
X0154382Y0187504D01*
X0154382Y0189972D01*
X0153148Y0191207D01*
X0148210Y0191207D02*
X0146976Y0189972D01*
X0146976Y0187504D01*
X0148210Y0186269D01*
X0120108Y0143301D02*
X0115171Y0143301D01*
X0113936Y0142067D01*
X0113936Y0138364D01*
X0121343Y0138364D01*
X0121343Y0142067D01*
X0120108Y0143301D01*
X0120108Y0135935D02*
X0121343Y0134701D01*
X0121343Y0132232D01*
X0120108Y0130998D01*
X0117639Y0133466D02*
X0117639Y0134701D01*
X0118874Y0135935D01*
X0120108Y0135935D01*
X0117639Y0134701D02*
X0116405Y0135935D01*
X0115171Y0135935D01*
X0113936Y0134701D01*
X0113936Y0132232D01*
X0115171Y0130998D01*
X0067585Y0118959D02*
X0067585Y0114021D01*
X0067585Y0117724D02*
X0062647Y0117724D01*
X0062647Y0118959D02*
X0065116Y0121428D01*
X0067585Y0118959D01*
X0062647Y0118959D02*
X0062647Y0114021D01*
X0058984Y0114021D02*
X0058984Y0121428D01*
X0055281Y0117724D01*
X0060218Y0117724D01*
X0139180Y0076075D02*
X0139180Y0072371D01*
X0146587Y0072371D01*
X0146587Y0076075D01*
X0145352Y0077309D01*
X0144118Y0077309D01*
X0142883Y0076075D01*
X0142883Y0072371D01*
X0142883Y0069943D02*
X0142883Y0065005D01*
X0139180Y0068708D01*
X0146587Y0068708D01*
X0142883Y0076075D02*
X0141649Y0077309D01*
X0140415Y0077309D01*
X0139180Y0076075D01*
X0190550Y0065020D02*
X0190550Y0062551D01*
X0191785Y0061317D01*
X0196722Y0061317D01*
X0197957Y0062551D01*
X0197957Y0065020D01*
X0196722Y0066254D01*
X0191785Y0066254D02*
X0190550Y0065020D01*
X0190550Y0058888D02*
X0190550Y0053950D01*
X0194254Y0053950D01*
X0193019Y0056419D01*
X0193019Y0057654D01*
X0194254Y0058888D01*
X0196722Y0058888D01*
X0197957Y0057654D01*
X0197957Y0055185D01*
X0196722Y0053950D01*
X0223217Y0095343D02*
X0223217Y0097706D01*
X0227942Y0097706D02*
X0227942Y0095343D01*
X0302755Y0064744D02*
X0303989Y0065979D01*
X0305224Y0065979D01*
X0306458Y0064744D01*
X0306458Y0061041D01*
X0306458Y0058612D02*
X0308927Y0058612D01*
X0310161Y0057378D01*
X0310161Y0054909D01*
X0308927Y0053675D01*
X0306458Y0053675D02*
X0305224Y0056144D01*
X0305224Y0057378D01*
X0306458Y0058612D01*
X0302755Y0058612D02*
X0302755Y0053675D01*
X0306458Y0053675D01*
X0302755Y0061041D02*
X0302755Y0064744D01*
X0302755Y0061041D02*
X0310161Y0061041D01*
X0310161Y0064744D01*
X0308927Y0065979D01*
X0307693Y0065979D01*
X0306458Y0064744D01*
X0330204Y0099887D02*
X0333907Y0099887D01*
X0332673Y0102356D01*
X0332673Y0103590D01*
X0333907Y0104825D01*
X0336376Y0104825D01*
X0337610Y0103590D01*
X0337610Y0101121D01*
X0336376Y0099887D01*
X0330204Y0099887D02*
X0330204Y0104825D01*
X0330204Y0107253D02*
X0330204Y0110957D01*
X0331438Y0112191D01*
X0336376Y0112191D01*
X0337610Y0110957D01*
X0337610Y0107253D01*
X0330204Y0107253D01*
X0387887Y0138689D02*
X0389122Y0137454D01*
X0391591Y0137454D01*
X0392825Y0138689D01*
X0392825Y0141157D01*
X0391591Y0142392D01*
X0390356Y0142392D01*
X0387887Y0141157D01*
X0387887Y0144861D01*
X0392825Y0144861D01*
X0395254Y0142392D02*
X0395254Y0137454D01*
X0395254Y0141157D02*
X0400191Y0141157D01*
X0400191Y0142392D02*
X0400191Y0137454D01*
X0400191Y0142392D02*
X0397722Y0144861D01*
X0395254Y0142392D01*
X0179199Y0245492D02*
X0177964Y0244257D01*
X0175496Y0244257D01*
X0174261Y0245492D01*
X0174261Y0250429D01*
X0175496Y0251664D01*
X0177964Y0251664D01*
X0179199Y0250429D01*
X0171833Y0244257D02*
X0166895Y0244257D01*
X0169364Y0244257D02*
X0169364Y0251664D01*
X0166895Y0249195D01*
X0131215Y0272153D02*
X0129980Y0270919D01*
X0126277Y0270919D01*
X0126277Y0278325D01*
X0129980Y0278325D01*
X0131215Y0277091D01*
X0131215Y0275856D01*
X0129980Y0274622D01*
X0126277Y0274622D01*
X0129980Y0274622D02*
X0131215Y0273388D01*
X0131215Y0272153D01*
X0123849Y0270919D02*
X0118911Y0270919D01*
X0121380Y0270919D02*
X0121380Y0278325D01*
X0118911Y0275856D01*
X0103476Y0253396D02*
X0104711Y0252162D01*
X0104711Y0250927D01*
X0103476Y0249693D01*
X0099773Y0249693D01*
X0097344Y0250927D02*
X0096110Y0249693D01*
X0097344Y0248459D01*
X0097344Y0247224D01*
X0096110Y0245990D01*
X0093641Y0245990D01*
X0092407Y0247224D01*
X0094876Y0249693D02*
X0096110Y0249693D01*
X0097344Y0250927D02*
X0097344Y0252162D01*
X0096110Y0253396D01*
X0093641Y0253396D01*
X0092407Y0252162D01*
X0099773Y0253396D02*
X0099773Y0245990D01*
X0103476Y0245990D01*
X0104711Y0247224D01*
X0104711Y0248459D01*
X0103476Y0249693D01*
X0103476Y0253396D02*
X0099773Y0253396D01*
X0059640Y0261313D02*
X0059640Y0266250D01*
X0057171Y0268719D01*
X0054703Y0266250D01*
X0054703Y0261313D01*
X0052274Y0262547D02*
X0051039Y0261313D01*
X0048571Y0261313D01*
X0047336Y0262547D01*
X0049805Y0265016D02*
X0051039Y0265016D01*
X0052274Y0263781D01*
X0052274Y0262547D01*
X0051039Y0265016D02*
X0052274Y0266250D01*
X0052274Y0267485D01*
X0051039Y0268719D01*
X0048571Y0268719D01*
X0047336Y0267485D01*
X0054703Y0265016D02*
X0059640Y0265016D01*
X0087114Y0329817D02*
X0084645Y0332285D01*
X0092051Y0332285D01*
X0092051Y0329817D02*
X0092051Y0334754D01*
X0092051Y0337183D02*
X0087114Y0337183D01*
X0084645Y0339652D01*
X0087114Y0342120D01*
X0092051Y0342120D01*
X0088348Y0342120D02*
X0088348Y0337183D01*
D12*
X0193806Y0126899D02*
X0194724Y0126899D01*
X0194265Y0126899D02*
X0194265Y0124144D01*
X0193806Y0124144D02*
X0194724Y0124144D01*
X0195618Y0124144D02*
X0195618Y0126899D01*
X0196996Y0126899D01*
X0197455Y0126440D01*
X0197455Y0125522D01*
X0196996Y0125062D01*
X0195618Y0125062D01*
X0196537Y0125062D02*
X0197455Y0124144D01*
X0218599Y0089763D02*
X0219533Y0089763D01*
X0220001Y0089296D01*
X0218132Y0087428D01*
X0218599Y0086961D01*
X0219533Y0086961D01*
X0220001Y0087428D01*
X0220001Y0089296D01*
X0218599Y0089763D02*
X0218132Y0089296D01*
X0218132Y0087428D01*
X0220895Y0087428D02*
X0221362Y0087428D01*
X0221362Y0086961D01*
X0220895Y0086961D01*
X0220895Y0087428D01*
X0222276Y0086961D02*
X0224144Y0086961D01*
X0223210Y0086961D02*
X0223210Y0089763D01*
X0222276Y0088829D01*
X0225038Y0088829D02*
X0225038Y0087428D01*
X0225505Y0086961D01*
X0226906Y0086961D01*
X0226906Y0088829D01*
X0227801Y0088362D02*
X0228735Y0088362D01*
X0227801Y0089763D02*
X0229669Y0089763D01*
X0227801Y0089763D02*
X0227801Y0086961D01*
D13*
X0214709Y0116371D02*
X0213454Y0117430D01*
X0212643Y0118186D01*
X0212788Y0118186D01*
X0216269Y0118186D01*
X0216102Y0117991D02*
X0212960Y0117991D01*
X0212851Y0117991D01*
X0212643Y0118186D02*
X0215623Y0121654D01*
X0217690Y0119839D01*
X0214709Y0116371D01*
X0214759Y0116428D02*
X0214641Y0116428D01*
X0214410Y0116624D02*
X0214927Y0116624D01*
X0215094Y0116819D02*
X0214178Y0116819D01*
X0213946Y0117014D02*
X0215262Y0117014D01*
X0215430Y0117210D02*
X0213715Y0117210D01*
X0213483Y0117405D02*
X0215598Y0117405D01*
X0215766Y0117600D02*
X0213304Y0117600D01*
X0213271Y0117600D01*
X0213132Y0117796D02*
X0215934Y0117796D01*
X0216437Y0118382D02*
X0212811Y0118382D01*
X0212643Y0118351D02*
X0213454Y0117430D01*
X0212643Y0118351D01*
X0212979Y0118577D02*
X0216605Y0118577D01*
X0216773Y0118773D02*
X0213147Y0118773D01*
X0213314Y0118968D02*
X0216941Y0118968D01*
X0217109Y0119163D02*
X0213482Y0119163D01*
X0213650Y0119359D02*
X0217277Y0119359D01*
X0217445Y0119554D02*
X0213818Y0119554D01*
X0213986Y0119749D02*
X0217612Y0119749D01*
X0217570Y0119945D02*
X0214154Y0119945D01*
X0214322Y0120140D02*
X0217347Y0120140D01*
X0217125Y0120335D02*
X0214490Y0120335D01*
X0214657Y0120531D02*
X0216902Y0120531D01*
X0216680Y0120726D02*
X0214825Y0120726D01*
X0214993Y0120921D02*
X0216457Y0120921D01*
X0216235Y0121117D02*
X0215161Y0121117D01*
X0215329Y0121312D02*
X0216012Y0121312D01*
X0215790Y0121508D02*
X0215497Y0121508D01*
X0213132Y0117796D02*
X0213061Y0117796D01*
D14*
X0155308Y0121665D02*
X0155308Y0124734D01*
X0154541Y0125502D01*
X0152239Y0125502D01*
X0152239Y0120898D01*
X0154541Y0120898D01*
X0155308Y0121665D01*
X0150704Y0121665D02*
X0150704Y0122432D01*
X0149937Y0123200D01*
X0149169Y0123200D01*
X0149937Y0123200D02*
X0150704Y0123967D01*
X0150704Y0124734D01*
X0149937Y0125502D01*
X0148402Y0125502D01*
X0147635Y0124734D01*
X0147635Y0121665D02*
X0148402Y0120898D01*
X0149937Y0120898D01*
X0150704Y0121665D01*
X0111760Y0088474D02*
X0111760Y0087707D01*
X0110992Y0086940D01*
X0108691Y0086940D01*
X0107156Y0086940D02*
X0104087Y0086940D01*
X0106389Y0089242D01*
X0106389Y0084638D01*
X0108691Y0084638D02*
X0110992Y0084638D01*
X0111760Y0085405D01*
X0111760Y0086172D01*
X0110992Y0086940D01*
X0111760Y0088474D02*
X0110992Y0089242D01*
X0108691Y0089242D01*
X0108691Y0084638D01*
X0077211Y0147713D02*
X0077211Y0150783D01*
X0077211Y0152317D02*
X0077211Y0155387D01*
X0076444Y0155387D02*
X0079513Y0155387D01*
X0076444Y0155387D02*
X0074909Y0153852D01*
X0076444Y0152317D01*
X0079513Y0152317D01*
X0079513Y0150015D02*
X0074909Y0150015D01*
X0077211Y0147713D01*
X0112649Y0198535D02*
X0111882Y0199303D01*
X0112649Y0198535D02*
X0114184Y0198535D01*
X0114951Y0199303D01*
X0114951Y0200070D01*
X0114184Y0200837D01*
X0113417Y0200837D01*
X0114184Y0200837D02*
X0114951Y0201605D01*
X0114951Y0202372D01*
X0114184Y0203139D01*
X0112649Y0203139D01*
X0111882Y0202372D01*
X0116486Y0202372D02*
X0116486Y0199303D01*
X0117253Y0198535D01*
X0118788Y0198535D01*
X0119555Y0199303D01*
X0119555Y0202372D02*
X0118788Y0203139D01*
X0117253Y0203139D01*
X0116486Y0202372D01*
X0151808Y0211331D02*
X0154877Y0211331D01*
X0153343Y0211331D02*
X0153343Y0215935D01*
X0151808Y0214400D01*
X0156412Y0213633D02*
X0158714Y0213633D01*
X0159481Y0212865D01*
X0159481Y0212098D01*
X0158714Y0211331D01*
X0156412Y0211331D01*
X0156412Y0215935D01*
X0158714Y0215935D01*
X0159481Y0215167D01*
X0159481Y0214400D01*
X0158714Y0213633D01*
X0232039Y0244144D02*
X0235109Y0244144D01*
X0236643Y0242610D02*
X0236643Y0245679D01*
X0237411Y0246446D01*
X0238945Y0246446D01*
X0239713Y0245679D01*
X0239713Y0242610D02*
X0238945Y0241843D01*
X0237411Y0241843D01*
X0236643Y0242610D01*
X0234341Y0241843D02*
X0234341Y0246446D01*
X0232039Y0244144D01*
X0255819Y0237963D02*
X0258121Y0237963D01*
X0258888Y0237196D01*
X0258888Y0236429D01*
X0258121Y0235661D01*
X0256586Y0235661D01*
X0255819Y0236429D01*
X0255819Y0237963D01*
X0257354Y0239498D01*
X0258888Y0240265D01*
X0260423Y0240265D02*
X0260423Y0235661D01*
X0262725Y0235661D01*
X0263492Y0236429D01*
X0263492Y0239498D01*
X0262725Y0240265D01*
X0260423Y0240265D01*
X0354244Y0252728D02*
X0355011Y0251961D01*
X0356546Y0251961D01*
X0357313Y0252728D01*
X0357313Y0253495D01*
X0356546Y0254263D01*
X0354244Y0254263D01*
X0354244Y0252728D01*
X0354244Y0254263D02*
X0355779Y0255797D01*
X0357313Y0256565D01*
X0358848Y0256565D02*
X0361150Y0256565D01*
X0361917Y0255797D01*
X0361917Y0255030D01*
X0361150Y0254263D01*
X0358848Y0254263D01*
X0358848Y0251961D02*
X0358848Y0256565D01*
X0361150Y0254263D02*
X0361917Y0253495D01*
X0361917Y0252728D01*
X0361150Y0251961D01*
X0358848Y0251961D01*
X0401488Y0260878D02*
X0402255Y0260110D01*
X0403790Y0260110D01*
X0404557Y0260878D01*
X0404557Y0261645D01*
X0403790Y0262412D01*
X0401488Y0262412D01*
X0401488Y0260878D01*
X0401488Y0262412D02*
X0403023Y0263947D01*
X0404557Y0264714D01*
X0406092Y0263180D02*
X0407627Y0264714D01*
X0409161Y0263180D01*
X0409161Y0260110D01*
X0409161Y0262412D02*
X0406092Y0262412D01*
X0406092Y0263180D02*
X0406092Y0260110D01*
X0415401Y0275902D02*
X0414634Y0276670D01*
X0414634Y0278204D01*
X0415401Y0278972D01*
X0416169Y0278972D01*
X0419238Y0275902D01*
X0419238Y0278972D01*
X0419238Y0280506D02*
X0419238Y0282808D01*
X0418470Y0283576D01*
X0415401Y0283576D01*
X0414634Y0282808D01*
X0414634Y0280506D01*
X0419238Y0280506D01*
X0345776Y0343004D02*
X0345008Y0342236D01*
X0343474Y0342236D01*
X0342706Y0343004D01*
X0342706Y0346073D01*
X0343474Y0346840D01*
X0345008Y0346840D01*
X0345776Y0346073D01*
X0341172Y0346073D02*
X0340404Y0346840D01*
X0338870Y0346840D01*
X0338102Y0346073D01*
X0341172Y0346073D02*
X0341172Y0345305D01*
X0338102Y0342236D01*
X0341172Y0342236D01*
X0290736Y0341093D02*
X0290736Y0338024D01*
X0290736Y0340326D02*
X0287667Y0340326D01*
X0287667Y0341093D02*
X0289202Y0342628D01*
X0290736Y0341093D01*
X0287667Y0341093D02*
X0287667Y0338024D01*
X0286132Y0338024D02*
X0283063Y0338024D01*
X0286132Y0341093D01*
X0286132Y0341860D01*
X0285365Y0342628D01*
X0283830Y0342628D01*
X0283063Y0341860D01*
X0247985Y0357334D02*
X0247218Y0356567D01*
X0244916Y0356567D01*
X0244916Y0361171D01*
X0247218Y0361171D01*
X0247985Y0360404D01*
X0247985Y0359636D01*
X0247218Y0358869D01*
X0244916Y0358869D01*
X0243381Y0359636D02*
X0243381Y0360404D01*
X0242614Y0361171D01*
X0241079Y0361171D01*
X0240312Y0360404D01*
X0243381Y0359636D02*
X0240312Y0356567D01*
X0243381Y0356567D01*
X0247218Y0358869D02*
X0247985Y0358102D01*
X0247985Y0357334D01*
X0212631Y0352726D02*
X0212631Y0349657D01*
X0211863Y0348890D01*
X0209561Y0348890D01*
X0209561Y0353494D01*
X0211863Y0353494D01*
X0212631Y0352726D01*
X0208027Y0348890D02*
X0204957Y0348890D01*
X0206492Y0348890D02*
X0206492Y0353494D01*
X0204957Y0351959D01*
X0172468Y0320443D02*
X0171701Y0321210D01*
X0170167Y0321210D01*
X0169399Y0320443D01*
X0169399Y0317374D01*
X0170167Y0316606D01*
X0171701Y0316606D01*
X0172468Y0317374D01*
X0167865Y0316606D02*
X0164795Y0316606D01*
X0166330Y0316606D02*
X0166330Y0321210D01*
X0164795Y0319676D01*
X0126017Y0319717D02*
X0126017Y0322786D01*
X0124482Y0324320D01*
X0122947Y0322786D01*
X0122947Y0319717D01*
X0121413Y0319717D02*
X0118343Y0319717D01*
X0119878Y0319717D02*
X0119878Y0324320D01*
X0118343Y0322786D01*
X0122947Y0322018D02*
X0126017Y0322018D01*
X0097902Y0318789D02*
X0097902Y0318022D01*
X0097134Y0317255D01*
X0094832Y0317255D01*
X0093298Y0318022D02*
X0093298Y0318789D01*
X0092530Y0319557D01*
X0090996Y0319557D01*
X0090228Y0318789D01*
X0091763Y0317255D02*
X0092530Y0317255D01*
X0093298Y0316487D01*
X0093298Y0315720D01*
X0092530Y0314953D01*
X0090996Y0314953D01*
X0090228Y0315720D01*
X0092530Y0317255D02*
X0093298Y0318022D01*
X0094832Y0319557D02*
X0097134Y0319557D01*
X0097902Y0318789D01*
X0097134Y0317255D02*
X0097902Y0316487D01*
X0097902Y0315720D01*
X0097134Y0314953D01*
X0094832Y0314953D01*
X0094832Y0319557D01*
X0041836Y0233886D02*
X0038767Y0233886D01*
X0037232Y0232351D01*
X0038767Y0230817D01*
X0041836Y0230817D01*
X0041069Y0229282D02*
X0041836Y0228515D01*
X0041836Y0226980D01*
X0041069Y0226213D01*
X0039534Y0227747D02*
X0039534Y0228515D01*
X0040302Y0229282D01*
X0041069Y0229282D01*
X0039534Y0228515D02*
X0038767Y0229282D01*
X0038000Y0229282D01*
X0037232Y0228515D01*
X0037232Y0226980D01*
X0038000Y0226213D01*
X0039534Y0230817D02*
X0039534Y0233886D01*
X0259398Y0063989D02*
X0259398Y0062455D01*
X0260165Y0061687D01*
X0263234Y0061687D01*
X0264002Y0062455D01*
X0264002Y0063989D01*
X0263234Y0064757D01*
X0260165Y0064757D02*
X0259398Y0063989D01*
X0259398Y0060153D02*
X0259398Y0057083D01*
X0261700Y0057083D01*
X0260932Y0058618D01*
X0260932Y0059385D01*
X0261700Y0060153D01*
X0263234Y0060153D01*
X0264002Y0059385D01*
X0264002Y0057851D01*
X0263234Y0057083D01*
X0295878Y0119520D02*
X0295110Y0120287D01*
X0295878Y0119520D02*
X0297412Y0119520D01*
X0298180Y0120287D01*
X0298180Y0121822D01*
X0297412Y0122589D01*
X0296645Y0122589D01*
X0295110Y0121822D01*
X0295110Y0124124D01*
X0298180Y0124124D01*
X0299714Y0124124D02*
X0299714Y0119520D01*
X0302016Y0119520D01*
X0302783Y0120287D01*
X0302783Y0123356D01*
X0302016Y0124124D01*
X0299714Y0124124D01*
X0320627Y0125326D02*
X0321394Y0124559D01*
X0322929Y0124559D01*
X0323696Y0125326D01*
X0323696Y0126094D01*
X0322929Y0126861D01*
X0320627Y0126861D01*
X0320627Y0125326D01*
X0320627Y0126861D02*
X0322161Y0128396D01*
X0323696Y0129163D01*
X0325231Y0128396D02*
X0325231Y0125326D01*
X0325998Y0124559D01*
X0327533Y0124559D01*
X0328300Y0125326D01*
X0328300Y0128396D02*
X0327533Y0129163D01*
X0325998Y0129163D01*
X0325231Y0128396D01*
X0279245Y0131507D02*
X0278478Y0130740D01*
X0276176Y0130740D01*
X0276176Y0135344D01*
X0278478Y0135344D01*
X0279245Y0134577D01*
X0279245Y0131507D01*
X0274641Y0133042D02*
X0271572Y0133042D01*
X0273874Y0135344D01*
X0273874Y0130740D01*
X0373846Y0063989D02*
X0374614Y0064757D01*
X0375381Y0064757D01*
X0376148Y0063989D01*
X0376148Y0061687D01*
X0376148Y0060153D02*
X0377683Y0060153D01*
X0378450Y0059385D01*
X0378450Y0057851D01*
X0377683Y0057083D01*
X0376148Y0057083D02*
X0375381Y0058618D01*
X0375381Y0059385D01*
X0376148Y0060153D01*
X0373846Y0060153D02*
X0373846Y0057083D01*
X0376148Y0057083D01*
X0373846Y0061687D02*
X0373846Y0063989D01*
X0373846Y0061687D02*
X0378450Y0061687D01*
X0378450Y0063989D01*
X0377683Y0064757D01*
X0376916Y0064757D01*
X0376148Y0063989D01*
X0377783Y0102354D02*
X0380085Y0102354D01*
X0379318Y0103889D01*
X0379318Y0104656D01*
X0380085Y0105424D01*
X0381620Y0105424D01*
X0382387Y0104656D01*
X0382387Y0103122D01*
X0381620Y0102354D01*
X0377783Y0102354D02*
X0377783Y0105424D01*
X0379318Y0106958D02*
X0377783Y0108493D01*
X0379318Y0110028D01*
X0382387Y0110028D01*
X0380085Y0110028D02*
X0380085Y0106958D01*
X0379318Y0106958D02*
X0382387Y0106958D01*
D15*
X0239647Y0106906D02*
X0239319Y0107235D01*
X0238662Y0107235D01*
X0238334Y0106906D01*
X0238334Y0105593D01*
X0238662Y0105265D01*
X0239319Y0105265D01*
X0239647Y0105593D01*
D16*
X0242229Y0102704D02*
X0241612Y0102087D01*
X0241612Y0100235D01*
X0245315Y0100235D01*
X0245315Y0102087D01*
X0244698Y0102704D01*
X0242229Y0102704D01*
X0242229Y0099021D02*
X0243464Y0099021D01*
X0244081Y0098404D01*
X0244081Y0096552D01*
X0245315Y0096552D02*
X0241612Y0096552D01*
X0241612Y0098404D01*
X0242229Y0099021D01*
M02*
