%
M48
M72
T01C0.0138
T02C0.0256
T03C0.0315
T04C0.0600
T05C0.0894
T06C0.1200
T07C0.1378
%
T01
X7857Y8015
X7857Y8408
X7857Y8802
X7857Y9196
X8251Y9196
X7385Y11322
X6952Y11400
X6400Y11400
X5849Y11400
X5298Y11400
X7306Y13800
X7936Y13172
X8172Y13408
X8605Y12463
X9511Y13881
X10613Y13461
X11794Y13605
X11912Y12778
X12306Y12778
X12621Y12542
X12306Y12306
X12621Y12070
X12621Y11676
X12385Y8920
X13330Y8841
X12070Y7897
X11597Y8369
X10810Y8369
X11597Y14747
X11558Y15377
X13211Y18526
X13093Y19196
X13881Y18763
X14274Y19826
X14196Y20456
X13960Y21007
X13330Y21715
X12660Y20219
X11164Y19904
X11164Y19511
X10771Y19511
X10771Y19904
X10377Y19904
X10377Y19511
X7936Y18999
X7385Y18999
X7385Y18448
X7385Y17897
X6125Y19668
X5731Y19668
X5337Y19668
X5337Y20062
X5731Y20062
X6125Y20062
X8526Y22739
X8881Y22975
X9826Y24629
X9826Y25180
X9826Y25731
X11361Y27621
X11322Y28211
X12169Y28489
X10337Y28015
X9589Y29904
X12030Y32345
X12030Y32739
X12030Y33133
X12030Y33526
X12424Y33526
X12424Y33133
X12818Y33133
X12818Y33526
X13211Y33526
X13211Y33133
X13211Y32739
X12818Y32739
X12818Y32345
X13211Y32345
X13605Y32345
X13999Y32345
X14393Y32345
X14393Y32739
X14393Y33133
X14393Y33526
X13999Y33526
X13999Y33133
X13605Y33133
X13605Y33526
X13605Y32739
X13999Y32739
X15416Y32660
X16125Y32778
X17503Y30810
X17385Y29826
X17424Y29038
X16912Y28487
X17385Y27739
X19668Y28448
X19865Y29471
X19747Y30416
X19708Y31282
X19944Y32188
X20180Y32424
X20652Y32975
X19983Y33605
X19589Y33592
X19038Y34550
X19668Y35771
X20259Y35967
X20613Y34826
X20889Y34117
X21755Y32700
X22149Y32700
X22149Y32345
X22149Y31952
X21755Y32306
X22188Y31007
X23526Y30023
X23841Y30574
X24353Y30849
X25692Y30731
X26086Y30731
X26479Y30731
X26479Y30337
X26086Y30337
X25692Y30337
X25692Y31125
X26086Y31125
X26479Y31125
X26873Y31125
X27267Y31125
X27267Y30731
X27267Y30337
X26873Y30337
X26873Y30731
X27188Y29353
X25574Y28881
X24904Y28093
X24747Y27306
X25141Y27306
X25141Y26912
X25141Y26519
X24747Y26519
X24747Y26912
X24353Y26912
X24353Y26519
X23960Y26519
X23960Y26912
X23960Y27306
X24353Y27306
X23566Y27306
X23566Y26912
X23566Y26519
X23566Y26125
X23960Y26125
X24353Y26125
X24747Y26125
X25141Y26125
X25771Y27857
X23684Y24865
X22030Y24038
X20771Y25377
X19865Y24550
X19156Y22030
X18172Y21007
X17739Y22070
X17424Y22510
X16125Y23526
X15620Y24078
X15337Y23211
X14708Y24078
X13684Y24038
X11926Y23211
X11400Y23645
X11322Y22739
X7739Y25259
X7739Y25967
X12424Y32345
X12424Y32739
X13526Y34708
X13330Y35574
X14078Y38723
X15180Y38684
X15180Y40652
X15416Y41597
X15574Y42267
X15574Y42660
X15574Y43054
X15574Y43448
X15928Y43881
X15928Y44314
X21204Y44471
X21204Y44078
X24708Y43448
X24708Y42936
X24684Y42424
X26637Y44117
X27503Y44038
X27975Y41086
X27739Y40849
X27424Y39904
X25889Y38408
X25337Y38408
X24786Y38408
X24415Y35320
X24997Y35037
X29668Y31282
X29668Y30889
X30062Y30889
X30062Y31282
X30456Y31282
X30849Y31282
X30849Y30889
X30456Y30889
X30456Y30495
X30849Y30495
X30849Y30101
X30456Y30101
X30062Y30101
X29668Y30101
X29668Y30495
X30062Y30495
X29589Y29117
X32030Y28330
X32463Y29353
X32463Y29747
X32463Y30141
X32463Y30534
X32857Y30534
X32857Y30141
X33251Y30141
X33251Y30534
X33645Y30534
X34038Y30534
X34038Y30141
X33645Y30141
X33645Y29747
X34038Y29747
X34038Y29353
X33645Y29353
X33251Y29353
X32857Y29353
X32857Y29747
X33251Y29747
X32070Y27030
X32109Y25967
X29826Y26046
X31322Y23408
X31322Y23015
X31715Y23015
X31715Y23408
X31715Y22621
X31322Y22621
X31322Y22227
X31715Y22227
X31794Y19511
X31400Y19511
X31400Y19117
X31400Y18723
X31400Y18330
X31794Y18330
X31794Y18723
X32188Y18723
X32188Y18330
X32582Y18330
X32975Y18330
X32975Y18723
X32582Y18723
X32582Y19117
X32975Y19117
X32975Y19511
X32582Y19511
X32188Y19511
X32188Y19117
X31794Y19117
X28054Y19196
X26361Y16873
X24038Y20141
X24038Y20534
X23645Y20534
X23645Y20141
X23645Y20928
X24038Y20928
X24038Y21322
X23645Y21322
X24747Y21597
X25692Y21007
X22109Y17975
X21755Y16637
X21125Y16637
X21440Y15928
X19511Y15259
X19038Y14826
X18684Y14983
X17188Y13369
X17289Y10674
X17983Y9393
X19511Y8487
X19944Y8487
X19944Y8881
X20377Y8487
X20849Y8645
X19038Y17149
X19274Y17385
X19786Y18093
X17897Y17936
X17897Y18330
X17897Y18723
X17503Y18723
X17503Y18330
X17109Y18330
X17109Y18723
X17109Y17936
X17109Y17542
X17503Y17542
X17897Y17542
X17503Y17936
X16243Y17936
X16243Y18330
X16243Y18723
X15849Y18723
X15849Y18330
X15849Y17936
X15849Y17542
X16243Y17542
X15810Y19471
X17700Y24274
X17700Y24668
X22070Y27660
X18093Y32503
X18330Y33251
X17163Y35864
X10337Y35771
X9235Y35613
X8841Y35613
X8448Y35613
X8448Y35219
X8841Y35219
X9235Y35219
X9235Y36007
X8841Y36007
X8448Y36007
X7463Y34904
X6558Y34196
X6164Y34196
X5771Y34196
X5771Y33802
X6164Y33802
X6164Y33408
X6164Y33015
X5771Y33015
X5771Y33408
X5377Y33408
X5377Y33015
X5377Y33802
X5377Y34196
X5377Y34589
X5377Y34983
X5377Y35377
X5377Y35771
X5141Y36086
X6597Y36794
X6676Y37778
X6794Y39038
X7188Y39038
X8133Y39471
X9038Y40652
X10298Y41558
X9944Y42144
X9196Y38330
X7936Y33841
X6558Y33802
X6558Y33408
X6558Y33015
X5023Y38566
X6125Y15613
X30731Y32621
X32818Y35771
X32818Y36164
X33211Y36164
X33211Y35771
X33211Y36558
X32818Y36558
X32818Y36952
X32818Y37345
X33211Y37345
X33211Y36952
X34708Y36952
X34708Y37345
X34708Y37739
X35101Y37739
X35101Y38133
X34708Y38133
X35495Y38133
X35889Y38133
X36282Y38133
X36282Y37739
X35889Y37739
X35495Y37739
X36676Y37739
X36676Y38133
X38165Y35488
X39117Y36519
X38093Y33487
X35731Y28723
X36204Y41440
X34944Y44314
X34550Y44314
X34156Y44314
X33763Y44314
X33369Y44314
X33211Y43960
X33211Y43566
X33211Y43172
X33211Y42778
X34078Y41952
T02
X32345Y24117
T03
X35652Y20889
X35652Y20259
X21400Y20456
X21400Y21086
X21479Y17267
X10456Y26637
X10456Y27267
X10456Y29038
X10456Y29668
T04
X12778Y30849
X15810Y34550
X20337Y27030
X19235Y25967
X16755Y21676
X16755Y20180
X24078Y17975
X24078Y9274
X22660Y8526
X25810Y8605
X27070Y9393
X28330Y8566
X29511Y9353
X31086Y8684
X32267Y9393
X33763Y8408
X34786Y9471
X36007Y8408
X38645Y13133
X38408Y14904
X37936Y20101
X38566Y21991
X36952Y21991
X37109Y24393
X37030Y26125
X38566Y26125
X38605Y24353
X38566Y27739
X37030Y27739
X36991Y29353
X38605Y29314
X32621Y33448
X10259Y43999
X8211Y43999
X7227Y39983
X5692Y39944
X9235Y33841
X5613Y29983
X5652Y28605
X5652Y27109
X5692Y25771
X5692Y24471
X5692Y23015
X5692Y21400
T05
X9117Y17582
X9117Y31204
X37857Y31204
X37857Y17582
T06
X38526Y38015
X38526Y40141
X14904Y8408
X9117Y8526
X12267Y41479
X12306Y43684
T07
X10967Y37227
X18526Y37227
X20889Y37227
X28448Y37227
X28448Y34227
X36007Y34227
X28448Y14058
X28448Y11558
X36007Y11558
X20889Y14058
X18526Y11558
X10967Y11558
M30
