G75*
%MOIN*%
%OFA0B0*%
%FSLAX25Y25*%
%IPPOS*%
%LPD*%
%AMOC8*
5,1,8,0,0,1.08239X$1,22.5*
%
%ADD10C,0.17780*%
%ADD11C,0.09000*%
%ADD12C,0.16000*%
%ADD13C,0.05150*%
%ADD14C,0.01600*%
%ADD15C,0.02978*%
%ADD16C,0.00800*%
%ADD17C,0.04159*%
%ADD18C,0.04750*%
D10*
X0109674Y0115580D03*
X0185265Y0115580D03*
X0208887Y0140580D03*
X0284477Y0140580D03*
X0284477Y0115580D03*
X0360068Y0115580D03*
X0360068Y0342272D03*
X0284477Y0342272D03*
X0284477Y0372272D03*
X0208887Y0372272D03*
X0185265Y0372272D03*
X0109674Y0372272D03*
D11*
X0092351Y0338414D03*
X0127784Y0308493D03*
X0158099Y0345501D03*
X0203375Y0270304D03*
X0192351Y0259674D03*
X0167548Y0216761D03*
X0167548Y0201800D03*
X0240776Y0179753D03*
X0240776Y0092745D03*
X0226603Y0085265D03*
X0258099Y0086052D03*
X0270698Y0093926D03*
X0283296Y0085658D03*
X0295107Y0093532D03*
X0310855Y0086839D03*
X0322666Y0093926D03*
X0337627Y0084083D03*
X0347863Y0094713D03*
X0360068Y0084083D03*
X0386446Y0131328D03*
X0384083Y0149044D03*
X0379359Y0201013D03*
X0385658Y0219910D03*
X0369517Y0219910D03*
X0371091Y0243926D03*
X0370304Y0261249D03*
X0385658Y0261249D03*
X0386052Y0243532D03*
X0385658Y0277391D03*
X0370304Y0277391D03*
X0369910Y0293532D03*
X0386052Y0293139D03*
X0326209Y0334477D03*
X0102587Y0439989D03*
X0082115Y0439989D03*
X0072272Y0399831D03*
X0056918Y0399438D03*
X0056131Y0299831D03*
X0056524Y0286052D03*
X0056524Y0271091D03*
X0056918Y0257706D03*
X0056918Y0244713D03*
X0056918Y0230146D03*
X0056918Y0214005D03*
D12*
X0091170Y0085265D03*
X0149044Y0084083D03*
X0385265Y0380146D03*
X0385265Y0401406D03*
X0122666Y0414792D03*
X0123060Y0436839D03*
D13*
X0104556Y0296682D03*
X0104556Y0290383D03*
X0104556Y0272666D03*
X0104556Y0266367D03*
X0214005Y0210855D03*
X0214005Y0204556D03*
X0356524Y0202587D03*
X0356524Y0208887D03*
D14*
X0077085Y0107245D02*
X0077085Y0078266D01*
X0084309Y0078266D01*
X0083851Y0078724D01*
X0083165Y0079585D01*
X0082579Y0080517D01*
X0082102Y0081508D01*
X0081738Y0082547D01*
X0081493Y0083620D01*
X0081398Y0084465D01*
X0090370Y0084465D01*
X0090370Y0086065D01*
X0090370Y0095036D01*
X0089526Y0094941D01*
X0088453Y0094696D01*
X0087414Y0094333D01*
X0086422Y0093855D01*
X0085490Y0093270D01*
X0084630Y0092583D01*
X0083851Y0091805D01*
X0083165Y0090944D01*
X0082579Y0090012D01*
X0082102Y0089021D01*
X0081738Y0087982D01*
X0081493Y0086909D01*
X0081398Y0086065D01*
X0090370Y0086065D01*
X0091970Y0086065D01*
X0091970Y0095036D01*
X0092814Y0094941D01*
X0093887Y0094696D01*
X0094926Y0094333D01*
X0095918Y0093855D01*
X0096850Y0093270D01*
X0097711Y0092583D01*
X0098489Y0091805D01*
X0099175Y0090944D01*
X0099761Y0090012D01*
X0100238Y0089021D01*
X0100602Y0087982D01*
X0100847Y0086909D01*
X0100942Y0086065D01*
X0091970Y0086065D01*
X0091970Y0084465D01*
X0100942Y0084465D01*
X0100847Y0083620D01*
X0100602Y0082547D01*
X0100238Y0081508D01*
X0099761Y0080517D01*
X0099175Y0079585D01*
X0098489Y0078724D01*
X0098031Y0078266D01*
X0117860Y0078266D01*
X0117809Y0078391D01*
X0117809Y0079540D01*
X0118248Y0080602D01*
X0119061Y0081415D01*
X0120123Y0081854D01*
X0121272Y0081854D01*
X0122334Y0081415D01*
X0122983Y0080765D01*
X0130170Y0080765D01*
X0136018Y0086614D01*
X0135582Y0086614D01*
X0134933Y0085965D01*
X0133871Y0085525D01*
X0132721Y0085525D01*
X0131660Y0085965D01*
X0130847Y0086778D01*
X0130407Y0087840D01*
X0130407Y0088989D01*
X0130847Y0090051D01*
X0131660Y0090863D01*
X0132721Y0091303D01*
X0133871Y0091303D01*
X0134933Y0090863D01*
X0135582Y0090214D01*
X0137356Y0090214D01*
X0142771Y0095629D01*
X0143825Y0096683D01*
X0153587Y0096683D01*
X0170079Y0113176D01*
X0170079Y0131404D01*
X0169430Y0132053D01*
X0168990Y0133115D01*
X0168990Y0134264D01*
X0169430Y0135326D01*
X0170242Y0136139D01*
X0171304Y0136579D01*
X0172453Y0136579D01*
X0173515Y0136139D01*
X0174328Y0135326D01*
X0174768Y0134264D01*
X0174768Y0133115D01*
X0174328Y0132053D01*
X0173679Y0131404D01*
X0173679Y0111684D01*
X0172624Y0110630D01*
X0156132Y0094138D01*
X0155339Y0093345D01*
X0158990Y0089694D01*
X0158990Y0089694D01*
X0160044Y0088640D01*
X0160044Y0086653D01*
X0166719Y0079978D01*
X0223949Y0079978D01*
X0223261Y0080263D01*
X0221601Y0081922D01*
X0220703Y0084091D01*
X0220703Y0086438D01*
X0221601Y0088607D01*
X0223261Y0090266D01*
X0225430Y0091165D01*
X0227777Y0091165D01*
X0229945Y0090266D01*
X0231605Y0088607D01*
X0232503Y0086438D01*
X0232503Y0084091D01*
X0231605Y0081922D01*
X0229945Y0080263D01*
X0229258Y0079978D01*
X0275070Y0079978D01*
X0278035Y0082943D01*
X0277396Y0084485D01*
X0277396Y0086832D01*
X0278294Y0089000D01*
X0279954Y0090660D01*
X0282122Y0091558D01*
X0284470Y0091558D01*
X0286638Y0090660D01*
X0288298Y0089000D01*
X0289196Y0086832D01*
X0289196Y0084485D01*
X0288298Y0082316D01*
X0286638Y0080656D01*
X0284470Y0079758D01*
X0282122Y0079758D01*
X0280580Y0080397D01*
X0278449Y0078266D01*
X0336254Y0078266D01*
X0334285Y0079082D01*
X0332625Y0080741D01*
X0331727Y0082910D01*
X0331727Y0085257D01*
X0332625Y0087426D01*
X0334285Y0089085D01*
X0336453Y0089983D01*
X0338800Y0089983D01*
X0340969Y0089085D01*
X0342629Y0087426D01*
X0343527Y0085257D01*
X0343527Y0082910D01*
X0342629Y0080741D01*
X0340969Y0079082D01*
X0339000Y0078266D01*
X0357608Y0078266D01*
X0356766Y0078695D01*
X0355964Y0079278D01*
X0355262Y0079979D01*
X0354679Y0080782D01*
X0354229Y0081665D01*
X0353923Y0082608D01*
X0353800Y0083383D01*
X0359368Y0083383D01*
X0359368Y0084783D01*
X0353800Y0084783D01*
X0353923Y0085559D01*
X0354229Y0086502D01*
X0354679Y0087385D01*
X0355262Y0088188D01*
X0355964Y0088889D01*
X0356766Y0089472D01*
X0357649Y0089922D01*
X0358592Y0090228D01*
X0359368Y0090351D01*
X0359368Y0084784D01*
X0360768Y0084784D01*
X0360768Y0090351D01*
X0361543Y0090228D01*
X0362486Y0089922D01*
X0363370Y0089472D01*
X0364172Y0088889D01*
X0364873Y0088188D01*
X0365456Y0087385D01*
X0365906Y0086502D01*
X0366213Y0085559D01*
X0366335Y0084783D01*
X0360768Y0084783D01*
X0360768Y0083383D01*
X0366335Y0083383D01*
X0366213Y0082608D01*
X0365906Y0081665D01*
X0365456Y0080782D01*
X0364873Y0079979D01*
X0364172Y0079278D01*
X0363370Y0078695D01*
X0362527Y0078266D01*
X0367066Y0078266D01*
X0367066Y0105506D01*
X0362228Y0105506D01*
X0361422Y0105290D01*
X0358713Y0105290D01*
X0357908Y0105506D01*
X0310731Y0105506D01*
X0309862Y0106375D01*
X0309239Y0105838D01*
X0309173Y0105843D01*
X0309121Y0105802D01*
X0308273Y0105909D01*
X0298706Y0106618D01*
X0297987Y0105899D01*
X0288106Y0105899D01*
X0285832Y0105290D01*
X0283122Y0105290D01*
X0280848Y0105899D01*
X0206794Y0105899D01*
X0199708Y0112986D01*
X0198419Y0114275D01*
X0198419Y0136322D01*
X0197631Y0137109D01*
X0197631Y0148381D01*
X0201175Y0151924D01*
X0202464Y0153213D01*
X0207582Y0153213D01*
X0212986Y0158617D01*
X0212986Y0165703D01*
X0214275Y0166992D01*
X0214680Y0166992D01*
X0215099Y0168003D01*
X0215912Y0168816D01*
X0216973Y0169256D01*
X0218123Y0169256D01*
X0219184Y0168816D01*
X0219997Y0168003D01*
X0220416Y0166992D01*
X0261262Y0166992D01*
X0261162Y0167093D01*
X0260722Y0168154D01*
X0260722Y0169304D01*
X0261162Y0170366D01*
X0261975Y0171178D01*
X0263036Y0171618D01*
X0264186Y0171618D01*
X0265247Y0171178D01*
X0266060Y0170366D01*
X0266500Y0169304D01*
X0266500Y0168154D01*
X0266060Y0167093D01*
X0265960Y0166992D01*
X0266923Y0166992D01*
X0266923Y0174759D01*
X0268212Y0176047D01*
X0274117Y0181953D01*
X0334207Y0181953D01*
X0335496Y0180664D01*
X0375260Y0140900D01*
X0375260Y0111731D01*
X0394625Y0111731D01*
X0394625Y0377226D01*
X0394333Y0376390D01*
X0393855Y0375399D01*
X0393270Y0374467D01*
X0392583Y0373606D01*
X0391805Y0372828D01*
X0390944Y0372141D01*
X0390012Y0371556D01*
X0389021Y0371078D01*
X0387982Y0370715D01*
X0386909Y0370470D01*
X0386065Y0370375D01*
X0386065Y0379346D01*
X0384465Y0379346D01*
X0384465Y0370375D01*
X0383620Y0370470D01*
X0382547Y0370715D01*
X0381508Y0371078D01*
X0380517Y0371556D01*
X0379585Y0372141D01*
X0378724Y0372828D01*
X0377946Y0373606D01*
X0377259Y0374467D01*
X0376674Y0375399D01*
X0376196Y0376390D01*
X0375833Y0377429D01*
X0375588Y0378502D01*
X0375493Y0379346D01*
X0384465Y0379346D01*
X0384465Y0380946D01*
X0375493Y0380946D01*
X0375588Y0381791D01*
X0375833Y0382864D01*
X0376196Y0383903D01*
X0376674Y0384894D01*
X0377259Y0385826D01*
X0377946Y0386687D01*
X0378724Y0387465D01*
X0379585Y0388152D01*
X0380517Y0388737D01*
X0381508Y0389215D01*
X0382547Y0389578D01*
X0383620Y0389823D01*
X0384465Y0389918D01*
X0384465Y0380947D01*
X0386065Y0380947D01*
X0386065Y0389918D01*
X0386909Y0389823D01*
X0387982Y0389578D01*
X0389021Y0389215D01*
X0390012Y0388737D01*
X0390944Y0388152D01*
X0391805Y0387465D01*
X0392583Y0386687D01*
X0393270Y0385826D01*
X0393855Y0384894D01*
X0394333Y0383903D01*
X0394625Y0383067D01*
X0394625Y0399442D01*
X0393233Y0396082D01*
X0390589Y0393437D01*
X0387134Y0392006D01*
X0383395Y0392006D01*
X0379940Y0393437D01*
X0377296Y0396082D01*
X0375865Y0399537D01*
X0375865Y0403276D01*
X0377296Y0406731D01*
X0379940Y0409375D01*
X0380448Y0409586D01*
X0371552Y0409586D01*
X0369494Y0410438D01*
X0367919Y0412014D01*
X0367066Y0414072D01*
X0367066Y0445019D01*
X0127876Y0445019D01*
X0128385Y0444808D01*
X0131029Y0442164D01*
X0132460Y0438709D01*
X0132460Y0434970D01*
X0131029Y0431515D01*
X0128385Y0428870D01*
X0124930Y0427439D01*
X0121190Y0427439D01*
X0117735Y0428870D01*
X0115091Y0431515D01*
X0113660Y0434970D01*
X0113660Y0438709D01*
X0115091Y0442164D01*
X0117735Y0444808D01*
X0118244Y0445019D01*
X0105861Y0445019D01*
X0105929Y0444991D01*
X0107589Y0443331D01*
X0108487Y0441163D01*
X0108487Y0438815D01*
X0107589Y0436647D01*
X0105929Y0434987D01*
X0103761Y0434089D01*
X0101414Y0434089D01*
X0099245Y0434987D01*
X0097586Y0436647D01*
X0096687Y0438815D01*
X0096687Y0441163D01*
X0097586Y0443331D01*
X0099245Y0444991D01*
X0099313Y0445019D01*
X0085389Y0445019D01*
X0085457Y0444991D01*
X0087117Y0443331D01*
X0088015Y0441163D01*
X0088015Y0438815D01*
X0087117Y0436647D01*
X0085457Y0434987D01*
X0083289Y0434089D01*
X0080941Y0434089D01*
X0078773Y0434987D01*
X0077113Y0436647D01*
X0077085Y0436715D01*
X0077085Y0414072D01*
X0076232Y0412014D01*
X0074657Y0410438D01*
X0072599Y0409586D01*
X0049132Y0409586D01*
X0049132Y0111731D01*
X0072599Y0111731D01*
X0074657Y0110878D01*
X0076232Y0109303D01*
X0077085Y0107245D01*
X0076841Y0107833D02*
X0102868Y0107833D01*
X0103356Y0107346D02*
X0105702Y0105991D01*
X0108319Y0105290D01*
X0111029Y0105290D01*
X0113646Y0105991D01*
X0115992Y0107346D01*
X0117908Y0109261D01*
X0119263Y0111608D01*
X0119964Y0114225D01*
X0119964Y0116934D01*
X0119263Y0119551D01*
X0117908Y0121898D01*
X0115992Y0123813D01*
X0113646Y0125168D01*
X0111029Y0125869D01*
X0108319Y0125869D01*
X0105702Y0125168D01*
X0103356Y0123813D01*
X0101440Y0121898D01*
X0100085Y0119551D01*
X0099384Y0116934D01*
X0099384Y0114225D01*
X0100085Y0111608D01*
X0101440Y0109261D01*
X0103356Y0107346D01*
X0105280Y0106235D02*
X0077085Y0106235D01*
X0077085Y0104636D02*
X0161540Y0104636D01*
X0163138Y0106235D02*
X0114068Y0106235D01*
X0116480Y0107833D02*
X0164737Y0107833D01*
X0166335Y0109432D02*
X0118006Y0109432D01*
X0118929Y0111030D02*
X0167934Y0111030D01*
X0169532Y0112629D02*
X0119536Y0112629D01*
X0119964Y0114227D02*
X0170079Y0114227D01*
X0170079Y0115826D02*
X0119964Y0115826D01*
X0119832Y0117424D02*
X0170079Y0117424D01*
X0170079Y0119023D02*
X0119404Y0119023D01*
X0118645Y0120621D02*
X0170079Y0120621D01*
X0170079Y0122220D02*
X0117585Y0122220D01*
X0115983Y0123819D02*
X0170079Y0123819D01*
X0170079Y0125417D02*
X0112717Y0125417D01*
X0106631Y0125417D02*
X0049132Y0125417D01*
X0049132Y0123819D02*
X0103365Y0123819D01*
X0101763Y0122220D02*
X0049132Y0122220D01*
X0049132Y0120621D02*
X0100703Y0120621D01*
X0099944Y0119023D02*
X0049132Y0119023D01*
X0049132Y0117424D02*
X0099516Y0117424D01*
X0099384Y0115826D02*
X0049132Y0115826D01*
X0049132Y0114227D02*
X0099384Y0114227D01*
X0099812Y0112629D02*
X0049132Y0112629D01*
X0049132Y0127016D02*
X0170079Y0127016D01*
X0170079Y0128614D02*
X0049132Y0128614D01*
X0049132Y0130213D02*
X0170079Y0130213D01*
X0169672Y0131811D02*
X0106930Y0131811D01*
X0106705Y0131718D02*
X0107767Y0132158D01*
X0108580Y0132971D01*
X0109020Y0134032D01*
X0109020Y0135182D01*
X0108580Y0136244D01*
X0107767Y0137056D01*
X0106705Y0137496D01*
X0105556Y0137496D01*
X0104494Y0137056D01*
X0103682Y0136244D01*
X0103242Y0135182D01*
X0103242Y0134032D01*
X0103682Y0132971D01*
X0104494Y0132158D01*
X0105556Y0131718D01*
X0106705Y0131718D01*
X0105332Y0131811D02*
X0049132Y0131811D01*
X0049132Y0133410D02*
X0103500Y0133410D01*
X0103242Y0135008D02*
X0049132Y0135008D01*
X0049132Y0136607D02*
X0104045Y0136607D01*
X0108217Y0136607D02*
X0115053Y0136607D01*
X0115053Y0136627D02*
X0115053Y0135477D01*
X0115493Y0134415D01*
X0116305Y0133603D01*
X0117367Y0133163D01*
X0118516Y0133163D01*
X0119578Y0133603D01*
X0120391Y0134415D01*
X0120831Y0135477D01*
X0120831Y0136627D01*
X0120391Y0137688D01*
X0119578Y0138501D01*
X0118516Y0138941D01*
X0117367Y0138941D01*
X0116305Y0138501D01*
X0115493Y0137688D01*
X0115053Y0136627D01*
X0115247Y0135008D02*
X0109020Y0135008D01*
X0108762Y0133410D02*
X0116772Y0133410D01*
X0119112Y0133410D02*
X0168990Y0133410D01*
X0169298Y0135008D02*
X0120636Y0135008D01*
X0120831Y0136607D02*
X0198134Y0136607D01*
X0198419Y0135008D02*
X0174460Y0135008D01*
X0174768Y0133410D02*
X0198419Y0133410D01*
X0198419Y0131811D02*
X0174086Y0131811D01*
X0173679Y0130213D02*
X0198419Y0130213D01*
X0198419Y0128614D02*
X0173679Y0128614D01*
X0173679Y0127016D02*
X0198419Y0127016D01*
X0198419Y0125417D02*
X0188307Y0125417D01*
X0189236Y0125168D02*
X0186619Y0125869D01*
X0183910Y0125869D01*
X0181293Y0125168D01*
X0178946Y0123813D01*
X0177031Y0121898D01*
X0175676Y0119551D01*
X0174975Y0116934D01*
X0174975Y0114225D01*
X0175676Y0111608D01*
X0177031Y0109261D01*
X0178946Y0107346D01*
X0181293Y0105991D01*
X0183910Y0105290D01*
X0186619Y0105290D01*
X0189236Y0105991D01*
X0191583Y0107346D01*
X0193498Y0109261D01*
X0194853Y0111608D01*
X0195554Y0114225D01*
X0195554Y0116934D01*
X0194853Y0119551D01*
X0193498Y0121898D01*
X0191583Y0123813D01*
X0189236Y0125168D01*
X0191574Y0123819D02*
X0198419Y0123819D01*
X0198419Y0122220D02*
X0193176Y0122220D01*
X0194235Y0120621D02*
X0198419Y0120621D01*
X0198419Y0119023D02*
X0194995Y0119023D01*
X0195423Y0117424D02*
X0198419Y0117424D01*
X0198419Y0115826D02*
X0195554Y0115826D01*
X0195554Y0114227D02*
X0198466Y0114227D01*
X0200065Y0112629D02*
X0195127Y0112629D01*
X0194520Y0111030D02*
X0201663Y0111030D01*
X0203176Y0112629D02*
X0274186Y0112629D01*
X0274189Y0112616D02*
X0274586Y0111482D01*
X0275106Y0110401D01*
X0275745Y0109384D01*
X0276494Y0108445D01*
X0276840Y0108099D01*
X0207706Y0108099D01*
X0200619Y0115186D01*
X0200619Y0133802D01*
X0200903Y0133445D01*
X0201752Y0132596D01*
X0202691Y0131848D01*
X0203708Y0131209D01*
X0204789Y0130688D01*
X0205923Y0130291D01*
X0207093Y0130024D01*
X0208087Y0129912D01*
X0208087Y0139779D01*
X0209687Y0139779D01*
X0209687Y0139780D02*
X0209687Y0141380D01*
X0208087Y0141380D01*
X0208087Y0151013D01*
X0208493Y0151013D01*
X0213872Y0156391D01*
X0214973Y0156391D01*
X0216035Y0156831D01*
X0216848Y0157644D01*
X0217287Y0158706D01*
X0217287Y0159855D01*
X0216848Y0160917D01*
X0216035Y0161729D01*
X0215186Y0162081D01*
X0215186Y0164644D01*
X0215912Y0163918D01*
X0216973Y0163478D01*
X0218123Y0163478D01*
X0219184Y0163918D01*
X0219997Y0164730D01*
X0220023Y0164792D01*
X0266761Y0164792D01*
X0266761Y0128965D01*
X0271879Y0128178D01*
X0288669Y0127567D01*
X0308109Y0108128D01*
X0297863Y0108887D01*
X0297076Y0108099D01*
X0292114Y0108099D01*
X0292460Y0108445D01*
X0293209Y0109384D01*
X0293848Y0110401D01*
X0294369Y0111482D01*
X0294765Y0112616D01*
X0295032Y0113786D01*
X0295144Y0114780D01*
X0285277Y0114780D01*
X0285277Y0116380D01*
X0283677Y0116380D01*
X0283677Y0126247D01*
X0282684Y0126135D01*
X0281513Y0125868D01*
X0280380Y0125471D01*
X0279298Y0124950D01*
X0278282Y0124311D01*
X0277343Y0123563D01*
X0276494Y0122714D01*
X0275745Y0121775D01*
X0275106Y0120759D01*
X0274586Y0119677D01*
X0274189Y0118543D01*
X0273922Y0117373D01*
X0273810Y0116380D01*
X0283677Y0116380D01*
X0283677Y0114780D01*
X0273810Y0114780D01*
X0273922Y0113786D01*
X0274189Y0112616D01*
X0273872Y0114227D02*
X0201577Y0114227D01*
X0200619Y0115826D02*
X0283677Y0115826D01*
X0283677Y0117424D02*
X0285277Y0117424D01*
X0285277Y0116380D02*
X0285277Y0126247D01*
X0286271Y0126135D01*
X0287441Y0125868D01*
X0288574Y0125471D01*
X0289656Y0124950D01*
X0290673Y0124311D01*
X0291611Y0123563D01*
X0292460Y0122714D01*
X0293209Y0121775D01*
X0293848Y0120759D01*
X0294369Y0119677D01*
X0294765Y0118543D01*
X0295032Y0117373D01*
X0295144Y0116380D01*
X0285277Y0116380D01*
X0285277Y0115826D02*
X0300411Y0115826D01*
X0301924Y0117424D02*
X0349524Y0117424D01*
X0349512Y0117373D02*
X0349400Y0116380D01*
X0359268Y0116380D01*
X0359268Y0126247D01*
X0358274Y0126135D01*
X0357104Y0125868D01*
X0355970Y0125471D01*
X0354889Y0124950D01*
X0353872Y0124311D01*
X0352933Y0123563D01*
X0352084Y0122714D01*
X0351336Y0121775D01*
X0350697Y0120759D01*
X0350176Y0119677D01*
X0349780Y0118543D01*
X0349512Y0117373D01*
X0349947Y0119023D02*
X0300325Y0119023D01*
X0298812Y0117424D02*
X0295021Y0117424D01*
X0294598Y0119023D02*
X0297214Y0119023D01*
X0298727Y0120621D02*
X0350631Y0120621D01*
X0351691Y0122220D02*
X0297128Y0122220D01*
X0295615Y0120621D02*
X0293914Y0120621D01*
X0294017Y0122220D02*
X0292854Y0122220D01*
X0292418Y0123819D02*
X0291291Y0123819D01*
X0290820Y0125417D02*
X0288687Y0125417D01*
X0289221Y0127016D02*
X0200619Y0127016D01*
X0200619Y0128614D02*
X0269044Y0128614D01*
X0269123Y0131328D02*
X0269123Y0173847D01*
X0275028Y0179753D01*
X0333296Y0179753D01*
X0373060Y0139989D01*
X0373060Y0111731D01*
X0371552Y0111731D01*
X0369712Y0110968D01*
X0369959Y0111482D01*
X0370356Y0112616D01*
X0370623Y0113786D01*
X0370735Y0114780D01*
X0360868Y0114780D01*
X0360868Y0116380D01*
X0359268Y0116380D01*
X0359268Y0114780D01*
X0349400Y0114780D01*
X0349512Y0113786D01*
X0349780Y0112616D01*
X0350176Y0111482D01*
X0350697Y0110401D01*
X0351336Y0109384D01*
X0352084Y0108445D01*
X0352824Y0107706D01*
X0311643Y0107706D01*
X0288632Y0130716D01*
X0289656Y0131209D01*
X0290673Y0131848D01*
X0291611Y0132596D01*
X0292460Y0133445D01*
X0293209Y0134384D01*
X0293848Y0135401D01*
X0294369Y0136482D01*
X0294765Y0137616D01*
X0295032Y0138786D01*
X0295144Y0139780D01*
X0285277Y0139780D01*
X0285277Y0141380D01*
X0283677Y0141380D01*
X0283677Y0151247D01*
X0282684Y0151135D01*
X0281513Y0150868D01*
X0280380Y0150471D01*
X0279298Y0149950D01*
X0278282Y0149311D01*
X0277343Y0148563D01*
X0276494Y0147714D01*
X0275745Y0146775D01*
X0275106Y0145759D01*
X0274586Y0144677D01*
X0274189Y0143543D01*
X0273922Y0142373D01*
X0273810Y0141380D01*
X0283677Y0141380D01*
X0283677Y0139780D01*
X0273810Y0139780D01*
X0273922Y0138786D01*
X0274189Y0137616D01*
X0274586Y0136482D01*
X0275106Y0135401D01*
X0275745Y0134384D01*
X0276494Y0133445D01*
X0277343Y0132596D01*
X0278282Y0131848D01*
X0279298Y0131209D01*
X0279491Y0131116D01*
X0269123Y0131328D01*
X0269123Y0131811D02*
X0278340Y0131811D01*
X0276530Y0133410D02*
X0269123Y0133410D01*
X0269123Y0135008D02*
X0275353Y0135008D01*
X0274542Y0136607D02*
X0269123Y0136607D01*
X0269123Y0138205D02*
X0274054Y0138205D01*
X0273812Y0141402D02*
X0269123Y0141402D01*
X0269123Y0139804D02*
X0283677Y0139804D01*
X0283677Y0141402D02*
X0285277Y0141402D01*
X0285277Y0141380D02*
X0285277Y0151247D01*
X0286271Y0151135D01*
X0287441Y0150868D01*
X0288574Y0150471D01*
X0289656Y0149950D01*
X0290673Y0149311D01*
X0291611Y0148563D01*
X0292460Y0147714D01*
X0293209Y0146775D01*
X0293848Y0145759D01*
X0294369Y0144677D01*
X0294765Y0143543D01*
X0295032Y0142373D01*
X0295144Y0141380D01*
X0285277Y0141380D01*
X0285277Y0139804D02*
X0373060Y0139804D01*
X0373060Y0138205D02*
X0294900Y0138205D01*
X0294412Y0136607D02*
X0373060Y0136607D01*
X0373060Y0135008D02*
X0293601Y0135008D01*
X0292425Y0133410D02*
X0373060Y0133410D01*
X0373060Y0131811D02*
X0290615Y0131811D01*
X0289135Y0130213D02*
X0373060Y0130213D01*
X0373060Y0128614D02*
X0290734Y0128614D01*
X0292333Y0127016D02*
X0373060Y0127016D01*
X0373060Y0125417D02*
X0364277Y0125417D01*
X0364165Y0125471D02*
X0363032Y0125868D01*
X0361861Y0126135D01*
X0360868Y0126247D01*
X0360868Y0116380D01*
X0370735Y0116380D01*
X0370623Y0117373D01*
X0370356Y0118543D01*
X0369959Y0119677D01*
X0369438Y0120759D01*
X0368800Y0121775D01*
X0368051Y0122714D01*
X0367202Y0123563D01*
X0366263Y0124311D01*
X0365247Y0124950D01*
X0364165Y0125471D01*
X0366881Y0123819D02*
X0373060Y0123819D01*
X0373060Y0122220D02*
X0368445Y0122220D01*
X0369504Y0120621D02*
X0373060Y0120621D01*
X0373060Y0119023D02*
X0370188Y0119023D01*
X0370611Y0117424D02*
X0373060Y0117424D01*
X0373060Y0115826D02*
X0360868Y0115826D01*
X0360868Y0117424D02*
X0359268Y0117424D01*
X0359268Y0115826D02*
X0303522Y0115826D01*
X0302009Y0114227D02*
X0295082Y0114227D01*
X0294768Y0112629D02*
X0303608Y0112629D01*
X0305121Y0114227D02*
X0349463Y0114227D01*
X0349776Y0112629D02*
X0306719Y0112629D01*
X0305206Y0111030D02*
X0294151Y0111030D01*
X0293239Y0109432D02*
X0306805Y0109432D01*
X0308318Y0111030D02*
X0350394Y0111030D01*
X0351306Y0109432D02*
X0309916Y0109432D01*
X0311515Y0107833D02*
X0352696Y0107833D01*
X0349037Y0100613D02*
X0346689Y0100613D01*
X0344521Y0099715D01*
X0342861Y0098055D01*
X0341963Y0095887D01*
X0341963Y0093540D01*
X0342861Y0091371D01*
X0344521Y0089712D01*
X0346689Y0088813D01*
X0349037Y0088813D01*
X0351205Y0089712D01*
X0352865Y0091371D01*
X0353763Y0093540D01*
X0353763Y0095887D01*
X0352865Y0098055D01*
X0351205Y0099715D01*
X0349037Y0100613D01*
X0350902Y0099841D02*
X0367066Y0099841D01*
X0367066Y0101439D02*
X0163434Y0101439D01*
X0161835Y0099841D02*
X0344824Y0099841D01*
X0343048Y0098242D02*
X0326694Y0098242D01*
X0326008Y0098928D02*
X0327668Y0097268D01*
X0328566Y0095100D01*
X0328566Y0092752D01*
X0327668Y0090584D01*
X0326008Y0088924D01*
X0323840Y0088026D01*
X0321493Y0088026D01*
X0319324Y0088924D01*
X0317664Y0090584D01*
X0316766Y0092752D01*
X0316766Y0095100D01*
X0317664Y0097268D01*
X0319324Y0098928D01*
X0321493Y0099826D01*
X0323840Y0099826D01*
X0326008Y0098928D01*
X0327926Y0096644D02*
X0342276Y0096644D01*
X0341963Y0095045D02*
X0328566Y0095045D01*
X0328566Y0093447D02*
X0342002Y0093447D01*
X0342664Y0091848D02*
X0328192Y0091848D01*
X0327334Y0090250D02*
X0343983Y0090250D01*
X0341403Y0088651D02*
X0355726Y0088651D01*
X0354510Y0087053D02*
X0342783Y0087053D01*
X0343445Y0085454D02*
X0353906Y0085454D01*
X0354037Y0082257D02*
X0343256Y0082257D01*
X0343527Y0083856D02*
X0359368Y0083856D01*
X0360768Y0083856D02*
X0367066Y0083856D01*
X0367066Y0085454D02*
X0366229Y0085454D01*
X0365625Y0087053D02*
X0367066Y0087053D01*
X0367066Y0088651D02*
X0364409Y0088651D01*
X0367066Y0090250D02*
X0361408Y0090250D01*
X0360768Y0090250D02*
X0359368Y0090250D01*
X0358728Y0090250D02*
X0351743Y0090250D01*
X0353062Y0091848D02*
X0367066Y0091848D01*
X0367066Y0093447D02*
X0353724Y0093447D01*
X0353763Y0095045D02*
X0367066Y0095045D01*
X0367066Y0096644D02*
X0353449Y0096644D01*
X0352678Y0098242D02*
X0367066Y0098242D01*
X0367066Y0103038D02*
X0165032Y0103038D01*
X0166631Y0104636D02*
X0170908Y0104636D01*
X0171249Y0104295D02*
X0172311Y0103855D01*
X0173461Y0103855D01*
X0174522Y0104295D01*
X0175335Y0105108D01*
X0175775Y0106169D01*
X0175775Y0107319D01*
X0175335Y0108381D01*
X0174522Y0109193D01*
X0173461Y0109633D01*
X0172311Y0109633D01*
X0171249Y0109193D01*
X0170437Y0108381D01*
X0169997Y0107319D01*
X0169997Y0106169D01*
X0170437Y0105108D01*
X0171249Y0104295D01*
X0169997Y0106235D02*
X0168229Y0106235D01*
X0169828Y0107833D02*
X0170210Y0107833D01*
X0171426Y0109432D02*
X0171825Y0109432D01*
X0173025Y0111030D02*
X0176009Y0111030D01*
X0175402Y0112629D02*
X0173679Y0112629D01*
X0173679Y0114227D02*
X0174975Y0114227D01*
X0174975Y0115826D02*
X0173679Y0115826D01*
X0173679Y0117424D02*
X0175106Y0117424D01*
X0175534Y0119023D02*
X0173679Y0119023D01*
X0173679Y0120621D02*
X0176294Y0120621D01*
X0177353Y0122220D02*
X0173679Y0122220D01*
X0173679Y0123819D02*
X0178955Y0123819D01*
X0182222Y0125417D02*
X0173679Y0125417D01*
X0173946Y0109432D02*
X0176932Y0109432D01*
X0175562Y0107833D02*
X0178459Y0107833D01*
X0180870Y0106235D02*
X0175775Y0106235D01*
X0174864Y0104636D02*
X0367066Y0104636D01*
X0369742Y0111030D02*
X0369862Y0111030D01*
X0370359Y0112629D02*
X0373060Y0112629D01*
X0373060Y0114227D02*
X0370673Y0114227D01*
X0375260Y0114227D02*
X0394625Y0114227D01*
X0394625Y0112629D02*
X0375260Y0112629D01*
X0375260Y0115826D02*
X0394625Y0115826D01*
X0394625Y0117424D02*
X0375260Y0117424D01*
X0375260Y0119023D02*
X0394625Y0119023D01*
X0394625Y0120621D02*
X0375260Y0120621D01*
X0375260Y0122220D02*
X0394625Y0122220D01*
X0394625Y0123819D02*
X0375260Y0123819D01*
X0375260Y0125417D02*
X0394625Y0125417D01*
X0394625Y0127016D02*
X0390477Y0127016D01*
X0389788Y0126326D02*
X0391447Y0127985D01*
X0392346Y0130154D01*
X0392346Y0132501D01*
X0391447Y0134670D01*
X0389788Y0136329D01*
X0387619Y0137228D01*
X0385272Y0137228D01*
X0383104Y0136329D01*
X0381444Y0134670D01*
X0380546Y0132501D01*
X0380546Y0130154D01*
X0381444Y0127985D01*
X0383104Y0126326D01*
X0385272Y0125428D01*
X0387619Y0125428D01*
X0389788Y0126326D01*
X0391708Y0128614D02*
X0394625Y0128614D01*
X0394625Y0130213D02*
X0392346Y0130213D01*
X0392346Y0131811D02*
X0394625Y0131811D01*
X0394625Y0133410D02*
X0391969Y0133410D01*
X0391109Y0135008D02*
X0394625Y0135008D01*
X0394625Y0136607D02*
X0389118Y0136607D01*
X0383773Y0136607D02*
X0375260Y0136607D01*
X0375260Y0138205D02*
X0394625Y0138205D01*
X0394625Y0139804D02*
X0375260Y0139804D01*
X0374758Y0141402D02*
X0394625Y0141402D01*
X0394625Y0143001D02*
X0373159Y0143001D01*
X0371647Y0141402D02*
X0295142Y0141402D01*
X0294889Y0143001D02*
X0370048Y0143001D01*
X0371561Y0144599D02*
X0380185Y0144599D01*
X0380741Y0144042D02*
X0382910Y0143144D01*
X0385257Y0143144D01*
X0387426Y0144042D01*
X0389085Y0145702D01*
X0389983Y0147870D01*
X0389983Y0150218D01*
X0389085Y0152386D01*
X0387426Y0154046D01*
X0385257Y0154944D01*
X0382910Y0154944D01*
X0380741Y0154046D01*
X0379082Y0152386D01*
X0378183Y0150218D01*
X0378183Y0147870D01*
X0379082Y0145702D01*
X0380741Y0144042D01*
X0378876Y0146198D02*
X0369962Y0146198D01*
X0368450Y0144599D02*
X0294396Y0144599D01*
X0293572Y0146198D02*
X0366851Y0146198D01*
X0368364Y0147796D02*
X0378214Y0147796D01*
X0378183Y0149395D02*
X0366765Y0149395D01*
X0365253Y0147796D02*
X0292378Y0147796D01*
X0290540Y0149395D02*
X0363654Y0149395D01*
X0365167Y0150993D02*
X0378505Y0150993D01*
X0379287Y0152592D02*
X0363568Y0152592D01*
X0362056Y0150993D02*
X0286891Y0150993D01*
X0285277Y0150993D02*
X0283677Y0150993D01*
X0283677Y0149395D02*
X0285277Y0149395D01*
X0285277Y0147796D02*
X0283677Y0147796D01*
X0283677Y0146198D02*
X0285277Y0146198D01*
X0285277Y0144599D02*
X0283677Y0144599D01*
X0283677Y0143001D02*
X0285277Y0143001D01*
X0282063Y0150993D02*
X0269123Y0150993D01*
X0269123Y0149395D02*
X0278414Y0149395D01*
X0276576Y0147796D02*
X0269123Y0147796D01*
X0269123Y0146198D02*
X0275382Y0146198D01*
X0274558Y0144599D02*
X0269123Y0144599D01*
X0269123Y0143001D02*
X0274065Y0143001D01*
X0266761Y0143001D02*
X0219299Y0143001D01*
X0219175Y0143543D02*
X0218778Y0144677D01*
X0218257Y0145759D01*
X0217618Y0146775D01*
X0216870Y0147714D01*
X0216021Y0148563D01*
X0215082Y0149311D01*
X0214066Y0149950D01*
X0212984Y0150471D01*
X0211851Y0150868D01*
X0210680Y0151135D01*
X0209687Y0151247D01*
X0209687Y0141380D01*
X0219554Y0141380D01*
X0219442Y0142373D01*
X0219175Y0143543D01*
X0218805Y0144599D02*
X0266761Y0144599D01*
X0266761Y0146198D02*
X0217981Y0146198D01*
X0216788Y0147796D02*
X0266761Y0147796D01*
X0266761Y0149395D02*
X0214950Y0149395D01*
X0211301Y0150993D02*
X0266761Y0150993D01*
X0266761Y0152592D02*
X0210072Y0152592D01*
X0209687Y0150993D02*
X0208087Y0150993D01*
X0208087Y0149395D02*
X0209687Y0149395D01*
X0209687Y0147796D02*
X0208087Y0147796D01*
X0208087Y0146198D02*
X0209687Y0146198D01*
X0209687Y0144599D02*
X0208087Y0144599D01*
X0208087Y0143001D02*
X0209687Y0143001D01*
X0209687Y0141402D02*
X0208087Y0141402D01*
X0209687Y0139804D02*
X0266761Y0139804D01*
X0266761Y0141402D02*
X0219551Y0141402D01*
X0219554Y0139780D02*
X0209687Y0139780D01*
X0209687Y0139779D02*
X0209687Y0129912D01*
X0210680Y0130024D01*
X0211851Y0130291D01*
X0212984Y0130688D01*
X0214066Y0131209D01*
X0215082Y0131848D01*
X0216021Y0132596D01*
X0216870Y0133445D01*
X0217618Y0134384D01*
X0218257Y0135401D01*
X0218778Y0136482D01*
X0219175Y0137616D01*
X0219442Y0138786D01*
X0219554Y0139780D01*
X0219309Y0138205D02*
X0266761Y0138205D01*
X0266761Y0136607D02*
X0218822Y0136607D01*
X0218011Y0135008D02*
X0266761Y0135008D01*
X0266761Y0133410D02*
X0216834Y0133410D01*
X0215024Y0131811D02*
X0266761Y0131811D01*
X0266761Y0130213D02*
X0211505Y0130213D01*
X0209687Y0130213D02*
X0208087Y0130213D01*
X0208087Y0131811D02*
X0209687Y0131811D01*
X0209687Y0133410D02*
X0208087Y0133410D01*
X0208087Y0135008D02*
X0209687Y0135008D01*
X0209687Y0136607D02*
X0208087Y0136607D01*
X0208087Y0138205D02*
X0209687Y0138205D01*
X0206268Y0130213D02*
X0200619Y0130213D01*
X0200619Y0131811D02*
X0202749Y0131811D01*
X0200939Y0133410D02*
X0200619Y0133410D01*
X0197631Y0138205D02*
X0119874Y0138205D01*
X0116009Y0138205D02*
X0049132Y0138205D01*
X0049132Y0139804D02*
X0197631Y0139804D01*
X0197631Y0141402D02*
X0049132Y0141402D01*
X0049132Y0143001D02*
X0197631Y0143001D01*
X0197631Y0144599D02*
X0116593Y0144599D01*
X0116548Y0144580D02*
X0117610Y0145020D01*
X0118422Y0145833D01*
X0118862Y0146895D01*
X0118862Y0148044D01*
X0118422Y0149106D01*
X0117610Y0149918D01*
X0116548Y0150358D01*
X0115399Y0150358D01*
X0114337Y0149918D01*
X0113524Y0149106D01*
X0113084Y0148044D01*
X0113084Y0146895D01*
X0113524Y0145833D01*
X0114337Y0145020D01*
X0115399Y0144580D01*
X0116548Y0144580D01*
X0115353Y0144599D02*
X0049132Y0144599D01*
X0049132Y0146198D02*
X0113373Y0146198D01*
X0113084Y0147796D02*
X0049132Y0147796D01*
X0049132Y0149395D02*
X0113813Y0149395D01*
X0114730Y0150993D02*
X0049132Y0150993D01*
X0049132Y0152592D02*
X0112940Y0152592D01*
X0113130Y0152132D02*
X0112691Y0153194D01*
X0112691Y0154343D01*
X0113130Y0155405D01*
X0113943Y0156218D01*
X0115005Y0156657D01*
X0116154Y0156657D01*
X0117216Y0156218D01*
X0118029Y0155405D01*
X0118468Y0154343D01*
X0118468Y0153194D01*
X0118029Y0152132D01*
X0117216Y0151319D01*
X0116154Y0150880D01*
X0115005Y0150880D01*
X0113943Y0151319D01*
X0113130Y0152132D01*
X0112691Y0154190D02*
X0049132Y0154190D01*
X0049132Y0155789D02*
X0113514Y0155789D01*
X0117645Y0155789D02*
X0210158Y0155789D01*
X0211671Y0154190D02*
X0266761Y0154190D01*
X0266761Y0155789D02*
X0213269Y0155789D01*
X0211756Y0157387D02*
X0049132Y0157387D01*
X0049132Y0158986D02*
X0212986Y0158986D01*
X0212986Y0160584D02*
X0049132Y0160584D01*
X0049132Y0162183D02*
X0212986Y0162183D01*
X0212986Y0163781D02*
X0049132Y0163781D01*
X0049132Y0165380D02*
X0212986Y0165380D01*
X0214261Y0166978D02*
X0094054Y0166978D01*
X0093014Y0166547D02*
X0096420Y0167958D01*
X0099028Y0170566D01*
X0100439Y0173972D01*
X0100439Y0177659D01*
X0099028Y0181066D01*
X0096420Y0183673D01*
X0093014Y0185084D01*
X0089326Y0185084D01*
X0085920Y0183673D01*
X0083313Y0181066D01*
X0081902Y0177659D01*
X0081902Y0173972D01*
X0083313Y0170566D01*
X0085920Y0167958D01*
X0089326Y0166547D01*
X0093014Y0166547D01*
X0097039Y0168577D02*
X0215672Y0168577D01*
X0215543Y0168891D02*
X0216930Y0169466D01*
X0217992Y0170528D01*
X0218567Y0171915D01*
X0218567Y0173417D01*
X0217992Y0174804D01*
X0216930Y0175866D01*
X0215543Y0176441D01*
X0214041Y0176441D01*
X0212654Y0175866D01*
X0211592Y0174804D01*
X0211017Y0173417D01*
X0211017Y0171915D01*
X0211592Y0170528D01*
X0212654Y0169466D01*
X0214041Y0168891D01*
X0215543Y0168891D01*
X0217640Y0170175D02*
X0261083Y0170175D01*
X0260722Y0168577D02*
X0219424Y0168577D01*
X0218508Y0171774D02*
X0266923Y0171774D01*
X0266923Y0173372D02*
X0218567Y0173372D01*
X0217826Y0174971D02*
X0237214Y0174971D01*
X0237434Y0174751D02*
X0239603Y0173853D01*
X0241950Y0173853D01*
X0244118Y0174751D01*
X0245778Y0176411D01*
X0246676Y0178579D01*
X0246676Y0180926D01*
X0245778Y0183095D01*
X0244118Y0184755D01*
X0241950Y0185653D01*
X0239603Y0185653D01*
X0237434Y0184755D01*
X0235775Y0183095D01*
X0234876Y0180926D01*
X0234876Y0178579D01*
X0235775Y0176411D01*
X0237434Y0174751D01*
X0235709Y0176569D02*
X0100439Y0176569D01*
X0100439Y0174971D02*
X0211758Y0174971D01*
X0211017Y0173372D02*
X0100190Y0173372D01*
X0099528Y0171774D02*
X0211076Y0171774D01*
X0211945Y0170175D02*
X0098637Y0170175D01*
X0100228Y0178168D02*
X0196991Y0178168D01*
X0197288Y0178045D02*
X0198438Y0178045D01*
X0199499Y0178485D01*
X0200312Y0179297D01*
X0200752Y0180359D01*
X0200752Y0181509D01*
X0200312Y0182570D01*
X0199499Y0183383D01*
X0198438Y0183823D01*
X0197288Y0183823D01*
X0196227Y0183383D01*
X0195414Y0182570D01*
X0194974Y0181509D01*
X0194974Y0180359D01*
X0195414Y0179297D01*
X0196227Y0178485D01*
X0197288Y0178045D01*
X0198735Y0178168D02*
X0218621Y0178168D01*
X0218642Y0178116D02*
X0219455Y0177304D01*
X0220517Y0176864D01*
X0221666Y0176864D01*
X0222728Y0177304D01*
X0223540Y0178116D01*
X0223980Y0179178D01*
X0223980Y0180327D01*
X0223540Y0181389D01*
X0222728Y0182202D01*
X0221666Y0182642D01*
X0220517Y0182642D01*
X0219455Y0182202D01*
X0218642Y0181389D01*
X0218202Y0180327D01*
X0218202Y0179178D01*
X0218642Y0178116D01*
X0218202Y0179766D02*
X0200506Y0179766D01*
X0200752Y0181365D02*
X0218632Y0181365D01*
X0223551Y0181365D02*
X0235058Y0181365D01*
X0234876Y0179766D02*
X0223980Y0179766D01*
X0223562Y0178168D02*
X0235047Y0178168D01*
X0235720Y0182963D02*
X0199919Y0182963D01*
X0195807Y0182963D02*
X0133899Y0182963D01*
X0133751Y0182815D02*
X0134564Y0183628D01*
X0135004Y0184690D01*
X0135004Y0185839D01*
X0134564Y0186901D01*
X0133751Y0187714D01*
X0132690Y0188154D01*
X0131540Y0188154D01*
X0130478Y0187714D01*
X0129666Y0186901D01*
X0129226Y0185839D01*
X0129226Y0184690D01*
X0129666Y0183628D01*
X0130478Y0182815D01*
X0131540Y0182376D01*
X0132690Y0182376D01*
X0133751Y0182815D01*
X0134951Y0184562D02*
X0237242Y0184562D01*
X0244311Y0184562D02*
X0375467Y0184562D01*
X0376728Y0185084D02*
X0373321Y0183673D01*
X0370714Y0181066D01*
X0369303Y0177659D01*
X0369303Y0173972D01*
X0370714Y0170566D01*
X0373321Y0167958D01*
X0376728Y0166547D01*
X0380415Y0166547D01*
X0383822Y0167958D01*
X0386429Y0170566D01*
X0387840Y0173972D01*
X0387840Y0177659D01*
X0386429Y0181066D01*
X0383822Y0183673D01*
X0380415Y0185084D01*
X0376728Y0185084D01*
X0372612Y0182963D02*
X0245833Y0182963D01*
X0246495Y0181365D02*
X0273529Y0181365D01*
X0271931Y0179766D02*
X0246676Y0179766D01*
X0246506Y0178168D02*
X0270332Y0178168D01*
X0271845Y0176569D02*
X0336479Y0176569D01*
X0337992Y0178168D02*
X0369514Y0178168D01*
X0369303Y0176569D02*
X0339591Y0176569D01*
X0338078Y0174971D02*
X0270246Y0174971D01*
X0269123Y0173372D02*
X0339676Y0173372D01*
X0341189Y0174971D02*
X0369303Y0174971D01*
X0369552Y0173372D02*
X0342788Y0173372D01*
X0341275Y0171774D02*
X0269123Y0171774D01*
X0269123Y0170175D02*
X0342873Y0170175D01*
X0344386Y0171774D02*
X0370214Y0171774D01*
X0371104Y0170175D02*
X0345985Y0170175D01*
X0344472Y0168577D02*
X0269123Y0168577D01*
X0269123Y0166978D02*
X0346071Y0166978D01*
X0347583Y0168577D02*
X0372703Y0168577D01*
X0375687Y0166978D02*
X0349182Y0166978D01*
X0347669Y0165380D02*
X0269123Y0165380D01*
X0269123Y0163781D02*
X0349268Y0163781D01*
X0350780Y0165380D02*
X0394625Y0165380D01*
X0394625Y0166978D02*
X0381456Y0166978D01*
X0384440Y0168577D02*
X0394625Y0168577D01*
X0394625Y0170175D02*
X0386039Y0170175D01*
X0386930Y0171774D02*
X0394625Y0171774D01*
X0394625Y0173372D02*
X0387592Y0173372D01*
X0387840Y0174971D02*
X0394625Y0174971D01*
X0394625Y0176569D02*
X0387840Y0176569D01*
X0387630Y0178168D02*
X0394625Y0178168D01*
X0394625Y0179766D02*
X0386967Y0179766D01*
X0386130Y0181365D02*
X0394625Y0181365D01*
X0394625Y0182963D02*
X0384532Y0182963D01*
X0381676Y0184562D02*
X0394625Y0184562D01*
X0394625Y0186160D02*
X0141327Y0186160D01*
X0141257Y0185990D02*
X0141697Y0187052D01*
X0141697Y0187970D01*
X0147821Y0194094D01*
X0148876Y0195149D01*
X0148876Y0238491D01*
X0149525Y0239140D01*
X0149655Y0239454D01*
X0150133Y0238976D01*
X0153910Y0238976D01*
X0154559Y0238327D01*
X0155621Y0237887D01*
X0156770Y0237887D01*
X0157832Y0238327D01*
X0158645Y0239140D01*
X0159085Y0240202D01*
X0159085Y0241351D01*
X0158645Y0242413D01*
X0157832Y0243226D01*
X0156770Y0243665D01*
X0155621Y0243665D01*
X0154559Y0243226D01*
X0153910Y0242576D01*
X0151624Y0242576D01*
X0148935Y0245265D01*
X0145216Y0245265D01*
X0144162Y0244211D01*
X0143641Y0243690D01*
X0142587Y0242636D01*
X0142587Y0228990D01*
X0133639Y0220043D01*
X0132721Y0220043D01*
X0131660Y0219603D01*
X0130847Y0218791D01*
X0130407Y0217729D01*
X0130407Y0216580D01*
X0130847Y0215518D01*
X0131660Y0214705D01*
X0132721Y0214265D01*
X0133871Y0214265D01*
X0134933Y0214705D01*
X0135745Y0215518D01*
X0136185Y0216580D01*
X0136185Y0217498D01*
X0145132Y0226445D01*
X0145276Y0226588D01*
X0145276Y0199696D01*
X0145194Y0199893D01*
X0144381Y0200706D01*
X0143320Y0201146D01*
X0142170Y0201146D01*
X0141108Y0200706D01*
X0140296Y0199893D01*
X0139856Y0198831D01*
X0139856Y0197682D01*
X0140296Y0196620D01*
X0141108Y0195808D01*
X0142170Y0195368D01*
X0143320Y0195368D01*
X0144381Y0195808D01*
X0145194Y0196620D01*
X0145276Y0196817D01*
X0145276Y0196640D01*
X0139151Y0190516D01*
X0138233Y0190516D01*
X0137171Y0190076D01*
X0136359Y0189263D01*
X0135919Y0188201D01*
X0135919Y0187052D01*
X0136359Y0185990D01*
X0137171Y0185178D01*
X0138233Y0184738D01*
X0139383Y0184738D01*
X0140444Y0185178D01*
X0141257Y0185990D01*
X0141697Y0187759D02*
X0394625Y0187759D01*
X0394625Y0189357D02*
X0143084Y0189357D01*
X0144683Y0190956D02*
X0394625Y0190956D01*
X0394625Y0192554D02*
X0160026Y0192554D01*
X0159736Y0192264D02*
X0160548Y0193077D01*
X0160988Y0194139D01*
X0160988Y0195288D01*
X0160548Y0196350D01*
X0159736Y0197163D01*
X0158674Y0197602D01*
X0157525Y0197602D01*
X0156463Y0197163D01*
X0155650Y0196350D01*
X0155210Y0195288D01*
X0155210Y0194139D01*
X0155650Y0193077D01*
X0156463Y0192264D01*
X0157525Y0191824D01*
X0158674Y0191824D01*
X0159736Y0192264D01*
X0160988Y0194153D02*
X0394625Y0194153D01*
X0394625Y0195752D02*
X0382075Y0195752D01*
X0382701Y0196011D02*
X0384361Y0197671D01*
X0385259Y0199839D01*
X0385259Y0202186D01*
X0384361Y0204355D01*
X0382701Y0206014D01*
X0380533Y0206913D01*
X0378185Y0206913D01*
X0376017Y0206014D01*
X0374357Y0204355D01*
X0373459Y0202186D01*
X0373459Y0199839D01*
X0374357Y0197671D01*
X0376017Y0196011D01*
X0378185Y0195113D01*
X0380533Y0195113D01*
X0382701Y0196011D01*
X0384040Y0197350D02*
X0394625Y0197350D01*
X0394625Y0198949D02*
X0384890Y0198949D01*
X0385259Y0200547D02*
X0394625Y0200547D01*
X0394625Y0202146D02*
X0385259Y0202146D01*
X0384614Y0203744D02*
X0394625Y0203744D01*
X0394625Y0205343D02*
X0383373Y0205343D01*
X0376643Y0195752D02*
X0160796Y0195752D01*
X0159283Y0197350D02*
X0163654Y0197350D01*
X0164206Y0196798D02*
X0166374Y0195900D01*
X0168722Y0195900D01*
X0170890Y0196798D01*
X0172550Y0198458D01*
X0173448Y0200626D01*
X0173448Y0202974D01*
X0172550Y0205142D01*
X0170890Y0206802D01*
X0168722Y0207700D01*
X0166374Y0207700D01*
X0164206Y0206802D01*
X0162546Y0205142D01*
X0161648Y0202974D01*
X0161648Y0200626D01*
X0162546Y0198458D01*
X0164206Y0196798D01*
X0162343Y0198949D02*
X0148876Y0198949D01*
X0148876Y0200547D02*
X0161681Y0200547D01*
X0161648Y0202146D02*
X0148876Y0202146D01*
X0148876Y0203744D02*
X0161967Y0203744D01*
X0162747Y0205343D02*
X0148876Y0205343D01*
X0148876Y0206941D02*
X0164542Y0206941D01*
X0166374Y0210861D02*
X0168722Y0210861D01*
X0170890Y0211759D01*
X0172550Y0213419D01*
X0173448Y0215587D01*
X0173448Y0217934D01*
X0172550Y0220103D01*
X0170890Y0221762D01*
X0168722Y0222661D01*
X0166374Y0222661D01*
X0164206Y0221762D01*
X0162546Y0220103D01*
X0161648Y0217934D01*
X0161648Y0215587D01*
X0162546Y0213419D01*
X0164206Y0211759D01*
X0166374Y0210861D01*
X0164260Y0211737D02*
X0148876Y0211737D01*
X0148876Y0213335D02*
X0162630Y0213335D01*
X0161919Y0214934D02*
X0148876Y0214934D01*
X0148876Y0216532D02*
X0161648Y0216532D01*
X0161729Y0218131D02*
X0148876Y0218131D01*
X0148876Y0219729D02*
X0162392Y0219729D01*
X0163771Y0221328D02*
X0148876Y0221328D01*
X0148876Y0222926D02*
X0172324Y0222926D01*
X0172604Y0222646D02*
X0173666Y0222206D01*
X0174816Y0222206D01*
X0174904Y0222243D01*
X0174502Y0221272D01*
X0174502Y0220123D01*
X0174941Y0219061D01*
X0175754Y0218248D01*
X0176816Y0217809D01*
X0177965Y0217809D01*
X0179027Y0218248D01*
X0179840Y0219061D01*
X0180280Y0220123D01*
X0180280Y0221272D01*
X0179840Y0222334D01*
X0179027Y0223147D01*
X0177965Y0223587D01*
X0176816Y0223587D01*
X0176728Y0223550D01*
X0177130Y0224521D01*
X0177130Y0225670D01*
X0176690Y0226732D01*
X0175877Y0227544D01*
X0174816Y0227984D01*
X0173666Y0227984D01*
X0172604Y0227544D01*
X0171792Y0226732D01*
X0171352Y0225670D01*
X0171352Y0224521D01*
X0171792Y0223459D01*
X0172604Y0222646D01*
X0171325Y0221328D02*
X0174525Y0221328D01*
X0174665Y0219729D02*
X0172705Y0219729D01*
X0173367Y0218131D02*
X0176038Y0218131D01*
X0178743Y0218131D02*
X0187239Y0218131D01*
X0187469Y0218361D02*
X0182065Y0212957D01*
X0181147Y0212957D01*
X0180085Y0212517D01*
X0179272Y0211704D01*
X0178832Y0210642D01*
X0178832Y0209493D01*
X0179272Y0208431D01*
X0180085Y0207619D01*
X0181147Y0207179D01*
X0182296Y0207179D01*
X0183358Y0207619D01*
X0184170Y0208431D01*
X0184610Y0209493D01*
X0184610Y0210411D01*
X0190014Y0215815D01*
X0193423Y0215815D01*
X0199396Y0221788D01*
X0200450Y0222842D01*
X0200450Y0243215D01*
X0201100Y0243864D01*
X0201539Y0244926D01*
X0201539Y0246075D01*
X0201100Y0247137D01*
X0200287Y0247950D01*
X0199225Y0248390D01*
X0198076Y0248390D01*
X0197014Y0247950D01*
X0196201Y0247137D01*
X0195761Y0246075D01*
X0195761Y0244926D01*
X0196201Y0243864D01*
X0196850Y0243215D01*
X0196850Y0224333D01*
X0191932Y0219415D01*
X0188523Y0219415D01*
X0187469Y0218361D01*
X0185640Y0216532D02*
X0173448Y0216532D01*
X0173177Y0214934D02*
X0184042Y0214934D01*
X0182443Y0213335D02*
X0172466Y0213335D01*
X0170836Y0211737D02*
X0179305Y0211737D01*
X0178832Y0210138D02*
X0148876Y0210138D01*
X0148876Y0208540D02*
X0179227Y0208540D01*
X0184215Y0208540D02*
X0210699Y0208540D01*
X0210635Y0208604D02*
X0211533Y0207705D01*
X0210635Y0206807D01*
X0210030Y0205347D01*
X0210030Y0203765D01*
X0210635Y0202304D01*
X0211753Y0201186D01*
X0213214Y0200581D01*
X0214795Y0200581D01*
X0216256Y0201186D01*
X0217374Y0202304D01*
X0217980Y0203765D01*
X0217980Y0205347D01*
X0217374Y0206807D01*
X0216476Y0207705D01*
X0217374Y0208604D01*
X0217980Y0210064D01*
X0217980Y0211646D01*
X0217374Y0213107D01*
X0216256Y0214225D01*
X0214795Y0214830D01*
X0213214Y0214830D01*
X0211753Y0214225D01*
X0210635Y0213107D01*
X0210030Y0211646D01*
X0210030Y0210064D01*
X0210635Y0208604D01*
X0210030Y0210138D02*
X0184610Y0210138D01*
X0185936Y0211737D02*
X0210068Y0211737D01*
X0210864Y0213335D02*
X0187534Y0213335D01*
X0189133Y0214934D02*
X0244773Y0214934D01*
X0244580Y0215399D02*
X0245020Y0214337D01*
X0245833Y0213524D01*
X0246895Y0213084D01*
X0248044Y0213084D01*
X0249106Y0213524D01*
X0249918Y0214337D01*
X0250358Y0215399D01*
X0250358Y0216548D01*
X0249918Y0217610D01*
X0249106Y0218422D01*
X0248044Y0218862D01*
X0246895Y0218862D01*
X0245833Y0218422D01*
X0245020Y0217610D01*
X0244580Y0216548D01*
X0244580Y0215399D01*
X0244580Y0216532D02*
X0194140Y0216532D01*
X0195739Y0218131D02*
X0245541Y0218131D01*
X0249397Y0218131D02*
X0363868Y0218131D01*
X0363617Y0218737D02*
X0364515Y0216568D01*
X0366174Y0214908D01*
X0368343Y0214010D01*
X0370690Y0214010D01*
X0372859Y0214908D01*
X0374518Y0216568D01*
X0375417Y0218737D01*
X0375417Y0221084D01*
X0374518Y0223252D01*
X0372859Y0224912D01*
X0370690Y0225810D01*
X0368343Y0225810D01*
X0366174Y0224912D01*
X0364515Y0223252D01*
X0363617Y0221084D01*
X0363617Y0218737D01*
X0363617Y0219729D02*
X0197337Y0219729D01*
X0198936Y0221328D02*
X0363718Y0221328D01*
X0364380Y0222926D02*
X0200450Y0222926D01*
X0200450Y0224525D02*
X0365787Y0224525D01*
X0364551Y0216532D02*
X0250358Y0216532D01*
X0250166Y0214934D02*
X0366149Y0214934D01*
X0359894Y0211138D02*
X0358776Y0212256D01*
X0357315Y0212861D01*
X0355734Y0212861D01*
X0354273Y0212256D01*
X0353155Y0211138D01*
X0352550Y0209677D01*
X0352550Y0208096D01*
X0353155Y0206635D01*
X0354053Y0205737D01*
X0353155Y0204839D01*
X0352550Y0203378D01*
X0352550Y0201797D01*
X0353155Y0200336D01*
X0354273Y0199218D01*
X0355734Y0198613D01*
X0357315Y0198613D01*
X0358776Y0199218D01*
X0359894Y0200336D01*
X0360499Y0201797D01*
X0360499Y0203378D01*
X0359894Y0204839D01*
X0358996Y0205737D01*
X0359894Y0206635D01*
X0360499Y0208096D01*
X0360499Y0209677D01*
X0359894Y0211138D01*
X0359296Y0211737D02*
X0394625Y0211737D01*
X0394625Y0213335D02*
X0248650Y0213335D01*
X0246289Y0213335D02*
X0217146Y0213335D01*
X0217942Y0211737D02*
X0254501Y0211737D01*
X0254469Y0211704D02*
X0254029Y0210642D01*
X0254029Y0209493D01*
X0254469Y0208431D01*
X0255282Y0207619D01*
X0256343Y0207179D01*
X0257493Y0207179D01*
X0258555Y0207619D01*
X0259367Y0208431D01*
X0259807Y0209493D01*
X0259807Y0210642D01*
X0259367Y0211704D01*
X0258555Y0212517D01*
X0257493Y0212957D01*
X0256343Y0212957D01*
X0255282Y0212517D01*
X0254469Y0211704D01*
X0254029Y0210138D02*
X0217980Y0210138D01*
X0217310Y0208540D02*
X0254424Y0208540D01*
X0259412Y0208540D02*
X0352550Y0208540D01*
X0352741Y0210138D02*
X0259807Y0210138D01*
X0259335Y0211737D02*
X0353753Y0211737D01*
X0353028Y0206941D02*
X0217241Y0206941D01*
X0217980Y0205343D02*
X0353658Y0205343D01*
X0352701Y0203744D02*
X0217971Y0203744D01*
X0217216Y0202146D02*
X0352550Y0202146D01*
X0353067Y0200547D02*
X0173415Y0200547D01*
X0173448Y0202146D02*
X0210794Y0202146D01*
X0210039Y0203744D02*
X0173129Y0203744D01*
X0172349Y0205343D02*
X0210030Y0205343D01*
X0210769Y0206941D02*
X0170554Y0206941D01*
X0172753Y0198949D02*
X0354923Y0198949D01*
X0358126Y0198949D02*
X0373828Y0198949D01*
X0373459Y0200547D02*
X0359982Y0200547D01*
X0360499Y0202146D02*
X0373459Y0202146D01*
X0374104Y0203744D02*
X0360348Y0203744D01*
X0359390Y0205343D02*
X0375345Y0205343D01*
X0374678Y0197350D02*
X0171442Y0197350D01*
X0156915Y0197350D02*
X0148876Y0197350D01*
X0148876Y0195752D02*
X0155402Y0195752D01*
X0155210Y0194153D02*
X0147880Y0194153D01*
X0146281Y0192554D02*
X0156172Y0192554D01*
X0144387Y0195752D02*
X0144246Y0195752D01*
X0142789Y0194153D02*
X0132824Y0194153D01*
X0132570Y0194407D02*
X0131509Y0194846D01*
X0130359Y0194846D01*
X0129297Y0194407D01*
X0128485Y0193594D01*
X0128045Y0192532D01*
X0128045Y0191383D01*
X0128485Y0190321D01*
X0129297Y0189508D01*
X0130359Y0189069D01*
X0131509Y0189069D01*
X0132570Y0189508D01*
X0133383Y0190321D01*
X0133823Y0191383D01*
X0133823Y0192532D01*
X0133383Y0193594D01*
X0132570Y0194407D01*
X0133814Y0192554D02*
X0141190Y0192554D01*
X0139591Y0190956D02*
X0133646Y0190956D01*
X0132206Y0189357D02*
X0136453Y0189357D01*
X0135919Y0187759D02*
X0133642Y0187759D01*
X0134871Y0186160D02*
X0136288Y0186160D01*
X0130588Y0187759D02*
X0081215Y0187759D01*
X0080996Y0187540D02*
X0081808Y0188352D01*
X0082248Y0189414D01*
X0082248Y0190564D01*
X0081808Y0191625D01*
X0080996Y0192438D01*
X0079934Y0192878D01*
X0078784Y0192878D01*
X0077723Y0192438D01*
X0076910Y0191625D01*
X0076603Y0190885D01*
X0076296Y0191625D01*
X0075484Y0192438D01*
X0074422Y0192878D01*
X0073273Y0192878D01*
X0072211Y0192438D01*
X0071398Y0191625D01*
X0070958Y0190564D01*
X0070958Y0189414D01*
X0071398Y0188352D01*
X0072211Y0187540D01*
X0072951Y0187233D01*
X0072211Y0186926D01*
X0071398Y0186114D01*
X0070958Y0185052D01*
X0070958Y0183902D01*
X0071398Y0182841D01*
X0072211Y0182028D01*
X0072951Y0181721D01*
X0072211Y0181415D01*
X0071398Y0180602D01*
X0070958Y0179540D01*
X0070958Y0178391D01*
X0071398Y0177329D01*
X0072211Y0176516D01*
X0073273Y0176076D01*
X0074422Y0176076D01*
X0075484Y0176516D01*
X0076296Y0177329D01*
X0076736Y0178391D01*
X0076736Y0179540D01*
X0076296Y0180602D01*
X0075484Y0181415D01*
X0074743Y0181721D01*
X0075484Y0182028D01*
X0076296Y0182841D01*
X0076736Y0183902D01*
X0076736Y0185052D01*
X0076296Y0186114D01*
X0075484Y0186926D01*
X0074743Y0187233D01*
X0075484Y0187540D01*
X0076296Y0188352D01*
X0076603Y0189093D01*
X0076910Y0188352D01*
X0077723Y0187540D01*
X0078784Y0187100D01*
X0079934Y0187100D01*
X0080996Y0187540D01*
X0082224Y0189357D02*
X0129662Y0189357D01*
X0128222Y0190956D02*
X0082086Y0190956D01*
X0080715Y0192554D02*
X0102382Y0192554D01*
X0102132Y0192658D02*
X0103194Y0192218D01*
X0104343Y0192218D01*
X0105405Y0192658D01*
X0105737Y0192990D01*
X0106069Y0192658D01*
X0107131Y0192218D01*
X0108280Y0192218D01*
X0109342Y0192658D01*
X0109674Y0192990D01*
X0110006Y0192658D01*
X0111068Y0192218D01*
X0112217Y0192218D01*
X0113279Y0192658D01*
X0114092Y0193471D01*
X0114531Y0194532D01*
X0114531Y0195682D01*
X0114092Y0196744D01*
X0113760Y0197076D01*
X0114092Y0197408D01*
X0114531Y0198469D01*
X0114531Y0199619D01*
X0114092Y0200681D01*
X0113279Y0201493D01*
X0112217Y0201933D01*
X0111068Y0201933D01*
X0110006Y0201493D01*
X0109674Y0201161D01*
X0109342Y0201493D01*
X0108280Y0201933D01*
X0107131Y0201933D01*
X0106069Y0201493D01*
X0105737Y0201161D01*
X0105405Y0201493D01*
X0104343Y0201933D01*
X0103194Y0201933D01*
X0102132Y0201493D01*
X0101319Y0200681D01*
X0100880Y0199619D01*
X0100880Y0198469D01*
X0101319Y0197408D01*
X0101651Y0197076D01*
X0101319Y0196744D01*
X0100880Y0195682D01*
X0100880Y0194532D01*
X0101319Y0193471D01*
X0102132Y0192658D01*
X0101037Y0194153D02*
X0049132Y0194153D01*
X0049132Y0192554D02*
X0072492Y0192554D01*
X0071121Y0190956D02*
X0049132Y0190956D01*
X0049132Y0189357D02*
X0070982Y0189357D01*
X0071992Y0187759D02*
X0049132Y0187759D01*
X0049132Y0186160D02*
X0071445Y0186160D01*
X0070958Y0184562D02*
X0049132Y0184562D01*
X0049132Y0182963D02*
X0071347Y0182963D01*
X0072161Y0181365D02*
X0049132Y0181365D01*
X0049132Y0179766D02*
X0071052Y0179766D01*
X0071051Y0178168D02*
X0049132Y0178168D01*
X0049132Y0176569D02*
X0072158Y0176569D01*
X0075537Y0176569D02*
X0081902Y0176569D01*
X0081902Y0174971D02*
X0049132Y0174971D01*
X0049132Y0173372D02*
X0082150Y0173372D01*
X0082812Y0171774D02*
X0049132Y0171774D01*
X0049132Y0170175D02*
X0083703Y0170175D01*
X0085301Y0168577D02*
X0049132Y0168577D01*
X0049132Y0166978D02*
X0088286Y0166978D01*
X0082112Y0178168D02*
X0076644Y0178168D01*
X0076642Y0179766D02*
X0082774Y0179766D01*
X0083612Y0181365D02*
X0075533Y0181365D01*
X0076347Y0182963D02*
X0085210Y0182963D01*
X0088066Y0184562D02*
X0076736Y0184562D01*
X0076250Y0186160D02*
X0129359Y0186160D01*
X0129279Y0184562D02*
X0094275Y0184562D01*
X0097130Y0182963D02*
X0130330Y0182963D01*
X0128054Y0192554D02*
X0113029Y0192554D01*
X0114374Y0194153D02*
X0129044Y0194153D01*
X0127178Y0199305D02*
X0128240Y0199745D01*
X0129052Y0200557D01*
X0129492Y0201619D01*
X0129492Y0202768D01*
X0129052Y0203830D01*
X0128240Y0204643D01*
X0127178Y0205083D01*
X0126028Y0205083D01*
X0124967Y0204643D01*
X0124154Y0203830D01*
X0123714Y0202768D01*
X0123714Y0201619D01*
X0124154Y0200557D01*
X0124967Y0199745D01*
X0126028Y0199305D01*
X0127178Y0199305D01*
X0129042Y0200547D02*
X0140950Y0200547D01*
X0141383Y0201667D02*
X0142532Y0201667D01*
X0143594Y0202107D01*
X0144407Y0202919D01*
X0144846Y0203981D01*
X0144846Y0205131D01*
X0144407Y0206192D01*
X0143594Y0207005D01*
X0142532Y0207445D01*
X0141383Y0207445D01*
X0140321Y0207005D01*
X0139508Y0206192D01*
X0139069Y0205131D01*
X0139069Y0203981D01*
X0139508Y0202919D01*
X0140321Y0202107D01*
X0141383Y0201667D01*
X0140282Y0202146D02*
X0129492Y0202146D01*
X0129088Y0203744D02*
X0139167Y0203744D01*
X0139156Y0205343D02*
X0049132Y0205343D01*
X0049132Y0206941D02*
X0140257Y0206941D01*
X0140170Y0207179D02*
X0141232Y0207619D01*
X0142044Y0208431D01*
X0142484Y0209493D01*
X0142484Y0210642D01*
X0142044Y0211704D01*
X0141232Y0212517D01*
X0140170Y0212957D01*
X0139021Y0212957D01*
X0137959Y0212517D01*
X0137146Y0211704D01*
X0136706Y0210642D01*
X0136706Y0209493D01*
X0137146Y0208431D01*
X0137959Y0207619D01*
X0139021Y0207179D01*
X0140170Y0207179D01*
X0142089Y0208540D02*
X0145276Y0208540D01*
X0145276Y0210138D02*
X0142484Y0210138D01*
X0142012Y0211737D02*
X0145276Y0211737D01*
X0145276Y0213335D02*
X0062818Y0213335D01*
X0062818Y0212831D02*
X0062818Y0215178D01*
X0061920Y0217347D01*
X0060260Y0219006D01*
X0058092Y0219905D01*
X0055745Y0219905D01*
X0053576Y0219006D01*
X0051916Y0217347D01*
X0051018Y0215178D01*
X0051018Y0212831D01*
X0051916Y0210663D01*
X0053576Y0209003D01*
X0055745Y0208105D01*
X0058092Y0208105D01*
X0060260Y0209003D01*
X0061920Y0210663D01*
X0062818Y0212831D01*
X0062365Y0211737D02*
X0137179Y0211737D01*
X0136706Y0210138D02*
X0061395Y0210138D01*
X0059142Y0208540D02*
X0137101Y0208540D01*
X0135161Y0214934D02*
X0145276Y0214934D01*
X0145276Y0216532D02*
X0136165Y0216532D01*
X0136818Y0218131D02*
X0145276Y0218131D01*
X0145276Y0219729D02*
X0138416Y0219729D01*
X0140015Y0221328D02*
X0145276Y0221328D01*
X0145276Y0222926D02*
X0141614Y0222926D01*
X0143212Y0224525D02*
X0145276Y0224525D01*
X0145276Y0226123D02*
X0144811Y0226123D01*
X0141318Y0227722D02*
X0062300Y0227722D01*
X0061920Y0226804D02*
X0062818Y0228973D01*
X0062818Y0231320D01*
X0061920Y0233489D01*
X0060260Y0235148D01*
X0058092Y0236046D01*
X0055745Y0236046D01*
X0053576Y0235148D01*
X0051916Y0233489D01*
X0051018Y0231320D01*
X0051018Y0228973D01*
X0051916Y0226804D01*
X0053576Y0225145D01*
X0055745Y0224246D01*
X0058092Y0224246D01*
X0060260Y0225145D01*
X0061920Y0226804D01*
X0061239Y0226123D02*
X0139719Y0226123D01*
X0138121Y0224525D02*
X0058763Y0224525D01*
X0055073Y0224525D02*
X0049132Y0224525D01*
X0049132Y0226123D02*
X0052597Y0226123D01*
X0051536Y0227722D02*
X0049132Y0227722D01*
X0049132Y0229320D02*
X0051018Y0229320D01*
X0051018Y0230919D02*
X0049132Y0230919D01*
X0049132Y0232517D02*
X0051514Y0232517D01*
X0052544Y0234116D02*
X0049132Y0234116D01*
X0049132Y0235714D02*
X0054943Y0235714D01*
X0055745Y0238813D02*
X0053576Y0239712D01*
X0051916Y0241371D01*
X0051018Y0243540D01*
X0051018Y0245887D01*
X0051916Y0248055D01*
X0053576Y0249715D01*
X0055745Y0250613D01*
X0058092Y0250613D01*
X0060260Y0249715D01*
X0061920Y0248055D01*
X0062818Y0245887D01*
X0062818Y0243540D01*
X0061920Y0241371D01*
X0060260Y0239712D01*
X0058092Y0238813D01*
X0055745Y0238813D01*
X0055508Y0238911D02*
X0049132Y0238911D01*
X0049132Y0237313D02*
X0142587Y0237313D01*
X0142587Y0238911D02*
X0139357Y0238911D01*
X0139289Y0238746D02*
X0139728Y0239808D01*
X0139728Y0240957D01*
X0139289Y0242019D01*
X0138476Y0242832D01*
X0137414Y0243272D01*
X0136265Y0243272D01*
X0135203Y0242832D01*
X0134390Y0242019D01*
X0133950Y0240957D01*
X0133950Y0239808D01*
X0134390Y0238746D01*
X0135203Y0237934D01*
X0136265Y0237494D01*
X0137414Y0237494D01*
X0138476Y0237934D01*
X0139289Y0238746D01*
X0139728Y0240510D02*
X0142587Y0240510D01*
X0142587Y0242108D02*
X0139199Y0242108D01*
X0134479Y0242108D02*
X0062225Y0242108D01*
X0062818Y0243707D02*
X0096939Y0243707D01*
X0096620Y0243839D02*
X0097682Y0243399D01*
X0098831Y0243399D01*
X0099893Y0243839D01*
X0100706Y0244652D01*
X0101146Y0245714D01*
X0101146Y0246863D01*
X0100706Y0247925D01*
X0099893Y0248737D01*
X0099153Y0249044D01*
X0099893Y0249351D01*
X0100706Y0250164D01*
X0101146Y0251225D01*
X0101146Y0252375D01*
X0100706Y0253436D01*
X0099893Y0254249D01*
X0099153Y0254556D01*
X0099893Y0254863D01*
X0100706Y0255675D01*
X0101146Y0256737D01*
X0101146Y0257886D01*
X0100706Y0258948D01*
X0099893Y0259761D01*
X0098831Y0260201D01*
X0097682Y0260201D01*
X0096620Y0259761D01*
X0095808Y0258948D01*
X0095368Y0257886D01*
X0095368Y0256737D01*
X0095808Y0255675D01*
X0096620Y0254863D01*
X0097361Y0254556D01*
X0096620Y0254249D01*
X0095808Y0253436D01*
X0095368Y0252375D01*
X0095368Y0251225D01*
X0095808Y0250164D01*
X0096620Y0249351D01*
X0097361Y0249044D01*
X0096620Y0248737D01*
X0095808Y0247925D01*
X0095368Y0246863D01*
X0095368Y0245714D01*
X0095808Y0244652D01*
X0096620Y0243839D01*
X0095537Y0245305D02*
X0062818Y0245305D01*
X0062397Y0246904D02*
X0095385Y0246904D01*
X0096385Y0248502D02*
X0061473Y0248502D01*
X0059329Y0250101D02*
X0095870Y0250101D01*
X0095368Y0251699D02*
X0049132Y0251699D01*
X0049132Y0250101D02*
X0054507Y0250101D01*
X0055745Y0251806D02*
X0058092Y0251806D01*
X0060260Y0252704D01*
X0061920Y0254363D01*
X0062818Y0256532D01*
X0062818Y0258879D01*
X0061920Y0261048D01*
X0060260Y0262707D01*
X0058092Y0263605D01*
X0055745Y0263605D01*
X0053576Y0262707D01*
X0051916Y0261048D01*
X0051018Y0258879D01*
X0051018Y0256532D01*
X0051916Y0254363D01*
X0053576Y0252704D01*
X0055745Y0251806D01*
X0052982Y0253298D02*
X0049132Y0253298D01*
X0049132Y0254896D02*
X0051696Y0254896D01*
X0051033Y0256495D02*
X0049132Y0256495D01*
X0049132Y0258093D02*
X0051018Y0258093D01*
X0051355Y0259692D02*
X0049132Y0259692D01*
X0049132Y0261290D02*
X0052159Y0261290D01*
X0054015Y0262889D02*
X0049132Y0262889D01*
X0049132Y0264488D02*
X0101032Y0264488D01*
X0101186Y0264115D02*
X0102304Y0262997D01*
X0103765Y0262392D01*
X0105347Y0262392D01*
X0106807Y0262997D01*
X0107926Y0264115D01*
X0108531Y0265576D01*
X0108531Y0267158D01*
X0107926Y0268618D01*
X0107027Y0269517D01*
X0107926Y0270415D01*
X0108531Y0271875D01*
X0108531Y0273457D01*
X0107926Y0274918D01*
X0106807Y0276036D01*
X0105347Y0276641D01*
X0103765Y0276641D01*
X0102304Y0276036D01*
X0101186Y0274918D01*
X0100581Y0273457D01*
X0100581Y0271875D01*
X0101186Y0270415D01*
X0102084Y0269517D01*
X0101186Y0268618D01*
X0100581Y0267158D01*
X0100581Y0265576D01*
X0101186Y0264115D01*
X0102566Y0262889D02*
X0059822Y0262889D01*
X0061677Y0261290D02*
X0074933Y0261290D01*
X0074941Y0261310D02*
X0074502Y0260249D01*
X0074502Y0259099D01*
X0074941Y0258038D01*
X0075754Y0257225D01*
X0076816Y0256785D01*
X0077965Y0256785D01*
X0079027Y0257225D01*
X0079840Y0258038D01*
X0080280Y0259099D01*
X0080280Y0260249D01*
X0079840Y0261310D01*
X0079027Y0262123D01*
X0077965Y0262563D01*
X0076816Y0262563D01*
X0075754Y0262123D01*
X0074941Y0261310D01*
X0074502Y0259692D02*
X0062481Y0259692D01*
X0062818Y0258093D02*
X0074918Y0258093D01*
X0079863Y0258093D02*
X0095453Y0258093D01*
X0095468Y0256495D02*
X0062803Y0256495D01*
X0062141Y0254896D02*
X0096586Y0254896D01*
X0095750Y0253298D02*
X0060854Y0253298D01*
X0052363Y0248502D02*
X0049132Y0248502D01*
X0049132Y0246904D02*
X0051439Y0246904D01*
X0051018Y0245305D02*
X0049132Y0245305D01*
X0049132Y0243707D02*
X0051018Y0243707D01*
X0051611Y0242108D02*
X0049132Y0242108D01*
X0049132Y0240510D02*
X0052778Y0240510D01*
X0058328Y0238911D02*
X0134322Y0238911D01*
X0133950Y0240510D02*
X0061058Y0240510D01*
X0058894Y0235714D02*
X0142587Y0235714D01*
X0142587Y0234116D02*
X0121341Y0234116D01*
X0121705Y0233751D02*
X0120892Y0234564D01*
X0119831Y0235004D01*
X0118681Y0235004D01*
X0117619Y0234564D01*
X0116807Y0233751D01*
X0116367Y0232690D01*
X0116367Y0231540D01*
X0116807Y0230478D01*
X0117619Y0229666D01*
X0118681Y0229226D01*
X0119831Y0229226D01*
X0120892Y0229666D01*
X0121705Y0230478D01*
X0122145Y0231540D01*
X0122145Y0232690D01*
X0121705Y0233751D01*
X0122145Y0232517D02*
X0142587Y0232517D01*
X0142587Y0230919D02*
X0121887Y0230919D01*
X0120058Y0229320D02*
X0142587Y0229320D01*
X0136522Y0222926D02*
X0049132Y0222926D01*
X0049132Y0221328D02*
X0134924Y0221328D01*
X0131963Y0219729D02*
X0058515Y0219729D01*
X0061136Y0218131D02*
X0130573Y0218131D01*
X0130427Y0216532D02*
X0062257Y0216532D01*
X0062818Y0214934D02*
X0131431Y0214934D01*
X0124118Y0203744D02*
X0049132Y0203744D01*
X0049132Y0202146D02*
X0123714Y0202146D01*
X0124164Y0200547D02*
X0114147Y0200547D01*
X0114531Y0198949D02*
X0139904Y0198949D01*
X0139993Y0197350D02*
X0114034Y0197350D01*
X0114503Y0195752D02*
X0141244Y0195752D01*
X0144540Y0200547D02*
X0145276Y0200547D01*
X0145276Y0202146D02*
X0143633Y0202146D01*
X0144748Y0203744D02*
X0145276Y0203744D01*
X0145276Y0205343D02*
X0144759Y0205343D01*
X0145276Y0206941D02*
X0143658Y0206941D01*
X0148876Y0224525D02*
X0171352Y0224525D01*
X0171540Y0226123D02*
X0148876Y0226123D01*
X0148876Y0227722D02*
X0173033Y0227722D01*
X0175449Y0227722D02*
X0196850Y0227722D01*
X0196850Y0229320D02*
X0154177Y0229320D01*
X0153949Y0229226D02*
X0155011Y0229666D01*
X0155824Y0230478D01*
X0156264Y0231540D01*
X0156264Y0232690D01*
X0155824Y0233751D01*
X0155011Y0234564D01*
X0153949Y0235004D01*
X0152800Y0235004D01*
X0151738Y0234564D01*
X0150926Y0233751D01*
X0150486Y0232690D01*
X0150486Y0231540D01*
X0150926Y0230478D01*
X0151738Y0229666D01*
X0152800Y0229226D01*
X0153949Y0229226D01*
X0152573Y0229320D02*
X0148876Y0229320D01*
X0148876Y0230919D02*
X0150743Y0230919D01*
X0150486Y0232517D02*
X0148876Y0232517D01*
X0148876Y0234116D02*
X0151290Y0234116D01*
X0148876Y0235714D02*
X0158360Y0235714D01*
X0158360Y0235839D02*
X0158360Y0234690D01*
X0158800Y0233628D01*
X0159612Y0232815D01*
X0160674Y0232376D01*
X0161823Y0232376D01*
X0162885Y0232815D01*
X0163698Y0233628D01*
X0164138Y0234690D01*
X0164138Y0235839D01*
X0163698Y0236901D01*
X0162885Y0237714D01*
X0161823Y0238154D01*
X0160674Y0238154D01*
X0159612Y0237714D01*
X0158800Y0236901D01*
X0158360Y0235839D01*
X0159211Y0237313D02*
X0148876Y0237313D01*
X0149296Y0238911D02*
X0153975Y0238911D01*
X0158416Y0238911D02*
X0196850Y0238911D01*
X0196850Y0237313D02*
X0163286Y0237313D01*
X0164138Y0235714D02*
X0196850Y0235714D01*
X0196850Y0234116D02*
X0163900Y0234116D01*
X0162166Y0232517D02*
X0196850Y0232517D01*
X0196850Y0230919D02*
X0156006Y0230919D01*
X0156264Y0232517D02*
X0160332Y0232517D01*
X0158598Y0234116D02*
X0155460Y0234116D01*
X0159085Y0240510D02*
X0196850Y0240510D01*
X0196850Y0242108D02*
X0158771Y0242108D01*
X0150493Y0243707D02*
X0196359Y0243707D01*
X0195761Y0245305D02*
X0100977Y0245305D01*
X0101129Y0246904D02*
X0196105Y0246904D01*
X0201196Y0246904D02*
X0234500Y0246904D01*
X0234390Y0247014D02*
X0235203Y0246201D01*
X0236265Y0245761D01*
X0237414Y0245761D01*
X0238476Y0246201D01*
X0239289Y0247014D01*
X0239728Y0248076D01*
X0239728Y0249225D01*
X0239289Y0250287D01*
X0238476Y0251100D01*
X0237414Y0251539D01*
X0236265Y0251539D01*
X0235203Y0251100D01*
X0234390Y0250287D01*
X0233950Y0249225D01*
X0233950Y0248076D01*
X0234390Y0247014D01*
X0233950Y0248502D02*
X0100128Y0248502D01*
X0100643Y0250101D02*
X0234313Y0250101D01*
X0239366Y0250101D02*
X0394625Y0250101D01*
X0394625Y0251699D02*
X0209722Y0251699D01*
X0209342Y0251319D02*
X0210155Y0252132D01*
X0210594Y0253194D01*
X0210594Y0254343D01*
X0210155Y0255405D01*
X0209342Y0256218D01*
X0208280Y0256657D01*
X0207131Y0256657D01*
X0206069Y0256218D01*
X0205256Y0255405D01*
X0204817Y0254343D01*
X0204817Y0253194D01*
X0205256Y0252132D01*
X0206069Y0251319D01*
X0207131Y0250880D01*
X0208280Y0250880D01*
X0209342Y0251319D01*
X0210594Y0253298D02*
X0394625Y0253298D01*
X0394625Y0254896D02*
X0210365Y0254896D01*
X0208673Y0256495D02*
X0366714Y0256495D01*
X0366962Y0256247D02*
X0369130Y0255349D01*
X0371478Y0255349D01*
X0373646Y0256247D01*
X0375306Y0257907D01*
X0376204Y0260075D01*
X0376204Y0262422D01*
X0375306Y0264591D01*
X0373646Y0266251D01*
X0371478Y0267149D01*
X0369130Y0267149D01*
X0366962Y0266251D01*
X0365302Y0264591D01*
X0364404Y0262422D01*
X0364404Y0260075D01*
X0365302Y0257907D01*
X0366962Y0256247D01*
X0365225Y0258093D02*
X0323564Y0258093D01*
X0323540Y0258038D02*
X0323980Y0259099D01*
X0323980Y0260249D01*
X0323540Y0261310D01*
X0322728Y0262123D01*
X0321666Y0262563D01*
X0320748Y0262563D01*
X0306876Y0276435D01*
X0259654Y0276435D01*
X0259991Y0276772D01*
X0311684Y0276772D01*
X0317809Y0270647D01*
X0317809Y0269729D01*
X0318248Y0268667D01*
X0319061Y0267855D01*
X0320123Y0267415D01*
X0321272Y0267415D01*
X0322334Y0267855D01*
X0323147Y0268667D01*
X0323587Y0269729D01*
X0323587Y0270879D01*
X0323147Y0271940D01*
X0322334Y0272753D01*
X0321272Y0273193D01*
X0320354Y0273193D01*
X0314230Y0279317D01*
X0313176Y0280372D01*
X0259991Y0280372D01*
X0259342Y0281021D01*
X0258280Y0281461D01*
X0257131Y0281461D01*
X0256069Y0281021D01*
X0255256Y0280208D01*
X0254817Y0279146D01*
X0254817Y0278101D01*
X0251933Y0280984D01*
X0251933Y0281509D01*
X0251493Y0282570D01*
X0250681Y0283383D01*
X0249619Y0283823D01*
X0248469Y0283823D01*
X0247408Y0283383D01*
X0246595Y0282570D01*
X0246155Y0281509D01*
X0246155Y0280359D01*
X0246595Y0279297D01*
X0247408Y0278485D01*
X0248469Y0278045D01*
X0249619Y0278045D01*
X0249734Y0278092D01*
X0253937Y0273889D01*
X0254991Y0272835D01*
X0305385Y0272835D01*
X0318202Y0260017D01*
X0318202Y0259099D01*
X0318642Y0258038D01*
X0319455Y0257225D01*
X0320517Y0256785D01*
X0321666Y0256785D01*
X0322728Y0257225D01*
X0323540Y0258038D01*
X0323980Y0259692D02*
X0364563Y0259692D01*
X0364404Y0261290D02*
X0323549Y0261290D01*
X0320422Y0262889D02*
X0364597Y0262889D01*
X0365259Y0264488D02*
X0318823Y0264488D01*
X0317225Y0266086D02*
X0366797Y0266086D01*
X0369130Y0271491D02*
X0371478Y0271491D01*
X0373646Y0272389D01*
X0375306Y0274048D01*
X0376204Y0276217D01*
X0376204Y0278564D01*
X0375306Y0280733D01*
X0373646Y0282392D01*
X0371478Y0283291D01*
X0369130Y0283291D01*
X0366962Y0282392D01*
X0365302Y0280733D01*
X0364404Y0278564D01*
X0364404Y0276217D01*
X0365302Y0274048D01*
X0366962Y0272389D01*
X0369130Y0271491D01*
X0366871Y0272480D02*
X0322607Y0272480D01*
X0323585Y0270882D02*
X0394625Y0270882D01*
X0394625Y0272480D02*
X0389092Y0272480D01*
X0389000Y0272389D02*
X0390660Y0274048D01*
X0391558Y0276217D01*
X0391558Y0278564D01*
X0390660Y0280733D01*
X0389000Y0282392D01*
X0386832Y0283291D01*
X0384485Y0283291D01*
X0382316Y0282392D01*
X0380656Y0280733D01*
X0379758Y0278564D01*
X0379758Y0276217D01*
X0380656Y0274048D01*
X0382316Y0272389D01*
X0384485Y0271491D01*
X0386832Y0271491D01*
X0389000Y0272389D01*
X0390673Y0274079D02*
X0394625Y0274079D01*
X0394625Y0275677D02*
X0391335Y0275677D01*
X0391558Y0277276D02*
X0394625Y0277276D01*
X0394625Y0278874D02*
X0391430Y0278874D01*
X0390768Y0280473D02*
X0394625Y0280473D01*
X0394625Y0282071D02*
X0389322Y0282071D01*
X0394625Y0283670D02*
X0323193Y0283670D01*
X0323193Y0283871D02*
X0322753Y0284933D01*
X0321940Y0285745D01*
X0320879Y0286185D01*
X0319729Y0286185D01*
X0318667Y0285745D01*
X0318018Y0285096D01*
X0261601Y0285096D01*
X0258578Y0288118D01*
X0258626Y0288233D01*
X0258626Y0289383D01*
X0258186Y0290444D01*
X0257373Y0291257D01*
X0256312Y0291697D01*
X0255162Y0291697D01*
X0254101Y0291257D01*
X0253288Y0290444D01*
X0252848Y0289383D01*
X0252848Y0288233D01*
X0253288Y0287171D01*
X0254101Y0286359D01*
X0255162Y0285919D01*
X0255687Y0285919D01*
X0260110Y0281496D01*
X0318018Y0281496D01*
X0318667Y0280847D01*
X0319729Y0280407D01*
X0320879Y0280407D01*
X0321940Y0280847D01*
X0322753Y0281660D01*
X0323193Y0282721D01*
X0323193Y0283871D01*
X0322417Y0285268D02*
X0394625Y0285268D01*
X0394625Y0286867D02*
X0259830Y0286867D01*
X0258626Y0288465D02*
X0366726Y0288465D01*
X0366568Y0288530D02*
X0368737Y0287632D01*
X0371084Y0287632D01*
X0373252Y0288530D01*
X0374912Y0290190D01*
X0375810Y0292359D01*
X0375810Y0294706D01*
X0374912Y0296874D01*
X0373252Y0298534D01*
X0371084Y0299432D01*
X0368737Y0299432D01*
X0366568Y0298534D01*
X0364908Y0296874D01*
X0364010Y0294706D01*
X0364010Y0292359D01*
X0364908Y0290190D01*
X0366568Y0288530D01*
X0365035Y0290064D02*
X0258344Y0290064D01*
X0256395Y0291662D02*
X0364299Y0291662D01*
X0364010Y0293261D02*
X0201176Y0293261D01*
X0201100Y0293077D02*
X0201539Y0294139D01*
X0201539Y0295288D01*
X0201100Y0296350D01*
X0200287Y0297163D01*
X0199225Y0297602D01*
X0198076Y0297602D01*
X0197014Y0297163D01*
X0196201Y0296350D01*
X0195761Y0295288D01*
X0195761Y0294139D01*
X0196201Y0293077D01*
X0197014Y0292264D01*
X0198076Y0291824D01*
X0199225Y0291824D01*
X0200287Y0292264D01*
X0201100Y0293077D01*
X0201539Y0294859D02*
X0364074Y0294859D01*
X0364736Y0296458D02*
X0200992Y0296458D01*
X0196309Y0296458D02*
X0108531Y0296458D01*
X0108531Y0295891D02*
X0107926Y0294430D01*
X0107027Y0293532D01*
X0107926Y0292634D01*
X0108531Y0291173D01*
X0108531Y0289592D01*
X0107926Y0288131D01*
X0106807Y0287013D01*
X0105347Y0286408D01*
X0103765Y0286408D01*
X0102304Y0287013D01*
X0101186Y0288131D01*
X0100581Y0289592D01*
X0100581Y0291173D01*
X0101186Y0292634D01*
X0102084Y0293532D01*
X0101186Y0294430D01*
X0100581Y0295891D01*
X0100581Y0297473D01*
X0101186Y0298933D01*
X0102304Y0300052D01*
X0103765Y0300657D01*
X0105347Y0300657D01*
X0106807Y0300052D01*
X0107926Y0298933D01*
X0108531Y0297473D01*
X0108531Y0295891D01*
X0108103Y0294859D02*
X0195761Y0294859D01*
X0196125Y0293261D02*
X0107299Y0293261D01*
X0108328Y0291662D02*
X0255079Y0291662D01*
X0253130Y0290064D02*
X0108531Y0290064D01*
X0108064Y0288465D02*
X0252848Y0288465D01*
X0253593Y0286867D02*
X0171213Y0286867D01*
X0171572Y0286507D02*
X0170759Y0287320D01*
X0169697Y0287760D01*
X0168548Y0287760D01*
X0167486Y0287320D01*
X0166674Y0286507D01*
X0166234Y0285446D01*
X0166234Y0284296D01*
X0166674Y0283234D01*
X0167486Y0282422D01*
X0168548Y0281982D01*
X0169697Y0281982D01*
X0170759Y0282422D01*
X0171572Y0283234D01*
X0172012Y0284296D01*
X0172012Y0285446D01*
X0171572Y0286507D01*
X0172012Y0285268D02*
X0256337Y0285268D01*
X0257936Y0283670D02*
X0249989Y0283670D01*
X0248100Y0283670D02*
X0171752Y0283670D01*
X0169913Y0282071D02*
X0246388Y0282071D01*
X0246155Y0280473D02*
X0115661Y0280473D01*
X0115666Y0280478D02*
X0116106Y0281540D01*
X0116106Y0282690D01*
X0115666Y0283751D01*
X0114854Y0284564D01*
X0113792Y0285004D01*
X0112643Y0285004D01*
X0111581Y0284564D01*
X0110768Y0283751D01*
X0110328Y0282690D01*
X0110328Y0281540D01*
X0110768Y0280478D01*
X0111581Y0279666D01*
X0112643Y0279226D01*
X0113792Y0279226D01*
X0114854Y0279666D01*
X0115666Y0280478D01*
X0116106Y0282071D02*
X0120942Y0282071D01*
X0121112Y0282001D02*
X0122261Y0282001D01*
X0123323Y0282441D01*
X0124136Y0283253D01*
X0124575Y0284315D01*
X0124575Y0285464D01*
X0124136Y0286526D01*
X0123323Y0287339D01*
X0122261Y0287779D01*
X0121112Y0287779D01*
X0120050Y0287339D01*
X0119237Y0286526D01*
X0118797Y0285464D01*
X0118797Y0284315D01*
X0119237Y0283253D01*
X0120050Y0282441D01*
X0121112Y0282001D01*
X0122431Y0282071D02*
X0168333Y0282071D01*
X0166493Y0283670D02*
X0124308Y0283670D01*
X0124575Y0285268D02*
X0166234Y0285268D01*
X0167033Y0286867D02*
X0123795Y0286867D01*
X0119578Y0286867D02*
X0106454Y0286867D01*
X0102658Y0286867D02*
X0062424Y0286867D01*
X0062424Y0287226D02*
X0061526Y0289394D01*
X0059866Y0291054D01*
X0057698Y0291952D01*
X0055351Y0291952D01*
X0053182Y0291054D01*
X0051523Y0289394D01*
X0050624Y0287226D01*
X0050624Y0284878D01*
X0051523Y0282710D01*
X0053182Y0281050D01*
X0055351Y0280152D01*
X0057698Y0280152D01*
X0059866Y0281050D01*
X0061526Y0282710D01*
X0062424Y0284878D01*
X0062424Y0287226D01*
X0061911Y0288465D02*
X0101048Y0288465D01*
X0100581Y0290064D02*
X0060857Y0290064D01*
X0058398Y0291662D02*
X0100784Y0291662D01*
X0101813Y0293261D02*
X0049132Y0293261D01*
X0049132Y0294859D02*
X0052759Y0294859D01*
X0052789Y0294830D02*
X0054957Y0293931D01*
X0057304Y0293931D01*
X0059473Y0294830D01*
X0061132Y0296489D01*
X0062031Y0298658D01*
X0062031Y0301005D01*
X0061132Y0303174D01*
X0059473Y0304833D01*
X0057304Y0305731D01*
X0054957Y0305731D01*
X0052789Y0304833D01*
X0051129Y0303174D01*
X0050231Y0301005D01*
X0050231Y0298658D01*
X0051129Y0296489D01*
X0052789Y0294830D01*
X0051161Y0296458D02*
X0049132Y0296458D01*
X0049132Y0298056D02*
X0050480Y0298056D01*
X0050231Y0299655D02*
X0049132Y0299655D01*
X0049132Y0301253D02*
X0050334Y0301253D01*
X0050996Y0302852D02*
X0049132Y0302852D01*
X0049132Y0304450D02*
X0052406Y0304450D01*
X0049132Y0306049D02*
X0084050Y0306049D01*
X0083313Y0306786D02*
X0085920Y0304179D01*
X0089326Y0302768D01*
X0093014Y0302768D01*
X0096420Y0304179D01*
X0099028Y0306786D01*
X0100439Y0310193D01*
X0100439Y0313880D01*
X0099028Y0317286D01*
X0096420Y0319894D01*
X0093014Y0321305D01*
X0089326Y0321305D01*
X0085920Y0319894D01*
X0083313Y0317286D01*
X0081902Y0313880D01*
X0081902Y0310193D01*
X0083313Y0306786D01*
X0082956Y0307647D02*
X0049132Y0307647D01*
X0049132Y0309246D02*
X0082294Y0309246D01*
X0081902Y0310844D02*
X0049132Y0310844D01*
X0049132Y0312443D02*
X0081902Y0312443D01*
X0081968Y0314041D02*
X0049132Y0314041D01*
X0049132Y0315640D02*
X0082631Y0315640D01*
X0083293Y0317238D02*
X0049132Y0317238D01*
X0049132Y0318837D02*
X0084863Y0318837D01*
X0087228Y0320435D02*
X0049132Y0320435D01*
X0049132Y0322034D02*
X0214846Y0322034D01*
X0214659Y0322485D02*
X0215099Y0321423D01*
X0215912Y0320611D01*
X0216973Y0320171D01*
X0218123Y0320171D01*
X0218734Y0320424D01*
X0218596Y0320091D01*
X0218596Y0318942D01*
X0219036Y0317880D01*
X0219849Y0317067D01*
X0220910Y0316628D01*
X0222060Y0316628D01*
X0223122Y0317067D01*
X0223136Y0317082D01*
X0223136Y0310202D01*
X0231581Y0301757D01*
X0232384Y0300820D01*
X0232376Y0300800D01*
X0232376Y0299651D01*
X0232815Y0298589D01*
X0233628Y0297776D01*
X0234690Y0297336D01*
X0235839Y0297336D01*
X0236901Y0297776D01*
X0237714Y0298589D01*
X0238154Y0299651D01*
X0238154Y0300800D01*
X0237714Y0301862D01*
X0236901Y0302674D01*
X0235839Y0303114D01*
X0235159Y0303114D01*
X0234702Y0303647D01*
X0234702Y0303727D01*
X0234224Y0304205D01*
X0233784Y0304719D01*
X0233704Y0304725D01*
X0226736Y0311693D01*
X0226736Y0315657D01*
X0235688Y0306705D01*
X0235525Y0306312D01*
X0235525Y0305162D01*
X0235965Y0304101D01*
X0236778Y0303288D01*
X0237840Y0302848D01*
X0238989Y0302848D01*
X0240051Y0303288D01*
X0240863Y0304101D01*
X0241303Y0305162D01*
X0241303Y0306312D01*
X0240863Y0307373D01*
X0240051Y0308186D01*
X0238989Y0308626D01*
X0238858Y0308626D01*
X0228336Y0319148D01*
X0228336Y0320750D01*
X0240643Y0308443D01*
X0240643Y0307918D01*
X0241083Y0306856D01*
X0241896Y0306044D01*
X0242958Y0305604D01*
X0244107Y0305604D01*
X0245169Y0306044D01*
X0245981Y0306856D01*
X0246421Y0307918D01*
X0246421Y0309068D01*
X0245981Y0310129D01*
X0245169Y0310942D01*
X0244107Y0311382D01*
X0242958Y0311382D01*
X0242843Y0311334D01*
X0230765Y0323412D01*
X0230765Y0340735D01*
X0229711Y0341789D01*
X0210026Y0361474D01*
X0204873Y0361474D01*
X0204224Y0362123D01*
X0203162Y0362563D01*
X0202013Y0362563D01*
X0200951Y0362123D01*
X0200138Y0361310D01*
X0199698Y0360249D01*
X0199698Y0359505D01*
X0198968Y0359505D01*
X0198318Y0360155D01*
X0197257Y0360594D01*
X0196107Y0360594D01*
X0195045Y0360155D01*
X0194233Y0359342D01*
X0194103Y0359028D01*
X0192692Y0360438D01*
X0173916Y0360438D01*
X0173267Y0361087D01*
X0172205Y0361527D01*
X0171056Y0361527D01*
X0169994Y0361087D01*
X0169181Y0360275D01*
X0168741Y0359213D01*
X0168741Y0358064D01*
X0169181Y0357002D01*
X0169994Y0356189D01*
X0171056Y0355749D01*
X0172205Y0355749D01*
X0173267Y0356189D01*
X0173916Y0356838D01*
X0191201Y0356838D01*
X0193768Y0354271D01*
X0194822Y0353217D01*
X0205318Y0353217D01*
X0205385Y0353150D01*
X0206173Y0353150D01*
X0223196Y0336127D01*
X0223159Y0329409D01*
X0223122Y0329446D01*
X0222060Y0329886D01*
X0220910Y0329886D01*
X0219849Y0329446D01*
X0219517Y0329114D01*
X0219184Y0329446D01*
X0218123Y0329886D01*
X0216973Y0329886D01*
X0215912Y0329446D01*
X0215099Y0328633D01*
X0214659Y0327572D01*
X0214659Y0326422D01*
X0215099Y0325360D01*
X0215431Y0325028D01*
X0215099Y0324696D01*
X0214659Y0323634D01*
X0214659Y0322485D01*
X0214659Y0323632D02*
X0183483Y0323632D01*
X0183383Y0323392D02*
X0183823Y0324454D01*
X0183823Y0325603D01*
X0183383Y0326665D01*
X0182570Y0327477D01*
X0181509Y0327917D01*
X0180359Y0327917D01*
X0179297Y0327477D01*
X0178485Y0326665D01*
X0178045Y0325603D01*
X0178045Y0324454D01*
X0178485Y0323392D01*
X0179297Y0322579D01*
X0180359Y0322139D01*
X0181509Y0322139D01*
X0182570Y0322579D01*
X0183383Y0323392D01*
X0183823Y0325231D02*
X0215228Y0325231D01*
X0214659Y0326829D02*
X0183218Y0326829D01*
X0182721Y0329620D02*
X0183871Y0329620D01*
X0184933Y0330059D01*
X0185745Y0330872D01*
X0186185Y0331934D01*
X0186185Y0333083D01*
X0185745Y0334145D01*
X0184933Y0334958D01*
X0183871Y0335398D01*
X0182721Y0335398D01*
X0181660Y0334958D01*
X0180847Y0334145D01*
X0180407Y0333083D01*
X0180407Y0331934D01*
X0180847Y0330872D01*
X0181660Y0330059D01*
X0182721Y0329620D01*
X0181739Y0330026D02*
X0163092Y0330026D01*
X0162885Y0330233D02*
X0161823Y0330673D01*
X0160674Y0330673D01*
X0159612Y0330233D01*
X0158800Y0329421D01*
X0158360Y0328359D01*
X0158360Y0327210D01*
X0158800Y0326148D01*
X0159612Y0325335D01*
X0160674Y0324895D01*
X0161823Y0324895D01*
X0162885Y0325335D01*
X0163698Y0326148D01*
X0164138Y0327210D01*
X0164138Y0328359D01*
X0163698Y0329421D01*
X0162885Y0330233D01*
X0164109Y0328428D02*
X0215014Y0328428D01*
X0216335Y0320435D02*
X0095112Y0320435D01*
X0097477Y0318837D02*
X0218640Y0318837D01*
X0219678Y0317238D02*
X0099047Y0317238D01*
X0099710Y0315640D02*
X0223136Y0315640D01*
X0223136Y0314041D02*
X0130772Y0314041D01*
X0131086Y0313881D02*
X0130203Y0314331D01*
X0129259Y0314638D01*
X0128484Y0314761D01*
X0128484Y0309193D01*
X0127084Y0309193D01*
X0127084Y0307793D01*
X0121517Y0307793D01*
X0121639Y0307018D01*
X0121946Y0306075D01*
X0122396Y0305191D01*
X0122979Y0304389D01*
X0123680Y0303688D01*
X0124482Y0303105D01*
X0125366Y0302654D01*
X0126309Y0302348D01*
X0127084Y0302225D01*
X0127084Y0307793D01*
X0128484Y0307793D01*
X0128484Y0302225D01*
X0129259Y0302348D01*
X0130203Y0302654D01*
X0131086Y0303105D01*
X0131888Y0303688D01*
X0132590Y0304389D01*
X0133172Y0305191D01*
X0133623Y0306075D01*
X0133929Y0307018D01*
X0134052Y0307793D01*
X0128484Y0307793D01*
X0128484Y0309193D01*
X0134052Y0309193D01*
X0133929Y0309968D01*
X0133623Y0310911D01*
X0133172Y0311795D01*
X0132590Y0312597D01*
X0131888Y0313298D01*
X0131086Y0313881D01*
X0132702Y0312443D02*
X0223136Y0312443D01*
X0223136Y0310844D02*
X0175950Y0310844D01*
X0175603Y0310988D02*
X0174454Y0310988D01*
X0173392Y0310548D01*
X0172579Y0309736D01*
X0172139Y0308674D01*
X0172139Y0307525D01*
X0172579Y0306463D01*
X0173392Y0305650D01*
X0174454Y0305210D01*
X0175603Y0305210D01*
X0176665Y0305650D01*
X0177477Y0306463D01*
X0177917Y0307525D01*
X0177917Y0308674D01*
X0177477Y0309736D01*
X0176665Y0310548D01*
X0175603Y0310988D01*
X0174106Y0310844D02*
X0133644Y0310844D01*
X0134044Y0309246D02*
X0172376Y0309246D01*
X0172139Y0307647D02*
X0134029Y0307647D01*
X0133610Y0306049D02*
X0172993Y0306049D01*
X0177064Y0306049D02*
X0195270Y0306049D01*
X0195020Y0305799D02*
X0194580Y0304737D01*
X0194580Y0303588D01*
X0195020Y0302526D01*
X0195833Y0301713D01*
X0196895Y0301273D01*
X0198044Y0301273D01*
X0199106Y0301713D01*
X0199918Y0302526D01*
X0200358Y0303588D01*
X0200358Y0304737D01*
X0199918Y0305799D01*
X0199106Y0306611D01*
X0198044Y0307051D01*
X0196895Y0307051D01*
X0195833Y0306611D01*
X0195020Y0305799D01*
X0194580Y0304450D02*
X0132634Y0304450D01*
X0130590Y0302852D02*
X0194885Y0302852D01*
X0200053Y0302852D02*
X0230486Y0302852D01*
X0232013Y0301253D02*
X0097771Y0301253D01*
X0097531Y0301493D02*
X0096469Y0301933D01*
X0095320Y0301933D01*
X0094258Y0301493D01*
X0093445Y0300681D01*
X0093006Y0299619D01*
X0093006Y0298469D01*
X0093445Y0297408D01*
X0094258Y0296595D01*
X0095320Y0296155D01*
X0096469Y0296155D01*
X0097531Y0296595D01*
X0098344Y0297408D01*
X0098783Y0298469D01*
X0098783Y0299619D01*
X0098344Y0300681D01*
X0097531Y0301493D01*
X0098769Y0299655D02*
X0101908Y0299655D01*
X0100823Y0298056D02*
X0098612Y0298056D01*
X0097200Y0296458D02*
X0100581Y0296458D01*
X0101009Y0294859D02*
X0059502Y0294859D01*
X0061101Y0296458D02*
X0094589Y0296458D01*
X0093177Y0298056D02*
X0061781Y0298056D01*
X0062031Y0299655D02*
X0093020Y0299655D01*
X0094018Y0301253D02*
X0061928Y0301253D01*
X0061266Y0302852D02*
X0089124Y0302852D01*
X0085648Y0304450D02*
X0059856Y0304450D01*
X0054651Y0291662D02*
X0049132Y0291662D01*
X0049132Y0290064D02*
X0052192Y0290064D01*
X0051138Y0288465D02*
X0049132Y0288465D01*
X0049132Y0286867D02*
X0050624Y0286867D01*
X0050624Y0285268D02*
X0049132Y0285268D01*
X0049132Y0283670D02*
X0051125Y0283670D01*
X0052161Y0282071D02*
X0049132Y0282071D01*
X0049132Y0280473D02*
X0054577Y0280473D01*
X0055351Y0276991D02*
X0053182Y0276093D01*
X0051523Y0274433D01*
X0050624Y0272265D01*
X0050624Y0269918D01*
X0051523Y0267749D01*
X0053182Y0266090D01*
X0055351Y0265191D01*
X0057698Y0265191D01*
X0059866Y0266090D01*
X0061526Y0267749D01*
X0062424Y0269918D01*
X0062424Y0272265D01*
X0061526Y0274433D01*
X0059866Y0276093D01*
X0057698Y0276991D01*
X0055351Y0276991D01*
X0052766Y0275677D02*
X0049132Y0275677D01*
X0049132Y0274079D02*
X0051376Y0274079D01*
X0050714Y0272480D02*
X0049132Y0272480D01*
X0049132Y0270882D02*
X0050624Y0270882D01*
X0050887Y0269283D02*
X0049132Y0269283D01*
X0049132Y0267685D02*
X0051587Y0267685D01*
X0053191Y0266086D02*
X0049132Y0266086D01*
X0049132Y0277276D02*
X0102756Y0277276D01*
X0102800Y0277257D02*
X0103949Y0277257D01*
X0105011Y0277697D01*
X0105824Y0278510D01*
X0106264Y0279572D01*
X0106264Y0280721D01*
X0105824Y0281783D01*
X0105011Y0282596D01*
X0103949Y0283035D01*
X0102800Y0283035D01*
X0101738Y0282596D01*
X0100926Y0281783D01*
X0100486Y0280721D01*
X0100486Y0279572D01*
X0100926Y0278510D01*
X0101738Y0277697D01*
X0102800Y0277257D01*
X0103993Y0277276D02*
X0110926Y0277276D01*
X0110722Y0276784D02*
X0110722Y0275635D01*
X0111162Y0274573D01*
X0111975Y0273760D01*
X0113036Y0273320D01*
X0114186Y0273320D01*
X0115247Y0273760D01*
X0116060Y0274573D01*
X0116500Y0275635D01*
X0116500Y0276784D01*
X0116060Y0277846D01*
X0115247Y0278659D01*
X0114186Y0279098D01*
X0113036Y0279098D01*
X0111975Y0278659D01*
X0111162Y0277846D01*
X0110722Y0276784D01*
X0110722Y0275677D02*
X0107166Y0275677D01*
X0108273Y0274079D02*
X0111656Y0274079D01*
X0108531Y0272480D02*
X0196375Y0272480D01*
X0196075Y0271756D02*
X0196075Y0268852D01*
X0197186Y0266169D01*
X0199240Y0264115D01*
X0201923Y0263004D01*
X0204827Y0263004D01*
X0207510Y0264115D01*
X0209563Y0266169D01*
X0210675Y0268852D01*
X0210675Y0271756D01*
X0209563Y0274439D01*
X0207510Y0276493D01*
X0204827Y0277604D01*
X0201923Y0277604D01*
X0199240Y0276493D01*
X0197186Y0274439D01*
X0196075Y0271756D01*
X0196075Y0270882D02*
X0108119Y0270882D01*
X0107261Y0269283D02*
X0196075Y0269283D01*
X0196558Y0267685D02*
X0108312Y0267685D01*
X0108531Y0266086D02*
X0188755Y0266086D01*
X0188216Y0265863D02*
X0186163Y0263809D01*
X0185051Y0261126D01*
X0185051Y0258222D01*
X0186163Y0255539D01*
X0188216Y0253485D01*
X0190899Y0252374D01*
X0193803Y0252374D01*
X0196486Y0253485D01*
X0198540Y0255539D01*
X0199651Y0258222D01*
X0199651Y0261126D01*
X0198540Y0263809D01*
X0196486Y0265863D01*
X0193803Y0266974D01*
X0190899Y0266974D01*
X0188216Y0265863D01*
X0186841Y0264488D02*
X0108080Y0264488D01*
X0106546Y0262889D02*
X0185781Y0262889D01*
X0185119Y0261290D02*
X0079848Y0261290D01*
X0080280Y0259692D02*
X0096551Y0259692D01*
X0099962Y0259692D02*
X0185051Y0259692D01*
X0185104Y0258093D02*
X0101060Y0258093D01*
X0101045Y0256495D02*
X0185767Y0256495D01*
X0186805Y0254896D02*
X0099927Y0254896D01*
X0100763Y0253298D02*
X0188669Y0253298D01*
X0196034Y0253298D02*
X0204817Y0253298D01*
X0205046Y0254896D02*
X0197897Y0254896D01*
X0198936Y0256495D02*
X0206738Y0256495D01*
X0205689Y0251699D02*
X0101146Y0251699D01*
X0099574Y0243707D02*
X0143658Y0243707D01*
X0116500Y0275677D02*
X0171475Y0275677D01*
X0171398Y0275754D02*
X0172211Y0274941D01*
X0173273Y0274502D01*
X0174422Y0274502D01*
X0175484Y0274941D01*
X0176296Y0275754D01*
X0176736Y0276816D01*
X0176736Y0277965D01*
X0176296Y0279027D01*
X0175484Y0279840D01*
X0174422Y0280280D01*
X0173273Y0280280D01*
X0172211Y0279840D01*
X0171398Y0279027D01*
X0170958Y0277965D01*
X0170958Y0276816D01*
X0171398Y0275754D01*
X0170958Y0277276D02*
X0116296Y0277276D01*
X0114727Y0278874D02*
X0171335Y0278874D01*
X0176360Y0278874D02*
X0218883Y0278874D01*
X0219061Y0279052D02*
X0218248Y0278240D01*
X0217809Y0277178D01*
X0217809Y0276028D01*
X0218248Y0274967D01*
X0219061Y0274154D01*
X0220123Y0273714D01*
X0221272Y0273714D01*
X0222334Y0274154D01*
X0223147Y0274967D01*
X0223587Y0276028D01*
X0223587Y0277178D01*
X0223147Y0278240D01*
X0222334Y0279052D01*
X0221272Y0279492D01*
X0220123Y0279492D01*
X0219061Y0279052D01*
X0217849Y0277276D02*
X0205620Y0277276D01*
X0208325Y0275677D02*
X0217954Y0275677D01*
X0219243Y0274079D02*
X0209713Y0274079D01*
X0210375Y0272480D02*
X0305740Y0272480D01*
X0307338Y0270882D02*
X0210675Y0270882D01*
X0210675Y0269283D02*
X0308937Y0269283D01*
X0310535Y0267685D02*
X0210191Y0267685D01*
X0209481Y0266086D02*
X0312134Y0266086D01*
X0313732Y0264488D02*
X0207882Y0264488D01*
X0199583Y0261290D02*
X0316929Y0261290D01*
X0318202Y0259692D02*
X0199651Y0259692D01*
X0199598Y0258093D02*
X0318619Y0258093D01*
X0315331Y0262889D02*
X0198921Y0262889D01*
X0198867Y0264488D02*
X0197861Y0264488D01*
X0197269Y0266086D02*
X0195947Y0266086D01*
X0197037Y0274079D02*
X0115566Y0274079D01*
X0112495Y0278874D02*
X0105975Y0278874D01*
X0106264Y0280473D02*
X0110774Y0280473D01*
X0110328Y0282071D02*
X0105536Y0282071D01*
X0101214Y0282071D02*
X0060887Y0282071D01*
X0061924Y0283670D02*
X0110734Y0283670D01*
X0115700Y0283670D02*
X0119065Y0283670D01*
X0118797Y0285268D02*
X0062424Y0285268D01*
X0058472Y0280473D02*
X0100486Y0280473D01*
X0100775Y0278874D02*
X0049132Y0278874D01*
X0060283Y0275677D02*
X0101946Y0275677D01*
X0100839Y0274079D02*
X0061673Y0274079D01*
X0062335Y0272480D02*
X0100581Y0272480D01*
X0100993Y0270882D02*
X0062424Y0270882D01*
X0062161Y0269283D02*
X0101851Y0269283D01*
X0100799Y0267685D02*
X0061461Y0267685D01*
X0059858Y0266086D02*
X0100581Y0266086D01*
X0108289Y0298056D02*
X0233348Y0298056D01*
X0232376Y0299655D02*
X0107204Y0299655D01*
X0099384Y0307647D02*
X0121540Y0307647D01*
X0121517Y0309193D02*
X0127084Y0309193D01*
X0127084Y0314761D01*
X0126309Y0314638D01*
X0125366Y0314331D01*
X0124482Y0313881D01*
X0123680Y0313298D01*
X0122979Y0312597D01*
X0122396Y0311795D01*
X0121946Y0310911D01*
X0121639Y0309968D01*
X0121517Y0309193D01*
X0121525Y0309246D02*
X0100046Y0309246D01*
X0100439Y0310844D02*
X0121924Y0310844D01*
X0122867Y0312443D02*
X0100439Y0312443D01*
X0100372Y0314041D02*
X0124797Y0314041D01*
X0127084Y0314041D02*
X0128484Y0314041D01*
X0128484Y0312443D02*
X0127084Y0312443D01*
X0127084Y0310844D02*
X0128484Y0310844D01*
X0128484Y0309246D02*
X0127084Y0309246D01*
X0127084Y0307647D02*
X0128484Y0307647D01*
X0128484Y0306049D02*
X0127084Y0306049D01*
X0127084Y0304450D02*
X0128484Y0304450D01*
X0128484Y0302852D02*
X0127084Y0302852D01*
X0124979Y0302852D02*
X0093217Y0302852D01*
X0096692Y0304450D02*
X0122934Y0304450D01*
X0121959Y0306049D02*
X0098290Y0306049D01*
X0093525Y0332514D02*
X0095693Y0333412D01*
X0097353Y0335072D01*
X0098251Y0337241D01*
X0098251Y0339588D01*
X0097353Y0341756D01*
X0095693Y0343416D01*
X0093525Y0344314D01*
X0091178Y0344314D01*
X0089009Y0343416D01*
X0087349Y0341756D01*
X0086451Y0339588D01*
X0086451Y0337241D01*
X0087349Y0335072D01*
X0089009Y0333412D01*
X0091178Y0332514D01*
X0093525Y0332514D01*
X0095237Y0333223D02*
X0180465Y0333223D01*
X0180535Y0331625D02*
X0049132Y0331625D01*
X0049132Y0333223D02*
X0089465Y0333223D01*
X0087599Y0334822D02*
X0049132Y0334822D01*
X0049132Y0336421D02*
X0077267Y0336421D01*
X0076910Y0336778D02*
X0077723Y0335965D01*
X0078784Y0335525D01*
X0079934Y0335525D01*
X0080996Y0335965D01*
X0081808Y0336778D01*
X0082248Y0337840D01*
X0082248Y0338989D01*
X0081808Y0340051D01*
X0080996Y0340863D01*
X0079934Y0341303D01*
X0078784Y0341303D01*
X0077723Y0340863D01*
X0076910Y0340051D01*
X0076470Y0338989D01*
X0076470Y0337840D01*
X0076910Y0336778D01*
X0076470Y0338019D02*
X0049132Y0338019D01*
X0049132Y0339618D02*
X0076730Y0339618D01*
X0078574Y0341216D02*
X0049132Y0341216D01*
X0049132Y0342815D02*
X0088408Y0342815D01*
X0087126Y0341216D02*
X0080144Y0341216D01*
X0081988Y0339618D02*
X0086464Y0339618D01*
X0086451Y0338019D02*
X0082248Y0338019D01*
X0081451Y0336421D02*
X0086791Y0336421D01*
X0097103Y0334822D02*
X0181524Y0334822D01*
X0185068Y0334822D02*
X0193221Y0334822D01*
X0193006Y0335343D02*
X0193445Y0334281D01*
X0194258Y0333469D01*
X0195320Y0333029D01*
X0196469Y0333029D01*
X0197531Y0333469D01*
X0197930Y0333868D01*
X0198195Y0333603D01*
X0199257Y0333163D01*
X0200406Y0333163D01*
X0201468Y0333603D01*
X0202281Y0334415D01*
X0202720Y0335477D01*
X0202720Y0336627D01*
X0202281Y0337688D01*
X0201468Y0338501D01*
X0200406Y0338941D01*
X0199257Y0338941D01*
X0198195Y0338501D01*
X0197796Y0338102D01*
X0197531Y0338367D01*
X0196469Y0338807D01*
X0195320Y0338807D01*
X0194258Y0338367D01*
X0193445Y0337554D01*
X0193006Y0336492D01*
X0193006Y0335343D01*
X0193006Y0336421D02*
X0097911Y0336421D01*
X0098251Y0338019D02*
X0193910Y0338019D01*
X0194850Y0333223D02*
X0186127Y0333223D01*
X0186057Y0331625D02*
X0223171Y0331625D01*
X0223180Y0333223D02*
X0200552Y0333223D01*
X0199111Y0333223D02*
X0196939Y0333223D01*
X0202449Y0334822D02*
X0223188Y0334822D01*
X0222902Y0336421D02*
X0202720Y0336421D01*
X0201950Y0338019D02*
X0221303Y0338019D01*
X0219705Y0339618D02*
X0211371Y0339618D01*
X0211336Y0339534D02*
X0211776Y0340595D01*
X0211776Y0341745D01*
X0211336Y0342807D01*
X0210523Y0343619D01*
X0209461Y0344059D01*
X0208312Y0344059D01*
X0207250Y0343619D01*
X0206437Y0342807D01*
X0205998Y0341745D01*
X0205998Y0340595D01*
X0206437Y0339534D01*
X0207250Y0338721D01*
X0208312Y0338281D01*
X0209461Y0338281D01*
X0210523Y0338721D01*
X0211336Y0339534D01*
X0211776Y0341216D02*
X0218106Y0341216D01*
X0216508Y0342815D02*
X0211328Y0342815D01*
X0213311Y0346012D02*
X0207971Y0346012D01*
X0207767Y0345808D02*
X0208580Y0346620D01*
X0209020Y0347682D01*
X0209020Y0348831D01*
X0208580Y0349893D01*
X0207767Y0350706D01*
X0206705Y0351146D01*
X0205556Y0351146D01*
X0204494Y0350706D01*
X0203682Y0349893D01*
X0203242Y0348831D01*
X0203242Y0347682D01*
X0203682Y0346620D01*
X0204494Y0345808D01*
X0205556Y0345368D01*
X0206705Y0345368D01*
X0207767Y0345808D01*
X0208990Y0347610D02*
X0211712Y0347610D01*
X0210114Y0349209D02*
X0208863Y0349209D01*
X0208515Y0350807D02*
X0207523Y0350807D01*
X0206916Y0352406D02*
X0049132Y0352406D01*
X0049132Y0354004D02*
X0130943Y0354004D01*
X0130847Y0354101D02*
X0131660Y0353288D01*
X0132721Y0352848D01*
X0133871Y0352848D01*
X0134933Y0353288D01*
X0135745Y0354101D01*
X0136185Y0355162D01*
X0136185Y0356312D01*
X0135745Y0357373D01*
X0134933Y0358186D01*
X0133871Y0358626D01*
X0132721Y0358626D01*
X0131660Y0358186D01*
X0130847Y0357373D01*
X0130407Y0356312D01*
X0130407Y0355162D01*
X0130847Y0354101D01*
X0130407Y0355603D02*
X0105358Y0355603D01*
X0105011Y0355256D02*
X0105824Y0356069D01*
X0106264Y0357131D01*
X0106264Y0358280D01*
X0105824Y0359342D01*
X0105011Y0360155D01*
X0103949Y0360594D01*
X0102800Y0360594D01*
X0101738Y0360155D01*
X0100926Y0359342D01*
X0100486Y0358280D01*
X0100486Y0357131D01*
X0100926Y0356069D01*
X0101738Y0355256D01*
X0102800Y0354817D01*
X0103949Y0354817D01*
X0105011Y0355256D01*
X0106264Y0357201D02*
X0130776Y0357201D01*
X0135817Y0357201D02*
X0169099Y0357201D01*
X0168741Y0358800D02*
X0106049Y0358800D01*
X0104423Y0360398D02*
X0169305Y0360398D01*
X0177031Y0365954D02*
X0178946Y0364039D01*
X0181293Y0362684D01*
X0183910Y0361983D01*
X0186619Y0361983D01*
X0189236Y0362684D01*
X0191583Y0364039D01*
X0193498Y0365954D01*
X0194853Y0368301D01*
X0195554Y0370918D01*
X0195554Y0373627D01*
X0194853Y0376244D01*
X0193498Y0378591D01*
X0191583Y0380506D01*
X0189236Y0381861D01*
X0186619Y0382562D01*
X0183910Y0382562D01*
X0181293Y0381861D01*
X0178946Y0380506D01*
X0177031Y0378591D01*
X0175676Y0376244D01*
X0174975Y0373627D01*
X0174975Y0370918D01*
X0175676Y0368301D01*
X0177031Y0365954D01*
X0176547Y0366792D02*
X0118392Y0366792D01*
X0117908Y0365954D02*
X0119263Y0368301D01*
X0119964Y0370918D01*
X0119964Y0373627D01*
X0119263Y0376244D01*
X0117908Y0378591D01*
X0115992Y0380506D01*
X0113646Y0381861D01*
X0111029Y0382562D01*
X0108319Y0382562D01*
X0105702Y0381861D01*
X0103356Y0380506D01*
X0101440Y0378591D01*
X0100085Y0376244D01*
X0099384Y0373627D01*
X0099384Y0370918D01*
X0100085Y0368301D01*
X0101440Y0365954D01*
X0103356Y0364039D01*
X0105702Y0362684D01*
X0108319Y0361983D01*
X0111029Y0361983D01*
X0113646Y0362684D01*
X0115992Y0364039D01*
X0117908Y0365954D01*
X0117147Y0365194D02*
X0177791Y0365194D01*
X0179714Y0363595D02*
X0115224Y0363595D01*
X0111081Y0361997D02*
X0183858Y0361997D01*
X0186672Y0361997D02*
X0200824Y0361997D01*
X0199760Y0360398D02*
X0197730Y0360398D01*
X0195633Y0360398D02*
X0192732Y0360398D01*
X0190815Y0363595D02*
X0203336Y0363595D01*
X0202569Y0364039D02*
X0204915Y0362684D01*
X0207532Y0361983D01*
X0210241Y0361983D01*
X0212858Y0362684D01*
X0215205Y0364039D01*
X0217120Y0365954D01*
X0218475Y0368301D01*
X0219176Y0370918D01*
X0219176Y0373627D01*
X0218475Y0376244D01*
X0217120Y0378591D01*
X0215205Y0380506D01*
X0212858Y0381861D01*
X0210241Y0382562D01*
X0207532Y0382562D01*
X0204915Y0381861D01*
X0202569Y0380506D01*
X0200653Y0378591D01*
X0199298Y0376244D01*
X0198597Y0373627D01*
X0198597Y0370918D01*
X0199298Y0368301D01*
X0200653Y0365954D01*
X0202569Y0364039D01*
X0201413Y0365194D02*
X0192738Y0365194D01*
X0193982Y0366792D02*
X0200169Y0366792D01*
X0199274Y0368391D02*
X0194877Y0368391D01*
X0195306Y0369989D02*
X0198846Y0369989D01*
X0198597Y0371588D02*
X0195554Y0371588D01*
X0195554Y0373186D02*
X0198597Y0373186D01*
X0198907Y0374785D02*
X0195244Y0374785D01*
X0194773Y0376383D02*
X0199378Y0376383D01*
X0200301Y0377982D02*
X0193850Y0377982D01*
X0192509Y0379580D02*
X0201643Y0379580D01*
X0203733Y0381179D02*
X0190418Y0381179D01*
X0180111Y0381179D02*
X0114827Y0381179D01*
X0116918Y0379580D02*
X0178021Y0379580D01*
X0176679Y0377982D02*
X0118259Y0377982D01*
X0119182Y0376383D02*
X0175756Y0376383D01*
X0175285Y0374785D02*
X0119654Y0374785D01*
X0119964Y0373186D02*
X0174975Y0373186D01*
X0174975Y0371588D02*
X0119964Y0371588D01*
X0119715Y0369989D02*
X0175224Y0369989D01*
X0175652Y0368391D02*
X0119287Y0368391D01*
X0108267Y0361997D02*
X0049132Y0361997D01*
X0049132Y0363595D02*
X0104124Y0363595D01*
X0102201Y0365194D02*
X0049132Y0365194D01*
X0049132Y0366792D02*
X0100956Y0366792D01*
X0100061Y0368391D02*
X0049132Y0368391D01*
X0049132Y0369989D02*
X0099633Y0369989D01*
X0099384Y0371588D02*
X0049132Y0371588D01*
X0049132Y0373186D02*
X0099384Y0373186D01*
X0099694Y0374785D02*
X0049132Y0374785D01*
X0049132Y0376383D02*
X0100166Y0376383D01*
X0101089Y0377982D02*
X0049132Y0377982D01*
X0049132Y0379580D02*
X0102430Y0379580D01*
X0104521Y0381179D02*
X0093926Y0381179D01*
X0093594Y0380847D02*
X0094407Y0381660D01*
X0094846Y0382721D01*
X0094846Y0383871D01*
X0094407Y0384933D01*
X0093594Y0385745D01*
X0092532Y0386185D01*
X0091383Y0386185D01*
X0090321Y0385745D01*
X0089508Y0384933D01*
X0089069Y0383871D01*
X0089069Y0382721D01*
X0089508Y0381660D01*
X0090321Y0380847D01*
X0091383Y0380407D01*
X0092532Y0380407D01*
X0093594Y0380847D01*
X0094846Y0382777D02*
X0242350Y0382777D01*
X0242350Y0381179D02*
X0214040Y0381179D01*
X0216131Y0379580D02*
X0242350Y0379580D01*
X0242350Y0377982D02*
X0217472Y0377982D01*
X0218395Y0376383D02*
X0242350Y0376383D01*
X0242350Y0374785D02*
X0218866Y0374785D01*
X0219176Y0373186D02*
X0242350Y0373186D01*
X0242350Y0371588D02*
X0219176Y0371588D01*
X0218928Y0369989D02*
X0242350Y0369989D01*
X0242350Y0368391D02*
X0218499Y0368391D01*
X0217604Y0366792D02*
X0242350Y0366792D01*
X0242350Y0365194D02*
X0216360Y0365194D01*
X0214437Y0363595D02*
X0242350Y0363595D01*
X0242350Y0361997D02*
X0210294Y0361997D01*
X0211102Y0360398D02*
X0242350Y0360398D01*
X0242350Y0358800D02*
X0212700Y0358800D01*
X0214299Y0357201D02*
X0242350Y0357201D01*
X0242350Y0355603D02*
X0215897Y0355603D01*
X0217496Y0354004D02*
X0241354Y0354004D01*
X0241261Y0353780D02*
X0241261Y0352630D01*
X0241701Y0351568D01*
X0242513Y0350756D01*
X0243575Y0350316D01*
X0244724Y0350316D01*
X0245786Y0350756D01*
X0246599Y0351568D01*
X0247039Y0352630D01*
X0247039Y0353780D01*
X0246599Y0354841D01*
X0245950Y0355490D01*
X0245950Y0421482D01*
X0246264Y0421352D01*
X0247413Y0421352D01*
X0248475Y0421792D01*
X0248752Y0422069D01*
X0248752Y0375841D01*
X0248173Y0375262D01*
X0248173Y0352652D01*
X0247523Y0352003D01*
X0247084Y0350941D01*
X0247084Y0349792D01*
X0247523Y0348730D01*
X0248336Y0347917D01*
X0249398Y0347477D01*
X0250547Y0347477D01*
X0251609Y0347917D01*
X0252422Y0348730D01*
X0252862Y0349792D01*
X0252862Y0350941D01*
X0252422Y0352003D01*
X0251773Y0352652D01*
X0251773Y0373771D01*
X0252352Y0374350D01*
X0252352Y0431746D01*
X0251298Y0432801D01*
X0249965Y0434134D01*
X0249965Y0435052D01*
X0249525Y0436114D01*
X0248712Y0436926D01*
X0247650Y0437366D01*
X0246501Y0437366D01*
X0245439Y0436926D01*
X0244626Y0436114D01*
X0244187Y0435052D01*
X0244187Y0433902D01*
X0244626Y0432841D01*
X0245439Y0432028D01*
X0245704Y0431918D01*
X0245439Y0431808D01*
X0244626Y0430996D01*
X0244187Y0429934D01*
X0244187Y0429016D01*
X0243404Y0428233D01*
X0242350Y0427179D01*
X0242350Y0355490D01*
X0241701Y0354841D01*
X0241261Y0353780D01*
X0241354Y0352406D02*
X0219094Y0352406D01*
X0220693Y0350807D02*
X0242462Y0350807D01*
X0245838Y0350807D02*
X0247084Y0350807D01*
X0246946Y0352406D02*
X0247926Y0352406D01*
X0248173Y0354004D02*
X0246946Y0354004D01*
X0245950Y0355603D02*
X0248173Y0355603D01*
X0248173Y0357201D02*
X0245950Y0357201D01*
X0245950Y0358800D02*
X0248173Y0358800D01*
X0248173Y0360398D02*
X0245950Y0360398D01*
X0245950Y0361997D02*
X0248173Y0361997D01*
X0248173Y0363595D02*
X0245950Y0363595D01*
X0245950Y0365194D02*
X0248173Y0365194D01*
X0248173Y0366792D02*
X0245950Y0366792D01*
X0245950Y0368391D02*
X0248173Y0368391D01*
X0248173Y0369989D02*
X0245950Y0369989D01*
X0245950Y0371588D02*
X0248173Y0371588D01*
X0248173Y0373186D02*
X0245950Y0373186D01*
X0245950Y0374785D02*
X0248173Y0374785D01*
X0248752Y0376383D02*
X0245950Y0376383D01*
X0245950Y0377982D02*
X0248752Y0377982D01*
X0248752Y0379580D02*
X0245950Y0379580D01*
X0245950Y0381179D02*
X0248752Y0381179D01*
X0248752Y0382777D02*
X0245950Y0382777D01*
X0245950Y0384376D02*
X0248752Y0384376D01*
X0248752Y0385974D02*
X0245950Y0385974D01*
X0245950Y0387573D02*
X0248752Y0387573D01*
X0248752Y0389171D02*
X0245950Y0389171D01*
X0245950Y0390770D02*
X0248752Y0390770D01*
X0248752Y0392368D02*
X0245950Y0392368D01*
X0245950Y0393967D02*
X0248752Y0393967D01*
X0248752Y0395565D02*
X0245950Y0395565D01*
X0245950Y0397164D02*
X0248752Y0397164D01*
X0248752Y0398762D02*
X0245950Y0398762D01*
X0245950Y0400361D02*
X0248752Y0400361D01*
X0248752Y0401959D02*
X0245950Y0401959D01*
X0245950Y0403558D02*
X0248752Y0403558D01*
X0248752Y0405156D02*
X0245950Y0405156D01*
X0245950Y0406755D02*
X0248752Y0406755D01*
X0248752Y0408354D02*
X0245950Y0408354D01*
X0245950Y0409952D02*
X0248752Y0409952D01*
X0248752Y0411551D02*
X0245950Y0411551D01*
X0245950Y0413149D02*
X0248752Y0413149D01*
X0248752Y0414748D02*
X0245950Y0414748D01*
X0245950Y0416346D02*
X0248752Y0416346D01*
X0248752Y0417945D02*
X0245950Y0417945D01*
X0245950Y0419543D02*
X0248752Y0419543D01*
X0248752Y0421142D02*
X0245950Y0421142D01*
X0242350Y0421142D02*
X0130137Y0421142D01*
X0129985Y0421333D02*
X0129207Y0422111D01*
X0128346Y0422797D01*
X0127414Y0423383D01*
X0126422Y0423860D01*
X0125383Y0424224D01*
X0124310Y0424469D01*
X0123466Y0424564D01*
X0123466Y0415592D01*
X0132438Y0415592D01*
X0132343Y0416436D01*
X0132098Y0417509D01*
X0131734Y0418548D01*
X0131257Y0419540D01*
X0130671Y0420472D01*
X0129985Y0421333D01*
X0128418Y0422740D02*
X0242350Y0422740D01*
X0242350Y0424339D02*
X0124881Y0424339D01*
X0123466Y0424339D02*
X0121866Y0424339D01*
X0121866Y0424564D02*
X0121022Y0424469D01*
X0119949Y0424224D01*
X0118910Y0423860D01*
X0117918Y0423383D01*
X0116986Y0422797D01*
X0116126Y0422111D01*
X0115347Y0421333D01*
X0114661Y0420472D01*
X0114075Y0419540D01*
X0113598Y0418548D01*
X0113234Y0417509D01*
X0112989Y0416436D01*
X0112894Y0415592D01*
X0121866Y0415592D01*
X0121866Y0413992D01*
X0112894Y0413992D01*
X0112989Y0413148D01*
X0113234Y0412075D01*
X0113598Y0411036D01*
X0114075Y0410044D01*
X0114661Y0409112D01*
X0115347Y0408252D01*
X0116126Y0407473D01*
X0116986Y0406787D01*
X0117918Y0406201D01*
X0118910Y0405724D01*
X0119949Y0405360D01*
X0121022Y0405115D01*
X0121866Y0405020D01*
X0121866Y0413992D01*
X0123466Y0413992D01*
X0123466Y0405020D01*
X0124310Y0405115D01*
X0125383Y0405360D01*
X0126422Y0405724D01*
X0127414Y0406201D01*
X0128346Y0406787D01*
X0129207Y0407473D01*
X0129985Y0408252D01*
X0130671Y0409112D01*
X0131257Y0410044D01*
X0131734Y0411036D01*
X0132098Y0412075D01*
X0132343Y0413148D01*
X0132438Y0413992D01*
X0123466Y0413992D01*
X0123466Y0415592D01*
X0121866Y0415592D01*
X0121866Y0424564D01*
X0120451Y0424339D02*
X0077085Y0424339D01*
X0077085Y0425937D02*
X0242350Y0425937D01*
X0242707Y0427536D02*
X0125162Y0427536D01*
X0128648Y0429134D02*
X0244187Y0429134D01*
X0244518Y0430733D02*
X0130247Y0430733D01*
X0131367Y0432331D02*
X0245136Y0432331D01*
X0244187Y0433930D02*
X0132029Y0433930D01*
X0132460Y0435528D02*
X0244384Y0435528D01*
X0245923Y0437127D02*
X0132460Y0437127D01*
X0132453Y0438725D02*
X0272600Y0438725D01*
X0272579Y0438746D02*
X0273392Y0437934D01*
X0274454Y0437494D01*
X0275603Y0437494D01*
X0276665Y0437934D01*
X0277477Y0438746D01*
X0277917Y0439808D01*
X0277917Y0440957D01*
X0277477Y0442019D01*
X0276665Y0442832D01*
X0275603Y0443272D01*
X0274454Y0443272D01*
X0273392Y0442832D01*
X0272579Y0442019D01*
X0272139Y0440957D01*
X0272139Y0439808D01*
X0272579Y0438746D01*
X0272139Y0440324D02*
X0131791Y0440324D01*
X0131129Y0441922D02*
X0272539Y0441922D01*
X0277518Y0441922D02*
X0367066Y0441922D01*
X0367066Y0440324D02*
X0277917Y0440324D01*
X0277457Y0438725D02*
X0367066Y0438725D01*
X0367066Y0437127D02*
X0248228Y0437127D01*
X0249767Y0435528D02*
X0367066Y0435528D01*
X0367066Y0433930D02*
X0250169Y0433930D01*
X0251767Y0432331D02*
X0367066Y0432331D01*
X0367066Y0430733D02*
X0252352Y0430733D01*
X0252352Y0429134D02*
X0367066Y0429134D01*
X0367066Y0427536D02*
X0252352Y0427536D01*
X0252352Y0425937D02*
X0367066Y0425937D01*
X0367066Y0424339D02*
X0252352Y0424339D01*
X0252352Y0422740D02*
X0367066Y0422740D01*
X0367066Y0421142D02*
X0343230Y0421142D01*
X0343226Y0421153D02*
X0342413Y0421966D01*
X0341351Y0422405D01*
X0340202Y0422405D01*
X0339140Y0421966D01*
X0338327Y0421153D01*
X0337887Y0420091D01*
X0337887Y0418942D01*
X0338327Y0417880D01*
X0339140Y0417067D01*
X0340202Y0416628D01*
X0341351Y0416628D01*
X0342413Y0417067D01*
X0343226Y0417880D01*
X0343665Y0418942D01*
X0343665Y0420091D01*
X0343226Y0421153D01*
X0343665Y0419543D02*
X0367066Y0419543D01*
X0367066Y0417945D02*
X0343252Y0417945D01*
X0338300Y0417945D02*
X0252352Y0417945D01*
X0252352Y0419543D02*
X0337887Y0419543D01*
X0338323Y0421142D02*
X0252352Y0421142D01*
X0252352Y0416346D02*
X0359898Y0416346D01*
X0359587Y0416035D02*
X0359147Y0414973D01*
X0359147Y0413824D01*
X0359587Y0412762D01*
X0360400Y0411949D01*
X0361462Y0411509D01*
X0362611Y0411509D01*
X0363673Y0411949D01*
X0364485Y0412762D01*
X0364925Y0413824D01*
X0364925Y0414973D01*
X0364485Y0416035D01*
X0363673Y0416848D01*
X0362611Y0417287D01*
X0361462Y0417287D01*
X0360400Y0416848D01*
X0359587Y0416035D01*
X0359147Y0414748D02*
X0252352Y0414748D01*
X0252352Y0413149D02*
X0359427Y0413149D01*
X0361362Y0411551D02*
X0252352Y0411551D01*
X0252352Y0409952D02*
X0370668Y0409952D01*
X0368382Y0411551D02*
X0362710Y0411551D01*
X0364646Y0413149D02*
X0367448Y0413149D01*
X0367066Y0414748D02*
X0364925Y0414748D01*
X0364174Y0416346D02*
X0367066Y0416346D01*
X0377320Y0406755D02*
X0252352Y0406755D01*
X0252352Y0405156D02*
X0376643Y0405156D01*
X0375981Y0403558D02*
X0252352Y0403558D01*
X0252352Y0401959D02*
X0375865Y0401959D01*
X0375865Y0400361D02*
X0252352Y0400361D01*
X0252352Y0398762D02*
X0376185Y0398762D01*
X0376847Y0397164D02*
X0252352Y0397164D01*
X0252352Y0395565D02*
X0377812Y0395565D01*
X0379410Y0393967D02*
X0252352Y0393967D01*
X0252352Y0392368D02*
X0382521Y0392368D01*
X0381418Y0389171D02*
X0252352Y0389171D01*
X0252352Y0387573D02*
X0378859Y0387573D01*
X0377377Y0385974D02*
X0252352Y0385974D01*
X0252352Y0384376D02*
X0376424Y0384376D01*
X0375813Y0382777D02*
X0252352Y0382777D01*
X0252352Y0381179D02*
X0279324Y0381179D01*
X0278159Y0380506D02*
X0276243Y0378591D01*
X0274889Y0376244D01*
X0274187Y0373627D01*
X0274187Y0370918D01*
X0274889Y0368301D01*
X0276243Y0365954D01*
X0278159Y0364039D01*
X0280505Y0362684D01*
X0283122Y0361983D01*
X0285832Y0361983D01*
X0288449Y0362684D01*
X0290795Y0364039D01*
X0292711Y0365954D01*
X0294066Y0368301D01*
X0294767Y0370918D01*
X0294767Y0373627D01*
X0294066Y0376244D01*
X0292711Y0378591D01*
X0290795Y0380506D01*
X0288449Y0381861D01*
X0285832Y0382562D01*
X0283122Y0382562D01*
X0280505Y0381861D01*
X0278159Y0380506D01*
X0277233Y0379580D02*
X0252352Y0379580D01*
X0252352Y0377982D02*
X0275892Y0377982D01*
X0274969Y0376383D02*
X0252352Y0376383D01*
X0252352Y0374785D02*
X0274498Y0374785D01*
X0274187Y0373186D02*
X0251773Y0373186D01*
X0251773Y0371588D02*
X0274187Y0371588D01*
X0274436Y0369989D02*
X0251773Y0369989D01*
X0251773Y0368391D02*
X0274865Y0368391D01*
X0275760Y0366792D02*
X0251773Y0366792D01*
X0251773Y0365194D02*
X0277004Y0365194D01*
X0278927Y0363595D02*
X0251773Y0363595D01*
X0251773Y0361997D02*
X0283070Y0361997D01*
X0285884Y0361997D02*
X0394625Y0361997D01*
X0394625Y0363595D02*
X0290027Y0363595D01*
X0291950Y0365194D02*
X0394625Y0365194D01*
X0394625Y0366792D02*
X0293195Y0366792D01*
X0294090Y0368391D02*
X0394625Y0368391D01*
X0394625Y0369989D02*
X0294518Y0369989D01*
X0294767Y0371588D02*
X0380466Y0371588D01*
X0378365Y0373186D02*
X0294767Y0373186D01*
X0294457Y0374785D02*
X0377059Y0374785D01*
X0376200Y0376383D02*
X0293985Y0376383D01*
X0293062Y0377982D02*
X0375707Y0377982D01*
X0375519Y0381179D02*
X0289630Y0381179D01*
X0291721Y0379580D02*
X0384465Y0379580D01*
X0384465Y0377982D02*
X0386065Y0377982D01*
X0386065Y0376383D02*
X0384465Y0376383D01*
X0384465Y0374785D02*
X0386065Y0374785D01*
X0386065Y0373186D02*
X0384465Y0373186D01*
X0384465Y0371588D02*
X0386065Y0371588D01*
X0390063Y0371588D02*
X0394625Y0371588D01*
X0394625Y0373186D02*
X0392164Y0373186D01*
X0393470Y0374785D02*
X0394625Y0374785D01*
X0394625Y0376383D02*
X0394329Y0376383D01*
X0386065Y0381179D02*
X0384465Y0381179D01*
X0384465Y0382777D02*
X0386065Y0382777D01*
X0386065Y0384376D02*
X0384465Y0384376D01*
X0384465Y0385974D02*
X0386065Y0385974D01*
X0386065Y0387573D02*
X0384465Y0387573D01*
X0384465Y0389171D02*
X0386065Y0389171D01*
X0389111Y0389171D02*
X0394625Y0389171D01*
X0394625Y0387573D02*
X0391670Y0387573D01*
X0393152Y0385974D02*
X0394625Y0385974D01*
X0394625Y0384376D02*
X0394105Y0384376D01*
X0394625Y0390770D02*
X0252352Y0390770D01*
X0242350Y0390770D02*
X0049132Y0390770D01*
X0049132Y0392368D02*
X0242350Y0392368D01*
X0242350Y0393967D02*
X0073532Y0393967D01*
X0073446Y0393931D02*
X0075615Y0394830D01*
X0077274Y0396489D01*
X0078172Y0398658D01*
X0078172Y0401005D01*
X0077274Y0403174D01*
X0075615Y0404833D01*
X0073446Y0405731D01*
X0071099Y0405731D01*
X0068930Y0404833D01*
X0067271Y0403174D01*
X0066372Y0401005D01*
X0066372Y0398658D01*
X0067271Y0396489D01*
X0068930Y0394830D01*
X0071099Y0393931D01*
X0073446Y0393931D01*
X0071013Y0393967D02*
X0059128Y0393967D01*
X0058092Y0393538D02*
X0060260Y0394436D01*
X0061920Y0396096D01*
X0062818Y0398264D01*
X0062818Y0400611D01*
X0061920Y0402780D01*
X0060260Y0404440D01*
X0058092Y0405338D01*
X0055745Y0405338D01*
X0053576Y0404440D01*
X0051916Y0402780D01*
X0051018Y0400611D01*
X0051018Y0398264D01*
X0051916Y0396096D01*
X0053576Y0394436D01*
X0055745Y0393538D01*
X0058092Y0393538D01*
X0054709Y0393967D02*
X0049132Y0393967D01*
X0049132Y0395565D02*
X0052447Y0395565D01*
X0051474Y0397164D02*
X0049132Y0397164D01*
X0049132Y0398762D02*
X0051018Y0398762D01*
X0051018Y0400361D02*
X0049132Y0400361D01*
X0049132Y0401959D02*
X0051577Y0401959D01*
X0052694Y0403558D02*
X0049132Y0403558D01*
X0049132Y0405156D02*
X0055307Y0405156D01*
X0058529Y0405156D02*
X0069711Y0405156D01*
X0067655Y0403558D02*
X0061142Y0403558D01*
X0062260Y0401959D02*
X0066768Y0401959D01*
X0066372Y0400361D02*
X0062818Y0400361D01*
X0062818Y0398762D02*
X0066372Y0398762D01*
X0066991Y0397164D02*
X0062362Y0397164D01*
X0061390Y0395565D02*
X0068195Y0395565D01*
X0076350Y0395565D02*
X0242350Y0395565D01*
X0242350Y0397164D02*
X0077554Y0397164D01*
X0078172Y0398762D02*
X0242350Y0398762D01*
X0242350Y0400361D02*
X0078172Y0400361D01*
X0077777Y0401959D02*
X0242350Y0401959D01*
X0242350Y0403558D02*
X0076890Y0403558D01*
X0074834Y0405156D02*
X0120842Y0405156D01*
X0121866Y0405156D02*
X0123466Y0405156D01*
X0124490Y0405156D02*
X0149240Y0405156D01*
X0149351Y0404888D02*
X0150164Y0404075D01*
X0151225Y0403635D01*
X0152375Y0403635D01*
X0153436Y0404075D01*
X0154249Y0404888D01*
X0154689Y0405950D01*
X0154689Y0407099D01*
X0154249Y0408161D01*
X0153436Y0408974D01*
X0152375Y0409413D01*
X0151225Y0409413D01*
X0150164Y0408974D01*
X0149351Y0408161D01*
X0148911Y0407099D01*
X0148911Y0405950D01*
X0149351Y0404888D01*
X0148911Y0406755D02*
X0128295Y0406755D01*
X0130066Y0408354D02*
X0149543Y0408354D01*
X0154057Y0408354D02*
X0242350Y0408354D01*
X0242350Y0409952D02*
X0131199Y0409952D01*
X0131914Y0411551D02*
X0242350Y0411551D01*
X0242350Y0413149D02*
X0154893Y0413149D01*
X0154737Y0413084D02*
X0155799Y0413524D01*
X0156611Y0414337D01*
X0157051Y0415399D01*
X0157051Y0416548D01*
X0156611Y0417610D01*
X0155799Y0418422D01*
X0154737Y0418862D01*
X0153588Y0418862D01*
X0152526Y0418422D01*
X0151713Y0417610D01*
X0151273Y0416548D01*
X0151273Y0415399D01*
X0151713Y0414337D01*
X0152526Y0413524D01*
X0153588Y0413084D01*
X0154737Y0413084D01*
X0153431Y0413149D02*
X0132343Y0413149D01*
X0132353Y0416346D02*
X0151273Y0416346D01*
X0151543Y0414748D02*
X0123466Y0414748D01*
X0123466Y0416346D02*
X0121866Y0416346D01*
X0121866Y0414748D02*
X0105763Y0414748D01*
X0105870Y0415005D02*
X0105430Y0413943D01*
X0104618Y0413130D01*
X0103556Y0412691D01*
X0102406Y0412691D01*
X0101345Y0413130D01*
X0100532Y0413943D01*
X0100092Y0415005D01*
X0100092Y0416154D01*
X0100532Y0417216D01*
X0101345Y0418029D01*
X0102406Y0418468D01*
X0103556Y0418468D01*
X0104618Y0418029D01*
X0105430Y0417216D01*
X0105870Y0416154D01*
X0105870Y0415005D01*
X0105791Y0416346D02*
X0112979Y0416346D01*
X0113387Y0417945D02*
X0104702Y0417945D01*
X0101887Y0419801D02*
X0102327Y0420862D01*
X0102327Y0422012D01*
X0101887Y0423073D01*
X0101074Y0423886D01*
X0100012Y0424326D01*
X0098863Y0424326D01*
X0097801Y0423886D01*
X0096989Y0423073D01*
X0096549Y0422012D01*
X0096549Y0420862D01*
X0096989Y0419801D01*
X0097801Y0418988D01*
X0098863Y0418548D01*
X0100012Y0418548D01*
X0101074Y0418988D01*
X0101887Y0419801D01*
X0101630Y0419543D02*
X0114077Y0419543D01*
X0115195Y0421142D02*
X0102327Y0421142D01*
X0102025Y0422740D02*
X0116915Y0422740D01*
X0121866Y0422740D02*
X0123466Y0422740D01*
X0123466Y0421142D02*
X0121866Y0421142D01*
X0121866Y0419543D02*
X0123466Y0419543D01*
X0123466Y0417945D02*
X0121866Y0417945D01*
X0121866Y0413149D02*
X0123466Y0413149D01*
X0123466Y0411551D02*
X0121866Y0411551D01*
X0121866Y0409952D02*
X0123466Y0409952D01*
X0123466Y0408354D02*
X0121866Y0408354D01*
X0121866Y0406755D02*
X0123466Y0406755D01*
X0117037Y0406755D02*
X0049132Y0406755D01*
X0049132Y0408354D02*
X0115266Y0408354D01*
X0114133Y0409952D02*
X0073483Y0409952D01*
X0075769Y0411551D02*
X0113418Y0411551D01*
X0112989Y0413149D02*
X0104636Y0413149D01*
X0101326Y0413149D02*
X0076703Y0413149D01*
X0077085Y0414748D02*
X0100199Y0414748D01*
X0100172Y0416346D02*
X0077085Y0416346D01*
X0077085Y0417945D02*
X0101261Y0417945D01*
X0097246Y0419543D02*
X0077085Y0419543D01*
X0077085Y0421142D02*
X0096549Y0421142D01*
X0096851Y0422740D02*
X0077085Y0422740D01*
X0077085Y0427536D02*
X0120958Y0427536D01*
X0117471Y0429134D02*
X0077085Y0429134D01*
X0077085Y0430733D02*
X0115873Y0430733D01*
X0114753Y0432331D02*
X0077085Y0432331D01*
X0077085Y0433930D02*
X0114091Y0433930D01*
X0113660Y0435528D02*
X0106470Y0435528D01*
X0107788Y0437127D02*
X0113660Y0437127D01*
X0113667Y0438725D02*
X0108450Y0438725D01*
X0108487Y0440324D02*
X0114329Y0440324D01*
X0114991Y0441922D02*
X0108173Y0441922D01*
X0107399Y0443521D02*
X0116448Y0443521D01*
X0129672Y0443521D02*
X0367066Y0443521D01*
X0378918Y0408354D02*
X0252352Y0408354D01*
X0242350Y0406755D02*
X0154689Y0406755D01*
X0154360Y0405156D02*
X0242350Y0405156D01*
X0242350Y0414748D02*
X0156782Y0414748D01*
X0157051Y0416346D02*
X0242350Y0416346D01*
X0242350Y0417945D02*
X0156276Y0417945D01*
X0152048Y0417945D02*
X0131946Y0417945D01*
X0131255Y0419543D02*
X0242350Y0419543D01*
X0242350Y0389171D02*
X0049132Y0389171D01*
X0049132Y0387573D02*
X0242350Y0387573D01*
X0242350Y0385974D02*
X0093041Y0385974D01*
X0090874Y0385974D02*
X0049132Y0385974D01*
X0049132Y0384376D02*
X0089278Y0384376D01*
X0089069Y0382777D02*
X0049132Y0382777D01*
X0049132Y0381179D02*
X0089989Y0381179D01*
X0094637Y0384376D02*
X0242350Y0384376D01*
X0251773Y0360398D02*
X0394625Y0360398D01*
X0394625Y0358800D02*
X0251773Y0358800D01*
X0251773Y0357201D02*
X0379887Y0357201D01*
X0380016Y0357330D02*
X0379204Y0356518D01*
X0378764Y0355456D01*
X0378764Y0354307D01*
X0379204Y0353245D01*
X0380016Y0352432D01*
X0381078Y0351992D01*
X0382228Y0351992D01*
X0383289Y0352432D01*
X0384102Y0353245D01*
X0384542Y0354307D01*
X0384542Y0355456D01*
X0384102Y0356518D01*
X0383289Y0357330D01*
X0382228Y0357770D01*
X0381078Y0357770D01*
X0380016Y0357330D01*
X0378825Y0355603D02*
X0251773Y0355603D01*
X0251773Y0354004D02*
X0378889Y0354004D01*
X0380080Y0352406D02*
X0362007Y0352406D01*
X0361422Y0352562D02*
X0358713Y0352562D01*
X0356096Y0351861D01*
X0353750Y0350506D01*
X0351834Y0348591D01*
X0350479Y0346244D01*
X0349778Y0343627D01*
X0349778Y0340918D01*
X0350479Y0338301D01*
X0351834Y0335954D01*
X0353750Y0334039D01*
X0356096Y0332684D01*
X0358713Y0331983D01*
X0361422Y0331983D01*
X0364039Y0332684D01*
X0366386Y0334039D01*
X0368302Y0335954D01*
X0369656Y0338301D01*
X0370357Y0340918D01*
X0370357Y0343627D01*
X0369656Y0346244D01*
X0368302Y0348591D01*
X0366386Y0350506D01*
X0364039Y0351861D01*
X0361422Y0352562D01*
X0358129Y0352406D02*
X0286416Y0352406D01*
X0285832Y0352562D02*
X0283122Y0352562D01*
X0280505Y0351861D01*
X0278159Y0350506D01*
X0276243Y0348591D01*
X0274889Y0346244D01*
X0274187Y0343627D01*
X0274187Y0340918D01*
X0274889Y0338301D01*
X0276243Y0335954D01*
X0278159Y0334039D01*
X0280505Y0332684D01*
X0283122Y0331983D01*
X0285832Y0331983D01*
X0288449Y0332684D01*
X0290795Y0334039D01*
X0292711Y0335954D01*
X0294066Y0338301D01*
X0294767Y0340918D01*
X0294767Y0343627D01*
X0294066Y0346244D01*
X0292711Y0348591D01*
X0290795Y0350506D01*
X0288449Y0351861D01*
X0285832Y0352562D01*
X0282538Y0352406D02*
X0252019Y0352406D01*
X0252862Y0350807D02*
X0278680Y0350807D01*
X0276861Y0349209D02*
X0252620Y0349209D01*
X0250868Y0347610D02*
X0275677Y0347610D01*
X0274826Y0346012D02*
X0225488Y0346012D01*
X0223890Y0347610D02*
X0249078Y0347610D01*
X0247325Y0349209D02*
X0222291Y0349209D01*
X0227087Y0344413D02*
X0274398Y0344413D01*
X0274187Y0342815D02*
X0228685Y0342815D01*
X0230284Y0341216D02*
X0274187Y0341216D01*
X0274536Y0339618D02*
X0230765Y0339618D01*
X0230765Y0338019D02*
X0275051Y0338019D01*
X0275974Y0336421D02*
X0230765Y0336421D01*
X0230765Y0334822D02*
X0277376Y0334822D01*
X0279571Y0333223D02*
X0230765Y0333223D01*
X0230765Y0331625D02*
X0320592Y0331625D01*
X0320371Y0332059D02*
X0320821Y0331175D01*
X0321404Y0330373D01*
X0322105Y0329672D01*
X0322908Y0329089D01*
X0323791Y0328639D01*
X0324734Y0328332D01*
X0325509Y0328209D01*
X0325509Y0333777D01*
X0319942Y0333777D01*
X0320065Y0333002D01*
X0320371Y0332059D01*
X0320029Y0333223D02*
X0289383Y0333223D01*
X0291579Y0334822D02*
X0325509Y0334822D01*
X0325509Y0335177D02*
X0325509Y0333777D01*
X0326909Y0333777D01*
X0326909Y0328209D01*
X0327685Y0328332D01*
X0328628Y0328639D01*
X0329511Y0329089D01*
X0330314Y0329672D01*
X0331015Y0330373D01*
X0331598Y0331175D01*
X0332048Y0332059D01*
X0332354Y0333002D01*
X0332477Y0333777D01*
X0326910Y0333777D01*
X0326910Y0335177D01*
X0332477Y0335177D01*
X0332354Y0335952D01*
X0332048Y0336896D01*
X0331598Y0337779D01*
X0331015Y0338581D01*
X0330314Y0339283D01*
X0329511Y0339865D01*
X0328628Y0340316D01*
X0327685Y0340622D01*
X0326909Y0340745D01*
X0326909Y0335177D01*
X0325509Y0335177D01*
X0319942Y0335177D01*
X0320065Y0335952D01*
X0320371Y0336896D01*
X0320821Y0337779D01*
X0321404Y0338581D01*
X0322105Y0339283D01*
X0322908Y0339865D01*
X0323791Y0340316D01*
X0324734Y0340622D01*
X0325509Y0340745D01*
X0325509Y0335177D01*
X0325509Y0336421D02*
X0326909Y0336421D01*
X0326909Y0338019D02*
X0325509Y0338019D01*
X0325509Y0339618D02*
X0326909Y0339618D01*
X0329853Y0339618D02*
X0350126Y0339618D01*
X0349778Y0341216D02*
X0294767Y0341216D01*
X0294767Y0342815D02*
X0349778Y0342815D01*
X0349989Y0344413D02*
X0294556Y0344413D01*
X0294128Y0346012D02*
X0350417Y0346012D01*
X0351268Y0347610D02*
X0293277Y0347610D01*
X0292093Y0349209D02*
X0352452Y0349209D01*
X0354271Y0350807D02*
X0290274Y0350807D01*
X0294419Y0339618D02*
X0322566Y0339618D01*
X0320996Y0338019D02*
X0293903Y0338019D01*
X0292980Y0336421D02*
X0320217Y0336421D01*
X0325509Y0333223D02*
X0326909Y0333223D01*
X0326909Y0331625D02*
X0325509Y0331625D01*
X0325509Y0330026D02*
X0326909Y0330026D01*
X0326909Y0328428D02*
X0325509Y0328428D01*
X0324440Y0328428D02*
X0309179Y0328428D01*
X0308948Y0328659D02*
X0307886Y0329098D01*
X0306737Y0329098D01*
X0305675Y0328659D01*
X0304863Y0327846D01*
X0304423Y0326784D01*
X0304423Y0325635D01*
X0304863Y0324573D01*
X0305675Y0323760D01*
X0306737Y0323320D01*
X0307886Y0323320D01*
X0308948Y0323760D01*
X0309761Y0324573D01*
X0310201Y0325635D01*
X0310201Y0326784D01*
X0309761Y0327846D01*
X0308948Y0328659D01*
X0310182Y0326829D02*
X0394625Y0326829D01*
X0394625Y0325231D02*
X0310033Y0325231D01*
X0308640Y0323632D02*
X0394625Y0323632D01*
X0394625Y0322034D02*
X0232143Y0322034D01*
X0230765Y0323632D02*
X0305984Y0323632D01*
X0304590Y0325231D02*
X0230765Y0325231D01*
X0230765Y0326829D02*
X0304442Y0326829D01*
X0305445Y0328428D02*
X0230765Y0328428D01*
X0230765Y0330026D02*
X0321751Y0330026D01*
X0327979Y0328428D02*
X0394625Y0328428D01*
X0394625Y0330026D02*
X0330668Y0330026D01*
X0331827Y0331625D02*
X0394625Y0331625D01*
X0394625Y0333223D02*
X0383372Y0333223D01*
X0383383Y0333234D02*
X0383823Y0334296D01*
X0383823Y0335446D01*
X0383383Y0336507D01*
X0382570Y0337320D01*
X0381509Y0337760D01*
X0380359Y0337760D01*
X0379297Y0337320D01*
X0378485Y0336507D01*
X0378045Y0335446D01*
X0378045Y0334296D01*
X0378485Y0333234D01*
X0379297Y0332422D01*
X0380359Y0331982D01*
X0381509Y0331982D01*
X0382570Y0332422D01*
X0383383Y0333234D01*
X0383823Y0334822D02*
X0394625Y0334822D01*
X0394625Y0336421D02*
X0383419Y0336421D01*
X0378449Y0336421D02*
X0368571Y0336421D01*
X0369494Y0338019D02*
X0394625Y0338019D01*
X0394625Y0339618D02*
X0370009Y0339618D01*
X0370357Y0341216D02*
X0394625Y0341216D01*
X0394625Y0342815D02*
X0370357Y0342815D01*
X0370147Y0344413D02*
X0394625Y0344413D01*
X0394625Y0346012D02*
X0369719Y0346012D01*
X0368868Y0347610D02*
X0394625Y0347610D01*
X0394625Y0349209D02*
X0367683Y0349209D01*
X0365865Y0350807D02*
X0394625Y0350807D01*
X0394625Y0352406D02*
X0383226Y0352406D01*
X0384417Y0354004D02*
X0394625Y0354004D01*
X0394625Y0355603D02*
X0384481Y0355603D01*
X0383419Y0357201D02*
X0394625Y0357201D01*
X0378045Y0334822D02*
X0367169Y0334822D01*
X0364974Y0333223D02*
X0378496Y0333223D01*
X0376728Y0321305D02*
X0373321Y0319894D01*
X0370714Y0317286D01*
X0369303Y0313880D01*
X0369303Y0310193D01*
X0370714Y0306786D01*
X0373321Y0304179D01*
X0376728Y0302768D01*
X0380415Y0302768D01*
X0383822Y0304179D01*
X0386429Y0306786D01*
X0387840Y0310193D01*
X0387840Y0313880D01*
X0386429Y0317286D01*
X0383822Y0319894D01*
X0380415Y0321305D01*
X0376728Y0321305D01*
X0374629Y0320435D02*
X0233742Y0320435D01*
X0235340Y0318837D02*
X0372265Y0318837D01*
X0370694Y0317238D02*
X0236939Y0317238D01*
X0238537Y0315640D02*
X0370032Y0315640D01*
X0369370Y0314041D02*
X0240136Y0314041D01*
X0241734Y0312443D02*
X0369303Y0312443D01*
X0369303Y0310844D02*
X0245266Y0310844D01*
X0246347Y0309246D02*
X0369695Y0309246D01*
X0370357Y0307647D02*
X0246309Y0307647D01*
X0245174Y0306049D02*
X0371451Y0306049D01*
X0373050Y0304450D02*
X0241008Y0304450D01*
X0241303Y0306049D02*
X0241891Y0306049D01*
X0240756Y0307647D02*
X0240589Y0307647D01*
X0239840Y0309246D02*
X0238238Y0309246D01*
X0238242Y0310844D02*
X0236640Y0310844D01*
X0236643Y0312443D02*
X0235041Y0312443D01*
X0235045Y0314041D02*
X0233443Y0314041D01*
X0233446Y0315640D02*
X0231844Y0315640D01*
X0231848Y0317238D02*
X0230246Y0317238D01*
X0230249Y0318837D02*
X0228647Y0318837D01*
X0228651Y0320435D02*
X0228336Y0320435D01*
X0226753Y0315640D02*
X0226736Y0315640D01*
X0226736Y0314041D02*
X0228352Y0314041D01*
X0229950Y0312443D02*
X0226736Y0312443D01*
X0227585Y0310844D02*
X0231549Y0310844D01*
X0233147Y0309246D02*
X0229183Y0309246D01*
X0230782Y0307647D02*
X0234746Y0307647D01*
X0235525Y0306049D02*
X0232380Y0306049D01*
X0234014Y0304450D02*
X0235820Y0304450D01*
X0236473Y0302852D02*
X0237830Y0302852D01*
X0238998Y0302852D02*
X0376525Y0302852D01*
X0380618Y0302852D02*
X0394625Y0302852D01*
X0394625Y0304450D02*
X0384093Y0304450D01*
X0385692Y0306049D02*
X0394625Y0306049D01*
X0394625Y0307647D02*
X0386786Y0307647D01*
X0387448Y0309246D02*
X0394625Y0309246D01*
X0394625Y0310844D02*
X0387840Y0310844D01*
X0387840Y0312443D02*
X0394625Y0312443D01*
X0394625Y0314041D02*
X0387773Y0314041D01*
X0387111Y0315640D02*
X0394625Y0315640D01*
X0394625Y0317238D02*
X0386449Y0317238D01*
X0384879Y0318837D02*
X0394625Y0318837D01*
X0394625Y0320435D02*
X0382514Y0320435D01*
X0384878Y0299039D02*
X0382710Y0298140D01*
X0381050Y0296481D01*
X0380152Y0294312D01*
X0380152Y0291965D01*
X0381050Y0289796D01*
X0382710Y0288137D01*
X0384878Y0287239D01*
X0387226Y0287239D01*
X0389394Y0288137D01*
X0391054Y0289796D01*
X0391952Y0291965D01*
X0391952Y0294312D01*
X0391054Y0296481D01*
X0389394Y0298140D01*
X0387226Y0299039D01*
X0384878Y0299039D01*
X0382626Y0298056D02*
X0373730Y0298056D01*
X0375085Y0296458D02*
X0381041Y0296458D01*
X0380379Y0294859D02*
X0375747Y0294859D01*
X0375810Y0293261D02*
X0380152Y0293261D01*
X0380277Y0291662D02*
X0375522Y0291662D01*
X0374785Y0290064D02*
X0380940Y0290064D01*
X0382382Y0288465D02*
X0373095Y0288465D01*
X0373967Y0282071D02*
X0381995Y0282071D01*
X0380549Y0280473D02*
X0375413Y0280473D01*
X0376076Y0278874D02*
X0379887Y0278874D01*
X0379758Y0277276D02*
X0376204Y0277276D01*
X0375980Y0275677D02*
X0379982Y0275677D01*
X0380644Y0274079D02*
X0375318Y0274079D01*
X0373737Y0272480D02*
X0382225Y0272480D01*
X0384485Y0267149D02*
X0382316Y0266251D01*
X0380656Y0264591D01*
X0379758Y0262422D01*
X0379758Y0260075D01*
X0380656Y0257907D01*
X0382316Y0256247D01*
X0384485Y0255349D01*
X0386832Y0255349D01*
X0389000Y0256247D01*
X0390660Y0257907D01*
X0391558Y0260075D01*
X0391558Y0262422D01*
X0390660Y0264591D01*
X0389000Y0266251D01*
X0386832Y0267149D01*
X0384485Y0267149D01*
X0382152Y0266086D02*
X0373811Y0266086D01*
X0375349Y0264488D02*
X0380614Y0264488D01*
X0379952Y0262889D02*
X0376011Y0262889D01*
X0376204Y0261290D02*
X0379758Y0261290D01*
X0379917Y0259692D02*
X0376045Y0259692D01*
X0375383Y0258093D02*
X0380579Y0258093D01*
X0382068Y0256495D02*
X0373894Y0256495D01*
X0372265Y0249826D02*
X0369918Y0249826D01*
X0367749Y0248928D01*
X0366090Y0247268D01*
X0365191Y0245100D01*
X0365191Y0242752D01*
X0366090Y0240584D01*
X0367749Y0238924D01*
X0369918Y0238026D01*
X0372265Y0238026D01*
X0374433Y0238924D01*
X0376093Y0240584D01*
X0376991Y0242752D01*
X0376991Y0245100D01*
X0376093Y0247268D01*
X0374433Y0248928D01*
X0372265Y0249826D01*
X0374859Y0248502D02*
X0382678Y0248502D01*
X0382710Y0248534D02*
X0381050Y0246874D01*
X0380152Y0244706D01*
X0380152Y0242359D01*
X0381050Y0240190D01*
X0382710Y0238530D01*
X0384878Y0237632D01*
X0387226Y0237632D01*
X0389394Y0238530D01*
X0391054Y0240190D01*
X0391952Y0242359D01*
X0391952Y0244706D01*
X0391054Y0246874D01*
X0389394Y0248534D01*
X0387226Y0249432D01*
X0384878Y0249432D01*
X0382710Y0248534D01*
X0381080Y0246904D02*
X0376244Y0246904D01*
X0376906Y0245305D02*
X0380400Y0245305D01*
X0380152Y0243707D02*
X0376991Y0243707D01*
X0376725Y0242108D02*
X0380256Y0242108D01*
X0380918Y0240510D02*
X0376019Y0240510D01*
X0374402Y0238911D02*
X0382329Y0238911D01*
X0389775Y0238911D02*
X0394625Y0238911D01*
X0394625Y0237313D02*
X0200450Y0237313D01*
X0200450Y0238911D02*
X0320791Y0238911D01*
X0320504Y0239199D02*
X0321483Y0238220D01*
X0322761Y0237691D01*
X0324146Y0237691D01*
X0325425Y0238220D01*
X0326403Y0239199D01*
X0326933Y0240478D01*
X0326933Y0241862D01*
X0326403Y0243141D01*
X0325425Y0244120D01*
X0324146Y0244650D01*
X0322761Y0244650D01*
X0321483Y0244120D01*
X0320504Y0243141D01*
X0319974Y0241862D01*
X0319974Y0240478D01*
X0320504Y0239199D01*
X0319974Y0240510D02*
X0200450Y0240510D01*
X0200450Y0242108D02*
X0320076Y0242108D01*
X0321070Y0243707D02*
X0200942Y0243707D01*
X0201539Y0245305D02*
X0365277Y0245305D01*
X0365191Y0243707D02*
X0325838Y0243707D01*
X0326831Y0242108D02*
X0365458Y0242108D01*
X0366164Y0240510D02*
X0326933Y0240510D01*
X0326116Y0238911D02*
X0367780Y0238911D01*
X0365939Y0246904D02*
X0239178Y0246904D01*
X0239728Y0248502D02*
X0367324Y0248502D01*
X0382316Y0224912D02*
X0384485Y0225810D01*
X0386832Y0225810D01*
X0389000Y0224912D01*
X0390660Y0223252D01*
X0391558Y0221084D01*
X0391558Y0218737D01*
X0390660Y0216568D01*
X0389000Y0214908D01*
X0386832Y0214010D01*
X0384485Y0214010D01*
X0382316Y0214908D01*
X0380656Y0216568D01*
X0379758Y0218737D01*
X0379758Y0221084D01*
X0380656Y0223252D01*
X0382316Y0224912D01*
X0381929Y0224525D02*
X0373246Y0224525D01*
X0374653Y0222926D02*
X0380521Y0222926D01*
X0379859Y0221328D02*
X0375316Y0221328D01*
X0375417Y0219729D02*
X0379758Y0219729D01*
X0380009Y0218131D02*
X0375166Y0218131D01*
X0374482Y0216532D02*
X0380692Y0216532D01*
X0382291Y0214934D02*
X0372884Y0214934D01*
X0360308Y0210138D02*
X0394625Y0210138D01*
X0394625Y0208540D02*
X0360499Y0208540D01*
X0360021Y0206941D02*
X0394625Y0206941D01*
X0394625Y0214934D02*
X0389026Y0214934D01*
X0390624Y0216532D02*
X0394625Y0216532D01*
X0394625Y0218131D02*
X0391307Y0218131D01*
X0391558Y0219729D02*
X0394625Y0219729D01*
X0394625Y0221328D02*
X0391457Y0221328D01*
X0390795Y0222926D02*
X0394625Y0222926D01*
X0394625Y0224525D02*
X0389388Y0224525D01*
X0394625Y0226123D02*
X0200450Y0226123D01*
X0200450Y0227722D02*
X0394625Y0227722D01*
X0394625Y0229320D02*
X0200450Y0229320D01*
X0200450Y0230919D02*
X0394625Y0230919D01*
X0394625Y0232517D02*
X0200450Y0232517D01*
X0200450Y0234116D02*
X0394625Y0234116D01*
X0394625Y0235714D02*
X0200450Y0235714D01*
X0196850Y0226123D02*
X0176942Y0226123D01*
X0177130Y0224525D02*
X0196850Y0224525D01*
X0195443Y0222926D02*
X0179248Y0222926D01*
X0180257Y0221328D02*
X0193845Y0221328D01*
X0192246Y0219729D02*
X0180116Y0219729D01*
X0194974Y0181365D02*
X0098729Y0181365D01*
X0099566Y0179766D02*
X0195220Y0179766D01*
X0195682Y0155476D02*
X0194532Y0155476D01*
X0193471Y0155037D01*
X0192658Y0154224D01*
X0192218Y0153162D01*
X0192218Y0152013D01*
X0192658Y0150951D01*
X0193471Y0150138D01*
X0194532Y0149698D01*
X0195682Y0149698D01*
X0196744Y0150138D01*
X0197556Y0150951D01*
X0197996Y0152013D01*
X0197996Y0153162D01*
X0197556Y0154224D01*
X0196744Y0155037D01*
X0195682Y0155476D01*
X0197570Y0154190D02*
X0208559Y0154190D01*
X0216591Y0157387D02*
X0266761Y0157387D01*
X0266761Y0158986D02*
X0217287Y0158986D01*
X0216985Y0160584D02*
X0266761Y0160584D01*
X0266761Y0162183D02*
X0215186Y0162183D01*
X0215186Y0163781D02*
X0216241Y0163781D01*
X0218855Y0163781D02*
X0266761Y0163781D01*
X0269123Y0162183D02*
X0350866Y0162183D01*
X0352379Y0163781D02*
X0394625Y0163781D01*
X0394625Y0162183D02*
X0353977Y0162183D01*
X0352465Y0160584D02*
X0269123Y0160584D01*
X0269123Y0158986D02*
X0354063Y0158986D01*
X0355576Y0160584D02*
X0394625Y0160584D01*
X0394625Y0158986D02*
X0357174Y0158986D01*
X0355662Y0157387D02*
X0269123Y0157387D01*
X0269123Y0155789D02*
X0357260Y0155789D01*
X0358773Y0157387D02*
X0394625Y0157387D01*
X0394625Y0155789D02*
X0360371Y0155789D01*
X0358859Y0154190D02*
X0269123Y0154190D01*
X0269123Y0152592D02*
X0360457Y0152592D01*
X0361970Y0154190D02*
X0381090Y0154190D01*
X0387077Y0154190D02*
X0394625Y0154190D01*
X0394625Y0152592D02*
X0388880Y0152592D01*
X0389662Y0150993D02*
X0394625Y0150993D01*
X0394625Y0149395D02*
X0389983Y0149395D01*
X0389953Y0147796D02*
X0394625Y0147796D01*
X0394625Y0146198D02*
X0389291Y0146198D01*
X0387982Y0144599D02*
X0394625Y0144599D01*
X0381782Y0135008D02*
X0375260Y0135008D01*
X0375260Y0133410D02*
X0380922Y0133410D01*
X0380546Y0131811D02*
X0375260Y0131811D01*
X0375260Y0130213D02*
X0380546Y0130213D01*
X0381184Y0128614D02*
X0375260Y0128614D01*
X0375260Y0127016D02*
X0382414Y0127016D01*
X0360868Y0125417D02*
X0359268Y0125417D01*
X0359268Y0123819D02*
X0360868Y0123819D01*
X0360868Y0122220D02*
X0359268Y0122220D01*
X0359268Y0120621D02*
X0360868Y0120621D01*
X0360868Y0119023D02*
X0359268Y0119023D01*
X0355858Y0125417D02*
X0293931Y0125417D01*
X0295530Y0123819D02*
X0353254Y0123819D01*
X0359368Y0088651D02*
X0360768Y0088651D01*
X0360768Y0087053D02*
X0359368Y0087053D01*
X0359368Y0085454D02*
X0360768Y0085454D01*
X0366099Y0082257D02*
X0367066Y0082257D01*
X0367066Y0080659D02*
X0365367Y0080659D01*
X0363872Y0079060D02*
X0367066Y0079060D01*
X0356263Y0079060D02*
X0340917Y0079060D01*
X0342546Y0080659D02*
X0354769Y0080659D01*
X0334337Y0079060D02*
X0279244Y0079060D01*
X0277349Y0082257D02*
X0262648Y0082257D01*
X0263101Y0082710D02*
X0263999Y0084878D01*
X0263999Y0087226D01*
X0263101Y0089394D01*
X0261441Y0091054D01*
X0259273Y0091952D01*
X0256926Y0091952D01*
X0254757Y0091054D01*
X0253097Y0089394D01*
X0252199Y0087226D01*
X0252199Y0084878D01*
X0253097Y0082710D01*
X0254757Y0081050D01*
X0256926Y0080152D01*
X0259273Y0080152D01*
X0261441Y0081050D01*
X0263101Y0082710D01*
X0263576Y0083856D02*
X0277657Y0083856D01*
X0277396Y0085454D02*
X0263999Y0085454D01*
X0263999Y0087053D02*
X0277488Y0087053D01*
X0278150Y0088651D02*
X0273381Y0088651D01*
X0274040Y0088924D02*
X0275699Y0090584D01*
X0276598Y0092752D01*
X0276598Y0095100D01*
X0275699Y0097268D01*
X0274040Y0098928D01*
X0271871Y0099826D01*
X0269524Y0099826D01*
X0267356Y0098928D01*
X0265696Y0097268D01*
X0264798Y0095100D01*
X0264798Y0092752D01*
X0265696Y0090584D01*
X0267356Y0088924D01*
X0269524Y0088026D01*
X0271871Y0088026D01*
X0274040Y0088924D01*
X0275365Y0090250D02*
X0279544Y0090250D01*
X0276223Y0091848D02*
X0289419Y0091848D01*
X0289207Y0092359D02*
X0290105Y0090190D01*
X0291765Y0088530D01*
X0293933Y0087632D01*
X0296281Y0087632D01*
X0298449Y0088530D01*
X0300109Y0090190D01*
X0301007Y0092359D01*
X0301007Y0094706D01*
X0300109Y0096874D01*
X0298449Y0098534D01*
X0296281Y0099432D01*
X0293933Y0099432D01*
X0291765Y0098534D01*
X0290105Y0096874D01*
X0289207Y0094706D01*
X0289207Y0092359D01*
X0289207Y0093447D02*
X0276598Y0093447D01*
X0276598Y0095045D02*
X0289348Y0095045D01*
X0290010Y0096644D02*
X0275958Y0096644D01*
X0274725Y0098242D02*
X0291473Y0098242D01*
X0298741Y0098242D02*
X0318639Y0098242D01*
X0317406Y0096644D02*
X0300204Y0096644D01*
X0300866Y0095045D02*
X0316766Y0095045D01*
X0316766Y0093447D02*
X0301007Y0093447D01*
X0300796Y0091848D02*
X0307530Y0091848D01*
X0307513Y0091841D02*
X0305853Y0090181D01*
X0304955Y0088013D01*
X0304955Y0085666D01*
X0305853Y0083497D01*
X0307513Y0081838D01*
X0309682Y0080939D01*
X0312029Y0080939D01*
X0314197Y0081838D01*
X0315857Y0083497D01*
X0316755Y0085666D01*
X0316755Y0088013D01*
X0315857Y0090181D01*
X0314197Y0091841D01*
X0312029Y0092739D01*
X0309682Y0092739D01*
X0307513Y0091841D01*
X0305922Y0090250D02*
X0300134Y0090250D01*
X0298570Y0088651D02*
X0305220Y0088651D01*
X0304955Y0087053D02*
X0289105Y0087053D01*
X0289196Y0085454D02*
X0305043Y0085454D01*
X0305705Y0083856D02*
X0288936Y0083856D01*
X0288239Y0082257D02*
X0307093Y0082257D01*
X0314617Y0082257D02*
X0331997Y0082257D01*
X0331727Y0083856D02*
X0316005Y0083856D01*
X0316667Y0085454D02*
X0331808Y0085454D01*
X0332471Y0087053D02*
X0316755Y0087053D01*
X0316491Y0088651D02*
X0319983Y0088651D01*
X0317998Y0090250D02*
X0315789Y0090250D01*
X0317141Y0091848D02*
X0314180Y0091848D01*
X0325349Y0088651D02*
X0333851Y0088651D01*
X0332708Y0080659D02*
X0286640Y0080659D01*
X0288442Y0088651D02*
X0291644Y0088651D01*
X0290081Y0090250D02*
X0287048Y0090250D01*
X0275751Y0080659D02*
X0260496Y0080659D01*
X0255702Y0080659D02*
X0230341Y0080659D01*
X0231744Y0082257D02*
X0253550Y0082257D01*
X0252623Y0083856D02*
X0232406Y0083856D01*
X0232503Y0085454D02*
X0252199Y0085454D01*
X0252199Y0087053D02*
X0242452Y0087053D01*
X0241950Y0086845D02*
X0244118Y0087743D01*
X0245778Y0089403D01*
X0246676Y0091571D01*
X0246676Y0093918D01*
X0245778Y0096087D01*
X0244118Y0097747D01*
X0241950Y0098645D01*
X0239603Y0098645D01*
X0237434Y0097747D01*
X0235775Y0096087D01*
X0234876Y0093918D01*
X0234876Y0091571D01*
X0235775Y0089403D01*
X0237434Y0087743D01*
X0239603Y0086845D01*
X0241950Y0086845D01*
X0239101Y0087053D02*
X0232249Y0087053D01*
X0231560Y0088651D02*
X0236526Y0088651D01*
X0235424Y0090250D02*
X0229962Y0090250D01*
X0234876Y0091848D02*
X0156836Y0091848D01*
X0155441Y0093447D02*
X0234876Y0093447D01*
X0235343Y0095045D02*
X0157040Y0095045D01*
X0158638Y0096644D02*
X0236331Y0096644D01*
X0238631Y0098242D02*
X0160237Y0098242D01*
X0158343Y0101439D02*
X0077085Y0101439D01*
X0077085Y0099841D02*
X0156744Y0099841D01*
X0155146Y0098242D02*
X0077085Y0098242D01*
X0077085Y0096644D02*
X0143785Y0096644D01*
X0142187Y0095045D02*
X0077085Y0095045D01*
X0077085Y0093447D02*
X0085772Y0093447D01*
X0083895Y0091848D02*
X0077085Y0091848D01*
X0077085Y0090250D02*
X0082728Y0090250D01*
X0081973Y0088651D02*
X0077085Y0088651D01*
X0077085Y0087053D02*
X0081526Y0087053D01*
X0081467Y0083856D02*
X0077085Y0083856D01*
X0077085Y0085454D02*
X0090370Y0085454D01*
X0090370Y0087053D02*
X0091970Y0087053D01*
X0091970Y0088651D02*
X0090370Y0088651D01*
X0090370Y0090250D02*
X0091970Y0090250D01*
X0091970Y0091848D02*
X0090370Y0091848D01*
X0090370Y0093447D02*
X0091970Y0093447D01*
X0096568Y0093447D02*
X0140588Y0093447D01*
X0138990Y0091848D02*
X0125007Y0091848D01*
X0125484Y0091651D02*
X0124422Y0092091D01*
X0123273Y0092091D01*
X0122211Y0091651D01*
X0121398Y0090838D01*
X0120958Y0089776D01*
X0120958Y0088627D01*
X0121398Y0087565D01*
X0122211Y0086752D01*
X0123273Y0086313D01*
X0124422Y0086313D01*
X0125484Y0086752D01*
X0126296Y0087565D01*
X0126736Y0088627D01*
X0126736Y0089776D01*
X0126296Y0090838D01*
X0125484Y0091651D01*
X0126540Y0090250D02*
X0131046Y0090250D01*
X0130407Y0088651D02*
X0126736Y0088651D01*
X0125784Y0087053D02*
X0130733Y0087053D01*
X0133260Y0083856D02*
X0100873Y0083856D01*
X0100500Y0082257D02*
X0131661Y0082257D01*
X0134859Y0085454D02*
X0091970Y0085454D01*
X0098446Y0091848D02*
X0122688Y0091848D01*
X0121154Y0090250D02*
X0099612Y0090250D01*
X0100368Y0088651D02*
X0120958Y0088651D01*
X0121910Y0087053D02*
X0100814Y0087053D01*
X0099829Y0080659D02*
X0118305Y0080659D01*
X0117809Y0079060D02*
X0098757Y0079060D01*
X0083583Y0079060D02*
X0077085Y0079060D01*
X0077085Y0080659D02*
X0082511Y0080659D01*
X0081840Y0082257D02*
X0077085Y0082257D01*
X0077085Y0103038D02*
X0159941Y0103038D01*
X0158434Y0090250D02*
X0223244Y0090250D01*
X0221646Y0088651D02*
X0160033Y0088651D01*
X0160044Y0087053D02*
X0220958Y0087053D01*
X0220703Y0085454D02*
X0161243Y0085454D01*
X0162841Y0083856D02*
X0220801Y0083856D01*
X0221463Y0082257D02*
X0164440Y0082257D01*
X0166038Y0080659D02*
X0222865Y0080659D01*
X0245027Y0088651D02*
X0252790Y0088651D01*
X0253953Y0090250D02*
X0246129Y0090250D01*
X0246676Y0091848D02*
X0256675Y0091848D01*
X0259523Y0091848D02*
X0265172Y0091848D01*
X0264798Y0093447D02*
X0246676Y0093447D01*
X0246210Y0095045D02*
X0264798Y0095045D01*
X0265437Y0096644D02*
X0245221Y0096644D01*
X0242922Y0098242D02*
X0266670Y0098242D01*
X0266030Y0090250D02*
X0262245Y0090250D01*
X0263409Y0088651D02*
X0268014Y0088651D01*
X0275715Y0109432D02*
X0206373Y0109432D01*
X0204860Y0107833D02*
X0192070Y0107833D01*
X0193597Y0109432D02*
X0203262Y0109432D01*
X0204774Y0111030D02*
X0274803Y0111030D01*
X0273934Y0117424D02*
X0200619Y0117424D01*
X0200619Y0119023D02*
X0274357Y0119023D01*
X0275041Y0120621D02*
X0200619Y0120621D01*
X0200619Y0122220D02*
X0276100Y0122220D01*
X0277663Y0123819D02*
X0200619Y0123819D01*
X0200619Y0125417D02*
X0280268Y0125417D01*
X0283677Y0125417D02*
X0285277Y0125417D01*
X0285277Y0123819D02*
X0283677Y0123819D01*
X0283677Y0122220D02*
X0285277Y0122220D01*
X0285277Y0120621D02*
X0283677Y0120621D01*
X0283677Y0119023D02*
X0285277Y0119023D01*
X0298323Y0106235D02*
X0303880Y0106235D01*
X0309700Y0106235D02*
X0310002Y0106235D01*
X0266923Y0168577D02*
X0266500Y0168577D01*
X0266139Y0170175D02*
X0266923Y0170175D01*
X0267135Y0174971D02*
X0244338Y0174971D01*
X0245844Y0176569D02*
X0268734Y0176569D01*
X0273443Y0178168D02*
X0334881Y0178168D01*
X0336394Y0179766D02*
X0370176Y0179766D01*
X0371013Y0181365D02*
X0334795Y0181365D01*
X0389426Y0248502D02*
X0394625Y0248502D01*
X0394625Y0246904D02*
X0391024Y0246904D01*
X0391704Y0245305D02*
X0394625Y0245305D01*
X0394625Y0243707D02*
X0391952Y0243707D01*
X0391848Y0242108D02*
X0394625Y0242108D01*
X0394625Y0240510D02*
X0391186Y0240510D01*
X0389248Y0256495D02*
X0394625Y0256495D01*
X0394625Y0258093D02*
X0390737Y0258093D01*
X0391399Y0259692D02*
X0394625Y0259692D01*
X0394625Y0261290D02*
X0391558Y0261290D01*
X0391365Y0262889D02*
X0394625Y0262889D01*
X0394625Y0264488D02*
X0390703Y0264488D01*
X0389165Y0266086D02*
X0394625Y0266086D01*
X0394625Y0267685D02*
X0321923Y0267685D01*
X0323402Y0269283D02*
X0394625Y0269283D01*
X0394625Y0288465D02*
X0389722Y0288465D01*
X0391164Y0290064D02*
X0394625Y0290064D01*
X0394625Y0291662D02*
X0391827Y0291662D01*
X0391952Y0293261D02*
X0394625Y0293261D01*
X0394625Y0294859D02*
X0391725Y0294859D01*
X0391063Y0296458D02*
X0394625Y0296458D01*
X0394625Y0298056D02*
X0389478Y0298056D01*
X0394625Y0299655D02*
X0238154Y0299655D01*
X0237966Y0301253D02*
X0394625Y0301253D01*
X0366641Y0282071D02*
X0322924Y0282071D01*
X0321037Y0280473D02*
X0365194Y0280473D01*
X0364532Y0278874D02*
X0314673Y0278874D01*
X0316272Y0277276D02*
X0364404Y0277276D01*
X0364628Y0275677D02*
X0317870Y0275677D01*
X0319469Y0274079D02*
X0365290Y0274079D01*
X0366090Y0298056D02*
X0237181Y0298056D01*
X0228888Y0304450D02*
X0200358Y0304450D01*
X0199668Y0306049D02*
X0227289Y0306049D01*
X0225691Y0307647D02*
X0177917Y0307647D01*
X0177680Y0309246D02*
X0224092Y0309246D01*
X0223162Y0330026D02*
X0184853Y0330026D01*
X0178649Y0326829D02*
X0163980Y0326829D01*
X0162634Y0325231D02*
X0178045Y0325231D01*
X0178385Y0323632D02*
X0049132Y0323632D01*
X0049132Y0325231D02*
X0151604Y0325231D01*
X0151713Y0324967D02*
X0152526Y0324154D01*
X0153588Y0323714D01*
X0154737Y0323714D01*
X0155799Y0324154D01*
X0156611Y0324967D01*
X0157051Y0326028D01*
X0157051Y0327178D01*
X0156611Y0328240D01*
X0155799Y0329052D01*
X0154737Y0329492D01*
X0153588Y0329492D01*
X0152526Y0329052D01*
X0151713Y0328240D01*
X0151273Y0327178D01*
X0151273Y0326028D01*
X0151713Y0324967D01*
X0151273Y0326829D02*
X0049132Y0326829D01*
X0049132Y0328428D02*
X0151901Y0328428D01*
X0156423Y0328428D02*
X0158388Y0328428D01*
X0158517Y0326829D02*
X0157051Y0326829D01*
X0156721Y0325231D02*
X0159864Y0325231D01*
X0159405Y0330026D02*
X0049132Y0330026D01*
X0049132Y0344413D02*
X0134143Y0344413D01*
X0133628Y0344626D02*
X0134690Y0344187D01*
X0135839Y0344187D01*
X0136901Y0344626D01*
X0137714Y0345439D01*
X0138154Y0346501D01*
X0138154Y0347650D01*
X0137714Y0348712D01*
X0136901Y0349525D01*
X0135839Y0349965D01*
X0134690Y0349965D01*
X0133628Y0349525D01*
X0132815Y0348712D01*
X0132376Y0347650D01*
X0132376Y0346501D01*
X0132815Y0345439D01*
X0133628Y0344626D01*
X0132578Y0346012D02*
X0049132Y0346012D01*
X0049132Y0347610D02*
X0072102Y0347610D01*
X0072185Y0347408D02*
X0072998Y0346595D01*
X0074060Y0346155D01*
X0075209Y0346155D01*
X0076271Y0346595D01*
X0077084Y0347408D01*
X0077524Y0348469D01*
X0077524Y0349619D01*
X0077084Y0350681D01*
X0076271Y0351493D01*
X0075209Y0351933D01*
X0074060Y0351933D01*
X0072998Y0351493D01*
X0072185Y0350681D01*
X0071746Y0349619D01*
X0071746Y0348469D01*
X0072185Y0347408D01*
X0071746Y0349209D02*
X0049132Y0349209D01*
X0049132Y0350807D02*
X0072312Y0350807D01*
X0076957Y0350807D02*
X0155492Y0350807D01*
X0154757Y0350503D02*
X0153097Y0348843D01*
X0152199Y0346674D01*
X0152199Y0344327D01*
X0153097Y0342159D01*
X0154757Y0340499D01*
X0156926Y0339601D01*
X0159273Y0339601D01*
X0161441Y0340499D01*
X0163101Y0342159D01*
X0163999Y0344327D01*
X0163999Y0346674D01*
X0163101Y0348843D01*
X0161441Y0350503D01*
X0159273Y0351401D01*
X0156926Y0351401D01*
X0154757Y0350503D01*
X0153463Y0349209D02*
X0137217Y0349209D01*
X0138154Y0347610D02*
X0152587Y0347610D01*
X0152199Y0346012D02*
X0137951Y0346012D01*
X0136386Y0344413D02*
X0152199Y0344413D01*
X0152826Y0342815D02*
X0096295Y0342815D01*
X0097577Y0341216D02*
X0154040Y0341216D01*
X0156885Y0339618D02*
X0098239Y0339618D01*
X0101392Y0355603D02*
X0049132Y0355603D01*
X0049132Y0357201D02*
X0100486Y0357201D01*
X0100701Y0358800D02*
X0049132Y0358800D01*
X0049132Y0360398D02*
X0102326Y0360398D01*
X0077524Y0349209D02*
X0133312Y0349209D01*
X0132376Y0347610D02*
X0077168Y0347610D01*
X0135649Y0354004D02*
X0194035Y0354004D01*
X0192436Y0355603D02*
X0136185Y0355603D01*
X0160706Y0350807D02*
X0204739Y0350807D01*
X0203398Y0349209D02*
X0162735Y0349209D01*
X0163612Y0347610D02*
X0203272Y0347610D01*
X0204290Y0346012D02*
X0163999Y0346012D01*
X0163999Y0344413D02*
X0214909Y0344413D01*
X0206445Y0342815D02*
X0163373Y0342815D01*
X0162158Y0341216D02*
X0205998Y0341216D01*
X0206403Y0339618D02*
X0159313Y0339618D01*
X0204350Y0361997D02*
X0207480Y0361997D01*
X0251700Y0282071D02*
X0259534Y0282071D01*
X0259890Y0280473D02*
X0319571Y0280473D01*
X0318190Y0285268D02*
X0261429Y0285268D01*
X0255521Y0280473D02*
X0252445Y0280473D01*
X0254043Y0278874D02*
X0254817Y0278874D01*
X0252149Y0275677D02*
X0223441Y0275677D01*
X0223546Y0277276D02*
X0250550Y0277276D01*
X0247018Y0278874D02*
X0222512Y0278874D01*
X0222152Y0274079D02*
X0253747Y0274079D01*
X0201130Y0277276D02*
X0176736Y0277276D01*
X0176219Y0275677D02*
X0198424Y0275677D01*
X0117171Y0234116D02*
X0061293Y0234116D01*
X0062322Y0232517D02*
X0116367Y0232517D01*
X0116624Y0230919D02*
X0062818Y0230919D01*
X0062818Y0229320D02*
X0118454Y0229320D01*
X0101264Y0200547D02*
X0049132Y0200547D01*
X0049132Y0198949D02*
X0100880Y0198949D01*
X0101377Y0197350D02*
X0049132Y0197350D01*
X0049132Y0195752D02*
X0100908Y0195752D01*
X0105155Y0192554D02*
X0106319Y0192554D01*
X0109092Y0192554D02*
X0110256Y0192554D01*
X0118468Y0154190D02*
X0192644Y0154190D01*
X0192218Y0152592D02*
X0118219Y0152592D01*
X0116429Y0150993D02*
X0192640Y0150993D01*
X0197574Y0150993D02*
X0200244Y0150993D01*
X0198646Y0149395D02*
X0118133Y0149395D01*
X0118862Y0147796D02*
X0197631Y0147796D01*
X0197631Y0146198D02*
X0118573Y0146198D01*
X0100419Y0111030D02*
X0074290Y0111030D01*
X0076103Y0109432D02*
X0101342Y0109432D01*
X0135546Y0090250D02*
X0137391Y0090250D01*
X0189659Y0106235D02*
X0206459Y0106235D01*
X0201843Y0152592D02*
X0197996Y0152592D01*
X0310831Y0272480D02*
X0315976Y0272480D01*
X0317574Y0270882D02*
X0312429Y0270882D01*
X0314028Y0269283D02*
X0317993Y0269283D01*
X0319472Y0267685D02*
X0315626Y0267685D01*
X0314377Y0274079D02*
X0309232Y0274079D01*
X0307634Y0275677D02*
X0312779Y0275677D01*
X0332389Y0333223D02*
X0355161Y0333223D01*
X0352966Y0334822D02*
X0326910Y0334822D01*
X0332202Y0336421D02*
X0351565Y0336421D01*
X0350642Y0338019D02*
X0331423Y0338019D01*
X0388009Y0392368D02*
X0394625Y0392368D01*
X0394625Y0393967D02*
X0391119Y0393967D01*
X0392717Y0395565D02*
X0394625Y0395565D01*
X0394625Y0397164D02*
X0393682Y0397164D01*
X0394344Y0398762D02*
X0394625Y0398762D01*
X0098704Y0435528D02*
X0085998Y0435528D01*
X0087315Y0437127D02*
X0097387Y0437127D01*
X0096725Y0438725D02*
X0087978Y0438725D01*
X0088015Y0440324D02*
X0096687Y0440324D01*
X0097002Y0441922D02*
X0087700Y0441922D01*
X0086927Y0443521D02*
X0097775Y0443521D01*
X0078232Y0435528D02*
X0077085Y0435528D01*
X0055321Y0219729D02*
X0049132Y0219729D01*
X0049132Y0218131D02*
X0052700Y0218131D01*
X0051579Y0216532D02*
X0049132Y0216532D01*
X0049132Y0214934D02*
X0051018Y0214934D01*
X0051018Y0213335D02*
X0049132Y0213335D01*
X0049132Y0211737D02*
X0051471Y0211737D01*
X0052441Y0210138D02*
X0049132Y0210138D01*
X0049132Y0208540D02*
X0054695Y0208540D01*
X0075203Y0192554D02*
X0078004Y0192554D01*
X0076633Y0190956D02*
X0076574Y0190956D01*
X0075703Y0187759D02*
X0077503Y0187759D01*
D15*
X0079359Y0189989D03*
X0073847Y0189989D03*
X0073847Y0184477D03*
X0073847Y0178965D03*
X0061249Y0196682D03*
X0061249Y0200619D03*
X0057312Y0200619D03*
X0057312Y0196682D03*
X0053375Y0196682D03*
X0053375Y0200619D03*
X0085265Y0227391D03*
X0088808Y0229753D03*
X0098257Y0246288D03*
X0098257Y0251800D03*
X0098257Y0257312D03*
X0113611Y0276209D03*
X0113217Y0282115D03*
X0121686Y0284890D03*
X0103375Y0280146D03*
X0095894Y0299044D03*
X0120304Y0323454D03*
X0120304Y0327391D03*
X0120304Y0331328D03*
X0120304Y0335265D03*
X0124241Y0335265D03*
X0128178Y0335265D03*
X0132115Y0335265D03*
X0136052Y0335265D03*
X0139989Y0335265D03*
X0143926Y0335265D03*
X0143926Y0331328D03*
X0139989Y0331328D03*
X0136052Y0331328D03*
X0132115Y0331328D03*
X0128178Y0331328D03*
X0124241Y0331328D03*
X0124241Y0327391D03*
X0128178Y0327391D03*
X0132115Y0327391D03*
X0136052Y0327391D03*
X0139989Y0327391D03*
X0143926Y0327391D03*
X0143926Y0323454D03*
X0139989Y0323454D03*
X0136052Y0323454D03*
X0132115Y0323454D03*
X0128178Y0323454D03*
X0124241Y0323454D03*
X0135265Y0347076D03*
X0133296Y0355737D03*
X0140776Y0387233D03*
X0151800Y0386839D03*
X0151800Y0406524D03*
X0154162Y0415973D03*
X0155737Y0422666D03*
X0155737Y0426603D03*
X0155737Y0430540D03*
X0155737Y0434477D03*
X0159280Y0438808D03*
X0159280Y0443139D03*
X0212036Y0444713D03*
X0212036Y0440776D03*
X0247076Y0434477D03*
X0247076Y0429359D03*
X0246839Y0424241D03*
X0266367Y0441170D03*
X0275028Y0440383D03*
X0279753Y0410855D03*
X0277391Y0408493D03*
X0274241Y0399044D03*
X0258887Y0384083D03*
X0253375Y0384083D03*
X0247863Y0384083D03*
X0244150Y0353205D03*
X0249973Y0350366D03*
X0221485Y0326997D03*
X0221485Y0323454D03*
X0221485Y0319517D03*
X0217548Y0323060D03*
X0217548Y0326997D03*
X0206524Y0329753D03*
X0201800Y0324241D03*
X0199438Y0321879D03*
X0197076Y0312824D03*
X0197469Y0304162D03*
X0198650Y0294713D03*
X0196682Y0284477D03*
X0174241Y0290383D03*
X0169123Y0284871D03*
X0173847Y0277391D03*
X0173847Y0298257D03*
X0175028Y0308099D03*
X0180934Y0325028D03*
X0183296Y0332509D03*
X0195894Y0335918D03*
X0199831Y0336052D03*
X0208887Y0341170D03*
X0206131Y0348257D03*
X0202587Y0359674D03*
X0196682Y0357706D03*
X0190383Y0345501D03*
X0171630Y0358638D03*
X0161249Y0327784D03*
X0154162Y0326603D03*
X0103375Y0357706D03*
X0092351Y0356131D03*
X0092351Y0360068D03*
X0088414Y0360068D03*
X0084477Y0360068D03*
X0084477Y0356131D03*
X0088414Y0356131D03*
X0088414Y0352194D03*
X0084477Y0352194D03*
X0092351Y0352194D03*
X0079359Y0338414D03*
X0074635Y0349044D03*
X0065580Y0341957D03*
X0065580Y0338020D03*
X0065580Y0334083D03*
X0065580Y0330146D03*
X0061643Y0330146D03*
X0061643Y0334083D03*
X0061643Y0338020D03*
X0061643Y0341957D03*
X0057706Y0341957D03*
X0057706Y0338020D03*
X0057706Y0334083D03*
X0057706Y0330146D03*
X0053769Y0330146D03*
X0053769Y0334083D03*
X0053769Y0338020D03*
X0053769Y0341957D03*
X0053769Y0345894D03*
X0053769Y0349831D03*
X0053769Y0353769D03*
X0053769Y0357706D03*
X0051406Y0360855D03*
X0065973Y0367942D03*
X0066761Y0377784D03*
X0067942Y0390383D03*
X0071879Y0390383D03*
X0081328Y0394713D03*
X0090383Y0406524D03*
X0102981Y0415580D03*
X0099438Y0421437D03*
X0091957Y0383296D03*
X0050225Y0385658D03*
X0077391Y0259674D03*
X0077391Y0252587D03*
X0113217Y0227391D03*
X0114005Y0236446D03*
X0119256Y0232115D03*
X0136839Y0240383D03*
X0147076Y0240776D03*
X0153375Y0232115D03*
X0156196Y0240776D03*
X0161249Y0235265D03*
X0174241Y0225095D03*
X0177391Y0220698D03*
X0181721Y0210068D03*
X0191564Y0220304D03*
X0176997Y0242745D03*
X0176997Y0246682D03*
X0198650Y0245501D03*
X0207706Y0253769D03*
X0220304Y0240383D03*
X0236839Y0248650D03*
X0235658Y0261249D03*
X0235658Y0265186D03*
X0235658Y0269123D03*
X0235658Y0273060D03*
X0239595Y0273060D03*
X0239595Y0269123D03*
X0239595Y0265186D03*
X0239595Y0261249D03*
X0243532Y0261249D03*
X0243532Y0265186D03*
X0243532Y0269123D03*
X0243532Y0273060D03*
X0247469Y0273060D03*
X0247469Y0269123D03*
X0247469Y0265186D03*
X0247469Y0261249D03*
X0251406Y0261249D03*
X0251406Y0265186D03*
X0251406Y0269123D03*
X0251406Y0273060D03*
X0249044Y0280934D03*
X0255737Y0288808D03*
X0257706Y0278572D03*
X0271879Y0293532D03*
X0272666Y0303375D03*
X0272666Y0307312D03*
X0272666Y0311249D03*
X0268729Y0311249D03*
X0264792Y0311249D03*
X0260855Y0311249D03*
X0256918Y0311249D03*
X0256918Y0307312D03*
X0260855Y0307312D03*
X0264792Y0307312D03*
X0268729Y0307312D03*
X0268729Y0303375D03*
X0264792Y0303375D03*
X0260855Y0303375D03*
X0256918Y0303375D03*
X0243532Y0308493D03*
X0238414Y0305737D03*
X0235265Y0300225D03*
X0221879Y0310068D03*
X0220698Y0276603D03*
X0236446Y0213217D03*
X0240383Y0213217D03*
X0240383Y0209280D03*
X0240383Y0205343D03*
X0240383Y0201406D03*
X0236446Y0201406D03*
X0236446Y0205343D03*
X0236446Y0209280D03*
X0247469Y0215973D03*
X0256918Y0210068D03*
X0280540Y0191957D03*
X0263611Y0168729D03*
X0221091Y0179753D03*
X0217548Y0166367D03*
X0211249Y0166367D03*
X0214398Y0159280D03*
X0195107Y0152587D03*
X0190383Y0148257D03*
X0186839Y0149831D03*
X0171879Y0133690D03*
X0172886Y0106744D03*
X0179826Y0093926D03*
X0195107Y0084871D03*
X0199438Y0084871D03*
X0199438Y0088808D03*
X0203769Y0084871D03*
X0208493Y0086446D03*
X0190383Y0171485D03*
X0192745Y0173847D03*
X0197863Y0180934D03*
X0178965Y0179359D03*
X0175028Y0179359D03*
X0171091Y0179359D03*
X0171091Y0175422D03*
X0175028Y0175422D03*
X0178965Y0175422D03*
X0178965Y0183296D03*
X0175028Y0183296D03*
X0171091Y0183296D03*
X0171091Y0187233D03*
X0175028Y0187233D03*
X0178965Y0187233D03*
X0162430Y0187233D03*
X0162430Y0183296D03*
X0162430Y0179359D03*
X0162430Y0175422D03*
X0158493Y0175422D03*
X0158493Y0179359D03*
X0158493Y0183296D03*
X0158493Y0187233D03*
X0158099Y0194713D03*
X0142745Y0198257D03*
X0141957Y0204556D03*
X0139595Y0210068D03*
X0133296Y0217154D03*
X0126603Y0202194D03*
X0130934Y0191957D03*
X0132115Y0185265D03*
X0138808Y0187627D03*
X0115580Y0153769D03*
X0115973Y0147469D03*
X0117942Y0136052D03*
X0119123Y0127784D03*
X0123060Y0127784D03*
X0126209Y0125422D03*
X0123060Y0123060D03*
X0126209Y0120698D03*
X0126209Y0116761D03*
X0106131Y0134607D03*
X0095107Y0138808D03*
X0086052Y0124635D03*
X0079359Y0131721D03*
X0081721Y0134083D03*
X0073060Y0137995D03*
X0061249Y0156131D03*
X0064005Y0114005D03*
X0058493Y0114005D03*
X0052981Y0114005D03*
X0069517Y0114005D03*
X0073847Y0113217D03*
X0078572Y0091957D03*
X0078572Y0088020D03*
X0078572Y0084083D03*
X0078572Y0080146D03*
X0082509Y0091957D03*
X0108099Y0083690D03*
X0115973Y0083690D03*
X0120698Y0078965D03*
X0123847Y0089202D03*
X0133296Y0088414D03*
X0111643Y0195107D03*
X0111643Y0199044D03*
X0107706Y0199044D03*
X0107706Y0195107D03*
X0103769Y0195107D03*
X0103769Y0199044D03*
X0295894Y0291170D03*
X0296682Y0301013D03*
X0296682Y0304950D03*
X0296682Y0308887D03*
X0296682Y0312824D03*
X0300619Y0312824D03*
X0304556Y0312824D03*
X0308493Y0312824D03*
X0308493Y0308887D03*
X0304556Y0308887D03*
X0300619Y0308887D03*
X0300619Y0304950D03*
X0304556Y0304950D03*
X0308493Y0304950D03*
X0308493Y0301013D03*
X0304556Y0301013D03*
X0300619Y0301013D03*
X0307312Y0326209D03*
X0324635Y0305343D03*
X0328572Y0305343D03*
X0332509Y0305343D03*
X0336446Y0305343D03*
X0340383Y0305343D03*
X0340383Y0301406D03*
X0340383Y0297469D03*
X0340383Y0293532D03*
X0336446Y0293532D03*
X0336446Y0297469D03*
X0336446Y0301406D03*
X0332509Y0301406D03*
X0332509Y0297469D03*
X0332509Y0293532D03*
X0328572Y0293532D03*
X0328572Y0297469D03*
X0328572Y0301406D03*
X0324635Y0301406D03*
X0324635Y0297469D03*
X0324635Y0293532D03*
X0320304Y0283296D03*
X0320698Y0270304D03*
X0321091Y0259674D03*
X0298257Y0260461D03*
X0313217Y0234083D03*
X0313217Y0230146D03*
X0313217Y0226209D03*
X0313217Y0222272D03*
X0317154Y0222272D03*
X0317154Y0226209D03*
X0317154Y0230146D03*
X0317154Y0234083D03*
X0317942Y0195107D03*
X0321879Y0195107D03*
X0325816Y0195107D03*
X0329753Y0195107D03*
X0329753Y0191170D03*
X0329753Y0187233D03*
X0329753Y0183296D03*
X0325816Y0183296D03*
X0325816Y0187233D03*
X0325816Y0191170D03*
X0321879Y0191170D03*
X0321879Y0187233D03*
X0321879Y0183296D03*
X0317942Y0183296D03*
X0317942Y0187233D03*
X0317942Y0191170D03*
X0314005Y0191170D03*
X0314005Y0187233D03*
X0314005Y0183296D03*
X0314005Y0195107D03*
X0357312Y0287233D03*
X0380934Y0334871D03*
X0381653Y0354881D03*
X0391170Y0365186D03*
X0366761Y0377391D03*
X0366761Y0381328D03*
X0362824Y0381328D03*
X0358887Y0381328D03*
X0354950Y0381328D03*
X0351013Y0381328D03*
X0347076Y0381328D03*
X0347076Y0377391D03*
X0351013Y0377391D03*
X0354950Y0377391D03*
X0358887Y0377391D03*
X0362824Y0377391D03*
X0347076Y0373454D03*
X0347076Y0369517D03*
X0332115Y0369517D03*
X0332115Y0373454D03*
X0328178Y0373454D03*
X0328178Y0369517D03*
X0328178Y0365580D03*
X0332115Y0365580D03*
X0332115Y0361643D03*
X0328178Y0361643D03*
X0328178Y0357706D03*
X0332115Y0357706D03*
X0340776Y0419517D03*
X0332115Y0427784D03*
X0332115Y0431721D03*
X0332115Y0435658D03*
X0332115Y0439595D03*
X0333690Y0443139D03*
X0337627Y0443139D03*
X0341564Y0443139D03*
X0345501Y0443139D03*
X0349438Y0443139D03*
X0362036Y0414398D03*
D16*
X0320304Y0283296D02*
X0260855Y0283296D01*
X0255737Y0288414D01*
X0255737Y0288808D01*
X0249438Y0280934D02*
X0255737Y0274635D01*
X0306131Y0274635D01*
X0321091Y0259674D01*
X0320698Y0270304D02*
X0312430Y0278572D01*
X0257706Y0278572D01*
X0249438Y0280934D02*
X0249044Y0280934D01*
X0235265Y0300225D02*
X0232902Y0302981D01*
X0224936Y0310947D01*
X0224936Y0324697D01*
X0224933Y0324701D01*
X0224936Y0325359D01*
X0224936Y0326018D01*
X0224940Y0326021D01*
X0225000Y0336868D01*
X0225000Y0336868D01*
X0206918Y0354950D01*
X0206131Y0354950D01*
X0206064Y0355017D01*
X0195568Y0355017D01*
X0191946Y0358638D01*
X0171630Y0358638D01*
X0196682Y0357706D02*
X0200753Y0357706D01*
X0201474Y0356985D01*
X0207245Y0356985D01*
X0223847Y0340776D01*
X0226603Y0337493D01*
X0226536Y0325355D01*
X0226536Y0318402D01*
X0238414Y0306524D01*
X0238414Y0305737D01*
X0242745Y0308887D02*
X0243139Y0308887D01*
X0243532Y0308493D01*
X0242745Y0308887D02*
X0228965Y0322666D01*
X0228965Y0339989D01*
X0209280Y0359674D01*
X0202587Y0359674D01*
X0244150Y0353205D02*
X0244150Y0426433D01*
X0247076Y0429359D01*
X0250552Y0431001D02*
X0247076Y0434477D01*
X0250552Y0431001D02*
X0250552Y0375096D01*
X0249973Y0374516D01*
X0249973Y0350366D01*
X0198650Y0245501D02*
X0198650Y0223588D01*
X0192678Y0217615D01*
X0189269Y0217615D01*
X0181721Y0210068D01*
X0156196Y0240776D02*
X0150878Y0240776D01*
X0148189Y0243465D01*
X0145962Y0243465D01*
X0144387Y0241890D01*
X0144387Y0228245D01*
X0133296Y0217154D01*
X0147076Y0195894D02*
X0147076Y0240776D01*
X0147076Y0195894D02*
X0138808Y0187627D01*
X0171879Y0133690D02*
X0171879Y0130934D01*
X0171879Y0130540D01*
X0171879Y0128965D01*
X0171879Y0112430D01*
X0154332Y0094883D01*
X0144571Y0094883D01*
X0138101Y0088414D01*
X0133296Y0088414D01*
X0130915Y0078965D02*
X0120698Y0078965D01*
X0130915Y0078965D02*
X0145233Y0093283D01*
X0152855Y0093283D01*
X0158244Y0087894D01*
X0158244Y0085907D01*
X0165973Y0078178D01*
X0275816Y0078178D01*
X0283296Y0085658D01*
D17*
X0323454Y0241170D03*
D18*
X0214792Y0172666D03*
M02*
