G75*
%MOIN*%
%OFA0B0*%
%FSLAX25Y25*%
%IPPOS*%
%LPD*%
%AMOC8*
5,1,8,0,0,1.08239X$1,22.5*
%
%ADD10C,0.01600*%
%ADD11C,0.00000*%
D10*
X0071485Y0072666D02*
X0071485Y0106131D01*
X0043532Y0106131D01*
X0043532Y0415186D01*
X0071485Y0415186D01*
X0071485Y0450619D01*
X0372666Y0450619D01*
X0372666Y0415186D01*
X0400225Y0415186D01*
X0400225Y0106131D01*
X0372666Y0106131D01*
X0372666Y0072666D01*
X0071485Y0072666D01*
D11*
X0086701Y0175816D02*
X0086703Y0175949D01*
X0086709Y0176082D01*
X0086719Y0176215D01*
X0086733Y0176347D01*
X0086750Y0176479D01*
X0086772Y0176610D01*
X0086798Y0176741D01*
X0086827Y0176871D01*
X0086861Y0176999D01*
X0086898Y0177127D01*
X0086939Y0177254D01*
X0086983Y0177379D01*
X0087032Y0177503D01*
X0087084Y0177626D01*
X0087139Y0177746D01*
X0087199Y0177866D01*
X0087262Y0177983D01*
X0087328Y0178098D01*
X0087397Y0178212D01*
X0087470Y0178323D01*
X0087547Y0178432D01*
X0087626Y0178539D01*
X0087709Y0178643D01*
X0087795Y0178745D01*
X0087883Y0178844D01*
X0087975Y0178941D01*
X0088069Y0179034D01*
X0088166Y0179125D01*
X0088266Y0179213D01*
X0088369Y0179298D01*
X0088474Y0179380D01*
X0088581Y0179459D01*
X0088691Y0179534D01*
X0088802Y0179606D01*
X0088916Y0179675D01*
X0089032Y0179741D01*
X0089150Y0179802D01*
X0089270Y0179861D01*
X0089391Y0179916D01*
X0089514Y0179967D01*
X0089638Y0180014D01*
X0089764Y0180058D01*
X0089891Y0180098D01*
X0090019Y0180134D01*
X0090148Y0180167D01*
X0090278Y0180195D01*
X0090409Y0180220D01*
X0090540Y0180240D01*
X0090672Y0180257D01*
X0090804Y0180270D01*
X0090937Y0180279D01*
X0091070Y0180284D01*
X0091203Y0180285D01*
X0091336Y0180282D01*
X0091469Y0180275D01*
X0091602Y0180264D01*
X0091734Y0180249D01*
X0091866Y0180230D01*
X0091997Y0180208D01*
X0092127Y0180181D01*
X0092257Y0180151D01*
X0092385Y0180117D01*
X0092513Y0180078D01*
X0092639Y0180037D01*
X0092764Y0179991D01*
X0092888Y0179942D01*
X0093010Y0179889D01*
X0093130Y0179832D01*
X0093249Y0179772D01*
X0093366Y0179708D01*
X0093481Y0179641D01*
X0093594Y0179571D01*
X0093704Y0179497D01*
X0093813Y0179420D01*
X0093919Y0179339D01*
X0094023Y0179256D01*
X0094124Y0179170D01*
X0094222Y0179080D01*
X0094318Y0178988D01*
X0094411Y0178893D01*
X0094501Y0178795D01*
X0094589Y0178694D01*
X0094673Y0178591D01*
X0094754Y0178486D01*
X0094832Y0178378D01*
X0094907Y0178268D01*
X0094978Y0178155D01*
X0095046Y0178041D01*
X0095110Y0177925D01*
X0095171Y0177806D01*
X0095229Y0177686D01*
X0095283Y0177565D01*
X0095333Y0177441D01*
X0095380Y0177317D01*
X0095422Y0177191D01*
X0095461Y0177063D01*
X0095497Y0176935D01*
X0095528Y0176806D01*
X0095556Y0176676D01*
X0095579Y0176545D01*
X0095599Y0176413D01*
X0095615Y0176281D01*
X0095627Y0176148D01*
X0095635Y0176016D01*
X0095639Y0175883D01*
X0095639Y0175749D01*
X0095635Y0175616D01*
X0095627Y0175484D01*
X0095615Y0175351D01*
X0095599Y0175219D01*
X0095579Y0175087D01*
X0095556Y0174956D01*
X0095528Y0174826D01*
X0095497Y0174697D01*
X0095461Y0174569D01*
X0095422Y0174441D01*
X0095380Y0174315D01*
X0095333Y0174191D01*
X0095283Y0174067D01*
X0095229Y0173946D01*
X0095171Y0173826D01*
X0095110Y0173707D01*
X0095046Y0173591D01*
X0094978Y0173477D01*
X0094907Y0173364D01*
X0094832Y0173254D01*
X0094754Y0173146D01*
X0094673Y0173041D01*
X0094589Y0172938D01*
X0094501Y0172837D01*
X0094411Y0172739D01*
X0094318Y0172644D01*
X0094222Y0172552D01*
X0094124Y0172462D01*
X0094023Y0172376D01*
X0093919Y0172293D01*
X0093813Y0172212D01*
X0093704Y0172135D01*
X0093594Y0172061D01*
X0093481Y0171991D01*
X0093366Y0171924D01*
X0093249Y0171860D01*
X0093130Y0171800D01*
X0093010Y0171743D01*
X0092888Y0171690D01*
X0092764Y0171641D01*
X0092639Y0171595D01*
X0092513Y0171554D01*
X0092385Y0171515D01*
X0092257Y0171481D01*
X0092127Y0171451D01*
X0091997Y0171424D01*
X0091866Y0171402D01*
X0091734Y0171383D01*
X0091602Y0171368D01*
X0091469Y0171357D01*
X0091336Y0171350D01*
X0091203Y0171347D01*
X0091070Y0171348D01*
X0090937Y0171353D01*
X0090804Y0171362D01*
X0090672Y0171375D01*
X0090540Y0171392D01*
X0090409Y0171412D01*
X0090278Y0171437D01*
X0090148Y0171465D01*
X0090019Y0171498D01*
X0089891Y0171534D01*
X0089764Y0171574D01*
X0089638Y0171618D01*
X0089514Y0171665D01*
X0089391Y0171716D01*
X0089270Y0171771D01*
X0089150Y0171830D01*
X0089032Y0171891D01*
X0088916Y0171957D01*
X0088802Y0172026D01*
X0088691Y0172098D01*
X0088581Y0172173D01*
X0088474Y0172252D01*
X0088369Y0172334D01*
X0088266Y0172419D01*
X0088166Y0172507D01*
X0088069Y0172598D01*
X0087975Y0172691D01*
X0087883Y0172788D01*
X0087795Y0172887D01*
X0087709Y0172989D01*
X0087626Y0173093D01*
X0087547Y0173200D01*
X0087470Y0173309D01*
X0087397Y0173420D01*
X0087328Y0173534D01*
X0087262Y0173649D01*
X0087199Y0173766D01*
X0087139Y0173886D01*
X0087084Y0174006D01*
X0087032Y0174129D01*
X0086983Y0174253D01*
X0086939Y0174378D01*
X0086898Y0174505D01*
X0086861Y0174633D01*
X0086827Y0174761D01*
X0086798Y0174891D01*
X0086772Y0175022D01*
X0086750Y0175153D01*
X0086733Y0175285D01*
X0086719Y0175417D01*
X0086709Y0175550D01*
X0086703Y0175683D01*
X0086701Y0175816D01*
X0086701Y0312036D02*
X0086703Y0312169D01*
X0086709Y0312302D01*
X0086719Y0312435D01*
X0086733Y0312567D01*
X0086750Y0312699D01*
X0086772Y0312830D01*
X0086798Y0312961D01*
X0086827Y0313091D01*
X0086861Y0313219D01*
X0086898Y0313347D01*
X0086939Y0313474D01*
X0086983Y0313599D01*
X0087032Y0313723D01*
X0087084Y0313846D01*
X0087139Y0313966D01*
X0087199Y0314086D01*
X0087262Y0314203D01*
X0087328Y0314318D01*
X0087397Y0314432D01*
X0087470Y0314543D01*
X0087547Y0314652D01*
X0087626Y0314759D01*
X0087709Y0314863D01*
X0087795Y0314965D01*
X0087883Y0315064D01*
X0087975Y0315161D01*
X0088069Y0315254D01*
X0088166Y0315345D01*
X0088266Y0315433D01*
X0088369Y0315518D01*
X0088474Y0315600D01*
X0088581Y0315679D01*
X0088691Y0315754D01*
X0088802Y0315826D01*
X0088916Y0315895D01*
X0089032Y0315961D01*
X0089150Y0316022D01*
X0089270Y0316081D01*
X0089391Y0316136D01*
X0089514Y0316187D01*
X0089638Y0316234D01*
X0089764Y0316278D01*
X0089891Y0316318D01*
X0090019Y0316354D01*
X0090148Y0316387D01*
X0090278Y0316415D01*
X0090409Y0316440D01*
X0090540Y0316460D01*
X0090672Y0316477D01*
X0090804Y0316490D01*
X0090937Y0316499D01*
X0091070Y0316504D01*
X0091203Y0316505D01*
X0091336Y0316502D01*
X0091469Y0316495D01*
X0091602Y0316484D01*
X0091734Y0316469D01*
X0091866Y0316450D01*
X0091997Y0316428D01*
X0092127Y0316401D01*
X0092257Y0316371D01*
X0092385Y0316337D01*
X0092513Y0316298D01*
X0092639Y0316257D01*
X0092764Y0316211D01*
X0092888Y0316162D01*
X0093010Y0316109D01*
X0093130Y0316052D01*
X0093249Y0315992D01*
X0093366Y0315928D01*
X0093481Y0315861D01*
X0093594Y0315791D01*
X0093704Y0315717D01*
X0093813Y0315640D01*
X0093919Y0315559D01*
X0094023Y0315476D01*
X0094124Y0315390D01*
X0094222Y0315300D01*
X0094318Y0315208D01*
X0094411Y0315113D01*
X0094501Y0315015D01*
X0094589Y0314914D01*
X0094673Y0314811D01*
X0094754Y0314706D01*
X0094832Y0314598D01*
X0094907Y0314488D01*
X0094978Y0314375D01*
X0095046Y0314261D01*
X0095110Y0314145D01*
X0095171Y0314026D01*
X0095229Y0313906D01*
X0095283Y0313785D01*
X0095333Y0313661D01*
X0095380Y0313537D01*
X0095422Y0313411D01*
X0095461Y0313283D01*
X0095497Y0313155D01*
X0095528Y0313026D01*
X0095556Y0312896D01*
X0095579Y0312765D01*
X0095599Y0312633D01*
X0095615Y0312501D01*
X0095627Y0312368D01*
X0095635Y0312236D01*
X0095639Y0312103D01*
X0095639Y0311969D01*
X0095635Y0311836D01*
X0095627Y0311704D01*
X0095615Y0311571D01*
X0095599Y0311439D01*
X0095579Y0311307D01*
X0095556Y0311176D01*
X0095528Y0311046D01*
X0095497Y0310917D01*
X0095461Y0310789D01*
X0095422Y0310661D01*
X0095380Y0310535D01*
X0095333Y0310411D01*
X0095283Y0310287D01*
X0095229Y0310166D01*
X0095171Y0310046D01*
X0095110Y0309927D01*
X0095046Y0309811D01*
X0094978Y0309697D01*
X0094907Y0309584D01*
X0094832Y0309474D01*
X0094754Y0309366D01*
X0094673Y0309261D01*
X0094589Y0309158D01*
X0094501Y0309057D01*
X0094411Y0308959D01*
X0094318Y0308864D01*
X0094222Y0308772D01*
X0094124Y0308682D01*
X0094023Y0308596D01*
X0093919Y0308513D01*
X0093813Y0308432D01*
X0093704Y0308355D01*
X0093594Y0308281D01*
X0093481Y0308211D01*
X0093366Y0308144D01*
X0093249Y0308080D01*
X0093130Y0308020D01*
X0093010Y0307963D01*
X0092888Y0307910D01*
X0092764Y0307861D01*
X0092639Y0307815D01*
X0092513Y0307774D01*
X0092385Y0307735D01*
X0092257Y0307701D01*
X0092127Y0307671D01*
X0091997Y0307644D01*
X0091866Y0307622D01*
X0091734Y0307603D01*
X0091602Y0307588D01*
X0091469Y0307577D01*
X0091336Y0307570D01*
X0091203Y0307567D01*
X0091070Y0307568D01*
X0090937Y0307573D01*
X0090804Y0307582D01*
X0090672Y0307595D01*
X0090540Y0307612D01*
X0090409Y0307632D01*
X0090278Y0307657D01*
X0090148Y0307685D01*
X0090019Y0307718D01*
X0089891Y0307754D01*
X0089764Y0307794D01*
X0089638Y0307838D01*
X0089514Y0307885D01*
X0089391Y0307936D01*
X0089270Y0307991D01*
X0089150Y0308050D01*
X0089032Y0308111D01*
X0088916Y0308177D01*
X0088802Y0308246D01*
X0088691Y0308318D01*
X0088581Y0308393D01*
X0088474Y0308472D01*
X0088369Y0308554D01*
X0088266Y0308639D01*
X0088166Y0308727D01*
X0088069Y0308818D01*
X0087975Y0308911D01*
X0087883Y0309008D01*
X0087795Y0309107D01*
X0087709Y0309209D01*
X0087626Y0309313D01*
X0087547Y0309420D01*
X0087470Y0309529D01*
X0087397Y0309640D01*
X0087328Y0309754D01*
X0087262Y0309869D01*
X0087199Y0309986D01*
X0087139Y0310106D01*
X0087084Y0310226D01*
X0087032Y0310349D01*
X0086983Y0310473D01*
X0086939Y0310598D01*
X0086898Y0310725D01*
X0086861Y0310853D01*
X0086827Y0310981D01*
X0086798Y0311111D01*
X0086772Y0311242D01*
X0086750Y0311373D01*
X0086733Y0311505D01*
X0086719Y0311637D01*
X0086709Y0311770D01*
X0086703Y0311903D01*
X0086701Y0312036D01*
X0374103Y0312036D02*
X0374105Y0312169D01*
X0374111Y0312302D01*
X0374121Y0312435D01*
X0374135Y0312567D01*
X0374152Y0312699D01*
X0374174Y0312830D01*
X0374200Y0312961D01*
X0374229Y0313091D01*
X0374263Y0313219D01*
X0374300Y0313347D01*
X0374341Y0313474D01*
X0374385Y0313599D01*
X0374434Y0313723D01*
X0374486Y0313846D01*
X0374541Y0313966D01*
X0374601Y0314086D01*
X0374664Y0314203D01*
X0374730Y0314318D01*
X0374799Y0314432D01*
X0374872Y0314543D01*
X0374949Y0314652D01*
X0375028Y0314759D01*
X0375111Y0314863D01*
X0375197Y0314965D01*
X0375285Y0315064D01*
X0375377Y0315161D01*
X0375471Y0315254D01*
X0375568Y0315345D01*
X0375668Y0315433D01*
X0375771Y0315518D01*
X0375876Y0315600D01*
X0375983Y0315679D01*
X0376093Y0315754D01*
X0376204Y0315826D01*
X0376318Y0315895D01*
X0376434Y0315961D01*
X0376552Y0316022D01*
X0376672Y0316081D01*
X0376793Y0316136D01*
X0376916Y0316187D01*
X0377040Y0316234D01*
X0377166Y0316278D01*
X0377293Y0316318D01*
X0377421Y0316354D01*
X0377550Y0316387D01*
X0377680Y0316415D01*
X0377811Y0316440D01*
X0377942Y0316460D01*
X0378074Y0316477D01*
X0378206Y0316490D01*
X0378339Y0316499D01*
X0378472Y0316504D01*
X0378605Y0316505D01*
X0378738Y0316502D01*
X0378871Y0316495D01*
X0379004Y0316484D01*
X0379136Y0316469D01*
X0379268Y0316450D01*
X0379399Y0316428D01*
X0379529Y0316401D01*
X0379659Y0316371D01*
X0379787Y0316337D01*
X0379915Y0316298D01*
X0380041Y0316257D01*
X0380166Y0316211D01*
X0380290Y0316162D01*
X0380412Y0316109D01*
X0380532Y0316052D01*
X0380651Y0315992D01*
X0380768Y0315928D01*
X0380883Y0315861D01*
X0380996Y0315791D01*
X0381106Y0315717D01*
X0381215Y0315640D01*
X0381321Y0315559D01*
X0381425Y0315476D01*
X0381526Y0315390D01*
X0381624Y0315300D01*
X0381720Y0315208D01*
X0381813Y0315113D01*
X0381903Y0315015D01*
X0381991Y0314914D01*
X0382075Y0314811D01*
X0382156Y0314706D01*
X0382234Y0314598D01*
X0382309Y0314488D01*
X0382380Y0314375D01*
X0382448Y0314261D01*
X0382512Y0314145D01*
X0382573Y0314026D01*
X0382631Y0313906D01*
X0382685Y0313785D01*
X0382735Y0313661D01*
X0382782Y0313537D01*
X0382824Y0313411D01*
X0382863Y0313283D01*
X0382899Y0313155D01*
X0382930Y0313026D01*
X0382958Y0312896D01*
X0382981Y0312765D01*
X0383001Y0312633D01*
X0383017Y0312501D01*
X0383029Y0312368D01*
X0383037Y0312236D01*
X0383041Y0312103D01*
X0383041Y0311969D01*
X0383037Y0311836D01*
X0383029Y0311704D01*
X0383017Y0311571D01*
X0383001Y0311439D01*
X0382981Y0311307D01*
X0382958Y0311176D01*
X0382930Y0311046D01*
X0382899Y0310917D01*
X0382863Y0310789D01*
X0382824Y0310661D01*
X0382782Y0310535D01*
X0382735Y0310411D01*
X0382685Y0310287D01*
X0382631Y0310166D01*
X0382573Y0310046D01*
X0382512Y0309927D01*
X0382448Y0309811D01*
X0382380Y0309697D01*
X0382309Y0309584D01*
X0382234Y0309474D01*
X0382156Y0309366D01*
X0382075Y0309261D01*
X0381991Y0309158D01*
X0381903Y0309057D01*
X0381813Y0308959D01*
X0381720Y0308864D01*
X0381624Y0308772D01*
X0381526Y0308682D01*
X0381425Y0308596D01*
X0381321Y0308513D01*
X0381215Y0308432D01*
X0381106Y0308355D01*
X0380996Y0308281D01*
X0380883Y0308211D01*
X0380768Y0308144D01*
X0380651Y0308080D01*
X0380532Y0308020D01*
X0380412Y0307963D01*
X0380290Y0307910D01*
X0380166Y0307861D01*
X0380041Y0307815D01*
X0379915Y0307774D01*
X0379787Y0307735D01*
X0379659Y0307701D01*
X0379529Y0307671D01*
X0379399Y0307644D01*
X0379268Y0307622D01*
X0379136Y0307603D01*
X0379004Y0307588D01*
X0378871Y0307577D01*
X0378738Y0307570D01*
X0378605Y0307567D01*
X0378472Y0307568D01*
X0378339Y0307573D01*
X0378206Y0307582D01*
X0378074Y0307595D01*
X0377942Y0307612D01*
X0377811Y0307632D01*
X0377680Y0307657D01*
X0377550Y0307685D01*
X0377421Y0307718D01*
X0377293Y0307754D01*
X0377166Y0307794D01*
X0377040Y0307838D01*
X0376916Y0307885D01*
X0376793Y0307936D01*
X0376672Y0307991D01*
X0376552Y0308050D01*
X0376434Y0308111D01*
X0376318Y0308177D01*
X0376204Y0308246D01*
X0376093Y0308318D01*
X0375983Y0308393D01*
X0375876Y0308472D01*
X0375771Y0308554D01*
X0375668Y0308639D01*
X0375568Y0308727D01*
X0375471Y0308818D01*
X0375377Y0308911D01*
X0375285Y0309008D01*
X0375197Y0309107D01*
X0375111Y0309209D01*
X0375028Y0309313D01*
X0374949Y0309420D01*
X0374872Y0309529D01*
X0374799Y0309640D01*
X0374730Y0309754D01*
X0374664Y0309869D01*
X0374601Y0309986D01*
X0374541Y0310106D01*
X0374486Y0310226D01*
X0374434Y0310349D01*
X0374385Y0310473D01*
X0374341Y0310598D01*
X0374300Y0310725D01*
X0374263Y0310853D01*
X0374229Y0310981D01*
X0374200Y0311111D01*
X0374174Y0311242D01*
X0374152Y0311373D01*
X0374135Y0311505D01*
X0374121Y0311637D01*
X0374111Y0311770D01*
X0374105Y0311903D01*
X0374103Y0312036D01*
X0374103Y0175816D02*
X0374105Y0175949D01*
X0374111Y0176082D01*
X0374121Y0176215D01*
X0374135Y0176347D01*
X0374152Y0176479D01*
X0374174Y0176610D01*
X0374200Y0176741D01*
X0374229Y0176871D01*
X0374263Y0176999D01*
X0374300Y0177127D01*
X0374341Y0177254D01*
X0374385Y0177379D01*
X0374434Y0177503D01*
X0374486Y0177626D01*
X0374541Y0177746D01*
X0374601Y0177866D01*
X0374664Y0177983D01*
X0374730Y0178098D01*
X0374799Y0178212D01*
X0374872Y0178323D01*
X0374949Y0178432D01*
X0375028Y0178539D01*
X0375111Y0178643D01*
X0375197Y0178745D01*
X0375285Y0178844D01*
X0375377Y0178941D01*
X0375471Y0179034D01*
X0375568Y0179125D01*
X0375668Y0179213D01*
X0375771Y0179298D01*
X0375876Y0179380D01*
X0375983Y0179459D01*
X0376093Y0179534D01*
X0376204Y0179606D01*
X0376318Y0179675D01*
X0376434Y0179741D01*
X0376552Y0179802D01*
X0376672Y0179861D01*
X0376793Y0179916D01*
X0376916Y0179967D01*
X0377040Y0180014D01*
X0377166Y0180058D01*
X0377293Y0180098D01*
X0377421Y0180134D01*
X0377550Y0180167D01*
X0377680Y0180195D01*
X0377811Y0180220D01*
X0377942Y0180240D01*
X0378074Y0180257D01*
X0378206Y0180270D01*
X0378339Y0180279D01*
X0378472Y0180284D01*
X0378605Y0180285D01*
X0378738Y0180282D01*
X0378871Y0180275D01*
X0379004Y0180264D01*
X0379136Y0180249D01*
X0379268Y0180230D01*
X0379399Y0180208D01*
X0379529Y0180181D01*
X0379659Y0180151D01*
X0379787Y0180117D01*
X0379915Y0180078D01*
X0380041Y0180037D01*
X0380166Y0179991D01*
X0380290Y0179942D01*
X0380412Y0179889D01*
X0380532Y0179832D01*
X0380651Y0179772D01*
X0380768Y0179708D01*
X0380883Y0179641D01*
X0380996Y0179571D01*
X0381106Y0179497D01*
X0381215Y0179420D01*
X0381321Y0179339D01*
X0381425Y0179256D01*
X0381526Y0179170D01*
X0381624Y0179080D01*
X0381720Y0178988D01*
X0381813Y0178893D01*
X0381903Y0178795D01*
X0381991Y0178694D01*
X0382075Y0178591D01*
X0382156Y0178486D01*
X0382234Y0178378D01*
X0382309Y0178268D01*
X0382380Y0178155D01*
X0382448Y0178041D01*
X0382512Y0177925D01*
X0382573Y0177806D01*
X0382631Y0177686D01*
X0382685Y0177565D01*
X0382735Y0177441D01*
X0382782Y0177317D01*
X0382824Y0177191D01*
X0382863Y0177063D01*
X0382899Y0176935D01*
X0382930Y0176806D01*
X0382958Y0176676D01*
X0382981Y0176545D01*
X0383001Y0176413D01*
X0383017Y0176281D01*
X0383029Y0176148D01*
X0383037Y0176016D01*
X0383041Y0175883D01*
X0383041Y0175749D01*
X0383037Y0175616D01*
X0383029Y0175484D01*
X0383017Y0175351D01*
X0383001Y0175219D01*
X0382981Y0175087D01*
X0382958Y0174956D01*
X0382930Y0174826D01*
X0382899Y0174697D01*
X0382863Y0174569D01*
X0382824Y0174441D01*
X0382782Y0174315D01*
X0382735Y0174191D01*
X0382685Y0174067D01*
X0382631Y0173946D01*
X0382573Y0173826D01*
X0382512Y0173707D01*
X0382448Y0173591D01*
X0382380Y0173477D01*
X0382309Y0173364D01*
X0382234Y0173254D01*
X0382156Y0173146D01*
X0382075Y0173041D01*
X0381991Y0172938D01*
X0381903Y0172837D01*
X0381813Y0172739D01*
X0381720Y0172644D01*
X0381624Y0172552D01*
X0381526Y0172462D01*
X0381425Y0172376D01*
X0381321Y0172293D01*
X0381215Y0172212D01*
X0381106Y0172135D01*
X0380996Y0172061D01*
X0380883Y0171991D01*
X0380768Y0171924D01*
X0380651Y0171860D01*
X0380532Y0171800D01*
X0380412Y0171743D01*
X0380290Y0171690D01*
X0380166Y0171641D01*
X0380041Y0171595D01*
X0379915Y0171554D01*
X0379787Y0171515D01*
X0379659Y0171481D01*
X0379529Y0171451D01*
X0379399Y0171424D01*
X0379268Y0171402D01*
X0379136Y0171383D01*
X0379004Y0171368D01*
X0378871Y0171357D01*
X0378738Y0171350D01*
X0378605Y0171347D01*
X0378472Y0171348D01*
X0378339Y0171353D01*
X0378206Y0171362D01*
X0378074Y0171375D01*
X0377942Y0171392D01*
X0377811Y0171412D01*
X0377680Y0171437D01*
X0377550Y0171465D01*
X0377421Y0171498D01*
X0377293Y0171534D01*
X0377166Y0171574D01*
X0377040Y0171618D01*
X0376916Y0171665D01*
X0376793Y0171716D01*
X0376672Y0171771D01*
X0376552Y0171830D01*
X0376434Y0171891D01*
X0376318Y0171957D01*
X0376204Y0172026D01*
X0376093Y0172098D01*
X0375983Y0172173D01*
X0375876Y0172252D01*
X0375771Y0172334D01*
X0375668Y0172419D01*
X0375568Y0172507D01*
X0375471Y0172598D01*
X0375377Y0172691D01*
X0375285Y0172788D01*
X0375197Y0172887D01*
X0375111Y0172989D01*
X0375028Y0173093D01*
X0374949Y0173200D01*
X0374872Y0173309D01*
X0374799Y0173420D01*
X0374730Y0173534D01*
X0374664Y0173649D01*
X0374601Y0173766D01*
X0374541Y0173886D01*
X0374486Y0174006D01*
X0374434Y0174129D01*
X0374385Y0174253D01*
X0374341Y0174378D01*
X0374300Y0174505D01*
X0374263Y0174633D01*
X0374229Y0174761D01*
X0374200Y0174891D01*
X0374174Y0175022D01*
X0374152Y0175153D01*
X0374135Y0175285D01*
X0374121Y0175417D01*
X0374111Y0175550D01*
X0374105Y0175683D01*
X0374103Y0175816D01*
M02*
