G75*
%MOIN*%
%OFA0B0*%
%FSLAX25Y25*%
%IPPOS*%
%LPD*%
%AMOC8*
5,1,8,0,0,1.08239X$1,22.5*
%
%ADD10R,0.03950X0.05524*%
%ADD11R,0.05524X0.03950*%
%ADD12R,0.05721X0.07690*%
%ADD13C,0.18580*%
%ADD14R,0.06706X0.03556*%
%ADD15R,0.10800X0.06784*%
%ADD16R,0.10800X0.06745*%
%ADD17R,0.06784X0.10800*%
%ADD18R,0.06745X0.10800*%
%ADD19R,0.05524X0.03162*%
%ADD20R,0.03556X0.06706*%
%ADD21R,0.06509X0.06509*%
%ADD22R,0.03556X0.01784*%
%ADD23R,0.01784X0.03556*%
%ADD24C,0.09800*%
%ADD25C,0.16800*%
%ADD26R,0.11036X0.03753*%
%ADD27R,0.30721X0.34265*%
%ADD28R,0.09800X0.09800*%
%ADD29C,0.05950*%
%ADD30R,0.06312X0.09461*%
%ADD31R,0.06312X0.04343*%
%ADD32R,0.02454X0.04304*%
%ADD33R,0.06391X0.10643*%
%ADD34R,0.03241X0.10643*%
%ADD35R,0.02375X0.02375*%
%ADD36R,0.07099X0.07887*%
%ADD37R,0.06706X0.18910*%
%ADD38C,0.09737*%
%ADD39C,0.03778*%
%ADD40C,0.05550*%
%ADD41C,0.06706*%
%ADD42C,0.04959*%
D10*
X0138414Y0100619D03*
X0145501Y0100619D03*
X0186446Y0090776D03*
X0193532Y0090776D03*
X0193532Y0141957D03*
X0186446Y0141957D03*
X0187627Y0200619D03*
X0194713Y0200619D03*
X0192351Y0209674D03*
X0199438Y0209674D03*
X0107312Y0227391D03*
X0100225Y0227391D03*
X0089202Y0210855D03*
X0082115Y0210855D03*
X0075028Y0236052D03*
X0067942Y0236052D03*
X0068729Y0271485D03*
X0075816Y0271485D03*
X0084871Y0271879D03*
X0091957Y0271879D03*
X0074635Y0362036D03*
X0067548Y0362036D03*
X0062430Y0375028D03*
X0055343Y0375028D03*
X0054556Y0385658D03*
X0061643Y0385658D03*
X0147076Y0441564D03*
X0154162Y0441564D03*
X0207312Y0334871D03*
X0214398Y0334871D03*
X0345501Y0436446D03*
X0352587Y0436446D03*
D11*
X0361643Y0435658D03*
X0361643Y0442745D03*
X0362036Y0427391D03*
X0362036Y0420304D03*
X0362430Y0394320D03*
X0362430Y0387233D03*
X0213611Y0310461D03*
X0213611Y0303375D03*
X0213611Y0294320D03*
X0213611Y0287233D03*
X0180934Y0296682D03*
X0180934Y0303769D03*
X0180934Y0312824D03*
X0180934Y0319910D03*
X0182902Y0338020D03*
X0182902Y0345107D03*
X0190383Y0341957D03*
X0190383Y0349044D03*
X0199044Y0348650D03*
X0199044Y0341564D03*
X0198650Y0236446D03*
X0198650Y0229359D03*
X0188414Y0191957D03*
X0188414Y0184871D03*
X0205737Y0183690D03*
X0205737Y0190776D03*
X0214005Y0190776D03*
X0214005Y0183690D03*
X0205737Y0175816D03*
X0205737Y0168729D03*
X0168335Y0086446D03*
X0168335Y0079359D03*
X0091170Y0283296D03*
X0091170Y0290383D03*
X0079359Y0290383D03*
X0079359Y0283296D03*
D12*
X0187233Y0157312D03*
X0202981Y0157312D03*
D13*
X0208887Y0140580D03*
X0185265Y0115580D03*
X0109674Y0115580D03*
X0284477Y0115580D03*
X0284477Y0140580D03*
X0360068Y0115580D03*
X0360068Y0342272D03*
X0284477Y0342272D03*
X0284477Y0372272D03*
X0208887Y0372272D03*
X0185265Y0372272D03*
X0109674Y0372272D03*
D14*
X0091564Y0262843D03*
X0091564Y0257843D03*
X0091564Y0252843D03*
X0091564Y0247843D03*
X0068729Y0247843D03*
X0068729Y0252843D03*
X0068729Y0257843D03*
X0068729Y0262843D03*
D15*
X0082509Y0426249D03*
X0282509Y0302548D03*
X0284477Y0239556D03*
X0360068Y0371524D03*
D16*
X0360068Y0358060D03*
X0282509Y0316013D03*
X0284477Y0253020D03*
X0082509Y0412784D03*
D17*
X0277745Y0221091D03*
X0291209Y0169123D03*
D18*
X0277745Y0169123D03*
X0291209Y0221091D03*
D19*
X0173871Y0100422D03*
X0173871Y0096682D03*
X0173871Y0092942D03*
X0163587Y0092942D03*
X0163587Y0100422D03*
D20*
X0276977Y0184083D03*
X0281977Y0184083D03*
X0286977Y0184083D03*
X0291977Y0184083D03*
X0291977Y0206918D03*
X0286977Y0206918D03*
X0281977Y0206918D03*
X0276977Y0206918D03*
X0276977Y0264005D03*
X0281977Y0264005D03*
X0286977Y0264005D03*
X0291977Y0264005D03*
X0291977Y0286839D03*
X0286977Y0286839D03*
X0281977Y0286839D03*
X0276977Y0286839D03*
D21*
X0191564Y0172666D03*
D22*
X0196682Y0171682D03*
X0196682Y0173650D03*
X0196682Y0175619D03*
X0196682Y0169713D03*
X0186446Y0169713D03*
X0186446Y0171682D03*
X0186446Y0173650D03*
X0186446Y0175619D03*
D23*
X0188611Y0177784D03*
X0190580Y0177784D03*
X0192548Y0177784D03*
X0194517Y0177784D03*
X0194517Y0167548D03*
X0192548Y0167548D03*
X0190580Y0167548D03*
X0188611Y0167548D03*
D24*
X0240776Y0092745D03*
X0226603Y0085265D03*
X0258099Y0086052D03*
X0270698Y0093926D03*
X0283296Y0085658D03*
X0295107Y0093532D03*
X0310855Y0086839D03*
X0322666Y0093926D03*
X0337627Y0084083D03*
X0347863Y0094713D03*
X0386446Y0131328D03*
X0384083Y0149044D03*
X0379359Y0201013D03*
X0385658Y0219910D03*
X0369517Y0219910D03*
X0371091Y0243926D03*
X0370304Y0261249D03*
X0385658Y0261249D03*
X0386052Y0243532D03*
X0385658Y0277391D03*
X0370304Y0277391D03*
X0369910Y0293532D03*
X0386052Y0293139D03*
X0203375Y0270304D03*
X0192351Y0259674D03*
X0092351Y0336839D03*
X0056131Y0299831D03*
X0056524Y0271091D03*
X0056918Y0257706D03*
X0056918Y0244713D03*
X0056918Y0230146D03*
X0056918Y0214005D03*
X0056918Y0399438D03*
X0072272Y0399831D03*
X0082115Y0439989D03*
X0102587Y0439989D03*
D25*
X0123060Y0436839D03*
X0122666Y0414792D03*
X0385265Y0401406D03*
X0385265Y0380146D03*
X0149044Y0084083D03*
X0091170Y0085265D03*
D26*
X0140776Y0401406D03*
X0140776Y0406406D03*
X0140776Y0411406D03*
X0140776Y0421406D03*
X0140776Y0426406D03*
X0140776Y0431406D03*
X0351406Y0426209D03*
X0351406Y0421209D03*
X0351406Y0416209D03*
X0351406Y0406209D03*
X0351406Y0401209D03*
X0351406Y0396209D03*
D27*
X0310068Y0411209D03*
X0182115Y0416406D03*
D28*
X0158099Y0345501D03*
X0127784Y0308493D03*
X0056524Y0286052D03*
X0167548Y0216761D03*
X0167548Y0201800D03*
X0240776Y0179753D03*
X0360068Y0084083D03*
X0326209Y0334477D03*
D29*
X0356524Y0208887D03*
X0356524Y0202587D03*
X0214005Y0204556D03*
X0214005Y0210855D03*
X0104556Y0266367D03*
X0104556Y0272666D03*
X0104556Y0290383D03*
X0104556Y0296682D03*
D30*
X0100619Y0209674D03*
D31*
X0100619Y0219713D03*
D32*
X0091170Y0219910D03*
X0088611Y0219910D03*
X0086052Y0219910D03*
X0083493Y0219910D03*
X0083493Y0236485D03*
X0086052Y0236485D03*
X0088611Y0236485D03*
X0091170Y0236485D03*
X0094713Y0409635D03*
X0097272Y0409635D03*
X0099831Y0409635D03*
X0102391Y0409635D03*
X0102391Y0426209D03*
X0099831Y0426209D03*
X0097272Y0426209D03*
X0094713Y0426209D03*
X0377391Y0362430D03*
X0379950Y0362430D03*
X0382509Y0362430D03*
X0385068Y0362430D03*
X0385068Y0345855D03*
X0382509Y0345855D03*
X0379950Y0345855D03*
X0377391Y0345855D03*
D33*
X0079517Y0378572D03*
D34*
X0074044Y0378572D03*
D35*
X0074871Y0386091D03*
X0077430Y0386091D03*
X0079989Y0386091D03*
X0079989Y0371131D03*
X0077430Y0371131D03*
X0074871Y0371131D03*
D36*
X0183296Y0100225D03*
X0194320Y0100225D03*
D37*
X0205343Y0401406D03*
X0224635Y0401406D03*
X0224241Y0424241D03*
X0204950Y0424241D03*
X0265580Y0424241D03*
X0284871Y0424241D03*
X0285265Y0396682D03*
X0265973Y0396682D03*
D38*
X0378572Y0312036D03*
X0378572Y0175816D03*
X0091170Y0175816D03*
X0091170Y0312036D03*
D39*
X0078572Y0080146D03*
X0078572Y0084083D03*
X0078572Y0088020D03*
X0078572Y0091957D03*
X0081721Y0094713D03*
X0079753Y0106918D03*
X0069517Y0114005D03*
X0064005Y0114005D03*
X0058493Y0114005D03*
X0052981Y0114005D03*
X0073060Y0137995D03*
X0079359Y0131721D03*
X0081721Y0134083D03*
X0086052Y0124635D03*
X0095107Y0138808D03*
X0106131Y0134607D03*
X0117942Y0136052D03*
X0119123Y0127784D03*
X0123060Y0127784D03*
X0126209Y0125422D03*
X0123060Y0123060D03*
X0126209Y0120698D03*
X0126209Y0116761D03*
X0123847Y0089202D03*
X0133296Y0088414D03*
X0120698Y0078965D03*
X0115973Y0083690D03*
X0108099Y0083690D03*
X0115973Y0147469D03*
X0115580Y0153769D03*
X0132115Y0185265D03*
X0130934Y0191957D03*
X0138808Y0187627D03*
X0142745Y0198257D03*
X0141957Y0204556D03*
X0139595Y0210068D03*
X0133296Y0217154D03*
X0126603Y0202194D03*
X0111643Y0199044D03*
X0111643Y0195107D03*
X0107706Y0195107D03*
X0107706Y0199044D03*
X0103769Y0199044D03*
X0103769Y0195107D03*
X0079359Y0189989D03*
X0073847Y0189989D03*
X0073847Y0184477D03*
X0073847Y0178965D03*
X0061249Y0196682D03*
X0061249Y0200619D03*
X0057312Y0200619D03*
X0057312Y0196682D03*
X0053375Y0196682D03*
X0053375Y0200619D03*
X0085265Y0227391D03*
X0088808Y0229753D03*
X0098257Y0246288D03*
X0098257Y0251800D03*
X0098257Y0257312D03*
X0113611Y0276209D03*
X0113217Y0282115D03*
X0121686Y0284890D03*
X0103375Y0280146D03*
X0095894Y0299044D03*
X0120304Y0323454D03*
X0120304Y0327391D03*
X0120304Y0331328D03*
X0120304Y0335265D03*
X0124241Y0335265D03*
X0128178Y0335265D03*
X0132115Y0335265D03*
X0136052Y0335265D03*
X0139989Y0335265D03*
X0143926Y0335265D03*
X0143926Y0331328D03*
X0139989Y0331328D03*
X0136052Y0331328D03*
X0132115Y0331328D03*
X0128178Y0331328D03*
X0124241Y0331328D03*
X0124241Y0327391D03*
X0128178Y0327391D03*
X0132115Y0327391D03*
X0136052Y0327391D03*
X0139989Y0327391D03*
X0143926Y0327391D03*
X0143926Y0323454D03*
X0139989Y0323454D03*
X0136052Y0323454D03*
X0132115Y0323454D03*
X0128178Y0323454D03*
X0124241Y0323454D03*
X0135265Y0347076D03*
X0133296Y0355737D03*
X0140776Y0387233D03*
X0151800Y0386839D03*
X0151800Y0406524D03*
X0154162Y0415973D03*
X0155737Y0422666D03*
X0155737Y0426603D03*
X0155737Y0430540D03*
X0155737Y0434477D03*
X0159280Y0438808D03*
X0159280Y0443139D03*
X0212036Y0444713D03*
X0212036Y0440776D03*
X0247076Y0434477D03*
X0247076Y0429359D03*
X0246839Y0424241D03*
X0266367Y0441170D03*
X0275028Y0440383D03*
X0279753Y0410855D03*
X0277391Y0408493D03*
X0274241Y0399044D03*
X0247863Y0384083D03*
X0247863Y0380146D03*
X0247863Y0376209D03*
X0244150Y0353205D03*
X0249973Y0350366D03*
X0221485Y0326997D03*
X0221485Y0323454D03*
X0221485Y0319517D03*
X0217548Y0323060D03*
X0217548Y0326997D03*
X0206524Y0329753D03*
X0201800Y0324241D03*
X0199438Y0321879D03*
X0197076Y0312824D03*
X0197469Y0304162D03*
X0198650Y0294713D03*
X0196682Y0284477D03*
X0174241Y0290383D03*
X0169123Y0284871D03*
X0173847Y0277391D03*
X0173847Y0298257D03*
X0175028Y0308099D03*
X0180934Y0326603D03*
X0180934Y0332509D03*
X0176603Y0341170D03*
X0171630Y0358638D03*
X0196682Y0357706D03*
X0202587Y0359674D03*
X0206131Y0348257D03*
X0208887Y0341170D03*
X0199831Y0336052D03*
X0195894Y0335918D03*
X0221879Y0310068D03*
X0235265Y0300225D03*
X0238414Y0305737D03*
X0243532Y0308493D03*
X0256918Y0307312D03*
X0256918Y0311249D03*
X0260855Y0311249D03*
X0264792Y0311249D03*
X0268729Y0311249D03*
X0272666Y0311249D03*
X0272666Y0307312D03*
X0268729Y0307312D03*
X0264792Y0307312D03*
X0260855Y0307312D03*
X0260855Y0303375D03*
X0256918Y0303375D03*
X0264792Y0303375D03*
X0268729Y0303375D03*
X0272666Y0303375D03*
X0271879Y0293532D03*
X0255737Y0288808D03*
X0249044Y0280934D03*
X0247469Y0273060D03*
X0243532Y0273060D03*
X0239595Y0273060D03*
X0235658Y0273060D03*
X0235658Y0269123D03*
X0235658Y0265186D03*
X0235658Y0261249D03*
X0239595Y0261249D03*
X0239595Y0265186D03*
X0239595Y0269123D03*
X0243532Y0269123D03*
X0243532Y0265186D03*
X0243532Y0261249D03*
X0247469Y0261249D03*
X0247469Y0265186D03*
X0247469Y0269123D03*
X0251406Y0269123D03*
X0251406Y0273060D03*
X0251406Y0265186D03*
X0251406Y0261249D03*
X0257706Y0278572D03*
X0272666Y0255343D03*
X0271091Y0243532D03*
X0247469Y0215973D03*
X0240383Y0213217D03*
X0240383Y0209280D03*
X0240383Y0205343D03*
X0240383Y0201406D03*
X0236446Y0201406D03*
X0236446Y0205343D03*
X0236446Y0209280D03*
X0236446Y0213217D03*
X0256918Y0210068D03*
X0280540Y0191957D03*
X0284082Y0197863D03*
X0297469Y0197469D03*
X0298257Y0207706D03*
X0314005Y0195107D03*
X0317942Y0195107D03*
X0321879Y0195107D03*
X0325816Y0195107D03*
X0329753Y0195107D03*
X0329753Y0191170D03*
X0329753Y0187233D03*
X0329753Y0183296D03*
X0325816Y0183296D03*
X0325816Y0187233D03*
X0325816Y0191170D03*
X0321879Y0191170D03*
X0321879Y0187233D03*
X0321879Y0183296D03*
X0317942Y0183296D03*
X0317942Y0187233D03*
X0317942Y0191170D03*
X0314005Y0191170D03*
X0314005Y0187233D03*
X0314005Y0183296D03*
X0313217Y0222272D03*
X0317154Y0222272D03*
X0317154Y0226209D03*
X0313217Y0226209D03*
X0313217Y0230146D03*
X0317154Y0230146D03*
X0317154Y0234083D03*
X0313217Y0234083D03*
X0297469Y0243139D03*
X0305343Y0254162D03*
X0298257Y0260461D03*
X0321091Y0259674D03*
X0320698Y0270304D03*
X0320304Y0283296D03*
X0324635Y0293532D03*
X0328572Y0293532D03*
X0332509Y0293532D03*
X0336446Y0293532D03*
X0340383Y0293532D03*
X0340383Y0297469D03*
X0340383Y0301406D03*
X0340383Y0305343D03*
X0336446Y0305343D03*
X0336446Y0301406D03*
X0336446Y0297469D03*
X0332509Y0297469D03*
X0332509Y0301406D03*
X0332509Y0305343D03*
X0328572Y0305343D03*
X0328572Y0301406D03*
X0328572Y0297469D03*
X0324635Y0297469D03*
X0324635Y0301406D03*
X0324635Y0305343D03*
X0308493Y0304950D03*
X0308493Y0308887D03*
X0308493Y0312824D03*
X0304556Y0312824D03*
X0300619Y0312824D03*
X0296682Y0312824D03*
X0292745Y0312824D03*
X0292745Y0308887D03*
X0296682Y0308887D03*
X0300619Y0308887D03*
X0304556Y0308887D03*
X0304556Y0304950D03*
X0300619Y0304950D03*
X0296682Y0304950D03*
X0292745Y0304950D03*
X0295894Y0291170D03*
X0307312Y0326209D03*
X0328178Y0361643D03*
X0328178Y0365580D03*
X0328178Y0369517D03*
X0328178Y0373454D03*
X0332115Y0373454D03*
X0332115Y0369517D03*
X0332115Y0365580D03*
X0332115Y0361643D03*
X0347076Y0369517D03*
X0347076Y0373454D03*
X0347076Y0377391D03*
X0347076Y0381328D03*
X0351013Y0381328D03*
X0354950Y0381328D03*
X0358887Y0381328D03*
X0362824Y0381328D03*
X0366761Y0381328D03*
X0366761Y0377391D03*
X0362824Y0377391D03*
X0358887Y0377391D03*
X0354950Y0377391D03*
X0351013Y0377391D03*
X0351013Y0373454D03*
X0351013Y0369517D03*
X0380934Y0334871D03*
X0381653Y0354881D03*
X0391170Y0365186D03*
X0362036Y0414398D03*
X0349438Y0443139D03*
X0345501Y0443139D03*
X0341564Y0443139D03*
X0337627Y0443139D03*
X0333690Y0443139D03*
X0332115Y0439595D03*
X0332115Y0435658D03*
X0332115Y0431721D03*
X0332115Y0427784D03*
X0340776Y0419517D03*
X0356918Y0289989D03*
X0263611Y0168729D03*
X0221091Y0179753D03*
X0217548Y0166367D03*
X0211249Y0166367D03*
X0214398Y0159280D03*
X0195107Y0152587D03*
X0190383Y0148257D03*
X0186839Y0149831D03*
X0171879Y0133690D03*
X0172886Y0106744D03*
X0179826Y0093926D03*
X0195107Y0084477D03*
X0199044Y0084477D03*
X0202981Y0084477D03*
X0201013Y0088808D03*
X0214398Y0091564D03*
X0190383Y0171485D03*
X0192745Y0173847D03*
X0197863Y0180934D03*
X0178965Y0179359D03*
X0175028Y0179359D03*
X0171091Y0179359D03*
X0171091Y0175422D03*
X0175028Y0175422D03*
X0178965Y0175422D03*
X0178965Y0183296D03*
X0175028Y0183296D03*
X0171091Y0183296D03*
X0171091Y0187233D03*
X0175028Y0187233D03*
X0178965Y0187233D03*
X0162430Y0187233D03*
X0162430Y0183296D03*
X0162430Y0179359D03*
X0162430Y0175422D03*
X0158493Y0175422D03*
X0158493Y0179359D03*
X0158493Y0183296D03*
X0158493Y0187233D03*
X0158099Y0194713D03*
X0181721Y0210068D03*
X0177391Y0220698D03*
X0174241Y0225095D03*
X0161249Y0235265D03*
X0156196Y0240776D03*
X0153375Y0232115D03*
X0147076Y0240776D03*
X0136839Y0240383D03*
X0119256Y0232115D03*
X0114005Y0236446D03*
X0113217Y0227391D03*
X0077391Y0252587D03*
X0077391Y0259674D03*
X0065580Y0330146D03*
X0065580Y0334083D03*
X0065580Y0338020D03*
X0065580Y0341957D03*
X0061643Y0341957D03*
X0061643Y0338020D03*
X0061643Y0334083D03*
X0061643Y0330146D03*
X0057706Y0330146D03*
X0057706Y0334083D03*
X0057706Y0338020D03*
X0057706Y0341957D03*
X0053769Y0341957D03*
X0053769Y0338020D03*
X0053769Y0334083D03*
X0053769Y0330146D03*
X0053769Y0345894D03*
X0053769Y0349831D03*
X0053769Y0353769D03*
X0053769Y0357706D03*
X0051406Y0360855D03*
X0065973Y0367942D03*
X0066761Y0377784D03*
X0067942Y0390383D03*
X0071879Y0390383D03*
X0081328Y0394713D03*
X0090383Y0406524D03*
X0102981Y0415580D03*
X0099438Y0421437D03*
X0091957Y0383296D03*
X0092351Y0360068D03*
X0088414Y0360068D03*
X0084477Y0360068D03*
X0084477Y0356131D03*
X0088414Y0356131D03*
X0092351Y0356131D03*
X0092351Y0352194D03*
X0088414Y0352194D03*
X0084477Y0352194D03*
X0074635Y0349044D03*
X0079359Y0338414D03*
X0103375Y0357706D03*
X0050225Y0385658D03*
X0154162Y0326603D03*
X0161249Y0327784D03*
X0220698Y0276603D03*
X0207706Y0253769D03*
X0198650Y0245501D03*
X0220304Y0240383D03*
X0236839Y0248650D03*
X0191564Y0220304D03*
X0176997Y0242745D03*
X0176997Y0246682D03*
X0061249Y0156131D03*
D40*
X0214792Y0172666D03*
D41*
X0268729Y0235265D03*
D42*
X0323454Y0241170D03*
M02*
