%
M48
M72
T01C0.01575
T02C0.01969
T03C0.02000
T04C0.02400
T05C0.03150
T06C0.06000
T07C0.10000
T08C0.12500
%
T01
X55202Y103272
X113272Y135753
X163485Y111894
X177265Y84335
X199902Y103020
X223635Y78178
X191603Y58446
X203855Y146375
X176170Y196808
X162485Y212524
X171343Y231225
X194526Y213898
X209729Y212524
X207761Y227288
X236304Y207603
X146737Y229257
X126068Y197761
X133942Y195792
X104336Y209728
X67776Y225288
X44902Y205635
X66713Y191855
T02
X87217Y176312
X91217Y195312
X126217Y162312
X149217Y149312
X157217Y144312
X163217Y142312
X160217Y122312
X146737Y107209
X157217Y98312
X148217Y92312
X148217Y78312
X162217Y79312
X177217Y92312
X186217Y72312
X196217Y63312
X200217Y53312
X214217Y53312
X221217Y37312
X210217Y98312
X205539Y108633
X125217Y114312
X124217Y96312
X115217Y78312
X121217Y75312
X117217Y71312
X108713Y72446
X104217Y68312
X96217Y68312
X87447Y68398
X82737Y60485
X76162Y63209
X65217Y56312
X91217Y32312
X81217Y25312
X119217Y24312
X101217Y82312
X94217Y90312
X101217Y95312
X72217Y120312
X60217Y114312
X63217Y107312
X62217Y89312
X34217Y125312
X94217Y131312
X131217Y222312
X184217Y223312
X230217Y222312
T03
X224493Y226304
X210713Y221383
X222524Y194808
X208808Y158312
X187107Y121721
X120162Y183981
X109650Y203220
X124099Y226304
X130005Y231225
X162485Y223351
X79808Y232209
X78619Y203682
T04
X75767Y196362
X101872Y220316
X111367Y222812
X129817Y180962
X142867Y176462
X154567Y179162
X166717Y158462
X182917Y159812
X178867Y135962
X144667Y97712
X139267Y93212
X128317Y93662
X121267Y80162
X112267Y91862
X108667Y95462
X106417Y87362
X96517Y82412
X90667Y81962
X111967Y50262
X108017Y46262
X80317Y46862
X69067Y114812
X81217Y125612
X77167Y142712
X129917Y118262
X133517Y123862
X192367Y80612
X195967Y84212
X198217Y197162
X194617Y221462
T05
X231509Y171725
X240540Y162698
X231509Y153670
X222477Y162698
X234249Y123733
X243280Y114706
X234249Y105678
X225217Y114706
T06
X158076Y63312
X158076Y51343
X158918Y32942
X139076Y33721
X139217Y51343
X138233Y63312
X148217Y118312
X148217Y129312
X148217Y140312
X134217Y140312
X132217Y171312
X161217Y231312
X200217Y232312
X52186Y189595
X39186Y189595
X39217Y173312
X39217Y163312
X39217Y153312
X39296Y143383
X39454Y133540
X41776Y115170
X39918Y88170
X48469Y77485
X48469Y67485
X48469Y57485
T07
X58028Y224792
T08
X39217Y23312
X39217Y225812
X241717Y225812
X241717Y23312
M30
