G75*
%MOIN*%
%OFA0B0*%
%FSLAX25Y25*%
%IPPOS*%
%LPD*%
%AMOC8*
5,1,8,0,0,1.08239X$1,22.5*
%
%ADD10C,0.00200*%
%ADD11C,0.00600*%
%ADD12C,0.00100*%
%ADD13C,0.00400*%
%ADD14C,0.01000*%
%ADD15C,0.02200*%
%ADD16R,0.03740X0.01969*%
%ADD17C,0.00500*%
D10*
X0144695Y0042002D02*
X0146564Y0042002D01*
X0144695Y0043871D01*
X0144695Y0044338D01*
X0145162Y0044805D01*
X0146096Y0044805D01*
X0146564Y0044338D01*
X0147458Y0044805D02*
X0147458Y0042936D01*
X0148392Y0042002D01*
X0149326Y0042936D01*
X0149326Y0044805D01*
X0152982Y0044805D02*
X0152982Y0042002D01*
X0154384Y0042002D01*
X0154851Y0042469D01*
X0154851Y0043404D01*
X0154384Y0043871D01*
X0152982Y0043871D01*
X0155751Y0043871D02*
X0156218Y0043871D01*
X0157153Y0042936D01*
X0158047Y0042936D02*
X0159448Y0042936D01*
X0159915Y0042469D01*
X0159448Y0042002D01*
X0158047Y0042002D01*
X0158047Y0043404D01*
X0158514Y0043871D01*
X0159448Y0043871D01*
X0160809Y0043404D02*
X0160809Y0042469D01*
X0161276Y0042002D01*
X0162210Y0042002D01*
X0162677Y0042469D01*
X0162677Y0043404D01*
X0162210Y0043871D01*
X0161276Y0043871D01*
X0160809Y0043404D01*
X0163571Y0043871D02*
X0164038Y0043404D01*
X0165440Y0043404D01*
X0165440Y0044805D02*
X0164038Y0044805D01*
X0163571Y0044338D01*
X0163571Y0043871D01*
X0164038Y0043404D02*
X0163571Y0042936D01*
X0163571Y0042469D01*
X0164038Y0042002D01*
X0165440Y0042002D01*
X0165440Y0044805D01*
X0165880Y0045568D02*
X0165413Y0046035D01*
X0165413Y0048371D01*
X0166814Y0048371D01*
X0167281Y0047904D01*
X0167281Y0046969D01*
X0166814Y0046502D01*
X0165413Y0046502D01*
X0165880Y0045568D02*
X0166347Y0045568D01*
X0168175Y0046502D02*
X0168175Y0047904D01*
X0168642Y0048371D01*
X0170044Y0048371D01*
X0170044Y0046502D01*
X0170951Y0046502D02*
X0171885Y0046502D01*
X0171418Y0046502D02*
X0171418Y0048371D01*
X0171885Y0048371D01*
X0172786Y0048371D02*
X0173253Y0048371D01*
X0174187Y0047436D01*
X0175081Y0047436D02*
X0176949Y0047436D01*
X0176949Y0046969D02*
X0176949Y0047904D01*
X0176482Y0048371D01*
X0175548Y0048371D01*
X0175081Y0047904D01*
X0175081Y0047436D01*
X0175548Y0046502D02*
X0176482Y0046502D01*
X0176949Y0046969D01*
X0177843Y0047436D02*
X0179712Y0047436D01*
X0179712Y0046969D02*
X0179712Y0047904D01*
X0179245Y0048371D01*
X0178311Y0048371D01*
X0177843Y0047904D01*
X0177843Y0047436D01*
X0178311Y0046502D02*
X0179245Y0046502D01*
X0179712Y0046969D01*
X0180606Y0046502D02*
X0180606Y0047904D01*
X0181073Y0048371D01*
X0182474Y0048371D01*
X0182474Y0046502D01*
X0183382Y0046502D02*
X0184316Y0046502D01*
X0183849Y0046502D02*
X0183849Y0048371D01*
X0184316Y0048371D01*
X0185210Y0048371D02*
X0186611Y0048371D01*
X0187078Y0047904D01*
X0187078Y0046969D01*
X0186611Y0046502D01*
X0185210Y0046502D01*
X0185210Y0046035D02*
X0185210Y0048371D01*
X0183849Y0049305D02*
X0183849Y0049772D01*
X0187972Y0047904D02*
X0187972Y0046502D01*
X0187972Y0047904D02*
X0188439Y0048371D01*
X0189840Y0048371D01*
X0189840Y0046502D01*
X0190734Y0046502D02*
X0192603Y0046502D01*
X0192603Y0049305D01*
X0190734Y0049305D01*
X0191669Y0047904D02*
X0192603Y0047904D01*
X0196259Y0047904D02*
X0196259Y0047436D01*
X0198127Y0047436D01*
X0198127Y0046969D02*
X0198127Y0047904D01*
X0197660Y0048371D01*
X0196726Y0048371D01*
X0196259Y0047904D01*
X0196726Y0046502D02*
X0197660Y0046502D01*
X0198127Y0046969D01*
X0199022Y0046502D02*
X0200423Y0046502D01*
X0200890Y0046969D01*
X0200890Y0047904D01*
X0200423Y0048371D01*
X0199022Y0048371D01*
X0201784Y0047904D02*
X0201784Y0046502D01*
X0203185Y0046502D01*
X0203652Y0046969D01*
X0203185Y0047436D01*
X0201784Y0047436D01*
X0201784Y0047904D02*
X0202251Y0048371D01*
X0203185Y0048371D01*
X0204546Y0047904D02*
X0204546Y0046969D01*
X0205013Y0046502D01*
X0206414Y0046502D01*
X0206414Y0045568D02*
X0206414Y0048371D01*
X0205013Y0048371D01*
X0204546Y0047904D01*
X0207309Y0047436D02*
X0207309Y0046969D01*
X0207776Y0046502D01*
X0208710Y0046502D01*
X0209177Y0046969D01*
X0208710Y0047904D02*
X0207776Y0047904D01*
X0207309Y0047436D01*
X0207309Y0048838D02*
X0207776Y0049305D01*
X0208710Y0049305D01*
X0209177Y0048838D01*
X0209177Y0048371D01*
X0208710Y0047904D01*
X0209170Y0044338D02*
X0209170Y0042469D01*
X0208703Y0042002D01*
X0210531Y0042002D02*
X0211933Y0042002D01*
X0212400Y0042469D01*
X0211933Y0042936D01*
X0210531Y0042936D01*
X0210531Y0043404D02*
X0210531Y0042002D01*
X0210531Y0043404D02*
X0210998Y0043871D01*
X0211933Y0043871D01*
X0213294Y0044338D02*
X0213761Y0044805D01*
X0214695Y0044805D01*
X0215162Y0044338D01*
X0215162Y0043871D01*
X0214695Y0043404D01*
X0213761Y0043404D01*
X0213294Y0042936D01*
X0213294Y0042469D01*
X0213761Y0042002D01*
X0214695Y0042002D01*
X0215162Y0042469D01*
X0216069Y0042002D02*
X0217003Y0042002D01*
X0216536Y0042002D02*
X0216536Y0043871D01*
X0217003Y0043871D01*
X0217898Y0043871D02*
X0217898Y0042002D01*
X0219299Y0042002D01*
X0219766Y0042469D01*
X0219766Y0043871D01*
X0220660Y0043871D02*
X0222061Y0043871D01*
X0222528Y0043404D01*
X0222528Y0042469D01*
X0222061Y0042002D01*
X0220660Y0042002D01*
X0220660Y0041068D02*
X0220660Y0043871D01*
X0219759Y0046502D02*
X0218825Y0046502D01*
X0218358Y0046969D01*
X0218358Y0047904D01*
X0218825Y0048371D01*
X0219759Y0048371D01*
X0220226Y0047904D01*
X0220226Y0046969D01*
X0219759Y0046502D01*
X0221127Y0048371D02*
X0221594Y0048371D01*
X0222528Y0047436D01*
X0223422Y0047436D02*
X0223422Y0046969D01*
X0223889Y0046502D01*
X0225291Y0046502D01*
X0225291Y0049305D01*
X0223889Y0049305D01*
X0223422Y0048838D01*
X0223422Y0048371D01*
X0223889Y0047904D01*
X0225291Y0047904D01*
X0223889Y0047904D02*
X0223422Y0047436D01*
X0222528Y0046502D02*
X0222528Y0048371D01*
X0223422Y0044805D02*
X0225291Y0044805D01*
X0225291Y0042002D01*
X0223422Y0042002D01*
X0224356Y0043404D02*
X0225291Y0043404D01*
X0224823Y0040305D02*
X0225291Y0039838D01*
X0225291Y0039371D01*
X0224823Y0038904D01*
X0223889Y0038904D01*
X0223422Y0038436D01*
X0223422Y0037969D01*
X0223889Y0037502D01*
X0224823Y0037502D01*
X0225291Y0037969D01*
X0225291Y0035805D02*
X0223889Y0035805D01*
X0223422Y0035338D01*
X0223422Y0034404D01*
X0223889Y0033936D01*
X0225291Y0033936D01*
X0225291Y0033002D02*
X0225291Y0035805D01*
X0224356Y0033936D02*
X0223422Y0033002D01*
X0222528Y0033469D02*
X0222528Y0034871D01*
X0222528Y0033469D02*
X0222061Y0033002D01*
X0220660Y0033002D01*
X0220660Y0032535D02*
X0221127Y0032068D01*
X0221594Y0032068D01*
X0220660Y0032535D02*
X0220660Y0034871D01*
X0219299Y0034871D02*
X0218365Y0034871D01*
X0217898Y0034404D01*
X0217898Y0033002D01*
X0219299Y0033002D01*
X0219766Y0033469D01*
X0219299Y0033936D01*
X0217898Y0033936D01*
X0217003Y0033002D02*
X0217003Y0034871D01*
X0215602Y0034871D01*
X0215135Y0034404D01*
X0215135Y0033002D01*
X0211479Y0033002D02*
X0210545Y0033002D01*
X0211012Y0033002D02*
X0211012Y0035805D01*
X0211479Y0035805D02*
X0210545Y0035805D01*
X0209637Y0034871D02*
X0207769Y0034871D01*
X0209637Y0033002D01*
X0207769Y0033002D01*
X0206875Y0033469D02*
X0206408Y0033936D01*
X0205007Y0033936D01*
X0205007Y0034404D02*
X0205007Y0033002D01*
X0206408Y0033002D01*
X0206875Y0033469D01*
X0206408Y0034871D02*
X0205474Y0034871D01*
X0205007Y0034404D01*
X0204113Y0034871D02*
X0204113Y0033002D01*
X0204113Y0034871D02*
X0202711Y0034871D01*
X0202244Y0034404D01*
X0202244Y0033002D01*
X0200883Y0033469D02*
X0200416Y0033002D01*
X0200883Y0033469D02*
X0200883Y0035338D01*
X0201350Y0034871D02*
X0200416Y0034871D01*
X0199048Y0037502D02*
X0197180Y0039371D01*
X0197180Y0039838D01*
X0197647Y0040305D01*
X0198581Y0040305D01*
X0199048Y0039838D01*
X0199502Y0042002D02*
X0199969Y0042469D01*
X0199969Y0043404D01*
X0199502Y0043871D01*
X0198568Y0043871D01*
X0198101Y0043404D01*
X0198101Y0042469D01*
X0198568Y0042002D01*
X0199502Y0042002D01*
X0200870Y0043871D02*
X0201337Y0043871D01*
X0202271Y0042936D01*
X0202271Y0042002D02*
X0202271Y0043871D01*
X0203165Y0044338D02*
X0203165Y0043404D01*
X0203632Y0042936D01*
X0205033Y0042936D01*
X0205033Y0042002D02*
X0205033Y0044805D01*
X0203632Y0044805D01*
X0203165Y0044338D01*
X0203178Y0039371D02*
X0202711Y0039371D01*
X0203178Y0039371D02*
X0204113Y0038436D01*
X0205007Y0038436D02*
X0206875Y0038436D01*
X0206875Y0037969D02*
X0206875Y0038904D01*
X0206408Y0039371D01*
X0205474Y0039371D01*
X0205007Y0038904D01*
X0205007Y0038436D01*
X0205474Y0037502D02*
X0206408Y0037502D01*
X0206875Y0037969D01*
X0207769Y0037969D02*
X0207769Y0038904D01*
X0208236Y0039371D01*
X0209637Y0039371D01*
X0209637Y0040305D02*
X0209637Y0037502D01*
X0208236Y0037502D01*
X0207769Y0037969D01*
X0210531Y0037502D02*
X0210531Y0038904D01*
X0210998Y0039371D01*
X0211465Y0038904D01*
X0211465Y0037502D01*
X0212400Y0037502D02*
X0212400Y0039371D01*
X0211933Y0039371D01*
X0211465Y0038904D01*
X0213294Y0038904D02*
X0213294Y0038436D01*
X0215162Y0038436D01*
X0215162Y0037969D02*
X0215162Y0038904D01*
X0214695Y0039371D01*
X0213761Y0039371D01*
X0213294Y0038904D01*
X0213761Y0037502D02*
X0214695Y0037502D01*
X0215162Y0037969D01*
X0216069Y0037502D02*
X0216536Y0037969D01*
X0216536Y0039838D01*
X0217003Y0039371D02*
X0216069Y0039371D01*
X0217898Y0038904D02*
X0217898Y0037969D01*
X0218365Y0037502D01*
X0219766Y0037502D01*
X0219766Y0036568D02*
X0219766Y0039371D01*
X0218365Y0039371D01*
X0217898Y0038904D01*
X0220660Y0038904D02*
X0220660Y0038436D01*
X0222528Y0038436D01*
X0222528Y0037969D02*
X0222528Y0038904D01*
X0222061Y0039371D01*
X0221127Y0039371D01*
X0220660Y0038904D01*
X0221127Y0037502D02*
X0222061Y0037502D01*
X0222528Y0037969D01*
X0223422Y0039838D02*
X0223889Y0040305D01*
X0224823Y0040305D01*
X0216536Y0044805D02*
X0216536Y0045272D01*
X0216997Y0046502D02*
X0216530Y0046969D01*
X0216063Y0046502D01*
X0215596Y0046969D01*
X0215596Y0048371D01*
X0214702Y0048371D02*
X0213300Y0048371D01*
X0212833Y0047904D01*
X0212833Y0046502D01*
X0214702Y0046502D02*
X0214702Y0048371D01*
X0217464Y0048371D02*
X0217464Y0046969D01*
X0216997Y0046502D01*
X0209637Y0043871D02*
X0208703Y0043871D01*
X0204113Y0039371D02*
X0204113Y0037502D01*
X0199048Y0037502D02*
X0197180Y0037502D01*
X0196286Y0037969D02*
X0194418Y0039838D01*
X0194418Y0037969D01*
X0194885Y0037502D01*
X0195819Y0037502D01*
X0196286Y0037969D01*
X0196286Y0039838D01*
X0195819Y0040305D01*
X0194885Y0040305D01*
X0194418Y0039838D01*
X0193523Y0039371D02*
X0192589Y0040305D01*
X0192589Y0037502D01*
X0193523Y0037502D02*
X0191655Y0037502D01*
X0190761Y0037969D02*
X0190294Y0037502D01*
X0189360Y0037502D01*
X0188893Y0037969D01*
X0188893Y0038436D01*
X0189360Y0038904D01*
X0190761Y0038904D01*
X0190761Y0037969D01*
X0190761Y0038904D02*
X0189827Y0039838D01*
X0188893Y0040305D01*
X0188920Y0042002D02*
X0187518Y0042002D01*
X0187051Y0042469D01*
X0187518Y0042936D01*
X0188453Y0042936D01*
X0188920Y0043404D01*
X0188453Y0043871D01*
X0187051Y0043871D01*
X0186157Y0043404D02*
X0186157Y0042469D01*
X0185690Y0042002D01*
X0184756Y0042002D01*
X0184289Y0042469D01*
X0184289Y0043404D01*
X0184756Y0043871D01*
X0185690Y0043871D01*
X0186157Y0043404D01*
X0186144Y0045568D02*
X0185677Y0045568D01*
X0185210Y0046035D01*
X0183395Y0043871D02*
X0183395Y0042002D01*
X0183395Y0042936D02*
X0182461Y0043871D01*
X0181994Y0043871D01*
X0178331Y0044805D02*
X0176462Y0044805D01*
X0177396Y0044805D02*
X0177396Y0042002D01*
X0175568Y0042469D02*
X0175568Y0043404D01*
X0175101Y0043871D01*
X0174167Y0043871D01*
X0173700Y0043404D01*
X0173700Y0042936D01*
X0175568Y0042936D01*
X0175568Y0042469D02*
X0175101Y0042002D01*
X0174167Y0042002D01*
X0172806Y0042002D02*
X0171405Y0042002D01*
X0170938Y0042469D01*
X0171405Y0042936D01*
X0172339Y0042936D01*
X0172806Y0043404D01*
X0172339Y0043871D01*
X0170938Y0043871D01*
X0170044Y0043871D02*
X0169109Y0043871D01*
X0169576Y0044338D02*
X0169576Y0042469D01*
X0169109Y0042002D01*
X0174187Y0046502D02*
X0174187Y0048371D01*
X0171418Y0049305D02*
X0171418Y0049772D01*
X0157153Y0043871D02*
X0157153Y0042002D01*
X0189814Y0042469D02*
X0190281Y0042936D01*
X0191215Y0042936D01*
X0191682Y0043404D01*
X0191215Y0043871D01*
X0189814Y0043871D01*
X0189814Y0042469D02*
X0190281Y0042002D01*
X0191682Y0042002D01*
X0192576Y0042936D02*
X0194444Y0042936D01*
X0194444Y0042469D02*
X0194444Y0043404D01*
X0193977Y0043871D01*
X0193043Y0043871D01*
X0192576Y0043404D01*
X0192576Y0042936D01*
X0193043Y0042002D02*
X0193977Y0042002D01*
X0194444Y0042469D01*
X0195338Y0042002D02*
X0196740Y0042002D01*
X0197207Y0042469D01*
X0197207Y0043404D01*
X0196740Y0043871D01*
X0195338Y0043871D01*
X0210074Y0111137D02*
X0212238Y0111137D01*
X0212238Y0112219D01*
X0211877Y0112580D01*
X0211156Y0112580D01*
X0210795Y0112219D01*
X0210795Y0111137D01*
X0210795Y0111858D02*
X0210074Y0112580D01*
X0210434Y0113312D02*
X0210074Y0113673D01*
X0210074Y0114394D01*
X0210434Y0114755D01*
X0210795Y0114755D01*
X0211156Y0114394D01*
X0211156Y0114033D01*
X0211156Y0114394D02*
X0211516Y0114755D01*
X0211877Y0114755D01*
X0212238Y0114394D01*
X0212238Y0113673D01*
X0211877Y0113312D01*
D11*
X0213755Y0112431D02*
X0213755Y0114793D01*
X0218480Y0114793D02*
X0218480Y0112431D01*
X0222887Y0123674D02*
X0222887Y0126036D01*
X0227611Y0126036D02*
X0227611Y0123674D01*
X0227272Y0139249D02*
X0227272Y0141611D01*
X0222548Y0141611D02*
X0222548Y0139249D01*
X0216580Y0154131D02*
X0216580Y0156493D01*
X0211855Y0156493D02*
X0211855Y0154131D01*
X0202296Y0159509D02*
X0202296Y0165119D01*
X0190139Y0165119D02*
X0190139Y0159509D01*
X0183398Y0169950D02*
X0181036Y0169950D01*
X0181036Y0174674D02*
X0183398Y0174674D01*
X0176398Y0167674D02*
X0174036Y0167674D01*
X0174036Y0162950D02*
X0176398Y0162950D01*
X0176398Y0157674D02*
X0174036Y0157674D01*
X0174036Y0152950D02*
X0176398Y0152950D01*
X0176398Y0144674D02*
X0174036Y0144674D01*
X0174036Y0139950D02*
X0176398Y0139950D01*
X0157529Y0157228D02*
X0155167Y0157228D01*
X0155167Y0161952D02*
X0157529Y0161952D01*
X0125398Y0186950D02*
X0123036Y0186950D01*
X0123036Y0191674D02*
X0125398Y0191674D01*
X0101580Y0210131D02*
X0101580Y0212493D01*
X0096855Y0212493D02*
X0096855Y0210131D01*
X0101036Y0225950D02*
X0103398Y0225950D01*
X0103398Y0230674D02*
X0101036Y0230674D01*
X0063391Y0150910D02*
X0061028Y0150910D01*
X0061028Y0146186D02*
X0063391Y0146186D01*
X0128855Y0104485D02*
X0128855Y0102123D01*
X0133580Y0102123D02*
X0133580Y0104485D01*
X0136729Y0104036D02*
X0136729Y0101674D01*
X0141454Y0101674D02*
X0141454Y0104036D01*
X0112745Y0059965D02*
X0110383Y0059965D01*
X0110383Y0055241D02*
X0112745Y0055241D01*
X0076910Y0053375D02*
X0074548Y0053375D01*
X0074548Y0058099D02*
X0076910Y0058099D01*
X0221855Y0208131D02*
X0221855Y0210493D01*
X0226580Y0210493D02*
X0226580Y0208131D01*
X0191580Y0217131D02*
X0191580Y0219493D01*
X0186855Y0219493D02*
X0186855Y0217131D01*
X0225036Y0055674D02*
X0227398Y0055674D01*
X0227398Y0050950D02*
X0225036Y0050950D01*
D12*
X0069523Y0059287D02*
X0069523Y0060788D01*
X0068522Y0060788D01*
X0069022Y0060038D02*
X0069523Y0060038D01*
X0069995Y0060288D02*
X0069995Y0059287D01*
X0070746Y0059287D01*
X0070996Y0059537D01*
X0070996Y0060288D01*
X0071969Y0060788D02*
X0071969Y0059287D01*
X0072469Y0059287D02*
X0071468Y0059287D01*
X0072469Y0060288D02*
X0071969Y0060788D01*
X0072956Y0059537D02*
X0072956Y0059287D01*
X0073206Y0059287D01*
X0073206Y0059537D01*
X0072956Y0059537D01*
X0073678Y0059537D02*
X0073928Y0059287D01*
X0074429Y0059287D01*
X0074679Y0059537D01*
X0073678Y0060538D01*
X0073678Y0059537D01*
X0073678Y0060538D02*
X0073928Y0060788D01*
X0074429Y0060788D01*
X0074679Y0060538D01*
X0074679Y0059537D01*
X0076205Y0060288D02*
X0077206Y0059287D01*
X0077206Y0059037D01*
X0077678Y0059287D02*
X0077928Y0059037D01*
X0078429Y0059037D01*
X0078679Y0059287D01*
X0078679Y0060288D01*
X0078429Y0060538D01*
X0077928Y0060538D01*
X0077678Y0060288D01*
X0077206Y0060538D02*
X0076205Y0060538D01*
X0076205Y0060288D01*
X0117357Y0057654D02*
X0118357Y0057654D01*
X0118357Y0056153D01*
X0118830Y0056153D02*
X0118830Y0057154D01*
X0118357Y0056904D02*
X0117857Y0056904D01*
X0118830Y0056153D02*
X0119580Y0056153D01*
X0119831Y0056403D01*
X0119831Y0057154D01*
X0120803Y0057654D02*
X0120803Y0056153D01*
X0120303Y0056153D02*
X0121304Y0056153D01*
X0121790Y0056153D02*
X0122041Y0056153D01*
X0122041Y0056403D01*
X0121790Y0056403D01*
X0121790Y0056153D01*
X0122513Y0056403D02*
X0122763Y0056153D01*
X0123264Y0056153D01*
X0123514Y0056403D01*
X0122513Y0057404D01*
X0122513Y0056403D01*
X0123514Y0056403D02*
X0123514Y0057404D01*
X0123264Y0057654D01*
X0122763Y0057654D01*
X0122513Y0057404D01*
X0121304Y0057154D02*
X0120803Y0057654D01*
X0120264Y0058903D02*
X0119763Y0058903D01*
X0119513Y0059153D01*
X0119041Y0059153D02*
X0119041Y0059404D01*
X0118790Y0059654D01*
X0118290Y0059654D01*
X0118040Y0059404D01*
X0118040Y0059153D01*
X0118290Y0058903D01*
X0118790Y0058903D01*
X0119041Y0059153D01*
X0118790Y0059654D02*
X0119041Y0059904D01*
X0119041Y0060154D01*
X0118790Y0060404D01*
X0118290Y0060404D01*
X0118040Y0060154D01*
X0118040Y0059904D01*
X0118290Y0059654D01*
X0119513Y0060154D02*
X0119763Y0060404D01*
X0120264Y0060404D01*
X0120514Y0060154D01*
X0120514Y0059153D01*
X0120264Y0058903D01*
X0130418Y0090724D02*
X0131418Y0091725D01*
X0130418Y0091725D01*
X0130167Y0091475D01*
X0130167Y0090974D01*
X0130418Y0090724D01*
X0131418Y0090724D01*
X0131669Y0090974D01*
X0131669Y0091475D01*
X0131418Y0091725D01*
X0130418Y0092198D02*
X0130418Y0092448D01*
X0130167Y0092448D01*
X0130167Y0092198D01*
X0130418Y0092198D01*
X0130167Y0092934D02*
X0130167Y0093935D01*
X0130167Y0093435D02*
X0131669Y0093435D01*
X0131168Y0092934D01*
X0131168Y0094407D02*
X0130418Y0094407D01*
X0130167Y0094658D01*
X0130167Y0095408D01*
X0131168Y0095408D01*
X0130918Y0095881D02*
X0130918Y0096381D01*
X0130167Y0095881D02*
X0131669Y0095881D01*
X0131669Y0096882D01*
X0134104Y0098400D02*
X0134355Y0098149D01*
X0135355Y0099150D01*
X0134355Y0099150D01*
X0134104Y0098900D01*
X0134104Y0098400D01*
X0134355Y0098149D02*
X0135355Y0098149D01*
X0135606Y0098400D01*
X0135606Y0098900D01*
X0135355Y0099150D01*
X0134355Y0099623D02*
X0134355Y0099873D01*
X0134104Y0099873D01*
X0134104Y0099623D01*
X0134355Y0099623D01*
X0134104Y0100359D02*
X0134104Y0101360D01*
X0134104Y0100860D02*
X0135606Y0100860D01*
X0135105Y0100359D01*
X0135105Y0101833D02*
X0134355Y0101833D01*
X0134104Y0102083D01*
X0134104Y0102833D01*
X0135105Y0102833D01*
X0134855Y0103306D02*
X0134855Y0103806D01*
X0135606Y0103306D02*
X0135606Y0104307D01*
X0135606Y0103306D02*
X0134104Y0103306D01*
X0131668Y0109407D02*
X0130668Y0109407D01*
X0130417Y0109658D01*
X0130417Y0110158D01*
X0130668Y0110408D01*
X0130668Y0110881D02*
X0130417Y0111131D01*
X0130417Y0111631D01*
X0130668Y0111882D01*
X0130918Y0111882D01*
X0131168Y0111631D01*
X0131168Y0111381D01*
X0131168Y0111631D02*
X0131418Y0111882D01*
X0131668Y0111882D01*
X0131919Y0111631D01*
X0131919Y0111131D01*
X0131668Y0110881D01*
X0131668Y0110408D02*
X0131919Y0110158D01*
X0131919Y0109658D01*
X0131668Y0109407D01*
X0137291Y0109209D02*
X0137291Y0109709D01*
X0137542Y0109959D01*
X0138042Y0110432D02*
X0138042Y0111433D01*
X0138793Y0111182D02*
X0138042Y0110432D01*
X0138542Y0109959D02*
X0138793Y0109709D01*
X0138793Y0109209D01*
X0138542Y0108959D01*
X0137542Y0108959D01*
X0137291Y0109209D01*
X0137291Y0111182D02*
X0138793Y0111182D01*
X0172640Y0137762D02*
X0172640Y0138763D01*
X0172890Y0139013D01*
X0173390Y0139013D01*
X0173641Y0138763D01*
X0173641Y0138513D01*
X0173390Y0138262D01*
X0172640Y0138262D01*
X0172640Y0137762D02*
X0172890Y0137512D01*
X0173390Y0137512D01*
X0173641Y0137762D01*
X0174113Y0137512D02*
X0175114Y0137512D01*
X0175586Y0137512D02*
X0176087Y0138012D01*
X0175836Y0138012D02*
X0176587Y0138012D01*
X0176587Y0137512D02*
X0176587Y0139013D01*
X0175836Y0139013D01*
X0175586Y0138763D01*
X0175586Y0138262D01*
X0175836Y0138012D01*
X0175114Y0138513D02*
X0174613Y0139013D01*
X0174613Y0137512D01*
X0174836Y0146262D02*
X0175337Y0146262D01*
X0175587Y0146512D01*
X0176060Y0146512D02*
X0176060Y0147513D01*
X0176310Y0147763D01*
X0176810Y0147763D01*
X0177060Y0147513D01*
X0177060Y0147263D01*
X0176810Y0147012D01*
X0176060Y0147012D01*
X0175587Y0147012D02*
X0175087Y0147263D01*
X0174836Y0147263D01*
X0174586Y0147012D01*
X0174586Y0146512D01*
X0174836Y0146262D01*
X0174114Y0146512D02*
X0173113Y0147513D01*
X0173113Y0146512D01*
X0173363Y0146262D01*
X0173864Y0146262D01*
X0174114Y0146512D01*
X0174114Y0147513D01*
X0173864Y0147763D01*
X0173363Y0147763D01*
X0173113Y0147513D01*
X0172641Y0147763D02*
X0171890Y0147763D01*
X0171640Y0147513D01*
X0171640Y0147012D01*
X0171890Y0146762D01*
X0172641Y0146762D01*
X0172641Y0146262D02*
X0172641Y0147763D01*
X0172140Y0146762D02*
X0171640Y0146262D01*
X0174586Y0147763D02*
X0175587Y0147763D01*
X0175587Y0147012D01*
X0176060Y0146512D02*
X0176310Y0146262D01*
X0176810Y0146262D01*
X0177060Y0146512D01*
X0182018Y0153362D02*
X0181767Y0153612D01*
X0181767Y0154112D01*
X0182018Y0154363D01*
X0182268Y0154363D01*
X0182518Y0154112D01*
X0182518Y0153362D01*
X0182018Y0153362D01*
X0182518Y0153362D02*
X0183018Y0153862D01*
X0183269Y0154363D01*
X0183018Y0154835D02*
X0183269Y0155085D01*
X0183269Y0155586D01*
X0183018Y0155836D01*
X0182018Y0154835D01*
X0181767Y0155085D01*
X0181767Y0155586D01*
X0182018Y0155836D01*
X0183018Y0155836D01*
X0183269Y0156308D02*
X0181767Y0156308D01*
X0182268Y0156308D02*
X0183269Y0157309D01*
X0182518Y0156559D02*
X0181767Y0157309D01*
X0182018Y0154835D02*
X0183018Y0154835D01*
X0169019Y0155085D02*
X0168768Y0154835D01*
X0169019Y0155085D02*
X0169019Y0155586D01*
X0168768Y0155836D01*
X0168518Y0155836D01*
X0167517Y0154835D01*
X0167517Y0155836D01*
X0167768Y0156308D02*
X0168768Y0157309D01*
X0167768Y0157309D01*
X0167517Y0157059D01*
X0167517Y0156559D01*
X0167768Y0156308D01*
X0168768Y0156308D01*
X0169019Y0156559D01*
X0169019Y0157059D01*
X0168768Y0157309D01*
X0168768Y0154363D02*
X0168268Y0154363D01*
X0168018Y0154112D01*
X0168018Y0153362D01*
X0168018Y0153862D02*
X0167517Y0154363D01*
X0167517Y0153362D02*
X0169019Y0153362D01*
X0169019Y0154112D01*
X0168768Y0154363D01*
X0168919Y0162942D02*
X0167417Y0162942D01*
X0167918Y0162942D02*
X0167918Y0163693D01*
X0168168Y0163943D01*
X0168668Y0163943D01*
X0168919Y0163693D01*
X0168919Y0162942D01*
X0167918Y0163442D02*
X0167417Y0163943D01*
X0167417Y0164415D02*
X0168418Y0165416D01*
X0168668Y0165416D01*
X0168919Y0165166D01*
X0168919Y0164666D01*
X0168668Y0164415D01*
X0167417Y0164415D02*
X0167417Y0165416D01*
X0167417Y0165889D02*
X0167417Y0166889D01*
X0167417Y0166389D02*
X0168919Y0166389D01*
X0168418Y0165889D01*
X0166669Y0165889D02*
X0165167Y0165889D01*
X0165668Y0165889D02*
X0166669Y0166889D01*
X0165918Y0166139D02*
X0165167Y0166889D01*
X0165418Y0165416D02*
X0165167Y0165166D01*
X0165167Y0164666D01*
X0165418Y0164415D01*
X0166418Y0165416D01*
X0165418Y0165416D01*
X0166418Y0165416D02*
X0166669Y0165166D01*
X0166669Y0164666D01*
X0166418Y0164415D01*
X0165418Y0164415D01*
X0165167Y0163943D02*
X0165167Y0162942D01*
X0165167Y0163442D02*
X0166669Y0163442D01*
X0166168Y0162942D01*
X0158037Y0163584D02*
X0157036Y0163584D01*
X0157536Y0163584D02*
X0157536Y0165085D01*
X0158037Y0164585D01*
X0156563Y0164835D02*
X0156313Y0165085D01*
X0155813Y0165085D01*
X0155563Y0164835D01*
X0156563Y0163834D01*
X0156313Y0163584D01*
X0155813Y0163584D01*
X0155563Y0163834D01*
X0155563Y0164835D01*
X0155090Y0165085D02*
X0155090Y0163584D01*
X0155090Y0164084D02*
X0154089Y0165085D01*
X0154840Y0164334D02*
X0154089Y0163584D01*
X0156563Y0163834D02*
X0156563Y0164835D01*
X0156494Y0156291D02*
X0156244Y0156041D01*
X0156244Y0155540D01*
X0156494Y0155290D01*
X0157245Y0155290D01*
X0157245Y0154790D02*
X0157245Y0156291D01*
X0156494Y0156291D01*
X0155771Y0156041D02*
X0155521Y0156291D01*
X0155021Y0156291D01*
X0154770Y0156041D01*
X0154770Y0155791D01*
X0155771Y0154790D01*
X0154770Y0154790D01*
X0156244Y0154790D02*
X0156744Y0155290D01*
X0176640Y0175262D02*
X0177390Y0176012D01*
X0177641Y0175762D02*
X0176640Y0176763D01*
X0177641Y0176763D02*
X0177641Y0175262D01*
X0178113Y0175512D02*
X0178363Y0175262D01*
X0178864Y0175262D01*
X0179114Y0175512D01*
X0178113Y0176513D01*
X0178113Y0175512D01*
X0179114Y0175512D02*
X0179114Y0176513D01*
X0178864Y0176763D01*
X0178363Y0176763D01*
X0178113Y0176513D01*
X0179586Y0176763D02*
X0180087Y0176513D01*
X0180587Y0176012D01*
X0179836Y0176012D01*
X0179586Y0175762D01*
X0179586Y0175512D01*
X0179836Y0175262D01*
X0180337Y0175262D01*
X0180587Y0175512D01*
X0180587Y0176012D01*
X0181220Y0175612D02*
X0182221Y0175612D01*
X0181220Y0176613D01*
X0181220Y0176863D01*
X0181470Y0177113D01*
X0181971Y0177113D01*
X0182221Y0176863D01*
X0182693Y0176863D02*
X0182943Y0177113D01*
X0183444Y0177113D01*
X0183694Y0176863D01*
X0184166Y0176863D02*
X0184166Y0176362D01*
X0184417Y0176112D01*
X0185167Y0176112D01*
X0184667Y0176112D02*
X0184166Y0175612D01*
X0183694Y0175612D02*
X0182693Y0176613D01*
X0182693Y0176863D01*
X0182693Y0175612D02*
X0183694Y0175612D01*
X0184166Y0176863D02*
X0184417Y0177113D01*
X0185167Y0177113D01*
X0185167Y0175612D01*
X0209417Y0157639D02*
X0209417Y0157139D01*
X0209668Y0156889D01*
X0209918Y0156889D01*
X0210168Y0157139D01*
X0210168Y0157639D01*
X0209918Y0157889D01*
X0209668Y0157889D01*
X0209417Y0157639D01*
X0210168Y0157639D02*
X0210418Y0157889D01*
X0210668Y0157889D01*
X0210919Y0157639D01*
X0210919Y0157139D01*
X0210668Y0156889D01*
X0210418Y0156889D01*
X0210168Y0157139D01*
X0210418Y0156416D02*
X0210168Y0156166D01*
X0209918Y0156416D01*
X0209668Y0156416D01*
X0209417Y0156166D01*
X0209417Y0155666D01*
X0209668Y0155415D01*
X0209417Y0154943D02*
X0209918Y0154442D01*
X0209918Y0154693D02*
X0209918Y0153942D01*
X0209417Y0153942D02*
X0210919Y0153942D01*
X0210919Y0154693D01*
X0210668Y0154943D01*
X0210168Y0154943D01*
X0209918Y0154693D01*
X0210668Y0155415D02*
X0210919Y0155666D01*
X0210919Y0156166D01*
X0210668Y0156416D01*
X0210418Y0156416D01*
X0210168Y0156166D02*
X0210168Y0155916D01*
X0218167Y0155693D02*
X0218167Y0155192D01*
X0218418Y0154942D01*
X0218918Y0154942D02*
X0219168Y0155442D01*
X0219168Y0155693D01*
X0218918Y0155943D01*
X0218418Y0155943D01*
X0218167Y0155693D01*
X0218418Y0156415D02*
X0219418Y0157416D01*
X0218418Y0157416D01*
X0218167Y0157166D01*
X0218167Y0156665D01*
X0218418Y0156415D01*
X0219418Y0156415D01*
X0219669Y0156665D01*
X0219669Y0157166D01*
X0219418Y0157416D01*
X0219669Y0157889D02*
X0219669Y0158639D01*
X0219418Y0158889D01*
X0218918Y0158889D01*
X0218668Y0158639D01*
X0218668Y0157889D01*
X0218668Y0158389D02*
X0218167Y0158889D01*
X0218167Y0157889D02*
X0219669Y0157889D01*
X0219669Y0155943D02*
X0219669Y0154942D01*
X0218918Y0154942D01*
X0219168Y0154470D02*
X0219418Y0154470D01*
X0219669Y0154219D01*
X0219669Y0153719D01*
X0219418Y0153469D01*
X0219168Y0154470D02*
X0218167Y0153469D01*
X0218167Y0154470D01*
X0220962Y0142637D02*
X0220962Y0141636D01*
X0219460Y0141636D01*
X0219460Y0141164D02*
X0220461Y0141164D01*
X0220211Y0141636D02*
X0220211Y0142137D01*
X0219460Y0141164D02*
X0219460Y0140413D01*
X0219710Y0140163D01*
X0220461Y0140163D01*
X0220962Y0139190D02*
X0219460Y0139190D01*
X0219460Y0138690D02*
X0219460Y0139691D01*
X0220461Y0138690D02*
X0220962Y0139190D01*
X0219710Y0138203D02*
X0219460Y0138203D01*
X0219460Y0137953D01*
X0219710Y0137953D01*
X0219710Y0138203D01*
X0219710Y0137481D02*
X0219460Y0137231D01*
X0219460Y0136730D01*
X0219710Y0136480D01*
X0220711Y0137481D01*
X0219710Y0137481D01*
X0219710Y0136480D02*
X0220711Y0136480D01*
X0220962Y0136730D01*
X0220962Y0137231D01*
X0220711Y0137481D01*
X0228210Y0137730D02*
X0228210Y0138231D01*
X0228460Y0138481D01*
X0228210Y0138953D02*
X0228210Y0139954D01*
X0228210Y0139454D02*
X0229712Y0139454D01*
X0229211Y0138953D01*
X0229461Y0138481D02*
X0229712Y0138231D01*
X0229712Y0137730D01*
X0229461Y0137480D01*
X0228460Y0137480D01*
X0228210Y0137730D01*
X0228460Y0140426D02*
X0228210Y0140677D01*
X0228210Y0141177D01*
X0228460Y0141427D01*
X0228711Y0141427D01*
X0228961Y0141177D01*
X0228961Y0140927D01*
X0228961Y0141177D02*
X0229211Y0141427D01*
X0229461Y0141427D01*
X0229712Y0141177D01*
X0229712Y0140677D01*
X0229461Y0140426D01*
X0229550Y0125852D02*
X0229800Y0125852D01*
X0230050Y0125602D01*
X0230050Y0125102D01*
X0229800Y0124852D01*
X0230050Y0123879D02*
X0228549Y0123879D01*
X0228549Y0124379D02*
X0228549Y0123378D01*
X0228799Y0122906D02*
X0228549Y0122656D01*
X0228549Y0122155D01*
X0228799Y0121905D01*
X0229800Y0121905D01*
X0230050Y0122155D01*
X0230050Y0122656D01*
X0229800Y0122906D01*
X0229550Y0123378D02*
X0230050Y0123879D01*
X0228549Y0124852D02*
X0229550Y0125852D01*
X0228549Y0125852D02*
X0228549Y0124852D01*
X0221300Y0126062D02*
X0221300Y0127062D01*
X0220549Y0126562D02*
X0220549Y0126062D01*
X0220800Y0125589D02*
X0219799Y0125589D01*
X0219799Y0124838D01*
X0220049Y0124588D01*
X0220800Y0124588D01*
X0221300Y0123615D02*
X0219799Y0123615D01*
X0219799Y0123115D02*
X0219799Y0124116D01*
X0220800Y0123115D02*
X0221300Y0123615D01*
X0220049Y0122629D02*
X0219799Y0122629D01*
X0219799Y0122378D01*
X0220049Y0122378D01*
X0220049Y0122629D01*
X0220049Y0121906D02*
X0219799Y0121656D01*
X0219799Y0121155D01*
X0220049Y0120905D01*
X0221050Y0121906D01*
X0220049Y0121906D01*
X0221050Y0121906D02*
X0221300Y0121656D01*
X0221300Y0121155D01*
X0221050Y0120905D01*
X0220049Y0120905D01*
X0219799Y0126062D02*
X0221300Y0126062D01*
X0225470Y0058113D02*
X0225220Y0057863D01*
X0225220Y0057613D01*
X0226221Y0056612D01*
X0225220Y0056612D01*
X0225470Y0058113D02*
X0225971Y0058113D01*
X0226221Y0057863D01*
X0226693Y0057362D02*
X0227694Y0057362D01*
X0226943Y0058113D01*
X0226943Y0056612D01*
X0228166Y0056612D02*
X0228667Y0057112D01*
X0228417Y0057112D02*
X0229167Y0057112D01*
X0229167Y0056612D02*
X0229167Y0058113D01*
X0228417Y0058113D01*
X0228166Y0057863D01*
X0228166Y0057362D01*
X0228417Y0057112D01*
X0228694Y0049363D02*
X0227943Y0049363D01*
X0227693Y0049113D01*
X0227693Y0048612D01*
X0227943Y0048362D01*
X0228694Y0048362D01*
X0228694Y0047862D02*
X0228694Y0049363D01*
X0229166Y0049113D02*
X0229417Y0049363D01*
X0229917Y0049363D01*
X0230167Y0049113D01*
X0230167Y0048112D01*
X0229166Y0049113D01*
X0229166Y0048112D01*
X0229417Y0047862D01*
X0229917Y0047862D01*
X0230167Y0048112D01*
X0228194Y0048362D02*
X0227693Y0047862D01*
X0127917Y0183862D02*
X0128167Y0184112D01*
X0127917Y0183862D02*
X0127417Y0183862D01*
X0127166Y0184112D01*
X0127166Y0184362D01*
X0127417Y0184612D01*
X0127667Y0184612D01*
X0127417Y0184612D02*
X0127166Y0184863D01*
X0127166Y0185113D01*
X0127417Y0185363D01*
X0127917Y0185363D01*
X0128167Y0185113D01*
X0126694Y0185113D02*
X0126444Y0185363D01*
X0125943Y0185363D01*
X0125693Y0185113D01*
X0125693Y0184863D01*
X0125943Y0184612D01*
X0125693Y0184362D01*
X0125693Y0184112D01*
X0125943Y0183862D01*
X0126444Y0183862D01*
X0126694Y0184112D01*
X0126194Y0184612D02*
X0125943Y0184612D01*
X0125221Y0184112D02*
X0124220Y0185113D01*
X0124220Y0184112D01*
X0124470Y0183862D01*
X0124971Y0183862D01*
X0125221Y0184112D01*
X0125221Y0185113D01*
X0124971Y0185363D01*
X0124470Y0185363D01*
X0124220Y0185113D01*
X0123748Y0185363D02*
X0122997Y0185363D01*
X0122747Y0185113D01*
X0122747Y0184612D01*
X0122997Y0184362D01*
X0123748Y0184362D01*
X0123748Y0183862D02*
X0123748Y0185363D01*
X0123247Y0184362D02*
X0122747Y0183862D01*
X0123470Y0192612D02*
X0123220Y0192862D01*
X0123220Y0193863D01*
X0123470Y0194113D01*
X0123971Y0194113D01*
X0124221Y0193863D01*
X0124221Y0193613D01*
X0123971Y0193362D01*
X0123220Y0193362D01*
X0123470Y0192612D02*
X0123971Y0192612D01*
X0124221Y0192862D01*
X0124693Y0192862D02*
X0124943Y0192612D01*
X0125444Y0192612D01*
X0125694Y0192862D01*
X0126166Y0192612D02*
X0126667Y0193112D01*
X0126417Y0193112D02*
X0127167Y0193112D01*
X0127167Y0192612D02*
X0127167Y0194113D01*
X0126417Y0194113D01*
X0126166Y0193863D01*
X0126166Y0193362D01*
X0126417Y0193112D01*
X0125694Y0193863D02*
X0125444Y0194113D01*
X0124943Y0194113D01*
X0124693Y0193863D01*
X0124693Y0193613D01*
X0124943Y0193362D01*
X0124693Y0193112D01*
X0124693Y0192862D01*
X0124943Y0193362D02*
X0125194Y0193362D01*
X0126767Y0210362D02*
X0126767Y0211363D01*
X0126767Y0210862D02*
X0128269Y0210862D01*
X0127768Y0210362D01*
X0127768Y0211835D02*
X0127018Y0211835D01*
X0126767Y0212085D01*
X0126767Y0212836D01*
X0127768Y0212836D01*
X0127518Y0213308D02*
X0127518Y0213809D01*
X0128269Y0213308D02*
X0128269Y0214309D01*
X0128269Y0213308D02*
X0126767Y0213308D01*
X0134267Y0213336D02*
X0134267Y0212335D01*
X0135268Y0213336D01*
X0135518Y0213336D01*
X0135769Y0213086D01*
X0135769Y0212585D01*
X0135518Y0212335D01*
X0135518Y0211863D02*
X0135769Y0211612D01*
X0135769Y0211112D01*
X0135518Y0210862D01*
X0134518Y0210862D01*
X0134267Y0211112D01*
X0134267Y0211612D01*
X0134518Y0211863D01*
X0134518Y0213808D02*
X0134267Y0214059D01*
X0134267Y0214559D01*
X0134518Y0214809D01*
X0134768Y0214809D01*
X0135018Y0214559D01*
X0135018Y0214309D01*
X0135018Y0214559D02*
X0135268Y0214809D01*
X0135518Y0214809D01*
X0135769Y0214559D01*
X0135769Y0214059D01*
X0135518Y0213808D01*
X0106167Y0222862D02*
X0105166Y0223863D01*
X0105166Y0224113D01*
X0105417Y0224363D01*
X0105917Y0224363D01*
X0106167Y0224113D01*
X0106167Y0222862D02*
X0105166Y0222862D01*
X0104694Y0222862D02*
X0103693Y0223863D01*
X0103693Y0224113D01*
X0103943Y0224363D01*
X0104444Y0224363D01*
X0104694Y0224113D01*
X0104694Y0222862D02*
X0103693Y0222862D01*
X0103221Y0222862D02*
X0102470Y0222862D01*
X0102220Y0223112D01*
X0102220Y0223612D01*
X0102470Y0223863D01*
X0103221Y0223863D01*
X0103221Y0222361D01*
X0101748Y0222862D02*
X0101748Y0224363D01*
X0100747Y0224363D01*
X0101247Y0223612D02*
X0101748Y0223612D01*
X0101971Y0231612D02*
X0102221Y0231862D01*
X0102221Y0232112D01*
X0101971Y0232362D01*
X0101470Y0232362D01*
X0101220Y0232112D01*
X0101220Y0231862D01*
X0101470Y0231612D01*
X0101971Y0231612D01*
X0102693Y0231612D02*
X0103694Y0231612D01*
X0102693Y0232613D01*
X0102693Y0232863D01*
X0102943Y0233113D01*
X0103444Y0233113D01*
X0103694Y0232863D01*
X0104166Y0232863D02*
X0104417Y0233113D01*
X0104917Y0233113D01*
X0105167Y0232863D01*
X0105167Y0231862D01*
X0104917Y0231612D01*
X0104417Y0231612D01*
X0104166Y0231862D01*
X0102221Y0232613D02*
X0102221Y0232863D01*
X0101971Y0233113D01*
X0101470Y0233113D01*
X0101220Y0232863D01*
X0101220Y0232613D01*
X0101470Y0232362D01*
X0101971Y0232362D02*
X0102221Y0232613D01*
X0095269Y0212782D02*
X0094268Y0211782D01*
X0094518Y0212032D02*
X0093767Y0212782D01*
X0093767Y0211782D02*
X0095269Y0211782D01*
X0095018Y0211309D02*
X0094018Y0210308D01*
X0093767Y0210559D01*
X0093767Y0211059D01*
X0094018Y0211309D01*
X0095018Y0211309D01*
X0095269Y0211059D01*
X0095269Y0210559D01*
X0095018Y0210308D01*
X0094018Y0210308D01*
X0094018Y0209836D02*
X0094268Y0209836D01*
X0094518Y0209586D01*
X0094518Y0208835D01*
X0094018Y0208835D01*
X0093767Y0209085D01*
X0093767Y0209586D01*
X0094018Y0209836D01*
X0095018Y0209335D02*
X0094518Y0208835D01*
X0094518Y0208363D02*
X0094018Y0208363D01*
X0093767Y0208112D01*
X0093767Y0207612D01*
X0094018Y0207362D01*
X0094518Y0207362D02*
X0094768Y0207862D01*
X0094768Y0208112D01*
X0094518Y0208363D01*
X0095269Y0208363D02*
X0095269Y0207362D01*
X0094518Y0207362D01*
X0095018Y0209335D02*
X0095269Y0209836D01*
X0102517Y0210085D02*
X0102517Y0210586D01*
X0102768Y0210836D01*
X0103768Y0210836D01*
X0104019Y0210586D01*
X0104019Y0210085D01*
X0103768Y0209835D01*
X0103518Y0209835D01*
X0103268Y0210085D01*
X0103268Y0210836D01*
X0102517Y0210085D02*
X0102768Y0209835D01*
X0102517Y0209363D02*
X0103018Y0208862D01*
X0103018Y0209112D02*
X0103018Y0208362D01*
X0102517Y0208362D02*
X0104019Y0208362D01*
X0104019Y0209112D01*
X0103768Y0209363D01*
X0103268Y0209363D01*
X0103018Y0209112D01*
X0063552Y0153999D02*
X0063552Y0152498D01*
X0064052Y0152498D02*
X0063052Y0152498D01*
X0062579Y0152748D02*
X0061578Y0153749D01*
X0061578Y0152748D01*
X0061829Y0152498D01*
X0062329Y0152498D01*
X0062579Y0152748D01*
X0062579Y0153749D01*
X0062329Y0153999D01*
X0061829Y0153999D01*
X0061578Y0153749D01*
X0061106Y0153499D02*
X0061106Y0152748D01*
X0060856Y0152498D01*
X0060105Y0152498D01*
X0060105Y0153499D01*
X0059633Y0153249D02*
X0059132Y0153249D01*
X0059633Y0153999D02*
X0058632Y0153999D01*
X0059633Y0153999D02*
X0059633Y0152498D01*
X0063552Y0153999D02*
X0064052Y0153499D01*
X0063329Y0145249D02*
X0063579Y0144999D01*
X0063579Y0143998D01*
X0063329Y0143748D01*
X0062829Y0143748D01*
X0062578Y0143998D01*
X0062106Y0143748D02*
X0061105Y0143748D01*
X0061606Y0143748D02*
X0061606Y0145249D01*
X0062106Y0144749D01*
X0062578Y0144999D02*
X0062829Y0145249D01*
X0063329Y0145249D01*
X0060633Y0144999D02*
X0060633Y0143998D01*
X0059632Y0144999D01*
X0059632Y0143998D01*
X0059882Y0143748D01*
X0060383Y0143748D01*
X0060633Y0143998D01*
X0060633Y0144999D02*
X0060383Y0145249D01*
X0059882Y0145249D01*
X0059632Y0144999D01*
X0184417Y0216942D02*
X0185919Y0216942D01*
X0185919Y0217693D01*
X0185668Y0217943D01*
X0185168Y0217943D01*
X0184918Y0217693D01*
X0184918Y0216942D01*
X0184918Y0217442D02*
X0184417Y0217943D01*
X0184668Y0218415D02*
X0184417Y0218666D01*
X0184417Y0219166D01*
X0184668Y0219416D01*
X0184918Y0219416D01*
X0185168Y0219166D01*
X0185168Y0218916D01*
X0185168Y0219166D02*
X0185418Y0219416D01*
X0185668Y0219416D01*
X0185919Y0219166D01*
X0185919Y0218666D01*
X0185668Y0218415D01*
X0185418Y0219889D02*
X0185919Y0220389D01*
X0184417Y0220389D01*
X0184417Y0219889D02*
X0184417Y0220889D01*
X0193167Y0220889D02*
X0194669Y0220889D01*
X0194669Y0221639D01*
X0194418Y0221889D01*
X0193918Y0221889D01*
X0193668Y0221639D01*
X0193668Y0220889D01*
X0193668Y0221389D02*
X0193167Y0221889D01*
X0193418Y0220416D02*
X0193167Y0220166D01*
X0193167Y0219665D01*
X0193418Y0219415D01*
X0194418Y0220416D01*
X0193418Y0220416D01*
X0194418Y0220416D02*
X0194669Y0220166D01*
X0194669Y0219665D01*
X0194418Y0219415D01*
X0193418Y0219415D01*
X0193418Y0218943D02*
X0193668Y0218943D01*
X0193918Y0218693D01*
X0193918Y0217942D01*
X0193418Y0217942D01*
X0193167Y0218192D01*
X0193167Y0218693D01*
X0193418Y0218943D01*
X0194418Y0218442D02*
X0193918Y0217942D01*
X0193918Y0217470D02*
X0193418Y0217470D01*
X0193167Y0217219D01*
X0193167Y0216719D01*
X0193418Y0216469D01*
X0193918Y0216469D02*
X0194168Y0216969D01*
X0194168Y0217219D01*
X0193918Y0217470D01*
X0194669Y0217470D02*
X0194669Y0216469D01*
X0193918Y0216469D01*
X0194418Y0218442D02*
X0194669Y0218943D01*
X0219417Y0210889D02*
X0219668Y0210889D01*
X0220668Y0211889D01*
X0220919Y0211889D01*
X0220919Y0210889D01*
X0220668Y0210416D02*
X0220418Y0210416D01*
X0220168Y0210166D01*
X0219918Y0210416D01*
X0219668Y0210416D01*
X0219417Y0210166D01*
X0219417Y0209666D01*
X0219668Y0209415D01*
X0219417Y0208943D02*
X0219918Y0208442D01*
X0219918Y0208693D02*
X0219918Y0207942D01*
X0219417Y0207942D02*
X0220919Y0207942D01*
X0220919Y0208693D01*
X0220668Y0208943D01*
X0220168Y0208943D01*
X0219918Y0208693D01*
X0220668Y0209415D02*
X0220919Y0209666D01*
X0220919Y0210166D01*
X0220668Y0210416D01*
X0220168Y0210166D02*
X0220168Y0209916D01*
X0228167Y0209693D02*
X0228167Y0209192D01*
X0228418Y0208942D01*
X0228918Y0208942D02*
X0229168Y0209442D01*
X0229168Y0209693D01*
X0228918Y0209943D01*
X0228418Y0209943D01*
X0228167Y0209693D01*
X0228418Y0210415D02*
X0228167Y0210665D01*
X0228167Y0211166D01*
X0228418Y0211416D01*
X0229418Y0211416D01*
X0228418Y0210415D01*
X0229418Y0210415D01*
X0229669Y0210665D01*
X0229669Y0211166D01*
X0229418Y0211416D01*
X0229669Y0211889D02*
X0229669Y0212639D01*
X0229418Y0212889D01*
X0228918Y0212889D01*
X0228668Y0212639D01*
X0228668Y0211889D01*
X0228668Y0212389D02*
X0228167Y0212889D01*
X0228167Y0211889D02*
X0229669Y0211889D01*
X0229669Y0209943D02*
X0229669Y0208942D01*
X0228918Y0208942D01*
X0229168Y0208470D02*
X0229418Y0208470D01*
X0229669Y0208219D01*
X0229669Y0207719D01*
X0229418Y0207469D01*
X0229168Y0208470D02*
X0228167Y0207469D01*
X0228167Y0208470D01*
D13*
X0208360Y0121254D02*
X0206058Y0121254D01*
X0205291Y0120486D01*
X0205291Y0118952D01*
X0206058Y0118184D01*
X0208360Y0118184D01*
X0208360Y0116650D02*
X0208360Y0121254D01*
X0203756Y0121254D02*
X0203756Y0116650D01*
X0200687Y0116650D02*
X0200687Y0121254D01*
X0202221Y0119719D01*
X0203756Y0121254D01*
X0199152Y0120486D02*
X0199152Y0117417D01*
X0198385Y0116650D01*
X0196850Y0116650D01*
X0196083Y0117417D01*
X0196083Y0120486D01*
X0196850Y0121254D01*
X0198385Y0121254D01*
X0199152Y0120486D01*
X0194548Y0120486D02*
X0194548Y0119719D01*
X0193781Y0118952D01*
X0192246Y0118952D01*
X0191479Y0118184D01*
X0191479Y0117417D01*
X0192246Y0116650D01*
X0193781Y0116650D01*
X0194548Y0117417D01*
X0194548Y0120486D02*
X0193781Y0121254D01*
X0192246Y0121254D01*
X0191479Y0120486D01*
X0074282Y0129835D02*
X0071213Y0129835D01*
X0069678Y0129835D02*
X0066609Y0129835D01*
X0068143Y0129835D02*
X0068143Y0134439D01*
X0069678Y0132904D01*
X0065074Y0133671D02*
X0065074Y0130602D01*
X0062005Y0133671D01*
X0062005Y0130602D01*
X0062772Y0129835D01*
X0064307Y0129835D01*
X0065074Y0130602D01*
X0065074Y0133671D02*
X0064307Y0134439D01*
X0062772Y0134439D01*
X0062005Y0133671D01*
X0074282Y0134439D02*
X0074282Y0129835D01*
D14*
X0201085Y0124834D02*
X0201087Y0124879D01*
X0201093Y0124924D01*
X0201103Y0124968D01*
X0201116Y0125011D01*
X0201133Y0125052D01*
X0201154Y0125092D01*
X0201178Y0125131D01*
X0201206Y0125166D01*
X0201236Y0125200D01*
X0201270Y0125230D01*
X0201305Y0125258D01*
X0201343Y0125282D01*
X0201384Y0125303D01*
X0201425Y0125320D01*
X0201468Y0125333D01*
X0201512Y0125343D01*
X0201557Y0125349D01*
X0201602Y0125351D01*
X0201647Y0125349D01*
X0201692Y0125343D01*
X0201736Y0125333D01*
X0201779Y0125320D01*
X0201820Y0125303D01*
X0201860Y0125282D01*
X0201899Y0125258D01*
X0201934Y0125230D01*
X0201968Y0125200D01*
X0201998Y0125166D01*
X0202026Y0125131D01*
X0202050Y0125092D01*
X0202071Y0125052D01*
X0202088Y0125011D01*
X0202101Y0124968D01*
X0202111Y0124924D01*
X0202117Y0124879D01*
X0202119Y0124834D01*
X0202117Y0124789D01*
X0202111Y0124744D01*
X0202101Y0124700D01*
X0202088Y0124657D01*
X0202071Y0124616D01*
X0202050Y0124576D01*
X0202026Y0124537D01*
X0201998Y0124502D01*
X0201968Y0124468D01*
X0201934Y0124438D01*
X0201899Y0124410D01*
X0201861Y0124386D01*
X0201820Y0124365D01*
X0201779Y0124348D01*
X0201736Y0124335D01*
X0201692Y0124325D01*
X0201647Y0124319D01*
X0201602Y0124317D01*
X0201557Y0124319D01*
X0201512Y0124325D01*
X0201468Y0124335D01*
X0201425Y0124348D01*
X0201384Y0124365D01*
X0201343Y0124386D01*
X0201305Y0124410D01*
X0201270Y0124438D01*
X0201236Y0124468D01*
X0201206Y0124502D01*
X0201178Y0124537D01*
X0201154Y0124575D01*
X0201133Y0124616D01*
X0201116Y0124657D01*
X0201103Y0124700D01*
X0201093Y0124744D01*
X0201087Y0124789D01*
X0201085Y0124834D01*
D15*
X0131337Y0214312D02*
X0131097Y0214312D01*
D16*
X0131237Y0216596D03*
X0131237Y0211996D03*
D17*
X0189569Y0176066D02*
X0192571Y0176066D01*
X0192571Y0173814D01*
X0191070Y0174564D01*
X0190319Y0174564D01*
X0189569Y0173814D01*
X0189569Y0172312D01*
X0190319Y0171562D01*
X0191821Y0171562D01*
X0192571Y0172312D01*
X0194173Y0171562D02*
X0197175Y0171562D01*
X0195674Y0171562D02*
X0195674Y0176066D01*
X0197175Y0174564D01*
X0198777Y0175315D02*
X0201779Y0172312D01*
X0201029Y0171562D01*
X0199527Y0171562D01*
X0198777Y0172312D01*
X0198777Y0175315D01*
X0199527Y0176066D01*
X0201029Y0176066D01*
X0201779Y0175315D01*
X0201779Y0172312D01*
X0203381Y0172312D02*
X0203381Y0173063D01*
X0204131Y0173814D01*
X0206383Y0173814D01*
X0206383Y0172312D01*
X0205632Y0171562D01*
X0204131Y0171562D01*
X0203381Y0172312D01*
X0206383Y0173814D02*
X0204882Y0175315D01*
X0203381Y0176066D01*
X0207984Y0176066D02*
X0210987Y0176066D01*
X0209486Y0176066D02*
X0209486Y0171562D01*
X0212588Y0171562D02*
X0215591Y0171562D01*
X0215591Y0176066D01*
M02*
