G75*
%MOIN*%
%OFA0B0*%
%FSLAX25Y25*%
%IPPOS*%
%LPD*%
%AMOC8*
5,1,8,0,0,1.08239X$1,22.5*
%
%ADD10R,0.03950X0.05524*%
%ADD11R,0.05524X0.03950*%
%ADD12R,0.05918X0.06706*%
%ADD13C,0.05950*%
%ADD14R,0.09461X0.03162*%
%ADD15R,0.04737X0.05131*%
%ADD16R,0.03162X0.05524*%
%ADD17R,0.09800X0.09800*%
%ADD18C,0.04400*%
%ADD19C,0.04369*%
%ADD20C,0.04800*%
%ADD21OC8,0.17300*%
%ADD22C,0.03975*%
%ADD23R,0.14800X0.14800*%
%ADD24R,0.04400X0.04400*%
D10*
X0072186Y0055737D03*
X0079272Y0055737D03*
X0108020Y0057603D03*
X0115107Y0057603D03*
X0171674Y0142312D03*
X0178761Y0142312D03*
X0178761Y0155312D03*
X0171674Y0155312D03*
X0171674Y0165312D03*
X0178761Y0165312D03*
X0178674Y0172312D03*
X0185761Y0172312D03*
X0159891Y0159590D03*
X0152805Y0159590D03*
X0127761Y0189312D03*
X0120674Y0189312D03*
X0105761Y0228312D03*
X0098674Y0228312D03*
X0065753Y0148548D03*
X0058666Y0148548D03*
X0222674Y0053312D03*
X0229761Y0053312D03*
D11*
X0216117Y0110069D03*
X0216117Y0117155D03*
X0225249Y0121312D03*
X0225249Y0128398D03*
X0224910Y0136887D03*
X0224910Y0143973D03*
X0214217Y0151769D03*
X0214217Y0158855D03*
X0224217Y0205769D03*
X0224217Y0212855D03*
X0189217Y0214769D03*
X0189217Y0221855D03*
X0099217Y0214855D03*
X0099217Y0207769D03*
X0131217Y0106847D03*
X0131217Y0099761D03*
X0139091Y0099312D03*
X0139091Y0106398D03*
D12*
X0066910Y0139635D03*
X0059430Y0139635D03*
D13*
X0222477Y0162698D03*
X0231509Y0171725D03*
X0240540Y0162698D03*
X0231509Y0153670D03*
X0234249Y0123733D03*
X0243280Y0114706D03*
X0234249Y0105678D03*
X0225217Y0114706D03*
D14*
X0215068Y0124174D03*
X0215068Y0129174D03*
X0215068Y0134174D03*
X0215068Y0139174D03*
X0194595Y0139174D03*
X0194595Y0134174D03*
X0194595Y0129174D03*
X0194595Y0124174D03*
D15*
X0131217Y0210965D03*
X0131217Y0217658D03*
D16*
X0192477Y0167454D03*
X0199957Y0167454D03*
X0199957Y0157170D03*
X0196217Y0157170D03*
X0192477Y0157170D03*
D17*
X0148217Y0140312D03*
X0148217Y0129312D03*
X0148217Y0118312D03*
X0134217Y0140312D03*
X0132217Y0171312D03*
X0161217Y0231312D03*
X0200217Y0232312D03*
X0052186Y0189595D03*
X0039186Y0189595D03*
X0039217Y0173312D03*
X0039217Y0163312D03*
X0039217Y0153312D03*
X0039296Y0143383D03*
X0039454Y0133540D03*
X0041776Y0115170D03*
X0039918Y0088170D03*
X0048469Y0077485D03*
X0048469Y0067485D03*
X0048469Y0057485D03*
X0138233Y0063312D03*
X0139217Y0051343D03*
X0139076Y0033721D03*
X0158918Y0032942D03*
X0158076Y0051343D03*
X0158076Y0063312D03*
D18*
X0187107Y0121721D03*
X0208808Y0158312D03*
X0222524Y0194808D03*
X0224493Y0226304D03*
X0162485Y0223351D03*
X0130005Y0231225D03*
X0124099Y0226304D03*
X0109650Y0203220D03*
X0120162Y0183981D03*
X0078619Y0203682D03*
X0079808Y0232209D03*
D19*
X0091217Y0195312D03*
X0087217Y0176312D03*
X0126217Y0162312D03*
X0149217Y0149312D03*
X0157217Y0144312D03*
X0163217Y0142312D03*
X0160217Y0122312D03*
X0146737Y0107209D03*
X0157217Y0098312D03*
X0148217Y0092312D03*
X0148217Y0078312D03*
X0162217Y0079312D03*
X0177217Y0092312D03*
X0186217Y0072312D03*
X0196217Y0063312D03*
X0200217Y0053312D03*
X0214217Y0053312D03*
X0221217Y0037312D03*
X0210217Y0098312D03*
X0205539Y0108633D03*
X0125217Y0114312D03*
X0124217Y0096312D03*
X0115217Y0078312D03*
X0121217Y0075312D03*
X0117217Y0071312D03*
X0108713Y0072446D03*
X0104217Y0068312D03*
X0096217Y0068312D03*
X0087447Y0068398D03*
X0082737Y0060485D03*
X0076162Y0063209D03*
X0065217Y0056312D03*
X0091217Y0032312D03*
X0081217Y0025312D03*
X0119217Y0024312D03*
X0101217Y0082312D03*
X0094217Y0090312D03*
X0101217Y0095312D03*
X0072217Y0120312D03*
X0060217Y0114312D03*
X0063217Y0107312D03*
X0062217Y0089312D03*
X0034217Y0125312D03*
X0094217Y0131312D03*
X0131217Y0222312D03*
X0184217Y0223312D03*
X0230217Y0222312D03*
D20*
X0198217Y0197162D03*
X0194617Y0221462D03*
X0154567Y0179162D03*
X0142867Y0176462D03*
X0129817Y0180962D03*
X0166717Y0158462D03*
X0182917Y0159812D03*
X0178867Y0135962D03*
X0144667Y0097712D03*
X0139267Y0093212D03*
X0128317Y0093662D03*
X0121267Y0080162D03*
X0112267Y0091862D03*
X0108667Y0095462D03*
X0106417Y0087362D03*
X0096517Y0082412D03*
X0090667Y0081962D03*
X0111967Y0050262D03*
X0108017Y0046262D03*
X0080317Y0046862D03*
X0069067Y0114812D03*
X0081217Y0125612D03*
X0077167Y0142712D03*
X0075767Y0196362D03*
X0101872Y0220316D03*
X0111367Y0222812D03*
X0133517Y0123862D03*
X0129917Y0118262D03*
X0192367Y0080612D03*
X0195967Y0084212D03*
D21*
X0039217Y0023312D03*
X0039217Y0225812D03*
X0241717Y0225812D03*
X0241717Y0023312D03*
D22*
X0191603Y0058446D03*
X0177265Y0084335D03*
X0199902Y0103020D03*
X0223635Y0078178D03*
X0163485Y0111894D03*
X0203855Y0146375D03*
X0176170Y0196808D03*
X0162485Y0212524D03*
X0171343Y0231225D03*
X0194526Y0213898D03*
X0209729Y0212524D03*
X0207761Y0227288D03*
X0236304Y0207603D03*
X0146737Y0229257D03*
X0126068Y0197761D03*
X0133942Y0195792D03*
X0104336Y0209728D03*
X0067776Y0225288D03*
X0044902Y0205635D03*
X0066713Y0191855D03*
X0113272Y0135753D03*
X0055202Y0103272D03*
D23*
X0058028Y0224792D03*
D24*
X0210713Y0221383D03*
M02*
